G04 #@! TF.GenerationSoftware,KiCad,Pcbnew,9.0.2*
G04 #@! TF.CreationDate,2025-08-14T17:34:42+08:00*
G04 #@! TF.ProjectId,VCU_V3_1_PREFAB,5643555f-5633-45f3-915f-505245464142,rev?*
G04 #@! TF.SameCoordinates,Original*
G04 #@! TF.FileFunction,Soldermask,Bot*
G04 #@! TF.FilePolarity,Negative*
%FSLAX46Y46*%
G04 Gerber Fmt 4.6, Leading zero omitted, Abs format (unit mm)*
G04 Created by KiCad (PCBNEW 9.0.2) date 2025-08-14 17:34:42*
%MOMM*%
%LPD*%
G01*
G04 APERTURE LIST*
G04 Aperture macros list*
%AMRoundRect*
0 Rectangle with rounded corners*
0 $1 Rounding radius*
0 $2 $3 $4 $5 $6 $7 $8 $9 X,Y pos of 4 corners*
0 Add a 4 corners polygon primitive as box body*
4,1,4,$2,$3,$4,$5,$6,$7,$8,$9,$2,$3,0*
0 Add four circle primitives for the rounded corners*
1,1,$1+$1,$2,$3*
1,1,$1+$1,$4,$5*
1,1,$1+$1,$6,$7*
1,1,$1+$1,$8,$9*
0 Add four rect primitives between the rounded corners*
20,1,$1+$1,$2,$3,$4,$5,0*
20,1,$1+$1,$4,$5,$6,$7,0*
20,1,$1+$1,$6,$7,$8,$9,0*
20,1,$1+$1,$8,$9,$2,$3,0*%
G04 Aperture macros list end*
%ADD10C,0.200000*%
%ADD11R,1.700000X1.700000*%
%ADD12O,1.700000X1.700000*%
%ADD13RoundRect,0.250000X-0.600000X-0.725000X0.600000X-0.725000X0.600000X0.725000X-0.600000X0.725000X0*%
%ADD14O,1.700000X1.950000*%
%ADD15C,3.200000*%
%ADD16RoundRect,0.305575X0.412525X-0.460025X0.412525X0.460025X-0.412525X0.460025X-0.412525X-0.460025X0*%
%ADD17RoundRect,0.308511X0.416489X-0.457089X0.416489X0.457089X-0.416489X0.457089X-0.416489X-0.457089X0*%
%ADD18R,2.000000X2.000000*%
%ADD19O,2.000000X3.000000*%
%ADD20O,8.000000X2.500000*%
%ADD21O,6.000000X3.500000*%
%ADD22O,5.600000X2.500000*%
%ADD23C,2.600000*%
%ADD24C,2.000000*%
%ADD25RoundRect,0.250000X0.600000X0.725000X-0.600000X0.725000X-0.600000X-0.725000X0.600000X-0.725000X0*%
%ADD26C,2.400000*%
%ADD27RoundRect,0.305575X-0.412525X0.460025X-0.412525X-0.460025X0.412525X-0.460025X0.412525X0.460025X0*%
%ADD28RoundRect,0.308511X-0.416489X0.457089X-0.416489X-0.457089X0.416489X-0.457089X0.416489X0.457089X0*%
%ADD29RoundRect,0.305575X0.460025X0.412525X-0.460025X0.412525X-0.460025X-0.412525X0.460025X-0.412525X0*%
%ADD30RoundRect,0.308511X0.457089X0.416489X-0.457089X0.416489X-0.457089X-0.416489X0.457089X-0.416489X0*%
%ADD31RoundRect,0.305575X-0.460025X-0.412525X0.460025X-0.412525X0.460025X0.412525X-0.460025X0.412525X0*%
%ADD32RoundRect,0.308511X-0.457089X-0.416489X0.457089X-0.416489X0.457089X0.416489X-0.457089X0.416489X0*%
%ADD33RoundRect,0.278125X0.474375X0.389375X-0.474375X0.389375X-0.474375X-0.389375X0.474375X-0.389375X0*%
%ADD34RoundRect,0.278125X0.389375X-0.474375X0.389375X0.474375X-0.389375X0.474375X-0.389375X-0.474375X0*%
%ADD35RoundRect,0.278125X-0.474375X-0.389375X0.474375X-0.389375X0.474375X0.389375X-0.474375X0.389375X0*%
%ADD36RoundRect,0.150000X-0.150000X1.350000X-0.150000X-1.350000X0.150000X-1.350000X0.150000X1.350000X0*%
%ADD37RoundRect,0.150000X-0.150000X1.337500X-0.150000X-1.337500X0.150000X-1.337500X0.150000X1.337500X0*%
G04 APERTURE END LIST*
D10*
X148000000Y-42500000D02*
X165000000Y-42500000D01*
X165000000Y-52500000D01*
X148000000Y-52500000D01*
X148000000Y-42500000D01*
G36*
X148000000Y-42500000D02*
G01*
X165000000Y-42500000D01*
X165000000Y-52500000D01*
X148000000Y-52500000D01*
X148000000Y-42500000D01*
G37*
D11*
X191975000Y-62275000D03*
D12*
X191975000Y-59735000D03*
X194515000Y-62275000D03*
X194515000Y-59735000D03*
X197055000Y-62275000D03*
X197055000Y-59735000D03*
D13*
X171250000Y-124975000D03*
D14*
X173750000Y-124975000D03*
X176250000Y-124975000D03*
X178750000Y-124975000D03*
D15*
X111100000Y-45989100D03*
D16*
X148491300Y-97208700D03*
D17*
X148484400Y-94777500D03*
D18*
X175000000Y-49867677D03*
D19*
X175000000Y-44867677D03*
D15*
X194300000Y-45836700D03*
X194400000Y-132247500D03*
D20*
X97000000Y-42200000D03*
D21*
X87500000Y-47200000D03*
D22*
X96000000Y-82200000D03*
D23*
X102500000Y-49725000D03*
X102500000Y-53875000D03*
X102500000Y-57205000D03*
X102500000Y-60535000D03*
X102500000Y-63840000D03*
X102500000Y-67195000D03*
X102500000Y-70525000D03*
X102500000Y-74675000D03*
X98300000Y-49725000D03*
X98300000Y-53875000D03*
X98300000Y-57205000D03*
X98300000Y-60535000D03*
X98300000Y-63840000D03*
X98300000Y-67195000D03*
X98300000Y-70525000D03*
X98300000Y-74675000D03*
X94100000Y-49725000D03*
X94100000Y-53875000D03*
X94100000Y-57205000D03*
X94100000Y-60535000D03*
X94100000Y-63840000D03*
X94100000Y-67195000D03*
X94100000Y-70525000D03*
X94100000Y-74675000D03*
D24*
X178750000Y-56250000D03*
X185250000Y-56250000D03*
X178750000Y-60750000D03*
X185250000Y-60750000D03*
D25*
X163000000Y-73000000D03*
D14*
X160500000Y-73000000D03*
X158000000Y-73000000D03*
X155500000Y-73000000D03*
D26*
X177000000Y-99006719D03*
X177000000Y-104086719D03*
D15*
X110900000Y-132247500D03*
D26*
X188493282Y-85500000D03*
X183413282Y-85500000D03*
X194500000Y-99006720D03*
X194500000Y-104086720D03*
D18*
X140000000Y-52000000D03*
D19*
X140000000Y-47000000D03*
D26*
X158500000Y-99000000D03*
X158500000Y-104080000D03*
D22*
X95800000Y-95600000D03*
D21*
X87400000Y-131800000D03*
D20*
X96800000Y-135800000D03*
D23*
X102400000Y-103325000D03*
X102400000Y-107475000D03*
X102400000Y-110805000D03*
X102400000Y-114135000D03*
X102400000Y-117440000D03*
X102400000Y-120795000D03*
X102400000Y-124125000D03*
X102400000Y-128275000D03*
X98200000Y-103325000D03*
X98200000Y-107475000D03*
X98200000Y-110805000D03*
X98200000Y-114135000D03*
X98200000Y-117440000D03*
X98200000Y-120795000D03*
X98200000Y-124125000D03*
X98200000Y-128275000D03*
X94000000Y-103325000D03*
X94000000Y-107475000D03*
X94000000Y-110805000D03*
X94000000Y-114135000D03*
X94000000Y-117440000D03*
X94000000Y-120795000D03*
X94000000Y-124125000D03*
X94000000Y-128275000D03*
D27*
X171493100Y-81284400D03*
D28*
X171500000Y-83715600D03*
D29*
X192215600Y-115493100D03*
D30*
X189784400Y-115500000D03*
D31*
X128784400Y-127006900D03*
D32*
X131215600Y-127000000D03*
D33*
X108652500Y-107467500D03*
X106347500Y-107467500D03*
D34*
X198532500Y-102652502D03*
X198532500Y-100347502D03*
X162592500Y-103190182D03*
X162592500Y-100885182D03*
D33*
X114152500Y-74967500D03*
X111847500Y-74967500D03*
D31*
X128784400Y-106506900D03*
D32*
X131215600Y-106500000D03*
D31*
X128784400Y-120506900D03*
D32*
X131215600Y-120500000D03*
D33*
X190165000Y-81000000D03*
X187860000Y-81000000D03*
D35*
X146847500Y-71032500D03*
X149152500Y-71032500D03*
D33*
X167271480Y-126967500D03*
X164966480Y-126967500D03*
D29*
X156715600Y-119993100D03*
D30*
X154284400Y-120000000D03*
D35*
X146695000Y-87032500D03*
X149000000Y-87032500D03*
D29*
X192215600Y-110493100D03*
D30*
X189784400Y-110500000D03*
D33*
X190152500Y-77467500D03*
X187847500Y-77467500D03*
D31*
X179632400Y-89506900D03*
D32*
X182063600Y-89500000D03*
D35*
X146695000Y-79532500D03*
X149000000Y-79532500D03*
X121847500Y-76532500D03*
X124152500Y-76532500D03*
D36*
X164289721Y-116253000D03*
X165559721Y-116253000D03*
D37*
X166694721Y-116240500D03*
D36*
X168099721Y-116253000D03*
X168099721Y-122253000D03*
X166829721Y-122253000D03*
X165559721Y-122253000D03*
X164289721Y-122253000D03*
D16*
X176006900Y-86215600D03*
D17*
X176000000Y-83784400D03*
D33*
X108652500Y-110717500D03*
X106347500Y-110717500D03*
D31*
X128784400Y-113006900D03*
D32*
X131215600Y-113000000D03*
D33*
X187080500Y-89467500D03*
X184775500Y-89467500D03*
D36*
X147955000Y-116253000D03*
X149225000Y-116253000D03*
D37*
X150360000Y-116240500D03*
D36*
X151765000Y-116253000D03*
X151765000Y-122253000D03*
X150495000Y-122253000D03*
X149225000Y-122253000D03*
X147955000Y-122253000D03*
D29*
X192223600Y-89493100D03*
D30*
X189792400Y-89500000D03*
D34*
X186032500Y-97152500D03*
X186032500Y-94847500D03*
D33*
X150936759Y-126967500D03*
X148631759Y-126967500D03*
X114141759Y-55467500D03*
X111836759Y-55467500D03*
D31*
X196284400Y-69506900D03*
D32*
X198715600Y-69500000D03*
D33*
X108652500Y-114013500D03*
X106347500Y-114013500D03*
D27*
X181993100Y-65784400D03*
D28*
X182000000Y-68215600D03*
D35*
X121847500Y-67032500D03*
X124152500Y-67032500D03*
D33*
X108652500Y-117315500D03*
X106347500Y-117315500D03*
D35*
X121847500Y-57532500D03*
X124152500Y-57532500D03*
D34*
X181032500Y-102152501D03*
X181032500Y-99847501D03*
D31*
X189784400Y-119006900D03*
D32*
X192215600Y-119000000D03*
D36*
X182225000Y-116253000D03*
X183495000Y-116253000D03*
D37*
X184630000Y-116240500D03*
D36*
X186035000Y-116253000D03*
X186035000Y-122253000D03*
X184765000Y-122253000D03*
X183495000Y-122253000D03*
X182225000Y-122253000D03*
D33*
X114141759Y-83967500D03*
X111836759Y-83967500D03*
D35*
X121847500Y-86032500D03*
X124152500Y-86032500D03*
D33*
X185206759Y-126967500D03*
X182901759Y-126967500D03*
X114141759Y-64467500D03*
X111836759Y-64467500D03*
D34*
X150532500Y-97152500D03*
X150532500Y-94847500D03*
X171532500Y-97152500D03*
X171532500Y-94847500D03*
D31*
X171284400Y-119506900D03*
D32*
X173715600Y-119500000D03*
M02*
