M48
; DRILL file {KiCad 9.0.2} date 2025-08-14T17:34:46+0800
; FORMAT={-:-/ absolute / metric / decimal}
; #@! TF.CreationDate,2025-08-14T17:34:46+08:00
; #@! TF.GenerationSoftware,Kicad,Pcbnew,9.0.2
; #@! TF.FileFunction,Plated,1,2,PTH
FMAT,2
METRIC
; #@! TA.AperFunction,Plated,PTH,ViaDrill
T1C0.300
; #@! TA.AperFunction,Plated,PTH,ViaDrill
T2C0.381
; #@! TA.AperFunction,Plated,PTH,ComponentDrill
T3C0.950
; #@! TA.AperFunction,Plated,PTH,ComponentDrill
T4C1.000
; #@! TA.AperFunction,Plated,PTH,ComponentDrill
T5C1.100
; #@! TA.AperFunction,Plated,PTH,ComponentDrill
T6C1.600
%
G90
G05
T1
X91.6Y-109.0
X100.25Y-130.0
X105.0Y-64.2
X108.5Y-115.5
X108.75Y-109.0
X108.75Y-112.25
X108.847Y-105.718
X112.5Y-106.75
X114.25Y-120.0
X114.75Y-112.5
X121.0Y-106.5
X125.6Y-77.8
X126.0Y-57.6
X128.0Y-90.0
X130.2Y-72.2
X142.0Y-125.75
X142.5Y-128.25
X145.5Y-130.5
X149.75Y-113.75
X152.9Y-97.0
X153.25Y-114.5
X154.5Y-113.03
X164.4Y-131.2
X164.8Y-64.0
X166.0Y-114.0
X166.0Y-128.2
X169.5Y-117.0
X169.5Y-117.0
X169.75Y-96.5
X169.8Y-114.4
X171.0Y-102.6
X171.5Y-71.25
X171.5Y-72.75
X171.5Y-113.03
X176.75Y-75.0
X181.1Y-83.4
X182.4Y-62.2
X183.6Y-131.6
X184.2Y-81.9
X186.0Y-78.4
X187.75Y-114.5
X188.2Y-104.0
X188.5Y-73.0
X193.0Y-101.6
X194.2Y-73.5
T2
X88.5Y-121.0
X88.5Y-124.0
X88.5Y-127.0
X95.0Y-85.5
X95.0Y-89.0
X95.0Y-92.0
X98.0Y-85.5
X98.0Y-89.0
X98.0Y-92.0
X98.5Y-133.0
X99.5Y-97.0
X103.0Y-133.0
X106.5Y-100.5
X106.5Y-104.0
X106.5Y-105.5
X107.0Y-122.5
X107.0Y-125.5
X108.0Y-96.5
X108.0Y-98.5
X110.5Y-125.5
X111.152Y-105.718
X111.807Y-64.5
X111.807Y-84.0
X111.814Y-55.5
X111.818Y-75.0
X113.5Y-72.5
X113.652Y-108.718
X114.0Y-98.5
X114.0Y-117.0
X114.142Y-55.467
X114.142Y-64.468
X114.142Y-83.968
X114.152Y-74.968
X115.5Y-108.5
X115.5Y-109.5
X116.5Y-103.5
X117.0Y-63.5
X117.5Y-72.5
X119.0Y-103.5
X119.0Y-117.0
X119.0Y-135.0
X120.292Y-131.792
X121.0Y-97.0
X121.0Y-102.0
X121.0Y-103.5
X121.5Y-135.0
X121.847Y-57.532
X121.847Y-67.032
X121.847Y-76.532
X121.847Y-86.032
X123.0Y-103.5
X124.5Y-117.0
X125.0Y-44.0
X125.0Y-46.5
X125.0Y-103.5
X127.0Y-123.0
X127.0Y-124.5
X128.5Y-83.0
X128.716Y-94.507
X128.784Y-106.507
X128.784Y-113.007
X128.784Y-120.507
X128.784Y-127.007
X129.0Y-44.0
X129.0Y-46.5
X131.0Y-68.5
X131.0Y-100.5
X131.0Y-103.0
X131.5Y-76.0
X131.5Y-84.0
X132.0Y-55.5
X132.0Y-60.5
X132.5Y-44.0
X132.5Y-46.5
X133.0Y-68.5
X133.0Y-76.0
X133.0Y-109.0
X133.0Y-111.0
X133.0Y-117.5
X133.0Y-124.0
X133.5Y-100.5
X133.5Y-112.5
X137.0Y-92.5
X137.0Y-99.5
X137.0Y-115.5
X137.0Y-123.5
X137.5Y-58.0
X138.5Y-97.0
X138.5Y-99.5
X139.5Y-84.0
X139.5Y-92.5
X140.0Y-68.0
X140.0Y-76.0
X140.5Y-123.5
X140.997Y-124.5
X142.0Y-68.0
X142.0Y-84.0
X142.5Y-76.0
X143.25Y-94.75
X144.5Y-84.0
X145.0Y-62.0
X145.0Y-63.5
X145.5Y-107.5
X145.5Y-111.0
X145.5Y-125.0
X146.653Y-73.968
X146.695Y-79.532
X146.695Y-87.032
X147.0Y-62.0
X148.0Y-114.25
X148.5Y-43.5
X148.5Y-44.5
X148.5Y-46.0
X148.5Y-47.5
X148.5Y-49.0
X148.5Y-50.5
X148.5Y-52.0
X148.5Y-94.8
X149.153Y-68.468
X149.606Y-104.902
X150.0Y-43.5
X150.0Y-44.5
X150.233Y-103.989
X150.6Y-97.1
X151.5Y-43.5
X151.5Y-44.5
X151.5Y-103.5
X152.0Y-114.0
X153.0Y-43.5
X153.0Y-44.5
X153.0Y-81.5
X153.0Y-83.0
X153.0Y-84.5
X154.284Y-120.0
X154.5Y-43.5
X154.5Y-44.5
X154.5Y-101.25
X155.5Y-81.5
X155.5Y-83.0
X155.5Y-84.5
X156.0Y-43.5
X156.0Y-44.5
X157.5Y-43.5
X157.5Y-44.5
X158.0Y-66.0
X158.0Y-111.0
X158.5Y-82.707
X158.5Y-135.0
X159.0Y-43.5
X159.0Y-44.5
X159.208Y-85.0
X159.5Y-116.5
X159.5Y-119.0
X160.5Y-66.0
X160.5Y-83.0
X160.5Y-111.0
X161.0Y-43.5
X161.0Y-44.5
X161.5Y-83.0
X161.5Y-116.5
X161.5Y-119.0
X161.5Y-121.5
X161.5Y-123.5
X162.0Y-135.0
X162.5Y-43.5
X162.5Y-44.5
X162.5Y-46.0
X162.5Y-47.5
X162.5Y-49.0
X162.5Y-50.5
X162.5Y-52.0
X162.5Y-128.0
X164.0Y-43.5
X164.0Y-44.5
X164.0Y-46.0
X164.0Y-47.5
X164.0Y-49.0
X164.0Y-50.5
X164.0Y-52.0
X164.0Y-84.5
X164.0Y-90.5
X164.0Y-114.0
X164.5Y-97.5
X165.0Y-87.0
X165.5Y-135.0
X166.5Y-97.5
X166.501Y-99.0
X167.132Y-105.0
X167.5Y-70.5
X167.5Y-72.05
X168.0Y-114.0
X168.233Y-104.292
X168.5Y-73.538
X168.5Y-74.5
X168.5Y-78.465
X169.0Y-77.517
X169.418Y-103.584
X169.5Y-109.0
X170.0Y-69.5
X171.45Y-83.784
X171.5Y-78.465
X172.519Y-76.808
X173.0Y-69.5
X173.5Y-98.0
X173.5Y-102.0
X174.0Y-88.5
X174.0Y-92.5
X174.0Y-135.0
X175.5Y-69.5
X175.5Y-115.5
X175.5Y-117.5
X176.0Y-55.0
X176.0Y-57.5
X176.0Y-60.0
X176.0Y-62.5
X176.0Y-110.0
X176.5Y-66.0
X177.5Y-79.208
X177.993Y-73.63
X178.159Y-69.841
X178.5Y-92.5
X179.0Y-115.5
X179.0Y-117.5
X179.0Y-121.5
X179.1Y-74.0
X179.5Y-83.5
X179.5Y-131.5
X180.0Y-74.5
X180.5Y-78.501
X180.5Y-77.5
X181.5Y-74.5
X182.0Y-70.0
X182.0Y-113.865
X183.0Y-44.0
X183.0Y-45.5
X183.5Y-97.216
X185.0Y-44.0
X185.0Y-45.5
X185.5Y-105.0
X186.0Y-81.0
X186.0Y-92.5
X186.0Y-114.0
X186.032Y-97.152
X186.5Y-71.0
X186.5Y-104.0
X187.0Y-44.0
X187.0Y-45.5
X187.5Y-103.0
X187.5Y-109.0
X187.5Y-110.5
X188.0Y-63.0
X188.0Y-122.0
X188.0Y-124.5
X188.5Y-71.0
X189.784Y-115.5
X190.0Y-67.5
X190.487Y-77.5
X190.487Y-81.0
X190.5Y-71.0
X192.0Y-70.5
X192.0Y-73.5
X192.216Y-110.493
X192.5Y-77.5
X192.5Y-80.977
X192.5Y-87.67
X192.5Y-113.0
X192.693Y-82.5
X193.5Y-68.0
X194.5Y-51.0
X194.5Y-72.0
X195.5Y-110.0
X195.708Y-76.962
X197.25Y-72.25
X197.5Y-111.0
X197.5Y-113.0
X197.5Y-115.5
X197.5Y-117.5
X198.5Y-51.0
X198.5Y-66.0
X198.5Y-127.0
T3
X155.5Y-73.0
X158.0Y-73.0
X160.5Y-73.0
X163.0Y-73.0
X171.25Y-124.975
X173.75Y-124.975
X176.25Y-124.975
X178.75Y-124.975
T4
X140.0Y-52.0
X158.5Y-99.0
X158.5Y-104.08
X175.0Y-49.868
X177.0Y-99.007
X177.0Y-104.087
X183.413Y-85.5
X188.493Y-85.5
X191.975Y-59.735
X191.975Y-62.275
X194.5Y-99.007
X194.5Y-104.087
X194.515Y-59.735
X194.515Y-62.275
X197.055Y-59.735
X197.055Y-62.275
T5
X178.75Y-56.25
X178.75Y-60.75
X185.25Y-56.25
X185.25Y-60.75
T6
X94.0Y-103.325
X94.0Y-107.475
X94.0Y-110.805
X94.0Y-114.135
X94.0Y-117.44
X94.0Y-120.795
X94.0Y-124.125
X94.0Y-128.275
X94.1Y-49.725
X94.1Y-53.875
X94.1Y-57.205
X94.1Y-60.535
X94.1Y-63.84
X94.1Y-67.195
X94.1Y-70.525
X94.1Y-74.675
X98.2Y-103.325
X98.2Y-107.475
X98.2Y-110.805
X98.2Y-114.135
X98.2Y-117.44
X98.2Y-120.795
X98.2Y-124.125
X98.2Y-128.275
X98.3Y-49.725
X98.3Y-53.875
X98.3Y-57.205
X98.3Y-60.535
X98.3Y-63.84
X98.3Y-67.195
X98.3Y-70.525
X98.3Y-74.675
X102.4Y-103.325
X102.4Y-107.475
X102.4Y-110.805
X102.4Y-114.135
X102.4Y-117.44
X102.4Y-120.795
X102.4Y-124.125
X102.4Y-128.275
X102.5Y-49.725
X102.5Y-53.875
X102.5Y-57.205
X102.5Y-60.535
X102.5Y-63.84
X102.5Y-67.195
X102.5Y-70.525
X102.5Y-74.675
T4
G00X140.0Y-47.5
M15
G01X140.0Y-46.5
M16
G05
G00X175.0Y-45.368
M15
G01X175.0Y-44.368
M16
G05
M30
