%TF.GenerationSoftware,KiCad,Pcbnew,9.0.2*%
%TF.CreationDate,2025-09-23T15:25:02+08:00*%
%TF.ProjectId,VCU V3.2,56435520-5633-42e3-922e-6b696361645f,rev?*%
%TF.SameCoordinates,Original*%
%TF.FileFunction,Legend,Bot*%
%TF.FilePolarity,Positive*%
%FSLAX46Y46*%
G04 Gerber Fmt 4.6, Leading zero omitted, Abs format (unit mm)*
G04 Created by KiCad (PCBNEW 9.0.2) date 2025-09-23 15:25:02*
%MOMM*%
%LPD*%
G01*
G04 APERTURE LIST*
%ADD10C,0.100000*%
%ADD11C,0.150000*%
%ADD12C,0.120000*%
G04 APERTURE END LIST*
D10*
X158000000Y-128250000D02*
X167250000Y-128250000D01*
X167250000Y-130250000D01*
X158000000Y-130250000D01*
X158000000Y-128250000D01*
X125750000Y-125000000D02*
X128750000Y-125000000D01*
X128750000Y-126750000D01*
X125750000Y-126750000D01*
X125750000Y-125000000D01*
X182750000Y-128250000D02*
X192000000Y-128250000D01*
X192000000Y-130250000D01*
X182750000Y-130250000D01*
X182750000Y-128250000D01*
X134500000Y-85750000D02*
X140500000Y-85750000D01*
X140500000Y-90250000D01*
X134500000Y-90250000D01*
X134500000Y-85750000D01*
X114000000Y-104750000D02*
X117000000Y-104750000D01*
X117000000Y-106250000D01*
X114000000Y-106250000D01*
X114000000Y-104750000D01*
X151000000Y-85750000D02*
X157000000Y-85750000D01*
X157000000Y-90250000D01*
X151000000Y-90250000D01*
X151000000Y-85750000D01*
X134250000Y-122500000D02*
X137500000Y-122500000D01*
X137500000Y-126500000D01*
X134250000Y-126500000D01*
X134250000Y-122500000D01*
X156000000Y-68000000D02*
X159000000Y-68000000D01*
X159000000Y-80000000D01*
X156000000Y-80000000D01*
X156000000Y-68000000D01*
X129750000Y-122500000D02*
X134250000Y-122500000D01*
X134250000Y-126500000D01*
X129750000Y-126500000D01*
X129750000Y-122500000D01*
X94000000Y-102750000D02*
X97000000Y-102750000D01*
X97000000Y-104250000D01*
X94000000Y-104250000D01*
X94000000Y-102750000D01*
X202500000Y-122000000D02*
X206500000Y-122000000D01*
X206500000Y-123500000D01*
X202500000Y-123500000D01*
X202500000Y-122000000D01*
X97000000Y-106000000D02*
X99000000Y-106000000D01*
X99000000Y-110500000D01*
X97000000Y-110500000D01*
X97000000Y-106000000D01*
X159000000Y-74010284D02*
X165000000Y-74010284D01*
X165000000Y-80000000D01*
X159000000Y-80000000D01*
X159000000Y-74010284D01*
X150250000Y-124500000D02*
X153250000Y-124500000D01*
X153250000Y-126500000D01*
X150250000Y-126500000D01*
X150250000Y-124500000D01*
X193000000Y-49500000D02*
X198500000Y-49500000D01*
X198500000Y-53000000D01*
X193000000Y-53000000D01*
X193000000Y-49500000D01*
X153250000Y-133500000D02*
X167250000Y-133500000D01*
X167250000Y-135500000D01*
X153250000Y-135500000D01*
X153250000Y-133500000D01*
X94000000Y-106000000D02*
X97000000Y-106000000D01*
X97000000Y-107500000D01*
X94000000Y-107500000D01*
X94000000Y-106000000D01*
X133500000Y-128250000D02*
X142750000Y-128250000D01*
X142750000Y-130250000D01*
X133500000Y-130250000D01*
X133500000Y-128250000D01*
X148250000Y-122000000D02*
X150250000Y-122000000D01*
X150250000Y-126500000D01*
X148250000Y-126500000D01*
X148250000Y-122000000D01*
X187875000Y-122500000D02*
X190000000Y-122500000D01*
X190000000Y-127500000D01*
X187875000Y-127500000D01*
X187875000Y-122500000D01*
X178000000Y-133500000D02*
X192000000Y-133500000D01*
X192000000Y-135500000D01*
X178000000Y-135500000D01*
X178000000Y-133500000D01*
X117500000Y-80000000D02*
X117500000Y-78000000D01*
X148500000Y-60000000D02*
X153000000Y-60000000D01*
X153000000Y-80000000D01*
X148500000Y-80000000D01*
X148500000Y-60000000D01*
X136500000Y-60000000D02*
X141250000Y-60000000D01*
X141250000Y-80000000D01*
X136500000Y-80000000D01*
X136500000Y-60000000D01*
X134500000Y-90250000D02*
X140500000Y-90250000D01*
X140500000Y-91750000D01*
X134500000Y-91750000D01*
X134500000Y-90250000D01*
X119000000Y-90250000D02*
X125000000Y-90250000D01*
X125000000Y-91750000D01*
X119000000Y-91750000D01*
X119000000Y-90250000D01*
X123500000Y-122250000D02*
X125750000Y-122250000D01*
X125750000Y-126750000D01*
X123500000Y-126750000D01*
X123500000Y-122250000D01*
X134000000Y-74000000D02*
X136500000Y-74000000D01*
X136500000Y-80000000D01*
X134000000Y-80000000D01*
X134000000Y-74000000D01*
X141000000Y-92000000D02*
X144000000Y-92000000D01*
X144000000Y-116000000D01*
X141000000Y-116000000D01*
X141000000Y-92000000D01*
X154250000Y-122500000D02*
X158750000Y-122500000D01*
X158750000Y-126500000D01*
X154250000Y-126500000D01*
X154250000Y-122500000D01*
X151000000Y-90250000D02*
X157000000Y-90250000D01*
X157000000Y-91750000D01*
X151000000Y-91750000D01*
X151000000Y-90250000D01*
X190000000Y-125250000D02*
X193000000Y-125250000D01*
X193000000Y-127500000D01*
X190000000Y-127500000D01*
X190000000Y-125250000D01*
X172500000Y-122250000D02*
X174500000Y-122250000D01*
X174500000Y-126750000D01*
X172500000Y-126750000D01*
X172500000Y-122250000D01*
X128500000Y-133500000D02*
X142750000Y-133500000D01*
X142750000Y-135500000D01*
X128500000Y-135500000D01*
X128500000Y-133500000D01*
X184500000Y-86000000D02*
X198000000Y-86000000D01*
X198000000Y-90500000D01*
X184500000Y-90500000D01*
X184500000Y-86000000D01*
X153000000Y-68000000D02*
X156000000Y-68000000D01*
X156000000Y-80000000D01*
X153000000Y-80000000D01*
X153000000Y-68000000D01*
X141250000Y-60000000D02*
X148500000Y-60000000D01*
X148500000Y-80000000D01*
X141250000Y-80000000D01*
X141250000Y-60000000D01*
X181000000Y-120000000D02*
X184000000Y-120000000D01*
X184000000Y-125000000D01*
X181000000Y-125000000D01*
X181000000Y-120000000D01*
X119000000Y-85750000D02*
X125000000Y-85750000D01*
X125000000Y-90250000D01*
X119000000Y-90250000D01*
X119000000Y-85750000D01*
X114000000Y-100500000D02*
X117000000Y-100500000D01*
X117000000Y-102000000D01*
X114000000Y-102000000D01*
X114000000Y-100500000D01*
X97000000Y-99500000D02*
X99000000Y-99500000D01*
X99000000Y-104250000D01*
X97000000Y-104250000D01*
X97000000Y-99500000D01*
X184500000Y-83000000D02*
X198000000Y-83000000D01*
X198000000Y-86000000D01*
X184500000Y-86000000D01*
X184500000Y-83000000D01*
X180500000Y-64000000D02*
X195000000Y-64000000D01*
X195000000Y-68000000D01*
X180500000Y-68000000D01*
X180500000Y-64000000D01*
X144000000Y-92000000D02*
X149000000Y-92000000D01*
X149000000Y-116000000D01*
X144000000Y-116000000D01*
X144000000Y-92000000D01*
X112500000Y-102000000D02*
X117000000Y-102000000D01*
X117000000Y-104000000D01*
X112500000Y-104000000D01*
X112500000Y-102000000D01*
X134000000Y-80000000D02*
X117500000Y-80000000D01*
X174500000Y-125250000D02*
X177500000Y-125250000D01*
X177500000Y-126750000D01*
X174500000Y-126750000D01*
X174500000Y-125250000D01*
X158750000Y-122500000D02*
X161750000Y-122500000D01*
X161750000Y-126500000D01*
X158750000Y-126500000D01*
X158750000Y-122500000D01*
X179000000Y-120000000D02*
X184000000Y-120000000D01*
X184000000Y-127000000D01*
X179000000Y-127000000D01*
X179000000Y-120000000D01*
X112500000Y-106250000D02*
X117000000Y-106250000D01*
X117000000Y-108250000D01*
X112500000Y-108250000D01*
X112500000Y-106250000D01*
D11*
X160142857Y-129609580D02*
X160190476Y-129657200D01*
X160190476Y-129657200D02*
X160333333Y-129704819D01*
X160333333Y-129704819D02*
X160428571Y-129704819D01*
X160428571Y-129704819D02*
X160571428Y-129657200D01*
X160571428Y-129657200D02*
X160666666Y-129561961D01*
X160666666Y-129561961D02*
X160714285Y-129466723D01*
X160714285Y-129466723D02*
X160761904Y-129276247D01*
X160761904Y-129276247D02*
X160761904Y-129133390D01*
X160761904Y-129133390D02*
X160714285Y-128942914D01*
X160714285Y-128942914D02*
X160666666Y-128847676D01*
X160666666Y-128847676D02*
X160571428Y-128752438D01*
X160571428Y-128752438D02*
X160428571Y-128704819D01*
X160428571Y-128704819D02*
X160333333Y-128704819D01*
X160333333Y-128704819D02*
X160190476Y-128752438D01*
X160190476Y-128752438D02*
X160142857Y-128800057D01*
X159190476Y-129704819D02*
X159761904Y-129704819D01*
X159476190Y-129704819D02*
X159476190Y-128704819D01*
X159476190Y-128704819D02*
X159571428Y-128847676D01*
X159571428Y-128847676D02*
X159666666Y-128942914D01*
X159666666Y-128942914D02*
X159761904Y-128990533D01*
X158333333Y-128704819D02*
X158523809Y-128704819D01*
X158523809Y-128704819D02*
X158619047Y-128752438D01*
X158619047Y-128752438D02*
X158666666Y-128800057D01*
X158666666Y-128800057D02*
X158761904Y-128942914D01*
X158761904Y-128942914D02*
X158809523Y-129133390D01*
X158809523Y-129133390D02*
X158809523Y-129514342D01*
X158809523Y-129514342D02*
X158761904Y-129609580D01*
X158761904Y-129609580D02*
X158714285Y-129657200D01*
X158714285Y-129657200D02*
X158619047Y-129704819D01*
X158619047Y-129704819D02*
X158428571Y-129704819D01*
X158428571Y-129704819D02*
X158333333Y-129657200D01*
X158333333Y-129657200D02*
X158285714Y-129609580D01*
X158285714Y-129609580D02*
X158238095Y-129514342D01*
X158238095Y-129514342D02*
X158238095Y-129276247D01*
X158238095Y-129276247D02*
X158285714Y-129181009D01*
X158285714Y-129181009D02*
X158333333Y-129133390D01*
X158333333Y-129133390D02*
X158428571Y-129085771D01*
X158428571Y-129085771D02*
X158619047Y-129085771D01*
X158619047Y-129085771D02*
X158714285Y-129133390D01*
X158714285Y-129133390D02*
X158761904Y-129181009D01*
X158761904Y-129181009D02*
X158809523Y-129276247D01*
X191142857Y-129609580D02*
X191190476Y-129657200D01*
X191190476Y-129657200D02*
X191333333Y-129704819D01*
X191333333Y-129704819D02*
X191428571Y-129704819D01*
X191428571Y-129704819D02*
X191571428Y-129657200D01*
X191571428Y-129657200D02*
X191666666Y-129561961D01*
X191666666Y-129561961D02*
X191714285Y-129466723D01*
X191714285Y-129466723D02*
X191761904Y-129276247D01*
X191761904Y-129276247D02*
X191761904Y-129133390D01*
X191761904Y-129133390D02*
X191714285Y-128942914D01*
X191714285Y-128942914D02*
X191666666Y-128847676D01*
X191666666Y-128847676D02*
X191571428Y-128752438D01*
X191571428Y-128752438D02*
X191428571Y-128704819D01*
X191428571Y-128704819D02*
X191333333Y-128704819D01*
X191333333Y-128704819D02*
X191190476Y-128752438D01*
X191190476Y-128752438D02*
X191142857Y-128800057D01*
X190809523Y-128704819D02*
X190190476Y-128704819D01*
X190190476Y-128704819D02*
X190523809Y-129085771D01*
X190523809Y-129085771D02*
X190380952Y-129085771D01*
X190380952Y-129085771D02*
X190285714Y-129133390D01*
X190285714Y-129133390D02*
X190238095Y-129181009D01*
X190238095Y-129181009D02*
X190190476Y-129276247D01*
X190190476Y-129276247D02*
X190190476Y-129514342D01*
X190190476Y-129514342D02*
X190238095Y-129609580D01*
X190238095Y-129609580D02*
X190285714Y-129657200D01*
X190285714Y-129657200D02*
X190380952Y-129704819D01*
X190380952Y-129704819D02*
X190666666Y-129704819D01*
X190666666Y-129704819D02*
X190761904Y-129657200D01*
X190761904Y-129657200D02*
X190809523Y-129609580D01*
X189333333Y-129038152D02*
X189333333Y-129704819D01*
X189571428Y-128657200D02*
X189809523Y-129371485D01*
X189809523Y-129371485D02*
X189190476Y-129371485D01*
X141920357Y-129609580D02*
X141967976Y-129657200D01*
X141967976Y-129657200D02*
X142110833Y-129704819D01*
X142110833Y-129704819D02*
X142206071Y-129704819D01*
X142206071Y-129704819D02*
X142348928Y-129657200D01*
X142348928Y-129657200D02*
X142444166Y-129561961D01*
X142444166Y-129561961D02*
X142491785Y-129466723D01*
X142491785Y-129466723D02*
X142539404Y-129276247D01*
X142539404Y-129276247D02*
X142539404Y-129133390D01*
X142539404Y-129133390D02*
X142491785Y-128942914D01*
X142491785Y-128942914D02*
X142444166Y-128847676D01*
X142444166Y-128847676D02*
X142348928Y-128752438D01*
X142348928Y-128752438D02*
X142206071Y-128704819D01*
X142206071Y-128704819D02*
X142110833Y-128704819D01*
X142110833Y-128704819D02*
X141967976Y-128752438D01*
X141967976Y-128752438D02*
X141920357Y-128800057D01*
X141539404Y-128800057D02*
X141491785Y-128752438D01*
X141491785Y-128752438D02*
X141396547Y-128704819D01*
X141396547Y-128704819D02*
X141158452Y-128704819D01*
X141158452Y-128704819D02*
X141063214Y-128752438D01*
X141063214Y-128752438D02*
X141015595Y-128800057D01*
X141015595Y-128800057D02*
X140967976Y-128895295D01*
X140967976Y-128895295D02*
X140967976Y-128990533D01*
X140967976Y-128990533D02*
X141015595Y-129133390D01*
X141015595Y-129133390D02*
X141587023Y-129704819D01*
X141587023Y-129704819D02*
X140967976Y-129704819D01*
X140634642Y-128704819D02*
X139967976Y-128704819D01*
X139967976Y-128704819D02*
X140396547Y-129704819D01*
X155070309Y-69369819D02*
X155403642Y-68893628D01*
X155641737Y-69369819D02*
X155641737Y-68369819D01*
X155641737Y-68369819D02*
X155260785Y-68369819D01*
X155260785Y-68369819D02*
X155165547Y-68417438D01*
X155165547Y-68417438D02*
X155117928Y-68465057D01*
X155117928Y-68465057D02*
X155070309Y-68560295D01*
X155070309Y-68560295D02*
X155070309Y-68703152D01*
X155070309Y-68703152D02*
X155117928Y-68798390D01*
X155117928Y-68798390D02*
X155165547Y-68846009D01*
X155165547Y-68846009D02*
X155260785Y-68893628D01*
X155260785Y-68893628D02*
X155641737Y-68893628D01*
X154498880Y-68798390D02*
X154594118Y-68750771D01*
X154594118Y-68750771D02*
X154641737Y-68703152D01*
X154641737Y-68703152D02*
X154689356Y-68607914D01*
X154689356Y-68607914D02*
X154689356Y-68560295D01*
X154689356Y-68560295D02*
X154641737Y-68465057D01*
X154641737Y-68465057D02*
X154594118Y-68417438D01*
X154594118Y-68417438D02*
X154498880Y-68369819D01*
X154498880Y-68369819D02*
X154308404Y-68369819D01*
X154308404Y-68369819D02*
X154213166Y-68417438D01*
X154213166Y-68417438D02*
X154165547Y-68465057D01*
X154165547Y-68465057D02*
X154117928Y-68560295D01*
X154117928Y-68560295D02*
X154117928Y-68607914D01*
X154117928Y-68607914D02*
X154165547Y-68703152D01*
X154165547Y-68703152D02*
X154213166Y-68750771D01*
X154213166Y-68750771D02*
X154308404Y-68798390D01*
X154308404Y-68798390D02*
X154498880Y-68798390D01*
X154498880Y-68798390D02*
X154594118Y-68846009D01*
X154594118Y-68846009D02*
X154641737Y-68893628D01*
X154641737Y-68893628D02*
X154689356Y-68988866D01*
X154689356Y-68988866D02*
X154689356Y-69179342D01*
X154689356Y-69179342D02*
X154641737Y-69274580D01*
X154641737Y-69274580D02*
X154594118Y-69322200D01*
X154594118Y-69322200D02*
X154498880Y-69369819D01*
X154498880Y-69369819D02*
X154308404Y-69369819D01*
X154308404Y-69369819D02*
X154213166Y-69322200D01*
X154213166Y-69322200D02*
X154165547Y-69274580D01*
X154165547Y-69274580D02*
X154117928Y-69179342D01*
X154117928Y-69179342D02*
X154117928Y-68988866D01*
X154117928Y-68988866D02*
X154165547Y-68893628D01*
X154165547Y-68893628D02*
X154213166Y-68846009D01*
X154213166Y-68846009D02*
X154308404Y-68798390D01*
X158091792Y-76869819D02*
X158425125Y-76393628D01*
X158663220Y-76869819D02*
X158663220Y-75869819D01*
X158663220Y-75869819D02*
X158282268Y-75869819D01*
X158282268Y-75869819D02*
X158187030Y-75917438D01*
X158187030Y-75917438D02*
X158139411Y-75965057D01*
X158139411Y-75965057D02*
X158091792Y-76060295D01*
X158091792Y-76060295D02*
X158091792Y-76203152D01*
X158091792Y-76203152D02*
X158139411Y-76298390D01*
X158139411Y-76298390D02*
X158187030Y-76346009D01*
X158187030Y-76346009D02*
X158282268Y-76393628D01*
X158282268Y-76393628D02*
X158663220Y-76393628D01*
X157139411Y-76869819D02*
X157710839Y-76869819D01*
X157425125Y-76869819D02*
X157425125Y-75869819D01*
X157425125Y-75869819D02*
X157520363Y-76012676D01*
X157520363Y-76012676D02*
X157615601Y-76107914D01*
X157615601Y-76107914D02*
X157710839Y-76155533D01*
X156234649Y-75869819D02*
X156710839Y-75869819D01*
X156710839Y-75869819D02*
X156758458Y-76346009D01*
X156758458Y-76346009D02*
X156710839Y-76298390D01*
X156710839Y-76298390D02*
X156615601Y-76250771D01*
X156615601Y-76250771D02*
X156377506Y-76250771D01*
X156377506Y-76250771D02*
X156282268Y-76298390D01*
X156282268Y-76298390D02*
X156234649Y-76346009D01*
X156234649Y-76346009D02*
X156187030Y-76441247D01*
X156187030Y-76441247D02*
X156187030Y-76679342D01*
X156187030Y-76679342D02*
X156234649Y-76774580D01*
X156234649Y-76774580D02*
X156282268Y-76822200D01*
X156282268Y-76822200D02*
X156377506Y-76869819D01*
X156377506Y-76869819D02*
X156615601Y-76869819D01*
X156615601Y-76869819D02*
X156710839Y-76822200D01*
X156710839Y-76822200D02*
X156758458Y-76774580D01*
X143168740Y-105454819D02*
X143502073Y-104978628D01*
X143740168Y-105454819D02*
X143740168Y-104454819D01*
X143740168Y-104454819D02*
X143359216Y-104454819D01*
X143359216Y-104454819D02*
X143263978Y-104502438D01*
X143263978Y-104502438D02*
X143216359Y-104550057D01*
X143216359Y-104550057D02*
X143168740Y-104645295D01*
X143168740Y-104645295D02*
X143168740Y-104788152D01*
X143168740Y-104788152D02*
X143216359Y-104883390D01*
X143216359Y-104883390D02*
X143263978Y-104931009D01*
X143263978Y-104931009D02*
X143359216Y-104978628D01*
X143359216Y-104978628D02*
X143740168Y-104978628D01*
X142835406Y-104454819D02*
X142216359Y-104454819D01*
X142216359Y-104454819D02*
X142549692Y-104835771D01*
X142549692Y-104835771D02*
X142406835Y-104835771D01*
X142406835Y-104835771D02*
X142311597Y-104883390D01*
X142311597Y-104883390D02*
X142263978Y-104931009D01*
X142263978Y-104931009D02*
X142216359Y-105026247D01*
X142216359Y-105026247D02*
X142216359Y-105264342D01*
X142216359Y-105264342D02*
X142263978Y-105359580D01*
X142263978Y-105359580D02*
X142311597Y-105407200D01*
X142311597Y-105407200D02*
X142406835Y-105454819D01*
X142406835Y-105454819D02*
X142692549Y-105454819D01*
X142692549Y-105454819D02*
X142787787Y-105407200D01*
X142787787Y-105407200D02*
X142835406Y-105359580D01*
X141359216Y-104788152D02*
X141359216Y-105454819D01*
X141597311Y-104407200D02*
X141835406Y-105121485D01*
X141835406Y-105121485D02*
X141216359Y-105121485D01*
X205666666Y-123109580D02*
X205714285Y-123157200D01*
X205714285Y-123157200D02*
X205857142Y-123204819D01*
X205857142Y-123204819D02*
X205952380Y-123204819D01*
X205952380Y-123204819D02*
X206095237Y-123157200D01*
X206095237Y-123157200D02*
X206190475Y-123061961D01*
X206190475Y-123061961D02*
X206238094Y-122966723D01*
X206238094Y-122966723D02*
X206285713Y-122776247D01*
X206285713Y-122776247D02*
X206285713Y-122633390D01*
X206285713Y-122633390D02*
X206238094Y-122442914D01*
X206238094Y-122442914D02*
X206190475Y-122347676D01*
X206190475Y-122347676D02*
X206095237Y-122252438D01*
X206095237Y-122252438D02*
X205952380Y-122204819D01*
X205952380Y-122204819D02*
X205857142Y-122204819D01*
X205857142Y-122204819D02*
X205714285Y-122252438D01*
X205714285Y-122252438D02*
X205666666Y-122300057D01*
X205333332Y-122204819D02*
X204666666Y-122204819D01*
X204666666Y-122204819D02*
X205095237Y-123204819D01*
X176642857Y-126359580D02*
X176690476Y-126407200D01*
X176690476Y-126407200D02*
X176833333Y-126454819D01*
X176833333Y-126454819D02*
X176928571Y-126454819D01*
X176928571Y-126454819D02*
X177071428Y-126407200D01*
X177071428Y-126407200D02*
X177166666Y-126311961D01*
X177166666Y-126311961D02*
X177214285Y-126216723D01*
X177214285Y-126216723D02*
X177261904Y-126026247D01*
X177261904Y-126026247D02*
X177261904Y-125883390D01*
X177261904Y-125883390D02*
X177214285Y-125692914D01*
X177214285Y-125692914D02*
X177166666Y-125597676D01*
X177166666Y-125597676D02*
X177071428Y-125502438D01*
X177071428Y-125502438D02*
X176928571Y-125454819D01*
X176928571Y-125454819D02*
X176833333Y-125454819D01*
X176833333Y-125454819D02*
X176690476Y-125502438D01*
X176690476Y-125502438D02*
X176642857Y-125550057D01*
X176309523Y-125454819D02*
X175690476Y-125454819D01*
X175690476Y-125454819D02*
X176023809Y-125835771D01*
X176023809Y-125835771D02*
X175880952Y-125835771D01*
X175880952Y-125835771D02*
X175785714Y-125883390D01*
X175785714Y-125883390D02*
X175738095Y-125931009D01*
X175738095Y-125931009D02*
X175690476Y-126026247D01*
X175690476Y-126026247D02*
X175690476Y-126264342D01*
X175690476Y-126264342D02*
X175738095Y-126359580D01*
X175738095Y-126359580D02*
X175785714Y-126407200D01*
X175785714Y-126407200D02*
X175880952Y-126454819D01*
X175880952Y-126454819D02*
X176166666Y-126454819D01*
X176166666Y-126454819D02*
X176261904Y-126407200D01*
X176261904Y-126407200D02*
X176309523Y-126359580D01*
X174785714Y-125454819D02*
X175261904Y-125454819D01*
X175261904Y-125454819D02*
X175309523Y-125931009D01*
X175309523Y-125931009D02*
X175261904Y-125883390D01*
X175261904Y-125883390D02*
X175166666Y-125835771D01*
X175166666Y-125835771D02*
X174928571Y-125835771D01*
X174928571Y-125835771D02*
X174833333Y-125883390D01*
X174833333Y-125883390D02*
X174785714Y-125931009D01*
X174785714Y-125931009D02*
X174738095Y-126026247D01*
X174738095Y-126026247D02*
X174738095Y-126264342D01*
X174738095Y-126264342D02*
X174785714Y-126359580D01*
X174785714Y-126359580D02*
X174833333Y-126407200D01*
X174833333Y-126407200D02*
X174928571Y-126454819D01*
X174928571Y-126454819D02*
X175166666Y-126454819D01*
X175166666Y-126454819D02*
X175261904Y-126407200D01*
X175261904Y-126407200D02*
X175309523Y-126359580D01*
X161091792Y-78369819D02*
X161425125Y-77893628D01*
X161663220Y-78369819D02*
X161663220Y-77369819D01*
X161663220Y-77369819D02*
X161282268Y-77369819D01*
X161282268Y-77369819D02*
X161187030Y-77417438D01*
X161187030Y-77417438D02*
X161139411Y-77465057D01*
X161139411Y-77465057D02*
X161091792Y-77560295D01*
X161091792Y-77560295D02*
X161091792Y-77703152D01*
X161091792Y-77703152D02*
X161139411Y-77798390D01*
X161139411Y-77798390D02*
X161187030Y-77846009D01*
X161187030Y-77846009D02*
X161282268Y-77893628D01*
X161282268Y-77893628D02*
X161663220Y-77893628D01*
X160187030Y-77369819D02*
X160663220Y-77369819D01*
X160663220Y-77369819D02*
X160710839Y-77846009D01*
X160710839Y-77846009D02*
X160663220Y-77798390D01*
X160663220Y-77798390D02*
X160567982Y-77750771D01*
X160567982Y-77750771D02*
X160329887Y-77750771D01*
X160329887Y-77750771D02*
X160234649Y-77798390D01*
X160234649Y-77798390D02*
X160187030Y-77846009D01*
X160187030Y-77846009D02*
X160139411Y-77941247D01*
X160139411Y-77941247D02*
X160139411Y-78179342D01*
X160139411Y-78179342D02*
X160187030Y-78274580D01*
X160187030Y-78274580D02*
X160234649Y-78322200D01*
X160234649Y-78322200D02*
X160329887Y-78369819D01*
X160329887Y-78369819D02*
X160567982Y-78369819D01*
X160567982Y-78369819D02*
X160663220Y-78322200D01*
X160663220Y-78322200D02*
X160710839Y-78274580D01*
X159187030Y-78369819D02*
X159758458Y-78369819D01*
X159472744Y-78369819D02*
X159472744Y-77369819D01*
X159472744Y-77369819D02*
X159567982Y-77512676D01*
X159567982Y-77512676D02*
X159663220Y-77607914D01*
X159663220Y-77607914D02*
X159758458Y-77655533D01*
X158091792Y-75369819D02*
X158425125Y-74893628D01*
X158663220Y-75369819D02*
X158663220Y-74369819D01*
X158663220Y-74369819D02*
X158282268Y-74369819D01*
X158282268Y-74369819D02*
X158187030Y-74417438D01*
X158187030Y-74417438D02*
X158139411Y-74465057D01*
X158139411Y-74465057D02*
X158091792Y-74560295D01*
X158091792Y-74560295D02*
X158091792Y-74703152D01*
X158091792Y-74703152D02*
X158139411Y-74798390D01*
X158139411Y-74798390D02*
X158187030Y-74846009D01*
X158187030Y-74846009D02*
X158282268Y-74893628D01*
X158282268Y-74893628D02*
X158663220Y-74893628D01*
X157139411Y-75369819D02*
X157710839Y-75369819D01*
X157425125Y-75369819D02*
X157425125Y-74369819D01*
X157425125Y-74369819D02*
X157520363Y-74512676D01*
X157520363Y-74512676D02*
X157615601Y-74607914D01*
X157615601Y-74607914D02*
X157710839Y-74655533D01*
X156806077Y-74369819D02*
X156187030Y-74369819D01*
X156187030Y-74369819D02*
X156520363Y-74750771D01*
X156520363Y-74750771D02*
X156377506Y-74750771D01*
X156377506Y-74750771D02*
X156282268Y-74798390D01*
X156282268Y-74798390D02*
X156234649Y-74846009D01*
X156234649Y-74846009D02*
X156187030Y-74941247D01*
X156187030Y-74941247D02*
X156187030Y-75179342D01*
X156187030Y-75179342D02*
X156234649Y-75274580D01*
X156234649Y-75274580D02*
X156282268Y-75322200D01*
X156282268Y-75322200D02*
X156377506Y-75369819D01*
X156377506Y-75369819D02*
X156663220Y-75369819D01*
X156663220Y-75369819D02*
X156758458Y-75322200D01*
X156758458Y-75322200D02*
X156806077Y-75274580D01*
X135496554Y-76965057D02*
X135591792Y-76917438D01*
X135591792Y-76917438D02*
X135687030Y-76822200D01*
X135687030Y-76822200D02*
X135829887Y-76679342D01*
X135829887Y-76679342D02*
X135925125Y-76631723D01*
X135925125Y-76631723D02*
X136020363Y-76631723D01*
X135972744Y-76869819D02*
X136067982Y-76822200D01*
X136067982Y-76822200D02*
X136163220Y-76726961D01*
X136163220Y-76726961D02*
X136210839Y-76536485D01*
X136210839Y-76536485D02*
X136210839Y-76203152D01*
X136210839Y-76203152D02*
X136163220Y-76012676D01*
X136163220Y-76012676D02*
X136067982Y-75917438D01*
X136067982Y-75917438D02*
X135972744Y-75869819D01*
X135972744Y-75869819D02*
X135782268Y-75869819D01*
X135782268Y-75869819D02*
X135687030Y-75917438D01*
X135687030Y-75917438D02*
X135591792Y-76012676D01*
X135591792Y-76012676D02*
X135544173Y-76203152D01*
X135544173Y-76203152D02*
X135544173Y-76536485D01*
X135544173Y-76536485D02*
X135591792Y-76726961D01*
X135591792Y-76726961D02*
X135687030Y-76822200D01*
X135687030Y-76822200D02*
X135782268Y-76869819D01*
X135782268Y-76869819D02*
X135972744Y-76869819D01*
X134687030Y-76203152D02*
X134687030Y-76869819D01*
X134925125Y-75822200D02*
X135163220Y-76536485D01*
X135163220Y-76536485D02*
X134544173Y-76536485D01*
X135496554Y-75465057D02*
X135591792Y-75417438D01*
X135591792Y-75417438D02*
X135687030Y-75322200D01*
X135687030Y-75322200D02*
X135829887Y-75179342D01*
X135829887Y-75179342D02*
X135925125Y-75131723D01*
X135925125Y-75131723D02*
X136020363Y-75131723D01*
X135972744Y-75369819D02*
X136067982Y-75322200D01*
X136067982Y-75322200D02*
X136163220Y-75226961D01*
X136163220Y-75226961D02*
X136210839Y-75036485D01*
X136210839Y-75036485D02*
X136210839Y-74703152D01*
X136210839Y-74703152D02*
X136163220Y-74512676D01*
X136163220Y-74512676D02*
X136067982Y-74417438D01*
X136067982Y-74417438D02*
X135972744Y-74369819D01*
X135972744Y-74369819D02*
X135782268Y-74369819D01*
X135782268Y-74369819D02*
X135687030Y-74417438D01*
X135687030Y-74417438D02*
X135591792Y-74512676D01*
X135591792Y-74512676D02*
X135544173Y-74703152D01*
X135544173Y-74703152D02*
X135544173Y-75036485D01*
X135544173Y-75036485D02*
X135591792Y-75226961D01*
X135591792Y-75226961D02*
X135687030Y-75322200D01*
X135687030Y-75322200D02*
X135782268Y-75369819D01*
X135782268Y-75369819D02*
X135972744Y-75369819D01*
X135163220Y-74465057D02*
X135115601Y-74417438D01*
X135115601Y-74417438D02*
X135020363Y-74369819D01*
X135020363Y-74369819D02*
X134782268Y-74369819D01*
X134782268Y-74369819D02*
X134687030Y-74417438D01*
X134687030Y-74417438D02*
X134639411Y-74465057D01*
X134639411Y-74465057D02*
X134591792Y-74560295D01*
X134591792Y-74560295D02*
X134591792Y-74655533D01*
X134591792Y-74655533D02*
X134639411Y-74798390D01*
X134639411Y-74798390D02*
X135210839Y-75369819D01*
X135210839Y-75369819D02*
X134591792Y-75369819D01*
X143121121Y-97359580D02*
X143168740Y-97407200D01*
X143168740Y-97407200D02*
X143311597Y-97454819D01*
X143311597Y-97454819D02*
X143406835Y-97454819D01*
X143406835Y-97454819D02*
X143549692Y-97407200D01*
X143549692Y-97407200D02*
X143644930Y-97311961D01*
X143644930Y-97311961D02*
X143692549Y-97216723D01*
X143692549Y-97216723D02*
X143740168Y-97026247D01*
X143740168Y-97026247D02*
X143740168Y-96883390D01*
X143740168Y-96883390D02*
X143692549Y-96692914D01*
X143692549Y-96692914D02*
X143644930Y-96597676D01*
X143644930Y-96597676D02*
X143549692Y-96502438D01*
X143549692Y-96502438D02*
X143406835Y-96454819D01*
X143406835Y-96454819D02*
X143311597Y-96454819D01*
X143311597Y-96454819D02*
X143168740Y-96502438D01*
X143168740Y-96502438D02*
X143121121Y-96550057D01*
X142740168Y-97169104D02*
X142263978Y-97169104D01*
X142835406Y-97454819D02*
X142502073Y-96454819D01*
X142502073Y-96454819D02*
X142168740Y-97454819D01*
X141406835Y-96788152D02*
X141406835Y-97454819D01*
X141644930Y-96407200D02*
X141883025Y-97121485D01*
X141883025Y-97121485D02*
X141263978Y-97121485D01*
X96142857Y-103954819D02*
X96476190Y-103478628D01*
X96714285Y-103954819D02*
X96714285Y-102954819D01*
X96714285Y-102954819D02*
X96333333Y-102954819D01*
X96333333Y-102954819D02*
X96238095Y-103002438D01*
X96238095Y-103002438D02*
X96190476Y-103050057D01*
X96190476Y-103050057D02*
X96142857Y-103145295D01*
X96142857Y-103145295D02*
X96142857Y-103288152D01*
X96142857Y-103288152D02*
X96190476Y-103383390D01*
X96190476Y-103383390D02*
X96238095Y-103431009D01*
X96238095Y-103431009D02*
X96333333Y-103478628D01*
X96333333Y-103478628D02*
X96714285Y-103478628D01*
X95761904Y-103050057D02*
X95714285Y-103002438D01*
X95714285Y-103002438D02*
X95619047Y-102954819D01*
X95619047Y-102954819D02*
X95380952Y-102954819D01*
X95380952Y-102954819D02*
X95285714Y-103002438D01*
X95285714Y-103002438D02*
X95238095Y-103050057D01*
X95238095Y-103050057D02*
X95190476Y-103145295D01*
X95190476Y-103145295D02*
X95190476Y-103240533D01*
X95190476Y-103240533D02*
X95238095Y-103383390D01*
X95238095Y-103383390D02*
X95809523Y-103954819D01*
X95809523Y-103954819D02*
X95190476Y-103954819D01*
X94285714Y-102954819D02*
X94761904Y-102954819D01*
X94761904Y-102954819D02*
X94809523Y-103431009D01*
X94809523Y-103431009D02*
X94761904Y-103383390D01*
X94761904Y-103383390D02*
X94666666Y-103335771D01*
X94666666Y-103335771D02*
X94428571Y-103335771D01*
X94428571Y-103335771D02*
X94333333Y-103383390D01*
X94333333Y-103383390D02*
X94285714Y-103431009D01*
X94285714Y-103431009D02*
X94238095Y-103526247D01*
X94238095Y-103526247D02*
X94238095Y-103764342D01*
X94238095Y-103764342D02*
X94285714Y-103859580D01*
X94285714Y-103859580D02*
X94333333Y-103907200D01*
X94333333Y-103907200D02*
X94428571Y-103954819D01*
X94428571Y-103954819D02*
X94666666Y-103954819D01*
X94666666Y-103954819D02*
X94761904Y-103907200D01*
X94761904Y-103907200D02*
X94809523Y-103859580D01*
X187787349Y-65170613D02*
X188120682Y-64694422D01*
X188358777Y-65170613D02*
X188358777Y-64170613D01*
X188358777Y-64170613D02*
X187977825Y-64170613D01*
X187977825Y-64170613D02*
X187882587Y-64218232D01*
X187882587Y-64218232D02*
X187834968Y-64265851D01*
X187834968Y-64265851D02*
X187787349Y-64361089D01*
X187787349Y-64361089D02*
X187787349Y-64503946D01*
X187787349Y-64503946D02*
X187834968Y-64599184D01*
X187834968Y-64599184D02*
X187882587Y-64646803D01*
X187882587Y-64646803D02*
X187977825Y-64694422D01*
X187977825Y-64694422D02*
X188358777Y-64694422D01*
X187454015Y-64170613D02*
X186834968Y-64170613D01*
X186834968Y-64170613D02*
X187168301Y-64551565D01*
X187168301Y-64551565D02*
X187025444Y-64551565D01*
X187025444Y-64551565D02*
X186930206Y-64599184D01*
X186930206Y-64599184D02*
X186882587Y-64646803D01*
X186882587Y-64646803D02*
X186834968Y-64742041D01*
X186834968Y-64742041D02*
X186834968Y-64980136D01*
X186834968Y-64980136D02*
X186882587Y-65075374D01*
X186882587Y-65075374D02*
X186930206Y-65122994D01*
X186930206Y-65122994D02*
X187025444Y-65170613D01*
X187025444Y-65170613D02*
X187311158Y-65170613D01*
X187311158Y-65170613D02*
X187406396Y-65122994D01*
X187406396Y-65122994D02*
X187454015Y-65075374D01*
X143168740Y-95454819D02*
X143502073Y-94978628D01*
X143740168Y-95454819D02*
X143740168Y-94454819D01*
X143740168Y-94454819D02*
X143359216Y-94454819D01*
X143359216Y-94454819D02*
X143263978Y-94502438D01*
X143263978Y-94502438D02*
X143216359Y-94550057D01*
X143216359Y-94550057D02*
X143168740Y-94645295D01*
X143168740Y-94645295D02*
X143168740Y-94788152D01*
X143168740Y-94788152D02*
X143216359Y-94883390D01*
X143216359Y-94883390D02*
X143263978Y-94931009D01*
X143263978Y-94931009D02*
X143359216Y-94978628D01*
X143359216Y-94978628D02*
X143740168Y-94978628D01*
X142835406Y-94454819D02*
X142216359Y-94454819D01*
X142216359Y-94454819D02*
X142549692Y-94835771D01*
X142549692Y-94835771D02*
X142406835Y-94835771D01*
X142406835Y-94835771D02*
X142311597Y-94883390D01*
X142311597Y-94883390D02*
X142263978Y-94931009D01*
X142263978Y-94931009D02*
X142216359Y-95026247D01*
X142216359Y-95026247D02*
X142216359Y-95264342D01*
X142216359Y-95264342D02*
X142263978Y-95359580D01*
X142263978Y-95359580D02*
X142311597Y-95407200D01*
X142311597Y-95407200D02*
X142406835Y-95454819D01*
X142406835Y-95454819D02*
X142692549Y-95454819D01*
X142692549Y-95454819D02*
X142787787Y-95407200D01*
X142787787Y-95407200D02*
X142835406Y-95359580D01*
X141359216Y-94454819D02*
X141549692Y-94454819D01*
X141549692Y-94454819D02*
X141644930Y-94502438D01*
X141644930Y-94502438D02*
X141692549Y-94550057D01*
X141692549Y-94550057D02*
X141787787Y-94692914D01*
X141787787Y-94692914D02*
X141835406Y-94883390D01*
X141835406Y-94883390D02*
X141835406Y-95264342D01*
X141835406Y-95264342D02*
X141787787Y-95359580D01*
X141787787Y-95359580D02*
X141740168Y-95407200D01*
X141740168Y-95407200D02*
X141644930Y-95454819D01*
X141644930Y-95454819D02*
X141454454Y-95454819D01*
X141454454Y-95454819D02*
X141359216Y-95407200D01*
X141359216Y-95407200D02*
X141311597Y-95359580D01*
X141311597Y-95359580D02*
X141263978Y-95264342D01*
X141263978Y-95264342D02*
X141263978Y-95026247D01*
X141263978Y-95026247D02*
X141311597Y-94931009D01*
X141311597Y-94931009D02*
X141359216Y-94883390D01*
X141359216Y-94883390D02*
X141454454Y-94835771D01*
X141454454Y-94835771D02*
X141644930Y-94835771D01*
X141644930Y-94835771D02*
X141740168Y-94883390D01*
X141740168Y-94883390D02*
X141787787Y-94931009D01*
X141787787Y-94931009D02*
X141835406Y-95026247D01*
X158091792Y-79869819D02*
X158425125Y-79393628D01*
X158663220Y-79869819D02*
X158663220Y-78869819D01*
X158663220Y-78869819D02*
X158282268Y-78869819D01*
X158282268Y-78869819D02*
X158187030Y-78917438D01*
X158187030Y-78917438D02*
X158139411Y-78965057D01*
X158139411Y-78965057D02*
X158091792Y-79060295D01*
X158091792Y-79060295D02*
X158091792Y-79203152D01*
X158091792Y-79203152D02*
X158139411Y-79298390D01*
X158139411Y-79298390D02*
X158187030Y-79346009D01*
X158187030Y-79346009D02*
X158282268Y-79393628D01*
X158282268Y-79393628D02*
X158663220Y-79393628D01*
X157139411Y-79869819D02*
X157710839Y-79869819D01*
X157425125Y-79869819D02*
X157425125Y-78869819D01*
X157425125Y-78869819D02*
X157520363Y-79012676D01*
X157520363Y-79012676D02*
X157615601Y-79107914D01*
X157615601Y-79107914D02*
X157710839Y-79155533D01*
X156663220Y-79869819D02*
X156472744Y-79869819D01*
X156472744Y-79869819D02*
X156377506Y-79822200D01*
X156377506Y-79822200D02*
X156329887Y-79774580D01*
X156329887Y-79774580D02*
X156234649Y-79631723D01*
X156234649Y-79631723D02*
X156187030Y-79441247D01*
X156187030Y-79441247D02*
X156187030Y-79060295D01*
X156187030Y-79060295D02*
X156234649Y-78965057D01*
X156234649Y-78965057D02*
X156282268Y-78917438D01*
X156282268Y-78917438D02*
X156377506Y-78869819D01*
X156377506Y-78869819D02*
X156567982Y-78869819D01*
X156567982Y-78869819D02*
X156663220Y-78917438D01*
X156663220Y-78917438D02*
X156710839Y-78965057D01*
X156710839Y-78965057D02*
X156758458Y-79060295D01*
X156758458Y-79060295D02*
X156758458Y-79298390D01*
X156758458Y-79298390D02*
X156710839Y-79393628D01*
X156710839Y-79393628D02*
X156663220Y-79441247D01*
X156663220Y-79441247D02*
X156567982Y-79488866D01*
X156567982Y-79488866D02*
X156377506Y-79488866D01*
X156377506Y-79488866D02*
X156282268Y-79441247D01*
X156282268Y-79441247D02*
X156234649Y-79393628D01*
X156234649Y-79393628D02*
X156187030Y-79298390D01*
X143121121Y-109359580D02*
X143168740Y-109407200D01*
X143168740Y-109407200D02*
X143311597Y-109454819D01*
X143311597Y-109454819D02*
X143406835Y-109454819D01*
X143406835Y-109454819D02*
X143549692Y-109407200D01*
X143549692Y-109407200D02*
X143644930Y-109311961D01*
X143644930Y-109311961D02*
X143692549Y-109216723D01*
X143692549Y-109216723D02*
X143740168Y-109026247D01*
X143740168Y-109026247D02*
X143740168Y-108883390D01*
X143740168Y-108883390D02*
X143692549Y-108692914D01*
X143692549Y-108692914D02*
X143644930Y-108597676D01*
X143644930Y-108597676D02*
X143549692Y-108502438D01*
X143549692Y-108502438D02*
X143406835Y-108454819D01*
X143406835Y-108454819D02*
X143311597Y-108454819D01*
X143311597Y-108454819D02*
X143168740Y-108502438D01*
X143168740Y-108502438D02*
X143121121Y-108550057D01*
X142740168Y-109169104D02*
X142263978Y-109169104D01*
X142835406Y-109454819D02*
X142502073Y-108454819D01*
X142502073Y-108454819D02*
X142168740Y-109454819D01*
X141883025Y-108550057D02*
X141835406Y-108502438D01*
X141835406Y-108502438D02*
X141740168Y-108454819D01*
X141740168Y-108454819D02*
X141502073Y-108454819D01*
X141502073Y-108454819D02*
X141406835Y-108502438D01*
X141406835Y-108502438D02*
X141359216Y-108550057D01*
X141359216Y-108550057D02*
X141311597Y-108645295D01*
X141311597Y-108645295D02*
X141311597Y-108740533D01*
X141311597Y-108740533D02*
X141359216Y-108883390D01*
X141359216Y-108883390D02*
X141930644Y-109454819D01*
X141930644Y-109454819D02*
X141311597Y-109454819D01*
X167416666Y-116054819D02*
X167749999Y-115578628D01*
X167988094Y-116054819D02*
X167988094Y-115054819D01*
X167988094Y-115054819D02*
X167607142Y-115054819D01*
X167607142Y-115054819D02*
X167511904Y-115102438D01*
X167511904Y-115102438D02*
X167464285Y-115150057D01*
X167464285Y-115150057D02*
X167416666Y-115245295D01*
X167416666Y-115245295D02*
X167416666Y-115388152D01*
X167416666Y-115388152D02*
X167464285Y-115483390D01*
X167464285Y-115483390D02*
X167511904Y-115531009D01*
X167511904Y-115531009D02*
X167607142Y-115578628D01*
X167607142Y-115578628D02*
X167988094Y-115578628D01*
X166464285Y-116054819D02*
X167035713Y-116054819D01*
X166749999Y-116054819D02*
X166749999Y-115054819D01*
X166749999Y-115054819D02*
X166845237Y-115197676D01*
X166845237Y-115197676D02*
X166940475Y-115292914D01*
X166940475Y-115292914D02*
X167035713Y-115340533D01*
X160892857Y-125829580D02*
X160940476Y-125877200D01*
X160940476Y-125877200D02*
X161083333Y-125924819D01*
X161083333Y-125924819D02*
X161178571Y-125924819D01*
X161178571Y-125924819D02*
X161321428Y-125877200D01*
X161321428Y-125877200D02*
X161416666Y-125781961D01*
X161416666Y-125781961D02*
X161464285Y-125686723D01*
X161464285Y-125686723D02*
X161511904Y-125496247D01*
X161511904Y-125496247D02*
X161511904Y-125353390D01*
X161511904Y-125353390D02*
X161464285Y-125162914D01*
X161464285Y-125162914D02*
X161416666Y-125067676D01*
X161416666Y-125067676D02*
X161321428Y-124972438D01*
X161321428Y-124972438D02*
X161178571Y-124924819D01*
X161178571Y-124924819D02*
X161083333Y-124924819D01*
X161083333Y-124924819D02*
X160940476Y-124972438D01*
X160940476Y-124972438D02*
X160892857Y-125020057D01*
X159940476Y-125924819D02*
X160511904Y-125924819D01*
X160226190Y-125924819D02*
X160226190Y-124924819D01*
X160226190Y-124924819D02*
X160321428Y-125067676D01*
X160321428Y-125067676D02*
X160416666Y-125162914D01*
X160416666Y-125162914D02*
X160511904Y-125210533D01*
X159369047Y-125353390D02*
X159464285Y-125305771D01*
X159464285Y-125305771D02*
X159511904Y-125258152D01*
X159511904Y-125258152D02*
X159559523Y-125162914D01*
X159559523Y-125162914D02*
X159559523Y-125115295D01*
X159559523Y-125115295D02*
X159511904Y-125020057D01*
X159511904Y-125020057D02*
X159464285Y-124972438D01*
X159464285Y-124972438D02*
X159369047Y-124924819D01*
X159369047Y-124924819D02*
X159178571Y-124924819D01*
X159178571Y-124924819D02*
X159083333Y-124972438D01*
X159083333Y-124972438D02*
X159035714Y-125020057D01*
X159035714Y-125020057D02*
X158988095Y-125115295D01*
X158988095Y-125115295D02*
X158988095Y-125162914D01*
X158988095Y-125162914D02*
X159035714Y-125258152D01*
X159035714Y-125258152D02*
X159083333Y-125305771D01*
X159083333Y-125305771D02*
X159178571Y-125353390D01*
X159178571Y-125353390D02*
X159369047Y-125353390D01*
X159369047Y-125353390D02*
X159464285Y-125401009D01*
X159464285Y-125401009D02*
X159511904Y-125448628D01*
X159511904Y-125448628D02*
X159559523Y-125543866D01*
X159559523Y-125543866D02*
X159559523Y-125734342D01*
X159559523Y-125734342D02*
X159511904Y-125829580D01*
X159511904Y-125829580D02*
X159464285Y-125877200D01*
X159464285Y-125877200D02*
X159369047Y-125924819D01*
X159369047Y-125924819D02*
X159178571Y-125924819D01*
X159178571Y-125924819D02*
X159083333Y-125877200D01*
X159083333Y-125877200D02*
X159035714Y-125829580D01*
X159035714Y-125829580D02*
X158988095Y-125734342D01*
X158988095Y-125734342D02*
X158988095Y-125543866D01*
X158988095Y-125543866D02*
X159035714Y-125448628D01*
X159035714Y-125448628D02*
X159083333Y-125401009D01*
X159083333Y-125401009D02*
X159178571Y-125353390D01*
X143121121Y-115359580D02*
X143168740Y-115407200D01*
X143168740Y-115407200D02*
X143311597Y-115454819D01*
X143311597Y-115454819D02*
X143406835Y-115454819D01*
X143406835Y-115454819D02*
X143549692Y-115407200D01*
X143549692Y-115407200D02*
X143644930Y-115311961D01*
X143644930Y-115311961D02*
X143692549Y-115216723D01*
X143692549Y-115216723D02*
X143740168Y-115026247D01*
X143740168Y-115026247D02*
X143740168Y-114883390D01*
X143740168Y-114883390D02*
X143692549Y-114692914D01*
X143692549Y-114692914D02*
X143644930Y-114597676D01*
X143644930Y-114597676D02*
X143549692Y-114502438D01*
X143549692Y-114502438D02*
X143406835Y-114454819D01*
X143406835Y-114454819D02*
X143311597Y-114454819D01*
X143311597Y-114454819D02*
X143168740Y-114502438D01*
X143168740Y-114502438D02*
X143121121Y-114550057D01*
X142740168Y-115169104D02*
X142263978Y-115169104D01*
X142835406Y-115454819D02*
X142502073Y-114454819D01*
X142502073Y-114454819D02*
X142168740Y-115454819D01*
X141311597Y-115454819D02*
X141883025Y-115454819D01*
X141597311Y-115454819D02*
X141597311Y-114454819D01*
X141597311Y-114454819D02*
X141692549Y-114597676D01*
X141692549Y-114597676D02*
X141787787Y-114692914D01*
X141787787Y-114692914D02*
X141883025Y-114740533D01*
X164091792Y-76869819D02*
X164425125Y-76393628D01*
X164663220Y-76869819D02*
X164663220Y-75869819D01*
X164663220Y-75869819D02*
X164282268Y-75869819D01*
X164282268Y-75869819D02*
X164187030Y-75917438D01*
X164187030Y-75917438D02*
X164139411Y-75965057D01*
X164139411Y-75965057D02*
X164091792Y-76060295D01*
X164091792Y-76060295D02*
X164091792Y-76203152D01*
X164091792Y-76203152D02*
X164139411Y-76298390D01*
X164139411Y-76298390D02*
X164187030Y-76346009D01*
X164187030Y-76346009D02*
X164282268Y-76393628D01*
X164282268Y-76393628D02*
X164663220Y-76393628D01*
X163187030Y-75869819D02*
X163663220Y-75869819D01*
X163663220Y-75869819D02*
X163710839Y-76346009D01*
X163710839Y-76346009D02*
X163663220Y-76298390D01*
X163663220Y-76298390D02*
X163567982Y-76250771D01*
X163567982Y-76250771D02*
X163329887Y-76250771D01*
X163329887Y-76250771D02*
X163234649Y-76298390D01*
X163234649Y-76298390D02*
X163187030Y-76346009D01*
X163187030Y-76346009D02*
X163139411Y-76441247D01*
X163139411Y-76441247D02*
X163139411Y-76679342D01*
X163139411Y-76679342D02*
X163187030Y-76774580D01*
X163187030Y-76774580D02*
X163234649Y-76822200D01*
X163234649Y-76822200D02*
X163329887Y-76869819D01*
X163329887Y-76869819D02*
X163567982Y-76869819D01*
X163567982Y-76869819D02*
X163663220Y-76822200D01*
X163663220Y-76822200D02*
X163710839Y-76774580D01*
X162282268Y-76203152D02*
X162282268Y-76869819D01*
X162520363Y-75822200D02*
X162758458Y-76536485D01*
X162758458Y-76536485D02*
X162139411Y-76536485D01*
X188017857Y-129704819D02*
X188351190Y-129228628D01*
X188589285Y-129704819D02*
X188589285Y-128704819D01*
X188589285Y-128704819D02*
X188208333Y-128704819D01*
X188208333Y-128704819D02*
X188113095Y-128752438D01*
X188113095Y-128752438D02*
X188065476Y-128800057D01*
X188065476Y-128800057D02*
X188017857Y-128895295D01*
X188017857Y-128895295D02*
X188017857Y-129038152D01*
X188017857Y-129038152D02*
X188065476Y-129133390D01*
X188065476Y-129133390D02*
X188113095Y-129181009D01*
X188113095Y-129181009D02*
X188208333Y-129228628D01*
X188208333Y-129228628D02*
X188589285Y-129228628D01*
X187684523Y-128704819D02*
X187017857Y-128704819D01*
X187017857Y-128704819D02*
X187446428Y-129704819D01*
X186113095Y-129704819D02*
X186684523Y-129704819D01*
X186398809Y-129704819D02*
X186398809Y-128704819D01*
X186398809Y-128704819D02*
X186494047Y-128847676D01*
X186494047Y-128847676D02*
X186589285Y-128942914D01*
X186589285Y-128942914D02*
X186684523Y-128990533D01*
X166392857Y-129609580D02*
X166440476Y-129657200D01*
X166440476Y-129657200D02*
X166583333Y-129704819D01*
X166583333Y-129704819D02*
X166678571Y-129704819D01*
X166678571Y-129704819D02*
X166821428Y-129657200D01*
X166821428Y-129657200D02*
X166916666Y-129561961D01*
X166916666Y-129561961D02*
X166964285Y-129466723D01*
X166964285Y-129466723D02*
X167011904Y-129276247D01*
X167011904Y-129276247D02*
X167011904Y-129133390D01*
X167011904Y-129133390D02*
X166964285Y-128942914D01*
X166964285Y-128942914D02*
X166916666Y-128847676D01*
X166916666Y-128847676D02*
X166821428Y-128752438D01*
X166821428Y-128752438D02*
X166678571Y-128704819D01*
X166678571Y-128704819D02*
X166583333Y-128704819D01*
X166583333Y-128704819D02*
X166440476Y-128752438D01*
X166440476Y-128752438D02*
X166392857Y-128800057D01*
X165440476Y-129704819D02*
X166011904Y-129704819D01*
X165726190Y-129704819D02*
X165726190Y-128704819D01*
X165726190Y-128704819D02*
X165821428Y-128847676D01*
X165821428Y-128847676D02*
X165916666Y-128942914D01*
X165916666Y-128942914D02*
X166011904Y-128990533D01*
X165107142Y-128704819D02*
X164440476Y-128704819D01*
X164440476Y-128704819D02*
X164869047Y-129704819D01*
X139642857Y-91454819D02*
X139976190Y-90978628D01*
X140214285Y-91454819D02*
X140214285Y-90454819D01*
X140214285Y-90454819D02*
X139833333Y-90454819D01*
X139833333Y-90454819D02*
X139738095Y-90502438D01*
X139738095Y-90502438D02*
X139690476Y-90550057D01*
X139690476Y-90550057D02*
X139642857Y-90645295D01*
X139642857Y-90645295D02*
X139642857Y-90788152D01*
X139642857Y-90788152D02*
X139690476Y-90883390D01*
X139690476Y-90883390D02*
X139738095Y-90931009D01*
X139738095Y-90931009D02*
X139833333Y-90978628D01*
X139833333Y-90978628D02*
X140214285Y-90978628D01*
X138785714Y-90454819D02*
X138976190Y-90454819D01*
X138976190Y-90454819D02*
X139071428Y-90502438D01*
X139071428Y-90502438D02*
X139119047Y-90550057D01*
X139119047Y-90550057D02*
X139214285Y-90692914D01*
X139214285Y-90692914D02*
X139261904Y-90883390D01*
X139261904Y-90883390D02*
X139261904Y-91264342D01*
X139261904Y-91264342D02*
X139214285Y-91359580D01*
X139214285Y-91359580D02*
X139166666Y-91407200D01*
X139166666Y-91407200D02*
X139071428Y-91454819D01*
X139071428Y-91454819D02*
X138880952Y-91454819D01*
X138880952Y-91454819D02*
X138785714Y-91407200D01*
X138785714Y-91407200D02*
X138738095Y-91359580D01*
X138738095Y-91359580D02*
X138690476Y-91264342D01*
X138690476Y-91264342D02*
X138690476Y-91026247D01*
X138690476Y-91026247D02*
X138738095Y-90931009D01*
X138738095Y-90931009D02*
X138785714Y-90883390D01*
X138785714Y-90883390D02*
X138880952Y-90835771D01*
X138880952Y-90835771D02*
X139071428Y-90835771D01*
X139071428Y-90835771D02*
X139166666Y-90883390D01*
X139166666Y-90883390D02*
X139214285Y-90931009D01*
X139214285Y-90931009D02*
X139261904Y-91026247D01*
X137833333Y-90788152D02*
X137833333Y-91454819D01*
X138071428Y-90407200D02*
X138309523Y-91121485D01*
X138309523Y-91121485D02*
X137690476Y-91121485D01*
X194859580Y-83908207D02*
X194907200Y-83860588D01*
X194907200Y-83860588D02*
X194954819Y-83717731D01*
X194954819Y-83717731D02*
X194954819Y-83622493D01*
X194954819Y-83622493D02*
X194907200Y-83479636D01*
X194907200Y-83479636D02*
X194811961Y-83384398D01*
X194811961Y-83384398D02*
X194716723Y-83336779D01*
X194716723Y-83336779D02*
X194526247Y-83289160D01*
X194526247Y-83289160D02*
X194383390Y-83289160D01*
X194383390Y-83289160D02*
X194192914Y-83336779D01*
X194192914Y-83336779D02*
X194097676Y-83384398D01*
X194097676Y-83384398D02*
X194002438Y-83479636D01*
X194002438Y-83479636D02*
X193954819Y-83622493D01*
X193954819Y-83622493D02*
X193954819Y-83717731D01*
X193954819Y-83717731D02*
X194002438Y-83860588D01*
X194002438Y-83860588D02*
X194050057Y-83908207D01*
X193954819Y-84241541D02*
X193954819Y-84860588D01*
X193954819Y-84860588D02*
X194335771Y-84527255D01*
X194335771Y-84527255D02*
X194335771Y-84670112D01*
X194335771Y-84670112D02*
X194383390Y-84765350D01*
X194383390Y-84765350D02*
X194431009Y-84812969D01*
X194431009Y-84812969D02*
X194526247Y-84860588D01*
X194526247Y-84860588D02*
X194764342Y-84860588D01*
X194764342Y-84860588D02*
X194859580Y-84812969D01*
X194859580Y-84812969D02*
X194907200Y-84765350D01*
X194907200Y-84765350D02*
X194954819Y-84670112D01*
X194954819Y-84670112D02*
X194954819Y-84384398D01*
X194954819Y-84384398D02*
X194907200Y-84289160D01*
X194907200Y-84289160D02*
X194859580Y-84241541D01*
X194383390Y-85432017D02*
X194335771Y-85336779D01*
X194335771Y-85336779D02*
X194288152Y-85289160D01*
X194288152Y-85289160D02*
X194192914Y-85241541D01*
X194192914Y-85241541D02*
X194145295Y-85241541D01*
X194145295Y-85241541D02*
X194050057Y-85289160D01*
X194050057Y-85289160D02*
X194002438Y-85336779D01*
X194002438Y-85336779D02*
X193954819Y-85432017D01*
X193954819Y-85432017D02*
X193954819Y-85622493D01*
X193954819Y-85622493D02*
X194002438Y-85717731D01*
X194002438Y-85717731D02*
X194050057Y-85765350D01*
X194050057Y-85765350D02*
X194145295Y-85812969D01*
X194145295Y-85812969D02*
X194192914Y-85812969D01*
X194192914Y-85812969D02*
X194288152Y-85765350D01*
X194288152Y-85765350D02*
X194335771Y-85717731D01*
X194335771Y-85717731D02*
X194383390Y-85622493D01*
X194383390Y-85622493D02*
X194383390Y-85432017D01*
X194383390Y-85432017D02*
X194431009Y-85336779D01*
X194431009Y-85336779D02*
X194478628Y-85289160D01*
X194478628Y-85289160D02*
X194573866Y-85241541D01*
X194573866Y-85241541D02*
X194764342Y-85241541D01*
X194764342Y-85241541D02*
X194859580Y-85289160D01*
X194859580Y-85289160D02*
X194907200Y-85336779D01*
X194907200Y-85336779D02*
X194954819Y-85432017D01*
X194954819Y-85432017D02*
X194954819Y-85622493D01*
X194954819Y-85622493D02*
X194907200Y-85717731D01*
X194907200Y-85717731D02*
X194859580Y-85765350D01*
X194859580Y-85765350D02*
X194764342Y-85812969D01*
X194764342Y-85812969D02*
X194573866Y-85812969D01*
X194573866Y-85812969D02*
X194478628Y-85765350D01*
X194478628Y-85765350D02*
X194431009Y-85717731D01*
X194431009Y-85717731D02*
X194383390Y-85622493D01*
X183142857Y-121954819D02*
X183476190Y-121478628D01*
X183714285Y-121954819D02*
X183714285Y-120954819D01*
X183714285Y-120954819D02*
X183333333Y-120954819D01*
X183333333Y-120954819D02*
X183238095Y-121002438D01*
X183238095Y-121002438D02*
X183190476Y-121050057D01*
X183190476Y-121050057D02*
X183142857Y-121145295D01*
X183142857Y-121145295D02*
X183142857Y-121288152D01*
X183142857Y-121288152D02*
X183190476Y-121383390D01*
X183190476Y-121383390D02*
X183238095Y-121431009D01*
X183238095Y-121431009D02*
X183333333Y-121478628D01*
X183333333Y-121478628D02*
X183714285Y-121478628D01*
X182809523Y-120954819D02*
X182142857Y-120954819D01*
X182142857Y-120954819D02*
X182571428Y-121954819D01*
X181809523Y-121050057D02*
X181761904Y-121002438D01*
X181761904Y-121002438D02*
X181666666Y-120954819D01*
X181666666Y-120954819D02*
X181428571Y-120954819D01*
X181428571Y-120954819D02*
X181333333Y-121002438D01*
X181333333Y-121002438D02*
X181285714Y-121050057D01*
X181285714Y-121050057D02*
X181238095Y-121145295D01*
X181238095Y-121145295D02*
X181238095Y-121240533D01*
X181238095Y-121240533D02*
X181285714Y-121383390D01*
X181285714Y-121383390D02*
X181857142Y-121954819D01*
X181857142Y-121954819D02*
X181238095Y-121954819D01*
X138767857Y-129704819D02*
X139101190Y-129228628D01*
X139339285Y-129704819D02*
X139339285Y-128704819D01*
X139339285Y-128704819D02*
X138958333Y-128704819D01*
X138958333Y-128704819D02*
X138863095Y-128752438D01*
X138863095Y-128752438D02*
X138815476Y-128800057D01*
X138815476Y-128800057D02*
X138767857Y-128895295D01*
X138767857Y-128895295D02*
X138767857Y-129038152D01*
X138767857Y-129038152D02*
X138815476Y-129133390D01*
X138815476Y-129133390D02*
X138863095Y-129181009D01*
X138863095Y-129181009D02*
X138958333Y-129228628D01*
X138958333Y-129228628D02*
X139339285Y-129228628D01*
X138434523Y-128704819D02*
X137815476Y-128704819D01*
X137815476Y-128704819D02*
X138148809Y-129085771D01*
X138148809Y-129085771D02*
X138005952Y-129085771D01*
X138005952Y-129085771D02*
X137910714Y-129133390D01*
X137910714Y-129133390D02*
X137863095Y-129181009D01*
X137863095Y-129181009D02*
X137815476Y-129276247D01*
X137815476Y-129276247D02*
X137815476Y-129514342D01*
X137815476Y-129514342D02*
X137863095Y-129609580D01*
X137863095Y-129609580D02*
X137910714Y-129657200D01*
X137910714Y-129657200D02*
X138005952Y-129704819D01*
X138005952Y-129704819D02*
X138291666Y-129704819D01*
X138291666Y-129704819D02*
X138386904Y-129657200D01*
X138386904Y-129657200D02*
X138434523Y-129609580D01*
X137196428Y-128704819D02*
X137101190Y-128704819D01*
X137101190Y-128704819D02*
X137005952Y-128752438D01*
X137005952Y-128752438D02*
X136958333Y-128800057D01*
X136958333Y-128800057D02*
X136910714Y-128895295D01*
X136910714Y-128895295D02*
X136863095Y-129085771D01*
X136863095Y-129085771D02*
X136863095Y-129323866D01*
X136863095Y-129323866D02*
X136910714Y-129514342D01*
X136910714Y-129514342D02*
X136958333Y-129609580D01*
X136958333Y-129609580D02*
X137005952Y-129657200D01*
X137005952Y-129657200D02*
X137101190Y-129704819D01*
X137101190Y-129704819D02*
X137196428Y-129704819D01*
X137196428Y-129704819D02*
X137291666Y-129657200D01*
X137291666Y-129657200D02*
X137339285Y-129609580D01*
X137339285Y-129609580D02*
X137386904Y-129514342D01*
X137386904Y-129514342D02*
X137434523Y-129323866D01*
X137434523Y-129323866D02*
X137434523Y-129085771D01*
X137434523Y-129085771D02*
X137386904Y-128895295D01*
X137386904Y-128895295D02*
X137339285Y-128800057D01*
X137339285Y-128800057D02*
X137291666Y-128752438D01*
X137291666Y-128752438D02*
X137196428Y-128704819D01*
X197359580Y-83908207D02*
X197407200Y-83860588D01*
X197407200Y-83860588D02*
X197454819Y-83717731D01*
X197454819Y-83717731D02*
X197454819Y-83622493D01*
X197454819Y-83622493D02*
X197407200Y-83479636D01*
X197407200Y-83479636D02*
X197311961Y-83384398D01*
X197311961Y-83384398D02*
X197216723Y-83336779D01*
X197216723Y-83336779D02*
X197026247Y-83289160D01*
X197026247Y-83289160D02*
X196883390Y-83289160D01*
X196883390Y-83289160D02*
X196692914Y-83336779D01*
X196692914Y-83336779D02*
X196597676Y-83384398D01*
X196597676Y-83384398D02*
X196502438Y-83479636D01*
X196502438Y-83479636D02*
X196454819Y-83622493D01*
X196454819Y-83622493D02*
X196454819Y-83717731D01*
X196454819Y-83717731D02*
X196502438Y-83860588D01*
X196502438Y-83860588D02*
X196550057Y-83908207D01*
X196454819Y-84241541D02*
X196454819Y-84860588D01*
X196454819Y-84860588D02*
X196835771Y-84527255D01*
X196835771Y-84527255D02*
X196835771Y-84670112D01*
X196835771Y-84670112D02*
X196883390Y-84765350D01*
X196883390Y-84765350D02*
X196931009Y-84812969D01*
X196931009Y-84812969D02*
X197026247Y-84860588D01*
X197026247Y-84860588D02*
X197264342Y-84860588D01*
X197264342Y-84860588D02*
X197359580Y-84812969D01*
X197359580Y-84812969D02*
X197407200Y-84765350D01*
X197407200Y-84765350D02*
X197454819Y-84670112D01*
X197454819Y-84670112D02*
X197454819Y-84384398D01*
X197454819Y-84384398D02*
X197407200Y-84289160D01*
X197407200Y-84289160D02*
X197359580Y-84241541D01*
X196454819Y-85193922D02*
X196454819Y-85860588D01*
X196454819Y-85860588D02*
X197454819Y-85432017D01*
X143168740Y-93454819D02*
X143502073Y-92978628D01*
X143740168Y-93454819D02*
X143740168Y-92454819D01*
X143740168Y-92454819D02*
X143359216Y-92454819D01*
X143359216Y-92454819D02*
X143263978Y-92502438D01*
X143263978Y-92502438D02*
X143216359Y-92550057D01*
X143216359Y-92550057D02*
X143168740Y-92645295D01*
X143168740Y-92645295D02*
X143168740Y-92788152D01*
X143168740Y-92788152D02*
X143216359Y-92883390D01*
X143216359Y-92883390D02*
X143263978Y-92931009D01*
X143263978Y-92931009D02*
X143359216Y-92978628D01*
X143359216Y-92978628D02*
X143740168Y-92978628D01*
X142311597Y-92788152D02*
X142311597Y-93454819D01*
X142549692Y-92407200D02*
X142787787Y-93121485D01*
X142787787Y-93121485D02*
X142168740Y-93121485D01*
X141597311Y-92454819D02*
X141502073Y-92454819D01*
X141502073Y-92454819D02*
X141406835Y-92502438D01*
X141406835Y-92502438D02*
X141359216Y-92550057D01*
X141359216Y-92550057D02*
X141311597Y-92645295D01*
X141311597Y-92645295D02*
X141263978Y-92835771D01*
X141263978Y-92835771D02*
X141263978Y-93073866D01*
X141263978Y-93073866D02*
X141311597Y-93264342D01*
X141311597Y-93264342D02*
X141359216Y-93359580D01*
X141359216Y-93359580D02*
X141406835Y-93407200D01*
X141406835Y-93407200D02*
X141502073Y-93454819D01*
X141502073Y-93454819D02*
X141597311Y-93454819D01*
X141597311Y-93454819D02*
X141692549Y-93407200D01*
X141692549Y-93407200D02*
X141740168Y-93359580D01*
X141740168Y-93359580D02*
X141787787Y-93264342D01*
X141787787Y-93264342D02*
X141835406Y-93073866D01*
X141835406Y-93073866D02*
X141835406Y-92835771D01*
X141835406Y-92835771D02*
X141787787Y-92645295D01*
X141787787Y-92645295D02*
X141740168Y-92550057D01*
X141740168Y-92550057D02*
X141692549Y-92502438D01*
X141692549Y-92502438D02*
X141597311Y-92454819D01*
X135670357Y-129609580D02*
X135717976Y-129657200D01*
X135717976Y-129657200D02*
X135860833Y-129704819D01*
X135860833Y-129704819D02*
X135956071Y-129704819D01*
X135956071Y-129704819D02*
X136098928Y-129657200D01*
X136098928Y-129657200D02*
X136194166Y-129561961D01*
X136194166Y-129561961D02*
X136241785Y-129466723D01*
X136241785Y-129466723D02*
X136289404Y-129276247D01*
X136289404Y-129276247D02*
X136289404Y-129133390D01*
X136289404Y-129133390D02*
X136241785Y-128942914D01*
X136241785Y-128942914D02*
X136194166Y-128847676D01*
X136194166Y-128847676D02*
X136098928Y-128752438D01*
X136098928Y-128752438D02*
X135956071Y-128704819D01*
X135956071Y-128704819D02*
X135860833Y-128704819D01*
X135860833Y-128704819D02*
X135717976Y-128752438D01*
X135717976Y-128752438D02*
X135670357Y-128800057D01*
X135289404Y-128800057D02*
X135241785Y-128752438D01*
X135241785Y-128752438D02*
X135146547Y-128704819D01*
X135146547Y-128704819D02*
X134908452Y-128704819D01*
X134908452Y-128704819D02*
X134813214Y-128752438D01*
X134813214Y-128752438D02*
X134765595Y-128800057D01*
X134765595Y-128800057D02*
X134717976Y-128895295D01*
X134717976Y-128895295D02*
X134717976Y-128990533D01*
X134717976Y-128990533D02*
X134765595Y-129133390D01*
X134765595Y-129133390D02*
X135337023Y-129704819D01*
X135337023Y-129704819D02*
X134717976Y-129704819D01*
X133860833Y-128704819D02*
X134051309Y-128704819D01*
X134051309Y-128704819D02*
X134146547Y-128752438D01*
X134146547Y-128752438D02*
X134194166Y-128800057D01*
X134194166Y-128800057D02*
X134289404Y-128942914D01*
X134289404Y-128942914D02*
X134337023Y-129133390D01*
X134337023Y-129133390D02*
X134337023Y-129514342D01*
X134337023Y-129514342D02*
X134289404Y-129609580D01*
X134289404Y-129609580D02*
X134241785Y-129657200D01*
X134241785Y-129657200D02*
X134146547Y-129704819D01*
X134146547Y-129704819D02*
X133956071Y-129704819D01*
X133956071Y-129704819D02*
X133860833Y-129657200D01*
X133860833Y-129657200D02*
X133813214Y-129609580D01*
X133813214Y-129609580D02*
X133765595Y-129514342D01*
X133765595Y-129514342D02*
X133765595Y-129276247D01*
X133765595Y-129276247D02*
X133813214Y-129181009D01*
X133813214Y-129181009D02*
X133860833Y-129133390D01*
X133860833Y-129133390D02*
X133956071Y-129085771D01*
X133956071Y-129085771D02*
X134146547Y-129085771D01*
X134146547Y-129085771D02*
X134241785Y-129133390D01*
X134241785Y-129133390D02*
X134289404Y-129181009D01*
X134289404Y-129181009D02*
X134337023Y-129276247D01*
X155091792Y-79869819D02*
X155425125Y-79393628D01*
X155663220Y-79869819D02*
X155663220Y-78869819D01*
X155663220Y-78869819D02*
X155282268Y-78869819D01*
X155282268Y-78869819D02*
X155187030Y-78917438D01*
X155187030Y-78917438D02*
X155139411Y-78965057D01*
X155139411Y-78965057D02*
X155091792Y-79060295D01*
X155091792Y-79060295D02*
X155091792Y-79203152D01*
X155091792Y-79203152D02*
X155139411Y-79298390D01*
X155139411Y-79298390D02*
X155187030Y-79346009D01*
X155187030Y-79346009D02*
X155282268Y-79393628D01*
X155282268Y-79393628D02*
X155663220Y-79393628D01*
X154139411Y-79869819D02*
X154710839Y-79869819D01*
X154425125Y-79869819D02*
X154425125Y-78869819D01*
X154425125Y-78869819D02*
X154520363Y-79012676D01*
X154520363Y-79012676D02*
X154615601Y-79107914D01*
X154615601Y-79107914D02*
X154710839Y-79155533D01*
X153567982Y-79298390D02*
X153663220Y-79250771D01*
X153663220Y-79250771D02*
X153710839Y-79203152D01*
X153710839Y-79203152D02*
X153758458Y-79107914D01*
X153758458Y-79107914D02*
X153758458Y-79060295D01*
X153758458Y-79060295D02*
X153710839Y-78965057D01*
X153710839Y-78965057D02*
X153663220Y-78917438D01*
X153663220Y-78917438D02*
X153567982Y-78869819D01*
X153567982Y-78869819D02*
X153377506Y-78869819D01*
X153377506Y-78869819D02*
X153282268Y-78917438D01*
X153282268Y-78917438D02*
X153234649Y-78965057D01*
X153234649Y-78965057D02*
X153187030Y-79060295D01*
X153187030Y-79060295D02*
X153187030Y-79107914D01*
X153187030Y-79107914D02*
X153234649Y-79203152D01*
X153234649Y-79203152D02*
X153282268Y-79250771D01*
X153282268Y-79250771D02*
X153377506Y-79298390D01*
X153377506Y-79298390D02*
X153567982Y-79298390D01*
X153567982Y-79298390D02*
X153663220Y-79346009D01*
X153663220Y-79346009D02*
X153710839Y-79393628D01*
X153710839Y-79393628D02*
X153758458Y-79488866D01*
X153758458Y-79488866D02*
X153758458Y-79679342D01*
X153758458Y-79679342D02*
X153710839Y-79774580D01*
X153710839Y-79774580D02*
X153663220Y-79822200D01*
X153663220Y-79822200D02*
X153567982Y-79869819D01*
X153567982Y-79869819D02*
X153377506Y-79869819D01*
X153377506Y-79869819D02*
X153282268Y-79822200D01*
X153282268Y-79822200D02*
X153234649Y-79774580D01*
X153234649Y-79774580D02*
X153187030Y-79679342D01*
X153187030Y-79679342D02*
X153187030Y-79488866D01*
X153187030Y-79488866D02*
X153234649Y-79393628D01*
X153234649Y-79393628D02*
X153282268Y-79346009D01*
X153282268Y-79346009D02*
X153377506Y-79298390D01*
X143168740Y-99454819D02*
X143502073Y-98978628D01*
X143740168Y-99454819D02*
X143740168Y-98454819D01*
X143740168Y-98454819D02*
X143359216Y-98454819D01*
X143359216Y-98454819D02*
X143263978Y-98502438D01*
X143263978Y-98502438D02*
X143216359Y-98550057D01*
X143216359Y-98550057D02*
X143168740Y-98645295D01*
X143168740Y-98645295D02*
X143168740Y-98788152D01*
X143168740Y-98788152D02*
X143216359Y-98883390D01*
X143216359Y-98883390D02*
X143263978Y-98931009D01*
X143263978Y-98931009D02*
X143359216Y-98978628D01*
X143359216Y-98978628D02*
X143740168Y-98978628D01*
X142835406Y-98454819D02*
X142216359Y-98454819D01*
X142216359Y-98454819D02*
X142549692Y-98835771D01*
X142549692Y-98835771D02*
X142406835Y-98835771D01*
X142406835Y-98835771D02*
X142311597Y-98883390D01*
X142311597Y-98883390D02*
X142263978Y-98931009D01*
X142263978Y-98931009D02*
X142216359Y-99026247D01*
X142216359Y-99026247D02*
X142216359Y-99264342D01*
X142216359Y-99264342D02*
X142263978Y-99359580D01*
X142263978Y-99359580D02*
X142311597Y-99407200D01*
X142311597Y-99407200D02*
X142406835Y-99454819D01*
X142406835Y-99454819D02*
X142692549Y-99454819D01*
X142692549Y-99454819D02*
X142787787Y-99407200D01*
X142787787Y-99407200D02*
X142835406Y-99359580D01*
X141311597Y-98454819D02*
X141787787Y-98454819D01*
X141787787Y-98454819D02*
X141835406Y-98931009D01*
X141835406Y-98931009D02*
X141787787Y-98883390D01*
X141787787Y-98883390D02*
X141692549Y-98835771D01*
X141692549Y-98835771D02*
X141454454Y-98835771D01*
X141454454Y-98835771D02*
X141359216Y-98883390D01*
X141359216Y-98883390D02*
X141311597Y-98931009D01*
X141311597Y-98931009D02*
X141263978Y-99026247D01*
X141263978Y-99026247D02*
X141263978Y-99264342D01*
X141263978Y-99264342D02*
X141311597Y-99359580D01*
X141311597Y-99359580D02*
X141359216Y-99407200D01*
X141359216Y-99407200D02*
X141454454Y-99454819D01*
X141454454Y-99454819D02*
X141692549Y-99454819D01*
X141692549Y-99454819D02*
X141787787Y-99407200D01*
X141787787Y-99407200D02*
X141835406Y-99359580D01*
X188109580Y-83908207D02*
X188157200Y-83860588D01*
X188157200Y-83860588D02*
X188204819Y-83717731D01*
X188204819Y-83717731D02*
X188204819Y-83622493D01*
X188204819Y-83622493D02*
X188157200Y-83479636D01*
X188157200Y-83479636D02*
X188061961Y-83384398D01*
X188061961Y-83384398D02*
X187966723Y-83336779D01*
X187966723Y-83336779D02*
X187776247Y-83289160D01*
X187776247Y-83289160D02*
X187633390Y-83289160D01*
X187633390Y-83289160D02*
X187442914Y-83336779D01*
X187442914Y-83336779D02*
X187347676Y-83384398D01*
X187347676Y-83384398D02*
X187252438Y-83479636D01*
X187252438Y-83479636D02*
X187204819Y-83622493D01*
X187204819Y-83622493D02*
X187204819Y-83717731D01*
X187204819Y-83717731D02*
X187252438Y-83860588D01*
X187252438Y-83860588D02*
X187300057Y-83908207D01*
X187300057Y-84289160D02*
X187252438Y-84336779D01*
X187252438Y-84336779D02*
X187204819Y-84432017D01*
X187204819Y-84432017D02*
X187204819Y-84670112D01*
X187204819Y-84670112D02*
X187252438Y-84765350D01*
X187252438Y-84765350D02*
X187300057Y-84812969D01*
X187300057Y-84812969D02*
X187395295Y-84860588D01*
X187395295Y-84860588D02*
X187490533Y-84860588D01*
X187490533Y-84860588D02*
X187633390Y-84812969D01*
X187633390Y-84812969D02*
X188204819Y-84241541D01*
X188204819Y-84241541D02*
X188204819Y-84860588D01*
X187300057Y-85241541D02*
X187252438Y-85289160D01*
X187252438Y-85289160D02*
X187204819Y-85384398D01*
X187204819Y-85384398D02*
X187204819Y-85622493D01*
X187204819Y-85622493D02*
X187252438Y-85717731D01*
X187252438Y-85717731D02*
X187300057Y-85765350D01*
X187300057Y-85765350D02*
X187395295Y-85812969D01*
X187395295Y-85812969D02*
X187490533Y-85812969D01*
X187490533Y-85812969D02*
X187633390Y-85765350D01*
X187633390Y-85765350D02*
X188204819Y-85193922D01*
X188204819Y-85193922D02*
X188204819Y-85812969D01*
X158091792Y-72369819D02*
X158425125Y-71893628D01*
X158663220Y-72369819D02*
X158663220Y-71369819D01*
X158663220Y-71369819D02*
X158282268Y-71369819D01*
X158282268Y-71369819D02*
X158187030Y-71417438D01*
X158187030Y-71417438D02*
X158139411Y-71465057D01*
X158139411Y-71465057D02*
X158091792Y-71560295D01*
X158091792Y-71560295D02*
X158091792Y-71703152D01*
X158091792Y-71703152D02*
X158139411Y-71798390D01*
X158139411Y-71798390D02*
X158187030Y-71846009D01*
X158187030Y-71846009D02*
X158282268Y-71893628D01*
X158282268Y-71893628D02*
X158663220Y-71893628D01*
X157615601Y-72369819D02*
X157425125Y-72369819D01*
X157425125Y-72369819D02*
X157329887Y-72322200D01*
X157329887Y-72322200D02*
X157282268Y-72274580D01*
X157282268Y-72274580D02*
X157187030Y-72131723D01*
X157187030Y-72131723D02*
X157139411Y-71941247D01*
X157139411Y-71941247D02*
X157139411Y-71560295D01*
X157139411Y-71560295D02*
X157187030Y-71465057D01*
X157187030Y-71465057D02*
X157234649Y-71417438D01*
X157234649Y-71417438D02*
X157329887Y-71369819D01*
X157329887Y-71369819D02*
X157520363Y-71369819D01*
X157520363Y-71369819D02*
X157615601Y-71417438D01*
X157615601Y-71417438D02*
X157663220Y-71465057D01*
X157663220Y-71465057D02*
X157710839Y-71560295D01*
X157710839Y-71560295D02*
X157710839Y-71798390D01*
X157710839Y-71798390D02*
X157663220Y-71893628D01*
X157663220Y-71893628D02*
X157615601Y-71941247D01*
X157615601Y-71941247D02*
X157520363Y-71988866D01*
X157520363Y-71988866D02*
X157329887Y-71988866D01*
X157329887Y-71988866D02*
X157234649Y-71941247D01*
X157234649Y-71941247D02*
X157187030Y-71893628D01*
X157187030Y-71893628D02*
X157139411Y-71798390D01*
X190359580Y-83908207D02*
X190407200Y-83860588D01*
X190407200Y-83860588D02*
X190454819Y-83717731D01*
X190454819Y-83717731D02*
X190454819Y-83622493D01*
X190454819Y-83622493D02*
X190407200Y-83479636D01*
X190407200Y-83479636D02*
X190311961Y-83384398D01*
X190311961Y-83384398D02*
X190216723Y-83336779D01*
X190216723Y-83336779D02*
X190026247Y-83289160D01*
X190026247Y-83289160D02*
X189883390Y-83289160D01*
X189883390Y-83289160D02*
X189692914Y-83336779D01*
X189692914Y-83336779D02*
X189597676Y-83384398D01*
X189597676Y-83384398D02*
X189502438Y-83479636D01*
X189502438Y-83479636D02*
X189454819Y-83622493D01*
X189454819Y-83622493D02*
X189454819Y-83717731D01*
X189454819Y-83717731D02*
X189502438Y-83860588D01*
X189502438Y-83860588D02*
X189550057Y-83908207D01*
X190454819Y-84860588D02*
X190454819Y-84289160D01*
X190454819Y-84574874D02*
X189454819Y-84574874D01*
X189454819Y-84574874D02*
X189597676Y-84479636D01*
X189597676Y-84479636D02*
X189692914Y-84384398D01*
X189692914Y-84384398D02*
X189740533Y-84289160D01*
X143168740Y-111454819D02*
X143502073Y-110978628D01*
X143740168Y-111454819D02*
X143740168Y-110454819D01*
X143740168Y-110454819D02*
X143359216Y-110454819D01*
X143359216Y-110454819D02*
X143263978Y-110502438D01*
X143263978Y-110502438D02*
X143216359Y-110550057D01*
X143216359Y-110550057D02*
X143168740Y-110645295D01*
X143168740Y-110645295D02*
X143168740Y-110788152D01*
X143168740Y-110788152D02*
X143216359Y-110883390D01*
X143216359Y-110883390D02*
X143263978Y-110931009D01*
X143263978Y-110931009D02*
X143359216Y-110978628D01*
X143359216Y-110978628D02*
X143740168Y-110978628D01*
X142835406Y-110454819D02*
X142216359Y-110454819D01*
X142216359Y-110454819D02*
X142549692Y-110835771D01*
X142549692Y-110835771D02*
X142406835Y-110835771D01*
X142406835Y-110835771D02*
X142311597Y-110883390D01*
X142311597Y-110883390D02*
X142263978Y-110931009D01*
X142263978Y-110931009D02*
X142216359Y-111026247D01*
X142216359Y-111026247D02*
X142216359Y-111264342D01*
X142216359Y-111264342D02*
X142263978Y-111359580D01*
X142263978Y-111359580D02*
X142311597Y-111407200D01*
X142311597Y-111407200D02*
X142406835Y-111454819D01*
X142406835Y-111454819D02*
X142692549Y-111454819D01*
X142692549Y-111454819D02*
X142787787Y-111407200D01*
X142787787Y-111407200D02*
X142835406Y-111359580D01*
X141883025Y-110454819D02*
X141263978Y-110454819D01*
X141263978Y-110454819D02*
X141597311Y-110835771D01*
X141597311Y-110835771D02*
X141454454Y-110835771D01*
X141454454Y-110835771D02*
X141359216Y-110883390D01*
X141359216Y-110883390D02*
X141311597Y-110931009D01*
X141311597Y-110931009D02*
X141263978Y-111026247D01*
X141263978Y-111026247D02*
X141263978Y-111264342D01*
X141263978Y-111264342D02*
X141311597Y-111359580D01*
X141311597Y-111359580D02*
X141359216Y-111407200D01*
X141359216Y-111407200D02*
X141454454Y-111454819D01*
X141454454Y-111454819D02*
X141740168Y-111454819D01*
X141740168Y-111454819D02*
X141835406Y-111407200D01*
X141835406Y-111407200D02*
X141883025Y-111359580D01*
X124142857Y-91454819D02*
X124476190Y-90978628D01*
X124714285Y-91454819D02*
X124714285Y-90454819D01*
X124714285Y-90454819D02*
X124333333Y-90454819D01*
X124333333Y-90454819D02*
X124238095Y-90502438D01*
X124238095Y-90502438D02*
X124190476Y-90550057D01*
X124190476Y-90550057D02*
X124142857Y-90645295D01*
X124142857Y-90645295D02*
X124142857Y-90788152D01*
X124142857Y-90788152D02*
X124190476Y-90883390D01*
X124190476Y-90883390D02*
X124238095Y-90931009D01*
X124238095Y-90931009D02*
X124333333Y-90978628D01*
X124333333Y-90978628D02*
X124714285Y-90978628D01*
X123285714Y-90454819D02*
X123476190Y-90454819D01*
X123476190Y-90454819D02*
X123571428Y-90502438D01*
X123571428Y-90502438D02*
X123619047Y-90550057D01*
X123619047Y-90550057D02*
X123714285Y-90692914D01*
X123714285Y-90692914D02*
X123761904Y-90883390D01*
X123761904Y-90883390D02*
X123761904Y-91264342D01*
X123761904Y-91264342D02*
X123714285Y-91359580D01*
X123714285Y-91359580D02*
X123666666Y-91407200D01*
X123666666Y-91407200D02*
X123571428Y-91454819D01*
X123571428Y-91454819D02*
X123380952Y-91454819D01*
X123380952Y-91454819D02*
X123285714Y-91407200D01*
X123285714Y-91407200D02*
X123238095Y-91359580D01*
X123238095Y-91359580D02*
X123190476Y-91264342D01*
X123190476Y-91264342D02*
X123190476Y-91026247D01*
X123190476Y-91026247D02*
X123238095Y-90931009D01*
X123238095Y-90931009D02*
X123285714Y-90883390D01*
X123285714Y-90883390D02*
X123380952Y-90835771D01*
X123380952Y-90835771D02*
X123571428Y-90835771D01*
X123571428Y-90835771D02*
X123666666Y-90883390D01*
X123666666Y-90883390D02*
X123714285Y-90931009D01*
X123714285Y-90931009D02*
X123761904Y-91026247D01*
X122619047Y-90883390D02*
X122714285Y-90835771D01*
X122714285Y-90835771D02*
X122761904Y-90788152D01*
X122761904Y-90788152D02*
X122809523Y-90692914D01*
X122809523Y-90692914D02*
X122809523Y-90645295D01*
X122809523Y-90645295D02*
X122761904Y-90550057D01*
X122761904Y-90550057D02*
X122714285Y-90502438D01*
X122714285Y-90502438D02*
X122619047Y-90454819D01*
X122619047Y-90454819D02*
X122428571Y-90454819D01*
X122428571Y-90454819D02*
X122333333Y-90502438D01*
X122333333Y-90502438D02*
X122285714Y-90550057D01*
X122285714Y-90550057D02*
X122238095Y-90645295D01*
X122238095Y-90645295D02*
X122238095Y-90692914D01*
X122238095Y-90692914D02*
X122285714Y-90788152D01*
X122285714Y-90788152D02*
X122333333Y-90835771D01*
X122333333Y-90835771D02*
X122428571Y-90883390D01*
X122428571Y-90883390D02*
X122619047Y-90883390D01*
X122619047Y-90883390D02*
X122714285Y-90931009D01*
X122714285Y-90931009D02*
X122761904Y-90978628D01*
X122761904Y-90978628D02*
X122809523Y-91073866D01*
X122809523Y-91073866D02*
X122809523Y-91264342D01*
X122809523Y-91264342D02*
X122761904Y-91359580D01*
X122761904Y-91359580D02*
X122714285Y-91407200D01*
X122714285Y-91407200D02*
X122619047Y-91454819D01*
X122619047Y-91454819D02*
X122428571Y-91454819D01*
X122428571Y-91454819D02*
X122333333Y-91407200D01*
X122333333Y-91407200D02*
X122285714Y-91359580D01*
X122285714Y-91359580D02*
X122238095Y-91264342D01*
X122238095Y-91264342D02*
X122238095Y-91073866D01*
X122238095Y-91073866D02*
X122285714Y-90978628D01*
X122285714Y-90978628D02*
X122333333Y-90931009D01*
X122333333Y-90931009D02*
X122428571Y-90883390D01*
X161091792Y-79869819D02*
X161425125Y-79393628D01*
X161663220Y-79869819D02*
X161663220Y-78869819D01*
X161663220Y-78869819D02*
X161282268Y-78869819D01*
X161282268Y-78869819D02*
X161187030Y-78917438D01*
X161187030Y-78917438D02*
X161139411Y-78965057D01*
X161139411Y-78965057D02*
X161091792Y-79060295D01*
X161091792Y-79060295D02*
X161091792Y-79203152D01*
X161091792Y-79203152D02*
X161139411Y-79298390D01*
X161139411Y-79298390D02*
X161187030Y-79346009D01*
X161187030Y-79346009D02*
X161282268Y-79393628D01*
X161282268Y-79393628D02*
X161663220Y-79393628D01*
X160187030Y-78869819D02*
X160663220Y-78869819D01*
X160663220Y-78869819D02*
X160710839Y-79346009D01*
X160710839Y-79346009D02*
X160663220Y-79298390D01*
X160663220Y-79298390D02*
X160567982Y-79250771D01*
X160567982Y-79250771D02*
X160329887Y-79250771D01*
X160329887Y-79250771D02*
X160234649Y-79298390D01*
X160234649Y-79298390D02*
X160187030Y-79346009D01*
X160187030Y-79346009D02*
X160139411Y-79441247D01*
X160139411Y-79441247D02*
X160139411Y-79679342D01*
X160139411Y-79679342D02*
X160187030Y-79774580D01*
X160187030Y-79774580D02*
X160234649Y-79822200D01*
X160234649Y-79822200D02*
X160329887Y-79869819D01*
X160329887Y-79869819D02*
X160567982Y-79869819D01*
X160567982Y-79869819D02*
X160663220Y-79822200D01*
X160663220Y-79822200D02*
X160710839Y-79774580D01*
X159758458Y-78965057D02*
X159710839Y-78917438D01*
X159710839Y-78917438D02*
X159615601Y-78869819D01*
X159615601Y-78869819D02*
X159377506Y-78869819D01*
X159377506Y-78869819D02*
X159282268Y-78917438D01*
X159282268Y-78917438D02*
X159234649Y-78965057D01*
X159234649Y-78965057D02*
X159187030Y-79060295D01*
X159187030Y-79060295D02*
X159187030Y-79155533D01*
X159187030Y-79155533D02*
X159234649Y-79298390D01*
X159234649Y-79298390D02*
X159806077Y-79869819D01*
X159806077Y-79869819D02*
X159187030Y-79869819D01*
X152392857Y-125859580D02*
X152440476Y-125907200D01*
X152440476Y-125907200D02*
X152583333Y-125954819D01*
X152583333Y-125954819D02*
X152678571Y-125954819D01*
X152678571Y-125954819D02*
X152821428Y-125907200D01*
X152821428Y-125907200D02*
X152916666Y-125811961D01*
X152916666Y-125811961D02*
X152964285Y-125716723D01*
X152964285Y-125716723D02*
X153011904Y-125526247D01*
X153011904Y-125526247D02*
X153011904Y-125383390D01*
X153011904Y-125383390D02*
X152964285Y-125192914D01*
X152964285Y-125192914D02*
X152916666Y-125097676D01*
X152916666Y-125097676D02*
X152821428Y-125002438D01*
X152821428Y-125002438D02*
X152678571Y-124954819D01*
X152678571Y-124954819D02*
X152583333Y-124954819D01*
X152583333Y-124954819D02*
X152440476Y-125002438D01*
X152440476Y-125002438D02*
X152392857Y-125050057D01*
X151440476Y-125954819D02*
X152011904Y-125954819D01*
X151726190Y-125954819D02*
X151726190Y-124954819D01*
X151726190Y-124954819D02*
X151821428Y-125097676D01*
X151821428Y-125097676D02*
X151916666Y-125192914D01*
X151916666Y-125192914D02*
X152011904Y-125240533D01*
X150964285Y-125954819D02*
X150773809Y-125954819D01*
X150773809Y-125954819D02*
X150678571Y-125907200D01*
X150678571Y-125907200D02*
X150630952Y-125859580D01*
X150630952Y-125859580D02*
X150535714Y-125716723D01*
X150535714Y-125716723D02*
X150488095Y-125526247D01*
X150488095Y-125526247D02*
X150488095Y-125145295D01*
X150488095Y-125145295D02*
X150535714Y-125050057D01*
X150535714Y-125050057D02*
X150583333Y-125002438D01*
X150583333Y-125002438D02*
X150678571Y-124954819D01*
X150678571Y-124954819D02*
X150869047Y-124954819D01*
X150869047Y-124954819D02*
X150964285Y-125002438D01*
X150964285Y-125002438D02*
X151011904Y-125050057D01*
X151011904Y-125050057D02*
X151059523Y-125145295D01*
X151059523Y-125145295D02*
X151059523Y-125383390D01*
X151059523Y-125383390D02*
X151011904Y-125478628D01*
X151011904Y-125478628D02*
X150964285Y-125526247D01*
X150964285Y-125526247D02*
X150869047Y-125573866D01*
X150869047Y-125573866D02*
X150678571Y-125573866D01*
X150678571Y-125573866D02*
X150583333Y-125526247D01*
X150583333Y-125526247D02*
X150535714Y-125478628D01*
X150535714Y-125478628D02*
X150488095Y-125383390D01*
X155070309Y-72369819D02*
X155403642Y-71893628D01*
X155641737Y-72369819D02*
X155641737Y-71369819D01*
X155641737Y-71369819D02*
X155260785Y-71369819D01*
X155260785Y-71369819D02*
X155165547Y-71417438D01*
X155165547Y-71417438D02*
X155117928Y-71465057D01*
X155117928Y-71465057D02*
X155070309Y-71560295D01*
X155070309Y-71560295D02*
X155070309Y-71703152D01*
X155070309Y-71703152D02*
X155117928Y-71798390D01*
X155117928Y-71798390D02*
X155165547Y-71846009D01*
X155165547Y-71846009D02*
X155260785Y-71893628D01*
X155260785Y-71893628D02*
X155641737Y-71893628D01*
X154117928Y-72369819D02*
X154689356Y-72369819D01*
X154403642Y-72369819D02*
X154403642Y-71369819D01*
X154403642Y-71369819D02*
X154498880Y-71512676D01*
X154498880Y-71512676D02*
X154594118Y-71607914D01*
X154594118Y-71607914D02*
X154689356Y-71655533D01*
X153736975Y-71465057D02*
X153689356Y-71417438D01*
X153689356Y-71417438D02*
X153594118Y-71369819D01*
X153594118Y-71369819D02*
X153356023Y-71369819D01*
X153356023Y-71369819D02*
X153260785Y-71417438D01*
X153260785Y-71417438D02*
X153213166Y-71465057D01*
X153213166Y-71465057D02*
X153165547Y-71560295D01*
X153165547Y-71560295D02*
X153165547Y-71655533D01*
X153165547Y-71655533D02*
X153213166Y-71798390D01*
X153213166Y-71798390D02*
X153784594Y-72369819D01*
X153784594Y-72369819D02*
X153165547Y-72369819D01*
X116142857Y-101704819D02*
X116476190Y-101228628D01*
X116714285Y-101704819D02*
X116714285Y-100704819D01*
X116714285Y-100704819D02*
X116333333Y-100704819D01*
X116333333Y-100704819D02*
X116238095Y-100752438D01*
X116238095Y-100752438D02*
X116190476Y-100800057D01*
X116190476Y-100800057D02*
X116142857Y-100895295D01*
X116142857Y-100895295D02*
X116142857Y-101038152D01*
X116142857Y-101038152D02*
X116190476Y-101133390D01*
X116190476Y-101133390D02*
X116238095Y-101181009D01*
X116238095Y-101181009D02*
X116333333Y-101228628D01*
X116333333Y-101228628D02*
X116714285Y-101228628D01*
X115761904Y-100800057D02*
X115714285Y-100752438D01*
X115714285Y-100752438D02*
X115619047Y-100704819D01*
X115619047Y-100704819D02*
X115380952Y-100704819D01*
X115380952Y-100704819D02*
X115285714Y-100752438D01*
X115285714Y-100752438D02*
X115238095Y-100800057D01*
X115238095Y-100800057D02*
X115190476Y-100895295D01*
X115190476Y-100895295D02*
X115190476Y-100990533D01*
X115190476Y-100990533D02*
X115238095Y-101133390D01*
X115238095Y-101133390D02*
X115809523Y-101704819D01*
X115809523Y-101704819D02*
X115190476Y-101704819D01*
X114333333Y-101038152D02*
X114333333Y-101704819D01*
X114571428Y-100657200D02*
X114809523Y-101371485D01*
X114809523Y-101371485D02*
X114190476Y-101371485D01*
X161091792Y-76869819D02*
X161425125Y-76393628D01*
X161663220Y-76869819D02*
X161663220Y-75869819D01*
X161663220Y-75869819D02*
X161282268Y-75869819D01*
X161282268Y-75869819D02*
X161187030Y-75917438D01*
X161187030Y-75917438D02*
X161139411Y-75965057D01*
X161139411Y-75965057D02*
X161091792Y-76060295D01*
X161091792Y-76060295D02*
X161091792Y-76203152D01*
X161091792Y-76203152D02*
X161139411Y-76298390D01*
X161139411Y-76298390D02*
X161187030Y-76346009D01*
X161187030Y-76346009D02*
X161282268Y-76393628D01*
X161282268Y-76393628D02*
X161663220Y-76393628D01*
X160187030Y-75869819D02*
X160663220Y-75869819D01*
X160663220Y-75869819D02*
X160710839Y-76346009D01*
X160710839Y-76346009D02*
X160663220Y-76298390D01*
X160663220Y-76298390D02*
X160567982Y-76250771D01*
X160567982Y-76250771D02*
X160329887Y-76250771D01*
X160329887Y-76250771D02*
X160234649Y-76298390D01*
X160234649Y-76298390D02*
X160187030Y-76346009D01*
X160187030Y-76346009D02*
X160139411Y-76441247D01*
X160139411Y-76441247D02*
X160139411Y-76679342D01*
X160139411Y-76679342D02*
X160187030Y-76774580D01*
X160187030Y-76774580D02*
X160234649Y-76822200D01*
X160234649Y-76822200D02*
X160329887Y-76869819D01*
X160329887Y-76869819D02*
X160567982Y-76869819D01*
X160567982Y-76869819D02*
X160663220Y-76822200D01*
X160663220Y-76822200D02*
X160710839Y-76774580D01*
X159520363Y-75869819D02*
X159425125Y-75869819D01*
X159425125Y-75869819D02*
X159329887Y-75917438D01*
X159329887Y-75917438D02*
X159282268Y-75965057D01*
X159282268Y-75965057D02*
X159234649Y-76060295D01*
X159234649Y-76060295D02*
X159187030Y-76250771D01*
X159187030Y-76250771D02*
X159187030Y-76488866D01*
X159187030Y-76488866D02*
X159234649Y-76679342D01*
X159234649Y-76679342D02*
X159282268Y-76774580D01*
X159282268Y-76774580D02*
X159329887Y-76822200D01*
X159329887Y-76822200D02*
X159425125Y-76869819D01*
X159425125Y-76869819D02*
X159520363Y-76869819D01*
X159520363Y-76869819D02*
X159615601Y-76822200D01*
X159615601Y-76822200D02*
X159663220Y-76774580D01*
X159663220Y-76774580D02*
X159710839Y-76679342D01*
X159710839Y-76679342D02*
X159758458Y-76488866D01*
X159758458Y-76488866D02*
X159758458Y-76250771D01*
X159758458Y-76250771D02*
X159710839Y-76060295D01*
X159710839Y-76060295D02*
X159663220Y-75965057D01*
X159663220Y-75965057D02*
X159615601Y-75917438D01*
X159615601Y-75917438D02*
X159520363Y-75869819D01*
X196517857Y-50804819D02*
X196851190Y-50328628D01*
X197089285Y-50804819D02*
X197089285Y-49804819D01*
X197089285Y-49804819D02*
X196708333Y-49804819D01*
X196708333Y-49804819D02*
X196613095Y-49852438D01*
X196613095Y-49852438D02*
X196565476Y-49900057D01*
X196565476Y-49900057D02*
X196517857Y-49995295D01*
X196517857Y-49995295D02*
X196517857Y-50138152D01*
X196517857Y-50138152D02*
X196565476Y-50233390D01*
X196565476Y-50233390D02*
X196613095Y-50281009D01*
X196613095Y-50281009D02*
X196708333Y-50328628D01*
X196708333Y-50328628D02*
X197089285Y-50328628D01*
X195660714Y-49804819D02*
X195851190Y-49804819D01*
X195851190Y-49804819D02*
X195946428Y-49852438D01*
X195946428Y-49852438D02*
X195994047Y-49900057D01*
X195994047Y-49900057D02*
X196089285Y-50042914D01*
X196089285Y-50042914D02*
X196136904Y-50233390D01*
X196136904Y-50233390D02*
X196136904Y-50614342D01*
X196136904Y-50614342D02*
X196089285Y-50709580D01*
X196089285Y-50709580D02*
X196041666Y-50757200D01*
X196041666Y-50757200D02*
X195946428Y-50804819D01*
X195946428Y-50804819D02*
X195755952Y-50804819D01*
X195755952Y-50804819D02*
X195660714Y-50757200D01*
X195660714Y-50757200D02*
X195613095Y-50709580D01*
X195613095Y-50709580D02*
X195565476Y-50614342D01*
X195565476Y-50614342D02*
X195565476Y-50376247D01*
X195565476Y-50376247D02*
X195613095Y-50281009D01*
X195613095Y-50281009D02*
X195660714Y-50233390D01*
X195660714Y-50233390D02*
X195755952Y-50185771D01*
X195755952Y-50185771D02*
X195946428Y-50185771D01*
X195946428Y-50185771D02*
X196041666Y-50233390D01*
X196041666Y-50233390D02*
X196089285Y-50281009D01*
X196089285Y-50281009D02*
X196136904Y-50376247D01*
X195089285Y-50804819D02*
X194898809Y-50804819D01*
X194898809Y-50804819D02*
X194803571Y-50757200D01*
X194803571Y-50757200D02*
X194755952Y-50709580D01*
X194755952Y-50709580D02*
X194660714Y-50566723D01*
X194660714Y-50566723D02*
X194613095Y-50376247D01*
X194613095Y-50376247D02*
X194613095Y-49995295D01*
X194613095Y-49995295D02*
X194660714Y-49900057D01*
X194660714Y-49900057D02*
X194708333Y-49852438D01*
X194708333Y-49852438D02*
X194803571Y-49804819D01*
X194803571Y-49804819D02*
X194994047Y-49804819D01*
X194994047Y-49804819D02*
X195089285Y-49852438D01*
X195089285Y-49852438D02*
X195136904Y-49900057D01*
X195136904Y-49900057D02*
X195184523Y-49995295D01*
X195184523Y-49995295D02*
X195184523Y-50233390D01*
X195184523Y-50233390D02*
X195136904Y-50328628D01*
X195136904Y-50328628D02*
X195089285Y-50376247D01*
X195089285Y-50376247D02*
X194994047Y-50423866D01*
X194994047Y-50423866D02*
X194803571Y-50423866D01*
X194803571Y-50423866D02*
X194708333Y-50376247D01*
X194708333Y-50376247D02*
X194660714Y-50328628D01*
X194660714Y-50328628D02*
X194613095Y-50233390D01*
X155070309Y-78369819D02*
X155403642Y-77893628D01*
X155641737Y-78369819D02*
X155641737Y-77369819D01*
X155641737Y-77369819D02*
X155260785Y-77369819D01*
X155260785Y-77369819D02*
X155165547Y-77417438D01*
X155165547Y-77417438D02*
X155117928Y-77465057D01*
X155117928Y-77465057D02*
X155070309Y-77560295D01*
X155070309Y-77560295D02*
X155070309Y-77703152D01*
X155070309Y-77703152D02*
X155117928Y-77798390D01*
X155117928Y-77798390D02*
X155165547Y-77846009D01*
X155165547Y-77846009D02*
X155260785Y-77893628D01*
X155260785Y-77893628D02*
X155641737Y-77893628D01*
X154689356Y-77465057D02*
X154641737Y-77417438D01*
X154641737Y-77417438D02*
X154546499Y-77369819D01*
X154546499Y-77369819D02*
X154308404Y-77369819D01*
X154308404Y-77369819D02*
X154213166Y-77417438D01*
X154213166Y-77417438D02*
X154165547Y-77465057D01*
X154165547Y-77465057D02*
X154117928Y-77560295D01*
X154117928Y-77560295D02*
X154117928Y-77655533D01*
X154117928Y-77655533D02*
X154165547Y-77798390D01*
X154165547Y-77798390D02*
X154736975Y-78369819D01*
X154736975Y-78369819D02*
X154117928Y-78369819D01*
X153498880Y-77369819D02*
X153403642Y-77369819D01*
X153403642Y-77369819D02*
X153308404Y-77417438D01*
X153308404Y-77417438D02*
X153260785Y-77465057D01*
X153260785Y-77465057D02*
X153213166Y-77560295D01*
X153213166Y-77560295D02*
X153165547Y-77750771D01*
X153165547Y-77750771D02*
X153165547Y-77988866D01*
X153165547Y-77988866D02*
X153213166Y-78179342D01*
X153213166Y-78179342D02*
X153260785Y-78274580D01*
X153260785Y-78274580D02*
X153308404Y-78322200D01*
X153308404Y-78322200D02*
X153403642Y-78369819D01*
X153403642Y-78369819D02*
X153498880Y-78369819D01*
X153498880Y-78369819D02*
X153594118Y-78322200D01*
X153594118Y-78322200D02*
X153641737Y-78274580D01*
X153641737Y-78274580D02*
X153689356Y-78179342D01*
X153689356Y-78179342D02*
X153736975Y-77988866D01*
X153736975Y-77988866D02*
X153736975Y-77750771D01*
X153736975Y-77750771D02*
X153689356Y-77560295D01*
X153689356Y-77560295D02*
X153641737Y-77465057D01*
X153641737Y-77465057D02*
X153594118Y-77417438D01*
X153594118Y-77417438D02*
X153498880Y-77369819D01*
X158091792Y-70869819D02*
X158425125Y-70393628D01*
X158663220Y-70869819D02*
X158663220Y-69869819D01*
X158663220Y-69869819D02*
X158282268Y-69869819D01*
X158282268Y-69869819D02*
X158187030Y-69917438D01*
X158187030Y-69917438D02*
X158139411Y-69965057D01*
X158139411Y-69965057D02*
X158091792Y-70060295D01*
X158091792Y-70060295D02*
X158091792Y-70203152D01*
X158091792Y-70203152D02*
X158139411Y-70298390D01*
X158139411Y-70298390D02*
X158187030Y-70346009D01*
X158187030Y-70346009D02*
X158282268Y-70393628D01*
X158282268Y-70393628D02*
X158663220Y-70393628D01*
X157758458Y-69869819D02*
X157091792Y-69869819D01*
X157091792Y-69869819D02*
X157520363Y-70869819D01*
X116142857Y-105954819D02*
X116476190Y-105478628D01*
X116714285Y-105954819D02*
X116714285Y-104954819D01*
X116714285Y-104954819D02*
X116333333Y-104954819D01*
X116333333Y-104954819D02*
X116238095Y-105002438D01*
X116238095Y-105002438D02*
X116190476Y-105050057D01*
X116190476Y-105050057D02*
X116142857Y-105145295D01*
X116142857Y-105145295D02*
X116142857Y-105288152D01*
X116142857Y-105288152D02*
X116190476Y-105383390D01*
X116190476Y-105383390D02*
X116238095Y-105431009D01*
X116238095Y-105431009D02*
X116333333Y-105478628D01*
X116333333Y-105478628D02*
X116714285Y-105478628D01*
X115761904Y-105050057D02*
X115714285Y-105002438D01*
X115714285Y-105002438D02*
X115619047Y-104954819D01*
X115619047Y-104954819D02*
X115380952Y-104954819D01*
X115380952Y-104954819D02*
X115285714Y-105002438D01*
X115285714Y-105002438D02*
X115238095Y-105050057D01*
X115238095Y-105050057D02*
X115190476Y-105145295D01*
X115190476Y-105145295D02*
X115190476Y-105240533D01*
X115190476Y-105240533D02*
X115238095Y-105383390D01*
X115238095Y-105383390D02*
X115809523Y-105954819D01*
X115809523Y-105954819D02*
X115190476Y-105954819D01*
X114333333Y-104954819D02*
X114523809Y-104954819D01*
X114523809Y-104954819D02*
X114619047Y-105002438D01*
X114619047Y-105002438D02*
X114666666Y-105050057D01*
X114666666Y-105050057D02*
X114761904Y-105192914D01*
X114761904Y-105192914D02*
X114809523Y-105383390D01*
X114809523Y-105383390D02*
X114809523Y-105764342D01*
X114809523Y-105764342D02*
X114761904Y-105859580D01*
X114761904Y-105859580D02*
X114714285Y-105907200D01*
X114714285Y-105907200D02*
X114619047Y-105954819D01*
X114619047Y-105954819D02*
X114428571Y-105954819D01*
X114428571Y-105954819D02*
X114333333Y-105907200D01*
X114333333Y-105907200D02*
X114285714Y-105859580D01*
X114285714Y-105859580D02*
X114238095Y-105764342D01*
X114238095Y-105764342D02*
X114238095Y-105526247D01*
X114238095Y-105526247D02*
X114285714Y-105431009D01*
X114285714Y-105431009D02*
X114333333Y-105383390D01*
X114333333Y-105383390D02*
X114428571Y-105335771D01*
X114428571Y-105335771D02*
X114619047Y-105335771D01*
X114619047Y-105335771D02*
X114714285Y-105383390D01*
X114714285Y-105383390D02*
X114761904Y-105431009D01*
X114761904Y-105431009D02*
X114809523Y-105526247D01*
X161091792Y-75369819D02*
X161425125Y-74893628D01*
X161663220Y-75369819D02*
X161663220Y-74369819D01*
X161663220Y-74369819D02*
X161282268Y-74369819D01*
X161282268Y-74369819D02*
X161187030Y-74417438D01*
X161187030Y-74417438D02*
X161139411Y-74465057D01*
X161139411Y-74465057D02*
X161091792Y-74560295D01*
X161091792Y-74560295D02*
X161091792Y-74703152D01*
X161091792Y-74703152D02*
X161139411Y-74798390D01*
X161139411Y-74798390D02*
X161187030Y-74846009D01*
X161187030Y-74846009D02*
X161282268Y-74893628D01*
X161282268Y-74893628D02*
X161663220Y-74893628D01*
X160234649Y-74703152D02*
X160234649Y-75369819D01*
X160472744Y-74322200D02*
X160710839Y-75036485D01*
X160710839Y-75036485D02*
X160091792Y-75036485D01*
X159663220Y-75369819D02*
X159472744Y-75369819D01*
X159472744Y-75369819D02*
X159377506Y-75322200D01*
X159377506Y-75322200D02*
X159329887Y-75274580D01*
X159329887Y-75274580D02*
X159234649Y-75131723D01*
X159234649Y-75131723D02*
X159187030Y-74941247D01*
X159187030Y-74941247D02*
X159187030Y-74560295D01*
X159187030Y-74560295D02*
X159234649Y-74465057D01*
X159234649Y-74465057D02*
X159282268Y-74417438D01*
X159282268Y-74417438D02*
X159377506Y-74369819D01*
X159377506Y-74369819D02*
X159567982Y-74369819D01*
X159567982Y-74369819D02*
X159663220Y-74417438D01*
X159663220Y-74417438D02*
X159710839Y-74465057D01*
X159710839Y-74465057D02*
X159758458Y-74560295D01*
X159758458Y-74560295D02*
X159758458Y-74798390D01*
X159758458Y-74798390D02*
X159710839Y-74893628D01*
X159710839Y-74893628D02*
X159663220Y-74941247D01*
X159663220Y-74941247D02*
X159567982Y-74988866D01*
X159567982Y-74988866D02*
X159377506Y-74988866D01*
X159377506Y-74988866D02*
X159282268Y-74941247D01*
X159282268Y-74941247D02*
X159234649Y-74893628D01*
X159234649Y-74893628D02*
X159187030Y-74798390D01*
X185859580Y-83908207D02*
X185907200Y-83860588D01*
X185907200Y-83860588D02*
X185954819Y-83717731D01*
X185954819Y-83717731D02*
X185954819Y-83622493D01*
X185954819Y-83622493D02*
X185907200Y-83479636D01*
X185907200Y-83479636D02*
X185811961Y-83384398D01*
X185811961Y-83384398D02*
X185716723Y-83336779D01*
X185716723Y-83336779D02*
X185526247Y-83289160D01*
X185526247Y-83289160D02*
X185383390Y-83289160D01*
X185383390Y-83289160D02*
X185192914Y-83336779D01*
X185192914Y-83336779D02*
X185097676Y-83384398D01*
X185097676Y-83384398D02*
X185002438Y-83479636D01*
X185002438Y-83479636D02*
X184954819Y-83622493D01*
X184954819Y-83622493D02*
X184954819Y-83717731D01*
X184954819Y-83717731D02*
X185002438Y-83860588D01*
X185002438Y-83860588D02*
X185050057Y-83908207D01*
X185288152Y-84765350D02*
X185954819Y-84765350D01*
X184907200Y-84527255D02*
X185621485Y-84289160D01*
X185621485Y-84289160D02*
X185621485Y-84908207D01*
X136392857Y-125829580D02*
X136440476Y-125877200D01*
X136440476Y-125877200D02*
X136583333Y-125924819D01*
X136583333Y-125924819D02*
X136678571Y-125924819D01*
X136678571Y-125924819D02*
X136821428Y-125877200D01*
X136821428Y-125877200D02*
X136916666Y-125781961D01*
X136916666Y-125781961D02*
X136964285Y-125686723D01*
X136964285Y-125686723D02*
X137011904Y-125496247D01*
X137011904Y-125496247D02*
X137011904Y-125353390D01*
X137011904Y-125353390D02*
X136964285Y-125162914D01*
X136964285Y-125162914D02*
X136916666Y-125067676D01*
X136916666Y-125067676D02*
X136821428Y-124972438D01*
X136821428Y-124972438D02*
X136678571Y-124924819D01*
X136678571Y-124924819D02*
X136583333Y-124924819D01*
X136583333Y-124924819D02*
X136440476Y-124972438D01*
X136440476Y-124972438D02*
X136392857Y-125020057D01*
X136011904Y-125020057D02*
X135964285Y-124972438D01*
X135964285Y-124972438D02*
X135869047Y-124924819D01*
X135869047Y-124924819D02*
X135630952Y-124924819D01*
X135630952Y-124924819D02*
X135535714Y-124972438D01*
X135535714Y-124972438D02*
X135488095Y-125020057D01*
X135488095Y-125020057D02*
X135440476Y-125115295D01*
X135440476Y-125115295D02*
X135440476Y-125210533D01*
X135440476Y-125210533D02*
X135488095Y-125353390D01*
X135488095Y-125353390D02*
X136059523Y-125924819D01*
X136059523Y-125924819D02*
X135440476Y-125924819D01*
X134964285Y-125924819D02*
X134773809Y-125924819D01*
X134773809Y-125924819D02*
X134678571Y-125877200D01*
X134678571Y-125877200D02*
X134630952Y-125829580D01*
X134630952Y-125829580D02*
X134535714Y-125686723D01*
X134535714Y-125686723D02*
X134488095Y-125496247D01*
X134488095Y-125496247D02*
X134488095Y-125115295D01*
X134488095Y-125115295D02*
X134535714Y-125020057D01*
X134535714Y-125020057D02*
X134583333Y-124972438D01*
X134583333Y-124972438D02*
X134678571Y-124924819D01*
X134678571Y-124924819D02*
X134869047Y-124924819D01*
X134869047Y-124924819D02*
X134964285Y-124972438D01*
X134964285Y-124972438D02*
X135011904Y-125020057D01*
X135011904Y-125020057D02*
X135059523Y-125115295D01*
X135059523Y-125115295D02*
X135059523Y-125353390D01*
X135059523Y-125353390D02*
X135011904Y-125448628D01*
X135011904Y-125448628D02*
X134964285Y-125496247D01*
X134964285Y-125496247D02*
X134869047Y-125543866D01*
X134869047Y-125543866D02*
X134678571Y-125543866D01*
X134678571Y-125543866D02*
X134583333Y-125496247D01*
X134583333Y-125496247D02*
X134535714Y-125448628D01*
X134535714Y-125448628D02*
X134488095Y-125353390D01*
X153142857Y-91454819D02*
X153476190Y-90978628D01*
X153714285Y-91454819D02*
X153714285Y-90454819D01*
X153714285Y-90454819D02*
X153333333Y-90454819D01*
X153333333Y-90454819D02*
X153238095Y-90502438D01*
X153238095Y-90502438D02*
X153190476Y-90550057D01*
X153190476Y-90550057D02*
X153142857Y-90645295D01*
X153142857Y-90645295D02*
X153142857Y-90788152D01*
X153142857Y-90788152D02*
X153190476Y-90883390D01*
X153190476Y-90883390D02*
X153238095Y-90931009D01*
X153238095Y-90931009D02*
X153333333Y-90978628D01*
X153333333Y-90978628D02*
X153714285Y-90978628D01*
X152238095Y-90454819D02*
X152714285Y-90454819D01*
X152714285Y-90454819D02*
X152761904Y-90931009D01*
X152761904Y-90931009D02*
X152714285Y-90883390D01*
X152714285Y-90883390D02*
X152619047Y-90835771D01*
X152619047Y-90835771D02*
X152380952Y-90835771D01*
X152380952Y-90835771D02*
X152285714Y-90883390D01*
X152285714Y-90883390D02*
X152238095Y-90931009D01*
X152238095Y-90931009D02*
X152190476Y-91026247D01*
X152190476Y-91026247D02*
X152190476Y-91264342D01*
X152190476Y-91264342D02*
X152238095Y-91359580D01*
X152238095Y-91359580D02*
X152285714Y-91407200D01*
X152285714Y-91407200D02*
X152380952Y-91454819D01*
X152380952Y-91454819D02*
X152619047Y-91454819D01*
X152619047Y-91454819D02*
X152714285Y-91407200D01*
X152714285Y-91407200D02*
X152761904Y-91359580D01*
X151619047Y-90883390D02*
X151714285Y-90835771D01*
X151714285Y-90835771D02*
X151761904Y-90788152D01*
X151761904Y-90788152D02*
X151809523Y-90692914D01*
X151809523Y-90692914D02*
X151809523Y-90645295D01*
X151809523Y-90645295D02*
X151761904Y-90550057D01*
X151761904Y-90550057D02*
X151714285Y-90502438D01*
X151714285Y-90502438D02*
X151619047Y-90454819D01*
X151619047Y-90454819D02*
X151428571Y-90454819D01*
X151428571Y-90454819D02*
X151333333Y-90502438D01*
X151333333Y-90502438D02*
X151285714Y-90550057D01*
X151285714Y-90550057D02*
X151238095Y-90645295D01*
X151238095Y-90645295D02*
X151238095Y-90692914D01*
X151238095Y-90692914D02*
X151285714Y-90788152D01*
X151285714Y-90788152D02*
X151333333Y-90835771D01*
X151333333Y-90835771D02*
X151428571Y-90883390D01*
X151428571Y-90883390D02*
X151619047Y-90883390D01*
X151619047Y-90883390D02*
X151714285Y-90931009D01*
X151714285Y-90931009D02*
X151761904Y-90978628D01*
X151761904Y-90978628D02*
X151809523Y-91073866D01*
X151809523Y-91073866D02*
X151809523Y-91264342D01*
X151809523Y-91264342D02*
X151761904Y-91359580D01*
X151761904Y-91359580D02*
X151714285Y-91407200D01*
X151714285Y-91407200D02*
X151619047Y-91454819D01*
X151619047Y-91454819D02*
X151428571Y-91454819D01*
X151428571Y-91454819D02*
X151333333Y-91407200D01*
X151333333Y-91407200D02*
X151285714Y-91359580D01*
X151285714Y-91359580D02*
X151238095Y-91264342D01*
X151238095Y-91264342D02*
X151238095Y-91073866D01*
X151238095Y-91073866D02*
X151285714Y-90978628D01*
X151285714Y-90978628D02*
X151333333Y-90931009D01*
X151333333Y-90931009D02*
X151428571Y-90883390D01*
X96142857Y-107204819D02*
X96476190Y-106728628D01*
X96714285Y-107204819D02*
X96714285Y-106204819D01*
X96714285Y-106204819D02*
X96333333Y-106204819D01*
X96333333Y-106204819D02*
X96238095Y-106252438D01*
X96238095Y-106252438D02*
X96190476Y-106300057D01*
X96190476Y-106300057D02*
X96142857Y-106395295D01*
X96142857Y-106395295D02*
X96142857Y-106538152D01*
X96142857Y-106538152D02*
X96190476Y-106633390D01*
X96190476Y-106633390D02*
X96238095Y-106681009D01*
X96238095Y-106681009D02*
X96333333Y-106728628D01*
X96333333Y-106728628D02*
X96714285Y-106728628D01*
X95761904Y-106300057D02*
X95714285Y-106252438D01*
X95714285Y-106252438D02*
X95619047Y-106204819D01*
X95619047Y-106204819D02*
X95380952Y-106204819D01*
X95380952Y-106204819D02*
X95285714Y-106252438D01*
X95285714Y-106252438D02*
X95238095Y-106300057D01*
X95238095Y-106300057D02*
X95190476Y-106395295D01*
X95190476Y-106395295D02*
X95190476Y-106490533D01*
X95190476Y-106490533D02*
X95238095Y-106633390D01*
X95238095Y-106633390D02*
X95809523Y-107204819D01*
X95809523Y-107204819D02*
X95190476Y-107204819D01*
X94857142Y-106204819D02*
X94190476Y-106204819D01*
X94190476Y-106204819D02*
X94619047Y-107204819D01*
X143168740Y-113454819D02*
X143502073Y-112978628D01*
X143740168Y-113454819D02*
X143740168Y-112454819D01*
X143740168Y-112454819D02*
X143359216Y-112454819D01*
X143359216Y-112454819D02*
X143263978Y-112502438D01*
X143263978Y-112502438D02*
X143216359Y-112550057D01*
X143216359Y-112550057D02*
X143168740Y-112645295D01*
X143168740Y-112645295D02*
X143168740Y-112788152D01*
X143168740Y-112788152D02*
X143216359Y-112883390D01*
X143216359Y-112883390D02*
X143263978Y-112931009D01*
X143263978Y-112931009D02*
X143359216Y-112978628D01*
X143359216Y-112978628D02*
X143740168Y-112978628D01*
X142835406Y-112454819D02*
X142216359Y-112454819D01*
X142216359Y-112454819D02*
X142549692Y-112835771D01*
X142549692Y-112835771D02*
X142406835Y-112835771D01*
X142406835Y-112835771D02*
X142311597Y-112883390D01*
X142311597Y-112883390D02*
X142263978Y-112931009D01*
X142263978Y-112931009D02*
X142216359Y-113026247D01*
X142216359Y-113026247D02*
X142216359Y-113264342D01*
X142216359Y-113264342D02*
X142263978Y-113359580D01*
X142263978Y-113359580D02*
X142311597Y-113407200D01*
X142311597Y-113407200D02*
X142406835Y-113454819D01*
X142406835Y-113454819D02*
X142692549Y-113454819D01*
X142692549Y-113454819D02*
X142787787Y-113407200D01*
X142787787Y-113407200D02*
X142835406Y-113359580D01*
X141883025Y-112454819D02*
X141216359Y-112454819D01*
X141216359Y-112454819D02*
X141644930Y-113454819D01*
X121142857Y-91454819D02*
X121476190Y-90978628D01*
X121714285Y-91454819D02*
X121714285Y-90454819D01*
X121714285Y-90454819D02*
X121333333Y-90454819D01*
X121333333Y-90454819D02*
X121238095Y-90502438D01*
X121238095Y-90502438D02*
X121190476Y-90550057D01*
X121190476Y-90550057D02*
X121142857Y-90645295D01*
X121142857Y-90645295D02*
X121142857Y-90788152D01*
X121142857Y-90788152D02*
X121190476Y-90883390D01*
X121190476Y-90883390D02*
X121238095Y-90931009D01*
X121238095Y-90931009D02*
X121333333Y-90978628D01*
X121333333Y-90978628D02*
X121714285Y-90978628D01*
X120285714Y-90454819D02*
X120476190Y-90454819D01*
X120476190Y-90454819D02*
X120571428Y-90502438D01*
X120571428Y-90502438D02*
X120619047Y-90550057D01*
X120619047Y-90550057D02*
X120714285Y-90692914D01*
X120714285Y-90692914D02*
X120761904Y-90883390D01*
X120761904Y-90883390D02*
X120761904Y-91264342D01*
X120761904Y-91264342D02*
X120714285Y-91359580D01*
X120714285Y-91359580D02*
X120666666Y-91407200D01*
X120666666Y-91407200D02*
X120571428Y-91454819D01*
X120571428Y-91454819D02*
X120380952Y-91454819D01*
X120380952Y-91454819D02*
X120285714Y-91407200D01*
X120285714Y-91407200D02*
X120238095Y-91359580D01*
X120238095Y-91359580D02*
X120190476Y-91264342D01*
X120190476Y-91264342D02*
X120190476Y-91026247D01*
X120190476Y-91026247D02*
X120238095Y-90931009D01*
X120238095Y-90931009D02*
X120285714Y-90883390D01*
X120285714Y-90883390D02*
X120380952Y-90835771D01*
X120380952Y-90835771D02*
X120571428Y-90835771D01*
X120571428Y-90835771D02*
X120666666Y-90883390D01*
X120666666Y-90883390D02*
X120714285Y-90931009D01*
X120714285Y-90931009D02*
X120761904Y-91026247D01*
X119333333Y-90454819D02*
X119523809Y-90454819D01*
X119523809Y-90454819D02*
X119619047Y-90502438D01*
X119619047Y-90502438D02*
X119666666Y-90550057D01*
X119666666Y-90550057D02*
X119761904Y-90692914D01*
X119761904Y-90692914D02*
X119809523Y-90883390D01*
X119809523Y-90883390D02*
X119809523Y-91264342D01*
X119809523Y-91264342D02*
X119761904Y-91359580D01*
X119761904Y-91359580D02*
X119714285Y-91407200D01*
X119714285Y-91407200D02*
X119619047Y-91454819D01*
X119619047Y-91454819D02*
X119428571Y-91454819D01*
X119428571Y-91454819D02*
X119333333Y-91407200D01*
X119333333Y-91407200D02*
X119285714Y-91359580D01*
X119285714Y-91359580D02*
X119238095Y-91264342D01*
X119238095Y-91264342D02*
X119238095Y-91026247D01*
X119238095Y-91026247D02*
X119285714Y-90931009D01*
X119285714Y-90931009D02*
X119333333Y-90883390D01*
X119333333Y-90883390D02*
X119428571Y-90835771D01*
X119428571Y-90835771D02*
X119619047Y-90835771D01*
X119619047Y-90835771D02*
X119714285Y-90883390D01*
X119714285Y-90883390D02*
X119761904Y-90931009D01*
X119761904Y-90931009D02*
X119809523Y-91026247D01*
X127892857Y-126109580D02*
X127940476Y-126157200D01*
X127940476Y-126157200D02*
X128083333Y-126204819D01*
X128083333Y-126204819D02*
X128178571Y-126204819D01*
X128178571Y-126204819D02*
X128321428Y-126157200D01*
X128321428Y-126157200D02*
X128416666Y-126061961D01*
X128416666Y-126061961D02*
X128464285Y-125966723D01*
X128464285Y-125966723D02*
X128511904Y-125776247D01*
X128511904Y-125776247D02*
X128511904Y-125633390D01*
X128511904Y-125633390D02*
X128464285Y-125442914D01*
X128464285Y-125442914D02*
X128416666Y-125347676D01*
X128416666Y-125347676D02*
X128321428Y-125252438D01*
X128321428Y-125252438D02*
X128178571Y-125204819D01*
X128178571Y-125204819D02*
X128083333Y-125204819D01*
X128083333Y-125204819D02*
X127940476Y-125252438D01*
X127940476Y-125252438D02*
X127892857Y-125300057D01*
X127511904Y-125300057D02*
X127464285Y-125252438D01*
X127464285Y-125252438D02*
X127369047Y-125204819D01*
X127369047Y-125204819D02*
X127130952Y-125204819D01*
X127130952Y-125204819D02*
X127035714Y-125252438D01*
X127035714Y-125252438D02*
X126988095Y-125300057D01*
X126988095Y-125300057D02*
X126940476Y-125395295D01*
X126940476Y-125395295D02*
X126940476Y-125490533D01*
X126940476Y-125490533D02*
X126988095Y-125633390D01*
X126988095Y-125633390D02*
X127559523Y-126204819D01*
X127559523Y-126204819D02*
X126940476Y-126204819D01*
X126369047Y-125633390D02*
X126464285Y-125585771D01*
X126464285Y-125585771D02*
X126511904Y-125538152D01*
X126511904Y-125538152D02*
X126559523Y-125442914D01*
X126559523Y-125442914D02*
X126559523Y-125395295D01*
X126559523Y-125395295D02*
X126511904Y-125300057D01*
X126511904Y-125300057D02*
X126464285Y-125252438D01*
X126464285Y-125252438D02*
X126369047Y-125204819D01*
X126369047Y-125204819D02*
X126178571Y-125204819D01*
X126178571Y-125204819D02*
X126083333Y-125252438D01*
X126083333Y-125252438D02*
X126035714Y-125300057D01*
X126035714Y-125300057D02*
X125988095Y-125395295D01*
X125988095Y-125395295D02*
X125988095Y-125442914D01*
X125988095Y-125442914D02*
X126035714Y-125538152D01*
X126035714Y-125538152D02*
X126083333Y-125585771D01*
X126083333Y-125585771D02*
X126178571Y-125633390D01*
X126178571Y-125633390D02*
X126369047Y-125633390D01*
X126369047Y-125633390D02*
X126464285Y-125681009D01*
X126464285Y-125681009D02*
X126511904Y-125728628D01*
X126511904Y-125728628D02*
X126559523Y-125823866D01*
X126559523Y-125823866D02*
X126559523Y-126014342D01*
X126559523Y-126014342D02*
X126511904Y-126109580D01*
X126511904Y-126109580D02*
X126464285Y-126157200D01*
X126464285Y-126157200D02*
X126369047Y-126204819D01*
X126369047Y-126204819D02*
X126178571Y-126204819D01*
X126178571Y-126204819D02*
X126083333Y-126157200D01*
X126083333Y-126157200D02*
X126035714Y-126109580D01*
X126035714Y-126109580D02*
X125988095Y-126014342D01*
X125988095Y-126014342D02*
X125988095Y-125823866D01*
X125988095Y-125823866D02*
X126035714Y-125728628D01*
X126035714Y-125728628D02*
X126083333Y-125681009D01*
X126083333Y-125681009D02*
X126178571Y-125633390D01*
X158091792Y-78369819D02*
X158425125Y-77893628D01*
X158663220Y-78369819D02*
X158663220Y-77369819D01*
X158663220Y-77369819D02*
X158282268Y-77369819D01*
X158282268Y-77369819D02*
X158187030Y-77417438D01*
X158187030Y-77417438D02*
X158139411Y-77465057D01*
X158139411Y-77465057D02*
X158091792Y-77560295D01*
X158091792Y-77560295D02*
X158091792Y-77703152D01*
X158091792Y-77703152D02*
X158139411Y-77798390D01*
X158139411Y-77798390D02*
X158187030Y-77846009D01*
X158187030Y-77846009D02*
X158282268Y-77893628D01*
X158282268Y-77893628D02*
X158663220Y-77893628D01*
X157139411Y-78369819D02*
X157710839Y-78369819D01*
X157425125Y-78369819D02*
X157425125Y-77369819D01*
X157425125Y-77369819D02*
X157520363Y-77512676D01*
X157520363Y-77512676D02*
X157615601Y-77607914D01*
X157615601Y-77607914D02*
X157710839Y-77655533D01*
X156806077Y-77369819D02*
X156139411Y-77369819D01*
X156139411Y-77369819D02*
X156567982Y-78369819D01*
X136392857Y-123954819D02*
X136726190Y-123478628D01*
X136964285Y-123954819D02*
X136964285Y-122954819D01*
X136964285Y-122954819D02*
X136583333Y-122954819D01*
X136583333Y-122954819D02*
X136488095Y-123002438D01*
X136488095Y-123002438D02*
X136440476Y-123050057D01*
X136440476Y-123050057D02*
X136392857Y-123145295D01*
X136392857Y-123145295D02*
X136392857Y-123288152D01*
X136392857Y-123288152D02*
X136440476Y-123383390D01*
X136440476Y-123383390D02*
X136488095Y-123431009D01*
X136488095Y-123431009D02*
X136583333Y-123478628D01*
X136583333Y-123478628D02*
X136964285Y-123478628D01*
X136059523Y-122954819D02*
X135440476Y-122954819D01*
X135440476Y-122954819D02*
X135773809Y-123335771D01*
X135773809Y-123335771D02*
X135630952Y-123335771D01*
X135630952Y-123335771D02*
X135535714Y-123383390D01*
X135535714Y-123383390D02*
X135488095Y-123431009D01*
X135488095Y-123431009D02*
X135440476Y-123526247D01*
X135440476Y-123526247D02*
X135440476Y-123764342D01*
X135440476Y-123764342D02*
X135488095Y-123859580D01*
X135488095Y-123859580D02*
X135535714Y-123907200D01*
X135535714Y-123907200D02*
X135630952Y-123954819D01*
X135630952Y-123954819D02*
X135916666Y-123954819D01*
X135916666Y-123954819D02*
X136011904Y-123907200D01*
X136011904Y-123907200D02*
X136059523Y-123859580D01*
X134488095Y-123954819D02*
X135059523Y-123954819D01*
X134773809Y-123954819D02*
X134773809Y-122954819D01*
X134773809Y-122954819D02*
X134869047Y-123097676D01*
X134869047Y-123097676D02*
X134964285Y-123192914D01*
X134964285Y-123192914D02*
X135059523Y-123240533D01*
X155070309Y-73869819D02*
X155403642Y-73393628D01*
X155641737Y-73869819D02*
X155641737Y-72869819D01*
X155641737Y-72869819D02*
X155260785Y-72869819D01*
X155260785Y-72869819D02*
X155165547Y-72917438D01*
X155165547Y-72917438D02*
X155117928Y-72965057D01*
X155117928Y-72965057D02*
X155070309Y-73060295D01*
X155070309Y-73060295D02*
X155070309Y-73203152D01*
X155070309Y-73203152D02*
X155117928Y-73298390D01*
X155117928Y-73298390D02*
X155165547Y-73346009D01*
X155165547Y-73346009D02*
X155260785Y-73393628D01*
X155260785Y-73393628D02*
X155641737Y-73393628D01*
X154117928Y-73869819D02*
X154689356Y-73869819D01*
X154403642Y-73869819D02*
X154403642Y-72869819D01*
X154403642Y-72869819D02*
X154498880Y-73012676D01*
X154498880Y-73012676D02*
X154594118Y-73107914D01*
X154594118Y-73107914D02*
X154689356Y-73155533D01*
X153498880Y-72869819D02*
X153403642Y-72869819D01*
X153403642Y-72869819D02*
X153308404Y-72917438D01*
X153308404Y-72917438D02*
X153260785Y-72965057D01*
X153260785Y-72965057D02*
X153213166Y-73060295D01*
X153213166Y-73060295D02*
X153165547Y-73250771D01*
X153165547Y-73250771D02*
X153165547Y-73488866D01*
X153165547Y-73488866D02*
X153213166Y-73679342D01*
X153213166Y-73679342D02*
X153260785Y-73774580D01*
X153260785Y-73774580D02*
X153308404Y-73822200D01*
X153308404Y-73822200D02*
X153403642Y-73869819D01*
X153403642Y-73869819D02*
X153498880Y-73869819D01*
X153498880Y-73869819D02*
X153594118Y-73822200D01*
X153594118Y-73822200D02*
X153641737Y-73774580D01*
X153641737Y-73774580D02*
X153689356Y-73679342D01*
X153689356Y-73679342D02*
X153736975Y-73488866D01*
X153736975Y-73488866D02*
X153736975Y-73250771D01*
X153736975Y-73250771D02*
X153689356Y-73060295D01*
X153689356Y-73060295D02*
X153641737Y-72965057D01*
X153641737Y-72965057D02*
X153594118Y-72917438D01*
X153594118Y-72917438D02*
X153498880Y-72869819D01*
X156142857Y-91454819D02*
X156476190Y-90978628D01*
X156714285Y-91454819D02*
X156714285Y-90454819D01*
X156714285Y-90454819D02*
X156333333Y-90454819D01*
X156333333Y-90454819D02*
X156238095Y-90502438D01*
X156238095Y-90502438D02*
X156190476Y-90550057D01*
X156190476Y-90550057D02*
X156142857Y-90645295D01*
X156142857Y-90645295D02*
X156142857Y-90788152D01*
X156142857Y-90788152D02*
X156190476Y-90883390D01*
X156190476Y-90883390D02*
X156238095Y-90931009D01*
X156238095Y-90931009D02*
X156333333Y-90978628D01*
X156333333Y-90978628D02*
X156714285Y-90978628D01*
X155285714Y-90454819D02*
X155476190Y-90454819D01*
X155476190Y-90454819D02*
X155571428Y-90502438D01*
X155571428Y-90502438D02*
X155619047Y-90550057D01*
X155619047Y-90550057D02*
X155714285Y-90692914D01*
X155714285Y-90692914D02*
X155761904Y-90883390D01*
X155761904Y-90883390D02*
X155761904Y-91264342D01*
X155761904Y-91264342D02*
X155714285Y-91359580D01*
X155714285Y-91359580D02*
X155666666Y-91407200D01*
X155666666Y-91407200D02*
X155571428Y-91454819D01*
X155571428Y-91454819D02*
X155380952Y-91454819D01*
X155380952Y-91454819D02*
X155285714Y-91407200D01*
X155285714Y-91407200D02*
X155238095Y-91359580D01*
X155238095Y-91359580D02*
X155190476Y-91264342D01*
X155190476Y-91264342D02*
X155190476Y-91026247D01*
X155190476Y-91026247D02*
X155238095Y-90931009D01*
X155238095Y-90931009D02*
X155285714Y-90883390D01*
X155285714Y-90883390D02*
X155380952Y-90835771D01*
X155380952Y-90835771D02*
X155571428Y-90835771D01*
X155571428Y-90835771D02*
X155666666Y-90883390D01*
X155666666Y-90883390D02*
X155714285Y-90931009D01*
X155714285Y-90931009D02*
X155761904Y-91026247D01*
X154571428Y-90454819D02*
X154476190Y-90454819D01*
X154476190Y-90454819D02*
X154380952Y-90502438D01*
X154380952Y-90502438D02*
X154333333Y-90550057D01*
X154333333Y-90550057D02*
X154285714Y-90645295D01*
X154285714Y-90645295D02*
X154238095Y-90835771D01*
X154238095Y-90835771D02*
X154238095Y-91073866D01*
X154238095Y-91073866D02*
X154285714Y-91264342D01*
X154285714Y-91264342D02*
X154333333Y-91359580D01*
X154333333Y-91359580D02*
X154380952Y-91407200D01*
X154380952Y-91407200D02*
X154476190Y-91454819D01*
X154476190Y-91454819D02*
X154571428Y-91454819D01*
X154571428Y-91454819D02*
X154666666Y-91407200D01*
X154666666Y-91407200D02*
X154714285Y-91359580D01*
X154714285Y-91359580D02*
X154761904Y-91264342D01*
X154761904Y-91264342D02*
X154809523Y-91073866D01*
X154809523Y-91073866D02*
X154809523Y-90835771D01*
X154809523Y-90835771D02*
X154761904Y-90645295D01*
X154761904Y-90645295D02*
X154714285Y-90550057D01*
X154714285Y-90550057D02*
X154666666Y-90502438D01*
X154666666Y-90502438D02*
X154571428Y-90454819D01*
X135496554Y-78465057D02*
X135591792Y-78417438D01*
X135591792Y-78417438D02*
X135687030Y-78322200D01*
X135687030Y-78322200D02*
X135829887Y-78179342D01*
X135829887Y-78179342D02*
X135925125Y-78131723D01*
X135925125Y-78131723D02*
X136020363Y-78131723D01*
X135972744Y-78369819D02*
X136067982Y-78322200D01*
X136067982Y-78322200D02*
X136163220Y-78226961D01*
X136163220Y-78226961D02*
X136210839Y-78036485D01*
X136210839Y-78036485D02*
X136210839Y-77703152D01*
X136210839Y-77703152D02*
X136163220Y-77512676D01*
X136163220Y-77512676D02*
X136067982Y-77417438D01*
X136067982Y-77417438D02*
X135972744Y-77369819D01*
X135972744Y-77369819D02*
X135782268Y-77369819D01*
X135782268Y-77369819D02*
X135687030Y-77417438D01*
X135687030Y-77417438D02*
X135591792Y-77512676D01*
X135591792Y-77512676D02*
X135544173Y-77703152D01*
X135544173Y-77703152D02*
X135544173Y-78036485D01*
X135544173Y-78036485D02*
X135591792Y-78226961D01*
X135591792Y-78226961D02*
X135687030Y-78322200D01*
X135687030Y-78322200D02*
X135782268Y-78369819D01*
X135782268Y-78369819D02*
X135972744Y-78369819D01*
X134687030Y-77369819D02*
X134877506Y-77369819D01*
X134877506Y-77369819D02*
X134972744Y-77417438D01*
X134972744Y-77417438D02*
X135020363Y-77465057D01*
X135020363Y-77465057D02*
X135115601Y-77607914D01*
X135115601Y-77607914D02*
X135163220Y-77798390D01*
X135163220Y-77798390D02*
X135163220Y-78179342D01*
X135163220Y-78179342D02*
X135115601Y-78274580D01*
X135115601Y-78274580D02*
X135067982Y-78322200D01*
X135067982Y-78322200D02*
X134972744Y-78369819D01*
X134972744Y-78369819D02*
X134782268Y-78369819D01*
X134782268Y-78369819D02*
X134687030Y-78322200D01*
X134687030Y-78322200D02*
X134639411Y-78274580D01*
X134639411Y-78274580D02*
X134591792Y-78179342D01*
X134591792Y-78179342D02*
X134591792Y-77941247D01*
X134591792Y-77941247D02*
X134639411Y-77846009D01*
X134639411Y-77846009D02*
X134687030Y-77798390D01*
X134687030Y-77798390D02*
X134782268Y-77750771D01*
X134782268Y-77750771D02*
X134972744Y-77750771D01*
X134972744Y-77750771D02*
X135067982Y-77798390D01*
X135067982Y-77798390D02*
X135115601Y-77846009D01*
X135115601Y-77846009D02*
X135163220Y-77941247D01*
X143168740Y-101454819D02*
X143502073Y-100978628D01*
X143740168Y-101454819D02*
X143740168Y-100454819D01*
X143740168Y-100454819D02*
X143359216Y-100454819D01*
X143359216Y-100454819D02*
X143263978Y-100502438D01*
X143263978Y-100502438D02*
X143216359Y-100550057D01*
X143216359Y-100550057D02*
X143168740Y-100645295D01*
X143168740Y-100645295D02*
X143168740Y-100788152D01*
X143168740Y-100788152D02*
X143216359Y-100883390D01*
X143216359Y-100883390D02*
X143263978Y-100931009D01*
X143263978Y-100931009D02*
X143359216Y-100978628D01*
X143359216Y-100978628D02*
X143740168Y-100978628D01*
X142835406Y-100454819D02*
X142216359Y-100454819D01*
X142216359Y-100454819D02*
X142549692Y-100835771D01*
X142549692Y-100835771D02*
X142406835Y-100835771D01*
X142406835Y-100835771D02*
X142311597Y-100883390D01*
X142311597Y-100883390D02*
X142263978Y-100931009D01*
X142263978Y-100931009D02*
X142216359Y-101026247D01*
X142216359Y-101026247D02*
X142216359Y-101264342D01*
X142216359Y-101264342D02*
X142263978Y-101359580D01*
X142263978Y-101359580D02*
X142311597Y-101407200D01*
X142311597Y-101407200D02*
X142406835Y-101454819D01*
X142406835Y-101454819D02*
X142692549Y-101454819D01*
X142692549Y-101454819D02*
X142787787Y-101407200D01*
X142787787Y-101407200D02*
X142835406Y-101359580D01*
X141644930Y-100883390D02*
X141740168Y-100835771D01*
X141740168Y-100835771D02*
X141787787Y-100788152D01*
X141787787Y-100788152D02*
X141835406Y-100692914D01*
X141835406Y-100692914D02*
X141835406Y-100645295D01*
X141835406Y-100645295D02*
X141787787Y-100550057D01*
X141787787Y-100550057D02*
X141740168Y-100502438D01*
X141740168Y-100502438D02*
X141644930Y-100454819D01*
X141644930Y-100454819D02*
X141454454Y-100454819D01*
X141454454Y-100454819D02*
X141359216Y-100502438D01*
X141359216Y-100502438D02*
X141311597Y-100550057D01*
X141311597Y-100550057D02*
X141263978Y-100645295D01*
X141263978Y-100645295D02*
X141263978Y-100692914D01*
X141263978Y-100692914D02*
X141311597Y-100788152D01*
X141311597Y-100788152D02*
X141359216Y-100835771D01*
X141359216Y-100835771D02*
X141454454Y-100883390D01*
X141454454Y-100883390D02*
X141644930Y-100883390D01*
X141644930Y-100883390D02*
X141740168Y-100931009D01*
X141740168Y-100931009D02*
X141787787Y-100978628D01*
X141787787Y-100978628D02*
X141835406Y-101073866D01*
X141835406Y-101073866D02*
X141835406Y-101264342D01*
X141835406Y-101264342D02*
X141787787Y-101359580D01*
X141787787Y-101359580D02*
X141740168Y-101407200D01*
X141740168Y-101407200D02*
X141644930Y-101454819D01*
X141644930Y-101454819D02*
X141454454Y-101454819D01*
X141454454Y-101454819D02*
X141359216Y-101407200D01*
X141359216Y-101407200D02*
X141311597Y-101359580D01*
X141311597Y-101359580D02*
X141263978Y-101264342D01*
X141263978Y-101264342D02*
X141263978Y-101073866D01*
X141263978Y-101073866D02*
X141311597Y-100978628D01*
X141311597Y-100978628D02*
X141359216Y-100931009D01*
X141359216Y-100931009D02*
X141454454Y-100883390D01*
X184892857Y-129609580D02*
X184940476Y-129657200D01*
X184940476Y-129657200D02*
X185083333Y-129704819D01*
X185083333Y-129704819D02*
X185178571Y-129704819D01*
X185178571Y-129704819D02*
X185321428Y-129657200D01*
X185321428Y-129657200D02*
X185416666Y-129561961D01*
X185416666Y-129561961D02*
X185464285Y-129466723D01*
X185464285Y-129466723D02*
X185511904Y-129276247D01*
X185511904Y-129276247D02*
X185511904Y-129133390D01*
X185511904Y-129133390D02*
X185464285Y-128942914D01*
X185464285Y-128942914D02*
X185416666Y-128847676D01*
X185416666Y-128847676D02*
X185321428Y-128752438D01*
X185321428Y-128752438D02*
X185178571Y-128704819D01*
X185178571Y-128704819D02*
X185083333Y-128704819D01*
X185083333Y-128704819D02*
X184940476Y-128752438D01*
X184940476Y-128752438D02*
X184892857Y-128800057D01*
X184559523Y-128704819D02*
X183940476Y-128704819D01*
X183940476Y-128704819D02*
X184273809Y-129085771D01*
X184273809Y-129085771D02*
X184130952Y-129085771D01*
X184130952Y-129085771D02*
X184035714Y-129133390D01*
X184035714Y-129133390D02*
X183988095Y-129181009D01*
X183988095Y-129181009D02*
X183940476Y-129276247D01*
X183940476Y-129276247D02*
X183940476Y-129514342D01*
X183940476Y-129514342D02*
X183988095Y-129609580D01*
X183988095Y-129609580D02*
X184035714Y-129657200D01*
X184035714Y-129657200D02*
X184130952Y-129704819D01*
X184130952Y-129704819D02*
X184416666Y-129704819D01*
X184416666Y-129704819D02*
X184511904Y-129657200D01*
X184511904Y-129657200D02*
X184559523Y-129609580D01*
X183607142Y-128704819D02*
X182988095Y-128704819D01*
X182988095Y-128704819D02*
X183321428Y-129085771D01*
X183321428Y-129085771D02*
X183178571Y-129085771D01*
X183178571Y-129085771D02*
X183083333Y-129133390D01*
X183083333Y-129133390D02*
X183035714Y-129181009D01*
X183035714Y-129181009D02*
X182988095Y-129276247D01*
X182988095Y-129276247D02*
X182988095Y-129514342D01*
X182988095Y-129514342D02*
X183035714Y-129609580D01*
X183035714Y-129609580D02*
X183083333Y-129657200D01*
X183083333Y-129657200D02*
X183178571Y-129704819D01*
X183178571Y-129704819D02*
X183464285Y-129704819D01*
X183464285Y-129704819D02*
X183559523Y-129657200D01*
X183559523Y-129657200D02*
X183607142Y-129609580D01*
X135496554Y-79965057D02*
X135591792Y-79917438D01*
X135591792Y-79917438D02*
X135687030Y-79822200D01*
X135687030Y-79822200D02*
X135829887Y-79679342D01*
X135829887Y-79679342D02*
X135925125Y-79631723D01*
X135925125Y-79631723D02*
X136020363Y-79631723D01*
X135972744Y-79869819D02*
X136067982Y-79822200D01*
X136067982Y-79822200D02*
X136163220Y-79726961D01*
X136163220Y-79726961D02*
X136210839Y-79536485D01*
X136210839Y-79536485D02*
X136210839Y-79203152D01*
X136210839Y-79203152D02*
X136163220Y-79012676D01*
X136163220Y-79012676D02*
X136067982Y-78917438D01*
X136067982Y-78917438D02*
X135972744Y-78869819D01*
X135972744Y-78869819D02*
X135782268Y-78869819D01*
X135782268Y-78869819D02*
X135687030Y-78917438D01*
X135687030Y-78917438D02*
X135591792Y-79012676D01*
X135591792Y-79012676D02*
X135544173Y-79203152D01*
X135544173Y-79203152D02*
X135544173Y-79536485D01*
X135544173Y-79536485D02*
X135591792Y-79726961D01*
X135591792Y-79726961D02*
X135687030Y-79822200D01*
X135687030Y-79822200D02*
X135782268Y-79869819D01*
X135782268Y-79869819D02*
X135972744Y-79869819D01*
X134972744Y-79298390D02*
X135067982Y-79250771D01*
X135067982Y-79250771D02*
X135115601Y-79203152D01*
X135115601Y-79203152D02*
X135163220Y-79107914D01*
X135163220Y-79107914D02*
X135163220Y-79060295D01*
X135163220Y-79060295D02*
X135115601Y-78965057D01*
X135115601Y-78965057D02*
X135067982Y-78917438D01*
X135067982Y-78917438D02*
X134972744Y-78869819D01*
X134972744Y-78869819D02*
X134782268Y-78869819D01*
X134782268Y-78869819D02*
X134687030Y-78917438D01*
X134687030Y-78917438D02*
X134639411Y-78965057D01*
X134639411Y-78965057D02*
X134591792Y-79060295D01*
X134591792Y-79060295D02*
X134591792Y-79107914D01*
X134591792Y-79107914D02*
X134639411Y-79203152D01*
X134639411Y-79203152D02*
X134687030Y-79250771D01*
X134687030Y-79250771D02*
X134782268Y-79298390D01*
X134782268Y-79298390D02*
X134972744Y-79298390D01*
X134972744Y-79298390D02*
X135067982Y-79346009D01*
X135067982Y-79346009D02*
X135115601Y-79393628D01*
X135115601Y-79393628D02*
X135163220Y-79488866D01*
X135163220Y-79488866D02*
X135163220Y-79679342D01*
X135163220Y-79679342D02*
X135115601Y-79774580D01*
X135115601Y-79774580D02*
X135067982Y-79822200D01*
X135067982Y-79822200D02*
X134972744Y-79869819D01*
X134972744Y-79869819D02*
X134782268Y-79869819D01*
X134782268Y-79869819D02*
X134687030Y-79822200D01*
X134687030Y-79822200D02*
X134639411Y-79774580D01*
X134639411Y-79774580D02*
X134591792Y-79679342D01*
X134591792Y-79679342D02*
X134591792Y-79488866D01*
X134591792Y-79488866D02*
X134639411Y-79393628D01*
X134639411Y-79393628D02*
X134687030Y-79346009D01*
X134687030Y-79346009D02*
X134782268Y-79298390D01*
X136642857Y-91454819D02*
X136976190Y-90978628D01*
X137214285Y-91454819D02*
X137214285Y-90454819D01*
X137214285Y-90454819D02*
X136833333Y-90454819D01*
X136833333Y-90454819D02*
X136738095Y-90502438D01*
X136738095Y-90502438D02*
X136690476Y-90550057D01*
X136690476Y-90550057D02*
X136642857Y-90645295D01*
X136642857Y-90645295D02*
X136642857Y-90788152D01*
X136642857Y-90788152D02*
X136690476Y-90883390D01*
X136690476Y-90883390D02*
X136738095Y-90931009D01*
X136738095Y-90931009D02*
X136833333Y-90978628D01*
X136833333Y-90978628D02*
X137214285Y-90978628D01*
X135785714Y-90454819D02*
X135976190Y-90454819D01*
X135976190Y-90454819D02*
X136071428Y-90502438D01*
X136071428Y-90502438D02*
X136119047Y-90550057D01*
X136119047Y-90550057D02*
X136214285Y-90692914D01*
X136214285Y-90692914D02*
X136261904Y-90883390D01*
X136261904Y-90883390D02*
X136261904Y-91264342D01*
X136261904Y-91264342D02*
X136214285Y-91359580D01*
X136214285Y-91359580D02*
X136166666Y-91407200D01*
X136166666Y-91407200D02*
X136071428Y-91454819D01*
X136071428Y-91454819D02*
X135880952Y-91454819D01*
X135880952Y-91454819D02*
X135785714Y-91407200D01*
X135785714Y-91407200D02*
X135738095Y-91359580D01*
X135738095Y-91359580D02*
X135690476Y-91264342D01*
X135690476Y-91264342D02*
X135690476Y-91026247D01*
X135690476Y-91026247D02*
X135738095Y-90931009D01*
X135738095Y-90931009D02*
X135785714Y-90883390D01*
X135785714Y-90883390D02*
X135880952Y-90835771D01*
X135880952Y-90835771D02*
X136071428Y-90835771D01*
X136071428Y-90835771D02*
X136166666Y-90883390D01*
X136166666Y-90883390D02*
X136214285Y-90931009D01*
X136214285Y-90931009D02*
X136261904Y-91026247D01*
X135309523Y-90550057D02*
X135261904Y-90502438D01*
X135261904Y-90502438D02*
X135166666Y-90454819D01*
X135166666Y-90454819D02*
X134928571Y-90454819D01*
X134928571Y-90454819D02*
X134833333Y-90502438D01*
X134833333Y-90502438D02*
X134785714Y-90550057D01*
X134785714Y-90550057D02*
X134738095Y-90645295D01*
X134738095Y-90645295D02*
X134738095Y-90740533D01*
X134738095Y-90740533D02*
X134785714Y-90883390D01*
X134785714Y-90883390D02*
X135357142Y-91454819D01*
X135357142Y-91454819D02*
X134738095Y-91454819D01*
X143121121Y-103359580D02*
X143168740Y-103407200D01*
X143168740Y-103407200D02*
X143311597Y-103454819D01*
X143311597Y-103454819D02*
X143406835Y-103454819D01*
X143406835Y-103454819D02*
X143549692Y-103407200D01*
X143549692Y-103407200D02*
X143644930Y-103311961D01*
X143644930Y-103311961D02*
X143692549Y-103216723D01*
X143692549Y-103216723D02*
X143740168Y-103026247D01*
X143740168Y-103026247D02*
X143740168Y-102883390D01*
X143740168Y-102883390D02*
X143692549Y-102692914D01*
X143692549Y-102692914D02*
X143644930Y-102597676D01*
X143644930Y-102597676D02*
X143549692Y-102502438D01*
X143549692Y-102502438D02*
X143406835Y-102454819D01*
X143406835Y-102454819D02*
X143311597Y-102454819D01*
X143311597Y-102454819D02*
X143168740Y-102502438D01*
X143168740Y-102502438D02*
X143121121Y-102550057D01*
X142740168Y-103169104D02*
X142263978Y-103169104D01*
X142835406Y-103454819D02*
X142502073Y-102454819D01*
X142502073Y-102454819D02*
X142168740Y-103454819D01*
X141930644Y-102454819D02*
X141311597Y-102454819D01*
X141311597Y-102454819D02*
X141644930Y-102835771D01*
X141644930Y-102835771D02*
X141502073Y-102835771D01*
X141502073Y-102835771D02*
X141406835Y-102883390D01*
X141406835Y-102883390D02*
X141359216Y-102931009D01*
X141359216Y-102931009D02*
X141311597Y-103026247D01*
X141311597Y-103026247D02*
X141311597Y-103264342D01*
X141311597Y-103264342D02*
X141359216Y-103359580D01*
X141359216Y-103359580D02*
X141406835Y-103407200D01*
X141406835Y-103407200D02*
X141502073Y-103454819D01*
X141502073Y-103454819D02*
X141787787Y-103454819D01*
X141787787Y-103454819D02*
X141883025Y-103407200D01*
X141883025Y-103407200D02*
X141930644Y-103359580D01*
X155070309Y-70869819D02*
X155403642Y-70393628D01*
X155641737Y-70869819D02*
X155641737Y-69869819D01*
X155641737Y-69869819D02*
X155260785Y-69869819D01*
X155260785Y-69869819D02*
X155165547Y-69917438D01*
X155165547Y-69917438D02*
X155117928Y-69965057D01*
X155117928Y-69965057D02*
X155070309Y-70060295D01*
X155070309Y-70060295D02*
X155070309Y-70203152D01*
X155070309Y-70203152D02*
X155117928Y-70298390D01*
X155117928Y-70298390D02*
X155165547Y-70346009D01*
X155165547Y-70346009D02*
X155260785Y-70393628D01*
X155260785Y-70393628D02*
X155641737Y-70393628D01*
X154213166Y-69869819D02*
X154403642Y-69869819D01*
X154403642Y-69869819D02*
X154498880Y-69917438D01*
X154498880Y-69917438D02*
X154546499Y-69965057D01*
X154546499Y-69965057D02*
X154641737Y-70107914D01*
X154641737Y-70107914D02*
X154689356Y-70298390D01*
X154689356Y-70298390D02*
X154689356Y-70679342D01*
X154689356Y-70679342D02*
X154641737Y-70774580D01*
X154641737Y-70774580D02*
X154594118Y-70822200D01*
X154594118Y-70822200D02*
X154498880Y-70869819D01*
X154498880Y-70869819D02*
X154308404Y-70869819D01*
X154308404Y-70869819D02*
X154213166Y-70822200D01*
X154213166Y-70822200D02*
X154165547Y-70774580D01*
X154165547Y-70774580D02*
X154117928Y-70679342D01*
X154117928Y-70679342D02*
X154117928Y-70441247D01*
X154117928Y-70441247D02*
X154165547Y-70346009D01*
X154165547Y-70346009D02*
X154213166Y-70298390D01*
X154213166Y-70298390D02*
X154308404Y-70250771D01*
X154308404Y-70250771D02*
X154498880Y-70250771D01*
X154498880Y-70250771D02*
X154594118Y-70298390D01*
X154594118Y-70298390D02*
X154641737Y-70346009D01*
X154641737Y-70346009D02*
X154689356Y-70441247D01*
X163142857Y-129704819D02*
X163476190Y-129228628D01*
X163714285Y-129704819D02*
X163714285Y-128704819D01*
X163714285Y-128704819D02*
X163333333Y-128704819D01*
X163333333Y-128704819D02*
X163238095Y-128752438D01*
X163238095Y-128752438D02*
X163190476Y-128800057D01*
X163190476Y-128800057D02*
X163142857Y-128895295D01*
X163142857Y-128895295D02*
X163142857Y-129038152D01*
X163142857Y-129038152D02*
X163190476Y-129133390D01*
X163190476Y-129133390D02*
X163238095Y-129181009D01*
X163238095Y-129181009D02*
X163333333Y-129228628D01*
X163333333Y-129228628D02*
X163714285Y-129228628D01*
X162761904Y-128800057D02*
X162714285Y-128752438D01*
X162714285Y-128752438D02*
X162619047Y-128704819D01*
X162619047Y-128704819D02*
X162380952Y-128704819D01*
X162380952Y-128704819D02*
X162285714Y-128752438D01*
X162285714Y-128752438D02*
X162238095Y-128800057D01*
X162238095Y-128800057D02*
X162190476Y-128895295D01*
X162190476Y-128895295D02*
X162190476Y-128990533D01*
X162190476Y-128990533D02*
X162238095Y-129133390D01*
X162238095Y-129133390D02*
X162809523Y-129704819D01*
X162809523Y-129704819D02*
X162190476Y-129704819D01*
X161238095Y-129704819D02*
X161809523Y-129704819D01*
X161523809Y-129704819D02*
X161523809Y-128704819D01*
X161523809Y-128704819D02*
X161619047Y-128847676D01*
X161619047Y-128847676D02*
X161714285Y-128942914D01*
X161714285Y-128942914D02*
X161809523Y-128990533D01*
X158091792Y-73869819D02*
X158425125Y-73393628D01*
X158663220Y-73869819D02*
X158663220Y-72869819D01*
X158663220Y-72869819D02*
X158282268Y-72869819D01*
X158282268Y-72869819D02*
X158187030Y-72917438D01*
X158187030Y-72917438D02*
X158139411Y-72965057D01*
X158139411Y-72965057D02*
X158091792Y-73060295D01*
X158091792Y-73060295D02*
X158091792Y-73203152D01*
X158091792Y-73203152D02*
X158139411Y-73298390D01*
X158139411Y-73298390D02*
X158187030Y-73346009D01*
X158187030Y-73346009D02*
X158282268Y-73393628D01*
X158282268Y-73393628D02*
X158663220Y-73393628D01*
X157139411Y-73869819D02*
X157710839Y-73869819D01*
X157425125Y-73869819D02*
X157425125Y-72869819D01*
X157425125Y-72869819D02*
X157520363Y-73012676D01*
X157520363Y-73012676D02*
X157615601Y-73107914D01*
X157615601Y-73107914D02*
X157710839Y-73155533D01*
X156187030Y-73869819D02*
X156758458Y-73869819D01*
X156472744Y-73869819D02*
X156472744Y-72869819D01*
X156472744Y-72869819D02*
X156567982Y-73012676D01*
X156567982Y-73012676D02*
X156663220Y-73107914D01*
X156663220Y-73107914D02*
X156758458Y-73155533D01*
X192666666Y-65109580D02*
X192714285Y-65157200D01*
X192714285Y-65157200D02*
X192857142Y-65204819D01*
X192857142Y-65204819D02*
X192952380Y-65204819D01*
X192952380Y-65204819D02*
X193095237Y-65157200D01*
X193095237Y-65157200D02*
X193190475Y-65061961D01*
X193190475Y-65061961D02*
X193238094Y-64966723D01*
X193238094Y-64966723D02*
X193285713Y-64776247D01*
X193285713Y-64776247D02*
X193285713Y-64633390D01*
X193285713Y-64633390D02*
X193238094Y-64442914D01*
X193238094Y-64442914D02*
X193190475Y-64347676D01*
X193190475Y-64347676D02*
X193095237Y-64252438D01*
X193095237Y-64252438D02*
X192952380Y-64204819D01*
X192952380Y-64204819D02*
X192857142Y-64204819D01*
X192857142Y-64204819D02*
X192714285Y-64252438D01*
X192714285Y-64252438D02*
X192666666Y-64300057D01*
X191761904Y-64204819D02*
X192238094Y-64204819D01*
X192238094Y-64204819D02*
X192285713Y-64681009D01*
X192285713Y-64681009D02*
X192238094Y-64633390D01*
X192238094Y-64633390D02*
X192142856Y-64585771D01*
X192142856Y-64585771D02*
X191904761Y-64585771D01*
X191904761Y-64585771D02*
X191809523Y-64633390D01*
X191809523Y-64633390D02*
X191761904Y-64681009D01*
X191761904Y-64681009D02*
X191714285Y-64776247D01*
X191714285Y-64776247D02*
X191714285Y-65014342D01*
X191714285Y-65014342D02*
X191761904Y-65109580D01*
X191761904Y-65109580D02*
X191809523Y-65157200D01*
X191809523Y-65157200D02*
X191904761Y-65204819D01*
X191904761Y-65204819D02*
X192142856Y-65204819D01*
X192142856Y-65204819D02*
X192238094Y-65157200D01*
X192238094Y-65157200D02*
X192285713Y-65109580D01*
X170416666Y-116704819D02*
X170749999Y-116228628D01*
X170988094Y-116704819D02*
X170988094Y-115704819D01*
X170988094Y-115704819D02*
X170607142Y-115704819D01*
X170607142Y-115704819D02*
X170511904Y-115752438D01*
X170511904Y-115752438D02*
X170464285Y-115800057D01*
X170464285Y-115800057D02*
X170416666Y-115895295D01*
X170416666Y-115895295D02*
X170416666Y-116038152D01*
X170416666Y-116038152D02*
X170464285Y-116133390D01*
X170464285Y-116133390D02*
X170511904Y-116181009D01*
X170511904Y-116181009D02*
X170607142Y-116228628D01*
X170607142Y-116228628D02*
X170988094Y-116228628D01*
X170035713Y-115800057D02*
X169988094Y-115752438D01*
X169988094Y-115752438D02*
X169892856Y-115704819D01*
X169892856Y-115704819D02*
X169654761Y-115704819D01*
X169654761Y-115704819D02*
X169559523Y-115752438D01*
X169559523Y-115752438D02*
X169511904Y-115800057D01*
X169511904Y-115800057D02*
X169464285Y-115895295D01*
X169464285Y-115895295D02*
X169464285Y-115990533D01*
X169464285Y-115990533D02*
X169511904Y-116133390D01*
X169511904Y-116133390D02*
X170083332Y-116704819D01*
X170083332Y-116704819D02*
X169464285Y-116704819D01*
X160892857Y-123954819D02*
X161226190Y-123478628D01*
X161464285Y-123954819D02*
X161464285Y-122954819D01*
X161464285Y-122954819D02*
X161083333Y-122954819D01*
X161083333Y-122954819D02*
X160988095Y-123002438D01*
X160988095Y-123002438D02*
X160940476Y-123050057D01*
X160940476Y-123050057D02*
X160892857Y-123145295D01*
X160892857Y-123145295D02*
X160892857Y-123288152D01*
X160892857Y-123288152D02*
X160940476Y-123383390D01*
X160940476Y-123383390D02*
X160988095Y-123431009D01*
X160988095Y-123431009D02*
X161083333Y-123478628D01*
X161083333Y-123478628D02*
X161464285Y-123478628D01*
X160511904Y-123050057D02*
X160464285Y-123002438D01*
X160464285Y-123002438D02*
X160369047Y-122954819D01*
X160369047Y-122954819D02*
X160130952Y-122954819D01*
X160130952Y-122954819D02*
X160035714Y-123002438D01*
X160035714Y-123002438D02*
X159988095Y-123050057D01*
X159988095Y-123050057D02*
X159940476Y-123145295D01*
X159940476Y-123145295D02*
X159940476Y-123240533D01*
X159940476Y-123240533D02*
X159988095Y-123383390D01*
X159988095Y-123383390D02*
X160559523Y-123954819D01*
X160559523Y-123954819D02*
X159940476Y-123954819D01*
X159559523Y-123050057D02*
X159511904Y-123002438D01*
X159511904Y-123002438D02*
X159416666Y-122954819D01*
X159416666Y-122954819D02*
X159178571Y-122954819D01*
X159178571Y-122954819D02*
X159083333Y-123002438D01*
X159083333Y-123002438D02*
X159035714Y-123050057D01*
X159035714Y-123050057D02*
X158988095Y-123145295D01*
X158988095Y-123145295D02*
X158988095Y-123240533D01*
X158988095Y-123240533D02*
X159035714Y-123383390D01*
X159035714Y-123383390D02*
X159607142Y-123954819D01*
X159607142Y-123954819D02*
X158988095Y-123954819D01*
X192142857Y-126704819D02*
X192476190Y-126228628D01*
X192714285Y-126704819D02*
X192714285Y-125704819D01*
X192714285Y-125704819D02*
X192333333Y-125704819D01*
X192333333Y-125704819D02*
X192238095Y-125752438D01*
X192238095Y-125752438D02*
X192190476Y-125800057D01*
X192190476Y-125800057D02*
X192142857Y-125895295D01*
X192142857Y-125895295D02*
X192142857Y-126038152D01*
X192142857Y-126038152D02*
X192190476Y-126133390D01*
X192190476Y-126133390D02*
X192238095Y-126181009D01*
X192238095Y-126181009D02*
X192333333Y-126228628D01*
X192333333Y-126228628D02*
X192714285Y-126228628D01*
X191809523Y-125704819D02*
X191142857Y-125704819D01*
X191142857Y-125704819D02*
X191571428Y-126704819D01*
X190333333Y-126038152D02*
X190333333Y-126704819D01*
X190571428Y-125657200D02*
X190809523Y-126371485D01*
X190809523Y-126371485D02*
X190190476Y-126371485D01*
X183116666Y-65109580D02*
X183164285Y-65157200D01*
X183164285Y-65157200D02*
X183307142Y-65204819D01*
X183307142Y-65204819D02*
X183402380Y-65204819D01*
X183402380Y-65204819D02*
X183545237Y-65157200D01*
X183545237Y-65157200D02*
X183640475Y-65061961D01*
X183640475Y-65061961D02*
X183688094Y-64966723D01*
X183688094Y-64966723D02*
X183735713Y-64776247D01*
X183735713Y-64776247D02*
X183735713Y-64633390D01*
X183735713Y-64633390D02*
X183688094Y-64442914D01*
X183688094Y-64442914D02*
X183640475Y-64347676D01*
X183640475Y-64347676D02*
X183545237Y-64252438D01*
X183545237Y-64252438D02*
X183402380Y-64204819D01*
X183402380Y-64204819D02*
X183307142Y-64204819D01*
X183307142Y-64204819D02*
X183164285Y-64252438D01*
X183164285Y-64252438D02*
X183116666Y-64300057D01*
X182259523Y-64204819D02*
X182449999Y-64204819D01*
X182449999Y-64204819D02*
X182545237Y-64252438D01*
X182545237Y-64252438D02*
X182592856Y-64300057D01*
X182592856Y-64300057D02*
X182688094Y-64442914D01*
X182688094Y-64442914D02*
X182735713Y-64633390D01*
X182735713Y-64633390D02*
X182735713Y-65014342D01*
X182735713Y-65014342D02*
X182688094Y-65109580D01*
X182688094Y-65109580D02*
X182640475Y-65157200D01*
X182640475Y-65157200D02*
X182545237Y-65204819D01*
X182545237Y-65204819D02*
X182354761Y-65204819D01*
X182354761Y-65204819D02*
X182259523Y-65157200D01*
X182259523Y-65157200D02*
X182211904Y-65109580D01*
X182211904Y-65109580D02*
X182164285Y-65014342D01*
X182164285Y-65014342D02*
X182164285Y-64776247D01*
X182164285Y-64776247D02*
X182211904Y-64681009D01*
X182211904Y-64681009D02*
X182259523Y-64633390D01*
X182259523Y-64633390D02*
X182354761Y-64585771D01*
X182354761Y-64585771D02*
X182545237Y-64585771D01*
X182545237Y-64585771D02*
X182640475Y-64633390D01*
X182640475Y-64633390D02*
X182688094Y-64681009D01*
X182688094Y-64681009D02*
X182735713Y-64776247D01*
X164091792Y-75369819D02*
X164425125Y-74893628D01*
X164663220Y-75369819D02*
X164663220Y-74369819D01*
X164663220Y-74369819D02*
X164282268Y-74369819D01*
X164282268Y-74369819D02*
X164187030Y-74417438D01*
X164187030Y-74417438D02*
X164139411Y-74465057D01*
X164139411Y-74465057D02*
X164091792Y-74560295D01*
X164091792Y-74560295D02*
X164091792Y-74703152D01*
X164091792Y-74703152D02*
X164139411Y-74798390D01*
X164139411Y-74798390D02*
X164187030Y-74846009D01*
X164187030Y-74846009D02*
X164282268Y-74893628D01*
X164282268Y-74893628D02*
X164663220Y-74893628D01*
X163187030Y-74369819D02*
X163663220Y-74369819D01*
X163663220Y-74369819D02*
X163710839Y-74846009D01*
X163710839Y-74846009D02*
X163663220Y-74798390D01*
X163663220Y-74798390D02*
X163567982Y-74750771D01*
X163567982Y-74750771D02*
X163329887Y-74750771D01*
X163329887Y-74750771D02*
X163234649Y-74798390D01*
X163234649Y-74798390D02*
X163187030Y-74846009D01*
X163187030Y-74846009D02*
X163139411Y-74941247D01*
X163139411Y-74941247D02*
X163139411Y-75179342D01*
X163139411Y-75179342D02*
X163187030Y-75274580D01*
X163187030Y-75274580D02*
X163234649Y-75322200D01*
X163234649Y-75322200D02*
X163329887Y-75369819D01*
X163329887Y-75369819D02*
X163567982Y-75369819D01*
X163567982Y-75369819D02*
X163663220Y-75322200D01*
X163663220Y-75322200D02*
X163710839Y-75274580D01*
X162806077Y-74369819D02*
X162187030Y-74369819D01*
X162187030Y-74369819D02*
X162520363Y-74750771D01*
X162520363Y-74750771D02*
X162377506Y-74750771D01*
X162377506Y-74750771D02*
X162282268Y-74798390D01*
X162282268Y-74798390D02*
X162234649Y-74846009D01*
X162234649Y-74846009D02*
X162187030Y-74941247D01*
X162187030Y-74941247D02*
X162187030Y-75179342D01*
X162187030Y-75179342D02*
X162234649Y-75274580D01*
X162234649Y-75274580D02*
X162282268Y-75322200D01*
X162282268Y-75322200D02*
X162377506Y-75369819D01*
X162377506Y-75369819D02*
X162663220Y-75369819D01*
X162663220Y-75369819D02*
X162758458Y-75322200D01*
X162758458Y-75322200D02*
X162806077Y-75274580D01*
X155070309Y-75369819D02*
X155403642Y-74893628D01*
X155641737Y-75369819D02*
X155641737Y-74369819D01*
X155641737Y-74369819D02*
X155260785Y-74369819D01*
X155260785Y-74369819D02*
X155165547Y-74417438D01*
X155165547Y-74417438D02*
X155117928Y-74465057D01*
X155117928Y-74465057D02*
X155070309Y-74560295D01*
X155070309Y-74560295D02*
X155070309Y-74703152D01*
X155070309Y-74703152D02*
X155117928Y-74798390D01*
X155117928Y-74798390D02*
X155165547Y-74846009D01*
X155165547Y-74846009D02*
X155260785Y-74893628D01*
X155260785Y-74893628D02*
X155641737Y-74893628D01*
X154117928Y-75369819D02*
X154689356Y-75369819D01*
X154403642Y-75369819D02*
X154403642Y-74369819D01*
X154403642Y-74369819D02*
X154498880Y-74512676D01*
X154498880Y-74512676D02*
X154594118Y-74607914D01*
X154594118Y-74607914D02*
X154689356Y-74655533D01*
X153260785Y-74369819D02*
X153451261Y-74369819D01*
X153451261Y-74369819D02*
X153546499Y-74417438D01*
X153546499Y-74417438D02*
X153594118Y-74465057D01*
X153594118Y-74465057D02*
X153689356Y-74607914D01*
X153689356Y-74607914D02*
X153736975Y-74798390D01*
X153736975Y-74798390D02*
X153736975Y-75179342D01*
X153736975Y-75179342D02*
X153689356Y-75274580D01*
X153689356Y-75274580D02*
X153641737Y-75322200D01*
X153641737Y-75322200D02*
X153546499Y-75369819D01*
X153546499Y-75369819D02*
X153356023Y-75369819D01*
X153356023Y-75369819D02*
X153260785Y-75322200D01*
X153260785Y-75322200D02*
X153213166Y-75274580D01*
X153213166Y-75274580D02*
X153165547Y-75179342D01*
X153165547Y-75179342D02*
X153165547Y-74941247D01*
X153165547Y-74941247D02*
X153213166Y-74846009D01*
X153213166Y-74846009D02*
X153260785Y-74798390D01*
X153260785Y-74798390D02*
X153356023Y-74750771D01*
X153356023Y-74750771D02*
X153546499Y-74750771D01*
X153546499Y-74750771D02*
X153641737Y-74798390D01*
X153641737Y-74798390D02*
X153689356Y-74846009D01*
X153689356Y-74846009D02*
X153736975Y-74941247D01*
X143168740Y-107454819D02*
X143502073Y-106978628D01*
X143740168Y-107454819D02*
X143740168Y-106454819D01*
X143740168Y-106454819D02*
X143359216Y-106454819D01*
X143359216Y-106454819D02*
X143263978Y-106502438D01*
X143263978Y-106502438D02*
X143216359Y-106550057D01*
X143216359Y-106550057D02*
X143168740Y-106645295D01*
X143168740Y-106645295D02*
X143168740Y-106788152D01*
X143168740Y-106788152D02*
X143216359Y-106883390D01*
X143216359Y-106883390D02*
X143263978Y-106931009D01*
X143263978Y-106931009D02*
X143359216Y-106978628D01*
X143359216Y-106978628D02*
X143740168Y-106978628D01*
X142835406Y-106454819D02*
X142216359Y-106454819D01*
X142216359Y-106454819D02*
X142549692Y-106835771D01*
X142549692Y-106835771D02*
X142406835Y-106835771D01*
X142406835Y-106835771D02*
X142311597Y-106883390D01*
X142311597Y-106883390D02*
X142263978Y-106931009D01*
X142263978Y-106931009D02*
X142216359Y-107026247D01*
X142216359Y-107026247D02*
X142216359Y-107264342D01*
X142216359Y-107264342D02*
X142263978Y-107359580D01*
X142263978Y-107359580D02*
X142311597Y-107407200D01*
X142311597Y-107407200D02*
X142406835Y-107454819D01*
X142406835Y-107454819D02*
X142692549Y-107454819D01*
X142692549Y-107454819D02*
X142787787Y-107407200D01*
X142787787Y-107407200D02*
X142835406Y-107359580D01*
X141740168Y-107454819D02*
X141549692Y-107454819D01*
X141549692Y-107454819D02*
X141454454Y-107407200D01*
X141454454Y-107407200D02*
X141406835Y-107359580D01*
X141406835Y-107359580D02*
X141311597Y-107216723D01*
X141311597Y-107216723D02*
X141263978Y-107026247D01*
X141263978Y-107026247D02*
X141263978Y-106645295D01*
X141263978Y-106645295D02*
X141311597Y-106550057D01*
X141311597Y-106550057D02*
X141359216Y-106502438D01*
X141359216Y-106502438D02*
X141454454Y-106454819D01*
X141454454Y-106454819D02*
X141644930Y-106454819D01*
X141644930Y-106454819D02*
X141740168Y-106502438D01*
X141740168Y-106502438D02*
X141787787Y-106550057D01*
X141787787Y-106550057D02*
X141835406Y-106645295D01*
X141835406Y-106645295D02*
X141835406Y-106883390D01*
X141835406Y-106883390D02*
X141787787Y-106978628D01*
X141787787Y-106978628D02*
X141740168Y-107026247D01*
X141740168Y-107026247D02*
X141644930Y-107073866D01*
X141644930Y-107073866D02*
X141454454Y-107073866D01*
X141454454Y-107073866D02*
X141359216Y-107026247D01*
X141359216Y-107026247D02*
X141311597Y-106978628D01*
X141311597Y-106978628D02*
X141263978Y-106883390D01*
X192609580Y-83908207D02*
X192657200Y-83860588D01*
X192657200Y-83860588D02*
X192704819Y-83717731D01*
X192704819Y-83717731D02*
X192704819Y-83622493D01*
X192704819Y-83622493D02*
X192657200Y-83479636D01*
X192657200Y-83479636D02*
X192561961Y-83384398D01*
X192561961Y-83384398D02*
X192466723Y-83336779D01*
X192466723Y-83336779D02*
X192276247Y-83289160D01*
X192276247Y-83289160D02*
X192133390Y-83289160D01*
X192133390Y-83289160D02*
X191942914Y-83336779D01*
X191942914Y-83336779D02*
X191847676Y-83384398D01*
X191847676Y-83384398D02*
X191752438Y-83479636D01*
X191752438Y-83479636D02*
X191704819Y-83622493D01*
X191704819Y-83622493D02*
X191704819Y-83717731D01*
X191704819Y-83717731D02*
X191752438Y-83860588D01*
X191752438Y-83860588D02*
X191800057Y-83908207D01*
X191800057Y-84289160D02*
X191752438Y-84336779D01*
X191752438Y-84336779D02*
X191704819Y-84432017D01*
X191704819Y-84432017D02*
X191704819Y-84670112D01*
X191704819Y-84670112D02*
X191752438Y-84765350D01*
X191752438Y-84765350D02*
X191800057Y-84812969D01*
X191800057Y-84812969D02*
X191895295Y-84860588D01*
X191895295Y-84860588D02*
X191990533Y-84860588D01*
X191990533Y-84860588D02*
X192133390Y-84812969D01*
X192133390Y-84812969D02*
X192704819Y-84241541D01*
X192704819Y-84241541D02*
X192704819Y-84860588D01*
X191704819Y-85765350D02*
X191704819Y-85289160D01*
X191704819Y-85289160D02*
X192181009Y-85241541D01*
X192181009Y-85241541D02*
X192133390Y-85289160D01*
X192133390Y-85289160D02*
X192085771Y-85384398D01*
X192085771Y-85384398D02*
X192085771Y-85622493D01*
X192085771Y-85622493D02*
X192133390Y-85717731D01*
X192133390Y-85717731D02*
X192181009Y-85765350D01*
X192181009Y-85765350D02*
X192276247Y-85812969D01*
X192276247Y-85812969D02*
X192514342Y-85812969D01*
X192514342Y-85812969D02*
X192609580Y-85765350D01*
X192609580Y-85765350D02*
X192657200Y-85717731D01*
X192657200Y-85717731D02*
X192704819Y-85622493D01*
X192704819Y-85622493D02*
X192704819Y-85384398D01*
X192704819Y-85384398D02*
X192657200Y-85289160D01*
X192657200Y-85289160D02*
X192609580Y-85241541D01*
X155091792Y-76880704D02*
X155425125Y-76404513D01*
X155663220Y-76880704D02*
X155663220Y-75880704D01*
X155663220Y-75880704D02*
X155282268Y-75880704D01*
X155282268Y-75880704D02*
X155187030Y-75928323D01*
X155187030Y-75928323D02*
X155139411Y-75975942D01*
X155139411Y-75975942D02*
X155091792Y-76071180D01*
X155091792Y-76071180D02*
X155091792Y-76214037D01*
X155091792Y-76214037D02*
X155139411Y-76309275D01*
X155139411Y-76309275D02*
X155187030Y-76356894D01*
X155187030Y-76356894D02*
X155282268Y-76404513D01*
X155282268Y-76404513D02*
X155663220Y-76404513D01*
X154139411Y-76880704D02*
X154710839Y-76880704D01*
X154425125Y-76880704D02*
X154425125Y-75880704D01*
X154425125Y-75880704D02*
X154520363Y-76023561D01*
X154520363Y-76023561D02*
X154615601Y-76118799D01*
X154615601Y-76118799D02*
X154710839Y-76166418D01*
X153282268Y-76214037D02*
X153282268Y-76880704D01*
X153520363Y-75833085D02*
X153758458Y-76547370D01*
X153758458Y-76547370D02*
X153139411Y-76547370D01*
X158091792Y-69369819D02*
X158425125Y-68893628D01*
X158663220Y-69369819D02*
X158663220Y-68369819D01*
X158663220Y-68369819D02*
X158282268Y-68369819D01*
X158282268Y-68369819D02*
X158187030Y-68417438D01*
X158187030Y-68417438D02*
X158139411Y-68465057D01*
X158139411Y-68465057D02*
X158091792Y-68560295D01*
X158091792Y-68560295D02*
X158091792Y-68703152D01*
X158091792Y-68703152D02*
X158139411Y-68798390D01*
X158139411Y-68798390D02*
X158187030Y-68846009D01*
X158187030Y-68846009D02*
X158282268Y-68893628D01*
X158282268Y-68893628D02*
X158663220Y-68893628D01*
X157187030Y-68369819D02*
X157663220Y-68369819D01*
X157663220Y-68369819D02*
X157710839Y-68846009D01*
X157710839Y-68846009D02*
X157663220Y-68798390D01*
X157663220Y-68798390D02*
X157567982Y-68750771D01*
X157567982Y-68750771D02*
X157329887Y-68750771D01*
X157329887Y-68750771D02*
X157234649Y-68798390D01*
X157234649Y-68798390D02*
X157187030Y-68846009D01*
X157187030Y-68846009D02*
X157139411Y-68941247D01*
X157139411Y-68941247D02*
X157139411Y-69179342D01*
X157139411Y-69179342D02*
X157187030Y-69274580D01*
X157187030Y-69274580D02*
X157234649Y-69322200D01*
X157234649Y-69322200D02*
X157329887Y-69369819D01*
X157329887Y-69369819D02*
X157567982Y-69369819D01*
X157567982Y-69369819D02*
X157663220Y-69322200D01*
X157663220Y-69322200D02*
X157710839Y-69274580D01*
X164091792Y-79869819D02*
X164425125Y-79393628D01*
X164663220Y-79869819D02*
X164663220Y-78869819D01*
X164663220Y-78869819D02*
X164282268Y-78869819D01*
X164282268Y-78869819D02*
X164187030Y-78917438D01*
X164187030Y-78917438D02*
X164139411Y-78965057D01*
X164139411Y-78965057D02*
X164091792Y-79060295D01*
X164091792Y-79060295D02*
X164091792Y-79203152D01*
X164091792Y-79203152D02*
X164139411Y-79298390D01*
X164139411Y-79298390D02*
X164187030Y-79346009D01*
X164187030Y-79346009D02*
X164282268Y-79393628D01*
X164282268Y-79393628D02*
X164663220Y-79393628D01*
X163187030Y-78869819D02*
X163663220Y-78869819D01*
X163663220Y-78869819D02*
X163710839Y-79346009D01*
X163710839Y-79346009D02*
X163663220Y-79298390D01*
X163663220Y-79298390D02*
X163567982Y-79250771D01*
X163567982Y-79250771D02*
X163329887Y-79250771D01*
X163329887Y-79250771D02*
X163234649Y-79298390D01*
X163234649Y-79298390D02*
X163187030Y-79346009D01*
X163187030Y-79346009D02*
X163139411Y-79441247D01*
X163139411Y-79441247D02*
X163139411Y-79679342D01*
X163139411Y-79679342D02*
X163187030Y-79774580D01*
X163187030Y-79774580D02*
X163234649Y-79822200D01*
X163234649Y-79822200D02*
X163329887Y-79869819D01*
X163329887Y-79869819D02*
X163567982Y-79869819D01*
X163567982Y-79869819D02*
X163663220Y-79822200D01*
X163663220Y-79822200D02*
X163710839Y-79774580D01*
X162282268Y-78869819D02*
X162472744Y-78869819D01*
X162472744Y-78869819D02*
X162567982Y-78917438D01*
X162567982Y-78917438D02*
X162615601Y-78965057D01*
X162615601Y-78965057D02*
X162710839Y-79107914D01*
X162710839Y-79107914D02*
X162758458Y-79298390D01*
X162758458Y-79298390D02*
X162758458Y-79679342D01*
X162758458Y-79679342D02*
X162710839Y-79774580D01*
X162710839Y-79774580D02*
X162663220Y-79822200D01*
X162663220Y-79822200D02*
X162567982Y-79869819D01*
X162567982Y-79869819D02*
X162377506Y-79869819D01*
X162377506Y-79869819D02*
X162282268Y-79822200D01*
X162282268Y-79822200D02*
X162234649Y-79774580D01*
X162234649Y-79774580D02*
X162187030Y-79679342D01*
X162187030Y-79679342D02*
X162187030Y-79441247D01*
X162187030Y-79441247D02*
X162234649Y-79346009D01*
X162234649Y-79346009D02*
X162282268Y-79298390D01*
X162282268Y-79298390D02*
X162377506Y-79250771D01*
X162377506Y-79250771D02*
X162567982Y-79250771D01*
X162567982Y-79250771D02*
X162663220Y-79298390D01*
X162663220Y-79298390D02*
X162710839Y-79346009D01*
X162710839Y-79346009D02*
X162758458Y-79441247D01*
X183142857Y-123359580D02*
X183190476Y-123407200D01*
X183190476Y-123407200D02*
X183333333Y-123454819D01*
X183333333Y-123454819D02*
X183428571Y-123454819D01*
X183428571Y-123454819D02*
X183571428Y-123407200D01*
X183571428Y-123407200D02*
X183666666Y-123311961D01*
X183666666Y-123311961D02*
X183714285Y-123216723D01*
X183714285Y-123216723D02*
X183761904Y-123026247D01*
X183761904Y-123026247D02*
X183761904Y-122883390D01*
X183761904Y-122883390D02*
X183714285Y-122692914D01*
X183714285Y-122692914D02*
X183666666Y-122597676D01*
X183666666Y-122597676D02*
X183571428Y-122502438D01*
X183571428Y-122502438D02*
X183428571Y-122454819D01*
X183428571Y-122454819D02*
X183333333Y-122454819D01*
X183333333Y-122454819D02*
X183190476Y-122502438D01*
X183190476Y-122502438D02*
X183142857Y-122550057D01*
X182809523Y-122454819D02*
X182190476Y-122454819D01*
X182190476Y-122454819D02*
X182523809Y-122835771D01*
X182523809Y-122835771D02*
X182380952Y-122835771D01*
X182380952Y-122835771D02*
X182285714Y-122883390D01*
X182285714Y-122883390D02*
X182238095Y-122931009D01*
X182238095Y-122931009D02*
X182190476Y-123026247D01*
X182190476Y-123026247D02*
X182190476Y-123264342D01*
X182190476Y-123264342D02*
X182238095Y-123359580D01*
X182238095Y-123359580D02*
X182285714Y-123407200D01*
X182285714Y-123407200D02*
X182380952Y-123454819D01*
X182380952Y-123454819D02*
X182666666Y-123454819D01*
X182666666Y-123454819D02*
X182761904Y-123407200D01*
X182761904Y-123407200D02*
X182809523Y-123359580D01*
X181333333Y-122454819D02*
X181523809Y-122454819D01*
X181523809Y-122454819D02*
X181619047Y-122502438D01*
X181619047Y-122502438D02*
X181666666Y-122550057D01*
X181666666Y-122550057D02*
X181761904Y-122692914D01*
X181761904Y-122692914D02*
X181809523Y-122883390D01*
X181809523Y-122883390D02*
X181809523Y-123264342D01*
X181809523Y-123264342D02*
X181761904Y-123359580D01*
X181761904Y-123359580D02*
X181714285Y-123407200D01*
X181714285Y-123407200D02*
X181619047Y-123454819D01*
X181619047Y-123454819D02*
X181428571Y-123454819D01*
X181428571Y-123454819D02*
X181333333Y-123407200D01*
X181333333Y-123407200D02*
X181285714Y-123359580D01*
X181285714Y-123359580D02*
X181238095Y-123264342D01*
X181238095Y-123264342D02*
X181238095Y-123026247D01*
X181238095Y-123026247D02*
X181285714Y-122931009D01*
X181285714Y-122931009D02*
X181333333Y-122883390D01*
X181333333Y-122883390D02*
X181428571Y-122835771D01*
X181428571Y-122835771D02*
X181619047Y-122835771D01*
X181619047Y-122835771D02*
X181714285Y-122883390D01*
X181714285Y-122883390D02*
X181761904Y-122931009D01*
X181761904Y-122931009D02*
X181809523Y-123026247D01*
X203666666Y-123204819D02*
X203999999Y-122728628D01*
X204238094Y-123204819D02*
X204238094Y-122204819D01*
X204238094Y-122204819D02*
X203857142Y-122204819D01*
X203857142Y-122204819D02*
X203761904Y-122252438D01*
X203761904Y-122252438D02*
X203714285Y-122300057D01*
X203714285Y-122300057D02*
X203666666Y-122395295D01*
X203666666Y-122395295D02*
X203666666Y-122538152D01*
X203666666Y-122538152D02*
X203714285Y-122633390D01*
X203714285Y-122633390D02*
X203761904Y-122681009D01*
X203761904Y-122681009D02*
X203857142Y-122728628D01*
X203857142Y-122728628D02*
X204238094Y-122728628D01*
X202809523Y-122538152D02*
X202809523Y-123204819D01*
X203047618Y-122157200D02*
X203285713Y-122871485D01*
X203285713Y-122871485D02*
X202666666Y-122871485D01*
X164091792Y-78369819D02*
X164425125Y-77893628D01*
X164663220Y-78369819D02*
X164663220Y-77369819D01*
X164663220Y-77369819D02*
X164282268Y-77369819D01*
X164282268Y-77369819D02*
X164187030Y-77417438D01*
X164187030Y-77417438D02*
X164139411Y-77465057D01*
X164139411Y-77465057D02*
X164091792Y-77560295D01*
X164091792Y-77560295D02*
X164091792Y-77703152D01*
X164091792Y-77703152D02*
X164139411Y-77798390D01*
X164139411Y-77798390D02*
X164187030Y-77846009D01*
X164187030Y-77846009D02*
X164282268Y-77893628D01*
X164282268Y-77893628D02*
X164663220Y-77893628D01*
X163187030Y-77369819D02*
X163663220Y-77369819D01*
X163663220Y-77369819D02*
X163710839Y-77846009D01*
X163710839Y-77846009D02*
X163663220Y-77798390D01*
X163663220Y-77798390D02*
X163567982Y-77750771D01*
X163567982Y-77750771D02*
X163329887Y-77750771D01*
X163329887Y-77750771D02*
X163234649Y-77798390D01*
X163234649Y-77798390D02*
X163187030Y-77846009D01*
X163187030Y-77846009D02*
X163139411Y-77941247D01*
X163139411Y-77941247D02*
X163139411Y-78179342D01*
X163139411Y-78179342D02*
X163187030Y-78274580D01*
X163187030Y-78274580D02*
X163234649Y-78322200D01*
X163234649Y-78322200D02*
X163329887Y-78369819D01*
X163329887Y-78369819D02*
X163567982Y-78369819D01*
X163567982Y-78369819D02*
X163663220Y-78322200D01*
X163663220Y-78322200D02*
X163710839Y-78274580D01*
X162234649Y-77369819D02*
X162710839Y-77369819D01*
X162710839Y-77369819D02*
X162758458Y-77846009D01*
X162758458Y-77846009D02*
X162710839Y-77798390D01*
X162710839Y-77798390D02*
X162615601Y-77750771D01*
X162615601Y-77750771D02*
X162377506Y-77750771D01*
X162377506Y-77750771D02*
X162282268Y-77798390D01*
X162282268Y-77798390D02*
X162234649Y-77846009D01*
X162234649Y-77846009D02*
X162187030Y-77941247D01*
X162187030Y-77941247D02*
X162187030Y-78179342D01*
X162187030Y-78179342D02*
X162234649Y-78274580D01*
X162234649Y-78274580D02*
X162282268Y-78322200D01*
X162282268Y-78322200D02*
X162377506Y-78369819D01*
X162377506Y-78369819D02*
X162615601Y-78369819D01*
X162615601Y-78369819D02*
X162710839Y-78322200D01*
X162710839Y-78322200D02*
X162758458Y-78274580D01*
D12*
%TO.C,C16*%
X155761252Y-133765000D02*
X155238748Y-133765000D01*
X155761252Y-135235000D02*
X155238748Y-135235000D01*
%TO.C,C34*%
X189488748Y-133758100D02*
X190011252Y-133758100D01*
X189488748Y-135228100D02*
X190011252Y-135228100D01*
%TO.C,C27*%
X140238748Y-133765000D02*
X140761252Y-133765000D01*
X140238748Y-135235000D02*
X140761252Y-135235000D01*
%TO.C,R8*%
X139053081Y-60153141D02*
X138598953Y-60153141D01*
X139053081Y-61623141D02*
X138598953Y-61623141D01*
%TO.C,R15*%
X143824564Y-73010284D02*
X143370436Y-73010284D01*
X143824564Y-74480284D02*
X143370436Y-74480284D01*
%TO.C,R34*%
X146272936Y-104265000D02*
X146727064Y-104265000D01*
X146272936Y-105735000D02*
X146727064Y-105735000D01*
%TO.C,C7*%
X200695000Y-121721252D02*
X200695000Y-121198748D01*
X202165000Y-121721252D02*
X202165000Y-121198748D01*
%TO.C,C35*%
X172765000Y-124726852D02*
X172765000Y-124204348D01*
X174235000Y-124726852D02*
X174235000Y-124204348D01*
%TO.C,R51*%
X148862500Y-72615205D02*
X148862500Y-72161077D01*
X150332500Y-72615205D02*
X150332500Y-72161077D01*
%TO.C,R13*%
X143824564Y-70438855D02*
X143370436Y-70438855D01*
X143824564Y-71908855D02*
X143370436Y-71908855D01*
%TO.C,Q4*%
X119195000Y-59890000D02*
X122195000Y-59890000D01*
X119195000Y-65215000D02*
X125195000Y-65215000D01*
%TO.C,Q2*%
X119195000Y-53590000D02*
X122195000Y-53590000D01*
X119195000Y-58915000D02*
X125195000Y-58915000D01*
%TO.C,CA4*%
X146735369Y-96265000D02*
X146212865Y-96265000D01*
X146735369Y-97735000D02*
X146212865Y-97735000D01*
%TO.C,R25*%
X97232500Y-102074564D02*
X97232500Y-101620436D01*
X98702500Y-102074564D02*
X98702500Y-101620436D01*
%TO.C,R3*%
X187927064Y-65965000D02*
X187472936Y-65965000D01*
X187927064Y-67435000D02*
X187472936Y-67435000D01*
%TO.C,R36*%
X146701181Y-94297500D02*
X146247053Y-94297500D01*
X146701181Y-95767500D02*
X146247053Y-95767500D01*
%TO.C,R19*%
X143824564Y-78153141D02*
X143370436Y-78153141D01*
X143824564Y-79623141D02*
X143370436Y-79623141D01*
%TO.C,CA2*%
X146761252Y-108265000D02*
X146238748Y-108265000D01*
X146761252Y-109735000D02*
X146238748Y-109735000D01*
%TO.C,R1*%
X166379564Y-116515000D02*
X165925436Y-116515000D01*
X166379564Y-117985000D02*
X165925436Y-117985000D01*
%TO.C,C18*%
X156698152Y-124797500D02*
X156175648Y-124797500D01*
X156698152Y-126267500D02*
X156175648Y-126267500D01*
%TO.C,CA1*%
X146238748Y-114265000D02*
X146761252Y-114265000D01*
X146238748Y-115735000D02*
X146761252Y-115735000D01*
%TO.C,R54*%
X151112500Y-67161077D02*
X151112500Y-67615205D01*
X152582500Y-67161077D02*
X152582500Y-67615205D01*
%TO.C,R71*%
X185227064Y-133765000D02*
X184772936Y-133765000D01*
X185227064Y-135235000D02*
X184772936Y-135235000D01*
%TO.C,C17*%
X164738748Y-133765000D02*
X165261252Y-133765000D01*
X164738748Y-135235000D02*
X165261252Y-135235000D01*
%TO.C,R64*%
X138140000Y-88155581D02*
X138140000Y-87701453D01*
X139610000Y-88155581D02*
X139610000Y-87701453D01*
%TO.C,C38*%
X193765000Y-87936348D02*
X193765000Y-88458852D01*
X195235000Y-87936348D02*
X195235000Y-88458852D01*
%TO.C,R72*%
X179265000Y-122372936D02*
X179265000Y-122827064D01*
X180735000Y-122372936D02*
X180735000Y-122827064D01*
%TO.C,R30*%
X135824564Y-133797500D02*
X135370436Y-133797500D01*
X135824564Y-135267500D02*
X135370436Y-135267500D01*
%TO.C,C37*%
X196258100Y-88005148D02*
X196258100Y-88527652D01*
X197728100Y-88005148D02*
X197728100Y-88527652D01*
%TO.C,R40*%
X146272936Y-92232500D02*
X146727064Y-92232500D01*
X146272936Y-93702500D02*
X146727064Y-93702500D01*
%TO.C,C26*%
X131011252Y-133771900D02*
X130488748Y-133771900D01*
X131011252Y-135241900D02*
X130488748Y-135241900D01*
%TO.C,R18*%
X138620436Y-78153141D02*
X139074564Y-78153141D01*
X138620436Y-79623141D02*
X139074564Y-79623141D01*
%TO.C,R35*%
X146272936Y-98269604D02*
X146727064Y-98269604D01*
X146272936Y-99739604D02*
X146727064Y-99739604D01*
%TO.C,C22*%
X187021900Y-88476852D02*
X187021900Y-87954348D01*
X188491900Y-88476852D02*
X188491900Y-87954348D01*
%TO.C,R9*%
X143824564Y-65295998D02*
X143370436Y-65295998D01*
X143824564Y-66765998D02*
X143370436Y-66765998D01*
%TO.C,C1*%
X189265000Y-88511252D02*
X189265000Y-87988748D01*
X190735000Y-88511252D02*
X190735000Y-87988748D01*
%TO.C,R33*%
X146272936Y-110265000D02*
X146727064Y-110265000D01*
X146272936Y-111735000D02*
X146727064Y-111735000D01*
%TO.C,R68*%
X122362500Y-88177064D02*
X122362500Y-87722936D01*
X123832500Y-88177064D02*
X123832500Y-87722936D01*
%TO.C,R52*%
X148862500Y-77615205D02*
X148862500Y-77161077D01*
X150332500Y-77615205D02*
X150332500Y-77161077D01*
%TO.C,C19*%
X148515000Y-124511252D02*
X148515000Y-123988748D01*
X149985000Y-124511252D02*
X149985000Y-123988748D01*
%TO.C,R12*%
X139074564Y-65297500D02*
X138620436Y-65297500D01*
X139074564Y-66767500D02*
X138620436Y-66767500D01*
%TO.C,R24*%
X114977064Y-102265000D02*
X114522936Y-102265000D01*
X114977064Y-103735000D02*
X114522936Y-103735000D01*
%TO.C,R50*%
X148862500Y-67615205D02*
X148862500Y-67161077D01*
X150332500Y-67615205D02*
X150332500Y-67161077D01*
%TO.C,R69*%
X196102064Y-51265000D02*
X195647936Y-51265000D01*
X196102064Y-52735000D02*
X195647936Y-52735000D01*
%TO.C,R20*%
X139053081Y-75579910D02*
X138598953Y-75579910D01*
X139053081Y-77049910D02*
X138598953Y-77049910D01*
%TO.C,R7*%
X143824564Y-62724570D02*
X143370436Y-62724570D01*
X143824564Y-64194570D02*
X143370436Y-64194570D01*
%TO.C,R26*%
X114977064Y-106515000D02*
X114522936Y-106515000D01*
X114977064Y-107985000D02*
X114522936Y-107985000D01*
%TO.C,R49*%
X148862500Y-62615205D02*
X148862500Y-62161077D01*
X150332500Y-62615205D02*
X150332500Y-62161077D01*
%TO.C,C4*%
X184771900Y-88476852D02*
X184771900Y-87954348D01*
X186241900Y-88476852D02*
X186241900Y-87954348D01*
%TO.C,C29*%
X132261252Y-124765000D02*
X131738748Y-124765000D01*
X132261252Y-126235000D02*
X131738748Y-126235000D01*
%TO.C,R58*%
X152515000Y-87722936D02*
X152515000Y-88177064D01*
X153985000Y-87722936D02*
X153985000Y-88177064D01*
%TO.C,R27*%
X97265000Y-108022936D02*
X97265000Y-108477064D01*
X98735000Y-108022936D02*
X98735000Y-108477064D01*
%TO.C,R37*%
X146272936Y-112265000D02*
X146727064Y-112265000D01*
X146272936Y-113735000D02*
X146727064Y-113735000D01*
%TO.C,R66*%
X120112500Y-87722936D02*
X120112500Y-88177064D01*
X121582500Y-87722936D02*
X121582500Y-88177064D01*
%TO.C,C28*%
X123911750Y-124761252D02*
X123911750Y-124238748D01*
X125381750Y-124761252D02*
X125381750Y-124238748D01*
%TO.C,R17*%
X143824564Y-75581712D02*
X143370436Y-75581712D01*
X143824564Y-77051712D02*
X143370436Y-77051712D01*
%TO.C,R31*%
X132227064Y-122765000D02*
X131772936Y-122765000D01*
X132227064Y-124235000D02*
X131772936Y-124235000D01*
%TO.C,R10*%
X138598953Y-67866525D02*
X139053081Y-67866525D01*
X138598953Y-69336525D02*
X139053081Y-69336525D01*
%TO.C,R60*%
X154717500Y-88155581D02*
X154717500Y-87701453D01*
X156187500Y-88155581D02*
X156187500Y-87701453D01*
%TO.C,Q6*%
X119195000Y-66390000D02*
X122195000Y-66390000D01*
X119195000Y-71715000D02*
X125195000Y-71715000D01*
%TO.C,R38*%
X146727064Y-100270119D02*
X146272936Y-100270119D01*
X146727064Y-101740119D02*
X146272936Y-101740119D01*
%TO.C,C33*%
X180511252Y-133765000D02*
X179988748Y-133765000D01*
X180511252Y-135235000D02*
X179988748Y-135235000D01*
%TO.C,Q8*%
X119195000Y-72745000D02*
X122195000Y-72745000D01*
X119195000Y-78070000D02*
X125195000Y-78070000D01*
%TO.C,R62*%
X135922500Y-87722936D02*
X135922500Y-88177064D01*
X137392500Y-87722936D02*
X137392500Y-88177064D01*
%TO.C,CA3*%
X146761252Y-102269604D02*
X146238748Y-102269604D01*
X146761252Y-103739604D02*
X146238748Y-103739604D01*
%TO.C,R6*%
X138620436Y-62653141D02*
X139074564Y-62653141D01*
X138620436Y-64123141D02*
X139074564Y-64123141D01*
%TO.C,R21*%
X160477064Y-133765000D02*
X160022936Y-133765000D01*
X160477064Y-135235000D02*
X160022936Y-135235000D01*
%TO.C,R11*%
X143824564Y-67867427D02*
X143370436Y-67867427D01*
X143824564Y-69337427D02*
X143370436Y-69337427D01*
%TO.C,C5*%
X192188748Y-65965000D02*
X192711252Y-65965000D01*
X192188748Y-67435000D02*
X192711252Y-67435000D01*
%TO.C,R2*%
X171120436Y-117232500D02*
X171574564Y-117232500D01*
X171120436Y-118702500D02*
X171574564Y-118702500D01*
%TO.C,R22*%
X156727064Y-122797500D02*
X156272936Y-122797500D01*
X156727064Y-124267500D02*
X156272936Y-124267500D01*
%TO.C,R74*%
X188265000Y-125227064D02*
X188265000Y-124772936D01*
X189735000Y-125227064D02*
X189735000Y-124772936D01*
%TO.C,C6*%
X183211252Y-65965000D02*
X182688748Y-65965000D01*
X183211252Y-67435000D02*
X182688748Y-67435000D01*
%TO.C,R53*%
X151112500Y-62161077D02*
X151112500Y-62615205D01*
X152582500Y-62161077D02*
X152582500Y-62615205D01*
%TO.C,R16*%
X139053081Y-70437654D02*
X138598953Y-70437654D01*
X139053081Y-71907654D02*
X138598953Y-71907654D01*
%TO.C,R39*%
X146727064Y-106265000D02*
X146272936Y-106265000D01*
X146727064Y-107735000D02*
X146272936Y-107735000D01*
%TO.C,C25*%
X191521900Y-88476852D02*
X191521900Y-87954348D01*
X192991900Y-88476852D02*
X192991900Y-87954348D01*
%TO.C,R14*%
X138620436Y-73010885D02*
X139074564Y-73010885D01*
X138620436Y-74480885D02*
X139074564Y-74480885D01*
%TO.C,R5*%
X143824564Y-60153141D02*
X143370436Y-60153141D01*
X143824564Y-61623141D02*
X143370436Y-61623141D01*
%TO.C,R56*%
X151112500Y-77161077D02*
X151112500Y-77615205D01*
X152582500Y-77161077D02*
X152582500Y-77615205D01*
%TO.C,C36*%
X181511252Y-125265000D02*
X180988748Y-125265000D01*
X181511252Y-126735000D02*
X180988748Y-126735000D01*
%TO.C,R4*%
X198695000Y-121232936D02*
X198695000Y-121687064D01*
X200165000Y-121232936D02*
X200165000Y-121687064D01*
%TO.C,R55*%
X151112500Y-72161077D02*
X151112500Y-72615205D01*
X152582500Y-72161077D02*
X152582500Y-72615205D01*
%TD*%
M02*
