%TF.GenerationSoftware,KiCad,Pcbnew,9.0.2*%
%TF.CreationDate,2025-09-23T15:25:02+08:00*%
%TF.ProjectId,VCU V3.2,56435520-5633-42e3-922e-6b696361645f,rev?*%
%TF.SameCoordinates,Original*%
%TF.FileFunction,Paste,Top*%
%TF.FilePolarity,Positive*%
%FSLAX46Y46*%
G04 Gerber Fmt 4.6, Leading zero omitted, Abs format (unit mm)*
G04 Created by KiCad (PCBNEW 9.0.2) date 2025-09-23 15:25:02*
%MOMM*%
%LPD*%
G01*
G04 APERTURE LIST*
G04 Aperture macros list*
%AMRoundRect*
0 Rectangle with rounded corners*
0 $1 Rounding radius*
0 $2 $3 $4 $5 $6 $7 $8 $9 X,Y pos of 4 corners*
0 Add a 4 corners polygon primitive as box body*
4,1,4,$2,$3,$4,$5,$6,$7,$8,$9,$2,$3,0*
0 Add four circle primitives for the rounded corners*
1,1,$1+$1,$2,$3*
1,1,$1+$1,$4,$5*
1,1,$1+$1,$6,$7*
1,1,$1+$1,$8,$9*
0 Add four rect primitives between the rounded corners*
20,1,$1+$1,$2,$3,$4,$5,0*
20,1,$1+$1,$4,$5,$6,$7,0*
20,1,$1+$1,$6,$7,$8,$9,0*
20,1,$1+$1,$8,$9,$2,$3,0*%
G04 Aperture macros list end*
%ADD10R,6.551563X2.500000*%
%ADD11R,6.645000X2.500000*%
%ADD12RoundRect,0.150000X1.350000X0.150000X-1.350000X0.150000X-1.350000X-0.150000X1.350000X-0.150000X0*%
%ADD13RoundRect,0.150000X1.337500X0.150000X-1.337500X0.150000X-1.337500X-0.150000X1.337500X-0.150000X0*%
%ADD14RoundRect,0.305575X0.412525X-0.460025X0.412525X0.460025X-0.412525X0.460025X-0.412525X-0.460025X0*%
%ADD15RoundRect,0.308511X0.416489X-0.457089X0.416489X0.457089X-0.416489X0.457089X-0.416489X-0.457089X0*%
%ADD16RoundRect,0.278125X-0.389375X0.474375X-0.389375X-0.474375X0.389375X-0.474375X0.389375X0.474375X0*%
%ADD17RoundRect,0.150000X-0.750000X-0.150000X0.750000X-0.150000X0.750000X0.150000X-0.750000X0.150000X0*%
%ADD18RoundRect,0.305575X-0.460025X-0.412525X0.460025X-0.412525X0.460025X0.412525X-0.460025X0.412525X0*%
%ADD19RoundRect,0.308511X-0.457089X-0.416489X0.457089X-0.416489X0.457089X0.416489X-0.457089X0.416489X0*%
%ADD20RoundRect,0.278125X-0.474375X-0.389375X0.474375X-0.389375X0.474375X0.389375X-0.474375X0.389375X0*%
%ADD21RoundRect,0.100000X0.100000X-0.687500X0.100000X0.687500X-0.100000X0.687500X-0.100000X-0.687500X0*%
%ADD22RoundRect,0.100000X0.099999X-0.687500X0.099999X0.687500X-0.099999X0.687500X-0.099999X-0.687500X0*%
%ADD23RoundRect,0.293478X-0.381522X-0.406522X0.381522X-0.406522X0.381522X0.406522X-0.381522X0.406522X0*%
%ADD24RoundRect,0.293478X0.381522X0.406522X-0.381522X0.406522X-0.381522X-0.406522X0.381522X-0.406522X0*%
%ADD25RoundRect,0.150000X-1.350000X-0.150000X1.350000X-0.150000X1.350000X0.150000X-1.350000X0.150000X0*%
%ADD26RoundRect,0.150000X-1.337500X-0.150000X1.337500X-0.150000X1.337500X0.150000X-1.337500X0.150000X0*%
%ADD27RoundRect,0.250000X1.500000X0.650000X-1.500000X0.650000X-1.500000X-0.650000X1.500000X-0.650000X0*%
%ADD28RoundRect,0.150000X0.750000X0.150000X-0.750000X0.150000X-0.750000X-0.150000X0.750000X-0.150000X0*%
%ADD29RoundRect,0.250000X3.075000X0.300000X-3.075000X0.300000X-3.075000X-0.300000X3.075000X-0.300000X0*%
%ADD30RoundRect,0.250000X2.025000X2.375000X-2.025000X2.375000X-2.025000X-2.375000X2.025000X-2.375000X0*%
%ADD31RoundRect,0.288461X2.386539X2.336539X-2.386539X2.336539X-2.386539X-2.336539X2.386539X-2.336539X0*%
%ADD32RoundRect,0.278125X0.474375X0.389375X-0.474375X0.389375X-0.474375X-0.389375X0.474375X-0.389375X0*%
%ADD33RoundRect,0.090000X1.040000X0.210000X-1.040000X0.210000X-1.040000X-0.210000X1.040000X-0.210000X0*%
%ADD34RoundRect,0.091500X1.038500X0.213500X-1.038500X0.213500X-1.038500X-0.213500X1.038500X-0.213500X0*%
%ADD35RoundRect,0.800000X0.800000X-1.075000X0.800000X1.075000X-0.800000X1.075000X-0.800000X-1.075000X0*%
%ADD36RoundRect,0.249999X0.750001X0.640001X-0.750001X0.640001X-0.750001X-0.640001X0.750001X-0.640001X0*%
%ADD37RoundRect,0.250001X0.462499X1.074999X-0.462499X1.074999X-0.462499X-1.074999X0.462499X-1.074999X0*%
%ADD38R,0.550000X2.000000*%
%ADD39R,2.000000X0.550000*%
%ADD40R,2.000000X0.525000*%
%ADD41R,2.000000X0.575000*%
%ADD42R,0.525000X2.000000*%
%ADD43RoundRect,0.249999X-0.750001X-0.640001X0.750001X-0.640001X0.750001X0.640001X-0.750001X0.640001X0*%
G04 APERTURE END LIST*
D10*
%TO.C,Y1*%
X182670782Y-69458238D03*
D11*
X192582500Y-69450000D03*
%TD*%
D12*
%TO.C,U15*%
X176500000Y-125535000D03*
X176500000Y-124265000D03*
D13*
X176512500Y-123130000D03*
D12*
X176500000Y-121725000D03*
X170500000Y-121725000D03*
X170500000Y-122995000D03*
X170500000Y-124265000D03*
X170500000Y-125535000D03*
%TD*%
D14*
%TO.C,C15*%
X185993100Y-48215600D03*
D15*
X186000000Y-45784400D03*
%TD*%
D16*
%TO.C,R61*%
X145940000Y-86797500D03*
X145940000Y-89102500D03*
%TD*%
%TO.C,R45*%
X179000000Y-111750000D03*
X179000000Y-114055000D03*
%TD*%
D17*
%TO.C,Q1*%
X132997500Y-61188141D03*
X132997500Y-63088141D03*
X135197500Y-62138141D03*
%TD*%
D14*
%TO.C,C20*%
X123243100Y-101390600D03*
D15*
X123250000Y-98959400D03*
%TD*%
D16*
%TO.C,R67*%
X123130000Y-86797500D03*
X123130000Y-89102500D03*
%TD*%
%TO.C,R46*%
X179000000Y-106768294D03*
X179000000Y-109073294D03*
%TD*%
%TO.C,R63*%
X138940000Y-86797500D03*
X138940000Y-89102500D03*
%TD*%
D18*
%TO.C,C2*%
X199284400Y-69743100D03*
D19*
X201715600Y-69750000D03*
%TD*%
D17*
%TO.C,Q7*%
X132897500Y-76388141D03*
X132897500Y-78288141D03*
X135097500Y-77338141D03*
%TD*%
D20*
%TO.C,R43*%
X161548666Y-101607500D03*
X163853666Y-101607500D03*
%TD*%
D21*
%TO.C,U14*%
X180050000Y-127412500D03*
X180700000Y-127412500D03*
X181350000Y-127412500D03*
D22*
X182000001Y-127412500D03*
D21*
X182650000Y-127412500D03*
X183300000Y-127412500D03*
X183950000Y-127412500D03*
X184600000Y-127412500D03*
X185250000Y-127412500D03*
X185900000Y-127412500D03*
X185900000Y-121587500D03*
X185250000Y-121587500D03*
X184600000Y-121587500D03*
X183950000Y-121587500D03*
X183300000Y-121587500D03*
X182650000Y-121587500D03*
X182000000Y-121587500D03*
D22*
X181350001Y-121587500D03*
X180700001Y-121587500D03*
X180050001Y-121587500D03*
%TD*%
D10*
%TO.C,Y4*%
X180020782Y-131758238D03*
D11*
X189932500Y-131750000D03*
%TD*%
D20*
%TO.C,R41*%
X161548666Y-111607500D03*
X163853666Y-111607500D03*
%TD*%
D18*
%TO.C,C3*%
X199250000Y-72000000D03*
D19*
X201681200Y-72006900D03*
%TD*%
D23*
%TO.C,D5*%
X137729258Y-78778141D03*
X139979258Y-78778141D03*
%TD*%
D17*
%TO.C,Q5*%
X132897500Y-71638141D03*
X132897500Y-73538141D03*
X135097500Y-72588141D03*
%TD*%
D24*
%TO.C,D9*%
X197000000Y-52000000D03*
X194750000Y-52000000D03*
%TD*%
D16*
%TO.C,R65*%
X130130000Y-86797500D03*
X130130000Y-89102500D03*
%TD*%
D10*
%TO.C,Y2*%
X155270782Y-131758238D03*
D11*
X165182500Y-131750000D03*
%TD*%
D25*
%TO.C,U6*%
X127212405Y-98885000D03*
X127212405Y-100155000D03*
D26*
X127199905Y-101290000D03*
D25*
X127212405Y-102695000D03*
X133212405Y-102695000D03*
X133212405Y-101425000D03*
X133212405Y-100155000D03*
X133212405Y-98885000D03*
%TD*%
D12*
%TO.C,U5*%
X152000000Y-125405000D03*
X152000000Y-124135000D03*
D13*
X152012500Y-123000000D03*
D12*
X152000000Y-121595000D03*
X146000000Y-121595000D03*
X146000000Y-122865000D03*
X146000000Y-124135000D03*
X146000000Y-125405000D03*
%TD*%
D23*
%TO.C,D6*%
X153250000Y-84450000D03*
X155500000Y-84450000D03*
%TD*%
D27*
%TO.C,D1*%
X167000000Y-63000000D03*
X162000000Y-63000000D03*
%TD*%
D28*
%TO.C,Q13*%
X127697500Y-88900000D03*
X127697500Y-87000000D03*
X125497500Y-87950000D03*
%TD*%
D18*
%TO.C,C21*%
X136784400Y-99168100D03*
D19*
X139215600Y-99175000D03*
%TD*%
D29*
%TO.C,U2*%
X154175000Y-52400000D03*
X154175000Y-50700000D03*
X154175000Y-49000000D03*
D30*
X146425000Y-51775000D03*
X146425000Y-46225000D03*
D31*
X141175000Y-51775000D03*
X141175000Y-46225000D03*
D29*
X154175000Y-47300000D03*
X154175000Y-45600000D03*
%TD*%
D23*
%TO.C,D4*%
X137729258Y-73698141D03*
X139979258Y-73698141D03*
%TD*%
D17*
%TO.C,Q3*%
X132997500Y-66188141D03*
X132997500Y-68088141D03*
X135197500Y-67138141D03*
%TD*%
D32*
%TO.C,R28*%
X123902500Y-105187500D03*
X121597500Y-105187500D03*
%TD*%
D18*
%TO.C,C31*%
X137021900Y-115148100D03*
D19*
X139453100Y-115155000D03*
%TD*%
D12*
%TO.C,U9*%
X127237500Y-125405000D03*
X127237500Y-124135000D03*
D13*
X127250000Y-123000000D03*
D12*
X127237500Y-121595000D03*
X121237500Y-121595000D03*
X121237500Y-122865000D03*
X121237500Y-124135000D03*
X121237500Y-125405000D03*
%TD*%
D33*
%TO.C,U10*%
X157620000Y-109770000D03*
X157620000Y-108500000D03*
X157620000Y-107230000D03*
X157620000Y-105960000D03*
X157620000Y-104690000D03*
X157620000Y-103420000D03*
X157620000Y-102150000D03*
X152380000Y-102150000D03*
D34*
X152380000Y-103415000D03*
D33*
X152380000Y-104690000D03*
X152380000Y-105960000D03*
X152380000Y-107230000D03*
X152380000Y-108500000D03*
X152380000Y-109770000D03*
%TD*%
D35*
%TO.C,L1*%
X167000000Y-57125000D03*
X167000000Y-44875000D03*
%TD*%
D36*
%TO.C,U12*%
X154362500Y-78778141D03*
X154362500Y-76238141D03*
X154362500Y-73698141D03*
X154362500Y-71158141D03*
X154362500Y-68618141D03*
X154362500Y-66078141D03*
X154362500Y-63538141D03*
X154362500Y-60998141D03*
X144832500Y-60998141D03*
X144832500Y-63538141D03*
X144832500Y-66078141D03*
X144832500Y-68618141D03*
X144832500Y-71158141D03*
X144832500Y-73698141D03*
X144832500Y-76238141D03*
X144832500Y-78778141D03*
%TD*%
D18*
%TO.C,C10*%
X156284400Y-56993100D03*
D19*
X158715600Y-57000000D03*
%TD*%
D28*
%TO.C,Q9*%
X160100000Y-88950000D03*
X160100000Y-87050000D03*
X157900000Y-88000000D03*
%TD*%
D37*
%TO.C,F1*%
X192237500Y-47500000D03*
X189262500Y-47500000D03*
%TD*%
D21*
%TO.C,U8*%
X130575000Y-127412500D03*
X131225000Y-127412500D03*
X131875000Y-127412500D03*
D22*
X132525001Y-127412500D03*
D21*
X133175000Y-127412500D03*
X133825000Y-127412500D03*
X134475000Y-127412500D03*
X135125000Y-127412500D03*
X135775000Y-127412500D03*
X136425000Y-127412500D03*
X136425000Y-121587500D03*
X135775000Y-121587500D03*
X135125000Y-121587500D03*
X134475000Y-121587500D03*
X133825000Y-121587500D03*
X133175000Y-121587500D03*
X132525000Y-121587500D03*
D22*
X131875001Y-121587500D03*
X131225001Y-121587500D03*
X130575001Y-121587500D03*
%TD*%
D10*
%TO.C,Y3*%
X130520782Y-131758238D03*
D11*
X140432500Y-131750000D03*
%TD*%
D18*
%TO.C,C23*%
X121534400Y-108493100D03*
D19*
X123965600Y-108500000D03*
%TD*%
D28*
%TO.C,Q14*%
X120947500Y-88900000D03*
X120947500Y-87000000D03*
X118747500Y-87950000D03*
%TD*%
D23*
%TO.C,D8*%
X120722500Y-84450000D03*
X122972500Y-84450000D03*
%TD*%
D16*
%TO.C,R47*%
X179000000Y-101750000D03*
X179000000Y-104055000D03*
%TD*%
D14*
%TO.C,C30*%
X122493100Y-113965600D03*
D15*
X122500000Y-111534400D03*
%TD*%
D16*
%TO.C,R57*%
X162442500Y-86847500D03*
X162442500Y-89152500D03*
%TD*%
D32*
%TO.C,R29*%
X139055000Y-108000000D03*
X136750000Y-108000000D03*
%TD*%
D20*
%TO.C,R42*%
X161548666Y-106607500D03*
X163853666Y-106607500D03*
%TD*%
D23*
%TO.C,D7*%
X136532500Y-84450000D03*
X138782500Y-84450000D03*
%TD*%
D16*
%TO.C,R48*%
X179000000Y-96500000D03*
X179000000Y-98805000D03*
%TD*%
%TO.C,R23*%
X141782500Y-122347500D03*
X141782500Y-124652500D03*
%TD*%
D25*
%TO.C,U13*%
X127250000Y-111250000D03*
X127250000Y-112520000D03*
D26*
X127237500Y-113655000D03*
D25*
X127250000Y-115060000D03*
X133250000Y-115060000D03*
X133250000Y-113790000D03*
X133250000Y-112520000D03*
X133250000Y-111250000D03*
%TD*%
D18*
%TO.C,C32*%
X136870600Y-111250000D03*
D19*
X139301800Y-111256900D03*
%TD*%
D20*
%TO.C,R44*%
X161548666Y-96357500D03*
X163853666Y-96357500D03*
%TD*%
D38*
%TO.C,U1*%
X192950000Y-75500000D03*
X192150000Y-75500000D03*
X191350000Y-75500000D03*
X190550000Y-75500000D03*
X189750000Y-75500000D03*
X188950000Y-75500000D03*
X188150000Y-75500000D03*
X187350000Y-75500000D03*
D39*
X185700000Y-77150000D03*
D40*
X185700000Y-77937500D03*
D41*
X185700000Y-78762500D03*
D39*
X185700000Y-79550000D03*
X185700000Y-80350000D03*
X185700000Y-81150000D03*
X185700000Y-81950000D03*
X185700000Y-82750000D03*
D38*
X187350000Y-84400000D03*
X188150000Y-84400000D03*
X188950000Y-84400000D03*
D42*
X189762500Y-84400000D03*
D38*
X190550000Y-84400000D03*
X191350000Y-84400000D03*
X192150000Y-84400000D03*
X192950000Y-84400000D03*
D39*
X194600000Y-82750000D03*
X194600000Y-81950000D03*
X194600000Y-81150000D03*
X194600000Y-80350000D03*
X194600000Y-79550000D03*
X194600000Y-78750000D03*
X194600000Y-77950000D03*
X194600000Y-77150000D03*
%TD*%
D28*
%TO.C,Q10*%
X153235000Y-88850000D03*
X153235000Y-86950000D03*
X151035000Y-87900000D03*
%TD*%
%TO.C,Q11*%
X143507500Y-88900000D03*
X143507500Y-87000000D03*
X141307500Y-87950000D03*
%TD*%
D21*
%TO.C,U4*%
X155325000Y-127412500D03*
X155975000Y-127412500D03*
X156625000Y-127412500D03*
D22*
X157275001Y-127412500D03*
D21*
X157925000Y-127412500D03*
X158575000Y-127412500D03*
X159225000Y-127412500D03*
X159875000Y-127412500D03*
X160525000Y-127412500D03*
X161175000Y-127412500D03*
X161175000Y-121587500D03*
X160525000Y-121587500D03*
X159875000Y-121587500D03*
X159225000Y-121587500D03*
X158575000Y-121587500D03*
X157925000Y-121587500D03*
X157275000Y-121587500D03*
D22*
X156625001Y-121587500D03*
X155975001Y-121587500D03*
X155325001Y-121587500D03*
%TD*%
D25*
%TO.C,U7*%
X127250000Y-105000000D03*
X127250000Y-106270000D03*
D26*
X127237500Y-107405000D03*
D25*
X127250000Y-108810000D03*
X133250000Y-108810000D03*
X133250000Y-107540000D03*
X133250000Y-106270000D03*
X133250000Y-105000000D03*
%TD*%
D18*
%TO.C,C24*%
X136784400Y-105743100D03*
D19*
X139215600Y-105750000D03*
%TD*%
D18*
%TO.C,CA5*%
X152284400Y-111634151D03*
D19*
X154715600Y-111641051D03*
%TD*%
D16*
%TO.C,R59*%
X155517500Y-86797500D03*
X155517500Y-89102500D03*
%TD*%
D28*
%TO.C,Q12*%
X136757500Y-88900000D03*
X136757500Y-87000000D03*
X134557500Y-87950000D03*
%TD*%
D16*
%TO.C,R32*%
X117032500Y-122347500D03*
X117032500Y-124652500D03*
%TD*%
%TO.C,R73*%
X166282500Y-122597500D03*
X166282500Y-124902500D03*
%TD*%
D43*
%TO.C,U11*%
X166720000Y-96555000D03*
X166720000Y-99095000D03*
X166720000Y-101635000D03*
X166720000Y-104175000D03*
X166720000Y-106715000D03*
X166720000Y-109255000D03*
X166720000Y-111795000D03*
X166720000Y-114335000D03*
X176250000Y-114335000D03*
X176250000Y-111795000D03*
X176250000Y-109255000D03*
X176250000Y-106715000D03*
X176250000Y-104175000D03*
X176250000Y-101635000D03*
X176250000Y-99095000D03*
X176250000Y-96555000D03*
%TD*%
D23*
%TO.C,D2*%
X137729258Y-63538141D03*
X139979258Y-63538141D03*
%TD*%
%TO.C,D3*%
X137729258Y-68618141D03*
X139979258Y-68618141D03*
%TD*%
M02*
