%TF.GenerationSoftware,KiCad,Pcbnew,9.0.2*%
%TF.CreationDate,2025-09-23T15:25:02+08:00*%
%TF.ProjectId,VCU V3.2,56435520-5633-42e3-922e-6b696361645f,rev?*%
%TF.SameCoordinates,Original*%
%TF.FileFunction,Soldermask,Bot*%
%TF.FilePolarity,Negative*%
%FSLAX46Y46*%
G04 Gerber Fmt 4.6, Leading zero omitted, Abs format (unit mm)*
G04 Created by KiCad (PCBNEW 9.0.2) date 2025-09-23 15:25:02*
%MOMM*%
%LPD*%
G01*
G04 APERTURE LIST*
G04 Aperture macros list*
%AMRoundRect*
0 Rectangle with rounded corners*
0 $1 Rounding radius*
0 $2 $3 $4 $5 $6 $7 $8 $9 X,Y pos of 4 corners*
0 Add a 4 corners polygon primitive as box body*
4,1,4,$2,$3,$4,$5,$6,$7,$8,$9,$2,$3,0*
0 Add four circle primitives for the rounded corners*
1,1,$1+$1,$2,$3*
1,1,$1+$1,$4,$5*
1,1,$1+$1,$6,$7*
1,1,$1+$1,$8,$9*
0 Add four rect primitives between the rounded corners*
20,1,$1+$1,$2,$3,$4,$5,0*
20,1,$1+$1,$4,$5,$6,$7,0*
20,1,$1+$1,$6,$7,$8,$9,0*
20,1,$1+$1,$8,$9,$2,$3,0*%
G04 Aperture macros list end*
%ADD10C,2.400000*%
%ADD11C,2.000000*%
%ADD12O,7.000000X4.000000*%
%ADD13RoundRect,0.250000X0.725000X-0.600000X0.725000X0.600000X-0.725000X0.600000X-0.725000X-0.600000X0*%
%ADD14O,1.950000X1.700000*%
%ADD15R,1.600000X2.000000*%
%ADD16O,1.600000X3.000000*%
%ADD17R,2.000000X2.000000*%
%ADD18O,5.600000X2.500000*%
%ADD19O,6.000000X3.500000*%
%ADD20O,8.000000X2.500000*%
%ADD21C,2.600000*%
%ADD22O,6.000000X3.000000*%
%ADD23RoundRect,0.305575X0.460025X0.412525X-0.460025X0.412525X-0.460025X-0.412525X0.460025X-0.412525X0*%
%ADD24RoundRect,0.308511X0.457089X0.416489X-0.457089X0.416489X-0.457089X-0.416489X0.457089X-0.416489X0*%
%ADD25RoundRect,0.305575X-0.460025X-0.412525X0.460025X-0.412525X0.460025X0.412525X-0.460025X0.412525X0*%
%ADD26RoundRect,0.308511X-0.457089X-0.416489X0.457089X-0.416489X0.457089X0.416489X-0.457089X0.416489X0*%
%ADD27RoundRect,0.278125X0.474375X0.389375X-0.474375X0.389375X-0.474375X-0.389375X0.474375X-0.389375X0*%
%ADD28RoundRect,0.278125X-0.474375X-0.389375X0.474375X-0.389375X0.474375X0.389375X-0.474375X0.389375X0*%
%ADD29RoundRect,0.305575X0.412525X-0.460025X0.412525X0.460025X-0.412525X0.460025X-0.412525X-0.460025X0*%
%ADD30RoundRect,0.308511X0.416489X-0.457089X0.416489X0.457089X-0.416489X0.457089X-0.416489X-0.457089X0*%
%ADD31RoundRect,0.278125X0.389375X-0.474375X0.389375X0.474375X-0.389375X0.474375X-0.389375X-0.474375X0*%
%ADD32R,2.275000X1.150000*%
%ADD33R,2.275000X1.000000*%
%ADD34R,2.275000X1.060000*%
%ADD35R,1.775000X0.650000*%
%ADD36R,4.125000X4.700000*%
%ADD37R,1.825000X0.700000*%
%ADD38RoundRect,0.278125X-0.389375X0.474375X-0.389375X-0.474375X0.389375X-0.474375X0.389375X0.474375X0*%
%ADD39RoundRect,0.305575X-0.412525X0.460025X-0.412525X-0.460025X0.412525X-0.460025X0.412525X0.460025X0*%
%ADD40RoundRect,0.308511X-0.416489X0.457089X-0.416489X-0.457089X0.416489X-0.457089X0.416489X0.457089X0*%
G04 APERTURE END LIST*
%TO.C,Q4*%
G36*
X126700000Y-60325000D02*
G01*
X124425000Y-60325000D01*
X124425000Y-63535000D01*
X126700000Y-63535000D01*
X126700000Y-60325000D01*
G37*
%TO.C,Q2*%
G36*
X126700000Y-54025000D02*
G01*
X124425000Y-54025000D01*
X124425000Y-57235000D01*
X126700000Y-57235000D01*
X126700000Y-54025000D01*
G37*
%TO.C,Q6*%
G36*
X126700000Y-66825000D02*
G01*
X124425000Y-66825000D01*
X124425000Y-70035000D01*
X126700000Y-70035000D01*
X126700000Y-66825000D01*
G37*
%TO.C,Q8*%
G36*
X126700000Y-73180000D02*
G01*
X124425000Y-73180000D01*
X124425000Y-76390000D01*
X126700000Y-76390000D01*
X126700000Y-73180000D01*
G37*
%TD*%
D10*
%TO.C,Y1*%
X185110000Y-69450000D03*
X190190000Y-69450000D03*
%TD*%
D11*
%TO.C,SW1*%
X202710000Y-118210000D03*
X202710000Y-124710000D03*
X198210000Y-118210000D03*
X198210000Y-124710000D03*
%TD*%
D12*
%TO.C,H2*%
X200494000Y-45750000D03*
%TD*%
D13*
%TO.C,J4*%
X202225000Y-81500000D03*
D14*
X202225000Y-79000000D03*
X202225000Y-76500000D03*
%TD*%
D15*
%TO.C,C14*%
X179500000Y-48250000D03*
D16*
X179500000Y-45250000D03*
%TD*%
D10*
%TO.C,Y4*%
X182460000Y-131750000D03*
X187540000Y-131750000D03*
%TD*%
D13*
%TO.C,J5*%
X201975000Y-99750000D03*
D14*
X201975000Y-97250000D03*
X201975000Y-94750000D03*
X201975000Y-92250000D03*
%TD*%
D12*
%TO.C,H3*%
X117639500Y-131856000D03*
%TD*%
D10*
%TO.C,Y2*%
X157710000Y-131750000D03*
X162790000Y-131750000D03*
%TD*%
D17*
%TO.C,J3*%
X198460000Y-107170000D03*
D11*
X201000000Y-107170000D03*
X198460000Y-109710000D03*
X201000000Y-109710000D03*
X198460000Y-112250000D03*
X201000000Y-112250000D03*
%TD*%
D10*
%TO.C,Y3*%
X132960000Y-131750000D03*
X138040000Y-131750000D03*
%TD*%
D12*
%TO.C,H4*%
X200697000Y-131856000D03*
%TD*%
D15*
%TO.C,C8*%
X131000000Y-50500000D03*
D16*
X131000000Y-47500000D03*
%TD*%
D18*
%TO.C,J2*%
X102532800Y-95293000D03*
D19*
X94132800Y-131493000D03*
D20*
X103532800Y-135493000D03*
D21*
X109132800Y-103018000D03*
X109132800Y-107168000D03*
X109132800Y-110498000D03*
X109132800Y-113828000D03*
X109132800Y-117133000D03*
X109132800Y-120488000D03*
X109132800Y-123818000D03*
X109132800Y-127968000D03*
X104932800Y-103018000D03*
X104932800Y-107168000D03*
X104932800Y-110498000D03*
X104932800Y-113828000D03*
X104932800Y-117133000D03*
X104932800Y-120488000D03*
X104932800Y-123818000D03*
X104932800Y-127968000D03*
X100732800Y-103018000D03*
X100732800Y-107168000D03*
X100732800Y-110498000D03*
X100732800Y-113828000D03*
X100732800Y-117133000D03*
X100732800Y-120488000D03*
X100732800Y-123818000D03*
X100732800Y-127968000D03*
%TD*%
D12*
%TO.C,H1*%
X117468000Y-45750000D03*
%TD*%
D20*
%TO.C,J1*%
X103567600Y-42024000D03*
D22*
X94167600Y-46424000D03*
D18*
X102567600Y-82024000D03*
D21*
X109167600Y-49499000D03*
X109167600Y-53649000D03*
X109167600Y-56979000D03*
X109167600Y-60309000D03*
X109167600Y-63614000D03*
X109167600Y-66969000D03*
X109167600Y-70299000D03*
X109167600Y-74449000D03*
X104967600Y-49499000D03*
X104967600Y-53649000D03*
X104967600Y-56979000D03*
X104967600Y-60309000D03*
X104967600Y-63614000D03*
X104967600Y-66969000D03*
X104967600Y-70299000D03*
X104967600Y-74449000D03*
X100767600Y-49499000D03*
X100767600Y-53649000D03*
X100767600Y-56979000D03*
X100767600Y-60309000D03*
X100767600Y-63614000D03*
X100767600Y-66969000D03*
X100767600Y-70299000D03*
X100767600Y-74449000D03*
%TD*%
D23*
%TO.C,C16*%
X156715600Y-134493100D03*
D24*
X154284400Y-134500000D03*
%TD*%
D25*
%TO.C,C34*%
X188534400Y-134500000D03*
D26*
X190965600Y-134493100D03*
%TD*%
D25*
%TO.C,C27*%
X139284400Y-134506900D03*
D26*
X141715600Y-134500000D03*
%TD*%
D27*
%TO.C,R8*%
X139978517Y-60855641D03*
X137673517Y-60855641D03*
%TD*%
%TO.C,R15*%
X144750000Y-73712784D03*
X142445000Y-73712784D03*
%TD*%
D28*
%TO.C,R34*%
X145347500Y-105032500D03*
X147652500Y-105032500D03*
%TD*%
D29*
%TO.C,C7*%
X201436900Y-122675600D03*
D30*
X201430000Y-120244400D03*
%TD*%
D29*
%TO.C,C35*%
X173506900Y-125681200D03*
D30*
X173500000Y-123250000D03*
%TD*%
D31*
%TO.C,R51*%
X149630000Y-73540641D03*
X149630000Y-71235641D03*
%TD*%
D27*
%TO.C,R13*%
X144750000Y-71141355D03*
X142445000Y-71141355D03*
%TD*%
D32*
%TO.C,Q4*%
X125562500Y-60900000D03*
D33*
X125562500Y-61975000D03*
D34*
X125562500Y-63005000D03*
D35*
X125312500Y-64480000D03*
D36*
X121337500Y-62575000D03*
D37*
X118862500Y-64570000D03*
X118862500Y-63240000D03*
X118862500Y-61910000D03*
X118862500Y-60580000D03*
%TD*%
D32*
%TO.C,Q2*%
X125562500Y-54600000D03*
D33*
X125562500Y-55675000D03*
D34*
X125562500Y-56705000D03*
D35*
X125312500Y-58180000D03*
D36*
X121337500Y-56275000D03*
D37*
X118862500Y-58270000D03*
X118862500Y-56940000D03*
X118862500Y-55610000D03*
X118862500Y-54280000D03*
%TD*%
D23*
%TO.C,CA4*%
X147689717Y-96993100D03*
D24*
X145258517Y-97000000D03*
%TD*%
D31*
%TO.C,R25*%
X98000000Y-103000000D03*
X98000000Y-100695000D03*
%TD*%
D27*
%TO.C,R3*%
X188852500Y-66667500D03*
X186547500Y-66667500D03*
%TD*%
%TO.C,R36*%
X147626617Y-95000000D03*
X145321617Y-95000000D03*
%TD*%
%TO.C,R19*%
X144750000Y-78855641D03*
X142445000Y-78855641D03*
%TD*%
D23*
%TO.C,CA2*%
X147715600Y-108993100D03*
D24*
X145284400Y-109000000D03*
%TD*%
D27*
%TO.C,R1*%
X167305000Y-117217500D03*
X165000000Y-117217500D03*
%TD*%
D23*
%TO.C,C18*%
X157652500Y-125525600D03*
D24*
X155221300Y-125532500D03*
%TD*%
D25*
%TO.C,CA1*%
X145284400Y-115006900D03*
D26*
X147715600Y-115000000D03*
%TD*%
D38*
%TO.C,R54*%
X151815000Y-66235641D03*
X151815000Y-68540641D03*
%TD*%
D27*
%TO.C,R71*%
X186152500Y-134467500D03*
X183847500Y-134467500D03*
%TD*%
D25*
%TO.C,C17*%
X163784400Y-134506900D03*
D26*
X166215600Y-134500000D03*
%TD*%
D31*
%TO.C,R64*%
X138907500Y-89081017D03*
X138907500Y-86776017D03*
%TD*%
D39*
%TO.C,C38*%
X194493100Y-86982000D03*
D40*
X194500000Y-89413200D03*
%TD*%
D38*
%TO.C,R72*%
X179967500Y-121447500D03*
X179967500Y-123752500D03*
%TD*%
D27*
%TO.C,R30*%
X136750000Y-134500000D03*
X134445000Y-134500000D03*
%TD*%
D39*
%TO.C,C37*%
X196986200Y-87050800D03*
D40*
X196993100Y-89482000D03*
%TD*%
D28*
%TO.C,R40*%
X145347500Y-93000000D03*
X147652500Y-93000000D03*
%TD*%
D23*
%TO.C,C26*%
X131965600Y-134500000D03*
D24*
X129534400Y-134506900D03*
%TD*%
D28*
%TO.C,R18*%
X137695000Y-78920641D03*
X140000000Y-78920641D03*
%TD*%
%TO.C,R35*%
X145347500Y-99037104D03*
X147652500Y-99037104D03*
%TD*%
D29*
%TO.C,C22*%
X187763800Y-89431200D03*
D30*
X187756900Y-87000000D03*
%TD*%
D27*
%TO.C,R9*%
X144750000Y-65998498D03*
X142445000Y-65998498D03*
%TD*%
D29*
%TO.C,C1*%
X190006900Y-89465600D03*
D30*
X190000000Y-87034400D03*
%TD*%
D28*
%TO.C,R33*%
X145347500Y-111032500D03*
X147652500Y-111032500D03*
%TD*%
D31*
%TO.C,R68*%
X123130000Y-89102500D03*
X123130000Y-86797500D03*
%TD*%
%TO.C,R52*%
X149630000Y-78540641D03*
X149630000Y-76235641D03*
%TD*%
D29*
%TO.C,C19*%
X149256900Y-125465600D03*
D30*
X149250000Y-123034400D03*
%TD*%
D27*
%TO.C,R12*%
X140000000Y-66000000D03*
X137695000Y-66000000D03*
%TD*%
%TO.C,R24*%
X115902500Y-102967500D03*
X113597500Y-102967500D03*
%TD*%
D31*
%TO.C,R50*%
X149630000Y-68540641D03*
X149630000Y-66235641D03*
%TD*%
D27*
%TO.C,R69*%
X197027500Y-51967500D03*
X194722500Y-51967500D03*
%TD*%
%TO.C,R20*%
X139978517Y-76282410D03*
X137673517Y-76282410D03*
%TD*%
%TO.C,R7*%
X144750000Y-63427070D03*
X142445000Y-63427070D03*
%TD*%
%TO.C,R26*%
X115902500Y-107217500D03*
X113597500Y-107217500D03*
%TD*%
D31*
%TO.C,R49*%
X149630000Y-63540641D03*
X149630000Y-61235641D03*
%TD*%
D29*
%TO.C,C4*%
X185513800Y-89431200D03*
D30*
X185506900Y-87000000D03*
%TD*%
D23*
%TO.C,C29*%
X133215600Y-125493100D03*
D24*
X130784400Y-125500000D03*
%TD*%
D38*
%TO.C,R58*%
X153217500Y-86797500D03*
X153217500Y-89102500D03*
%TD*%
%TO.C,R27*%
X97967500Y-107097500D03*
X97967500Y-109402500D03*
%TD*%
D28*
%TO.C,R37*%
X145347500Y-113032500D03*
X147652500Y-113032500D03*
%TD*%
D38*
%TO.C,R66*%
X120815000Y-86797500D03*
X120815000Y-89102500D03*
%TD*%
D29*
%TO.C,C28*%
X124653650Y-125715600D03*
D30*
X124646750Y-123284400D03*
%TD*%
D27*
%TO.C,R17*%
X144750000Y-76284212D03*
X142445000Y-76284212D03*
%TD*%
%TO.C,R31*%
X133152500Y-123467500D03*
X130847500Y-123467500D03*
%TD*%
D28*
%TO.C,R10*%
X137673517Y-68634025D03*
X139978517Y-68634025D03*
%TD*%
D31*
%TO.C,R60*%
X155485000Y-89081017D03*
X155485000Y-86776017D03*
%TD*%
D32*
%TO.C,Q6*%
X125562500Y-67400000D03*
D33*
X125562500Y-68475000D03*
D34*
X125562500Y-69505000D03*
D35*
X125312500Y-70980000D03*
D36*
X121337500Y-69075000D03*
D37*
X118862500Y-71070000D03*
X118862500Y-69740000D03*
X118862500Y-68410000D03*
X118862500Y-67080000D03*
%TD*%
D27*
%TO.C,R38*%
X147652500Y-100972619D03*
X145347500Y-100972619D03*
%TD*%
D23*
%TO.C,C33*%
X181465600Y-134493100D03*
D24*
X179034400Y-134500000D03*
%TD*%
D32*
%TO.C,Q8*%
X125562500Y-73755000D03*
D33*
X125562500Y-74830000D03*
D34*
X125562500Y-75860000D03*
D35*
X125312500Y-77335000D03*
D36*
X121337500Y-75430000D03*
D37*
X118862500Y-77425000D03*
X118862500Y-76095000D03*
X118862500Y-74765000D03*
X118862500Y-73435000D03*
%TD*%
D38*
%TO.C,R62*%
X136625000Y-86797500D03*
X136625000Y-89102500D03*
%TD*%
D23*
%TO.C,CA3*%
X147715600Y-102997704D03*
D24*
X145284400Y-103004604D03*
%TD*%
D28*
%TO.C,R6*%
X137695000Y-63420641D03*
X140000000Y-63420641D03*
%TD*%
D27*
%TO.C,R21*%
X161402500Y-134467500D03*
X159097500Y-134467500D03*
%TD*%
%TO.C,R11*%
X144750000Y-68569927D03*
X142445000Y-68569927D03*
%TD*%
D25*
%TO.C,C5*%
X191234400Y-66706900D03*
D26*
X193665600Y-66700000D03*
%TD*%
D28*
%TO.C,R2*%
X170195000Y-118000000D03*
X172500000Y-118000000D03*
%TD*%
D27*
%TO.C,R22*%
X157652500Y-123500000D03*
X155347500Y-123500000D03*
%TD*%
D31*
%TO.C,R74*%
X189032500Y-126152500D03*
X189032500Y-123847500D03*
%TD*%
D23*
%TO.C,C6*%
X184165600Y-66693100D03*
D24*
X181734400Y-66700000D03*
%TD*%
D38*
%TO.C,R53*%
X151815000Y-61235641D03*
X151815000Y-63540641D03*
%TD*%
D27*
%TO.C,R16*%
X139978517Y-71140154D03*
X137673517Y-71140154D03*
%TD*%
%TO.C,R39*%
X147652500Y-106967500D03*
X145347500Y-106967500D03*
%TD*%
D29*
%TO.C,C25*%
X192263800Y-89431200D03*
D30*
X192256900Y-87000000D03*
%TD*%
D28*
%TO.C,R14*%
X137695000Y-73778385D03*
X140000000Y-73778385D03*
%TD*%
D27*
%TO.C,R5*%
X144750000Y-60855641D03*
X142445000Y-60855641D03*
%TD*%
D38*
%TO.C,R56*%
X151815000Y-76235641D03*
X151815000Y-78540641D03*
%TD*%
D23*
%TO.C,C36*%
X182465600Y-125993100D03*
D24*
X180034400Y-126000000D03*
%TD*%
D38*
%TO.C,R4*%
X199397500Y-120307500D03*
X199397500Y-122612500D03*
%TD*%
%TO.C,R55*%
X151815000Y-71235641D03*
X151815000Y-73540641D03*
%TD*%
G36*
X110417254Y-49385220D02*
G01*
X110473926Y-49426087D01*
X110499507Y-49491105D01*
X110499899Y-49499899D01*
X110500000Y-49500000D01*
X131876000Y-49500000D01*
X131943039Y-49519685D01*
X131988794Y-49572489D01*
X132000000Y-49624000D01*
X132000000Y-53626000D01*
X131980315Y-53693039D01*
X131927511Y-53738794D01*
X131876000Y-53750000D01*
X126624000Y-53750000D01*
X126556961Y-53730315D01*
X126511206Y-53677511D01*
X126500000Y-53626000D01*
X126500000Y-53500000D01*
X110500000Y-53500000D01*
X110499103Y-53500896D01*
X110480315Y-53564882D01*
X110427511Y-53610637D01*
X110358353Y-53620581D01*
X110294797Y-53591556D01*
X110257023Y-53532778D01*
X110254383Y-53522036D01*
X110252383Y-53511982D01*
X110250000Y-53487789D01*
X110250000Y-49512210D01*
X110252383Y-49488017D01*
X110254383Y-49477963D01*
X110286769Y-49416053D01*
X110347485Y-49381479D01*
X110417254Y-49385220D01*
G37*
G36*
X113765677Y-62519685D02*
G01*
X113786319Y-62536319D01*
X118000000Y-66750000D01*
X119626000Y-66750000D01*
X119693039Y-66769685D01*
X119738794Y-66822489D01*
X119750000Y-66874000D01*
X119750000Y-71376000D01*
X119730315Y-71443039D01*
X119677511Y-71488794D01*
X119626000Y-71500000D01*
X118051362Y-71500000D01*
X117984323Y-71480315D01*
X117963681Y-71463681D01*
X111250000Y-64750000D01*
X103874000Y-64750000D01*
X103806961Y-64730315D01*
X103761206Y-64677511D01*
X103750000Y-64626000D01*
X103750000Y-62624000D01*
X103769685Y-62556961D01*
X103822489Y-62511206D01*
X103874000Y-62500000D01*
X113698638Y-62500000D01*
X113765677Y-62519685D01*
G37*
G36*
X131943039Y-53269685D02*
G01*
X131988794Y-53322489D01*
X132000000Y-53374000D01*
X132000000Y-76376000D01*
X131980315Y-76443039D01*
X131927511Y-76488794D01*
X131876000Y-76500000D01*
X126624000Y-76500000D01*
X126556961Y-76480315D01*
X126511206Y-76427511D01*
X126500000Y-76376000D01*
X126500000Y-73624000D01*
X126519685Y-73556961D01*
X126572489Y-73511206D01*
X126624000Y-73500000D01*
X128500000Y-73500000D01*
X128500000Y-70000000D01*
X126624000Y-70000000D01*
X126556961Y-69980315D01*
X126511206Y-69927511D01*
X126500000Y-69876000D01*
X126500000Y-67124000D01*
X126519685Y-67056961D01*
X126572489Y-67011206D01*
X126624000Y-67000000D01*
X128500000Y-67000000D01*
X128500000Y-63500000D01*
X126624000Y-63500000D01*
X126556961Y-63480315D01*
X126511206Y-63427511D01*
X126500000Y-63376000D01*
X126500000Y-60624000D01*
X126519685Y-60556961D01*
X126572489Y-60511206D01*
X126624000Y-60500000D01*
X128500000Y-60500000D01*
X128500000Y-57000000D01*
X126624000Y-57000000D01*
X126556961Y-56980315D01*
X126511206Y-56927511D01*
X126500000Y-56876000D01*
X126500000Y-53500000D01*
X126499103Y-53499103D01*
X126435117Y-53480315D01*
X126389362Y-53427511D01*
X126379418Y-53358353D01*
X126408443Y-53294797D01*
X126467221Y-53257023D01*
X126477966Y-53254382D01*
X126488021Y-53252382D01*
X126512211Y-53250000D01*
X131876000Y-53250000D01*
X131943039Y-53269685D01*
G37*
G36*
X110443039Y-48019685D02*
G01*
X110488794Y-48072489D01*
X110500000Y-48124000D01*
X110500000Y-49500000D01*
X110626000Y-49500000D01*
X110693039Y-49519685D01*
X110738794Y-49572489D01*
X110750000Y-49624000D01*
X110750000Y-53376000D01*
X110730315Y-53443039D01*
X110677511Y-53488794D01*
X110626000Y-53500000D01*
X110500000Y-53500000D01*
X110500000Y-54876000D01*
X110480315Y-54943039D01*
X110427511Y-54988794D01*
X110376000Y-55000000D01*
X99624000Y-55000000D01*
X99556961Y-54980315D01*
X99511206Y-54927511D01*
X99500000Y-54876000D01*
X99500000Y-48124000D01*
X99519685Y-48056961D01*
X99572489Y-48011206D01*
X99624000Y-48000000D01*
X110376000Y-48000000D01*
X110443039Y-48019685D01*
G37*
G36*
X110765677Y-65769685D02*
G01*
X110786319Y-65786319D01*
X118000000Y-73000000D01*
X119126000Y-73000000D01*
X119193039Y-73019685D01*
X119238794Y-73072489D01*
X119250000Y-73124000D01*
X119250000Y-77626000D01*
X119230315Y-77693039D01*
X119177511Y-77738794D01*
X119126000Y-77750000D01*
X118051362Y-77750000D01*
X117984323Y-77730315D01*
X117963681Y-77713681D01*
X112036319Y-71786319D01*
X112002834Y-71724996D01*
X112000000Y-71698638D01*
X112000000Y-70250000D01*
X110000000Y-68250000D01*
X103874000Y-68250000D01*
X103806961Y-68230315D01*
X103761206Y-68177511D01*
X103750000Y-68126000D01*
X103750000Y-65874000D01*
X103769685Y-65806961D01*
X103822489Y-65761206D01*
X103874000Y-65750000D01*
X110698638Y-65750000D01*
X110765677Y-65769685D01*
G37*
G36*
X116765677Y-59019685D02*
G01*
X116786319Y-59036319D01*
X118000000Y-60250000D01*
X119626000Y-60250000D01*
X119693039Y-60269685D01*
X119738794Y-60322489D01*
X119750000Y-60374000D01*
X119750000Y-64876000D01*
X119730315Y-64943039D01*
X119677511Y-64988794D01*
X119626000Y-65000000D01*
X118051362Y-65000000D01*
X117984323Y-64980315D01*
X117963681Y-64963681D01*
X114500000Y-61500000D01*
X103874000Y-61500000D01*
X103806961Y-61480315D01*
X103761206Y-61427511D01*
X103750000Y-61376000D01*
X103750000Y-59124000D01*
X103769685Y-59056961D01*
X103822489Y-59011206D01*
X103874000Y-59000000D01*
X116698638Y-59000000D01*
X116765677Y-59019685D01*
G37*
G36*
X119693039Y-54019685D02*
G01*
X119738794Y-54072489D01*
X119750000Y-54124000D01*
X119750000Y-58626000D01*
X119730315Y-58693039D01*
X119677511Y-58738794D01*
X119626000Y-58750000D01*
X117801362Y-58750000D01*
X117734323Y-58730315D01*
X117713681Y-58713681D01*
X117000000Y-58000000D01*
X103874000Y-58000000D01*
X103806961Y-57980315D01*
X103761206Y-57927511D01*
X103750000Y-57876000D01*
X103750000Y-55874000D01*
X103769685Y-55806961D01*
X103822489Y-55761206D01*
X103874000Y-55750000D01*
X110250000Y-55750000D01*
X110250000Y-55749999D01*
X111963681Y-54036319D01*
X112025004Y-54002834D01*
X112051362Y-54000000D01*
X119626000Y-54000000D01*
X119693039Y-54019685D01*
G37*
M02*
