M48
; DRILL file {KiCad 9.0.2} date 2025-09-23T15:25:04+0800
; FORMAT={-:-/ absolute / metric / decimal}
; #@! TF.CreationDate,2025-09-23T15:25:04+08:00
; #@! TF.GenerationSoftware,Kicad,Pcbnew,9.0.2
; #@! TF.FileFunction,Plated,1,2,PTH
FMAT,2
METRIC
; #@! TA.AperFunction,Plated,PTH,ViaDrill
T1C0.300
; #@! TA.AperFunction,Plated,PTH,ViaDrill
T2C0.400
; #@! TA.AperFunction,Plated,PTH,ViaDrill
T3C0.500
; #@! TA.AperFunction,Plated,PTH,ComponentDrill
T4C0.800
; #@! TA.AperFunction,Plated,PTH,ComponentDrill
T5C0.950
; #@! TA.AperFunction,Plated,PTH,ComponentDrill
T6C1.000
; #@! TA.AperFunction,Plated,PTH,ComponentDrill
T7C1.100
; #@! TA.AperFunction,Plated,PTH,ComponentDrill
T8C1.200
; #@! TA.AperFunction,Plated,PTH,ComponentDrill
T9C1.300
; #@! TA.AperFunction,Plated,PTH,ComponentDrill
T10C1.600
%
G90
G05
T1
X94.0Y-95.5
X94.0Y-97.5
X94.0Y-100.0
X94.0Y-102.0
X94.0Y-104.5
X94.0Y-107.0
X94.0Y-109.5
X94.0Y-112.0
X94.0Y-114.0
X94.0Y-116.0
X95.0Y-50.0
X95.0Y-55.0
X95.0Y-120.0
X95.0Y-125.0
X96.0Y-95.5
X97.0Y-62.0
X97.5Y-65.5
X97.5Y-92.5
X97.5Y-112.0
X97.5Y-114.0
X97.5Y-116.0
X97.968Y-109.402
X98.0Y-95.5
X98.0Y-100.695
X98.0Y-105.0
X98.5Y-62.0
X98.5Y-65.5
X100.0Y-45.0
X100.0Y-100.0
X102.5Y-85.0
X102.5Y-92.5
X102.5Y-100.0
X105.0Y-45.0
X105.0Y-100.0
X107.0Y-101.5
X107.0Y-104.0
X107.0Y-106.0
X107.0Y-108.0
X107.0Y-110.5
X107.0Y-114.0
X107.0Y-117.5
X107.0Y-122.0
X107.5Y-85.0
X107.5Y-92.5
X110.0Y-45.0
X110.0Y-95.0
X112.4Y-116.4
X112.4Y-117.4
X112.5Y-50.0
X112.5Y-52.5
X112.5Y-85.0
X112.5Y-92.5
X112.5Y-95.0
X112.5Y-100.0
X112.5Y-120.0
X112.5Y-122.5
X112.5Y-127.5
X112.5Y-130.0
X112.5Y-132.5
X112.5Y-135.0
X113.2Y-116.4
X114.5Y-109.0
X114.935Y-116.515
X114.96Y-117.36
X115.0Y-77.5
X115.0Y-95.0
X115.0Y-100.0
X115.0Y-115.0
X115.0Y-120.0
X115.0Y-127.5
X117.2Y-117.8
X117.5Y-50.0
X117.5Y-52.5
X117.5Y-80.0
X117.5Y-85.0
X117.5Y-95.0
X117.5Y-100.0
X117.5Y-107.5
X117.5Y-110.0
X117.5Y-115.0
X117.5Y-120.0
X117.5Y-127.5
X118.4Y-117.8
X119.597Y-84.45
X119.6Y-117.8
X120.0Y-95.0
X120.0Y-100.0
X120.0Y-105.0
X120.0Y-107.5
X120.0Y-110.0
X120.0Y-120.0
X120.0Y-127.5
X120.8Y-117.8
X121.0Y-116.0
X121.597Y-105.188
X122.0Y-88.0
X122.0Y-117.8
X122.5Y-50.0
X122.5Y-52.5
X122.5Y-80.0
X122.5Y-95.0
X122.5Y-111.534
X122.5Y-120.0
X122.5Y-127.5
X122.5Y-132.5
X122.5Y-135.0
X123.13Y-89.102
X123.2Y-117.8
X123.966Y-108.5
X124.0Y-59.5
X124.0Y-65.75
X124.0Y-72.25
X124.647Y-123.284
X125.0Y-45.0
X125.0Y-89.0
X125.0Y-90.0
X125.0Y-95.0
X125.0Y-127.5
X125.0Y-130.0
X125.0Y-132.5
X125.0Y-135.0
X126.0Y-89.0
X126.0Y-90.0
X126.2Y-117.8
X127.0Y-90.0
X127.4Y-117.8
X127.5Y-50.0
X127.5Y-52.5
X127.5Y-80.0
X127.5Y-95.0
X127.5Y-120.0
X127.5Y-127.5
X127.5Y-135.0
X127.697Y-87.0
X128.0Y-90.0
X128.6Y-117.8
X129.5Y-101.75
X129.5Y-105.0
X129.5Y-106.0
X129.5Y-107.0
X129.5Y-108.0
X129.5Y-109.0
X129.5Y-112.5
X129.5Y-113.5
X129.6Y-117.8
X130.0Y-45.0
X130.0Y-93.5
X130.0Y-95.0
X130.0Y-96.5
X130.0Y-120.0
X130.13Y-82.8
X130.847Y-123.468
X131.0Y-100.0
X131.0Y-105.0
X131.0Y-106.0
X131.0Y-107.0
X131.0Y-108.0
X131.0Y-109.0
X131.0Y-111.5
X131.0Y-112.5
X131.0Y-113.5
X131.5Y-82.75
X132.0Y-96.5
X132.5Y-80.0
X132.5Y-85.5
X132.5Y-86.5
X132.5Y-87.5
X132.75Y-82.75
X132.898Y-73.538
X132.898Y-78.288
X132.998Y-63.088
X132.998Y-68.088
X133.153Y-123.468
X133.216Y-125.493
X133.5Y-85.5
X133.5Y-86.5
X133.5Y-93.5
X133.5Y-96.5
X134.0Y-82.75
X134.0Y-89.0
X134.0Y-90.0
X134.907Y-85.4
X135.0Y-45.0
X135.0Y-60.0
X135.0Y-65.0
X135.0Y-70.0
X135.0Y-75.0
X135.0Y-89.0
X135.0Y-90.0
X135.0Y-92.5
X135.097Y-72.588
X135.097Y-77.338
X135.197Y-62.138
X135.197Y-67.138
X135.25Y-82.75
X135.5Y-93.5
X135.5Y-96.5
X135.6Y-100.6
X135.75Y-109.25
X136.25Y-82.75
X137.022Y-115.148
X137.25Y-82.75
X137.729Y-63.538
X137.729Y-68.618
X137.729Y-73.698
X137.729Y-78.778
X137.8Y-88.0
X138.0Y-93.5
X138.0Y-96.5
X138.25Y-82.75
X138.907Y-88.95
X139.216Y-105.75
X139.25Y-82.75
X139.302Y-111.257
X139.453Y-115.155
X139.5Y-122.0
X139.5Y-125.0
X140.0Y-92.5
X140.0Y-95.0
X140.0Y-102.5
X140.4Y-120.6
X140.5Y-89.0
X140.5Y-90.0
X140.5Y-126.5
X141.2Y-118.575
X141.2Y-119.825
X141.5Y-89.0
X141.5Y-90.0
X141.5Y-114.0
X141.5Y-115.0
X141.782Y-122.347
X141.782Y-124.652
X142.0Y-126.5
X142.445Y-60.856
X142.445Y-65.998
X142.445Y-71.141
X142.445Y-76.284
X142.5Y-82.5
X142.5Y-90.0
X142.5Y-92.0
X142.5Y-95.0
X142.5Y-96.0
X142.5Y-97.0
X142.5Y-100.5
X142.5Y-103.0
X142.5Y-106.0
X142.5Y-107.0
X142.5Y-108.0
X142.5Y-114.0
X142.5Y-115.0
X142.5Y-135.0
X143.5Y-90.0
X143.5Y-92.0
X143.5Y-95.0
X143.5Y-96.0
X143.5Y-97.0
X143.5Y-100.5
X143.5Y-103.0
X143.5Y-106.0
X143.5Y-107.0
X143.5Y-108.0
X143.5Y-114.0
X143.5Y-115.0
X143.5Y-125.5
X143.5Y-126.5
X143.507Y-87.0
X144.5Y-90.0
X144.75Y-82.5
X145.0Y-126.5
X145.0Y-130.0
X145.0Y-132.5
X145.0Y-135.0
X145.259Y-97.0
X145.284Y-103.005
X145.284Y-115.007
X145.322Y-95.0
X145.347Y-106.968
X145.94Y-82.8
X146.5Y-126.5
X147.25Y-82.75
X147.5Y-85.5
X147.5Y-86.5
X147.5Y-87.5
X147.5Y-88.5
X147.5Y-89.5
X147.5Y-130.0
X147.5Y-132.5
X147.5Y-135.0
X148.5Y-82.75
X148.5Y-85.5
X148.5Y-86.5
X149.0Y-121.5
X149.25Y-100.0
X149.25Y-123.034
X149.257Y-125.466
X149.5Y-85.5
X149.5Y-86.5
X149.75Y-82.75
X150.0Y-90.0
X150.0Y-102.0
X150.0Y-105.0
X150.0Y-112.5
X150.0Y-115.0
X150.0Y-127.5
X150.0Y-130.0
X150.0Y-132.5
X150.0Y-135.0
X150.5Y-85.5
X150.5Y-86.5
X151.0Y-82.75
X151.0Y-92.0
X151.0Y-96.0
X151.2Y-85.0
X152.25Y-82.75
X152.5Y-97.5
X152.5Y-100.0
X152.5Y-115.0
X152.5Y-127.5
X152.5Y-135.0
X153.0Y-92.0
X153.0Y-96.0
X153.5Y-82.75
X154.284Y-134.5
X154.4Y-88.0
X154.75Y-82.75
X155.0Y-92.0
X155.0Y-95.5
X155.0Y-102.5
X155.0Y-105.5
X155.0Y-112.5
X155.0Y-115.0
X155.253Y-104.741
X155.347Y-123.5
X155.485Y-89.2
X155.5Y-107.25
X155.5Y-109.75
X156.0Y-82.75
X157.0Y-92.0
X157.0Y-95.5
X157.5Y-60.0
X157.5Y-62.5
X157.5Y-65.0
X157.5Y-67.5
X157.5Y-70.0
X157.5Y-72.5
X157.5Y-77.5
X157.5Y-80.0
X157.5Y-90.0
X157.5Y-97.5
X157.5Y-100.0
X157.5Y-112.5
X157.5Y-115.0
X157.67Y-125.572
X158.75Y-119.25
X159.0Y-92.0
X159.0Y-95.5
X159.2Y-120.0
X159.5Y-124.5
X160.0Y-60.0
X160.0Y-65.0
X160.0Y-67.5
X160.0Y-70.0
X160.0Y-72.5
X160.0Y-77.5
X160.0Y-80.0
X160.0Y-90.0
X160.0Y-97.5
X160.0Y-100.0
X160.0Y-105.0
X160.0Y-112.5
X160.0Y-115.0
X160.1Y-87.05
X160.829Y-120.149
X161.0Y-92.0
X162.442Y-84.6
X162.5Y-45.0
X162.5Y-52.5
X162.5Y-55.0
X162.5Y-57.5
X162.5Y-60.0
X162.5Y-65.0
X162.5Y-67.5
X162.5Y-97.5
X162.5Y-100.0
X162.5Y-105.0
X162.5Y-110.0
X162.5Y-115.0
X162.5Y-125.0
X162.5Y-127.5
X163.0Y-92.0
X164.0Y-121.25
X165.0Y-67.5
X165.0Y-72.5
X165.0Y-77.5
X165.0Y-80.0
X165.0Y-85.0
X165.0Y-87.5
X165.0Y-90.0
X165.0Y-92.0
X165.0Y-97.5
X165.0Y-100.0
X165.0Y-105.0
X165.0Y-110.0
X165.0Y-117.25
X165.0Y-121.0
X165.0Y-125.0
X165.0Y-127.5
X166.216Y-134.5
X166.282Y-122.597
X166.282Y-124.902
X166.72Y-99.095
X166.72Y-104.175
X166.72Y-109.255
X167.0Y-92.0
X167.5Y-50.0
X167.5Y-67.5
X167.5Y-72.5
X167.5Y-77.5
X167.5Y-80.0
X167.5Y-85.0
X167.5Y-87.5
X167.5Y-90.0
X167.5Y-127.5
X167.5Y-135.0
X169.0Y-92.0
X169.0Y-96.0
X170.0Y-50.0
X170.0Y-52.5
X170.0Y-55.0
X170.0Y-57.5
X170.0Y-60.0
X170.0Y-62.5
X170.0Y-65.0
X170.0Y-65.0
X170.0Y-67.5
X170.0Y-72.5
X170.0Y-77.5
X170.0Y-80.0
X170.0Y-85.0
X170.0Y-87.5
X170.0Y-90.0
X170.0Y-97.5
X170.0Y-100.0
X170.0Y-102.5
X170.0Y-105.0
X170.0Y-107.5
X170.0Y-110.0
X170.0Y-112.5
X170.0Y-115.0
X170.0Y-127.5
X170.0Y-130.0
X170.0Y-132.5
X170.0Y-135.0
X171.0Y-92.0
X171.0Y-96.0
X171.703Y-79.118
X171.75Y-91.0
X172.375Y-78.375
X172.375Y-92.0
X172.5Y-45.0
X172.5Y-50.0
X172.5Y-52.5
X172.5Y-55.0
X172.5Y-57.5
X172.5Y-60.0
X172.5Y-62.5
X172.5Y-65.0
X172.5Y-67.5
X172.5Y-72.5
X172.5Y-115.0
X172.5Y-117.949
X172.5Y-127.5
X172.5Y-130.0
X172.5Y-132.5
X172.5Y-135.0
X173.0Y-77.875
X173.0Y-91.0
X173.5Y-123.25
X173.625Y-79.625
X173.625Y-92.0
X175.0Y-45.0
X175.0Y-50.0
X175.0Y-52.5
X175.0Y-55.0
X175.0Y-57.5
X175.0Y-60.0
X175.0Y-62.5
X175.0Y-89.0
X175.0Y-90.0
X175.0Y-91.0
X175.0Y-92.0
X175.0Y-127.5
X175.0Y-130.0
X175.0Y-132.5
X175.0Y-135.0
X176.0Y-90.0
X176.0Y-91.0
X176.0Y-92.0
X176.25Y-96.555
X176.25Y-99.095
X176.25Y-101.635
X176.25Y-104.175
X176.25Y-106.715
X176.25Y-109.255
X176.25Y-111.795
X177.0Y-73.0
X177.0Y-74.0
X177.0Y-84.0
X177.0Y-85.0
X177.0Y-86.0
X177.5Y-50.0
X177.5Y-52.5
X177.5Y-55.0
X177.5Y-57.5
X177.5Y-60.0
X177.5Y-62.5
X177.5Y-67.5
X177.5Y-70.0
X177.5Y-127.5
X177.5Y-135.0
X178.0Y-73.0
X178.0Y-74.7
X178.0Y-75.5
X178.0Y-76.448
X178.0Y-77.25
X178.0Y-84.0
X178.0Y-85.0
X178.0Y-86.0
X178.0Y-87.0
X179.0Y-73.0
X179.0Y-74.0
X179.0Y-84.0
X179.0Y-85.0
X179.0Y-86.0
X179.0Y-87.0
X179.0Y-88.0
X179.0Y-91.0
X179.0Y-98.805
X179.0Y-104.055
X179.0Y-109.073
X179.0Y-114.0
X179.034Y-134.5
X179.25Y-92.625
X179.25Y-94.011
X180.0Y-50.0
X180.0Y-52.5
X180.0Y-55.0
X180.0Y-57.5
X180.0Y-60.0
X180.0Y-62.5
X180.0Y-74.0
X180.0Y-84.0
X180.0Y-85.0
X180.0Y-86.0
X180.0Y-87.0
X180.0Y-88.0
X180.0Y-91.0
X180.0Y-93.25
X180.0Y-94.636
X180.097Y-123.718
X180.5Y-96.0
X180.5Y-97.5
X180.5Y-99.0
X180.5Y-100.5
X180.5Y-102.0
X180.5Y-104.0
X180.5Y-106.0
X180.5Y-108.0
X180.5Y-110.0
X180.5Y-112.0
X180.5Y-114.0
X181.0Y-74.0
X181.135Y-123.75
X181.734Y-66.7
X182.0Y-74.0
X182.5Y-50.0
X182.5Y-52.5
X182.5Y-55.0
X182.5Y-57.5
X182.5Y-60.0
X182.5Y-62.5
X182.6Y-105.0
X182.6Y-118.6
X182.6Y-120.025
X182.75Y-124.0
X183.0Y-74.0
X183.25Y-86.0
X183.4Y-111.0
X184.0Y-74.0
X184.0Y-84.0
X184.0Y-85.0
X184.0Y-125.0
X184.25Y-88.25
X185.0Y-45.0
X185.0Y-50.0
X185.0Y-52.5
X185.0Y-55.0
X185.0Y-57.5
X185.0Y-60.0
X185.0Y-62.5
X185.0Y-74.0
X185.0Y-75.0
X185.0Y-76.0
X185.0Y-84.0
X185.0Y-85.0
X185.25Y-120.0
X185.5Y-111.0
X185.507Y-87.0
X185.514Y-89.431
X185.75Y-105.0
X185.75Y-125.0
X186.0Y-74.0
X186.0Y-75.0
X186.0Y-76.0
X186.0Y-84.0
X186.0Y-85.0
X186.0Y-91.5
X186.0Y-96.5
X187.0Y-87.0
X187.5Y-50.0
X187.5Y-52.5
X187.5Y-55.0
X187.5Y-57.5
X187.5Y-60.0
X187.5Y-62.5
X187.5Y-77.25
X187.5Y-80.5
X187.5Y-97.5
X187.5Y-100.0
X187.5Y-102.5
X187.5Y-108.0
X187.5Y-110.0
X187.5Y-112.5
X187.5Y-115.0
X187.5Y-117.5
X187.5Y-125.0
X187.5Y-127.5
X187.764Y-89.431
X188.5Y-80.5
X189.0Y-91.0
X189.0Y-92.0
X189.0Y-92.75
X189.5Y-81.25
X189.75Y-74.0
X189.75Y-77.25
X190.0Y-45.0
X190.0Y-50.0
X190.0Y-52.5
X190.0Y-55.0
X190.0Y-57.5
X190.0Y-60.0
X190.0Y-62.5
X190.0Y-91.0
X190.0Y-92.0
X190.0Y-92.75
X190.0Y-97.5
X190.0Y-100.0
X190.0Y-102.5
X190.0Y-106.0
X190.0Y-108.0
X190.0Y-110.0
X190.0Y-112.5
X190.0Y-115.0
X190.0Y-117.5
X190.0Y-120.0
X190.0Y-122.5
X190.0Y-127.5
X190.007Y-89.466
X190.25Y-80.5
X190.5Y-77.875
X190.5Y-81.875
X190.966Y-134.493
X191.0Y-79.625
X191.0Y-91.0
X191.0Y-92.0
X191.0Y-92.75
X191.5Y-82.5
X191.75Y-80.5
X191.879Y-77.928
X192.264Y-89.431
X192.5Y-78.5
X192.5Y-97.5
X192.5Y-100.0
X192.5Y-102.5
X192.5Y-108.0
X192.5Y-110.0
X192.5Y-112.5
X192.5Y-115.0
X192.5Y-117.5
X192.5Y-120.0
X192.5Y-122.5
X192.5Y-127.5
X192.5Y-135.0
X193.25Y-91.0
X193.25Y-92.0
X193.25Y-93.0
X193.666Y-66.7
X194.0Y-74.0
X194.0Y-75.0
X194.0Y-76.0
X194.0Y-84.0
X194.0Y-85.0
X194.5Y-89.413
X195.0Y-45.0
X195.0Y-55.0
X195.0Y-60.0
X195.0Y-65.0
X195.0Y-74.0
X195.0Y-75.0
X195.0Y-76.0
X195.0Y-84.0
X195.0Y-85.0
X195.0Y-97.5
X195.0Y-100.0
X195.0Y-112.5
X195.0Y-115.0
X195.0Y-117.5
X195.0Y-120.0
X195.0Y-127.5
X195.0Y-130.0
X195.0Y-132.5
X195.25Y-91.0
X195.25Y-92.0
X195.25Y-93.0
X196.0Y-74.0
X196.0Y-75.0
X196.0Y-76.0
X196.0Y-84.0
X196.0Y-85.0
X196.25Y-91.0
X196.25Y-92.0
X196.25Y-93.0
X196.993Y-89.482
X197.0Y-52.0
X197.0Y-74.0
X197.0Y-81.0
X197.0Y-82.0
X197.0Y-83.0
X197.0Y-84.0
X197.0Y-85.0
X197.25Y-102.5
X197.5Y-97.5
X197.5Y-127.5
X197.8Y-75.9
X198.0Y-74.0
X199.0Y-74.0
X200.0Y-50.0
X200.0Y-55.0
X200.0Y-60.0
X200.0Y-75.0
X200.0Y-85.0
X200.0Y-87.5
X200.0Y-90.0
X200.0Y-92.5
X200.0Y-127.5
X200.5Y-101.0
X200.75Y-80.25
X201.43Y-120.244
X201.681Y-72.007
X201.716Y-69.75
X202.5Y-85.0
X202.5Y-87.5
X202.5Y-90.0
X202.5Y-102.5
X202.5Y-127.5
X202.75Y-108.5
X203.25Y-106.0
X205.0Y-50.0
X205.0Y-55.0
X205.0Y-60.0
X205.0Y-65.0
X205.0Y-67.5
X205.0Y-70.0
X205.0Y-72.5
X205.0Y-75.0
X205.0Y-77.5
X205.0Y-80.0
X205.0Y-82.5
X205.0Y-85.0
X205.0Y-87.5
X205.0Y-127.5
T2
X124.647Y-120.147
X124.75Y-114.75
X127.3Y-77.3
X127.5Y-71.0
X127.7Y-64.5
X127.75Y-58.25
X136.784Y-95.0
X136.784Y-105.743
X136.8Y-100.6
X136.871Y-111.25
X144.75Y-60.856
X144.75Y-63.427
X144.75Y-65.998
X144.75Y-68.57
X144.75Y-71.141
X144.75Y-73.713
X144.75Y-76.284
X144.75Y-78.856
X151.815Y-63.541
X151.815Y-68.541
X151.815Y-73.541
X151.815Y-78.541
X152.284Y-111.634
X189.032Y-126.152
T3
X125.347Y-82.8
X137.5Y-42.5
X137.5Y-44.0
X137.5Y-46.0
X137.5Y-47.5
X137.5Y-49.0
X137.5Y-50.5
X137.5Y-52.0
X137.5Y-54.0
X137.5Y-55.5
X139.0Y-42.5
X139.0Y-44.0
X139.0Y-46.0
X139.0Y-47.5
X139.0Y-49.0
X139.0Y-50.5
X139.0Y-52.0
X139.0Y-54.0
X139.0Y-55.5
X140.5Y-42.5
X140.5Y-44.0
X140.5Y-46.0
X140.5Y-47.5
X140.5Y-49.0
X140.5Y-50.5
X140.5Y-52.0
X140.5Y-54.0
X140.5Y-55.5
X141.0Y-82.8
X142.0Y-42.5
X142.0Y-44.0
X142.0Y-46.0
X142.0Y-52.0
X142.0Y-54.0
X142.0Y-55.5
X143.5Y-42.5
X143.5Y-44.0
X143.5Y-46.0
X143.5Y-52.0
X143.5Y-54.0
X143.5Y-55.5
X145.0Y-42.5
X145.0Y-44.0
X145.0Y-46.0
X145.0Y-52.0
X145.0Y-54.0
X145.0Y-55.5
X146.5Y-42.5
X146.5Y-44.0
X146.5Y-46.0
X146.5Y-52.0
X146.5Y-54.0
X146.5Y-55.5
X147.0Y-56.993
X148.0Y-42.5
X148.0Y-44.0
X148.0Y-46.0
X148.0Y-52.0
X148.0Y-54.0
X148.0Y-55.5
X157.6Y-84.4
X161.6Y-82.8
X177.597Y-89.431
T5
X201.975Y-92.25
X201.975Y-94.75
X201.975Y-97.25
X201.975Y-99.75
X202.225Y-76.5
X202.225Y-79.0
X202.225Y-81.5
T6
X131.0Y-50.5
X132.96Y-131.75
X138.04Y-131.75
X157.71Y-131.75
X162.79Y-131.75
X179.5Y-48.25
X182.46Y-131.75
X185.11Y-69.45
X187.54Y-131.75
X190.19Y-69.45
T7
X198.21Y-118.21
X198.21Y-124.71
X202.71Y-118.21
X202.71Y-124.71
T8
X198.46Y-109.71
X198.46Y-112.25
X201.0Y-107.17
X201.0Y-109.71
X201.0Y-112.25
T9
X198.46Y-107.17
T10
X100.733Y-103.018
X100.733Y-107.168
X100.733Y-110.498
X100.733Y-113.828
X100.733Y-117.133
X100.733Y-120.488
X100.733Y-123.818
X100.733Y-127.968
X100.768Y-49.499
X100.768Y-53.649
X100.768Y-56.979
X100.768Y-60.309
X100.768Y-63.614
X100.768Y-66.969
X100.768Y-70.299
X100.768Y-74.449
X104.933Y-103.018
X104.933Y-107.168
X104.933Y-110.498
X104.933Y-113.828
X104.933Y-117.133
X104.933Y-120.488
X104.933Y-123.818
X104.933Y-127.968
X104.968Y-49.499
X104.968Y-53.649
X104.968Y-56.979
X104.968Y-60.309
X104.968Y-63.614
X104.968Y-66.969
X104.968Y-70.299
X104.968Y-74.449
X109.133Y-103.018
X109.133Y-107.168
X109.133Y-110.498
X109.133Y-113.828
X109.133Y-117.133
X109.133Y-120.488
X109.133Y-123.818
X109.133Y-127.968
X109.168Y-49.499
X109.168Y-53.649
X109.168Y-56.979
X109.168Y-60.309
X109.168Y-63.614
X109.168Y-66.969
X109.168Y-70.299
X109.168Y-74.449
T4
G00X131.0Y-48.1
M15
G01X131.0Y-46.9
M16
G05
G00X179.5Y-45.85
M15
G01X179.5Y-44.65
M16
G05
M30
