%TF.GenerationSoftware,KiCad,Pcbnew,9.0.2*%
%TF.CreationDate,2025-09-23T15:25:02+08:00*%
%TF.ProjectId,VCU V3.2,56435520-5633-42e3-922e-6b696361645f,rev?*%
%TF.SameCoordinates,Original*%
%TF.FileFunction,Paste,Bot*%
%TF.FilePolarity,Positive*%
%FSLAX46Y46*%
G04 Gerber Fmt 4.6, Leading zero omitted, Abs format (unit mm)*
G04 Created by KiCad (PCBNEW 9.0.2) date 2025-09-23 15:25:02*
%MOMM*%
%LPD*%
G01*
G04 APERTURE LIST*
G04 Aperture macros list*
%AMRoundRect*
0 Rectangle with rounded corners*
0 $1 Rounding radius*
0 $2 $3 $4 $5 $6 $7 $8 $9 X,Y pos of 4 corners*
0 Add a 4 corners polygon primitive as box body*
4,1,4,$2,$3,$4,$5,$6,$7,$8,$9,$2,$3,0*
0 Add four circle primitives for the rounded corners*
1,1,$1+$1,$2,$3*
1,1,$1+$1,$4,$5*
1,1,$1+$1,$6,$7*
1,1,$1+$1,$8,$9*
0 Add four rect primitives between the rounded corners*
20,1,$1+$1,$2,$3,$4,$5,0*
20,1,$1+$1,$4,$5,$6,$7,0*
20,1,$1+$1,$6,$7,$8,$9,0*
20,1,$1+$1,$8,$9,$2,$3,0*%
G04 Aperture macros list end*
%ADD10RoundRect,0.305575X0.460025X0.412525X-0.460025X0.412525X-0.460025X-0.412525X0.460025X-0.412525X0*%
%ADD11RoundRect,0.308511X0.457089X0.416489X-0.457089X0.416489X-0.457089X-0.416489X0.457089X-0.416489X0*%
%ADD12RoundRect,0.305575X-0.460025X-0.412525X0.460025X-0.412525X0.460025X0.412525X-0.460025X0.412525X0*%
%ADD13RoundRect,0.308511X-0.457089X-0.416489X0.457089X-0.416489X0.457089X0.416489X-0.457089X0.416489X0*%
%ADD14RoundRect,0.278125X0.474375X0.389375X-0.474375X0.389375X-0.474375X-0.389375X0.474375X-0.389375X0*%
%ADD15RoundRect,0.278125X-0.474375X-0.389375X0.474375X-0.389375X0.474375X0.389375X-0.474375X0.389375X0*%
%ADD16RoundRect,0.305575X0.412525X-0.460025X0.412525X0.460025X-0.412525X0.460025X-0.412525X-0.460025X0*%
%ADD17RoundRect,0.308511X0.416489X-0.457089X0.416489X0.457089X-0.416489X0.457089X-0.416489X-0.457089X0*%
%ADD18RoundRect,0.278125X0.389375X-0.474375X0.389375X0.474375X-0.389375X0.474375X-0.389375X-0.474375X0*%
%ADD19R,0.900000X0.900000*%
%ADD20R,2.275000X1.150000*%
%ADD21R,2.275000X1.000000*%
%ADD22R,2.275000X1.060000*%
%ADD23R,1.775000X0.650000*%
%ADD24R,1.825000X0.700000*%
%ADD25RoundRect,0.278125X-0.389375X0.474375X-0.389375X-0.474375X0.389375X-0.474375X0.389375X0.474375X0*%
%ADD26RoundRect,0.305575X-0.412525X0.460025X-0.412525X-0.460025X0.412525X-0.460025X0.412525X0.460025X0*%
%ADD27RoundRect,0.308511X-0.416489X0.457089X-0.416489X-0.457089X0.416489X-0.457089X0.416489X0.457089X0*%
G04 APERTURE END LIST*
D10*
%TO.C,C16*%
X156715600Y-134493100D03*
D11*
X154284400Y-134500000D03*
%TD*%
D12*
%TO.C,C34*%
X188534400Y-134500000D03*
D13*
X190965600Y-134493100D03*
%TD*%
D12*
%TO.C,C27*%
X139284400Y-134506900D03*
D13*
X141715600Y-134500000D03*
%TD*%
D14*
%TO.C,R8*%
X139978517Y-60855641D03*
X137673517Y-60855641D03*
%TD*%
%TO.C,R15*%
X144750000Y-73712784D03*
X142445000Y-73712784D03*
%TD*%
D15*
%TO.C,R34*%
X145347500Y-105032500D03*
X147652500Y-105032500D03*
%TD*%
D16*
%TO.C,C7*%
X201436900Y-122675600D03*
D17*
X201430000Y-120244400D03*
%TD*%
D16*
%TO.C,C35*%
X173506900Y-125681200D03*
D17*
X173500000Y-123250000D03*
%TD*%
D18*
%TO.C,R51*%
X149630000Y-73540641D03*
X149630000Y-71235641D03*
%TD*%
D14*
%TO.C,R13*%
X144750000Y-71141355D03*
X142445000Y-71141355D03*
%TD*%
D19*
%TO.C,Q4*%
X123000000Y-64300000D03*
X123000000Y-63150000D03*
X123000000Y-62000000D03*
X123000000Y-60850000D03*
X121775000Y-64300000D03*
X121775000Y-63150000D03*
X121775000Y-62000000D03*
X121775000Y-60850000D03*
X120575000Y-64300000D03*
X120575000Y-63150000D03*
X120575000Y-62000000D03*
X120575000Y-60850000D03*
D20*
X125562500Y-60900000D03*
D21*
X125562500Y-61975000D03*
D22*
X125562500Y-63005000D03*
D23*
X125312500Y-64480000D03*
D24*
X118862500Y-64570000D03*
X118862500Y-63240000D03*
X118862500Y-61910000D03*
X118862500Y-60580000D03*
%TD*%
D19*
%TO.C,Q2*%
X123000000Y-58000000D03*
X123000000Y-56850000D03*
X123000000Y-55700000D03*
X123000000Y-54550000D03*
X121775000Y-58000000D03*
X121775000Y-56850000D03*
X121775000Y-55700000D03*
X121775000Y-54550000D03*
X120575000Y-58000000D03*
X120575000Y-56850000D03*
X120575000Y-55700000D03*
X120575000Y-54550000D03*
D20*
X125562500Y-54600000D03*
D21*
X125562500Y-55675000D03*
D22*
X125562500Y-56705000D03*
D23*
X125312500Y-58180000D03*
D24*
X118862500Y-58270000D03*
X118862500Y-56940000D03*
X118862500Y-55610000D03*
X118862500Y-54280000D03*
%TD*%
D10*
%TO.C,CA4*%
X147689717Y-96993100D03*
D11*
X145258517Y-97000000D03*
%TD*%
D18*
%TO.C,R25*%
X98000000Y-103000000D03*
X98000000Y-100695000D03*
%TD*%
D14*
%TO.C,R3*%
X188852500Y-66667500D03*
X186547500Y-66667500D03*
%TD*%
%TO.C,R36*%
X147626617Y-95000000D03*
X145321617Y-95000000D03*
%TD*%
%TO.C,R19*%
X144750000Y-78855641D03*
X142445000Y-78855641D03*
%TD*%
D10*
%TO.C,CA2*%
X147715600Y-108993100D03*
D11*
X145284400Y-109000000D03*
%TD*%
D14*
%TO.C,R1*%
X167305000Y-117217500D03*
X165000000Y-117217500D03*
%TD*%
D10*
%TO.C,C18*%
X157652500Y-125525600D03*
D11*
X155221300Y-125532500D03*
%TD*%
D12*
%TO.C,CA1*%
X145284400Y-115006900D03*
D13*
X147715600Y-115000000D03*
%TD*%
D25*
%TO.C,R54*%
X151815000Y-66235641D03*
X151815000Y-68540641D03*
%TD*%
D14*
%TO.C,R71*%
X186152500Y-134467500D03*
X183847500Y-134467500D03*
%TD*%
D12*
%TO.C,C17*%
X163784400Y-134506900D03*
D13*
X166215600Y-134500000D03*
%TD*%
D18*
%TO.C,R64*%
X138907500Y-89081017D03*
X138907500Y-86776017D03*
%TD*%
D26*
%TO.C,C38*%
X194493100Y-86982000D03*
D27*
X194500000Y-89413200D03*
%TD*%
D25*
%TO.C,R72*%
X179967500Y-121447500D03*
X179967500Y-123752500D03*
%TD*%
D14*
%TO.C,R30*%
X136750000Y-134500000D03*
X134445000Y-134500000D03*
%TD*%
D26*
%TO.C,C37*%
X196986200Y-87050800D03*
D27*
X196993100Y-89482000D03*
%TD*%
D15*
%TO.C,R40*%
X145347500Y-93000000D03*
X147652500Y-93000000D03*
%TD*%
D10*
%TO.C,C26*%
X131965600Y-134500000D03*
D11*
X129534400Y-134506900D03*
%TD*%
D15*
%TO.C,R18*%
X137695000Y-78920641D03*
X140000000Y-78920641D03*
%TD*%
%TO.C,R35*%
X145347500Y-99037104D03*
X147652500Y-99037104D03*
%TD*%
D16*
%TO.C,C22*%
X187763800Y-89431200D03*
D17*
X187756900Y-87000000D03*
%TD*%
D14*
%TO.C,R9*%
X144750000Y-65998498D03*
X142445000Y-65998498D03*
%TD*%
D16*
%TO.C,C1*%
X190006900Y-89465600D03*
D17*
X190000000Y-87034400D03*
%TD*%
D15*
%TO.C,R33*%
X145347500Y-111032500D03*
X147652500Y-111032500D03*
%TD*%
D18*
%TO.C,R68*%
X123130000Y-89102500D03*
X123130000Y-86797500D03*
%TD*%
%TO.C,R52*%
X149630000Y-78540641D03*
X149630000Y-76235641D03*
%TD*%
D16*
%TO.C,C19*%
X149256900Y-125465600D03*
D17*
X149250000Y-123034400D03*
%TD*%
D14*
%TO.C,R12*%
X140000000Y-66000000D03*
X137695000Y-66000000D03*
%TD*%
%TO.C,R24*%
X115902500Y-102967500D03*
X113597500Y-102967500D03*
%TD*%
D18*
%TO.C,R50*%
X149630000Y-68540641D03*
X149630000Y-66235641D03*
%TD*%
D14*
%TO.C,R69*%
X197027500Y-51967500D03*
X194722500Y-51967500D03*
%TD*%
%TO.C,R20*%
X139978517Y-76282410D03*
X137673517Y-76282410D03*
%TD*%
%TO.C,R7*%
X144750000Y-63427070D03*
X142445000Y-63427070D03*
%TD*%
%TO.C,R26*%
X115902500Y-107217500D03*
X113597500Y-107217500D03*
%TD*%
D18*
%TO.C,R49*%
X149630000Y-63540641D03*
X149630000Y-61235641D03*
%TD*%
D16*
%TO.C,C4*%
X185513800Y-89431200D03*
D17*
X185506900Y-87000000D03*
%TD*%
D10*
%TO.C,C29*%
X133215600Y-125493100D03*
D11*
X130784400Y-125500000D03*
%TD*%
D25*
%TO.C,R58*%
X153217500Y-86797500D03*
X153217500Y-89102500D03*
%TD*%
%TO.C,R27*%
X97967500Y-107097500D03*
X97967500Y-109402500D03*
%TD*%
D15*
%TO.C,R37*%
X145347500Y-113032500D03*
X147652500Y-113032500D03*
%TD*%
D25*
%TO.C,R66*%
X120815000Y-86797500D03*
X120815000Y-89102500D03*
%TD*%
D16*
%TO.C,C28*%
X124653650Y-125715600D03*
D17*
X124646750Y-123284400D03*
%TD*%
D14*
%TO.C,R17*%
X144750000Y-76284212D03*
X142445000Y-76284212D03*
%TD*%
%TO.C,R31*%
X133152500Y-123467500D03*
X130847500Y-123467500D03*
%TD*%
D15*
%TO.C,R10*%
X137673517Y-68634025D03*
X139978517Y-68634025D03*
%TD*%
D18*
%TO.C,R60*%
X155485000Y-89081017D03*
X155485000Y-86776017D03*
%TD*%
D19*
%TO.C,Q6*%
X123000000Y-70800000D03*
X123000000Y-69650000D03*
X123000000Y-68500000D03*
X123000000Y-67350000D03*
X121775000Y-70800000D03*
X121775000Y-69650000D03*
X121775000Y-68500000D03*
X121775000Y-67350000D03*
X120575000Y-70800000D03*
X120575000Y-69650000D03*
X120575000Y-68500000D03*
X120575000Y-67350000D03*
D20*
X125562500Y-67400000D03*
D21*
X125562500Y-68475000D03*
D22*
X125562500Y-69505000D03*
D23*
X125312500Y-70980000D03*
D24*
X118862500Y-71070000D03*
X118862500Y-69740000D03*
X118862500Y-68410000D03*
X118862500Y-67080000D03*
%TD*%
D14*
%TO.C,R38*%
X147652500Y-100972619D03*
X145347500Y-100972619D03*
%TD*%
D10*
%TO.C,C33*%
X181465600Y-134493100D03*
D11*
X179034400Y-134500000D03*
%TD*%
D19*
%TO.C,Q8*%
X123000000Y-77155000D03*
X123000000Y-76005000D03*
X123000000Y-74855000D03*
X123000000Y-73705000D03*
X121775000Y-77155000D03*
X121775000Y-76005000D03*
X121775000Y-74855000D03*
X121775000Y-73705000D03*
X120575000Y-77155000D03*
X120575000Y-76005000D03*
X120575000Y-74855000D03*
X120575000Y-73705000D03*
D20*
X125562500Y-73755000D03*
D21*
X125562500Y-74830000D03*
D22*
X125562500Y-75860000D03*
D23*
X125312500Y-77335000D03*
D24*
X118862500Y-77425000D03*
X118862500Y-76095000D03*
X118862500Y-74765000D03*
X118862500Y-73435000D03*
%TD*%
D25*
%TO.C,R62*%
X136625000Y-86797500D03*
X136625000Y-89102500D03*
%TD*%
D10*
%TO.C,CA3*%
X147715600Y-102997704D03*
D11*
X145284400Y-103004604D03*
%TD*%
D15*
%TO.C,R6*%
X137695000Y-63420641D03*
X140000000Y-63420641D03*
%TD*%
D14*
%TO.C,R21*%
X161402500Y-134467500D03*
X159097500Y-134467500D03*
%TD*%
%TO.C,R11*%
X144750000Y-68569927D03*
X142445000Y-68569927D03*
%TD*%
D12*
%TO.C,C5*%
X191234400Y-66706900D03*
D13*
X193665600Y-66700000D03*
%TD*%
D15*
%TO.C,R2*%
X170195000Y-118000000D03*
X172500000Y-118000000D03*
%TD*%
D14*
%TO.C,R22*%
X157652500Y-123500000D03*
X155347500Y-123500000D03*
%TD*%
D18*
%TO.C,R74*%
X189032500Y-126152500D03*
X189032500Y-123847500D03*
%TD*%
D10*
%TO.C,C6*%
X184165600Y-66693100D03*
D11*
X181734400Y-66700000D03*
%TD*%
D25*
%TO.C,R53*%
X151815000Y-61235641D03*
X151815000Y-63540641D03*
%TD*%
D14*
%TO.C,R16*%
X139978517Y-71140154D03*
X137673517Y-71140154D03*
%TD*%
%TO.C,R39*%
X147652500Y-106967500D03*
X145347500Y-106967500D03*
%TD*%
D16*
%TO.C,C25*%
X192263800Y-89431200D03*
D17*
X192256900Y-87000000D03*
%TD*%
D15*
%TO.C,R14*%
X137695000Y-73778385D03*
X140000000Y-73778385D03*
%TD*%
D14*
%TO.C,R5*%
X144750000Y-60855641D03*
X142445000Y-60855641D03*
%TD*%
D25*
%TO.C,R56*%
X151815000Y-76235641D03*
X151815000Y-78540641D03*
%TD*%
D10*
%TO.C,C36*%
X182465600Y-125993100D03*
D11*
X180034400Y-126000000D03*
%TD*%
D25*
%TO.C,R4*%
X199397500Y-120307500D03*
X199397500Y-122612500D03*
%TD*%
%TO.C,R55*%
X151815000Y-71235641D03*
X151815000Y-73540641D03*
%TD*%
M02*
