M48
; DRILL file {KiCad 9.0.2} date 2025-09-23T15:25:04+0800
; FORMAT={-:-/ absolute / metric / decimal}
; #@! TF.CreationDate,2025-09-23T15:25:04+08:00
; #@! TF.GenerationSoftware,Kicad,Pcbnew,9.0.2
; #@! TF.FileFunction,NonPlated,1,2,NPTH
FMAT,2
METRIC
; #@! TA.AperFunction,NonPlated,NPTH,ComponentDrill
T1C2.500
; #@! TA.AperFunction,NonPlated,NPTH,ComponentDrill
T2C3.000
; #@! TA.AperFunction,NonPlated,NPTH,ComponentDrill
T3C3.500
; #@! TA.AperFunction,NonPlated,NPTH,ComponentDrill
T4C4.000
%
G90
G05
T1
G00X104.083Y-95.293
M15
G01X100.983Y-95.293
M16
G05
G00X104.118Y-82.024
M15
G01X101.018Y-82.024
M16
G05
G00X106.283Y-135.493
M15
G01X100.783Y-135.493
M16
G05
G00X106.318Y-42.024
M15
G01X100.818Y-42.024
M16
G05
T2
G00X95.668Y-46.424
M15
G01X92.668Y-46.424
M16
G05
T3
G00X95.383Y-131.493
M15
G01X92.883Y-131.493
M16
G05
T4
G00X115.968Y-45.75
M15
G01X118.968Y-45.75
M16
G05
G00X116.139Y-131.856
M15
G01X119.139Y-131.856
M16
G05
G00X198.994Y-45.75
M15
G01X201.994Y-45.75
M16
G05
G00X199.197Y-131.856
M15
G01X202.197Y-131.856
M16
G05
M30
