%TF.GenerationSoftware,KiCad,Pcbnew,9.0.2*%
%TF.CreationDate,2025-09-23T15:34:19+08:00*%
%TF.ProjectId,SSRU_v3.2,53535255-5f76-4332-9e32-2e6b69636164,rev?*%
%TF.SameCoordinates,Original*%
%TF.FileFunction,Paste,Bot*%
%TF.FilePolarity,Positive*%
%FSLAX46Y46*%
G04 Gerber Fmt 4.6, Leading zero omitted, Abs format (unit mm)*
G04 Created by KiCad (PCBNEW 9.0.2) date 2025-09-23 15:34:19*
%MOMM*%
%LPD*%
G01*
G04 APERTURE LIST*
G04 Aperture macros list*
%AMRoundRect*
0 Rectangle with rounded corners*
0 $1 Rounding radius*
0 $2 $3 $4 $5 $6 $7 $8 $9 X,Y pos of 4 corners*
0 Add a 4 corners polygon primitive as box body*
4,1,4,$2,$3,$4,$5,$6,$7,$8,$9,$2,$3,0*
0 Add four circle primitives for the rounded corners*
1,1,$1+$1,$2,$3*
1,1,$1+$1,$4,$5*
1,1,$1+$1,$6,$7*
1,1,$1+$1,$8,$9*
0 Add four rect primitives between the rounded corners*
20,1,$1+$1,$2,$3,$4,$5,0*
20,1,$1+$1,$4,$5,$6,$7,0*
20,1,$1+$1,$6,$7,$8,$9,0*
20,1,$1+$1,$8,$9,$2,$3,0*%
G04 Aperture macros list end*
%ADD10RoundRect,0.305575X0.460025X0.412525X-0.460025X0.412525X-0.460025X-0.412525X0.460025X-0.412525X0*%
%ADD11RoundRect,0.308511X0.457089X0.416489X-0.457089X0.416489X-0.457089X-0.416489X0.457089X-0.416489X0*%
%ADD12RoundRect,0.305575X-0.412525X0.460025X-0.412525X-0.460025X0.412525X-0.460025X0.412525X0.460025X0*%
%ADD13RoundRect,0.308511X-0.416489X0.457089X-0.416489X-0.457089X0.416489X-0.457089X0.416489X0.457089X0*%
%ADD14RoundRect,0.278125X-0.389375X0.474375X-0.389375X-0.474375X0.389375X-0.474375X0.389375X0.474375X0*%
%ADD15RoundRect,0.305575X-0.616986X0.033588X0.033588X-0.616986X0.616986X-0.033588X-0.033588X0.616986X0*%
%ADD16RoundRect,0.308511X-0.617713X0.028709X0.028709X-0.617713X0.617713X-0.028709X-0.028709X0.617713X0*%
%ADD17RoundRect,0.278125X-0.474375X-0.389375X0.474375X-0.389375X0.474375X0.389375X-0.474375X0.389375X0*%
%ADD18RoundRect,0.305575X0.616986X-0.033588X-0.033588X0.616986X-0.616986X0.033588X0.033588X-0.616986X0*%
%ADD19RoundRect,0.308511X0.617713X-0.028709X-0.028709X0.617713X-0.617713X0.028709X0.028709X-0.617713X0*%
%ADD20RoundRect,0.305575X-0.460025X-0.412525X0.460025X-0.412525X0.460025X0.412525X-0.460025X0.412525X0*%
%ADD21RoundRect,0.308511X-0.457089X-0.416489X0.457089X-0.416489X0.457089X0.416489X-0.457089X0.416489X0*%
%ADD22RoundRect,0.278125X-0.610763X0.060104X0.060104X-0.610763X0.610763X-0.060104X-0.060104X0.610763X0*%
%ADD23RoundRect,0.278125X0.389375X-0.474375X0.389375X0.474375X-0.389375X0.474375X-0.389375X-0.474375X0*%
%ADD24RoundRect,0.305575X0.412525X-0.460025X0.412525X0.460025X-0.412525X0.460025X-0.412525X-0.460025X0*%
%ADD25RoundRect,0.308511X0.416489X-0.457089X0.416489X0.457089X-0.416489X0.457089X-0.416489X-0.457089X0*%
G04 APERTURE END LIST*
D10*
%TO.C,C41*%
X169215600Y-98742048D03*
D11*
X166784400Y-98748948D03*
%TD*%
D12*
%TO.C,C4*%
X174243100Y-98284400D03*
D13*
X174250000Y-100715600D03*
%TD*%
D14*
%TO.C,R40*%
X122467500Y-110847500D03*
X122467500Y-113152500D03*
%TD*%
D10*
%TO.C,C26*%
X169115600Y-82043100D03*
D11*
X166684400Y-82050000D03*
%TD*%
D10*
%TO.C,C39*%
X166715600Y-90993100D03*
D11*
X164284400Y-91000000D03*
%TD*%
D15*
%TO.C,C17*%
X184276003Y-80285761D03*
D16*
X186000000Y-82000000D03*
%TD*%
D12*
%TO.C,C44*%
X155145600Y-106784400D03*
D13*
X155152500Y-109215600D03*
%TD*%
D17*
%TO.C,R15*%
X161697500Y-82083552D03*
X164002500Y-82083552D03*
%TD*%
D18*
%TO.C,C5*%
X192864438Y-88854680D03*
D19*
X191140441Y-87140441D03*
%TD*%
D20*
%TO.C,C42*%
X156784400Y-98755848D03*
D21*
X159215600Y-98748948D03*
%TD*%
D17*
%TO.C,R16*%
X164347500Y-93032500D03*
X166652500Y-93032500D03*
%TD*%
D20*
%TO.C,C27*%
X156534400Y-82056900D03*
D21*
X158965600Y-82050000D03*
%TD*%
D22*
%TO.C,R4*%
X187762078Y-83830717D03*
X189391960Y-85460599D03*
%TD*%
D10*
%TO.C,C43*%
X166715600Y-106993100D03*
D11*
X164284400Y-107000000D03*
%TD*%
D17*
%TO.C,R21*%
X164347500Y-109032500D03*
X166652500Y-109032500D03*
%TD*%
%TO.C,R9*%
X183347500Y-137282500D03*
X185652500Y-137282500D03*
%TD*%
D23*
%TO.C,R10*%
X191032500Y-77152500D03*
X191032500Y-74847500D03*
%TD*%
D24*
%TO.C,C29*%
X189006900Y-77215600D03*
D25*
X189000000Y-74784400D03*
%TD*%
D20*
%TO.C,C24*%
X183284400Y-135256900D03*
D21*
X185715600Y-135250000D03*
%TD*%
D20*
%TO.C,C23*%
X135250000Y-97000000D03*
D21*
X137681200Y-96993100D03*
%TD*%
D10*
%TO.C,C18*%
X179164800Y-125433100D03*
D11*
X176733600Y-125440000D03*
%TD*%
D17*
%TO.C,R5*%
X176796700Y-127472500D03*
X179101700Y-127472500D03*
%TD*%
%TO.C,R18*%
X161847500Y-98782500D03*
X164152500Y-98782500D03*
%TD*%
M02*
