%TF.GenerationSoftware,KiCad,Pcbnew,9.0.2*%
%TF.CreationDate,2025-09-23T15:34:20+08:00*%
%TF.ProjectId,SSRU_v3.2,53535255-5f76-4332-9e32-2e6b69636164,rev?*%
%TF.SameCoordinates,Original*%
%TF.FileFunction,Soldermask,Top*%
%TF.FilePolarity,Negative*%
%FSLAX46Y46*%
G04 Gerber Fmt 4.6, Leading zero omitted, Abs format (unit mm)*
G04 Created by KiCad (PCBNEW 9.0.2) date 2025-09-23 15:34:20*
%MOMM*%
%LPD*%
G01*
G04 APERTURE LIST*
G04 Aperture macros list*
%AMRoundRect*
0 Rectangle with rounded corners*
0 $1 Rounding radius*
0 $2 $3 $4 $5 $6 $7 $8 $9 X,Y pos of 4 corners*
0 Add a 4 corners polygon primitive as box body*
4,1,4,$2,$3,$4,$5,$6,$7,$8,$9,$2,$3,0*
0 Add four circle primitives for the rounded corners*
1,1,$1+$1,$2,$3*
1,1,$1+$1,$4,$5*
1,1,$1+$1,$6,$7*
1,1,$1+$1,$8,$9*
0 Add four rect primitives between the rounded corners*
20,1,$1+$1,$2,$3,$4,$5,0*
20,1,$1+$1,$4,$5,$6,$7,0*
20,1,$1+$1,$6,$7,$8,$9,0*
20,1,$1+$1,$8,$9,$2,$3,0*%
%AMRotRect*
0 Rectangle, with rotation*
0 The origin of the aperture is its center*
0 $1 length*
0 $2 width*
0 $3 Rotation angle, in degrees counterclockwise*
0 Add horizontal line*
21,1,$1,$2,0,0,$3*%
G04 Aperture macros list end*
%ADD10C,0.100000*%
%ADD11R,2.000000X1.600000*%
%ADD12O,3.000000X1.600000*%
%ADD13RoundRect,0.150000X1.350000X0.150000X-1.350000X0.150000X-1.350000X-0.150000X1.350000X-0.150000X0*%
%ADD14RoundRect,0.150000X1.337500X0.150000X-1.337500X0.150000X-1.337500X-0.150000X1.337500X-0.150000X0*%
%ADD15RoundRect,0.278125X-0.389375X0.474375X-0.389375X-0.474375X0.389375X-0.474375X0.389375X0.474375X0*%
%ADD16O,5.600000X2.500000*%
%ADD17O,6.000000X3.500000*%
%ADD18O,8.000000X2.500000*%
%ADD19C,2.600000*%
%ADD20RoundRect,0.305575X0.460025X0.412525X-0.460025X0.412525X-0.460025X-0.412525X0.460025X-0.412525X0*%
%ADD21RoundRect,0.308511X0.457089X0.416489X-0.457089X0.416489X-0.457089X-0.416489X0.457089X-0.416489X0*%
%ADD22RoundRect,0.390352X-0.722148X-0.934648X0.722148X-0.934648X0.722148X0.934648X-0.722148X0.934648X0*%
%ADD23RoundRect,0.100000X-0.100000X0.637500X-0.100000X-0.637500X0.100000X-0.637500X0.100000X0.637500X0*%
%ADD24C,5.500000*%
%ADD25R,2.000000X2.000000*%
%ADD26C,2.000000*%
%ADD27RoundRect,0.305575X0.412525X-0.460025X0.412525X0.460025X-0.412525X0.460025X-0.412525X-0.460025X0*%
%ADD28RoundRect,0.308511X0.416489X-0.457089X0.416489X0.457089X-0.416489X0.457089X-0.416489X-0.457089X0*%
%ADD29RoundRect,0.250000X0.600000X0.725000X-0.600000X0.725000X-0.600000X-0.725000X0.600000X-0.725000X0*%
%ADD30O,1.700000X1.950000*%
%ADD31RoundRect,0.278125X0.474375X0.389375X-0.474375X0.389375X-0.474375X-0.389375X0.474375X-0.389375X0*%
%ADD32RoundRect,0.305575X-0.460025X-0.412525X0.460025X-0.412525X0.460025X0.412525X-0.460025X0.412525X0*%
%ADD33RoundRect,0.308511X-0.457089X-0.416489X0.457089X-0.416489X0.457089X0.416489X-0.457089X0.416489X0*%
%ADD34RoundRect,0.305575X-0.412525X0.460025X-0.412525X-0.460025X0.412525X-0.460025X0.412525X0.460025X0*%
%ADD35RoundRect,0.308511X-0.416489X0.457089X-0.416489X-0.457089X0.416489X-0.457089X0.416489X0.457089X0*%
%ADD36RoundRect,0.293478X0.381522X0.406522X-0.381522X0.406522X-0.381522X-0.406522X0.381522X-0.406522X0*%
%ADD37C,2.400000*%
%ADD38R,5.500000X2.500000*%
%ADD39R,1.000000X1.500000*%
%ADD40RotRect,5.500000X2.500000X315.000000*%
%ADD41RotRect,2.000000X0.550000X225.000000*%
%ADD42RotRect,2.000000X0.550000X315.000000*%
%ADD43RotRect,2.000000X0.525000X315.000000*%
%ADD44RotRect,2.000000X0.575000X315.000000*%
%ADD45RotRect,2.000000X0.525000X225.000000*%
%ADD46RoundRect,0.278125X-0.474375X-0.389375X0.474375X-0.389375X0.474375X0.389375X-0.474375X0.389375X0*%
%ADD47RoundRect,0.250000X2.325000X0.300000X-2.325000X0.300000X-2.325000X-0.300000X2.325000X-0.300000X0*%
%ADD48RoundRect,0.257981X4.592019X5.142019X-4.592019X5.142019X-4.592019X-5.142019X4.592019X-5.142019X0*%
%ADD49RoundRect,0.162500X-0.927500X-0.162500X0.927500X-0.162500X0.927500X0.162500X-0.927500X0.162500X0*%
%ADD50RoundRect,0.250000X1.500000X0.650000X-1.500000X0.650000X-1.500000X-0.650000X1.500000X-0.650000X0*%
%ADD51R,3.600000X3.800000*%
%ADD52R,1.600000X2.000000*%
%ADD53O,1.600000X3.000000*%
G04 APERTURE END LIST*
D10*
X109000000Y-64000000D02*
X122000000Y-64000000D01*
X122000000Y-78000000D01*
X109000000Y-78000000D01*
X109000000Y-64000000D01*
G36*
X109000000Y-64000000D02*
G01*
X122000000Y-64000000D01*
X122000000Y-78000000D01*
X109000000Y-78000000D01*
X109000000Y-64000000D01*
G37*
%TO.C,J5*%
G36*
X140390000Y-123950000D02*
G01*
X138790000Y-123950000D01*
X138790000Y-122450000D01*
X140390000Y-122450000D01*
X140390000Y-123950000D01*
G37*
%TD*%
D11*
%TO.C,C7*%
X124550000Y-84600000D03*
D12*
X127550000Y-84600000D03*
%TD*%
D13*
%TO.C,U10*%
X158000000Y-93905000D03*
X158000000Y-92635000D03*
D14*
X158012500Y-91500000D03*
D13*
X158000000Y-90095000D03*
X152000000Y-90095000D03*
X152000000Y-91365000D03*
X152000000Y-92635000D03*
X152000000Y-93905000D03*
%TD*%
D15*
%TO.C,R1*%
X125032500Y-96847500D03*
X125032500Y-99152500D03*
%TD*%
D16*
%TO.C,J2*%
X111775000Y-80295000D03*
D17*
X103375000Y-116495000D03*
D18*
X112775000Y-120495000D03*
D19*
X118375000Y-88020000D03*
X118375000Y-92170000D03*
X118375000Y-95500000D03*
X118375000Y-98830000D03*
X118375000Y-102135000D03*
X118375000Y-105490000D03*
X118375000Y-108820000D03*
X118375000Y-112970000D03*
X114175000Y-88020000D03*
X114175000Y-92170000D03*
X114175000Y-95500000D03*
X114175000Y-98830000D03*
X114175000Y-102135000D03*
X114175000Y-105490000D03*
X114175000Y-108820000D03*
X114175000Y-112970000D03*
X109975000Y-88020000D03*
X109975000Y-92170000D03*
X109975000Y-95500000D03*
X109975000Y-98830000D03*
X109975000Y-102135000D03*
X109975000Y-105490000D03*
X109975000Y-108820000D03*
X109975000Y-112970000D03*
%TD*%
D20*
%TO.C,C37*%
X142681200Y-103006900D03*
D21*
X140250000Y-103000000D03*
%TD*%
D22*
%TO.C,F2*%
X157112500Y-68000000D03*
X160887500Y-68000000D03*
%TD*%
D23*
%TO.C,U1*%
X167077500Y-105137500D03*
X166427500Y-105137500D03*
X165777500Y-105137500D03*
X165127500Y-105137500D03*
X164477500Y-105137500D03*
X163827500Y-105137500D03*
X163177500Y-105137500D03*
X162527500Y-105137500D03*
X161877500Y-105137500D03*
X161227500Y-105137500D03*
X161227500Y-110862500D03*
X161877500Y-110862500D03*
X162527500Y-110862500D03*
X163177500Y-110862500D03*
X163827500Y-110862500D03*
X164477500Y-110862500D03*
X165127500Y-110862500D03*
X165777500Y-110862500D03*
X166427500Y-110862500D03*
X167077500Y-110862500D03*
%TD*%
D20*
%TO.C,C3*%
X194215600Y-99006900D03*
D21*
X191784400Y-99000000D03*
%TD*%
D24*
%TO.C,H2*%
X189967641Y-132097800D03*
%TD*%
D25*
%TO.C,J4*%
X173250000Y-107750000D03*
D26*
X175790000Y-107750000D03*
X173250000Y-110290000D03*
X175790000Y-110290000D03*
X173250000Y-112830000D03*
X175790000Y-112830000D03*
%TD*%
D20*
%TO.C,C40*%
X153215600Y-88006900D03*
D21*
X150784400Y-88000000D03*
%TD*%
D27*
%TO.C,C19*%
X144333100Y-123180600D03*
D28*
X144340000Y-120749400D03*
%TD*%
D13*
%TO.C,U3*%
X136715600Y-103148100D03*
X136715600Y-101878100D03*
D14*
X136728100Y-100743100D03*
D13*
X136715600Y-99338100D03*
X130715600Y-99338100D03*
X130715600Y-100608100D03*
X130715600Y-101878100D03*
X130715600Y-103148100D03*
%TD*%
D29*
%TO.C,J31*%
X193750000Y-123975000D03*
D30*
X191250000Y-123975000D03*
X188750000Y-123975000D03*
X186250000Y-123975000D03*
%TD*%
D23*
%TO.C,U6*%
X167077500Y-89137500D03*
X166427500Y-89137500D03*
X165777500Y-89137500D03*
X165127500Y-89137500D03*
X164477500Y-89137500D03*
X163827500Y-89137500D03*
X163177500Y-89137500D03*
X162527500Y-89137500D03*
X161877500Y-89137500D03*
X161227500Y-89137500D03*
X161227500Y-94862500D03*
X161877500Y-94862500D03*
X162527500Y-94862500D03*
X163177500Y-94862500D03*
X163827500Y-94862500D03*
X164477500Y-94862500D03*
X165127500Y-94862500D03*
X165777500Y-94862500D03*
X166427500Y-94862500D03*
X167077500Y-94862500D03*
%TD*%
D26*
%TO.C,SW1*%
X180199200Y-123090000D03*
X180199200Y-129590000D03*
X175699200Y-123090000D03*
X175699200Y-129590000D03*
%TD*%
D20*
%TO.C,C30*%
X146805600Y-118706900D03*
D21*
X144374400Y-118700000D03*
%TD*%
D31*
%TO.C,R6*%
X182652500Y-108532500D03*
X180347500Y-108532500D03*
%TD*%
D32*
%TO.C,C32*%
X124818800Y-101743100D03*
D33*
X127250000Y-101750000D03*
%TD*%
D34*
%TO.C,C12*%
X153006900Y-66284400D03*
D35*
X153000000Y-68715600D03*
%TD*%
D36*
%TO.C,D3*%
X179277500Y-75032500D03*
X177027500Y-75032500D03*
%TD*%
D34*
%TO.C,C36*%
X140296900Y-98318800D03*
D35*
X140290000Y-100750000D03*
%TD*%
D20*
%TO.C,C6*%
X127215600Y-78606900D03*
D21*
X124784400Y-78600000D03*
%TD*%
D37*
%TO.C,Y3*%
X164743282Y-101000000D03*
D38*
X166656719Y-100991762D03*
X157843282Y-101000000D03*
D37*
X159663282Y-101000000D03*
%TD*%
%TO.C,Y4*%
X164743282Y-84500000D03*
D38*
X166656719Y-84491762D03*
X157843282Y-84500000D03*
D37*
X159663282Y-84500000D03*
%TD*%
D34*
%TO.C,C31*%
X127256900Y-96784400D03*
D35*
X127250000Y-99215600D03*
%TD*%
D39*
%TO.C,J5*%
X140890000Y-123200000D03*
X139590000Y-123200000D03*
X138290000Y-123200000D03*
%TD*%
D37*
%TO.C,Y1*%
X184867589Y-84890266D03*
D40*
X183508760Y-83543087D03*
X189746626Y-89769303D03*
D37*
X188459691Y-88482368D03*
%TD*%
D15*
%TO.C,R2*%
X142572500Y-98381900D03*
X142572500Y-100686900D03*
%TD*%
D13*
%TO.C,U12*%
X158000000Y-109905000D03*
X158000000Y-108635000D03*
D14*
X158012500Y-107500000D03*
D13*
X158000000Y-106095000D03*
X152000000Y-106095000D03*
X152000000Y-107365000D03*
X152000000Y-108635000D03*
X152000000Y-109905000D03*
%TD*%
D20*
%TO.C,C2*%
X194215600Y-95006900D03*
D21*
X191784400Y-95000000D03*
%TD*%
D41*
%TO.C,U2*%
X186126524Y-94833274D03*
X185560839Y-94267588D03*
X184995153Y-93701903D03*
X184429468Y-93136218D03*
X183863782Y-92570532D03*
X183298097Y-92004847D03*
X182732412Y-91439161D03*
X182166726Y-90873476D03*
D42*
X179833274Y-90873476D03*
D43*
X179276427Y-91430322D03*
D44*
X178693064Y-92013686D03*
D42*
X178136218Y-92570532D03*
X177570532Y-93136218D03*
X177004847Y-93701903D03*
X176439161Y-94267588D03*
X175873476Y-94833274D03*
D41*
X175873476Y-97166726D03*
X176439161Y-97732412D03*
X177004847Y-98298097D03*
D45*
X177579371Y-98872621D03*
D41*
X178136218Y-99429468D03*
X178701903Y-99995153D03*
X179267588Y-100560839D03*
X179833274Y-101126524D03*
D42*
X182166726Y-101126524D03*
X182732412Y-100560839D03*
X183298097Y-99995153D03*
X183863782Y-99429468D03*
X184429468Y-98863782D03*
X184995153Y-98298097D03*
X185560839Y-97732412D03*
X186126524Y-97166726D03*
%TD*%
D31*
%TO.C,R3*%
X141742500Y-125732500D03*
X139437500Y-125732500D03*
%TD*%
D46*
%TO.C,R38*%
X172000000Y-75000000D03*
X174305000Y-75000000D03*
%TD*%
D15*
%TO.C,R17*%
X148185000Y-90847500D03*
X148185000Y-93152500D03*
%TD*%
D24*
%TO.C,H1*%
X189967641Y-70597800D03*
%TD*%
D47*
%TO.C,U4*%
X125925000Y-74400000D03*
X125925000Y-72700000D03*
X125925000Y-71000000D03*
D48*
X116350000Y-71000000D03*
D47*
X125925000Y-69300000D03*
X125925000Y-67600000D03*
%TD*%
D32*
%TO.C,C28*%
X180284400Y-106243100D03*
D33*
X182715600Y-106250000D03*
%TD*%
D49*
%TO.C,U8*%
X138430000Y-118750000D03*
X138430000Y-119700000D03*
X138430000Y-120650000D03*
X141750000Y-120650000D03*
X141750000Y-118750000D03*
%TD*%
D15*
%TO.C,R22*%
X148185000Y-106847500D03*
X148185000Y-109152500D03*
%TD*%
D50*
%TO.C,D2*%
X136500000Y-79750000D03*
X131500000Y-79750000D03*
%TD*%
D20*
%TO.C,C1*%
X194215600Y-97006900D03*
D21*
X191784400Y-97000000D03*
%TD*%
D51*
%TO.C,L1*%
X136500000Y-75700000D03*
X136500000Y-66300000D03*
%TD*%
D52*
%TO.C,C11*%
X147500000Y-68750000D03*
D53*
X147500000Y-65750000D03*
%TD*%
M02*
