M48
; DRILL file {KiCad 9.0.2} date 2025-09-23T15:34:22+0800
; FORMAT={-:-/ absolute / metric / decimal}
; #@! TF.CreationDate,2025-09-23T15:34:22+08:00
; #@! TF.GenerationSoftware,Kicad,Pcbnew,9.0.2
; #@! TF.FileFunction,Plated,1,2,PTH
FMAT,2
METRIC
; #@! TA.AperFunction,Plated,PTH,ViaDrill
T1C0.300
; #@! TA.AperFunction,Plated,PTH,ViaDrill
T2C0.400
; #@! TA.AperFunction,Plated,PTH,ViaDrill
T3C0.500
; #@! TA.AperFunction,Plated,PTH,ComponentDrill
T4C0.800
; #@! TA.AperFunction,Plated,PTH,ComponentDrill
T5C0.950
; #@! TA.AperFunction,Plated,PTH,ComponentDrill
T6C1.000
; #@! TA.AperFunction,Plated,PTH,ComponentDrill
T7C1.100
; #@! TA.AperFunction,Plated,PTH,ComponentDrill
T8C1.200
; #@! TA.AperFunction,Plated,PTH,ComponentDrill
T9C1.300
; #@! TA.AperFunction,Plated,PTH,ComponentDrill
T10C1.600
; #@! TA.AperFunction,Plated,PTH,ComponentDrill
T11C3.200
%
G90
G05
T1
X111.25Y-103.75
X112.0Y-108.0
X116.25Y-104.5
X116.25Y-108.0
X120.75Y-106.25
X123.0Y-105.5
X125.75Y-109.0
X125.925Y-67.6
X125.925Y-71.0
X127.216Y-78.607
X131.5Y-79.75
X131.5Y-108.0
X135.468Y-84.125
X135.5Y-109.0
X137.681Y-96.993
X139.438Y-125.732
X142.572Y-100.687
X144.374Y-118.7
X145.393Y-82.431
X147.0Y-120.75
X149.0Y-95.5
X149.0Y-99.25
X149.1Y-82.507
X152.0Y-93.905
X152.0Y-109.905
X153.007Y-66.284
X155.146Y-106.784
X155.153Y-109.216
X156.534Y-82.057
X156.784Y-98.756
X157.0Y-91.5
X158.0Y-91.5
X158.0Y-108.635
X159.0Y-91.5
X160.5Y-108.0
X161.725Y-76.6
X164.347Y-93.032
X164.347Y-109.032
X166.653Y-93.032
X166.653Y-109.032
X167.5Y-127.5
X169.116Y-82.043
X169.216Y-98.742
X170.0Y-91.0
X170.549Y-105.299
X171.0Y-98.5
X171.7Y-92.375
X171.7Y-99.6
X172.0Y-104.75
X172.3Y-98.5
X172.925Y-93.0
X173.0Y-97.25
X173.25Y-120.5
X173.6Y-94.2
X173.75Y-105.5
X175.25Y-96.0
X175.75Y-90.25
X175.75Y-91.25
X175.77Y-97.27
X175.873Y-94.833
X177.0Y-102.0
X177.0Y-104.75
X177.573Y-98.866
X179.102Y-127.472
X179.165Y-125.433
X179.278Y-75.032
X179.5Y-110.75
X179.5Y-112.75
X180.303Y-95.0
X180.5Y-93.0
X181.0Y-89.75
X182.0Y-95.0
X182.5Y-88.0
X183.284Y-135.257
X183.347Y-137.282
X184.276Y-80.286
X184.426Y-98.824
X185.5Y-91.0
X186.5Y-91.0
X187.0Y-86.5
X187.5Y-91.0
X187.5Y-95.25
X187.5Y-96.75
X188.5Y-92.0
X189.5Y-93.0
X190.75Y-93.5
X191.5Y-92.75
X191.5Y-118.25
X192.25Y-92.0
X192.864Y-88.855
X193.0Y-91.25
X193.5Y-87.5
X193.75Y-90.5
X194.216Y-95.007
X194.216Y-97.007
X194.216Y-99.007
T2
X112.0Y-66.0
X112.0Y-67.0
X112.0Y-68.0
X112.0Y-69.0
X112.0Y-70.0
X112.0Y-71.0
X112.0Y-72.0
X112.0Y-73.0
X112.0Y-74.0
X112.0Y-75.0
X112.0Y-76.0
X113.0Y-66.0
X113.0Y-67.0
X113.0Y-68.0
X113.0Y-69.0
X113.0Y-70.0
X113.0Y-71.0
X113.0Y-72.0
X113.0Y-73.0
X113.0Y-74.0
X113.0Y-75.0
X113.0Y-76.0
X114.0Y-66.0
X114.0Y-67.0
X114.0Y-75.0
X114.0Y-76.0
X115.0Y-66.0
X115.0Y-67.0
X115.0Y-75.0
X115.0Y-76.0
X116.0Y-66.0
X116.0Y-67.0
X116.0Y-75.0
X116.0Y-76.0
X117.0Y-66.0
X117.0Y-67.0
X117.0Y-75.0
X117.0Y-76.0
X118.0Y-66.0
X118.0Y-67.0
X118.0Y-75.0
X118.0Y-76.0
X119.0Y-66.0
X119.0Y-67.0
X119.0Y-75.0
X119.0Y-76.0
X120.0Y-66.0
X120.0Y-67.0
X120.0Y-75.0
X120.0Y-76.0
X165.493Y-74.531
X168.393Y-74.531
T3
X153.216Y-88.007
X155.0Y-97.0
T5
X186.25Y-123.975
X188.75Y-123.975
X191.25Y-123.975
X193.75Y-123.975
T6
X124.55Y-84.6
X147.5Y-68.75
X159.663Y-84.5
X159.663Y-101.0
X164.743Y-84.5
X164.743Y-101.0
X184.868Y-84.89
X188.46Y-88.482
T7
X175.699Y-123.09
X175.699Y-129.59
X180.199Y-123.09
X180.199Y-129.59
T8
X173.25Y-110.29
X173.25Y-112.83
X175.79Y-107.75
X175.79Y-110.29
X175.79Y-112.83
T9
X173.25Y-107.75
T10
X109.975Y-88.02
X109.975Y-92.17
X109.975Y-95.5
X109.975Y-98.83
X109.975Y-102.135
X109.975Y-105.49
X109.975Y-108.82
X109.975Y-112.97
X114.175Y-88.02
X114.175Y-92.17
X114.175Y-95.5
X114.175Y-98.83
X114.175Y-102.135
X114.175Y-105.49
X114.175Y-108.82
X114.175Y-112.97
X118.375Y-88.02
X118.375Y-92.17
X118.375Y-95.5
X118.375Y-98.83
X118.375Y-102.135
X118.375Y-105.49
X118.375Y-108.82
X118.375Y-112.97
T11
X189.968Y-70.598
X189.968Y-132.098
T4
G00X126.95Y-84.6
M15
G01X128.15Y-84.6
M16
G05
G00X147.5Y-66.35
M15
G01X147.5Y-65.15
M16
G05
M30
