%TF.GenerationSoftware,KiCad,Pcbnew,9.0.2*%
%TF.CreationDate,2025-09-23T15:34:20+08:00*%
%TF.ProjectId,SSRU_v3.2,53535255-5f76-4332-9e32-2e6b69636164,rev?*%
%TF.SameCoordinates,Original*%
%TF.FileFunction,Soldermask,Bot*%
%TF.FilePolarity,Negative*%
%FSLAX46Y46*%
G04 Gerber Fmt 4.6, Leading zero omitted, Abs format (unit mm)*
G04 Created by KiCad (PCBNEW 9.0.2) date 2025-09-23 15:34:20*
%MOMM*%
%LPD*%
G01*
G04 APERTURE LIST*
G04 Aperture macros list*
%AMRoundRect*
0 Rectangle with rounded corners*
0 $1 Rounding radius*
0 $2 $3 $4 $5 $6 $7 $8 $9 X,Y pos of 4 corners*
0 Add a 4 corners polygon primitive as box body*
4,1,4,$2,$3,$4,$5,$6,$7,$8,$9,$2,$3,0*
0 Add four circle primitives for the rounded corners*
1,1,$1+$1,$2,$3*
1,1,$1+$1,$4,$5*
1,1,$1+$1,$6,$7*
1,1,$1+$1,$8,$9*
0 Add four rect primitives between the rounded corners*
20,1,$1+$1,$2,$3,$4,$5,0*
20,1,$1+$1,$4,$5,$6,$7,0*
20,1,$1+$1,$6,$7,$8,$9,0*
20,1,$1+$1,$8,$9,$2,$3,0*%
G04 Aperture macros list end*
%ADD10R,2.000000X1.600000*%
%ADD11O,3.000000X1.600000*%
%ADD12O,5.600000X2.500000*%
%ADD13O,6.000000X3.500000*%
%ADD14O,8.000000X2.500000*%
%ADD15C,2.600000*%
%ADD16C,5.500000*%
%ADD17R,2.000000X2.000000*%
%ADD18C,2.000000*%
%ADD19RoundRect,0.250000X0.600000X0.725000X-0.600000X0.725000X-0.600000X-0.725000X0.600000X-0.725000X0*%
%ADD20O,1.700000X1.950000*%
%ADD21C,2.400000*%
%ADD22R,1.600000X2.000000*%
%ADD23O,1.600000X3.000000*%
%ADD24RoundRect,0.305575X0.460025X0.412525X-0.460025X0.412525X-0.460025X-0.412525X0.460025X-0.412525X0*%
%ADD25RoundRect,0.308511X0.457089X0.416489X-0.457089X0.416489X-0.457089X-0.416489X0.457089X-0.416489X0*%
%ADD26RoundRect,0.305575X-0.412525X0.460025X-0.412525X-0.460025X0.412525X-0.460025X0.412525X0.460025X0*%
%ADD27RoundRect,0.308511X-0.416489X0.457089X-0.416489X-0.457089X0.416489X-0.457089X0.416489X0.457089X0*%
%ADD28RoundRect,0.278125X-0.389375X0.474375X-0.389375X-0.474375X0.389375X-0.474375X0.389375X0.474375X0*%
%ADD29RoundRect,0.305575X-0.616986X0.033588X0.033588X-0.616986X0.616986X-0.033588X-0.033588X0.616986X0*%
%ADD30RoundRect,0.308511X-0.617713X0.028709X0.028709X-0.617713X0.617713X-0.028709X-0.028709X0.617713X0*%
%ADD31RoundRect,0.278125X-0.474375X-0.389375X0.474375X-0.389375X0.474375X0.389375X-0.474375X0.389375X0*%
%ADD32RoundRect,0.305575X0.616986X-0.033588X-0.033588X0.616986X-0.616986X0.033588X0.033588X-0.616986X0*%
%ADD33RoundRect,0.308511X0.617713X-0.028709X-0.028709X0.617713X-0.617713X0.028709X0.028709X-0.617713X0*%
%ADD34RoundRect,0.305575X-0.460025X-0.412525X0.460025X-0.412525X0.460025X0.412525X-0.460025X0.412525X0*%
%ADD35RoundRect,0.308511X-0.457089X-0.416489X0.457089X-0.416489X0.457089X0.416489X-0.457089X0.416489X0*%
%ADD36RoundRect,0.278125X-0.610763X0.060104X0.060104X-0.610763X0.610763X-0.060104X-0.060104X0.610763X0*%
%ADD37RoundRect,0.278125X0.389375X-0.474375X0.389375X0.474375X-0.389375X0.474375X-0.389375X-0.474375X0*%
%ADD38R,1.000000X1.500000*%
%ADD39RoundRect,0.305575X0.412525X-0.460025X0.412525X0.460025X-0.412525X0.460025X-0.412525X-0.460025X0*%
%ADD40RoundRect,0.308511X0.416489X-0.457089X0.416489X0.457089X-0.416489X0.457089X-0.416489X-0.457089X0*%
G04 APERTURE END LIST*
%TO.C,JP1*%
G36*
X175300000Y-102500000D02*
G01*
X175000000Y-102500000D01*
X175000000Y-104000000D01*
X175300000Y-104000000D01*
X175300000Y-102500000D01*
G37*
%TD*%
D10*
%TO.C,C7*%
X124550000Y-84600000D03*
D11*
X127550000Y-84600000D03*
%TD*%
D12*
%TO.C,J2*%
X111775000Y-80295000D03*
D13*
X103375000Y-116495000D03*
D14*
X112775000Y-120495000D03*
D15*
X118375000Y-88020000D03*
X118375000Y-92170000D03*
X118375000Y-95500000D03*
X118375000Y-98830000D03*
X118375000Y-102135000D03*
X118375000Y-105490000D03*
X118375000Y-108820000D03*
X118375000Y-112970000D03*
X114175000Y-88020000D03*
X114175000Y-92170000D03*
X114175000Y-95500000D03*
X114175000Y-98830000D03*
X114175000Y-102135000D03*
X114175000Y-105490000D03*
X114175000Y-108820000D03*
X114175000Y-112970000D03*
X109975000Y-88020000D03*
X109975000Y-92170000D03*
X109975000Y-95500000D03*
X109975000Y-98830000D03*
X109975000Y-102135000D03*
X109975000Y-105490000D03*
X109975000Y-108820000D03*
X109975000Y-112970000D03*
%TD*%
D16*
%TO.C,H2*%
X189967641Y-132097800D03*
%TD*%
D17*
%TO.C,J4*%
X173250000Y-107750000D03*
D18*
X175790000Y-107750000D03*
X173250000Y-110290000D03*
X175790000Y-110290000D03*
X173250000Y-112830000D03*
X175790000Y-112830000D03*
%TD*%
D19*
%TO.C,J31*%
X193750000Y-123975000D03*
D20*
X191250000Y-123975000D03*
X188750000Y-123975000D03*
X186250000Y-123975000D03*
%TD*%
D18*
%TO.C,SW1*%
X180199200Y-123090000D03*
X180199200Y-129590000D03*
X175699200Y-123090000D03*
X175699200Y-129590000D03*
%TD*%
D21*
%TO.C,Y3*%
X164743282Y-101000000D03*
X159663282Y-101000000D03*
%TD*%
%TO.C,Y4*%
X164743282Y-84500000D03*
X159663282Y-84500000D03*
%TD*%
%TO.C,Y1*%
X184867589Y-84890266D03*
X188459691Y-88482368D03*
%TD*%
D16*
%TO.C,H1*%
X189967641Y-70597800D03*
%TD*%
D22*
%TO.C,C11*%
X147500000Y-68750000D03*
D23*
X147500000Y-65750000D03*
%TD*%
D24*
%TO.C,C41*%
X169215600Y-98742048D03*
D25*
X166784400Y-98748948D03*
%TD*%
D26*
%TO.C,C4*%
X174243100Y-98284400D03*
D27*
X174250000Y-100715600D03*
%TD*%
D28*
%TO.C,R40*%
X122467500Y-110847500D03*
X122467500Y-113152500D03*
%TD*%
D24*
%TO.C,C26*%
X169115600Y-82043100D03*
D25*
X166684400Y-82050000D03*
%TD*%
D24*
%TO.C,C39*%
X166715600Y-90993100D03*
D25*
X164284400Y-91000000D03*
%TD*%
D29*
%TO.C,C17*%
X184276003Y-80285761D03*
D30*
X186000000Y-82000000D03*
%TD*%
D26*
%TO.C,C44*%
X155145600Y-106784400D03*
D27*
X155152500Y-109215600D03*
%TD*%
D31*
%TO.C,R15*%
X161697500Y-82083552D03*
X164002500Y-82083552D03*
%TD*%
D32*
%TO.C,C5*%
X192864438Y-88854680D03*
D33*
X191140441Y-87140441D03*
%TD*%
D34*
%TO.C,C42*%
X156784400Y-98755848D03*
D35*
X159215600Y-98748948D03*
%TD*%
D31*
%TO.C,R16*%
X164347500Y-93032500D03*
X166652500Y-93032500D03*
%TD*%
D34*
%TO.C,C27*%
X156534400Y-82056900D03*
D35*
X158965600Y-82050000D03*
%TD*%
D36*
%TO.C,R4*%
X187762078Y-83830717D03*
X189391960Y-85460599D03*
%TD*%
D24*
%TO.C,C43*%
X166715600Y-106993100D03*
D25*
X164284400Y-107000000D03*
%TD*%
D31*
%TO.C,R21*%
X164347500Y-109032500D03*
X166652500Y-109032500D03*
%TD*%
%TO.C,R9*%
X183347500Y-137282500D03*
X185652500Y-137282500D03*
%TD*%
D37*
%TO.C,R10*%
X191032500Y-77152500D03*
X191032500Y-74847500D03*
%TD*%
D38*
%TO.C,JP1*%
X175800000Y-103250000D03*
X174500000Y-103250000D03*
%TD*%
D39*
%TO.C,C29*%
X189006900Y-77215600D03*
D40*
X189000000Y-74784400D03*
%TD*%
D34*
%TO.C,C24*%
X183284400Y-135256900D03*
D35*
X185715600Y-135250000D03*
%TD*%
D34*
%TO.C,C23*%
X135250000Y-97000000D03*
D35*
X137681200Y-96993100D03*
%TD*%
D24*
%TO.C,C18*%
X179164800Y-125433100D03*
D25*
X176733600Y-125440000D03*
%TD*%
D31*
%TO.C,R5*%
X176796700Y-127472500D03*
X179101700Y-127472500D03*
%TD*%
%TO.C,R18*%
X161847500Y-98782500D03*
X164152500Y-98782500D03*
%TD*%
M02*
