%TF.GenerationSoftware,KiCad,Pcbnew,8.0.2*%
%TF.CreationDate,2025-03-10T15:18:04+08:00*%
%TF.ProjectId,sensorboard_v10,73656e73-6f72-4626-9f61-72645f763130,rev?*%
%TF.SameCoordinates,Original*%
%TF.FileFunction,Soldermask,Top*%
%TF.FilePolarity,Negative*%
%FSLAX46Y46*%
G04 Gerber Fmt 4.6, Leading zero omitted, Abs format (unit mm)*
G04 Created by KiCad (PCBNEW 8.0.2) date 2025-03-10 15:18:04*
%MOMM*%
%LPD*%
G01*
G04 APERTURE LIST*
G04 Aperture macros list*
%AMRoundRect*
0 Rectangle with rounded corners*
0 $1 Rounding radius*
0 $2 $3 $4 $5 $6 $7 $8 $9 X,Y pos of 4 corners*
0 Add a 4 corners polygon primitive as box body*
4,1,4,$2,$3,$4,$5,$6,$7,$8,$9,$2,$3,0*
0 Add four circle primitives for the rounded corners*
1,1,$1+$1,$2,$3*
1,1,$1+$1,$4,$5*
1,1,$1+$1,$6,$7*
1,1,$1+$1,$8,$9*
0 Add four rect primitives between the rounded corners*
20,1,$1+$1,$2,$3,$4,$5,0*
20,1,$1+$1,$4,$5,$6,$7,0*
20,1,$1+$1,$6,$7,$8,$9,0*
20,1,$1+$1,$8,$9,$2,$3,0*%
G04 Aperture macros list end*
%ADD10RoundRect,0.354167X0.820833X-0.708333X0.820833X0.708333X-0.820833X0.708333X-0.820833X-0.708333X0*%
%ADD11RoundRect,0.354167X-0.820833X0.708333X-0.820833X-0.708333X0.820833X-0.708333X0.820833X0.708333X0*%
%ADD12RoundRect,0.250000X0.600000X0.725000X-0.600000X0.725000X-0.600000X-0.725000X0.600000X-0.725000X0*%
%ADD13O,1.700000X1.950000*%
%ADD14RoundRect,0.278125X0.474375X0.389375X-0.474375X0.389375X-0.474375X-0.389375X0.474375X-0.389375X0*%
%ADD15RoundRect,0.278125X0.389375X-0.474375X0.389375X0.474375X-0.389375X0.474375X-0.389375X-0.474375X0*%
%ADD16R,2.350000X0.300000*%
%ADD17RoundRect,0.305575X-0.412525X0.460025X-0.412525X-0.460025X0.412525X-0.460025X0.412525X0.460025X0*%
%ADD18RoundRect,0.308511X-0.416489X0.457089X-0.416489X-0.457089X0.416489X-0.457089X0.416489X0.457089X0*%
%ADD19RoundRect,0.120600X-0.281400X1.111400X-0.281400X-1.111400X0.281400X-1.111400X0.281400X1.111400X0*%
%ADD20RoundRect,0.122100X-0.284900X1.109900X-0.284900X-1.109900X0.284900X-1.109900X0.284900X1.109900X0*%
%ADD21RoundRect,0.305575X0.460025X0.412525X-0.460025X0.412525X-0.460025X-0.412525X0.460025X-0.412525X0*%
%ADD22RoundRect,0.308511X0.457089X0.416489X-0.457089X0.416489X-0.457089X-0.416489X0.457089X-0.416489X0*%
%ADD23RoundRect,0.250000X0.600000X0.750000X-0.600000X0.750000X-0.600000X-0.750000X0.600000X-0.750000X0*%
%ADD24O,1.700000X2.000000*%
%ADD25R,1.600000X1.600000*%
%ADD26C,1.600000*%
%ADD27R,4.000000X0.900000*%
%ADD28R,4.000000X0.820000*%
%ADD29R,0.900000X3.250000*%
%ADD30R,4.000000X0.890000*%
%ADD31R,1.000000X1.000000*%
%ADD32C,0.600000*%
%ADD33RoundRect,0.250000X-0.600000X-0.725000X0.600000X-0.725000X0.600000X0.725000X-0.600000X0.725000X0*%
%ADD34RoundRect,0.150000X-0.150000X1.350000X-0.150000X-1.350000X0.150000X-1.350000X0.150000X1.350000X0*%
%ADD35RoundRect,0.150000X-0.150000X1.337500X-0.150000X-1.337500X0.150000X-1.337500X0.150000X1.337500X0*%
%ADD36RoundRect,0.304348X0.420652X0.395652X-0.420652X0.395652X-0.420652X-0.395652X0.420652X-0.395652X0*%
%ADD37C,2.000000*%
%ADD38RoundRect,0.278125X-0.389375X0.474375X-0.389375X-0.474375X0.389375X-0.474375X0.389375X0.474375X0*%
%ADD39RoundRect,0.278125X-0.474375X-0.389375X0.474375X-0.389375X0.474375X0.389375X-0.474375X0.389375X0*%
%ADD40C,3.200000*%
%ADD41RoundRect,0.305575X-0.460025X-0.412525X0.460025X-0.412525X0.460025X0.412525X-0.460025X0.412525X0*%
%ADD42RoundRect,0.308511X-0.457089X-0.416489X0.457089X-0.416489X0.457089X0.416489X-0.457089X0.416489X0*%
%ADD43RoundRect,0.305575X0.412525X-0.460025X0.412525X0.460025X-0.412525X0.460025X-0.412525X-0.460025X0*%
%ADD44RoundRect,0.308511X0.416489X-0.457089X0.416489X0.457089X-0.416489X0.457089X-0.416489X-0.457089X0*%
%ADD45RoundRect,0.250001X1.074999X-0.462499X1.074999X0.462499X-1.074999X0.462499X-1.074999X-0.462499X0*%
%ADD46R,2.400000X1.600000*%
%ADD47R,2.650000X1.600000*%
%ADD48RoundRect,0.250000X-0.750000X0.600000X-0.750000X-0.600000X0.750000X-0.600000X0.750000X0.600000X0*%
%ADD49O,2.000000X1.700000*%
%ADD50R,3.800000X3.600000*%
%ADD51RoundRect,0.250001X1.099999X-1.099999X1.099999X1.099999X-1.099999X1.099999X-1.099999X-1.099999X0*%
%ADD52C,2.700000*%
%ADD53RoundRect,0.162500X-1.052500X-0.162500X1.052500X-0.162500X1.052500X0.162500X-1.052500X0.162500X0*%
%ADD54RoundRect,0.250000X1.500000X0.650000X-1.500000X0.650000X-1.500000X-0.650000X1.500000X-0.650000X0*%
%ADD55RoundRect,0.250001X-0.462499X-1.074999X0.462499X-1.074999X0.462499X1.074999X-0.462499X1.074999X0*%
%ADD56C,0.650000*%
%ADD57R,2.695000X0.600000*%
%ADD58R,2.695000X0.300000*%
%ADD59O,2.100000X1.000000*%
%ADD60O,1.800000X1.000000*%
%ADD61RoundRect,0.162500X0.927500X0.162500X-0.927500X0.162500X-0.927500X-0.162500X0.927500X-0.162500X0*%
%ADD62RoundRect,0.304348X-0.395652X0.420652X-0.395652X-0.420652X0.395652X-0.420652X0.395652X0.420652X0*%
%ADD63RoundRect,0.250000X0.300000X-3.075000X0.300000X3.075000X-0.300000X3.075000X-0.300000X-3.075000X0*%
%ADD64RoundRect,0.271279X5.128721X-4.828721X5.128721X4.828721X-5.128721X4.828721X-5.128721X-4.828721X0*%
%ADD65RoundRect,0.375000X-1.300000X-0.375000X1.300000X-0.375000X1.300000X0.375000X-1.300000X0.375000X0*%
%ADD66RoundRect,0.837500X-0.837500X-1.062500X0.837500X-1.062500X0.837500X1.062500X-0.837500X1.062500X0*%
%ADD67RoundRect,0.387500X-1.287500X-0.387500X1.287500X-0.387500X1.287500X0.387500X-1.287500X0.387500X0*%
G04 APERTURE END LIST*
D10*
%TO.C,C33*%
X115100000Y-144637500D03*
X115100000Y-140762500D03*
%TD*%
D11*
%TO.C,C32*%
X127500000Y-141762500D03*
X127500000Y-145637500D03*
%TD*%
D12*
%TO.C,J14*%
X108500000Y-96725000D03*
D13*
X106000000Y-96725000D03*
X103500000Y-96725000D03*
%TD*%
D14*
%TO.C,R37*%
X173652500Y-140932500D03*
X171347500Y-140932500D03*
%TD*%
D15*
%TO.C,R14*%
X124435000Y-96805000D03*
X124435000Y-94500000D03*
%TD*%
D16*
%TO.C,U7*%
X158040600Y-89050000D03*
X158040600Y-88550000D03*
X158040600Y-88050000D03*
X158040600Y-87550000D03*
X153390600Y-87550000D03*
X153390600Y-88050000D03*
X153390600Y-88550000D03*
X153390600Y-89050000D03*
%TD*%
D14*
%TO.C,R31*%
X129152500Y-102032500D03*
X126847500Y-102032500D03*
%TD*%
D17*
%TO.C,C35*%
X111806900Y-141784400D03*
D18*
X111800000Y-144215600D03*
%TD*%
D19*
%TO.C,U6*%
X127988517Y-108180000D03*
X126718517Y-108180000D03*
X125448517Y-108180000D03*
X124178517Y-108180000D03*
X122908517Y-108180000D03*
X121638517Y-108180000D03*
X120368517Y-108180000D03*
X120368517Y-113420000D03*
D20*
X121633517Y-113420000D03*
D19*
X122908517Y-113420000D03*
X124178517Y-113420000D03*
X125448517Y-113420000D03*
X126718517Y-113420000D03*
X127988517Y-113420000D03*
%TD*%
D12*
%TO.C,J13*%
X108500000Y-89325000D03*
D13*
X106000000Y-89325000D03*
X103500000Y-89325000D03*
%TD*%
D21*
%TO.C,C27*%
X149731200Y-89306900D03*
D22*
X147300000Y-89300000D03*
%TD*%
D12*
%TO.C,J26*%
X153850000Y-146625000D03*
D13*
X151350000Y-146625000D03*
X148850000Y-146625000D03*
%TD*%
D23*
%TO.C,J4*%
X106000000Y-103700000D03*
D24*
X103500000Y-103700000D03*
%TD*%
D14*
%TO.C,R36*%
X149752500Y-87032500D03*
X147447500Y-87032500D03*
%TD*%
D15*
%TO.C,R9*%
X133217500Y-89902500D03*
X133217500Y-87597500D03*
%TD*%
D25*
%TO.C,C7*%
X107750000Y-67500000D03*
D26*
X107750000Y-65000000D03*
%TD*%
D15*
%TO.C,R39*%
X141967500Y-69552500D03*
X141967500Y-67247500D03*
%TD*%
D27*
%TO.C,U1*%
X156860000Y-58150000D03*
X156860000Y-59420000D03*
X156860000Y-60690000D03*
X156860000Y-61960000D03*
X156860000Y-63230000D03*
X156860000Y-64500000D03*
X156860000Y-65770000D03*
D28*
X156860000Y-67000000D03*
D27*
X156860000Y-68310000D03*
X156860000Y-69580000D03*
X156860000Y-70850000D03*
X156860000Y-72120000D03*
X156860000Y-73390000D03*
X156860000Y-74660000D03*
D29*
X159875000Y-76785000D03*
X161145000Y-76785000D03*
X162415000Y-76785000D03*
X163685000Y-76785000D03*
X164955000Y-76785000D03*
X166225000Y-76785000D03*
X167495000Y-76785000D03*
X168765000Y-76785000D03*
X170035000Y-76785000D03*
X171305000Y-76785000D03*
X172575000Y-76785000D03*
X173845000Y-76785000D03*
D27*
X176860000Y-74660000D03*
X176860000Y-73390000D03*
X176860000Y-72120000D03*
D30*
X176860000Y-70855000D03*
D27*
X176860000Y-69580000D03*
X176860000Y-68310000D03*
X176860000Y-67040000D03*
X176860000Y-65770000D03*
X176860000Y-64500000D03*
X176860000Y-63230000D03*
X176860000Y-61960000D03*
X176860000Y-60690000D03*
X176860000Y-59420000D03*
X176860000Y-58150000D03*
D31*
X164000000Y-62000000D03*
D32*
X164000000Y-62750000D03*
D31*
X164000000Y-63500000D03*
D32*
X164000000Y-64250000D03*
D31*
X164000000Y-65000000D03*
D32*
X164750000Y-62000000D03*
X164750000Y-63500000D03*
X164750000Y-65000000D03*
D31*
X165500000Y-62000000D03*
D32*
X165500000Y-62750000D03*
D31*
X165500000Y-63500000D03*
D32*
X165500000Y-64250000D03*
D31*
X165500000Y-65000000D03*
D32*
X166250000Y-62000000D03*
X166250000Y-63500000D03*
X166250000Y-65000000D03*
D31*
X167000000Y-62000000D03*
D32*
X167000000Y-62750000D03*
D31*
X167000000Y-63500000D03*
D32*
X167000000Y-64250000D03*
D31*
X167000000Y-65000000D03*
%TD*%
D15*
%TO.C,R7*%
X127384166Y-89902500D03*
X127384166Y-87597500D03*
%TD*%
D33*
%TO.C,J19*%
X191500000Y-96175000D03*
D13*
X194000000Y-96175000D03*
X196500000Y-96175000D03*
%TD*%
D33*
%TO.C,J6*%
X153390600Y-96000000D03*
D13*
X155890600Y-96000000D03*
X158390600Y-96000000D03*
X160890600Y-96000000D03*
%TD*%
D34*
%TO.C,U3*%
X174105000Y-82400000D03*
X172835000Y-82400000D03*
D35*
X171700000Y-82387500D03*
D34*
X170295000Y-82400000D03*
X170295000Y-88400000D03*
X171565000Y-88400000D03*
X172835000Y-88400000D03*
X174105000Y-88400000D03*
%TD*%
D36*
%TO.C,D3*%
X132375000Y-80400000D03*
X130025000Y-80400000D03*
%TD*%
D37*
%TO.C,SW2*%
X198050000Y-84750000D03*
X191550000Y-84750000D03*
X198050000Y-80250000D03*
X191550000Y-80250000D03*
%TD*%
D38*
%TO.C,R6*%
X180932500Y-124247500D03*
X180932500Y-126552500D03*
%TD*%
D39*
%TO.C,R35*%
X119368983Y-119767500D03*
X121673983Y-119767500D03*
%TD*%
D23*
%TO.C,J9*%
X106000000Y-125800000D03*
D24*
X103500000Y-125800000D03*
%TD*%
D39*
%TO.C,R30*%
X126847500Y-104451900D03*
X129152500Y-104451900D03*
%TD*%
D12*
%TO.C,J15*%
X119700000Y-96725000D03*
D13*
X117200000Y-96725000D03*
X114700000Y-96725000D03*
%TD*%
D40*
%TO.C,H4*%
X195000000Y-145000000D03*
%TD*%
D15*
%TO.C,R10*%
X130300832Y-89902500D03*
X130300832Y-87597500D03*
%TD*%
D40*
%TO.C,H3*%
X195000000Y-55000000D03*
%TD*%
D41*
%TO.C,C10*%
X136284400Y-64093100D03*
D42*
X138715600Y-64100000D03*
%TD*%
D43*
%TO.C,C26*%
X162383700Y-89365600D03*
D44*
X162390600Y-86934400D03*
%TD*%
D14*
%TO.C,R38*%
X132352500Y-78232500D03*
X130047500Y-78232500D03*
%TD*%
D15*
%TO.C,R11*%
X133217500Y-96805000D03*
X133217500Y-94500000D03*
%TD*%
%TO.C,R12*%
X130290000Y-96805000D03*
X130290000Y-94500000D03*
%TD*%
D39*
%TO.C,R44*%
X122447500Y-147967500D03*
X124752500Y-147967500D03*
%TD*%
D21*
%TO.C,C30*%
X181315600Y-114706900D03*
D22*
X178884400Y-114700000D03*
%TD*%
D33*
%TO.C,J18*%
X191600000Y-110100000D03*
D13*
X194100000Y-110100000D03*
X196600000Y-110100000D03*
%TD*%
D45*
%TO.C,F1*%
X138700000Y-69787500D03*
X138700000Y-66812500D03*
%TD*%
D46*
%TO.C,L2*%
X123300000Y-137100000D03*
D47*
X118575000Y-137100000D03*
%TD*%
D48*
%TO.C,J21*%
X196925000Y-124150000D03*
D49*
X196925000Y-126650000D03*
%TD*%
D50*
%TO.C,L1*%
X115600000Y-79425000D03*
X125000000Y-79425000D03*
%TD*%
D51*
%TO.C,J3*%
X104450000Y-78507500D03*
D52*
X104450000Y-74547500D03*
%TD*%
D15*
%TO.C,R22*%
X181815397Y-97552500D03*
X181815397Y-95247500D03*
%TD*%
D25*
%TO.C,C11*%
X131000000Y-67600000D03*
D26*
X131000000Y-65100000D03*
%TD*%
D53*
%TO.C,U9*%
X119215000Y-142250000D03*
X119215000Y-143200000D03*
X119215000Y-144150000D03*
X122785000Y-144150000D03*
X122785000Y-143200000D03*
X122785000Y-142250000D03*
%TD*%
D14*
%TO.C,R33*%
X129131017Y-119832500D03*
X126826017Y-119832500D03*
%TD*%
D12*
%TO.C,J1*%
X142800000Y-146625000D03*
D13*
X140300000Y-146625000D03*
X137800000Y-146625000D03*
%TD*%
D40*
%TO.C,H2*%
X105000000Y-145000000D03*
%TD*%
D54*
%TO.C,D1*%
X197600000Y-76000000D03*
X192600000Y-76000000D03*
%TD*%
D39*
%TO.C,R23*%
X117047500Y-147967500D03*
X119352500Y-147967500D03*
%TD*%
D55*
%TO.C,F2*%
X129512500Y-74700000D03*
X132487500Y-74700000D03*
%TD*%
D56*
%TO.C,J2*%
X194395000Y-69890000D03*
X194395000Y-64110000D03*
D57*
X192547500Y-70200000D03*
X192547500Y-69400000D03*
D58*
X192547500Y-68250000D03*
X192547500Y-67250000D03*
X192547500Y-66750000D03*
X192547500Y-65750000D03*
D57*
X192547500Y-64600000D03*
X192547500Y-63800000D03*
X192547500Y-63800000D03*
X192547500Y-64600000D03*
D58*
X192547500Y-65250000D03*
X192547500Y-66250000D03*
X192547500Y-67750000D03*
X192547500Y-68750000D03*
D57*
X192547500Y-69400000D03*
X192547500Y-70200000D03*
D59*
X193875000Y-71320000D03*
D60*
X198075000Y-71320000D03*
D59*
X193875000Y-62680000D03*
D60*
X198075000Y-62680000D03*
%TD*%
D38*
%TO.C,R43*%
X180432500Y-61347500D03*
X180432500Y-63652500D03*
%TD*%
D33*
%TO.C,J7*%
X153390600Y-103000000D03*
D13*
X155890600Y-103000000D03*
X158390600Y-103000000D03*
X160890600Y-103000000D03*
%TD*%
D15*
%TO.C,R8*%
X124467500Y-89902500D03*
X124467500Y-87597500D03*
%TD*%
D33*
%TO.C,J16*%
X191600000Y-103150000D03*
D13*
X194100000Y-103150000D03*
X196600000Y-103150000D03*
%TD*%
D33*
%TO.C,J25*%
X189050000Y-89375000D03*
D13*
X191550000Y-89375000D03*
X194050000Y-89375000D03*
X196550000Y-89375000D03*
%TD*%
D12*
%TO.C,J27*%
X184800000Y-146625000D03*
D13*
X182300000Y-146625000D03*
X179800000Y-146625000D03*
%TD*%
D61*
%TO.C,U8*%
X182160000Y-112550000D03*
X182160000Y-111600000D03*
X182160000Y-110650000D03*
X178840000Y-110650000D03*
X178840000Y-112550000D03*
%TD*%
D39*
%TO.C,R18*%
X158795000Y-140925000D03*
X161100000Y-140925000D03*
%TD*%
D40*
%TO.C,H1*%
X105000000Y-55000000D03*
%TD*%
D15*
%TO.C,R13*%
X127362500Y-96805000D03*
X127362500Y-94500000D03*
%TD*%
D48*
%TO.C,J11*%
X188025000Y-124050000D03*
D49*
X188025000Y-126550000D03*
%TD*%
D14*
%TO.C,R28*%
X121652500Y-104532500D03*
X119347500Y-104532500D03*
%TD*%
D54*
%TO.C,D5*%
X110100000Y-134400000D03*
X105100000Y-134400000D03*
%TD*%
D43*
%TO.C,C18*%
X164893100Y-83715600D03*
D44*
X164900000Y-81284400D03*
%TD*%
D62*
%TO.C,D4*%
X142000000Y-61325000D03*
X142000000Y-63675000D03*
%TD*%
D63*
%TO.C,U4*%
X116900000Y-68250000D03*
X118600000Y-68250000D03*
X120300000Y-68250000D03*
D64*
X120300000Y-57675000D03*
D63*
X122000000Y-68250000D03*
X123700000Y-68250000D03*
%TD*%
D23*
%TO.C,J5*%
X106000000Y-111066666D03*
D24*
X103500000Y-111066666D03*
%TD*%
D21*
%TO.C,C9*%
X138715600Y-61406900D03*
D22*
X136284400Y-61400000D03*
%TD*%
D12*
%TO.C,J12*%
X119700000Y-89325000D03*
D13*
X117200000Y-89325000D03*
X114700000Y-89325000D03*
%TD*%
D39*
%TO.C,R29*%
X119347500Y-101967500D03*
X121652500Y-101967500D03*
%TD*%
D23*
%TO.C,J20*%
X173700000Y-146625000D03*
D24*
X171200000Y-146625000D03*
%TD*%
D17*
%TO.C,C2*%
X152006900Y-58184400D03*
D18*
X152000000Y-60615600D03*
%TD*%
D43*
%TO.C,C21*%
X124243100Y-104431200D03*
D44*
X124250000Y-102000000D03*
%TD*%
D39*
%TO.C,R1*%
X182547500Y-140867500D03*
X184852500Y-140867500D03*
%TD*%
D37*
%TO.C,SW1*%
X187450000Y-84750000D03*
X180950000Y-84750000D03*
X187450000Y-80250000D03*
X180950000Y-80250000D03*
%TD*%
D14*
%TO.C,R34*%
X121652500Y-117250000D03*
X119347500Y-117250000D03*
%TD*%
D15*
%TO.C,R15*%
X184735000Y-104100000D03*
X184735000Y-101795000D03*
%TD*%
%TO.C,R16*%
X181782897Y-104100000D03*
X181782897Y-101795000D03*
%TD*%
%TO.C,R21*%
X184767500Y-97552500D03*
X184767500Y-95247500D03*
%TD*%
D39*
%TO.C,R40*%
X148847500Y-140967500D03*
X151152500Y-140967500D03*
%TD*%
%TO.C,R32*%
X126847500Y-117217500D03*
X129152500Y-117217500D03*
%TD*%
D33*
%TO.C,J23*%
X191700000Y-117075000D03*
D13*
X194200000Y-117075000D03*
X196700000Y-117075000D03*
%TD*%
D41*
%TO.C,C8*%
X128584400Y-61293100D03*
D42*
X131015600Y-61300000D03*
%TD*%
D23*
%TO.C,J8*%
X106000000Y-118433332D03*
D24*
X103500000Y-118433332D03*
%TD*%
D43*
%TO.C,C34*%
X130693100Y-144331200D03*
D44*
X130700000Y-141900000D03*
%TD*%
D65*
%TO.C,U5*%
X131075000Y-52800000D03*
X131075000Y-55100000D03*
D66*
X138725000Y-55100000D03*
D67*
X131075000Y-57375000D03*
%TD*%
D33*
%TO.C,J10*%
X153390600Y-110000000D03*
D13*
X155890600Y-110000000D03*
X158390600Y-110000000D03*
X160890600Y-110000000D03*
%TD*%
D17*
%TO.C,C28*%
X167406900Y-81384400D03*
D18*
X167400000Y-83815600D03*
%TD*%
D14*
%TO.C,R17*%
X165655000Y-140990000D03*
X163350000Y-140990000D03*
%TD*%
D12*
%TO.C,J17*%
X165050000Y-146625000D03*
D13*
X162550000Y-146625000D03*
X160050000Y-146625000D03*
%TD*%
M02*
