G04 #@! TF.GenerationSoftware,KiCad,Pcbnew,7.0.5*
G04 #@! TF.CreationDate,2024-08-04T19:03:28+08:00*
G04 #@! TF.ProjectId,Vehicle_Control_Unit_VCU_V1,56656869-636c-4655-9f43-6f6e74726f6c,rev?*
G04 #@! TF.SameCoordinates,Original*
G04 #@! TF.FileFunction,Legend,Top*
G04 #@! TF.FilePolarity,Positive*
%FSLAX46Y46*%
G04 Gerber Fmt 4.6, Leading zero omitted, Abs format (unit mm)*
G04 Created by KiCad (PCBNEW 7.0.5) date 2024-08-04 19:03:28*
%MOMM*%
%LPD*%
G01*
G04 APERTURE LIST*
G04 Aperture macros list*
%AMRoundRect*
0 Rectangle with rounded corners*
0 $1 Rounding radius*
0 $2 $3 $4 $5 $6 $7 $8 $9 X,Y pos of 4 corners*
0 Add a 4 corners polygon primitive as box body*
4,1,4,$2,$3,$4,$5,$6,$7,$8,$9,$2,$3,0*
0 Add four circle primitives for the rounded corners*
1,1,$1+$1,$2,$3*
1,1,$1+$1,$4,$5*
1,1,$1+$1,$6,$7*
1,1,$1+$1,$8,$9*
0 Add four rect primitives between the rounded corners*
20,1,$1+$1,$2,$3,$4,$5,0*
20,1,$1+$1,$4,$5,$6,$7,0*
20,1,$1+$1,$6,$7,$8,$9,0*
20,1,$1+$1,$8,$9,$2,$3,0*%
%AMRotRect*
0 Rectangle, with rotation*
0 The origin of the aperture is its center*
0 $1 length*
0 $2 width*
0 $3 Rotation angle, in degrees counterclockwise*
0 Add horizontal line*
21,1,$1,$2,0,0,$3*%
G04 Aperture macros list end*
%ADD10C,0.300000*%
%ADD11C,0.275000*%
%ADD12C,0.150000*%
%ADD13C,0.254000*%
%ADD14C,0.120000*%
%ADD15C,0.200000*%
%ADD16C,0.100000*%
%ADD17RoundRect,0.250000X-0.750000X0.600000X-0.750000X-0.600000X0.750000X-0.600000X0.750000X0.600000X0*%
%ADD18O,2.000000X1.700000*%
%ADD19RotRect,1.800000X1.800000X135.000000*%
%ADD20C,1.800000*%
%ADD21RoundRect,0.250000X0.725000X-0.600000X0.725000X0.600000X-0.725000X0.600000X-0.725000X-0.600000X0*%
%ADD22O,1.950000X1.700000*%
%ADD23RoundRect,0.250000X0.262500X0.450000X-0.262500X0.450000X-0.262500X-0.450000X0.262500X-0.450000X0*%
%ADD24R,1.000000X1.700000*%
%ADD25RoundRect,0.250000X0.750000X-0.600000X0.750000X0.600000X-0.750000X0.600000X-0.750000X-0.600000X0*%
%ADD26RoundRect,0.250000X0.159099X-0.512652X0.512652X-0.159099X-0.159099X0.512652X-0.512652X0.159099X0*%
%ADD27R,1.500000X2.000000*%
%ADD28R,3.800000X2.000000*%
%ADD29RoundRect,0.250000X-0.159099X0.512652X-0.512652X0.159099X0.159099X-0.512652X0.512652X-0.159099X0*%
%ADD30RoundRect,0.250000X-0.600000X-0.750000X0.600000X-0.750000X0.600000X0.750000X-0.600000X0.750000X0*%
%ADD31O,1.700000X2.000000*%
%ADD32RoundRect,0.250000X0.475000X-0.250000X0.475000X0.250000X-0.475000X0.250000X-0.475000X-0.250000X0*%
%ADD33RoundRect,0.250000X-0.250000X-0.475000X0.250000X-0.475000X0.250000X0.475000X-0.250000X0.475000X0*%
%ADD34RoundRect,0.250000X-0.512652X-0.159099X-0.159099X-0.512652X0.512652X0.159099X0.159099X0.512652X0*%
%ADD35RoundRect,0.150000X0.150000X-0.875000X0.150000X0.875000X-0.150000X0.875000X-0.150000X-0.875000X0*%
%ADD36RotRect,3.500000X2.400000X135.000000*%
%ADD37R,1.700000X1.700000*%
%ADD38O,1.700000X1.700000*%
%ADD39RoundRect,0.150000X-0.825000X-0.150000X0.825000X-0.150000X0.825000X0.150000X-0.825000X0.150000X0*%
%ADD40RoundRect,0.250000X0.450000X-0.262500X0.450000X0.262500X-0.450000X0.262500X-0.450000X-0.262500X0*%
%ADD41RoundRect,0.250000X-0.375000X-0.625000X0.375000X-0.625000X0.375000X0.625000X-0.375000X0.625000X0*%
%ADD42RoundRect,0.250000X-0.450000X0.262500X-0.450000X-0.262500X0.450000X-0.262500X0.450000X0.262500X0*%
%ADD43RoundRect,0.250000X-0.475000X0.250000X-0.475000X-0.250000X0.475000X-0.250000X0.475000X0.250000X0*%
%ADD44R,3.500000X2.400000*%
%ADD45RoundRect,0.250000X-0.262500X-0.450000X0.262500X-0.450000X0.262500X0.450000X-0.262500X0.450000X0*%
%ADD46RoundRect,0.112500X0.112500X-0.187500X0.112500X0.187500X-0.112500X0.187500X-0.112500X-0.187500X0*%
%ADD47RotRect,1.600000X0.550000X45.000000*%
%ADD48RotRect,1.600000X0.550000X135.000000*%
G04 APERTURE END LIST*
D10*
G36*
X185384874Y-87653897D02*
G01*
X185384874Y-89145000D01*
X185093614Y-89145000D01*
X185093614Y-87653897D01*
X185384874Y-87653897D01*
G37*
G36*
X186200034Y-89160387D02*
G01*
X186178845Y-89160133D01*
X186158051Y-89159374D01*
X186137652Y-89158107D01*
X186117648Y-89156334D01*
X186098039Y-89154054D01*
X186078825Y-89151268D01*
X186060006Y-89147975D01*
X186041582Y-89144175D01*
X186023553Y-89139869D01*
X186005919Y-89135056D01*
X185988679Y-89129737D01*
X185971835Y-89123911D01*
X185955386Y-89117578D01*
X185939332Y-89110739D01*
X185923673Y-89103393D01*
X185908408Y-89095540D01*
X185893564Y-89087157D01*
X185879162Y-89078310D01*
X185865205Y-89068999D01*
X185851691Y-89059224D01*
X185838620Y-89048986D01*
X185825994Y-89038284D01*
X185813811Y-89027119D01*
X185802071Y-89015490D01*
X185790775Y-89003397D01*
X185779923Y-88990840D01*
X185769515Y-88977820D01*
X185759550Y-88964336D01*
X185750029Y-88950389D01*
X185740951Y-88935977D01*
X185732317Y-88921102D01*
X185724127Y-88905764D01*
X185716452Y-88889947D01*
X185709272Y-88873730D01*
X185702588Y-88857112D01*
X185696398Y-88840093D01*
X185690704Y-88822673D01*
X185685504Y-88804853D01*
X185680800Y-88786632D01*
X185676591Y-88768011D01*
X185672878Y-88748988D01*
X185669659Y-88729565D01*
X185666936Y-88709742D01*
X185664707Y-88689517D01*
X185662974Y-88668892D01*
X185661737Y-88647866D01*
X185660994Y-88626439D01*
X185660746Y-88604612D01*
X185660746Y-88195383D01*
X185660994Y-88173427D01*
X185661737Y-88151889D01*
X185662974Y-88130769D01*
X185664707Y-88110066D01*
X185666936Y-88089782D01*
X185669659Y-88069915D01*
X185672878Y-88050466D01*
X185676591Y-88031435D01*
X185680800Y-88012822D01*
X185685504Y-87994627D01*
X185690704Y-87976850D01*
X185696398Y-87959491D01*
X185702588Y-87942549D01*
X185709272Y-87926025D01*
X185716452Y-87909920D01*
X185724127Y-87894232D01*
X185732317Y-87878936D01*
X185740951Y-87864098D01*
X185750029Y-87849719D01*
X185759550Y-87835797D01*
X185769515Y-87822333D01*
X185779923Y-87809327D01*
X185790775Y-87796779D01*
X185802071Y-87784689D01*
X185813811Y-87773057D01*
X185825994Y-87761883D01*
X185838620Y-87751167D01*
X185851691Y-87740908D01*
X185865205Y-87731108D01*
X185879162Y-87721766D01*
X185893564Y-87712882D01*
X185908408Y-87704455D01*
X185923673Y-87696514D01*
X185939332Y-87689085D01*
X185955386Y-87682169D01*
X185971835Y-87675764D01*
X185988679Y-87669872D01*
X186005919Y-87664493D01*
X186023553Y-87659626D01*
X186041582Y-87655271D01*
X186060006Y-87651428D01*
X186078825Y-87648098D01*
X186098039Y-87645280D01*
X186117648Y-87642975D01*
X186137652Y-87641182D01*
X186158051Y-87639901D01*
X186178845Y-87639132D01*
X186200034Y-87638876D01*
X186217590Y-87639112D01*
X186234902Y-87639821D01*
X186251971Y-87641001D01*
X186268796Y-87642654D01*
X186285379Y-87644779D01*
X186301718Y-87647377D01*
X186317813Y-87650447D01*
X186333666Y-87653989D01*
X186349275Y-87658003D01*
X186364641Y-87662489D01*
X186379763Y-87667448D01*
X186394643Y-87672879D01*
X186409278Y-87678782D01*
X186423671Y-87685158D01*
X186437821Y-87692006D01*
X186451727Y-87699326D01*
X186465362Y-87707096D01*
X186478700Y-87715292D01*
X186491740Y-87723914D01*
X186504483Y-87732963D01*
X186516928Y-87742438D01*
X186529075Y-87752340D01*
X186540925Y-87762668D01*
X186552477Y-87773423D01*
X186563731Y-87784605D01*
X186574688Y-87796212D01*
X186585347Y-87808246D01*
X186595708Y-87820707D01*
X186605771Y-87833594D01*
X186615537Y-87846908D01*
X186625005Y-87860648D01*
X186634176Y-87874815D01*
X186643068Y-87889342D01*
X186651607Y-87904255D01*
X186659794Y-87919555D01*
X186667630Y-87935242D01*
X186675113Y-87951315D01*
X186682244Y-87967774D01*
X186689023Y-87984619D01*
X186695450Y-88001851D01*
X186701526Y-88019470D01*
X186707249Y-88037475D01*
X186712620Y-88055866D01*
X186717638Y-88074643D01*
X186722305Y-88093807D01*
X186726620Y-88113358D01*
X186730583Y-88133295D01*
X186734193Y-88153618D01*
X186442934Y-88153618D01*
X186438618Y-88135208D01*
X186433729Y-88117531D01*
X186428268Y-88100587D01*
X186422234Y-88084375D01*
X186415628Y-88068896D01*
X186408450Y-88054150D01*
X186400699Y-88040136D01*
X186392376Y-88026856D01*
X186383543Y-88014313D01*
X186374264Y-88002515D01*
X186364538Y-87991462D01*
X186351752Y-87978691D01*
X186338270Y-87967083D01*
X186324089Y-87956637D01*
X186309211Y-87947355D01*
X186293698Y-87939333D01*
X186277612Y-87932672D01*
X186260954Y-87927369D01*
X186243723Y-87923427D01*
X186225920Y-87920843D01*
X186211266Y-87919756D01*
X186200034Y-87919511D01*
X186178379Y-87920149D01*
X186157651Y-87922061D01*
X186137850Y-87925249D01*
X186118976Y-87929712D01*
X186101030Y-87935450D01*
X186084011Y-87942463D01*
X186067920Y-87950751D01*
X186052756Y-87960315D01*
X186038519Y-87971153D01*
X186025210Y-87983267D01*
X186016852Y-87992051D01*
X186005263Y-88006102D01*
X185994815Y-88021190D01*
X185985506Y-88037315D01*
X185977336Y-88054476D01*
X185970307Y-88072675D01*
X185964418Y-88091910D01*
X185959668Y-88112182D01*
X185956059Y-88133491D01*
X185954286Y-88148273D01*
X185953019Y-88163515D01*
X185952259Y-88179219D01*
X185952006Y-88195383D01*
X185952006Y-88604612D01*
X185952259Y-88620775D01*
X185953019Y-88636474D01*
X185954286Y-88651710D01*
X185956059Y-88666482D01*
X185959668Y-88687770D01*
X185964418Y-88708016D01*
X185970307Y-88727218D01*
X185977336Y-88745376D01*
X185985506Y-88762492D01*
X185994815Y-88778564D01*
X186005263Y-88793592D01*
X186016852Y-88807578D01*
X186029543Y-88820411D01*
X186043162Y-88831981D01*
X186057708Y-88842290D01*
X186073181Y-88851336D01*
X186089581Y-88859119D01*
X186106909Y-88865641D01*
X186125164Y-88870900D01*
X186144347Y-88874897D01*
X186164457Y-88877632D01*
X186185494Y-88879105D01*
X186200034Y-88879385D01*
X186217091Y-88878851D01*
X186233638Y-88877247D01*
X186249677Y-88874575D01*
X186265207Y-88870833D01*
X186280228Y-88866022D01*
X186294741Y-88860143D01*
X186308745Y-88853194D01*
X186322240Y-88845176D01*
X186335226Y-88836089D01*
X186347704Y-88825933D01*
X186355739Y-88818569D01*
X186367338Y-88806653D01*
X186378228Y-88793848D01*
X186388409Y-88780154D01*
X186397883Y-88765572D01*
X186406647Y-88750101D01*
X186414704Y-88733741D01*
X186422052Y-88716493D01*
X186428691Y-88698356D01*
X186434623Y-88679330D01*
X186439846Y-88659415D01*
X186442934Y-88645645D01*
X186734193Y-88645645D01*
X186730450Y-88665838D01*
X186726362Y-88685659D01*
X186721932Y-88705108D01*
X186717158Y-88724184D01*
X186712040Y-88742889D01*
X186706579Y-88761221D01*
X186700774Y-88779182D01*
X186694626Y-88796770D01*
X186688135Y-88813987D01*
X186681300Y-88830831D01*
X186674121Y-88847303D01*
X186666599Y-88863403D01*
X186658734Y-88879131D01*
X186650525Y-88894486D01*
X186641973Y-88909470D01*
X186633077Y-88924082D01*
X186623908Y-88938293D01*
X186614444Y-88952074D01*
X186604685Y-88965427D01*
X186594632Y-88978350D01*
X186584283Y-88990843D01*
X186573640Y-89002907D01*
X186562702Y-89014542D01*
X186551469Y-89025748D01*
X186539942Y-89036524D01*
X186528119Y-89046871D01*
X186516002Y-89056789D01*
X186503590Y-89066277D01*
X186490883Y-89075336D01*
X186477882Y-89083966D01*
X186464585Y-89092166D01*
X186450994Y-89099937D01*
X186437177Y-89107257D01*
X186423110Y-89114105D01*
X186408795Y-89120480D01*
X186394230Y-89126384D01*
X186379417Y-89131815D01*
X186364354Y-89136773D01*
X186349043Y-89141260D01*
X186333483Y-89145274D01*
X186317673Y-89148816D01*
X186301615Y-89151886D01*
X186285307Y-89154483D01*
X186268751Y-89156609D01*
X186251945Y-89158262D01*
X186234891Y-89159442D01*
X186217587Y-89160151D01*
X186200034Y-89160387D01*
G37*
G36*
X187417463Y-89160387D02*
G01*
X187397512Y-89160197D01*
X187377638Y-89159627D01*
X187357841Y-89158677D01*
X187338122Y-89157347D01*
X187318480Y-89155637D01*
X187298915Y-89153548D01*
X187279428Y-89151078D01*
X187260018Y-89148228D01*
X187240685Y-89144998D01*
X187221429Y-89141389D01*
X187208635Y-89138771D01*
X187189648Y-89134545D01*
X187170880Y-89129970D01*
X187152330Y-89125048D01*
X187134000Y-89119778D01*
X187115889Y-89114160D01*
X187097996Y-89108194D01*
X187080323Y-89101881D01*
X187062868Y-89095220D01*
X187045632Y-89088211D01*
X187028616Y-89080854D01*
X187017393Y-89075757D01*
X187000852Y-89067843D01*
X186984613Y-89059627D01*
X186968678Y-89051108D01*
X186953045Y-89042286D01*
X186937714Y-89033161D01*
X186922686Y-89023734D01*
X186907961Y-89014005D01*
X186893539Y-89003972D01*
X186879419Y-88993637D01*
X186865602Y-88982999D01*
X186856559Y-88975739D01*
X186986618Y-88744197D01*
X187002996Y-88757171D01*
X187019845Y-88769579D01*
X187037163Y-88781420D01*
X187054951Y-88792694D01*
X187073210Y-88803402D01*
X187091938Y-88813543D01*
X187111137Y-88823117D01*
X187130806Y-88832124D01*
X187150945Y-88840565D01*
X187164632Y-88845877D01*
X187178528Y-88850938D01*
X187185554Y-88853374D01*
X187199684Y-88858032D01*
X187213862Y-88862390D01*
X187228088Y-88866447D01*
X187242364Y-88870203D01*
X187256688Y-88873660D01*
X187271060Y-88876815D01*
X187285482Y-88879670D01*
X187299952Y-88882225D01*
X187314470Y-88884479D01*
X187329037Y-88886432D01*
X187343653Y-88888085D01*
X187358318Y-88889438D01*
X187373031Y-88890489D01*
X187387793Y-88891241D01*
X187402604Y-88891692D01*
X187417463Y-88891842D01*
X187434396Y-88891660D01*
X187450848Y-88891115D01*
X187466819Y-88890206D01*
X187482309Y-88888934D01*
X187497319Y-88887298D01*
X187511847Y-88885299D01*
X187532739Y-88881618D01*
X187552548Y-88877120D01*
X187571276Y-88871804D01*
X187588921Y-88865670D01*
X187605485Y-88858718D01*
X187620967Y-88850948D01*
X187630687Y-88845314D01*
X187644240Y-88836186D01*
X187656460Y-88826389D01*
X187667347Y-88815921D01*
X187676900Y-88804784D01*
X187687565Y-88788893D01*
X187695860Y-88771812D01*
X187701784Y-88753539D01*
X187704673Y-88739054D01*
X187706228Y-88723898D01*
X187706524Y-88713422D01*
X187706524Y-88712323D01*
X187705929Y-88696673D01*
X187704143Y-88681961D01*
X187700236Y-88664891D01*
X187694469Y-88649289D01*
X187686841Y-88635153D01*
X187677353Y-88622484D01*
X187668422Y-88613405D01*
X187656031Y-88603081D01*
X187642441Y-88593634D01*
X187627652Y-88585064D01*
X187611665Y-88577370D01*
X187598012Y-88571845D01*
X187583592Y-88566882D01*
X187568405Y-88562480D01*
X187552760Y-88558445D01*
X187536783Y-88554581D01*
X187520474Y-88550888D01*
X187503833Y-88547368D01*
X187486860Y-88544019D01*
X187469555Y-88540842D01*
X187451918Y-88537837D01*
X187433949Y-88535003D01*
X187417581Y-88532407D01*
X187401174Y-88529701D01*
X187384728Y-88526885D01*
X187368244Y-88523961D01*
X187351721Y-88520926D01*
X187335160Y-88517782D01*
X187318560Y-88514529D01*
X187301921Y-88511166D01*
X187285243Y-88507694D01*
X187268527Y-88504112D01*
X187257362Y-88501664D01*
X187240792Y-88497680D01*
X187224466Y-88493283D01*
X187208386Y-88488475D01*
X187192550Y-88483254D01*
X187176958Y-88477621D01*
X187161612Y-88471576D01*
X187146510Y-88465119D01*
X187131653Y-88458250D01*
X187117041Y-88450968D01*
X187102673Y-88443275D01*
X187093230Y-88437916D01*
X187079471Y-88429414D01*
X187066221Y-88420254D01*
X187053480Y-88410437D01*
X187041247Y-88399963D01*
X187029523Y-88388833D01*
X187018308Y-88377046D01*
X187007601Y-88364601D01*
X186997403Y-88351500D01*
X186987714Y-88337742D01*
X186978534Y-88323327D01*
X186972697Y-88313353D01*
X186964578Y-88297695D01*
X186957258Y-88281084D01*
X186950736Y-88263520D01*
X186945013Y-88245003D01*
X186940089Y-88225533D01*
X186935963Y-88205109D01*
X186932636Y-88183733D01*
X186930861Y-88168952D01*
X186929441Y-88153748D01*
X186928377Y-88138120D01*
X186927667Y-88122069D01*
X186927312Y-88105594D01*
X186927267Y-88097198D01*
X186927267Y-88096099D01*
X186927828Y-88069191D01*
X186929511Y-88043056D01*
X186932316Y-88017694D01*
X186936243Y-87993104D01*
X186941292Y-87969288D01*
X186947463Y-87946244D01*
X186954756Y-87923973D01*
X186963171Y-87902475D01*
X186972708Y-87881750D01*
X186983367Y-87861797D01*
X186995148Y-87842617D01*
X187008051Y-87824211D01*
X187022076Y-87806576D01*
X187037223Y-87789715D01*
X187053491Y-87773626D01*
X187070882Y-87758311D01*
X187089298Y-87743848D01*
X187108641Y-87730318D01*
X187128911Y-87717722D01*
X187150109Y-87706058D01*
X187172234Y-87695328D01*
X187195286Y-87685530D01*
X187219266Y-87676666D01*
X187244173Y-87668735D01*
X187270007Y-87661737D01*
X187296769Y-87655671D01*
X187324458Y-87650540D01*
X187353074Y-87646341D01*
X187367730Y-87644591D01*
X187382618Y-87643075D01*
X187397738Y-87641792D01*
X187413089Y-87640742D01*
X187428673Y-87639926D01*
X187444488Y-87639343D01*
X187460535Y-87638993D01*
X187476814Y-87638876D01*
X187491942Y-87639035D01*
X187507102Y-87639511D01*
X187522293Y-87640306D01*
X187537516Y-87641418D01*
X187552770Y-87642847D01*
X187568056Y-87644595D01*
X187583373Y-87646660D01*
X187598722Y-87649043D01*
X187614102Y-87651743D01*
X187629513Y-87654761D01*
X187644956Y-87658097D01*
X187660431Y-87661751D01*
X187675937Y-87665722D01*
X187691475Y-87670011D01*
X187707044Y-87674618D01*
X187722644Y-87679542D01*
X187738238Y-87684714D01*
X187753694Y-87690156D01*
X187769012Y-87695866D01*
X187784193Y-87701845D01*
X187799237Y-87708093D01*
X187814144Y-87714610D01*
X187828913Y-87721397D01*
X187843545Y-87728452D01*
X187858039Y-87735776D01*
X187872396Y-87743370D01*
X187886615Y-87751232D01*
X187900697Y-87759364D01*
X187914642Y-87767765D01*
X187928449Y-87776434D01*
X187942119Y-87785373D01*
X187955652Y-87794581D01*
X187836950Y-88032351D01*
X187820736Y-88021265D01*
X187804381Y-88010674D01*
X187787884Y-88000579D01*
X187771245Y-87990981D01*
X187754464Y-87981878D01*
X187737542Y-87973271D01*
X187720478Y-87965160D01*
X187703273Y-87957544D01*
X187685926Y-87950425D01*
X187668437Y-87943801D01*
X187656699Y-87939661D01*
X187639181Y-87933899D01*
X187621798Y-87928704D01*
X187604551Y-87924076D01*
X187587439Y-87920015D01*
X187570462Y-87916520D01*
X187553620Y-87913592D01*
X187536914Y-87911231D01*
X187520343Y-87909436D01*
X187503907Y-87908208D01*
X187487606Y-87907547D01*
X187476814Y-87907421D01*
X187460920Y-87907587D01*
X187445478Y-87908085D01*
X187430489Y-87908915D01*
X187408853Y-87910783D01*
X187388234Y-87913397D01*
X187368633Y-87916759D01*
X187350049Y-87920868D01*
X187332483Y-87925723D01*
X187315934Y-87931326D01*
X187300403Y-87937676D01*
X187285889Y-87944773D01*
X187276779Y-87949919D01*
X187264143Y-87958190D01*
X187249228Y-87970160D01*
X187236522Y-87983206D01*
X187226026Y-87997328D01*
X187217740Y-88012527D01*
X187211664Y-88028801D01*
X187207797Y-88046152D01*
X187206140Y-88064579D01*
X187206071Y-88069354D01*
X187206071Y-88070453D01*
X187206729Y-88087861D01*
X187208704Y-88104182D01*
X187211995Y-88119414D01*
X187216604Y-88133559D01*
X187224215Y-88149711D01*
X187233884Y-88164164D01*
X187245610Y-88176917D01*
X187248203Y-88179263D01*
X187261986Y-88190256D01*
X187277004Y-88200336D01*
X187289907Y-88207744D01*
X187303599Y-88214567D01*
X187318082Y-88220807D01*
X187333355Y-88226463D01*
X187349418Y-88231535D01*
X187357745Y-88233852D01*
X187374850Y-88238299D01*
X187392275Y-88242667D01*
X187410021Y-88246955D01*
X187428087Y-88251162D01*
X187446474Y-88255290D01*
X187465182Y-88259337D01*
X187484210Y-88263304D01*
X187498691Y-88266226D01*
X187503558Y-88267191D01*
X187519692Y-88270350D01*
X187535806Y-88273644D01*
X187551900Y-88277073D01*
X187567976Y-88280637D01*
X187584032Y-88284337D01*
X187600068Y-88288172D01*
X187616086Y-88292142D01*
X187632084Y-88296248D01*
X187648062Y-88300489D01*
X187664022Y-88304865D01*
X187674651Y-88307857D01*
X187690527Y-88312574D01*
X187706146Y-88317659D01*
X187721508Y-88323110D01*
X187736612Y-88328929D01*
X187751458Y-88335114D01*
X187766047Y-88341667D01*
X187780378Y-88348587D01*
X187794452Y-88355874D01*
X187808268Y-88363528D01*
X187821826Y-88371549D01*
X187830722Y-88377100D01*
X187843725Y-88385849D01*
X187856220Y-88395196D01*
X187868206Y-88405143D01*
X187879683Y-88415688D01*
X187890651Y-88426833D01*
X187901111Y-88438576D01*
X187911062Y-88450918D01*
X187920504Y-88463860D01*
X187929437Y-88477400D01*
X187937862Y-88491539D01*
X187943196Y-88501297D01*
X187950725Y-88516482D01*
X187957514Y-88532497D01*
X187963562Y-88549343D01*
X187968870Y-88567020D01*
X187973437Y-88585527D01*
X187977263Y-88604866D01*
X187980349Y-88625035D01*
X187982694Y-88646034D01*
X187984299Y-88667865D01*
X187984957Y-88682880D01*
X187985286Y-88698264D01*
X187985327Y-88706095D01*
X187985327Y-88708293D01*
X187984746Y-88734799D01*
X187983003Y-88760552D01*
X187980098Y-88785552D01*
X187976031Y-88809799D01*
X187970802Y-88833294D01*
X187964410Y-88856035D01*
X187956857Y-88878024D01*
X187948142Y-88899261D01*
X187938264Y-88919744D01*
X187927224Y-88939475D01*
X187915023Y-88958453D01*
X187901659Y-88976678D01*
X187887133Y-88994150D01*
X187871445Y-89010870D01*
X187854596Y-89026837D01*
X187836584Y-89042051D01*
X187817558Y-89056381D01*
X187797577Y-89069786D01*
X187776640Y-89082267D01*
X187754747Y-89093823D01*
X187731898Y-89104455D01*
X187708093Y-89114162D01*
X187683332Y-89122945D01*
X187657615Y-89130803D01*
X187630942Y-89137737D01*
X187603313Y-89143746D01*
X187574728Y-89148831D01*
X187560077Y-89151026D01*
X187545187Y-89152991D01*
X187530058Y-89154724D01*
X187514690Y-89156227D01*
X187499083Y-89157498D01*
X187483237Y-89158538D01*
X187467152Y-89159347D01*
X187450828Y-89159925D01*
X187434265Y-89160271D01*
X187417463Y-89160387D01*
G37*
G36*
X188349127Y-88566510D02*
G01*
X188349127Y-88296133D01*
X188825767Y-88296133D01*
X188844280Y-88295338D01*
X188861900Y-88292951D01*
X188878627Y-88288972D01*
X188894460Y-88283402D01*
X188909401Y-88276241D01*
X188923449Y-88267488D01*
X188936604Y-88257144D01*
X188948866Y-88245209D01*
X188959942Y-88231900D01*
X188969542Y-88217617D01*
X188977665Y-88202361D01*
X188984311Y-88186133D01*
X188989480Y-88168931D01*
X188993173Y-88150756D01*
X188995388Y-88131607D01*
X188996080Y-88116607D01*
X188996127Y-88111486D01*
X188995714Y-88095786D01*
X188994478Y-88080698D01*
X188991547Y-88061533D01*
X188987151Y-88043455D01*
X188981289Y-88026465D01*
X188973961Y-88010563D01*
X188965169Y-87995748D01*
X188954911Y-87982020D01*
X188949232Y-87975565D01*
X188937125Y-87963629D01*
X188924067Y-87953285D01*
X188910060Y-87944533D01*
X188895102Y-87937371D01*
X188879193Y-87931801D01*
X188862335Y-87927823D01*
X188844526Y-87925436D01*
X188825767Y-87924640D01*
X188349127Y-87924640D01*
X188349127Y-87653897D01*
X188818806Y-87653897D01*
X188836297Y-87654120D01*
X188853508Y-87654790D01*
X188870438Y-87655906D01*
X188887087Y-87657469D01*
X188903456Y-87659478D01*
X188919545Y-87661934D01*
X188935353Y-87664836D01*
X188950881Y-87668185D01*
X188966128Y-87671980D01*
X188981094Y-87676222D01*
X188995780Y-87680911D01*
X189010186Y-87686045D01*
X189024311Y-87691627D01*
X189038155Y-87697655D01*
X189051719Y-87704129D01*
X189065003Y-87711050D01*
X189078007Y-87718327D01*
X189090643Y-87725962D01*
X189108903Y-87738085D01*
X189126333Y-87751014D01*
X189142932Y-87764747D01*
X189158701Y-87779285D01*
X189173638Y-87794628D01*
X189187745Y-87810777D01*
X189201021Y-87827730D01*
X189213466Y-87845488D01*
X189225081Y-87864052D01*
X189228768Y-87870418D01*
X189235866Y-87883381D01*
X189242506Y-87896625D01*
X189248689Y-87910149D01*
X189254413Y-87923953D01*
X189259680Y-87938038D01*
X189264488Y-87952404D01*
X189268839Y-87967050D01*
X189272732Y-87981976D01*
X189276166Y-87997183D01*
X189279143Y-88012671D01*
X189281662Y-88028439D01*
X189283722Y-88044487D01*
X189285325Y-88060816D01*
X189286470Y-88077425D01*
X189287157Y-88094315D01*
X189287386Y-88111486D01*
X189287157Y-88128523D01*
X189286470Y-88145289D01*
X189285325Y-88161782D01*
X189283722Y-88178004D01*
X189281662Y-88193954D01*
X189279143Y-88209631D01*
X189276166Y-88225037D01*
X189272732Y-88240171D01*
X189268839Y-88255033D01*
X189264488Y-88269624D01*
X189259680Y-88283942D01*
X189254413Y-88297988D01*
X189248689Y-88311763D01*
X189242506Y-88325265D01*
X189235866Y-88338496D01*
X189228768Y-88351454D01*
X189221257Y-88364097D01*
X189209305Y-88382384D01*
X189196528Y-88399860D01*
X189182926Y-88416525D01*
X189168501Y-88432378D01*
X189153251Y-88447420D01*
X189137177Y-88461650D01*
X189120278Y-88475069D01*
X189102555Y-88487676D01*
X189084008Y-88499472D01*
X189071185Y-88506885D01*
X189064637Y-88510457D01*
X189051312Y-88517244D01*
X189037715Y-88523594D01*
X189023846Y-88529506D01*
X189009705Y-88534980D01*
X188995292Y-88540016D01*
X188980608Y-88544614D01*
X188965651Y-88548775D01*
X188950423Y-88552497D01*
X188934922Y-88555781D01*
X188919150Y-88558628D01*
X188903106Y-88561036D01*
X188886790Y-88563007D01*
X188870202Y-88564540D01*
X188853342Y-88565634D01*
X188836210Y-88566291D01*
X188818806Y-88566510D01*
X188349127Y-88566510D01*
G37*
G36*
X188220900Y-89145000D02*
G01*
X188220900Y-87653897D01*
X188501901Y-87653897D01*
X188501901Y-89145000D01*
X188220900Y-89145000D01*
G37*
D11*
G36*
X132064396Y-103588774D02*
G01*
X132064396Y-103390498D01*
X132413932Y-103390498D01*
X132427508Y-103389914D01*
X132440429Y-103388164D01*
X132452695Y-103385246D01*
X132464307Y-103381162D01*
X132475263Y-103375910D01*
X132485565Y-103369491D01*
X132495212Y-103361906D01*
X132504204Y-103353153D01*
X132512327Y-103343393D01*
X132519367Y-103332919D01*
X132525324Y-103321732D01*
X132530198Y-103309830D01*
X132533988Y-103297216D01*
X132536696Y-103283887D01*
X132538320Y-103269845D01*
X132538828Y-103258845D01*
X132538862Y-103255090D01*
X132538560Y-103243576D01*
X132537653Y-103232512D01*
X132535504Y-103218457D01*
X132532280Y-103205200D01*
X132527981Y-103192741D01*
X132522608Y-103181079D01*
X132516160Y-103170215D01*
X132508637Y-103160148D01*
X132504473Y-103155414D01*
X132495594Y-103146661D01*
X132486019Y-103139076D01*
X132475746Y-103132657D01*
X132464777Y-103127405D01*
X132453111Y-103123321D01*
X132440748Y-103120403D01*
X132427688Y-103118653D01*
X132413932Y-103118069D01*
X132064396Y-103118069D01*
X132064396Y-102919524D01*
X132408827Y-102919524D01*
X132421654Y-102919688D01*
X132434275Y-102920179D01*
X132446690Y-102920998D01*
X132458900Y-102922144D01*
X132470904Y-102923617D01*
X132482702Y-102925418D01*
X132494295Y-102927547D01*
X132505682Y-102930002D01*
X132516863Y-102932786D01*
X132527838Y-102935896D01*
X132538608Y-102939334D01*
X132549172Y-102943100D01*
X132559531Y-102947193D01*
X132569683Y-102951613D01*
X132579630Y-102956361D01*
X132589371Y-102961436D01*
X132598908Y-102966773D01*
X132608174Y-102972372D01*
X132621565Y-102981262D01*
X132634347Y-102990743D01*
X132646520Y-103000814D01*
X132658083Y-103011476D01*
X132669037Y-103022727D01*
X132679382Y-103034569D01*
X132689118Y-103047002D01*
X132698245Y-103060025D01*
X132706762Y-103073638D01*
X132709466Y-103078307D01*
X132714671Y-103087813D01*
X132719541Y-103097525D01*
X132724074Y-103107442D01*
X132728272Y-103117566D01*
X132732134Y-103127895D01*
X132735661Y-103138429D01*
X132738851Y-103149170D01*
X132741706Y-103160116D01*
X132744224Y-103171267D01*
X132746407Y-103182625D01*
X132748254Y-103194188D01*
X132749766Y-103205957D01*
X132750941Y-103217932D01*
X132751781Y-103230112D01*
X132752284Y-103242498D01*
X132752452Y-103255090D01*
X132752284Y-103267584D01*
X132751781Y-103279878D01*
X132750941Y-103291974D01*
X132749766Y-103303869D01*
X132748254Y-103315566D01*
X132746407Y-103327063D01*
X132744224Y-103338361D01*
X132741706Y-103349459D01*
X132738851Y-103360358D01*
X132735661Y-103371057D01*
X132732134Y-103381557D01*
X132728272Y-103391858D01*
X132724074Y-103401959D01*
X132719541Y-103411861D01*
X132714671Y-103421563D01*
X132709466Y-103431066D01*
X132703958Y-103440338D01*
X132695193Y-103453748D01*
X132685823Y-103466564D01*
X132675849Y-103478785D01*
X132665270Y-103490410D01*
X132654087Y-103501441D01*
X132642299Y-103511877D01*
X132629907Y-103521717D01*
X132616910Y-103530962D01*
X132603309Y-103539613D01*
X132593905Y-103545049D01*
X132589103Y-103547668D01*
X132579331Y-103552646D01*
X132569360Y-103557302D01*
X132559189Y-103561638D01*
X132548820Y-103565652D01*
X132538250Y-103569345D01*
X132527481Y-103572717D01*
X132516513Y-103575768D01*
X132505346Y-103578498D01*
X132493979Y-103580906D01*
X132482413Y-103582994D01*
X132470647Y-103584760D01*
X132458682Y-103586205D01*
X132446517Y-103587329D01*
X132434153Y-103588132D01*
X132421590Y-103588614D01*
X132408827Y-103588774D01*
X132064396Y-103588774D01*
G37*
G36*
X131970362Y-104013000D02*
G01*
X131970362Y-102919524D01*
X132176430Y-102919524D01*
X132176430Y-104013000D01*
X131970362Y-104013000D01*
G37*
G36*
X133305518Y-102908704D02*
G01*
X133320205Y-102909290D01*
X133334652Y-102910266D01*
X133348860Y-102911632D01*
X133362828Y-102913389D01*
X133376558Y-102915536D01*
X133390048Y-102918074D01*
X133403299Y-102921002D01*
X133416310Y-102924320D01*
X133429082Y-102928029D01*
X133441615Y-102932129D01*
X133453909Y-102936618D01*
X133465963Y-102941498D01*
X133477778Y-102946769D01*
X133489354Y-102952430D01*
X133500690Y-102958481D01*
X133511782Y-102964886D01*
X133522557Y-102971608D01*
X133533015Y-102978647D01*
X133543157Y-102986003D01*
X133552981Y-102993675D01*
X133562488Y-103001665D01*
X133571678Y-103009972D01*
X133580552Y-103018595D01*
X133589108Y-103027536D01*
X133597348Y-103036793D01*
X133605270Y-103046368D01*
X133612876Y-103056259D01*
X133620164Y-103066467D01*
X133627136Y-103076993D01*
X133633791Y-103087835D01*
X133640129Y-103098994D01*
X133646147Y-103110434D01*
X133651778Y-103122120D01*
X133657020Y-103134052D01*
X133661874Y-103146229D01*
X133666339Y-103158652D01*
X133670417Y-103171320D01*
X133674106Y-103184234D01*
X133677406Y-103197393D01*
X133680318Y-103210798D01*
X133682842Y-103224449D01*
X133684978Y-103238345D01*
X133686726Y-103252487D01*
X133688085Y-103266874D01*
X133689055Y-103281507D01*
X133689638Y-103296386D01*
X133689832Y-103311510D01*
X133689832Y-103621283D01*
X133689638Y-103636279D01*
X133689055Y-103651042D01*
X133688085Y-103665572D01*
X133686726Y-103679869D01*
X133684978Y-103693933D01*
X133682842Y-103707764D01*
X133680318Y-103721362D01*
X133677406Y-103734728D01*
X133674106Y-103747860D01*
X133670417Y-103760759D01*
X133666339Y-103773425D01*
X133661874Y-103785858D01*
X133657020Y-103798058D01*
X133651778Y-103810026D01*
X133646147Y-103821760D01*
X133640129Y-103833261D01*
X133633791Y-103844485D01*
X133627136Y-103855388D01*
X133620164Y-103865970D01*
X133612876Y-103876231D01*
X133605270Y-103886171D01*
X133597348Y-103895789D01*
X133589108Y-103905087D01*
X133580552Y-103914063D01*
X133571678Y-103922718D01*
X133562488Y-103931052D01*
X133552981Y-103939065D01*
X133543157Y-103946756D01*
X133533015Y-103954127D01*
X133522557Y-103961176D01*
X133511782Y-103967904D01*
X133500690Y-103974311D01*
X133489354Y-103980363D01*
X133477778Y-103986024D01*
X133465963Y-103991294D01*
X133453909Y-103996174D01*
X133441615Y-104000664D01*
X133429082Y-104004763D01*
X133416310Y-104008472D01*
X133403299Y-104011790D01*
X133390048Y-104014719D01*
X133376558Y-104017256D01*
X133362828Y-104019403D01*
X133348860Y-104021160D01*
X133334652Y-104022527D01*
X133320205Y-104023503D01*
X133305518Y-104024088D01*
X133290593Y-104024284D01*
X133275666Y-104024088D01*
X133260976Y-104023503D01*
X133246524Y-104022527D01*
X133232309Y-104021160D01*
X133218331Y-104019403D01*
X133204590Y-104017256D01*
X133191086Y-104014719D01*
X133177820Y-104011790D01*
X133164790Y-104008472D01*
X133151998Y-104004763D01*
X133139443Y-104000664D01*
X133127126Y-103996174D01*
X133115045Y-103991294D01*
X133103202Y-103986024D01*
X133091595Y-103980363D01*
X133080226Y-103974311D01*
X133069166Y-103967904D01*
X133058418Y-103961176D01*
X133047983Y-103954127D01*
X133037861Y-103946756D01*
X133028051Y-103939065D01*
X133018555Y-103931052D01*
X133009371Y-103922718D01*
X133000499Y-103914063D01*
X132991941Y-103905087D01*
X132983695Y-103895789D01*
X132975762Y-103886171D01*
X132968142Y-103876231D01*
X132960834Y-103865970D01*
X132953839Y-103855388D01*
X132947157Y-103844485D01*
X132940788Y-103833261D01*
X132934802Y-103821760D01*
X132929202Y-103810026D01*
X132923988Y-103798058D01*
X132919160Y-103785858D01*
X132914719Y-103773425D01*
X132910664Y-103760759D01*
X132906995Y-103747860D01*
X132903712Y-103734728D01*
X132900815Y-103721362D01*
X132898305Y-103707764D01*
X132896181Y-103693933D01*
X132894443Y-103679869D01*
X132893091Y-103665572D01*
X132892126Y-103651042D01*
X132891546Y-103636279D01*
X132891419Y-103626387D01*
X133104944Y-103626387D01*
X133105390Y-103642311D01*
X133106729Y-103657639D01*
X133108960Y-103672372D01*
X133112084Y-103686510D01*
X133116101Y-103700053D01*
X133121010Y-103713001D01*
X133126812Y-103725354D01*
X133133506Y-103737112D01*
X133141093Y-103748275D01*
X133149573Y-103758842D01*
X133155722Y-103765557D01*
X133165533Y-103774968D01*
X133175925Y-103783453D01*
X133186898Y-103791012D01*
X133198452Y-103797646D01*
X133210587Y-103803354D01*
X133223303Y-103808137D01*
X133236600Y-103811993D01*
X133250477Y-103814925D01*
X133264936Y-103816930D01*
X133279975Y-103818010D01*
X133290324Y-103818216D01*
X133305892Y-103817753D01*
X133320861Y-103816365D01*
X133335229Y-103814050D01*
X133348998Y-103810811D01*
X133362168Y-103806645D01*
X133374737Y-103801554D01*
X133386706Y-103795538D01*
X133398076Y-103788595D01*
X133408846Y-103780727D01*
X133419017Y-103771934D01*
X133425464Y-103765557D01*
X133434538Y-103755386D01*
X133442720Y-103744620D01*
X133450010Y-103733259D01*
X133456406Y-103721303D01*
X133461911Y-103708751D01*
X133466522Y-103695605D01*
X133470242Y-103681864D01*
X133473068Y-103667527D01*
X133475002Y-103652596D01*
X133476043Y-103637069D01*
X133476242Y-103626387D01*
X133476242Y-103306136D01*
X133476043Y-103295391D01*
X133475002Y-103279780D01*
X133473068Y-103264778D01*
X133470242Y-103250386D01*
X133466522Y-103236603D01*
X133461911Y-103223429D01*
X133456406Y-103210864D01*
X133450010Y-103198909D01*
X133442720Y-103187563D01*
X133434538Y-103176826D01*
X133425464Y-103166698D01*
X133415696Y-103157335D01*
X133405332Y-103148894D01*
X133394374Y-103141373D01*
X133382821Y-103134773D01*
X133370673Y-103129094D01*
X133357929Y-103124336D01*
X133344591Y-103120499D01*
X133330658Y-103117582D01*
X133316129Y-103115587D01*
X133301006Y-103114513D01*
X133290593Y-103114308D01*
X133275118Y-103114768D01*
X133260229Y-103116150D01*
X133245926Y-103118452D01*
X133232208Y-103121675D01*
X133219076Y-103125819D01*
X133206529Y-103130884D01*
X133194568Y-103136870D01*
X133183193Y-103143777D01*
X133172403Y-103151605D01*
X133162199Y-103160354D01*
X133155722Y-103166698D01*
X133146647Y-103176826D01*
X133138465Y-103187563D01*
X133131176Y-103198909D01*
X133124779Y-103210864D01*
X133119275Y-103223429D01*
X133114663Y-103236603D01*
X133110944Y-103250386D01*
X133108117Y-103264778D01*
X133106183Y-103279780D01*
X133105142Y-103295391D01*
X133104944Y-103306136D01*
X133104944Y-103626387D01*
X132891419Y-103626387D01*
X132891353Y-103621283D01*
X132891353Y-103311510D01*
X132891546Y-103296386D01*
X132892126Y-103281507D01*
X132893091Y-103266874D01*
X132894443Y-103252487D01*
X132896181Y-103238345D01*
X132898305Y-103224449D01*
X132900815Y-103210798D01*
X132903712Y-103197393D01*
X132906995Y-103184234D01*
X132910664Y-103171320D01*
X132914719Y-103158652D01*
X132919160Y-103146229D01*
X132923988Y-103134052D01*
X132929202Y-103122120D01*
X132934802Y-103110434D01*
X132940788Y-103098994D01*
X132947157Y-103087835D01*
X132953839Y-103076993D01*
X132960834Y-103066467D01*
X132968142Y-103056259D01*
X132975762Y-103046368D01*
X132983695Y-103036793D01*
X132991941Y-103027536D01*
X133000499Y-103018595D01*
X133009371Y-103009972D01*
X133018555Y-103001665D01*
X133028051Y-102993675D01*
X133037861Y-102986003D01*
X133047983Y-102978647D01*
X133058418Y-102971608D01*
X133069166Y-102964886D01*
X133080226Y-102958481D01*
X133091595Y-102952430D01*
X133103202Y-102946769D01*
X133115045Y-102941498D01*
X133127126Y-102936618D01*
X133139443Y-102932129D01*
X133151998Y-102928029D01*
X133164790Y-102924320D01*
X133177820Y-102921002D01*
X133191086Y-102918074D01*
X133204590Y-102915536D01*
X133218331Y-102913389D01*
X133232309Y-102911632D01*
X133246524Y-102910266D01*
X133260976Y-102909290D01*
X133275666Y-102908704D01*
X133290593Y-102908509D01*
X133305518Y-102908704D01*
G37*
G36*
X134147909Y-103648956D02*
G01*
X134356933Y-102919524D01*
X134522163Y-102919524D01*
X134731454Y-103648956D01*
X134871967Y-102919524D01*
X135083946Y-102919524D01*
X134832205Y-104013000D01*
X134637958Y-104013000D01*
X134443981Y-103248910D01*
X134241137Y-104013000D01*
X134047159Y-104013000D01*
X133795150Y-102919524D01*
X134007128Y-102919524D01*
X134147909Y-103648956D01*
G37*
G36*
X135219085Y-104013000D02*
G01*
X135219085Y-102919524D01*
X135425153Y-102919524D01*
X135425153Y-104013000D01*
X135219085Y-104013000D01*
G37*
G36*
X135293506Y-104013000D02*
G01*
X135293506Y-103814454D01*
X135951472Y-103814454D01*
X135951472Y-104013000D01*
X135293506Y-104013000D01*
G37*
G36*
X135293506Y-103569430D02*
G01*
X135293506Y-103370885D01*
X135868722Y-103370885D01*
X135868722Y-103569430D01*
X135293506Y-103569430D01*
G37*
G36*
X135293506Y-103118069D02*
G01*
X135293506Y-102919524D01*
X135951472Y-102919524D01*
X135951472Y-103118069D01*
X135293506Y-103118069D01*
G37*
G36*
X136220945Y-103573191D02*
G01*
X136220945Y-103374646D01*
X136601378Y-103374646D01*
X136613103Y-103374096D01*
X136624231Y-103372447D01*
X136634764Y-103369697D01*
X136647091Y-103364713D01*
X136658487Y-103358011D01*
X136668952Y-103349590D01*
X136676653Y-103341616D01*
X136678485Y-103339451D01*
X136685298Y-103330232D01*
X136691230Y-103320308D01*
X136696280Y-103309679D01*
X136700449Y-103298345D01*
X136703736Y-103286305D01*
X136706141Y-103273560D01*
X136707665Y-103260110D01*
X136708307Y-103245955D01*
X136707854Y-103231867D01*
X136706494Y-103218484D01*
X136704227Y-103205806D01*
X136701053Y-103193833D01*
X136696973Y-103182566D01*
X136691986Y-103172004D01*
X136686092Y-103162147D01*
X136679291Y-103152996D01*
X136671727Y-103144684D01*
X136663541Y-103137480D01*
X136652434Y-103130034D01*
X136640358Y-103124320D01*
X136629997Y-103120995D01*
X136619015Y-103118779D01*
X136607412Y-103117670D01*
X136601378Y-103117532D01*
X136220945Y-103117532D01*
X136220945Y-102918987D01*
X136618035Y-102918987D01*
X136629297Y-102919145D01*
X136640381Y-102919621D01*
X136651286Y-102920413D01*
X136662013Y-102921522D01*
X136677768Y-102923781D01*
X136693122Y-102926752D01*
X136708075Y-102930437D01*
X136722626Y-102934834D01*
X136736776Y-102939945D01*
X136750525Y-102945769D01*
X136763872Y-102952306D01*
X136776817Y-102959556D01*
X136789343Y-102967455D01*
X136801331Y-102975940D01*
X136812780Y-102985011D01*
X136823691Y-102994667D01*
X136834064Y-103004909D01*
X136843898Y-103015736D01*
X136853194Y-103027150D01*
X136861951Y-103039148D01*
X136870170Y-103051733D01*
X136877851Y-103064903D01*
X136882672Y-103074008D01*
X136889394Y-103088028D01*
X136895455Y-103102482D01*
X136900854Y-103117371D01*
X136905593Y-103132695D01*
X136908384Y-103143152D01*
X136910882Y-103153802D01*
X136913086Y-103164645D01*
X136914996Y-103175682D01*
X136916612Y-103186911D01*
X136917935Y-103198334D01*
X136918963Y-103209949D01*
X136919698Y-103221758D01*
X136920139Y-103233760D01*
X136920286Y-103245955D01*
X136920137Y-103258182D01*
X136919690Y-103270215D01*
X136918944Y-103282052D01*
X136917901Y-103293694D01*
X136916560Y-103305140D01*
X136914921Y-103316392D01*
X136912983Y-103327448D01*
X136910748Y-103338309D01*
X136908214Y-103348975D01*
X136905383Y-103359446D01*
X136900577Y-103374786D01*
X136895100Y-103389687D01*
X136888953Y-103404148D01*
X136882135Y-103418170D01*
X136874770Y-103431685D01*
X136866881Y-103444624D01*
X136858467Y-103456986D01*
X136849530Y-103468772D01*
X136840068Y-103479982D01*
X136830082Y-103490616D01*
X136819571Y-103500674D01*
X136808537Y-103510155D01*
X136796978Y-103519061D01*
X136784895Y-103527390D01*
X136776549Y-103532623D01*
X136763651Y-103539873D01*
X136750347Y-103546410D01*
X136736637Y-103552234D01*
X136722521Y-103557344D01*
X136707999Y-103561742D01*
X136693071Y-103565426D01*
X136677736Y-103568398D01*
X136661996Y-103570656D01*
X136651276Y-103571765D01*
X136640376Y-103572558D01*
X136629296Y-103573033D01*
X136618035Y-103573191D01*
X136220945Y-103573191D01*
G37*
G36*
X136139002Y-104013000D02*
G01*
X136139002Y-102918987D01*
X136345069Y-102918987D01*
X136345069Y-104013000D01*
X136139002Y-104013000D01*
G37*
G36*
X136716367Y-104013000D02*
G01*
X136450924Y-103539339D01*
X136671231Y-103504681D01*
X136966228Y-104013000D01*
X136716367Y-104013000D01*
G37*
G36*
X127453750Y-89024284D02*
G01*
X127441962Y-89024180D01*
X127430342Y-89023868D01*
X127418888Y-89023348D01*
X127407603Y-89022621D01*
X127396484Y-89021686D01*
X127385533Y-89020543D01*
X127374749Y-89019192D01*
X127353684Y-89015868D01*
X127333289Y-89011712D01*
X127313563Y-89006725D01*
X127294506Y-89000906D01*
X127276119Y-88994257D01*
X127258402Y-88986776D01*
X127241354Y-88978464D01*
X127224976Y-88969321D01*
X127209267Y-88959347D01*
X127194228Y-88948541D01*
X127179859Y-88936905D01*
X127166159Y-88924437D01*
X127159560Y-88917891D01*
X127146937Y-88904250D01*
X127135128Y-88889925D01*
X127124134Y-88874915D01*
X127113954Y-88859221D01*
X127104588Y-88842843D01*
X127096037Y-88825780D01*
X127088300Y-88808034D01*
X127081378Y-88789603D01*
X127075270Y-88770488D01*
X127069976Y-88750688D01*
X127065497Y-88730204D01*
X127061832Y-88709036D01*
X127060305Y-88698196D01*
X127058982Y-88687184D01*
X127057862Y-88676001D01*
X127056946Y-88664647D01*
X127056233Y-88653123D01*
X127055724Y-88641427D01*
X127055419Y-88629560D01*
X127055317Y-88617521D01*
X127055317Y-87919524D01*
X127261385Y-87919524D01*
X127261385Y-88622626D01*
X127261581Y-88634216D01*
X127262170Y-88645475D01*
X127263151Y-88656406D01*
X127265359Y-88672183D01*
X127268450Y-88687220D01*
X127272424Y-88701514D01*
X127277281Y-88715068D01*
X127283022Y-88727879D01*
X127289645Y-88739950D01*
X127297152Y-88751279D01*
X127305542Y-88761866D01*
X127311625Y-88768512D01*
X127321412Y-88777779D01*
X127331930Y-88786134D01*
X127343180Y-88793578D01*
X127355162Y-88800110D01*
X127367876Y-88805731D01*
X127381323Y-88810440D01*
X127395501Y-88814238D01*
X127410411Y-88817124D01*
X127426053Y-88819099D01*
X127436888Y-88819909D01*
X127448048Y-88820315D01*
X127453750Y-88820365D01*
X127465140Y-88820163D01*
X127476205Y-88819555D01*
X127486944Y-88818542D01*
X127502443Y-88816264D01*
X127517210Y-88813073D01*
X127531245Y-88808972D01*
X127544548Y-88803959D01*
X127557119Y-88798034D01*
X127568958Y-88791198D01*
X127580065Y-88783450D01*
X127590440Y-88774791D01*
X127596950Y-88768512D01*
X127606025Y-88758419D01*
X127614207Y-88747585D01*
X127621496Y-88736009D01*
X127627893Y-88723691D01*
X127633397Y-88710632D01*
X127638009Y-88696832D01*
X127641728Y-88682290D01*
X127644554Y-88667007D01*
X127646488Y-88650982D01*
X127647282Y-88639887D01*
X127647678Y-88628462D01*
X127647728Y-88622626D01*
X127647728Y-87919524D01*
X127853796Y-87919524D01*
X127853796Y-88617521D01*
X127853693Y-88629560D01*
X127853386Y-88641427D01*
X127852875Y-88653123D01*
X127852159Y-88664647D01*
X127851238Y-88676001D01*
X127850112Y-88687184D01*
X127848782Y-88698196D01*
X127847247Y-88709036D01*
X127845507Y-88719706D01*
X127841414Y-88740532D01*
X127836503Y-88760673D01*
X127830773Y-88780131D01*
X127824224Y-88798904D01*
X127816857Y-88816993D01*
X127808671Y-88834397D01*
X127799666Y-88851118D01*
X127789843Y-88867154D01*
X127779201Y-88882505D01*
X127767741Y-88897173D01*
X127755462Y-88911156D01*
X127749016Y-88917891D01*
X127735615Y-88930775D01*
X127721540Y-88942827D01*
X127706792Y-88954048D01*
X127691370Y-88964438D01*
X127675274Y-88973997D01*
X127658504Y-88982724D01*
X127641061Y-88990620D01*
X127622943Y-88997685D01*
X127604153Y-89003919D01*
X127584688Y-89009322D01*
X127564549Y-89013894D01*
X127543737Y-89017634D01*
X127533078Y-89019192D01*
X127522251Y-89020543D01*
X127511255Y-89021686D01*
X127500091Y-89022621D01*
X127488759Y-89023348D01*
X127477258Y-89023868D01*
X127465588Y-89024180D01*
X127453750Y-89024284D01*
G37*
G36*
X127929023Y-89013000D02*
G01*
X128347069Y-87919524D01*
X128477909Y-87919524D01*
X128895956Y-89013000D01*
X128674305Y-89013000D01*
X128412623Y-88266374D01*
X128150942Y-89013000D01*
X127929023Y-89013000D01*
G37*
G36*
X128129717Y-88837829D02*
G01*
X128129717Y-88639284D01*
X128704933Y-88639284D01*
X128704933Y-88837829D01*
X128129717Y-88837829D01*
G37*
G36*
X129112501Y-88573191D02*
G01*
X129112501Y-88374646D01*
X129492934Y-88374646D01*
X129504659Y-88374096D01*
X129515787Y-88372447D01*
X129526320Y-88369697D01*
X129538647Y-88364713D01*
X129550044Y-88358011D01*
X129560508Y-88349590D01*
X129568209Y-88341616D01*
X129570041Y-88339451D01*
X129576855Y-88330232D01*
X129582786Y-88320308D01*
X129587836Y-88309679D01*
X129592005Y-88298345D01*
X129595292Y-88286305D01*
X129597697Y-88273560D01*
X129599221Y-88260110D01*
X129599863Y-88245955D01*
X129599410Y-88231867D01*
X129598050Y-88218484D01*
X129595783Y-88205806D01*
X129592609Y-88193833D01*
X129588529Y-88182566D01*
X129583542Y-88172004D01*
X129577648Y-88162147D01*
X129570847Y-88152996D01*
X129563283Y-88144684D01*
X129555097Y-88137480D01*
X129543991Y-88130034D01*
X129531914Y-88124320D01*
X129521553Y-88120995D01*
X129510571Y-88118779D01*
X129498968Y-88117670D01*
X129492934Y-88117532D01*
X129112501Y-88117532D01*
X129112501Y-87918987D01*
X129509591Y-87918987D01*
X129520853Y-87919145D01*
X129531937Y-87919621D01*
X129542842Y-87920413D01*
X129553569Y-87921522D01*
X129569324Y-87923781D01*
X129584678Y-87926752D01*
X129599631Y-87930437D01*
X129614183Y-87934834D01*
X129628332Y-87939945D01*
X129642081Y-87945769D01*
X129655428Y-87952306D01*
X129668374Y-87959556D01*
X129680900Y-87967455D01*
X129692887Y-87975940D01*
X129704337Y-87985011D01*
X129715248Y-87994667D01*
X129725620Y-88004909D01*
X129735454Y-88015736D01*
X129744750Y-88027150D01*
X129753507Y-88039148D01*
X129761726Y-88051733D01*
X129769407Y-88064903D01*
X129774228Y-88074008D01*
X129780950Y-88088028D01*
X129787011Y-88102482D01*
X129792411Y-88117371D01*
X129797149Y-88132695D01*
X129799941Y-88143152D01*
X129802438Y-88153802D01*
X129804642Y-88164645D01*
X129806552Y-88175682D01*
X129808169Y-88186911D01*
X129809491Y-88198334D01*
X129810519Y-88209949D01*
X129811254Y-88221758D01*
X129811695Y-88233760D01*
X129811842Y-88245955D01*
X129811693Y-88258182D01*
X129811246Y-88270215D01*
X129810501Y-88282052D01*
X129809457Y-88293694D01*
X129808116Y-88305140D01*
X129806477Y-88316392D01*
X129804540Y-88327448D01*
X129802304Y-88338309D01*
X129799771Y-88348975D01*
X129796939Y-88359446D01*
X129792133Y-88374786D01*
X129786656Y-88389687D01*
X129780509Y-88404148D01*
X129773691Y-88418170D01*
X129766326Y-88431685D01*
X129758437Y-88444624D01*
X129750023Y-88456986D01*
X129741086Y-88468772D01*
X129731624Y-88479982D01*
X129721638Y-88490616D01*
X129711128Y-88500674D01*
X129700093Y-88510155D01*
X129688534Y-88519061D01*
X129676451Y-88527390D01*
X129668105Y-88532623D01*
X129655207Y-88539873D01*
X129641904Y-88546410D01*
X129628194Y-88552234D01*
X129614078Y-88557344D01*
X129599555Y-88561742D01*
X129584627Y-88565426D01*
X129569293Y-88568398D01*
X129553552Y-88570656D01*
X129542833Y-88571765D01*
X129531933Y-88572558D01*
X129520852Y-88573033D01*
X129509591Y-88573191D01*
X129112501Y-88573191D01*
G37*
G36*
X129030558Y-89013000D02*
G01*
X129030558Y-87918987D01*
X129236625Y-87918987D01*
X129236625Y-89013000D01*
X129030558Y-89013000D01*
G37*
G36*
X129607923Y-89013000D02*
G01*
X129342480Y-88539339D01*
X129562787Y-88504681D01*
X129857784Y-89013000D01*
X129607923Y-89013000D01*
G37*
G36*
X130181528Y-89013000D02*
G01*
X130181528Y-88009259D01*
X130387595Y-88009259D01*
X130387595Y-89013000D01*
X130181528Y-89013000D01*
G37*
G36*
X129883845Y-88118069D02*
G01*
X129883845Y-87919524D01*
X130685547Y-87919524D01*
X130685547Y-88118069D01*
X129883845Y-88118069D01*
G37*
G36*
X127168907Y-79871524D02*
G01*
X127168907Y-80965000D01*
X126955317Y-80965000D01*
X126955317Y-79871524D01*
X127168907Y-79871524D01*
G37*
G36*
X127354556Y-80965000D02*
G01*
X127354556Y-80779351D01*
X127729884Y-80286078D01*
X127737578Y-80275705D01*
X127744708Y-80265240D01*
X127751274Y-80254684D01*
X127757276Y-80244035D01*
X127762713Y-80233295D01*
X127767587Y-80222463D01*
X127769378Y-80218105D01*
X127773403Y-80207231D01*
X127776746Y-80196606D01*
X127779856Y-80184186D01*
X127781985Y-80172124D01*
X127783131Y-80160421D01*
X127783349Y-80152819D01*
X127783349Y-80151475D01*
X127782900Y-80140708D01*
X127781075Y-80128134D01*
X127777847Y-80116543D01*
X127773215Y-80105937D01*
X127767179Y-80096315D01*
X127759739Y-80087676D01*
X127754602Y-80082965D01*
X127745112Y-80075999D01*
X127734441Y-80070214D01*
X127722590Y-80065610D01*
X127709558Y-80062186D01*
X127698282Y-80060297D01*
X127686251Y-80059163D01*
X127673464Y-80058785D01*
X127661127Y-80059310D01*
X127649368Y-80060884D01*
X127638189Y-80063508D01*
X127627589Y-80067181D01*
X127617569Y-80071904D01*
X127608128Y-80077676D01*
X127599266Y-80084498D01*
X127590983Y-80092369D01*
X127583444Y-80101142D01*
X127576677Y-80110806D01*
X127570682Y-80121360D01*
X127565460Y-80132803D01*
X127561010Y-80145137D01*
X127557333Y-80158360D01*
X127554428Y-80172473D01*
X127552756Y-80183643D01*
X127552295Y-80187477D01*
X127552295Y-80188283D01*
X127341123Y-80188283D01*
X127341123Y-80187477D01*
X127342739Y-80168305D01*
X127344968Y-80149679D01*
X127347810Y-80131598D01*
X127351265Y-80114064D01*
X127355333Y-80097075D01*
X127360014Y-80080631D01*
X127365307Y-80064734D01*
X127371214Y-80049382D01*
X127377733Y-80034576D01*
X127384865Y-80020315D01*
X127392611Y-80006601D01*
X127400969Y-79993432D01*
X127409940Y-79980809D01*
X127419523Y-79968731D01*
X127429720Y-79957200D01*
X127440530Y-79946214D01*
X127451886Y-79935835D01*
X127463656Y-79926127D01*
X127475840Y-79917087D01*
X127488437Y-79908718D01*
X127501447Y-79901018D01*
X127514871Y-79893987D01*
X127528708Y-79887626D01*
X127542959Y-79881935D01*
X127557624Y-79876913D01*
X127572701Y-79872561D01*
X127588193Y-79868879D01*
X127604098Y-79865865D01*
X127620416Y-79863522D01*
X127637148Y-79861848D01*
X127654293Y-79860844D01*
X127671852Y-79860509D01*
X127690857Y-79860800D01*
X127709319Y-79861672D01*
X127727237Y-79863125D01*
X127744611Y-79865160D01*
X127761441Y-79867777D01*
X127777728Y-79870974D01*
X127793471Y-79874754D01*
X127808671Y-79879114D01*
X127823327Y-79884056D01*
X127837439Y-79889580D01*
X127851008Y-79895684D01*
X127864033Y-79902371D01*
X127876515Y-79909638D01*
X127888453Y-79917487D01*
X127899847Y-79925918D01*
X127910697Y-79934930D01*
X127920946Y-79944473D01*
X127930533Y-79954496D01*
X127939458Y-79965000D01*
X127947723Y-79975985D01*
X127955327Y-79987451D01*
X127962269Y-79999397D01*
X127968550Y-80011824D01*
X127974170Y-80024732D01*
X127979129Y-80038120D01*
X127983426Y-80051989D01*
X127987063Y-80066338D01*
X127990038Y-80081169D01*
X127992352Y-80096479D01*
X127994005Y-80112271D01*
X127994997Y-80128543D01*
X127995327Y-80145296D01*
X127995327Y-80146102D01*
X127995098Y-80160047D01*
X127994411Y-80173972D01*
X127993266Y-80187879D01*
X127991663Y-80201767D01*
X127989601Y-80215635D01*
X127987082Y-80229485D01*
X127984104Y-80243317D01*
X127980668Y-80257129D01*
X127976774Y-80270922D01*
X127972423Y-80284697D01*
X127969267Y-80293869D01*
X127964247Y-80307499D01*
X127958858Y-80320883D01*
X127953101Y-80334021D01*
X127946976Y-80346914D01*
X127940482Y-80359561D01*
X127933620Y-80371963D01*
X127926390Y-80384119D01*
X127918791Y-80396030D01*
X127910824Y-80407695D01*
X127902488Y-80419114D01*
X127896727Y-80426591D01*
X127627522Y-80766454D01*
X128001238Y-80766454D01*
X128001238Y-80965000D01*
X127354556Y-80965000D01*
G37*
G36*
X128561946Y-80976284D02*
G01*
X128546408Y-80976098D01*
X128531159Y-80975540D01*
X128516200Y-80974612D01*
X128501530Y-80973311D01*
X128487150Y-80971640D01*
X128473060Y-80969596D01*
X128459259Y-80967181D01*
X128445748Y-80964395D01*
X128432527Y-80961237D01*
X128419595Y-80957708D01*
X128406953Y-80953807D01*
X128394600Y-80949534D01*
X128382538Y-80944890D01*
X128370765Y-80939875D01*
X128359281Y-80934488D01*
X128348087Y-80928729D01*
X128337201Y-80922582D01*
X128326640Y-80916094D01*
X128316405Y-80909266D01*
X128306494Y-80902098D01*
X128296909Y-80894590D01*
X128287650Y-80886742D01*
X128278716Y-80878554D01*
X128270107Y-80870026D01*
X128261823Y-80861158D01*
X128253865Y-80851949D01*
X128246232Y-80842401D01*
X128238925Y-80832513D01*
X128231942Y-80822285D01*
X128225286Y-80811717D01*
X128218954Y-80800808D01*
X128212948Y-80789560D01*
X128207319Y-80777961D01*
X128202054Y-80766068D01*
X128197152Y-80753882D01*
X128192613Y-80741401D01*
X128188437Y-80728627D01*
X128184624Y-80715559D01*
X128181175Y-80702197D01*
X128178088Y-80688541D01*
X128175365Y-80674591D01*
X128173005Y-80660348D01*
X128171007Y-80645810D01*
X128169373Y-80630979D01*
X128168102Y-80615854D01*
X128167195Y-80600435D01*
X128166650Y-80584722D01*
X128166468Y-80568715D01*
X128166468Y-80268614D01*
X128166650Y-80252513D01*
X128167195Y-80236718D01*
X128168102Y-80221230D01*
X128169373Y-80206048D01*
X128171007Y-80191173D01*
X128173005Y-80176604D01*
X128175365Y-80162342D01*
X128178088Y-80148386D01*
X128181175Y-80134736D01*
X128184624Y-80121393D01*
X128188437Y-80108356D01*
X128192613Y-80095626D01*
X128197152Y-80083202D01*
X128202054Y-80071085D01*
X128207319Y-80059274D01*
X128212948Y-80047770D01*
X128218954Y-80036553D01*
X128225286Y-80025672D01*
X128231942Y-80015127D01*
X128238925Y-80004918D01*
X128246232Y-79995044D01*
X128253865Y-79985506D01*
X128261823Y-79976304D01*
X128270107Y-79967438D01*
X128278716Y-79958908D01*
X128287650Y-79950714D01*
X128296909Y-79942855D01*
X128306494Y-79935333D01*
X128316405Y-79928146D01*
X128326640Y-79921295D01*
X128337201Y-79914780D01*
X128348087Y-79908600D01*
X128359281Y-79902777D01*
X128370765Y-79897329D01*
X128382538Y-79892257D01*
X128394600Y-79887560D01*
X128406953Y-79883240D01*
X128419595Y-79879295D01*
X128432527Y-79875725D01*
X128445748Y-79872532D01*
X128459259Y-79869714D01*
X128473060Y-79867272D01*
X128487150Y-79865205D01*
X128501530Y-79863515D01*
X128516200Y-79862200D01*
X128531159Y-79861260D01*
X128546408Y-79860697D01*
X128561946Y-79860509D01*
X128574820Y-79860682D01*
X128587516Y-79861202D01*
X128600033Y-79862067D01*
X128612372Y-79863280D01*
X128624532Y-79864838D01*
X128636514Y-79866743D01*
X128648318Y-79868994D01*
X128659943Y-79871591D01*
X128671389Y-79874535D01*
X128682658Y-79877825D01*
X128693748Y-79881462D01*
X128704659Y-79885445D01*
X128715392Y-79889774D01*
X128725947Y-79894449D01*
X128736323Y-79899471D01*
X128746521Y-79904839D01*
X128756520Y-79910537D01*
X128766301Y-79916547D01*
X128775864Y-79922870D01*
X128785209Y-79929506D01*
X128794335Y-79936455D01*
X128803243Y-79943716D01*
X128811933Y-79951290D01*
X128820404Y-79959177D01*
X128828657Y-79967377D01*
X128836692Y-79975889D01*
X128844509Y-79984714D01*
X128852107Y-79993852D01*
X128859487Y-80003302D01*
X128866649Y-80013066D01*
X128873592Y-80023142D01*
X128880317Y-80033531D01*
X128886837Y-80044184D01*
X128893100Y-80055120D01*
X128899104Y-80066340D01*
X128904850Y-80077844D01*
X128910337Y-80089631D01*
X128915567Y-80101701D01*
X128920538Y-80114054D01*
X128925252Y-80126691D01*
X128929707Y-80139611D01*
X128933904Y-80152815D01*
X128937842Y-80166301D01*
X128941523Y-80180072D01*
X128944945Y-80194125D01*
X128948109Y-80208462D01*
X128951015Y-80223083D01*
X128953663Y-80237986D01*
X128740073Y-80237986D01*
X128736908Y-80224486D01*
X128733323Y-80211523D01*
X128729318Y-80199097D01*
X128724893Y-80187208D01*
X128720049Y-80175857D01*
X128714784Y-80165043D01*
X128709100Y-80154767D01*
X128702997Y-80145027D01*
X128696519Y-80135830D01*
X128689714Y-80127178D01*
X128682582Y-80119072D01*
X128673206Y-80109706D01*
X128663319Y-80101194D01*
X128652920Y-80093534D01*
X128642009Y-80086727D01*
X128630633Y-80080844D01*
X128618837Y-80075959D01*
X128606621Y-80072071D01*
X128593985Y-80069179D01*
X128580929Y-80067285D01*
X128570183Y-80066487D01*
X128561946Y-80066308D01*
X128546066Y-80066775D01*
X128530865Y-80068178D01*
X128516344Y-80070516D01*
X128502504Y-80073789D01*
X128489343Y-80077997D01*
X128476863Y-80083140D01*
X128465063Y-80089218D01*
X128453942Y-80096231D01*
X128443502Y-80104179D01*
X128433742Y-80113062D01*
X128427613Y-80119504D01*
X128419114Y-80129808D01*
X128411452Y-80140873D01*
X128404625Y-80152697D01*
X128398635Y-80165282D01*
X128393480Y-80178628D01*
X128389161Y-80192734D01*
X128385678Y-80207600D01*
X128383031Y-80223226D01*
X128381731Y-80234066D01*
X128380802Y-80245244D01*
X128380245Y-80256760D01*
X128380059Y-80268614D01*
X128380059Y-80568715D01*
X128380245Y-80580568D01*
X128380802Y-80592081D01*
X128381731Y-80603254D01*
X128383031Y-80614087D01*
X128385678Y-80629698D01*
X128389161Y-80644545D01*
X128393480Y-80658626D01*
X128398635Y-80671942D01*
X128404625Y-80684494D01*
X128411452Y-80696280D01*
X128419114Y-80707301D01*
X128427613Y-80717557D01*
X128436920Y-80726968D01*
X128446907Y-80735453D01*
X128457573Y-80743012D01*
X128468920Y-80749646D01*
X128480948Y-80755354D01*
X128493655Y-80760137D01*
X128507042Y-80763993D01*
X128521109Y-80766925D01*
X128535856Y-80768930D01*
X128551284Y-80770010D01*
X128561946Y-80770216D01*
X128574454Y-80769824D01*
X128586589Y-80768648D01*
X128598351Y-80766688D01*
X128609740Y-80763944D01*
X128620755Y-80760416D01*
X128631398Y-80756105D01*
X128641667Y-80751009D01*
X128651564Y-80745129D01*
X128661087Y-80738465D01*
X128670237Y-80731018D01*
X128676130Y-80725617D01*
X128684636Y-80716879D01*
X128692622Y-80707488D01*
X128700088Y-80697446D01*
X128707035Y-80686753D01*
X128713463Y-80675407D01*
X128719371Y-80663410D01*
X128724759Y-80650761D01*
X128729628Y-80637461D01*
X128733978Y-80623508D01*
X128737808Y-80608904D01*
X128740073Y-80598806D01*
X128953663Y-80598806D01*
X128950918Y-80613614D01*
X128947920Y-80628150D01*
X128944671Y-80642412D01*
X128941170Y-80656402D01*
X128937417Y-80670118D01*
X128933412Y-80683562D01*
X128929156Y-80696733D01*
X128924647Y-80709631D01*
X128919887Y-80722257D01*
X128914874Y-80734609D01*
X128909610Y-80746689D01*
X128904094Y-80758495D01*
X128898326Y-80770029D01*
X128892306Y-80781290D01*
X128886035Y-80792278D01*
X128879511Y-80802993D01*
X128872787Y-80813415D01*
X128865847Y-80823521D01*
X128858690Y-80833313D01*
X128851318Y-80842790D01*
X128843729Y-80851952D01*
X128835924Y-80860799D01*
X128827903Y-80869331D01*
X128819665Y-80877548D01*
X128811212Y-80885451D01*
X128802542Y-80893039D01*
X128793656Y-80900312D01*
X128784554Y-80907270D01*
X128775236Y-80913913D01*
X128765701Y-80920241D01*
X128755950Y-80926255D01*
X128745983Y-80931953D01*
X128735851Y-80937322D01*
X128725535Y-80942343D01*
X128715037Y-80947019D01*
X128704357Y-80951348D01*
X128693494Y-80955331D01*
X128682448Y-80958967D01*
X128671219Y-80962257D01*
X128659808Y-80965201D01*
X128648215Y-80967798D01*
X128636439Y-80970050D01*
X128624480Y-80971954D01*
X128612338Y-80973513D01*
X128600014Y-80974725D01*
X128587508Y-80975591D01*
X128574818Y-80976110D01*
X128561946Y-80976284D01*
G37*
G36*
X127313988Y-82824284D02*
G01*
X127299357Y-82824144D01*
X127284783Y-82823726D01*
X127270265Y-82823030D01*
X127255804Y-82822054D01*
X127241400Y-82820801D01*
X127227053Y-82819268D01*
X127212762Y-82817457D01*
X127198528Y-82815367D01*
X127184350Y-82812999D01*
X127170230Y-82810352D01*
X127160847Y-82808432D01*
X127146923Y-82805333D01*
X127133160Y-82801978D01*
X127119557Y-82798368D01*
X127106115Y-82794503D01*
X127092833Y-82790384D01*
X127079712Y-82786009D01*
X127066751Y-82781379D01*
X127053951Y-82776494D01*
X127041312Y-82771355D01*
X127028833Y-82765960D01*
X127020603Y-82762221D01*
X127008473Y-82756418D01*
X126996565Y-82750393D01*
X126984879Y-82744145D01*
X126973414Y-82737676D01*
X126962172Y-82730985D01*
X126951152Y-82724072D01*
X126940353Y-82716937D01*
X126929777Y-82709579D01*
X126919422Y-82702000D01*
X126909290Y-82694199D01*
X126902658Y-82688875D01*
X126998035Y-82519078D01*
X127010046Y-82528592D01*
X127022401Y-82537691D01*
X127035101Y-82546375D01*
X127048146Y-82554642D01*
X127061535Y-82562495D01*
X127075270Y-82569931D01*
X127089349Y-82576952D01*
X127103772Y-82583558D01*
X127118541Y-82589748D01*
X127128578Y-82593643D01*
X127138769Y-82597354D01*
X127143921Y-82599140D01*
X127154283Y-82602557D01*
X127164680Y-82605752D01*
X127175113Y-82608727D01*
X127185582Y-82611482D01*
X127196086Y-82614017D01*
X127206626Y-82616331D01*
X127217201Y-82618425D01*
X127227813Y-82620298D01*
X127238460Y-82621951D01*
X127249142Y-82623383D01*
X127259861Y-82624596D01*
X127270615Y-82625587D01*
X127281404Y-82626359D01*
X127292230Y-82626910D01*
X127303091Y-82627240D01*
X127313988Y-82627351D01*
X127326405Y-82627217D01*
X127338470Y-82626817D01*
X127350182Y-82626151D01*
X127361542Y-82625218D01*
X127372549Y-82624018D01*
X127383203Y-82622552D01*
X127398523Y-82619853D01*
X127413050Y-82616555D01*
X127426784Y-82612656D01*
X127439724Y-82608158D01*
X127451871Y-82603059D01*
X127463224Y-82597362D01*
X127470352Y-82593230D01*
X127480291Y-82586536D01*
X127489252Y-82579351D01*
X127497236Y-82571676D01*
X127504242Y-82563508D01*
X127512062Y-82551855D01*
X127518145Y-82539328D01*
X127522490Y-82525929D01*
X127524608Y-82515306D01*
X127525749Y-82504192D01*
X127525966Y-82496510D01*
X127525966Y-82495704D01*
X127525529Y-82484226D01*
X127524220Y-82473438D01*
X127521355Y-82460920D01*
X127517125Y-82449478D01*
X127511531Y-82439112D01*
X127504573Y-82429821D01*
X127498025Y-82423163D01*
X127488937Y-82415593D01*
X127478971Y-82408665D01*
X127468126Y-82402380D01*
X127456402Y-82396738D01*
X127446390Y-82392687D01*
X127435816Y-82389047D01*
X127424678Y-82385819D01*
X127413206Y-82382859D01*
X127401489Y-82380026D01*
X127389529Y-82377318D01*
X127377326Y-82374736D01*
X127364879Y-82372280D01*
X127352189Y-82369951D01*
X127339255Y-82367747D01*
X127326078Y-82365669D01*
X127314074Y-82363765D01*
X127302042Y-82361780D01*
X127289982Y-82359716D01*
X127277894Y-82357571D01*
X127265777Y-82355346D01*
X127253632Y-82353040D01*
X127241459Y-82350655D01*
X127229257Y-82348189D01*
X127217027Y-82345642D01*
X127204768Y-82343016D01*
X127196580Y-82341220D01*
X127184429Y-82338298D01*
X127172457Y-82335074D01*
X127160664Y-82331548D01*
X127149051Y-82327719D01*
X127137618Y-82323589D01*
X127126364Y-82319156D01*
X127115289Y-82314420D01*
X127104394Y-82309383D01*
X127093678Y-82304043D01*
X127083142Y-82298401D01*
X127076217Y-82294472D01*
X127066127Y-82288236D01*
X127056410Y-82281519D01*
X127047067Y-82274320D01*
X127038096Y-82266640D01*
X127029498Y-82258477D01*
X127021274Y-82249833D01*
X127013422Y-82240708D01*
X127005944Y-82231100D01*
X126998839Y-82221011D01*
X126992107Y-82210440D01*
X126987826Y-82203125D01*
X126981872Y-82191643D01*
X126976504Y-82179461D01*
X126971721Y-82166581D01*
X126967525Y-82153002D01*
X126963913Y-82138724D01*
X126960888Y-82123747D01*
X126958448Y-82108070D01*
X126957146Y-82097231D01*
X126956105Y-82086082D01*
X126955324Y-82074621D01*
X126954804Y-82062850D01*
X126954544Y-82050769D01*
X126954511Y-82044612D01*
X126954511Y-82043806D01*
X126954922Y-82024073D01*
X126956157Y-82004908D01*
X126958214Y-81986309D01*
X126961093Y-81968276D01*
X126964796Y-81950811D01*
X126969321Y-81933912D01*
X126974669Y-81917580D01*
X126980840Y-81901815D01*
X126987834Y-81886616D01*
X126995651Y-81871984D01*
X127004290Y-81857919D01*
X127013752Y-81844421D01*
X127024037Y-81831489D01*
X127035145Y-81819124D01*
X127047075Y-81807326D01*
X127059829Y-81796094D01*
X127073333Y-81785488D01*
X127087518Y-81775567D01*
X127102383Y-81766329D01*
X127117928Y-81757776D01*
X127134153Y-81749907D01*
X127151058Y-81742722D01*
X127168643Y-81736222D01*
X127186908Y-81730405D01*
X127205853Y-81725273D01*
X127225479Y-81720826D01*
X127245784Y-81717062D01*
X127266769Y-81713983D01*
X127277517Y-81712700D01*
X127288435Y-81711588D01*
X127299523Y-81710647D01*
X127310780Y-81709877D01*
X127322208Y-81709279D01*
X127333806Y-81708851D01*
X127345574Y-81708594D01*
X127357512Y-81708509D01*
X127368606Y-81708625D01*
X127379723Y-81708975D01*
X127390863Y-81709557D01*
X127402026Y-81710373D01*
X127413213Y-81711421D01*
X127424422Y-81712703D01*
X127435655Y-81714217D01*
X127446911Y-81715964D01*
X127458189Y-81717945D01*
X127469491Y-81720158D01*
X127480816Y-81722604D01*
X127492164Y-81725284D01*
X127503535Y-81728196D01*
X127514930Y-81731341D01*
X127526347Y-81734720D01*
X127537787Y-81738331D01*
X127549223Y-81742124D01*
X127560557Y-81746114D01*
X127571791Y-81750301D01*
X127582923Y-81754686D01*
X127593956Y-81759268D01*
X127604887Y-81764047D01*
X127615718Y-81769024D01*
X127626448Y-81774198D01*
X127637077Y-81779569D01*
X127647605Y-81785138D01*
X127658033Y-81790904D01*
X127668360Y-81796867D01*
X127678586Y-81803027D01*
X127688711Y-81809385D01*
X127698736Y-81815940D01*
X127708660Y-81822692D01*
X127621612Y-81997057D01*
X127609721Y-81988927D01*
X127597727Y-81981161D01*
X127585630Y-81973758D01*
X127573428Y-81966719D01*
X127561122Y-81960044D01*
X127548712Y-81953732D01*
X127536199Y-81947784D01*
X127523582Y-81942199D01*
X127510860Y-81936978D01*
X127498035Y-81932121D01*
X127489427Y-81929085D01*
X127476581Y-81924859D01*
X127463834Y-81921050D01*
X127451185Y-81917656D01*
X127438637Y-81914677D01*
X127426187Y-81912115D01*
X127413836Y-81909967D01*
X127401585Y-81908236D01*
X127389433Y-81906920D01*
X127377380Y-81906019D01*
X127365426Y-81905534D01*
X127357512Y-81905442D01*
X127345856Y-81905564D01*
X127334532Y-81905929D01*
X127323540Y-81906538D01*
X127307673Y-81907907D01*
X127292553Y-81909825D01*
X127278179Y-81912290D01*
X127264551Y-81915303D01*
X127251669Y-81918864D01*
X127239533Y-81922972D01*
X127228144Y-81927629D01*
X127217500Y-81932833D01*
X127210819Y-81936607D01*
X127201553Y-81942673D01*
X127190615Y-81951451D01*
X127181298Y-81961018D01*
X127173601Y-81971374D01*
X127167524Y-81982519D01*
X127163068Y-81994454D01*
X127160233Y-82007178D01*
X127159017Y-82020691D01*
X127158967Y-82024193D01*
X127158967Y-82024999D01*
X127159449Y-82037765D01*
X127160898Y-82049733D01*
X127163312Y-82060904D01*
X127166691Y-82071277D01*
X127172273Y-82083121D01*
X127179363Y-82093720D01*
X127187963Y-82103072D01*
X127189863Y-82104793D01*
X127199971Y-82112854D01*
X127210984Y-82120247D01*
X127220446Y-82125679D01*
X127230488Y-82130683D01*
X127241109Y-82135258D01*
X127252309Y-82139406D01*
X127264088Y-82143125D01*
X127270195Y-82144824D01*
X127282738Y-82148086D01*
X127295517Y-82151289D01*
X127308530Y-82154433D01*
X127321779Y-82157519D01*
X127335263Y-82160546D01*
X127348982Y-82163514D01*
X127362935Y-82166423D01*
X127373555Y-82168566D01*
X127377124Y-82169273D01*
X127388955Y-82171590D01*
X127400772Y-82174005D01*
X127412575Y-82176520D01*
X127424364Y-82179134D01*
X127436138Y-82181847D01*
X127447898Y-82184659D01*
X127459644Y-82187571D01*
X127471376Y-82190582D01*
X127483094Y-82193692D01*
X127494797Y-82196901D01*
X127502592Y-82199095D01*
X127514235Y-82202554D01*
X127525689Y-82206283D01*
X127536954Y-82210281D01*
X127548030Y-82214548D01*
X127558918Y-82219084D01*
X127569616Y-82223889D01*
X127580126Y-82228964D01*
X127590446Y-82234307D01*
X127600578Y-82239920D01*
X127610521Y-82245802D01*
X127617044Y-82249873D01*
X127626580Y-82256289D01*
X127635743Y-82263144D01*
X127644532Y-82270438D01*
X127652949Y-82278171D01*
X127660992Y-82286344D01*
X127668663Y-82294956D01*
X127675960Y-82304007D01*
X127682884Y-82313497D01*
X127689436Y-82323426D01*
X127695614Y-82333795D01*
X127699525Y-82340951D01*
X127705047Y-82352087D01*
X127710025Y-82363831D01*
X127714460Y-82376185D01*
X127718353Y-82389148D01*
X127721702Y-82402720D01*
X127724508Y-82416901D01*
X127726771Y-82431692D01*
X127728491Y-82447092D01*
X127729667Y-82463101D01*
X127730150Y-82474112D01*
X127730392Y-82485394D01*
X127730422Y-82491136D01*
X127730422Y-82492748D01*
X127729996Y-82512186D01*
X127728717Y-82531071D01*
X127726587Y-82549405D01*
X127723604Y-82567186D01*
X127719769Y-82584415D01*
X127715082Y-82601092D01*
X127709543Y-82617218D01*
X127703152Y-82632791D01*
X127695908Y-82647812D01*
X127687813Y-82662281D01*
X127678865Y-82676199D01*
X127669065Y-82689564D01*
X127658413Y-82702377D01*
X127646908Y-82714638D01*
X127634552Y-82726347D01*
X127621343Y-82737504D01*
X127607391Y-82748012D01*
X127592738Y-82757843D01*
X127577384Y-82766996D01*
X127561329Y-82775470D01*
X127544573Y-82783267D01*
X127527116Y-82790385D01*
X127508958Y-82796826D01*
X127490099Y-82802589D01*
X127470539Y-82807673D01*
X127450277Y-82812080D01*
X127429315Y-82815809D01*
X127418571Y-82817419D01*
X127407652Y-82818860D01*
X127396557Y-82820131D01*
X127385287Y-82821233D01*
X127373842Y-82822165D01*
X127362222Y-82822928D01*
X127350426Y-82823521D01*
X127338455Y-82823945D01*
X127326309Y-82824199D01*
X127313988Y-82824284D01*
G37*
G36*
X128261039Y-82824284D02*
G01*
X128245501Y-82824098D01*
X128230252Y-82823540D01*
X128215292Y-82822612D01*
X128200623Y-82821311D01*
X128186243Y-82819640D01*
X128172152Y-82817596D01*
X128158352Y-82815181D01*
X128144841Y-82812395D01*
X128131619Y-82809237D01*
X128118688Y-82805708D01*
X128106046Y-82801807D01*
X128093693Y-82797534D01*
X128081631Y-82792890D01*
X128069857Y-82787875D01*
X128058374Y-82782488D01*
X128047180Y-82776729D01*
X128036294Y-82770582D01*
X128025733Y-82764094D01*
X128015497Y-82757266D01*
X128005587Y-82750098D01*
X127996002Y-82742590D01*
X127986743Y-82734742D01*
X127977808Y-82726554D01*
X127969200Y-82718026D01*
X127960916Y-82709158D01*
X127952958Y-82699949D01*
X127945325Y-82690401D01*
X127938017Y-82680513D01*
X127931035Y-82670285D01*
X127924378Y-82659717D01*
X127918047Y-82648808D01*
X127912041Y-82637560D01*
X127906412Y-82625961D01*
X127901147Y-82614068D01*
X127896245Y-82601882D01*
X127891706Y-82589401D01*
X127887530Y-82576627D01*
X127883717Y-82563559D01*
X127880268Y-82550197D01*
X127877181Y-82536541D01*
X127874458Y-82522591D01*
X127872097Y-82508348D01*
X127870100Y-82493810D01*
X127868466Y-82478979D01*
X127867195Y-82463854D01*
X127866287Y-82448435D01*
X127865743Y-82432722D01*
X127865561Y-82416715D01*
X127865561Y-82116614D01*
X127865743Y-82100513D01*
X127866287Y-82084718D01*
X127867195Y-82069230D01*
X127868466Y-82054048D01*
X127870100Y-82039173D01*
X127872097Y-82024604D01*
X127874458Y-82010342D01*
X127877181Y-81996386D01*
X127880268Y-81982736D01*
X127883717Y-81969393D01*
X127887530Y-81956356D01*
X127891706Y-81943626D01*
X127896245Y-81931202D01*
X127901147Y-81919085D01*
X127906412Y-81907274D01*
X127912041Y-81895770D01*
X127918047Y-81884553D01*
X127924378Y-81873672D01*
X127931035Y-81863127D01*
X127938017Y-81852918D01*
X127945325Y-81843044D01*
X127952958Y-81833506D01*
X127960916Y-81824304D01*
X127969200Y-81815438D01*
X127977808Y-81806908D01*
X127986743Y-81798714D01*
X127996002Y-81790855D01*
X128005587Y-81783333D01*
X128015497Y-81776146D01*
X128025733Y-81769295D01*
X128036294Y-81762780D01*
X128047180Y-81756600D01*
X128058374Y-81750777D01*
X128069857Y-81745329D01*
X128081631Y-81740257D01*
X128093693Y-81735560D01*
X128106046Y-81731240D01*
X128118688Y-81727295D01*
X128131619Y-81723725D01*
X128144841Y-81720532D01*
X128158352Y-81717714D01*
X128172152Y-81715272D01*
X128186243Y-81713205D01*
X128200623Y-81711515D01*
X128215292Y-81710200D01*
X128230252Y-81709260D01*
X128245501Y-81708697D01*
X128261039Y-81708509D01*
X128273913Y-81708682D01*
X128286609Y-81709202D01*
X128299126Y-81710067D01*
X128311465Y-81711280D01*
X128323625Y-81712838D01*
X128335607Y-81714743D01*
X128347411Y-81716994D01*
X128359036Y-81719591D01*
X128370482Y-81722535D01*
X128381751Y-81725825D01*
X128392840Y-81729462D01*
X128403752Y-81733445D01*
X128414485Y-81737774D01*
X128425040Y-81742449D01*
X128435416Y-81747471D01*
X128445614Y-81752839D01*
X128455613Y-81758537D01*
X128465394Y-81764547D01*
X128474957Y-81770870D01*
X128484302Y-81777506D01*
X128493428Y-81784455D01*
X128502336Y-81791716D01*
X128511026Y-81799290D01*
X128519497Y-81807177D01*
X128527750Y-81815377D01*
X128535785Y-81823889D01*
X128543602Y-81832714D01*
X128551200Y-81841852D01*
X128558580Y-81851302D01*
X128565741Y-81861066D01*
X128572685Y-81871142D01*
X128579410Y-81881531D01*
X128585930Y-81892184D01*
X128592193Y-81903120D01*
X128598197Y-81914340D01*
X128603942Y-81925844D01*
X128609430Y-81937631D01*
X128614660Y-81949701D01*
X128619631Y-81962054D01*
X128624344Y-81974691D01*
X128628799Y-81987611D01*
X128632996Y-82000815D01*
X128636935Y-82014301D01*
X128640616Y-82028072D01*
X128644038Y-82042125D01*
X128647202Y-82056462D01*
X128650108Y-82071083D01*
X128652756Y-82085986D01*
X128439166Y-82085986D01*
X128436000Y-82072486D01*
X128432415Y-82059523D01*
X128428411Y-82047097D01*
X128423986Y-82035208D01*
X128419141Y-82023857D01*
X128413877Y-82013043D01*
X128408193Y-82002767D01*
X128402090Y-81993027D01*
X128395612Y-81983830D01*
X128388807Y-81975178D01*
X128381675Y-81967072D01*
X128372299Y-81957706D01*
X128362412Y-81949194D01*
X128352013Y-81941534D01*
X128341102Y-81934727D01*
X128329726Y-81928844D01*
X128317930Y-81923959D01*
X128305714Y-81920071D01*
X128293078Y-81917179D01*
X128280022Y-81915285D01*
X128269276Y-81914487D01*
X128261039Y-81914308D01*
X128245159Y-81914775D01*
X128229958Y-81916178D01*
X128215437Y-81918516D01*
X128201597Y-81921789D01*
X128188436Y-81925997D01*
X128175956Y-81931140D01*
X128164155Y-81937218D01*
X128153035Y-81944231D01*
X128142595Y-81952179D01*
X128132835Y-81961062D01*
X128126706Y-81967504D01*
X128118207Y-81977808D01*
X128110545Y-81988873D01*
X128103718Y-82000697D01*
X128097727Y-82013282D01*
X128092573Y-82026628D01*
X128088254Y-82040734D01*
X128084771Y-82055600D01*
X128082124Y-82071226D01*
X128080823Y-82082066D01*
X128079895Y-82093244D01*
X128079337Y-82104760D01*
X128079152Y-82116614D01*
X128079152Y-82416715D01*
X128079337Y-82428568D01*
X128079895Y-82440081D01*
X128080823Y-82451254D01*
X128082124Y-82462087D01*
X128084771Y-82477698D01*
X128088254Y-82492545D01*
X128092573Y-82506626D01*
X128097727Y-82519942D01*
X128103718Y-82532494D01*
X128110545Y-82544280D01*
X128118207Y-82555301D01*
X128126706Y-82565557D01*
X128136013Y-82574968D01*
X128145999Y-82583453D01*
X128156666Y-82591012D01*
X128168013Y-82597646D01*
X128180040Y-82603354D01*
X128192747Y-82608137D01*
X128206135Y-82611993D01*
X128220202Y-82614925D01*
X128234949Y-82616930D01*
X128250377Y-82618010D01*
X128261039Y-82618216D01*
X128273547Y-82617824D01*
X128285682Y-82616648D01*
X128297444Y-82614688D01*
X128308833Y-82611944D01*
X128319848Y-82608416D01*
X128330491Y-82604105D01*
X128340760Y-82599009D01*
X128350657Y-82593129D01*
X128360180Y-82586465D01*
X128369330Y-82579018D01*
X128375223Y-82573617D01*
X128383728Y-82564879D01*
X128391714Y-82555488D01*
X128399181Y-82545446D01*
X128406128Y-82534753D01*
X128412555Y-82523407D01*
X128418464Y-82511410D01*
X128423852Y-82498761D01*
X128428721Y-82485461D01*
X128433071Y-82471508D01*
X128436901Y-82456904D01*
X128439166Y-82446806D01*
X128652756Y-82446806D01*
X128650011Y-82461614D01*
X128647013Y-82476150D01*
X128643764Y-82490412D01*
X128640263Y-82504402D01*
X128636510Y-82518118D01*
X128632505Y-82531562D01*
X128628248Y-82544733D01*
X128623740Y-82557631D01*
X128618979Y-82570257D01*
X128613967Y-82582609D01*
X128608703Y-82594689D01*
X128603187Y-82606495D01*
X128597419Y-82618029D01*
X128591399Y-82629290D01*
X128585127Y-82640278D01*
X128578604Y-82650993D01*
X128571880Y-82661415D01*
X128564940Y-82671521D01*
X128557783Y-82681313D01*
X128550411Y-82690790D01*
X128542822Y-82699952D01*
X128535017Y-82708799D01*
X128526996Y-82717331D01*
X128518758Y-82725548D01*
X128510305Y-82733451D01*
X128501635Y-82741039D01*
X128492749Y-82748312D01*
X128483647Y-82755270D01*
X128474328Y-82761913D01*
X128464794Y-82768241D01*
X128455043Y-82774255D01*
X128445076Y-82779953D01*
X128434944Y-82785322D01*
X128424628Y-82790343D01*
X128414130Y-82795019D01*
X128403450Y-82799348D01*
X128392586Y-82803331D01*
X128381541Y-82806967D01*
X128370312Y-82810257D01*
X128358901Y-82813201D01*
X128347308Y-82815798D01*
X128335531Y-82818050D01*
X128323573Y-82819954D01*
X128311431Y-82821513D01*
X128299107Y-82822725D01*
X128286600Y-82823591D01*
X128273911Y-82824110D01*
X128261039Y-82824284D01*
G37*
G36*
X128907184Y-82373191D02*
G01*
X128907184Y-82174646D01*
X129287616Y-82174646D01*
X129299341Y-82174096D01*
X129310470Y-82172447D01*
X129321002Y-82169697D01*
X129333330Y-82164713D01*
X129344726Y-82158011D01*
X129355191Y-82149590D01*
X129362892Y-82141616D01*
X129364724Y-82139451D01*
X129371537Y-82130232D01*
X129377469Y-82120308D01*
X129382519Y-82109679D01*
X129386687Y-82098345D01*
X129389974Y-82086305D01*
X129392380Y-82073560D01*
X129393904Y-82060110D01*
X129394546Y-82045955D01*
X129394093Y-82031867D01*
X129392732Y-82018484D01*
X129390466Y-82005806D01*
X129387292Y-81993833D01*
X129383212Y-81982566D01*
X129378224Y-81972004D01*
X129372330Y-81962147D01*
X129365530Y-81952996D01*
X129357965Y-81944684D01*
X129349779Y-81937480D01*
X129338673Y-81930034D01*
X129326596Y-81924320D01*
X129316236Y-81920995D01*
X129305254Y-81918779D01*
X129293651Y-81917670D01*
X129287616Y-81917532D01*
X128907184Y-81917532D01*
X128907184Y-81718987D01*
X129304274Y-81718987D01*
X129315536Y-81719145D01*
X129326619Y-81719621D01*
X129337524Y-81720413D01*
X129348251Y-81721522D01*
X129364007Y-81723781D01*
X129379361Y-81726752D01*
X129394314Y-81730437D01*
X129408865Y-81734834D01*
X129423015Y-81739945D01*
X129436763Y-81745769D01*
X129450110Y-81752306D01*
X129463056Y-81759556D01*
X129475582Y-81767455D01*
X129487570Y-81775940D01*
X129499019Y-81785011D01*
X129509930Y-81794667D01*
X129520303Y-81804909D01*
X129530137Y-81815736D01*
X129539433Y-81827150D01*
X129548190Y-81839148D01*
X129556409Y-81851733D01*
X129564090Y-81864903D01*
X129568911Y-81874008D01*
X129575633Y-81888028D01*
X129581694Y-81902482D01*
X129587093Y-81917371D01*
X129591832Y-81932695D01*
X129594623Y-81943152D01*
X129597121Y-81953802D01*
X129599325Y-81964645D01*
X129601235Y-81975682D01*
X129602851Y-81986911D01*
X129604173Y-81998334D01*
X129605202Y-82009949D01*
X129605937Y-82021758D01*
X129606377Y-82033760D01*
X129606524Y-82045955D01*
X129606375Y-82058182D01*
X129605928Y-82070215D01*
X129605183Y-82082052D01*
X129604140Y-82093694D01*
X129602799Y-82105140D01*
X129601159Y-82116392D01*
X129599222Y-82127448D01*
X129596987Y-82138309D01*
X129594453Y-82148975D01*
X129591622Y-82159446D01*
X129586816Y-82174786D01*
X129581339Y-82189687D01*
X129575191Y-82204148D01*
X129568374Y-82218170D01*
X129561009Y-82231685D01*
X129553119Y-82244624D01*
X129544706Y-82256986D01*
X129535768Y-82268772D01*
X129526306Y-82279982D01*
X129516320Y-82290616D01*
X129505810Y-82300674D01*
X129494776Y-82310155D01*
X129483217Y-82319061D01*
X129471134Y-82327390D01*
X129462787Y-82332623D01*
X129449890Y-82339873D01*
X129436586Y-82346410D01*
X129422876Y-82352234D01*
X129408760Y-82357344D01*
X129394238Y-82361742D01*
X129379310Y-82365426D01*
X129363975Y-82368398D01*
X129348234Y-82370656D01*
X129337515Y-82371765D01*
X129326615Y-82372558D01*
X129315535Y-82373033D01*
X129304274Y-82373191D01*
X128907184Y-82373191D01*
G37*
G36*
X128825240Y-82813000D02*
G01*
X128825240Y-81718987D01*
X129031308Y-81718987D01*
X129031308Y-82813000D01*
X128825240Y-82813000D01*
G37*
G36*
X129402606Y-82813000D02*
G01*
X129137163Y-82339339D01*
X129357470Y-82304681D01*
X129652466Y-82813000D01*
X129402606Y-82813000D01*
G37*
G36*
X129828981Y-82813000D02*
G01*
X129828981Y-81719524D01*
X130035048Y-81719524D01*
X130035048Y-82813000D01*
X129828981Y-82813000D01*
G37*
G36*
X129903401Y-82813000D02*
G01*
X129903401Y-82614454D01*
X130561367Y-82614454D01*
X130561367Y-82813000D01*
X129903401Y-82813000D01*
G37*
G36*
X129903401Y-82369430D02*
G01*
X129903401Y-82170885D01*
X130478618Y-82170885D01*
X130478618Y-82369430D01*
X129903401Y-82369430D01*
G37*
G36*
X129903401Y-81918069D02*
G01*
X129903401Y-81719524D01*
X130561367Y-81719524D01*
X130561367Y-81918069D01*
X129903401Y-81918069D01*
G37*
G36*
X130748897Y-82813000D02*
G01*
X130748897Y-81719524D01*
X130954965Y-81719524D01*
X130954965Y-82813000D01*
X130748897Y-82813000D01*
G37*
G36*
X130823318Y-82813000D02*
G01*
X130823318Y-82614454D01*
X131481284Y-82614454D01*
X131481284Y-82813000D01*
X130823318Y-82813000D01*
G37*
G36*
X130823318Y-82369430D02*
G01*
X130823318Y-82170885D01*
X131398534Y-82170885D01*
X131398534Y-82369430D01*
X130823318Y-82369430D01*
G37*
G36*
X130823318Y-81918069D02*
G01*
X130823318Y-81719524D01*
X131481284Y-81719524D01*
X131481284Y-81918069D01*
X130823318Y-81918069D01*
G37*
G36*
X131668813Y-82812193D02*
G01*
X131668813Y-81719524D01*
X131920554Y-81719524D01*
X132327585Y-82557497D01*
X132309316Y-82576841D01*
X132309316Y-81719524D01*
X132506517Y-81719524D01*
X132506517Y-82812193D01*
X132253164Y-82812193D01*
X131847745Y-81987117D01*
X131865746Y-81967773D01*
X131865746Y-82812193D01*
X131668813Y-82812193D01*
G37*
D12*
X124986779Y-93608866D02*
X125748684Y-93608866D01*
X125367731Y-93989819D02*
X125367731Y-93227914D01*
D11*
G36*
X141452306Y-115173191D02*
G01*
X141452306Y-114974646D01*
X141832739Y-114974646D01*
X141844463Y-114974096D01*
X141855592Y-114972447D01*
X141866125Y-114969697D01*
X141878452Y-114964713D01*
X141889848Y-114958011D01*
X141900313Y-114949590D01*
X141908014Y-114941616D01*
X141909846Y-114939451D01*
X141916659Y-114930232D01*
X141922591Y-114920308D01*
X141927641Y-114909679D01*
X141931810Y-114898345D01*
X141935096Y-114886305D01*
X141937502Y-114873560D01*
X141939026Y-114860110D01*
X141939668Y-114845955D01*
X141939215Y-114831867D01*
X141937855Y-114818484D01*
X141935588Y-114805806D01*
X141932414Y-114793833D01*
X141928334Y-114782566D01*
X141923346Y-114772004D01*
X141917453Y-114762147D01*
X141910652Y-114752996D01*
X141903087Y-114744684D01*
X141894901Y-114737480D01*
X141883795Y-114730034D01*
X141871718Y-114724320D01*
X141861358Y-114720995D01*
X141850376Y-114718779D01*
X141838773Y-114717670D01*
X141832739Y-114717532D01*
X141452306Y-114717532D01*
X141452306Y-114518987D01*
X141849396Y-114518987D01*
X141860658Y-114519145D01*
X141871741Y-114519621D01*
X141882647Y-114520413D01*
X141893373Y-114521522D01*
X141909129Y-114523781D01*
X141924483Y-114526752D01*
X141939436Y-114530437D01*
X141953987Y-114534834D01*
X141968137Y-114539945D01*
X141981885Y-114545769D01*
X141995233Y-114552306D01*
X142008178Y-114559556D01*
X142020704Y-114567455D01*
X142032692Y-114575940D01*
X142044141Y-114585011D01*
X142055052Y-114594667D01*
X142065425Y-114604909D01*
X142075259Y-114615736D01*
X142084555Y-114627150D01*
X142093312Y-114639148D01*
X142101531Y-114651733D01*
X142109212Y-114664903D01*
X142114033Y-114674008D01*
X142120755Y-114688028D01*
X142126816Y-114702482D01*
X142132215Y-114717371D01*
X142136954Y-114732695D01*
X142139745Y-114743152D01*
X142142243Y-114753802D01*
X142144447Y-114764645D01*
X142146357Y-114775682D01*
X142147973Y-114786911D01*
X142149296Y-114798334D01*
X142150324Y-114809949D01*
X142151059Y-114821758D01*
X142151499Y-114833760D01*
X142151646Y-114845955D01*
X142151497Y-114858182D01*
X142151050Y-114870215D01*
X142150305Y-114882052D01*
X142149262Y-114893694D01*
X142147921Y-114905140D01*
X142146281Y-114916392D01*
X142144344Y-114927448D01*
X142142109Y-114938309D01*
X142139575Y-114948975D01*
X142136744Y-114959446D01*
X142131938Y-114974786D01*
X142126461Y-114989687D01*
X142120314Y-115004148D01*
X142113496Y-115018170D01*
X142106131Y-115031685D01*
X142098241Y-115044624D01*
X142089828Y-115056986D01*
X142080890Y-115068772D01*
X142071429Y-115079982D01*
X142061442Y-115090616D01*
X142050932Y-115100674D01*
X142039898Y-115110155D01*
X142028339Y-115119061D01*
X142016256Y-115127390D01*
X142007909Y-115132623D01*
X141995012Y-115139873D01*
X141981708Y-115146410D01*
X141967998Y-115152234D01*
X141953882Y-115157344D01*
X141939360Y-115161742D01*
X141924432Y-115165426D01*
X141909097Y-115168398D01*
X141893357Y-115170656D01*
X141882637Y-115171765D01*
X141871737Y-115172558D01*
X141860657Y-115173033D01*
X141849396Y-115173191D01*
X141452306Y-115173191D01*
G37*
G36*
X141370362Y-115613000D02*
G01*
X141370362Y-114518987D01*
X141576430Y-114518987D01*
X141576430Y-115613000D01*
X141370362Y-115613000D01*
G37*
G36*
X141947728Y-115613000D02*
G01*
X141682285Y-115139339D01*
X141902592Y-115104681D01*
X142197588Y-115613000D01*
X141947728Y-115613000D01*
G37*
G36*
X142374103Y-115613000D02*
G01*
X142374103Y-114519524D01*
X142580170Y-114519524D01*
X142580170Y-115613000D01*
X142374103Y-115613000D01*
G37*
G36*
X142448524Y-115613000D02*
G01*
X142448524Y-115414454D01*
X143106489Y-115414454D01*
X143106489Y-115613000D01*
X142448524Y-115613000D01*
G37*
G36*
X142448524Y-115169430D02*
G01*
X142448524Y-114970885D01*
X143023740Y-114970885D01*
X143023740Y-115169430D01*
X142448524Y-115169430D01*
G37*
G36*
X142448524Y-114718069D02*
G01*
X142448524Y-114519524D01*
X143106489Y-114519524D01*
X143106489Y-114718069D01*
X142448524Y-114718069D01*
G37*
G36*
X143637644Y-115624284D02*
G01*
X143623013Y-115624144D01*
X143608439Y-115623726D01*
X143593922Y-115623030D01*
X143579461Y-115622054D01*
X143565057Y-115620801D01*
X143550709Y-115619268D01*
X143536419Y-115617457D01*
X143522185Y-115615367D01*
X143508007Y-115612999D01*
X143493886Y-115610352D01*
X143484504Y-115608432D01*
X143470580Y-115605333D01*
X143456817Y-115601978D01*
X143443214Y-115598368D01*
X143429772Y-115594503D01*
X143416490Y-115590384D01*
X143403369Y-115586009D01*
X143390408Y-115581379D01*
X143377608Y-115576494D01*
X143364969Y-115571355D01*
X143352490Y-115565960D01*
X143344260Y-115562221D01*
X143332130Y-115556418D01*
X143320221Y-115550393D01*
X143308535Y-115544145D01*
X143297071Y-115537676D01*
X143285829Y-115530985D01*
X143274808Y-115524072D01*
X143264010Y-115516937D01*
X143253434Y-115509579D01*
X143243079Y-115502000D01*
X143232947Y-115494199D01*
X143226315Y-115488875D01*
X143321692Y-115319078D01*
X143333702Y-115328592D01*
X143346058Y-115337691D01*
X143358758Y-115346375D01*
X143371802Y-115354642D01*
X143385192Y-115362495D01*
X143398926Y-115369931D01*
X143413005Y-115376952D01*
X143427429Y-115383558D01*
X143442198Y-115389748D01*
X143452235Y-115393643D01*
X143462425Y-115397354D01*
X143467578Y-115399140D01*
X143477940Y-115402557D01*
X143488337Y-115405752D01*
X143498770Y-115408727D01*
X143509238Y-115411482D01*
X143519742Y-115414017D01*
X143530282Y-115416331D01*
X143540858Y-115418425D01*
X143551469Y-115420298D01*
X143562116Y-115421951D01*
X143572799Y-115423383D01*
X143583517Y-115424596D01*
X143594271Y-115425587D01*
X143605061Y-115426359D01*
X143615886Y-115426910D01*
X143626748Y-115427240D01*
X143637644Y-115427351D01*
X143650062Y-115427217D01*
X143662127Y-115426817D01*
X143673839Y-115426151D01*
X143685198Y-115425218D01*
X143696205Y-115424018D01*
X143706860Y-115422552D01*
X143722180Y-115419853D01*
X143736707Y-115416555D01*
X143750440Y-115412656D01*
X143763381Y-115408158D01*
X143775527Y-115403059D01*
X143786880Y-115397362D01*
X143794009Y-115393230D01*
X143803947Y-115386536D01*
X143812909Y-115379351D01*
X143820892Y-115371676D01*
X143827898Y-115363508D01*
X143835719Y-115351855D01*
X143841802Y-115339328D01*
X143846147Y-115325929D01*
X143848265Y-115315306D01*
X143849405Y-115304192D01*
X143849623Y-115296510D01*
X143849623Y-115295704D01*
X143849186Y-115284226D01*
X143847876Y-115273438D01*
X143845011Y-115260920D01*
X143840782Y-115249478D01*
X143835188Y-115239112D01*
X143828230Y-115229821D01*
X143821681Y-115223163D01*
X143812594Y-115215593D01*
X143802628Y-115208665D01*
X143791783Y-115202380D01*
X143780059Y-115196738D01*
X143770047Y-115192687D01*
X143759472Y-115189047D01*
X143748335Y-115185819D01*
X143736862Y-115182859D01*
X143725146Y-115180026D01*
X143713186Y-115177318D01*
X143700983Y-115174736D01*
X143688536Y-115172280D01*
X143675845Y-115169951D01*
X143662912Y-115167747D01*
X143649734Y-115165669D01*
X143637731Y-115163765D01*
X143625699Y-115161780D01*
X143613639Y-115159716D01*
X143601551Y-115157571D01*
X143589434Y-115155346D01*
X143577289Y-115153040D01*
X143565115Y-115150655D01*
X143552913Y-115148189D01*
X143540683Y-115145642D01*
X143528425Y-115143016D01*
X143520237Y-115141220D01*
X143508085Y-115138298D01*
X143496113Y-115135074D01*
X143484321Y-115131548D01*
X143472708Y-115127719D01*
X143461274Y-115123589D01*
X143450020Y-115119156D01*
X143438946Y-115114420D01*
X143428050Y-115109383D01*
X143417335Y-115104043D01*
X143406798Y-115098401D01*
X143399874Y-115094472D01*
X143389784Y-115088236D01*
X143380067Y-115081519D01*
X143370723Y-115074320D01*
X143361753Y-115066640D01*
X143353155Y-115058477D01*
X143344930Y-115049833D01*
X143337079Y-115040708D01*
X143329601Y-115031100D01*
X143322495Y-115021011D01*
X143315763Y-115010440D01*
X143311482Y-115003125D01*
X143305529Y-114991643D01*
X143300161Y-114979461D01*
X143295378Y-114966581D01*
X143291181Y-114953002D01*
X143287570Y-114938724D01*
X143284544Y-114923747D01*
X143282104Y-114908070D01*
X143280803Y-114897231D01*
X143279762Y-114886082D01*
X143278981Y-114874621D01*
X143278460Y-114862850D01*
X143278200Y-114850769D01*
X143278168Y-114844612D01*
X143278168Y-114843806D01*
X143278579Y-114824073D01*
X143279813Y-114804908D01*
X143281870Y-114786309D01*
X143284750Y-114768276D01*
X143288453Y-114750811D01*
X143292978Y-114733912D01*
X143298326Y-114717580D01*
X143304497Y-114701815D01*
X143311491Y-114686616D01*
X143319307Y-114671984D01*
X143327947Y-114657919D01*
X143337409Y-114644421D01*
X143347694Y-114631489D01*
X143358801Y-114619124D01*
X143370732Y-114607326D01*
X143383485Y-114596094D01*
X143396990Y-114585488D01*
X143411175Y-114575567D01*
X143426040Y-114566329D01*
X143441584Y-114557776D01*
X143457809Y-114549907D01*
X143474714Y-114542722D01*
X143492300Y-114536222D01*
X143510565Y-114530405D01*
X143529510Y-114525273D01*
X143549135Y-114520826D01*
X143569441Y-114517062D01*
X143590426Y-114513983D01*
X143601174Y-114512700D01*
X143612092Y-114511588D01*
X143623179Y-114510647D01*
X143634437Y-114509877D01*
X143645865Y-114509279D01*
X143657463Y-114508851D01*
X143669231Y-114508594D01*
X143681168Y-114508509D01*
X143692262Y-114508625D01*
X143703380Y-114508975D01*
X143714520Y-114509557D01*
X143725683Y-114510373D01*
X143736870Y-114511421D01*
X143748079Y-114512703D01*
X143759312Y-114514217D01*
X143770567Y-114515964D01*
X143781846Y-114517945D01*
X143793148Y-114520158D01*
X143804473Y-114522604D01*
X143815821Y-114525284D01*
X143827192Y-114528196D01*
X143838586Y-114531341D01*
X143850004Y-114534720D01*
X143861444Y-114538331D01*
X143872879Y-114542124D01*
X143884214Y-114546114D01*
X143895447Y-114550301D01*
X143906580Y-114554686D01*
X143917612Y-114559268D01*
X143928544Y-114564047D01*
X143939374Y-114569024D01*
X143950104Y-114574198D01*
X143960733Y-114579569D01*
X143971262Y-114585138D01*
X143981689Y-114590904D01*
X143992016Y-114596867D01*
X144002242Y-114603027D01*
X144012368Y-114609385D01*
X144022392Y-114615940D01*
X144032316Y-114622692D01*
X143945268Y-114797057D01*
X143933378Y-114788927D01*
X143921384Y-114781161D01*
X143909286Y-114773758D01*
X143897084Y-114766719D01*
X143884779Y-114760044D01*
X143872369Y-114753732D01*
X143859856Y-114747784D01*
X143847238Y-114742199D01*
X143834517Y-114736978D01*
X143821692Y-114732121D01*
X143813084Y-114729085D01*
X143800238Y-114724859D01*
X143787490Y-114721050D01*
X143774842Y-114717656D01*
X143762293Y-114714677D01*
X143749844Y-114712115D01*
X143737493Y-114709967D01*
X143725242Y-114708236D01*
X143713089Y-114706920D01*
X143701036Y-114706019D01*
X143689083Y-114705534D01*
X143681168Y-114705442D01*
X143669513Y-114705564D01*
X143658189Y-114705929D01*
X143647197Y-114706538D01*
X143631330Y-114707907D01*
X143616210Y-114709825D01*
X143601835Y-114712290D01*
X143588207Y-114715303D01*
X143575326Y-114718864D01*
X143563190Y-114722972D01*
X143551800Y-114727629D01*
X143541157Y-114732833D01*
X143534476Y-114736607D01*
X143525209Y-114742673D01*
X143514272Y-114751451D01*
X143504954Y-114761018D01*
X143497258Y-114771374D01*
X143491181Y-114782519D01*
X143486725Y-114794454D01*
X143483889Y-114807178D01*
X143482674Y-114820691D01*
X143482623Y-114824193D01*
X143482623Y-114824999D01*
X143483106Y-114837765D01*
X143484554Y-114849733D01*
X143486968Y-114860904D01*
X143490348Y-114871277D01*
X143495929Y-114883121D01*
X143503020Y-114893720D01*
X143511619Y-114903072D01*
X143513520Y-114904793D01*
X143523628Y-114912854D01*
X143534641Y-114920247D01*
X143544103Y-114925679D01*
X143554144Y-114930683D01*
X143564765Y-114935258D01*
X143575965Y-114939406D01*
X143587745Y-114943125D01*
X143593852Y-114944824D01*
X143606395Y-114948086D01*
X143619173Y-114951289D01*
X143632187Y-114954433D01*
X143645436Y-114957519D01*
X143658919Y-114960546D01*
X143672638Y-114963514D01*
X143686592Y-114966423D01*
X143697212Y-114968566D01*
X143700781Y-114969273D01*
X143712612Y-114971590D01*
X143724429Y-114974005D01*
X143736232Y-114976520D01*
X143748020Y-114979134D01*
X143759795Y-114981847D01*
X143771555Y-114984659D01*
X143783301Y-114987571D01*
X143795033Y-114990582D01*
X143806751Y-114993692D01*
X143818454Y-114996901D01*
X143826249Y-114999095D01*
X143837892Y-115002554D01*
X143849346Y-115006283D01*
X143860611Y-115010281D01*
X143871687Y-115014548D01*
X143882574Y-115019084D01*
X143893273Y-115023889D01*
X143903782Y-115028964D01*
X143914103Y-115034307D01*
X143924234Y-115039920D01*
X143934177Y-115045802D01*
X143940701Y-115049873D01*
X143950237Y-115056289D01*
X143959399Y-115063144D01*
X143968189Y-115070438D01*
X143976606Y-115078171D01*
X143984649Y-115086344D01*
X143992320Y-115094956D01*
X143999617Y-115104007D01*
X144006541Y-115113497D01*
X144013092Y-115123426D01*
X144019270Y-115133795D01*
X144023182Y-115140951D01*
X144028703Y-115152087D01*
X144033682Y-115163831D01*
X144038117Y-115176185D01*
X144042009Y-115189148D01*
X144045358Y-115202720D01*
X144048165Y-115216901D01*
X144050427Y-115231692D01*
X144052147Y-115247092D01*
X144053324Y-115263101D01*
X144053807Y-115274112D01*
X144054048Y-115285394D01*
X144054078Y-115291136D01*
X144054078Y-115292748D01*
X144053652Y-115312186D01*
X144052374Y-115331071D01*
X144050244Y-115349405D01*
X144047261Y-115367186D01*
X144043426Y-115384415D01*
X144038739Y-115401092D01*
X144033200Y-115417218D01*
X144026809Y-115432791D01*
X144019565Y-115447812D01*
X144011469Y-115462281D01*
X144002522Y-115476199D01*
X143992721Y-115489564D01*
X143982069Y-115502377D01*
X143970565Y-115514638D01*
X143958208Y-115526347D01*
X143945000Y-115537504D01*
X143931048Y-115548012D01*
X143916395Y-115557843D01*
X143901041Y-115566996D01*
X143884986Y-115575470D01*
X143868230Y-115583267D01*
X143850773Y-115590385D01*
X143832615Y-115596826D01*
X143813756Y-115602589D01*
X143794195Y-115607673D01*
X143773934Y-115612080D01*
X143752972Y-115615809D01*
X143742228Y-115617419D01*
X143731308Y-115618860D01*
X143720214Y-115620131D01*
X143708944Y-115621233D01*
X143697499Y-115622165D01*
X143685878Y-115622928D01*
X143674083Y-115623521D01*
X143662112Y-115623945D01*
X143649966Y-115624199D01*
X143637644Y-115624284D01*
G37*
G36*
X144226831Y-115613000D02*
G01*
X144226831Y-114519524D01*
X144432899Y-114519524D01*
X144432899Y-115613000D01*
X144226831Y-115613000D01*
G37*
G36*
X144301252Y-115613000D02*
G01*
X144301252Y-115414454D01*
X144959218Y-115414454D01*
X144959218Y-115613000D01*
X144301252Y-115613000D01*
G37*
G36*
X144301252Y-115169430D02*
G01*
X144301252Y-114970885D01*
X144876468Y-114970885D01*
X144876468Y-115169430D01*
X144301252Y-115169430D01*
G37*
G36*
X144301252Y-114718069D02*
G01*
X144301252Y-114519524D01*
X144959218Y-114519524D01*
X144959218Y-114718069D01*
X144301252Y-114718069D01*
G37*
G36*
X145324068Y-115613000D02*
G01*
X145324068Y-114609259D01*
X145530136Y-114609259D01*
X145530136Y-115613000D01*
X145324068Y-115613000D01*
G37*
G36*
X145026385Y-114718069D02*
G01*
X145026385Y-114519524D01*
X145828087Y-114519524D01*
X145828087Y-114718069D01*
X145026385Y-114718069D01*
G37*
D12*
X130716981Y-101396264D02*
X131424088Y-100689158D01*
X131424088Y-100689158D02*
X131592447Y-100857516D01*
X131592447Y-100857516D02*
X131659790Y-100992203D01*
X131659790Y-100992203D02*
X131659790Y-101126890D01*
X131659790Y-101126890D02*
X131626118Y-101227906D01*
X131626118Y-101227906D02*
X131525103Y-101396264D01*
X131525103Y-101396264D02*
X131424088Y-101497280D01*
X131424088Y-101497280D02*
X131255729Y-101598295D01*
X131255729Y-101598295D02*
X131154714Y-101631967D01*
X131154714Y-101631967D02*
X131020027Y-101631967D01*
X131020027Y-101631967D02*
X130885340Y-101564623D01*
X130885340Y-101564623D02*
X130716981Y-101396264D01*
X132434240Y-101699310D02*
X132299553Y-101564623D01*
X132299553Y-101564623D02*
X132198538Y-101530951D01*
X132198538Y-101530951D02*
X132131195Y-101530951D01*
X132131195Y-101530951D02*
X131962836Y-101564623D01*
X131962836Y-101564623D02*
X131794477Y-101665638D01*
X131794477Y-101665638D02*
X131525103Y-101935012D01*
X131525103Y-101935012D02*
X131491431Y-102036028D01*
X131491431Y-102036028D02*
X131491431Y-102103371D01*
X131491431Y-102103371D02*
X131525103Y-102204386D01*
X131525103Y-102204386D02*
X131659790Y-102339073D01*
X131659790Y-102339073D02*
X131760805Y-102372745D01*
X131760805Y-102372745D02*
X131828149Y-102372745D01*
X131828149Y-102372745D02*
X131929164Y-102339073D01*
X131929164Y-102339073D02*
X132097523Y-102170715D01*
X132097523Y-102170715D02*
X132131195Y-102069699D01*
X132131195Y-102069699D02*
X132131195Y-102002356D01*
X132131195Y-102002356D02*
X132097523Y-101901341D01*
X132097523Y-101901341D02*
X131962836Y-101766654D01*
X131962836Y-101766654D02*
X131861821Y-101732982D01*
X131861821Y-101732982D02*
X131794477Y-101732982D01*
X131794477Y-101732982D02*
X131693462Y-101766654D01*
X179804819Y-107233333D02*
X180519104Y-107233333D01*
X180519104Y-107233333D02*
X180661961Y-107280952D01*
X180661961Y-107280952D02*
X180757200Y-107376190D01*
X180757200Y-107376190D02*
X180804819Y-107519047D01*
X180804819Y-107519047D02*
X180804819Y-107614285D01*
X179804819Y-106280952D02*
X179804819Y-106757142D01*
X179804819Y-106757142D02*
X180281009Y-106804761D01*
X180281009Y-106804761D02*
X180233390Y-106757142D01*
X180233390Y-106757142D02*
X180185771Y-106661904D01*
X180185771Y-106661904D02*
X180185771Y-106423809D01*
X180185771Y-106423809D02*
X180233390Y-106328571D01*
X180233390Y-106328571D02*
X180281009Y-106280952D01*
X180281009Y-106280952D02*
X180376247Y-106233333D01*
X180376247Y-106233333D02*
X180614342Y-106233333D01*
X180614342Y-106233333D02*
X180709580Y-106280952D01*
X180709580Y-106280952D02*
X180757200Y-106328571D01*
X180757200Y-106328571D02*
X180804819Y-106423809D01*
X180804819Y-106423809D02*
X180804819Y-106661904D01*
X180804819Y-106661904D02*
X180757200Y-106757142D01*
X180757200Y-106757142D02*
X180709580Y-106804761D01*
X137804819Y-120066666D02*
X137328628Y-120399999D01*
X137804819Y-120638094D02*
X136804819Y-120638094D01*
X136804819Y-120638094D02*
X136804819Y-120257142D01*
X136804819Y-120257142D02*
X136852438Y-120161904D01*
X136852438Y-120161904D02*
X136900057Y-120114285D01*
X136900057Y-120114285D02*
X136995295Y-120066666D01*
X136995295Y-120066666D02*
X137138152Y-120066666D01*
X137138152Y-120066666D02*
X137233390Y-120114285D01*
X137233390Y-120114285D02*
X137281009Y-120161904D01*
X137281009Y-120161904D02*
X137328628Y-120257142D01*
X137328628Y-120257142D02*
X137328628Y-120638094D01*
X137138152Y-119209523D02*
X137804819Y-119209523D01*
X136757200Y-119447618D02*
X137471485Y-119685713D01*
X137471485Y-119685713D02*
X137471485Y-119066666D01*
D13*
X139363842Y-112193333D02*
X139424318Y-112011904D01*
X139424318Y-112011904D02*
X139424318Y-111709523D01*
X139424318Y-111709523D02*
X139363842Y-111588571D01*
X139363842Y-111588571D02*
X139303365Y-111528095D01*
X139303365Y-111528095D02*
X139182413Y-111467618D01*
X139182413Y-111467618D02*
X139061461Y-111467618D01*
X139061461Y-111467618D02*
X138940508Y-111528095D01*
X138940508Y-111528095D02*
X138880032Y-111588571D01*
X138880032Y-111588571D02*
X138819556Y-111709523D01*
X138819556Y-111709523D02*
X138759080Y-111951428D01*
X138759080Y-111951428D02*
X138698603Y-112072380D01*
X138698603Y-112072380D02*
X138638127Y-112132857D01*
X138638127Y-112132857D02*
X138517175Y-112193333D01*
X138517175Y-112193333D02*
X138396222Y-112193333D01*
X138396222Y-112193333D02*
X138275270Y-112132857D01*
X138275270Y-112132857D02*
X138214794Y-112072380D01*
X138214794Y-112072380D02*
X138154318Y-111951428D01*
X138154318Y-111951428D02*
X138154318Y-111649047D01*
X138154318Y-111649047D02*
X138214794Y-111467618D01*
X138154318Y-111044285D02*
X139424318Y-110741904D01*
X139424318Y-110741904D02*
X138517175Y-110499999D01*
X138517175Y-110499999D02*
X139424318Y-110258094D01*
X139424318Y-110258094D02*
X138154318Y-109955714D01*
X138154318Y-108867142D02*
X138154318Y-109471904D01*
X138154318Y-109471904D02*
X138759080Y-109532380D01*
X138759080Y-109532380D02*
X138698603Y-109471904D01*
X138698603Y-109471904D02*
X138638127Y-109350951D01*
X138638127Y-109350951D02*
X138638127Y-109048570D01*
X138638127Y-109048570D02*
X138698603Y-108927618D01*
X138698603Y-108927618D02*
X138759080Y-108867142D01*
X138759080Y-108867142D02*
X138880032Y-108806665D01*
X138880032Y-108806665D02*
X139182413Y-108806665D01*
X139182413Y-108806665D02*
X139303365Y-108867142D01*
X139303365Y-108867142D02*
X139363842Y-108927618D01*
X139363842Y-108927618D02*
X139424318Y-109048570D01*
X139424318Y-109048570D02*
X139424318Y-109350951D01*
X139424318Y-109350951D02*
X139363842Y-109471904D01*
X139363842Y-109471904D02*
X139303365Y-109532380D01*
D12*
X185166666Y-89354819D02*
X185166666Y-90069104D01*
X185166666Y-90069104D02*
X185119047Y-90211961D01*
X185119047Y-90211961D02*
X185023809Y-90307200D01*
X185023809Y-90307200D02*
X184880952Y-90354819D01*
X184880952Y-90354819D02*
X184785714Y-90354819D01*
X186166666Y-90354819D02*
X185595238Y-90354819D01*
X185880952Y-90354819D02*
X185880952Y-89354819D01*
X185880952Y-89354819D02*
X185785714Y-89497676D01*
X185785714Y-89497676D02*
X185690476Y-89592914D01*
X185690476Y-89592914D02*
X185595238Y-89640533D01*
X164883333Y-101354819D02*
X164550000Y-100878628D01*
X164311905Y-101354819D02*
X164311905Y-100354819D01*
X164311905Y-100354819D02*
X164692857Y-100354819D01*
X164692857Y-100354819D02*
X164788095Y-100402438D01*
X164788095Y-100402438D02*
X164835714Y-100450057D01*
X164835714Y-100450057D02*
X164883333Y-100545295D01*
X164883333Y-100545295D02*
X164883333Y-100688152D01*
X164883333Y-100688152D02*
X164835714Y-100783390D01*
X164835714Y-100783390D02*
X164788095Y-100831009D01*
X164788095Y-100831009D02*
X164692857Y-100878628D01*
X164692857Y-100878628D02*
X164311905Y-100878628D01*
X165835714Y-101354819D02*
X165264286Y-101354819D01*
X165550000Y-101354819D02*
X165550000Y-100354819D01*
X165550000Y-100354819D02*
X165454762Y-100497676D01*
X165454762Y-100497676D02*
X165359524Y-100592914D01*
X165359524Y-100592914D02*
X165264286Y-100640533D01*
X179804819Y-120733333D02*
X180519104Y-120733333D01*
X180519104Y-120733333D02*
X180661961Y-120780952D01*
X180661961Y-120780952D02*
X180757200Y-120876190D01*
X180757200Y-120876190D02*
X180804819Y-121019047D01*
X180804819Y-121019047D02*
X180804819Y-121114285D01*
X179900057Y-120304761D02*
X179852438Y-120257142D01*
X179852438Y-120257142D02*
X179804819Y-120161904D01*
X179804819Y-120161904D02*
X179804819Y-119923809D01*
X179804819Y-119923809D02*
X179852438Y-119828571D01*
X179852438Y-119828571D02*
X179900057Y-119780952D01*
X179900057Y-119780952D02*
X179995295Y-119733333D01*
X179995295Y-119733333D02*
X180090533Y-119733333D01*
X180090533Y-119733333D02*
X180233390Y-119780952D01*
X180233390Y-119780952D02*
X180804819Y-120352380D01*
X180804819Y-120352380D02*
X180804819Y-119733333D01*
X145361754Y-93920891D02*
X145361754Y-93988235D01*
X145361754Y-93988235D02*
X145294410Y-94122922D01*
X145294410Y-94122922D02*
X145227067Y-94190265D01*
X145227067Y-94190265D02*
X145092380Y-94257609D01*
X145092380Y-94257609D02*
X144957693Y-94257609D01*
X144957693Y-94257609D02*
X144856678Y-94223937D01*
X144856678Y-94223937D02*
X144688319Y-94122922D01*
X144688319Y-94122922D02*
X144587304Y-94021907D01*
X144587304Y-94021907D02*
X144486288Y-93853548D01*
X144486288Y-93853548D02*
X144452617Y-93752533D01*
X144452617Y-93752533D02*
X144452617Y-93617846D01*
X144452617Y-93617846D02*
X144519960Y-93483159D01*
X144519960Y-93483159D02*
X144587304Y-93415815D01*
X144587304Y-93415815D02*
X144721991Y-93348472D01*
X144721991Y-93348472D02*
X144789334Y-93348472D01*
X145058708Y-93079098D02*
X145058708Y-93011754D01*
X145058708Y-93011754D02*
X145092380Y-92910739D01*
X145092380Y-92910739D02*
X145260739Y-92742380D01*
X145260739Y-92742380D02*
X145361754Y-92708708D01*
X145361754Y-92708708D02*
X145429097Y-92708708D01*
X145429097Y-92708708D02*
X145530113Y-92742380D01*
X145530113Y-92742380D02*
X145597456Y-92809724D01*
X145597456Y-92809724D02*
X145664800Y-92944411D01*
X145664800Y-92944411D02*
X145664800Y-93752533D01*
X145664800Y-93752533D02*
X146102532Y-93314800D01*
X146775968Y-92641365D02*
X146371907Y-93045426D01*
X146573937Y-92843395D02*
X145866830Y-92136288D01*
X145866830Y-92136288D02*
X145900502Y-92304647D01*
X145900502Y-92304647D02*
X145900502Y-92439334D01*
X145900502Y-92439334D02*
X145866830Y-92540349D01*
X121507142Y-77254819D02*
X121173809Y-76778628D01*
X120935714Y-77254819D02*
X120935714Y-76254819D01*
X120935714Y-76254819D02*
X121316666Y-76254819D01*
X121316666Y-76254819D02*
X121411904Y-76302438D01*
X121411904Y-76302438D02*
X121459523Y-76350057D01*
X121459523Y-76350057D02*
X121507142Y-76445295D01*
X121507142Y-76445295D02*
X121507142Y-76588152D01*
X121507142Y-76588152D02*
X121459523Y-76683390D01*
X121459523Y-76683390D02*
X121411904Y-76731009D01*
X121411904Y-76731009D02*
X121316666Y-76778628D01*
X121316666Y-76778628D02*
X120935714Y-76778628D01*
X122459523Y-77254819D02*
X121888095Y-77254819D01*
X122173809Y-77254819D02*
X122173809Y-76254819D01*
X122173809Y-76254819D02*
X122078571Y-76397676D01*
X122078571Y-76397676D02*
X121983333Y-76492914D01*
X121983333Y-76492914D02*
X121888095Y-76540533D01*
X123364285Y-76254819D02*
X122888095Y-76254819D01*
X122888095Y-76254819D02*
X122840476Y-76731009D01*
X122840476Y-76731009D02*
X122888095Y-76683390D01*
X122888095Y-76683390D02*
X122983333Y-76635771D01*
X122983333Y-76635771D02*
X123221428Y-76635771D01*
X123221428Y-76635771D02*
X123316666Y-76683390D01*
X123316666Y-76683390D02*
X123364285Y-76731009D01*
X123364285Y-76731009D02*
X123411904Y-76826247D01*
X123411904Y-76826247D02*
X123411904Y-77064342D01*
X123411904Y-77064342D02*
X123364285Y-77159580D01*
X123364285Y-77159580D02*
X123316666Y-77207200D01*
X123316666Y-77207200D02*
X123221428Y-77254819D01*
X123221428Y-77254819D02*
X122983333Y-77254819D01*
X122983333Y-77254819D02*
X122888095Y-77207200D01*
X122888095Y-77207200D02*
X122840476Y-77159580D01*
X132388095Y-83454819D02*
X132388095Y-84264342D01*
X132388095Y-84264342D02*
X132435714Y-84359580D01*
X132435714Y-84359580D02*
X132483333Y-84407200D01*
X132483333Y-84407200D02*
X132578571Y-84454819D01*
X132578571Y-84454819D02*
X132769047Y-84454819D01*
X132769047Y-84454819D02*
X132864285Y-84407200D01*
X132864285Y-84407200D02*
X132911904Y-84359580D01*
X132911904Y-84359580D02*
X132959523Y-84264342D01*
X132959523Y-84264342D02*
X132959523Y-83454819D01*
X133959523Y-84454819D02*
X133388095Y-84454819D01*
X133673809Y-84454819D02*
X133673809Y-83454819D01*
X133673809Y-83454819D02*
X133578571Y-83597676D01*
X133578571Y-83597676D02*
X133483333Y-83692914D01*
X133483333Y-83692914D02*
X133388095Y-83740533D01*
X160937632Y-86096769D02*
X160937632Y-86164113D01*
X160937632Y-86164113D02*
X160870288Y-86298800D01*
X160870288Y-86298800D02*
X160802945Y-86366143D01*
X160802945Y-86366143D02*
X160668258Y-86433487D01*
X160668258Y-86433487D02*
X160533571Y-86433487D01*
X160533571Y-86433487D02*
X160432556Y-86399815D01*
X160432556Y-86399815D02*
X160264197Y-86298800D01*
X160264197Y-86298800D02*
X160163182Y-86197785D01*
X160163182Y-86197785D02*
X160062166Y-86029426D01*
X160062166Y-86029426D02*
X160028495Y-85928411D01*
X160028495Y-85928411D02*
X160028495Y-85793724D01*
X160028495Y-85793724D02*
X160095838Y-85659037D01*
X160095838Y-85659037D02*
X160163182Y-85591693D01*
X160163182Y-85591693D02*
X160297869Y-85524350D01*
X160297869Y-85524350D02*
X160365212Y-85524350D01*
X160634586Y-85254976D02*
X160634586Y-85187632D01*
X160634586Y-85187632D02*
X160668258Y-85086617D01*
X160668258Y-85086617D02*
X160836617Y-84918258D01*
X160836617Y-84918258D02*
X160937632Y-84884586D01*
X160937632Y-84884586D02*
X161004975Y-84884586D01*
X161004975Y-84884586D02*
X161105991Y-84918258D01*
X161105991Y-84918258D02*
X161173334Y-84985602D01*
X161173334Y-84985602D02*
X161240678Y-85120289D01*
X161240678Y-85120289D02*
X161240678Y-85928411D01*
X161240678Y-85928411D02*
X161678410Y-85490678D01*
X161409037Y-84345838D02*
X161476380Y-84278495D01*
X161476380Y-84278495D02*
X161577395Y-84244823D01*
X161577395Y-84244823D02*
X161644739Y-84244823D01*
X161644739Y-84244823D02*
X161745754Y-84278495D01*
X161745754Y-84278495D02*
X161914113Y-84379510D01*
X161914113Y-84379510D02*
X162082472Y-84547869D01*
X162082472Y-84547869D02*
X162183487Y-84716227D01*
X162183487Y-84716227D02*
X162217159Y-84817243D01*
X162217159Y-84817243D02*
X162217159Y-84884586D01*
X162217159Y-84884586D02*
X162183487Y-84985601D01*
X162183487Y-84985601D02*
X162116143Y-85052945D01*
X162116143Y-85052945D02*
X162015128Y-85086617D01*
X162015128Y-85086617D02*
X161947785Y-85086617D01*
X161947785Y-85086617D02*
X161846769Y-85052945D01*
X161846769Y-85052945D02*
X161678411Y-84951930D01*
X161678411Y-84951930D02*
X161510052Y-84783571D01*
X161510052Y-84783571D02*
X161409037Y-84615212D01*
X161409037Y-84615212D02*
X161375365Y-84514197D01*
X161375365Y-84514197D02*
X161375365Y-84446853D01*
X161375365Y-84446853D02*
X161409037Y-84345838D01*
X166179819Y-120066666D02*
X165703628Y-120399999D01*
X166179819Y-120638094D02*
X165179819Y-120638094D01*
X165179819Y-120638094D02*
X165179819Y-120257142D01*
X165179819Y-120257142D02*
X165227438Y-120161904D01*
X165227438Y-120161904D02*
X165275057Y-120114285D01*
X165275057Y-120114285D02*
X165370295Y-120066666D01*
X165370295Y-120066666D02*
X165513152Y-120066666D01*
X165513152Y-120066666D02*
X165608390Y-120114285D01*
X165608390Y-120114285D02*
X165656009Y-120161904D01*
X165656009Y-120161904D02*
X165703628Y-120257142D01*
X165703628Y-120257142D02*
X165703628Y-120638094D01*
X165179819Y-119209523D02*
X165179819Y-119399999D01*
X165179819Y-119399999D02*
X165227438Y-119495237D01*
X165227438Y-119495237D02*
X165275057Y-119542856D01*
X165275057Y-119542856D02*
X165417914Y-119638094D01*
X165417914Y-119638094D02*
X165608390Y-119685713D01*
X165608390Y-119685713D02*
X165989342Y-119685713D01*
X165989342Y-119685713D02*
X166084580Y-119638094D01*
X166084580Y-119638094D02*
X166132200Y-119590475D01*
X166132200Y-119590475D02*
X166179819Y-119495237D01*
X166179819Y-119495237D02*
X166179819Y-119304761D01*
X166179819Y-119304761D02*
X166132200Y-119209523D01*
X166132200Y-119209523D02*
X166084580Y-119161904D01*
X166084580Y-119161904D02*
X165989342Y-119114285D01*
X165989342Y-119114285D02*
X165751247Y-119114285D01*
X165751247Y-119114285D02*
X165656009Y-119161904D01*
X165656009Y-119161904D02*
X165608390Y-119209523D01*
X165608390Y-119209523D02*
X165560771Y-119304761D01*
X165560771Y-119304761D02*
X165560771Y-119495237D01*
X165560771Y-119495237D02*
X165608390Y-119590475D01*
X165608390Y-119590475D02*
X165656009Y-119638094D01*
X165656009Y-119638094D02*
X165751247Y-119685713D01*
X138341667Y-122407200D02*
X138484524Y-122454819D01*
X138484524Y-122454819D02*
X138722619Y-122454819D01*
X138722619Y-122454819D02*
X138817857Y-122407200D01*
X138817857Y-122407200D02*
X138865476Y-122359580D01*
X138865476Y-122359580D02*
X138913095Y-122264342D01*
X138913095Y-122264342D02*
X138913095Y-122169104D01*
X138913095Y-122169104D02*
X138865476Y-122073866D01*
X138865476Y-122073866D02*
X138817857Y-122026247D01*
X138817857Y-122026247D02*
X138722619Y-121978628D01*
X138722619Y-121978628D02*
X138532143Y-121931009D01*
X138532143Y-121931009D02*
X138436905Y-121883390D01*
X138436905Y-121883390D02*
X138389286Y-121835771D01*
X138389286Y-121835771D02*
X138341667Y-121740533D01*
X138341667Y-121740533D02*
X138341667Y-121645295D01*
X138341667Y-121645295D02*
X138389286Y-121550057D01*
X138389286Y-121550057D02*
X138436905Y-121502438D01*
X138436905Y-121502438D02*
X138532143Y-121454819D01*
X138532143Y-121454819D02*
X138770238Y-121454819D01*
X138770238Y-121454819D02*
X138913095Y-121502438D01*
X139246429Y-121454819D02*
X139484524Y-122454819D01*
X139484524Y-122454819D02*
X139675000Y-121740533D01*
X139675000Y-121740533D02*
X139865476Y-122454819D01*
X139865476Y-122454819D02*
X140103572Y-121454819D01*
X141008333Y-122454819D02*
X140436905Y-122454819D01*
X140722619Y-122454819D02*
X140722619Y-121454819D01*
X140722619Y-121454819D02*
X140627381Y-121597676D01*
X140627381Y-121597676D02*
X140532143Y-121692914D01*
X140532143Y-121692914D02*
X140436905Y-121740533D01*
X141509580Y-92842857D02*
X141557200Y-92890476D01*
X141557200Y-92890476D02*
X141604819Y-93033333D01*
X141604819Y-93033333D02*
X141604819Y-93128571D01*
X141604819Y-93128571D02*
X141557200Y-93271428D01*
X141557200Y-93271428D02*
X141461961Y-93366666D01*
X141461961Y-93366666D02*
X141366723Y-93414285D01*
X141366723Y-93414285D02*
X141176247Y-93461904D01*
X141176247Y-93461904D02*
X141033390Y-93461904D01*
X141033390Y-93461904D02*
X140842914Y-93414285D01*
X140842914Y-93414285D02*
X140747676Y-93366666D01*
X140747676Y-93366666D02*
X140652438Y-93271428D01*
X140652438Y-93271428D02*
X140604819Y-93128571D01*
X140604819Y-93128571D02*
X140604819Y-93033333D01*
X140604819Y-93033333D02*
X140652438Y-92890476D01*
X140652438Y-92890476D02*
X140700057Y-92842857D01*
X140604819Y-92509523D02*
X140604819Y-91890476D01*
X140604819Y-91890476D02*
X140985771Y-92223809D01*
X140985771Y-92223809D02*
X140985771Y-92080952D01*
X140985771Y-92080952D02*
X141033390Y-91985714D01*
X141033390Y-91985714D02*
X141081009Y-91938095D01*
X141081009Y-91938095D02*
X141176247Y-91890476D01*
X141176247Y-91890476D02*
X141414342Y-91890476D01*
X141414342Y-91890476D02*
X141509580Y-91938095D01*
X141509580Y-91938095D02*
X141557200Y-91985714D01*
X141557200Y-91985714D02*
X141604819Y-92080952D01*
X141604819Y-92080952D02*
X141604819Y-92366666D01*
X141604819Y-92366666D02*
X141557200Y-92461904D01*
X141557200Y-92461904D02*
X141509580Y-92509523D01*
X141604819Y-90938095D02*
X141604819Y-91509523D01*
X141604819Y-91223809D02*
X140604819Y-91223809D01*
X140604819Y-91223809D02*
X140747676Y-91319047D01*
X140747676Y-91319047D02*
X140842914Y-91414285D01*
X140842914Y-91414285D02*
X140890533Y-91509523D01*
X164183333Y-104859580D02*
X164135714Y-104907200D01*
X164135714Y-104907200D02*
X163992857Y-104954819D01*
X163992857Y-104954819D02*
X163897619Y-104954819D01*
X163897619Y-104954819D02*
X163754762Y-104907200D01*
X163754762Y-104907200D02*
X163659524Y-104811961D01*
X163659524Y-104811961D02*
X163611905Y-104716723D01*
X163611905Y-104716723D02*
X163564286Y-104526247D01*
X163564286Y-104526247D02*
X163564286Y-104383390D01*
X163564286Y-104383390D02*
X163611905Y-104192914D01*
X163611905Y-104192914D02*
X163659524Y-104097676D01*
X163659524Y-104097676D02*
X163754762Y-104002438D01*
X163754762Y-104002438D02*
X163897619Y-103954819D01*
X163897619Y-103954819D02*
X163992857Y-103954819D01*
X163992857Y-103954819D02*
X164135714Y-104002438D01*
X164135714Y-104002438D02*
X164183333Y-104050057D01*
X164564286Y-104050057D02*
X164611905Y-104002438D01*
X164611905Y-104002438D02*
X164707143Y-103954819D01*
X164707143Y-103954819D02*
X164945238Y-103954819D01*
X164945238Y-103954819D02*
X165040476Y-104002438D01*
X165040476Y-104002438D02*
X165088095Y-104050057D01*
X165088095Y-104050057D02*
X165135714Y-104145295D01*
X165135714Y-104145295D02*
X165135714Y-104240533D01*
X165135714Y-104240533D02*
X165088095Y-104383390D01*
X165088095Y-104383390D02*
X164516667Y-104954819D01*
X164516667Y-104954819D02*
X165135714Y-104954819D01*
X140341168Y-99099693D02*
X140273824Y-99099693D01*
X140273824Y-99099693D02*
X140139137Y-99032349D01*
X140139137Y-99032349D02*
X140071794Y-98965006D01*
X140071794Y-98965006D02*
X140004450Y-98830319D01*
X140004450Y-98830319D02*
X140004450Y-98695632D01*
X140004450Y-98695632D02*
X140038122Y-98594617D01*
X140038122Y-98594617D02*
X140139137Y-98426258D01*
X140139137Y-98426258D02*
X140240152Y-98325243D01*
X140240152Y-98325243D02*
X140408511Y-98224227D01*
X140408511Y-98224227D02*
X140509526Y-98190556D01*
X140509526Y-98190556D02*
X140644213Y-98190556D01*
X140644213Y-98190556D02*
X140778900Y-98257899D01*
X140778900Y-98257899D02*
X140846244Y-98325243D01*
X140846244Y-98325243D02*
X140913587Y-98459930D01*
X140913587Y-98459930D02*
X140913587Y-98527273D01*
X141182961Y-98796647D02*
X141250305Y-98796647D01*
X141250305Y-98796647D02*
X141351320Y-98830319D01*
X141351320Y-98830319D02*
X141519679Y-98998678D01*
X141519679Y-98998678D02*
X141553351Y-99099693D01*
X141553351Y-99099693D02*
X141553351Y-99167036D01*
X141553351Y-99167036D02*
X141519679Y-99268052D01*
X141519679Y-99268052D02*
X141452335Y-99335395D01*
X141452335Y-99335395D02*
X141317648Y-99402739D01*
X141317648Y-99402739D02*
X140509526Y-99402739D01*
X140509526Y-99402739D02*
X140947259Y-99840471D01*
X142260458Y-99739456D02*
X142125771Y-99604769D01*
X142125771Y-99604769D02*
X142024755Y-99571098D01*
X142024755Y-99571098D02*
X141957412Y-99571098D01*
X141957412Y-99571098D02*
X141789053Y-99604769D01*
X141789053Y-99604769D02*
X141620694Y-99705785D01*
X141620694Y-99705785D02*
X141351320Y-99975159D01*
X141351320Y-99975159D02*
X141317649Y-100076174D01*
X141317649Y-100076174D02*
X141317649Y-100143517D01*
X141317649Y-100143517D02*
X141351320Y-100244533D01*
X141351320Y-100244533D02*
X141486007Y-100379220D01*
X141486007Y-100379220D02*
X141587023Y-100412891D01*
X141587023Y-100412891D02*
X141654366Y-100412891D01*
X141654366Y-100412891D02*
X141755381Y-100379220D01*
X141755381Y-100379220D02*
X141923740Y-100210861D01*
X141923740Y-100210861D02*
X141957412Y-100109846D01*
X141957412Y-100109846D02*
X141957412Y-100042502D01*
X141957412Y-100042502D02*
X141923740Y-99941487D01*
X141923740Y-99941487D02*
X141789053Y-99806800D01*
X141789053Y-99806800D02*
X141688038Y-99773128D01*
X141688038Y-99773128D02*
X141620694Y-99773128D01*
X141620694Y-99773128D02*
X141519679Y-99806800D01*
X177888095Y-81354819D02*
X177888095Y-82164342D01*
X177888095Y-82164342D02*
X177935714Y-82259580D01*
X177935714Y-82259580D02*
X177983333Y-82307200D01*
X177983333Y-82307200D02*
X178078571Y-82354819D01*
X178078571Y-82354819D02*
X178269047Y-82354819D01*
X178269047Y-82354819D02*
X178364285Y-82307200D01*
X178364285Y-82307200D02*
X178411904Y-82259580D01*
X178411904Y-82259580D02*
X178459523Y-82164342D01*
X178459523Y-82164342D02*
X178459523Y-81354819D01*
X178983333Y-82354819D02*
X179173809Y-82354819D01*
X179173809Y-82354819D02*
X179269047Y-82307200D01*
X179269047Y-82307200D02*
X179316666Y-82259580D01*
X179316666Y-82259580D02*
X179411904Y-82116723D01*
X179411904Y-82116723D02*
X179459523Y-81926247D01*
X179459523Y-81926247D02*
X179459523Y-81545295D01*
X179459523Y-81545295D02*
X179411904Y-81450057D01*
X179411904Y-81450057D02*
X179364285Y-81402438D01*
X179364285Y-81402438D02*
X179269047Y-81354819D01*
X179269047Y-81354819D02*
X179078571Y-81354819D01*
X179078571Y-81354819D02*
X178983333Y-81402438D01*
X178983333Y-81402438D02*
X178935714Y-81450057D01*
X178935714Y-81450057D02*
X178888095Y-81545295D01*
X178888095Y-81545295D02*
X178888095Y-81783390D01*
X178888095Y-81783390D02*
X178935714Y-81878628D01*
X178935714Y-81878628D02*
X178983333Y-81926247D01*
X178983333Y-81926247D02*
X179078571Y-81973866D01*
X179078571Y-81973866D02*
X179269047Y-81973866D01*
X179269047Y-81973866D02*
X179364285Y-81926247D01*
X179364285Y-81926247D02*
X179411904Y-81878628D01*
X179411904Y-81878628D02*
X179459523Y-81783390D01*
X151428394Y-104948170D02*
X151091676Y-105284888D01*
X151563081Y-104342079D02*
X151428394Y-104948170D01*
X151428394Y-104948170D02*
X152034485Y-104813483D01*
X151933470Y-106126681D02*
X151529409Y-105722620D01*
X151731440Y-105924651D02*
X152438546Y-105217544D01*
X152438546Y-105217544D02*
X152270188Y-105251216D01*
X152270188Y-105251216D02*
X152135501Y-105251216D01*
X152135501Y-105251216D02*
X152034485Y-105217544D01*
X128583333Y-107104819D02*
X128250000Y-106628628D01*
X128011905Y-107104819D02*
X128011905Y-106104819D01*
X128011905Y-106104819D02*
X128392857Y-106104819D01*
X128392857Y-106104819D02*
X128488095Y-106152438D01*
X128488095Y-106152438D02*
X128535714Y-106200057D01*
X128535714Y-106200057D02*
X128583333Y-106295295D01*
X128583333Y-106295295D02*
X128583333Y-106438152D01*
X128583333Y-106438152D02*
X128535714Y-106533390D01*
X128535714Y-106533390D02*
X128488095Y-106581009D01*
X128488095Y-106581009D02*
X128392857Y-106628628D01*
X128392857Y-106628628D02*
X128011905Y-106628628D01*
X129154762Y-106533390D02*
X129059524Y-106485771D01*
X129059524Y-106485771D02*
X129011905Y-106438152D01*
X129011905Y-106438152D02*
X128964286Y-106342914D01*
X128964286Y-106342914D02*
X128964286Y-106295295D01*
X128964286Y-106295295D02*
X129011905Y-106200057D01*
X129011905Y-106200057D02*
X129059524Y-106152438D01*
X129059524Y-106152438D02*
X129154762Y-106104819D01*
X129154762Y-106104819D02*
X129345238Y-106104819D01*
X129345238Y-106104819D02*
X129440476Y-106152438D01*
X129440476Y-106152438D02*
X129488095Y-106200057D01*
X129488095Y-106200057D02*
X129535714Y-106295295D01*
X129535714Y-106295295D02*
X129535714Y-106342914D01*
X129535714Y-106342914D02*
X129488095Y-106438152D01*
X129488095Y-106438152D02*
X129440476Y-106485771D01*
X129440476Y-106485771D02*
X129345238Y-106533390D01*
X129345238Y-106533390D02*
X129154762Y-106533390D01*
X129154762Y-106533390D02*
X129059524Y-106581009D01*
X129059524Y-106581009D02*
X129011905Y-106628628D01*
X129011905Y-106628628D02*
X128964286Y-106723866D01*
X128964286Y-106723866D02*
X128964286Y-106914342D01*
X128964286Y-106914342D02*
X129011905Y-107009580D01*
X129011905Y-107009580D02*
X129059524Y-107057200D01*
X129059524Y-107057200D02*
X129154762Y-107104819D01*
X129154762Y-107104819D02*
X129345238Y-107104819D01*
X129345238Y-107104819D02*
X129440476Y-107057200D01*
X129440476Y-107057200D02*
X129488095Y-107009580D01*
X129488095Y-107009580D02*
X129535714Y-106914342D01*
X129535714Y-106914342D02*
X129535714Y-106723866D01*
X129535714Y-106723866D02*
X129488095Y-106628628D01*
X129488095Y-106628628D02*
X129440476Y-106581009D01*
X129440476Y-106581009D02*
X129345238Y-106533390D01*
X179183333Y-106459580D02*
X179135714Y-106507200D01*
X179135714Y-106507200D02*
X178992857Y-106554819D01*
X178992857Y-106554819D02*
X178897619Y-106554819D01*
X178897619Y-106554819D02*
X178754762Y-106507200D01*
X178754762Y-106507200D02*
X178659524Y-106411961D01*
X178659524Y-106411961D02*
X178611905Y-106316723D01*
X178611905Y-106316723D02*
X178564286Y-106126247D01*
X178564286Y-106126247D02*
X178564286Y-105983390D01*
X178564286Y-105983390D02*
X178611905Y-105792914D01*
X178611905Y-105792914D02*
X178659524Y-105697676D01*
X178659524Y-105697676D02*
X178754762Y-105602438D01*
X178754762Y-105602438D02*
X178897619Y-105554819D01*
X178897619Y-105554819D02*
X178992857Y-105554819D01*
X178992857Y-105554819D02*
X179135714Y-105602438D01*
X179135714Y-105602438D02*
X179183333Y-105650057D01*
X180040476Y-105888152D02*
X180040476Y-106554819D01*
X179802381Y-105507200D02*
X179564286Y-106221485D01*
X179564286Y-106221485D02*
X180183333Y-106221485D01*
X169611905Y-101554819D02*
X169611905Y-102364342D01*
X169611905Y-102364342D02*
X169659524Y-102459580D01*
X169659524Y-102459580D02*
X169707143Y-102507200D01*
X169707143Y-102507200D02*
X169802381Y-102554819D01*
X169802381Y-102554819D02*
X169992857Y-102554819D01*
X169992857Y-102554819D02*
X170088095Y-102507200D01*
X170088095Y-102507200D02*
X170135714Y-102459580D01*
X170135714Y-102459580D02*
X170183333Y-102364342D01*
X170183333Y-102364342D02*
X170183333Y-101554819D01*
X171183333Y-102554819D02*
X170611905Y-102554819D01*
X170897619Y-102554819D02*
X170897619Y-101554819D01*
X170897619Y-101554819D02*
X170802381Y-101697676D01*
X170802381Y-101697676D02*
X170707143Y-101792914D01*
X170707143Y-101792914D02*
X170611905Y-101840533D01*
X171802381Y-101554819D02*
X171897619Y-101554819D01*
X171897619Y-101554819D02*
X171992857Y-101602438D01*
X171992857Y-101602438D02*
X172040476Y-101650057D01*
X172040476Y-101650057D02*
X172088095Y-101745295D01*
X172088095Y-101745295D02*
X172135714Y-101935771D01*
X172135714Y-101935771D02*
X172135714Y-102173866D01*
X172135714Y-102173866D02*
X172088095Y-102364342D01*
X172088095Y-102364342D02*
X172040476Y-102459580D01*
X172040476Y-102459580D02*
X171992857Y-102507200D01*
X171992857Y-102507200D02*
X171897619Y-102554819D01*
X171897619Y-102554819D02*
X171802381Y-102554819D01*
X171802381Y-102554819D02*
X171707143Y-102507200D01*
X171707143Y-102507200D02*
X171659524Y-102459580D01*
X171659524Y-102459580D02*
X171611905Y-102364342D01*
X171611905Y-102364342D02*
X171564286Y-102173866D01*
X171564286Y-102173866D02*
X171564286Y-101935771D01*
X171564286Y-101935771D02*
X171611905Y-101745295D01*
X171611905Y-101745295D02*
X171659524Y-101650057D01*
X171659524Y-101650057D02*
X171707143Y-101602438D01*
X171707143Y-101602438D02*
X171802381Y-101554819D01*
X188340476Y-79954819D02*
X188340476Y-80669104D01*
X188340476Y-80669104D02*
X188292857Y-80811961D01*
X188292857Y-80811961D02*
X188197619Y-80907200D01*
X188197619Y-80907200D02*
X188054762Y-80954819D01*
X188054762Y-80954819D02*
X187959524Y-80954819D01*
X189340476Y-80954819D02*
X188769048Y-80954819D01*
X189054762Y-80954819D02*
X189054762Y-79954819D01*
X189054762Y-79954819D02*
X188959524Y-80097676D01*
X188959524Y-80097676D02*
X188864286Y-80192914D01*
X188864286Y-80192914D02*
X188769048Y-80240533D01*
X189673810Y-79954819D02*
X190340476Y-79954819D01*
X190340476Y-79954819D02*
X189911905Y-80954819D01*
X167707142Y-94279580D02*
X167659523Y-94327200D01*
X167659523Y-94327200D02*
X167516666Y-94374819D01*
X167516666Y-94374819D02*
X167421428Y-94374819D01*
X167421428Y-94374819D02*
X167278571Y-94327200D01*
X167278571Y-94327200D02*
X167183333Y-94231961D01*
X167183333Y-94231961D02*
X167135714Y-94136723D01*
X167135714Y-94136723D02*
X167088095Y-93946247D01*
X167088095Y-93946247D02*
X167088095Y-93803390D01*
X167088095Y-93803390D02*
X167135714Y-93612914D01*
X167135714Y-93612914D02*
X167183333Y-93517676D01*
X167183333Y-93517676D02*
X167278571Y-93422438D01*
X167278571Y-93422438D02*
X167421428Y-93374819D01*
X167421428Y-93374819D02*
X167516666Y-93374819D01*
X167516666Y-93374819D02*
X167659523Y-93422438D01*
X167659523Y-93422438D02*
X167707142Y-93470057D01*
X168088095Y-93470057D02*
X168135714Y-93422438D01*
X168135714Y-93422438D02*
X168230952Y-93374819D01*
X168230952Y-93374819D02*
X168469047Y-93374819D01*
X168469047Y-93374819D02*
X168564285Y-93422438D01*
X168564285Y-93422438D02*
X168611904Y-93470057D01*
X168611904Y-93470057D02*
X168659523Y-93565295D01*
X168659523Y-93565295D02*
X168659523Y-93660533D01*
X168659523Y-93660533D02*
X168611904Y-93803390D01*
X168611904Y-93803390D02*
X168040476Y-94374819D01*
X168040476Y-94374819D02*
X168659523Y-94374819D01*
X169230952Y-93803390D02*
X169135714Y-93755771D01*
X169135714Y-93755771D02*
X169088095Y-93708152D01*
X169088095Y-93708152D02*
X169040476Y-93612914D01*
X169040476Y-93612914D02*
X169040476Y-93565295D01*
X169040476Y-93565295D02*
X169088095Y-93470057D01*
X169088095Y-93470057D02*
X169135714Y-93422438D01*
X169135714Y-93422438D02*
X169230952Y-93374819D01*
X169230952Y-93374819D02*
X169421428Y-93374819D01*
X169421428Y-93374819D02*
X169516666Y-93422438D01*
X169516666Y-93422438D02*
X169564285Y-93470057D01*
X169564285Y-93470057D02*
X169611904Y-93565295D01*
X169611904Y-93565295D02*
X169611904Y-93612914D01*
X169611904Y-93612914D02*
X169564285Y-93708152D01*
X169564285Y-93708152D02*
X169516666Y-93755771D01*
X169516666Y-93755771D02*
X169421428Y-93803390D01*
X169421428Y-93803390D02*
X169230952Y-93803390D01*
X169230952Y-93803390D02*
X169135714Y-93851009D01*
X169135714Y-93851009D02*
X169088095Y-93898628D01*
X169088095Y-93898628D02*
X169040476Y-93993866D01*
X169040476Y-93993866D02*
X169040476Y-94184342D01*
X169040476Y-94184342D02*
X169088095Y-94279580D01*
X169088095Y-94279580D02*
X169135714Y-94327200D01*
X169135714Y-94327200D02*
X169230952Y-94374819D01*
X169230952Y-94374819D02*
X169421428Y-94374819D01*
X169421428Y-94374819D02*
X169516666Y-94327200D01*
X169516666Y-94327200D02*
X169564285Y-94279580D01*
X169564285Y-94279580D02*
X169611904Y-94184342D01*
X169611904Y-94184342D02*
X169611904Y-93993866D01*
X169611904Y-93993866D02*
X169564285Y-93898628D01*
X169564285Y-93898628D02*
X169516666Y-93851009D01*
X169516666Y-93851009D02*
X169421428Y-93803390D01*
X132454819Y-95042857D02*
X131978628Y-95376190D01*
X132454819Y-95614285D02*
X131454819Y-95614285D01*
X131454819Y-95614285D02*
X131454819Y-95233333D01*
X131454819Y-95233333D02*
X131502438Y-95138095D01*
X131502438Y-95138095D02*
X131550057Y-95090476D01*
X131550057Y-95090476D02*
X131645295Y-95042857D01*
X131645295Y-95042857D02*
X131788152Y-95042857D01*
X131788152Y-95042857D02*
X131883390Y-95090476D01*
X131883390Y-95090476D02*
X131931009Y-95138095D01*
X131931009Y-95138095D02*
X131978628Y-95233333D01*
X131978628Y-95233333D02*
X131978628Y-95614285D01*
X132454819Y-94090476D02*
X132454819Y-94661904D01*
X132454819Y-94376190D02*
X131454819Y-94376190D01*
X131454819Y-94376190D02*
X131597676Y-94471428D01*
X131597676Y-94471428D02*
X131692914Y-94566666D01*
X131692914Y-94566666D02*
X131740533Y-94661904D01*
X131550057Y-93709523D02*
X131502438Y-93661904D01*
X131502438Y-93661904D02*
X131454819Y-93566666D01*
X131454819Y-93566666D02*
X131454819Y-93328571D01*
X131454819Y-93328571D02*
X131502438Y-93233333D01*
X131502438Y-93233333D02*
X131550057Y-93185714D01*
X131550057Y-93185714D02*
X131645295Y-93138095D01*
X131645295Y-93138095D02*
X131740533Y-93138095D01*
X131740533Y-93138095D02*
X131883390Y-93185714D01*
X131883390Y-93185714D02*
X132454819Y-93757142D01*
X132454819Y-93757142D02*
X132454819Y-93138095D01*
X156779819Y-120066666D02*
X156303628Y-120399999D01*
X156779819Y-120638094D02*
X155779819Y-120638094D01*
X155779819Y-120638094D02*
X155779819Y-120257142D01*
X155779819Y-120257142D02*
X155827438Y-120161904D01*
X155827438Y-120161904D02*
X155875057Y-120114285D01*
X155875057Y-120114285D02*
X155970295Y-120066666D01*
X155970295Y-120066666D02*
X156113152Y-120066666D01*
X156113152Y-120066666D02*
X156208390Y-120114285D01*
X156208390Y-120114285D02*
X156256009Y-120161904D01*
X156256009Y-120161904D02*
X156303628Y-120257142D01*
X156303628Y-120257142D02*
X156303628Y-120638094D01*
X155779819Y-119161904D02*
X155779819Y-119638094D01*
X155779819Y-119638094D02*
X156256009Y-119685713D01*
X156256009Y-119685713D02*
X156208390Y-119638094D01*
X156208390Y-119638094D02*
X156160771Y-119542856D01*
X156160771Y-119542856D02*
X156160771Y-119304761D01*
X156160771Y-119304761D02*
X156208390Y-119209523D01*
X156208390Y-119209523D02*
X156256009Y-119161904D01*
X156256009Y-119161904D02*
X156351247Y-119114285D01*
X156351247Y-119114285D02*
X156589342Y-119114285D01*
X156589342Y-119114285D02*
X156684580Y-119161904D01*
X156684580Y-119161904D02*
X156732200Y-119209523D01*
X156732200Y-119209523D02*
X156779819Y-119304761D01*
X156779819Y-119304761D02*
X156779819Y-119542856D01*
X156779819Y-119542856D02*
X156732200Y-119638094D01*
X156732200Y-119638094D02*
X156684580Y-119685713D01*
X137716666Y-98731009D02*
X137383333Y-98731009D01*
X137383333Y-99254819D02*
X137383333Y-98254819D01*
X137383333Y-98254819D02*
X137859523Y-98254819D01*
X138764285Y-99254819D02*
X138192857Y-99254819D01*
X138478571Y-99254819D02*
X138478571Y-98254819D01*
X138478571Y-98254819D02*
X138383333Y-98397676D01*
X138383333Y-98397676D02*
X138288095Y-98492914D01*
X138288095Y-98492914D02*
X138192857Y-98540533D01*
X128107142Y-125104819D02*
X127773809Y-124628628D01*
X127535714Y-125104819D02*
X127535714Y-124104819D01*
X127535714Y-124104819D02*
X127916666Y-124104819D01*
X127916666Y-124104819D02*
X128011904Y-124152438D01*
X128011904Y-124152438D02*
X128059523Y-124200057D01*
X128059523Y-124200057D02*
X128107142Y-124295295D01*
X128107142Y-124295295D02*
X128107142Y-124438152D01*
X128107142Y-124438152D02*
X128059523Y-124533390D01*
X128059523Y-124533390D02*
X128011904Y-124581009D01*
X128011904Y-124581009D02*
X127916666Y-124628628D01*
X127916666Y-124628628D02*
X127535714Y-124628628D01*
X129059523Y-125104819D02*
X128488095Y-125104819D01*
X128773809Y-125104819D02*
X128773809Y-124104819D01*
X128773809Y-124104819D02*
X128678571Y-124247676D01*
X128678571Y-124247676D02*
X128583333Y-124342914D01*
X128583333Y-124342914D02*
X128488095Y-124390533D01*
X130011904Y-125104819D02*
X129440476Y-125104819D01*
X129726190Y-125104819D02*
X129726190Y-124104819D01*
X129726190Y-124104819D02*
X129630952Y-124247676D01*
X129630952Y-124247676D02*
X129535714Y-124342914D01*
X129535714Y-124342914D02*
X129440476Y-124390533D01*
X140954819Y-103442857D02*
X140478628Y-103776190D01*
X140954819Y-104014285D02*
X139954819Y-104014285D01*
X139954819Y-104014285D02*
X139954819Y-103633333D01*
X139954819Y-103633333D02*
X140002438Y-103538095D01*
X140002438Y-103538095D02*
X140050057Y-103490476D01*
X140050057Y-103490476D02*
X140145295Y-103442857D01*
X140145295Y-103442857D02*
X140288152Y-103442857D01*
X140288152Y-103442857D02*
X140383390Y-103490476D01*
X140383390Y-103490476D02*
X140431009Y-103538095D01*
X140431009Y-103538095D02*
X140478628Y-103633333D01*
X140478628Y-103633333D02*
X140478628Y-104014285D01*
X140954819Y-102490476D02*
X140954819Y-103061904D01*
X140954819Y-102776190D02*
X139954819Y-102776190D01*
X139954819Y-102776190D02*
X140097676Y-102871428D01*
X140097676Y-102871428D02*
X140192914Y-102966666D01*
X140192914Y-102966666D02*
X140240533Y-103061904D01*
X140954819Y-102014285D02*
X140954819Y-101823809D01*
X140954819Y-101823809D02*
X140907200Y-101728571D01*
X140907200Y-101728571D02*
X140859580Y-101680952D01*
X140859580Y-101680952D02*
X140716723Y-101585714D01*
X140716723Y-101585714D02*
X140526247Y-101538095D01*
X140526247Y-101538095D02*
X140145295Y-101538095D01*
X140145295Y-101538095D02*
X140050057Y-101585714D01*
X140050057Y-101585714D02*
X140002438Y-101633333D01*
X140002438Y-101633333D02*
X139954819Y-101728571D01*
X139954819Y-101728571D02*
X139954819Y-101919047D01*
X139954819Y-101919047D02*
X140002438Y-102014285D01*
X140002438Y-102014285D02*
X140050057Y-102061904D01*
X140050057Y-102061904D02*
X140145295Y-102109523D01*
X140145295Y-102109523D02*
X140383390Y-102109523D01*
X140383390Y-102109523D02*
X140478628Y-102061904D01*
X140478628Y-102061904D02*
X140526247Y-102014285D01*
X140526247Y-102014285D02*
X140573866Y-101919047D01*
X140573866Y-101919047D02*
X140573866Y-101728571D01*
X140573866Y-101728571D02*
X140526247Y-101633333D01*
X140526247Y-101633333D02*
X140478628Y-101585714D01*
X140478628Y-101585714D02*
X140383390Y-101538095D01*
X152329108Y-99611754D02*
X152261764Y-99611754D01*
X152261764Y-99611754D02*
X152127077Y-99544410D01*
X152127077Y-99544410D02*
X152059734Y-99477067D01*
X152059734Y-99477067D02*
X151992390Y-99342380D01*
X151992390Y-99342380D02*
X151992390Y-99207693D01*
X151992390Y-99207693D02*
X152026062Y-99106678D01*
X152026062Y-99106678D02*
X152127077Y-98938319D01*
X152127077Y-98938319D02*
X152228092Y-98837304D01*
X152228092Y-98837304D02*
X152396451Y-98736288D01*
X152396451Y-98736288D02*
X152497466Y-98702617D01*
X152497466Y-98702617D02*
X152632153Y-98702617D01*
X152632153Y-98702617D02*
X152766840Y-98769960D01*
X152766840Y-98769960D02*
X152834184Y-98837304D01*
X152834184Y-98837304D02*
X152901527Y-98971991D01*
X152901527Y-98971991D02*
X152901527Y-99039334D01*
X153170901Y-99308708D02*
X153238245Y-99308708D01*
X153238245Y-99308708D02*
X153339260Y-99342380D01*
X153339260Y-99342380D02*
X153507619Y-99510739D01*
X153507619Y-99510739D02*
X153541291Y-99611754D01*
X153541291Y-99611754D02*
X153541291Y-99679097D01*
X153541291Y-99679097D02*
X153507619Y-99780113D01*
X153507619Y-99780113D02*
X153440275Y-99847456D01*
X153440275Y-99847456D02*
X153305588Y-99914800D01*
X153305588Y-99914800D02*
X152497466Y-99914800D01*
X152497466Y-99914800D02*
X152935199Y-100352532D01*
X153878008Y-99881128D02*
X154349413Y-100352533D01*
X154349413Y-100352533D02*
X153339260Y-100756594D01*
X180989580Y-91742857D02*
X181037200Y-91790476D01*
X181037200Y-91790476D02*
X181084819Y-91933333D01*
X181084819Y-91933333D02*
X181084819Y-92028571D01*
X181084819Y-92028571D02*
X181037200Y-92171428D01*
X181037200Y-92171428D02*
X180941961Y-92266666D01*
X180941961Y-92266666D02*
X180846723Y-92314285D01*
X180846723Y-92314285D02*
X180656247Y-92361904D01*
X180656247Y-92361904D02*
X180513390Y-92361904D01*
X180513390Y-92361904D02*
X180322914Y-92314285D01*
X180322914Y-92314285D02*
X180227676Y-92266666D01*
X180227676Y-92266666D02*
X180132438Y-92171428D01*
X180132438Y-92171428D02*
X180084819Y-92028571D01*
X180084819Y-92028571D02*
X180084819Y-91933333D01*
X180084819Y-91933333D02*
X180132438Y-91790476D01*
X180132438Y-91790476D02*
X180180057Y-91742857D01*
X180180057Y-91361904D02*
X180132438Y-91314285D01*
X180132438Y-91314285D02*
X180084819Y-91219047D01*
X180084819Y-91219047D02*
X180084819Y-90980952D01*
X180084819Y-90980952D02*
X180132438Y-90885714D01*
X180132438Y-90885714D02*
X180180057Y-90838095D01*
X180180057Y-90838095D02*
X180275295Y-90790476D01*
X180275295Y-90790476D02*
X180370533Y-90790476D01*
X180370533Y-90790476D02*
X180513390Y-90838095D01*
X180513390Y-90838095D02*
X181084819Y-91409523D01*
X181084819Y-91409523D02*
X181084819Y-90790476D01*
X181084819Y-90314285D02*
X181084819Y-90123809D01*
X181084819Y-90123809D02*
X181037200Y-90028571D01*
X181037200Y-90028571D02*
X180989580Y-89980952D01*
X180989580Y-89980952D02*
X180846723Y-89885714D01*
X180846723Y-89885714D02*
X180656247Y-89838095D01*
X180656247Y-89838095D02*
X180275295Y-89838095D01*
X180275295Y-89838095D02*
X180180057Y-89885714D01*
X180180057Y-89885714D02*
X180132438Y-89933333D01*
X180132438Y-89933333D02*
X180084819Y-90028571D01*
X180084819Y-90028571D02*
X180084819Y-90219047D01*
X180084819Y-90219047D02*
X180132438Y-90314285D01*
X180132438Y-90314285D02*
X180180057Y-90361904D01*
X180180057Y-90361904D02*
X180275295Y-90409523D01*
X180275295Y-90409523D02*
X180513390Y-90409523D01*
X180513390Y-90409523D02*
X180608628Y-90361904D01*
X180608628Y-90361904D02*
X180656247Y-90314285D01*
X180656247Y-90314285D02*
X180703866Y-90219047D01*
X180703866Y-90219047D02*
X180703866Y-90028571D01*
X180703866Y-90028571D02*
X180656247Y-89933333D01*
X180656247Y-89933333D02*
X180608628Y-89885714D01*
X180608628Y-89885714D02*
X180513390Y-89838095D01*
X143009580Y-92842857D02*
X143057200Y-92890476D01*
X143057200Y-92890476D02*
X143104819Y-93033333D01*
X143104819Y-93033333D02*
X143104819Y-93128571D01*
X143104819Y-93128571D02*
X143057200Y-93271428D01*
X143057200Y-93271428D02*
X142961961Y-93366666D01*
X142961961Y-93366666D02*
X142866723Y-93414285D01*
X142866723Y-93414285D02*
X142676247Y-93461904D01*
X142676247Y-93461904D02*
X142533390Y-93461904D01*
X142533390Y-93461904D02*
X142342914Y-93414285D01*
X142342914Y-93414285D02*
X142247676Y-93366666D01*
X142247676Y-93366666D02*
X142152438Y-93271428D01*
X142152438Y-93271428D02*
X142104819Y-93128571D01*
X142104819Y-93128571D02*
X142104819Y-93033333D01*
X142104819Y-93033333D02*
X142152438Y-92890476D01*
X142152438Y-92890476D02*
X142200057Y-92842857D01*
X142104819Y-92509523D02*
X142104819Y-91890476D01*
X142104819Y-91890476D02*
X142485771Y-92223809D01*
X142485771Y-92223809D02*
X142485771Y-92080952D01*
X142485771Y-92080952D02*
X142533390Y-91985714D01*
X142533390Y-91985714D02*
X142581009Y-91938095D01*
X142581009Y-91938095D02*
X142676247Y-91890476D01*
X142676247Y-91890476D02*
X142914342Y-91890476D01*
X142914342Y-91890476D02*
X143009580Y-91938095D01*
X143009580Y-91938095D02*
X143057200Y-91985714D01*
X143057200Y-91985714D02*
X143104819Y-92080952D01*
X143104819Y-92080952D02*
X143104819Y-92366666D01*
X143104819Y-92366666D02*
X143057200Y-92461904D01*
X143057200Y-92461904D02*
X143009580Y-92509523D01*
X142104819Y-91271428D02*
X142104819Y-91176190D01*
X142104819Y-91176190D02*
X142152438Y-91080952D01*
X142152438Y-91080952D02*
X142200057Y-91033333D01*
X142200057Y-91033333D02*
X142295295Y-90985714D01*
X142295295Y-90985714D02*
X142485771Y-90938095D01*
X142485771Y-90938095D02*
X142723866Y-90938095D01*
X142723866Y-90938095D02*
X142914342Y-90985714D01*
X142914342Y-90985714D02*
X143009580Y-91033333D01*
X143009580Y-91033333D02*
X143057200Y-91080952D01*
X143057200Y-91080952D02*
X143104819Y-91176190D01*
X143104819Y-91176190D02*
X143104819Y-91271428D01*
X143104819Y-91271428D02*
X143057200Y-91366666D01*
X143057200Y-91366666D02*
X143009580Y-91414285D01*
X143009580Y-91414285D02*
X142914342Y-91461904D01*
X142914342Y-91461904D02*
X142723866Y-91509523D01*
X142723866Y-91509523D02*
X142485771Y-91509523D01*
X142485771Y-91509523D02*
X142295295Y-91461904D01*
X142295295Y-91461904D02*
X142200057Y-91414285D01*
X142200057Y-91414285D02*
X142152438Y-91366666D01*
X142152438Y-91366666D02*
X142104819Y-91271428D01*
X174373809Y-98378628D02*
X174373809Y-98854819D01*
X174040476Y-97854819D02*
X174373809Y-98378628D01*
X174373809Y-98378628D02*
X174707142Y-97854819D01*
X174992857Y-97950057D02*
X175040476Y-97902438D01*
X175040476Y-97902438D02*
X175135714Y-97854819D01*
X175135714Y-97854819D02*
X175373809Y-97854819D01*
X175373809Y-97854819D02*
X175469047Y-97902438D01*
X175469047Y-97902438D02*
X175516666Y-97950057D01*
X175516666Y-97950057D02*
X175564285Y-98045295D01*
X175564285Y-98045295D02*
X175564285Y-98140533D01*
X175564285Y-98140533D02*
X175516666Y-98283390D01*
X175516666Y-98283390D02*
X174945238Y-98854819D01*
X174945238Y-98854819D02*
X175564285Y-98854819D01*
X128583333Y-116104819D02*
X128250000Y-115628628D01*
X128011905Y-116104819D02*
X128011905Y-115104819D01*
X128011905Y-115104819D02*
X128392857Y-115104819D01*
X128392857Y-115104819D02*
X128488095Y-115152438D01*
X128488095Y-115152438D02*
X128535714Y-115200057D01*
X128535714Y-115200057D02*
X128583333Y-115295295D01*
X128583333Y-115295295D02*
X128583333Y-115438152D01*
X128583333Y-115438152D02*
X128535714Y-115533390D01*
X128535714Y-115533390D02*
X128488095Y-115581009D01*
X128488095Y-115581009D02*
X128392857Y-115628628D01*
X128392857Y-115628628D02*
X128011905Y-115628628D01*
X129059524Y-116104819D02*
X129250000Y-116104819D01*
X129250000Y-116104819D02*
X129345238Y-116057200D01*
X129345238Y-116057200D02*
X129392857Y-116009580D01*
X129392857Y-116009580D02*
X129488095Y-115866723D01*
X129488095Y-115866723D02*
X129535714Y-115676247D01*
X129535714Y-115676247D02*
X129535714Y-115295295D01*
X129535714Y-115295295D02*
X129488095Y-115200057D01*
X129488095Y-115200057D02*
X129440476Y-115152438D01*
X129440476Y-115152438D02*
X129345238Y-115104819D01*
X129345238Y-115104819D02*
X129154762Y-115104819D01*
X129154762Y-115104819D02*
X129059524Y-115152438D01*
X129059524Y-115152438D02*
X129011905Y-115200057D01*
X129011905Y-115200057D02*
X128964286Y-115295295D01*
X128964286Y-115295295D02*
X128964286Y-115533390D01*
X128964286Y-115533390D02*
X129011905Y-115628628D01*
X129011905Y-115628628D02*
X129059524Y-115676247D01*
X129059524Y-115676247D02*
X129154762Y-115723866D01*
X129154762Y-115723866D02*
X129345238Y-115723866D01*
X129345238Y-115723866D02*
X129440476Y-115676247D01*
X129440476Y-115676247D02*
X129488095Y-115628628D01*
X129488095Y-115628628D02*
X129535714Y-115533390D01*
X176683333Y-106554819D02*
X176350000Y-106078628D01*
X176111905Y-106554819D02*
X176111905Y-105554819D01*
X176111905Y-105554819D02*
X176492857Y-105554819D01*
X176492857Y-105554819D02*
X176588095Y-105602438D01*
X176588095Y-105602438D02*
X176635714Y-105650057D01*
X176635714Y-105650057D02*
X176683333Y-105745295D01*
X176683333Y-105745295D02*
X176683333Y-105888152D01*
X176683333Y-105888152D02*
X176635714Y-105983390D01*
X176635714Y-105983390D02*
X176588095Y-106031009D01*
X176588095Y-106031009D02*
X176492857Y-106078628D01*
X176492857Y-106078628D02*
X176111905Y-106078628D01*
X177016667Y-105554819D02*
X177635714Y-105554819D01*
X177635714Y-105554819D02*
X177302381Y-105935771D01*
X177302381Y-105935771D02*
X177445238Y-105935771D01*
X177445238Y-105935771D02*
X177540476Y-105983390D01*
X177540476Y-105983390D02*
X177588095Y-106031009D01*
X177588095Y-106031009D02*
X177635714Y-106126247D01*
X177635714Y-106126247D02*
X177635714Y-106364342D01*
X177635714Y-106364342D02*
X177588095Y-106459580D01*
X177588095Y-106459580D02*
X177540476Y-106507200D01*
X177540476Y-106507200D02*
X177445238Y-106554819D01*
X177445238Y-106554819D02*
X177159524Y-106554819D01*
X177159524Y-106554819D02*
X177064286Y-106507200D01*
X177064286Y-106507200D02*
X177016667Y-106459580D01*
X123207142Y-84254819D02*
X122873809Y-83778628D01*
X122635714Y-84254819D02*
X122635714Y-83254819D01*
X122635714Y-83254819D02*
X123016666Y-83254819D01*
X123016666Y-83254819D02*
X123111904Y-83302438D01*
X123111904Y-83302438D02*
X123159523Y-83350057D01*
X123159523Y-83350057D02*
X123207142Y-83445295D01*
X123207142Y-83445295D02*
X123207142Y-83588152D01*
X123207142Y-83588152D02*
X123159523Y-83683390D01*
X123159523Y-83683390D02*
X123111904Y-83731009D01*
X123111904Y-83731009D02*
X123016666Y-83778628D01*
X123016666Y-83778628D02*
X122635714Y-83778628D01*
X124159523Y-84254819D02*
X123588095Y-84254819D01*
X123873809Y-84254819D02*
X123873809Y-83254819D01*
X123873809Y-83254819D02*
X123778571Y-83397676D01*
X123778571Y-83397676D02*
X123683333Y-83492914D01*
X123683333Y-83492914D02*
X123588095Y-83540533D01*
X124492857Y-83254819D02*
X125111904Y-83254819D01*
X125111904Y-83254819D02*
X124778571Y-83635771D01*
X124778571Y-83635771D02*
X124921428Y-83635771D01*
X124921428Y-83635771D02*
X125016666Y-83683390D01*
X125016666Y-83683390D02*
X125064285Y-83731009D01*
X125064285Y-83731009D02*
X125111904Y-83826247D01*
X125111904Y-83826247D02*
X125111904Y-84064342D01*
X125111904Y-84064342D02*
X125064285Y-84159580D01*
X125064285Y-84159580D02*
X125016666Y-84207200D01*
X125016666Y-84207200D02*
X124921428Y-84254819D01*
X124921428Y-84254819D02*
X124635714Y-84254819D01*
X124635714Y-84254819D02*
X124540476Y-84207200D01*
X124540476Y-84207200D02*
X124492857Y-84159580D01*
X164683333Y-81059580D02*
X164635714Y-81107200D01*
X164635714Y-81107200D02*
X164492857Y-81154819D01*
X164492857Y-81154819D02*
X164397619Y-81154819D01*
X164397619Y-81154819D02*
X164254762Y-81107200D01*
X164254762Y-81107200D02*
X164159524Y-81011961D01*
X164159524Y-81011961D02*
X164111905Y-80916723D01*
X164111905Y-80916723D02*
X164064286Y-80726247D01*
X164064286Y-80726247D02*
X164064286Y-80583390D01*
X164064286Y-80583390D02*
X164111905Y-80392914D01*
X164111905Y-80392914D02*
X164159524Y-80297676D01*
X164159524Y-80297676D02*
X164254762Y-80202438D01*
X164254762Y-80202438D02*
X164397619Y-80154819D01*
X164397619Y-80154819D02*
X164492857Y-80154819D01*
X164492857Y-80154819D02*
X164635714Y-80202438D01*
X164635714Y-80202438D02*
X164683333Y-80250057D01*
X165635714Y-81154819D02*
X165064286Y-81154819D01*
X165350000Y-81154819D02*
X165350000Y-80154819D01*
X165350000Y-80154819D02*
X165254762Y-80297676D01*
X165254762Y-80297676D02*
X165159524Y-80392914D01*
X165159524Y-80392914D02*
X165064286Y-80440533D01*
X118107142Y-84254819D02*
X117773809Y-83778628D01*
X117535714Y-84254819D02*
X117535714Y-83254819D01*
X117535714Y-83254819D02*
X117916666Y-83254819D01*
X117916666Y-83254819D02*
X118011904Y-83302438D01*
X118011904Y-83302438D02*
X118059523Y-83350057D01*
X118059523Y-83350057D02*
X118107142Y-83445295D01*
X118107142Y-83445295D02*
X118107142Y-83588152D01*
X118107142Y-83588152D02*
X118059523Y-83683390D01*
X118059523Y-83683390D02*
X118011904Y-83731009D01*
X118011904Y-83731009D02*
X117916666Y-83778628D01*
X117916666Y-83778628D02*
X117535714Y-83778628D01*
X119059523Y-84254819D02*
X118488095Y-84254819D01*
X118773809Y-84254819D02*
X118773809Y-83254819D01*
X118773809Y-83254819D02*
X118678571Y-83397676D01*
X118678571Y-83397676D02*
X118583333Y-83492914D01*
X118583333Y-83492914D02*
X118488095Y-83540533D01*
X119678571Y-83254819D02*
X119773809Y-83254819D01*
X119773809Y-83254819D02*
X119869047Y-83302438D01*
X119869047Y-83302438D02*
X119916666Y-83350057D01*
X119916666Y-83350057D02*
X119964285Y-83445295D01*
X119964285Y-83445295D02*
X120011904Y-83635771D01*
X120011904Y-83635771D02*
X120011904Y-83873866D01*
X120011904Y-83873866D02*
X119964285Y-84064342D01*
X119964285Y-84064342D02*
X119916666Y-84159580D01*
X119916666Y-84159580D02*
X119869047Y-84207200D01*
X119869047Y-84207200D02*
X119773809Y-84254819D01*
X119773809Y-84254819D02*
X119678571Y-84254819D01*
X119678571Y-84254819D02*
X119583333Y-84207200D01*
X119583333Y-84207200D02*
X119535714Y-84159580D01*
X119535714Y-84159580D02*
X119488095Y-84064342D01*
X119488095Y-84064342D02*
X119440476Y-83873866D01*
X119440476Y-83873866D02*
X119440476Y-83635771D01*
X119440476Y-83635771D02*
X119488095Y-83445295D01*
X119488095Y-83445295D02*
X119535714Y-83350057D01*
X119535714Y-83350057D02*
X119583333Y-83302438D01*
X119583333Y-83302438D02*
X119678571Y-83254819D01*
X177454819Y-122838094D02*
X176454819Y-122838094D01*
X176454819Y-122838094D02*
X176454819Y-122599999D01*
X176454819Y-122599999D02*
X176502438Y-122457142D01*
X176502438Y-122457142D02*
X176597676Y-122361904D01*
X176597676Y-122361904D02*
X176692914Y-122314285D01*
X176692914Y-122314285D02*
X176883390Y-122266666D01*
X176883390Y-122266666D02*
X177026247Y-122266666D01*
X177026247Y-122266666D02*
X177216723Y-122314285D01*
X177216723Y-122314285D02*
X177311961Y-122361904D01*
X177311961Y-122361904D02*
X177407200Y-122457142D01*
X177407200Y-122457142D02*
X177454819Y-122599999D01*
X177454819Y-122599999D02*
X177454819Y-122838094D01*
X176454819Y-121361904D02*
X176454819Y-121838094D01*
X176454819Y-121838094D02*
X176931009Y-121885713D01*
X176931009Y-121885713D02*
X176883390Y-121838094D01*
X176883390Y-121838094D02*
X176835771Y-121742856D01*
X176835771Y-121742856D02*
X176835771Y-121504761D01*
X176835771Y-121504761D02*
X176883390Y-121409523D01*
X176883390Y-121409523D02*
X176931009Y-121361904D01*
X176931009Y-121361904D02*
X177026247Y-121314285D01*
X177026247Y-121314285D02*
X177264342Y-121314285D01*
X177264342Y-121314285D02*
X177359580Y-121361904D01*
X177359580Y-121361904D02*
X177407200Y-121409523D01*
X177407200Y-121409523D02*
X177454819Y-121504761D01*
X177454819Y-121504761D02*
X177454819Y-121742856D01*
X177454819Y-121742856D02*
X177407200Y-121838094D01*
X177407200Y-121838094D02*
X177359580Y-121885713D01*
X166641667Y-122407200D02*
X166784524Y-122454819D01*
X166784524Y-122454819D02*
X167022619Y-122454819D01*
X167022619Y-122454819D02*
X167117857Y-122407200D01*
X167117857Y-122407200D02*
X167165476Y-122359580D01*
X167165476Y-122359580D02*
X167213095Y-122264342D01*
X167213095Y-122264342D02*
X167213095Y-122169104D01*
X167213095Y-122169104D02*
X167165476Y-122073866D01*
X167165476Y-122073866D02*
X167117857Y-122026247D01*
X167117857Y-122026247D02*
X167022619Y-121978628D01*
X167022619Y-121978628D02*
X166832143Y-121931009D01*
X166832143Y-121931009D02*
X166736905Y-121883390D01*
X166736905Y-121883390D02*
X166689286Y-121835771D01*
X166689286Y-121835771D02*
X166641667Y-121740533D01*
X166641667Y-121740533D02*
X166641667Y-121645295D01*
X166641667Y-121645295D02*
X166689286Y-121550057D01*
X166689286Y-121550057D02*
X166736905Y-121502438D01*
X166736905Y-121502438D02*
X166832143Y-121454819D01*
X166832143Y-121454819D02*
X167070238Y-121454819D01*
X167070238Y-121454819D02*
X167213095Y-121502438D01*
X167546429Y-121454819D02*
X167784524Y-122454819D01*
X167784524Y-122454819D02*
X167975000Y-121740533D01*
X167975000Y-121740533D02*
X168165476Y-122454819D01*
X168165476Y-122454819D02*
X168403572Y-121454819D01*
X169213095Y-121788152D02*
X169213095Y-122454819D01*
X168975000Y-121407200D02*
X168736905Y-122121485D01*
X168736905Y-122121485D02*
X169355952Y-122121485D01*
X179183333Y-100859580D02*
X179135714Y-100907200D01*
X179135714Y-100907200D02*
X178992857Y-100954819D01*
X178992857Y-100954819D02*
X178897619Y-100954819D01*
X178897619Y-100954819D02*
X178754762Y-100907200D01*
X178754762Y-100907200D02*
X178659524Y-100811961D01*
X178659524Y-100811961D02*
X178611905Y-100716723D01*
X178611905Y-100716723D02*
X178564286Y-100526247D01*
X178564286Y-100526247D02*
X178564286Y-100383390D01*
X178564286Y-100383390D02*
X178611905Y-100192914D01*
X178611905Y-100192914D02*
X178659524Y-100097676D01*
X178659524Y-100097676D02*
X178754762Y-100002438D01*
X178754762Y-100002438D02*
X178897619Y-99954819D01*
X178897619Y-99954819D02*
X178992857Y-99954819D01*
X178992857Y-99954819D02*
X179135714Y-100002438D01*
X179135714Y-100002438D02*
X179183333Y-100050057D01*
X179516667Y-99954819D02*
X180135714Y-99954819D01*
X180135714Y-99954819D02*
X179802381Y-100335771D01*
X179802381Y-100335771D02*
X179945238Y-100335771D01*
X179945238Y-100335771D02*
X180040476Y-100383390D01*
X180040476Y-100383390D02*
X180088095Y-100431009D01*
X180088095Y-100431009D02*
X180135714Y-100526247D01*
X180135714Y-100526247D02*
X180135714Y-100764342D01*
X180135714Y-100764342D02*
X180088095Y-100859580D01*
X180088095Y-100859580D02*
X180040476Y-100907200D01*
X180040476Y-100907200D02*
X179945238Y-100954819D01*
X179945238Y-100954819D02*
X179659524Y-100954819D01*
X179659524Y-100954819D02*
X179564286Y-100907200D01*
X179564286Y-100907200D02*
X179516667Y-100859580D01*
X176683333Y-100954819D02*
X176350000Y-100478628D01*
X176111905Y-100954819D02*
X176111905Y-99954819D01*
X176111905Y-99954819D02*
X176492857Y-99954819D01*
X176492857Y-99954819D02*
X176588095Y-100002438D01*
X176588095Y-100002438D02*
X176635714Y-100050057D01*
X176635714Y-100050057D02*
X176683333Y-100145295D01*
X176683333Y-100145295D02*
X176683333Y-100288152D01*
X176683333Y-100288152D02*
X176635714Y-100383390D01*
X176635714Y-100383390D02*
X176588095Y-100431009D01*
X176588095Y-100431009D02*
X176492857Y-100478628D01*
X176492857Y-100478628D02*
X176111905Y-100478628D01*
X177064286Y-100050057D02*
X177111905Y-100002438D01*
X177111905Y-100002438D02*
X177207143Y-99954819D01*
X177207143Y-99954819D02*
X177445238Y-99954819D01*
X177445238Y-99954819D02*
X177540476Y-100002438D01*
X177540476Y-100002438D02*
X177588095Y-100050057D01*
X177588095Y-100050057D02*
X177635714Y-100145295D01*
X177635714Y-100145295D02*
X177635714Y-100240533D01*
X177635714Y-100240533D02*
X177588095Y-100383390D01*
X177588095Y-100383390D02*
X177016667Y-100954819D01*
X177016667Y-100954819D02*
X177635714Y-100954819D01*
X126904819Y-95183333D02*
X127619104Y-95183333D01*
X127619104Y-95183333D02*
X127761961Y-95230952D01*
X127761961Y-95230952D02*
X127857200Y-95326190D01*
X127857200Y-95326190D02*
X127904819Y-95469047D01*
X127904819Y-95469047D02*
X127904819Y-95564285D01*
X126904819Y-94802380D02*
X126904819Y-94183333D01*
X126904819Y-94183333D02*
X127285771Y-94516666D01*
X127285771Y-94516666D02*
X127285771Y-94373809D01*
X127285771Y-94373809D02*
X127333390Y-94278571D01*
X127333390Y-94278571D02*
X127381009Y-94230952D01*
X127381009Y-94230952D02*
X127476247Y-94183333D01*
X127476247Y-94183333D02*
X127714342Y-94183333D01*
X127714342Y-94183333D02*
X127809580Y-94230952D01*
X127809580Y-94230952D02*
X127857200Y-94278571D01*
X127857200Y-94278571D02*
X127904819Y-94373809D01*
X127904819Y-94373809D02*
X127904819Y-94659523D01*
X127904819Y-94659523D02*
X127857200Y-94754761D01*
X127857200Y-94754761D02*
X127809580Y-94802380D01*
X157241667Y-122407200D02*
X157384524Y-122454819D01*
X157384524Y-122454819D02*
X157622619Y-122454819D01*
X157622619Y-122454819D02*
X157717857Y-122407200D01*
X157717857Y-122407200D02*
X157765476Y-122359580D01*
X157765476Y-122359580D02*
X157813095Y-122264342D01*
X157813095Y-122264342D02*
X157813095Y-122169104D01*
X157813095Y-122169104D02*
X157765476Y-122073866D01*
X157765476Y-122073866D02*
X157717857Y-122026247D01*
X157717857Y-122026247D02*
X157622619Y-121978628D01*
X157622619Y-121978628D02*
X157432143Y-121931009D01*
X157432143Y-121931009D02*
X157336905Y-121883390D01*
X157336905Y-121883390D02*
X157289286Y-121835771D01*
X157289286Y-121835771D02*
X157241667Y-121740533D01*
X157241667Y-121740533D02*
X157241667Y-121645295D01*
X157241667Y-121645295D02*
X157289286Y-121550057D01*
X157289286Y-121550057D02*
X157336905Y-121502438D01*
X157336905Y-121502438D02*
X157432143Y-121454819D01*
X157432143Y-121454819D02*
X157670238Y-121454819D01*
X157670238Y-121454819D02*
X157813095Y-121502438D01*
X158146429Y-121454819D02*
X158384524Y-122454819D01*
X158384524Y-122454819D02*
X158575000Y-121740533D01*
X158575000Y-121740533D02*
X158765476Y-122454819D01*
X158765476Y-122454819D02*
X159003572Y-121454819D01*
X159289286Y-121454819D02*
X159908333Y-121454819D01*
X159908333Y-121454819D02*
X159575000Y-121835771D01*
X159575000Y-121835771D02*
X159717857Y-121835771D01*
X159717857Y-121835771D02*
X159813095Y-121883390D01*
X159813095Y-121883390D02*
X159860714Y-121931009D01*
X159860714Y-121931009D02*
X159908333Y-122026247D01*
X159908333Y-122026247D02*
X159908333Y-122264342D01*
X159908333Y-122264342D02*
X159860714Y-122359580D01*
X159860714Y-122359580D02*
X159813095Y-122407200D01*
X159813095Y-122407200D02*
X159717857Y-122454819D01*
X159717857Y-122454819D02*
X159432143Y-122454819D01*
X159432143Y-122454819D02*
X159336905Y-122407200D01*
X159336905Y-122407200D02*
X159289286Y-122359580D01*
X149749693Y-98308830D02*
X149749693Y-98376174D01*
X149749693Y-98376174D02*
X149682349Y-98510861D01*
X149682349Y-98510861D02*
X149615006Y-98578204D01*
X149615006Y-98578204D02*
X149480319Y-98645548D01*
X149480319Y-98645548D02*
X149345632Y-98645548D01*
X149345632Y-98645548D02*
X149244617Y-98611876D01*
X149244617Y-98611876D02*
X149076258Y-98510861D01*
X149076258Y-98510861D02*
X148975243Y-98409846D01*
X148975243Y-98409846D02*
X148874227Y-98241487D01*
X148874227Y-98241487D02*
X148840556Y-98140472D01*
X148840556Y-98140472D02*
X148840556Y-98005785D01*
X148840556Y-98005785D02*
X148907899Y-97871098D01*
X148907899Y-97871098D02*
X148975243Y-97803754D01*
X148975243Y-97803754D02*
X149109930Y-97736411D01*
X149109930Y-97736411D02*
X149177273Y-97736411D01*
X149446647Y-97467037D02*
X149446647Y-97399693D01*
X149446647Y-97399693D02*
X149480319Y-97298678D01*
X149480319Y-97298678D02*
X149648678Y-97130319D01*
X149648678Y-97130319D02*
X149749693Y-97096647D01*
X149749693Y-97096647D02*
X149817036Y-97096647D01*
X149817036Y-97096647D02*
X149918052Y-97130319D01*
X149918052Y-97130319D02*
X149985395Y-97197663D01*
X149985395Y-97197663D02*
X150052739Y-97332350D01*
X150052739Y-97332350D02*
X150052739Y-98140472D01*
X150052739Y-98140472D02*
X150490471Y-97702739D01*
X150120082Y-96793601D02*
X150120082Y-96726258D01*
X150120082Y-96726258D02*
X150153754Y-96625243D01*
X150153754Y-96625243D02*
X150322113Y-96456884D01*
X150322113Y-96456884D02*
X150423128Y-96423212D01*
X150423128Y-96423212D02*
X150490472Y-96423212D01*
X150490472Y-96423212D02*
X150591487Y-96456884D01*
X150591487Y-96456884D02*
X150658830Y-96524227D01*
X150658830Y-96524227D02*
X150726174Y-96658914D01*
X150726174Y-96658914D02*
X150726174Y-97467036D01*
X150726174Y-97467036D02*
X151163907Y-97029304D01*
X147279819Y-120066666D02*
X146803628Y-120399999D01*
X147279819Y-120638094D02*
X146279819Y-120638094D01*
X146279819Y-120638094D02*
X146279819Y-120257142D01*
X146279819Y-120257142D02*
X146327438Y-120161904D01*
X146327438Y-120161904D02*
X146375057Y-120114285D01*
X146375057Y-120114285D02*
X146470295Y-120066666D01*
X146470295Y-120066666D02*
X146613152Y-120066666D01*
X146613152Y-120066666D02*
X146708390Y-120114285D01*
X146708390Y-120114285D02*
X146756009Y-120161904D01*
X146756009Y-120161904D02*
X146803628Y-120257142D01*
X146803628Y-120257142D02*
X146803628Y-120638094D01*
X146279819Y-119733332D02*
X146279819Y-119066666D01*
X146279819Y-119066666D02*
X147279819Y-119495237D01*
X176111905Y-113354819D02*
X176111905Y-112354819D01*
X176111905Y-112354819D02*
X176350000Y-112354819D01*
X176350000Y-112354819D02*
X176492857Y-112402438D01*
X176492857Y-112402438D02*
X176588095Y-112497676D01*
X176588095Y-112497676D02*
X176635714Y-112592914D01*
X176635714Y-112592914D02*
X176683333Y-112783390D01*
X176683333Y-112783390D02*
X176683333Y-112926247D01*
X176683333Y-112926247D02*
X176635714Y-113116723D01*
X176635714Y-113116723D02*
X176588095Y-113211961D01*
X176588095Y-113211961D02*
X176492857Y-113307200D01*
X176492857Y-113307200D02*
X176350000Y-113354819D01*
X176350000Y-113354819D02*
X176111905Y-113354819D01*
X177540476Y-112688152D02*
X177540476Y-113354819D01*
X177302381Y-112307200D02*
X177064286Y-113021485D01*
X177064286Y-113021485D02*
X177683333Y-113021485D01*
X147741667Y-122407200D02*
X147884524Y-122454819D01*
X147884524Y-122454819D02*
X148122619Y-122454819D01*
X148122619Y-122454819D02*
X148217857Y-122407200D01*
X148217857Y-122407200D02*
X148265476Y-122359580D01*
X148265476Y-122359580D02*
X148313095Y-122264342D01*
X148313095Y-122264342D02*
X148313095Y-122169104D01*
X148313095Y-122169104D02*
X148265476Y-122073866D01*
X148265476Y-122073866D02*
X148217857Y-122026247D01*
X148217857Y-122026247D02*
X148122619Y-121978628D01*
X148122619Y-121978628D02*
X147932143Y-121931009D01*
X147932143Y-121931009D02*
X147836905Y-121883390D01*
X147836905Y-121883390D02*
X147789286Y-121835771D01*
X147789286Y-121835771D02*
X147741667Y-121740533D01*
X147741667Y-121740533D02*
X147741667Y-121645295D01*
X147741667Y-121645295D02*
X147789286Y-121550057D01*
X147789286Y-121550057D02*
X147836905Y-121502438D01*
X147836905Y-121502438D02*
X147932143Y-121454819D01*
X147932143Y-121454819D02*
X148170238Y-121454819D01*
X148170238Y-121454819D02*
X148313095Y-121502438D01*
X148646429Y-121454819D02*
X148884524Y-122454819D01*
X148884524Y-122454819D02*
X149075000Y-121740533D01*
X149075000Y-121740533D02*
X149265476Y-122454819D01*
X149265476Y-122454819D02*
X149503572Y-121454819D01*
X149836905Y-121550057D02*
X149884524Y-121502438D01*
X149884524Y-121502438D02*
X149979762Y-121454819D01*
X149979762Y-121454819D02*
X150217857Y-121454819D01*
X150217857Y-121454819D02*
X150313095Y-121502438D01*
X150313095Y-121502438D02*
X150360714Y-121550057D01*
X150360714Y-121550057D02*
X150408333Y-121645295D01*
X150408333Y-121645295D02*
X150408333Y-121740533D01*
X150408333Y-121740533D02*
X150360714Y-121883390D01*
X150360714Y-121883390D02*
X149789286Y-122454819D01*
X149789286Y-122454819D02*
X150408333Y-122454819D01*
X156288095Y-95454819D02*
X156288095Y-96264342D01*
X156288095Y-96264342D02*
X156335714Y-96359580D01*
X156335714Y-96359580D02*
X156383333Y-96407200D01*
X156383333Y-96407200D02*
X156478571Y-96454819D01*
X156478571Y-96454819D02*
X156669047Y-96454819D01*
X156669047Y-96454819D02*
X156764285Y-96407200D01*
X156764285Y-96407200D02*
X156811904Y-96359580D01*
X156811904Y-96359580D02*
X156859523Y-96264342D01*
X156859523Y-96264342D02*
X156859523Y-95454819D01*
X157478571Y-95883390D02*
X157383333Y-95835771D01*
X157383333Y-95835771D02*
X157335714Y-95788152D01*
X157335714Y-95788152D02*
X157288095Y-95692914D01*
X157288095Y-95692914D02*
X157288095Y-95645295D01*
X157288095Y-95645295D02*
X157335714Y-95550057D01*
X157335714Y-95550057D02*
X157383333Y-95502438D01*
X157383333Y-95502438D02*
X157478571Y-95454819D01*
X157478571Y-95454819D02*
X157669047Y-95454819D01*
X157669047Y-95454819D02*
X157764285Y-95502438D01*
X157764285Y-95502438D02*
X157811904Y-95550057D01*
X157811904Y-95550057D02*
X157859523Y-95645295D01*
X157859523Y-95645295D02*
X157859523Y-95692914D01*
X157859523Y-95692914D02*
X157811904Y-95788152D01*
X157811904Y-95788152D02*
X157764285Y-95835771D01*
X157764285Y-95835771D02*
X157669047Y-95883390D01*
X157669047Y-95883390D02*
X157478571Y-95883390D01*
X157478571Y-95883390D02*
X157383333Y-95931009D01*
X157383333Y-95931009D02*
X157335714Y-95978628D01*
X157335714Y-95978628D02*
X157288095Y-96073866D01*
X157288095Y-96073866D02*
X157288095Y-96264342D01*
X157288095Y-96264342D02*
X157335714Y-96359580D01*
X157335714Y-96359580D02*
X157383333Y-96407200D01*
X157383333Y-96407200D02*
X157478571Y-96454819D01*
X157478571Y-96454819D02*
X157669047Y-96454819D01*
X157669047Y-96454819D02*
X157764285Y-96407200D01*
X157764285Y-96407200D02*
X157811904Y-96359580D01*
X157811904Y-96359580D02*
X157859523Y-96264342D01*
X157859523Y-96264342D02*
X157859523Y-96073866D01*
X157859523Y-96073866D02*
X157811904Y-95978628D01*
X157811904Y-95978628D02*
X157764285Y-95931009D01*
X157764285Y-95931009D02*
X157669047Y-95883390D01*
X118107142Y-77254819D02*
X117773809Y-76778628D01*
X117535714Y-77254819D02*
X117535714Y-76254819D01*
X117535714Y-76254819D02*
X117916666Y-76254819D01*
X117916666Y-76254819D02*
X118011904Y-76302438D01*
X118011904Y-76302438D02*
X118059523Y-76350057D01*
X118059523Y-76350057D02*
X118107142Y-76445295D01*
X118107142Y-76445295D02*
X118107142Y-76588152D01*
X118107142Y-76588152D02*
X118059523Y-76683390D01*
X118059523Y-76683390D02*
X118011904Y-76731009D01*
X118011904Y-76731009D02*
X117916666Y-76778628D01*
X117916666Y-76778628D02*
X117535714Y-76778628D01*
X119059523Y-77254819D02*
X118488095Y-77254819D01*
X118773809Y-77254819D02*
X118773809Y-76254819D01*
X118773809Y-76254819D02*
X118678571Y-76397676D01*
X118678571Y-76397676D02*
X118583333Y-76492914D01*
X118583333Y-76492914D02*
X118488095Y-76540533D01*
X119916666Y-76588152D02*
X119916666Y-77254819D01*
X119678571Y-76207200D02*
X119440476Y-76921485D01*
X119440476Y-76921485D02*
X120059523Y-76921485D01*
D14*
X126360000Y-108940000D02*
X126360000Y-110360000D01*
X114640000Y-108940000D02*
X126360000Y-108940000D01*
X126360000Y-110360000D02*
X121860000Y-110360000D01*
X124450000Y-111200000D02*
X124450000Y-111800000D01*
X120750000Y-111250000D02*
X115250000Y-111250000D01*
X115250000Y-111250000D02*
X115250000Y-111750000D01*
X123850000Y-111500000D02*
X124450000Y-111200000D01*
X120750000Y-111750000D02*
X120750000Y-111250000D01*
X115250000Y-111750000D02*
X120750000Y-111750000D01*
X124450000Y-111800000D02*
X123850000Y-111500000D01*
X114640000Y-112750000D02*
X114640000Y-108940000D01*
X114640000Y-112750000D02*
X114640000Y-116560000D01*
X120750000Y-113750000D02*
X115250000Y-113750000D01*
X115250000Y-113750000D02*
X115250000Y-114250000D01*
X120750000Y-114250000D02*
X120750000Y-113750000D01*
X115250000Y-114250000D02*
X120750000Y-114250000D01*
X126360000Y-115140000D02*
X121860000Y-115140000D01*
X126360000Y-116560000D02*
X126360000Y-115140000D01*
X114640000Y-116560000D02*
X126360000Y-116560000D01*
X133882638Y-101480606D02*
X133992947Y-101370297D01*
X135520297Y-99842947D02*
X135630606Y-99732638D01*
X131708324Y-99083707D02*
G75*
G03*
X133882980Y-101480263I1945211J-419828D01*
G01*
X132153785Y-99530905D02*
G75*
G03*
X133625931Y-101003281I1499750J27370D01*
G01*
X135153280Y-99475931D02*
G75*
G03*
X133680905Y-98003786I-1499745J-27604D01*
G01*
X135630262Y-99732980D02*
G75*
G03*
X133233707Y-97558325I-1976727J229445D01*
G01*
X181440000Y-111960000D02*
X181440000Y-110540000D01*
X193160000Y-111960000D02*
X181440000Y-111960000D01*
X181440000Y-110540000D02*
X185940000Y-110540000D01*
X183350000Y-109700000D02*
X183350000Y-109100000D01*
X187050000Y-109650000D02*
X192550000Y-109650000D01*
X192550000Y-109650000D02*
X192550000Y-109150000D01*
X183950000Y-109400000D02*
X183350000Y-109700000D01*
X187050000Y-109150000D02*
X187050000Y-109650000D01*
X192550000Y-109150000D02*
X187050000Y-109150000D01*
X183350000Y-109100000D02*
X183950000Y-109400000D01*
X187050000Y-107150000D02*
X192550000Y-107150000D01*
X192550000Y-107150000D02*
X192550000Y-106650000D01*
X193160000Y-106900000D02*
X193160000Y-111960000D01*
X193160000Y-106900000D02*
X193160000Y-101840000D01*
X187050000Y-106650000D02*
X187050000Y-107150000D01*
X192550000Y-106650000D02*
X187050000Y-106650000D01*
X187050000Y-104650000D02*
X192550000Y-104650000D01*
X192550000Y-104650000D02*
X192550000Y-104150000D01*
X187050000Y-104150000D02*
X187050000Y-104650000D01*
X192550000Y-104150000D02*
X187050000Y-104150000D01*
X181440000Y-103260000D02*
X185940000Y-103260000D01*
X181440000Y-101840000D02*
X181440000Y-103260000D01*
X193160000Y-101840000D02*
X181440000Y-101840000D01*
X139877064Y-120635000D02*
X139422936Y-120635000D01*
X139877064Y-119165000D02*
X139422936Y-119165000D01*
D15*
X140850000Y-115000000D02*
X140850000Y-115000000D01*
X140850000Y-114800000D02*
X140850000Y-114800000D01*
D16*
X137850000Y-112600000D02*
X139650000Y-112600000D01*
X136250000Y-112000000D02*
X136250000Y-108000000D01*
X141450000Y-112000000D02*
X141450000Y-108200000D01*
X137850000Y-107400000D02*
X139650000Y-107400000D01*
D15*
X140850000Y-114800000D02*
G75*
G03*
X140850000Y-115000000I0J-100000D01*
G01*
X140850000Y-115000000D02*
G75*
G03*
X140850000Y-114800000I0J100000D01*
G01*
D14*
X181440000Y-98660000D02*
X181440000Y-97240000D01*
X193160000Y-98660000D02*
X181440000Y-98660000D01*
X181440000Y-97240000D02*
X185940000Y-97240000D01*
X183350000Y-96400000D02*
X183350000Y-95800000D01*
X187050000Y-96350000D02*
X192550000Y-96350000D01*
X192550000Y-96350000D02*
X192550000Y-95850000D01*
X183950000Y-96100000D02*
X183350000Y-96400000D01*
X187050000Y-95850000D02*
X187050000Y-96350000D01*
X192550000Y-95850000D02*
X187050000Y-95850000D01*
X183350000Y-95800000D02*
X183950000Y-96100000D01*
X193160000Y-94850000D02*
X193160000Y-98660000D01*
X193160000Y-94850000D02*
X193160000Y-91040000D01*
X187050000Y-93850000D02*
X192550000Y-93850000D01*
X192550000Y-93850000D02*
X192550000Y-93350000D01*
X187050000Y-93350000D02*
X187050000Y-93850000D01*
X192550000Y-93350000D02*
X187050000Y-93350000D01*
X181440000Y-92460000D02*
X185940000Y-92460000D01*
X181440000Y-91040000D02*
X181440000Y-92460000D01*
X193160000Y-91040000D02*
X181440000Y-91040000D01*
X164577064Y-103235000D02*
X164122936Y-103235000D01*
X164577064Y-101765000D02*
X164122936Y-101765000D01*
X181440000Y-125460000D02*
X181440000Y-124040000D01*
X193160000Y-125460000D02*
X181440000Y-125460000D01*
X181440000Y-124040000D02*
X185940000Y-124040000D01*
X183350000Y-123200000D02*
X183350000Y-122600000D01*
X187050000Y-123150000D02*
X192550000Y-123150000D01*
X192550000Y-123150000D02*
X192550000Y-122650000D01*
X183950000Y-122900000D02*
X183350000Y-123200000D01*
X187050000Y-122650000D02*
X187050000Y-123150000D01*
X192550000Y-122650000D02*
X187050000Y-122650000D01*
X183350000Y-122600000D02*
X183950000Y-122900000D01*
X187050000Y-120650000D02*
X192550000Y-120650000D01*
X192550000Y-120650000D02*
X192550000Y-120150000D01*
X193160000Y-120400000D02*
X193160000Y-125460000D01*
X193160000Y-120400000D02*
X193160000Y-115340000D01*
X187050000Y-120150000D02*
X187050000Y-120650000D01*
X192550000Y-120150000D02*
X187050000Y-120150000D01*
X187050000Y-118150000D02*
X192550000Y-118150000D01*
X192550000Y-118150000D02*
X192550000Y-117650000D01*
X187050000Y-117650000D02*
X187050000Y-118150000D01*
X192550000Y-117650000D02*
X187050000Y-117650000D01*
X181440000Y-116760000D02*
X185940000Y-116760000D01*
X181440000Y-115340000D02*
X181440000Y-116760000D01*
X193160000Y-115340000D02*
X181440000Y-115340000D01*
X146045543Y-94065010D02*
X146415010Y-93695543D01*
X147084990Y-95104457D02*
X147454457Y-94734990D01*
X122377064Y-79235000D02*
X121922936Y-79235000D01*
X122377064Y-77765000D02*
X121922936Y-77765000D01*
X133440000Y-91100000D02*
X133440000Y-85090000D01*
X140260000Y-88850000D02*
X140260000Y-85090000D01*
X133440000Y-85090000D02*
X134700000Y-85090000D01*
X140260000Y-85090000D02*
X139000000Y-85090000D01*
X160654457Y-84534990D02*
X160284990Y-84904457D01*
X159615010Y-83495543D02*
X159245543Y-83865010D01*
X168252064Y-120635000D02*
X167797936Y-120635000D01*
X168252064Y-119165000D02*
X167797936Y-119165000D01*
X135865000Y-123090000D02*
X137285000Y-123090000D01*
X135865000Y-134810000D02*
X135865000Y-123090000D01*
X137285000Y-123090000D02*
X137285000Y-127590000D01*
X138125000Y-125000000D02*
X138725000Y-125000000D01*
X138175000Y-128700000D02*
X138175000Y-134200000D01*
X138175000Y-134200000D02*
X138675000Y-134200000D01*
X138425000Y-125600000D02*
X138125000Y-125000000D01*
X138675000Y-128700000D02*
X138175000Y-128700000D01*
X138675000Y-134200000D02*
X138675000Y-128700000D01*
X138725000Y-125000000D02*
X138425000Y-125600000D01*
X139675000Y-134810000D02*
X135865000Y-134810000D01*
X139675000Y-134810000D02*
X143485000Y-134810000D01*
X140675000Y-128700000D02*
X140675000Y-134200000D01*
X140675000Y-134200000D02*
X141175000Y-134200000D01*
X141175000Y-128700000D02*
X140675000Y-128700000D01*
X141175000Y-134200000D02*
X141175000Y-128700000D01*
X142065000Y-123090000D02*
X142065000Y-127590000D01*
X143485000Y-123090000D02*
X142065000Y-123090000D01*
X143485000Y-134810000D02*
X143485000Y-123090000D01*
X136115000Y-93761252D02*
X136115000Y-93238748D01*
X137585000Y-93761252D02*
X137585000Y-93238748D01*
X164088748Y-105365000D02*
X164611252Y-105365000D01*
X164088748Y-106835000D02*
X164611252Y-106835000D01*
X143684990Y-100795543D02*
X144054457Y-101165010D01*
X142645543Y-101834990D02*
X143015010Y-102204457D01*
X165715000Y-90710000D02*
X165960000Y-90710000D01*
X165960000Y-90710000D02*
X165960000Y-92525000D01*
X177485000Y-90710000D02*
X177240000Y-90710000D01*
X165715000Y-86850000D02*
X165715000Y-90710000D01*
X165715000Y-86850000D02*
X165715000Y-82990000D01*
X177485000Y-86850000D02*
X177485000Y-90710000D01*
X177485000Y-86850000D02*
X177485000Y-82990000D01*
X165715000Y-82990000D02*
X165960000Y-82990000D01*
X177485000Y-82990000D02*
X177240000Y-82990000D01*
X149633022Y-105828606D02*
X152178606Y-103283022D01*
X152178606Y-103283022D02*
X147052082Y-98156497D01*
X144506497Y-100702082D02*
X149633022Y-105828606D01*
X118780000Y-82830000D02*
X126460000Y-82830000D01*
X118780000Y-82830000D02*
X118780000Y-80170000D01*
X126460000Y-82830000D02*
X126460000Y-80170000D01*
X116180000Y-81500000D02*
X116180000Y-80170000D01*
X116180000Y-80170000D02*
X117510000Y-80170000D01*
X118780000Y-80170000D02*
X126460000Y-80170000D01*
X128977064Y-105735000D02*
X128522936Y-105735000D01*
X128977064Y-104265000D02*
X128522936Y-104265000D01*
X178615000Y-108711252D02*
X178615000Y-108188748D01*
X180085000Y-108711252D02*
X180085000Y-108188748D01*
X170850000Y-102940000D02*
X167400000Y-102940000D01*
X170850000Y-102940000D02*
X172800000Y-102940000D01*
X170850000Y-108060000D02*
X168900000Y-108060000D01*
X170850000Y-108060000D02*
X172800000Y-108060000D01*
X189205000Y-81895000D02*
X189205000Y-83225000D01*
X187875000Y-81895000D02*
X189205000Y-81895000D01*
X186605000Y-81895000D02*
X181465000Y-81895000D01*
X186605000Y-81895000D02*
X186605000Y-84495000D01*
X181465000Y-81895000D02*
X181465000Y-87095000D01*
X189205000Y-84495000D02*
X189205000Y-87095000D01*
X186605000Y-84495000D02*
X189205000Y-84495000D01*
X189205000Y-87095000D02*
X181465000Y-87095000D01*
X168088748Y-94865000D02*
X168611252Y-94865000D01*
X168088748Y-96335000D02*
X168611252Y-96335000D01*
X132915000Y-94627064D02*
X132915000Y-94172936D01*
X134385000Y-94627064D02*
X134385000Y-94172936D01*
X158852064Y-120635000D02*
X158397936Y-120635000D01*
X158852064Y-119165000D02*
X158397936Y-119165000D01*
X137447936Y-95990000D02*
X138652064Y-95990000D01*
X137447936Y-97810000D02*
X138652064Y-97810000D01*
X126360000Y-99940000D02*
X126360000Y-101360000D01*
X114640000Y-99940000D02*
X126360000Y-99940000D01*
X126360000Y-101360000D02*
X121860000Y-101360000D01*
X124450000Y-102200000D02*
X124450000Y-102800000D01*
X120750000Y-102250000D02*
X115250000Y-102250000D01*
X115250000Y-102250000D02*
X115250000Y-102750000D01*
X123850000Y-102500000D02*
X124450000Y-102200000D01*
X120750000Y-102750000D02*
X120750000Y-102250000D01*
X115250000Y-102750000D02*
X120750000Y-102750000D01*
X124450000Y-102800000D02*
X123850000Y-102500000D01*
X114640000Y-103750000D02*
X114640000Y-99940000D01*
X114640000Y-103750000D02*
X114640000Y-107560000D01*
X120750000Y-104750000D02*
X115250000Y-104750000D01*
X115250000Y-104750000D02*
X115250000Y-105250000D01*
X120750000Y-105250000D02*
X120750000Y-104750000D01*
X115250000Y-105250000D02*
X120750000Y-105250000D01*
X126360000Y-106140000D02*
X121860000Y-106140000D01*
X126360000Y-107560000D02*
X126360000Y-106140000D01*
X114640000Y-107560000D02*
X126360000Y-107560000D01*
X128977064Y-123735000D02*
X128522936Y-123735000D01*
X128977064Y-122265000D02*
X128522936Y-122265000D01*
X139585000Y-102572936D02*
X139585000Y-103027064D01*
X138115000Y-102572936D02*
X138115000Y-103027064D01*
X152184990Y-100295543D02*
X152554457Y-100665010D01*
X151145543Y-101334990D02*
X151515010Y-101704457D01*
X179685000Y-90838748D02*
X179685000Y-91361252D01*
X178215000Y-90838748D02*
X178215000Y-91361252D01*
X138615000Y-93761252D02*
X138615000Y-93238748D01*
X140085000Y-93761252D02*
X140085000Y-93238748D01*
X179400000Y-97400000D02*
X179400000Y-93800000D01*
X179400000Y-93800000D02*
X172150000Y-93800000D01*
X172150000Y-97400000D02*
X179400000Y-97400000D01*
X128977064Y-114735000D02*
X128522936Y-114735000D01*
X128977064Y-113265000D02*
X128522936Y-113265000D01*
X116120000Y-89830000D02*
X116120000Y-88500000D01*
X117450000Y-89830000D02*
X116120000Y-89830000D01*
X118720000Y-89830000D02*
X126400000Y-89830000D01*
X118720000Y-89830000D02*
X118720000Y-87170000D01*
X126400000Y-89830000D02*
X126400000Y-87170000D01*
X118720000Y-87170000D02*
X126400000Y-87170000D01*
X126335000Y-117940000D02*
X126335000Y-119360000D01*
X114615000Y-117940000D02*
X126335000Y-117940000D01*
X126335000Y-119360000D02*
X121835000Y-119360000D01*
X124425000Y-120200000D02*
X124425000Y-120800000D01*
X120725000Y-120250000D02*
X115225000Y-120250000D01*
X115225000Y-120250000D02*
X115225000Y-120750000D01*
X123825000Y-120500000D02*
X124425000Y-120200000D01*
X120725000Y-120750000D02*
X120725000Y-120250000D01*
X115225000Y-120750000D02*
X120725000Y-120750000D01*
X124425000Y-120800000D02*
X123825000Y-120500000D01*
X114615000Y-121750000D02*
X114615000Y-117940000D01*
X114615000Y-121750000D02*
X114615000Y-125560000D01*
X120725000Y-122750000D02*
X115225000Y-122750000D01*
X115225000Y-122750000D02*
X115225000Y-123250000D01*
X120725000Y-123250000D02*
X120725000Y-122750000D01*
X115225000Y-123250000D02*
X120725000Y-123250000D01*
X126335000Y-124140000D02*
X121835000Y-124140000D01*
X126335000Y-125560000D02*
X126335000Y-124140000D01*
X114615000Y-125560000D02*
X126335000Y-125560000D01*
X177585000Y-108222936D02*
X177585000Y-108677064D01*
X176115000Y-108222936D02*
X176115000Y-108677064D01*
X124077064Y-86135000D02*
X123622936Y-86135000D01*
X124077064Y-84665000D02*
X123622936Y-84665000D01*
X163615000Y-83361252D02*
X163615000Y-82838748D01*
X165085000Y-83361252D02*
X165085000Y-82838748D01*
X118522936Y-84665000D02*
X118977064Y-84665000D01*
X118522936Y-86135000D02*
X118977064Y-86135000D01*
X178000000Y-123710000D02*
X179700000Y-123710000D01*
X178000000Y-123710000D02*
X178000000Y-121050000D01*
X179700000Y-123710000D02*
X179700000Y-121050000D01*
X164165000Y-123090000D02*
X165585000Y-123090000D01*
X164165000Y-134810000D02*
X164165000Y-123090000D01*
X165585000Y-123090000D02*
X165585000Y-127590000D01*
X166425000Y-125000000D02*
X167025000Y-125000000D01*
X166475000Y-128700000D02*
X166475000Y-134200000D01*
X166475000Y-134200000D02*
X166975000Y-134200000D01*
X166725000Y-125600000D02*
X166425000Y-125000000D01*
X166975000Y-128700000D02*
X166475000Y-128700000D01*
X166975000Y-134200000D02*
X166975000Y-128700000D01*
X167025000Y-125000000D02*
X166725000Y-125600000D01*
X167975000Y-134810000D02*
X164165000Y-134810000D01*
X167975000Y-134810000D02*
X171785000Y-134810000D01*
X168975000Y-128700000D02*
X168975000Y-134200000D01*
X168975000Y-134200000D02*
X169475000Y-134200000D01*
X169475000Y-128700000D02*
X168975000Y-128700000D01*
X169475000Y-134200000D02*
X169475000Y-128700000D01*
X170365000Y-123090000D02*
X170365000Y-127590000D01*
X171785000Y-123090000D02*
X170365000Y-123090000D01*
X171785000Y-134810000D02*
X171785000Y-123090000D01*
X180085000Y-102638748D02*
X180085000Y-103161252D01*
X178615000Y-102638748D02*
X178615000Y-103161252D01*
X176115000Y-103127064D02*
X176115000Y-102672936D01*
X177585000Y-103127064D02*
X177585000Y-102672936D01*
X126360000Y-91040000D02*
X126360000Y-92460000D01*
X114640000Y-91040000D02*
X126360000Y-91040000D01*
X126360000Y-92460000D02*
X121860000Y-92460000D01*
X124450000Y-93300000D02*
X124450000Y-93900000D01*
X120750000Y-93350000D02*
X115250000Y-93350000D01*
X115250000Y-93350000D02*
X115250000Y-93850000D01*
X123850000Y-93600000D02*
X124450000Y-93300000D01*
X120750000Y-93850000D02*
X120750000Y-93350000D01*
X115250000Y-93850000D02*
X120750000Y-93850000D01*
X124450000Y-93900000D02*
X123850000Y-93600000D01*
X114640000Y-94850000D02*
X114640000Y-91040000D01*
X114640000Y-94850000D02*
X114640000Y-98660000D01*
X120750000Y-95850000D02*
X115250000Y-95850000D01*
X115250000Y-95850000D02*
X115250000Y-96350000D01*
X120750000Y-96350000D02*
X120750000Y-95850000D01*
X115250000Y-96350000D02*
X120750000Y-96350000D01*
X126360000Y-97240000D02*
X121860000Y-97240000D01*
X126360000Y-98660000D02*
X126360000Y-97240000D01*
X114640000Y-98660000D02*
X126360000Y-98660000D01*
X154765000Y-123090000D02*
X156185000Y-123090000D01*
X154765000Y-134810000D02*
X154765000Y-123090000D01*
X156185000Y-123090000D02*
X156185000Y-127590000D01*
X157025000Y-125000000D02*
X157625000Y-125000000D01*
X157075000Y-128700000D02*
X157075000Y-134200000D01*
X157075000Y-134200000D02*
X157575000Y-134200000D01*
X157325000Y-125600000D02*
X157025000Y-125000000D01*
X157575000Y-128700000D02*
X157075000Y-128700000D01*
X157575000Y-134200000D02*
X157575000Y-128700000D01*
X157625000Y-125000000D02*
X157325000Y-125600000D01*
X158575000Y-134810000D02*
X154765000Y-134810000D01*
X158575000Y-134810000D02*
X162385000Y-134810000D01*
X159575000Y-128700000D02*
X159575000Y-134200000D01*
X159575000Y-134200000D02*
X160075000Y-134200000D01*
X160075000Y-128700000D02*
X159575000Y-128700000D01*
X160075000Y-134200000D02*
X160075000Y-128700000D01*
X160965000Y-123090000D02*
X160965000Y-127590000D01*
X162385000Y-123090000D02*
X160965000Y-123090000D01*
X162385000Y-134810000D02*
X162385000Y-123090000D01*
X148045543Y-95965010D02*
X148415010Y-95595543D01*
X149084990Y-97004457D02*
X149454457Y-96634990D01*
X149352064Y-120635000D02*
X148897936Y-120635000D01*
X149352064Y-119165000D02*
X148897936Y-119165000D01*
X178000000Y-114510000D02*
X179700000Y-114510000D01*
X178000000Y-114510000D02*
X178000000Y-111850000D01*
X179700000Y-114510000D02*
X179700000Y-111850000D01*
X145265000Y-123090000D02*
X146685000Y-123090000D01*
X145265000Y-134810000D02*
X145265000Y-123090000D01*
X146685000Y-123090000D02*
X146685000Y-127590000D01*
X147525000Y-125000000D02*
X148125000Y-125000000D01*
X147575000Y-128700000D02*
X147575000Y-134200000D01*
X147575000Y-134200000D02*
X148075000Y-134200000D01*
X147825000Y-125600000D02*
X147525000Y-125000000D01*
X148075000Y-128700000D02*
X147575000Y-128700000D01*
X148075000Y-134200000D02*
X148075000Y-128700000D01*
X148125000Y-125000000D02*
X147825000Y-125600000D01*
X149075000Y-134810000D02*
X145265000Y-134810000D01*
X149075000Y-134810000D02*
X152885000Y-134810000D01*
X150075000Y-128700000D02*
X150075000Y-134200000D01*
X150075000Y-134200000D02*
X150575000Y-134200000D01*
X150575000Y-128700000D02*
X150075000Y-128700000D01*
X150575000Y-134200000D02*
X150575000Y-128700000D01*
X151465000Y-123090000D02*
X151465000Y-127590000D01*
X152885000Y-123090000D02*
X151465000Y-123090000D01*
X152885000Y-134810000D02*
X152885000Y-123090000D01*
D12*
X148723476Y-89500000D02*
X148882575Y-89659099D01*
X148723476Y-89500000D02*
X148953286Y-89270190D01*
X148882575Y-89659099D02*
X147874948Y-90666726D01*
X153850000Y-94626524D02*
X153620190Y-94396714D01*
X153850000Y-94626524D02*
X154079810Y-94396714D01*
X153850000Y-84373476D02*
X153620190Y-84603286D01*
X153850000Y-84373476D02*
X154079810Y-84603286D01*
X158976524Y-89500000D02*
X158746714Y-89729810D01*
X158976524Y-89500000D02*
X158746714Y-89270190D01*
D14*
X118677064Y-79235000D02*
X118222936Y-79235000D01*
X118677064Y-77765000D02*
X118222936Y-77765000D01*
%LPC*%
D17*
X122350000Y-111500000D03*
D18*
X122350000Y-114000000D03*
D19*
X134551561Y-100401561D03*
D20*
X132755510Y-98605510D03*
D21*
X185450000Y-109400000D03*
D22*
X185450000Y-106900000D03*
X185450000Y-104400000D03*
D23*
X140562500Y-119900000D03*
X138737500Y-119900000D03*
D24*
X140750000Y-113150000D03*
X140750000Y-106850000D03*
X136950000Y-113150000D03*
X136950000Y-106850000D03*
D25*
X185450000Y-96100000D03*
D18*
X185450000Y-93600000D03*
D23*
X165262500Y-102500000D03*
X163437500Y-102500000D03*
D21*
X185450000Y-122900000D03*
D22*
X185450000Y-120400000D03*
X185450000Y-117900000D03*
D26*
X146078249Y-95071751D03*
X147421751Y-93728249D03*
D23*
X123062500Y-78500000D03*
X121237500Y-78500000D03*
D27*
X134550000Y-90150000D03*
X136850000Y-90150000D03*
D28*
X136850000Y-83850000D03*
D27*
X139150000Y-90150000D03*
D29*
X160621751Y-83528249D03*
X159278249Y-84871751D03*
D23*
X168937500Y-119900000D03*
X167112500Y-119900000D03*
D30*
X138425000Y-127100000D03*
D31*
X140925000Y-127100000D03*
D32*
X136850000Y-94450000D03*
X136850000Y-92550000D03*
D33*
X163400000Y-106100000D03*
X165300000Y-106100000D03*
D34*
X142678249Y-100828249D03*
X144021751Y-102171751D03*
D35*
X166520000Y-91500000D03*
X167790000Y-91500000D03*
X169060000Y-91500000D03*
X170330000Y-91500000D03*
X171600000Y-91500000D03*
X172870000Y-91500000D03*
X174140000Y-91500000D03*
X175410000Y-91500000D03*
X176680000Y-91500000D03*
X176680000Y-82200000D03*
X175410000Y-82200000D03*
X174140000Y-82200000D03*
X172870000Y-82200000D03*
X171600000Y-82200000D03*
X170330000Y-82200000D03*
X169060000Y-82200000D03*
X167790000Y-82200000D03*
X166520000Y-82200000D03*
D36*
X149526956Y-103176956D03*
X145850000Y-99500000D03*
D37*
X117510000Y-81500000D03*
D38*
X120050000Y-81500000D03*
X122590000Y-81500000D03*
X125130000Y-81500000D03*
D23*
X129662500Y-105000000D03*
X127837500Y-105000000D03*
D32*
X179350000Y-109400000D03*
X179350000Y-107500000D03*
D39*
X168375000Y-103595000D03*
X168375000Y-104865000D03*
X168375000Y-106135000D03*
X168375000Y-107405000D03*
X173325000Y-107405000D03*
X173325000Y-106135000D03*
X173325000Y-104865000D03*
X173325000Y-103595000D03*
D37*
X187875000Y-83225000D03*
D38*
X187875000Y-85765000D03*
X185335000Y-83225000D03*
X185335000Y-85765000D03*
X182795000Y-83225000D03*
X182795000Y-85765000D03*
D33*
X167400000Y-95600000D03*
X169300000Y-95600000D03*
D40*
X133650000Y-95312500D03*
X133650000Y-93487500D03*
D23*
X159537500Y-119900000D03*
X157712500Y-119900000D03*
D41*
X136650000Y-96900000D03*
X139450000Y-96900000D03*
D17*
X122350000Y-102500000D03*
D18*
X122350000Y-105000000D03*
D23*
X129662500Y-123000000D03*
X127837500Y-123000000D03*
D42*
X138850000Y-101887500D03*
X138850000Y-103712500D03*
D34*
X151178249Y-100328249D03*
X152521751Y-101671751D03*
D43*
X178950000Y-90150000D03*
X178950000Y-92050000D03*
D32*
X139350000Y-94450000D03*
X139350000Y-92550000D03*
D44*
X177450000Y-95600000D03*
X172250000Y-95600000D03*
D23*
X129662500Y-114000000D03*
X127837500Y-114000000D03*
D37*
X117450000Y-88500000D03*
D38*
X119990000Y-88500000D03*
X122530000Y-88500000D03*
X125070000Y-88500000D03*
D17*
X122325000Y-120500000D03*
D18*
X122325000Y-123000000D03*
D42*
X176850000Y-107537500D03*
X176850000Y-109362500D03*
D23*
X124762500Y-85400000D03*
X122937500Y-85400000D03*
D32*
X164350000Y-84050000D03*
X164350000Y-82150000D03*
D45*
X117837500Y-85400000D03*
X119662500Y-85400000D03*
D46*
X178850000Y-123150000D03*
X178850000Y-121050000D03*
D30*
X166725000Y-127100000D03*
D31*
X169225000Y-127100000D03*
D43*
X179350000Y-101950000D03*
X179350000Y-103850000D03*
D40*
X176850000Y-103812500D03*
X176850000Y-101987500D03*
D17*
X122350000Y-93600000D03*
D18*
X122350000Y-96100000D03*
D30*
X157325000Y-127100000D03*
D31*
X159825000Y-127100000D03*
D26*
X148078249Y-96971751D03*
X149421751Y-95628249D03*
D23*
X150037500Y-119900000D03*
X148212500Y-119900000D03*
D46*
X178850000Y-113950000D03*
X178850000Y-111850000D03*
D30*
X147825000Y-127100000D03*
D31*
X150325000Y-127100000D03*
D47*
X148864897Y-90525305D03*
X149430583Y-91090990D03*
X149996268Y-91656676D03*
X150561953Y-92222361D03*
X151127639Y-92788047D03*
X151693324Y-93353732D03*
X152259010Y-93919417D03*
X152824695Y-94485103D03*
D48*
X154875305Y-94485103D03*
X155440990Y-93919417D03*
X156006676Y-93353732D03*
X156572361Y-92788047D03*
X157138047Y-92222361D03*
X157703732Y-91656676D03*
X158269417Y-91090990D03*
X158835103Y-90525305D03*
D47*
X158835103Y-88474695D03*
X158269417Y-87909010D03*
X157703732Y-87343324D03*
X157138047Y-86777639D03*
X156572361Y-86211953D03*
X156006676Y-85646268D03*
X155440990Y-85080583D03*
X154875305Y-84514897D03*
D48*
X152824695Y-84514897D03*
X152259010Y-85080583D03*
X151693324Y-85646268D03*
X151127639Y-86211953D03*
X150561953Y-86777639D03*
X149996268Y-87343324D03*
X149430583Y-87909010D03*
X148864897Y-88474695D03*
D23*
X119362500Y-78500000D03*
X117537500Y-78500000D03*
%LPD*%
M02*
