G04 #@! TF.GenerationSoftware,KiCad,Pcbnew,7.0.5*
G04 #@! TF.CreationDate,2024-08-04T19:03:28+08:00*
G04 #@! TF.ProjectId,Vehicle_Control_Unit_VCU_V1,56656869-636c-4655-9f43-6f6e74726f6c,rev?*
G04 #@! TF.SameCoordinates,Original*
G04 #@! TF.FileFunction,Paste,Top*
G04 #@! TF.FilePolarity,Positive*
%FSLAX46Y46*%
G04 Gerber Fmt 4.6, Leading zero omitted, Abs format (unit mm)*
G04 Created by KiCad (PCBNEW 7.0.5) date 2024-08-04 19:03:28*
%MOMM*%
%LPD*%
G01*
G04 APERTURE LIST*
G04 Aperture macros list*
%AMRoundRect*
0 Rectangle with rounded corners*
0 $1 Rounding radius*
0 $2 $3 $4 $5 $6 $7 $8 $9 X,Y pos of 4 corners*
0 Add a 4 corners polygon primitive as box body*
4,1,4,$2,$3,$4,$5,$6,$7,$8,$9,$2,$3,0*
0 Add four circle primitives for the rounded corners*
1,1,$1+$1,$2,$3*
1,1,$1+$1,$4,$5*
1,1,$1+$1,$6,$7*
1,1,$1+$1,$8,$9*
0 Add four rect primitives between the rounded corners*
20,1,$1+$1,$2,$3,$4,$5,0*
20,1,$1+$1,$4,$5,$6,$7,0*
20,1,$1+$1,$6,$7,$8,$9,0*
20,1,$1+$1,$8,$9,$2,$3,0*%
%AMRotRect*
0 Rectangle, with rotation*
0 The origin of the aperture is its center*
0 $1 length*
0 $2 width*
0 $3 Rotation angle, in degrees counterclockwise*
0 Add horizontal line*
21,1,$1,$2,0,0,$3*%
G04 Aperture macros list end*
%ADD10RoundRect,0.250000X0.262500X0.450000X-0.262500X0.450000X-0.262500X-0.450000X0.262500X-0.450000X0*%
%ADD11R,1.000000X1.700000*%
%ADD12RoundRect,0.250000X0.159099X-0.512652X0.512652X-0.159099X-0.159099X0.512652X-0.512652X0.159099X0*%
%ADD13R,1.500000X2.000000*%
%ADD14R,3.800000X2.000000*%
%ADD15RoundRect,0.250000X-0.159099X0.512652X-0.512652X0.159099X0.159099X-0.512652X0.512652X-0.159099X0*%
%ADD16RoundRect,0.250000X0.475000X-0.250000X0.475000X0.250000X-0.475000X0.250000X-0.475000X-0.250000X0*%
%ADD17RoundRect,0.250000X-0.250000X-0.475000X0.250000X-0.475000X0.250000X0.475000X-0.250000X0.475000X0*%
%ADD18RoundRect,0.250000X-0.512652X-0.159099X-0.159099X-0.512652X0.512652X0.159099X0.159099X0.512652X0*%
%ADD19RoundRect,0.150000X0.150000X-0.875000X0.150000X0.875000X-0.150000X0.875000X-0.150000X-0.875000X0*%
%ADD20RotRect,3.500000X2.400000X135.000000*%
%ADD21RoundRect,0.150000X-0.825000X-0.150000X0.825000X-0.150000X0.825000X0.150000X-0.825000X0.150000X0*%
%ADD22RoundRect,0.250000X0.450000X-0.262500X0.450000X0.262500X-0.450000X0.262500X-0.450000X-0.262500X0*%
%ADD23RoundRect,0.250000X-0.375000X-0.625000X0.375000X-0.625000X0.375000X0.625000X-0.375000X0.625000X0*%
%ADD24RoundRect,0.250000X-0.450000X0.262500X-0.450000X-0.262500X0.450000X-0.262500X0.450000X0.262500X0*%
%ADD25RoundRect,0.250000X-0.475000X0.250000X-0.475000X-0.250000X0.475000X-0.250000X0.475000X0.250000X0*%
%ADD26R,3.500000X2.400000*%
%ADD27RoundRect,0.250000X-0.262500X-0.450000X0.262500X-0.450000X0.262500X0.450000X-0.262500X0.450000X0*%
%ADD28RoundRect,0.112500X0.112500X-0.187500X0.112500X0.187500X-0.112500X0.187500X-0.112500X-0.187500X0*%
%ADD29RotRect,1.600000X0.550000X45.000000*%
%ADD30RotRect,1.600000X0.550000X135.000000*%
G04 APERTURE END LIST*
D10*
X140562500Y-119900000D03*
X138737500Y-119900000D03*
D11*
X140750000Y-113150000D03*
X140750000Y-106850000D03*
X136950000Y-113150000D03*
X136950000Y-106850000D03*
D10*
X165262500Y-102500000D03*
X163437500Y-102500000D03*
D12*
X146078249Y-95071751D03*
X147421751Y-93728249D03*
D10*
X123062500Y-78500000D03*
X121237500Y-78500000D03*
D13*
X134550000Y-90150000D03*
X136850000Y-90150000D03*
D14*
X136850000Y-83850000D03*
D13*
X139150000Y-90150000D03*
D15*
X160621751Y-83528249D03*
X159278249Y-84871751D03*
D10*
X168937500Y-119900000D03*
X167112500Y-119900000D03*
D16*
X136850000Y-94450000D03*
X136850000Y-92550000D03*
D17*
X163400000Y-106100000D03*
X165300000Y-106100000D03*
D18*
X142678249Y-100828249D03*
X144021751Y-102171751D03*
D19*
X166520000Y-91500000D03*
X167790000Y-91500000D03*
X169060000Y-91500000D03*
X170330000Y-91500000D03*
X171600000Y-91500000D03*
X172870000Y-91500000D03*
X174140000Y-91500000D03*
X175410000Y-91500000D03*
X176680000Y-91500000D03*
X176680000Y-82200000D03*
X175410000Y-82200000D03*
X174140000Y-82200000D03*
X172870000Y-82200000D03*
X171600000Y-82200000D03*
X170330000Y-82200000D03*
X169060000Y-82200000D03*
X167790000Y-82200000D03*
X166520000Y-82200000D03*
D20*
X149526956Y-103176956D03*
X145850000Y-99500000D03*
D10*
X129662500Y-105000000D03*
X127837500Y-105000000D03*
D16*
X179350000Y-109400000D03*
X179350000Y-107500000D03*
D21*
X168375000Y-103595000D03*
X168375000Y-104865000D03*
X168375000Y-106135000D03*
X168375000Y-107405000D03*
X173325000Y-107405000D03*
X173325000Y-106135000D03*
X173325000Y-104865000D03*
X173325000Y-103595000D03*
D17*
X167400000Y-95600000D03*
X169300000Y-95600000D03*
D22*
X133650000Y-95312500D03*
X133650000Y-93487500D03*
D10*
X159537500Y-119900000D03*
X157712500Y-119900000D03*
D23*
X136650000Y-96900000D03*
X139450000Y-96900000D03*
D10*
X129662500Y-123000000D03*
X127837500Y-123000000D03*
D24*
X138850000Y-101887500D03*
X138850000Y-103712500D03*
D18*
X151178249Y-100328249D03*
X152521751Y-101671751D03*
D25*
X178950000Y-90150000D03*
X178950000Y-92050000D03*
D16*
X139350000Y-94450000D03*
X139350000Y-92550000D03*
D26*
X177450000Y-95600000D03*
X172250000Y-95600000D03*
D10*
X129662500Y-114000000D03*
X127837500Y-114000000D03*
D24*
X176850000Y-107537500D03*
X176850000Y-109362500D03*
D10*
X124762500Y-85400000D03*
X122937500Y-85400000D03*
D16*
X164350000Y-84050000D03*
X164350000Y-82150000D03*
D27*
X117837500Y-85400000D03*
X119662500Y-85400000D03*
D28*
X178850000Y-123150000D03*
X178850000Y-121050000D03*
D25*
X179350000Y-101950000D03*
X179350000Y-103850000D03*
D22*
X176850000Y-103812500D03*
X176850000Y-101987500D03*
D12*
X148078249Y-96971751D03*
X149421751Y-95628249D03*
D10*
X150037500Y-119900000D03*
X148212500Y-119900000D03*
D28*
X178850000Y-113950000D03*
X178850000Y-111850000D03*
D29*
X148864897Y-90525305D03*
X149430583Y-91090990D03*
X149996268Y-91656676D03*
X150561953Y-92222361D03*
X151127639Y-92788047D03*
X151693324Y-93353732D03*
X152259010Y-93919417D03*
X152824695Y-94485103D03*
D30*
X154875305Y-94485103D03*
X155440990Y-93919417D03*
X156006676Y-93353732D03*
X156572361Y-92788047D03*
X157138047Y-92222361D03*
X157703732Y-91656676D03*
X158269417Y-91090990D03*
X158835103Y-90525305D03*
D29*
X158835103Y-88474695D03*
X158269417Y-87909010D03*
X157703732Y-87343324D03*
X157138047Y-86777639D03*
X156572361Y-86211953D03*
X156006676Y-85646268D03*
X155440990Y-85080583D03*
X154875305Y-84514897D03*
D30*
X152824695Y-84514897D03*
X152259010Y-85080583D03*
X151693324Y-85646268D03*
X151127639Y-86211953D03*
X150561953Y-86777639D03*
X149996268Y-87343324D03*
X149430583Y-87909010D03*
X148864897Y-88474695D03*
D10*
X119362500Y-78500000D03*
X117537500Y-78500000D03*
M02*
