G04 #@! TF.GenerationSoftware,KiCad,Pcbnew,7.0.5*
G04 #@! TF.CreationDate,2024-08-04T19:03:28+08:00*
G04 #@! TF.ProjectId,Vehicle_Control_Unit_VCU_V1,56656869-636c-4655-9f43-6f6e74726f6c,rev?*
G04 #@! TF.SameCoordinates,Original*
G04 #@! TF.FileFunction,Soldermask,Bot*
G04 #@! TF.FilePolarity,Negative*
%FSLAX46Y46*%
G04 Gerber Fmt 4.6, Leading zero omitted, Abs format (unit mm)*
G04 Created by KiCad (PCBNEW 7.0.5) date 2024-08-04 19:03:28*
%MOMM*%
%LPD*%
G01*
G04 APERTURE LIST*
G04 Aperture macros list*
%AMRoundRect*
0 Rectangle with rounded corners*
0 $1 Rounding radius*
0 $2 $3 $4 $5 $6 $7 $8 $9 X,Y pos of 4 corners*
0 Add a 4 corners polygon primitive as box body*
4,1,4,$2,$3,$4,$5,$6,$7,$8,$9,$2,$3,0*
0 Add four circle primitives for the rounded corners*
1,1,$1+$1,$2,$3*
1,1,$1+$1,$4,$5*
1,1,$1+$1,$6,$7*
1,1,$1+$1,$8,$9*
0 Add four rect primitives between the rounded corners*
20,1,$1+$1,$2,$3,$4,$5,0*
20,1,$1+$1,$4,$5,$6,$7,0*
20,1,$1+$1,$6,$7,$8,$9,0*
20,1,$1+$1,$8,$9,$2,$3,0*%
%AMRotRect*
0 Rectangle, with rotation*
0 The origin of the aperture is its center*
0 $1 length*
0 $2 width*
0 $3 Rotation angle, in degrees counterclockwise*
0 Add horizontal line*
21,1,$1,$2,0,0,$3*%
G04 Aperture macros list end*
%ADD10RoundRect,0.250000X-0.750000X0.600000X-0.750000X-0.600000X0.750000X-0.600000X0.750000X0.600000X0*%
%ADD11O,2.000000X1.700000*%
%ADD12RotRect,1.800000X1.800000X135.000000*%
%ADD13C,1.800000*%
%ADD14RoundRect,0.250000X0.725000X-0.600000X0.725000X0.600000X-0.725000X0.600000X-0.725000X-0.600000X0*%
%ADD15O,1.950000X1.700000*%
%ADD16RoundRect,0.250000X0.750000X-0.600000X0.750000X0.600000X-0.750000X0.600000X-0.750000X-0.600000X0*%
%ADD17RoundRect,0.250000X-0.600000X-0.750000X0.600000X-0.750000X0.600000X0.750000X-0.600000X0.750000X0*%
%ADD18O,1.700000X2.000000*%
%ADD19R,1.700000X1.700000*%
%ADD20O,1.700000X1.700000*%
G04 APERTURE END LIST*
D10*
X122350000Y-111500000D03*
D11*
X122350000Y-114000000D03*
D12*
X134551561Y-100401561D03*
D13*
X132755510Y-98605510D03*
D14*
X185450000Y-109400000D03*
D15*
X185450000Y-106900000D03*
X185450000Y-104400000D03*
D16*
X185450000Y-96100000D03*
D11*
X185450000Y-93600000D03*
D14*
X185450000Y-122900000D03*
D15*
X185450000Y-120400000D03*
X185450000Y-117900000D03*
D17*
X138425000Y-127100000D03*
D18*
X140925000Y-127100000D03*
D19*
X117510000Y-81500000D03*
D20*
X120050000Y-81500000D03*
X122590000Y-81500000D03*
X125130000Y-81500000D03*
D19*
X187875000Y-83225000D03*
D20*
X187875000Y-85765000D03*
X185335000Y-83225000D03*
X185335000Y-85765000D03*
X182795000Y-83225000D03*
X182795000Y-85765000D03*
D10*
X122350000Y-102500000D03*
D11*
X122350000Y-105000000D03*
D19*
X117450000Y-88500000D03*
D20*
X119990000Y-88500000D03*
X122530000Y-88500000D03*
X125070000Y-88500000D03*
D10*
X122325000Y-120500000D03*
D11*
X122325000Y-123000000D03*
D17*
X166725000Y-127100000D03*
D18*
X169225000Y-127100000D03*
D10*
X122350000Y-93600000D03*
D11*
X122350000Y-96100000D03*
D17*
X157325000Y-127100000D03*
D18*
X159825000Y-127100000D03*
D17*
X147825000Y-127100000D03*
D18*
X150325000Y-127100000D03*
M02*
