M48
; DRILL file {KiCad 8.0.4} date 2024-09-06T13:05:17+0800
; FORMAT={-:-/ absolute / metric / decimal}
; #@! TF.CreationDate,2024-09-06T13:05:17+08:00
; #@! TF.GenerationSoftware,Kicad,Pcbnew,8.0.4
; #@! TF.FileFunction,Plated,1,2,PTH
FMAT,2
METRIC
; #@! TA.AperFunction,Plated,PTH,ViaDrill
T1C0.400
; #@! TA.AperFunction,Plated,PTH,ComponentDrill
T2C0.950
; #@! TA.AperFunction,Plated,PTH,ComponentDrill
T3C1.020
; #@! TA.AperFunction,Plated,PTH,ComponentDrill
T4C1.700
%
G90
G05
T1
X82.677Y-97.282
X85.884Y-97.282
X87.249Y-92.202
X87.757Y-131.699
X87.757Y-133.858
X87.757Y-136.144
X88.646Y-95.123
X89.09Y-97.282
X89.154Y-75.057
X89.789Y-131.699
X89.789Y-133.858
X90.424Y-120.396
X90.424Y-136.017
X90.678Y-122.809
X91.059Y-90.805
X92.297Y-97.282
X92.329Y-93.472
X92.837Y-136.017
X94.742Y-118.618
X94.996Y-95.123
X95.504Y-97.282
X97.028Y-137.922
X97.282Y-139.446
X97.79Y-77.851
X97.79Y-91.694
X97.79Y-93.472
X97.917Y-79.883
X97.917Y-119.888
X98.806Y-102.616
X100.457Y-75.692
X100.711Y-117.221
X100.711Y-124.968
X101.346Y-96.52
X101.854Y-81.788
X102.489Y-114.808
X102.489Y-120.269
X102.616Y-69.977
X102.616Y-72.644
X102.616Y-75.438
X102.616Y-109.347
X102.743Y-104.14
X102.997Y-102.743
X103.124Y-77.851
X103.251Y-105.537
X103.378Y-94.361
X103.759Y-100.33
X104.14Y-110.363
X104.14Y-114.808
X104.14Y-120.269
X104.902Y-71.628
X104.902Y-77.851
X105.537Y-96.52
X105.791Y-105.918
X105.791Y-111.125
X105.918Y-120.65
X106.68Y-137.922
X106.934Y-104.14
X106.934Y-139.446
X107.061Y-125.349
X107.569Y-106.934
X108.458Y-120.142
X108.839Y-99.441
X108.839Y-108.077
X108.966Y-93.472
X109.728Y-109.982
X110.998Y-104.14
X111.252Y-73.914
X111.506Y-96.647
X111.633Y-98.552
X112.141Y-100.965
X112.268Y-91.821
X112.522Y-88.265
X113.284Y-98.425
X114.173Y-96.012
X114.681Y-104.14
X115.062Y-75.946
X115.062Y-126.238
X115.316Y-77.851
X115.951Y-137.922
X116.205Y-139.446
X117.094Y-104.267
X117.094Y-124.206
X117.348Y-109.093
X118.364Y-95.123
X118.491Y-109.728
X118.872Y-72.136
X118.872Y-135.89
X119.634Y-101.092
X119.634Y-109.855
X119.888Y-90.551
X120.396Y-95.25
X121.666Y-108.077
X122.555Y-99.314
X122.682Y-97.028
X123.19Y-101.092
X123.825Y-73.914
X124.206Y-102.87
X124.333Y-137.922
X125.095Y-92.075
X125.222Y-139.319
X125.603Y-122.428
X125.857Y-87.503
X125.984Y-70.104
X127.762Y-77.851
X127.762Y-113.284
X127.889Y-122.428
X127.889Y-133.858
X128.016Y-131.699
X128.524Y-75.946
X128.524Y-87.376
X130.429Y-113.284
X130.429Y-122.428
X130.429Y-131.699
X130.429Y-133.858
X132.969Y-113.284
X132.969Y-122.428
X133.096Y-83.058
X133.223Y-75.565
X134.239Y-104.648
X135.128Y-102.997
X135.636Y-75.438
X135.636Y-122.428
X135.763Y-83.058
X135.763Y-101.092
X136.271Y-113.284
X136.652Y-99.441
X138.049Y-98.044
X138.049Y-109.093
X138.176Y-75.438
X138.176Y-83.058
X139.446Y-97.028
X140.462Y-113.284
X140.716Y-75.438
X140.716Y-83.058
X141.224Y-108.966
X142.748Y-120.396
X143.129Y-113.284
X143.256Y-83.058
X143.764Y-108.966
X144.78Y-117.856
X145.796Y-83.058
X146.304Y-108.966
X148.336Y-83.058
X148.844Y-108.966
X149.225Y-79.375
X151.384Y-108.966
X152.527Y-83.058
X153.924Y-77.343
X155.067Y-116.713
X155.829Y-82.931
X157.353Y-76.835
T2
X81.551Y-63.921
X81.551Y-66.421
X81.551Y-68.921
X81.701Y-90.343
X81.701Y-101.456
X81.701Y-112.569
X84.201Y-90.343
X84.201Y-101.456
X84.201Y-112.569
X86.701Y-90.343
X86.701Y-101.456
X86.701Y-112.569
X89.201Y-90.343
X90.086Y-63.921
X90.086Y-66.421
X90.086Y-68.921
X92.947Y-128.818
X92.947Y-131.318
X92.947Y-133.818
X98.622Y-63.921
X98.622Y-66.421
X98.622Y-68.921
X103.107Y-126.318
X103.107Y-128.818
X103.107Y-131.318
X103.107Y-133.818
X107.157Y-63.921
X107.157Y-66.421
X107.157Y-68.921
X113.267Y-126.318
X113.267Y-128.818
X113.267Y-131.318
X113.267Y-133.818
X115.692Y-63.921
X115.692Y-66.421
X115.692Y-68.921
X123.427Y-128.818
X123.427Y-131.318
X123.427Y-133.818
X124.228Y-63.921
X124.228Y-66.421
X124.228Y-68.921
X132.763Y-63.921
X132.763Y-66.421
X132.763Y-68.921
X133.587Y-128.818
X133.587Y-131.318
X133.587Y-133.818
X141.298Y-63.921
X141.298Y-66.421
X141.298Y-68.921
X143.747Y-128.818
X143.747Y-131.318
X143.747Y-133.818
X149.834Y-63.921
X149.834Y-66.421
X149.834Y-68.921
X153.907Y-128.818
X153.907Y-131.318
X153.907Y-133.818
X158.369Y-63.921
X158.369Y-66.421
X158.369Y-68.921
T3
X121.518Y-85.453
X121.518Y-110.852
X124.058Y-85.453
X124.058Y-110.852
X126.598Y-85.453
X126.598Y-110.852
X129.138Y-85.453
X129.138Y-110.852
X131.678Y-85.453
X131.678Y-110.852
X134.218Y-85.453
X134.218Y-110.852
X136.758Y-85.453
X136.758Y-110.852
X139.298Y-85.453
X139.298Y-110.852
X141.838Y-85.453
X141.838Y-110.852
X144.378Y-85.453
X144.378Y-110.852
X146.918Y-85.453
X146.918Y-110.852
X149.458Y-85.453
X149.458Y-110.852
X151.998Y-85.453
X151.998Y-110.852
X154.538Y-85.453
X154.538Y-110.852
X157.078Y-85.453
X157.078Y-110.852
T4
X80.983Y-80.179
X84.942Y-80.179
M30
