%TF.GenerationSoftware,KiCad,Pcbnew,8.0.4*%
%TF.CreationDate,2024-09-06T13:05:26+08:00*%
%TF.ProjectId,Sensor Board,53656e73-6f72-4204-926f-6172642e6b69,rev?*%
%TF.SameCoordinates,Original*%
%TF.FileFunction,Legend,Top*%
%TF.FilePolarity,Positive*%
%FSLAX46Y46*%
G04 Gerber Fmt 4.6, Leading zero omitted, Abs format (unit mm)*
G04 Created by KiCad (PCBNEW 8.0.4) date 2024-09-06 13:05:26*
%MOMM*%
%LPD*%
G01*
G04 APERTURE LIST*
%ADD10C,0.150000*%
%ADD11C,0.558800*%
%ADD12C,0.120000*%
%ADD13C,0.127000*%
%ADD14C,0.200000*%
G04 APERTURE END LIST*
D10*
X158124784Y-75052883D02*
X157515184Y-75281483D01*
X157515184Y-75281483D02*
X158124784Y-75510083D01*
X158467684Y-75548183D02*
X158581984Y-75586283D01*
X158581984Y-75586283D02*
X158772484Y-75586283D01*
X158772484Y-75586283D02*
X158848684Y-75548183D01*
X158848684Y-75548183D02*
X158886784Y-75510083D01*
X158886784Y-75510083D02*
X158924884Y-75433883D01*
X158924884Y-75433883D02*
X158924884Y-75357683D01*
X158924884Y-75357683D02*
X158886784Y-75281483D01*
X158886784Y-75281483D02*
X158848684Y-75243383D01*
X158848684Y-75243383D02*
X158772484Y-75205283D01*
X158772484Y-75205283D02*
X158620084Y-75167183D01*
X158620084Y-75167183D02*
X158543884Y-75129083D01*
X158543884Y-75129083D02*
X158505784Y-75090983D01*
X158505784Y-75090983D02*
X158467684Y-75014783D01*
X158467684Y-75014783D02*
X158467684Y-74938583D01*
X158467684Y-74938583D02*
X158505784Y-74862383D01*
X158505784Y-74862383D02*
X158543884Y-74824283D01*
X158543884Y-74824283D02*
X158620084Y-74786183D01*
X158620084Y-74786183D02*
X158810584Y-74786183D01*
X158810584Y-74786183D02*
X158924884Y-74824283D01*
X159267784Y-75586283D02*
X159267784Y-74786183D01*
X160067884Y-74824283D02*
X159991684Y-74786183D01*
X159991684Y-74786183D02*
X159877384Y-74786183D01*
X159877384Y-74786183D02*
X159763084Y-74824283D01*
X159763084Y-74824283D02*
X159686884Y-74900483D01*
X159686884Y-74900483D02*
X159648784Y-74976683D01*
X159648784Y-74976683D02*
X159610684Y-75129083D01*
X159610684Y-75129083D02*
X159610684Y-75243383D01*
X159610684Y-75243383D02*
X159648784Y-75395783D01*
X159648784Y-75395783D02*
X159686884Y-75471983D01*
X159686884Y-75471983D02*
X159763084Y-75548183D01*
X159763084Y-75548183D02*
X159877384Y-75586283D01*
X159877384Y-75586283D02*
X159953584Y-75586283D01*
X159953584Y-75586283D02*
X160067884Y-75548183D01*
X160067884Y-75548183D02*
X160105984Y-75510083D01*
X160105984Y-75510083D02*
X160105984Y-75243383D01*
X160105984Y-75243383D02*
X159953584Y-75243383D01*
X160448884Y-75586283D02*
X160448884Y-74786183D01*
X160448884Y-74786183D02*
X160906084Y-75586283D01*
X160906084Y-75586283D02*
X160906084Y-74786183D01*
X161248984Y-75357683D02*
X161629984Y-75357683D01*
X161172784Y-75586283D02*
X161439484Y-74786183D01*
X161439484Y-74786183D02*
X161706184Y-75586283D01*
X162353884Y-75586283D02*
X161972884Y-75586283D01*
X161972884Y-75586283D02*
X161972884Y-74786183D01*
X98409384Y-129180283D02*
X98142684Y-128799283D01*
X97952184Y-129180283D02*
X97952184Y-128380183D01*
X97952184Y-128380183D02*
X98256984Y-128380183D01*
X98256984Y-128380183D02*
X98333184Y-128418283D01*
X98333184Y-128418283D02*
X98371284Y-128456383D01*
X98371284Y-128456383D02*
X98409384Y-128532583D01*
X98409384Y-128532583D02*
X98409384Y-128646883D01*
X98409384Y-128646883D02*
X98371284Y-128723083D01*
X98371284Y-128723083D02*
X98333184Y-128761183D01*
X98333184Y-128761183D02*
X98256984Y-128799283D01*
X98256984Y-128799283D02*
X97952184Y-128799283D01*
X98676084Y-128380183D02*
X99209484Y-129180283D01*
X99209484Y-128380183D02*
X98676084Y-129180283D01*
X99514284Y-128646883D02*
X100123884Y-128875483D01*
X100123884Y-128875483D02*
X99514284Y-129104083D01*
X81263183Y-118455816D02*
X81263183Y-118836816D01*
X81263183Y-118836816D02*
X81644183Y-118874916D01*
X81644183Y-118874916D02*
X81606083Y-118836816D01*
X81606083Y-118836816D02*
X81567983Y-118760616D01*
X81567983Y-118760616D02*
X81567983Y-118570116D01*
X81567983Y-118570116D02*
X81606083Y-118493916D01*
X81606083Y-118493916D02*
X81644183Y-118455816D01*
X81644183Y-118455816D02*
X81720383Y-118417716D01*
X81720383Y-118417716D02*
X81910883Y-118417716D01*
X81910883Y-118417716D02*
X81987083Y-118455816D01*
X81987083Y-118455816D02*
X82025183Y-118493916D01*
X82025183Y-118493916D02*
X82063283Y-118570116D01*
X82063283Y-118570116D02*
X82063283Y-118760616D01*
X82063283Y-118760616D02*
X82025183Y-118836816D01*
X82025183Y-118836816D02*
X81987083Y-118874916D01*
X81263183Y-118189116D02*
X82063283Y-117922416D01*
X82063283Y-117922416D02*
X81263183Y-117655716D01*
X81529883Y-117389016D02*
X81758483Y-116779416D01*
X81758483Y-116779416D02*
X81987083Y-117389016D01*
X89518183Y-121541916D02*
X89556283Y-121427616D01*
X89556283Y-121427616D02*
X89556283Y-121237116D01*
X89556283Y-121237116D02*
X89518183Y-121160916D01*
X89518183Y-121160916D02*
X89480083Y-121122816D01*
X89480083Y-121122816D02*
X89403883Y-121084716D01*
X89403883Y-121084716D02*
X89327683Y-121084716D01*
X89327683Y-121084716D02*
X89251483Y-121122816D01*
X89251483Y-121122816D02*
X89213383Y-121160916D01*
X89213383Y-121160916D02*
X89175283Y-121237116D01*
X89175283Y-121237116D02*
X89137183Y-121389516D01*
X89137183Y-121389516D02*
X89099083Y-121465716D01*
X89099083Y-121465716D02*
X89060983Y-121503816D01*
X89060983Y-121503816D02*
X88984783Y-121541916D01*
X88984783Y-121541916D02*
X88908583Y-121541916D01*
X88908583Y-121541916D02*
X88832383Y-121503816D01*
X88832383Y-121503816D02*
X88794283Y-121465716D01*
X88794283Y-121465716D02*
X88756183Y-121389516D01*
X88756183Y-121389516D02*
X88756183Y-121199016D01*
X88756183Y-121199016D02*
X88794283Y-121084716D01*
X89556283Y-120741816D02*
X88756183Y-120741816D01*
X88794283Y-119941716D02*
X88756183Y-120017916D01*
X88756183Y-120017916D02*
X88756183Y-120132216D01*
X88756183Y-120132216D02*
X88794283Y-120246516D01*
X88794283Y-120246516D02*
X88870483Y-120322716D01*
X88870483Y-120322716D02*
X88946683Y-120360816D01*
X88946683Y-120360816D02*
X89099083Y-120398916D01*
X89099083Y-120398916D02*
X89213383Y-120398916D01*
X89213383Y-120398916D02*
X89365783Y-120360816D01*
X89365783Y-120360816D02*
X89441983Y-120322716D01*
X89441983Y-120322716D02*
X89518183Y-120246516D01*
X89518183Y-120246516D02*
X89556283Y-120132216D01*
X89556283Y-120132216D02*
X89556283Y-120056016D01*
X89556283Y-120056016D02*
X89518183Y-119941716D01*
X89518183Y-119941716D02*
X89480083Y-119903616D01*
X89480083Y-119903616D02*
X89213383Y-119903616D01*
X89213383Y-119903616D02*
X89213383Y-120056016D01*
X89556283Y-119560716D02*
X88756183Y-119560716D01*
X88756183Y-119560716D02*
X89556283Y-119103516D01*
X89556283Y-119103516D02*
X88756183Y-119103516D01*
X89327683Y-118760616D02*
X89327683Y-118379616D01*
X89556283Y-118836816D02*
X88756183Y-118570116D01*
X88756183Y-118570116D02*
X89556283Y-118303416D01*
X89556283Y-117655716D02*
X89556283Y-118036716D01*
X89556283Y-118036716D02*
X88756183Y-118036716D01*
X89022883Y-117389016D02*
X89251483Y-116779416D01*
X89251483Y-116779416D02*
X89480083Y-117389016D01*
X85449717Y-72082284D02*
X85487817Y-72006084D01*
X85487817Y-72006084D02*
X85487817Y-71891784D01*
X85487817Y-71891784D02*
X85449717Y-71777484D01*
X85449717Y-71777484D02*
X85373517Y-71701284D01*
X85373517Y-71701284D02*
X85297317Y-71663184D01*
X85297317Y-71663184D02*
X85144917Y-71625084D01*
X85144917Y-71625084D02*
X85030617Y-71625084D01*
X85030617Y-71625084D02*
X84878217Y-71663184D01*
X84878217Y-71663184D02*
X84802017Y-71701284D01*
X84802017Y-71701284D02*
X84725817Y-71777484D01*
X84725817Y-71777484D02*
X84687717Y-71891784D01*
X84687717Y-71891784D02*
X84687717Y-71967984D01*
X84687717Y-71967984D02*
X84725817Y-72082284D01*
X84725817Y-72082284D02*
X84763917Y-72120384D01*
X84763917Y-72120384D02*
X85030617Y-72120384D01*
X85030617Y-72120384D02*
X85030617Y-71967984D01*
X84687717Y-72463284D02*
X85487817Y-72463284D01*
X85487817Y-72463284D02*
X84687717Y-72920484D01*
X84687717Y-72920484D02*
X85487817Y-72920484D01*
X84687717Y-73301484D02*
X85487817Y-73301484D01*
X85487817Y-73301484D02*
X85487817Y-73491984D01*
X85487817Y-73491984D02*
X85449717Y-73606284D01*
X85449717Y-73606284D02*
X85373517Y-73682484D01*
X85373517Y-73682484D02*
X85297317Y-73720584D01*
X85297317Y-73720584D02*
X85144917Y-73758684D01*
X85144917Y-73758684D02*
X85030617Y-73758684D01*
X85030617Y-73758684D02*
X84878217Y-73720584D01*
X84878217Y-73720584D02*
X84802017Y-73682484D01*
X84802017Y-73682484D02*
X84725817Y-73606284D01*
X84725817Y-73606284D02*
X84687717Y-73491984D01*
X84687717Y-73491984D02*
X84687717Y-73301484D01*
X85221117Y-74101584D02*
X84992517Y-74711184D01*
X84992517Y-74711184D02*
X84763917Y-74101584D01*
X85252184Y-133460183D02*
X84871184Y-133460183D01*
X84871184Y-133460183D02*
X84833084Y-133841183D01*
X84833084Y-133841183D02*
X84871184Y-133803083D01*
X84871184Y-133803083D02*
X84947384Y-133764983D01*
X84947384Y-133764983D02*
X85137884Y-133764983D01*
X85137884Y-133764983D02*
X85214084Y-133803083D01*
X85214084Y-133803083D02*
X85252184Y-133841183D01*
X85252184Y-133841183D02*
X85290284Y-133917383D01*
X85290284Y-133917383D02*
X85290284Y-134107883D01*
X85290284Y-134107883D02*
X85252184Y-134184083D01*
X85252184Y-134184083D02*
X85214084Y-134222183D01*
X85214084Y-134222183D02*
X85137884Y-134260283D01*
X85137884Y-134260283D02*
X84947384Y-134260283D01*
X84947384Y-134260283D02*
X84871184Y-134222183D01*
X84871184Y-134222183D02*
X84833084Y-134184083D01*
X85518884Y-133460183D02*
X85785584Y-134260283D01*
X85785584Y-134260283D02*
X86052284Y-133460183D01*
X86318984Y-133726883D02*
X86928584Y-133955483D01*
X86928584Y-133955483D02*
X86318984Y-134184083D01*
X82166084Y-126729183D02*
X82280384Y-126767283D01*
X82280384Y-126767283D02*
X82470884Y-126767283D01*
X82470884Y-126767283D02*
X82547084Y-126729183D01*
X82547084Y-126729183D02*
X82585184Y-126691083D01*
X82585184Y-126691083D02*
X82623284Y-126614883D01*
X82623284Y-126614883D02*
X82623284Y-126538683D01*
X82623284Y-126538683D02*
X82585184Y-126462483D01*
X82585184Y-126462483D02*
X82547084Y-126424383D01*
X82547084Y-126424383D02*
X82470884Y-126386283D01*
X82470884Y-126386283D02*
X82318484Y-126348183D01*
X82318484Y-126348183D02*
X82242284Y-126310083D01*
X82242284Y-126310083D02*
X82204184Y-126271983D01*
X82204184Y-126271983D02*
X82166084Y-126195783D01*
X82166084Y-126195783D02*
X82166084Y-126119583D01*
X82166084Y-126119583D02*
X82204184Y-126043383D01*
X82204184Y-126043383D02*
X82242284Y-126005283D01*
X82242284Y-126005283D02*
X82318484Y-125967183D01*
X82318484Y-125967183D02*
X82508984Y-125967183D01*
X82508984Y-125967183D02*
X82623284Y-126005283D01*
X82966184Y-126767283D02*
X82966184Y-125967183D01*
X83766284Y-126005283D02*
X83690084Y-125967183D01*
X83690084Y-125967183D02*
X83575784Y-125967183D01*
X83575784Y-125967183D02*
X83461484Y-126005283D01*
X83461484Y-126005283D02*
X83385284Y-126081483D01*
X83385284Y-126081483D02*
X83347184Y-126157683D01*
X83347184Y-126157683D02*
X83309084Y-126310083D01*
X83309084Y-126310083D02*
X83309084Y-126424383D01*
X83309084Y-126424383D02*
X83347184Y-126576783D01*
X83347184Y-126576783D02*
X83385284Y-126652983D01*
X83385284Y-126652983D02*
X83461484Y-126729183D01*
X83461484Y-126729183D02*
X83575784Y-126767283D01*
X83575784Y-126767283D02*
X83651984Y-126767283D01*
X83651984Y-126767283D02*
X83766284Y-126729183D01*
X83766284Y-126729183D02*
X83804384Y-126691083D01*
X83804384Y-126691083D02*
X83804384Y-126424383D01*
X83804384Y-126424383D02*
X83651984Y-126424383D01*
X84147284Y-126767283D02*
X84147284Y-125967183D01*
X84147284Y-125967183D02*
X84604484Y-126767283D01*
X84604484Y-126767283D02*
X84604484Y-125967183D01*
X84947384Y-126538683D02*
X85328384Y-126538683D01*
X84871184Y-126767283D02*
X85137884Y-125967183D01*
X85137884Y-125967183D02*
X85404584Y-126767283D01*
X86052284Y-126767283D02*
X85671284Y-126767283D01*
X85671284Y-126767283D02*
X85671284Y-125967183D01*
X86318984Y-126233883D02*
X86928584Y-126462483D01*
X86928584Y-126462483D02*
X86318984Y-126691083D01*
X107439084Y-129015183D02*
X107553384Y-129053283D01*
X107553384Y-129053283D02*
X107743884Y-129053283D01*
X107743884Y-129053283D02*
X107820084Y-129015183D01*
X107820084Y-129015183D02*
X107858184Y-128977083D01*
X107858184Y-128977083D02*
X107896284Y-128900883D01*
X107896284Y-128900883D02*
X107896284Y-128824683D01*
X107896284Y-128824683D02*
X107858184Y-128748483D01*
X107858184Y-128748483D02*
X107820084Y-128710383D01*
X107820084Y-128710383D02*
X107743884Y-128672283D01*
X107743884Y-128672283D02*
X107591484Y-128634183D01*
X107591484Y-128634183D02*
X107515284Y-128596083D01*
X107515284Y-128596083D02*
X107477184Y-128557983D01*
X107477184Y-128557983D02*
X107439084Y-128481783D01*
X107439084Y-128481783D02*
X107439084Y-128405583D01*
X107439084Y-128405583D02*
X107477184Y-128329383D01*
X107477184Y-128329383D02*
X107515284Y-128291283D01*
X107515284Y-128291283D02*
X107591484Y-128253183D01*
X107591484Y-128253183D02*
X107781984Y-128253183D01*
X107781984Y-128253183D02*
X107896284Y-128291283D01*
X108239184Y-129053283D02*
X108239184Y-128253183D01*
X108239184Y-128253183D02*
X108429684Y-128253183D01*
X108429684Y-128253183D02*
X108543984Y-128291283D01*
X108543984Y-128291283D02*
X108620184Y-128367483D01*
X108620184Y-128367483D02*
X108658284Y-128443683D01*
X108658284Y-128443683D02*
X108696384Y-128596083D01*
X108696384Y-128596083D02*
X108696384Y-128710383D01*
X108696384Y-128710383D02*
X108658284Y-128862783D01*
X108658284Y-128862783D02*
X108620184Y-128938983D01*
X108620184Y-128938983D02*
X108543984Y-129015183D01*
X108543984Y-129015183D02*
X108429684Y-129053283D01*
X108429684Y-129053283D02*
X108239184Y-129053283D01*
X109001184Y-128824683D02*
X109382184Y-128824683D01*
X108924984Y-129053283D02*
X109191684Y-128253183D01*
X109191684Y-128253183D02*
X109458384Y-129053283D01*
X109725084Y-128519883D02*
X110334684Y-128748483D01*
X110334684Y-128748483D02*
X109725084Y-128977083D01*
X107439084Y-126602183D02*
X107553384Y-126640283D01*
X107553384Y-126640283D02*
X107743884Y-126640283D01*
X107743884Y-126640283D02*
X107820084Y-126602183D01*
X107820084Y-126602183D02*
X107858184Y-126564083D01*
X107858184Y-126564083D02*
X107896284Y-126487883D01*
X107896284Y-126487883D02*
X107896284Y-126411683D01*
X107896284Y-126411683D02*
X107858184Y-126335483D01*
X107858184Y-126335483D02*
X107820084Y-126297383D01*
X107820084Y-126297383D02*
X107743884Y-126259283D01*
X107743884Y-126259283D02*
X107591484Y-126221183D01*
X107591484Y-126221183D02*
X107515284Y-126183083D01*
X107515284Y-126183083D02*
X107477184Y-126144983D01*
X107477184Y-126144983D02*
X107439084Y-126068783D01*
X107439084Y-126068783D02*
X107439084Y-125992583D01*
X107439084Y-125992583D02*
X107477184Y-125916383D01*
X107477184Y-125916383D02*
X107515284Y-125878283D01*
X107515284Y-125878283D02*
X107591484Y-125840183D01*
X107591484Y-125840183D02*
X107781984Y-125840183D01*
X107781984Y-125840183D02*
X107896284Y-125878283D01*
X108696384Y-126564083D02*
X108658284Y-126602183D01*
X108658284Y-126602183D02*
X108543984Y-126640283D01*
X108543984Y-126640283D02*
X108467784Y-126640283D01*
X108467784Y-126640283D02*
X108353484Y-126602183D01*
X108353484Y-126602183D02*
X108277284Y-126525983D01*
X108277284Y-126525983D02*
X108239184Y-126449783D01*
X108239184Y-126449783D02*
X108201084Y-126297383D01*
X108201084Y-126297383D02*
X108201084Y-126183083D01*
X108201084Y-126183083D02*
X108239184Y-126030683D01*
X108239184Y-126030683D02*
X108277284Y-125954483D01*
X108277284Y-125954483D02*
X108353484Y-125878283D01*
X108353484Y-125878283D02*
X108467784Y-125840183D01*
X108467784Y-125840183D02*
X108543984Y-125840183D01*
X108543984Y-125840183D02*
X108658284Y-125878283D01*
X108658284Y-125878283D02*
X108696384Y-125916383D01*
X109420284Y-126640283D02*
X109039284Y-126640283D01*
X109039284Y-126640283D02*
X109039284Y-125840183D01*
X109686984Y-126106883D02*
X110296584Y-126335483D01*
X110296584Y-126335483D02*
X109686984Y-126564083D01*
X158124784Y-73846383D02*
X157515184Y-74074983D01*
X157515184Y-74074983D02*
X158124784Y-74303583D01*
X158924884Y-73617783D02*
X158848684Y-73579683D01*
X158848684Y-73579683D02*
X158734384Y-73579683D01*
X158734384Y-73579683D02*
X158620084Y-73617783D01*
X158620084Y-73617783D02*
X158543884Y-73693983D01*
X158543884Y-73693983D02*
X158505784Y-73770183D01*
X158505784Y-73770183D02*
X158467684Y-73922583D01*
X158467684Y-73922583D02*
X158467684Y-74036883D01*
X158467684Y-74036883D02*
X158505784Y-74189283D01*
X158505784Y-74189283D02*
X158543884Y-74265483D01*
X158543884Y-74265483D02*
X158620084Y-74341683D01*
X158620084Y-74341683D02*
X158734384Y-74379783D01*
X158734384Y-74379783D02*
X158810584Y-74379783D01*
X158810584Y-74379783D02*
X158924884Y-74341683D01*
X158924884Y-74341683D02*
X158962984Y-74303583D01*
X158962984Y-74303583D02*
X158962984Y-74036883D01*
X158962984Y-74036883D02*
X158810584Y-74036883D01*
X159305884Y-74379783D02*
X159305884Y-73579683D01*
X159305884Y-73579683D02*
X159763084Y-74379783D01*
X159763084Y-74379783D02*
X159763084Y-73579683D01*
X160144084Y-74379783D02*
X160144084Y-73579683D01*
X160144084Y-73579683D02*
X160334584Y-73579683D01*
X160334584Y-73579683D02*
X160448884Y-73617783D01*
X160448884Y-73617783D02*
X160525084Y-73693983D01*
X160525084Y-73693983D02*
X160563184Y-73770183D01*
X160563184Y-73770183D02*
X160601284Y-73922583D01*
X160601284Y-73922583D02*
X160601284Y-74036883D01*
X160601284Y-74036883D02*
X160563184Y-74189283D01*
X160563184Y-74189283D02*
X160525084Y-74265483D01*
X160525084Y-74265483D02*
X160448884Y-74341683D01*
X160448884Y-74341683D02*
X160334584Y-74379783D01*
X160334584Y-74379783D02*
X160144084Y-74379783D01*
X82166084Y-129269183D02*
X82280384Y-129307283D01*
X82280384Y-129307283D02*
X82470884Y-129307283D01*
X82470884Y-129307283D02*
X82547084Y-129269183D01*
X82547084Y-129269183D02*
X82585184Y-129231083D01*
X82585184Y-129231083D02*
X82623284Y-129154883D01*
X82623284Y-129154883D02*
X82623284Y-129078683D01*
X82623284Y-129078683D02*
X82585184Y-129002483D01*
X82585184Y-129002483D02*
X82547084Y-128964383D01*
X82547084Y-128964383D02*
X82470884Y-128926283D01*
X82470884Y-128926283D02*
X82318484Y-128888183D01*
X82318484Y-128888183D02*
X82242284Y-128850083D01*
X82242284Y-128850083D02*
X82204184Y-128811983D01*
X82204184Y-128811983D02*
X82166084Y-128735783D01*
X82166084Y-128735783D02*
X82166084Y-128659583D01*
X82166084Y-128659583D02*
X82204184Y-128583383D01*
X82204184Y-128583383D02*
X82242284Y-128545283D01*
X82242284Y-128545283D02*
X82318484Y-128507183D01*
X82318484Y-128507183D02*
X82508984Y-128507183D01*
X82508984Y-128507183D02*
X82623284Y-128545283D01*
X82966184Y-129307283D02*
X82966184Y-128507183D01*
X83766284Y-128545283D02*
X83690084Y-128507183D01*
X83690084Y-128507183D02*
X83575784Y-128507183D01*
X83575784Y-128507183D02*
X83461484Y-128545283D01*
X83461484Y-128545283D02*
X83385284Y-128621483D01*
X83385284Y-128621483D02*
X83347184Y-128697683D01*
X83347184Y-128697683D02*
X83309084Y-128850083D01*
X83309084Y-128850083D02*
X83309084Y-128964383D01*
X83309084Y-128964383D02*
X83347184Y-129116783D01*
X83347184Y-129116783D02*
X83385284Y-129192983D01*
X83385284Y-129192983D02*
X83461484Y-129269183D01*
X83461484Y-129269183D02*
X83575784Y-129307283D01*
X83575784Y-129307283D02*
X83651984Y-129307283D01*
X83651984Y-129307283D02*
X83766284Y-129269183D01*
X83766284Y-129269183D02*
X83804384Y-129231083D01*
X83804384Y-129231083D02*
X83804384Y-128964383D01*
X83804384Y-128964383D02*
X83651984Y-128964383D01*
X84147284Y-129307283D02*
X84147284Y-128507183D01*
X84147284Y-128507183D02*
X84604484Y-129307283D01*
X84604484Y-129307283D02*
X84604484Y-128507183D01*
X84947384Y-129078683D02*
X85328384Y-129078683D01*
X84871184Y-129307283D02*
X85137884Y-128507183D01*
X85137884Y-128507183D02*
X85404584Y-129307283D01*
X86052284Y-129307283D02*
X85671284Y-129307283D01*
X85671284Y-129307283D02*
X85671284Y-128507183D01*
X86318984Y-128773883D02*
X86928584Y-129002483D01*
X86928584Y-129002483D02*
X86318984Y-129231083D01*
X81550817Y-73060184D02*
X81550817Y-72679184D01*
X81550817Y-72679184D02*
X81169817Y-72641084D01*
X81169817Y-72641084D02*
X81207917Y-72679184D01*
X81207917Y-72679184D02*
X81246017Y-72755384D01*
X81246017Y-72755384D02*
X81246017Y-72945884D01*
X81246017Y-72945884D02*
X81207917Y-73022084D01*
X81207917Y-73022084D02*
X81169817Y-73060184D01*
X81169817Y-73060184D02*
X81093617Y-73098284D01*
X81093617Y-73098284D02*
X80903117Y-73098284D01*
X80903117Y-73098284D02*
X80826917Y-73060184D01*
X80826917Y-73060184D02*
X80788817Y-73022084D01*
X80788817Y-73022084D02*
X80750717Y-72945884D01*
X80750717Y-72945884D02*
X80750717Y-72755384D01*
X80750717Y-72755384D02*
X80788817Y-72679184D01*
X80788817Y-72679184D02*
X80826917Y-72641084D01*
X81550817Y-73326884D02*
X80750717Y-73593584D01*
X80750717Y-73593584D02*
X81550817Y-73860284D01*
X81284117Y-74126984D02*
X81055517Y-74736584D01*
X81055517Y-74736584D02*
X80826917Y-74126984D01*
D11*
G36*
X113000939Y-116219299D02*
G01*
X112531562Y-116646739D01*
X112422855Y-116505956D01*
X112297672Y-116387402D01*
X112155637Y-116308013D01*
X112028312Y-116285431D01*
X111866208Y-116322631D01*
X111823464Y-116351564D01*
X111744505Y-116494026D01*
X111744428Y-116499151D01*
X111800882Y-116654804D01*
X111915033Y-116771227D01*
X112036221Y-116879789D01*
X112174098Y-116997852D01*
X112266227Y-117074985D01*
X112392257Y-117178843D01*
X112528982Y-117293238D01*
X112658544Y-117405595D01*
X112705764Y-117450003D01*
X112825034Y-117579504D01*
X112924932Y-117716431D01*
X112979164Y-117816149D01*
X113034295Y-117974905D01*
X113058553Y-118146319D01*
X113059813Y-118197619D01*
X113046229Y-118366695D01*
X112997436Y-118543669D01*
X112913158Y-118703304D01*
X112810305Y-118828760D01*
X112775929Y-118862167D01*
X112643785Y-118964297D01*
X112495046Y-119041343D01*
X112329714Y-119093304D01*
X112147786Y-119120180D01*
X112036377Y-119124276D01*
X111864242Y-119112985D01*
X111703499Y-119079112D01*
X111536279Y-119014014D01*
X111416187Y-118943622D01*
X111288711Y-118839988D01*
X111170812Y-118710547D01*
X111075507Y-118576115D01*
X110987534Y-118421924D01*
X110963746Y-118374240D01*
X111496836Y-118040353D01*
X111589541Y-118198224D01*
X111704219Y-118341124D01*
X111843881Y-118450000D01*
X112011965Y-118503077D01*
X112050894Y-118504892D01*
X112217838Y-118475546D01*
X112325101Y-118412145D01*
X112423245Y-118276853D01*
X112436396Y-118196006D01*
X112393066Y-118037178D01*
X112352521Y-117975028D01*
X112240385Y-117855107D01*
X112112843Y-117741851D01*
X111982343Y-117634689D01*
X111852271Y-117529114D01*
X111706622Y-117405865D01*
X111579797Y-117292303D01*
X111452454Y-117168815D01*
X111338145Y-117042377D01*
X111279083Y-116963689D01*
X111195300Y-116816080D01*
X111138979Y-116653891D01*
X111120205Y-116491893D01*
X111136688Y-116328175D01*
X111194634Y-116158453D01*
X111281168Y-116020443D01*
X111383927Y-115909607D01*
X111523903Y-115803050D01*
X111679304Y-115726937D01*
X111850129Y-115681270D01*
X112012253Y-115666285D01*
X112036377Y-115666047D01*
X112205402Y-115680151D01*
X112368708Y-115722464D01*
X112512206Y-115785408D01*
X112656965Y-115878721D01*
X112793443Y-115995565D01*
X112919684Y-116125561D01*
X113000939Y-116219299D01*
G37*
G36*
X114925503Y-116552428D02*
G01*
X115091771Y-116579186D01*
X115247406Y-116623783D01*
X115420133Y-116700847D01*
X115577550Y-116803599D01*
X115697035Y-116908848D01*
X115821193Y-117054073D01*
X115919664Y-117215743D01*
X115992447Y-117393857D01*
X116033476Y-117554848D01*
X116056666Y-117727259D01*
X116062375Y-117873410D01*
X116059955Y-117988738D01*
X114070345Y-117988738D01*
X114111158Y-118154825D01*
X114188618Y-118311321D01*
X114300194Y-118440372D01*
X114441028Y-118535878D01*
X114606257Y-118591741D01*
X114777636Y-118608122D01*
X114945286Y-118591741D01*
X115100636Y-118542595D01*
X115243687Y-118460686D01*
X115374439Y-118346013D01*
X115896238Y-118587960D01*
X115793814Y-118716142D01*
X115667018Y-118839017D01*
X115527975Y-118939309D01*
X115428474Y-118993624D01*
X115267492Y-119056781D01*
X115110793Y-119095568D01*
X114941292Y-119118024D01*
X114782475Y-119124276D01*
X114606272Y-119115396D01*
X114440584Y-119088756D01*
X114285409Y-119044355D01*
X114113079Y-118967632D01*
X113955889Y-118865334D01*
X113836463Y-118760549D01*
X113712578Y-118617384D01*
X113614325Y-118461291D01*
X113541703Y-118292268D01*
X113494713Y-118110316D01*
X113475133Y-117948814D01*
X113471929Y-117847602D01*
X113480809Y-117676605D01*
X113505924Y-117524200D01*
X114097766Y-117524200D01*
X115438152Y-117524200D01*
X115368652Y-117369228D01*
X115259754Y-117239811D01*
X115196205Y-117188700D01*
X115053154Y-117110067D01*
X114893771Y-117067727D01*
X114778443Y-117059662D01*
X114607989Y-117076815D01*
X114452593Y-117128276D01*
X114324389Y-117204830D01*
X114206440Y-117329836D01*
X114124065Y-117469107D01*
X114097766Y-117524200D01*
X113505924Y-117524200D01*
X113507450Y-117514941D01*
X113562861Y-117333263D01*
X113643847Y-117165025D01*
X113750408Y-117010226D01*
X113835656Y-116914494D01*
X113978821Y-116788417D01*
X114134914Y-116688424D01*
X114303937Y-116614517D01*
X114485889Y-116566695D01*
X114647392Y-116546769D01*
X114748603Y-116543508D01*
X114925503Y-116552428D01*
G37*
G36*
X116545462Y-116595124D02*
G01*
X117162427Y-116595124D01*
X117162427Y-116854007D01*
X117290552Y-116755527D01*
X117433905Y-116664797D01*
X117544703Y-116612060D01*
X117706765Y-116562855D01*
X117872371Y-116543776D01*
X117894720Y-116543508D01*
X118071644Y-116559537D01*
X118234655Y-116607624D01*
X118383755Y-116687769D01*
X118518943Y-116799972D01*
X118623035Y-116938591D01*
X118686962Y-117089656D01*
X118723972Y-117266933D01*
X118734276Y-117443551D01*
X118734276Y-119072661D01*
X118122150Y-119072661D01*
X118122150Y-117993577D01*
X118120259Y-117814776D01*
X118113467Y-117645211D01*
X118096062Y-117472635D01*
X118082632Y-117408065D01*
X118014665Y-117260130D01*
X117943916Y-117187087D01*
X117794632Y-117120235D01*
X117700356Y-117111277D01*
X117535128Y-117138921D01*
X117393291Y-117221854D01*
X117376147Y-117237090D01*
X117274198Y-117364994D01*
X117208006Y-117516935D01*
X117189848Y-117583880D01*
X117170166Y-117751187D01*
X117163739Y-117928489D01*
X117162427Y-118083904D01*
X117162427Y-119072661D01*
X116545462Y-119072661D01*
X116545462Y-116595124D01*
G37*
G36*
X120830343Y-116969335D02*
G01*
X120447260Y-117369354D01*
X120319147Y-117244600D01*
X120184879Y-117153870D01*
X120023047Y-117111277D01*
X119863054Y-117152905D01*
X119859329Y-117155634D01*
X119800455Y-117263704D01*
X119837554Y-117354837D01*
X119979603Y-117446063D01*
X120023047Y-117467746D01*
X120249670Y-117580654D01*
X120395917Y-117657529D01*
X120536687Y-117746142D01*
X120673097Y-117858043D01*
X120742436Y-117937123D01*
X120824017Y-118082178D01*
X120867946Y-118245151D01*
X120876313Y-118363756D01*
X120857175Y-118538092D01*
X120799759Y-118695460D01*
X120704068Y-118835857D01*
X120634366Y-118906524D01*
X120503463Y-119001790D01*
X120351893Y-119069838D01*
X120179657Y-119110666D01*
X120011998Y-119124063D01*
X119986755Y-119124276D01*
X119823444Y-119114116D01*
X119641455Y-119075102D01*
X119474719Y-119006828D01*
X119323238Y-118909293D01*
X119187010Y-118782497D01*
X119124617Y-118708127D01*
X119506087Y-118298430D01*
X119632238Y-118408675D01*
X119760937Y-118485536D01*
X119915349Y-118542923D01*
X120020627Y-118556507D01*
X120183126Y-118521066D01*
X120218217Y-118498440D01*
X120293221Y-118363756D01*
X120216970Y-118216249D01*
X120071330Y-118114046D01*
X120023047Y-118088743D01*
X119814972Y-117986319D01*
X119642345Y-117889658D01*
X119498976Y-117785673D01*
X119365556Y-117651222D01*
X119274268Y-117506224D01*
X119225113Y-117350679D01*
X119215750Y-117241122D01*
X119237803Y-117069286D01*
X119303960Y-116913674D01*
X119414222Y-116774287D01*
X119441567Y-116748357D01*
X119578478Y-116649333D01*
X119735164Y-116582718D01*
X119911627Y-116548509D01*
X120018208Y-116543508D01*
X120180102Y-116556564D01*
X120349106Y-116600587D01*
X120470649Y-116653997D01*
X120608848Y-116740745D01*
X120731800Y-116850173D01*
X120830343Y-116969335D01*
G37*
G36*
X122683052Y-116554396D02*
G01*
X122849794Y-116587059D01*
X123011293Y-116641497D01*
X123167551Y-116717710D01*
X123313072Y-116812170D01*
X123441556Y-116922155D01*
X123553002Y-117047665D01*
X123647412Y-117188700D01*
X123722920Y-117340471D01*
X123776854Y-117498191D01*
X123809214Y-117661858D01*
X123820001Y-117831473D01*
X123809164Y-118002448D01*
X123776652Y-118167779D01*
X123722466Y-118327464D01*
X123646606Y-118481503D01*
X123551994Y-118624454D01*
X123441556Y-118750871D01*
X123315290Y-118860755D01*
X123173196Y-118954106D01*
X123019761Y-119028556D01*
X122858665Y-119081734D01*
X122689907Y-119113640D01*
X122513487Y-119124276D01*
X122351433Y-119115120D01*
X122166949Y-119079962D01*
X121993352Y-119018436D01*
X121830643Y-118930541D01*
X121678821Y-118816278D01*
X121606993Y-118749258D01*
X121498955Y-118627875D01*
X121393482Y-118471819D01*
X121314376Y-118304422D01*
X121261639Y-118125684D01*
X121235271Y-117935604D01*
X121231975Y-117836312D01*
X121232309Y-117830666D01*
X121848940Y-117830666D01*
X121863931Y-118003273D01*
X121915755Y-118172163D01*
X122004595Y-118316953D01*
X122038465Y-118355691D01*
X122166763Y-118461590D01*
X122314751Y-118528267D01*
X122482428Y-118555723D01*
X122518326Y-118556507D01*
X122690257Y-118536660D01*
X122843128Y-118477118D01*
X122976939Y-118377882D01*
X123001414Y-118353272D01*
X123103060Y-118214908D01*
X123167059Y-118053862D01*
X123192471Y-117889527D01*
X123194165Y-117830666D01*
X123179173Y-117660136D01*
X123127350Y-117493104D01*
X123038510Y-117349700D01*
X123004640Y-117311287D01*
X122875948Y-117205813D01*
X122726779Y-117139403D01*
X122557132Y-117112058D01*
X122520746Y-117111277D01*
X122349745Y-117131046D01*
X122197646Y-117190351D01*
X122064449Y-117289193D01*
X122040078Y-117313706D01*
X121939282Y-117450825D01*
X121875819Y-117610154D01*
X121850620Y-117772540D01*
X121848940Y-117830666D01*
X121232309Y-117830666D01*
X121242332Y-117661282D01*
X121273402Y-117495585D01*
X121325186Y-117339222D01*
X121397683Y-117192191D01*
X121490894Y-117054493D01*
X121604819Y-116926128D01*
X121656189Y-116877395D01*
X121799523Y-116763926D01*
X121950684Y-116673933D01*
X122109669Y-116607416D01*
X122276480Y-116564376D01*
X122451117Y-116544812D01*
X122511068Y-116543508D01*
X122683052Y-116554396D01*
G37*
G36*
X124165179Y-116595124D02*
G01*
X124695849Y-116595124D01*
X124695849Y-116899977D01*
X124782162Y-116763053D01*
X124907269Y-116646263D01*
X124924892Y-116634642D01*
X125075101Y-116566292D01*
X125238617Y-116543508D01*
X125401198Y-116569558D01*
X125490242Y-116603995D01*
X125297490Y-117114503D01*
X125141321Y-117061001D01*
X125118450Y-117059662D01*
X124963900Y-117122781D01*
X124876503Y-117238703D01*
X124820485Y-117402485D01*
X124794349Y-117572718D01*
X124781570Y-117756983D01*
X124778111Y-117941155D01*
X124779724Y-118062935D01*
X124779724Y-119072661D01*
X124165179Y-119072661D01*
X124165179Y-116595124D01*
G37*
G36*
X127836472Y-115719704D02*
G01*
X128003982Y-115727246D01*
X128166692Y-115742670D01*
X128326982Y-115772157D01*
X128340377Y-115775730D01*
X128498984Y-115830778D01*
X128652470Y-115916782D01*
X128782012Y-116028935D01*
X128816206Y-116067679D01*
X128909771Y-116208153D01*
X128968683Y-116363434D01*
X128992941Y-116533522D01*
X128993634Y-116569316D01*
X128975913Y-116738443D01*
X128922751Y-116891975D01*
X128912985Y-116911268D01*
X128815225Y-117050848D01*
X128694665Y-117165224D01*
X128650875Y-117199185D01*
X128792666Y-117276708D01*
X128927720Y-117374768D01*
X129047401Y-117497190D01*
X129095251Y-117563718D01*
X129169678Y-117708114D01*
X129216540Y-117868105D01*
X129235836Y-118043690D01*
X129236387Y-118080678D01*
X129222210Y-118254735D01*
X129179681Y-118419026D01*
X129108798Y-118573550D01*
X129091219Y-118603283D01*
X128992298Y-118738890D01*
X128864564Y-118861314D01*
X128717008Y-118955719D01*
X128556844Y-119017388D01*
X128383606Y-119053361D01*
X128206481Y-119069805D01*
X128084720Y-119072661D01*
X127149998Y-119072661D01*
X127149998Y-118453276D01*
X127784705Y-118453276D01*
X127943584Y-118453276D01*
X128125044Y-118446875D01*
X128290626Y-118424369D01*
X128447892Y-118369156D01*
X128475867Y-118350852D01*
X128578695Y-118225241D01*
X128612837Y-118065365D01*
X128612970Y-118053257D01*
X128586350Y-117888630D01*
X128498140Y-117746171D01*
X128451672Y-117704047D01*
X128300758Y-117625906D01*
X128129253Y-117588338D01*
X127962108Y-117576316D01*
X127916163Y-117575815D01*
X127784705Y-117575815D01*
X127784705Y-118453276D01*
X127149998Y-118453276D01*
X127149998Y-117008046D01*
X127784705Y-117008046D01*
X127923422Y-117008046D01*
X128091786Y-116992740D01*
X128244918Y-116931875D01*
X128266986Y-116915300D01*
X128360587Y-116780892D01*
X128379088Y-116662062D01*
X128337504Y-116499126D01*
X128272632Y-116424954D01*
X128117653Y-116353873D01*
X127948423Y-116337047D01*
X127784705Y-116337047D01*
X127784705Y-117008046D01*
X127149998Y-117008046D01*
X127149998Y-115717663D01*
X127674216Y-115717663D01*
X127836472Y-115719704D01*
G37*
G36*
X131093128Y-116554396D02*
G01*
X131259870Y-116587059D01*
X131421370Y-116641497D01*
X131577627Y-116717710D01*
X131723148Y-116812170D01*
X131851632Y-116922155D01*
X131963079Y-117047665D01*
X132057489Y-117188700D01*
X132132996Y-117340471D01*
X132186930Y-117498191D01*
X132219291Y-117661858D01*
X132230078Y-117831473D01*
X132219240Y-118002448D01*
X132186729Y-118167779D01*
X132132543Y-118327464D01*
X132056682Y-118481503D01*
X131962071Y-118624454D01*
X131851632Y-118750871D01*
X131725366Y-118860755D01*
X131583273Y-118954106D01*
X131429838Y-119028556D01*
X131268742Y-119081734D01*
X131099984Y-119113640D01*
X130923564Y-119124276D01*
X130761510Y-119115120D01*
X130577025Y-119079962D01*
X130403428Y-119018436D01*
X130240719Y-118930541D01*
X130088897Y-118816278D01*
X130017069Y-118749258D01*
X129909032Y-118627875D01*
X129803558Y-118471819D01*
X129724453Y-118304422D01*
X129671716Y-118125684D01*
X129645348Y-117935604D01*
X129642051Y-117836312D01*
X129642385Y-117830666D01*
X130259016Y-117830666D01*
X130274008Y-118003273D01*
X130325831Y-118172163D01*
X130414671Y-118316953D01*
X130448541Y-118355691D01*
X130576839Y-118461590D01*
X130724827Y-118528267D01*
X130892505Y-118555723D01*
X130928403Y-118556507D01*
X131100333Y-118536660D01*
X131253204Y-118477118D01*
X131387015Y-118377882D01*
X131411490Y-118353272D01*
X131513136Y-118214908D01*
X131577136Y-118053862D01*
X131602547Y-117889527D01*
X131604241Y-117830666D01*
X131589250Y-117660136D01*
X131537426Y-117493104D01*
X131448586Y-117349700D01*
X131414716Y-117311287D01*
X131286024Y-117205813D01*
X131136855Y-117139403D01*
X130967209Y-117112058D01*
X130930822Y-117111277D01*
X130759821Y-117131046D01*
X130607722Y-117190351D01*
X130474525Y-117289193D01*
X130450154Y-117313706D01*
X130349359Y-117450825D01*
X130285895Y-117610154D01*
X130260696Y-117772540D01*
X130259016Y-117830666D01*
X129642385Y-117830666D01*
X129652408Y-117661282D01*
X129683479Y-117495585D01*
X129735263Y-117339222D01*
X129807760Y-117192191D01*
X129900971Y-117054493D01*
X130014896Y-116926128D01*
X130066265Y-116877395D01*
X130209600Y-116763926D01*
X130360760Y-116673933D01*
X130519746Y-116607416D01*
X130686557Y-116564376D01*
X130861193Y-116544812D01*
X130921144Y-116543508D01*
X131093128Y-116554396D01*
G37*
G36*
X133929037Y-116555076D02*
G01*
X134096735Y-116593717D01*
X134183396Y-116625770D01*
X134337047Y-116705662D01*
X134470137Y-116803745D01*
X134543897Y-116871750D01*
X134543897Y-116595124D01*
X135160862Y-116595124D01*
X135160862Y-119072661D01*
X134543897Y-119072661D01*
X134543897Y-118804906D01*
X134418952Y-118910193D01*
X134282215Y-118999619D01*
X134179364Y-119049272D01*
X134014014Y-119100544D01*
X133849971Y-119122445D01*
X133784184Y-119124276D01*
X133609377Y-119111318D01*
X133443643Y-119072446D01*
X133286983Y-119007659D01*
X133139395Y-118916958D01*
X133000880Y-118800341D01*
X132956725Y-118755710D01*
X132838048Y-118610929D01*
X132743925Y-118453617D01*
X132674356Y-118283772D01*
X132629340Y-118101395D01*
X132610584Y-117939841D01*
X132607515Y-117838731D01*
X132607977Y-117829053D01*
X133224480Y-117829053D01*
X133239790Y-117998860D01*
X133292716Y-118166585D01*
X133383446Y-118312257D01*
X133418037Y-118351659D01*
X133548178Y-118459684D01*
X133695646Y-118527700D01*
X133860441Y-118555707D01*
X133895479Y-118556507D01*
X134068685Y-118536817D01*
X134222360Y-118477748D01*
X134356502Y-118379300D01*
X134380986Y-118354885D01*
X134482632Y-118216742D01*
X134546631Y-118054341D01*
X134572043Y-117887440D01*
X134573737Y-117827440D01*
X134558490Y-117657038D01*
X134505785Y-117490447D01*
X134415433Y-117347799D01*
X134380986Y-117309674D01*
X134250514Y-117205050D01*
X134100038Y-117139177D01*
X133929556Y-117112052D01*
X133893060Y-117111277D01*
X133722641Y-117130967D01*
X133571283Y-117190036D01*
X133438984Y-117288484D01*
X133414811Y-117312900D01*
X133314441Y-117449940D01*
X133251245Y-117609033D01*
X133226152Y-117771071D01*
X133224480Y-117829053D01*
X132607977Y-117829053D01*
X132615765Y-117666072D01*
X132640515Y-117503455D01*
X132691995Y-117321569D01*
X132767234Y-117154144D01*
X132866234Y-117001179D01*
X132945434Y-116907235D01*
X133077257Y-116783625D01*
X133219288Y-116685589D01*
X133371525Y-116613128D01*
X133533970Y-116566241D01*
X133706622Y-116544929D01*
X133766441Y-116543508D01*
X133929037Y-116555076D01*
G37*
G36*
X135627013Y-116595124D02*
G01*
X136157683Y-116595124D01*
X136157683Y-116899977D01*
X136243997Y-116763053D01*
X136369103Y-116646263D01*
X136386726Y-116634642D01*
X136536935Y-116566292D01*
X136700451Y-116543508D01*
X136863033Y-116569558D01*
X136952076Y-116603995D01*
X136759325Y-117114503D01*
X136603155Y-117061001D01*
X136580284Y-117059662D01*
X136425734Y-117122781D01*
X136338337Y-117238703D01*
X136282319Y-117402485D01*
X136256184Y-117572718D01*
X136243404Y-117756983D01*
X136239945Y-117941155D01*
X136241558Y-118062935D01*
X136241558Y-119072661D01*
X135627013Y-119072661D01*
X135627013Y-116595124D01*
G37*
G36*
X139690109Y-119072661D02*
G01*
X139073144Y-119072661D01*
X139073144Y-118804906D01*
X138948200Y-118910193D01*
X138811462Y-118999619D01*
X138708611Y-119049272D01*
X138543261Y-119100544D01*
X138379218Y-119122445D01*
X138313431Y-119124276D01*
X138138624Y-119111318D01*
X137972890Y-119072446D01*
X137816230Y-119007659D01*
X137668642Y-118916958D01*
X137530127Y-118800341D01*
X137485972Y-118755710D01*
X137367295Y-118610929D01*
X137273172Y-118453617D01*
X137203603Y-118283772D01*
X137158588Y-118101395D01*
X137139831Y-117939841D01*
X137136762Y-117838731D01*
X137137224Y-117829053D01*
X137753727Y-117829053D01*
X137769037Y-117998860D01*
X137821963Y-118166585D01*
X137912693Y-118312257D01*
X137947284Y-118351659D01*
X138077425Y-118459684D01*
X138224893Y-118527700D01*
X138389688Y-118555707D01*
X138424726Y-118556507D01*
X138597933Y-118536817D01*
X138751607Y-118477748D01*
X138885749Y-118379300D01*
X138910233Y-118354885D01*
X139011879Y-118216742D01*
X139075879Y-118054341D01*
X139101290Y-117887440D01*
X139102984Y-117827440D01*
X139087737Y-117657038D01*
X139035032Y-117490447D01*
X138944680Y-117347799D01*
X138910233Y-117309674D01*
X138779761Y-117205050D01*
X138629285Y-117139177D01*
X138458804Y-117112052D01*
X138422307Y-117111277D01*
X138251889Y-117130967D01*
X138100530Y-117190036D01*
X137968231Y-117288484D01*
X137944058Y-117312900D01*
X137843688Y-117449940D01*
X137780492Y-117609033D01*
X137755400Y-117771071D01*
X137753727Y-117829053D01*
X137137224Y-117829053D01*
X137145012Y-117666072D01*
X137169762Y-117503455D01*
X137221242Y-117321569D01*
X137296482Y-117154144D01*
X137395481Y-117001179D01*
X137474681Y-116907235D01*
X137606505Y-116783625D01*
X137748535Y-116685589D01*
X137900773Y-116613128D01*
X138063217Y-116566241D01*
X138235869Y-116544929D01*
X138295688Y-116543508D01*
X138458284Y-116555190D01*
X138625983Y-116594209D01*
X138712643Y-116626577D01*
X138866294Y-116707912D01*
X138999384Y-116807564D01*
X139073144Y-116876589D01*
X139073144Y-115666047D01*
X139690109Y-115666047D01*
X139690109Y-119072661D01*
G37*
D10*
X86338717Y-85887184D02*
X87138817Y-85887184D01*
X86757817Y-85887184D02*
X86757817Y-86344384D01*
X86338717Y-86344384D02*
X87138817Y-86344384D01*
X86872117Y-86725384D02*
X86643517Y-87334984D01*
X86643517Y-87334984D02*
X86414917Y-86725384D01*
X86978183Y-121541916D02*
X87016283Y-121427616D01*
X87016283Y-121427616D02*
X87016283Y-121237116D01*
X87016283Y-121237116D02*
X86978183Y-121160916D01*
X86978183Y-121160916D02*
X86940083Y-121122816D01*
X86940083Y-121122816D02*
X86863883Y-121084716D01*
X86863883Y-121084716D02*
X86787683Y-121084716D01*
X86787683Y-121084716D02*
X86711483Y-121122816D01*
X86711483Y-121122816D02*
X86673383Y-121160916D01*
X86673383Y-121160916D02*
X86635283Y-121237116D01*
X86635283Y-121237116D02*
X86597183Y-121389516D01*
X86597183Y-121389516D02*
X86559083Y-121465716D01*
X86559083Y-121465716D02*
X86520983Y-121503816D01*
X86520983Y-121503816D02*
X86444783Y-121541916D01*
X86444783Y-121541916D02*
X86368583Y-121541916D01*
X86368583Y-121541916D02*
X86292383Y-121503816D01*
X86292383Y-121503816D02*
X86254283Y-121465716D01*
X86254283Y-121465716D02*
X86216183Y-121389516D01*
X86216183Y-121389516D02*
X86216183Y-121199016D01*
X86216183Y-121199016D02*
X86254283Y-121084716D01*
X87016283Y-120741816D02*
X86216183Y-120741816D01*
X86254283Y-119941716D02*
X86216183Y-120017916D01*
X86216183Y-120017916D02*
X86216183Y-120132216D01*
X86216183Y-120132216D02*
X86254283Y-120246516D01*
X86254283Y-120246516D02*
X86330483Y-120322716D01*
X86330483Y-120322716D02*
X86406683Y-120360816D01*
X86406683Y-120360816D02*
X86559083Y-120398916D01*
X86559083Y-120398916D02*
X86673383Y-120398916D01*
X86673383Y-120398916D02*
X86825783Y-120360816D01*
X86825783Y-120360816D02*
X86901983Y-120322716D01*
X86901983Y-120322716D02*
X86978183Y-120246516D01*
X86978183Y-120246516D02*
X87016283Y-120132216D01*
X87016283Y-120132216D02*
X87016283Y-120056016D01*
X87016283Y-120056016D02*
X86978183Y-119941716D01*
X86978183Y-119941716D02*
X86940083Y-119903616D01*
X86940083Y-119903616D02*
X86673383Y-119903616D01*
X86673383Y-119903616D02*
X86673383Y-120056016D01*
X87016283Y-119560716D02*
X86216183Y-119560716D01*
X86216183Y-119560716D02*
X87016283Y-119103516D01*
X87016283Y-119103516D02*
X86216183Y-119103516D01*
X86787683Y-118760616D02*
X86787683Y-118379616D01*
X87016283Y-118836816D02*
X86216183Y-118570116D01*
X86216183Y-118570116D02*
X87016283Y-118303416D01*
X87016283Y-117655716D02*
X87016283Y-118036716D01*
X87016283Y-118036716D02*
X86216183Y-118036716D01*
X86482883Y-117389016D02*
X86711483Y-116779416D01*
X86711483Y-116779416D02*
X86940083Y-117389016D01*
X158124784Y-72639883D02*
X157515184Y-72868483D01*
X157515184Y-72868483D02*
X158124784Y-73097083D01*
X158886784Y-72373183D02*
X158505784Y-72373183D01*
X158505784Y-72373183D02*
X158467684Y-72754183D01*
X158467684Y-72754183D02*
X158505784Y-72716083D01*
X158505784Y-72716083D02*
X158581984Y-72677983D01*
X158581984Y-72677983D02*
X158772484Y-72677983D01*
X158772484Y-72677983D02*
X158848684Y-72716083D01*
X158848684Y-72716083D02*
X158886784Y-72754183D01*
X158886784Y-72754183D02*
X158924884Y-72830383D01*
X158924884Y-72830383D02*
X158924884Y-73020883D01*
X158924884Y-73020883D02*
X158886784Y-73097083D01*
X158886784Y-73097083D02*
X158848684Y-73135183D01*
X158848684Y-73135183D02*
X158772484Y-73173283D01*
X158772484Y-73173283D02*
X158581984Y-73173283D01*
X158581984Y-73173283D02*
X158505784Y-73135183D01*
X158505784Y-73135183D02*
X158467684Y-73097083D01*
X159153484Y-72373183D02*
X159420184Y-73173283D01*
X159420184Y-73173283D02*
X159686884Y-72373183D01*
X83841283Y-119433716D02*
X83803183Y-119509916D01*
X83803183Y-119509916D02*
X83803183Y-119624216D01*
X83803183Y-119624216D02*
X83841283Y-119738516D01*
X83841283Y-119738516D02*
X83917483Y-119814716D01*
X83917483Y-119814716D02*
X83993683Y-119852816D01*
X83993683Y-119852816D02*
X84146083Y-119890916D01*
X84146083Y-119890916D02*
X84260383Y-119890916D01*
X84260383Y-119890916D02*
X84412783Y-119852816D01*
X84412783Y-119852816D02*
X84488983Y-119814716D01*
X84488983Y-119814716D02*
X84565183Y-119738516D01*
X84565183Y-119738516D02*
X84603283Y-119624216D01*
X84603283Y-119624216D02*
X84603283Y-119548016D01*
X84603283Y-119548016D02*
X84565183Y-119433716D01*
X84565183Y-119433716D02*
X84527083Y-119395616D01*
X84527083Y-119395616D02*
X84260383Y-119395616D01*
X84260383Y-119395616D02*
X84260383Y-119548016D01*
X84603283Y-119052716D02*
X83803183Y-119052716D01*
X83803183Y-119052716D02*
X84603283Y-118595516D01*
X84603283Y-118595516D02*
X83803183Y-118595516D01*
X84603283Y-118214516D02*
X83803183Y-118214516D01*
X83803183Y-118214516D02*
X83803183Y-118024016D01*
X83803183Y-118024016D02*
X83841283Y-117909716D01*
X83841283Y-117909716D02*
X83917483Y-117833516D01*
X83917483Y-117833516D02*
X83993683Y-117795416D01*
X83993683Y-117795416D02*
X84146083Y-117757316D01*
X84146083Y-117757316D02*
X84260383Y-117757316D01*
X84260383Y-117757316D02*
X84412783Y-117795416D01*
X84412783Y-117795416D02*
X84488983Y-117833516D01*
X84488983Y-117833516D02*
X84565183Y-117909716D01*
X84565183Y-117909716D02*
X84603283Y-118024016D01*
X84603283Y-118024016D02*
X84603283Y-118214516D01*
X84069883Y-117414416D02*
X84298483Y-116804816D01*
X84298483Y-116804816D02*
X84527083Y-117414416D01*
X88878717Y-86395184D02*
X88878717Y-86014184D01*
X88878717Y-86014184D02*
X89678817Y-86014184D01*
X89412117Y-86661884D02*
X89183517Y-87271484D01*
X89183517Y-87271484D02*
X88954917Y-86661884D01*
X84274284Y-130958283D02*
X84198084Y-130920183D01*
X84198084Y-130920183D02*
X84083784Y-130920183D01*
X84083784Y-130920183D02*
X83969484Y-130958283D01*
X83969484Y-130958283D02*
X83893284Y-131034483D01*
X83893284Y-131034483D02*
X83855184Y-131110683D01*
X83855184Y-131110683D02*
X83817084Y-131263083D01*
X83817084Y-131263083D02*
X83817084Y-131377383D01*
X83817084Y-131377383D02*
X83855184Y-131529783D01*
X83855184Y-131529783D02*
X83893284Y-131605983D01*
X83893284Y-131605983D02*
X83969484Y-131682183D01*
X83969484Y-131682183D02*
X84083784Y-131720283D01*
X84083784Y-131720283D02*
X84159984Y-131720283D01*
X84159984Y-131720283D02*
X84274284Y-131682183D01*
X84274284Y-131682183D02*
X84312384Y-131644083D01*
X84312384Y-131644083D02*
X84312384Y-131377383D01*
X84312384Y-131377383D02*
X84159984Y-131377383D01*
X84655284Y-131720283D02*
X84655284Y-130920183D01*
X84655284Y-130920183D02*
X85112484Y-131720283D01*
X85112484Y-131720283D02*
X85112484Y-130920183D01*
X85493484Y-131720283D02*
X85493484Y-130920183D01*
X85493484Y-130920183D02*
X85683984Y-130920183D01*
X85683984Y-130920183D02*
X85798284Y-130958283D01*
X85798284Y-130958283D02*
X85874484Y-131034483D01*
X85874484Y-131034483D02*
X85912584Y-131110683D01*
X85912584Y-131110683D02*
X85950684Y-131263083D01*
X85950684Y-131263083D02*
X85950684Y-131377383D01*
X85950684Y-131377383D02*
X85912584Y-131529783D01*
X85912584Y-131529783D02*
X85874484Y-131605983D01*
X85874484Y-131605983D02*
X85798284Y-131682183D01*
X85798284Y-131682183D02*
X85683984Y-131720283D01*
X85683984Y-131720283D02*
X85493484Y-131720283D01*
X86293584Y-131186883D02*
X86903184Y-131415483D01*
X86903184Y-131415483D02*
X86293584Y-131644083D01*
X97964884Y-125840183D02*
X98422084Y-125840183D01*
X98193484Y-126640283D02*
X98193484Y-125840183D01*
X98612584Y-125840183D02*
X99145984Y-126640283D01*
X99145984Y-125840183D02*
X98612584Y-126640283D01*
X99450784Y-126106883D02*
X100060384Y-126335483D01*
X100060384Y-126335483D02*
X99450784Y-126564083D01*
X143684667Y-137249819D02*
X144351333Y-137249819D01*
X144351333Y-137249819D02*
X143922762Y-138249819D01*
X131953237Y-138154580D02*
X131905618Y-138202200D01*
X131905618Y-138202200D02*
X131762761Y-138249819D01*
X131762761Y-138249819D02*
X131667523Y-138249819D01*
X131667523Y-138249819D02*
X131524666Y-138202200D01*
X131524666Y-138202200D02*
X131429428Y-138106961D01*
X131429428Y-138106961D02*
X131381809Y-138011723D01*
X131381809Y-138011723D02*
X131334190Y-137821247D01*
X131334190Y-137821247D02*
X131334190Y-137678390D01*
X131334190Y-137678390D02*
X131381809Y-137487914D01*
X131381809Y-137487914D02*
X131429428Y-137392676D01*
X131429428Y-137392676D02*
X131524666Y-137297438D01*
X131524666Y-137297438D02*
X131667523Y-137249819D01*
X131667523Y-137249819D02*
X131762761Y-137249819D01*
X131762761Y-137249819D02*
X131905618Y-137297438D01*
X131905618Y-137297438D02*
X131953237Y-137345057D01*
X132524666Y-138249819D02*
X132429428Y-138202200D01*
X132429428Y-138202200D02*
X132381809Y-138154580D01*
X132381809Y-138154580D02*
X132334190Y-138059342D01*
X132334190Y-138059342D02*
X132334190Y-137773628D01*
X132334190Y-137773628D02*
X132381809Y-137678390D01*
X132381809Y-137678390D02*
X132429428Y-137630771D01*
X132429428Y-137630771D02*
X132524666Y-137583152D01*
X132524666Y-137583152D02*
X132667523Y-137583152D01*
X132667523Y-137583152D02*
X132762761Y-137630771D01*
X132762761Y-137630771D02*
X132810380Y-137678390D01*
X132810380Y-137678390D02*
X132857999Y-137773628D01*
X132857999Y-137773628D02*
X132857999Y-138059342D01*
X132857999Y-138059342D02*
X132810380Y-138154580D01*
X132810380Y-138154580D02*
X132762761Y-138202200D01*
X132762761Y-138202200D02*
X132667523Y-138249819D01*
X132667523Y-138249819D02*
X132524666Y-138249819D01*
X133715142Y-138249819D02*
X133715142Y-137249819D01*
X133715142Y-138202200D02*
X133619904Y-138249819D01*
X133619904Y-138249819D02*
X133429428Y-138249819D01*
X133429428Y-138249819D02*
X133334190Y-138202200D01*
X133334190Y-138202200D02*
X133286571Y-138154580D01*
X133286571Y-138154580D02*
X133238952Y-138059342D01*
X133238952Y-138059342D02*
X133238952Y-137773628D01*
X133238952Y-137773628D02*
X133286571Y-137678390D01*
X133286571Y-137678390D02*
X133334190Y-137630771D01*
X133334190Y-137630771D02*
X133429428Y-137583152D01*
X133429428Y-137583152D02*
X133619904Y-137583152D01*
X133619904Y-137583152D02*
X133715142Y-137630771D01*
X134572285Y-138202200D02*
X134477047Y-138249819D01*
X134477047Y-138249819D02*
X134286571Y-138249819D01*
X134286571Y-138249819D02*
X134191333Y-138202200D01*
X134191333Y-138202200D02*
X134143714Y-138106961D01*
X134143714Y-138106961D02*
X134143714Y-137726009D01*
X134143714Y-137726009D02*
X134191333Y-137630771D01*
X134191333Y-137630771D02*
X134286571Y-137583152D01*
X134286571Y-137583152D02*
X134477047Y-137583152D01*
X134477047Y-137583152D02*
X134572285Y-137630771D01*
X134572285Y-137630771D02*
X134619904Y-137726009D01*
X134619904Y-137726009D02*
X134619904Y-137821247D01*
X134619904Y-137821247D02*
X134143714Y-137916485D01*
X134810381Y-138345057D02*
X135572285Y-138345057D01*
X136143714Y-137726009D02*
X136286571Y-137773628D01*
X136286571Y-137773628D02*
X136334190Y-137821247D01*
X136334190Y-137821247D02*
X136381809Y-137916485D01*
X136381809Y-137916485D02*
X136381809Y-138059342D01*
X136381809Y-138059342D02*
X136334190Y-138154580D01*
X136334190Y-138154580D02*
X136286571Y-138202200D01*
X136286571Y-138202200D02*
X136191333Y-138249819D01*
X136191333Y-138249819D02*
X135810381Y-138249819D01*
X135810381Y-138249819D02*
X135810381Y-137249819D01*
X135810381Y-137249819D02*
X136143714Y-137249819D01*
X136143714Y-137249819D02*
X136238952Y-137297438D01*
X136238952Y-137297438D02*
X136286571Y-137345057D01*
X136286571Y-137345057D02*
X136334190Y-137440295D01*
X136334190Y-137440295D02*
X136334190Y-137535533D01*
X136334190Y-137535533D02*
X136286571Y-137630771D01*
X136286571Y-137630771D02*
X136238952Y-137678390D01*
X136238952Y-137678390D02*
X136143714Y-137726009D01*
X136143714Y-137726009D02*
X135810381Y-137726009D01*
X122642333Y-80369580D02*
X122594714Y-80417200D01*
X122594714Y-80417200D02*
X122451857Y-80464819D01*
X122451857Y-80464819D02*
X122356619Y-80464819D01*
X122356619Y-80464819D02*
X122213762Y-80417200D01*
X122213762Y-80417200D02*
X122118524Y-80321961D01*
X122118524Y-80321961D02*
X122070905Y-80226723D01*
X122070905Y-80226723D02*
X122023286Y-80036247D01*
X122023286Y-80036247D02*
X122023286Y-79893390D01*
X122023286Y-79893390D02*
X122070905Y-79702914D01*
X122070905Y-79702914D02*
X122118524Y-79607676D01*
X122118524Y-79607676D02*
X122213762Y-79512438D01*
X122213762Y-79512438D02*
X122356619Y-79464819D01*
X122356619Y-79464819D02*
X122451857Y-79464819D01*
X122451857Y-79464819D02*
X122594714Y-79512438D01*
X122594714Y-79512438D02*
X122642333Y-79560057D01*
X123594714Y-80464819D02*
X123023286Y-80464819D01*
X123309000Y-80464819D02*
X123309000Y-79464819D01*
X123309000Y-79464819D02*
X123213762Y-79607676D01*
X123213762Y-79607676D02*
X123118524Y-79702914D01*
X123118524Y-79702914D02*
X123023286Y-79750533D01*
X156241952Y-60144866D02*
X156289571Y-60097247D01*
X156289571Y-60097247D02*
X156384809Y-60049628D01*
X156384809Y-60049628D02*
X156575285Y-60144866D01*
X156575285Y-60144866D02*
X156670523Y-60097247D01*
X156670523Y-60097247D02*
X156718142Y-60049628D01*
X157670523Y-60525819D02*
X157337190Y-60049628D01*
X157099095Y-60525819D02*
X157099095Y-59525819D01*
X157099095Y-59525819D02*
X157480047Y-59525819D01*
X157480047Y-59525819D02*
X157575285Y-59573438D01*
X157575285Y-59573438D02*
X157622904Y-59621057D01*
X157622904Y-59621057D02*
X157670523Y-59716295D01*
X157670523Y-59716295D02*
X157670523Y-59859152D01*
X157670523Y-59859152D02*
X157622904Y-59954390D01*
X157622904Y-59954390D02*
X157575285Y-60002009D01*
X157575285Y-60002009D02*
X157480047Y-60049628D01*
X157480047Y-60049628D02*
X157099095Y-60049628D01*
X158051476Y-60478200D02*
X158194333Y-60525819D01*
X158194333Y-60525819D02*
X158432428Y-60525819D01*
X158432428Y-60525819D02*
X158527666Y-60478200D01*
X158527666Y-60478200D02*
X158575285Y-60430580D01*
X158575285Y-60430580D02*
X158622904Y-60335342D01*
X158622904Y-60335342D02*
X158622904Y-60240104D01*
X158622904Y-60240104D02*
X158575285Y-60144866D01*
X158575285Y-60144866D02*
X158527666Y-60097247D01*
X158527666Y-60097247D02*
X158432428Y-60049628D01*
X158432428Y-60049628D02*
X158241952Y-60002009D01*
X158241952Y-60002009D02*
X158146714Y-59954390D01*
X158146714Y-59954390D02*
X158099095Y-59906771D01*
X158099095Y-59906771D02*
X158051476Y-59811533D01*
X158051476Y-59811533D02*
X158051476Y-59716295D01*
X158051476Y-59716295D02*
X158099095Y-59621057D01*
X158099095Y-59621057D02*
X158146714Y-59573438D01*
X158146714Y-59573438D02*
X158241952Y-59525819D01*
X158241952Y-59525819D02*
X158480047Y-59525819D01*
X158480047Y-59525819D02*
X158622904Y-59573438D01*
X158908619Y-59525819D02*
X159480047Y-59525819D01*
X159194333Y-60525819D02*
X159194333Y-59525819D01*
X78083580Y-91447857D02*
X78131200Y-91495476D01*
X78131200Y-91495476D02*
X78178819Y-91638333D01*
X78178819Y-91638333D02*
X78178819Y-91733571D01*
X78178819Y-91733571D02*
X78131200Y-91876428D01*
X78131200Y-91876428D02*
X78035961Y-91971666D01*
X78035961Y-91971666D02*
X77940723Y-92019285D01*
X77940723Y-92019285D02*
X77750247Y-92066904D01*
X77750247Y-92066904D02*
X77607390Y-92066904D01*
X77607390Y-92066904D02*
X77416914Y-92019285D01*
X77416914Y-92019285D02*
X77321676Y-91971666D01*
X77321676Y-91971666D02*
X77226438Y-91876428D01*
X77226438Y-91876428D02*
X77178819Y-91733571D01*
X77178819Y-91733571D02*
X77178819Y-91638333D01*
X77178819Y-91638333D02*
X77226438Y-91495476D01*
X77226438Y-91495476D02*
X77274057Y-91447857D01*
X77893104Y-91066904D02*
X77893104Y-90590714D01*
X78178819Y-91162142D02*
X77178819Y-90828809D01*
X77178819Y-90828809D02*
X78178819Y-90495476D01*
X78178819Y-90162142D02*
X77178819Y-90162142D01*
X77178819Y-90162142D02*
X78178819Y-89590714D01*
X78178819Y-89590714D02*
X77178819Y-89590714D01*
X93559333Y-121358819D02*
X93226000Y-120882628D01*
X92987905Y-121358819D02*
X92987905Y-120358819D01*
X92987905Y-120358819D02*
X93368857Y-120358819D01*
X93368857Y-120358819D02*
X93464095Y-120406438D01*
X93464095Y-120406438D02*
X93511714Y-120454057D01*
X93511714Y-120454057D02*
X93559333Y-120549295D01*
X93559333Y-120549295D02*
X93559333Y-120692152D01*
X93559333Y-120692152D02*
X93511714Y-120787390D01*
X93511714Y-120787390D02*
X93464095Y-120835009D01*
X93464095Y-120835009D02*
X93368857Y-120882628D01*
X93368857Y-120882628D02*
X92987905Y-120882628D01*
X94416476Y-120358819D02*
X94226000Y-120358819D01*
X94226000Y-120358819D02*
X94130762Y-120406438D01*
X94130762Y-120406438D02*
X94083143Y-120454057D01*
X94083143Y-120454057D02*
X93987905Y-120596914D01*
X93987905Y-120596914D02*
X93940286Y-120787390D01*
X93940286Y-120787390D02*
X93940286Y-121168342D01*
X93940286Y-121168342D02*
X93987905Y-121263580D01*
X93987905Y-121263580D02*
X94035524Y-121311200D01*
X94035524Y-121311200D02*
X94130762Y-121358819D01*
X94130762Y-121358819D02*
X94321238Y-121358819D01*
X94321238Y-121358819D02*
X94416476Y-121311200D01*
X94416476Y-121311200D02*
X94464095Y-121263580D01*
X94464095Y-121263580D02*
X94511714Y-121168342D01*
X94511714Y-121168342D02*
X94511714Y-120930247D01*
X94511714Y-120930247D02*
X94464095Y-120835009D01*
X94464095Y-120835009D02*
X94416476Y-120787390D01*
X94416476Y-120787390D02*
X94321238Y-120739771D01*
X94321238Y-120739771D02*
X94130762Y-120739771D01*
X94130762Y-120739771D02*
X94035524Y-120787390D01*
X94035524Y-120787390D02*
X93987905Y-120835009D01*
X93987905Y-120835009D02*
X93940286Y-120930247D01*
X104815666Y-59525819D02*
X105387094Y-59525819D01*
X105101380Y-60525819D02*
X105101380Y-59525819D01*
X106101380Y-60478200D02*
X106006142Y-60525819D01*
X106006142Y-60525819D02*
X105815666Y-60525819D01*
X105815666Y-60525819D02*
X105720428Y-60478200D01*
X105720428Y-60478200D02*
X105672809Y-60382961D01*
X105672809Y-60382961D02*
X105672809Y-60002009D01*
X105672809Y-60002009D02*
X105720428Y-59906771D01*
X105720428Y-59906771D02*
X105815666Y-59859152D01*
X105815666Y-59859152D02*
X106006142Y-59859152D01*
X106006142Y-59859152D02*
X106101380Y-59906771D01*
X106101380Y-59906771D02*
X106148999Y-60002009D01*
X106148999Y-60002009D02*
X106148999Y-60097247D01*
X106148999Y-60097247D02*
X105672809Y-60192485D01*
X106577571Y-60525819D02*
X106577571Y-59859152D01*
X106577571Y-59954390D02*
X106625190Y-59906771D01*
X106625190Y-59906771D02*
X106720428Y-59859152D01*
X106720428Y-59859152D02*
X106863285Y-59859152D01*
X106863285Y-59859152D02*
X106958523Y-59906771D01*
X106958523Y-59906771D02*
X107006142Y-60002009D01*
X107006142Y-60002009D02*
X107006142Y-60525819D01*
X107006142Y-60002009D02*
X107053761Y-59906771D01*
X107053761Y-59906771D02*
X107148999Y-59859152D01*
X107148999Y-59859152D02*
X107291856Y-59859152D01*
X107291856Y-59859152D02*
X107387095Y-59906771D01*
X107387095Y-59906771D02*
X107434714Y-60002009D01*
X107434714Y-60002009D02*
X107434714Y-60525819D01*
X107910904Y-59859152D02*
X107910904Y-60859152D01*
X107910904Y-59906771D02*
X108006142Y-59859152D01*
X108006142Y-59859152D02*
X108196618Y-59859152D01*
X108196618Y-59859152D02*
X108291856Y-59906771D01*
X108291856Y-59906771D02*
X108339475Y-59954390D01*
X108339475Y-59954390D02*
X108387094Y-60049628D01*
X108387094Y-60049628D02*
X108387094Y-60335342D01*
X108387094Y-60335342D02*
X108339475Y-60430580D01*
X108339475Y-60430580D02*
X108291856Y-60478200D01*
X108291856Y-60478200D02*
X108196618Y-60525819D01*
X108196618Y-60525819D02*
X108006142Y-60525819D01*
X108006142Y-60525819D02*
X107910904Y-60478200D01*
X146682806Y-59525819D02*
X147254234Y-59525819D01*
X146968520Y-60525819D02*
X146968520Y-59525819D01*
X147587568Y-60525819D02*
X147587568Y-59525819D01*
X148016139Y-60525819D02*
X148016139Y-60002009D01*
X148016139Y-60002009D02*
X147968520Y-59906771D01*
X147968520Y-59906771D02*
X147873282Y-59859152D01*
X147873282Y-59859152D02*
X147730425Y-59859152D01*
X147730425Y-59859152D02*
X147635187Y-59906771D01*
X147635187Y-59906771D02*
X147587568Y-59954390D01*
X148492330Y-60525819D02*
X148492330Y-59859152D01*
X148492330Y-60049628D02*
X148539949Y-59954390D01*
X148539949Y-59954390D02*
X148587568Y-59906771D01*
X148587568Y-59906771D02*
X148682806Y-59859152D01*
X148682806Y-59859152D02*
X148778044Y-59859152D01*
X149254235Y-60525819D02*
X149158997Y-60478200D01*
X149158997Y-60478200D02*
X149111378Y-60430580D01*
X149111378Y-60430580D02*
X149063759Y-60335342D01*
X149063759Y-60335342D02*
X149063759Y-60049628D01*
X149063759Y-60049628D02*
X149111378Y-59954390D01*
X149111378Y-59954390D02*
X149158997Y-59906771D01*
X149158997Y-59906771D02*
X149254235Y-59859152D01*
X149254235Y-59859152D02*
X149397092Y-59859152D01*
X149397092Y-59859152D02*
X149492330Y-59906771D01*
X149492330Y-59906771D02*
X149539949Y-59954390D01*
X149539949Y-59954390D02*
X149587568Y-60049628D01*
X149587568Y-60049628D02*
X149587568Y-60335342D01*
X149587568Y-60335342D02*
X149539949Y-60430580D01*
X149539949Y-60430580D02*
X149492330Y-60478200D01*
X149492330Y-60478200D02*
X149397092Y-60525819D01*
X149397092Y-60525819D02*
X149254235Y-60525819D01*
X149873283Y-59859152D02*
X150254235Y-59859152D01*
X150016140Y-59525819D02*
X150016140Y-60382961D01*
X150016140Y-60382961D02*
X150063759Y-60478200D01*
X150063759Y-60478200D02*
X150158997Y-60525819D01*
X150158997Y-60525819D02*
X150254235Y-60525819D01*
X150349474Y-60621057D02*
X151111378Y-60621057D01*
X151825664Y-59525819D02*
X151349474Y-59525819D01*
X151349474Y-59525819D02*
X151301855Y-60002009D01*
X151301855Y-60002009D02*
X151349474Y-59954390D01*
X151349474Y-59954390D02*
X151444712Y-59906771D01*
X151444712Y-59906771D02*
X151682807Y-59906771D01*
X151682807Y-59906771D02*
X151778045Y-59954390D01*
X151778045Y-59954390D02*
X151825664Y-60002009D01*
X151825664Y-60002009D02*
X151873283Y-60097247D01*
X151873283Y-60097247D02*
X151873283Y-60335342D01*
X151873283Y-60335342D02*
X151825664Y-60430580D01*
X151825664Y-60430580D02*
X151778045Y-60478200D01*
X151778045Y-60478200D02*
X151682807Y-60525819D01*
X151682807Y-60525819D02*
X151444712Y-60525819D01*
X151444712Y-60525819D02*
X151349474Y-60478200D01*
X151349474Y-60478200D02*
X151301855Y-60430580D01*
X97018427Y-60002009D02*
X96685094Y-60002009D01*
X96685094Y-60525819D02*
X96685094Y-59525819D01*
X96685094Y-59525819D02*
X97161284Y-59525819D01*
X97685094Y-60525819D02*
X97589856Y-60478200D01*
X97589856Y-60478200D02*
X97542237Y-60382961D01*
X97542237Y-60382961D02*
X97542237Y-59525819D01*
X98208904Y-60525819D02*
X98113666Y-60478200D01*
X98113666Y-60478200D02*
X98066047Y-60430580D01*
X98066047Y-60430580D02*
X98018428Y-60335342D01*
X98018428Y-60335342D02*
X98018428Y-60049628D01*
X98018428Y-60049628D02*
X98066047Y-59954390D01*
X98066047Y-59954390D02*
X98113666Y-59906771D01*
X98113666Y-59906771D02*
X98208904Y-59859152D01*
X98208904Y-59859152D02*
X98351761Y-59859152D01*
X98351761Y-59859152D02*
X98446999Y-59906771D01*
X98446999Y-59906771D02*
X98494618Y-59954390D01*
X98494618Y-59954390D02*
X98542237Y-60049628D01*
X98542237Y-60049628D02*
X98542237Y-60335342D01*
X98542237Y-60335342D02*
X98494618Y-60430580D01*
X98494618Y-60430580D02*
X98446999Y-60478200D01*
X98446999Y-60478200D02*
X98351761Y-60525819D01*
X98351761Y-60525819D02*
X98208904Y-60525819D01*
X98875571Y-59859152D02*
X99066047Y-60525819D01*
X99066047Y-60525819D02*
X99256523Y-60049628D01*
X99256523Y-60049628D02*
X99446999Y-60525819D01*
X99446999Y-60525819D02*
X99637475Y-59859152D01*
X154082762Y-137678390D02*
X153987524Y-137630771D01*
X153987524Y-137630771D02*
X153939905Y-137583152D01*
X153939905Y-137583152D02*
X153892286Y-137487914D01*
X153892286Y-137487914D02*
X153892286Y-137440295D01*
X153892286Y-137440295D02*
X153939905Y-137345057D01*
X153939905Y-137345057D02*
X153987524Y-137297438D01*
X153987524Y-137297438D02*
X154082762Y-137249819D01*
X154082762Y-137249819D02*
X154273238Y-137249819D01*
X154273238Y-137249819D02*
X154368476Y-137297438D01*
X154368476Y-137297438D02*
X154416095Y-137345057D01*
X154416095Y-137345057D02*
X154463714Y-137440295D01*
X154463714Y-137440295D02*
X154463714Y-137487914D01*
X154463714Y-137487914D02*
X154416095Y-137583152D01*
X154416095Y-137583152D02*
X154368476Y-137630771D01*
X154368476Y-137630771D02*
X154273238Y-137678390D01*
X154273238Y-137678390D02*
X154082762Y-137678390D01*
X154082762Y-137678390D02*
X153987524Y-137726009D01*
X153987524Y-137726009D02*
X153939905Y-137773628D01*
X153939905Y-137773628D02*
X153892286Y-137868866D01*
X153892286Y-137868866D02*
X153892286Y-138059342D01*
X153892286Y-138059342D02*
X153939905Y-138154580D01*
X153939905Y-138154580D02*
X153987524Y-138202200D01*
X153987524Y-138202200D02*
X154082762Y-138249819D01*
X154082762Y-138249819D02*
X154273238Y-138249819D01*
X154273238Y-138249819D02*
X154368476Y-138202200D01*
X154368476Y-138202200D02*
X154416095Y-138154580D01*
X154416095Y-138154580D02*
X154463714Y-138059342D01*
X154463714Y-138059342D02*
X154463714Y-137868866D01*
X154463714Y-137868866D02*
X154416095Y-137773628D01*
X154416095Y-137773628D02*
X154368476Y-137726009D01*
X154368476Y-137726009D02*
X154273238Y-137678390D01*
X121362522Y-60525819D02*
X121362522Y-59525819D01*
X121362522Y-59525819D02*
X121743474Y-59525819D01*
X121743474Y-59525819D02*
X121838712Y-59573438D01*
X121838712Y-59573438D02*
X121886331Y-59621057D01*
X121886331Y-59621057D02*
X121933950Y-59716295D01*
X121933950Y-59716295D02*
X121933950Y-59859152D01*
X121933950Y-59859152D02*
X121886331Y-59954390D01*
X121886331Y-59954390D02*
X121838712Y-60002009D01*
X121838712Y-60002009D02*
X121743474Y-60049628D01*
X121743474Y-60049628D02*
X121362522Y-60049628D01*
X122362522Y-60525819D02*
X122362522Y-59859152D01*
X122362522Y-59525819D02*
X122314903Y-59573438D01*
X122314903Y-59573438D02*
X122362522Y-59621057D01*
X122362522Y-59621057D02*
X122410141Y-59573438D01*
X122410141Y-59573438D02*
X122362522Y-59525819D01*
X122362522Y-59525819D02*
X122362522Y-59621057D01*
X122981569Y-60525819D02*
X122886331Y-60478200D01*
X122886331Y-60478200D02*
X122838712Y-60382961D01*
X122838712Y-60382961D02*
X122838712Y-59525819D01*
X123505379Y-60525819D02*
X123410141Y-60478200D01*
X123410141Y-60478200D02*
X123362522Y-60430580D01*
X123362522Y-60430580D02*
X123314903Y-60335342D01*
X123314903Y-60335342D02*
X123314903Y-60049628D01*
X123314903Y-60049628D02*
X123362522Y-59954390D01*
X123362522Y-59954390D02*
X123410141Y-59906771D01*
X123410141Y-59906771D02*
X123505379Y-59859152D01*
X123505379Y-59859152D02*
X123648236Y-59859152D01*
X123648236Y-59859152D02*
X123743474Y-59906771D01*
X123743474Y-59906771D02*
X123791093Y-59954390D01*
X123791093Y-59954390D02*
X123838712Y-60049628D01*
X123838712Y-60049628D02*
X123838712Y-60335342D01*
X123838712Y-60335342D02*
X123791093Y-60430580D01*
X123791093Y-60430580D02*
X123743474Y-60478200D01*
X123743474Y-60478200D02*
X123648236Y-60525819D01*
X123648236Y-60525819D02*
X123505379Y-60525819D01*
X124124427Y-59859152D02*
X124505379Y-59859152D01*
X124267284Y-59525819D02*
X124267284Y-60382961D01*
X124267284Y-60382961D02*
X124314903Y-60478200D01*
X124314903Y-60478200D02*
X124410141Y-60525819D01*
X124410141Y-60525819D02*
X124505379Y-60525819D01*
X124600618Y-60621057D02*
X125362522Y-60621057D01*
X125552999Y-59621057D02*
X125600618Y-59573438D01*
X125600618Y-59573438D02*
X125695856Y-59525819D01*
X125695856Y-59525819D02*
X125933951Y-59525819D01*
X125933951Y-59525819D02*
X126029189Y-59573438D01*
X126029189Y-59573438D02*
X126076808Y-59621057D01*
X126076808Y-59621057D02*
X126124427Y-59716295D01*
X126124427Y-59716295D02*
X126124427Y-59811533D01*
X126124427Y-59811533D02*
X126076808Y-59954390D01*
X126076808Y-59954390D02*
X125505380Y-60525819D01*
X125505380Y-60525819D02*
X126124427Y-60525819D01*
X93559333Y-80210819D02*
X93226000Y-79734628D01*
X92987905Y-80210819D02*
X92987905Y-79210819D01*
X92987905Y-79210819D02*
X93368857Y-79210819D01*
X93368857Y-79210819D02*
X93464095Y-79258438D01*
X93464095Y-79258438D02*
X93511714Y-79306057D01*
X93511714Y-79306057D02*
X93559333Y-79401295D01*
X93559333Y-79401295D02*
X93559333Y-79544152D01*
X93559333Y-79544152D02*
X93511714Y-79639390D01*
X93511714Y-79639390D02*
X93464095Y-79687009D01*
X93464095Y-79687009D02*
X93368857Y-79734628D01*
X93368857Y-79734628D02*
X92987905Y-79734628D01*
X93940286Y-79306057D02*
X93987905Y-79258438D01*
X93987905Y-79258438D02*
X94083143Y-79210819D01*
X94083143Y-79210819D02*
X94321238Y-79210819D01*
X94321238Y-79210819D02*
X94416476Y-79258438D01*
X94416476Y-79258438D02*
X94464095Y-79306057D01*
X94464095Y-79306057D02*
X94511714Y-79401295D01*
X94511714Y-79401295D02*
X94511714Y-79496533D01*
X94511714Y-79496533D02*
X94464095Y-79639390D01*
X94464095Y-79639390D02*
X93892667Y-80210819D01*
X93892667Y-80210819D02*
X94511714Y-80210819D01*
X122531238Y-137726009D02*
X122674095Y-137773628D01*
X122674095Y-137773628D02*
X122721714Y-137821247D01*
X122721714Y-137821247D02*
X122769333Y-137916485D01*
X122769333Y-137916485D02*
X122769333Y-138059342D01*
X122769333Y-138059342D02*
X122721714Y-138154580D01*
X122721714Y-138154580D02*
X122674095Y-138202200D01*
X122674095Y-138202200D02*
X122578857Y-138249819D01*
X122578857Y-138249819D02*
X122197905Y-138249819D01*
X122197905Y-138249819D02*
X122197905Y-137249819D01*
X122197905Y-137249819D02*
X122531238Y-137249819D01*
X122531238Y-137249819D02*
X122626476Y-137297438D01*
X122626476Y-137297438D02*
X122674095Y-137345057D01*
X122674095Y-137345057D02*
X122721714Y-137440295D01*
X122721714Y-137440295D02*
X122721714Y-137535533D01*
X122721714Y-137535533D02*
X122674095Y-137630771D01*
X122674095Y-137630771D02*
X122626476Y-137678390D01*
X122626476Y-137678390D02*
X122531238Y-137726009D01*
X122531238Y-137726009D02*
X122197905Y-137726009D01*
X123340762Y-137678390D02*
X123245524Y-137630771D01*
X123245524Y-137630771D02*
X123197905Y-137583152D01*
X123197905Y-137583152D02*
X123150286Y-137487914D01*
X123150286Y-137487914D02*
X123150286Y-137440295D01*
X123150286Y-137440295D02*
X123197905Y-137345057D01*
X123197905Y-137345057D02*
X123245524Y-137297438D01*
X123245524Y-137297438D02*
X123340762Y-137249819D01*
X123340762Y-137249819D02*
X123531238Y-137249819D01*
X123531238Y-137249819D02*
X123626476Y-137297438D01*
X123626476Y-137297438D02*
X123674095Y-137345057D01*
X123674095Y-137345057D02*
X123721714Y-137440295D01*
X123721714Y-137440295D02*
X123721714Y-137487914D01*
X123721714Y-137487914D02*
X123674095Y-137583152D01*
X123674095Y-137583152D02*
X123626476Y-137630771D01*
X123626476Y-137630771D02*
X123531238Y-137678390D01*
X123531238Y-137678390D02*
X123340762Y-137678390D01*
X123340762Y-137678390D02*
X123245524Y-137726009D01*
X123245524Y-137726009D02*
X123197905Y-137773628D01*
X123197905Y-137773628D02*
X123150286Y-137868866D01*
X123150286Y-137868866D02*
X123150286Y-138059342D01*
X123150286Y-138059342D02*
X123197905Y-138154580D01*
X123197905Y-138154580D02*
X123245524Y-138202200D01*
X123245524Y-138202200D02*
X123340762Y-138249819D01*
X123340762Y-138249819D02*
X123531238Y-138249819D01*
X123531238Y-138249819D02*
X123626476Y-138202200D01*
X123626476Y-138202200D02*
X123674095Y-138154580D01*
X123674095Y-138154580D02*
X123721714Y-138059342D01*
X123721714Y-138059342D02*
X123721714Y-137868866D01*
X123721714Y-137868866D02*
X123674095Y-137773628D01*
X123674095Y-137773628D02*
X123626476Y-137726009D01*
X123626476Y-137726009D02*
X123531238Y-137678390D01*
X130326425Y-60430580D02*
X130278806Y-60478200D01*
X130278806Y-60478200D02*
X130135949Y-60525819D01*
X130135949Y-60525819D02*
X130040711Y-60525819D01*
X130040711Y-60525819D02*
X129897854Y-60478200D01*
X129897854Y-60478200D02*
X129802616Y-60382961D01*
X129802616Y-60382961D02*
X129754997Y-60287723D01*
X129754997Y-60287723D02*
X129707378Y-60097247D01*
X129707378Y-60097247D02*
X129707378Y-59954390D01*
X129707378Y-59954390D02*
X129754997Y-59763914D01*
X129754997Y-59763914D02*
X129802616Y-59668676D01*
X129802616Y-59668676D02*
X129897854Y-59573438D01*
X129897854Y-59573438D02*
X130040711Y-59525819D01*
X130040711Y-59525819D02*
X130135949Y-59525819D01*
X130135949Y-59525819D02*
X130278806Y-59573438D01*
X130278806Y-59573438D02*
X130326425Y-59621057D01*
X131183568Y-59859152D02*
X131183568Y-60525819D01*
X130754997Y-59859152D02*
X130754997Y-60382961D01*
X130754997Y-60382961D02*
X130802616Y-60478200D01*
X130802616Y-60478200D02*
X130897854Y-60525819D01*
X130897854Y-60525819D02*
X131040711Y-60525819D01*
X131040711Y-60525819D02*
X131135949Y-60478200D01*
X131135949Y-60478200D02*
X131183568Y-60430580D01*
X131659759Y-60525819D02*
X131659759Y-59859152D01*
X131659759Y-60049628D02*
X131707378Y-59954390D01*
X131707378Y-59954390D02*
X131754997Y-59906771D01*
X131754997Y-59906771D02*
X131850235Y-59859152D01*
X131850235Y-59859152D02*
X131945473Y-59859152D01*
X132278807Y-60525819D02*
X132278807Y-59859152D01*
X132278807Y-60049628D02*
X132326426Y-59954390D01*
X132326426Y-59954390D02*
X132374045Y-59906771D01*
X132374045Y-59906771D02*
X132469283Y-59859152D01*
X132469283Y-59859152D02*
X132564521Y-59859152D01*
X133278807Y-60478200D02*
X133183569Y-60525819D01*
X133183569Y-60525819D02*
X132993093Y-60525819D01*
X132993093Y-60525819D02*
X132897855Y-60478200D01*
X132897855Y-60478200D02*
X132850236Y-60382961D01*
X132850236Y-60382961D02*
X132850236Y-60002009D01*
X132850236Y-60002009D02*
X132897855Y-59906771D01*
X132897855Y-59906771D02*
X132993093Y-59859152D01*
X132993093Y-59859152D02*
X133183569Y-59859152D01*
X133183569Y-59859152D02*
X133278807Y-59906771D01*
X133278807Y-59906771D02*
X133326426Y-60002009D01*
X133326426Y-60002009D02*
X133326426Y-60097247D01*
X133326426Y-60097247D02*
X132850236Y-60192485D01*
X133754998Y-59859152D02*
X133754998Y-60525819D01*
X133754998Y-59954390D02*
X133802617Y-59906771D01*
X133802617Y-59906771D02*
X133897855Y-59859152D01*
X133897855Y-59859152D02*
X134040712Y-59859152D01*
X134040712Y-59859152D02*
X134135950Y-59906771D01*
X134135950Y-59906771D02*
X134183569Y-60002009D01*
X134183569Y-60002009D02*
X134183569Y-60525819D01*
X134516903Y-59859152D02*
X134897855Y-59859152D01*
X134659760Y-59525819D02*
X134659760Y-60382961D01*
X134659760Y-60382961D02*
X134707379Y-60478200D01*
X134707379Y-60478200D02*
X134802617Y-60525819D01*
X134802617Y-60525819D02*
X134897855Y-60525819D01*
X86697380Y-60478200D02*
X86840237Y-60525819D01*
X86840237Y-60525819D02*
X87078332Y-60525819D01*
X87078332Y-60525819D02*
X87173570Y-60478200D01*
X87173570Y-60478200D02*
X87221189Y-60430580D01*
X87221189Y-60430580D02*
X87268808Y-60335342D01*
X87268808Y-60335342D02*
X87268808Y-60240104D01*
X87268808Y-60240104D02*
X87221189Y-60144866D01*
X87221189Y-60144866D02*
X87173570Y-60097247D01*
X87173570Y-60097247D02*
X87078332Y-60049628D01*
X87078332Y-60049628D02*
X86887856Y-60002009D01*
X86887856Y-60002009D02*
X86792618Y-59954390D01*
X86792618Y-59954390D02*
X86744999Y-59906771D01*
X86744999Y-59906771D02*
X86697380Y-59811533D01*
X86697380Y-59811533D02*
X86697380Y-59716295D01*
X86697380Y-59716295D02*
X86744999Y-59621057D01*
X86744999Y-59621057D02*
X86792618Y-59573438D01*
X86792618Y-59573438D02*
X86887856Y-59525819D01*
X86887856Y-59525819D02*
X87125951Y-59525819D01*
X87125951Y-59525819D02*
X87268808Y-59573438D01*
X87554523Y-59859152D02*
X87935475Y-59859152D01*
X87697380Y-59525819D02*
X87697380Y-60382961D01*
X87697380Y-60382961D02*
X87744999Y-60478200D01*
X87744999Y-60478200D02*
X87840237Y-60525819D01*
X87840237Y-60525819D02*
X87935475Y-60525819D01*
X88268809Y-60525819D02*
X88268809Y-59859152D01*
X88268809Y-60049628D02*
X88316428Y-59954390D01*
X88316428Y-59954390D02*
X88364047Y-59906771D01*
X88364047Y-59906771D02*
X88459285Y-59859152D01*
X88459285Y-59859152D02*
X88554523Y-59859152D01*
X89316428Y-60525819D02*
X89316428Y-60002009D01*
X89316428Y-60002009D02*
X89268809Y-59906771D01*
X89268809Y-59906771D02*
X89173571Y-59859152D01*
X89173571Y-59859152D02*
X88983095Y-59859152D01*
X88983095Y-59859152D02*
X88887857Y-59906771D01*
X89316428Y-60478200D02*
X89221190Y-60525819D01*
X89221190Y-60525819D02*
X88983095Y-60525819D01*
X88983095Y-60525819D02*
X88887857Y-60478200D01*
X88887857Y-60478200D02*
X88840238Y-60382961D01*
X88840238Y-60382961D02*
X88840238Y-60287723D01*
X88840238Y-60287723D02*
X88887857Y-60192485D01*
X88887857Y-60192485D02*
X88983095Y-60144866D01*
X88983095Y-60144866D02*
X89221190Y-60144866D01*
X89221190Y-60144866D02*
X89316428Y-60097247D01*
X89792619Y-60525819D02*
X89792619Y-59859152D01*
X89792619Y-59525819D02*
X89745000Y-59573438D01*
X89745000Y-59573438D02*
X89792619Y-59621057D01*
X89792619Y-59621057D02*
X89840238Y-59573438D01*
X89840238Y-59573438D02*
X89792619Y-59525819D01*
X89792619Y-59525819D02*
X89792619Y-59621057D01*
X90268809Y-59859152D02*
X90268809Y-60525819D01*
X90268809Y-59954390D02*
X90316428Y-59906771D01*
X90316428Y-59906771D02*
X90411666Y-59859152D01*
X90411666Y-59859152D02*
X90554523Y-59859152D01*
X90554523Y-59859152D02*
X90649761Y-59906771D01*
X90649761Y-59906771D02*
X90697380Y-60002009D01*
X90697380Y-60002009D02*
X90697380Y-60525819D01*
X90935476Y-60621057D02*
X91697380Y-60621057D01*
X91887857Y-59621057D02*
X91935476Y-59573438D01*
X91935476Y-59573438D02*
X92030714Y-59525819D01*
X92030714Y-59525819D02*
X92268809Y-59525819D01*
X92268809Y-59525819D02*
X92364047Y-59573438D01*
X92364047Y-59573438D02*
X92411666Y-59621057D01*
X92411666Y-59621057D02*
X92459285Y-59716295D01*
X92459285Y-59716295D02*
X92459285Y-59811533D01*
X92459285Y-59811533D02*
X92411666Y-59954390D01*
X92411666Y-59954390D02*
X91840238Y-60525819D01*
X91840238Y-60525819D02*
X92459285Y-60525819D01*
X108839380Y-137297438D02*
X108744142Y-137249819D01*
X108744142Y-137249819D02*
X108601285Y-137249819D01*
X108601285Y-137249819D02*
X108458428Y-137297438D01*
X108458428Y-137297438D02*
X108363190Y-137392676D01*
X108363190Y-137392676D02*
X108315571Y-137487914D01*
X108315571Y-137487914D02*
X108267952Y-137678390D01*
X108267952Y-137678390D02*
X108267952Y-137821247D01*
X108267952Y-137821247D02*
X108315571Y-138011723D01*
X108315571Y-138011723D02*
X108363190Y-138106961D01*
X108363190Y-138106961D02*
X108458428Y-138202200D01*
X108458428Y-138202200D02*
X108601285Y-138249819D01*
X108601285Y-138249819D02*
X108696523Y-138249819D01*
X108696523Y-138249819D02*
X108839380Y-138202200D01*
X108839380Y-138202200D02*
X108886999Y-138154580D01*
X108886999Y-138154580D02*
X108886999Y-137821247D01*
X108886999Y-137821247D02*
X108696523Y-137821247D01*
X109506047Y-137773628D02*
X109506047Y-138249819D01*
X109172714Y-137249819D02*
X109506047Y-137773628D01*
X109506047Y-137773628D02*
X109839380Y-137249819D01*
X110744142Y-138249819D02*
X110410809Y-137773628D01*
X110172714Y-138249819D02*
X110172714Y-137249819D01*
X110172714Y-137249819D02*
X110553666Y-137249819D01*
X110553666Y-137249819D02*
X110648904Y-137297438D01*
X110648904Y-137297438D02*
X110696523Y-137345057D01*
X110696523Y-137345057D02*
X110744142Y-137440295D01*
X110744142Y-137440295D02*
X110744142Y-137583152D01*
X110744142Y-137583152D02*
X110696523Y-137678390D01*
X110696523Y-137678390D02*
X110648904Y-137726009D01*
X110648904Y-137726009D02*
X110553666Y-137773628D01*
X110553666Y-137773628D02*
X110172714Y-137773628D01*
X111172714Y-138249819D02*
X111172714Y-137249819D01*
X111172714Y-137249819D02*
X111410809Y-137249819D01*
X111410809Y-137249819D02*
X111553666Y-137297438D01*
X111553666Y-137297438D02*
X111648904Y-137392676D01*
X111648904Y-137392676D02*
X111696523Y-137487914D01*
X111696523Y-137487914D02*
X111744142Y-137678390D01*
X111744142Y-137678390D02*
X111744142Y-137821247D01*
X111744142Y-137821247D02*
X111696523Y-138011723D01*
X111696523Y-138011723D02*
X111648904Y-138106961D01*
X111648904Y-138106961D02*
X111553666Y-138202200D01*
X111553666Y-138202200D02*
X111410809Y-138249819D01*
X111410809Y-138249819D02*
X111172714Y-138249819D01*
X111934619Y-138345057D02*
X112696523Y-138345057D01*
X113506047Y-138249819D02*
X113172714Y-137773628D01*
X112934619Y-138249819D02*
X112934619Y-137249819D01*
X112934619Y-137249819D02*
X113315571Y-137249819D01*
X113315571Y-137249819D02*
X113410809Y-137297438D01*
X113410809Y-137297438D02*
X113458428Y-137345057D01*
X113458428Y-137345057D02*
X113506047Y-137440295D01*
X113506047Y-137440295D02*
X113506047Y-137583152D01*
X113506047Y-137583152D02*
X113458428Y-137678390D01*
X113458428Y-137678390D02*
X113410809Y-137726009D01*
X113410809Y-137726009D02*
X113315571Y-137773628D01*
X113315571Y-137773628D02*
X112934619Y-137773628D01*
X113887000Y-137964104D02*
X114363190Y-137964104D01*
X113791762Y-138249819D02*
X114125095Y-137249819D01*
X114125095Y-137249819D02*
X114458428Y-138249819D01*
X114696524Y-137249819D02*
X114934619Y-138249819D01*
X114934619Y-138249819D02*
X115125095Y-137535533D01*
X115125095Y-137535533D02*
X115315571Y-138249819D01*
X115315571Y-138249819D02*
X115553667Y-137249819D01*
X158387905Y-117421819D02*
X158387905Y-116421819D01*
X158387905Y-116421819D02*
X158626000Y-116421819D01*
X158626000Y-116421819D02*
X158768857Y-116469438D01*
X158768857Y-116469438D02*
X158864095Y-116564676D01*
X158864095Y-116564676D02*
X158911714Y-116659914D01*
X158911714Y-116659914D02*
X158959333Y-116850390D01*
X158959333Y-116850390D02*
X158959333Y-116993247D01*
X158959333Y-116993247D02*
X158911714Y-117183723D01*
X158911714Y-117183723D02*
X158864095Y-117278961D01*
X158864095Y-117278961D02*
X158768857Y-117374200D01*
X158768857Y-117374200D02*
X158626000Y-117421819D01*
X158626000Y-117421819D02*
X158387905Y-117421819D01*
X159340286Y-116517057D02*
X159387905Y-116469438D01*
X159387905Y-116469438D02*
X159483143Y-116421819D01*
X159483143Y-116421819D02*
X159721238Y-116421819D01*
X159721238Y-116421819D02*
X159816476Y-116469438D01*
X159816476Y-116469438D02*
X159864095Y-116517057D01*
X159864095Y-116517057D02*
X159911714Y-116612295D01*
X159911714Y-116612295D02*
X159911714Y-116707533D01*
X159911714Y-116707533D02*
X159864095Y-116850390D01*
X159864095Y-116850390D02*
X159292667Y-117421819D01*
X159292667Y-117421819D02*
X159911714Y-117421819D01*
X102758952Y-137964104D02*
X103235142Y-137964104D01*
X102663714Y-138249819D02*
X102997047Y-137249819D01*
X102997047Y-137249819D02*
X103330380Y-138249819D01*
X103520857Y-137249819D02*
X104092285Y-137249819D01*
X103806571Y-138249819D02*
X103806571Y-137249819D01*
X110167009Y-102035713D02*
X110167009Y-101702380D01*
X110690819Y-101559523D02*
X110690819Y-102035713D01*
X110690819Y-102035713D02*
X109690819Y-102035713D01*
X109690819Y-102035713D02*
X109690819Y-101559523D01*
X110643200Y-101178570D02*
X110690819Y-101035713D01*
X110690819Y-101035713D02*
X110690819Y-100797618D01*
X110690819Y-100797618D02*
X110643200Y-100702380D01*
X110643200Y-100702380D02*
X110595580Y-100654761D01*
X110595580Y-100654761D02*
X110500342Y-100607142D01*
X110500342Y-100607142D02*
X110405104Y-100607142D01*
X110405104Y-100607142D02*
X110309866Y-100654761D01*
X110309866Y-100654761D02*
X110262247Y-100702380D01*
X110262247Y-100702380D02*
X110214628Y-100797618D01*
X110214628Y-100797618D02*
X110167009Y-100988094D01*
X110167009Y-100988094D02*
X110119390Y-101083332D01*
X110119390Y-101083332D02*
X110071771Y-101130951D01*
X110071771Y-101130951D02*
X109976533Y-101178570D01*
X109976533Y-101178570D02*
X109881295Y-101178570D01*
X109881295Y-101178570D02*
X109786057Y-101130951D01*
X109786057Y-101130951D02*
X109738438Y-101083332D01*
X109738438Y-101083332D02*
X109690819Y-100988094D01*
X109690819Y-100988094D02*
X109690819Y-100749999D01*
X109690819Y-100749999D02*
X109738438Y-100607142D01*
X110690819Y-100178570D02*
X109690819Y-100178570D01*
X109690819Y-100178570D02*
X109690819Y-99797618D01*
X109690819Y-99797618D02*
X109738438Y-99702380D01*
X109738438Y-99702380D02*
X109786057Y-99654761D01*
X109786057Y-99654761D02*
X109881295Y-99607142D01*
X109881295Y-99607142D02*
X110024152Y-99607142D01*
X110024152Y-99607142D02*
X110119390Y-99654761D01*
X110119390Y-99654761D02*
X110167009Y-99702380D01*
X110167009Y-99702380D02*
X110214628Y-99797618D01*
X110214628Y-99797618D02*
X110214628Y-100178570D01*
X109690819Y-99273808D02*
X109690819Y-98654761D01*
X109690819Y-98654761D02*
X110071771Y-98988094D01*
X110071771Y-98988094D02*
X110071771Y-98845237D01*
X110071771Y-98845237D02*
X110119390Y-98749999D01*
X110119390Y-98749999D02*
X110167009Y-98702380D01*
X110167009Y-98702380D02*
X110262247Y-98654761D01*
X110262247Y-98654761D02*
X110500342Y-98654761D01*
X110500342Y-98654761D02*
X110595580Y-98702380D01*
X110595580Y-98702380D02*
X110643200Y-98749999D01*
X110643200Y-98749999D02*
X110690819Y-98845237D01*
X110690819Y-98845237D02*
X110690819Y-99130951D01*
X110690819Y-99130951D02*
X110643200Y-99226189D01*
X110643200Y-99226189D02*
X110595580Y-99273808D01*
X109786057Y-98273808D02*
X109738438Y-98226189D01*
X109738438Y-98226189D02*
X109690819Y-98130951D01*
X109690819Y-98130951D02*
X109690819Y-97892856D01*
X109690819Y-97892856D02*
X109738438Y-97797618D01*
X109738438Y-97797618D02*
X109786057Y-97749999D01*
X109786057Y-97749999D02*
X109881295Y-97702380D01*
X109881295Y-97702380D02*
X109976533Y-97702380D01*
X109976533Y-97702380D02*
X110119390Y-97749999D01*
X110119390Y-97749999D02*
X110690819Y-98321427D01*
X110690819Y-98321427D02*
X110690819Y-97702380D01*
X110309866Y-97273808D02*
X110309866Y-96511904D01*
X110690819Y-96035713D02*
X109690819Y-96035713D01*
X109690819Y-96035713D02*
X109690819Y-95797618D01*
X109690819Y-95797618D02*
X109738438Y-95654761D01*
X109738438Y-95654761D02*
X109833676Y-95559523D01*
X109833676Y-95559523D02*
X109928914Y-95511904D01*
X109928914Y-95511904D02*
X110119390Y-95464285D01*
X110119390Y-95464285D02*
X110262247Y-95464285D01*
X110262247Y-95464285D02*
X110452723Y-95511904D01*
X110452723Y-95511904D02*
X110547961Y-95559523D01*
X110547961Y-95559523D02*
X110643200Y-95654761D01*
X110643200Y-95654761D02*
X110690819Y-95797618D01*
X110690819Y-95797618D02*
X110690819Y-96035713D01*
X110167009Y-95035713D02*
X110167009Y-94702380D01*
X110690819Y-94559523D02*
X110690819Y-95035713D01*
X110690819Y-95035713D02*
X109690819Y-95035713D01*
X109690819Y-95035713D02*
X109690819Y-94559523D01*
X109690819Y-94273808D02*
X110690819Y-93940475D01*
X110690819Y-93940475D02*
X109690819Y-93607142D01*
X110690819Y-93273808D02*
X109690819Y-93273808D01*
X110690819Y-92702380D02*
X110119390Y-93130951D01*
X109690819Y-92702380D02*
X110262247Y-93273808D01*
X110690819Y-92273808D02*
X109690819Y-92273808D01*
X109690819Y-91940475D02*
X109690819Y-91369047D01*
X110690819Y-91654761D02*
X109690819Y-91654761D01*
X110309866Y-91035713D02*
X110309866Y-90273809D01*
X109690819Y-89940475D02*
X110690819Y-89607142D01*
X110690819Y-89607142D02*
X109690819Y-89273809D01*
X110690819Y-88416666D02*
X110690819Y-88988094D01*
X110690819Y-88702380D02*
X109690819Y-88702380D01*
X109690819Y-88702380D02*
X109833676Y-88797618D01*
X109833676Y-88797618D02*
X109928914Y-88892856D01*
X109928914Y-88892856D02*
X109976533Y-88988094D01*
X155307669Y-77826155D02*
X154974336Y-77349964D01*
X154736241Y-77826155D02*
X154736241Y-76826155D01*
X154736241Y-76826155D02*
X155117193Y-76826155D01*
X155117193Y-76826155D02*
X155212431Y-76873774D01*
X155212431Y-76873774D02*
X155260050Y-76921393D01*
X155260050Y-76921393D02*
X155307669Y-77016631D01*
X155307669Y-77016631D02*
X155307669Y-77159488D01*
X155307669Y-77159488D02*
X155260050Y-77254726D01*
X155260050Y-77254726D02*
X155212431Y-77302345D01*
X155212431Y-77302345D02*
X155117193Y-77349964D01*
X155117193Y-77349964D02*
X154736241Y-77349964D01*
X156164812Y-77159488D02*
X156164812Y-77826155D01*
X155926717Y-76778536D02*
X155688622Y-77492821D01*
X155688622Y-77492821D02*
X156307669Y-77492821D01*
X100099905Y-81099819D02*
X100099905Y-80099819D01*
X100099905Y-80099819D02*
X100338000Y-80099819D01*
X100338000Y-80099819D02*
X100480857Y-80147438D01*
X100480857Y-80147438D02*
X100576095Y-80242676D01*
X100576095Y-80242676D02*
X100623714Y-80337914D01*
X100623714Y-80337914D02*
X100671333Y-80528390D01*
X100671333Y-80528390D02*
X100671333Y-80671247D01*
X100671333Y-80671247D02*
X100623714Y-80861723D01*
X100623714Y-80861723D02*
X100576095Y-80956961D01*
X100576095Y-80956961D02*
X100480857Y-81052200D01*
X100480857Y-81052200D02*
X100338000Y-81099819D01*
X100338000Y-81099819D02*
X100099905Y-81099819D01*
X101623714Y-81099819D02*
X101052286Y-81099819D01*
X101338000Y-81099819D02*
X101338000Y-80099819D01*
X101338000Y-80099819D02*
X101242762Y-80242676D01*
X101242762Y-80242676D02*
X101147524Y-80337914D01*
X101147524Y-80337914D02*
X101052286Y-80385533D01*
X100195142Y-77289819D02*
X99718952Y-77289819D01*
X99718952Y-77289819D02*
X99718952Y-76289819D01*
X100528476Y-76766009D02*
X100861809Y-76766009D01*
X101004666Y-77289819D02*
X100528476Y-77289819D01*
X100528476Y-77289819D02*
X100528476Y-76289819D01*
X100528476Y-76289819D02*
X101004666Y-76289819D01*
X101433238Y-77289819D02*
X101433238Y-76289819D01*
X101433238Y-76289819D02*
X101671333Y-76289819D01*
X101671333Y-76289819D02*
X101814190Y-76337438D01*
X101814190Y-76337438D02*
X101909428Y-76432676D01*
X101909428Y-76432676D02*
X101957047Y-76527914D01*
X101957047Y-76527914D02*
X102004666Y-76718390D01*
X102004666Y-76718390D02*
X102004666Y-76861247D01*
X102004666Y-76861247D02*
X101957047Y-77051723D01*
X101957047Y-77051723D02*
X101909428Y-77146961D01*
X101909428Y-77146961D02*
X101814190Y-77242200D01*
X101814190Y-77242200D02*
X101671333Y-77289819D01*
X101671333Y-77289819D02*
X101433238Y-77289819D01*
X77655009Y-115474452D02*
X77702628Y-115331595D01*
X77702628Y-115331595D02*
X77750247Y-115283976D01*
X77750247Y-115283976D02*
X77845485Y-115236357D01*
X77845485Y-115236357D02*
X77988342Y-115236357D01*
X77988342Y-115236357D02*
X78083580Y-115283976D01*
X78083580Y-115283976D02*
X78131200Y-115331595D01*
X78131200Y-115331595D02*
X78178819Y-115426833D01*
X78178819Y-115426833D02*
X78178819Y-115807785D01*
X78178819Y-115807785D02*
X77178819Y-115807785D01*
X77178819Y-115807785D02*
X77178819Y-115474452D01*
X77178819Y-115474452D02*
X77226438Y-115379214D01*
X77226438Y-115379214D02*
X77274057Y-115331595D01*
X77274057Y-115331595D02*
X77369295Y-115283976D01*
X77369295Y-115283976D02*
X77464533Y-115283976D01*
X77464533Y-115283976D02*
X77559771Y-115331595D01*
X77559771Y-115331595D02*
X77607390Y-115379214D01*
X77607390Y-115379214D02*
X77655009Y-115474452D01*
X77655009Y-115474452D02*
X77655009Y-115807785D01*
X78178819Y-114807785D02*
X77512152Y-114807785D01*
X77702628Y-114807785D02*
X77607390Y-114760166D01*
X77607390Y-114760166D02*
X77559771Y-114712547D01*
X77559771Y-114712547D02*
X77512152Y-114617309D01*
X77512152Y-114617309D02*
X77512152Y-114522071D01*
X78178819Y-113760166D02*
X77655009Y-113760166D01*
X77655009Y-113760166D02*
X77559771Y-113807785D01*
X77559771Y-113807785D02*
X77512152Y-113903023D01*
X77512152Y-113903023D02*
X77512152Y-114093499D01*
X77512152Y-114093499D02*
X77559771Y-114188737D01*
X78131200Y-113760166D02*
X78178819Y-113855404D01*
X78178819Y-113855404D02*
X78178819Y-114093499D01*
X78178819Y-114093499D02*
X78131200Y-114188737D01*
X78131200Y-114188737D02*
X78035961Y-114236356D01*
X78035961Y-114236356D02*
X77940723Y-114236356D01*
X77940723Y-114236356D02*
X77845485Y-114188737D01*
X77845485Y-114188737D02*
X77797866Y-114093499D01*
X77797866Y-114093499D02*
X77797866Y-113855404D01*
X77797866Y-113855404D02*
X77750247Y-113760166D01*
X78178819Y-113283975D02*
X77178819Y-113283975D01*
X77797866Y-113188737D02*
X78178819Y-112903023D01*
X77512152Y-112903023D02*
X77893104Y-113283975D01*
X78131200Y-112093499D02*
X78178819Y-112188737D01*
X78178819Y-112188737D02*
X78178819Y-112379213D01*
X78178819Y-112379213D02*
X78131200Y-112474451D01*
X78131200Y-112474451D02*
X78035961Y-112522070D01*
X78035961Y-112522070D02*
X77655009Y-112522070D01*
X77655009Y-112522070D02*
X77559771Y-112474451D01*
X77559771Y-112474451D02*
X77512152Y-112379213D01*
X77512152Y-112379213D02*
X77512152Y-112188737D01*
X77512152Y-112188737D02*
X77559771Y-112093499D01*
X77559771Y-112093499D02*
X77655009Y-112045880D01*
X77655009Y-112045880D02*
X77750247Y-112045880D01*
X77750247Y-112045880D02*
X77845485Y-112522070D01*
X78274057Y-111855404D02*
X78274057Y-111093499D01*
X78178819Y-110331594D02*
X78178819Y-110903022D01*
X78178819Y-110617308D02*
X77178819Y-110617308D01*
X77178819Y-110617308D02*
X77321676Y-110712546D01*
X77321676Y-110712546D02*
X77416914Y-110807784D01*
X77416914Y-110807784D02*
X77464533Y-110903022D01*
X137433188Y-59525819D02*
X138004616Y-59525819D01*
X137718902Y-60525819D02*
X137718902Y-59525819D01*
X138337950Y-60525819D02*
X138337950Y-59525819D01*
X138766521Y-60525819D02*
X138766521Y-60002009D01*
X138766521Y-60002009D02*
X138718902Y-59906771D01*
X138718902Y-59906771D02*
X138623664Y-59859152D01*
X138623664Y-59859152D02*
X138480807Y-59859152D01*
X138480807Y-59859152D02*
X138385569Y-59906771D01*
X138385569Y-59906771D02*
X138337950Y-59954390D01*
X139242712Y-60525819D02*
X139242712Y-59859152D01*
X139242712Y-60049628D02*
X139290331Y-59954390D01*
X139290331Y-59954390D02*
X139337950Y-59906771D01*
X139337950Y-59906771D02*
X139433188Y-59859152D01*
X139433188Y-59859152D02*
X139528426Y-59859152D01*
X140004617Y-60525819D02*
X139909379Y-60478200D01*
X139909379Y-60478200D02*
X139861760Y-60430580D01*
X139861760Y-60430580D02*
X139814141Y-60335342D01*
X139814141Y-60335342D02*
X139814141Y-60049628D01*
X139814141Y-60049628D02*
X139861760Y-59954390D01*
X139861760Y-59954390D02*
X139909379Y-59906771D01*
X139909379Y-59906771D02*
X140004617Y-59859152D01*
X140004617Y-59859152D02*
X140147474Y-59859152D01*
X140147474Y-59859152D02*
X140242712Y-59906771D01*
X140242712Y-59906771D02*
X140290331Y-59954390D01*
X140290331Y-59954390D02*
X140337950Y-60049628D01*
X140337950Y-60049628D02*
X140337950Y-60335342D01*
X140337950Y-60335342D02*
X140290331Y-60430580D01*
X140290331Y-60430580D02*
X140242712Y-60478200D01*
X140242712Y-60478200D02*
X140147474Y-60525819D01*
X140147474Y-60525819D02*
X140004617Y-60525819D01*
X140623665Y-59859152D02*
X141004617Y-59859152D01*
X140766522Y-59525819D02*
X140766522Y-60382961D01*
X140766522Y-60382961D02*
X140814141Y-60478200D01*
X140814141Y-60478200D02*
X140909379Y-60525819D01*
X140909379Y-60525819D02*
X141004617Y-60525819D01*
X141099856Y-60621057D02*
X141861760Y-60621057D01*
X142004618Y-59525819D02*
X142623665Y-59525819D01*
X142623665Y-59525819D02*
X142290332Y-59906771D01*
X142290332Y-59906771D02*
X142433189Y-59906771D01*
X142433189Y-59906771D02*
X142528427Y-59954390D01*
X142528427Y-59954390D02*
X142576046Y-60002009D01*
X142576046Y-60002009D02*
X142623665Y-60097247D01*
X142623665Y-60097247D02*
X142623665Y-60335342D01*
X142623665Y-60335342D02*
X142576046Y-60430580D01*
X142576046Y-60430580D02*
X142528427Y-60478200D01*
X142528427Y-60478200D02*
X142433189Y-60525819D01*
X142433189Y-60525819D02*
X142147475Y-60525819D01*
X142147475Y-60525819D02*
X142052237Y-60478200D01*
X142052237Y-60478200D02*
X142004618Y-60430580D01*
X143052237Y-60430580D02*
X143099856Y-60478200D01*
X143099856Y-60478200D02*
X143052237Y-60525819D01*
X143052237Y-60525819D02*
X143004618Y-60478200D01*
X143004618Y-60478200D02*
X143052237Y-60430580D01*
X143052237Y-60430580D02*
X143052237Y-60525819D01*
X143433189Y-59525819D02*
X144052236Y-59525819D01*
X144052236Y-59525819D02*
X143718903Y-59906771D01*
X143718903Y-59906771D02*
X143861760Y-59906771D01*
X143861760Y-59906771D02*
X143956998Y-59954390D01*
X143956998Y-59954390D02*
X144004617Y-60002009D01*
X144004617Y-60002009D02*
X144052236Y-60097247D01*
X144052236Y-60097247D02*
X144052236Y-60335342D01*
X144052236Y-60335342D02*
X144004617Y-60430580D01*
X144004617Y-60430580D02*
X143956998Y-60478200D01*
X143956998Y-60478200D02*
X143861760Y-60525819D01*
X143861760Y-60525819D02*
X143576046Y-60525819D01*
X143576046Y-60525819D02*
X143480808Y-60478200D01*
X143480808Y-60478200D02*
X143433189Y-60430580D01*
X78162047Y-60478200D02*
X78304904Y-60525819D01*
X78304904Y-60525819D02*
X78542999Y-60525819D01*
X78542999Y-60525819D02*
X78638237Y-60478200D01*
X78638237Y-60478200D02*
X78685856Y-60430580D01*
X78685856Y-60430580D02*
X78733475Y-60335342D01*
X78733475Y-60335342D02*
X78733475Y-60240104D01*
X78733475Y-60240104D02*
X78685856Y-60144866D01*
X78685856Y-60144866D02*
X78638237Y-60097247D01*
X78638237Y-60097247D02*
X78542999Y-60049628D01*
X78542999Y-60049628D02*
X78352523Y-60002009D01*
X78352523Y-60002009D02*
X78257285Y-59954390D01*
X78257285Y-59954390D02*
X78209666Y-59906771D01*
X78209666Y-59906771D02*
X78162047Y-59811533D01*
X78162047Y-59811533D02*
X78162047Y-59716295D01*
X78162047Y-59716295D02*
X78209666Y-59621057D01*
X78209666Y-59621057D02*
X78257285Y-59573438D01*
X78257285Y-59573438D02*
X78352523Y-59525819D01*
X78352523Y-59525819D02*
X78590618Y-59525819D01*
X78590618Y-59525819D02*
X78733475Y-59573438D01*
X79019190Y-59859152D02*
X79400142Y-59859152D01*
X79162047Y-59525819D02*
X79162047Y-60382961D01*
X79162047Y-60382961D02*
X79209666Y-60478200D01*
X79209666Y-60478200D02*
X79304904Y-60525819D01*
X79304904Y-60525819D02*
X79400142Y-60525819D01*
X79733476Y-60525819D02*
X79733476Y-59859152D01*
X79733476Y-60049628D02*
X79781095Y-59954390D01*
X79781095Y-59954390D02*
X79828714Y-59906771D01*
X79828714Y-59906771D02*
X79923952Y-59859152D01*
X79923952Y-59859152D02*
X80019190Y-59859152D01*
X80781095Y-60525819D02*
X80781095Y-60002009D01*
X80781095Y-60002009D02*
X80733476Y-59906771D01*
X80733476Y-59906771D02*
X80638238Y-59859152D01*
X80638238Y-59859152D02*
X80447762Y-59859152D01*
X80447762Y-59859152D02*
X80352524Y-59906771D01*
X80781095Y-60478200D02*
X80685857Y-60525819D01*
X80685857Y-60525819D02*
X80447762Y-60525819D01*
X80447762Y-60525819D02*
X80352524Y-60478200D01*
X80352524Y-60478200D02*
X80304905Y-60382961D01*
X80304905Y-60382961D02*
X80304905Y-60287723D01*
X80304905Y-60287723D02*
X80352524Y-60192485D01*
X80352524Y-60192485D02*
X80447762Y-60144866D01*
X80447762Y-60144866D02*
X80685857Y-60144866D01*
X80685857Y-60144866D02*
X80781095Y-60097247D01*
X81257286Y-60525819D02*
X81257286Y-59859152D01*
X81257286Y-59525819D02*
X81209667Y-59573438D01*
X81209667Y-59573438D02*
X81257286Y-59621057D01*
X81257286Y-59621057D02*
X81304905Y-59573438D01*
X81304905Y-59573438D02*
X81257286Y-59525819D01*
X81257286Y-59525819D02*
X81257286Y-59621057D01*
X81733476Y-59859152D02*
X81733476Y-60525819D01*
X81733476Y-59954390D02*
X81781095Y-59906771D01*
X81781095Y-59906771D02*
X81876333Y-59859152D01*
X81876333Y-59859152D02*
X82019190Y-59859152D01*
X82019190Y-59859152D02*
X82114428Y-59906771D01*
X82114428Y-59906771D02*
X82162047Y-60002009D01*
X82162047Y-60002009D02*
X82162047Y-60525819D01*
X82400143Y-60621057D02*
X83162047Y-60621057D01*
X83923952Y-60525819D02*
X83352524Y-60525819D01*
X83638238Y-60525819D02*
X83638238Y-59525819D01*
X83638238Y-59525819D02*
X83543000Y-59668676D01*
X83543000Y-59668676D02*
X83447762Y-59763914D01*
X83447762Y-59763914D02*
X83352524Y-59811533D01*
X112827189Y-60525819D02*
X112827189Y-59525819D01*
X112827189Y-59525819D02*
X113208141Y-59525819D01*
X113208141Y-59525819D02*
X113303379Y-59573438D01*
X113303379Y-59573438D02*
X113350998Y-59621057D01*
X113350998Y-59621057D02*
X113398617Y-59716295D01*
X113398617Y-59716295D02*
X113398617Y-59859152D01*
X113398617Y-59859152D02*
X113350998Y-59954390D01*
X113350998Y-59954390D02*
X113303379Y-60002009D01*
X113303379Y-60002009D02*
X113208141Y-60049628D01*
X113208141Y-60049628D02*
X112827189Y-60049628D01*
X113827189Y-60525819D02*
X113827189Y-59859152D01*
X113827189Y-59525819D02*
X113779570Y-59573438D01*
X113779570Y-59573438D02*
X113827189Y-59621057D01*
X113827189Y-59621057D02*
X113874808Y-59573438D01*
X113874808Y-59573438D02*
X113827189Y-59525819D01*
X113827189Y-59525819D02*
X113827189Y-59621057D01*
X114446236Y-60525819D02*
X114350998Y-60478200D01*
X114350998Y-60478200D02*
X114303379Y-60382961D01*
X114303379Y-60382961D02*
X114303379Y-59525819D01*
X114970046Y-60525819D02*
X114874808Y-60478200D01*
X114874808Y-60478200D02*
X114827189Y-60430580D01*
X114827189Y-60430580D02*
X114779570Y-60335342D01*
X114779570Y-60335342D02*
X114779570Y-60049628D01*
X114779570Y-60049628D02*
X114827189Y-59954390D01*
X114827189Y-59954390D02*
X114874808Y-59906771D01*
X114874808Y-59906771D02*
X114970046Y-59859152D01*
X114970046Y-59859152D02*
X115112903Y-59859152D01*
X115112903Y-59859152D02*
X115208141Y-59906771D01*
X115208141Y-59906771D02*
X115255760Y-59954390D01*
X115255760Y-59954390D02*
X115303379Y-60049628D01*
X115303379Y-60049628D02*
X115303379Y-60335342D01*
X115303379Y-60335342D02*
X115255760Y-60430580D01*
X115255760Y-60430580D02*
X115208141Y-60478200D01*
X115208141Y-60478200D02*
X115112903Y-60525819D01*
X115112903Y-60525819D02*
X114970046Y-60525819D01*
X115589094Y-59859152D02*
X115970046Y-59859152D01*
X115731951Y-59525819D02*
X115731951Y-60382961D01*
X115731951Y-60382961D02*
X115779570Y-60478200D01*
X115779570Y-60478200D02*
X115874808Y-60525819D01*
X115874808Y-60525819D02*
X115970046Y-60525819D01*
X116065285Y-60621057D02*
X116827189Y-60621057D01*
X117589094Y-60525819D02*
X117017666Y-60525819D01*
X117303380Y-60525819D02*
X117303380Y-59525819D01*
X117303380Y-59525819D02*
X117208142Y-59668676D01*
X117208142Y-59668676D02*
X117112904Y-59763914D01*
X117112904Y-59763914D02*
X117017666Y-59811533D01*
X148550333Y-78554155D02*
X148217000Y-78077964D01*
X147978905Y-78554155D02*
X147978905Y-77554155D01*
X147978905Y-77554155D02*
X148359857Y-77554155D01*
X148359857Y-77554155D02*
X148455095Y-77601774D01*
X148455095Y-77601774D02*
X148502714Y-77649393D01*
X148502714Y-77649393D02*
X148550333Y-77744631D01*
X148550333Y-77744631D02*
X148550333Y-77887488D01*
X148550333Y-77887488D02*
X148502714Y-77982726D01*
X148502714Y-77982726D02*
X148455095Y-78030345D01*
X148455095Y-78030345D02*
X148359857Y-78077964D01*
X148359857Y-78077964D02*
X147978905Y-78077964D01*
X149455095Y-77554155D02*
X148978905Y-77554155D01*
X148978905Y-77554155D02*
X148931286Y-78030345D01*
X148931286Y-78030345D02*
X148978905Y-77982726D01*
X148978905Y-77982726D02*
X149074143Y-77935107D01*
X149074143Y-77935107D02*
X149312238Y-77935107D01*
X149312238Y-77935107D02*
X149407476Y-77982726D01*
X149407476Y-77982726D02*
X149455095Y-78030345D01*
X149455095Y-78030345D02*
X149502714Y-78125583D01*
X149502714Y-78125583D02*
X149502714Y-78363678D01*
X149502714Y-78363678D02*
X149455095Y-78458916D01*
X149455095Y-78458916D02*
X149407476Y-78506536D01*
X149407476Y-78506536D02*
X149312238Y-78554155D01*
X149312238Y-78554155D02*
X149074143Y-78554155D01*
X149074143Y-78554155D02*
X148978905Y-78506536D01*
X148978905Y-78506536D02*
X148931286Y-78458916D01*
X91384666Y-138154580D02*
X91337047Y-138202200D01*
X91337047Y-138202200D02*
X91194190Y-138249819D01*
X91194190Y-138249819D02*
X91098952Y-138249819D01*
X91098952Y-138249819D02*
X90956095Y-138202200D01*
X90956095Y-138202200D02*
X90860857Y-138106961D01*
X90860857Y-138106961D02*
X90813238Y-138011723D01*
X90813238Y-138011723D02*
X90765619Y-137821247D01*
X90765619Y-137821247D02*
X90765619Y-137678390D01*
X90765619Y-137678390D02*
X90813238Y-137487914D01*
X90813238Y-137487914D02*
X90860857Y-137392676D01*
X90860857Y-137392676D02*
X90956095Y-137297438D01*
X90956095Y-137297438D02*
X91098952Y-137249819D01*
X91098952Y-137249819D02*
X91194190Y-137249819D01*
X91194190Y-137249819D02*
X91337047Y-137297438D01*
X91337047Y-137297438D02*
X91384666Y-137345057D01*
X91956095Y-138249819D02*
X91860857Y-138202200D01*
X91860857Y-138202200D02*
X91813238Y-138154580D01*
X91813238Y-138154580D02*
X91765619Y-138059342D01*
X91765619Y-138059342D02*
X91765619Y-137773628D01*
X91765619Y-137773628D02*
X91813238Y-137678390D01*
X91813238Y-137678390D02*
X91860857Y-137630771D01*
X91860857Y-137630771D02*
X91956095Y-137583152D01*
X91956095Y-137583152D02*
X92098952Y-137583152D01*
X92098952Y-137583152D02*
X92194190Y-137630771D01*
X92194190Y-137630771D02*
X92241809Y-137678390D01*
X92241809Y-137678390D02*
X92289428Y-137773628D01*
X92289428Y-137773628D02*
X92289428Y-138059342D01*
X92289428Y-138059342D02*
X92241809Y-138154580D01*
X92241809Y-138154580D02*
X92194190Y-138202200D01*
X92194190Y-138202200D02*
X92098952Y-138249819D01*
X92098952Y-138249819D02*
X91956095Y-138249819D01*
X93146571Y-138249819D02*
X93146571Y-137249819D01*
X93146571Y-138202200D02*
X93051333Y-138249819D01*
X93051333Y-138249819D02*
X92860857Y-138249819D01*
X92860857Y-138249819D02*
X92765619Y-138202200D01*
X92765619Y-138202200D02*
X92718000Y-138154580D01*
X92718000Y-138154580D02*
X92670381Y-138059342D01*
X92670381Y-138059342D02*
X92670381Y-137773628D01*
X92670381Y-137773628D02*
X92718000Y-137678390D01*
X92718000Y-137678390D02*
X92765619Y-137630771D01*
X92765619Y-137630771D02*
X92860857Y-137583152D01*
X92860857Y-137583152D02*
X93051333Y-137583152D01*
X93051333Y-137583152D02*
X93146571Y-137630771D01*
X94003714Y-138202200D02*
X93908476Y-138249819D01*
X93908476Y-138249819D02*
X93718000Y-138249819D01*
X93718000Y-138249819D02*
X93622762Y-138202200D01*
X93622762Y-138202200D02*
X93575143Y-138106961D01*
X93575143Y-138106961D02*
X93575143Y-137726009D01*
X93575143Y-137726009D02*
X93622762Y-137630771D01*
X93622762Y-137630771D02*
X93718000Y-137583152D01*
X93718000Y-137583152D02*
X93908476Y-137583152D01*
X93908476Y-137583152D02*
X94003714Y-137630771D01*
X94003714Y-137630771D02*
X94051333Y-137726009D01*
X94051333Y-137726009D02*
X94051333Y-137821247D01*
X94051333Y-137821247D02*
X93575143Y-137916485D01*
X94241810Y-138345057D02*
X95003714Y-138345057D01*
X95194191Y-137964104D02*
X95670381Y-137964104D01*
X95098953Y-138249819D02*
X95432286Y-137249819D01*
X95432286Y-137249819D02*
X95765619Y-138249819D01*
X151847333Y-116532819D02*
X151514000Y-116056628D01*
X151275905Y-116532819D02*
X151275905Y-115532819D01*
X151275905Y-115532819D02*
X151656857Y-115532819D01*
X151656857Y-115532819D02*
X151752095Y-115580438D01*
X151752095Y-115580438D02*
X151799714Y-115628057D01*
X151799714Y-115628057D02*
X151847333Y-115723295D01*
X151847333Y-115723295D02*
X151847333Y-115866152D01*
X151847333Y-115866152D02*
X151799714Y-115961390D01*
X151799714Y-115961390D02*
X151752095Y-116009009D01*
X151752095Y-116009009D02*
X151656857Y-116056628D01*
X151656857Y-116056628D02*
X151275905Y-116056628D01*
X152180667Y-115532819D02*
X152799714Y-115532819D01*
X152799714Y-115532819D02*
X152466381Y-115913771D01*
X152466381Y-115913771D02*
X152609238Y-115913771D01*
X152609238Y-115913771D02*
X152704476Y-115961390D01*
X152704476Y-115961390D02*
X152752095Y-116009009D01*
X152752095Y-116009009D02*
X152799714Y-116104247D01*
X152799714Y-116104247D02*
X152799714Y-116342342D01*
X152799714Y-116342342D02*
X152752095Y-116437580D01*
X152752095Y-116437580D02*
X152704476Y-116485200D01*
X152704476Y-116485200D02*
X152609238Y-116532819D01*
X152609238Y-116532819D02*
X152323524Y-116532819D01*
X152323524Y-116532819D02*
X152228286Y-116485200D01*
X152228286Y-116485200D02*
X152180667Y-116437580D01*
X77655009Y-104361952D02*
X77702628Y-104219095D01*
X77702628Y-104219095D02*
X77750247Y-104171476D01*
X77750247Y-104171476D02*
X77845485Y-104123857D01*
X77845485Y-104123857D02*
X77988342Y-104123857D01*
X77988342Y-104123857D02*
X78083580Y-104171476D01*
X78083580Y-104171476D02*
X78131200Y-104219095D01*
X78131200Y-104219095D02*
X78178819Y-104314333D01*
X78178819Y-104314333D02*
X78178819Y-104695285D01*
X78178819Y-104695285D02*
X77178819Y-104695285D01*
X77178819Y-104695285D02*
X77178819Y-104361952D01*
X77178819Y-104361952D02*
X77226438Y-104266714D01*
X77226438Y-104266714D02*
X77274057Y-104219095D01*
X77274057Y-104219095D02*
X77369295Y-104171476D01*
X77369295Y-104171476D02*
X77464533Y-104171476D01*
X77464533Y-104171476D02*
X77559771Y-104219095D01*
X77559771Y-104219095D02*
X77607390Y-104266714D01*
X77607390Y-104266714D02*
X77655009Y-104361952D01*
X77655009Y-104361952D02*
X77655009Y-104695285D01*
X78178819Y-103695285D02*
X77512152Y-103695285D01*
X77702628Y-103695285D02*
X77607390Y-103647666D01*
X77607390Y-103647666D02*
X77559771Y-103600047D01*
X77559771Y-103600047D02*
X77512152Y-103504809D01*
X77512152Y-103504809D02*
X77512152Y-103409571D01*
X78178819Y-102647666D02*
X77655009Y-102647666D01*
X77655009Y-102647666D02*
X77559771Y-102695285D01*
X77559771Y-102695285D02*
X77512152Y-102790523D01*
X77512152Y-102790523D02*
X77512152Y-102980999D01*
X77512152Y-102980999D02*
X77559771Y-103076237D01*
X78131200Y-102647666D02*
X78178819Y-102742904D01*
X78178819Y-102742904D02*
X78178819Y-102980999D01*
X78178819Y-102980999D02*
X78131200Y-103076237D01*
X78131200Y-103076237D02*
X78035961Y-103123856D01*
X78035961Y-103123856D02*
X77940723Y-103123856D01*
X77940723Y-103123856D02*
X77845485Y-103076237D01*
X77845485Y-103076237D02*
X77797866Y-102980999D01*
X77797866Y-102980999D02*
X77797866Y-102742904D01*
X77797866Y-102742904D02*
X77750247Y-102647666D01*
X78178819Y-102171475D02*
X77178819Y-102171475D01*
X77797866Y-102076237D02*
X78178819Y-101790523D01*
X77512152Y-101790523D02*
X77893104Y-102171475D01*
X78131200Y-100980999D02*
X78178819Y-101076237D01*
X78178819Y-101076237D02*
X78178819Y-101266713D01*
X78178819Y-101266713D02*
X78131200Y-101361951D01*
X78131200Y-101361951D02*
X78035961Y-101409570D01*
X78035961Y-101409570D02*
X77655009Y-101409570D01*
X77655009Y-101409570D02*
X77559771Y-101361951D01*
X77559771Y-101361951D02*
X77512152Y-101266713D01*
X77512152Y-101266713D02*
X77512152Y-101076237D01*
X77512152Y-101076237D02*
X77559771Y-100980999D01*
X77559771Y-100980999D02*
X77655009Y-100933380D01*
X77655009Y-100933380D02*
X77750247Y-100933380D01*
X77750247Y-100933380D02*
X77845485Y-101409570D01*
X78274057Y-100742904D02*
X78274057Y-99980999D01*
X77274057Y-99790522D02*
X77226438Y-99742903D01*
X77226438Y-99742903D02*
X77178819Y-99647665D01*
X77178819Y-99647665D02*
X77178819Y-99409570D01*
X77178819Y-99409570D02*
X77226438Y-99314332D01*
X77226438Y-99314332D02*
X77274057Y-99266713D01*
X77274057Y-99266713D02*
X77369295Y-99219094D01*
X77369295Y-99219094D02*
X77464533Y-99219094D01*
X77464533Y-99219094D02*
X77607390Y-99266713D01*
X77607390Y-99266713D02*
X78178819Y-99838141D01*
X78178819Y-99838141D02*
X78178819Y-99219094D01*
X78178819Y-81351190D02*
X77178819Y-81351190D01*
X77178819Y-81351190D02*
X77178819Y-80970238D01*
X77178819Y-80970238D02*
X77226438Y-80875000D01*
X77226438Y-80875000D02*
X77274057Y-80827381D01*
X77274057Y-80827381D02*
X77369295Y-80779762D01*
X77369295Y-80779762D02*
X77512152Y-80779762D01*
X77512152Y-80779762D02*
X77607390Y-80827381D01*
X77607390Y-80827381D02*
X77655009Y-80875000D01*
X77655009Y-80875000D02*
X77702628Y-80970238D01*
X77702628Y-80970238D02*
X77702628Y-81351190D01*
X78178819Y-80208333D02*
X78131200Y-80303571D01*
X78131200Y-80303571D02*
X78083580Y-80351190D01*
X78083580Y-80351190D02*
X77988342Y-80398809D01*
X77988342Y-80398809D02*
X77702628Y-80398809D01*
X77702628Y-80398809D02*
X77607390Y-80351190D01*
X77607390Y-80351190D02*
X77559771Y-80303571D01*
X77559771Y-80303571D02*
X77512152Y-80208333D01*
X77512152Y-80208333D02*
X77512152Y-80065476D01*
X77512152Y-80065476D02*
X77559771Y-79970238D01*
X77559771Y-79970238D02*
X77607390Y-79922619D01*
X77607390Y-79922619D02*
X77702628Y-79875000D01*
X77702628Y-79875000D02*
X77988342Y-79875000D01*
X77988342Y-79875000D02*
X78083580Y-79922619D01*
X78083580Y-79922619D02*
X78131200Y-79970238D01*
X78131200Y-79970238D02*
X78178819Y-80065476D01*
X78178819Y-80065476D02*
X78178819Y-80208333D01*
X77512152Y-79541666D02*
X78178819Y-79351190D01*
X78178819Y-79351190D02*
X77702628Y-79160714D01*
X77702628Y-79160714D02*
X78178819Y-78970238D01*
X78178819Y-78970238D02*
X77512152Y-78779762D01*
X78131200Y-78017857D02*
X78178819Y-78113095D01*
X78178819Y-78113095D02*
X78178819Y-78303571D01*
X78178819Y-78303571D02*
X78131200Y-78398809D01*
X78131200Y-78398809D02*
X78035961Y-78446428D01*
X78035961Y-78446428D02*
X77655009Y-78446428D01*
X77655009Y-78446428D02*
X77559771Y-78398809D01*
X77559771Y-78398809D02*
X77512152Y-78303571D01*
X77512152Y-78303571D02*
X77512152Y-78113095D01*
X77512152Y-78113095D02*
X77559771Y-78017857D01*
X77559771Y-78017857D02*
X77655009Y-77970238D01*
X77655009Y-77970238D02*
X77750247Y-77970238D01*
X77750247Y-77970238D02*
X77845485Y-78446428D01*
X78178819Y-77541666D02*
X77512152Y-77541666D01*
X77702628Y-77541666D02*
X77607390Y-77494047D01*
X77607390Y-77494047D02*
X77559771Y-77446428D01*
X77559771Y-77446428D02*
X77512152Y-77351190D01*
X77512152Y-77351190D02*
X77512152Y-77255952D01*
D12*
%TO.C,7*%
X140997000Y-135418000D02*
X140997000Y-136668000D01*
X140997000Y-136668000D02*
X142247000Y-136668000D01*
X141287000Y-126258000D02*
X141287000Y-136378000D01*
X141287000Y-136378000D02*
X147257000Y-136378000D01*
X141297000Y-126268000D02*
X141297000Y-128068000D01*
X141297000Y-128068000D02*
X142047000Y-128068000D01*
X141297000Y-129568000D02*
X141297000Y-133068000D01*
X141297000Y-133068000D02*
X142047000Y-133068000D01*
X141297000Y-134568000D02*
X141297000Y-136368000D01*
X141297000Y-136368000D02*
X142047000Y-136368000D01*
X142047000Y-126268000D02*
X141297000Y-126268000D01*
X142047000Y-128068000D02*
X142047000Y-126268000D01*
X142047000Y-129568000D02*
X141297000Y-129568000D01*
X142047000Y-133068000D02*
X142047000Y-129568000D01*
X142047000Y-134568000D02*
X141297000Y-134568000D01*
X142047000Y-136368000D02*
X142047000Y-134568000D01*
X143547000Y-126268000D02*
X143547000Y-127018000D01*
X143547000Y-127018000D02*
X146497000Y-127018000D01*
X143547000Y-135618000D02*
X146497000Y-135618000D01*
X143547000Y-136368000D02*
X143547000Y-135618000D01*
X146497000Y-127018000D02*
X146497000Y-131318000D01*
X146497000Y-135618000D02*
X146497000Y-131318000D01*
X147257000Y-126258000D02*
X141287000Y-126258000D01*
X147257000Y-136378000D02*
X147257000Y-126258000D01*
%TO.C,Code_B*%
X130837000Y-135418000D02*
X130837000Y-136668000D01*
X130837000Y-136668000D02*
X132087000Y-136668000D01*
X131127000Y-126258000D02*
X131127000Y-136378000D01*
X131127000Y-136378000D02*
X137097000Y-136378000D01*
X131137000Y-126268000D02*
X131137000Y-128068000D01*
X131137000Y-128068000D02*
X131887000Y-128068000D01*
X131137000Y-129568000D02*
X131137000Y-133068000D01*
X131137000Y-133068000D02*
X131887000Y-133068000D01*
X131137000Y-134568000D02*
X131137000Y-136368000D01*
X131137000Y-136368000D02*
X131887000Y-136368000D01*
X131887000Y-126268000D02*
X131137000Y-126268000D01*
X131887000Y-128068000D02*
X131887000Y-126268000D01*
X131887000Y-129568000D02*
X131137000Y-129568000D01*
X131887000Y-133068000D02*
X131887000Y-129568000D01*
X131887000Y-134568000D02*
X131137000Y-134568000D01*
X131887000Y-136368000D02*
X131887000Y-134568000D01*
X133387000Y-126268000D02*
X133387000Y-127018000D01*
X133387000Y-127018000D02*
X136337000Y-127018000D01*
X133387000Y-135618000D02*
X136337000Y-135618000D01*
X133387000Y-136368000D02*
X133387000Y-135618000D01*
X136337000Y-127018000D02*
X136337000Y-131318000D01*
X136337000Y-135618000D02*
X136337000Y-131318000D01*
X137097000Y-126258000D02*
X131127000Y-126258000D01*
X137097000Y-136378000D02*
X137097000Y-126258000D01*
%TO.C,C1*%
X122547748Y-81180000D02*
X123070252Y-81180000D01*
X122547748Y-82650000D02*
X123070252Y-82650000D01*
%TO.C,~RST*%
X154859000Y-61361000D02*
X154859000Y-71481000D01*
X154859000Y-71481000D02*
X160829000Y-71481000D01*
X155619000Y-62121000D02*
X155619000Y-66421000D01*
X155619000Y-70721000D02*
X155619000Y-66421000D01*
X158569000Y-61371000D02*
X158569000Y-62121000D01*
X158569000Y-62121000D02*
X155619000Y-62121000D01*
X158569000Y-70721000D02*
X155619000Y-70721000D01*
X158569000Y-71471000D02*
X158569000Y-70721000D01*
X160069000Y-61371000D02*
X160069000Y-63171000D01*
X160069000Y-63171000D02*
X160819000Y-63171000D01*
X160069000Y-64671000D02*
X160069000Y-68171000D01*
X160069000Y-68171000D02*
X160819000Y-68171000D01*
X160069000Y-69671000D02*
X160069000Y-71471000D01*
X160069000Y-71471000D02*
X160819000Y-71471000D01*
X160819000Y-61371000D02*
X160069000Y-61371000D01*
X160819000Y-63171000D02*
X160819000Y-61371000D01*
X160819000Y-64671000D02*
X160069000Y-64671000D01*
X160819000Y-68171000D02*
X160819000Y-64671000D01*
X160819000Y-69671000D02*
X160069000Y-69671000D01*
X160819000Y-71471000D02*
X160819000Y-69671000D01*
X160829000Y-61361000D02*
X154859000Y-61361000D01*
X160829000Y-71481000D02*
X160829000Y-61361000D01*
X161119000Y-61071000D02*
X159869000Y-61071000D01*
X161119000Y-62321000D02*
X161119000Y-61071000D01*
%TO.C,CAN*%
X78851000Y-87593500D02*
X78851000Y-88843500D01*
X79141000Y-87883500D02*
X79141000Y-93853500D01*
X79141000Y-93853500D02*
X91761000Y-93853500D01*
X79151000Y-87893500D02*
X79151000Y-88643500D01*
X79151000Y-88643500D02*
X80951000Y-88643500D01*
X79151000Y-90143500D02*
X79901000Y-90143500D01*
X79901000Y-90143500D02*
X79901000Y-93093500D01*
X79901000Y-93093500D02*
X85451000Y-93093500D01*
X80101000Y-87593500D02*
X78851000Y-87593500D01*
X80951000Y-87893500D02*
X79151000Y-87893500D01*
X80951000Y-88643500D02*
X80951000Y-87893500D01*
X82451000Y-87893500D02*
X82451000Y-88643500D01*
X82451000Y-88643500D02*
X88451000Y-88643500D01*
X88451000Y-87893500D02*
X82451000Y-87893500D01*
X88451000Y-88643500D02*
X88451000Y-87893500D01*
X89951000Y-87893500D02*
X89951000Y-88643500D01*
X89951000Y-88643500D02*
X91751000Y-88643500D01*
X91001000Y-90143500D02*
X91001000Y-93093500D01*
X91001000Y-93093500D02*
X85451000Y-93093500D01*
X91751000Y-87893500D02*
X89951000Y-87893500D01*
X91751000Y-88643500D02*
X91751000Y-87893500D01*
X91751000Y-90143500D02*
X91001000Y-90143500D01*
X91761000Y-87883500D02*
X79141000Y-87883500D01*
X91761000Y-93853500D02*
X91761000Y-87883500D01*
%TO.C,R6*%
X95167000Y-121129064D02*
X95167000Y-120674936D01*
X96637000Y-121129064D02*
X96637000Y-120674936D01*
%TO.C,Temp*%
X103646999Y-61361000D02*
X103646999Y-71481000D01*
X103646999Y-71481000D02*
X109616999Y-71481000D01*
X104406999Y-62121000D02*
X104406999Y-66421000D01*
X104406999Y-70721000D02*
X104406999Y-66421000D01*
X107356999Y-61371000D02*
X107356999Y-62121000D01*
X107356999Y-62121000D02*
X104406999Y-62121000D01*
X107356999Y-70721000D02*
X104406999Y-70721000D01*
X107356999Y-71471000D02*
X107356999Y-70721000D01*
X108856999Y-61371000D02*
X108856999Y-63171000D01*
X108856999Y-63171000D02*
X109606999Y-63171000D01*
X108856999Y-64671000D02*
X108856999Y-68171000D01*
X108856999Y-68171000D02*
X109606999Y-68171000D01*
X108856999Y-69671000D02*
X108856999Y-71471000D01*
X108856999Y-71471000D02*
X109606999Y-71471000D01*
X109606999Y-61371000D02*
X108856999Y-61371000D01*
X109606999Y-63171000D02*
X109606999Y-61371000D01*
X109606999Y-64671000D02*
X108856999Y-64671000D01*
X109606999Y-68171000D02*
X109606999Y-64671000D01*
X109606999Y-69671000D02*
X108856999Y-69671000D01*
X109606999Y-71471000D02*
X109606999Y-69671000D01*
X109616999Y-61361000D02*
X103646999Y-61361000D01*
X109616999Y-71481000D02*
X109616999Y-61361000D01*
X109906999Y-61071000D02*
X108656999Y-61071000D01*
X109906999Y-62321000D02*
X109906999Y-61071000D01*
%TO.C,Throt_5*%
X146323664Y-61361000D02*
X146323664Y-71481000D01*
X146323664Y-71481000D02*
X152293664Y-71481000D01*
X147083664Y-62121000D02*
X147083664Y-66421000D01*
X147083664Y-70721000D02*
X147083664Y-66421000D01*
X150033664Y-61371000D02*
X150033664Y-62121000D01*
X150033664Y-62121000D02*
X147083664Y-62121000D01*
X150033664Y-70721000D02*
X147083664Y-70721000D01*
X150033664Y-71471000D02*
X150033664Y-70721000D01*
X151533664Y-61371000D02*
X151533664Y-63171000D01*
X151533664Y-63171000D02*
X152283664Y-63171000D01*
X151533664Y-64671000D02*
X151533664Y-68171000D01*
X151533664Y-68171000D02*
X152283664Y-68171000D01*
X151533664Y-69671000D02*
X151533664Y-71471000D01*
X151533664Y-71471000D02*
X152283664Y-71471000D01*
X152283664Y-61371000D02*
X151533664Y-61371000D01*
X152283664Y-63171000D02*
X152283664Y-61371000D01*
X152283664Y-64671000D02*
X151533664Y-64671000D01*
X152283664Y-68171000D02*
X152283664Y-64671000D01*
X152283664Y-69671000D02*
X151533664Y-69671000D01*
X152283664Y-71471000D02*
X152283664Y-69671000D01*
X152293664Y-61361000D02*
X146323664Y-61361000D01*
X152293664Y-71481000D02*
X152293664Y-61361000D01*
X152583664Y-61071000D02*
X151333664Y-61071000D01*
X152583664Y-62321000D02*
X152583664Y-61071000D01*
%TO.C,Flow*%
X95111666Y-61361000D02*
X95111666Y-71481000D01*
X95111666Y-71481000D02*
X101081666Y-71481000D01*
X95871666Y-62121000D02*
X95871666Y-66421000D01*
X95871666Y-70721000D02*
X95871666Y-66421000D01*
X98821666Y-61371000D02*
X98821666Y-62121000D01*
X98821666Y-62121000D02*
X95871666Y-62121000D01*
X98821666Y-70721000D02*
X95871666Y-70721000D01*
X98821666Y-71471000D02*
X98821666Y-70721000D01*
X100321666Y-61371000D02*
X100321666Y-63171000D01*
X100321666Y-63171000D02*
X101071666Y-63171000D01*
X100321666Y-64671000D02*
X100321666Y-68171000D01*
X100321666Y-68171000D02*
X101071666Y-68171000D01*
X100321666Y-69671000D02*
X100321666Y-71471000D01*
X100321666Y-71471000D02*
X101071666Y-71471000D01*
X101071666Y-61371000D02*
X100321666Y-61371000D01*
X101071666Y-63171000D02*
X101071666Y-61371000D01*
X101071666Y-64671000D02*
X100321666Y-64671000D01*
X101071666Y-68171000D02*
X101071666Y-64671000D01*
X101071666Y-69671000D02*
X100321666Y-69671000D01*
X101071666Y-71471000D02*
X101071666Y-69671000D01*
X101081666Y-61361000D02*
X95111666Y-61361000D01*
X101081666Y-71481000D02*
X101081666Y-61361000D01*
X101371666Y-61071000D02*
X100121666Y-61071000D01*
X101371666Y-62321000D02*
X101371666Y-61071000D01*
%TO.C,8*%
X151157000Y-135418000D02*
X151157000Y-136668000D01*
X151157000Y-136668000D02*
X152407000Y-136668000D01*
X151447000Y-126258000D02*
X151447000Y-136378000D01*
X151447000Y-136378000D02*
X157417000Y-136378000D01*
X151457000Y-126268000D02*
X151457000Y-128068000D01*
X151457000Y-128068000D02*
X152207000Y-128068000D01*
X151457000Y-129568000D02*
X151457000Y-133068000D01*
X151457000Y-133068000D02*
X152207000Y-133068000D01*
X151457000Y-134568000D02*
X151457000Y-136368000D01*
X151457000Y-136368000D02*
X152207000Y-136368000D01*
X152207000Y-126268000D02*
X151457000Y-126268000D01*
X152207000Y-128068000D02*
X152207000Y-126268000D01*
X152207000Y-129568000D02*
X151457000Y-129568000D01*
X152207000Y-133068000D02*
X152207000Y-129568000D01*
X152207000Y-134568000D02*
X151457000Y-134568000D01*
X152207000Y-136368000D02*
X152207000Y-134568000D01*
X153707000Y-126268000D02*
X153707000Y-127018000D01*
X153707000Y-127018000D02*
X156657000Y-127018000D01*
X153707000Y-135618000D02*
X156657000Y-135618000D01*
X153707000Y-136368000D02*
X153707000Y-135618000D01*
X156657000Y-127018000D02*
X156657000Y-131318000D01*
X156657000Y-135618000D02*
X156657000Y-131318000D01*
X157417000Y-126258000D02*
X151447000Y-126258000D01*
X157417000Y-136378000D02*
X157417000Y-126258000D01*
%TO.C,Pilot_2*%
X120717665Y-61361000D02*
X120717665Y-71481000D01*
X120717665Y-71481000D02*
X126687665Y-71481000D01*
X121477665Y-62121000D02*
X121477665Y-66421000D01*
X121477665Y-70721000D02*
X121477665Y-66421000D01*
X124427665Y-61371000D02*
X124427665Y-62121000D01*
X124427665Y-62121000D02*
X121477665Y-62121000D01*
X124427665Y-70721000D02*
X121477665Y-70721000D01*
X124427665Y-71471000D02*
X124427665Y-70721000D01*
X125927665Y-61371000D02*
X125927665Y-63171000D01*
X125927665Y-63171000D02*
X126677665Y-63171000D01*
X125927665Y-64671000D02*
X125927665Y-68171000D01*
X125927665Y-68171000D02*
X126677665Y-68171000D01*
X125927665Y-69671000D02*
X125927665Y-71471000D01*
X125927665Y-71471000D02*
X126677665Y-71471000D01*
X126677665Y-61371000D02*
X125927665Y-61371000D01*
X126677665Y-63171000D02*
X126677665Y-61371000D01*
X126677665Y-64671000D02*
X125927665Y-64671000D01*
X126677665Y-68171000D02*
X126677665Y-64671000D01*
X126677665Y-69671000D02*
X125927665Y-69671000D01*
X126677665Y-71471000D02*
X126677665Y-69671000D01*
X126687665Y-61361000D02*
X120717665Y-61361000D01*
X126687665Y-71481000D02*
X126687665Y-61361000D01*
X126977665Y-61071000D02*
X125727665Y-61071000D01*
X126977665Y-62321000D02*
X126977665Y-61071000D01*
%TO.C,R2*%
X95277000Y-79983064D02*
X95277000Y-79528936D01*
X96747000Y-79983064D02*
X96747000Y-79528936D01*
%TO.C,B8*%
X120677000Y-135418000D02*
X120677000Y-136668000D01*
X120677000Y-136668000D02*
X121927000Y-136668000D01*
X120967000Y-126258000D02*
X120967000Y-136378000D01*
X120967000Y-136378000D02*
X126937000Y-136378000D01*
X120977000Y-126268000D02*
X120977000Y-128068000D01*
X120977000Y-128068000D02*
X121727000Y-128068000D01*
X120977000Y-129568000D02*
X120977000Y-133068000D01*
X120977000Y-133068000D02*
X121727000Y-133068000D01*
X120977000Y-134568000D02*
X120977000Y-136368000D01*
X120977000Y-136368000D02*
X121727000Y-136368000D01*
X121727000Y-126268000D02*
X120977000Y-126268000D01*
X121727000Y-128068000D02*
X121727000Y-126268000D01*
X121727000Y-129568000D02*
X120977000Y-129568000D01*
X121727000Y-133068000D02*
X121727000Y-129568000D01*
X121727000Y-134568000D02*
X120977000Y-134568000D01*
X121727000Y-136368000D02*
X121727000Y-134568000D01*
X123227000Y-126268000D02*
X123227000Y-127018000D01*
X123227000Y-127018000D02*
X126177000Y-127018000D01*
X123227000Y-135618000D02*
X126177000Y-135618000D01*
X123227000Y-136368000D02*
X123227000Y-135618000D01*
X126177000Y-127018000D02*
X126177000Y-131318000D01*
X126177000Y-135618000D02*
X126177000Y-131318000D01*
X126937000Y-126258000D02*
X120967000Y-126258000D01*
X126937000Y-136378000D02*
X126937000Y-126258000D01*
%TO.C,Current*%
X129252998Y-61361000D02*
X129252998Y-71481000D01*
X129252998Y-71481000D02*
X135222998Y-71481000D01*
X130012998Y-62121000D02*
X130012998Y-66421000D01*
X130012998Y-70721000D02*
X130012998Y-66421000D01*
X132962998Y-61371000D02*
X132962998Y-62121000D01*
X132962998Y-62121000D02*
X130012998Y-62121000D01*
X132962998Y-70721000D02*
X130012998Y-70721000D01*
X132962998Y-71471000D02*
X132962998Y-70721000D01*
X134462998Y-61371000D02*
X134462998Y-63171000D01*
X134462998Y-63171000D02*
X135212998Y-63171000D01*
X134462998Y-64671000D02*
X134462998Y-68171000D01*
X134462998Y-68171000D02*
X135212998Y-68171000D01*
X134462998Y-69671000D02*
X134462998Y-71471000D01*
X134462998Y-71471000D02*
X135212998Y-71471000D01*
X135212998Y-61371000D02*
X134462998Y-61371000D01*
X135212998Y-63171000D02*
X135212998Y-61371000D01*
X135212998Y-64671000D02*
X134462998Y-64671000D01*
X135212998Y-68171000D02*
X135212998Y-64671000D01*
X135212998Y-69671000D02*
X134462998Y-69671000D01*
X135212998Y-71471000D02*
X135212998Y-69671000D01*
X135222998Y-61361000D02*
X129252998Y-61361000D01*
X135222998Y-71481000D02*
X135222998Y-61361000D01*
X135512998Y-61071000D02*
X134262998Y-61071000D01*
X135512998Y-62321000D02*
X135512998Y-61071000D01*
%TO.C,Strain_2*%
X86576333Y-61361000D02*
X86576333Y-71481000D01*
X86576333Y-71481000D02*
X92546333Y-71481000D01*
X87336333Y-62121000D02*
X87336333Y-66421000D01*
X87336333Y-70721000D02*
X87336333Y-66421000D01*
X90286333Y-61371000D02*
X90286333Y-62121000D01*
X90286333Y-62121000D02*
X87336333Y-62121000D01*
X90286333Y-70721000D02*
X87336333Y-70721000D01*
X90286333Y-71471000D02*
X90286333Y-70721000D01*
X91786333Y-61371000D02*
X91786333Y-63171000D01*
X91786333Y-63171000D02*
X92536333Y-63171000D01*
X91786333Y-64671000D02*
X91786333Y-68171000D01*
X91786333Y-68171000D02*
X92536333Y-68171000D01*
X91786333Y-69671000D02*
X91786333Y-71471000D01*
X91786333Y-71471000D02*
X92536333Y-71471000D01*
X92536333Y-61371000D02*
X91786333Y-61371000D01*
X92536333Y-63171000D02*
X92536333Y-61371000D01*
X92536333Y-64671000D02*
X91786333Y-64671000D01*
X92536333Y-68171000D02*
X92536333Y-64671000D01*
X92536333Y-69671000D02*
X91786333Y-69671000D01*
X92536333Y-71471000D02*
X92536333Y-69671000D01*
X92546333Y-61361000D02*
X86576333Y-61361000D01*
X92546333Y-71481000D02*
X92546333Y-61361000D01*
X92836333Y-61071000D02*
X91586333Y-61071000D01*
X92836333Y-62321000D02*
X92836333Y-61071000D01*
%TO.C,GYRD_RAW*%
X110517000Y-135418000D02*
X110517000Y-136668000D01*
X110517000Y-136668000D02*
X111767000Y-136668000D01*
X110807000Y-123758000D02*
X110807000Y-136378000D01*
X110807000Y-136378000D02*
X116777000Y-136378000D01*
X110817000Y-123768000D02*
X110817000Y-125568000D01*
X110817000Y-125568000D02*
X111567000Y-125568000D01*
X110817000Y-127068000D02*
X110817000Y-133068000D01*
X110817000Y-133068000D02*
X111567000Y-133068000D01*
X110817000Y-134568000D02*
X110817000Y-136368000D01*
X110817000Y-136368000D02*
X111567000Y-136368000D01*
X111567000Y-123768000D02*
X110817000Y-123768000D01*
X111567000Y-125568000D02*
X111567000Y-123768000D01*
X111567000Y-127068000D02*
X110817000Y-127068000D01*
X111567000Y-133068000D02*
X111567000Y-127068000D01*
X111567000Y-134568000D02*
X110817000Y-134568000D01*
X111567000Y-136368000D02*
X111567000Y-134568000D01*
X113067000Y-123768000D02*
X113067000Y-124518000D01*
X113067000Y-124518000D02*
X116017000Y-124518000D01*
X113067000Y-135618000D02*
X116017000Y-135618000D01*
X113067000Y-136368000D02*
X113067000Y-135618000D01*
X116017000Y-124518000D02*
X116017000Y-130068000D01*
X116017000Y-135618000D02*
X116017000Y-130068000D01*
X116777000Y-123758000D02*
X110807000Y-123758000D01*
X116777000Y-136378000D02*
X116777000Y-123758000D01*
%TO.C,D2*%
X155959000Y-118765000D02*
X155959000Y-115905000D01*
X157879000Y-115905000D02*
X157879000Y-118765000D01*
X157879000Y-118765000D02*
X155959000Y-118765000D01*
%TO.C,AT*%
X100357000Y-135418000D02*
X100357000Y-136668000D01*
X100357000Y-136668000D02*
X101607000Y-136668000D01*
X100647000Y-123758000D02*
X100647000Y-136378000D01*
X100647000Y-136378000D02*
X106617000Y-136378000D01*
X100657000Y-123768000D02*
X100657000Y-125568000D01*
X100657000Y-125568000D02*
X101407000Y-125568000D01*
X100657000Y-127068000D02*
X100657000Y-133068000D01*
X100657000Y-133068000D02*
X101407000Y-133068000D01*
X100657000Y-134568000D02*
X100657000Y-136368000D01*
X100657000Y-136368000D02*
X101407000Y-136368000D01*
X101407000Y-123768000D02*
X100657000Y-123768000D01*
X101407000Y-125568000D02*
X101407000Y-123768000D01*
X101407000Y-127068000D02*
X100657000Y-127068000D01*
X101407000Y-133068000D02*
X101407000Y-127068000D01*
X101407000Y-134568000D02*
X100657000Y-134568000D01*
X101407000Y-136368000D02*
X101407000Y-134568000D01*
X102907000Y-123768000D02*
X102907000Y-124518000D01*
X102907000Y-124518000D02*
X105857000Y-124518000D01*
X102907000Y-135618000D02*
X105857000Y-135618000D01*
X102907000Y-136368000D02*
X102907000Y-135618000D01*
X105857000Y-124518000D02*
X105857000Y-130068000D01*
X105857000Y-135618000D02*
X105857000Y-130068000D01*
X106617000Y-123758000D02*
X100647000Y-123758000D01*
X106617000Y-136378000D02*
X106617000Y-123758000D01*
D13*
%TO.C,U1*%
X111558000Y-83922500D02*
X162508000Y-83922500D01*
X111558000Y-83922500D02*
X162508000Y-83922500D01*
X111558000Y-94652500D02*
X111558000Y-83922500D01*
X111558000Y-101363500D02*
X111558000Y-94652500D01*
X111558000Y-112432500D02*
X111558000Y-83922500D01*
X111558000Y-112432500D02*
X111558000Y-101363500D01*
X162508000Y-83922500D02*
X162508000Y-112432500D01*
X162508000Y-89372500D02*
X162508000Y-83922500D01*
X162508000Y-107062500D02*
X162508000Y-89372500D01*
X162508000Y-112432500D02*
X111558000Y-112432500D01*
X162508000Y-112432500D02*
X111558000Y-112432500D01*
X162508000Y-112432500D02*
X162508000Y-107062500D01*
D14*
X121618000Y-113002500D02*
G75*
G02*
X121418000Y-113002500I-100000J0D01*
G01*
X121418000Y-113002500D02*
G75*
G02*
X121618000Y-113002500I100000J0D01*
G01*
D12*
%TO.C,R4*%
X155701400Y-78396336D02*
X155247272Y-78396336D01*
X155701400Y-79866336D02*
X155247272Y-79866336D01*
%TO.C,D1*%
X98978000Y-77780000D02*
X101838000Y-77780000D01*
X98978000Y-79700000D02*
X98978000Y-77780000D01*
X101838000Y-79700000D02*
X98978000Y-79700000D01*
%TO.C,Brake_1*%
X78851000Y-109818500D02*
X78851000Y-111068500D01*
X79141000Y-110108500D02*
X79141000Y-116078500D01*
X79141000Y-116078500D02*
X89261000Y-116078500D01*
X79151000Y-110118500D02*
X79151000Y-110868500D01*
X79151000Y-110868500D02*
X80951000Y-110868500D01*
X79151000Y-112368500D02*
X79901000Y-112368500D01*
X79901000Y-112368500D02*
X79901000Y-115318500D01*
X79901000Y-115318500D02*
X84201000Y-115318500D01*
X80101000Y-109818500D02*
X78851000Y-109818500D01*
X80951000Y-110118500D02*
X79151000Y-110118500D01*
X80951000Y-110868500D02*
X80951000Y-110118500D01*
X82451000Y-110118500D02*
X82451000Y-110868500D01*
X82451000Y-110868500D02*
X85951000Y-110868500D01*
X85951000Y-110118500D02*
X82451000Y-110118500D01*
X85951000Y-110868500D02*
X85951000Y-110118500D01*
X87451000Y-110118500D02*
X87451000Y-110868500D01*
X87451000Y-110868500D02*
X89251000Y-110868500D01*
X88501000Y-112368500D02*
X88501000Y-115318500D01*
X88501000Y-115318500D02*
X84201000Y-115318500D01*
X89251000Y-110118500D02*
X87451000Y-110118500D01*
X89251000Y-110868500D02*
X89251000Y-110118500D01*
X89251000Y-112368500D02*
X88501000Y-112368500D01*
X89261000Y-110108500D02*
X79141000Y-110108500D01*
X89261000Y-116078500D02*
X89261000Y-110108500D01*
%TO.C,Throt_3.3*%
X137788331Y-61361000D02*
X137788331Y-71481000D01*
X137788331Y-71481000D02*
X143758331Y-71481000D01*
X138548331Y-62121000D02*
X138548331Y-66421000D01*
X138548331Y-70721000D02*
X138548331Y-66421000D01*
X141498331Y-61371000D02*
X141498331Y-62121000D01*
X141498331Y-62121000D02*
X138548331Y-62121000D01*
X141498331Y-70721000D02*
X138548331Y-70721000D01*
X141498331Y-71471000D02*
X141498331Y-70721000D01*
X142998331Y-61371000D02*
X142998331Y-63171000D01*
X142998331Y-63171000D02*
X143748331Y-63171000D01*
X142998331Y-64671000D02*
X142998331Y-68171000D01*
X142998331Y-68171000D02*
X143748331Y-68171000D01*
X142998331Y-69671000D02*
X142998331Y-71471000D01*
X142998331Y-71471000D02*
X143748331Y-71471000D01*
X143748331Y-61371000D02*
X142998331Y-61371000D01*
X143748331Y-63171000D02*
X143748331Y-61371000D01*
X143748331Y-64671000D02*
X142998331Y-64671000D01*
X143748331Y-68171000D02*
X143748331Y-64671000D01*
X143748331Y-69671000D02*
X142998331Y-69671000D01*
X143748331Y-71471000D02*
X143748331Y-69671000D01*
X143758331Y-61361000D02*
X137788331Y-61361000D01*
X143758331Y-71481000D02*
X143758331Y-61361000D01*
X144048331Y-61071000D02*
X142798331Y-61071000D01*
X144048331Y-62321000D02*
X144048331Y-61071000D01*
%TO.C,Strain_1*%
X78041000Y-61361000D02*
X78041000Y-71481000D01*
X78041000Y-71481000D02*
X84011000Y-71481000D01*
X78801000Y-62121000D02*
X78801000Y-66421000D01*
X78801000Y-70721000D02*
X78801000Y-66421000D01*
X81751000Y-61371000D02*
X81751000Y-62121000D01*
X81751000Y-62121000D02*
X78801000Y-62121000D01*
X81751000Y-70721000D02*
X78801000Y-70721000D01*
X81751000Y-71471000D02*
X81751000Y-70721000D01*
X83251000Y-61371000D02*
X83251000Y-63171000D01*
X83251000Y-63171000D02*
X84001000Y-63171000D01*
X83251000Y-64671000D02*
X83251000Y-68171000D01*
X83251000Y-68171000D02*
X84001000Y-68171000D01*
X83251000Y-69671000D02*
X83251000Y-71471000D01*
X83251000Y-71471000D02*
X84001000Y-71471000D01*
X84001000Y-61371000D02*
X83251000Y-61371000D01*
X84001000Y-63171000D02*
X84001000Y-61371000D01*
X84001000Y-64671000D02*
X83251000Y-64671000D01*
X84001000Y-68171000D02*
X84001000Y-64671000D01*
X84001000Y-69671000D02*
X83251000Y-69671000D01*
X84001000Y-71471000D02*
X84001000Y-69671000D01*
X84011000Y-61361000D02*
X78041000Y-61361000D01*
X84011000Y-71481000D02*
X84011000Y-61361000D01*
X84301000Y-61071000D02*
X83051000Y-61071000D01*
X84301000Y-62321000D02*
X84301000Y-61071000D01*
%TO.C,Pilot_1*%
X112182332Y-61361000D02*
X112182332Y-71481000D01*
X112182332Y-71481000D02*
X118152332Y-71481000D01*
X112942332Y-62121000D02*
X112942332Y-66421000D01*
X112942332Y-70721000D02*
X112942332Y-66421000D01*
X115892332Y-61371000D02*
X115892332Y-62121000D01*
X115892332Y-62121000D02*
X112942332Y-62121000D01*
X115892332Y-70721000D02*
X112942332Y-70721000D01*
X115892332Y-71471000D02*
X115892332Y-70721000D01*
X117392332Y-61371000D02*
X117392332Y-63171000D01*
X117392332Y-63171000D02*
X118142332Y-63171000D01*
X117392332Y-64671000D02*
X117392332Y-68171000D01*
X117392332Y-68171000D02*
X118142332Y-68171000D01*
X117392332Y-69671000D02*
X117392332Y-71471000D01*
X117392332Y-71471000D02*
X118142332Y-71471000D01*
X118142332Y-61371000D02*
X117392332Y-61371000D01*
X118142332Y-63171000D02*
X118142332Y-61371000D01*
X118142332Y-64671000D02*
X117392332Y-64671000D01*
X118142332Y-68171000D02*
X118142332Y-64671000D01*
X118142332Y-69671000D02*
X117392332Y-69671000D01*
X118142332Y-71471000D02*
X118142332Y-69671000D01*
X118152332Y-61361000D02*
X112182332Y-61361000D01*
X118152332Y-71481000D02*
X118152332Y-61361000D01*
X118442332Y-61071000D02*
X117192332Y-61071000D01*
X118442332Y-62321000D02*
X118442332Y-61071000D01*
%TO.C,R5*%
X150141000Y-77906272D02*
X150141000Y-78360400D01*
X151611000Y-77906272D02*
X151611000Y-78360400D01*
%TO.C,Code_A*%
X90197000Y-135418000D02*
X90197000Y-136668000D01*
X90197000Y-136668000D02*
X91447000Y-136668000D01*
X90487000Y-126258000D02*
X90487000Y-136378000D01*
X90487000Y-136378000D02*
X96457000Y-136378000D01*
X90497000Y-126268000D02*
X90497000Y-128068000D01*
X90497000Y-128068000D02*
X91247000Y-128068000D01*
X90497000Y-129568000D02*
X90497000Y-133068000D01*
X90497000Y-133068000D02*
X91247000Y-133068000D01*
X90497000Y-134568000D02*
X90497000Y-136368000D01*
X90497000Y-136368000D02*
X91247000Y-136368000D01*
X91247000Y-126268000D02*
X90497000Y-126268000D01*
X91247000Y-128068000D02*
X91247000Y-126268000D01*
X91247000Y-129568000D02*
X90497000Y-129568000D01*
X91247000Y-133068000D02*
X91247000Y-129568000D01*
X91247000Y-134568000D02*
X90497000Y-134568000D01*
X91247000Y-136368000D02*
X91247000Y-134568000D01*
X92747000Y-126268000D02*
X92747000Y-127018000D01*
X92747000Y-127018000D02*
X95697000Y-127018000D01*
X92747000Y-135618000D02*
X95697000Y-135618000D01*
X92747000Y-136368000D02*
X92747000Y-135618000D01*
X95697000Y-127018000D02*
X95697000Y-131318000D01*
X95697000Y-135618000D02*
X95697000Y-131318000D01*
X96457000Y-126258000D02*
X90487000Y-126258000D01*
X96457000Y-136378000D02*
X96457000Y-126258000D01*
%TO.C,R3*%
X151803936Y-117121000D02*
X152258064Y-117121000D01*
X151803936Y-118591000D02*
X152258064Y-118591000D01*
%TO.C,Brake_2*%
X78851000Y-98706000D02*
X78851000Y-99956000D01*
X79141000Y-98996000D02*
X79141000Y-104966000D01*
X79141000Y-104966000D02*
X89261000Y-104966000D01*
X79151000Y-99006000D02*
X79151000Y-99756000D01*
X79151000Y-99756000D02*
X80951000Y-99756000D01*
X79151000Y-101256000D02*
X79901000Y-101256000D01*
X79901000Y-101256000D02*
X79901000Y-104206000D01*
X79901000Y-104206000D02*
X84201000Y-104206000D01*
X80101000Y-98706000D02*
X78851000Y-98706000D01*
X80951000Y-99006000D02*
X79151000Y-99006000D01*
X80951000Y-99756000D02*
X80951000Y-99006000D01*
X82451000Y-99006000D02*
X82451000Y-99756000D01*
X82451000Y-99756000D02*
X85951000Y-99756000D01*
X85951000Y-99006000D02*
X82451000Y-99006000D01*
X85951000Y-99756000D02*
X85951000Y-99006000D01*
X87451000Y-99006000D02*
X87451000Y-99756000D01*
X87451000Y-99756000D02*
X89251000Y-99756000D01*
X88501000Y-101256000D02*
X88501000Y-104206000D01*
X88501000Y-104206000D02*
X84201000Y-104206000D01*
X89251000Y-99006000D02*
X87451000Y-99006000D01*
X89251000Y-99756000D02*
X89251000Y-99006000D01*
X89251000Y-101256000D02*
X88501000Y-101256000D01*
X89261000Y-98996000D02*
X79141000Y-98996000D01*
X89261000Y-104966000D02*
X89261000Y-98996000D01*
%TO.C,Power*%
X78922500Y-75269000D02*
X87002500Y-75269000D01*
X78922500Y-82289000D02*
X78922500Y-75269000D01*
X80122500Y-82289000D02*
X78922500Y-82289000D01*
X80122500Y-83989000D02*
X80122500Y-82289000D01*
X85802500Y-82289000D02*
X85802500Y-83989000D01*
X85802500Y-83989000D02*
X80122500Y-83989000D01*
X87002500Y-75269000D02*
X87002500Y-82289000D01*
X87002500Y-82289000D02*
X85802500Y-82289000D01*
X87202500Y-80179000D02*
X87802500Y-79879000D01*
X87802500Y-79879000D02*
X87802500Y-80479000D01*
X87802500Y-80479000D02*
X87202500Y-80179000D01*
%TD*%
M02*
