%TF.GenerationSoftware,KiCad,Pcbnew,8.0.4*%
%TF.CreationDate,2024-09-06T13:05:26+08:00*%
%TF.ProjectId,Sensor Board,53656e73-6f72-4204-926f-6172642e6b69,rev?*%
%TF.SameCoordinates,Original*%
%TF.FileFunction,Paste,Bot*%
%TF.FilePolarity,Positive*%
%FSLAX46Y46*%
G04 Gerber Fmt 4.6, Leading zero omitted, Abs format (unit mm)*
G04 Created by KiCad (PCBNEW 8.0.4) date 2024-09-06 13:05:26*
%MOMM*%
%LPD*%
G01*
G04 APERTURE LIST*
G04 Aperture macros list*
%AMRoundRect*
0 Rectangle with rounded corners*
0 $1 Rounding radius*
0 $2 $3 $4 $5 $6 $7 $8 $9 X,Y pos of 4 corners*
0 Add a 4 corners polygon primitive as box body*
4,1,4,$2,$3,$4,$5,$6,$7,$8,$9,$2,$3,0*
0 Add four circle primitives for the rounded corners*
1,1,$1+$1,$2,$3*
1,1,$1+$1,$4,$5*
1,1,$1+$1,$6,$7*
1,1,$1+$1,$8,$9*
0 Add four rect primitives between the rounded corners*
20,1,$1+$1,$2,$3,$4,$5,0*
20,1,$1+$1,$4,$5,$6,$7,0*
20,1,$1+$1,$6,$7,$8,$9,0*
20,1,$1+$1,$8,$9,$2,$3,0*%
G04 Aperture macros list end*
%ADD10RoundRect,0.250000X-0.475000X0.337500X-0.475000X-0.337500X0.475000X-0.337500X0.475000X0.337500X0*%
%ADD11RoundRect,0.250000X-0.450000X0.350000X-0.450000X-0.350000X0.450000X-0.350000X0.450000X0.350000X0*%
%ADD12RoundRect,0.250000X-0.337500X-0.475000X0.337500X-0.475000X0.337500X0.475000X-0.337500X0.475000X0*%
%ADD13RoundRect,0.150000X-0.825000X-0.150000X0.825000X-0.150000X0.825000X0.150000X-0.825000X0.150000X0*%
%ADD14RoundRect,0.250000X0.350000X0.450000X-0.350000X0.450000X-0.350000X-0.450000X0.350000X-0.450000X0*%
%ADD15RoundRect,0.020500X-0.184500X0.764500X-0.184500X-0.764500X0.184500X-0.764500X0.184500X0.764500X0*%
G04 APERTURE END LIST*
D10*
%TO.C,C2*%
X98188000Y-98893500D03*
X98188000Y-100968500D03*
%TD*%
D11*
%TO.C,R8*%
X96283000Y-115568000D03*
X96283000Y-117568000D03*
%TD*%
D12*
%TO.C,C5*%
X114041500Y-93454000D03*
X116116500Y-93454000D03*
%TD*%
D13*
%TO.C,U3*%
X102063000Y-101455000D03*
X102063000Y-100185000D03*
X102063000Y-98915000D03*
X102063000Y-97645000D03*
X107013000Y-97645000D03*
X107013000Y-98915000D03*
X107013000Y-100185000D03*
X107013000Y-101455000D03*
%TD*%
D11*
%TO.C,R7*%
X100220000Y-119902000D03*
X100220000Y-121902000D03*
%TD*%
D14*
%TO.C,R9*%
X131699000Y-106934000D03*
X129699000Y-106934000D03*
%TD*%
D12*
%TO.C,C4*%
X111103500Y-102743000D03*
X113178500Y-102743000D03*
%TD*%
%TO.C,C3*%
X81893500Y-84709000D03*
X83968500Y-84709000D03*
%TD*%
D15*
%TO.C,U2*%
X115456000Y-97034500D03*
X116106000Y-97034500D03*
X116756000Y-97034500D03*
X117406000Y-97034500D03*
X118056000Y-97034500D03*
X118706000Y-97034500D03*
X119356000Y-97034500D03*
X120006000Y-97034500D03*
X120656000Y-97034500D03*
X121306000Y-97034500D03*
X121306000Y-102774500D03*
X120656000Y-102774500D03*
X120006000Y-102774500D03*
X119356000Y-102774500D03*
X118706000Y-102774500D03*
X118056000Y-102774500D03*
X117406000Y-102774500D03*
X116756000Y-102774500D03*
X116106000Y-102774500D03*
X115456000Y-102774500D03*
%TD*%
M02*
