%TF.GenerationSoftware,KiCad,Pcbnew,8.0.4*%
%TF.CreationDate,2024-09-06T13:05:26+08:00*%
%TF.ProjectId,Sensor Board,53656e73-6f72-4204-926f-6172642e6b69,rev?*%
%TF.SameCoordinates,Original*%
%TF.FileFunction,Copper,L2,Bot*%
%TF.FilePolarity,Positive*%
%FSLAX46Y46*%
G04 Gerber Fmt 4.6, Leading zero omitted, Abs format (unit mm)*
G04 Created by KiCad (PCBNEW 8.0.4) date 2024-09-06 13:05:26*
%MOMM*%
%LPD*%
G01*
G04 APERTURE LIST*
G04 Aperture macros list*
%AMRoundRect*
0 Rectangle with rounded corners*
0 $1 Rounding radius*
0 $2 $3 $4 $5 $6 $7 $8 $9 X,Y pos of 4 corners*
0 Add a 4 corners polygon primitive as box body*
4,1,4,$2,$3,$4,$5,$6,$7,$8,$9,$2,$3,0*
0 Add four circle primitives for the rounded corners*
1,1,$1+$1,$2,$3*
1,1,$1+$1,$4,$5*
1,1,$1+$1,$6,$7*
1,1,$1+$1,$8,$9*
0 Add four rect primitives between the rounded corners*
20,1,$1+$1,$2,$3,$4,$5,0*
20,1,$1+$1,$4,$5,$6,$7,0*
20,1,$1+$1,$6,$7,$8,$9,0*
20,1,$1+$1,$8,$9,$2,$3,0*%
G04 Aperture macros list end*
%TA.AperFunction,ComponentPad*%
%ADD10RoundRect,0.250000X0.725000X-0.600000X0.725000X0.600000X-0.725000X0.600000X-0.725000X-0.600000X0*%
%TD*%
%TA.AperFunction,ComponentPad*%
%ADD11O,1.950000X1.700000*%
%TD*%
%TA.AperFunction,ComponentPad*%
%ADD12RoundRect,0.250000X-0.725000X0.600000X-0.725000X-0.600000X0.725000X-0.600000X0.725000X0.600000X0*%
%TD*%
%TA.AperFunction,ComponentPad*%
%ADD13RoundRect,0.250000X-0.600000X-0.725000X0.600000X-0.725000X0.600000X0.725000X-0.600000X0.725000X0*%
%TD*%
%TA.AperFunction,ComponentPad*%
%ADD14O,1.700000X1.950000*%
%TD*%
%TA.AperFunction,ComponentPad*%
%ADD15R,2.000000X2.000000*%
%TD*%
%TA.AperFunction,ComponentPad*%
%ADD16C,2.000000*%
%TD*%
%TA.AperFunction,ComponentPad*%
%ADD17RoundRect,0.250001X1.099999X1.099999X-1.099999X1.099999X-1.099999X-1.099999X1.099999X-1.099999X0*%
%TD*%
%TA.AperFunction,ComponentPad*%
%ADD18C,2.700000*%
%TD*%
%TA.AperFunction,SMDPad,CuDef*%
%ADD19RoundRect,0.250000X-0.475000X0.337500X-0.475000X-0.337500X0.475000X-0.337500X0.475000X0.337500X0*%
%TD*%
%TA.AperFunction,SMDPad,CuDef*%
%ADD20RoundRect,0.250000X-0.450000X0.350000X-0.450000X-0.350000X0.450000X-0.350000X0.450000X0.350000X0*%
%TD*%
%TA.AperFunction,SMDPad,CuDef*%
%ADD21RoundRect,0.250000X-0.337500X-0.475000X0.337500X-0.475000X0.337500X0.475000X-0.337500X0.475000X0*%
%TD*%
%TA.AperFunction,SMDPad,CuDef*%
%ADD22RoundRect,0.150000X-0.825000X-0.150000X0.825000X-0.150000X0.825000X0.150000X-0.825000X0.150000X0*%
%TD*%
%TA.AperFunction,SMDPad,CuDef*%
%ADD23RoundRect,0.250000X0.350000X0.450000X-0.350000X0.450000X-0.350000X-0.450000X0.350000X-0.450000X0*%
%TD*%
%TA.AperFunction,SMDPad,CuDef*%
%ADD24RoundRect,0.020500X-0.184500X0.764500X-0.184500X-0.764500X0.184500X-0.764500X0.184500X0.764500X0*%
%TD*%
%TA.AperFunction,ViaPad*%
%ADD25C,0.800000*%
%TD*%
%TA.AperFunction,Conductor*%
%ADD26C,0.254000*%
%TD*%
%TA.AperFunction,Conductor*%
%ADD27C,0.381000*%
%TD*%
%TA.AperFunction,Conductor*%
%ADD28C,0.508000*%
%TD*%
G04 APERTURE END LIST*
D10*
%TO.P,7,1,Pin_1*%
%TO.N,+5V*%
X143747000Y-133818000D03*
D11*
%TO.P,7,2,Pin_2*%
%TO.N,GND*%
X143747000Y-131318000D03*
%TO.P,7,3,Pin_3*%
%TO.N,7*%
X143747000Y-128818000D03*
%TD*%
D10*
%TO.P,Code_B,1,Pin_1*%
%TO.N,+5V*%
X133587000Y-133818000D03*
D11*
%TO.P,Code_B,2,Pin_2*%
%TO.N,GND*%
X133587000Y-131318000D03*
%TO.P,Code_B,3,Pin_3*%
%TO.N,Code B*%
X133587000Y-128818000D03*
%TD*%
D12*
%TO.P,~RST,1,Pin_1*%
%TO.N,+5V*%
X158369000Y-63921000D03*
D11*
%TO.P,~RST,2,Pin_2*%
%TO.N,GND*%
X158369000Y-66421000D03*
%TO.P,~RST,3,Pin_3*%
%TO.N,~RST*%
X158369000Y-68921000D03*
%TD*%
D13*
%TO.P,CAN,1,Pin_1*%
%TO.N,+5V*%
X81701000Y-90343500D03*
D14*
%TO.P,CAN,2,Pin_2*%
%TO.N,GND*%
X84201000Y-90343500D03*
%TO.P,CAN,3,Pin_3*%
%TO.N,CANH*%
X86701000Y-90343500D03*
%TO.P,CAN,4,Pin_4*%
%TO.N,CANL*%
X89201000Y-90343500D03*
%TD*%
D12*
%TO.P,Temp,1,Pin_1*%
%TO.N,+5V*%
X107156999Y-63921000D03*
D11*
%TO.P,Temp,2,Pin_2*%
%TO.N,GND*%
X107156999Y-66421000D03*
%TO.P,Temp,3,Pin_3*%
%TO.N,Temp*%
X107156999Y-68921000D03*
%TD*%
D12*
%TO.P,Throt_5,1,Pin_1*%
%TO.N,+5V*%
X149833664Y-63921000D03*
D11*
%TO.P,Throt_5,2,Pin_2*%
%TO.N,GND*%
X149833664Y-66421000D03*
%TO.P,Throt_5,3,Pin_3*%
%TO.N,Throttle_5*%
X149833664Y-68921000D03*
%TD*%
D12*
%TO.P,Flow,1,Pin_1*%
%TO.N,+5V*%
X98621666Y-63921000D03*
D11*
%TO.P,Flow,2,Pin_2*%
%TO.N,GND*%
X98621666Y-66421000D03*
%TO.P,Flow,3,Pin_3*%
%TO.N,Flow*%
X98621666Y-68921000D03*
%TD*%
D10*
%TO.P,8,1,Pin_1*%
%TO.N,+5V*%
X153907000Y-133818000D03*
D11*
%TO.P,8,2,Pin_2*%
%TO.N,GND*%
X153907000Y-131318000D03*
%TO.P,8,3,Pin_3*%
%TO.N,8*%
X153907000Y-128818000D03*
%TD*%
D12*
%TO.P,Pilot_2,1,Pin_1*%
%TO.N,+5V*%
X124227665Y-63921000D03*
D11*
%TO.P,Pilot_2,2,Pin_2*%
%TO.N,GND*%
X124227665Y-66421000D03*
%TO.P,Pilot_2,3,Pin_3*%
%TO.N,Pitot_2*%
X124227665Y-68921000D03*
%TD*%
D10*
%TO.P,B8,1,Pin_1*%
%TO.N,+5V*%
X123427000Y-133818000D03*
D11*
%TO.P,B8,2,Pin_2*%
%TO.N,GND*%
X123427000Y-131318000D03*
%TO.P,B8,3,Pin_3*%
%TO.N,B8*%
X123427000Y-128818000D03*
%TD*%
D12*
%TO.P,Current,1,Pin_1*%
%TO.N,+5V*%
X132762998Y-63921000D03*
D11*
%TO.P,Current,2,Pin_2*%
%TO.N,GND*%
X132762998Y-66421000D03*
%TO.P,Current,3,Pin_3*%
%TO.N,Current*%
X132762998Y-68921000D03*
%TD*%
D12*
%TO.P,Strain_2,1,Pin_1*%
%TO.N,+5V*%
X90086333Y-63921000D03*
D11*
%TO.P,Strain_2,2,Pin_2*%
%TO.N,GND*%
X90086333Y-66421000D03*
%TO.P,Strain_2,3,Pin_3*%
%TO.N,Strain_2*%
X90086333Y-68921000D03*
%TD*%
D10*
%TO.P,GYRD_RAW,1,Pin_1*%
%TO.N,+5V*%
X113267000Y-133818000D03*
D11*
%TO.P,GYRD_RAW,2,Pin_2*%
%TO.N,GND*%
X113267000Y-131318000D03*
%TO.P,GYRD_RAW,3,Pin_3*%
%TO.N,GYRO_SDA_RAW*%
X113267000Y-128818000D03*
%TO.P,GYRD_RAW,4,Pin_4*%
%TO.N,GYRO_SCL_RAW*%
X113267000Y-126318000D03*
%TD*%
D10*
%TO.P,AT,1,Pin_1*%
%TO.N,+5V*%
X103107000Y-133818000D03*
D11*
%TO.P,AT,2,Pin_2*%
%TO.N,GND*%
X103107000Y-131318000D03*
%TO.P,AT,3,Pin_3*%
%TO.N,AT_RX*%
X103107000Y-128818000D03*
%TO.P,AT,4,Pin_4*%
%TO.N,AT_TX*%
X103107000Y-126318000D03*
%TD*%
D15*
%TO.P,U1,1,3V3*%
%TO.N,+3.3V*%
X121518000Y-110852500D03*
D16*
%TO.P,U1,2,GND*%
%TO.N,GND*%
X124058000Y-110852500D03*
%TO.P,U1,3,D15*%
%TO.N,Code A*%
X126598000Y-110852500D03*
%TO.P,U1,4,D2*%
%TO.N,Brake-1-S*%
X129138000Y-110852500D03*
%TO.P,U1,5,D4*%
%TO.N,Brake-2-S*%
X131678000Y-110852500D03*
%TO.P,U1,6,RX2*%
%TO.N,Code B*%
X134218000Y-110852500D03*
%TO.P,U1,7,TX2*%
%TO.N,7*%
X136758000Y-110852500D03*
%TO.P,U1,8,D5*%
%TO.N,8*%
X139298000Y-110852500D03*
%TO.P,U1,9,D18*%
%TO.N,TX*%
X141838000Y-110852500D03*
%TO.P,U1,10,D19*%
%TO.N,RX*%
X144378000Y-110852500D03*
%TO.P,U1,11,D21*%
%TO.N,GYRO_SDA*%
X146918000Y-110852500D03*
%TO.P,U1,12,RX0*%
%TO.N,A8*%
X149458000Y-110852500D03*
%TO.P,U1,13,TX0*%
%TO.N,OE*%
X151998000Y-110852500D03*
%TO.P,U1,14,D22*%
%TO.N,GYRO_SCL*%
X154538000Y-110852500D03*
%TO.P,U1,15,D23*%
%TO.N,Status*%
X157078000Y-110852500D03*
%TO.P,U1,16,EN*%
%TO.N,~RST*%
X157078000Y-85452500D03*
%TO.P,U1,17,VP*%
%TO.N,Throttle_5_S*%
X154538000Y-85452500D03*
%TO.P,U1,18,VN*%
%TO.N,Throttle_3.3*%
X151998000Y-85452500D03*
%TO.P,U1,19,D34*%
%TO.N,Current*%
X149458000Y-85452500D03*
%TO.P,U1,20,D35*%
%TO.N,Pitot_2*%
X146918000Y-85452500D03*
%TO.P,U1,21,D32*%
%TO.N,Pitot_1*%
X144378000Y-85452500D03*
%TO.P,U1,22,D33*%
%TO.N,Temp*%
X141838000Y-85452500D03*
%TO.P,U1,23,D25*%
%TO.N,Flow*%
X139298000Y-85452500D03*
%TO.P,U1,24,D26*%
%TO.N,Strain_2*%
X136758000Y-85452500D03*
%TO.P,U1,25,D27*%
%TO.N,Strain_1*%
X134218000Y-85452500D03*
%TO.P,U1,26,D14*%
%TO.N,SCK*%
X131678000Y-85452500D03*
%TO.P,U1,27,D12*%
%TO.N,CAN_TX*%
X129138000Y-85452500D03*
%TO.P,U1,28,D13*%
%TO.N,CAN_RX*%
X126598000Y-85452500D03*
%TO.P,U1,29,GND*%
%TO.N,GND*%
X124058000Y-85452500D03*
%TO.P,U1,30,VIN*%
%TO.N,+5V*%
X121518000Y-85452500D03*
%TD*%
D13*
%TO.P,Brake_1,1,Pin_1*%
%TO.N,+5V*%
X81701000Y-112568500D03*
D14*
%TO.P,Brake_1,2,Pin_2*%
%TO.N,GND*%
X84201000Y-112568500D03*
%TO.P,Brake_1,3,Pin_3*%
%TO.N,Brake-1*%
X86701000Y-112568500D03*
%TD*%
D12*
%TO.P,Throt_3.3,1,Pin_1*%
%TO.N,+5V*%
X141298331Y-63921000D03*
D11*
%TO.P,Throt_3.3,2,Pin_2*%
%TO.N,GND*%
X141298331Y-66421000D03*
%TO.P,Throt_3.3,3,Pin_3*%
%TO.N,Throttle_3.3*%
X141298331Y-68921000D03*
%TD*%
D12*
%TO.P,Strain_1,1,Pin_1*%
%TO.N,+5V*%
X81551000Y-63921000D03*
D11*
%TO.P,Strain_1,2,Pin_2*%
%TO.N,GND*%
X81551000Y-66421000D03*
%TO.P,Strain_1,3,Pin_3*%
%TO.N,Strain_1*%
X81551000Y-68921000D03*
%TD*%
D12*
%TO.P,Pilot_1,1,Pin_1*%
%TO.N,+5V*%
X115692332Y-63921000D03*
D11*
%TO.P,Pilot_1,2,Pin_2*%
%TO.N,GND*%
X115692332Y-66421000D03*
%TO.P,Pilot_1,3,Pin_3*%
%TO.N,Pitot_1*%
X115692332Y-68921000D03*
%TD*%
D10*
%TO.P,Code_A,1,Pin_1*%
%TO.N,+5V*%
X92947000Y-133818000D03*
D11*
%TO.P,Code_A,2,Pin_2*%
%TO.N,GND*%
X92947000Y-131318000D03*
%TO.P,Code_A,3,Pin_3*%
%TO.N,Code A*%
X92947000Y-128818000D03*
%TD*%
D13*
%TO.P,Brake_2,1,Pin_1*%
%TO.N,+5V*%
X81701000Y-101456000D03*
D14*
%TO.P,Brake_2,2,Pin_2*%
%TO.N,GND*%
X84201000Y-101456000D03*
%TO.P,Brake_2,3,Pin_3*%
%TO.N,Brake-2*%
X86701000Y-101456000D03*
%TD*%
D17*
%TO.P,Power,1,Pin_1*%
%TO.N,GND*%
X84942500Y-80179000D03*
D18*
%TO.P,Power,2,Pin_2*%
%TO.N,+5V*%
X80982500Y-80179000D03*
%TD*%
D19*
%TO.P,C2,1*%
%TO.N,+5V*%
X98188000Y-98893500D03*
%TO.P,C2,2*%
%TO.N,GND*%
X98188000Y-100968500D03*
%TD*%
D20*
%TO.P,R8,1*%
%TO.N,Brake-2*%
X96283000Y-115568000D03*
%TO.P,R8,2*%
%TO.N,Brake-2-S*%
X96283000Y-117568000D03*
%TD*%
D21*
%TO.P,C5,1*%
%TO.N,GND*%
X114041500Y-93454000D03*
%TO.P,C5,2*%
%TO.N,+3.3V*%
X116116500Y-93454000D03*
%TD*%
D22*
%TO.P,U3,1,TXD*%
%TO.N,CAN_TX*%
X102063000Y-101455000D03*
%TO.P,U3,2,GND*%
%TO.N,GND*%
X102063000Y-100185000D03*
%TO.P,U3,3,VCC*%
%TO.N,+5V*%
X102063000Y-98915000D03*
%TO.P,U3,4,RXD*%
%TO.N,CAN_RX*%
X102063000Y-97645000D03*
%TO.P,U3,5,VIO*%
%TO.N,+3.3V*%
X107013000Y-97645000D03*
%TO.P,U3,6,CANL*%
%TO.N,CANL*%
X107013000Y-98915000D03*
%TO.P,U3,7,CANH*%
%TO.N,CANH*%
X107013000Y-100185000D03*
%TO.P,U3,8,S*%
%TO.N,unconnected-(U3-S-Pad8)*%
X107013000Y-101455000D03*
%TD*%
D20*
%TO.P,R7,1*%
%TO.N,Brake-1-S*%
X100220000Y-119902000D03*
%TO.P,R7,2*%
%TO.N,GND*%
X100220000Y-121902000D03*
%TD*%
D23*
%TO.P,R9,1*%
%TO.N,Brake-2-S*%
X131699000Y-106934000D03*
%TO.P,R9,2*%
%TO.N,GND*%
X129699000Y-106934000D03*
%TD*%
D21*
%TO.P,C4,1*%
%TO.N,GND*%
X111103500Y-102743000D03*
%TO.P,C4,2*%
%TO.N,+5V*%
X113178500Y-102743000D03*
%TD*%
%TO.P,C3,1*%
%TO.N,+5V*%
X81893500Y-84709000D03*
%TO.P,C3,2*%
%TO.N,GND*%
X83968500Y-84709000D03*
%TD*%
D24*
%TO.P,U2,1,A1*%
%TO.N,unconnected-(U2-A1-Pad1)*%
X115456000Y-97034500D03*
%TO.P,U2,2,VCCA*%
%TO.N,+3.3V*%
X116106000Y-97034500D03*
%TO.P,U2,3,A2*%
%TO.N,unconnected-(U2-A2-Pad3)*%
X116756000Y-97034500D03*
%TO.P,U2,4,A3*%
%TO.N,SCK*%
X117406000Y-97034500D03*
%TO.P,U2,5,A4*%
%TO.N,TX*%
X118056000Y-97034500D03*
%TO.P,U2,6,A5*%
%TO.N,RX*%
X118706000Y-97034500D03*
%TO.P,U2,7,A6*%
%TO.N,GYRO_SCL*%
X119356000Y-97034500D03*
%TO.P,U2,8,A7*%
%TO.N,GYRO_SDA*%
X120006000Y-97034500D03*
%TO.P,U2,9,A8*%
%TO.N,A8*%
X120656000Y-97034500D03*
%TO.P,U2,10,OE*%
%TO.N,OE*%
X121306000Y-97034500D03*
%TO.P,U2,11,GND*%
%TO.N,GND*%
X121306000Y-102774500D03*
%TO.P,U2,12,B8*%
%TO.N,B8*%
X120656000Y-102774500D03*
%TO.P,U2,13,B7*%
%TO.N,GYRO_SDA_RAW*%
X120006000Y-102774500D03*
%TO.P,U2,14,B6*%
%TO.N,GYRO_SCL_RAW*%
X119356000Y-102774500D03*
%TO.P,U2,15,B5*%
%TO.N,AT_RX*%
X118706000Y-102774500D03*
%TO.P,U2,16,B4*%
%TO.N,AT_TX*%
X118056000Y-102774500D03*
%TO.P,U2,17,B3*%
%TO.N,unconnected-(U2-B3-Pad17)*%
X117406000Y-102774500D03*
%TO.P,U2,18,B2*%
%TO.N,unconnected-(U2-B2-Pad18)*%
X116756000Y-102774500D03*
%TO.P,U2,19,VCCB*%
%TO.N,+5V*%
X116106000Y-102774500D03*
%TO.P,U2,20,B1*%
%TO.N,unconnected-(U2-B1-Pad20)*%
X115456000Y-102774500D03*
%TD*%
D25*
%TO.N,Brake-1-S*%
X97917000Y-119888000D03*
%TO.N,GND*%
X106934000Y-139446000D03*
X117348000Y-109093000D03*
X91059000Y-90805000D03*
X111506000Y-96647000D03*
X125095000Y-92075000D03*
X140462000Y-113284000D03*
X133223000Y-75565000D03*
X104140000Y-114808000D03*
X102489000Y-120269000D03*
X125603000Y-122428000D03*
X119634000Y-101092000D03*
X111633000Y-98552000D03*
X106680000Y-137922000D03*
X125222000Y-139319000D03*
X155829000Y-82931000D03*
X130429000Y-122428000D03*
X92837000Y-136017000D03*
X108458000Y-120142000D03*
X123825000Y-73914000D03*
X125857000Y-87503000D03*
X97790000Y-91694000D03*
X90424000Y-136017000D03*
X130429000Y-131699000D03*
X143129000Y-113284000D03*
X127762000Y-77851000D03*
X143256000Y-83058000D03*
X139446000Y-97028000D03*
X119634000Y-109855000D03*
X155067000Y-116713000D03*
X108966000Y-93472000D03*
X97917000Y-79883000D03*
X118872000Y-135890000D03*
X97790000Y-93472000D03*
X144780000Y-117856000D03*
X133096000Y-83058000D03*
X152527000Y-83058000D03*
X140716000Y-83058000D03*
X107061000Y-125349000D03*
X102997000Y-102743000D03*
X123190000Y-101092000D03*
X90678000Y-122809000D03*
X107569000Y-106934000D03*
X135128000Y-102997000D03*
X146304000Y-108966000D03*
X114173000Y-96012000D03*
X121666000Y-108077000D03*
X135636000Y-75438000D03*
X141224000Y-108966000D03*
X90424000Y-120396000D03*
X100711000Y-124968000D03*
X142748000Y-120396000D03*
X109728000Y-109982000D03*
X127762000Y-113284000D03*
X103759000Y-100330000D03*
X88646000Y-95123000D03*
X104902000Y-71628000D03*
X157353000Y-76835000D03*
X104140000Y-110363000D03*
X135763000Y-101092000D03*
X101346000Y-96520000D03*
X124333000Y-137922000D03*
X115062000Y-126238000D03*
X112522000Y-88265000D03*
X134239000Y-104648000D03*
X87757000Y-131699000D03*
X145796000Y-83058000D03*
X132969000Y-113284000D03*
X153924000Y-77343000D03*
X116205000Y-139446000D03*
X138176000Y-83058000D03*
X101854000Y-81788000D03*
X122555000Y-99314000D03*
X97790000Y-77851000D03*
X135763000Y-83058000D03*
X97282000Y-139446000D03*
X102489000Y-114808000D03*
X94996000Y-95123000D03*
X130429000Y-113284000D03*
X104902000Y-77851000D03*
X87249000Y-92202000D03*
X102616000Y-109347000D03*
X128524000Y-87376000D03*
X132969000Y-122428000D03*
X112141000Y-100965000D03*
X125984000Y-70104000D03*
X105537000Y-96520000D03*
X138049000Y-109093000D03*
X111252000Y-73914000D03*
X136652000Y-99441000D03*
X148844000Y-108966000D03*
X89154000Y-75057000D03*
X108839000Y-99441000D03*
X118364000Y-95123000D03*
X97028000Y-137922000D03*
X115951000Y-137922000D03*
X151384000Y-108966000D03*
X103251000Y-105537000D03*
X89789000Y-131699000D03*
X118872000Y-72136000D03*
X104140000Y-120269000D03*
X138176000Y-75438000D03*
X92329000Y-93472000D03*
X105791000Y-105918000D03*
X94742000Y-118618000D03*
X128016000Y-131699000D03*
X124206000Y-102870000D03*
X143764000Y-108966000D03*
X100711000Y-117221000D03*
X117094000Y-104267000D03*
X128524000Y-75946000D03*
X115062000Y-75946000D03*
X149225000Y-79375000D03*
X140716000Y-75438000D03*
X148336000Y-83058000D03*
X127889000Y-122428000D03*
X117094000Y-124206000D03*
X120396000Y-95250000D03*
X98806000Y-102616000D03*
X112268000Y-91821000D03*
X108839000Y-108077000D03*
X135636000Y-122428000D03*
X122682000Y-97028000D03*
X105918000Y-120650000D03*
X119888000Y-90551000D03*
X100457000Y-75692000D03*
X138049000Y-98044000D03*
X136271000Y-113284000D03*
X115316000Y-77851000D03*
X105791000Y-111125000D03*
X87757000Y-136144000D03*
%TO.N,+3.3V*%
X113284000Y-98425000D03*
X103378000Y-94361000D03*
%TO.N,B8*%
X118491000Y-109728000D03*
%TO.N,+5V*%
X114681000Y-104140000D03*
X110998000Y-104140000D03*
X102616000Y-69977000D03*
X127889000Y-133858000D03*
X89090500Y-97282000D03*
X102616000Y-75438000D03*
X103124000Y-77851000D03*
X85883750Y-97282000D03*
X102616000Y-72644000D03*
X106934000Y-104140000D03*
X87757000Y-133858000D03*
X92297250Y-97282000D03*
X102743000Y-104140000D03*
X95504000Y-97282000D03*
X130429000Y-133858000D03*
X89789000Y-133858000D03*
X82677000Y-97282000D03*
%TD*%
D26*
%TO.N,GYRO_SDA*%
X136268500Y-100203000D02*
X146918000Y-110852500D01*
X120006000Y-97034500D02*
X120006000Y-98035001D01*
X120006000Y-98035001D02*
X122173999Y-100203000D01*
X122173999Y-100203000D02*
X136268500Y-100203000D01*
%TO.N,GYRO_SCL*%
X136649500Y-92964000D02*
X154538000Y-110852500D01*
X121412000Y-92964000D02*
X136649500Y-92964000D01*
X119356000Y-95020000D02*
X121412000Y-92964000D01*
X119356000Y-97034500D02*
X119356000Y-95020000D01*
%TO.N,Flow*%
X98621666Y-68921000D02*
X103338000Y-68921000D01*
X109474000Y-75057000D02*
X128902500Y-75057000D01*
X128902500Y-75057000D02*
X139298000Y-85452500D01*
X103338000Y-68921000D02*
X109474000Y-75057000D01*
%TO.N,Brake-2*%
X89391000Y-101456000D02*
X86701000Y-101456000D01*
X89391000Y-101456000D02*
X96283000Y-108348000D01*
X96283000Y-108348000D02*
X96283000Y-115568000D01*
%TO.N,Brake-1-S*%
X129138000Y-134260000D02*
X129138000Y-110852500D01*
X90805000Y-126111000D02*
X92964000Y-123952000D01*
X124714000Y-138684000D02*
X129138000Y-134260000D01*
X97917000Y-119888000D02*
X100206000Y-119888000D01*
X94361000Y-138684000D02*
X90805000Y-135128000D01*
X90805000Y-135128000D02*
X90805000Y-126111000D01*
X100206000Y-119888000D02*
X100220000Y-119902000D01*
X97917000Y-122428000D02*
X97917000Y-119888000D01*
X96393000Y-123952000D02*
X97917000Y-122428000D01*
X124714000Y-138684000D02*
X94361000Y-138684000D01*
X92964000Y-123952000D02*
X96393000Y-123952000D01*
%TO.N,Strain_2*%
X90086333Y-68921000D02*
X98000333Y-76835000D01*
X98000333Y-76835000D02*
X128140500Y-76835000D01*
X128140500Y-76835000D02*
X136758000Y-85452500D01*
%TO.N,Strain_1*%
X81551000Y-68921000D02*
X93529000Y-80899000D01*
X93529000Y-80899000D02*
X129664500Y-80899000D01*
X129664500Y-80899000D02*
X134218000Y-85452500D01*
%TO.N,SCK*%
X117406000Y-94430000D02*
X120523000Y-91313000D01*
X125817500Y-91313000D02*
X131678000Y-85452500D01*
X120523000Y-91313000D02*
X125817500Y-91313000D01*
X117406000Y-97034500D02*
X117406000Y-94430000D01*
%TO.N,CANH*%
X100305736Y-94234000D02*
X90591500Y-94234000D01*
X106256736Y-100185000D02*
X100305736Y-94234000D01*
X107013000Y-100185000D02*
X106256736Y-100185000D01*
X90591500Y-94234000D02*
X86701000Y-90343500D01*
%TO.N,A8*%
X120656000Y-97034500D02*
X120656000Y-98042948D01*
X120656000Y-98042948D02*
X121165052Y-98552000D01*
X121165052Y-98552000D02*
X137157500Y-98552000D01*
X137157500Y-98552000D02*
X149458000Y-110852500D01*
D27*
%TO.N,+3.3V*%
X116116500Y-93454000D02*
X116116500Y-97024000D01*
D26*
X107031000Y-97663000D02*
X107013000Y-97645000D01*
D27*
X116106000Y-97915312D02*
X115596312Y-98425000D01*
D28*
X108225000Y-97645000D02*
X107013000Y-97645000D01*
X108970000Y-95240000D02*
X108970000Y-96900000D01*
D27*
X116106000Y-97034500D02*
X116106000Y-97915312D01*
D28*
X108970000Y-96900000D02*
X108225000Y-97645000D01*
D27*
X116116500Y-97024000D02*
X116106000Y-97034500D01*
D28*
X103378000Y-94361000D02*
X108091000Y-94361000D01*
D27*
X115596312Y-98425000D02*
X113284000Y-98425000D01*
D28*
X108091000Y-94361000D02*
X108970000Y-95240000D01*
D26*
%TO.N,OE*%
X121306000Y-95483000D02*
X122301000Y-94488000D01*
X135633500Y-94488000D02*
X151998000Y-110852500D01*
X121306000Y-97034500D02*
X121306000Y-95483000D01*
X122301000Y-94488000D02*
X135633500Y-94488000D01*
%TO.N,B8*%
X118491000Y-109728000D02*
X120656000Y-107563000D01*
X120656000Y-107563000D02*
X120656000Y-102774500D01*
%TO.N,Code A*%
X101266000Y-137160000D02*
X123952000Y-137160000D01*
X123952000Y-137160000D02*
X126598000Y-134514000D01*
X126598000Y-134514000D02*
X126598000Y-110852500D01*
X92964000Y-128858000D02*
X101266000Y-137160000D01*
%TO.N,AT_TX*%
X105283000Y-105029000D02*
X101727000Y-108585000D01*
X118056000Y-104448000D02*
X117475000Y-105029000D01*
X118056000Y-102774500D02*
X118056000Y-104448000D01*
X101727000Y-108585000D02*
X101727000Y-124938000D01*
X117475000Y-105029000D02*
X105283000Y-105029000D01*
X101727000Y-124938000D02*
X103107000Y-126318000D01*
%TO.N,AT_RX*%
X117856000Y-106045000D02*
X107061000Y-106045000D01*
X103251000Y-122428000D02*
X106045000Y-125222000D01*
X106045000Y-127508000D02*
X104735000Y-128818000D01*
X106045000Y-125222000D02*
X106045000Y-127508000D01*
X107061000Y-106045000D02*
X103251000Y-109855000D01*
X118706000Y-102774500D02*
X118706000Y-105195000D01*
X103251000Y-109855000D02*
X103251000Y-122428000D01*
X118706000Y-105195000D02*
X117856000Y-106045000D01*
X104735000Y-128818000D02*
X103107000Y-128818000D01*
%TO.N,Brake-2-S*%
X131678000Y-134133000D02*
X131678000Y-110852500D01*
X131678000Y-110852500D02*
X131678000Y-106955000D01*
X94395000Y-117568000D02*
X88773000Y-123190000D01*
X93345000Y-140208000D02*
X125603000Y-140208000D01*
X88773000Y-135636000D02*
X93345000Y-140208000D01*
X96283000Y-117568000D02*
X94395000Y-117568000D01*
X125603000Y-140208000D02*
X131678000Y-134133000D01*
X88773000Y-123190000D02*
X88773000Y-135636000D01*
X131678000Y-106955000D02*
X131699000Y-106934000D01*
%TO.N,CANL*%
X106535000Y-98915000D02*
X100330000Y-92710000D01*
X107013000Y-98915000D02*
X106535000Y-98915000D01*
X100330000Y-92710000D02*
X91567500Y-92710000D01*
X91567500Y-92710000D02*
X89201000Y-90343500D01*
%TO.N,TX*%
X134744500Y-103759000D02*
X141838000Y-110852500D01*
X118056000Y-97997052D02*
X123817948Y-103759000D01*
X118056000Y-97034500D02*
X118056000Y-97997052D01*
X123817948Y-103759000D02*
X134744500Y-103759000D01*
%TO.N,RX*%
X135509000Y-101981000D02*
X144378000Y-110850000D01*
X122809000Y-101981000D02*
X135509000Y-101981000D01*
X118706000Y-97034500D02*
X118706000Y-97878000D01*
X118706000Y-97878000D02*
X122809000Y-101981000D01*
X144378000Y-110850000D02*
X144378000Y-110852500D01*
%TO.N,GYRO_SCL_RAW*%
X104902000Y-110871000D02*
X104902000Y-121666000D01*
X119356000Y-102774500D02*
X119356000Y-105942000D01*
X108712000Y-107061000D02*
X104902000Y-110871000D01*
X104902000Y-121666000D02*
X109554000Y-126318000D01*
X118237000Y-107061000D02*
X108712000Y-107061000D01*
X119356000Y-105942000D02*
X118237000Y-107061000D01*
X109554000Y-126318000D02*
X113267000Y-126318000D01*
%TO.N,GYRO_SDA_RAW*%
X120006000Y-102774500D02*
X120006000Y-106689000D01*
X109855000Y-108204000D02*
X106553000Y-111506000D01*
X116078000Y-125349000D02*
X116078000Y-127254000D01*
X106553000Y-119888000D02*
X110363000Y-123698000D01*
X118491000Y-108204000D02*
X109855000Y-108204000D01*
X110363000Y-123698000D02*
X114427000Y-123698000D01*
X106553000Y-111506000D02*
X106553000Y-119888000D01*
X116078000Y-127254000D02*
X114514000Y-128818000D01*
X120006000Y-106689000D02*
X118491000Y-108204000D01*
X114514000Y-128818000D02*
X113267000Y-128818000D01*
X114427000Y-123698000D02*
X116078000Y-125349000D01*
%TO.N,CAN_RX*%
X110617000Y-92202000D02*
X114935000Y-87884000D01*
X124166500Y-87884000D02*
X126598000Y-85452500D01*
X104902000Y-99695000D02*
X104902000Y-100997736D01*
X102063000Y-97645000D02*
X102852000Y-97645000D01*
X106012264Y-102108000D02*
X108077000Y-102108000D01*
X108077000Y-102108000D02*
X110617000Y-99568000D01*
X110617000Y-99568000D02*
X110617000Y-92202000D01*
X104902000Y-100997736D02*
X106012264Y-102108000D01*
X114935000Y-87884000D02*
X124166500Y-87884000D01*
X102852000Y-97645000D02*
X104902000Y-99695000D01*
%TO.N,CAN_TX*%
X112557000Y-92802000D02*
X115770000Y-89589000D01*
X103360000Y-101455000D02*
X105156000Y-103251000D01*
X105156000Y-103251000D02*
X108585000Y-103251000D01*
X125001500Y-89589000D02*
X129138000Y-85452500D01*
X115770000Y-89589000D02*
X125001500Y-89589000D01*
X102063000Y-101455000D02*
X103360000Y-101455000D01*
X112557000Y-99279000D02*
X112557000Y-92802000D01*
X108585000Y-103251000D02*
X112557000Y-99279000D01*
%TD*%
%TA.AperFunction,Conductor*%
%TO.N,GND*%
G36*
X128684155Y-135334230D02*
G01*
X128684697Y-135333417D01*
X128688803Y-135336151D01*
X128689381Y-135336390D01*
X128689817Y-135336825D01*
X128689820Y-135336828D01*
X128766074Y-135387600D01*
X128774097Y-135392942D01*
X128774102Y-135392945D01*
X128783071Y-135396643D01*
X128818324Y-135411178D01*
X128917659Y-135430770D01*
X129690968Y-135429519D01*
X129735191Y-135447753D01*
X129753568Y-135491918D01*
X129735334Y-135536142D01*
X129735262Y-135536213D01*
X125463283Y-139808194D01*
X125419089Y-139826500D01*
X93528910Y-139826500D01*
X93484716Y-139808194D01*
X89277954Y-135601431D01*
X89259648Y-135557237D01*
X89277954Y-135513043D01*
X89322046Y-135494737D01*
X90361520Y-135493058D01*
X90361525Y-135493057D01*
X90361526Y-135493057D01*
X90408863Y-135483581D01*
X90460603Y-135473224D01*
X90504696Y-135454918D01*
X90514592Y-135448299D01*
X90561500Y-135438944D01*
X90593532Y-135456055D01*
X94053536Y-138916058D01*
X94053541Y-138916064D01*
X94055723Y-138918246D01*
X94055724Y-138918247D01*
X94126753Y-138989276D01*
X94213746Y-139039501D01*
X94256526Y-139050964D01*
X94310770Y-139065499D01*
X94310773Y-139065499D01*
X94310775Y-139065500D01*
X94310776Y-139065500D01*
X124764224Y-139065500D01*
X124764225Y-139065500D01*
X124861254Y-139039501D01*
X124948247Y-138989276D01*
X125019276Y-138918247D01*
X125019277Y-138918246D01*
X128601063Y-135336458D01*
X128645256Y-135318153D01*
X128684155Y-135334230D01*
G37*
%TD.AperFunction*%
%TA.AperFunction,Conductor*%
G36*
X126394456Y-135337929D02*
G01*
X126394998Y-135337116D01*
X126399104Y-135339850D01*
X126399682Y-135340089D01*
X126400118Y-135340524D01*
X126400121Y-135340527D01*
X126484401Y-135396643D01*
X126528625Y-135414877D01*
X126627960Y-135434469D01*
X127274063Y-135433424D01*
X127318286Y-135451658D01*
X127336663Y-135495823D01*
X127318429Y-135540047D01*
X127318357Y-135540118D01*
X124574283Y-138284194D01*
X124530089Y-138302500D01*
X94544910Y-138302500D01*
X94500716Y-138284194D01*
X91813856Y-135597334D01*
X91795550Y-135553140D01*
X91813856Y-135508946D01*
X91857947Y-135490640D01*
X98636299Y-135479690D01*
X98636304Y-135479689D01*
X98636305Y-135479689D01*
X98669426Y-135473058D01*
X98735382Y-135459856D01*
X98779475Y-135441550D01*
X98860145Y-135387600D01*
X98868577Y-135381961D01*
X98869260Y-135382982D01*
X98907647Y-135367072D01*
X98951845Y-135385368D01*
X100960724Y-137394247D01*
X101031753Y-137465276D01*
X101118746Y-137515501D01*
X101161526Y-137526964D01*
X101215770Y-137541499D01*
X101215773Y-137541499D01*
X101215775Y-137541500D01*
X101215776Y-137541500D01*
X124002224Y-137541500D01*
X124002225Y-137541500D01*
X124099254Y-137515501D01*
X124186247Y-137465276D01*
X124257276Y-137394247D01*
X126311364Y-135340157D01*
X126355557Y-135321852D01*
X126394456Y-135337929D01*
G37*
%TD.AperFunction*%
%TA.AperFunction,Conductor*%
G36*
X125028587Y-135455357D02*
G01*
X125046964Y-135499522D01*
X125028730Y-135543746D01*
X125028658Y-135543817D01*
X123812283Y-136760194D01*
X123768089Y-136778500D01*
X101449911Y-136778500D01*
X101405717Y-136760194D01*
X100229262Y-135583739D01*
X100210956Y-135539545D01*
X100229262Y-135495351D01*
X100273353Y-135477045D01*
X124984363Y-135437123D01*
X125028587Y-135455357D01*
G37*
%TD.AperFunction*%
%TA.AperFunction,Conductor*%
G36*
X117108374Y-98056020D02*
G01*
X117108512Y-98055689D01*
X117114200Y-98058045D01*
X117194412Y-98074000D01*
X117617588Y-98074000D01*
X117621001Y-98073321D01*
X117667918Y-98082650D01*
X117693568Y-98118441D01*
X117700498Y-98144305D01*
X117730632Y-98196498D01*
X117732365Y-98199500D01*
X117750724Y-98231299D01*
X123512672Y-103993247D01*
X123583701Y-104064276D01*
X123670694Y-104114501D01*
X123713474Y-104125964D01*
X123767718Y-104140499D01*
X123767721Y-104140499D01*
X123767723Y-104140500D01*
X134560589Y-104140500D01*
X134604783Y-104158806D01*
X140691483Y-110245506D01*
X140709789Y-110289700D01*
X140703933Y-110316113D01*
X140654653Y-110421793D01*
X140628370Y-110519883D01*
X140599250Y-110557833D01*
X140551823Y-110564076D01*
X140513873Y-110534956D01*
X140507630Y-110519883D01*
X140481349Y-110421804D01*
X140481348Y-110421802D01*
X140481347Y-110421797D01*
X140413571Y-110276450D01*
X140388581Y-110222857D01*
X140388579Y-110222855D01*
X140388579Y-110222854D01*
X140262674Y-110043043D01*
X140262673Y-110043041D01*
X140107458Y-109887826D01*
X139988841Y-109804770D01*
X139927646Y-109761921D01*
X139927644Y-109761920D01*
X139927642Y-109761918D01*
X139728708Y-109669155D01*
X139728695Y-109669150D01*
X139516681Y-109612340D01*
X139516675Y-109612339D01*
X139298002Y-109593208D01*
X139297998Y-109593208D01*
X139079324Y-109612339D01*
X139079318Y-109612340D01*
X138867304Y-109669150D01*
X138867291Y-109669155D01*
X138668357Y-109761918D01*
X138668355Y-109761920D01*
X138488541Y-109887826D01*
X138333326Y-110043041D01*
X138207420Y-110222855D01*
X138207418Y-110222857D01*
X138114655Y-110421791D01*
X138114650Y-110421804D01*
X138088370Y-110519883D01*
X138059250Y-110557833D01*
X138011823Y-110564076D01*
X137973873Y-110534956D01*
X137967630Y-110519883D01*
X137941349Y-110421804D01*
X137941348Y-110421802D01*
X137941347Y-110421797D01*
X137873571Y-110276450D01*
X137848581Y-110222857D01*
X137848579Y-110222855D01*
X137848579Y-110222854D01*
X137722674Y-110043043D01*
X137722673Y-110043041D01*
X137567458Y-109887826D01*
X137448841Y-109804770D01*
X137387646Y-109761921D01*
X137387644Y-109761920D01*
X137387642Y-109761918D01*
X137188708Y-109669155D01*
X137188695Y-109669150D01*
X136976681Y-109612340D01*
X136976675Y-109612339D01*
X136758002Y-109593208D01*
X136757998Y-109593208D01*
X136539324Y-109612339D01*
X136539318Y-109612340D01*
X136327304Y-109669150D01*
X136327291Y-109669155D01*
X136128357Y-109761918D01*
X136128355Y-109761920D01*
X135948541Y-109887826D01*
X135793326Y-110043041D01*
X135667420Y-110222855D01*
X135667418Y-110222857D01*
X135574655Y-110421791D01*
X135574650Y-110421804D01*
X135548370Y-110519883D01*
X135519250Y-110557833D01*
X135471823Y-110564076D01*
X135433873Y-110534956D01*
X135427630Y-110519883D01*
X135401349Y-110421804D01*
X135401348Y-110421802D01*
X135401347Y-110421797D01*
X135333571Y-110276450D01*
X135308581Y-110222857D01*
X135308579Y-110222855D01*
X135308579Y-110222854D01*
X135182674Y-110043043D01*
X135182673Y-110043041D01*
X135027458Y-109887826D01*
X134908841Y-109804770D01*
X134847646Y-109761921D01*
X134847644Y-109761920D01*
X134847642Y-109761918D01*
X134648708Y-109669155D01*
X134648695Y-109669150D01*
X134436681Y-109612340D01*
X134436675Y-109612339D01*
X134218002Y-109593208D01*
X134217998Y-109593208D01*
X133999324Y-109612339D01*
X133999318Y-109612340D01*
X133787304Y-109669150D01*
X133787291Y-109669155D01*
X133588357Y-109761918D01*
X133588355Y-109761920D01*
X133408541Y-109887826D01*
X133253326Y-110043041D01*
X133127420Y-110222855D01*
X133127418Y-110222857D01*
X133034655Y-110421791D01*
X133034650Y-110421804D01*
X133008370Y-110519883D01*
X132979250Y-110557833D01*
X132931823Y-110564076D01*
X132893873Y-110534956D01*
X132887630Y-110519883D01*
X132861349Y-110421804D01*
X132861348Y-110421802D01*
X132861347Y-110421797D01*
X132793571Y-110276450D01*
X132768581Y-110222857D01*
X132768579Y-110222855D01*
X132768579Y-110222854D01*
X132642674Y-110043043D01*
X132642673Y-110043041D01*
X132487458Y-109887826D01*
X132368841Y-109804770D01*
X132307646Y-109761921D01*
X132307644Y-109761920D01*
X132307642Y-109761918D01*
X132108709Y-109669155D01*
X132108695Y-109669150D01*
X132105814Y-109668378D01*
X132067868Y-109639251D01*
X132059500Y-109608010D01*
X132059500Y-107948699D01*
X132077806Y-107904505D01*
X132115320Y-107886557D01*
X132157342Y-107882040D01*
X132293267Y-107831342D01*
X132409404Y-107744404D01*
X132496342Y-107628267D01*
X132547040Y-107492342D01*
X132553500Y-107432255D01*
X132553499Y-106435746D01*
X132547040Y-106375658D01*
X132496342Y-106239733D01*
X132409404Y-106123596D01*
X132293267Y-106036658D01*
X132293265Y-106036657D01*
X132293263Y-106036656D01*
X132157343Y-105985960D01*
X132097255Y-105979500D01*
X131300753Y-105979500D01*
X131300736Y-105979501D01*
X131240656Y-105985960D01*
X131104736Y-106036656D01*
X131104731Y-106036659D01*
X130988596Y-106123596D01*
X130901659Y-106239731D01*
X130901656Y-106239736D01*
X130850960Y-106375656D01*
X130844500Y-106435737D01*
X130844500Y-107432246D01*
X130844501Y-107432263D01*
X130850960Y-107492343D01*
X130901656Y-107628263D01*
X130901657Y-107628265D01*
X130901658Y-107628267D01*
X130988596Y-107744404D01*
X131104733Y-107831342D01*
X131240658Y-107882040D01*
X131240676Y-107882042D01*
X131240686Y-107882047D01*
X131244461Y-107882939D01*
X131244216Y-107883974D01*
X131282661Y-107904963D01*
X131296500Y-107944184D01*
X131296500Y-109608010D01*
X131278194Y-109652204D01*
X131250186Y-109668378D01*
X131247304Y-109669150D01*
X131247290Y-109669155D01*
X131048357Y-109761918D01*
X131048355Y-109761920D01*
X130868541Y-109887826D01*
X130713326Y-110043041D01*
X130587420Y-110222855D01*
X130587418Y-110222857D01*
X130494655Y-110421791D01*
X130494650Y-110421804D01*
X130468370Y-110519883D01*
X130439250Y-110557833D01*
X130391823Y-110564076D01*
X130353873Y-110534956D01*
X130347630Y-110519883D01*
X130321349Y-110421804D01*
X130321348Y-110421802D01*
X130321347Y-110421797D01*
X130253571Y-110276450D01*
X130228581Y-110222857D01*
X130228579Y-110222855D01*
X130228579Y-110222854D01*
X130102674Y-110043043D01*
X130102673Y-110043041D01*
X129947458Y-109887826D01*
X129828841Y-109804770D01*
X129767646Y-109761921D01*
X129767644Y-109761920D01*
X129767642Y-109761918D01*
X129568708Y-109669155D01*
X129568695Y-109669150D01*
X129356681Y-109612340D01*
X129356675Y-109612339D01*
X129138002Y-109593208D01*
X129137998Y-109593208D01*
X128919324Y-109612339D01*
X128919318Y-109612340D01*
X128707304Y-109669150D01*
X128707291Y-109669155D01*
X128508357Y-109761918D01*
X128508355Y-109761920D01*
X128328541Y-109887826D01*
X128173326Y-110043041D01*
X128047420Y-110222855D01*
X128047418Y-110222857D01*
X127954655Y-110421791D01*
X127954650Y-110421804D01*
X127928370Y-110519883D01*
X127899250Y-110557833D01*
X127851823Y-110564076D01*
X127813873Y-110534956D01*
X127807630Y-110519883D01*
X127781349Y-110421804D01*
X127781348Y-110421802D01*
X127781347Y-110421797D01*
X127713571Y-110276450D01*
X127688581Y-110222857D01*
X127688579Y-110222855D01*
X127688579Y-110222854D01*
X127562674Y-110043043D01*
X127562673Y-110043041D01*
X127407458Y-109887826D01*
X127288841Y-109804770D01*
X127227646Y-109761921D01*
X127227644Y-109761920D01*
X127227642Y-109761918D01*
X127028708Y-109669155D01*
X127028695Y-109669150D01*
X126816681Y-109612340D01*
X126816675Y-109612339D01*
X126598002Y-109593208D01*
X126597998Y-109593208D01*
X126379324Y-109612339D01*
X126379318Y-109612340D01*
X126167304Y-109669150D01*
X126167291Y-109669155D01*
X125968357Y-109761918D01*
X125968355Y-109761920D01*
X125788541Y-109887826D01*
X125633326Y-110043041D01*
X125507420Y-110222855D01*
X125507418Y-110222857D01*
X125414655Y-110421791D01*
X125414650Y-110421804D01*
X125357840Y-110633818D01*
X125357839Y-110633824D01*
X125338708Y-110852497D01*
X125338708Y-110852502D01*
X125357839Y-111071175D01*
X125357840Y-111071181D01*
X125414650Y-111283195D01*
X125414655Y-111283208D01*
X125507418Y-111482142D01*
X125507420Y-111482144D01*
X125633326Y-111661958D01*
X125788541Y-111817173D01*
X125834635Y-111849448D01*
X125968354Y-111943079D01*
X125968353Y-111943079D01*
X126167294Y-112035846D01*
X126167296Y-112035846D01*
X126167297Y-112035847D01*
X126170170Y-112036616D01*
X126208123Y-112065731D01*
X126216500Y-112096988D01*
X126216500Y-132266000D01*
X126198194Y-132310194D01*
X126154000Y-132328500D01*
X97384410Y-132328500D01*
X97367934Y-132331777D01*
X97285104Y-132348253D01*
X97240912Y-132366559D01*
X97240908Y-132366561D01*
X97192108Y-132399167D01*
X97156726Y-132422810D01*
X97151606Y-132426231D01*
X97150925Y-132425213D01*
X97112529Y-132441118D01*
X97068335Y-132422812D01*
X94057454Y-129411931D01*
X94039148Y-129367737D01*
X94045958Y-129339369D01*
X94095580Y-129241981D01*
X94149303Y-129076638D01*
X94176500Y-128904926D01*
X94176500Y-128731074D01*
X94149303Y-128559362D01*
X94095580Y-128394019D01*
X94016653Y-128239116D01*
X94016649Y-128239111D01*
X93914465Y-128098467D01*
X93914458Y-128098459D01*
X93791540Y-127975541D01*
X93791532Y-127975534D01*
X93650886Y-127873348D01*
X93495987Y-127794423D01*
X93495979Y-127794419D01*
X93330636Y-127740696D01*
X93330637Y-127740696D01*
X93158937Y-127713501D01*
X93158927Y-127713500D01*
X93158926Y-127713500D01*
X92735074Y-127713500D01*
X92735072Y-127713500D01*
X92735062Y-127713501D01*
X92563362Y-127740696D01*
X92398020Y-127794419D01*
X92398012Y-127794423D01*
X92243113Y-127873348D01*
X92102467Y-127975534D01*
X92102459Y-127975541D01*
X91979541Y-128098459D01*
X91979534Y-128098467D01*
X91877348Y-128239113D01*
X91798423Y-128394012D01*
X91798419Y-128394020D01*
X91744696Y-128559362D01*
X91717501Y-128731062D01*
X91717500Y-128731076D01*
X91717500Y-128904923D01*
X91717501Y-128904937D01*
X91744696Y-129076637D01*
X91798419Y-129241979D01*
X91798423Y-129241987D01*
X91877348Y-129396886D01*
X91979534Y-129537532D01*
X91979541Y-129537540D01*
X92102459Y-129660458D01*
X92102467Y-129660465D01*
X92243116Y-129762653D01*
X92398019Y-129841580D01*
X92563362Y-129895303D01*
X92735074Y-129922500D01*
X92735076Y-129922500D01*
X93158924Y-129922500D01*
X93158926Y-129922500D01*
X93330638Y-129895303D01*
X93393194Y-129874977D01*
X93440881Y-129878730D01*
X93456701Y-129890224D01*
X95788283Y-132221806D01*
X95806589Y-132266000D01*
X95788283Y-132310194D01*
X95744089Y-132328500D01*
X91249000Y-132328500D01*
X91204806Y-132310194D01*
X91186500Y-132266000D01*
X91186500Y-126294911D01*
X91204806Y-126250717D01*
X93103717Y-124351806D01*
X93147911Y-124333500D01*
X96443224Y-124333500D01*
X96443225Y-124333500D01*
X96540254Y-124307501D01*
X96627247Y-124257276D01*
X96698276Y-124186247D01*
X96698276Y-124186246D01*
X98146100Y-122738420D01*
X98146105Y-122738417D01*
X98151245Y-122733276D01*
X98151247Y-122733276D01*
X98222276Y-122662247D01*
X98272501Y-122575254D01*
X98298500Y-122478225D01*
X98298500Y-120452551D01*
X98316806Y-120408357D01*
X98319540Y-120405782D01*
X98410498Y-120325201D01*
X98430311Y-120296496D01*
X98470481Y-120270524D01*
X98481748Y-120269500D01*
X99206053Y-120269500D01*
X99250247Y-120287806D01*
X99268195Y-120325319D01*
X99271960Y-120360343D01*
X99322656Y-120496263D01*
X99322657Y-120496265D01*
X99322658Y-120496267D01*
X99409596Y-120612404D01*
X99525733Y-120699342D01*
X99661658Y-120750040D01*
X99721745Y-120756500D01*
X100718254Y-120756499D01*
X100778342Y-120750040D01*
X100914267Y-120699342D01*
X101030404Y-120612404D01*
X101117342Y-120496267D01*
X101168040Y-120360342D01*
X101174500Y-120300255D01*
X101174499Y-119503746D01*
X101168040Y-119443658D01*
X101117342Y-119307733D01*
X101030404Y-119191596D01*
X100914267Y-119104658D01*
X100914265Y-119104657D01*
X100914263Y-119104656D01*
X100778343Y-119053960D01*
X100718255Y-119047500D01*
X99721753Y-119047500D01*
X99721736Y-119047501D01*
X99661656Y-119053960D01*
X99525736Y-119104656D01*
X99525731Y-119104659D01*
X99409596Y-119191596D01*
X99322659Y-119307731D01*
X99322656Y-119307736D01*
X99271960Y-119443656D01*
X99271205Y-119450681D01*
X99248280Y-119492665D01*
X99209063Y-119506500D01*
X98481748Y-119506500D01*
X98437554Y-119488194D01*
X98430311Y-119479503D01*
X98410501Y-119450803D01*
X98410496Y-119450797D01*
X98291531Y-119345402D01*
X98291529Y-119345400D01*
X98150794Y-119271537D01*
X97996474Y-119233500D01*
X97996471Y-119233500D01*
X97837529Y-119233500D01*
X97837525Y-119233500D01*
X97683205Y-119271537D01*
X97542470Y-119345400D01*
X97542468Y-119345402D01*
X97423503Y-119450797D01*
X97423499Y-119450801D01*
X97333212Y-119581605D01*
X97276851Y-119730214D01*
X97276849Y-119730225D01*
X97257693Y-119887996D01*
X97257693Y-119888003D01*
X97276849Y-120045774D01*
X97276851Y-120045785D01*
X97333212Y-120194394D01*
X97423499Y-120325198D01*
X97423502Y-120325201D01*
X97514445Y-120405770D01*
X97535386Y-120448777D01*
X97535500Y-120452551D01*
X97535500Y-122244089D01*
X97517194Y-122288283D01*
X96253283Y-123552194D01*
X96209089Y-123570500D01*
X92913770Y-123570500D01*
X92816748Y-123596498D01*
X92816746Y-123596498D01*
X92729751Y-123646725D01*
X90499725Y-125876751D01*
X90449498Y-125963746D01*
X90449498Y-125963748D01*
X90423500Y-126060770D01*
X90423500Y-132266000D01*
X90405194Y-132310194D01*
X90361000Y-132328500D01*
X89217000Y-132328500D01*
X89172806Y-132310194D01*
X89154500Y-132266000D01*
X89154500Y-123373911D01*
X89172806Y-123329717D01*
X94534717Y-117967806D01*
X94578911Y-117949500D01*
X95270558Y-117949500D01*
X95314752Y-117967806D01*
X95332700Y-118005319D01*
X95334960Y-118026343D01*
X95385656Y-118162263D01*
X95385657Y-118162265D01*
X95385658Y-118162267D01*
X95472596Y-118278404D01*
X95588733Y-118365342D01*
X95724658Y-118416040D01*
X95784745Y-118422500D01*
X96781254Y-118422499D01*
X96841342Y-118416040D01*
X96977267Y-118365342D01*
X97093404Y-118278404D01*
X97180342Y-118162267D01*
X97231040Y-118026342D01*
X97237500Y-117966255D01*
X97237499Y-117169746D01*
X97231040Y-117109658D01*
X97180342Y-116973733D01*
X97093404Y-116857596D01*
X96977267Y-116770658D01*
X96977265Y-116770657D01*
X96977263Y-116770656D01*
X96841343Y-116719960D01*
X96781255Y-116713500D01*
X95784753Y-116713500D01*
X95784736Y-116713501D01*
X95724656Y-116719960D01*
X95588736Y-116770656D01*
X95588731Y-116770659D01*
X95472596Y-116857596D01*
X95385659Y-116973731D01*
X95385656Y-116973736D01*
X95334960Y-117109656D01*
X95332700Y-117130681D01*
X95309775Y-117172665D01*
X95270558Y-117186500D01*
X94449066Y-117186500D01*
X94449050Y-117186499D01*
X94445225Y-117186499D01*
X94344775Y-117186499D01*
X94344770Y-117186499D01*
X94247749Y-117212497D01*
X94247747Y-117212497D01*
X94160751Y-117262725D01*
X94160747Y-117262728D01*
X88538753Y-122884724D01*
X88467725Y-122955751D01*
X88417498Y-123042746D01*
X88417498Y-123042748D01*
X88391500Y-123139770D01*
X88391500Y-132266000D01*
X88373194Y-132310194D01*
X88329000Y-132328500D01*
X83126000Y-132328500D01*
X83081806Y-132310194D01*
X83063500Y-132266000D01*
X83063500Y-112356576D01*
X85596500Y-112356576D01*
X85596500Y-112780423D01*
X85596501Y-112780437D01*
X85623696Y-112952137D01*
X85677419Y-113117479D01*
X85677423Y-113117487D01*
X85756348Y-113272386D01*
X85858534Y-113413032D01*
X85858541Y-113413040D01*
X85981459Y-113535958D01*
X85981467Y-113535965D01*
X86122116Y-113638153D01*
X86277019Y-113717080D01*
X86442362Y-113770803D01*
X86614074Y-113798000D01*
X86614076Y-113798000D01*
X86787924Y-113798000D01*
X86787926Y-113798000D01*
X86959638Y-113770803D01*
X87124981Y-113717080D01*
X87279884Y-113638153D01*
X87420533Y-113535965D01*
X87543465Y-113413033D01*
X87645653Y-113272384D01*
X87724580Y-113117481D01*
X87778303Y-112952138D01*
X87805500Y-112780426D01*
X87805500Y-112356574D01*
X87778303Y-112184862D01*
X87724580Y-112019519D01*
X87645653Y-111864616D01*
X87634633Y-111849449D01*
X87543465Y-111723967D01*
X87543458Y-111723959D01*
X87420540Y-111601041D01*
X87420532Y-111601034D01*
X87279886Y-111498848D01*
X87124987Y-111419923D01*
X87124979Y-111419919D01*
X86959636Y-111366196D01*
X86959637Y-111366196D01*
X86787937Y-111339001D01*
X86787927Y-111339000D01*
X86787926Y-111339000D01*
X86614074Y-111339000D01*
X86614072Y-111339000D01*
X86614062Y-111339001D01*
X86442362Y-111366196D01*
X86277020Y-111419919D01*
X86277012Y-111419923D01*
X86122113Y-111498848D01*
X85981467Y-111601034D01*
X85981459Y-111601041D01*
X85858541Y-111723959D01*
X85858534Y-111723967D01*
X85756348Y-111864613D01*
X85677423Y-112019512D01*
X85677419Y-112019520D01*
X85623696Y-112184862D01*
X85596501Y-112356562D01*
X85596500Y-112356576D01*
X83063500Y-112356576D01*
X83063500Y-101244076D01*
X85596500Y-101244076D01*
X85596500Y-101667923D01*
X85596501Y-101667937D01*
X85623696Y-101839637D01*
X85677419Y-102004979D01*
X85677423Y-102004987D01*
X85756348Y-102159886D01*
X85858534Y-102300532D01*
X85858541Y-102300540D01*
X85981459Y-102423458D01*
X85981467Y-102423465D01*
X86072354Y-102489499D01*
X86122116Y-102525653D01*
X86277019Y-102604580D01*
X86442362Y-102658303D01*
X86614074Y-102685500D01*
X86614076Y-102685500D01*
X86787924Y-102685500D01*
X86787926Y-102685500D01*
X86959638Y-102658303D01*
X87124981Y-102604580D01*
X87279884Y-102525653D01*
X87420533Y-102423465D01*
X87543465Y-102300533D01*
X87645653Y-102159884D01*
X87724580Y-102004981D01*
X87764966Y-101880686D01*
X87796033Y-101844312D01*
X87824407Y-101837500D01*
X89207089Y-101837500D01*
X89251283Y-101855806D01*
X95883194Y-108487717D01*
X95901500Y-108531911D01*
X95901500Y-114651000D01*
X95883194Y-114695194D01*
X95839001Y-114713500D01*
X95784753Y-114713500D01*
X95784736Y-114713501D01*
X95724656Y-114719960D01*
X95588736Y-114770656D01*
X95588731Y-114770659D01*
X95472596Y-114857596D01*
X95385659Y-114973731D01*
X95385656Y-114973736D01*
X95334960Y-115109656D01*
X95328500Y-115169737D01*
X95328500Y-115966246D01*
X95328501Y-115966263D01*
X95334960Y-116026343D01*
X95385656Y-116162263D01*
X95385657Y-116162265D01*
X95385658Y-116162267D01*
X95472596Y-116278404D01*
X95588733Y-116365342D01*
X95724658Y-116416040D01*
X95784745Y-116422500D01*
X96781254Y-116422499D01*
X96841342Y-116416040D01*
X96977267Y-116365342D01*
X97093404Y-116278404D01*
X97180342Y-116162267D01*
X97231040Y-116026342D01*
X97237500Y-115966255D01*
X97237499Y-115169746D01*
X97231040Y-115109658D01*
X97180342Y-114973733D01*
X97093404Y-114857596D01*
X96977267Y-114770658D01*
X96977265Y-114770657D01*
X96977263Y-114770656D01*
X96841343Y-114719960D01*
X96781262Y-114713500D01*
X96781255Y-114713500D01*
X96727000Y-114713500D01*
X96682806Y-114695194D01*
X96664500Y-114651000D01*
X96664500Y-108297776D01*
X96664499Y-108297770D01*
X96652831Y-108254226D01*
X96652831Y-108254225D01*
X96638502Y-108200747D01*
X96588276Y-108113753D01*
X96588274Y-108113751D01*
X96588271Y-108113747D01*
X89625247Y-101150724D01*
X89623515Y-101149724D01*
X89615315Y-101144990D01*
X89538254Y-101100499D01*
X89538253Y-101100498D01*
X89538252Y-101100498D01*
X89441229Y-101074500D01*
X89441225Y-101074500D01*
X87824407Y-101074500D01*
X87780213Y-101056194D01*
X87764966Y-101031314D01*
X87724580Y-100907020D01*
X87724576Y-100907012D01*
X87699613Y-100858019D01*
X87645653Y-100752116D01*
X87543465Y-100611467D01*
X87543458Y-100611459D01*
X87420540Y-100488541D01*
X87420532Y-100488534D01*
X87279886Y-100386348D01*
X87124987Y-100307423D01*
X87124979Y-100307419D01*
X86959636Y-100253696D01*
X86959637Y-100253696D01*
X86787937Y-100226501D01*
X86787927Y-100226500D01*
X86787926Y-100226500D01*
X86614074Y-100226500D01*
X86614072Y-100226500D01*
X86614062Y-100226501D01*
X86442362Y-100253696D01*
X86277020Y-100307419D01*
X86277012Y-100307423D01*
X86122113Y-100386348D01*
X85981467Y-100488534D01*
X85981459Y-100488541D01*
X85858541Y-100611459D01*
X85858534Y-100611467D01*
X85756348Y-100752113D01*
X85677423Y-100907012D01*
X85677419Y-100907020D01*
X85623696Y-101072362D01*
X85596501Y-101244062D01*
X85596500Y-101244076D01*
X83063500Y-101244076D01*
X83063500Y-99890000D01*
X83081806Y-99845806D01*
X83126000Y-99827500D01*
X95309000Y-99827500D01*
X95353194Y-99845806D01*
X95371500Y-99890000D01*
X95371500Y-104585500D01*
X95371499Y-104585500D01*
X95391253Y-104684806D01*
X95404197Y-104716053D01*
X95409560Y-104729001D01*
X95409561Y-104729002D01*
X95465810Y-104813186D01*
X95465813Y-104813189D01*
X95484563Y-104825717D01*
X95549999Y-104869440D01*
X95591365Y-104886574D01*
X95593588Y-104887626D01*
X95594193Y-104887746D01*
X95594194Y-104887747D01*
X95693500Y-104907500D01*
X104714090Y-104907500D01*
X104758284Y-104925806D01*
X104776590Y-104970000D01*
X104758284Y-105014193D01*
X102280134Y-107492342D01*
X101483962Y-108288514D01*
X101483961Y-108288514D01*
X101483962Y-108288515D01*
X101421724Y-108350753D01*
X101371498Y-108437746D01*
X101371498Y-108437748D01*
X101345500Y-108534770D01*
X101345500Y-124988229D01*
X101371498Y-125085251D01*
X101371500Y-125085257D01*
X101388529Y-125114753D01*
X101421721Y-125172243D01*
X101421728Y-125172252D01*
X101988781Y-125739304D01*
X102007087Y-125783498D01*
X102000275Y-125811872D01*
X101958423Y-125894012D01*
X101958419Y-125894020D01*
X101904696Y-126059362D01*
X101877501Y-126231062D01*
X101877500Y-126231076D01*
X101877500Y-126404923D01*
X101877501Y-126404937D01*
X101904696Y-126576637D01*
X101958419Y-126741979D01*
X101958423Y-126741987D01*
X102037348Y-126896886D01*
X102139534Y-127037532D01*
X102139541Y-127037540D01*
X102262459Y-127160458D01*
X102262467Y-127160465D01*
X102403116Y-127262653D01*
X102558019Y-127341580D01*
X102723362Y-127395303D01*
X102895074Y-127422500D01*
X102895076Y-127422500D01*
X103318924Y-127422500D01*
X103318926Y-127422500D01*
X103490638Y-127395303D01*
X103655981Y-127341580D01*
X103810884Y-127262653D01*
X103951533Y-127160465D01*
X104074465Y-127037533D01*
X104176653Y-126896884D01*
X104255580Y-126741981D01*
X104309303Y-126576638D01*
X104336500Y-126404926D01*
X104336500Y-126231074D01*
X104309303Y-126059362D01*
X104255580Y-125894019D01*
X104176653Y-125739116D01*
X104074465Y-125598467D01*
X104074458Y-125598459D01*
X103951540Y-125475541D01*
X103951532Y-125475534D01*
X103810886Y-125373348D01*
X103655987Y-125294423D01*
X103655979Y-125294419D01*
X103490636Y-125240696D01*
X103490637Y-125240696D01*
X103318937Y-125213501D01*
X103318927Y-125213500D01*
X103318926Y-125213500D01*
X102895074Y-125213500D01*
X102895072Y-125213500D01*
X102895062Y-125213501D01*
X102723362Y-125240696D01*
X102723358Y-125240697D01*
X102643445Y-125266662D01*
X102595757Y-125262909D01*
X102579938Y-125251415D01*
X102126806Y-124798283D01*
X102108500Y-124754089D01*
X102108500Y-108768910D01*
X102126806Y-108724716D01*
X105422716Y-105428806D01*
X105466910Y-105410500D01*
X117525224Y-105410500D01*
X117525225Y-105410500D01*
X117622254Y-105384501D01*
X117709247Y-105334276D01*
X117780276Y-105263247D01*
X118217806Y-104825717D01*
X118262000Y-104807411D01*
X118306194Y-104825717D01*
X118324500Y-104869911D01*
X118324500Y-105011089D01*
X118306194Y-105055283D01*
X117716283Y-105645194D01*
X117672089Y-105663500D01*
X107115066Y-105663500D01*
X107115050Y-105663499D01*
X107111225Y-105663499D01*
X107010775Y-105663499D01*
X107010770Y-105663499D01*
X106913749Y-105689497D01*
X106913747Y-105689497D01*
X106826751Y-105739725D01*
X106826747Y-105739728D01*
X103016753Y-109549724D01*
X102945725Y-109620751D01*
X102895498Y-109707746D01*
X102895498Y-109707748D01*
X102869500Y-109804770D01*
X102869500Y-122478229D01*
X102895498Y-122575251D01*
X102895498Y-122575253D01*
X102945725Y-122662248D01*
X105645194Y-125361717D01*
X105663500Y-125405911D01*
X105663500Y-127324089D01*
X105645194Y-127368283D01*
X104595283Y-128418194D01*
X104551089Y-128436500D01*
X104314792Y-128436500D01*
X104270598Y-128418194D01*
X104257036Y-128396070D01*
X104256518Y-128396285D01*
X104255583Y-128394031D01*
X104255580Y-128394019D01*
X104176653Y-128239116D01*
X104176649Y-128239111D01*
X104074465Y-128098467D01*
X104074458Y-128098459D01*
X103951540Y-127975541D01*
X103951532Y-127975534D01*
X103810886Y-127873348D01*
X103655987Y-127794423D01*
X103655979Y-127794419D01*
X103490636Y-127740696D01*
X103490637Y-127740696D01*
X103318937Y-127713501D01*
X103318927Y-127713500D01*
X103318926Y-127713500D01*
X102895074Y-127713500D01*
X102895072Y-127713500D01*
X102895062Y-127713501D01*
X102723362Y-127740696D01*
X102558020Y-127794419D01*
X102558012Y-127794423D01*
X102403113Y-127873348D01*
X102262467Y-127975534D01*
X102262459Y-127975541D01*
X102139541Y-128098459D01*
X102139534Y-128098467D01*
X102037348Y-128239113D01*
X101958423Y-128394012D01*
X101958419Y-128394020D01*
X101904696Y-128559362D01*
X101877501Y-128731062D01*
X101877500Y-128731076D01*
X101877500Y-128904923D01*
X101877501Y-128904937D01*
X101904696Y-129076637D01*
X101958419Y-129241979D01*
X101958423Y-129241987D01*
X102037348Y-129396886D01*
X102139534Y-129537532D01*
X102139541Y-129537540D01*
X102262459Y-129660458D01*
X102262467Y-129660465D01*
X102403116Y-129762653D01*
X102558019Y-129841580D01*
X102723362Y-129895303D01*
X102895074Y-129922500D01*
X102895076Y-129922500D01*
X103318924Y-129922500D01*
X103318926Y-129922500D01*
X103490638Y-129895303D01*
X103655981Y-129841580D01*
X103810884Y-129762653D01*
X103951533Y-129660465D01*
X104074465Y-129537533D01*
X104176653Y-129396884D01*
X104255580Y-129241981D01*
X104255585Y-129241964D01*
X104256518Y-129239715D01*
X104257526Y-129240132D01*
X104286429Y-129206306D01*
X104314792Y-129199500D01*
X104785224Y-129199500D01*
X104785225Y-129199500D01*
X104882254Y-129173501D01*
X104969247Y-129123276D01*
X105040276Y-129052247D01*
X106350276Y-127742247D01*
X106400502Y-127655253D01*
X106426501Y-127558225D01*
X106426501Y-127457775D01*
X106426501Y-127457774D01*
X106426501Y-127453951D01*
X106426500Y-127453933D01*
X106426500Y-125277269D01*
X106426501Y-125277256D01*
X106426501Y-125171776D01*
X106426500Y-125171770D01*
X106403317Y-125085254D01*
X106400502Y-125074747D01*
X106350276Y-124987753D01*
X106350274Y-124987751D01*
X106350271Y-124987747D01*
X103650806Y-122288282D01*
X103632500Y-122244088D01*
X103632500Y-110038911D01*
X103650806Y-109994717D01*
X107200717Y-106444806D01*
X107244911Y-106426500D01*
X117906224Y-106426500D01*
X117906225Y-106426500D01*
X118003254Y-106400501D01*
X118090247Y-106350276D01*
X118161276Y-106279247D01*
X118161276Y-106279246D01*
X118867806Y-105572714D01*
X118912000Y-105554409D01*
X118956194Y-105572715D01*
X118974500Y-105616909D01*
X118974500Y-105758089D01*
X118956194Y-105802283D01*
X118097283Y-106661194D01*
X118053089Y-106679500D01*
X108766066Y-106679500D01*
X108766050Y-106679499D01*
X108762225Y-106679499D01*
X108661775Y-106679499D01*
X108661770Y-106679499D01*
X108564749Y-106705497D01*
X108564747Y-106705497D01*
X108477751Y-106755725D01*
X108477747Y-106755728D01*
X104667753Y-110565724D01*
X104596725Y-110636751D01*
X104546498Y-110723746D01*
X104546498Y-110723748D01*
X104520500Y-110820770D01*
X104520500Y-121716229D01*
X104546498Y-121813251D01*
X104546498Y-121813253D01*
X104596725Y-121900248D01*
X109246536Y-126550058D01*
X109246541Y-126550064D01*
X109248724Y-126552247D01*
X109319753Y-126623276D01*
X109406746Y-126673501D01*
X109449526Y-126684964D01*
X109503770Y-126699499D01*
X109503773Y-126699499D01*
X109503775Y-126699500D01*
X112059208Y-126699500D01*
X112103402Y-126717806D01*
X112116963Y-126739929D01*
X112117482Y-126739715D01*
X112118418Y-126741975D01*
X112118420Y-126741981D01*
X112118422Y-126741986D01*
X112118423Y-126741987D01*
X112197348Y-126896886D01*
X112299534Y-127037532D01*
X112299541Y-127037540D01*
X112422459Y-127160458D01*
X112422467Y-127160465D01*
X112563116Y-127262653D01*
X112718019Y-127341580D01*
X112883362Y-127395303D01*
X113055074Y-127422500D01*
X113055076Y-127422500D01*
X113478924Y-127422500D01*
X113478926Y-127422500D01*
X113650638Y-127395303D01*
X113815981Y-127341580D01*
X113970884Y-127262653D01*
X114111533Y-127160465D01*
X114234465Y-127037533D01*
X114336653Y-126896884D01*
X114415580Y-126741981D01*
X114469303Y-126576638D01*
X114496500Y-126404926D01*
X114496500Y-126231074D01*
X114469303Y-126059362D01*
X114415580Y-125894019D01*
X114336653Y-125739116D01*
X114234465Y-125598467D01*
X114234458Y-125598459D01*
X114111540Y-125475541D01*
X114111532Y-125475534D01*
X113970886Y-125373348D01*
X113815987Y-125294423D01*
X113815979Y-125294419D01*
X113650636Y-125240696D01*
X113650637Y-125240696D01*
X113478937Y-125213501D01*
X113478927Y-125213500D01*
X113478926Y-125213500D01*
X113055074Y-125213500D01*
X113055072Y-125213500D01*
X113055062Y-125213501D01*
X112883362Y-125240696D01*
X112718020Y-125294419D01*
X112718012Y-125294423D01*
X112563113Y-125373348D01*
X112422467Y-125475534D01*
X112422459Y-125475541D01*
X112299541Y-125598459D01*
X112299534Y-125598467D01*
X112197348Y-125739113D01*
X112118423Y-125894012D01*
X112117482Y-125896285D01*
X112116473Y-125895867D01*
X112087571Y-125929694D01*
X112059208Y-125936500D01*
X109737910Y-125936500D01*
X109693716Y-125918194D01*
X105301806Y-121526283D01*
X105283500Y-121482089D01*
X105283500Y-111054911D01*
X105301806Y-111010717D01*
X108851717Y-107460806D01*
X108895911Y-107442500D01*
X118287224Y-107442500D01*
X118287225Y-107442500D01*
X118384254Y-107416501D01*
X118471247Y-107366276D01*
X118542276Y-107295247D01*
X119517806Y-106319717D01*
X119562000Y-106301411D01*
X119606194Y-106319717D01*
X119624500Y-106363911D01*
X119624500Y-106505089D01*
X119606194Y-106549283D01*
X118351283Y-107804194D01*
X118307089Y-107822500D01*
X109804770Y-107822500D01*
X109707748Y-107848498D01*
X109707746Y-107848498D01*
X109638462Y-107888500D01*
X109620752Y-107898724D01*
X106247725Y-111271751D01*
X106197498Y-111358746D01*
X106197498Y-111358748D01*
X106171500Y-111455770D01*
X106171500Y-119938229D01*
X106197498Y-120035251D01*
X106197498Y-120035253D01*
X106247725Y-120122248D01*
X110128747Y-124003271D01*
X110128751Y-124003274D01*
X110128753Y-124003276D01*
X110215747Y-124053502D01*
X110258526Y-124064964D01*
X110312770Y-124079500D01*
X110312772Y-124079500D01*
X110312775Y-124079501D01*
X110312777Y-124079501D01*
X110417050Y-124079501D01*
X110417066Y-124079500D01*
X114243089Y-124079500D01*
X114287283Y-124097806D01*
X115678194Y-125488717D01*
X115696500Y-125532911D01*
X115696500Y-127070088D01*
X115678194Y-127114282D01*
X114470628Y-128321847D01*
X114426434Y-128340153D01*
X114382240Y-128321847D01*
X114370746Y-128306028D01*
X114336653Y-128239116D01*
X114234465Y-128098467D01*
X114234458Y-128098459D01*
X114111540Y-127975541D01*
X114111532Y-127975534D01*
X113970886Y-127873348D01*
X113815987Y-127794423D01*
X113815979Y-127794419D01*
X113650636Y-127740696D01*
X113650637Y-127740696D01*
X113478937Y-127713501D01*
X113478927Y-127713500D01*
X113478926Y-127713500D01*
X113055074Y-127713500D01*
X113055072Y-127713500D01*
X113055062Y-127713501D01*
X112883362Y-127740696D01*
X112718020Y-127794419D01*
X112718012Y-127794423D01*
X112563113Y-127873348D01*
X112422467Y-127975534D01*
X112422459Y-127975541D01*
X112299541Y-128098459D01*
X112299534Y-128098467D01*
X112197348Y-128239113D01*
X112118423Y-128394012D01*
X112118419Y-128394020D01*
X112064696Y-128559362D01*
X112037501Y-128731062D01*
X112037500Y-128731076D01*
X112037500Y-128904923D01*
X112037501Y-128904937D01*
X112064696Y-129076637D01*
X112118419Y-129241979D01*
X112118423Y-129241987D01*
X112197348Y-129396886D01*
X112299534Y-129537532D01*
X112299541Y-129537540D01*
X112422459Y-129660458D01*
X112422467Y-129660465D01*
X112563116Y-129762653D01*
X112718019Y-129841580D01*
X112883362Y-129895303D01*
X113055074Y-129922500D01*
X113055076Y-129922500D01*
X113478924Y-129922500D01*
X113478926Y-129922500D01*
X113650638Y-129895303D01*
X113815981Y-129841580D01*
X113970884Y-129762653D01*
X114111533Y-129660465D01*
X114234465Y-129537533D01*
X114336653Y-129396884D01*
X114415580Y-129241981D01*
X114415585Y-129241964D01*
X114416518Y-129239715D01*
X114417526Y-129240132D01*
X114446429Y-129206306D01*
X114474792Y-129199500D01*
X114564224Y-129199500D01*
X114564225Y-129199500D01*
X114661254Y-129173501D01*
X114748247Y-129123276D01*
X114819276Y-129052247D01*
X115140447Y-128731076D01*
X122197500Y-128731076D01*
X122197500Y-128904923D01*
X122197501Y-128904937D01*
X122224696Y-129076637D01*
X122278419Y-129241979D01*
X122278423Y-129241987D01*
X122357348Y-129396886D01*
X122459534Y-129537532D01*
X122459541Y-129537540D01*
X122582459Y-129660458D01*
X122582467Y-129660465D01*
X122723116Y-129762653D01*
X122878019Y-129841580D01*
X123043362Y-129895303D01*
X123215074Y-129922500D01*
X123215076Y-129922500D01*
X123638924Y-129922500D01*
X123638926Y-129922500D01*
X123810638Y-129895303D01*
X123975981Y-129841580D01*
X124130884Y-129762653D01*
X124271533Y-129660465D01*
X124394465Y-129537533D01*
X124496653Y-129396884D01*
X124575580Y-129241981D01*
X124629303Y-129076638D01*
X124656500Y-128904926D01*
X124656500Y-128731074D01*
X124629303Y-128559362D01*
X124575580Y-128394019D01*
X124496653Y-128239116D01*
X124496649Y-128239111D01*
X124394465Y-128098467D01*
X124394458Y-128098459D01*
X124271540Y-127975541D01*
X124271532Y-127975534D01*
X124130886Y-127873348D01*
X123975987Y-127794423D01*
X123975979Y-127794419D01*
X123810636Y-127740696D01*
X123810637Y-127740696D01*
X123638937Y-127713501D01*
X123638927Y-127713500D01*
X123638926Y-127713500D01*
X123215074Y-127713500D01*
X123215072Y-127713500D01*
X123215062Y-127713501D01*
X123043362Y-127740696D01*
X122878020Y-127794419D01*
X122878012Y-127794423D01*
X122723113Y-127873348D01*
X122582467Y-127975534D01*
X122582459Y-127975541D01*
X122459541Y-128098459D01*
X122459534Y-128098467D01*
X122357348Y-128239113D01*
X122278423Y-128394012D01*
X122278419Y-128394020D01*
X122224696Y-128559362D01*
X122197501Y-128731062D01*
X122197500Y-128731076D01*
X115140447Y-128731076D01*
X116383276Y-127488247D01*
X116400869Y-127457775D01*
X116400872Y-127457771D01*
X116411746Y-127438934D01*
X116433501Y-127401254D01*
X116459500Y-127304225D01*
X116459500Y-125404269D01*
X116459501Y-125404256D01*
X116459501Y-125298776D01*
X116459500Y-125298770D01*
X116443939Y-125240697D01*
X116433502Y-125201747D01*
X116383276Y-125114753D01*
X116383274Y-125114751D01*
X116383271Y-125114747D01*
X114661248Y-123392725D01*
X114661247Y-123392724D01*
X114574254Y-123342499D01*
X114574253Y-123342498D01*
X114574252Y-123342498D01*
X114477229Y-123316500D01*
X114477225Y-123316500D01*
X110546911Y-123316500D01*
X110502717Y-123298194D01*
X106952806Y-119748283D01*
X106934500Y-119704089D01*
X106934500Y-111689911D01*
X106952806Y-111645717D01*
X108277485Y-110321038D01*
X111857500Y-110321038D01*
X111857500Y-110543961D01*
X111886596Y-110764966D01*
X111886596Y-110764967D01*
X111944286Y-110980269D01*
X111944288Y-110980274D01*
X111944290Y-110980281D01*
X112029595Y-111186226D01*
X112029596Y-111186229D01*
X112029598Y-111186232D01*
X112117800Y-111339001D01*
X112141052Y-111379274D01*
X112276753Y-111556124D01*
X112434376Y-111713747D01*
X112434379Y-111713749D01*
X112434381Y-111713751D01*
X112447695Y-111723967D01*
X112611226Y-111849448D01*
X112637498Y-111864616D01*
X112788505Y-111951801D01*
X112804274Y-111960905D01*
X113010219Y-112046210D01*
X113010229Y-112046212D01*
X113010230Y-112046213D01*
X113183573Y-112092660D01*
X113225537Y-112103904D01*
X113446543Y-112133000D01*
X113446549Y-112133000D01*
X113669451Y-112133000D01*
X113669457Y-112133000D01*
X113890463Y-112103904D01*
X114105781Y-112046210D01*
X114311726Y-111960905D01*
X114504774Y-111849448D01*
X114681624Y-111713747D01*
X114839247Y-111556124D01*
X114974948Y-111379274D01*
X115086405Y-111186226D01*
X115171710Y-110980281D01*
X115229404Y-110764963D01*
X115258500Y-110543957D01*
X115258500Y-110321043D01*
X115229404Y-110100037D01*
X115213025Y-110038911D01*
X115171713Y-109884730D01*
X115171712Y-109884729D01*
X115171710Y-109884719D01*
X115086405Y-109678774D01*
X114974948Y-109485726D01*
X114839247Y-109308876D01*
X114681624Y-109151253D01*
X114681620Y-109151250D01*
X114681618Y-109151248D01*
X114504771Y-109015550D01*
X114311732Y-108904098D01*
X114311729Y-108904096D01*
X114311726Y-108904095D01*
X114105781Y-108818790D01*
X114105774Y-108818788D01*
X114105769Y-108818786D01*
X113890466Y-108761096D01*
X113669461Y-108732000D01*
X113669457Y-108732000D01*
X113446543Y-108732000D01*
X113446538Y-108732000D01*
X113225533Y-108761096D01*
X113225532Y-108761096D01*
X113010230Y-108818786D01*
X113010222Y-108818788D01*
X113010219Y-108818790D01*
X112804274Y-108904095D01*
X112804267Y-108904098D01*
X112611228Y-109015550D01*
X112434381Y-109151248D01*
X112434371Y-109151257D01*
X112276757Y-109308871D01*
X112276748Y-109308881D01*
X112141050Y-109485728D01*
X112029598Y-109678767D01*
X112029595Y-109678773D01*
X112029595Y-109678774D01*
X111944290Y-109884719D01*
X111944288Y-109884722D01*
X111944286Y-109884730D01*
X111886596Y-110100032D01*
X111886596Y-110100033D01*
X111857500Y-110321038D01*
X108277485Y-110321038D01*
X109994717Y-108603806D01*
X110038911Y-108585500D01*
X118541224Y-108585500D01*
X118541225Y-108585500D01*
X118638254Y-108559501D01*
X118725247Y-108509276D01*
X118796276Y-108438247D01*
X118796276Y-108438246D01*
X120167806Y-107066714D01*
X120212000Y-107048409D01*
X120256194Y-107066715D01*
X120274500Y-107110909D01*
X120274500Y-107379088D01*
X120256194Y-107423282D01*
X118623650Y-109055825D01*
X118579456Y-109074131D01*
X118571934Y-109073677D01*
X118570474Y-109073500D01*
X118570471Y-109073500D01*
X118411529Y-109073500D01*
X118411525Y-109073500D01*
X118257205Y-109111537D01*
X118116470Y-109185400D01*
X118116468Y-109185402D01*
X117997503Y-109290797D01*
X117997499Y-109290801D01*
X117907212Y-109421605D01*
X117850851Y-109570214D01*
X117850849Y-109570225D01*
X117831693Y-109727996D01*
X117831693Y-109728003D01*
X117850849Y-109885774D01*
X117850851Y-109885785D01*
X117907212Y-110034394D01*
X117997499Y-110165198D01*
X117997503Y-110165202D01*
X118116468Y-110270597D01*
X118116470Y-110270599D01*
X118212574Y-110321038D01*
X118257207Y-110344463D01*
X118411529Y-110382500D01*
X118570471Y-110382500D01*
X118724793Y-110344463D01*
X118865529Y-110270599D01*
X118984498Y-110165201D01*
X119074787Y-110034395D01*
X119131149Y-109885782D01*
X119138234Y-109827432D01*
X120263500Y-109827432D01*
X120263500Y-111877564D01*
X120263501Y-111877568D01*
X120278265Y-111951799D01*
X120278267Y-111951803D01*
X120334515Y-112035984D01*
X120418697Y-112092233D01*
X120418699Y-112092234D01*
X120492933Y-112107000D01*
X122543066Y-112106999D01*
X122617301Y-112092234D01*
X122701484Y-112035984D01*
X122757734Y-111951801D01*
X122772500Y-111877567D01*
X122772499Y-109827434D01*
X122757734Y-109753199D01*
X122746331Y-109736133D01*
X122701484Y-109669015D01*
X122617302Y-109612766D01*
X122617300Y-109612765D01*
X122543067Y-109598000D01*
X120492935Y-109598000D01*
X120492931Y-109598001D01*
X120418700Y-109612765D01*
X120418696Y-109612767D01*
X120334515Y-109669015D01*
X120278266Y-109753197D01*
X120278265Y-109753199D01*
X120263500Y-109827432D01*
X119138234Y-109827432D01*
X119146188Y-109761921D01*
X119150307Y-109728002D01*
X119150307Y-109727997D01*
X119143162Y-109669155D01*
X119141005Y-109651393D01*
X119153850Y-109605315D01*
X119158847Y-109599674D01*
X120885100Y-107873420D01*
X120885105Y-107873417D01*
X120890245Y-107868276D01*
X120890247Y-107868276D01*
X120961276Y-107797247D01*
X121011501Y-107710254D01*
X121037500Y-107613225D01*
X121037500Y-103758115D01*
X121048032Y-103723393D01*
X121099545Y-103646300D01*
X121115500Y-103566088D01*
X121115500Y-101982912D01*
X121099545Y-101902700D01*
X121081486Y-101875673D01*
X121038764Y-101811735D01*
X120947801Y-101750955D01*
X120947799Y-101750954D01*
X120867588Y-101735000D01*
X120444412Y-101735000D01*
X120364201Y-101750954D01*
X120358513Y-101753311D01*
X120357771Y-101751520D01*
X120318798Y-101759267D01*
X120303623Y-101752981D01*
X120303487Y-101753311D01*
X120297798Y-101750954D01*
X120217588Y-101735000D01*
X119794412Y-101735000D01*
X119714201Y-101750954D01*
X119708513Y-101753311D01*
X119707771Y-101751520D01*
X119668798Y-101759267D01*
X119653623Y-101752981D01*
X119653487Y-101753311D01*
X119647798Y-101750954D01*
X119567588Y-101735000D01*
X119144412Y-101735000D01*
X119064201Y-101750954D01*
X119058513Y-101753311D01*
X119057771Y-101751520D01*
X119018798Y-101759267D01*
X119003623Y-101752981D01*
X119003487Y-101753311D01*
X118997798Y-101750954D01*
X118917588Y-101735000D01*
X118494412Y-101735000D01*
X118414201Y-101750954D01*
X118408513Y-101753311D01*
X118407771Y-101751520D01*
X118368798Y-101759267D01*
X118353623Y-101752981D01*
X118353487Y-101753311D01*
X118347798Y-101750954D01*
X118267588Y-101735000D01*
X117844412Y-101735000D01*
X117764201Y-101750954D01*
X117758513Y-101753311D01*
X117757771Y-101751520D01*
X117718798Y-101759267D01*
X117703623Y-101752981D01*
X117703487Y-101753311D01*
X117697798Y-101750954D01*
X117617588Y-101735000D01*
X117194412Y-101735000D01*
X117114201Y-101750954D01*
X117108513Y-101753311D01*
X117107771Y-101751520D01*
X117068798Y-101759267D01*
X117053623Y-101752981D01*
X117053487Y-101753311D01*
X117047798Y-101750954D01*
X116967588Y-101735000D01*
X116544412Y-101735000D01*
X116544406Y-101735000D01*
X116544274Y-101735013D01*
X116544231Y-101735000D01*
X116541342Y-101735000D01*
X116541342Y-101734123D01*
X116498500Y-101721125D01*
X116486188Y-101707541D01*
X116473675Y-101688813D01*
X116473672Y-101688811D01*
X116473672Y-101688810D01*
X116389488Y-101632561D01*
X116389484Y-101632558D01*
X116348135Y-101615431D01*
X116345900Y-101614374D01*
X116245986Y-101594500D01*
X116019000Y-101594500D01*
X115974806Y-101576194D01*
X115956500Y-101532000D01*
X115956500Y-99376499D01*
X115936746Y-99277193D01*
X115935569Y-99274351D01*
X115918440Y-99232999D01*
X115862189Y-99148813D01*
X115862186Y-99148810D01*
X115784393Y-99096831D01*
X115778001Y-99092560D01*
X115778000Y-99092559D01*
X115777998Y-99092558D01*
X115736649Y-99075431D01*
X115734414Y-99074374D01*
X115690037Y-99065547D01*
X115634500Y-99054500D01*
X114362499Y-99054500D01*
X114346023Y-99057777D01*
X114263193Y-99074253D01*
X114219001Y-99092559D01*
X114218997Y-99092561D01*
X114134813Y-99148810D01*
X114134810Y-99148813D01*
X114078561Y-99232997D01*
X114078560Y-99232998D01*
X114061431Y-99274351D01*
X114060374Y-99276585D01*
X114040500Y-99376499D01*
X114040500Y-101532000D01*
X114022194Y-101576194D01*
X113978000Y-101594500D01*
X112584499Y-101594500D01*
X112568023Y-101597777D01*
X112485193Y-101614253D01*
X112441001Y-101632559D01*
X112440997Y-101632561D01*
X112356813Y-101688810D01*
X112356810Y-101688813D01*
X112300561Y-101772997D01*
X112300560Y-101772998D01*
X112283431Y-101814351D01*
X112282374Y-101816585D01*
X112262500Y-101916499D01*
X112262500Y-103310000D01*
X112244194Y-103354194D01*
X112200000Y-103372500D01*
X111750607Y-103372500D01*
X111668670Y-103385775D01*
X111631214Y-103398240D01*
X111631206Y-103398244D01*
X111566060Y-103432320D01*
X111558934Y-103435498D01*
X111496554Y-103458765D01*
X111481401Y-103462347D01*
X111478679Y-103462640D01*
X111471990Y-103462999D01*
X110734999Y-103462999D01*
X110728303Y-103462639D01*
X110725593Y-103462347D01*
X110710447Y-103458766D01*
X110648064Y-103435498D01*
X110640938Y-103432320D01*
X110575794Y-103398245D01*
X110575786Y-103398241D01*
X110538336Y-103385778D01*
X110538326Y-103385775D01*
X110456400Y-103372501D01*
X110456395Y-103372500D01*
X110456391Y-103372500D01*
X110456385Y-103372500D01*
X109153911Y-103372500D01*
X109109717Y-103354194D01*
X109091411Y-103310000D01*
X109109717Y-103265806D01*
X109717220Y-102658303D01*
X112786100Y-99589420D01*
X112786105Y-99589417D01*
X112791245Y-99584276D01*
X112791247Y-99584276D01*
X112862276Y-99513247D01*
X112912501Y-99426254D01*
X112938500Y-99329225D01*
X112938500Y-99086222D01*
X112956806Y-99042028D01*
X113001000Y-99023722D01*
X113030046Y-99030882D01*
X113050203Y-99041461D01*
X113050203Y-99041462D01*
X113050206Y-99041462D01*
X113050207Y-99041463D01*
X113204529Y-99079500D01*
X113363471Y-99079500D01*
X113517793Y-99041463D01*
X113658529Y-98967599D01*
X113750953Y-98885717D01*
X113792398Y-98870000D01*
X115654898Y-98870000D01*
X115654902Y-98869999D01*
X115666861Y-98866794D01*
X115711486Y-98854837D01*
X115768076Y-98839674D01*
X115869548Y-98781089D01*
X115952401Y-98698236D01*
X116462089Y-98188548D01*
X116502331Y-98118848D01*
X116510182Y-98105250D01*
X116548132Y-98076130D01*
X116564308Y-98074000D01*
X116967588Y-98074000D01*
X117047800Y-98058045D01*
X117047801Y-98058043D01*
X117053488Y-98055689D01*
X117054230Y-98057482D01*
X117093183Y-98049728D01*
X117108374Y-98056020D01*
G37*
%TD.AperFunction*%
%TA.AperFunction,Conductor*%
G36*
X127922127Y-111170043D02*
G01*
X127928370Y-111185116D01*
X127954650Y-111283195D01*
X127954655Y-111283208D01*
X128047418Y-111482142D01*
X128047420Y-111482144D01*
X128173326Y-111661958D01*
X128328541Y-111817173D01*
X128374635Y-111849448D01*
X128508354Y-111943079D01*
X128508353Y-111943079D01*
X128707294Y-112035846D01*
X128707296Y-112035846D01*
X128707297Y-112035847D01*
X128710170Y-112036616D01*
X128748123Y-112065731D01*
X128756500Y-112096988D01*
X128756500Y-132266000D01*
X128738194Y-132310194D01*
X128694000Y-132328500D01*
X127042000Y-132328500D01*
X126997806Y-132310194D01*
X126979500Y-132266000D01*
X126979500Y-112096988D01*
X126997806Y-112052794D01*
X127025829Y-112036617D01*
X127028703Y-112035847D01*
X127227646Y-111943079D01*
X127407457Y-111817174D01*
X127562674Y-111661957D01*
X127688579Y-111482146D01*
X127781347Y-111283203D01*
X127807331Y-111186232D01*
X127807630Y-111185116D01*
X127836750Y-111147166D01*
X127884177Y-111140923D01*
X127922127Y-111170043D01*
G37*
%TD.AperFunction*%
%TA.AperFunction,Conductor*%
G36*
X130462127Y-111170043D02*
G01*
X130468370Y-111185116D01*
X130494650Y-111283195D01*
X130494655Y-111283208D01*
X130587418Y-111482142D01*
X130587420Y-111482144D01*
X130713326Y-111661958D01*
X130868541Y-111817173D01*
X130914635Y-111849448D01*
X131048354Y-111943079D01*
X131048353Y-111943079D01*
X131247294Y-112035846D01*
X131247296Y-112035846D01*
X131247297Y-112035847D01*
X131250170Y-112036616D01*
X131288123Y-112065731D01*
X131296500Y-112096988D01*
X131296500Y-132266000D01*
X131278194Y-132310194D01*
X131234000Y-132328500D01*
X129582000Y-132328500D01*
X129537806Y-132310194D01*
X129519500Y-132266000D01*
X129519500Y-112096988D01*
X129537806Y-112052794D01*
X129565829Y-112036617D01*
X129568703Y-112035847D01*
X129767646Y-111943079D01*
X129947457Y-111817174D01*
X130102674Y-111661957D01*
X130228579Y-111482146D01*
X130321347Y-111283203D01*
X130347331Y-111186232D01*
X130347630Y-111185116D01*
X130376750Y-111147166D01*
X130424177Y-111140923D01*
X130462127Y-111170043D01*
G37*
%TD.AperFunction*%
%TA.AperFunction,Conductor*%
G36*
X135369283Y-102380806D02*
G01*
X143232278Y-110243801D01*
X143250584Y-110287995D01*
X143244728Y-110314408D01*
X143194653Y-110421793D01*
X143168370Y-110519883D01*
X143139250Y-110557833D01*
X143091823Y-110564076D01*
X143053873Y-110534956D01*
X143047630Y-110519883D01*
X143021349Y-110421804D01*
X143021348Y-110421802D01*
X143021347Y-110421797D01*
X142953571Y-110276450D01*
X142928581Y-110222857D01*
X142928579Y-110222855D01*
X142928579Y-110222854D01*
X142802674Y-110043043D01*
X142802673Y-110043041D01*
X142647458Y-109887826D01*
X142528841Y-109804770D01*
X142467646Y-109761921D01*
X142467644Y-109761920D01*
X142467642Y-109761918D01*
X142268708Y-109669155D01*
X142268695Y-109669150D01*
X142056681Y-109612340D01*
X142056675Y-109612339D01*
X141838002Y-109593208D01*
X141837998Y-109593208D01*
X141619324Y-109612339D01*
X141619318Y-109612340D01*
X141407293Y-109669153D01*
X141301613Y-109718433D01*
X141253824Y-109720520D01*
X141231006Y-109705983D01*
X134978747Y-103453724D01*
X134944812Y-103434132D01*
X134891754Y-103403499D01*
X134891751Y-103403498D01*
X134794729Y-103377500D01*
X134794725Y-103377500D01*
X124001859Y-103377500D01*
X123957665Y-103359194D01*
X123067665Y-102469194D01*
X123049359Y-102425000D01*
X123067665Y-102380806D01*
X123111859Y-102362500D01*
X135325089Y-102362500D01*
X135369283Y-102380806D01*
G37*
%TD.AperFunction*%
%TA.AperFunction,Conductor*%
G36*
X122114465Y-100582007D02*
G01*
X122123769Y-100584500D01*
X122123771Y-100584500D01*
X122123774Y-100584501D01*
X122123776Y-100584501D01*
X122228049Y-100584501D01*
X122228065Y-100584500D01*
X136084589Y-100584500D01*
X136128783Y-100602806D01*
X140954783Y-105428806D01*
X145771483Y-110245505D01*
X145789789Y-110289699D01*
X145783933Y-110316112D01*
X145734653Y-110421793D01*
X145708370Y-110519883D01*
X145679250Y-110557833D01*
X145631823Y-110564076D01*
X145593873Y-110534956D01*
X145587630Y-110519883D01*
X145561349Y-110421804D01*
X145561348Y-110421802D01*
X145561347Y-110421797D01*
X145493571Y-110276450D01*
X145468581Y-110222857D01*
X145468579Y-110222855D01*
X145468579Y-110222854D01*
X145342674Y-110043043D01*
X145342673Y-110043041D01*
X145187458Y-109887826D01*
X145068841Y-109804770D01*
X145007646Y-109761921D01*
X145007644Y-109761920D01*
X145007642Y-109761918D01*
X144808708Y-109669155D01*
X144808695Y-109669150D01*
X144596681Y-109612340D01*
X144596675Y-109612339D01*
X144378002Y-109593208D01*
X144377998Y-109593208D01*
X144159324Y-109612339D01*
X144159318Y-109612340D01*
X143947293Y-109669153D01*
X143843318Y-109717638D01*
X143795529Y-109719725D01*
X143772711Y-109705188D01*
X135743247Y-101675724D01*
X135729740Y-101667926D01*
X135656254Y-101625499D01*
X135656253Y-101625498D01*
X135656252Y-101625498D01*
X135559229Y-101599500D01*
X135559225Y-101599500D01*
X122992911Y-101599500D01*
X122948717Y-101581194D01*
X122054094Y-100686571D01*
X122035788Y-100642377D01*
X122054094Y-100598183D01*
X122098288Y-100579877D01*
X122114465Y-100582007D01*
G37*
%TD.AperFunction*%
%TA.AperFunction,Conductor*%
G36*
X137017783Y-98951806D02*
G01*
X148311483Y-110245506D01*
X148329789Y-110289700D01*
X148323933Y-110316113D01*
X148274653Y-110421793D01*
X148248370Y-110519883D01*
X148219250Y-110557833D01*
X148171823Y-110564076D01*
X148133873Y-110534956D01*
X148127630Y-110519883D01*
X148101349Y-110421804D01*
X148101348Y-110421802D01*
X148101347Y-110421797D01*
X148033571Y-110276450D01*
X148008581Y-110222857D01*
X148008579Y-110222855D01*
X148008579Y-110222854D01*
X147882674Y-110043043D01*
X147882673Y-110043041D01*
X147727458Y-109887826D01*
X147608841Y-109804770D01*
X147547646Y-109761921D01*
X147547644Y-109761920D01*
X147547642Y-109761918D01*
X147348708Y-109669155D01*
X147348695Y-109669150D01*
X147136681Y-109612340D01*
X147136675Y-109612339D01*
X146918002Y-109593208D01*
X146917998Y-109593208D01*
X146699324Y-109612339D01*
X146699318Y-109612340D01*
X146487293Y-109669153D01*
X146381612Y-109718433D01*
X146333822Y-109720520D01*
X146311005Y-109705983D01*
X141418211Y-104813189D01*
X136502747Y-99897724D01*
X136415754Y-99847499D01*
X136415753Y-99847498D01*
X136415752Y-99847498D01*
X136318729Y-99821500D01*
X136318725Y-99821500D01*
X122357910Y-99821500D01*
X122313716Y-99803194D01*
X121550716Y-99040194D01*
X121532410Y-98996000D01*
X121550716Y-98951806D01*
X121594910Y-98933500D01*
X136973589Y-98933500D01*
X137017783Y-98951806D01*
G37*
%TD.AperFunction*%
%TA.AperFunction,Conductor*%
G36*
X135493783Y-94887806D02*
G01*
X150851483Y-110245506D01*
X150869789Y-110289700D01*
X150863933Y-110316113D01*
X150814653Y-110421793D01*
X150788370Y-110519883D01*
X150759250Y-110557833D01*
X150711823Y-110564076D01*
X150673873Y-110534956D01*
X150667630Y-110519883D01*
X150641349Y-110421804D01*
X150641348Y-110421802D01*
X150641347Y-110421797D01*
X150573571Y-110276450D01*
X150548581Y-110222857D01*
X150548579Y-110222855D01*
X150548579Y-110222854D01*
X150422674Y-110043043D01*
X150422673Y-110043041D01*
X150267458Y-109887826D01*
X150148841Y-109804770D01*
X150087646Y-109761921D01*
X150087644Y-109761920D01*
X150087642Y-109761918D01*
X149888708Y-109669155D01*
X149888695Y-109669150D01*
X149676681Y-109612340D01*
X149676675Y-109612339D01*
X149458002Y-109593208D01*
X149457998Y-109593208D01*
X149239324Y-109612339D01*
X149239318Y-109612340D01*
X149027293Y-109669153D01*
X148921613Y-109718433D01*
X148873824Y-109720520D01*
X148851006Y-109705983D01*
X137391752Y-98246728D01*
X137391746Y-98246723D01*
X137365029Y-98231298D01*
X137365029Y-98231297D01*
X137304756Y-98196500D01*
X137304751Y-98196498D01*
X137207729Y-98170500D01*
X137207725Y-98170500D01*
X121635534Y-98170500D01*
X121591340Y-98152194D01*
X121573034Y-98108000D01*
X121591340Y-98063806D01*
X121600811Y-98056033D01*
X121600831Y-98056020D01*
X121688764Y-97997264D01*
X121749545Y-97906300D01*
X121765500Y-97826088D01*
X121765500Y-96242912D01*
X121749545Y-96162700D01*
X121749544Y-96162698D01*
X121698033Y-96085607D01*
X121687500Y-96050884D01*
X121687500Y-95666910D01*
X121705806Y-95622716D01*
X122440716Y-94887806D01*
X122484910Y-94869500D01*
X135449589Y-94869500D01*
X135493783Y-94887806D01*
G37*
%TD.AperFunction*%
%TA.AperFunction,Conductor*%
G36*
X136509783Y-93363806D02*
G01*
X153391483Y-110245505D01*
X153409789Y-110289699D01*
X153403933Y-110316112D01*
X153354653Y-110421793D01*
X153328370Y-110519883D01*
X153299250Y-110557833D01*
X153251823Y-110564076D01*
X153213873Y-110534956D01*
X153207630Y-110519883D01*
X153181349Y-110421804D01*
X153181348Y-110421802D01*
X153181347Y-110421797D01*
X153113571Y-110276450D01*
X153088581Y-110222857D01*
X153088579Y-110222855D01*
X153088579Y-110222854D01*
X152962674Y-110043043D01*
X152962673Y-110043041D01*
X152807458Y-109887826D01*
X152688841Y-109804770D01*
X152627646Y-109761921D01*
X152627644Y-109761920D01*
X152627642Y-109761918D01*
X152428708Y-109669155D01*
X152428695Y-109669150D01*
X152216681Y-109612340D01*
X152216675Y-109612339D01*
X151998002Y-109593208D01*
X151997998Y-109593208D01*
X151779324Y-109612339D01*
X151779318Y-109612340D01*
X151567293Y-109669153D01*
X151461613Y-109718433D01*
X151413824Y-109720520D01*
X151391006Y-109705983D01*
X135867747Y-94182724D01*
X135836573Y-94164726D01*
X135780754Y-94132499D01*
X135780751Y-94132498D01*
X135683729Y-94106500D01*
X135683725Y-94106500D01*
X122250775Y-94106500D01*
X122250770Y-94106500D01*
X122153748Y-94132498D01*
X122153746Y-94132498D01*
X122066751Y-94182725D01*
X121995722Y-94253755D01*
X121062962Y-95186514D01*
X121062961Y-95186514D01*
X121062962Y-95186515D01*
X121000724Y-95248753D01*
X120950498Y-95335746D01*
X120950498Y-95335748D01*
X120924500Y-95432770D01*
X120924500Y-95932500D01*
X120906194Y-95976694D01*
X120862000Y-95995000D01*
X120444412Y-95995000D01*
X120364201Y-96010954D01*
X120358513Y-96013311D01*
X120357771Y-96011520D01*
X120318798Y-96019267D01*
X120303623Y-96012981D01*
X120303487Y-96013311D01*
X120297798Y-96010954D01*
X120217588Y-95995000D01*
X119800000Y-95995000D01*
X119755806Y-95976694D01*
X119737500Y-95932500D01*
X119737500Y-95203911D01*
X119755806Y-95159717D01*
X121551717Y-93363806D01*
X121595911Y-93345500D01*
X136465589Y-93345500D01*
X136509783Y-93363806D01*
G37*
%TD.AperFunction*%
%TA.AperFunction,Conductor*%
G36*
X117108374Y-103796020D02*
G01*
X117108512Y-103795689D01*
X117114200Y-103798045D01*
X117194412Y-103814000D01*
X117612000Y-103814000D01*
X117656194Y-103832306D01*
X117674500Y-103876500D01*
X117674500Y-104264089D01*
X117656194Y-104308283D01*
X117335283Y-104629194D01*
X117291089Y-104647500D01*
X116781000Y-104647500D01*
X116736806Y-104629194D01*
X116718500Y-104585000D01*
X116718500Y-104449805D01*
X116714248Y-104403034D01*
X116714247Y-104403030D01*
X116714247Y-104403025D01*
X116710184Y-104380859D01*
X116710182Y-104380852D01*
X116709927Y-104379460D01*
X116709982Y-104379449D01*
X116709229Y-104375161D01*
X116697012Y-104274528D01*
X116697012Y-104259467D01*
X116709229Y-104158837D01*
X116709986Y-104154524D01*
X116709934Y-104154515D01*
X116714250Y-104130960D01*
X116714250Y-104130957D01*
X116714251Y-104130952D01*
X116718500Y-104084187D01*
X116718500Y-103876500D01*
X116736806Y-103832306D01*
X116781000Y-103814000D01*
X116967588Y-103814000D01*
X117047800Y-103798045D01*
X117047801Y-103798043D01*
X117053488Y-103795689D01*
X117054230Y-103797482D01*
X117093183Y-103789728D01*
X117108374Y-103796020D01*
G37*
%TD.AperFunction*%
%TA.AperFunction,Conductor*%
G36*
X127922127Y-85770043D02*
G01*
X127928370Y-85785116D01*
X127954653Y-85883204D01*
X128003933Y-85988885D01*
X128006020Y-86036675D01*
X127991483Y-86059493D01*
X124861783Y-89189194D01*
X124817589Y-89207500D01*
X115719770Y-89207500D01*
X115622748Y-89233498D01*
X115622746Y-89233498D01*
X115552861Y-89273847D01*
X115535752Y-89283724D01*
X112251725Y-92567751D01*
X112201498Y-92654746D01*
X112201498Y-92654748D01*
X112175500Y-92751770D01*
X112175500Y-99095089D01*
X112157194Y-99139283D01*
X108445283Y-102851194D01*
X108401089Y-102869500D01*
X105339910Y-102869500D01*
X105295716Y-102851194D01*
X104454022Y-102009500D01*
X103594247Y-101149724D01*
X103526225Y-101110452D01*
X103526225Y-101110451D01*
X103526223Y-101110451D01*
X103507255Y-101099499D01*
X103410229Y-101073500D01*
X103410225Y-101073500D01*
X103254438Y-101073500D01*
X103210244Y-101055194D01*
X103128723Y-100973674D01*
X103014555Y-100915502D01*
X102919835Y-100900500D01*
X102919834Y-100900500D01*
X101206166Y-100900500D01*
X101206164Y-100900500D01*
X101111444Y-100915502D01*
X101111443Y-100915502D01*
X100997276Y-100973674D01*
X100906674Y-101064276D01*
X100848502Y-101178443D01*
X100848502Y-101178444D01*
X100833500Y-101273164D01*
X100833500Y-101636835D01*
X100848502Y-101731555D01*
X100848502Y-101731556D01*
X100905955Y-101844312D01*
X100906674Y-101845723D01*
X100997277Y-101936326D01*
X101111445Y-101994498D01*
X101206166Y-102009500D01*
X101206168Y-102009500D01*
X102919832Y-102009500D01*
X102919834Y-102009500D01*
X103014555Y-101994498D01*
X103128723Y-101936326D01*
X103171070Y-101893977D01*
X103215262Y-101875673D01*
X103259455Y-101893977D01*
X103259457Y-101893979D01*
X104631284Y-103265806D01*
X104649590Y-103310000D01*
X104631284Y-103354194D01*
X104587090Y-103372500D01*
X97604000Y-103372500D01*
X97559806Y-103354194D01*
X97541500Y-103310000D01*
X97541500Y-101592898D01*
X97531631Y-101532000D01*
X97528220Y-101510948D01*
X97515754Y-101473494D01*
X97511398Y-101465166D01*
X97508224Y-101458048D01*
X97487683Y-101402977D01*
X97472229Y-101361545D01*
X97468647Y-101346375D01*
X97468354Y-101343645D01*
X97468000Y-101337001D01*
X97468000Y-100599995D01*
X97468356Y-100593337D01*
X97468377Y-100593140D01*
X97468647Y-100590623D01*
X97472229Y-100575454D01*
X97508230Y-100478934D01*
X97511408Y-100471810D01*
X97515754Y-100463503D01*
X97515756Y-100463500D01*
X97528221Y-100426047D01*
X97541500Y-100344100D01*
X97541500Y-99890000D01*
X97559806Y-99845806D01*
X97604000Y-99827500D01*
X103061500Y-99827500D01*
X103061501Y-99827500D01*
X103160807Y-99807746D01*
X103205001Y-99789440D01*
X103289187Y-99733189D01*
X103345440Y-99649001D01*
X103362578Y-99607626D01*
X103363626Y-99605409D01*
X103363746Y-99604807D01*
X103363747Y-99604806D01*
X103383500Y-99505500D01*
X103383500Y-98866911D01*
X103401806Y-98822717D01*
X103446000Y-98804411D01*
X103490194Y-98822717D01*
X104502194Y-99834717D01*
X104520500Y-99878911D01*
X104520500Y-101047965D01*
X104546498Y-101144987D01*
X104546500Y-101144993D01*
X104565813Y-101178445D01*
X104596721Y-101231979D01*
X104596728Y-101231988D01*
X105704800Y-102340058D01*
X105704805Y-102340064D01*
X105706987Y-102342246D01*
X105706988Y-102342247D01*
X105778017Y-102413276D01*
X105865010Y-102463501D01*
X105907790Y-102474964D01*
X105962034Y-102489499D01*
X105962037Y-102489499D01*
X105962039Y-102489500D01*
X105962040Y-102489500D01*
X108127224Y-102489500D01*
X108127225Y-102489500D01*
X108224254Y-102463501D01*
X108311247Y-102413276D01*
X108382276Y-102342247D01*
X108382276Y-102342246D01*
X110846100Y-99878420D01*
X110846105Y-99878417D01*
X110851245Y-99873276D01*
X110851247Y-99873276D01*
X110922276Y-99802247D01*
X110972501Y-99715254D01*
X110998500Y-99618225D01*
X110998500Y-92385911D01*
X111016806Y-92341717D01*
X115074717Y-88283806D01*
X115118911Y-88265500D01*
X124216724Y-88265500D01*
X124216725Y-88265500D01*
X124313754Y-88239501D01*
X124400747Y-88189276D01*
X124471776Y-88118247D01*
X124471776Y-88118246D01*
X125991006Y-86599014D01*
X126035199Y-86580709D01*
X126061608Y-86586564D01*
X126167297Y-86635847D01*
X126167302Y-86635848D01*
X126167304Y-86635849D01*
X126379318Y-86692659D01*
X126379319Y-86692659D01*
X126379326Y-86692661D01*
X126559736Y-86708444D01*
X126597998Y-86711792D01*
X126598000Y-86711792D01*
X126598002Y-86711792D01*
X126633185Y-86708713D01*
X126816674Y-86692661D01*
X127028703Y-86635847D01*
X127227646Y-86543079D01*
X127407457Y-86417174D01*
X127562674Y-86261957D01*
X127688579Y-86082146D01*
X127781347Y-85883203D01*
X127807630Y-85785116D01*
X127836750Y-85747166D01*
X127884177Y-85740923D01*
X127922127Y-85770043D01*
G37*
%TD.AperFunction*%
%TA.AperFunction,Conductor*%
G36*
X80503194Y-69531263D02*
G01*
X80509563Y-69538720D01*
X80583534Y-69640532D01*
X80583541Y-69640540D01*
X80706459Y-69763458D01*
X80706467Y-69763465D01*
X80847116Y-69865653D01*
X81002019Y-69944580D01*
X81167362Y-69998303D01*
X81339074Y-70025500D01*
X81339076Y-70025500D01*
X81762924Y-70025500D01*
X81762926Y-70025500D01*
X81934638Y-69998303D01*
X82014553Y-69972336D01*
X82062240Y-69976089D01*
X82078060Y-69987583D01*
X93223724Y-81133247D01*
X93294753Y-81204276D01*
X93381746Y-81254501D01*
X93424526Y-81265964D01*
X93478770Y-81280499D01*
X93478773Y-81280499D01*
X93478775Y-81280500D01*
X102294000Y-81280500D01*
X102338194Y-81298806D01*
X102356500Y-81343000D01*
X102356500Y-86805150D01*
X102356501Y-86805752D01*
X102356502Y-86806227D01*
X102356505Y-86807135D01*
X102376887Y-86906319D01*
X102395472Y-86950395D01*
X102395475Y-86950400D01*
X102452255Y-87034225D01*
X102452256Y-87034225D01*
X102452257Y-87034227D01*
X102536799Y-87089946D01*
X102581109Y-87107972D01*
X102680538Y-87127096D01*
X111999816Y-87068113D01*
X112066132Y-87059061D01*
X112096985Y-87050689D01*
X112158773Y-87024982D01*
X112169428Y-87015637D01*
X112214723Y-87000261D01*
X112257626Y-87021417D01*
X112260215Y-87024572D01*
X112276753Y-87046124D01*
X112434376Y-87203747D01*
X112611226Y-87339448D01*
X112804274Y-87450905D01*
X113010219Y-87536210D01*
X113225537Y-87593904D01*
X113446543Y-87623000D01*
X113446549Y-87623000D01*
X113669451Y-87623000D01*
X113669457Y-87623000D01*
X113890463Y-87593904D01*
X114105781Y-87536210D01*
X114311726Y-87450905D01*
X114504774Y-87339448D01*
X114681624Y-87203747D01*
X114839247Y-87046124D01*
X114871613Y-87003943D01*
X114913038Y-86980026D01*
X114955589Y-86989804D01*
X114987963Y-87011141D01*
X115032273Y-87029167D01*
X115131702Y-87048291D01*
X122621538Y-87000888D01*
X122719964Y-86980823D01*
X122763762Y-86962518D01*
X122847187Y-86906583D01*
X122903440Y-86822395D01*
X122920578Y-86781020D01*
X122921626Y-86778803D01*
X122921746Y-86778201D01*
X122921747Y-86778200D01*
X122941500Y-86678894D01*
X122941500Y-81342999D01*
X122959806Y-81298806D01*
X123004000Y-81280500D01*
X129480589Y-81280500D01*
X129524783Y-81298806D01*
X133071483Y-84845505D01*
X133089789Y-84889699D01*
X133083933Y-84916112D01*
X133034653Y-85021793D01*
X133008370Y-85119883D01*
X132979250Y-85157833D01*
X132931823Y-85164076D01*
X132893873Y-85134956D01*
X132887630Y-85119883D01*
X132861349Y-85021804D01*
X132861348Y-85021802D01*
X132861347Y-85021797D01*
X132779142Y-84845506D01*
X132768581Y-84822857D01*
X132768579Y-84822855D01*
X132768579Y-84822854D01*
X132642674Y-84643043D01*
X132642673Y-84643041D01*
X132487458Y-84487826D01*
X132373061Y-84407725D01*
X132307646Y-84361921D01*
X132307644Y-84361920D01*
X132307642Y-84361918D01*
X132108708Y-84269155D01*
X132108695Y-84269150D01*
X131896681Y-84212340D01*
X131896675Y-84212339D01*
X131678002Y-84193208D01*
X131677998Y-84193208D01*
X131459324Y-84212339D01*
X131459318Y-84212340D01*
X131247304Y-84269150D01*
X131247291Y-84269155D01*
X131048357Y-84361918D01*
X131048355Y-84361920D01*
X130868541Y-84487826D01*
X130713326Y-84643041D01*
X130587420Y-84822855D01*
X130587418Y-84822857D01*
X130494655Y-85021791D01*
X130494650Y-85021804D01*
X130468370Y-85119883D01*
X130439250Y-85157833D01*
X130391823Y-85164076D01*
X130353873Y-85134956D01*
X130347630Y-85119883D01*
X130321349Y-85021804D01*
X130321348Y-85021802D01*
X130321347Y-85021797D01*
X130239142Y-84845506D01*
X130228581Y-84822857D01*
X130228579Y-84822855D01*
X130228579Y-84822854D01*
X130102674Y-84643043D01*
X130102673Y-84643041D01*
X129947458Y-84487826D01*
X129833061Y-84407725D01*
X129767646Y-84361921D01*
X129767644Y-84361920D01*
X129767642Y-84361918D01*
X129568708Y-84269155D01*
X129568695Y-84269150D01*
X129356681Y-84212340D01*
X129356675Y-84212339D01*
X129138002Y-84193208D01*
X129137998Y-84193208D01*
X128919324Y-84212339D01*
X128919318Y-84212340D01*
X128707304Y-84269150D01*
X128707291Y-84269155D01*
X128508357Y-84361918D01*
X128508355Y-84361920D01*
X128328541Y-84487826D01*
X128173326Y-84643041D01*
X128047420Y-84822855D01*
X128047418Y-84822857D01*
X127954655Y-85021791D01*
X127954650Y-85021804D01*
X127928370Y-85119883D01*
X127899250Y-85157833D01*
X127851823Y-85164076D01*
X127813873Y-85134956D01*
X127807630Y-85119883D01*
X127781349Y-85021804D01*
X127781348Y-85021802D01*
X127781347Y-85021797D01*
X127699142Y-84845506D01*
X127688581Y-84822857D01*
X127688579Y-84822855D01*
X127688579Y-84822854D01*
X127562674Y-84643043D01*
X127562673Y-84643041D01*
X127407458Y-84487826D01*
X127293061Y-84407725D01*
X127227646Y-84361921D01*
X127227644Y-84361920D01*
X127227642Y-84361918D01*
X127028708Y-84269155D01*
X127028695Y-84269150D01*
X126816681Y-84212340D01*
X126816675Y-84212339D01*
X126598002Y-84193208D01*
X126597998Y-84193208D01*
X126379324Y-84212339D01*
X126379318Y-84212340D01*
X126167304Y-84269150D01*
X126167291Y-84269155D01*
X125968357Y-84361918D01*
X125968355Y-84361920D01*
X125788541Y-84487826D01*
X125633326Y-84643041D01*
X125507420Y-84822855D01*
X125507418Y-84822857D01*
X125414655Y-85021791D01*
X125414650Y-85021804D01*
X125357840Y-85233818D01*
X125357839Y-85233824D01*
X125338708Y-85452497D01*
X125338708Y-85452502D01*
X125357839Y-85671175D01*
X125357840Y-85671181D01*
X125414653Y-85883204D01*
X125463933Y-85988885D01*
X125466020Y-86036675D01*
X125451483Y-86059493D01*
X124026783Y-87484194D01*
X123982589Y-87502500D01*
X114884770Y-87502500D01*
X114787748Y-87528498D01*
X114787746Y-87528498D01*
X114700751Y-87578725D01*
X110311725Y-91967751D01*
X110261498Y-92054746D01*
X110261498Y-92054748D01*
X110235500Y-92151770D01*
X110235500Y-99384089D01*
X110217194Y-99428283D01*
X108346985Y-101298491D01*
X108302791Y-101316797D01*
X108258597Y-101298491D01*
X108241061Y-101264074D01*
X108227499Y-101178450D01*
X108227497Y-101178443D01*
X108210450Y-101144987D01*
X108169326Y-101064277D01*
X108078723Y-100973674D01*
X107964555Y-100915502D01*
X107911001Y-100907020D01*
X107869835Y-100900500D01*
X107869834Y-100900500D01*
X106156166Y-100900500D01*
X106156164Y-100900500D01*
X106061444Y-100915502D01*
X106061443Y-100915502D01*
X105947276Y-100973674D01*
X105856674Y-101064276D01*
X105798502Y-101178443D01*
X105798500Y-101178450D01*
X105793589Y-101209461D01*
X105768595Y-101250248D01*
X105722082Y-101261414D01*
X105687665Y-101243878D01*
X105301806Y-100858019D01*
X105283500Y-100813825D01*
X105283500Y-99902175D01*
X105301806Y-99857981D01*
X105346000Y-99839675D01*
X105390194Y-99857981D01*
X105765194Y-100232981D01*
X105783500Y-100277175D01*
X105783500Y-100366835D01*
X105798502Y-100461555D01*
X105798502Y-100461556D01*
X105847899Y-100558502D01*
X105856674Y-100575723D01*
X105947277Y-100666326D01*
X106061445Y-100724498D01*
X106156166Y-100739500D01*
X106156168Y-100739500D01*
X107869832Y-100739500D01*
X107869834Y-100739500D01*
X107964555Y-100724498D01*
X108078723Y-100666326D01*
X108169326Y-100575723D01*
X108227498Y-100461555D01*
X108242500Y-100366834D01*
X108242500Y-100003166D01*
X108227498Y-99908445D01*
X108169326Y-99794277D01*
X108078723Y-99703674D01*
X107964555Y-99645502D01*
X107869835Y-99630500D01*
X107869834Y-99630500D01*
X106267647Y-99630500D01*
X106223453Y-99612194D01*
X106187453Y-99576194D01*
X106169147Y-99532000D01*
X106187453Y-99487806D01*
X106231647Y-99469500D01*
X107869832Y-99469500D01*
X107869834Y-99469500D01*
X107964555Y-99454498D01*
X108078723Y-99396326D01*
X108169326Y-99305723D01*
X108227498Y-99191555D01*
X108242500Y-99096834D01*
X108242500Y-98733166D01*
X108227498Y-98638445D01*
X108169326Y-98524277D01*
X108078723Y-98433674D01*
X107964555Y-98375502D01*
X107869835Y-98360500D01*
X107869834Y-98360500D01*
X106545911Y-98360500D01*
X106501717Y-98342194D01*
X106465717Y-98306194D01*
X106447411Y-98262000D01*
X106465717Y-98217806D01*
X106509911Y-98199500D01*
X107869832Y-98199500D01*
X107869834Y-98199500D01*
X107964555Y-98184498D01*
X107984546Y-98174312D01*
X108012023Y-98160312D01*
X108040397Y-98153500D01*
X108291944Y-98153500D01*
X108291945Y-98153500D01*
X108421274Y-98118847D01*
X108537227Y-98051901D01*
X109376901Y-97212227D01*
X109443847Y-97096274D01*
X109478500Y-96966945D01*
X109478500Y-96833055D01*
X109478500Y-95173055D01*
X109443847Y-95043726D01*
X109443846Y-95043723D01*
X109376901Y-94927774D01*
X109376896Y-94927768D01*
X109282226Y-94833099D01*
X108403232Y-93954103D01*
X108403223Y-93954096D01*
X108287279Y-93887155D01*
X108287270Y-93887151D01*
X108157951Y-93852501D01*
X108157946Y-93852500D01*
X108157945Y-93852500D01*
X108157944Y-93852500D01*
X103814722Y-93852500D01*
X103773277Y-93836782D01*
X103770356Y-93834194D01*
X103752529Y-93818401D01*
X103752527Y-93818400D01*
X103752528Y-93818400D01*
X103611794Y-93744537D01*
X103457474Y-93706500D01*
X103457471Y-93706500D01*
X103298529Y-93706500D01*
X103298525Y-93706500D01*
X103144205Y-93744537D01*
X103003470Y-93818400D01*
X103003468Y-93818402D01*
X102884503Y-93923797D01*
X102884499Y-93923801D01*
X102794212Y-94054605D01*
X102737851Y-94203214D01*
X102737849Y-94203225D01*
X102718693Y-94360996D01*
X102718693Y-94361005D01*
X102724248Y-94406761D01*
X102711402Y-94452839D01*
X102669736Y-94476337D01*
X102623658Y-94463491D01*
X102618010Y-94458487D01*
X100564248Y-92404725D01*
X100564247Y-92404724D01*
X100477254Y-92354499D01*
X100477253Y-92354498D01*
X100477252Y-92354498D01*
X100380229Y-92328500D01*
X100380225Y-92328500D01*
X91751410Y-92328500D01*
X91707216Y-92310194D01*
X90267583Y-90870560D01*
X90249277Y-90826366D01*
X90252335Y-90807056D01*
X90278303Y-90727138D01*
X90305500Y-90555426D01*
X90305500Y-90131574D01*
X90278303Y-89959862D01*
X90224580Y-89794519D01*
X90145653Y-89639616D01*
X90043465Y-89498967D01*
X90043458Y-89498959D01*
X89920540Y-89376041D01*
X89920532Y-89376034D01*
X89779884Y-89273847D01*
X89624987Y-89194923D01*
X89624979Y-89194919D01*
X89459636Y-89141196D01*
X89459637Y-89141196D01*
X89287937Y-89114001D01*
X89287927Y-89114000D01*
X89287926Y-89114000D01*
X89114074Y-89114000D01*
X89114072Y-89114000D01*
X89114062Y-89114001D01*
X88942362Y-89141196D01*
X88777020Y-89194919D01*
X88777012Y-89194923D01*
X88622116Y-89273847D01*
X88481467Y-89376034D01*
X88481459Y-89376041D01*
X88358541Y-89498959D01*
X88358534Y-89498967D01*
X88256348Y-89639613D01*
X88177423Y-89794512D01*
X88177419Y-89794520D01*
X88123696Y-89959862D01*
X88096501Y-90131562D01*
X88096500Y-90131576D01*
X88096500Y-90555423D01*
X88096501Y-90555437D01*
X88123696Y-90727137D01*
X88177419Y-90892479D01*
X88177423Y-90892487D01*
X88256348Y-91047386D01*
X88358534Y-91188032D01*
X88358541Y-91188040D01*
X88481459Y-91310958D01*
X88481467Y-91310965D01*
X88622116Y-91413153D01*
X88777019Y-91492080D01*
X88942362Y-91545803D01*
X89114074Y-91573000D01*
X89114076Y-91573000D01*
X89287924Y-91573000D01*
X89287926Y-91573000D01*
X89459638Y-91545803D01*
X89624981Y-91492080D01*
X89707127Y-91450223D01*
X89754814Y-91446471D01*
X89779695Y-91461718D01*
X91260036Y-92942058D01*
X91260041Y-92942064D01*
X91262224Y-92944247D01*
X91333253Y-93015276D01*
X91420246Y-93065501D01*
X91463026Y-93076964D01*
X91517270Y-93091499D01*
X91517273Y-93091499D01*
X91517275Y-93091500D01*
X91617725Y-93091500D01*
X100146089Y-93091500D01*
X100190283Y-93109806D01*
X105765325Y-98684848D01*
X105783631Y-98729042D01*
X105783500Y-98732379D01*
X105783500Y-99021353D01*
X105765194Y-99065547D01*
X105721000Y-99083853D01*
X105676806Y-99065547D01*
X100539984Y-93928725D01*
X100539983Y-93928724D01*
X100452990Y-93878499D01*
X100452989Y-93878498D01*
X100452988Y-93878498D01*
X100355965Y-93852500D01*
X100355961Y-93852500D01*
X90775411Y-93852500D01*
X90731217Y-93834194D01*
X87767583Y-90870560D01*
X87749277Y-90826366D01*
X87752335Y-90807056D01*
X87778303Y-90727138D01*
X87805500Y-90555426D01*
X87805500Y-90131574D01*
X87778303Y-89959862D01*
X87724580Y-89794519D01*
X87645653Y-89639616D01*
X87543465Y-89498967D01*
X87543458Y-89498959D01*
X87420540Y-89376041D01*
X87420532Y-89376034D01*
X87279884Y-89273847D01*
X87124987Y-89194923D01*
X87124979Y-89194919D01*
X86959636Y-89141196D01*
X86959637Y-89141196D01*
X86787937Y-89114001D01*
X86787927Y-89114000D01*
X86787926Y-89114000D01*
X86614074Y-89114000D01*
X86614072Y-89114000D01*
X86614062Y-89114001D01*
X86442362Y-89141196D01*
X86277020Y-89194919D01*
X86277012Y-89194923D01*
X86122116Y-89273847D01*
X85981467Y-89376034D01*
X85981459Y-89376041D01*
X85858541Y-89498959D01*
X85858534Y-89498967D01*
X85756348Y-89639613D01*
X85677423Y-89794512D01*
X85677419Y-89794520D01*
X85623696Y-89959862D01*
X85596501Y-90131562D01*
X85596500Y-90131576D01*
X85596500Y-90555423D01*
X85596501Y-90555437D01*
X85623696Y-90727137D01*
X85677419Y-90892479D01*
X85677423Y-90892487D01*
X85756348Y-91047386D01*
X85858534Y-91188032D01*
X85858541Y-91188040D01*
X85981459Y-91310958D01*
X85981467Y-91310965D01*
X86122116Y-91413153D01*
X86277019Y-91492080D01*
X86442362Y-91545803D01*
X86614074Y-91573000D01*
X86614076Y-91573000D01*
X86787924Y-91573000D01*
X86787926Y-91573000D01*
X86959638Y-91545803D01*
X87124981Y-91492080D01*
X87207127Y-91450223D01*
X87254814Y-91446471D01*
X87279695Y-91461718D01*
X90357247Y-94539271D01*
X90357251Y-94539274D01*
X90357253Y-94539276D01*
X90441685Y-94588023D01*
X90444247Y-94589502D01*
X90444250Y-94589503D01*
X90503619Y-94605410D01*
X90541275Y-94615500D01*
X90641725Y-94615500D01*
X100121825Y-94615500D01*
X100166019Y-94633806D01*
X102516019Y-96983806D01*
X102534325Y-97028000D01*
X102516019Y-97072194D01*
X102471825Y-97090500D01*
X101206164Y-97090500D01*
X101111444Y-97105502D01*
X101111443Y-97105502D01*
X100997276Y-97163674D01*
X100906674Y-97254276D01*
X100848502Y-97368443D01*
X100848502Y-97368444D01*
X100833500Y-97463164D01*
X100833500Y-97826835D01*
X100848502Y-97921555D01*
X100848502Y-97921556D01*
X100906674Y-98035723D01*
X100997277Y-98126326D01*
X101091454Y-98174312D01*
X101122521Y-98210687D01*
X101118768Y-98258374D01*
X101082393Y-98289441D01*
X101063080Y-98292500D01*
X99382000Y-98292500D01*
X99337806Y-98274194D01*
X99319500Y-98230000D01*
X99319500Y-96074499D01*
X99299746Y-95975193D01*
X99281440Y-95930999D01*
X99225189Y-95846813D01*
X99225186Y-95846810D01*
X99141002Y-95790561D01*
X99140998Y-95790558D01*
X99099649Y-95773431D01*
X99097414Y-95772374D01*
X98997500Y-95752500D01*
X83126000Y-95752500D01*
X83081806Y-95734194D01*
X83063500Y-95690000D01*
X83063500Y-72198499D01*
X83043746Y-72099193D01*
X83025440Y-72054999D01*
X82969189Y-71970813D01*
X82969186Y-71970810D01*
X82885002Y-71914561D01*
X82884998Y-71914558D01*
X82843649Y-71897431D01*
X82841414Y-71896374D01*
X82741500Y-71876500D01*
X80459000Y-71876500D01*
X80414806Y-71858194D01*
X80396500Y-71814000D01*
X80396500Y-69575457D01*
X80414806Y-69531263D01*
X80459000Y-69512957D01*
X80503194Y-69531263D01*
G37*
%TD.AperFunction*%
%TA.AperFunction,Conductor*%
G36*
X130462127Y-85770043D02*
G01*
X130468370Y-85785116D01*
X130494650Y-85883195D01*
X130494655Y-85883208D01*
X130543933Y-85988885D01*
X130546020Y-86036674D01*
X130531483Y-86059492D01*
X125677783Y-90913194D01*
X125633589Y-90931500D01*
X120577066Y-90931500D01*
X120577050Y-90931499D01*
X120573225Y-90931499D01*
X120472775Y-90931499D01*
X120472770Y-90931499D01*
X120375749Y-90957497D01*
X120375747Y-90957497D01*
X120288751Y-91007725D01*
X120288747Y-91007728D01*
X117171753Y-94124724D01*
X117100725Y-94195751D01*
X117050498Y-94282746D01*
X117050498Y-94282748D01*
X117024500Y-94379770D01*
X117024500Y-95932500D01*
X117006194Y-95976694D01*
X116962000Y-95995000D01*
X116624000Y-95995000D01*
X116579806Y-95976694D01*
X116561500Y-95932500D01*
X116561500Y-94470748D01*
X116579806Y-94426554D01*
X116602157Y-94412189D01*
X116698267Y-94376342D01*
X116814404Y-94289404D01*
X116901342Y-94173267D01*
X116952040Y-94037342D01*
X116958500Y-93977255D01*
X116958499Y-92930746D01*
X116952040Y-92870658D01*
X116901342Y-92734733D01*
X116814404Y-92618596D01*
X116698267Y-92531658D01*
X116698265Y-92531657D01*
X116698263Y-92531656D01*
X116562343Y-92480960D01*
X116502255Y-92474500D01*
X115730753Y-92474500D01*
X115730736Y-92474501D01*
X115670656Y-92480960D01*
X115534736Y-92531656D01*
X115534731Y-92531659D01*
X115418596Y-92618596D01*
X115331659Y-92734731D01*
X115331656Y-92734736D01*
X115280960Y-92870656D01*
X115274500Y-92930737D01*
X115274500Y-93977246D01*
X115274501Y-93977263D01*
X115280960Y-94037343D01*
X115331656Y-94173263D01*
X115331657Y-94173265D01*
X115331658Y-94173267D01*
X115418596Y-94289404D01*
X115534733Y-94376342D01*
X115534734Y-94376342D01*
X115534735Y-94376343D01*
X115543937Y-94379775D01*
X115630842Y-94412189D01*
X115665852Y-94444785D01*
X115671500Y-94470748D01*
X115671500Y-95932500D01*
X115653194Y-95976694D01*
X115609000Y-95995000D01*
X115244412Y-95995000D01*
X115164200Y-96010954D01*
X115164198Y-96010955D01*
X115073235Y-96071735D01*
X115012455Y-96162698D01*
X115012454Y-96162700D01*
X114996500Y-96242911D01*
X114996500Y-97826088D01*
X115012257Y-97905307D01*
X115002925Y-97952223D01*
X114963151Y-97978799D01*
X114950958Y-97980000D01*
X113792398Y-97980000D01*
X113750953Y-97964282D01*
X113658528Y-97882400D01*
X113517794Y-97808537D01*
X113363474Y-97770500D01*
X113363471Y-97770500D01*
X113204529Y-97770500D01*
X113204525Y-97770500D01*
X113050203Y-97808537D01*
X113050202Y-97808538D01*
X113030044Y-97819118D01*
X112982405Y-97823447D01*
X112945659Y-97792821D01*
X112938500Y-97763777D01*
X112938500Y-92985911D01*
X112956806Y-92941717D01*
X115909717Y-89988806D01*
X115953911Y-89970500D01*
X125051724Y-89970500D01*
X125051725Y-89970500D01*
X125148754Y-89944501D01*
X125235747Y-89894276D01*
X125306776Y-89823247D01*
X125306776Y-89823246D01*
X128531006Y-86599014D01*
X128575199Y-86580709D01*
X128601608Y-86586564D01*
X128707297Y-86635847D01*
X128707302Y-86635848D01*
X128707304Y-86635849D01*
X128919318Y-86692659D01*
X128919319Y-86692659D01*
X128919326Y-86692661D01*
X129099736Y-86708444D01*
X129137998Y-86711792D01*
X129138000Y-86711792D01*
X129138002Y-86711792D01*
X129173185Y-86708713D01*
X129356674Y-86692661D01*
X129568703Y-86635847D01*
X129767646Y-86543079D01*
X129947457Y-86417174D01*
X130102674Y-86261957D01*
X130228579Y-86082146D01*
X130321347Y-85883203D01*
X130347630Y-85785116D01*
X130376750Y-85747166D01*
X130424177Y-85740923D01*
X130462127Y-85770043D01*
G37*
%TD.AperFunction*%
%TA.AperFunction,Conductor*%
G36*
X107898678Y-94887806D02*
G01*
X108443194Y-95432321D01*
X108461500Y-95476515D01*
X108461500Y-96663483D01*
X108443194Y-96707677D01*
X108050200Y-97100670D01*
X108006006Y-97118976D01*
X107977634Y-97112165D01*
X107964560Y-97105504D01*
X107964555Y-97105502D01*
X107869835Y-97090500D01*
X107869834Y-97090500D01*
X106156166Y-97090500D01*
X106156164Y-97090500D01*
X106061444Y-97105502D01*
X106061443Y-97105502D01*
X105947276Y-97163674D01*
X105856674Y-97254276D01*
X105798502Y-97368443D01*
X105798502Y-97368444D01*
X105783500Y-97463164D01*
X105783500Y-97473089D01*
X105765194Y-97517283D01*
X105721000Y-97535589D01*
X105676806Y-97517283D01*
X103281717Y-95122194D01*
X103263411Y-95078000D01*
X103281717Y-95033806D01*
X103325911Y-95015500D01*
X103457471Y-95015500D01*
X103611793Y-94977463D01*
X103752529Y-94903599D01*
X103773277Y-94885218D01*
X103814722Y-94869500D01*
X107854484Y-94869500D01*
X107898678Y-94887806D01*
G37*
%TD.AperFunction*%
%TA.AperFunction,Conductor*%
G36*
X128000783Y-77234806D02*
G01*
X135611483Y-84845505D01*
X135629789Y-84889699D01*
X135623933Y-84916112D01*
X135574653Y-85021793D01*
X135548370Y-85119883D01*
X135519250Y-85157833D01*
X135471823Y-85164076D01*
X135433873Y-85134956D01*
X135427630Y-85119883D01*
X135401349Y-85021804D01*
X135401348Y-85021802D01*
X135401347Y-85021797D01*
X135319142Y-84845506D01*
X135308581Y-84822857D01*
X135308579Y-84822855D01*
X135308579Y-84822854D01*
X135182674Y-84643043D01*
X135182673Y-84643041D01*
X135027458Y-84487826D01*
X134913061Y-84407725D01*
X134847646Y-84361921D01*
X134847644Y-84361920D01*
X134847642Y-84361918D01*
X134648708Y-84269155D01*
X134648695Y-84269150D01*
X134436681Y-84212340D01*
X134436675Y-84212339D01*
X134218002Y-84193208D01*
X134217998Y-84193208D01*
X133999324Y-84212339D01*
X133999318Y-84212340D01*
X133787293Y-84269153D01*
X133681612Y-84318433D01*
X133633822Y-84320520D01*
X133611005Y-84305983D01*
X129898748Y-80593725D01*
X129898747Y-80593724D01*
X129811754Y-80543499D01*
X129811753Y-80543498D01*
X129811752Y-80543498D01*
X129714729Y-80517500D01*
X129714725Y-80517500D01*
X123004000Y-80517500D01*
X122959806Y-80499194D01*
X122941500Y-80455000D01*
X122941500Y-80326499D01*
X122921746Y-80227193D01*
X122903440Y-80182999D01*
X122847189Y-80098813D01*
X122847186Y-80098810D01*
X122763002Y-80042561D01*
X122762998Y-80042558D01*
X122721649Y-80025431D01*
X122719414Y-80024374D01*
X122619500Y-80004500D01*
X104334806Y-80004500D01*
X104290612Y-79986194D01*
X104272306Y-79942038D01*
X104272293Y-79921189D01*
X104270699Y-77279037D01*
X104288978Y-77234833D01*
X104333161Y-77216500D01*
X127956589Y-77216500D01*
X128000783Y-77234806D01*
G37*
%TD.AperFunction*%
%TA.AperFunction,Conductor*%
G36*
X104373300Y-70495822D02*
G01*
X104373328Y-70495850D01*
X109166536Y-75289058D01*
X109166541Y-75289064D01*
X109168724Y-75291247D01*
X109239753Y-75362276D01*
X109326746Y-75412501D01*
X109369526Y-75423964D01*
X109423770Y-75438499D01*
X109423773Y-75438499D01*
X109423775Y-75438500D01*
X109524225Y-75438500D01*
X128718589Y-75438500D01*
X128762783Y-75456806D01*
X138151483Y-84845506D01*
X138169789Y-84889700D01*
X138163933Y-84916113D01*
X138114653Y-85021793D01*
X138088370Y-85119883D01*
X138059250Y-85157833D01*
X138011823Y-85164076D01*
X137973873Y-85134956D01*
X137967630Y-85119883D01*
X137941349Y-85021804D01*
X137941348Y-85021802D01*
X137941347Y-85021797D01*
X137859142Y-84845506D01*
X137848581Y-84822857D01*
X137848579Y-84822855D01*
X137848579Y-84822854D01*
X137722674Y-84643043D01*
X137722673Y-84643041D01*
X137567458Y-84487826D01*
X137453061Y-84407725D01*
X137387646Y-84361921D01*
X137387644Y-84361920D01*
X137387642Y-84361918D01*
X137188708Y-84269155D01*
X137188695Y-84269150D01*
X136976681Y-84212340D01*
X136976675Y-84212339D01*
X136758002Y-84193208D01*
X136757998Y-84193208D01*
X136539324Y-84212339D01*
X136539318Y-84212340D01*
X136327293Y-84269153D01*
X136221612Y-84318433D01*
X136173822Y-84320520D01*
X136151005Y-84305983D01*
X128374748Y-76529725D01*
X128374747Y-76529724D01*
X128287754Y-76479499D01*
X128287753Y-76479498D01*
X128287752Y-76479498D01*
X128190729Y-76453500D01*
X128190725Y-76453500D01*
X104332664Y-76453500D01*
X104288470Y-76435194D01*
X104270164Y-76391038D01*
X104269500Y-75291247D01*
X104266634Y-70540081D01*
X104284913Y-70495876D01*
X104329096Y-70477544D01*
X104373300Y-70495822D01*
G37*
%TD.AperFunction*%
%TA.AperFunction,Conductor*%
G36*
X100941194Y-65428806D02*
G01*
X100959500Y-65473000D01*
X100959500Y-68477000D01*
X100941194Y-68521194D01*
X100897000Y-68539500D01*
X99829458Y-68539500D01*
X99785264Y-68521194D01*
X99771702Y-68499070D01*
X99771184Y-68499285D01*
X99770249Y-68497031D01*
X99770246Y-68497019D01*
X99691319Y-68342116D01*
X99681261Y-68328273D01*
X99589131Y-68201467D01*
X99589124Y-68201459D01*
X99466206Y-68078541D01*
X99466198Y-68078534D01*
X99325552Y-67976348D01*
X99170653Y-67897423D01*
X99170645Y-67897419D01*
X99005302Y-67843696D01*
X99005303Y-67843696D01*
X98833603Y-67816501D01*
X98833593Y-67816500D01*
X98833592Y-67816500D01*
X98409740Y-67816500D01*
X98409738Y-67816500D01*
X98409728Y-67816501D01*
X98238028Y-67843696D01*
X98072686Y-67897419D01*
X98072678Y-67897423D01*
X97917779Y-67976348D01*
X97777133Y-68078534D01*
X97777125Y-68078541D01*
X97654207Y-68201459D01*
X97654200Y-68201467D01*
X97552014Y-68342113D01*
X97473089Y-68497012D01*
X97473085Y-68497020D01*
X97419362Y-68662362D01*
X97392167Y-68834062D01*
X97392166Y-68834076D01*
X97392166Y-69007923D01*
X97392167Y-69007937D01*
X97419362Y-69179637D01*
X97473085Y-69344979D01*
X97473089Y-69344987D01*
X97552014Y-69499886D01*
X97654200Y-69640532D01*
X97654207Y-69640540D01*
X97777125Y-69763458D01*
X97777133Y-69763465D01*
X97917782Y-69865653D01*
X98072685Y-69944580D01*
X98238028Y-69998303D01*
X98409740Y-70025500D01*
X98409742Y-70025500D01*
X98833590Y-70025500D01*
X98833592Y-70025500D01*
X99005304Y-69998303D01*
X99170647Y-69944580D01*
X99325550Y-69865653D01*
X99466199Y-69763465D01*
X99589131Y-69640533D01*
X99691319Y-69499884D01*
X99770246Y-69344981D01*
X99770251Y-69344964D01*
X99771184Y-69342715D01*
X99772192Y-69343132D01*
X99801095Y-69309306D01*
X99829458Y-69302500D01*
X100897000Y-69302500D01*
X100941194Y-69320806D01*
X100959500Y-69365000D01*
X100959500Y-76391000D01*
X100941194Y-76435194D01*
X100897000Y-76453500D01*
X98184244Y-76453500D01*
X98140050Y-76435194D01*
X91204551Y-69499695D01*
X91186245Y-69455501D01*
X91193056Y-69427128D01*
X91234913Y-69344981D01*
X91288636Y-69179638D01*
X91315833Y-69007926D01*
X91315833Y-68834074D01*
X91288636Y-68662362D01*
X91234913Y-68497019D01*
X91155986Y-68342116D01*
X91145928Y-68328273D01*
X91053798Y-68201467D01*
X91053791Y-68201459D01*
X90930873Y-68078541D01*
X90930865Y-68078534D01*
X90790219Y-67976348D01*
X90635320Y-67897423D01*
X90635312Y-67897419D01*
X90469969Y-67843696D01*
X90469970Y-67843696D01*
X90298270Y-67816501D01*
X90298260Y-67816500D01*
X90298259Y-67816500D01*
X89874407Y-67816500D01*
X89874405Y-67816500D01*
X89874395Y-67816501D01*
X89702695Y-67843696D01*
X89537353Y-67897419D01*
X89537345Y-67897423D01*
X89382446Y-67976348D01*
X89241800Y-68078534D01*
X89241792Y-68078541D01*
X89118874Y-68201459D01*
X89118867Y-68201467D01*
X89016681Y-68342113D01*
X88937756Y-68497012D01*
X88937752Y-68497020D01*
X88884029Y-68662362D01*
X88856834Y-68834062D01*
X88856833Y-68834076D01*
X88856833Y-69007923D01*
X88856834Y-69007937D01*
X88884029Y-69179637D01*
X88937752Y-69344979D01*
X88937756Y-69344987D01*
X89016681Y-69499886D01*
X89118867Y-69640532D01*
X89118874Y-69640540D01*
X89241792Y-69763458D01*
X89241800Y-69763465D01*
X89382449Y-69865653D01*
X89537352Y-69944580D01*
X89702695Y-69998303D01*
X89874407Y-70025500D01*
X89874409Y-70025500D01*
X90298257Y-70025500D01*
X90298259Y-70025500D01*
X90469971Y-69998303D01*
X90549886Y-69972336D01*
X90597573Y-69976089D01*
X90613393Y-69987583D01*
X97695057Y-77069247D01*
X97766086Y-77140276D01*
X97853079Y-77190501D01*
X97895859Y-77201964D01*
X97950103Y-77216499D01*
X97950106Y-77216499D01*
X97950108Y-77216500D01*
X100897000Y-77216500D01*
X100941194Y-77234806D01*
X100959500Y-77279000D01*
X100959500Y-79693500D01*
X100959499Y-79693500D01*
X100979253Y-79792806D01*
X100992197Y-79824053D01*
X100997560Y-79837001D01*
X100997561Y-79837002D01*
X101053810Y-79921186D01*
X101053813Y-79921189D01*
X101095905Y-79949313D01*
X101137999Y-79977440D01*
X101179365Y-79994574D01*
X101181588Y-79995626D01*
X101182193Y-79995746D01*
X101182194Y-79995747D01*
X101281500Y-80015500D01*
X102294000Y-80015500D01*
X102338194Y-80033806D01*
X102356500Y-80078000D01*
X102356500Y-80455000D01*
X102338194Y-80499194D01*
X102294000Y-80517500D01*
X93712911Y-80517500D01*
X93668717Y-80499194D01*
X82669218Y-69499695D01*
X82650912Y-69455501D01*
X82657723Y-69427128D01*
X82699580Y-69344981D01*
X82753303Y-69179638D01*
X82780500Y-69007926D01*
X82780500Y-68834074D01*
X82753303Y-68662362D01*
X82699580Y-68497019D01*
X82620653Y-68342116D01*
X82610595Y-68328273D01*
X82518465Y-68201467D01*
X82518458Y-68201459D01*
X82395540Y-68078541D01*
X82395532Y-68078534D01*
X82254886Y-67976348D01*
X82099987Y-67897423D01*
X82099979Y-67897419D01*
X81934636Y-67843696D01*
X81934637Y-67843696D01*
X81762937Y-67816501D01*
X81762927Y-67816500D01*
X81762926Y-67816500D01*
X81339074Y-67816500D01*
X81339072Y-67816500D01*
X81339062Y-67816501D01*
X81167362Y-67843696D01*
X81002020Y-67897419D01*
X81002012Y-67897423D01*
X80847113Y-67976348D01*
X80706467Y-68078534D01*
X80706459Y-68078541D01*
X80583541Y-68201459D01*
X80583534Y-68201467D01*
X80509563Y-68303279D01*
X80468777Y-68328273D01*
X80422263Y-68317105D01*
X80397269Y-68276319D01*
X80396500Y-68266542D01*
X80396500Y-65473000D01*
X80414806Y-65428806D01*
X80459000Y-65410500D01*
X100897000Y-65410500D01*
X100941194Y-65428806D01*
G37*
%TD.AperFunction*%
%TA.AperFunction,Conductor*%
G36*
X158814407Y-58547004D02*
G01*
X159007700Y-58549376D01*
X159013059Y-58549672D01*
X159398220Y-58587607D01*
X159404287Y-58588507D01*
X159783491Y-58663935D01*
X159789440Y-58665424D01*
X160159440Y-58777663D01*
X160165205Y-58779727D01*
X160522422Y-58927691D01*
X160527966Y-58930313D01*
X160868940Y-59112568D01*
X160874201Y-59115721D01*
X161195685Y-59330530D01*
X161200611Y-59334184D01*
X161499480Y-59579458D01*
X161504025Y-59583577D01*
X161777422Y-59856974D01*
X161781541Y-59861519D01*
X162026815Y-60160388D01*
X162030469Y-60165314D01*
X162245278Y-60486798D01*
X162248431Y-60492059D01*
X162430686Y-60833033D01*
X162433308Y-60838577D01*
X162581272Y-61195794D01*
X162583339Y-61201569D01*
X162695574Y-61571558D01*
X162697064Y-61577508D01*
X162772492Y-61956712D01*
X162773392Y-61962779D01*
X162811327Y-62347940D01*
X162811623Y-62353299D01*
X162813995Y-62546592D01*
X162814000Y-62547359D01*
X162814000Y-136715640D01*
X162813995Y-136716407D01*
X162811623Y-136909700D01*
X162811327Y-136915059D01*
X162773392Y-137300220D01*
X162772492Y-137306287D01*
X162697064Y-137685491D01*
X162695574Y-137691441D01*
X162583339Y-138061430D01*
X162581272Y-138067205D01*
X162433308Y-138424422D01*
X162430686Y-138429966D01*
X162248431Y-138770940D01*
X162245278Y-138776201D01*
X162030469Y-139097685D01*
X162026815Y-139102611D01*
X161781541Y-139401480D01*
X161777422Y-139406025D01*
X161504025Y-139679422D01*
X161499480Y-139683541D01*
X161200611Y-139928815D01*
X161195685Y-139932469D01*
X160874201Y-140147278D01*
X160868940Y-140150431D01*
X160527966Y-140332686D01*
X160522422Y-140335308D01*
X160165205Y-140483272D01*
X160159430Y-140485339D01*
X159789441Y-140597574D01*
X159783491Y-140599064D01*
X159404287Y-140674492D01*
X159398220Y-140675392D01*
X159013059Y-140713327D01*
X159007700Y-140713623D01*
X158814408Y-140715995D01*
X158813641Y-140716000D01*
X80200359Y-140716000D01*
X80199592Y-140715995D01*
X80006299Y-140713623D01*
X80000940Y-140713327D01*
X79615779Y-140675392D01*
X79609712Y-140674492D01*
X79230508Y-140599064D01*
X79224558Y-140597574D01*
X78854569Y-140485339D01*
X78848794Y-140483272D01*
X78491577Y-140335308D01*
X78486033Y-140332686D01*
X78145059Y-140150431D01*
X78139798Y-140147278D01*
X77818314Y-139932469D01*
X77813388Y-139928815D01*
X77514519Y-139683541D01*
X77509974Y-139679422D01*
X77236577Y-139406025D01*
X77232458Y-139401480D01*
X76987184Y-139102611D01*
X76983530Y-139097685D01*
X76768721Y-138776201D01*
X76765568Y-138770940D01*
X76583313Y-138429966D01*
X76580691Y-138424422D01*
X76432727Y-138067205D01*
X76430663Y-138061440D01*
X76318424Y-137691440D01*
X76316935Y-137685491D01*
X76241507Y-137306287D01*
X76240607Y-137300220D01*
X76202672Y-136915059D01*
X76202376Y-136909700D01*
X76200005Y-136716407D01*
X76200000Y-136715640D01*
X76200000Y-62547359D01*
X76200005Y-62546592D01*
X76201566Y-62419309D01*
X76829500Y-62419309D01*
X76829500Y-135192921D01*
X76849410Y-135292182D01*
X76849412Y-135292188D01*
X76849413Y-135292191D01*
X76852809Y-135300353D01*
X76867781Y-135336337D01*
X76867789Y-135336354D01*
X76867790Y-135336356D01*
X76867792Y-135336360D01*
X76867797Y-135336368D01*
X76867798Y-135336369D01*
X76924179Y-135420454D01*
X76924181Y-135420456D01*
X77008461Y-135476572D01*
X77052685Y-135494806D01*
X77152020Y-135514398D01*
X88328901Y-135496340D01*
X88373123Y-135514574D01*
X88391500Y-135558739D01*
X88391500Y-135686229D01*
X88417498Y-135783251D01*
X88417498Y-135783253D01*
X88467725Y-135870248D01*
X93037536Y-140440058D01*
X93037541Y-140440064D01*
X93039723Y-140442246D01*
X93039724Y-140442247D01*
X93110753Y-140513276D01*
X93197746Y-140563501D01*
X93240526Y-140574964D01*
X93294770Y-140589499D01*
X93294773Y-140589499D01*
X93294775Y-140589500D01*
X93294776Y-140589500D01*
X125653224Y-140589500D01*
X125653225Y-140589500D01*
X125750254Y-140563501D01*
X125837247Y-140513276D01*
X125908276Y-140442247D01*
X125908276Y-140442246D01*
X131017966Y-135332554D01*
X131062159Y-135314249D01*
X131101059Y-135330324D01*
X131101600Y-135329512D01*
X131105699Y-135332241D01*
X131106279Y-135332481D01*
X131106721Y-135332922D01*
X131158011Y-135367072D01*
X131191003Y-135389039D01*
X131235227Y-135407273D01*
X131334562Y-135426865D01*
X155640020Y-135387600D01*
X155640025Y-135387599D01*
X155640026Y-135387599D01*
X155673147Y-135380968D01*
X155739103Y-135367766D01*
X155783196Y-135349460D01*
X155867187Y-135293289D01*
X155923440Y-135209101D01*
X155940578Y-135167726D01*
X155941626Y-135165509D01*
X155941746Y-135164907D01*
X155941747Y-135164906D01*
X155961500Y-135065600D01*
X155961500Y-132650499D01*
X155941746Y-132551193D01*
X155923440Y-132506999D01*
X155867189Y-132422813D01*
X155867188Y-132422812D01*
X155867186Y-132422810D01*
X155783002Y-132366561D01*
X155782998Y-132366558D01*
X155741649Y-132349431D01*
X155739414Y-132348374D01*
X155639500Y-132328500D01*
X132122000Y-132328500D01*
X132077806Y-132310194D01*
X132059500Y-132266000D01*
X132059500Y-128731076D01*
X132357500Y-128731076D01*
X132357500Y-128904923D01*
X132357501Y-128904937D01*
X132384696Y-129076637D01*
X132438419Y-129241979D01*
X132438423Y-129241987D01*
X132517348Y-129396886D01*
X132619534Y-129537532D01*
X132619541Y-129537540D01*
X132742459Y-129660458D01*
X132742467Y-129660465D01*
X132883116Y-129762653D01*
X133038019Y-129841580D01*
X133203362Y-129895303D01*
X133375074Y-129922500D01*
X133375076Y-129922500D01*
X133798924Y-129922500D01*
X133798926Y-129922500D01*
X133970638Y-129895303D01*
X134135981Y-129841580D01*
X134290884Y-129762653D01*
X134431533Y-129660465D01*
X134554465Y-129537533D01*
X134656653Y-129396884D01*
X134735580Y-129241981D01*
X134789303Y-129076638D01*
X134816500Y-128904926D01*
X134816500Y-128731076D01*
X142517500Y-128731076D01*
X142517500Y-128904923D01*
X142517501Y-128904937D01*
X142544696Y-129076637D01*
X142598419Y-129241979D01*
X142598423Y-129241987D01*
X142677348Y-129396886D01*
X142779534Y-129537532D01*
X142779541Y-129537540D01*
X142902459Y-129660458D01*
X142902467Y-129660465D01*
X143043116Y-129762653D01*
X143198019Y-129841580D01*
X143363362Y-129895303D01*
X143535074Y-129922500D01*
X143535076Y-129922500D01*
X143958924Y-129922500D01*
X143958926Y-129922500D01*
X144130638Y-129895303D01*
X144295981Y-129841580D01*
X144450884Y-129762653D01*
X144591533Y-129660465D01*
X144714465Y-129537533D01*
X144816653Y-129396884D01*
X144895580Y-129241981D01*
X144949303Y-129076638D01*
X144976500Y-128904926D01*
X144976500Y-128731076D01*
X152677500Y-128731076D01*
X152677500Y-128904923D01*
X152677501Y-128904937D01*
X152704696Y-129076637D01*
X152758419Y-129241979D01*
X152758423Y-129241987D01*
X152837348Y-129396886D01*
X152939534Y-129537532D01*
X152939541Y-129537540D01*
X153062459Y-129660458D01*
X153062467Y-129660465D01*
X153203116Y-129762653D01*
X153358019Y-129841580D01*
X153523362Y-129895303D01*
X153695074Y-129922500D01*
X153695076Y-129922500D01*
X154118924Y-129922500D01*
X154118926Y-129922500D01*
X154290638Y-129895303D01*
X154455981Y-129841580D01*
X154610884Y-129762653D01*
X154751533Y-129660465D01*
X154874465Y-129537533D01*
X154976653Y-129396884D01*
X155055580Y-129241981D01*
X155109303Y-129076638D01*
X155136500Y-128904926D01*
X155136500Y-128731074D01*
X155109303Y-128559362D01*
X155055580Y-128394019D01*
X154976653Y-128239116D01*
X154976649Y-128239111D01*
X154874465Y-128098467D01*
X154874458Y-128098459D01*
X154751540Y-127975541D01*
X154751532Y-127975534D01*
X154610886Y-127873348D01*
X154455987Y-127794423D01*
X154455979Y-127794419D01*
X154290636Y-127740696D01*
X154290637Y-127740696D01*
X154118937Y-127713501D01*
X154118927Y-127713500D01*
X154118926Y-127713500D01*
X153695074Y-127713500D01*
X153695072Y-127713500D01*
X153695062Y-127713501D01*
X153523362Y-127740696D01*
X153358020Y-127794419D01*
X153358012Y-127794423D01*
X153203113Y-127873348D01*
X153062467Y-127975534D01*
X153062459Y-127975541D01*
X152939541Y-128098459D01*
X152939534Y-128098467D01*
X152837348Y-128239113D01*
X152758423Y-128394012D01*
X152758419Y-128394020D01*
X152704696Y-128559362D01*
X152677501Y-128731062D01*
X152677500Y-128731076D01*
X144976500Y-128731076D01*
X144976500Y-128731074D01*
X144949303Y-128559362D01*
X144895580Y-128394019D01*
X144816653Y-128239116D01*
X144816649Y-128239111D01*
X144714465Y-128098467D01*
X144714458Y-128098459D01*
X144591540Y-127975541D01*
X144591532Y-127975534D01*
X144450886Y-127873348D01*
X144295987Y-127794423D01*
X144295979Y-127794419D01*
X144130636Y-127740696D01*
X144130637Y-127740696D01*
X143958937Y-127713501D01*
X143958927Y-127713500D01*
X143958926Y-127713500D01*
X143535074Y-127713500D01*
X143535072Y-127713500D01*
X143535062Y-127713501D01*
X143363362Y-127740696D01*
X143198020Y-127794419D01*
X143198012Y-127794423D01*
X143043113Y-127873348D01*
X142902467Y-127975534D01*
X142902459Y-127975541D01*
X142779541Y-128098459D01*
X142779534Y-128098467D01*
X142677348Y-128239113D01*
X142598423Y-128394012D01*
X142598419Y-128394020D01*
X142544696Y-128559362D01*
X142517501Y-128731062D01*
X142517500Y-128731076D01*
X134816500Y-128731076D01*
X134816500Y-128731074D01*
X134789303Y-128559362D01*
X134735580Y-128394019D01*
X134656653Y-128239116D01*
X134656649Y-128239111D01*
X134554465Y-128098467D01*
X134554458Y-128098459D01*
X134431540Y-127975541D01*
X134431532Y-127975534D01*
X134290886Y-127873348D01*
X134135987Y-127794423D01*
X134135979Y-127794419D01*
X133970636Y-127740696D01*
X133970637Y-127740696D01*
X133798937Y-127713501D01*
X133798927Y-127713500D01*
X133798926Y-127713500D01*
X133375074Y-127713500D01*
X133375072Y-127713500D01*
X133375062Y-127713501D01*
X133203362Y-127740696D01*
X133038020Y-127794419D01*
X133038012Y-127794423D01*
X132883113Y-127873348D01*
X132742467Y-127975534D01*
X132742459Y-127975541D01*
X132619541Y-128098459D01*
X132619534Y-128098467D01*
X132517348Y-128239113D01*
X132438423Y-128394012D01*
X132438419Y-128394020D01*
X132384696Y-128559362D01*
X132357501Y-128731062D01*
X132357500Y-128731076D01*
X132059500Y-128731076D01*
X132059500Y-112096988D01*
X132077806Y-112052794D01*
X132105829Y-112036617D01*
X132108703Y-112035847D01*
X132307646Y-111943079D01*
X132487457Y-111817174D01*
X132642674Y-111661957D01*
X132768579Y-111482146D01*
X132861347Y-111283203D01*
X132887331Y-111186232D01*
X132887630Y-111185116D01*
X132916750Y-111147166D01*
X132964177Y-111140923D01*
X133002127Y-111170043D01*
X133008370Y-111185116D01*
X133034650Y-111283195D01*
X133034655Y-111283208D01*
X133127418Y-111482142D01*
X133127420Y-111482144D01*
X133253326Y-111661958D01*
X133408541Y-111817173D01*
X133454635Y-111849448D01*
X133588354Y-111943079D01*
X133588355Y-111943079D01*
X133588357Y-111943081D01*
X133737221Y-112012496D01*
X133787297Y-112035847D01*
X133787302Y-112035848D01*
X133787304Y-112035849D01*
X133999318Y-112092659D01*
X133999319Y-112092659D01*
X133999326Y-112092661D01*
X134179736Y-112108444D01*
X134217998Y-112111792D01*
X134218000Y-112111792D01*
X134218002Y-112111792D01*
X134253185Y-112108713D01*
X134436674Y-112092661D01*
X134648703Y-112035847D01*
X134828939Y-111951802D01*
X134847642Y-111943081D01*
X134847642Y-111943080D01*
X134847646Y-111943079D01*
X135027457Y-111817174D01*
X135182674Y-111661957D01*
X135308579Y-111482146D01*
X135401347Y-111283203D01*
X135427331Y-111186232D01*
X135427630Y-111185116D01*
X135456750Y-111147166D01*
X135504177Y-111140923D01*
X135542127Y-111170043D01*
X135548370Y-111185116D01*
X135574650Y-111283195D01*
X135574655Y-111283208D01*
X135667418Y-111482142D01*
X135667420Y-111482144D01*
X135793326Y-111661958D01*
X135948541Y-111817173D01*
X135994635Y-111849448D01*
X136128354Y-111943079D01*
X136128355Y-111943079D01*
X136128357Y-111943081D01*
X136277221Y-112012496D01*
X136327297Y-112035847D01*
X136327302Y-112035848D01*
X136327304Y-112035849D01*
X136539318Y-112092659D01*
X136539319Y-112092659D01*
X136539326Y-112092661D01*
X136719736Y-112108444D01*
X136757998Y-112111792D01*
X136758000Y-112111792D01*
X136758002Y-112111792D01*
X136793185Y-112108713D01*
X136976674Y-112092661D01*
X137188703Y-112035847D01*
X137368939Y-111951802D01*
X137387642Y-111943081D01*
X137387642Y-111943080D01*
X137387646Y-111943079D01*
X137567457Y-111817174D01*
X137722674Y-111661957D01*
X137848579Y-111482146D01*
X137941347Y-111283203D01*
X137967331Y-111186232D01*
X137967630Y-111185116D01*
X137996750Y-111147166D01*
X138044177Y-111140923D01*
X138082127Y-111170043D01*
X138088370Y-111185116D01*
X138114650Y-111283195D01*
X138114655Y-111283208D01*
X138207418Y-111482142D01*
X138207420Y-111482144D01*
X138333326Y-111661958D01*
X138488541Y-111817173D01*
X138534635Y-111849448D01*
X138668354Y-111943079D01*
X138668355Y-111943079D01*
X138668357Y-111943081D01*
X138817221Y-112012496D01*
X138867297Y-112035847D01*
X138867302Y-112035848D01*
X138867304Y-112035849D01*
X139079318Y-112092659D01*
X139079319Y-112092659D01*
X139079326Y-112092661D01*
X139259736Y-112108444D01*
X139297998Y-112111792D01*
X139298000Y-112111792D01*
X139298002Y-112111792D01*
X139333185Y-112108713D01*
X139516674Y-112092661D01*
X139728703Y-112035847D01*
X139908939Y-111951802D01*
X139927642Y-111943081D01*
X139927642Y-111943080D01*
X139927646Y-111943079D01*
X140107457Y-111817174D01*
X140262674Y-111661957D01*
X140388579Y-111482146D01*
X140481347Y-111283203D01*
X140507331Y-111186232D01*
X140507630Y-111185116D01*
X140536750Y-111147166D01*
X140584177Y-111140923D01*
X140622127Y-111170043D01*
X140628370Y-111185116D01*
X140654650Y-111283195D01*
X140654655Y-111283208D01*
X140747418Y-111482142D01*
X140747420Y-111482144D01*
X140873326Y-111661958D01*
X141028541Y-111817173D01*
X141074635Y-111849448D01*
X141208354Y-111943079D01*
X141208355Y-111943079D01*
X141208357Y-111943081D01*
X141357221Y-112012496D01*
X141407297Y-112035847D01*
X141407302Y-112035848D01*
X141407304Y-112035849D01*
X141619318Y-112092659D01*
X141619319Y-112092659D01*
X141619326Y-112092661D01*
X141799736Y-112108444D01*
X141837998Y-112111792D01*
X141838000Y-112111792D01*
X141838002Y-112111792D01*
X141873185Y-112108713D01*
X142056674Y-112092661D01*
X142268703Y-112035847D01*
X142448939Y-111951802D01*
X142467642Y-111943081D01*
X142467642Y-111943080D01*
X142467646Y-111943079D01*
X142647457Y-111817174D01*
X142802674Y-111661957D01*
X142928579Y-111482146D01*
X143021347Y-111283203D01*
X143047331Y-111186232D01*
X143047630Y-111185116D01*
X143076750Y-111147166D01*
X143124177Y-111140923D01*
X143162127Y-111170043D01*
X143168370Y-111185116D01*
X143194650Y-111283195D01*
X143194655Y-111283208D01*
X143287418Y-111482142D01*
X143287420Y-111482144D01*
X143413326Y-111661958D01*
X143568541Y-111817173D01*
X143614635Y-111849448D01*
X143748354Y-111943079D01*
X143748355Y-111943079D01*
X143748357Y-111943081D01*
X143897221Y-112012496D01*
X143947297Y-112035847D01*
X143947302Y-112035848D01*
X143947304Y-112035849D01*
X144159318Y-112092659D01*
X144159319Y-112092659D01*
X144159326Y-112092661D01*
X144339736Y-112108444D01*
X144377998Y-112111792D01*
X144378000Y-112111792D01*
X144378002Y-112111792D01*
X144413185Y-112108713D01*
X144596674Y-112092661D01*
X144808703Y-112035847D01*
X144988939Y-111951802D01*
X145007642Y-111943081D01*
X145007642Y-111943080D01*
X145007646Y-111943079D01*
X145187457Y-111817174D01*
X145342674Y-111661957D01*
X145468579Y-111482146D01*
X145561347Y-111283203D01*
X145587331Y-111186232D01*
X145587630Y-111185116D01*
X145616750Y-111147166D01*
X145664177Y-111140923D01*
X145702127Y-111170043D01*
X145708370Y-111185116D01*
X145734650Y-111283195D01*
X145734655Y-111283208D01*
X145827418Y-111482142D01*
X145827420Y-111482144D01*
X145953326Y-111661958D01*
X146108541Y-111817173D01*
X146154635Y-111849448D01*
X146288354Y-111943079D01*
X146288355Y-111943079D01*
X146288357Y-111943081D01*
X146437221Y-112012496D01*
X146487297Y-112035847D01*
X146487302Y-112035848D01*
X146487304Y-112035849D01*
X146699318Y-112092659D01*
X146699319Y-112092659D01*
X146699326Y-112092661D01*
X146879736Y-112108444D01*
X146917998Y-112111792D01*
X146918000Y-112111792D01*
X146918002Y-112111792D01*
X146953185Y-112108713D01*
X147136674Y-112092661D01*
X147348703Y-112035847D01*
X147528939Y-111951802D01*
X147547642Y-111943081D01*
X147547642Y-111943080D01*
X147547646Y-111943079D01*
X147727457Y-111817174D01*
X147882674Y-111661957D01*
X148008579Y-111482146D01*
X148101347Y-111283203D01*
X148127331Y-111186232D01*
X148127630Y-111185116D01*
X148156750Y-111147166D01*
X148204177Y-111140923D01*
X148242127Y-111170043D01*
X148248370Y-111185116D01*
X148274650Y-111283195D01*
X148274655Y-111283208D01*
X148367418Y-111482142D01*
X148367420Y-111482144D01*
X148493326Y-111661958D01*
X148648541Y-111817173D01*
X148694635Y-111849448D01*
X148828354Y-111943079D01*
X148828355Y-111943079D01*
X148828357Y-111943081D01*
X148977221Y-112012496D01*
X149027297Y-112035847D01*
X149027302Y-112035848D01*
X149027304Y-112035849D01*
X149239318Y-112092659D01*
X149239319Y-112092659D01*
X149239326Y-112092661D01*
X149419736Y-112108444D01*
X149457998Y-112111792D01*
X149458000Y-112111792D01*
X149458002Y-112111792D01*
X149493185Y-112108713D01*
X149676674Y-112092661D01*
X149888703Y-112035847D01*
X150068939Y-111951802D01*
X150087642Y-111943081D01*
X150087642Y-111943080D01*
X150087646Y-111943079D01*
X150267457Y-111817174D01*
X150422674Y-111661957D01*
X150548579Y-111482146D01*
X150641347Y-111283203D01*
X150667331Y-111186232D01*
X150667630Y-111185116D01*
X150696750Y-111147166D01*
X150744177Y-111140923D01*
X150782127Y-111170043D01*
X150788370Y-111185116D01*
X150814650Y-111283195D01*
X150814655Y-111283208D01*
X150907418Y-111482142D01*
X150907420Y-111482144D01*
X151033326Y-111661958D01*
X151188541Y-111817173D01*
X151234635Y-111849448D01*
X151368354Y-111943079D01*
X151368355Y-111943079D01*
X151368357Y-111943081D01*
X151517221Y-112012496D01*
X151567297Y-112035847D01*
X151567302Y-112035848D01*
X151567304Y-112035849D01*
X151779318Y-112092659D01*
X151779319Y-112092659D01*
X151779326Y-112092661D01*
X151959736Y-112108444D01*
X151997998Y-112111792D01*
X151998000Y-112111792D01*
X151998002Y-112111792D01*
X152033185Y-112108713D01*
X152216674Y-112092661D01*
X152428703Y-112035847D01*
X152608939Y-111951802D01*
X152627642Y-111943081D01*
X152627642Y-111943080D01*
X152627646Y-111943079D01*
X152807457Y-111817174D01*
X152962674Y-111661957D01*
X153088579Y-111482146D01*
X153181347Y-111283203D01*
X153207331Y-111186232D01*
X153207630Y-111185116D01*
X153236750Y-111147166D01*
X153284177Y-111140923D01*
X153322127Y-111170043D01*
X153328370Y-111185116D01*
X153354650Y-111283195D01*
X153354655Y-111283208D01*
X153447418Y-111482142D01*
X153447420Y-111482144D01*
X153573326Y-111661958D01*
X153728541Y-111817173D01*
X153774635Y-111849448D01*
X153908354Y-111943079D01*
X153908355Y-111943079D01*
X153908357Y-111943081D01*
X154057221Y-112012496D01*
X154107297Y-112035847D01*
X154107302Y-112035848D01*
X154107304Y-112035849D01*
X154319318Y-112092659D01*
X154319319Y-112092659D01*
X154319326Y-112092661D01*
X154499736Y-112108444D01*
X154537998Y-112111792D01*
X154538000Y-112111792D01*
X154538002Y-112111792D01*
X154573185Y-112108713D01*
X154756674Y-112092661D01*
X154968703Y-112035847D01*
X155148939Y-111951802D01*
X155167642Y-111943081D01*
X155167642Y-111943080D01*
X155167646Y-111943079D01*
X155347457Y-111817174D01*
X155502674Y-111661957D01*
X155628579Y-111482146D01*
X155721347Y-111283203D01*
X155747331Y-111186232D01*
X155747630Y-111185116D01*
X155776750Y-111147166D01*
X155824177Y-111140923D01*
X155862127Y-111170043D01*
X155868370Y-111185116D01*
X155894650Y-111283195D01*
X155894655Y-111283208D01*
X155987418Y-111482142D01*
X155987420Y-111482144D01*
X156113326Y-111661958D01*
X156268541Y-111817173D01*
X156314635Y-111849448D01*
X156448354Y-111943079D01*
X156448355Y-111943079D01*
X156448357Y-111943081D01*
X156597221Y-112012496D01*
X156647297Y-112035847D01*
X156647302Y-112035848D01*
X156647304Y-112035849D01*
X156859318Y-112092659D01*
X156859319Y-112092659D01*
X156859326Y-112092661D01*
X157039736Y-112108444D01*
X157077998Y-112111792D01*
X157078000Y-112111792D01*
X157078002Y-112111792D01*
X157113185Y-112108713D01*
X157296674Y-112092661D01*
X157508703Y-112035847D01*
X157688939Y-111951802D01*
X157707642Y-111943081D01*
X157707642Y-111943080D01*
X157707646Y-111943079D01*
X157887457Y-111817174D01*
X158042674Y-111661957D01*
X158168579Y-111482146D01*
X158261347Y-111283203D01*
X158318161Y-111071174D01*
X158337292Y-110852500D01*
X158334516Y-110820775D01*
X158326028Y-110723748D01*
X158318161Y-110633826D01*
X158297798Y-110557833D01*
X158261349Y-110421804D01*
X158261348Y-110421802D01*
X158261347Y-110421797D01*
X158214363Y-110321038D01*
X158807500Y-110321038D01*
X158807500Y-110543961D01*
X158836596Y-110764966D01*
X158836596Y-110764967D01*
X158894286Y-110980269D01*
X158894288Y-110980274D01*
X158894290Y-110980281D01*
X158979595Y-111186226D01*
X158979596Y-111186229D01*
X158979598Y-111186232D01*
X159067800Y-111339001D01*
X159091052Y-111379274D01*
X159226753Y-111556124D01*
X159384376Y-111713747D01*
X159384379Y-111713749D01*
X159384381Y-111713751D01*
X159397695Y-111723967D01*
X159561226Y-111849448D01*
X159587498Y-111864616D01*
X159738505Y-111951801D01*
X159754274Y-111960905D01*
X159960219Y-112046210D01*
X159960229Y-112046212D01*
X159960230Y-112046213D01*
X160133573Y-112092660D01*
X160175537Y-112103904D01*
X160396543Y-112133000D01*
X160396549Y-112133000D01*
X160619451Y-112133000D01*
X160619457Y-112133000D01*
X160840463Y-112103904D01*
X161055781Y-112046210D01*
X161261726Y-111960905D01*
X161454774Y-111849448D01*
X161631624Y-111713747D01*
X161789247Y-111556124D01*
X161924948Y-111379274D01*
X162036405Y-111186226D01*
X162121710Y-110980281D01*
X162179404Y-110764963D01*
X162208500Y-110543957D01*
X162208500Y-110321043D01*
X162179404Y-110100037D01*
X162163025Y-110038911D01*
X162121713Y-109884730D01*
X162121712Y-109884729D01*
X162121710Y-109884719D01*
X162036405Y-109678774D01*
X161924948Y-109485726D01*
X161789247Y-109308876D01*
X161631624Y-109151253D01*
X161631620Y-109151250D01*
X161631618Y-109151248D01*
X161454771Y-109015550D01*
X161261732Y-108904098D01*
X161261729Y-108904096D01*
X161261726Y-108904095D01*
X161055781Y-108818790D01*
X161055774Y-108818788D01*
X161055769Y-108818786D01*
X160840466Y-108761096D01*
X160619461Y-108732000D01*
X160619457Y-108732000D01*
X160396543Y-108732000D01*
X160396538Y-108732000D01*
X160175533Y-108761096D01*
X160175532Y-108761096D01*
X159960230Y-108818786D01*
X159960222Y-108818788D01*
X159960219Y-108818790D01*
X159754274Y-108904095D01*
X159754267Y-108904098D01*
X159561228Y-109015550D01*
X159384381Y-109151248D01*
X159384371Y-109151257D01*
X159226757Y-109308871D01*
X159226748Y-109308881D01*
X159091050Y-109485728D01*
X158979598Y-109678767D01*
X158979595Y-109678773D01*
X158979595Y-109678774D01*
X158894290Y-109884719D01*
X158894288Y-109884722D01*
X158894286Y-109884730D01*
X158836596Y-110100032D01*
X158836596Y-110100033D01*
X158807500Y-110321038D01*
X158214363Y-110321038D01*
X158193571Y-110276450D01*
X158168581Y-110222857D01*
X158168579Y-110222855D01*
X158168579Y-110222854D01*
X158042674Y-110043043D01*
X158042673Y-110043041D01*
X157887458Y-109887826D01*
X157768841Y-109804770D01*
X157707646Y-109761921D01*
X157707644Y-109761920D01*
X157707642Y-109761918D01*
X157508708Y-109669155D01*
X157508695Y-109669150D01*
X157296681Y-109612340D01*
X157296675Y-109612339D01*
X157078002Y-109593208D01*
X157077998Y-109593208D01*
X156859324Y-109612339D01*
X156859318Y-109612340D01*
X156647304Y-109669150D01*
X156647291Y-109669155D01*
X156448357Y-109761918D01*
X156448355Y-109761920D01*
X156268541Y-109887826D01*
X156113326Y-110043041D01*
X155987420Y-110222855D01*
X155987418Y-110222857D01*
X155894655Y-110421791D01*
X155894650Y-110421804D01*
X155868370Y-110519883D01*
X155839250Y-110557833D01*
X155791823Y-110564076D01*
X155753873Y-110534956D01*
X155747630Y-110519883D01*
X155721349Y-110421804D01*
X155721348Y-110421802D01*
X155721347Y-110421797D01*
X155653571Y-110276450D01*
X155628581Y-110222857D01*
X155628579Y-110222855D01*
X155628579Y-110222854D01*
X155502674Y-110043043D01*
X155502673Y-110043041D01*
X155347458Y-109887826D01*
X155228841Y-109804770D01*
X155167646Y-109761921D01*
X155167644Y-109761920D01*
X155167642Y-109761918D01*
X154968708Y-109669155D01*
X154968695Y-109669150D01*
X154756681Y-109612340D01*
X154756675Y-109612339D01*
X154538002Y-109593208D01*
X154537998Y-109593208D01*
X154319324Y-109612339D01*
X154319318Y-109612340D01*
X154107293Y-109669153D01*
X154001612Y-109718433D01*
X153953822Y-109720520D01*
X153931005Y-109705983D01*
X151287522Y-107062500D01*
X156018000Y-107062500D01*
X162508000Y-107062500D01*
X162508000Y-89372500D01*
X156018000Y-89372500D01*
X156018000Y-107062500D01*
X151287522Y-107062500D01*
X136883748Y-92658725D01*
X136883747Y-92658724D01*
X136796754Y-92608499D01*
X136796753Y-92608498D01*
X136796752Y-92608498D01*
X136699729Y-92582500D01*
X136699725Y-92582500D01*
X121361775Y-92582500D01*
X121361770Y-92582500D01*
X121264748Y-92608498D01*
X121264746Y-92608498D01*
X121177751Y-92658725D01*
X119050725Y-94785751D01*
X119000498Y-94872746D01*
X119000498Y-94872748D01*
X118974500Y-94969770D01*
X118974500Y-95932500D01*
X118956194Y-95976694D01*
X118912000Y-95995000D01*
X118494412Y-95995000D01*
X118414201Y-96010954D01*
X118408513Y-96013311D01*
X118407771Y-96011520D01*
X118368798Y-96019267D01*
X118353623Y-96012981D01*
X118353487Y-96013311D01*
X118347798Y-96010954D01*
X118267588Y-95995000D01*
X117850000Y-95995000D01*
X117805806Y-95976694D01*
X117787500Y-95932500D01*
X117787500Y-94613911D01*
X117805806Y-94569717D01*
X120662717Y-91712806D01*
X120706911Y-91694500D01*
X125867724Y-91694500D01*
X125867725Y-91694500D01*
X125964754Y-91668501D01*
X126051747Y-91618276D01*
X126122776Y-91547247D01*
X131071006Y-86599015D01*
X131115199Y-86580710D01*
X131141612Y-86586566D01*
X131231359Y-86628415D01*
X131247297Y-86635847D01*
X131385329Y-86672833D01*
X131459318Y-86692659D01*
X131459319Y-86692659D01*
X131459326Y-86692661D01*
X131639736Y-86708444D01*
X131677998Y-86711792D01*
X131678000Y-86711792D01*
X131678002Y-86711792D01*
X131713185Y-86708713D01*
X131896674Y-86692661D01*
X132108703Y-86635847D01*
X132307646Y-86543079D01*
X132487457Y-86417174D01*
X132642674Y-86261957D01*
X132768579Y-86082146D01*
X132861347Y-85883203D01*
X132887630Y-85785116D01*
X132916750Y-85747166D01*
X132964177Y-85740923D01*
X133002127Y-85770043D01*
X133008370Y-85785116D01*
X133034650Y-85883195D01*
X133034655Y-85883208D01*
X133127418Y-86082142D01*
X133127420Y-86082144D01*
X133253326Y-86261958D01*
X133408541Y-86417173D01*
X133473958Y-86462978D01*
X133588354Y-86543079D01*
X133588355Y-86543079D01*
X133588357Y-86543081D01*
X133708310Y-86599015D01*
X133787297Y-86635847D01*
X133787302Y-86635848D01*
X133787304Y-86635849D01*
X133999318Y-86692659D01*
X133999319Y-86692659D01*
X133999326Y-86692661D01*
X134179736Y-86708444D01*
X134217998Y-86711792D01*
X134218000Y-86711792D01*
X134218002Y-86711792D01*
X134253185Y-86708713D01*
X134436674Y-86692661D01*
X134648703Y-86635847D01*
X134847646Y-86543079D01*
X135027457Y-86417174D01*
X135182674Y-86261957D01*
X135308579Y-86082146D01*
X135401347Y-85883203D01*
X135427630Y-85785116D01*
X135456750Y-85747166D01*
X135504177Y-85740923D01*
X135542127Y-85770043D01*
X135548370Y-85785116D01*
X135574650Y-85883195D01*
X135574655Y-85883208D01*
X135667418Y-86082142D01*
X135667420Y-86082144D01*
X135793326Y-86261958D01*
X135948541Y-86417173D01*
X136013958Y-86462978D01*
X136128354Y-86543079D01*
X136128355Y-86543079D01*
X136128357Y-86543081D01*
X136248310Y-86599015D01*
X136327297Y-86635847D01*
X136327302Y-86635848D01*
X136327304Y-86635849D01*
X136539318Y-86692659D01*
X136539319Y-86692659D01*
X136539326Y-86692661D01*
X136719736Y-86708444D01*
X136757998Y-86711792D01*
X136758000Y-86711792D01*
X136758002Y-86711792D01*
X136793185Y-86708713D01*
X136976674Y-86692661D01*
X137188703Y-86635847D01*
X137387646Y-86543079D01*
X137567457Y-86417174D01*
X137722674Y-86261957D01*
X137848579Y-86082146D01*
X137941347Y-85883203D01*
X137967630Y-85785116D01*
X137996750Y-85747166D01*
X138044177Y-85740923D01*
X138082127Y-85770043D01*
X138088370Y-85785116D01*
X138114650Y-85883195D01*
X138114655Y-85883208D01*
X138207418Y-86082142D01*
X138207420Y-86082144D01*
X138333326Y-86261958D01*
X138488541Y-86417173D01*
X138553958Y-86462978D01*
X138668354Y-86543079D01*
X138668355Y-86543079D01*
X138668357Y-86543081D01*
X138788310Y-86599015D01*
X138867297Y-86635847D01*
X138867302Y-86635848D01*
X138867304Y-86635849D01*
X139079318Y-86692659D01*
X139079319Y-86692659D01*
X139079326Y-86692661D01*
X139259736Y-86708444D01*
X139297998Y-86711792D01*
X139298000Y-86711792D01*
X139298002Y-86711792D01*
X139333185Y-86708713D01*
X139516674Y-86692661D01*
X139728703Y-86635847D01*
X139927646Y-86543079D01*
X140107457Y-86417174D01*
X140262674Y-86261957D01*
X140388579Y-86082146D01*
X140481347Y-85883203D01*
X140507630Y-85785116D01*
X140536750Y-85747166D01*
X140584177Y-85740923D01*
X140622127Y-85770043D01*
X140628370Y-85785116D01*
X140654650Y-85883195D01*
X140654655Y-85883208D01*
X140747418Y-86082142D01*
X140747420Y-86082144D01*
X140873326Y-86261958D01*
X141028541Y-86417173D01*
X141093958Y-86462978D01*
X141208354Y-86543079D01*
X141208355Y-86543079D01*
X141208357Y-86543081D01*
X141328310Y-86599015D01*
X141407297Y-86635847D01*
X141407302Y-86635848D01*
X141407304Y-86635849D01*
X141619318Y-86692659D01*
X141619319Y-86692659D01*
X141619326Y-86692661D01*
X141799736Y-86708444D01*
X141837998Y-86711792D01*
X141838000Y-86711792D01*
X141838002Y-86711792D01*
X141873185Y-86708713D01*
X142056674Y-86692661D01*
X142268703Y-86635847D01*
X142467646Y-86543079D01*
X142647457Y-86417174D01*
X142802674Y-86261957D01*
X142928579Y-86082146D01*
X143021347Y-85883203D01*
X143047630Y-85785116D01*
X143076750Y-85747166D01*
X143124177Y-85740923D01*
X143162127Y-85770043D01*
X143168370Y-85785116D01*
X143194650Y-85883195D01*
X143194655Y-85883208D01*
X143287418Y-86082142D01*
X143287420Y-86082144D01*
X143413326Y-86261958D01*
X143568541Y-86417173D01*
X143633958Y-86462978D01*
X143748354Y-86543079D01*
X143748355Y-86543079D01*
X143748357Y-86543081D01*
X143868310Y-86599015D01*
X143947297Y-86635847D01*
X143947302Y-86635848D01*
X143947304Y-86635849D01*
X144159318Y-86692659D01*
X144159319Y-86692659D01*
X144159326Y-86692661D01*
X144339736Y-86708444D01*
X144377998Y-86711792D01*
X144378000Y-86711792D01*
X144378002Y-86711792D01*
X144413185Y-86708713D01*
X144596674Y-86692661D01*
X144808703Y-86635847D01*
X145007646Y-86543079D01*
X145187457Y-86417174D01*
X145342674Y-86261957D01*
X145468579Y-86082146D01*
X145561347Y-85883203D01*
X145587630Y-85785116D01*
X145616750Y-85747166D01*
X145664177Y-85740923D01*
X145702127Y-85770043D01*
X145708370Y-85785116D01*
X145734650Y-85883195D01*
X145734655Y-85883208D01*
X145827418Y-86082142D01*
X145827420Y-86082144D01*
X145953326Y-86261958D01*
X146108541Y-86417173D01*
X146173958Y-86462978D01*
X146288354Y-86543079D01*
X146288355Y-86543079D01*
X146288357Y-86543081D01*
X146408310Y-86599015D01*
X146487297Y-86635847D01*
X146487302Y-86635848D01*
X146487304Y-86635849D01*
X146699318Y-86692659D01*
X146699319Y-86692659D01*
X146699326Y-86692661D01*
X146879736Y-86708444D01*
X146917998Y-86711792D01*
X146918000Y-86711792D01*
X146918002Y-86711792D01*
X146953185Y-86708713D01*
X147136674Y-86692661D01*
X147348703Y-86635847D01*
X147547646Y-86543079D01*
X147727457Y-86417174D01*
X147882674Y-86261957D01*
X148008579Y-86082146D01*
X148101347Y-85883203D01*
X148127630Y-85785116D01*
X148156750Y-85747166D01*
X148204177Y-85740923D01*
X148242127Y-85770043D01*
X148248370Y-85785116D01*
X148274650Y-85883195D01*
X148274655Y-85883208D01*
X148367418Y-86082142D01*
X148367420Y-86082144D01*
X148493326Y-86261958D01*
X148648541Y-86417173D01*
X148713958Y-86462978D01*
X148828354Y-86543079D01*
X148828355Y-86543079D01*
X148828357Y-86543081D01*
X148948310Y-86599015D01*
X149027297Y-86635847D01*
X149027302Y-86635848D01*
X149027304Y-86635849D01*
X149239318Y-86692659D01*
X149239319Y-86692659D01*
X149239326Y-86692661D01*
X149419736Y-86708444D01*
X149457998Y-86711792D01*
X149458000Y-86711792D01*
X149458002Y-86711792D01*
X149493185Y-86708713D01*
X149676674Y-86692661D01*
X149888703Y-86635847D01*
X150087646Y-86543079D01*
X150267457Y-86417174D01*
X150422674Y-86261957D01*
X150548579Y-86082146D01*
X150641347Y-85883203D01*
X150667630Y-85785116D01*
X150696750Y-85747166D01*
X150744177Y-85740923D01*
X150782127Y-85770043D01*
X150788370Y-85785116D01*
X150814650Y-85883195D01*
X150814655Y-85883208D01*
X150907418Y-86082142D01*
X150907420Y-86082144D01*
X151033326Y-86261958D01*
X151188541Y-86417173D01*
X151253958Y-86462978D01*
X151368354Y-86543079D01*
X151368355Y-86543079D01*
X151368357Y-86543081D01*
X151488310Y-86599015D01*
X151567297Y-86635847D01*
X151567302Y-86635848D01*
X151567304Y-86635849D01*
X151779318Y-86692659D01*
X151779319Y-86692659D01*
X151779326Y-86692661D01*
X151959736Y-86708444D01*
X151997998Y-86711792D01*
X151998000Y-86711792D01*
X151998002Y-86711792D01*
X152033185Y-86708713D01*
X152216674Y-86692661D01*
X152428703Y-86635847D01*
X152627646Y-86543079D01*
X152807457Y-86417174D01*
X152962674Y-86261957D01*
X153088579Y-86082146D01*
X153181347Y-85883203D01*
X153207630Y-85785116D01*
X153236750Y-85747166D01*
X153284177Y-85740923D01*
X153322127Y-85770043D01*
X153328370Y-85785116D01*
X153354650Y-85883195D01*
X153354655Y-85883208D01*
X153447418Y-86082142D01*
X153447420Y-86082144D01*
X153573326Y-86261958D01*
X153728541Y-86417173D01*
X153793958Y-86462978D01*
X153908354Y-86543079D01*
X153908355Y-86543079D01*
X153908357Y-86543081D01*
X154028310Y-86599015D01*
X154107297Y-86635847D01*
X154107302Y-86635848D01*
X154107304Y-86635849D01*
X154319318Y-86692659D01*
X154319319Y-86692659D01*
X154319326Y-86692661D01*
X154499736Y-86708444D01*
X154537998Y-86711792D01*
X154538000Y-86711792D01*
X154538002Y-86711792D01*
X154573185Y-86708713D01*
X154756674Y-86692661D01*
X154968703Y-86635847D01*
X155167646Y-86543079D01*
X155347457Y-86417174D01*
X155502674Y-86261957D01*
X155628579Y-86082146D01*
X155721347Y-85883203D01*
X155747630Y-85785116D01*
X155776750Y-85747166D01*
X155824177Y-85740923D01*
X155862127Y-85770043D01*
X155868370Y-85785116D01*
X155894650Y-85883195D01*
X155894655Y-85883208D01*
X155987418Y-86082142D01*
X155987420Y-86082144D01*
X156113326Y-86261958D01*
X156268541Y-86417173D01*
X156333958Y-86462978D01*
X156448354Y-86543079D01*
X156448355Y-86543079D01*
X156448357Y-86543081D01*
X156568310Y-86599015D01*
X156647297Y-86635847D01*
X156647302Y-86635848D01*
X156647304Y-86635849D01*
X156859318Y-86692659D01*
X156859319Y-86692659D01*
X156859326Y-86692661D01*
X157039736Y-86708444D01*
X157077998Y-86711792D01*
X157078000Y-86711792D01*
X157078002Y-86711792D01*
X157113185Y-86708713D01*
X157296674Y-86692661D01*
X157508703Y-86635847D01*
X157707646Y-86543079D01*
X157887457Y-86417174D01*
X158042674Y-86261957D01*
X158168579Y-86082146D01*
X158261347Y-85883203D01*
X158280684Y-85811038D01*
X158807500Y-85811038D01*
X158807500Y-86033961D01*
X158836596Y-86254966D01*
X158836596Y-86254967D01*
X158894286Y-86470269D01*
X158894288Y-86470274D01*
X158894290Y-86470281D01*
X158979595Y-86676226D01*
X158979596Y-86676229D01*
X158979598Y-86676232D01*
X159063986Y-86822395D01*
X159091052Y-86869274D01*
X159119478Y-86906320D01*
X159217622Y-87034225D01*
X159226753Y-87046124D01*
X159384376Y-87203747D01*
X159561226Y-87339448D01*
X159754274Y-87450905D01*
X159960219Y-87536210D01*
X160175537Y-87593904D01*
X160396543Y-87623000D01*
X160396549Y-87623000D01*
X160619451Y-87623000D01*
X160619457Y-87623000D01*
X160840463Y-87593904D01*
X161055781Y-87536210D01*
X161261726Y-87450905D01*
X161454774Y-87339448D01*
X161631624Y-87203747D01*
X161789247Y-87046124D01*
X161924948Y-86869274D01*
X162036405Y-86676226D01*
X162121710Y-86470281D01*
X162179404Y-86254963D01*
X162208500Y-86033957D01*
X162208500Y-85811043D01*
X162179404Y-85590037D01*
X162142550Y-85452497D01*
X162121713Y-85374730D01*
X162121712Y-85374729D01*
X162121710Y-85374719D01*
X162036405Y-85168774D01*
X161924948Y-84975726D01*
X161789247Y-84798876D01*
X161631624Y-84641253D01*
X161631620Y-84641250D01*
X161631618Y-84641248D01*
X161454771Y-84505550D01*
X161261732Y-84394098D01*
X161261729Y-84394096D01*
X161261726Y-84394095D01*
X161055781Y-84308790D01*
X161055774Y-84308788D01*
X161055769Y-84308786D01*
X160840466Y-84251096D01*
X160619461Y-84222000D01*
X160619457Y-84222000D01*
X160396543Y-84222000D01*
X160396538Y-84222000D01*
X160175533Y-84251096D01*
X160175532Y-84251096D01*
X159960230Y-84308786D01*
X159960222Y-84308788D01*
X159960219Y-84308790D01*
X159754274Y-84394095D01*
X159754267Y-84394098D01*
X159561228Y-84505550D01*
X159384381Y-84641248D01*
X159384371Y-84641257D01*
X159226757Y-84798871D01*
X159226748Y-84798881D01*
X159091050Y-84975728D01*
X158979598Y-85168767D01*
X158979595Y-85168773D01*
X158979595Y-85168774D01*
X158894290Y-85374719D01*
X158894288Y-85374722D01*
X158894286Y-85374730D01*
X158836596Y-85590032D01*
X158836596Y-85590033D01*
X158807500Y-85811038D01*
X158280684Y-85811038D01*
X158318161Y-85671174D01*
X158337292Y-85452500D01*
X158318161Y-85233826D01*
X158297798Y-85157833D01*
X158261349Y-85021804D01*
X158261348Y-85021802D01*
X158261347Y-85021797D01*
X158179142Y-84845506D01*
X158168581Y-84822857D01*
X158168579Y-84822855D01*
X158168579Y-84822854D01*
X158042674Y-84643043D01*
X158042673Y-84643041D01*
X157887458Y-84487826D01*
X157773061Y-84407725D01*
X157707646Y-84361921D01*
X157707644Y-84361920D01*
X157707642Y-84361918D01*
X157508708Y-84269155D01*
X157508695Y-84269150D01*
X157296681Y-84212340D01*
X157296675Y-84212339D01*
X157078002Y-84193208D01*
X157077998Y-84193208D01*
X156859324Y-84212339D01*
X156859318Y-84212340D01*
X156647304Y-84269150D01*
X156647291Y-84269155D01*
X156448357Y-84361918D01*
X156448355Y-84361920D01*
X156268541Y-84487826D01*
X156113326Y-84643041D01*
X155987420Y-84822855D01*
X155987418Y-84822857D01*
X155894655Y-85021791D01*
X155894650Y-85021804D01*
X155868370Y-85119883D01*
X155839250Y-85157833D01*
X155791823Y-85164076D01*
X155753873Y-85134956D01*
X155747630Y-85119883D01*
X155721349Y-85021804D01*
X155721348Y-85021802D01*
X155721347Y-85021797D01*
X155639142Y-84845506D01*
X155628581Y-84822857D01*
X155628579Y-84822855D01*
X155628579Y-84822854D01*
X155502674Y-84643043D01*
X155502673Y-84643041D01*
X155347458Y-84487826D01*
X155233061Y-84407725D01*
X155167646Y-84361921D01*
X155167644Y-84361920D01*
X155167642Y-84361918D01*
X154968708Y-84269155D01*
X154968695Y-84269150D01*
X154756681Y-84212340D01*
X154756675Y-84212339D01*
X154538002Y-84193208D01*
X154537998Y-84193208D01*
X154319324Y-84212339D01*
X154319318Y-84212340D01*
X154107304Y-84269150D01*
X154107291Y-84269155D01*
X153908357Y-84361918D01*
X153908355Y-84361920D01*
X153728541Y-84487826D01*
X153573326Y-84643041D01*
X153447420Y-84822855D01*
X153447418Y-84822857D01*
X153354655Y-85021791D01*
X153354650Y-85021804D01*
X153328370Y-85119883D01*
X153299250Y-85157833D01*
X153251823Y-85164076D01*
X153213873Y-85134956D01*
X153207630Y-85119883D01*
X153181349Y-85021804D01*
X153181348Y-85021802D01*
X153181347Y-85021797D01*
X153099142Y-84845506D01*
X153088581Y-84822857D01*
X153088579Y-84822855D01*
X153088579Y-84822854D01*
X152962674Y-84643043D01*
X152962673Y-84643041D01*
X152807458Y-84487826D01*
X152693061Y-84407725D01*
X152627646Y-84361921D01*
X152627644Y-84361920D01*
X152627642Y-84361918D01*
X152428708Y-84269155D01*
X152428695Y-84269150D01*
X152216681Y-84212340D01*
X152216675Y-84212339D01*
X151998002Y-84193208D01*
X151997998Y-84193208D01*
X151779324Y-84212339D01*
X151779318Y-84212340D01*
X151567304Y-84269150D01*
X151567291Y-84269155D01*
X151368357Y-84361918D01*
X151368355Y-84361920D01*
X151188541Y-84487826D01*
X151033326Y-84643041D01*
X150907420Y-84822855D01*
X150907418Y-84822857D01*
X150814655Y-85021791D01*
X150814650Y-85021804D01*
X150788370Y-85119883D01*
X150759250Y-85157833D01*
X150711823Y-85164076D01*
X150673873Y-85134956D01*
X150667630Y-85119883D01*
X150641349Y-85021804D01*
X150641348Y-85021802D01*
X150641347Y-85021797D01*
X150559142Y-84845506D01*
X150548581Y-84822857D01*
X150548579Y-84822855D01*
X150548579Y-84822854D01*
X150422674Y-84643043D01*
X150422673Y-84643041D01*
X150267458Y-84487826D01*
X150153061Y-84407725D01*
X150087646Y-84361921D01*
X150087644Y-84361920D01*
X150087642Y-84361918D01*
X149888708Y-84269155D01*
X149888695Y-84269150D01*
X149676681Y-84212340D01*
X149676675Y-84212339D01*
X149458002Y-84193208D01*
X149457998Y-84193208D01*
X149239324Y-84212339D01*
X149239318Y-84212340D01*
X149027304Y-84269150D01*
X149027291Y-84269155D01*
X148828357Y-84361918D01*
X148828355Y-84361920D01*
X148648541Y-84487826D01*
X148493326Y-84643041D01*
X148367420Y-84822855D01*
X148367418Y-84822857D01*
X148274655Y-85021791D01*
X148274650Y-85021804D01*
X148248370Y-85119883D01*
X148219250Y-85157833D01*
X148171823Y-85164076D01*
X148133873Y-85134956D01*
X148127630Y-85119883D01*
X148101349Y-85021804D01*
X148101348Y-85021802D01*
X148101347Y-85021797D01*
X148019142Y-84845506D01*
X148008581Y-84822857D01*
X148008579Y-84822855D01*
X148008579Y-84822854D01*
X147882674Y-84643043D01*
X147882673Y-84643041D01*
X147727458Y-84487826D01*
X147613061Y-84407725D01*
X147547646Y-84361921D01*
X147547644Y-84361920D01*
X147547642Y-84361918D01*
X147348708Y-84269155D01*
X147348695Y-84269150D01*
X147136681Y-84212340D01*
X147136675Y-84212339D01*
X146918002Y-84193208D01*
X146917998Y-84193208D01*
X146699324Y-84212339D01*
X146699318Y-84212340D01*
X146487304Y-84269150D01*
X146487291Y-84269155D01*
X146288357Y-84361918D01*
X146288355Y-84361920D01*
X146108541Y-84487826D01*
X145953326Y-84643041D01*
X145827420Y-84822855D01*
X145827418Y-84822857D01*
X145734655Y-85021791D01*
X145734650Y-85021804D01*
X145708370Y-85119883D01*
X145679250Y-85157833D01*
X145631823Y-85164076D01*
X145593873Y-85134956D01*
X145587630Y-85119883D01*
X145561349Y-85021804D01*
X145561348Y-85021802D01*
X145561347Y-85021797D01*
X145479142Y-84845506D01*
X145468581Y-84822857D01*
X145468579Y-84822855D01*
X145468579Y-84822854D01*
X145342674Y-84643043D01*
X145342673Y-84643041D01*
X145187458Y-84487826D01*
X145073061Y-84407725D01*
X145007646Y-84361921D01*
X145007644Y-84361920D01*
X145007642Y-84361918D01*
X144808708Y-84269155D01*
X144808695Y-84269150D01*
X144596681Y-84212340D01*
X144596675Y-84212339D01*
X144378002Y-84193208D01*
X144377998Y-84193208D01*
X144159324Y-84212339D01*
X144159318Y-84212340D01*
X143947304Y-84269150D01*
X143947291Y-84269155D01*
X143748357Y-84361918D01*
X143748355Y-84361920D01*
X143568541Y-84487826D01*
X143413326Y-84643041D01*
X143287420Y-84822855D01*
X143287418Y-84822857D01*
X143194655Y-85021791D01*
X143194650Y-85021804D01*
X143168370Y-85119883D01*
X143139250Y-85157833D01*
X143091823Y-85164076D01*
X143053873Y-85134956D01*
X143047630Y-85119883D01*
X143021349Y-85021804D01*
X143021348Y-85021802D01*
X143021347Y-85021797D01*
X142939142Y-84845506D01*
X142928581Y-84822857D01*
X142928579Y-84822855D01*
X142928579Y-84822854D01*
X142802674Y-84643043D01*
X142802673Y-84643041D01*
X142647458Y-84487826D01*
X142533061Y-84407725D01*
X142467646Y-84361921D01*
X142467644Y-84361920D01*
X142467642Y-84361918D01*
X142268708Y-84269155D01*
X142268695Y-84269150D01*
X142056681Y-84212340D01*
X142056675Y-84212339D01*
X141838002Y-84193208D01*
X141837998Y-84193208D01*
X141619324Y-84212339D01*
X141619318Y-84212340D01*
X141407304Y-84269150D01*
X141407291Y-84269155D01*
X141208357Y-84361918D01*
X141208355Y-84361920D01*
X141028541Y-84487826D01*
X140873326Y-84643041D01*
X140747420Y-84822855D01*
X140747418Y-84822857D01*
X140654655Y-85021791D01*
X140654650Y-85021804D01*
X140628370Y-85119883D01*
X140599250Y-85157833D01*
X140551823Y-85164076D01*
X140513873Y-85134956D01*
X140507630Y-85119883D01*
X140481349Y-85021804D01*
X140481348Y-85021802D01*
X140481347Y-85021797D01*
X140399142Y-84845506D01*
X140388581Y-84822857D01*
X140388579Y-84822855D01*
X140388579Y-84822854D01*
X140262674Y-84643043D01*
X140262673Y-84643041D01*
X140107458Y-84487826D01*
X139993061Y-84407725D01*
X139927646Y-84361921D01*
X139927644Y-84361920D01*
X139927642Y-84361918D01*
X139728708Y-84269155D01*
X139728695Y-84269150D01*
X139516681Y-84212340D01*
X139516675Y-84212339D01*
X139298002Y-84193208D01*
X139297998Y-84193208D01*
X139079324Y-84212339D01*
X139079318Y-84212340D01*
X138867293Y-84269153D01*
X138761613Y-84318433D01*
X138713824Y-84320520D01*
X138691006Y-84305983D01*
X129136748Y-74751725D01*
X129136747Y-74751724D01*
X129049754Y-74701499D01*
X129049753Y-74701498D01*
X129049752Y-74701498D01*
X128952729Y-74675500D01*
X128952725Y-74675500D01*
X109657910Y-74675500D01*
X109613716Y-74657194D01*
X104171333Y-69214810D01*
X104153027Y-69170616D01*
X104168996Y-69132031D01*
X104168055Y-69131404D01*
X104171217Y-69126664D01*
X104171308Y-69126446D01*
X104171463Y-69126288D01*
X104171472Y-69126283D01*
X104227673Y-69042060D01*
X104245952Y-68997854D01*
X104265644Y-68898539D01*
X104265605Y-68834076D01*
X105927499Y-68834076D01*
X105927499Y-69007923D01*
X105927500Y-69007937D01*
X105954695Y-69179637D01*
X106008418Y-69344979D01*
X106008422Y-69344987D01*
X106087347Y-69499886D01*
X106189533Y-69640532D01*
X106189540Y-69640540D01*
X106312458Y-69763458D01*
X106312466Y-69763465D01*
X106453115Y-69865653D01*
X106608018Y-69944580D01*
X106773361Y-69998303D01*
X106945073Y-70025500D01*
X106945075Y-70025500D01*
X107368923Y-70025500D01*
X107368925Y-70025500D01*
X107540637Y-69998303D01*
X107705980Y-69944580D01*
X107860883Y-69865653D01*
X108001532Y-69763465D01*
X108124464Y-69640533D01*
X108226652Y-69499884D01*
X108305579Y-69344981D01*
X108359302Y-69179638D01*
X108386499Y-69007926D01*
X108386499Y-68834076D01*
X114462832Y-68834076D01*
X114462832Y-69007923D01*
X114462833Y-69007937D01*
X114490028Y-69179637D01*
X114543751Y-69344979D01*
X114543755Y-69344987D01*
X114622680Y-69499886D01*
X114724866Y-69640532D01*
X114724873Y-69640540D01*
X114847791Y-69763458D01*
X114847799Y-69763465D01*
X114988448Y-69865653D01*
X115143351Y-69944580D01*
X115308694Y-69998303D01*
X115480406Y-70025500D01*
X115480408Y-70025500D01*
X115904256Y-70025500D01*
X115904258Y-70025500D01*
X116075970Y-69998303D01*
X116241313Y-69944580D01*
X116396216Y-69865653D01*
X116536865Y-69763465D01*
X116659797Y-69640533D01*
X116761985Y-69499884D01*
X116840912Y-69344981D01*
X116894635Y-69179638D01*
X116921832Y-69007926D01*
X116921832Y-68834076D01*
X122998165Y-68834076D01*
X122998165Y-69007923D01*
X122998166Y-69007937D01*
X123025361Y-69179637D01*
X123079084Y-69344979D01*
X123079088Y-69344987D01*
X123158013Y-69499886D01*
X123260199Y-69640532D01*
X123260206Y-69640540D01*
X123383124Y-69763458D01*
X123383132Y-69763465D01*
X123523781Y-69865653D01*
X123678684Y-69944580D01*
X123844027Y-69998303D01*
X124015739Y-70025500D01*
X124015741Y-70025500D01*
X124439589Y-70025500D01*
X124439591Y-70025500D01*
X124611303Y-69998303D01*
X124776646Y-69944580D01*
X124931549Y-69865653D01*
X125072198Y-69763465D01*
X125195130Y-69640533D01*
X125297318Y-69499884D01*
X125376245Y-69344981D01*
X125429968Y-69179638D01*
X125457165Y-69007926D01*
X125457165Y-68834076D01*
X131533498Y-68834076D01*
X131533498Y-69007923D01*
X131533499Y-69007937D01*
X131560694Y-69179637D01*
X131614417Y-69344979D01*
X131614421Y-69344987D01*
X131693346Y-69499886D01*
X131795532Y-69640532D01*
X131795539Y-69640540D01*
X131918457Y-69763458D01*
X131918465Y-69763465D01*
X132059114Y-69865653D01*
X132214017Y-69944580D01*
X132379360Y-69998303D01*
X132551072Y-70025500D01*
X132551074Y-70025500D01*
X132974922Y-70025500D01*
X132974924Y-70025500D01*
X133146636Y-69998303D01*
X133311979Y-69944580D01*
X133466882Y-69865653D01*
X133607531Y-69763465D01*
X133730463Y-69640533D01*
X133832651Y-69499884D01*
X133911578Y-69344981D01*
X133965301Y-69179638D01*
X133992498Y-69007926D01*
X133992498Y-68834076D01*
X140068831Y-68834076D01*
X140068831Y-69007923D01*
X140068832Y-69007937D01*
X140096027Y-69179637D01*
X140149750Y-69344979D01*
X140149754Y-69344987D01*
X140228679Y-69499886D01*
X140330865Y-69640532D01*
X140330872Y-69640540D01*
X140453790Y-69763458D01*
X140453798Y-69763465D01*
X140594447Y-69865653D01*
X140749350Y-69944580D01*
X140914693Y-69998303D01*
X141086405Y-70025500D01*
X141086407Y-70025500D01*
X141510255Y-70025500D01*
X141510257Y-70025500D01*
X141681969Y-69998303D01*
X141847312Y-69944580D01*
X142002215Y-69865653D01*
X142142864Y-69763465D01*
X142265796Y-69640533D01*
X142367984Y-69499884D01*
X142446911Y-69344981D01*
X142500634Y-69179638D01*
X142527831Y-69007926D01*
X142527831Y-68834076D01*
X148604164Y-68834076D01*
X148604164Y-69007923D01*
X148604165Y-69007937D01*
X148631360Y-69179637D01*
X148685083Y-69344979D01*
X148685087Y-69344987D01*
X148764012Y-69499886D01*
X148866198Y-69640532D01*
X148866205Y-69640540D01*
X148989123Y-69763458D01*
X148989131Y-69763465D01*
X149129780Y-69865653D01*
X149284683Y-69944580D01*
X149450026Y-69998303D01*
X149621738Y-70025500D01*
X149621740Y-70025500D01*
X150045588Y-70025500D01*
X150045590Y-70025500D01*
X150217302Y-69998303D01*
X150382645Y-69944580D01*
X150537548Y-69865653D01*
X150678197Y-69763465D01*
X150801129Y-69640533D01*
X150903317Y-69499884D01*
X150982244Y-69344981D01*
X151035967Y-69179638D01*
X151063164Y-69007926D01*
X151063164Y-68834076D01*
X157139500Y-68834076D01*
X157139500Y-69007923D01*
X157139501Y-69007937D01*
X157166696Y-69179637D01*
X157220419Y-69344979D01*
X157220423Y-69344987D01*
X157299348Y-69499886D01*
X157401534Y-69640532D01*
X157401541Y-69640540D01*
X157524459Y-69763458D01*
X157524467Y-69763465D01*
X157665116Y-69865653D01*
X157820019Y-69944580D01*
X157985362Y-69998303D01*
X158157074Y-70025500D01*
X158157076Y-70025500D01*
X158580924Y-70025500D01*
X158580926Y-70025500D01*
X158752638Y-69998303D01*
X158917981Y-69944580D01*
X159072884Y-69865653D01*
X159213533Y-69763465D01*
X159336465Y-69640533D01*
X159438653Y-69499884D01*
X159517580Y-69344981D01*
X159571303Y-69179638D01*
X159598500Y-69007926D01*
X159598500Y-68834074D01*
X159571303Y-68662362D01*
X159517580Y-68497019D01*
X159438653Y-68342116D01*
X159428595Y-68328273D01*
X159336465Y-68201467D01*
X159336458Y-68201459D01*
X159213540Y-68078541D01*
X159213532Y-68078534D01*
X159072886Y-67976348D01*
X158917987Y-67897423D01*
X158917979Y-67897419D01*
X158752636Y-67843696D01*
X158752637Y-67843696D01*
X158580937Y-67816501D01*
X158580927Y-67816500D01*
X158580926Y-67816500D01*
X158157074Y-67816500D01*
X158157072Y-67816500D01*
X158157062Y-67816501D01*
X157985362Y-67843696D01*
X157820020Y-67897419D01*
X157820012Y-67897423D01*
X157665113Y-67976348D01*
X157524467Y-68078534D01*
X157524459Y-68078541D01*
X157401541Y-68201459D01*
X157401534Y-68201467D01*
X157299348Y-68342113D01*
X157220423Y-68497012D01*
X157220419Y-68497020D01*
X157166696Y-68662362D01*
X157139501Y-68834062D01*
X157139500Y-68834076D01*
X151063164Y-68834076D01*
X151063164Y-68834074D01*
X151035967Y-68662362D01*
X150982244Y-68497019D01*
X150903317Y-68342116D01*
X150893259Y-68328273D01*
X150801129Y-68201467D01*
X150801122Y-68201459D01*
X150678204Y-68078541D01*
X150678196Y-68078534D01*
X150537550Y-67976348D01*
X150382651Y-67897423D01*
X150382643Y-67897419D01*
X150217300Y-67843696D01*
X150217301Y-67843696D01*
X150045601Y-67816501D01*
X150045591Y-67816500D01*
X150045590Y-67816500D01*
X149621738Y-67816500D01*
X149621736Y-67816500D01*
X149621726Y-67816501D01*
X149450026Y-67843696D01*
X149284684Y-67897419D01*
X149284676Y-67897423D01*
X149129777Y-67976348D01*
X148989131Y-68078534D01*
X148989123Y-68078541D01*
X148866205Y-68201459D01*
X148866198Y-68201467D01*
X148764012Y-68342113D01*
X148685087Y-68497012D01*
X148685083Y-68497020D01*
X148631360Y-68662362D01*
X148604165Y-68834062D01*
X148604164Y-68834076D01*
X142527831Y-68834076D01*
X142527831Y-68834074D01*
X142500634Y-68662362D01*
X142446911Y-68497019D01*
X142367984Y-68342116D01*
X142357926Y-68328273D01*
X142265796Y-68201467D01*
X142265789Y-68201459D01*
X142142871Y-68078541D01*
X142142863Y-68078534D01*
X142002217Y-67976348D01*
X141847318Y-67897423D01*
X141847310Y-67897419D01*
X141681967Y-67843696D01*
X141681968Y-67843696D01*
X141510268Y-67816501D01*
X141510258Y-67816500D01*
X141510257Y-67816500D01*
X141086405Y-67816500D01*
X141086403Y-67816500D01*
X141086393Y-67816501D01*
X140914693Y-67843696D01*
X140749351Y-67897419D01*
X140749343Y-67897423D01*
X140594444Y-67976348D01*
X140453798Y-68078534D01*
X140453790Y-68078541D01*
X140330872Y-68201459D01*
X140330865Y-68201467D01*
X140228679Y-68342113D01*
X140149754Y-68497012D01*
X140149750Y-68497020D01*
X140096027Y-68662362D01*
X140068832Y-68834062D01*
X140068831Y-68834076D01*
X133992498Y-68834076D01*
X133992498Y-68834074D01*
X133965301Y-68662362D01*
X133911578Y-68497019D01*
X133832651Y-68342116D01*
X133822593Y-68328273D01*
X133730463Y-68201467D01*
X133730456Y-68201459D01*
X133607538Y-68078541D01*
X133607530Y-68078534D01*
X133466884Y-67976348D01*
X133311985Y-67897423D01*
X133311977Y-67897419D01*
X133146634Y-67843696D01*
X133146635Y-67843696D01*
X132974935Y-67816501D01*
X132974925Y-67816500D01*
X132974924Y-67816500D01*
X132551072Y-67816500D01*
X132551070Y-67816500D01*
X132551060Y-67816501D01*
X132379360Y-67843696D01*
X132214018Y-67897419D01*
X132214010Y-67897423D01*
X132059111Y-67976348D01*
X131918465Y-68078534D01*
X131918457Y-68078541D01*
X131795539Y-68201459D01*
X131795532Y-68201467D01*
X131693346Y-68342113D01*
X131614421Y-68497012D01*
X131614417Y-68497020D01*
X131560694Y-68662362D01*
X131533499Y-68834062D01*
X131533498Y-68834076D01*
X125457165Y-68834076D01*
X125457165Y-68834074D01*
X125429968Y-68662362D01*
X125376245Y-68497019D01*
X125297318Y-68342116D01*
X125287260Y-68328273D01*
X125195130Y-68201467D01*
X125195123Y-68201459D01*
X125072205Y-68078541D01*
X125072197Y-68078534D01*
X124931551Y-67976348D01*
X124776652Y-67897423D01*
X124776644Y-67897419D01*
X124611301Y-67843696D01*
X124611302Y-67843696D01*
X124439602Y-67816501D01*
X124439592Y-67816500D01*
X124439591Y-67816500D01*
X124015739Y-67816500D01*
X124015737Y-67816500D01*
X124015727Y-67816501D01*
X123844027Y-67843696D01*
X123678685Y-67897419D01*
X123678677Y-67897423D01*
X123523778Y-67976348D01*
X123383132Y-68078534D01*
X123383124Y-68078541D01*
X123260206Y-68201459D01*
X123260199Y-68201467D01*
X123158013Y-68342113D01*
X123079088Y-68497012D01*
X123079084Y-68497020D01*
X123025361Y-68662362D01*
X122998166Y-68834062D01*
X122998165Y-68834076D01*
X116921832Y-68834076D01*
X116921832Y-68834074D01*
X116894635Y-68662362D01*
X116840912Y-68497019D01*
X116761985Y-68342116D01*
X116751927Y-68328273D01*
X116659797Y-68201467D01*
X116659790Y-68201459D01*
X116536872Y-68078541D01*
X116536864Y-68078534D01*
X116396218Y-67976348D01*
X116241319Y-67897423D01*
X116241311Y-67897419D01*
X116075968Y-67843696D01*
X116075969Y-67843696D01*
X115904269Y-67816501D01*
X115904259Y-67816500D01*
X115904258Y-67816500D01*
X115480406Y-67816500D01*
X115480404Y-67816500D01*
X115480394Y-67816501D01*
X115308694Y-67843696D01*
X115143352Y-67897419D01*
X115143344Y-67897423D01*
X114988445Y-67976348D01*
X114847799Y-68078534D01*
X114847791Y-68078541D01*
X114724873Y-68201459D01*
X114724866Y-68201467D01*
X114622680Y-68342113D01*
X114543755Y-68497012D01*
X114543751Y-68497020D01*
X114490028Y-68662362D01*
X114462833Y-68834062D01*
X114462832Y-68834076D01*
X108386499Y-68834076D01*
X108386499Y-68834074D01*
X108359302Y-68662362D01*
X108305579Y-68497019D01*
X108226652Y-68342116D01*
X108216594Y-68328273D01*
X108124464Y-68201467D01*
X108124457Y-68201459D01*
X108001539Y-68078541D01*
X108001531Y-68078534D01*
X107860885Y-67976348D01*
X107705986Y-67897423D01*
X107705978Y-67897419D01*
X107540635Y-67843696D01*
X107540636Y-67843696D01*
X107368936Y-67816501D01*
X107368926Y-67816500D01*
X107368925Y-67816500D01*
X106945073Y-67816500D01*
X106945071Y-67816500D01*
X106945061Y-67816501D01*
X106773361Y-67843696D01*
X106608019Y-67897419D01*
X106608011Y-67897423D01*
X106453112Y-67976348D01*
X106312466Y-68078534D01*
X106312458Y-68078541D01*
X106189540Y-68201459D01*
X106189533Y-68201467D01*
X106087347Y-68342113D01*
X106008422Y-68497012D01*
X106008418Y-68497020D01*
X105954695Y-68662362D01*
X105927500Y-68834062D01*
X105927499Y-68834076D01*
X104265605Y-68834076D01*
X104263580Y-65473038D01*
X104281859Y-65428832D01*
X104326042Y-65410500D01*
X160465500Y-65410500D01*
X160465501Y-65410500D01*
X160564807Y-65390746D01*
X160609001Y-65372440D01*
X160693187Y-65316189D01*
X160749440Y-65232001D01*
X160766578Y-65190626D01*
X160767626Y-65188409D01*
X160767746Y-65187807D01*
X160767747Y-65187806D01*
X160787500Y-65088500D01*
X160787500Y-62165500D01*
X160787499Y-62164708D01*
X160767443Y-62065462D01*
X160749002Y-62021323D01*
X160709624Y-61962776D01*
X160692497Y-61937311D01*
X160608139Y-61881315D01*
X160566029Y-61864021D01*
X160564714Y-61863423D01*
X160563891Y-61863143D01*
X160563889Y-61863142D01*
X160563888Y-61863142D01*
X160496489Y-61849948D01*
X160464523Y-61843691D01*
X160464522Y-61843691D01*
X146578854Y-61885961D01*
X77150514Y-62097311D01*
X77068114Y-62113898D01*
X77051634Y-62117216D01*
X77024066Y-62128684D01*
X77007628Y-62135523D01*
X76923813Y-62191620D01*
X76867561Y-62275807D01*
X76867560Y-62275808D01*
X76850431Y-62317161D01*
X76849374Y-62319395D01*
X76829500Y-62419309D01*
X76201566Y-62419309D01*
X76202376Y-62353299D01*
X76202672Y-62347940D01*
X76240607Y-61962776D01*
X76241507Y-61956712D01*
X76316935Y-61577508D01*
X76318425Y-61571558D01*
X76430665Y-61201553D01*
X76432727Y-61195794D01*
X76580691Y-60838577D01*
X76583313Y-60833033D01*
X76765568Y-60492059D01*
X76768716Y-60486805D01*
X76983534Y-60165307D01*
X76987178Y-60160395D01*
X77232467Y-59861508D01*
X77236567Y-59856984D01*
X77509984Y-59583567D01*
X77514508Y-59579467D01*
X77813395Y-59334178D01*
X77818307Y-59330534D01*
X78139805Y-59115716D01*
X78145051Y-59112572D01*
X78486036Y-58930311D01*
X78491577Y-58927691D01*
X78848794Y-58779727D01*
X78854553Y-58777665D01*
X79224564Y-58665423D01*
X79230502Y-58663936D01*
X79609714Y-58588506D01*
X79615776Y-58587607D01*
X80000941Y-58549671D01*
X80006298Y-58549376D01*
X80199592Y-58547004D01*
X80200359Y-58547000D01*
X158813641Y-58547000D01*
X158814407Y-58547004D01*
G37*
%TD.AperFunction*%
%TD*%
%TA.AperFunction,Conductor*%
%TO.N,+5V*%
G36*
X160509559Y-62121361D02*
G01*
X160528000Y-62165500D01*
X160528000Y-65088500D01*
X160509694Y-65132694D01*
X160465500Y-65151000D01*
X104003885Y-65151000D01*
X104006144Y-68898695D01*
X103987865Y-68942901D01*
X103943682Y-68961233D01*
X103899477Y-68942954D01*
X103572247Y-68615724D01*
X103485254Y-68565499D01*
X103485253Y-68565498D01*
X103485252Y-68565498D01*
X103388229Y-68539500D01*
X103388225Y-68539500D01*
X101281500Y-68539500D01*
X101237306Y-68521194D01*
X101219000Y-68477000D01*
X101219000Y-65151000D01*
X82804000Y-65151000D01*
X80137000Y-65151000D01*
X80137000Y-72136000D01*
X82741500Y-72136000D01*
X82785694Y-72154306D01*
X82804000Y-72198500D01*
X82804000Y-84836000D01*
X82804000Y-96012000D01*
X98997500Y-96012000D01*
X99041694Y-96030306D01*
X99060000Y-96074500D01*
X99060000Y-98552000D01*
X103061500Y-98552000D01*
X103105694Y-98570306D01*
X103124000Y-98614500D01*
X103124000Y-99505500D01*
X103105694Y-99549694D01*
X103061500Y-99568000D01*
X97282000Y-99568000D01*
X97282000Y-100344100D01*
X97269535Y-100381553D01*
X97265660Y-100386728D01*
X97265656Y-100386736D01*
X97214960Y-100522656D01*
X97208500Y-100582737D01*
X97208500Y-101354246D01*
X97208501Y-101354263D01*
X97214960Y-101414343D01*
X97265657Y-101550265D01*
X97265658Y-101550267D01*
X97269534Y-101555445D01*
X97282000Y-101592899D01*
X97282000Y-103632000D01*
X105097873Y-103632000D01*
X105105512Y-103632501D01*
X105105775Y-103632501D01*
X105210050Y-103632501D01*
X105210066Y-103632500D01*
X108635484Y-103632500D01*
X108643121Y-103632000D01*
X110456391Y-103632000D01*
X110493845Y-103644465D01*
X110521733Y-103665342D01*
X110657658Y-103716040D01*
X110717745Y-103722500D01*
X111489254Y-103722499D01*
X111549342Y-103716040D01*
X111685267Y-103665342D01*
X111713154Y-103644465D01*
X111750609Y-103632000D01*
X112522000Y-103632000D01*
X112522000Y-101916500D01*
X112540306Y-101872306D01*
X112584500Y-101854000D01*
X114300000Y-101854000D01*
X114300000Y-99376500D01*
X114318306Y-99332306D01*
X114362500Y-99314000D01*
X115634500Y-99314000D01*
X115678694Y-99332306D01*
X115697000Y-99376500D01*
X115697000Y-101672500D01*
X115678694Y-101716694D01*
X115634500Y-101735000D01*
X115244412Y-101735000D01*
X115164200Y-101750954D01*
X115164198Y-101750955D01*
X115073235Y-101811735D01*
X115012455Y-101902698D01*
X115012454Y-101902700D01*
X114996500Y-101982911D01*
X114996500Y-103566088D01*
X115012454Y-103646299D01*
X115012455Y-103646301D01*
X115073235Y-103737264D01*
X115164198Y-103798044D01*
X115164200Y-103798045D01*
X115244412Y-103814000D01*
X115667588Y-103814000D01*
X115747800Y-103798045D01*
X115838764Y-103737264D01*
X115899545Y-103646300D01*
X115915500Y-103566088D01*
X115915500Y-101982912D01*
X115904715Y-101928692D01*
X115914047Y-101881777D01*
X115953821Y-101855201D01*
X115966014Y-101854000D01*
X116245986Y-101854000D01*
X116290180Y-101872306D01*
X116308486Y-101916500D01*
X116307285Y-101928690D01*
X116301001Y-101960283D01*
X116296500Y-101982911D01*
X116296500Y-103566088D01*
X116312454Y-103646299D01*
X116312455Y-103646301D01*
X116373233Y-103737261D01*
X116373236Y-103737264D01*
X116431224Y-103776011D01*
X116457799Y-103815783D01*
X116459000Y-103827976D01*
X116459000Y-104084187D01*
X116454940Y-104106347D01*
X116453849Y-104109221D01*
X116434693Y-104266996D01*
X116434693Y-104267003D01*
X116453849Y-104424779D01*
X116453850Y-104424780D01*
X116454937Y-104427646D01*
X116459000Y-104449812D01*
X116459000Y-104585000D01*
X116440694Y-104629194D01*
X116396500Y-104647500D01*
X105232516Y-104647500D01*
X105224879Y-104648000D01*
X95693500Y-104648000D01*
X95649306Y-104629694D01*
X95631000Y-104585500D01*
X95631000Y-99568000D01*
X82804000Y-99568000D01*
X82804000Y-132588000D01*
X88329000Y-132588000D01*
X88373194Y-132606306D01*
X88391500Y-132650500D01*
X88391500Y-135174340D01*
X88373194Y-135218534D01*
X88329101Y-135236840D01*
X77151601Y-135254898D01*
X77107377Y-135236664D01*
X77089000Y-135192499D01*
X77089000Y-62419310D01*
X77107306Y-62375116D01*
X77151309Y-62356810D01*
X160465312Y-62103190D01*
X160509559Y-62121361D01*
G37*
%TD.AperFunction*%
%TA.AperFunction,Conductor*%
G36*
X90405194Y-132606306D02*
G01*
X90423500Y-132650500D01*
X90423500Y-135171058D01*
X90405194Y-135215252D01*
X90361101Y-135233558D01*
X89217101Y-135235406D01*
X89172877Y-135217172D01*
X89154500Y-135173007D01*
X89154500Y-132650500D01*
X89172806Y-132606306D01*
X89217000Y-132588000D01*
X90361000Y-132588000D01*
X90405194Y-132606306D01*
G37*
%TD.AperFunction*%
%TA.AperFunction,Conductor*%
G36*
X96172783Y-132606306D02*
G01*
X98679973Y-135113496D01*
X98698279Y-135157690D01*
X98679973Y-135201884D01*
X98635880Y-135220190D01*
X91474272Y-135231760D01*
X91430049Y-135213526D01*
X91204806Y-134988283D01*
X91186500Y-134944089D01*
X91186500Y-132650500D01*
X91204806Y-132606306D01*
X91249000Y-132588000D01*
X96128589Y-132588000D01*
X96172783Y-132606306D01*
G37*
%TD.AperFunction*%
%TA.AperFunction,Conductor*%
G36*
X126198194Y-132606306D02*
G01*
X126216500Y-132650500D01*
X126216500Y-134330088D01*
X126198194Y-134374282D01*
X125413780Y-135158695D01*
X125369687Y-135177001D01*
X99889677Y-135218165D01*
X99845454Y-135199931D01*
X97340217Y-132694694D01*
X97321911Y-132650500D01*
X97340217Y-132606306D01*
X97384411Y-132588000D01*
X126154000Y-132588000D01*
X126198194Y-132606306D01*
G37*
%TD.AperFunction*%
%TA.AperFunction,Conductor*%
G36*
X128738194Y-132606306D02*
G01*
X128756500Y-132650500D01*
X128756500Y-134076088D01*
X128738194Y-134120282D01*
X127703479Y-135154996D01*
X127659386Y-135173302D01*
X126627541Y-135174969D01*
X126583317Y-135156735D01*
X126564940Y-135112570D01*
X126583171Y-135068351D01*
X126903276Y-134748247D01*
X126904285Y-134746500D01*
X126953501Y-134661254D01*
X126979500Y-134564225D01*
X126979500Y-132650500D01*
X126997806Y-132606306D01*
X127042000Y-132588000D01*
X128694000Y-132588000D01*
X128738194Y-132606306D01*
G37*
%TD.AperFunction*%
%TA.AperFunction,Conductor*%
G36*
X131278194Y-132606306D02*
G01*
X131296500Y-132650500D01*
X131296500Y-133949088D01*
X131278194Y-133993282D01*
X130120384Y-135151091D01*
X130076291Y-135169397D01*
X128917240Y-135171270D01*
X128873016Y-135153036D01*
X128854639Y-135108871D01*
X128872870Y-135064652D01*
X129443276Y-134494247D01*
X129493502Y-134407253D01*
X129519501Y-134310225D01*
X129519501Y-134209775D01*
X129519501Y-134205951D01*
X129519500Y-134205933D01*
X129519500Y-132650500D01*
X129537806Y-132606306D01*
X129582000Y-132588000D01*
X131234000Y-132588000D01*
X131278194Y-132606306D01*
G37*
%TD.AperFunction*%
%TA.AperFunction,Conductor*%
G36*
X155683694Y-132606306D02*
G01*
X155702000Y-132650500D01*
X155702000Y-135065600D01*
X155683694Y-135109794D01*
X155639601Y-135128100D01*
X131334143Y-135167365D01*
X131289919Y-135149131D01*
X131271542Y-135104966D01*
X131289773Y-135060747D01*
X131907100Y-134443420D01*
X131907105Y-134443417D01*
X131912245Y-134438276D01*
X131912247Y-134438276D01*
X131983276Y-134367247D01*
X132033501Y-134280254D01*
X132059500Y-134183225D01*
X132059500Y-132650500D01*
X132077806Y-132606306D01*
X132122000Y-132588000D01*
X155639500Y-132588000D01*
X155683694Y-132606306D01*
G37*
%TD.AperFunction*%
%TA.AperFunction,Conductor*%
G36*
X122663694Y-81298806D02*
G01*
X122682000Y-81343000D01*
X122682000Y-86678894D01*
X122663694Y-86723088D01*
X122619896Y-86741393D01*
X115130060Y-86788796D01*
X115085750Y-86770770D01*
X115067165Y-86726693D01*
X115075537Y-86695048D01*
X115086405Y-86676226D01*
X115171710Y-86470281D01*
X115229404Y-86254963D01*
X115258500Y-86033957D01*
X115258500Y-85811043D01*
X115229404Y-85590037D01*
X115171710Y-85374719D01*
X115086405Y-85168774D01*
X114974948Y-84975726D01*
X114839247Y-84798876D01*
X114681624Y-84641253D01*
X114681620Y-84641250D01*
X114681618Y-84641248D01*
X114504771Y-84505550D01*
X114311732Y-84394098D01*
X114311729Y-84394096D01*
X114311726Y-84394095D01*
X114105781Y-84308790D01*
X114105774Y-84308788D01*
X114105769Y-84308786D01*
X113890466Y-84251096D01*
X113669461Y-84222000D01*
X113669457Y-84222000D01*
X113446543Y-84222000D01*
X113446538Y-84222000D01*
X113225533Y-84251096D01*
X113225532Y-84251096D01*
X113010230Y-84308786D01*
X113010222Y-84308788D01*
X113010219Y-84308790D01*
X112804274Y-84394095D01*
X112804267Y-84394098D01*
X112611228Y-84505550D01*
X112434381Y-84641248D01*
X112434371Y-84641257D01*
X112276757Y-84798871D01*
X112276748Y-84798881D01*
X112141050Y-84975728D01*
X112029598Y-85168767D01*
X112029595Y-85168773D01*
X112029595Y-85168774D01*
X111944290Y-85374719D01*
X111944288Y-85374722D01*
X111944286Y-85374730D01*
X111886596Y-85590032D01*
X111886596Y-85590033D01*
X111857500Y-85811038D01*
X111857500Y-86033961D01*
X111886596Y-86254966D01*
X111886596Y-86254967D01*
X111944287Y-86470271D01*
X111944290Y-86470281D01*
X111974444Y-86543079D01*
X112029593Y-86676222D01*
X112029598Y-86676232D01*
X112051905Y-86714870D01*
X112058148Y-86762296D01*
X112029027Y-86800246D01*
X111998174Y-86808618D01*
X102678896Y-86867601D01*
X102634586Y-86849575D01*
X102616001Y-86805498D01*
X102616000Y-86805102D01*
X102616000Y-81343000D01*
X102634306Y-81298806D01*
X102678500Y-81280500D01*
X122619500Y-81280500D01*
X122663694Y-81298806D01*
G37*
%TD.AperFunction*%
%TA.AperFunction,Conductor*%
G36*
X103992894Y-77234806D02*
G01*
X104011199Y-77278961D01*
X104013000Y-80264000D01*
X122619500Y-80264000D01*
X122663694Y-80282306D01*
X122682000Y-80326500D01*
X122682000Y-80455000D01*
X122663694Y-80499194D01*
X122619500Y-80517500D01*
X102678500Y-80517500D01*
X102634306Y-80499194D01*
X102616000Y-80455000D01*
X102616000Y-79756000D01*
X101281500Y-79756000D01*
X101237306Y-79737694D01*
X101219000Y-79693500D01*
X101219000Y-77279000D01*
X101237306Y-77234806D01*
X101281500Y-77216500D01*
X103948700Y-77216500D01*
X103992894Y-77234806D01*
G37*
%TD.AperFunction*%
%TA.AperFunction,Conductor*%
G36*
X103198283Y-69320806D02*
G01*
X103988596Y-70111119D01*
X104006902Y-70155275D01*
X104010664Y-76390962D01*
X103992385Y-76435168D01*
X103948202Y-76453500D01*
X101281500Y-76453500D01*
X101237306Y-76435194D01*
X101219000Y-76391000D01*
X101219000Y-69365000D01*
X101237306Y-69320806D01*
X101281500Y-69302500D01*
X103154089Y-69302500D01*
X103198283Y-69320806D01*
G37*
%TD.AperFunction*%
%TD*%
M02*
