%TF.GenerationSoftware,KiCad,Pcbnew,7.0.10*%
%TF.CreationDate,2025-02-27T15:13:30+08:00*%
%TF.ProjectId,V0-UmbilicalBoard,56302d55-6d62-4696-9c69-63616c426f61,rev?*%
%TF.SameCoordinates,Original*%
%TF.FileFunction,Copper,L1,Top*%
%TF.FilePolarity,Positive*%
%FSLAX46Y46*%
G04 Gerber Fmt 4.6, Leading zero omitted, Abs format (unit mm)*
G04 Created by KiCad (PCBNEW 7.0.10) date 2025-02-27 15:13:30*
%MOMM*%
%LPD*%
G01*
G04 APERTURE LIST*
G04 Aperture macros list*
%AMRoundRect*
0 Rectangle with rounded corners*
0 $1 Rounding radius*
0 $2 $3 $4 $5 $6 $7 $8 $9 X,Y pos of 4 corners*
0 Add a 4 corners polygon primitive as box body*
4,1,4,$2,$3,$4,$5,$6,$7,$8,$9,$2,$3,0*
0 Add four circle primitives for the rounded corners*
1,1,$1+$1,$2,$3*
1,1,$1+$1,$4,$5*
1,1,$1+$1,$6,$7*
1,1,$1+$1,$8,$9*
0 Add four rect primitives between the rounded corners*
20,1,$1+$1,$2,$3,$4,$5,0*
20,1,$1+$1,$4,$5,$6,$7,0*
20,1,$1+$1,$6,$7,$8,$9,0*
20,1,$1+$1,$8,$9,$2,$3,0*%
G04 Aperture macros list end*
%TA.AperFunction,ComponentPad*%
%ADD10RoundRect,0.250000X-0.600000X-0.725000X0.600000X-0.725000X0.600000X0.725000X-0.600000X0.725000X0*%
%TD*%
%TA.AperFunction,ComponentPad*%
%ADD11O,1.700000X1.950000*%
%TD*%
%TA.AperFunction,ComponentPad*%
%ADD12C,6.400000*%
%TD*%
%TA.AperFunction,ComponentPad*%
%ADD13RoundRect,0.250000X-0.600000X-0.750000X0.600000X-0.750000X0.600000X0.750000X-0.600000X0.750000X0*%
%TD*%
%TA.AperFunction,ComponentPad*%
%ADD14O,1.700000X2.000000*%
%TD*%
%TA.AperFunction,ComponentPad*%
%ADD15R,2.600000X2.600000*%
%TD*%
%TA.AperFunction,ComponentPad*%
%ADD16C,2.600000*%
%TD*%
%TA.AperFunction,ComponentPad*%
%ADD17RoundRect,0.250001X-0.499999X-0.499999X0.499999X-0.499999X0.499999X0.499999X-0.499999X0.499999X0*%
%TD*%
%TA.AperFunction,ComponentPad*%
%ADD18C,1.500000*%
%TD*%
%TA.AperFunction,Conductor*%
%ADD19C,0.500000*%
%TD*%
G04 APERTURE END LIST*
D10*
%TO.P,J2,1,Pin_1*%
%TO.N,/A1*%
X109250000Y-103475000D03*
D11*
%TO.P,J2,2,Pin_2*%
%TO.N,/A2*%
X111750000Y-103475000D03*
%TO.P,J2,3,Pin_3*%
%TO.N,/B1*%
X114250000Y-103475000D03*
%TO.P,J2,4,Pin_4*%
%TO.N,/B2*%
X116750000Y-103475000D03*
%TD*%
D12*
%TO.P,H1,1,1*%
%TO.N,GND*%
X91000000Y-110000000D03*
%TD*%
D13*
%TO.P,J3,1,Pin_1*%
%TO.N,/Hotend_Fan-*%
X135250000Y-115475000D03*
D14*
%TO.P,J3,2,Pin_2*%
%TO.N,/Hotend_Fan+*%
X137750000Y-115475000D03*
%TD*%
D15*
%TO.P,J5,1,Pin_1*%
%TO.N,Net-(J1-Pin_7)*%
X140045000Y-105695000D03*
D16*
%TO.P,J5,2,Pin_2*%
%TO.N,Net-(J1-Pin_6)*%
X134965000Y-105695000D03*
%TD*%
D12*
%TO.P,H2,1,1*%
%TO.N,GND*%
X147000000Y-110000000D03*
%TD*%
D13*
%TO.P,J7,1,Pin_1*%
%TO.N,Net-(J1-Pin_5)*%
X97750000Y-103500000D03*
D14*
%TO.P,J7,2,Pin_2*%
%TO.N,Net-(J1-Pin_8)*%
X100250000Y-103500000D03*
%TD*%
D13*
%TO.P,J4,1,Pin_1*%
%TO.N,/PartFan+*%
X97750000Y-115475000D03*
D14*
%TO.P,J4,2,Pin_2*%
%TO.N,/PartFan-*%
X100250000Y-115475000D03*
%TD*%
D13*
%TO.P,J6,1,Pin_1*%
%TO.N,Net-(J1-Pin_14)*%
X124500000Y-103500000D03*
D14*
%TO.P,J6,2,Pin_2*%
%TO.N,Net-(J1-Pin_13)*%
X127000000Y-103500000D03*
%TD*%
D17*
%TO.P,J1,1,Pin_1*%
%TO.N,/A1*%
X109000000Y-111000000D03*
D18*
%TO.P,J1,2,Pin_2*%
%TO.N,/A2*%
X112000000Y-111000000D03*
%TO.P,J1,3,Pin_3*%
%TO.N,/B1*%
X115000000Y-111000000D03*
%TO.P,J1,4,Pin_4*%
%TO.N,/B2*%
X118000000Y-111000000D03*
%TO.P,J1,5,Pin_5*%
%TO.N,Net-(J1-Pin_5)*%
X121000000Y-111000000D03*
%TO.P,J1,6,Pin_6*%
%TO.N,Net-(J1-Pin_6)*%
X124000000Y-111000000D03*
%TO.P,J1,7,Pin_7*%
%TO.N,Net-(J1-Pin_7)*%
X127000000Y-111000000D03*
%TO.P,J1,8,Pin_8*%
%TO.N,Net-(J1-Pin_8)*%
X109000000Y-114000000D03*
%TO.P,J1,9,Pin_9*%
%TO.N,/PartFan+*%
X112000000Y-114000000D03*
%TO.P,J1,10,Pin_10*%
%TO.N,/PartFan-*%
X115000000Y-114000000D03*
%TO.P,J1,11,Pin_11*%
%TO.N,/Hotend_Fan-*%
X118000000Y-114000000D03*
%TO.P,J1,12,Pin_12*%
%TO.N,/Hotend_Fan+*%
X121000000Y-114000000D03*
%TO.P,J1,13,Pin_13*%
%TO.N,Net-(J1-Pin_13)*%
X124000000Y-114000000D03*
%TO.P,J1,14,Pin_14*%
%TO.N,Net-(J1-Pin_14)*%
X127000000Y-114000000D03*
%TD*%
D19*
%TO.N,Net-(J1-Pin_6)*%
X124000000Y-107000000D02*
X124000000Y-111000000D01*
X134965000Y-105695000D02*
X125305000Y-105695000D01*
X125305000Y-105695000D02*
X124000000Y-107000000D01*
%TO.N,Net-(J1-Pin_7)*%
X140045000Y-109455000D02*
X138500000Y-111000000D01*
X138500000Y-111000000D02*
X127000000Y-111000000D01*
X140045000Y-105695000D02*
X140045000Y-109455000D01*
%TO.N,Net-(J1-Pin_8)*%
X109000000Y-114000000D02*
X107500000Y-114000000D01*
X107500000Y-114000000D02*
X106000000Y-112500000D01*
X106000000Y-112500000D02*
X106000000Y-105000000D01*
X104500000Y-103500000D02*
X100250000Y-103500000D01*
X106000000Y-105000000D02*
X104500000Y-103500000D01*
%TO.N,/Hotend_Fan+*%
X137750000Y-115475000D02*
X137750000Y-113950000D01*
X133200000Y-112800000D02*
X132000000Y-114000000D01*
X121000000Y-115500000D02*
X121000000Y-114000000D01*
X137750000Y-113950000D02*
X136600000Y-112800000D01*
X136600000Y-112800000D02*
X133200000Y-112800000D01*
X132000000Y-115750000D02*
X131250000Y-116500000D01*
X122000000Y-116500000D02*
X121000000Y-115500000D01*
X132000000Y-114000000D02*
X132000000Y-115750000D01*
X131250000Y-116500000D02*
X122000000Y-116500000D01*
X137750000Y-115975000D02*
X137750000Y-115475000D01*
%TO.N,/Hotend_Fan-*%
X118000000Y-117000000D02*
X118000000Y-114000000D01*
X119200000Y-118200000D02*
X118000000Y-117000000D01*
X135250000Y-117250000D02*
X134300000Y-118200000D01*
X135250000Y-115475000D02*
X135250000Y-117250000D01*
X134300000Y-118200000D02*
X119200000Y-118200000D01*
%TO.N,/PartFan-*%
X101000000Y-118000000D02*
X114000000Y-118000000D01*
X115000000Y-117000000D02*
X115000000Y-114000000D01*
X100250000Y-115475000D02*
X100250000Y-117250000D01*
X100250000Y-117250000D02*
X101000000Y-118000000D01*
X114000000Y-118000000D02*
X115000000Y-117000000D01*
%TO.N,/PartFan+*%
X102300000Y-112800000D02*
X103500000Y-114000000D01*
X97750000Y-115475000D02*
X97750000Y-113750000D01*
X98700000Y-112800000D02*
X102300000Y-112800000D01*
X103500000Y-114000000D02*
X103500000Y-115500000D01*
X112000000Y-115500000D02*
X112000000Y-114000000D01*
X104500000Y-116500000D02*
X111000000Y-116500000D01*
X103500000Y-115500000D02*
X104500000Y-116500000D01*
X111000000Y-116500000D02*
X112000000Y-115500000D01*
X97750000Y-113750000D02*
X98700000Y-112800000D01*
%TO.N,/B2*%
X116750000Y-106750000D02*
X118000000Y-108000000D01*
X116750000Y-103475000D02*
X116750000Y-106750000D01*
X118000000Y-108000000D02*
X118000000Y-111000000D01*
%TO.N,/B1*%
X114250000Y-103475000D02*
X114250000Y-110250000D01*
X114250000Y-110250000D02*
X115000000Y-111000000D01*
%TO.N,/A2*%
X111750000Y-110750000D02*
X112000000Y-111000000D01*
X111750000Y-103475000D02*
X111750000Y-110750000D01*
%TO.N,/A1*%
X109250000Y-103475000D02*
X109250000Y-110750000D01*
X109250000Y-110750000D02*
X109000000Y-111000000D01*
%TD*%
%TA.AperFunction,Conductor*%
%TO.N,GND*%
G36*
X150417539Y-100045185D02*
G01*
X150463294Y-100097989D01*
X150474500Y-100149500D01*
X150474500Y-119850500D01*
X150454815Y-119917539D01*
X150402011Y-119963294D01*
X150350500Y-119974500D01*
X87649500Y-119974500D01*
X87582461Y-119954815D01*
X87536706Y-119902011D01*
X87525500Y-119850500D01*
X87525500Y-116275537D01*
X96391500Y-116275537D01*
X96391501Y-116275553D01*
X96402113Y-116379427D01*
X96457884Y-116547735D01*
X96457886Y-116547740D01*
X96470626Y-116568394D01*
X96550970Y-116698652D01*
X96676348Y-116824030D01*
X96827262Y-116917115D01*
X96995574Y-116972887D01*
X97099455Y-116983500D01*
X98400544Y-116983499D01*
X98504426Y-116972887D01*
X98672738Y-116917115D01*
X98823652Y-116824030D01*
X98949030Y-116698652D01*
X99040417Y-116550489D01*
X99092363Y-116503768D01*
X99161326Y-116492545D01*
X99225408Y-116520389D01*
X99235468Y-116529780D01*
X99349228Y-116648476D01*
X99441235Y-116716523D01*
X99483429Y-116772211D01*
X99491500Y-116816218D01*
X99491500Y-117185706D01*
X99490191Y-117203676D01*
X99486658Y-117227791D01*
X99491028Y-117277724D01*
X99491500Y-117288533D01*
X99491500Y-117294183D01*
X99495139Y-117325322D01*
X99495505Y-117328905D01*
X99502112Y-117404426D01*
X99503572Y-117411494D01*
X99503526Y-117411503D01*
X99505209Y-117419094D01*
X99505254Y-117419084D01*
X99506919Y-117426110D01*
X99532854Y-117497367D01*
X99534037Y-117500770D01*
X99556985Y-117570020D01*
X99557886Y-117572738D01*
X99557889Y-117572743D01*
X99560940Y-117579286D01*
X99560896Y-117579306D01*
X99564284Y-117586304D01*
X99564327Y-117586283D01*
X99567568Y-117592737D01*
X99609245Y-117656103D01*
X99611167Y-117659120D01*
X99650970Y-117723651D01*
X99650971Y-117723652D01*
X99650973Y-117723655D01*
X99655451Y-117729318D01*
X99655413Y-117729347D01*
X99660320Y-117735372D01*
X99660357Y-117735342D01*
X99665002Y-117740877D01*
X99720172Y-117792927D01*
X99722760Y-117795441D01*
X100418196Y-118490877D01*
X100429977Y-118504509D01*
X100444531Y-118524058D01*
X100482945Y-118556291D01*
X100490908Y-118563589D01*
X100494900Y-118567581D01*
X100519485Y-118587021D01*
X100522279Y-118589297D01*
X100533879Y-118599030D01*
X100580360Y-118638032D01*
X100580362Y-118638033D01*
X100586396Y-118642002D01*
X100586369Y-118642042D01*
X100592921Y-118646216D01*
X100592947Y-118646175D01*
X100599091Y-118649965D01*
X100599094Y-118649967D01*
X100667840Y-118682023D01*
X100671031Y-118683569D01*
X100738811Y-118717609D01*
X100745594Y-118720077D01*
X100745577Y-118720122D01*
X100752925Y-118722676D01*
X100752941Y-118722631D01*
X100759789Y-118724899D01*
X100759794Y-118724902D01*
X100834112Y-118740246D01*
X100837531Y-118741005D01*
X100911344Y-118758500D01*
X100911345Y-118758500D01*
X100911349Y-118758501D01*
X100918517Y-118759339D01*
X100918511Y-118759386D01*
X100926242Y-118760176D01*
X100926247Y-118760129D01*
X100933437Y-118760758D01*
X100933441Y-118760757D01*
X100933442Y-118760758D01*
X101009258Y-118758552D01*
X101012864Y-118758500D01*
X113935706Y-118758500D01*
X113953676Y-118759809D01*
X113955862Y-118760129D01*
X113977789Y-118763341D01*
X114027727Y-118758971D01*
X114038534Y-118758500D01*
X114044175Y-118758500D01*
X114044180Y-118758500D01*
X114075370Y-118754853D01*
X114078851Y-118754498D01*
X114129822Y-118750039D01*
X114154418Y-118747888D01*
X114154420Y-118747887D01*
X114154426Y-118747887D01*
X114154431Y-118747885D01*
X114161493Y-118746427D01*
X114161502Y-118746474D01*
X114169097Y-118744790D01*
X114169087Y-118744744D01*
X114176108Y-118743079D01*
X114176113Y-118743079D01*
X114247414Y-118717126D01*
X114250708Y-118715981D01*
X114322738Y-118692114D01*
X114322744Y-118692110D01*
X114329284Y-118689061D01*
X114329305Y-118689106D01*
X114336302Y-118685719D01*
X114336280Y-118685675D01*
X114342728Y-118682436D01*
X114342732Y-118682435D01*
X114406103Y-118640753D01*
X114409110Y-118638837D01*
X114473651Y-118599030D01*
X114473656Y-118599024D01*
X114479319Y-118594548D01*
X114479350Y-118594587D01*
X114485374Y-118589680D01*
X114485342Y-118589642D01*
X114490864Y-118585006D01*
X114490874Y-118585001D01*
X114542962Y-118529789D01*
X114545409Y-118527270D01*
X115490880Y-117581799D01*
X115504506Y-117570023D01*
X115524058Y-117555469D01*
X115524060Y-117555467D01*
X115556274Y-117517075D01*
X115563590Y-117509090D01*
X115567581Y-117505100D01*
X115587047Y-117480479D01*
X115589295Y-117477721D01*
X115592711Y-117473651D01*
X115638032Y-117419640D01*
X115638033Y-117419637D01*
X115642004Y-117413601D01*
X115642045Y-117413628D01*
X115646219Y-117407076D01*
X115646176Y-117407050D01*
X115649961Y-117400912D01*
X115649967Y-117400905D01*
X115682021Y-117332163D01*
X115683579Y-117328946D01*
X115701040Y-117294180D01*
X115717609Y-117261188D01*
X115717611Y-117261179D01*
X115720077Y-117254405D01*
X115720124Y-117254422D01*
X115722675Y-117247083D01*
X115722629Y-117247068D01*
X115724900Y-117240210D01*
X115724903Y-117240206D01*
X115740244Y-117165905D01*
X115741021Y-117162401D01*
X115741236Y-117161494D01*
X115758500Y-117088656D01*
X115758500Y-117088653D01*
X115759339Y-117081483D01*
X115759386Y-117081488D01*
X115760177Y-117073757D01*
X115760130Y-117073753D01*
X115760759Y-117066562D01*
X115760599Y-117061078D01*
X115758552Y-116990707D01*
X115758500Y-116987101D01*
X115758500Y-115069787D01*
X115778185Y-115002748D01*
X115808166Y-114971553D01*
X115807893Y-114971228D01*
X115810922Y-114968686D01*
X115811380Y-114968210D01*
X115811645Y-114968023D01*
X115812038Y-114967749D01*
X115967749Y-114812038D01*
X116094056Y-114631654D01*
X116187120Y-114432076D01*
X116244115Y-114219371D01*
X116261439Y-114021351D01*
X116263307Y-114000002D01*
X116736693Y-114000002D01*
X116755884Y-114219365D01*
X116755885Y-114219372D01*
X116768114Y-114265009D01*
X116812880Y-114432076D01*
X116812881Y-114432079D01*
X116812882Y-114432081D01*
X116877461Y-114570572D01*
X116905944Y-114631654D01*
X117032251Y-114812038D01*
X117115692Y-114895479D01*
X117187963Y-114967750D01*
X117188620Y-114968210D01*
X117188843Y-114968490D01*
X117192107Y-114971228D01*
X117191556Y-114971883D01*
X117232247Y-115022785D01*
X117241500Y-115069787D01*
X117241500Y-116935706D01*
X117240191Y-116953676D01*
X117236658Y-116977791D01*
X117241028Y-117027724D01*
X117241500Y-117038533D01*
X117241500Y-117044183D01*
X117245139Y-117075322D01*
X117245505Y-117078905D01*
X117252112Y-117154426D01*
X117253572Y-117161494D01*
X117253526Y-117161503D01*
X117255209Y-117169094D01*
X117255254Y-117169084D01*
X117256919Y-117176110D01*
X117282854Y-117247367D01*
X117284037Y-117250770D01*
X117305838Y-117316558D01*
X117307886Y-117322738D01*
X117307889Y-117322743D01*
X117310940Y-117329286D01*
X117310896Y-117329306D01*
X117314284Y-117336304D01*
X117314327Y-117336283D01*
X117317568Y-117342737D01*
X117359245Y-117406103D01*
X117361167Y-117409120D01*
X117400970Y-117473651D01*
X117400971Y-117473652D01*
X117400973Y-117473655D01*
X117405451Y-117479318D01*
X117405413Y-117479347D01*
X117410320Y-117485372D01*
X117410357Y-117485342D01*
X117415002Y-117490877D01*
X117470172Y-117542927D01*
X117472760Y-117545441D01*
X118618196Y-118690877D01*
X118629977Y-118704509D01*
X118644531Y-118724058D01*
X118682945Y-118756291D01*
X118690908Y-118763589D01*
X118694900Y-118767581D01*
X118719485Y-118787021D01*
X118722279Y-118789297D01*
X118733879Y-118799030D01*
X118780360Y-118838032D01*
X118780362Y-118838033D01*
X118786396Y-118842002D01*
X118786369Y-118842042D01*
X118792921Y-118846216D01*
X118792947Y-118846175D01*
X118799091Y-118849965D01*
X118799094Y-118849967D01*
X118867840Y-118882023D01*
X118871031Y-118883569D01*
X118938811Y-118917609D01*
X118945594Y-118920077D01*
X118945577Y-118920122D01*
X118952925Y-118922676D01*
X118952941Y-118922631D01*
X118959789Y-118924899D01*
X118959794Y-118924902D01*
X119034112Y-118940246D01*
X119037531Y-118941005D01*
X119111344Y-118958500D01*
X119111345Y-118958500D01*
X119111349Y-118958501D01*
X119118517Y-118959339D01*
X119118511Y-118959386D01*
X119126242Y-118960176D01*
X119126247Y-118960129D01*
X119133437Y-118960758D01*
X119133441Y-118960757D01*
X119133442Y-118960758D01*
X119209258Y-118958552D01*
X119212864Y-118958500D01*
X134235706Y-118958500D01*
X134253676Y-118959809D01*
X134255862Y-118960129D01*
X134277789Y-118963341D01*
X134327727Y-118958971D01*
X134338534Y-118958500D01*
X134344175Y-118958500D01*
X134344180Y-118958500D01*
X134375370Y-118954853D01*
X134378851Y-118954498D01*
X134429822Y-118950039D01*
X134454418Y-118947888D01*
X134454420Y-118947887D01*
X134454426Y-118947887D01*
X134454431Y-118947885D01*
X134461493Y-118946427D01*
X134461502Y-118946474D01*
X134469097Y-118944790D01*
X134469087Y-118944744D01*
X134476108Y-118943079D01*
X134476113Y-118943079D01*
X134547414Y-118917126D01*
X134550708Y-118915981D01*
X134622738Y-118892114D01*
X134622744Y-118892110D01*
X134629284Y-118889061D01*
X134629305Y-118889106D01*
X134636302Y-118885719D01*
X134636280Y-118885675D01*
X134642728Y-118882436D01*
X134642732Y-118882435D01*
X134706103Y-118840753D01*
X134709110Y-118838837D01*
X134773651Y-118799030D01*
X134773656Y-118799024D01*
X134779319Y-118794548D01*
X134779350Y-118794587D01*
X134785374Y-118789680D01*
X134785342Y-118789642D01*
X134790864Y-118785006D01*
X134790874Y-118785001D01*
X134842962Y-118729789D01*
X134845409Y-118727270D01*
X135740880Y-117831799D01*
X135754506Y-117820023D01*
X135774058Y-117805469D01*
X135774060Y-117805467D01*
X135806274Y-117767075D01*
X135813590Y-117759090D01*
X135817581Y-117755100D01*
X135837047Y-117730479D01*
X135839295Y-117727721D01*
X135842711Y-117723651D01*
X135888032Y-117669640D01*
X135888033Y-117669637D01*
X135892004Y-117663601D01*
X135892045Y-117663628D01*
X135896219Y-117657076D01*
X135896176Y-117657050D01*
X135899961Y-117650912D01*
X135899967Y-117650905D01*
X135932021Y-117582163D01*
X135933579Y-117578946D01*
X135967605Y-117511196D01*
X135967605Y-117511195D01*
X135967609Y-117511188D01*
X135967611Y-117511179D01*
X135970077Y-117504405D01*
X135970124Y-117504422D01*
X135972675Y-117497083D01*
X135972629Y-117497068D01*
X135974900Y-117490210D01*
X135974903Y-117490206D01*
X135990244Y-117415905D01*
X135991021Y-117412401D01*
X135991236Y-117411494D01*
X136008500Y-117338656D01*
X136008500Y-117338653D01*
X136009339Y-117331483D01*
X136009386Y-117331488D01*
X136010177Y-117323757D01*
X136010130Y-117323753D01*
X136010759Y-117316562D01*
X136009943Y-117288533D01*
X136008552Y-117240707D01*
X136008500Y-117237101D01*
X136008500Y-117061078D01*
X136028185Y-116994039D01*
X136080989Y-116948284D01*
X136093481Y-116943377D01*
X136172738Y-116917115D01*
X136323652Y-116824030D01*
X136449030Y-116698652D01*
X136540417Y-116550489D01*
X136592363Y-116503768D01*
X136661326Y-116492545D01*
X136725408Y-116520389D01*
X136735468Y-116529780D01*
X136849228Y-116648476D01*
X137035153Y-116785985D01*
X137241643Y-116890095D01*
X137462757Y-116957811D01*
X137692135Y-116987184D01*
X137923178Y-116977369D01*
X138149238Y-116928649D01*
X138363813Y-116842426D01*
X138560730Y-116721179D01*
X138734324Y-116568398D01*
X138879600Y-116388476D01*
X138992380Y-116186591D01*
X139069419Y-115968550D01*
X139081019Y-115900898D01*
X139108499Y-115740634D01*
X139108500Y-115740623D01*
X139108500Y-115267287D01*
X139108499Y-115267269D01*
X139093802Y-115094586D01*
X139035530Y-114870793D01*
X139035529Y-114870789D01*
X138940283Y-114660080D01*
X138940276Y-114660068D01*
X138810790Y-114468486D01*
X138810786Y-114468481D01*
X138810783Y-114468477D01*
X138650772Y-114301524D01*
X138650771Y-114301523D01*
X138650770Y-114301522D01*
X138558765Y-114233475D01*
X138516571Y-114177785D01*
X138508500Y-114133780D01*
X138508500Y-114014294D01*
X138509809Y-113996324D01*
X138513279Y-113972631D01*
X138513341Y-113972211D01*
X138512874Y-113966878D01*
X138508972Y-113922275D01*
X138508500Y-113911466D01*
X138508500Y-113905824D01*
X138508499Y-113905815D01*
X138504862Y-113874700D01*
X138504495Y-113871108D01*
X138497887Y-113795576D01*
X138496427Y-113788503D01*
X138496473Y-113788493D01*
X138494790Y-113780902D01*
X138494744Y-113780914D01*
X138493079Y-113773893D01*
X138493079Y-113773887D01*
X138467120Y-113702566D01*
X138465981Y-113699290D01*
X138442114Y-113627262D01*
X138442111Y-113627257D01*
X138439061Y-113620715D01*
X138439105Y-113620694D01*
X138435717Y-113613695D01*
X138435674Y-113613717D01*
X138432437Y-113607271D01*
X138421298Y-113590336D01*
X138390717Y-113543840D01*
X138388834Y-113540883D01*
X138360889Y-113495576D01*
X138349031Y-113476350D01*
X138344553Y-113470687D01*
X138344590Y-113470656D01*
X138339681Y-113464629D01*
X138339645Y-113464660D01*
X138335002Y-113459127D01*
X138279825Y-113407070D01*
X138277238Y-113404557D01*
X137181804Y-112309123D01*
X137170022Y-112295490D01*
X137155472Y-112275946D01*
X137155471Y-112275945D01*
X137155469Y-112275942D01*
X137148615Y-112270191D01*
X137117059Y-112243711D01*
X137109085Y-112236404D01*
X137105102Y-112232421D01*
X137105096Y-112232416D01*
X137080512Y-112212976D01*
X137077719Y-112210701D01*
X137019642Y-112161970D01*
X137019640Y-112161968D01*
X137019635Y-112161965D01*
X137013605Y-112157999D01*
X137013630Y-112157959D01*
X137007069Y-112153779D01*
X137007045Y-112153820D01*
X137000907Y-112150034D01*
X137000906Y-112150033D01*
X137000903Y-112150032D01*
X137000899Y-112150029D01*
X136932160Y-112117974D01*
X136928916Y-112116404D01*
X136861185Y-112082389D01*
X136854401Y-112079920D01*
X136854416Y-112079876D01*
X136847071Y-112077322D01*
X136847057Y-112077367D01*
X136840205Y-112075096D01*
X136765926Y-112059758D01*
X136762408Y-112058978D01*
X136688653Y-112041499D01*
X136681482Y-112040661D01*
X136681487Y-112040612D01*
X136673757Y-112039822D01*
X136673753Y-112039870D01*
X136666562Y-112039240D01*
X136590707Y-112041448D01*
X136587101Y-112041500D01*
X133264294Y-112041500D01*
X133246324Y-112040191D01*
X133222206Y-112036658D01*
X133175411Y-112040753D01*
X133172272Y-112041028D01*
X133161466Y-112041500D01*
X133155816Y-112041500D01*
X133124678Y-112045139D01*
X133121095Y-112045505D01*
X133045576Y-112052112D01*
X133038503Y-112053573D01*
X133038493Y-112053526D01*
X133030905Y-112055209D01*
X133030916Y-112055255D01*
X133023890Y-112056920D01*
X132952661Y-112082844D01*
X132949260Y-112084026D01*
X132877260Y-112107886D01*
X132870713Y-112110939D01*
X132870693Y-112110896D01*
X132863702Y-112114280D01*
X132863724Y-112114323D01*
X132857270Y-112117564D01*
X132857269Y-112117564D01*
X132857268Y-112117565D01*
X132793901Y-112159241D01*
X132790885Y-112161162D01*
X132726352Y-112200968D01*
X132720682Y-112205451D01*
X132720652Y-112205413D01*
X132714627Y-112210322D01*
X132714657Y-112210357D01*
X132709126Y-112214997D01*
X132657052Y-112270191D01*
X132654541Y-112272776D01*
X131509122Y-113418195D01*
X131495495Y-113429973D01*
X131475941Y-113444531D01*
X131443713Y-113482938D01*
X131436421Y-113490897D01*
X131432420Y-113494898D01*
X131412983Y-113519479D01*
X131410710Y-113522269D01*
X131361967Y-113580360D01*
X131358001Y-113586391D01*
X131357963Y-113586366D01*
X131353782Y-113592928D01*
X131353821Y-113592952D01*
X131350035Y-113599088D01*
X131331168Y-113639547D01*
X131317967Y-113667855D01*
X131316412Y-113671068D01*
X131282391Y-113738810D01*
X131279923Y-113745593D01*
X131279878Y-113745576D01*
X131277322Y-113752932D01*
X131277366Y-113752947D01*
X131275096Y-113759794D01*
X131259758Y-113834073D01*
X131258978Y-113837589D01*
X131241499Y-113911344D01*
X131240661Y-113918519D01*
X131240613Y-113918513D01*
X131239823Y-113926244D01*
X131239870Y-113926249D01*
X131239240Y-113933438D01*
X131241448Y-114009290D01*
X131241500Y-114012897D01*
X131241500Y-115384457D01*
X131221815Y-115451496D01*
X131205181Y-115472138D01*
X130972138Y-115705181D01*
X130910815Y-115738666D01*
X130884457Y-115741500D01*
X130576679Y-115741500D01*
X130509640Y-115721815D01*
X130463885Y-115669011D01*
X130453941Y-115599853D01*
X130482966Y-115536297D01*
X130487379Y-115531953D01*
X130487212Y-115531796D01*
X130614166Y-115397232D01*
X130657117Y-115322839D01*
X130703057Y-115243269D01*
X130754045Y-115072958D01*
X130764382Y-114895480D01*
X130733511Y-114720401D01*
X130663096Y-114557162D01*
X130662439Y-114556280D01*
X130556932Y-114414560D01*
X130420746Y-114300286D01*
X130420744Y-114300285D01*
X130261881Y-114220500D01*
X130257122Y-114219372D01*
X130088890Y-114179500D01*
X129955708Y-114179500D01*
X129839958Y-114193029D01*
X129823422Y-114194962D01*
X129823419Y-114194963D01*
X129656367Y-114255764D01*
X129576586Y-114308237D01*
X129507832Y-114353457D01*
X129507831Y-114353457D01*
X129507831Y-114353458D01*
X129385833Y-114482767D01*
X129296944Y-114636728D01*
X129245955Y-114807041D01*
X129245954Y-114807046D01*
X129235618Y-114984519D01*
X129235618Y-114984520D01*
X129262055Y-115134457D01*
X129266489Y-115159599D01*
X129284562Y-115201496D01*
X129336904Y-115322839D01*
X129443067Y-115465439D01*
X129511082Y-115522511D01*
X129549784Y-115580683D01*
X129550892Y-115650543D01*
X129514055Y-115709913D01*
X129450967Y-115739943D01*
X129431376Y-115741500D01*
X122365543Y-115741500D01*
X122298504Y-115721815D01*
X122277862Y-115705181D01*
X121794819Y-115222138D01*
X121761334Y-115160815D01*
X121758500Y-115134457D01*
X121758500Y-115069787D01*
X121778185Y-115002748D01*
X121808166Y-114971553D01*
X121807893Y-114971228D01*
X121810922Y-114968686D01*
X121811380Y-114968210D01*
X121811645Y-114968023D01*
X121812038Y-114967749D01*
X121967749Y-114812038D01*
X122094056Y-114631654D01*
X122187120Y-114432076D01*
X122244115Y-114219371D01*
X122261439Y-114021351D01*
X122263307Y-114000002D01*
X122736693Y-114000002D01*
X122755884Y-114219365D01*
X122755885Y-114219372D01*
X122768114Y-114265009D01*
X122812880Y-114432076D01*
X122812881Y-114432079D01*
X122812882Y-114432081D01*
X122877461Y-114570572D01*
X122905944Y-114631654D01*
X123032251Y-114812038D01*
X123187962Y-114967749D01*
X123368346Y-115094056D01*
X123567924Y-115187120D01*
X123780629Y-115244115D01*
X123937322Y-115257823D01*
X123999998Y-115263307D01*
X124000000Y-115263307D01*
X124000002Y-115263307D01*
X124054842Y-115258509D01*
X124219371Y-115244115D01*
X124432076Y-115187120D01*
X124631654Y-115094056D01*
X124812038Y-114967749D01*
X124967749Y-114812038D01*
X125094056Y-114631654D01*
X125187120Y-114432076D01*
X125244115Y-114219371D01*
X125261439Y-114021351D01*
X125263307Y-114000002D01*
X125736693Y-114000002D01*
X125755884Y-114219365D01*
X125755885Y-114219372D01*
X125768114Y-114265009D01*
X125812880Y-114432076D01*
X125812881Y-114432079D01*
X125812882Y-114432081D01*
X125877461Y-114570572D01*
X125905944Y-114631654D01*
X126032251Y-114812038D01*
X126187962Y-114967749D01*
X126368346Y-115094056D01*
X126567924Y-115187120D01*
X126780629Y-115244115D01*
X126937322Y-115257823D01*
X126999998Y-115263307D01*
X127000000Y-115263307D01*
X127000002Y-115263307D01*
X127054842Y-115258509D01*
X127219371Y-115244115D01*
X127432076Y-115187120D01*
X127631654Y-115094056D01*
X127812038Y-114967749D01*
X127967749Y-114812038D01*
X128094056Y-114631654D01*
X128187120Y-114432076D01*
X128244115Y-114219371D01*
X128261439Y-114021351D01*
X128263307Y-114000002D01*
X128263307Y-113999997D01*
X128255068Y-113905824D01*
X128244115Y-113780629D01*
X128187120Y-113567924D01*
X128094056Y-113368347D01*
X128094054Y-113368344D01*
X128094053Y-113368342D01*
X128005237Y-113241500D01*
X127967749Y-113187962D01*
X127812038Y-113032251D01*
X127631654Y-112905944D01*
X127631650Y-112905942D01*
X127432081Y-112812882D01*
X127432079Y-112812881D01*
X127432076Y-112812880D01*
X127280777Y-112772339D01*
X127219372Y-112755885D01*
X127219365Y-112755884D01*
X127000002Y-112736693D01*
X126999998Y-112736693D01*
X126780634Y-112755884D01*
X126780627Y-112755885D01*
X126567920Y-112812881D01*
X126368346Y-112905944D01*
X126368342Y-112905946D01*
X126187967Y-113032247D01*
X126187960Y-113032252D01*
X126032252Y-113187960D01*
X126032247Y-113187967D01*
X125905946Y-113368342D01*
X125905944Y-113368346D01*
X125812881Y-113567920D01*
X125755885Y-113780627D01*
X125755884Y-113780634D01*
X125736693Y-113999997D01*
X125736693Y-114000002D01*
X125263307Y-114000002D01*
X125263307Y-113999997D01*
X125255068Y-113905824D01*
X125244115Y-113780629D01*
X125187120Y-113567924D01*
X125094056Y-113368347D01*
X125094054Y-113368344D01*
X125094053Y-113368342D01*
X125005237Y-113241500D01*
X124967749Y-113187962D01*
X124812038Y-113032251D01*
X124631654Y-112905944D01*
X124631650Y-112905942D01*
X124432081Y-112812882D01*
X124432079Y-112812881D01*
X124432076Y-112812880D01*
X124280777Y-112772339D01*
X124219372Y-112755885D01*
X124219365Y-112755884D01*
X124000002Y-112736693D01*
X123999998Y-112736693D01*
X123780634Y-112755884D01*
X123780627Y-112755885D01*
X123567920Y-112812881D01*
X123368346Y-112905944D01*
X123368342Y-112905946D01*
X123187967Y-113032247D01*
X123187960Y-113032252D01*
X123032252Y-113187960D01*
X123032247Y-113187967D01*
X122905946Y-113368342D01*
X122905944Y-113368346D01*
X122812881Y-113567920D01*
X122755885Y-113780627D01*
X122755884Y-113780634D01*
X122736693Y-113999997D01*
X122736693Y-114000002D01*
X122263307Y-114000002D01*
X122263307Y-113999997D01*
X122255068Y-113905824D01*
X122244115Y-113780629D01*
X122187120Y-113567924D01*
X122094056Y-113368347D01*
X122094054Y-113368344D01*
X122094053Y-113368342D01*
X122005237Y-113241500D01*
X121967749Y-113187962D01*
X121812038Y-113032251D01*
X121631654Y-112905944D01*
X121631650Y-112905942D01*
X121432081Y-112812882D01*
X121432079Y-112812881D01*
X121432076Y-112812880D01*
X121280777Y-112772339D01*
X121219372Y-112755885D01*
X121219365Y-112755884D01*
X121000002Y-112736693D01*
X120999998Y-112736693D01*
X120780634Y-112755884D01*
X120780627Y-112755885D01*
X120567920Y-112812881D01*
X120368346Y-112905944D01*
X120368342Y-112905946D01*
X120187967Y-113032247D01*
X120187960Y-113032252D01*
X120032252Y-113187960D01*
X120032247Y-113187967D01*
X119905946Y-113368342D01*
X119905944Y-113368346D01*
X119812881Y-113567920D01*
X119755885Y-113780627D01*
X119755884Y-113780634D01*
X119736693Y-113999997D01*
X119736693Y-114000002D01*
X119755884Y-114219365D01*
X119755885Y-114219372D01*
X119768114Y-114265009D01*
X119812880Y-114432076D01*
X119812881Y-114432079D01*
X119812882Y-114432081D01*
X119877461Y-114570572D01*
X119905944Y-114631654D01*
X120032251Y-114812038D01*
X120115692Y-114895479D01*
X120187963Y-114967750D01*
X120188620Y-114968210D01*
X120188843Y-114968490D01*
X120192107Y-114971228D01*
X120191556Y-114971883D01*
X120232247Y-115022785D01*
X120241500Y-115069787D01*
X120241500Y-115435706D01*
X120240191Y-115453676D01*
X120236658Y-115477791D01*
X120241028Y-115527724D01*
X120241500Y-115538533D01*
X120241500Y-115544183D01*
X120245139Y-115575322D01*
X120245505Y-115578905D01*
X120252112Y-115654426D01*
X120253572Y-115661494D01*
X120253526Y-115661503D01*
X120255209Y-115669094D01*
X120255254Y-115669084D01*
X120256919Y-115676110D01*
X120282854Y-115747367D01*
X120284037Y-115750770D01*
X120305838Y-115816558D01*
X120307886Y-115822738D01*
X120307889Y-115822743D01*
X120310940Y-115829286D01*
X120310896Y-115829306D01*
X120314284Y-115836304D01*
X120314327Y-115836283D01*
X120317568Y-115842737D01*
X120359245Y-115906103D01*
X120361167Y-115909120D01*
X120400970Y-115973651D01*
X120400973Y-115973654D01*
X120405451Y-115979318D01*
X120405413Y-115979347D01*
X120410320Y-115985372D01*
X120410357Y-115985342D01*
X120415002Y-115990877D01*
X120470172Y-116042927D01*
X120472760Y-116045441D01*
X121418196Y-116990877D01*
X121429977Y-117004509D01*
X121444531Y-117024058D01*
X121482935Y-117056283D01*
X121490901Y-117063582D01*
X121494900Y-117067581D01*
X121519470Y-117087008D01*
X121522266Y-117089286D01*
X121568006Y-117127665D01*
X121580360Y-117138032D01*
X121580362Y-117138033D01*
X121586396Y-117142002D01*
X121586370Y-117142041D01*
X121592927Y-117146218D01*
X121592953Y-117146178D01*
X121599091Y-117149964D01*
X121599095Y-117149967D01*
X121667831Y-117182019D01*
X121671044Y-117183574D01*
X121714066Y-117205181D01*
X121717071Y-117206690D01*
X121768145Y-117254368D01*
X121785334Y-117322091D01*
X121763181Y-117388355D01*
X121708719Y-117432124D01*
X121661419Y-117441500D01*
X119565543Y-117441500D01*
X119498504Y-117421815D01*
X119477862Y-117405181D01*
X118794819Y-116722138D01*
X118761334Y-116660815D01*
X118758500Y-116634457D01*
X118758500Y-115069787D01*
X118778185Y-115002748D01*
X118808166Y-114971553D01*
X118807893Y-114971228D01*
X118810922Y-114968686D01*
X118811380Y-114968210D01*
X118811645Y-114968023D01*
X118812038Y-114967749D01*
X118967749Y-114812038D01*
X119094056Y-114631654D01*
X119187120Y-114432076D01*
X119244115Y-114219371D01*
X119261439Y-114021351D01*
X119263307Y-114000002D01*
X119263307Y-113999997D01*
X119255068Y-113905824D01*
X119244115Y-113780629D01*
X119187120Y-113567924D01*
X119094056Y-113368347D01*
X119094054Y-113368344D01*
X119094053Y-113368342D01*
X119005237Y-113241500D01*
X118967749Y-113187962D01*
X118812038Y-113032251D01*
X118631654Y-112905944D01*
X118631650Y-112905942D01*
X118432081Y-112812882D01*
X118432079Y-112812881D01*
X118432076Y-112812880D01*
X118280777Y-112772339D01*
X118219372Y-112755885D01*
X118219365Y-112755884D01*
X118000002Y-112736693D01*
X117999998Y-112736693D01*
X117780634Y-112755884D01*
X117780627Y-112755885D01*
X117567920Y-112812881D01*
X117368346Y-112905944D01*
X117368342Y-112905946D01*
X117187967Y-113032247D01*
X117187960Y-113032252D01*
X117032252Y-113187960D01*
X117032247Y-113187967D01*
X116905946Y-113368342D01*
X116905944Y-113368346D01*
X116812881Y-113567920D01*
X116755885Y-113780627D01*
X116755884Y-113780634D01*
X116736693Y-113999997D01*
X116736693Y-114000002D01*
X116263307Y-114000002D01*
X116263307Y-113999997D01*
X116255068Y-113905824D01*
X116244115Y-113780629D01*
X116187120Y-113567924D01*
X116094056Y-113368347D01*
X116094054Y-113368344D01*
X116094053Y-113368342D01*
X116005237Y-113241500D01*
X115967749Y-113187962D01*
X115812038Y-113032251D01*
X115631654Y-112905944D01*
X115631650Y-112905942D01*
X115432081Y-112812882D01*
X115432079Y-112812881D01*
X115432076Y-112812880D01*
X115280777Y-112772339D01*
X115219372Y-112755885D01*
X115219365Y-112755884D01*
X115000002Y-112736693D01*
X114999998Y-112736693D01*
X114780634Y-112755884D01*
X114780627Y-112755885D01*
X114567920Y-112812881D01*
X114368346Y-112905944D01*
X114368342Y-112905946D01*
X114187967Y-113032247D01*
X114187960Y-113032252D01*
X114032252Y-113187960D01*
X114032247Y-113187967D01*
X113905946Y-113368342D01*
X113905944Y-113368346D01*
X113812881Y-113567920D01*
X113755885Y-113780627D01*
X113755884Y-113780634D01*
X113736693Y-113999997D01*
X113736693Y-114000002D01*
X113755884Y-114219365D01*
X113755885Y-114219372D01*
X113768114Y-114265009D01*
X113812880Y-114432076D01*
X113812881Y-114432079D01*
X113812882Y-114432081D01*
X113877461Y-114570572D01*
X113905944Y-114631654D01*
X114032251Y-114812038D01*
X114115692Y-114895479D01*
X114187963Y-114967750D01*
X114188620Y-114968210D01*
X114188843Y-114968490D01*
X114192107Y-114971228D01*
X114191556Y-114971883D01*
X114232247Y-115022785D01*
X114241500Y-115069787D01*
X114241500Y-116634457D01*
X114221815Y-116701496D01*
X114205181Y-116722138D01*
X113722138Y-117205181D01*
X113660815Y-117238666D01*
X113634457Y-117241500D01*
X111630688Y-117241500D01*
X111563649Y-117221815D01*
X111517894Y-117169011D01*
X111507950Y-117099853D01*
X111536975Y-117036297D01*
X111540455Y-117032446D01*
X111542976Y-117029774D01*
X111545408Y-117027271D01*
X112490880Y-116081799D01*
X112504506Y-116070023D01*
X112524058Y-116055469D01*
X112524060Y-116055467D01*
X112556274Y-116017075D01*
X112563590Y-116009090D01*
X112567581Y-116005100D01*
X112587047Y-115980479D01*
X112589295Y-115977721D01*
X112592711Y-115973651D01*
X112638032Y-115919640D01*
X112638033Y-115919637D01*
X112642004Y-115913601D01*
X112642045Y-115913628D01*
X112646219Y-115907076D01*
X112646176Y-115907050D01*
X112649961Y-115900912D01*
X112649967Y-115900905D01*
X112682021Y-115832163D01*
X112683579Y-115828946D01*
X112717605Y-115761196D01*
X112717605Y-115761195D01*
X112717609Y-115761188D01*
X112717611Y-115761179D01*
X112720077Y-115754405D01*
X112720124Y-115754422D01*
X112722675Y-115747083D01*
X112722629Y-115747068D01*
X112724900Y-115740210D01*
X112724903Y-115740206D01*
X112740244Y-115665905D01*
X112741021Y-115662401D01*
X112741236Y-115661494D01*
X112758500Y-115588656D01*
X112758500Y-115588653D01*
X112759339Y-115581483D01*
X112759386Y-115581488D01*
X112760177Y-115573757D01*
X112760130Y-115573753D01*
X112760759Y-115566562D01*
X112759943Y-115538533D01*
X112758552Y-115490707D01*
X112758500Y-115487101D01*
X112758500Y-115069787D01*
X112778185Y-115002748D01*
X112808166Y-114971553D01*
X112807893Y-114971228D01*
X112810922Y-114968686D01*
X112811380Y-114968210D01*
X112811645Y-114968023D01*
X112812038Y-114967749D01*
X112967749Y-114812038D01*
X113094056Y-114631654D01*
X113187120Y-114432076D01*
X113244115Y-114219371D01*
X113261439Y-114021351D01*
X113263307Y-114000002D01*
X113263307Y-113999997D01*
X113255068Y-113905824D01*
X113244115Y-113780629D01*
X113187120Y-113567924D01*
X113094056Y-113368347D01*
X113094054Y-113368344D01*
X113094053Y-113368342D01*
X113005237Y-113241500D01*
X112967749Y-113187962D01*
X112812038Y-113032251D01*
X112631654Y-112905944D01*
X112631650Y-112905942D01*
X112432081Y-112812882D01*
X112432079Y-112812881D01*
X112432076Y-112812880D01*
X112280777Y-112772339D01*
X112219372Y-112755885D01*
X112219365Y-112755884D01*
X112000002Y-112736693D01*
X111999998Y-112736693D01*
X111780634Y-112755884D01*
X111780627Y-112755885D01*
X111567920Y-112812881D01*
X111368346Y-112905944D01*
X111368342Y-112905946D01*
X111187967Y-113032247D01*
X111187960Y-113032252D01*
X111032252Y-113187960D01*
X111032247Y-113187967D01*
X110905946Y-113368342D01*
X110905944Y-113368346D01*
X110812881Y-113567920D01*
X110755885Y-113780627D01*
X110755884Y-113780634D01*
X110736693Y-113999997D01*
X110736693Y-114000002D01*
X110755884Y-114219365D01*
X110755885Y-114219372D01*
X110768114Y-114265009D01*
X110812880Y-114432076D01*
X110812881Y-114432079D01*
X110812882Y-114432081D01*
X110877461Y-114570572D01*
X110905944Y-114631654D01*
X111032251Y-114812038D01*
X111115692Y-114895479D01*
X111187963Y-114967750D01*
X111188620Y-114968210D01*
X111188843Y-114968490D01*
X111192107Y-114971228D01*
X111191556Y-114971883D01*
X111232247Y-115022785D01*
X111241500Y-115069787D01*
X111241500Y-115134457D01*
X111221815Y-115201496D01*
X111205181Y-115222138D01*
X110722138Y-115705181D01*
X110660815Y-115738666D01*
X110634457Y-115741500D01*
X106576679Y-115741500D01*
X106509640Y-115721815D01*
X106463885Y-115669011D01*
X106453941Y-115599853D01*
X106482966Y-115536297D01*
X106487379Y-115531953D01*
X106487212Y-115531796D01*
X106614166Y-115397232D01*
X106657117Y-115322839D01*
X106703057Y-115243269D01*
X106754045Y-115072958D01*
X106764382Y-114895480D01*
X106733511Y-114720401D01*
X106675952Y-114586967D01*
X106667475Y-114517616D01*
X106697837Y-114454688D01*
X106757401Y-114418166D01*
X106827255Y-114419643D01*
X106877493Y-114450174D01*
X106918196Y-114490877D01*
X106929977Y-114504509D01*
X106944531Y-114524058D01*
X106982945Y-114556291D01*
X106990908Y-114563589D01*
X106994900Y-114567581D01*
X107019485Y-114587021D01*
X107022279Y-114589297D01*
X107031450Y-114596992D01*
X107080360Y-114638032D01*
X107080362Y-114638033D01*
X107086396Y-114642002D01*
X107086369Y-114642042D01*
X107092917Y-114646214D01*
X107092943Y-114646173D01*
X107099090Y-114649964D01*
X107099094Y-114649967D01*
X107120763Y-114660071D01*
X107167818Y-114682013D01*
X107171066Y-114683585D01*
X107238814Y-114717610D01*
X107245595Y-114720078D01*
X107245578Y-114720123D01*
X107252916Y-114722674D01*
X107252932Y-114722629D01*
X107259788Y-114724900D01*
X107259789Y-114724900D01*
X107259793Y-114724902D01*
X107334101Y-114740244D01*
X107337564Y-114741012D01*
X107411344Y-114758500D01*
X107411346Y-114758500D01*
X107418517Y-114759339D01*
X107418511Y-114759386D01*
X107426242Y-114760176D01*
X107426247Y-114760129D01*
X107433437Y-114760758D01*
X107433441Y-114760757D01*
X107433442Y-114760758D01*
X107509258Y-114758552D01*
X107512864Y-114758500D01*
X107930213Y-114758500D01*
X107997252Y-114778185D01*
X108028442Y-114808161D01*
X108028769Y-114807888D01*
X108031316Y-114810923D01*
X108031787Y-114811376D01*
X108032251Y-114812038D01*
X108187962Y-114967749D01*
X108368346Y-115094056D01*
X108567924Y-115187120D01*
X108780629Y-115244115D01*
X108937322Y-115257823D01*
X108999998Y-115263307D01*
X109000000Y-115263307D01*
X109000002Y-115263307D01*
X109054842Y-115258509D01*
X109219371Y-115244115D01*
X109432076Y-115187120D01*
X109631654Y-115094056D01*
X109812038Y-114967749D01*
X109967749Y-114812038D01*
X110094056Y-114631654D01*
X110187120Y-114432076D01*
X110244115Y-114219371D01*
X110261439Y-114021351D01*
X110263307Y-114000002D01*
X110263307Y-113999997D01*
X110255068Y-113905824D01*
X110244115Y-113780629D01*
X110187120Y-113567924D01*
X110094056Y-113368347D01*
X110094054Y-113368344D01*
X110094053Y-113368342D01*
X110005237Y-113241500D01*
X109967749Y-113187962D01*
X109812038Y-113032251D01*
X109631654Y-112905944D01*
X109631650Y-112905942D01*
X109432081Y-112812882D01*
X109432079Y-112812881D01*
X109432076Y-112812880D01*
X109280777Y-112772339D01*
X109219372Y-112755885D01*
X109219365Y-112755884D01*
X109000002Y-112736693D01*
X108999998Y-112736693D01*
X108780634Y-112755884D01*
X108780627Y-112755885D01*
X108567920Y-112812881D01*
X108368346Y-112905944D01*
X108368342Y-112905946D01*
X108187967Y-113032247D01*
X108187960Y-113032252D01*
X108032254Y-113187958D01*
X108032245Y-113187969D01*
X108031787Y-113188624D01*
X108031510Y-113188844D01*
X108028769Y-113192112D01*
X108028112Y-113191561D01*
X107977210Y-113232249D01*
X107930213Y-113241500D01*
X107865543Y-113241500D01*
X107798504Y-113221815D01*
X107777862Y-113205181D01*
X106794819Y-112222138D01*
X106761334Y-112160815D01*
X106758500Y-112134457D01*
X106758500Y-111550551D01*
X107741500Y-111550551D01*
X107752113Y-111654428D01*
X107807883Y-111822735D01*
X107807884Y-111822738D01*
X107900967Y-111973647D01*
X107900970Y-111973651D01*
X108026348Y-112099029D01*
X108026352Y-112099032D01*
X108177261Y-112192115D01*
X108177264Y-112192116D01*
X108345571Y-112247886D01*
X108345572Y-112247886D01*
X108345575Y-112247887D01*
X108449456Y-112258500D01*
X108449461Y-112258500D01*
X109550539Y-112258500D01*
X109550544Y-112258500D01*
X109654425Y-112247887D01*
X109822738Y-112192115D01*
X109973651Y-112099030D01*
X110099030Y-111973651D01*
X110192115Y-111822738D01*
X110247887Y-111654425D01*
X110258500Y-111550544D01*
X110258500Y-110449456D01*
X110247887Y-110345575D01*
X110247886Y-110345571D01*
X110192116Y-110177264D01*
X110192115Y-110177261D01*
X110099032Y-110026352D01*
X110099029Y-110026348D01*
X110044819Y-109972138D01*
X110011334Y-109910815D01*
X110008500Y-109884457D01*
X110008500Y-105036078D01*
X110028185Y-104969039D01*
X110080989Y-104923284D01*
X110093481Y-104918377D01*
X110172738Y-104892115D01*
X110323652Y-104799030D01*
X110449030Y-104673652D01*
X110540417Y-104525489D01*
X110592363Y-104478768D01*
X110661326Y-104467545D01*
X110725408Y-104495389D01*
X110735468Y-104504780D01*
X110849228Y-104623476D01*
X110941235Y-104691523D01*
X110983429Y-104747211D01*
X110991500Y-104791218D01*
X110991500Y-110207063D01*
X110971815Y-110274102D01*
X110969075Y-110278186D01*
X110905944Y-110368346D01*
X110905943Y-110368348D01*
X110812881Y-110567920D01*
X110755885Y-110780627D01*
X110755884Y-110780634D01*
X110750495Y-110842238D01*
X110736693Y-111000000D01*
X110755885Y-111219371D01*
X110812880Y-111432076D01*
X110812881Y-111432079D01*
X110812882Y-111432081D01*
X110890730Y-111599028D01*
X110905944Y-111631654D01*
X111032251Y-111812038D01*
X111187962Y-111967749D01*
X111368346Y-112094056D01*
X111567924Y-112187120D01*
X111780629Y-112244115D01*
X111937322Y-112257823D01*
X111999998Y-112263307D01*
X112000000Y-112263307D01*
X112000002Y-112263307D01*
X112054957Y-112258499D01*
X112219371Y-112244115D01*
X112432076Y-112187120D01*
X112631654Y-112094056D01*
X112812038Y-111967749D01*
X112967749Y-111812038D01*
X113094056Y-111631654D01*
X113187120Y-111432076D01*
X113244115Y-111219371D01*
X113263307Y-111000000D01*
X113244115Y-110780629D01*
X113187120Y-110567924D01*
X113094056Y-110368347D01*
X113094054Y-110368344D01*
X113094053Y-110368342D01*
X113003252Y-110238666D01*
X112967749Y-110187962D01*
X112812038Y-110032251D01*
X112631654Y-109905944D01*
X112631653Y-109905943D01*
X112631651Y-109905942D01*
X112580095Y-109881901D01*
X112527656Y-109835728D01*
X112508500Y-109769519D01*
X112508500Y-104797327D01*
X112528185Y-104730288D01*
X112556821Y-104699710D01*
X112556776Y-104699659D01*
X112557305Y-104699192D01*
X112558773Y-104697626D01*
X112560719Y-104696185D01*
X112560730Y-104696179D01*
X112734324Y-104543398D01*
X112879600Y-104363476D01*
X112893030Y-104339434D01*
X112942906Y-104290509D01*
X113011318Y-104276314D01*
X113076545Y-104301359D01*
X113104019Y-104330470D01*
X113189209Y-104456512D01*
X113189212Y-104456516D01*
X113189217Y-104456523D01*
X113349228Y-104623476D01*
X113441235Y-104691523D01*
X113483429Y-104747211D01*
X113491500Y-104791218D01*
X113491500Y-110185706D01*
X113490191Y-110203676D01*
X113486658Y-110227791D01*
X113491028Y-110277724D01*
X113491500Y-110288533D01*
X113491500Y-110294183D01*
X113495139Y-110325322D01*
X113495505Y-110328905D01*
X113502112Y-110404426D01*
X113503572Y-110411494D01*
X113503526Y-110411503D01*
X113505209Y-110419094D01*
X113505254Y-110419084D01*
X113506919Y-110426110D01*
X113532854Y-110497367D01*
X113534037Y-110500770D01*
X113556289Y-110567920D01*
X113557886Y-110572738D01*
X113557889Y-110572743D01*
X113560940Y-110579286D01*
X113560896Y-110579306D01*
X113564284Y-110586304D01*
X113564327Y-110586283D01*
X113567568Y-110592737D01*
X113609245Y-110656103D01*
X113611167Y-110659120D01*
X113650970Y-110723651D01*
X113650971Y-110723652D01*
X113650973Y-110723655D01*
X113655451Y-110729318D01*
X113655413Y-110729347D01*
X113660320Y-110735372D01*
X113660357Y-110735342D01*
X113665002Y-110740877D01*
X113708500Y-110781915D01*
X113743755Y-110842238D01*
X113746935Y-110882916D01*
X113736693Y-110999996D01*
X113736693Y-111000000D01*
X113755885Y-111219371D01*
X113812880Y-111432076D01*
X113812881Y-111432079D01*
X113812882Y-111432081D01*
X113890730Y-111599028D01*
X113905944Y-111631654D01*
X114032251Y-111812038D01*
X114187962Y-111967749D01*
X114368346Y-112094056D01*
X114567924Y-112187120D01*
X114780629Y-112244115D01*
X114937322Y-112257823D01*
X114999998Y-112263307D01*
X115000000Y-112263307D01*
X115000002Y-112263307D01*
X115054957Y-112258499D01*
X115219371Y-112244115D01*
X115432076Y-112187120D01*
X115631654Y-112094056D01*
X115812038Y-111967749D01*
X115967749Y-111812038D01*
X116094056Y-111631654D01*
X116187120Y-111432076D01*
X116244115Y-111219371D01*
X116263307Y-111000000D01*
X116244115Y-110780629D01*
X116187120Y-110567924D01*
X116094056Y-110368347D01*
X116094054Y-110368344D01*
X116094053Y-110368342D01*
X116003252Y-110238666D01*
X115967749Y-110187962D01*
X115812038Y-110032251D01*
X115631654Y-109905944D01*
X115585575Y-109884457D01*
X115432081Y-109812882D01*
X115432079Y-109812881D01*
X115432076Y-109812880D01*
X115270253Y-109769519D01*
X115219372Y-109755885D01*
X115219366Y-109755884D01*
X115121692Y-109747339D01*
X115056624Y-109721886D01*
X115015645Y-109665295D01*
X115008500Y-109623811D01*
X115008500Y-104797327D01*
X115028185Y-104730288D01*
X115056821Y-104699710D01*
X115056776Y-104699659D01*
X115057305Y-104699192D01*
X115058773Y-104697626D01*
X115060719Y-104696185D01*
X115060730Y-104696179D01*
X115234324Y-104543398D01*
X115379600Y-104363476D01*
X115393030Y-104339434D01*
X115442906Y-104290509D01*
X115511318Y-104276314D01*
X115576545Y-104301359D01*
X115604019Y-104330470D01*
X115689209Y-104456512D01*
X115689212Y-104456516D01*
X115689217Y-104456523D01*
X115849228Y-104623476D01*
X115941235Y-104691523D01*
X115983429Y-104747211D01*
X115991500Y-104791218D01*
X115991500Y-106685706D01*
X115990191Y-106703676D01*
X115986658Y-106727791D01*
X115991028Y-106777724D01*
X115991500Y-106788533D01*
X115991500Y-106794183D01*
X115995139Y-106825322D01*
X115995505Y-106828905D01*
X116002112Y-106904426D01*
X116003572Y-106911494D01*
X116003526Y-106911503D01*
X116005209Y-106919094D01*
X116005254Y-106919084D01*
X116006919Y-106926110D01*
X116032854Y-106997367D01*
X116034037Y-107000770D01*
X116048243Y-107043638D01*
X116057886Y-107072738D01*
X116057889Y-107072743D01*
X116060940Y-107079286D01*
X116060896Y-107079306D01*
X116064284Y-107086304D01*
X116064327Y-107086283D01*
X116067568Y-107092737D01*
X116109245Y-107156103D01*
X116111167Y-107159120D01*
X116150970Y-107223651D01*
X116150971Y-107223652D01*
X116150973Y-107223655D01*
X116155451Y-107229318D01*
X116155413Y-107229347D01*
X116160320Y-107235372D01*
X116160357Y-107235342D01*
X116165002Y-107240877D01*
X116220172Y-107292927D01*
X116222760Y-107295441D01*
X117205181Y-108277862D01*
X117238666Y-108339185D01*
X117241500Y-108365543D01*
X117241500Y-109930212D01*
X117221815Y-109997251D01*
X117191839Y-110028444D01*
X117192112Y-110028769D01*
X117189093Y-110031302D01*
X117188637Y-110031777D01*
X117187974Y-110032240D01*
X117187958Y-110032254D01*
X117032252Y-110187960D01*
X117032247Y-110187967D01*
X116905946Y-110368342D01*
X116905944Y-110368346D01*
X116812881Y-110567920D01*
X116755885Y-110780627D01*
X116755884Y-110780634D01*
X116750495Y-110842238D01*
X116736693Y-111000000D01*
X116755885Y-111219371D01*
X116812880Y-111432076D01*
X116812881Y-111432079D01*
X116812882Y-111432081D01*
X116890730Y-111599028D01*
X116905944Y-111631654D01*
X117032251Y-111812038D01*
X117187962Y-111967749D01*
X117368346Y-112094056D01*
X117567924Y-112187120D01*
X117780629Y-112244115D01*
X117937322Y-112257823D01*
X117999998Y-112263307D01*
X118000000Y-112263307D01*
X118000002Y-112263307D01*
X118054957Y-112258499D01*
X118219371Y-112244115D01*
X118432076Y-112187120D01*
X118631654Y-112094056D01*
X118812038Y-111967749D01*
X118967749Y-111812038D01*
X119094056Y-111631654D01*
X119187120Y-111432076D01*
X119244115Y-111219371D01*
X119263307Y-111000000D01*
X119736693Y-111000000D01*
X119755885Y-111219371D01*
X119812880Y-111432076D01*
X119812881Y-111432079D01*
X119812882Y-111432081D01*
X119890730Y-111599028D01*
X119905944Y-111631654D01*
X120032251Y-111812038D01*
X120187962Y-111967749D01*
X120368346Y-112094056D01*
X120567924Y-112187120D01*
X120780629Y-112244115D01*
X120937322Y-112257823D01*
X120999998Y-112263307D01*
X121000000Y-112263307D01*
X121000002Y-112263307D01*
X121054957Y-112258499D01*
X121219371Y-112244115D01*
X121432076Y-112187120D01*
X121631654Y-112094056D01*
X121812038Y-111967749D01*
X121967749Y-111812038D01*
X122094056Y-111631654D01*
X122187120Y-111432076D01*
X122244115Y-111219371D01*
X122263307Y-111000000D01*
X122736693Y-111000000D01*
X122755885Y-111219371D01*
X122812880Y-111432076D01*
X122812881Y-111432079D01*
X122812882Y-111432081D01*
X122890730Y-111599028D01*
X122905944Y-111631654D01*
X123032251Y-111812038D01*
X123187962Y-111967749D01*
X123368346Y-112094056D01*
X123567924Y-112187120D01*
X123780629Y-112244115D01*
X123937322Y-112257823D01*
X123999998Y-112263307D01*
X124000000Y-112263307D01*
X124000002Y-112263307D01*
X124054957Y-112258499D01*
X124219371Y-112244115D01*
X124432076Y-112187120D01*
X124631654Y-112094056D01*
X124812038Y-111967749D01*
X124967749Y-111812038D01*
X125094056Y-111631654D01*
X125187120Y-111432076D01*
X125244115Y-111219371D01*
X125263307Y-111000000D01*
X125736693Y-111000000D01*
X125755885Y-111219371D01*
X125812880Y-111432076D01*
X125812881Y-111432079D01*
X125812882Y-111432081D01*
X125890730Y-111599028D01*
X125905944Y-111631654D01*
X126032251Y-111812038D01*
X126187962Y-111967749D01*
X126368346Y-112094056D01*
X126567924Y-112187120D01*
X126780629Y-112244115D01*
X126937322Y-112257823D01*
X126999998Y-112263307D01*
X127000000Y-112263307D01*
X127000002Y-112263307D01*
X127054957Y-112258499D01*
X127219371Y-112244115D01*
X127432076Y-112187120D01*
X127631654Y-112094056D01*
X127812038Y-111967749D01*
X127967749Y-111812038D01*
X127968213Y-111811376D01*
X127968489Y-111811155D01*
X127971231Y-111807888D01*
X127971887Y-111808438D01*
X128022790Y-111767751D01*
X128069787Y-111758500D01*
X138435706Y-111758500D01*
X138453676Y-111759809D01*
X138456174Y-111760174D01*
X138477789Y-111763341D01*
X138527727Y-111758971D01*
X138538534Y-111758500D01*
X138544175Y-111758500D01*
X138544180Y-111758500D01*
X138575370Y-111754853D01*
X138578851Y-111754498D01*
X138629822Y-111750039D01*
X138654418Y-111747888D01*
X138654420Y-111747887D01*
X138654426Y-111747887D01*
X138654431Y-111747885D01*
X138661493Y-111746427D01*
X138661502Y-111746474D01*
X138669097Y-111744790D01*
X138669087Y-111744744D01*
X138676108Y-111743079D01*
X138676113Y-111743079D01*
X138747414Y-111717126D01*
X138750708Y-111715981D01*
X138822738Y-111692114D01*
X138822744Y-111692110D01*
X138829284Y-111689061D01*
X138829305Y-111689106D01*
X138836302Y-111685719D01*
X138836280Y-111685675D01*
X138842728Y-111682436D01*
X138842732Y-111682435D01*
X138906103Y-111640753D01*
X138909110Y-111638837D01*
X138973651Y-111599030D01*
X138973656Y-111599024D01*
X138979319Y-111594548D01*
X138979350Y-111594587D01*
X138985374Y-111589680D01*
X138985342Y-111589642D01*
X138990864Y-111585006D01*
X138990874Y-111585001D01*
X139042962Y-111529789D01*
X139045409Y-111527270D01*
X140535880Y-110036799D01*
X140549506Y-110025023D01*
X140569058Y-110010469D01*
X140582237Y-109994763D01*
X140601274Y-109972075D01*
X140608590Y-109964090D01*
X140612581Y-109960100D01*
X140632047Y-109935479D01*
X140634295Y-109932721D01*
X140636401Y-109930212D01*
X140683032Y-109874640D01*
X140683033Y-109874637D01*
X140687004Y-109868601D01*
X140687045Y-109868628D01*
X140691219Y-109862076D01*
X140691176Y-109862050D01*
X140694961Y-109855912D01*
X140694967Y-109855905D01*
X140727021Y-109787163D01*
X140728579Y-109783946D01*
X140762605Y-109716196D01*
X140762605Y-109716195D01*
X140762609Y-109716188D01*
X140762611Y-109716179D01*
X140765077Y-109709405D01*
X140765124Y-109709422D01*
X140767675Y-109702083D01*
X140767629Y-109702068D01*
X140769900Y-109695210D01*
X140769903Y-109695206D01*
X140785244Y-109620905D01*
X140786021Y-109617401D01*
X140803500Y-109543656D01*
X140803500Y-109543653D01*
X140804339Y-109536483D01*
X140804386Y-109536488D01*
X140805177Y-109528757D01*
X140805130Y-109528753D01*
X140805759Y-109521562D01*
X140803552Y-109445707D01*
X140803500Y-109442101D01*
X140803500Y-107627500D01*
X140823185Y-107560461D01*
X140875989Y-107514706D01*
X140927500Y-107503500D01*
X141393638Y-107503500D01*
X141393654Y-107503499D01*
X141420692Y-107500591D01*
X141454201Y-107496989D01*
X141591204Y-107445889D01*
X141708261Y-107358261D01*
X141795889Y-107241204D01*
X141846989Y-107104201D01*
X141850591Y-107070692D01*
X141853499Y-107043654D01*
X141853500Y-107043637D01*
X141853500Y-104346362D01*
X141853499Y-104346345D01*
X141850157Y-104315270D01*
X141846989Y-104285799D01*
X141844149Y-104278185D01*
X141819312Y-104211594D01*
X141795889Y-104148796D01*
X141708261Y-104031739D01*
X141591204Y-103944111D01*
X141589681Y-103943543D01*
X141454203Y-103893011D01*
X141393654Y-103886500D01*
X141393638Y-103886500D01*
X138696362Y-103886500D01*
X138696345Y-103886500D01*
X138635797Y-103893011D01*
X138635795Y-103893011D01*
X138498795Y-103944111D01*
X138381739Y-104031739D01*
X138294111Y-104148795D01*
X138243011Y-104285795D01*
X138243011Y-104285797D01*
X138236500Y-104346345D01*
X138236500Y-107043654D01*
X138243011Y-107104202D01*
X138243011Y-107104204D01*
X138290507Y-107231542D01*
X138294111Y-107241204D01*
X138381739Y-107358261D01*
X138498796Y-107445889D01*
X138635799Y-107496989D01*
X138663050Y-107499918D01*
X138696345Y-107503499D01*
X138696362Y-107503500D01*
X139162500Y-107503500D01*
X139229539Y-107523185D01*
X139275294Y-107575989D01*
X139286500Y-107627500D01*
X139286500Y-109089457D01*
X139266815Y-109156496D01*
X139250181Y-109177138D01*
X138222138Y-110205181D01*
X138160815Y-110238666D01*
X138134457Y-110241500D01*
X128069787Y-110241500D01*
X128002748Y-110221815D01*
X127971557Y-110191838D01*
X127971231Y-110192112D01*
X127968683Y-110189076D01*
X127968213Y-110188624D01*
X127967754Y-110187969D01*
X127967753Y-110187968D01*
X127967749Y-110187962D01*
X127812038Y-110032251D01*
X127631654Y-109905944D01*
X127585575Y-109884457D01*
X127432081Y-109812882D01*
X127432079Y-109812881D01*
X127432076Y-109812880D01*
X127270253Y-109769519D01*
X127219372Y-109755885D01*
X127219365Y-109755884D01*
X127000002Y-109736693D01*
X126999998Y-109736693D01*
X126780634Y-109755884D01*
X126780627Y-109755885D01*
X126567920Y-109812881D01*
X126368346Y-109905944D01*
X126368342Y-109905946D01*
X126187967Y-110032247D01*
X126187960Y-110032252D01*
X126032252Y-110187960D01*
X126032247Y-110187967D01*
X125905946Y-110368342D01*
X125905944Y-110368346D01*
X125812881Y-110567920D01*
X125755885Y-110780627D01*
X125755884Y-110780634D01*
X125750495Y-110842238D01*
X125736693Y-111000000D01*
X125263307Y-111000000D01*
X125244115Y-110780629D01*
X125187120Y-110567924D01*
X125094056Y-110368347D01*
X125094054Y-110368344D01*
X125094053Y-110368342D01*
X125003252Y-110238666D01*
X124967749Y-110187962D01*
X124812038Y-110032251D01*
X124812035Y-110032249D01*
X124812025Y-110032240D01*
X124811363Y-110031777D01*
X124811140Y-110031497D01*
X124807888Y-110028769D01*
X124808436Y-110028115D01*
X124767745Y-109977194D01*
X124758500Y-109930212D01*
X124758500Y-107365543D01*
X124778185Y-107298504D01*
X124794819Y-107277862D01*
X125582862Y-106489819D01*
X125644185Y-106456334D01*
X125670543Y-106453500D01*
X133243053Y-106453500D01*
X133310092Y-106473185D01*
X133350440Y-106515500D01*
X133466557Y-106716621D01*
X133635558Y-106928542D01*
X133834257Y-107112907D01*
X134058215Y-107265599D01*
X134302428Y-107383206D01*
X134561442Y-107463101D01*
X134561443Y-107463101D01*
X134561446Y-107463102D01*
X134829464Y-107503499D01*
X134829469Y-107503499D01*
X134829472Y-107503500D01*
X134829473Y-107503500D01*
X135100527Y-107503500D01*
X135100528Y-107503500D01*
X135143726Y-107496989D01*
X135368553Y-107463102D01*
X135368554Y-107463101D01*
X135368558Y-107463101D01*
X135627572Y-107383206D01*
X135871786Y-107265599D01*
X136095743Y-107112907D01*
X136294442Y-106928542D01*
X136463443Y-106716621D01*
X136598971Y-106481879D01*
X136697999Y-106229559D01*
X136758315Y-105965299D01*
X136778571Y-105695000D01*
X136758315Y-105424701D01*
X136697999Y-105160441D01*
X136598971Y-104908121D01*
X136463443Y-104673379D01*
X136294442Y-104461458D01*
X136095743Y-104277093D01*
X135871786Y-104124401D01*
X135871780Y-104124398D01*
X135871779Y-104124397D01*
X135871778Y-104124396D01*
X135627574Y-104006795D01*
X135627576Y-104006795D01*
X135368559Y-103926899D01*
X135368553Y-103926897D01*
X135100535Y-103886500D01*
X135100528Y-103886500D01*
X134829472Y-103886500D01*
X134829464Y-103886500D01*
X134561446Y-103926897D01*
X134561440Y-103926899D01*
X134302427Y-104006794D01*
X134058219Y-104124398D01*
X133834256Y-104277093D01*
X133635560Y-104461456D01*
X133635558Y-104461458D01*
X133466557Y-104673379D01*
X133350440Y-104874500D01*
X133299873Y-104922716D01*
X133243053Y-104936500D01*
X127923062Y-104936500D01*
X127856023Y-104916815D01*
X127810268Y-104864011D01*
X127800324Y-104794853D01*
X127829349Y-104731297D01*
X127841139Y-104719416D01*
X127867541Y-104696179D01*
X127984324Y-104593398D01*
X128129600Y-104413476D01*
X128242380Y-104211591D01*
X128319419Y-103993550D01*
X128337774Y-103886500D01*
X128358499Y-103765634D01*
X128358500Y-103765623D01*
X128358500Y-103292287D01*
X128358499Y-103292269D01*
X128343802Y-103119586D01*
X128285530Y-102895793D01*
X128285529Y-102895789D01*
X128190283Y-102685080D01*
X128190276Y-102685068D01*
X128060790Y-102493486D01*
X128060786Y-102493481D01*
X128060783Y-102493477D01*
X127900772Y-102326524D01*
X127714847Y-102189015D01*
X127714846Y-102189014D01*
X127714844Y-102189013D01*
X127508358Y-102084905D01*
X127380888Y-102045867D01*
X127287243Y-102017189D01*
X127287241Y-102017188D01*
X127287242Y-102017188D01*
X127057859Y-101987815D01*
X126826827Y-101997630D01*
X126826821Y-101997630D01*
X126600759Y-102046351D01*
X126386190Y-102132572D01*
X126189270Y-102253820D01*
X126015679Y-102406599D01*
X126015674Y-102406604D01*
X125991757Y-102436224D01*
X125934326Y-102476015D01*
X125864498Y-102478440D01*
X125804444Y-102442728D01*
X125789747Y-102423423D01*
X125699030Y-102276348D01*
X125573652Y-102150970D01*
X125422738Y-102057885D01*
X125387930Y-102046351D01*
X125254427Y-102002113D01*
X125150545Y-101991500D01*
X123849462Y-101991500D01*
X123849446Y-101991501D01*
X123745572Y-102002113D01*
X123577264Y-102057884D01*
X123577259Y-102057886D01*
X123426346Y-102150971D01*
X123300971Y-102276346D01*
X123207886Y-102427259D01*
X123207884Y-102427264D01*
X123152113Y-102595572D01*
X123141500Y-102699447D01*
X123141500Y-104300537D01*
X123141501Y-104300553D01*
X123152113Y-104404427D01*
X123207884Y-104572735D01*
X123207886Y-104572740D01*
X123219052Y-104590842D01*
X123300970Y-104723652D01*
X123426348Y-104849030D01*
X123577262Y-104942115D01*
X123745574Y-104997887D01*
X123849455Y-105008500D01*
X124619457Y-105008499D01*
X124686495Y-105028183D01*
X124732250Y-105080987D01*
X124742194Y-105150146D01*
X124713169Y-105213702D01*
X124707137Y-105220180D01*
X123509122Y-106418195D01*
X123495495Y-106429973D01*
X123475941Y-106444531D01*
X123443713Y-106482938D01*
X123436421Y-106490897D01*
X123432420Y-106494898D01*
X123412983Y-106519479D01*
X123410710Y-106522269D01*
X123361967Y-106580360D01*
X123358001Y-106586391D01*
X123357963Y-106586366D01*
X123353782Y-106592928D01*
X123353821Y-106592952D01*
X123350035Y-106599088D01*
X123331168Y-106639547D01*
X123317967Y-106667855D01*
X123316412Y-106671068D01*
X123282391Y-106738810D01*
X123279923Y-106745593D01*
X123279878Y-106745576D01*
X123277322Y-106752932D01*
X123277366Y-106752947D01*
X123275096Y-106759794D01*
X123259758Y-106834073D01*
X123258978Y-106837589D01*
X123241499Y-106911344D01*
X123240661Y-106918519D01*
X123240613Y-106918513D01*
X123239823Y-106926244D01*
X123239870Y-106926249D01*
X123239240Y-106933438D01*
X123241448Y-107009290D01*
X123241500Y-107012897D01*
X123241500Y-109930212D01*
X123221815Y-109997251D01*
X123191839Y-110028444D01*
X123192112Y-110028769D01*
X123189093Y-110031302D01*
X123188637Y-110031777D01*
X123187974Y-110032240D01*
X123187958Y-110032254D01*
X123032252Y-110187960D01*
X123032247Y-110187967D01*
X122905946Y-110368342D01*
X122905944Y-110368346D01*
X122812881Y-110567920D01*
X122755885Y-110780627D01*
X122755884Y-110780634D01*
X122750495Y-110842238D01*
X122736693Y-111000000D01*
X122263307Y-111000000D01*
X122244115Y-110780629D01*
X122187120Y-110567924D01*
X122094056Y-110368347D01*
X122094054Y-110368344D01*
X122094053Y-110368342D01*
X122003252Y-110238666D01*
X121967749Y-110187962D01*
X121812038Y-110032251D01*
X121631654Y-109905944D01*
X121585575Y-109884457D01*
X121432081Y-109812882D01*
X121432079Y-109812881D01*
X121432076Y-109812880D01*
X121270253Y-109769519D01*
X121219372Y-109755885D01*
X121219365Y-109755884D01*
X121000002Y-109736693D01*
X120999998Y-109736693D01*
X120780634Y-109755884D01*
X120780627Y-109755885D01*
X120567920Y-109812881D01*
X120368346Y-109905944D01*
X120368342Y-109905946D01*
X120187967Y-110032247D01*
X120187960Y-110032252D01*
X120032252Y-110187960D01*
X120032247Y-110187967D01*
X119905946Y-110368342D01*
X119905944Y-110368346D01*
X119812881Y-110567920D01*
X119755885Y-110780627D01*
X119755884Y-110780634D01*
X119750495Y-110842238D01*
X119736693Y-111000000D01*
X119263307Y-111000000D01*
X119244115Y-110780629D01*
X119187120Y-110567924D01*
X119094056Y-110368347D01*
X119094054Y-110368344D01*
X119094053Y-110368342D01*
X119003252Y-110238666D01*
X118967749Y-110187962D01*
X118812038Y-110032251D01*
X118812035Y-110032249D01*
X118812025Y-110032240D01*
X118811363Y-110031777D01*
X118811140Y-110031497D01*
X118807888Y-110028769D01*
X118808436Y-110028115D01*
X118767745Y-109977194D01*
X118758500Y-109930212D01*
X118758500Y-108064294D01*
X118759809Y-108046324D01*
X118763341Y-108022208D01*
X118758972Y-107972275D01*
X118758500Y-107961466D01*
X118758500Y-107955824D01*
X118758499Y-107955815D01*
X118754862Y-107924700D01*
X118754495Y-107921108D01*
X118747887Y-107845576D01*
X118746427Y-107838503D01*
X118746473Y-107838493D01*
X118744790Y-107830902D01*
X118744744Y-107830914D01*
X118743079Y-107823893D01*
X118743079Y-107823887D01*
X118717120Y-107752566D01*
X118715981Y-107749290D01*
X118692114Y-107677262D01*
X118692111Y-107677257D01*
X118689061Y-107670715D01*
X118689105Y-107670694D01*
X118685717Y-107663695D01*
X118685674Y-107663717D01*
X118682437Y-107657271D01*
X118681534Y-107655898D01*
X118640717Y-107593840D01*
X118638834Y-107590883D01*
X118599030Y-107526349D01*
X118594553Y-107520687D01*
X118594590Y-107520656D01*
X118589681Y-107514629D01*
X118589645Y-107514660D01*
X118585002Y-107509127D01*
X118529825Y-107457070D01*
X118527238Y-107454557D01*
X117544819Y-106472138D01*
X117511334Y-106410815D01*
X117508500Y-106384457D01*
X117508500Y-104797327D01*
X117528185Y-104730288D01*
X117556821Y-104699710D01*
X117556776Y-104699659D01*
X117557305Y-104699192D01*
X117558773Y-104697626D01*
X117560719Y-104696185D01*
X117560730Y-104696179D01*
X117734324Y-104543398D01*
X117879600Y-104363476D01*
X117992380Y-104161591D01*
X118069419Y-103943550D01*
X118079946Y-103882153D01*
X118108499Y-103715634D01*
X118108500Y-103715623D01*
X118108500Y-103292287D01*
X118108499Y-103292269D01*
X118093802Y-103119586D01*
X118035530Y-102895793D01*
X118035529Y-102895789D01*
X117940283Y-102685080D01*
X117940276Y-102685068D01*
X117810790Y-102493486D01*
X117810786Y-102493481D01*
X117810783Y-102493477D01*
X117650772Y-102326524D01*
X117464847Y-102189015D01*
X117464846Y-102189014D01*
X117464844Y-102189013D01*
X117258358Y-102084905D01*
X117130888Y-102045867D01*
X117037243Y-102017189D01*
X117037241Y-102017188D01*
X117037242Y-102017188D01*
X116807859Y-101987815D01*
X116576827Y-101997630D01*
X116576821Y-101997630D01*
X116350759Y-102046351D01*
X116136190Y-102132572D01*
X115939270Y-102253820D01*
X115765679Y-102406599D01*
X115765672Y-102406605D01*
X115620404Y-102586517D01*
X115620397Y-102586527D01*
X115606968Y-102610567D01*
X115557089Y-102659493D01*
X115488675Y-102673685D01*
X115423450Y-102648637D01*
X115395980Y-102619529D01*
X115310790Y-102493487D01*
X115310788Y-102493485D01*
X115310783Y-102493477D01*
X115150772Y-102326524D01*
X114964847Y-102189015D01*
X114964846Y-102189014D01*
X114964844Y-102189013D01*
X114758358Y-102084905D01*
X114630888Y-102045867D01*
X114537243Y-102017189D01*
X114537241Y-102017188D01*
X114537242Y-102017188D01*
X114307859Y-101987815D01*
X114076827Y-101997630D01*
X114076821Y-101997630D01*
X113850759Y-102046351D01*
X113636190Y-102132572D01*
X113439270Y-102253820D01*
X113265679Y-102406599D01*
X113265672Y-102406605D01*
X113120404Y-102586517D01*
X113120397Y-102586527D01*
X113106968Y-102610567D01*
X113057089Y-102659493D01*
X112988675Y-102673685D01*
X112923450Y-102648637D01*
X112895980Y-102619529D01*
X112810790Y-102493487D01*
X112810788Y-102493485D01*
X112810783Y-102493477D01*
X112650772Y-102326524D01*
X112464847Y-102189015D01*
X112464846Y-102189014D01*
X112464844Y-102189013D01*
X112258358Y-102084905D01*
X112130888Y-102045867D01*
X112037243Y-102017189D01*
X112037241Y-102017188D01*
X112037242Y-102017188D01*
X111807859Y-101987815D01*
X111576827Y-101997630D01*
X111576821Y-101997630D01*
X111350759Y-102046351D01*
X111136190Y-102132572D01*
X110939270Y-102253820D01*
X110765679Y-102406599D01*
X110765674Y-102406604D01*
X110741757Y-102436224D01*
X110684326Y-102476015D01*
X110614498Y-102478440D01*
X110554444Y-102442728D01*
X110539747Y-102423423D01*
X110449030Y-102276348D01*
X110323652Y-102150970D01*
X110172738Y-102057885D01*
X110137930Y-102046351D01*
X110004427Y-102002113D01*
X109900545Y-101991500D01*
X108599462Y-101991500D01*
X108599446Y-101991501D01*
X108495572Y-102002113D01*
X108327264Y-102057884D01*
X108327259Y-102057886D01*
X108176346Y-102150971D01*
X108050971Y-102276346D01*
X107957886Y-102427259D01*
X107957884Y-102427264D01*
X107902113Y-102595572D01*
X107891500Y-102699447D01*
X107891500Y-104250537D01*
X107891501Y-104250553D01*
X107902113Y-104354427D01*
X107957884Y-104522735D01*
X107957886Y-104522740D01*
X107960110Y-104526346D01*
X108050970Y-104673652D01*
X108176348Y-104799030D01*
X108327262Y-104892115D01*
X108406504Y-104918372D01*
X108463947Y-104958143D01*
X108490772Y-105022658D01*
X108491500Y-105036078D01*
X108491500Y-109625227D01*
X108471815Y-109692266D01*
X108419011Y-109738021D01*
X108380104Y-109748585D01*
X108345571Y-109752113D01*
X108177264Y-109807883D01*
X108177261Y-109807884D01*
X108026352Y-109900967D01*
X108026348Y-109900970D01*
X107900970Y-110026348D01*
X107900967Y-110026352D01*
X107807884Y-110177261D01*
X107807883Y-110177264D01*
X107752113Y-110345571D01*
X107741500Y-110449448D01*
X107741500Y-111550551D01*
X106758500Y-111550551D01*
X106758500Y-105064293D01*
X106759809Y-105046322D01*
X106763341Y-105022211D01*
X106762141Y-105008500D01*
X106758972Y-104972273D01*
X106758500Y-104961465D01*
X106758500Y-104955824D01*
X106758500Y-104955820D01*
X106754854Y-104924636D01*
X106754494Y-104921104D01*
X106753968Y-104915095D01*
X106749500Y-104864011D01*
X106747888Y-104845577D01*
X106746427Y-104838504D01*
X106746475Y-104838493D01*
X106744794Y-104830909D01*
X106744746Y-104830921D01*
X106743079Y-104823893D01*
X106743079Y-104823887D01*
X106717147Y-104752640D01*
X106715964Y-104749235D01*
X106698382Y-104696177D01*
X106692114Y-104677261D01*
X106692110Y-104677255D01*
X106689060Y-104670712D01*
X106689104Y-104670691D01*
X106685720Y-104663701D01*
X106685676Y-104663724D01*
X106682437Y-104657275D01*
X106682435Y-104657268D01*
X106660210Y-104623476D01*
X106640747Y-104593883D01*
X106638840Y-104590891D01*
X106599030Y-104526349D01*
X106599027Y-104526346D01*
X106594552Y-104520686D01*
X106594590Y-104520655D01*
X106589681Y-104514629D01*
X106589645Y-104514660D01*
X106585002Y-104509127D01*
X106529825Y-104457070D01*
X106527238Y-104454557D01*
X105081804Y-103009123D01*
X105070022Y-102995490D01*
X105055472Y-102975946D01*
X105055471Y-102975945D01*
X105055469Y-102975942D01*
X105054380Y-102975028D01*
X105017059Y-102943711D01*
X105009085Y-102936404D01*
X105005102Y-102932421D01*
X105005096Y-102932416D01*
X104980512Y-102912976D01*
X104977719Y-102910701D01*
X104919642Y-102861970D01*
X104919640Y-102861968D01*
X104919635Y-102861965D01*
X104913605Y-102857999D01*
X104913630Y-102857959D01*
X104907069Y-102853779D01*
X104907045Y-102853820D01*
X104900907Y-102850034D01*
X104900906Y-102850033D01*
X104900903Y-102850032D01*
X104900899Y-102850029D01*
X104832160Y-102817974D01*
X104828916Y-102816404D01*
X104761185Y-102782389D01*
X104754401Y-102779920D01*
X104754416Y-102779876D01*
X104747071Y-102777322D01*
X104747057Y-102777367D01*
X104740205Y-102775096D01*
X104665926Y-102759758D01*
X104662408Y-102758978D01*
X104588653Y-102741499D01*
X104581482Y-102740661D01*
X104581487Y-102740612D01*
X104573757Y-102739822D01*
X104573753Y-102739870D01*
X104566562Y-102739240D01*
X104490707Y-102741448D01*
X104487101Y-102741500D01*
X101544275Y-102741500D01*
X101477236Y-102721815D01*
X101441540Y-102686937D01*
X101310790Y-102493487D01*
X101310788Y-102493485D01*
X101310783Y-102493477D01*
X101150772Y-102326524D01*
X100964847Y-102189015D01*
X100964846Y-102189014D01*
X100964844Y-102189013D01*
X100758358Y-102084905D01*
X100630888Y-102045867D01*
X100537243Y-102017189D01*
X100537241Y-102017188D01*
X100537242Y-102017188D01*
X100307859Y-101987815D01*
X100076827Y-101997630D01*
X100076821Y-101997630D01*
X99850759Y-102046351D01*
X99636190Y-102132572D01*
X99439270Y-102253820D01*
X99265679Y-102406599D01*
X99265674Y-102406604D01*
X99241757Y-102436224D01*
X99184326Y-102476015D01*
X99114498Y-102478440D01*
X99054444Y-102442728D01*
X99039747Y-102423423D01*
X98949030Y-102276348D01*
X98823652Y-102150970D01*
X98672738Y-102057885D01*
X98637930Y-102046351D01*
X98504427Y-102002113D01*
X98400545Y-101991500D01*
X97099462Y-101991500D01*
X97099446Y-101991501D01*
X96995572Y-102002113D01*
X96827264Y-102057884D01*
X96827259Y-102057886D01*
X96676346Y-102150971D01*
X96550971Y-102276346D01*
X96457886Y-102427259D01*
X96457884Y-102427264D01*
X96402113Y-102595572D01*
X96391500Y-102699447D01*
X96391500Y-104300537D01*
X96391501Y-104300553D01*
X96402113Y-104404427D01*
X96457884Y-104572735D01*
X96457886Y-104572740D01*
X96469052Y-104590842D01*
X96550970Y-104723652D01*
X96676348Y-104849030D01*
X96827262Y-104942115D01*
X96995574Y-104997887D01*
X97099455Y-105008500D01*
X98400544Y-105008499D01*
X98504426Y-104997887D01*
X98672738Y-104942115D01*
X98823652Y-104849030D01*
X98949030Y-104723652D01*
X99040417Y-104575489D01*
X99092363Y-104528768D01*
X99161326Y-104517545D01*
X99225408Y-104545389D01*
X99235468Y-104554780D01*
X99349228Y-104673476D01*
X99535153Y-104810985D01*
X99741643Y-104915095D01*
X99962757Y-104982811D01*
X100192135Y-105012184D01*
X100423178Y-105002369D01*
X100649238Y-104953649D01*
X100863813Y-104867426D01*
X101060730Y-104746179D01*
X101234324Y-104593398D01*
X101379600Y-104413476D01*
X101430687Y-104322025D01*
X101480567Y-104273100D01*
X101538941Y-104258500D01*
X104134457Y-104258500D01*
X104201496Y-104278185D01*
X104222138Y-104294819D01*
X105205181Y-105277862D01*
X105238666Y-105339185D01*
X105241500Y-105365543D01*
X105241500Y-112435706D01*
X105240191Y-112453676D01*
X105236658Y-112477791D01*
X105241028Y-112527724D01*
X105241500Y-112538533D01*
X105241500Y-112544183D01*
X105245139Y-112575322D01*
X105245505Y-112578905D01*
X105252112Y-112654426D01*
X105253572Y-112661494D01*
X105253526Y-112661503D01*
X105255209Y-112669094D01*
X105255254Y-112669084D01*
X105256919Y-112676110D01*
X105282854Y-112747367D01*
X105284037Y-112750770D01*
X105304619Y-112812880D01*
X105307886Y-112822738D01*
X105307889Y-112822743D01*
X105310940Y-112829286D01*
X105310896Y-112829306D01*
X105314284Y-112836304D01*
X105314327Y-112836283D01*
X105317568Y-112842737D01*
X105359245Y-112906103D01*
X105361167Y-112909120D01*
X105400970Y-112973651D01*
X105400971Y-112973652D01*
X105400973Y-112973655D01*
X105405451Y-112979318D01*
X105405413Y-112979347D01*
X105410320Y-112985372D01*
X105410357Y-112985342D01*
X105415002Y-112990877D01*
X105470172Y-113042927D01*
X105472760Y-113045441D01*
X106493837Y-114066518D01*
X106527322Y-114127841D01*
X106522338Y-114197533D01*
X106480466Y-114253466D01*
X106415002Y-114277883D01*
X106350505Y-114265009D01*
X106261881Y-114220500D01*
X106257122Y-114219372D01*
X106088890Y-114179500D01*
X105955708Y-114179500D01*
X105839958Y-114193029D01*
X105823422Y-114194962D01*
X105823419Y-114194963D01*
X105656367Y-114255764D01*
X105576586Y-114308237D01*
X105507832Y-114353457D01*
X105507831Y-114353457D01*
X105507831Y-114353458D01*
X105385833Y-114482767D01*
X105296944Y-114636728D01*
X105245955Y-114807041D01*
X105245954Y-114807046D01*
X105235618Y-114984519D01*
X105235618Y-114984520D01*
X105262055Y-115134457D01*
X105266489Y-115159599D01*
X105284562Y-115201496D01*
X105336904Y-115322839D01*
X105443067Y-115465439D01*
X105511082Y-115522511D01*
X105549784Y-115580683D01*
X105550892Y-115650543D01*
X105514055Y-115709913D01*
X105450967Y-115739943D01*
X105431376Y-115741500D01*
X104865543Y-115741500D01*
X104798504Y-115721815D01*
X104777862Y-115705181D01*
X104294819Y-115222138D01*
X104261334Y-115160815D01*
X104258500Y-115134457D01*
X104258500Y-114064293D01*
X104259809Y-114046322D01*
X104261777Y-114032885D01*
X104263341Y-114022211D01*
X104262648Y-114014294D01*
X104258972Y-113972273D01*
X104258500Y-113961465D01*
X104258500Y-113955824D01*
X104258500Y-113955820D01*
X104254854Y-113924636D01*
X104254494Y-113921104D01*
X104254267Y-113918513D01*
X104250278Y-113872904D01*
X104247888Y-113845577D01*
X104246427Y-113838504D01*
X104246475Y-113838493D01*
X104244794Y-113830909D01*
X104244746Y-113830921D01*
X104243079Y-113823893D01*
X104243079Y-113823887D01*
X104217147Y-113752640D01*
X104215964Y-113749235D01*
X104192115Y-113677265D01*
X104192114Y-113677261D01*
X104192110Y-113677255D01*
X104189060Y-113670712D01*
X104189104Y-113670691D01*
X104185720Y-113663701D01*
X104185676Y-113663724D01*
X104182437Y-113657275D01*
X104182435Y-113657268D01*
X104156452Y-113617762D01*
X104140747Y-113593883D01*
X104138840Y-113590891D01*
X104099030Y-113526349D01*
X104099027Y-113526346D01*
X104094552Y-113520686D01*
X104094590Y-113520655D01*
X104089681Y-113514629D01*
X104089645Y-113514660D01*
X104085002Y-113509127D01*
X104029825Y-113457070D01*
X104027238Y-113454557D01*
X102881804Y-112309123D01*
X102870022Y-112295490D01*
X102855472Y-112275946D01*
X102855471Y-112275945D01*
X102855469Y-112275942D01*
X102848615Y-112270191D01*
X102817059Y-112243711D01*
X102809085Y-112236404D01*
X102805102Y-112232421D01*
X102805096Y-112232416D01*
X102780512Y-112212976D01*
X102777719Y-112210701D01*
X102719642Y-112161970D01*
X102719640Y-112161968D01*
X102719635Y-112161965D01*
X102713605Y-112157999D01*
X102713630Y-112157959D01*
X102707069Y-112153779D01*
X102707045Y-112153820D01*
X102700907Y-112150034D01*
X102700906Y-112150033D01*
X102700903Y-112150032D01*
X102700899Y-112150029D01*
X102632160Y-112117974D01*
X102628916Y-112116404D01*
X102561185Y-112082389D01*
X102554401Y-112079920D01*
X102554416Y-112079876D01*
X102547071Y-112077322D01*
X102547057Y-112077367D01*
X102540205Y-112075096D01*
X102465926Y-112059758D01*
X102462408Y-112058978D01*
X102388653Y-112041499D01*
X102381482Y-112040661D01*
X102381487Y-112040612D01*
X102373757Y-112039822D01*
X102373753Y-112039870D01*
X102366562Y-112039240D01*
X102290707Y-112041448D01*
X102287101Y-112041500D01*
X98764294Y-112041500D01*
X98746324Y-112040191D01*
X98722206Y-112036658D01*
X98675411Y-112040753D01*
X98672272Y-112041028D01*
X98661466Y-112041500D01*
X98655816Y-112041500D01*
X98624680Y-112045139D01*
X98621097Y-112045505D01*
X98545574Y-112052112D01*
X98538506Y-112053572D01*
X98538496Y-112053528D01*
X98530906Y-112055210D01*
X98530917Y-112055254D01*
X98523886Y-112056920D01*
X98452652Y-112082847D01*
X98449249Y-112084030D01*
X98377262Y-112107885D01*
X98370720Y-112110936D01*
X98370700Y-112110894D01*
X98363696Y-112114285D01*
X98363717Y-112114326D01*
X98357264Y-112117566D01*
X98293900Y-112159241D01*
X98290861Y-112161178D01*
X98226346Y-112200972D01*
X98220683Y-112205450D01*
X98220653Y-112205413D01*
X98214627Y-112210322D01*
X98214657Y-112210357D01*
X98209126Y-112214997D01*
X98157052Y-112270191D01*
X98154541Y-112272776D01*
X97259122Y-113168195D01*
X97245495Y-113179973D01*
X97225941Y-113194531D01*
X97193713Y-113232938D01*
X97186421Y-113240897D01*
X97182420Y-113244898D01*
X97162983Y-113269479D01*
X97160710Y-113272269D01*
X97111967Y-113330360D01*
X97108001Y-113336391D01*
X97107963Y-113336366D01*
X97103782Y-113342928D01*
X97103821Y-113342952D01*
X97100035Y-113349088D01*
X97081168Y-113389547D01*
X97067967Y-113417855D01*
X97066412Y-113421068D01*
X97032391Y-113488810D01*
X97029923Y-113495593D01*
X97029878Y-113495576D01*
X97027322Y-113502932D01*
X97027366Y-113502947D01*
X97025096Y-113509794D01*
X97009758Y-113584073D01*
X97008978Y-113587589D01*
X96991499Y-113661344D01*
X96990661Y-113668519D01*
X96990613Y-113668513D01*
X96989823Y-113676244D01*
X96989870Y-113676249D01*
X96989240Y-113683438D01*
X96991448Y-113759290D01*
X96991500Y-113762897D01*
X96991500Y-113888921D01*
X96971815Y-113955960D01*
X96919011Y-114001715D01*
X96906504Y-114006627D01*
X96827264Y-114032884D01*
X96827259Y-114032886D01*
X96676346Y-114125971D01*
X96550971Y-114251346D01*
X96457886Y-114402259D01*
X96457884Y-114402264D01*
X96402113Y-114570572D01*
X96391500Y-114674447D01*
X96391500Y-116275537D01*
X87525500Y-116275537D01*
X87525500Y-100149500D01*
X87545185Y-100082461D01*
X87597989Y-100036706D01*
X87649500Y-100025500D01*
X150350500Y-100025500D01*
X150417539Y-100045185D01*
G37*
%TD.AperFunction*%
%TD*%
%TA.AperFunction,NonConductor*%
G36*
X125975408Y-104545389D02*
G01*
X125985468Y-104554780D01*
X126099228Y-104673476D01*
X126152407Y-104712807D01*
X126194599Y-104768495D01*
X126199987Y-104838156D01*
X126166857Y-104899672D01*
X126105729Y-104933512D01*
X126078670Y-104936500D01*
X125785544Y-104936500D01*
X125718505Y-104916815D01*
X125672750Y-104864011D01*
X125662806Y-104794853D01*
X125691831Y-104731297D01*
X125697863Y-104724819D01*
X125699030Y-104723652D01*
X125790417Y-104575489D01*
X125842363Y-104528768D01*
X125911326Y-104517545D01*
X125975408Y-104545389D01*
G37*
%TD.AperFunction*%
%TA.AperFunction,NonConductor*%
G36*
X102001496Y-113578185D02*
G01*
X102022138Y-113594819D01*
X102705181Y-114277862D01*
X102738666Y-114339185D01*
X102741500Y-114365543D01*
X102741500Y-115435706D01*
X102740191Y-115453676D01*
X102736658Y-115477791D01*
X102741028Y-115527724D01*
X102741500Y-115538533D01*
X102741500Y-115544183D01*
X102745139Y-115575322D01*
X102745505Y-115578905D01*
X102752112Y-115654426D01*
X102753572Y-115661494D01*
X102753526Y-115661503D01*
X102755209Y-115669094D01*
X102755254Y-115669084D01*
X102756919Y-115676110D01*
X102782854Y-115747367D01*
X102784037Y-115750770D01*
X102805838Y-115816558D01*
X102807886Y-115822738D01*
X102807889Y-115822743D01*
X102810940Y-115829286D01*
X102810896Y-115829306D01*
X102814284Y-115836304D01*
X102814327Y-115836283D01*
X102817568Y-115842737D01*
X102859245Y-115906103D01*
X102861167Y-115909120D01*
X102900970Y-115973651D01*
X102900973Y-115973654D01*
X102905451Y-115979318D01*
X102905413Y-115979347D01*
X102910320Y-115985372D01*
X102910357Y-115985342D01*
X102915002Y-115990877D01*
X102970172Y-116042927D01*
X102972760Y-116045441D01*
X103918196Y-116990877D01*
X103929978Y-117004510D01*
X103944531Y-117024058D01*
X103949487Y-117029311D01*
X103948089Y-117030629D01*
X103981391Y-117080689D01*
X103982495Y-117150550D01*
X103945654Y-117209918D01*
X103882565Y-117239944D01*
X103862981Y-117241500D01*
X101365543Y-117241500D01*
X101298504Y-117221815D01*
X101277862Y-117205181D01*
X101044819Y-116972138D01*
X101011334Y-116910815D01*
X101008500Y-116884457D01*
X101008500Y-116822327D01*
X101028185Y-116755288D01*
X101056821Y-116724710D01*
X101056776Y-116724659D01*
X101057305Y-116724192D01*
X101058773Y-116722626D01*
X101060719Y-116721185D01*
X101060730Y-116721179D01*
X101234324Y-116568398D01*
X101379600Y-116388476D01*
X101492380Y-116186591D01*
X101569419Y-115968550D01*
X101581019Y-115900898D01*
X101608499Y-115740634D01*
X101608500Y-115740623D01*
X101608500Y-115267287D01*
X101608499Y-115267269D01*
X101593802Y-115094586D01*
X101535530Y-114870793D01*
X101535529Y-114870789D01*
X101440283Y-114660080D01*
X101440276Y-114660068D01*
X101310790Y-114468486D01*
X101310786Y-114468481D01*
X101310783Y-114468477D01*
X101150772Y-114301524D01*
X100964847Y-114164015D01*
X100964846Y-114164014D01*
X100964844Y-114164013D01*
X100758358Y-114059905D01*
X100593083Y-114009290D01*
X100537243Y-113992189D01*
X100537241Y-113992188D01*
X100537242Y-113992188D01*
X100307859Y-113962815D01*
X100076827Y-113972630D01*
X100076821Y-113972630D01*
X99850759Y-114021351D01*
X99636190Y-114107572D01*
X99439270Y-114228820D01*
X99265679Y-114381599D01*
X99265674Y-114381604D01*
X99241757Y-114411224D01*
X99184326Y-114451015D01*
X99114498Y-114453440D01*
X99054444Y-114417728D01*
X99039747Y-114398423D01*
X98949030Y-114251348D01*
X98823652Y-114125970D01*
X98823648Y-114125967D01*
X98723987Y-114064495D01*
X98677262Y-114012547D01*
X98666041Y-113943585D01*
X98693884Y-113879503D01*
X98701378Y-113871301D01*
X98977864Y-113594816D01*
X99039185Y-113561334D01*
X99065543Y-113558500D01*
X101934457Y-113558500D01*
X102001496Y-113578185D01*
G37*
%TD.AperFunction*%
%TA.AperFunction,NonConductor*%
G36*
X136301496Y-113578185D02*
G01*
X136322138Y-113594819D01*
X136854792Y-114127473D01*
X136888277Y-114188796D01*
X136883293Y-114258488D01*
X136849035Y-114308237D01*
X136765679Y-114381598D01*
X136765674Y-114381604D01*
X136741757Y-114411224D01*
X136684326Y-114451015D01*
X136614498Y-114453440D01*
X136554444Y-114417728D01*
X136539747Y-114398423D01*
X136449030Y-114251348D01*
X136323652Y-114125970D01*
X136172738Y-114032885D01*
X136172735Y-114032884D01*
X136004427Y-113977113D01*
X135900545Y-113966500D01*
X134599462Y-113966500D01*
X134599446Y-113966501D01*
X134495572Y-113977113D01*
X134327264Y-114032884D01*
X134327259Y-114032886D01*
X134176346Y-114125971D01*
X134050971Y-114251346D01*
X133957886Y-114402259D01*
X133957884Y-114402264D01*
X133902113Y-114570572D01*
X133891500Y-114674447D01*
X133891500Y-116275537D01*
X133891501Y-116275553D01*
X133902113Y-116379427D01*
X133957884Y-116547735D01*
X133957886Y-116547740D01*
X133970626Y-116568394D01*
X134050970Y-116698652D01*
X134176348Y-116824030D01*
X134306937Y-116904578D01*
X134353660Y-116956525D01*
X134364883Y-117025488D01*
X134337039Y-117089570D01*
X134329521Y-117097797D01*
X134022136Y-117405182D01*
X133960815Y-117438666D01*
X133934457Y-117441500D01*
X131588564Y-117441500D01*
X131521525Y-117421815D01*
X131475770Y-117369011D01*
X131465826Y-117299853D01*
X131494851Y-117236297D01*
X131549560Y-117199794D01*
X131572738Y-117192114D01*
X131572744Y-117192109D01*
X131579284Y-117189061D01*
X131579305Y-117189106D01*
X131586302Y-117185719D01*
X131586280Y-117185675D01*
X131592728Y-117182436D01*
X131592732Y-117182435D01*
X131656103Y-117140753D01*
X131659110Y-117138837D01*
X131723651Y-117099030D01*
X131723656Y-117099024D01*
X131729319Y-117094548D01*
X131729350Y-117094587D01*
X131735374Y-117089680D01*
X131735342Y-117089642D01*
X131740864Y-117085006D01*
X131740874Y-117085001D01*
X131792962Y-117029789D01*
X131795409Y-117027270D01*
X132490880Y-116331799D01*
X132504506Y-116320023D01*
X132524058Y-116305469D01*
X132549160Y-116275553D01*
X132556274Y-116267075D01*
X132563590Y-116259090D01*
X132567580Y-116255101D01*
X132587043Y-116230485D01*
X132589245Y-116227781D01*
X132638032Y-116169640D01*
X132638033Y-116169636D01*
X132638036Y-116169634D01*
X132642003Y-116163603D01*
X132642043Y-116163629D01*
X132646212Y-116157086D01*
X132646171Y-116157061D01*
X132649960Y-116150913D01*
X132649967Y-116150906D01*
X132682024Y-116082159D01*
X132683552Y-116078999D01*
X132717609Y-116011188D01*
X132717609Y-116011185D01*
X132720079Y-116004400D01*
X132720126Y-116004417D01*
X132722678Y-115997075D01*
X132722631Y-115997060D01*
X132724901Y-115990210D01*
X132727480Y-115977721D01*
X132740248Y-115915879D01*
X132740996Y-115912502D01*
X132758500Y-115838656D01*
X132758500Y-115838652D01*
X132758501Y-115838648D01*
X132759339Y-115831483D01*
X132759386Y-115831488D01*
X132760176Y-115823757D01*
X132760129Y-115823753D01*
X132760758Y-115816562D01*
X132758552Y-115740741D01*
X132758500Y-115737135D01*
X132758500Y-114365543D01*
X132778185Y-114298504D01*
X132794819Y-114277862D01*
X133477862Y-113594819D01*
X133539185Y-113561334D01*
X133565543Y-113558500D01*
X136234457Y-113558500D01*
X136301496Y-113578185D01*
G37*
%TD.AperFunction*%
M02*
