%TF.GenerationSoftware,KiCad,Pcbnew,7.0.10*%
%TF.CreationDate,2025-02-27T15:13:31+08:00*%
%TF.ProjectId,V0-UmbilicalBoard,56302d55-6d62-4696-9c69-63616c426f61,rev?*%
%TF.SameCoordinates,Original*%
%TF.FileFunction,Legend,Top*%
%TF.FilePolarity,Positive*%
%FSLAX46Y46*%
G04 Gerber Fmt 4.6, Leading zero omitted, Abs format (unit mm)*
G04 Created by KiCad (PCBNEW 7.0.10) date 2025-02-27 15:13:31*
%MOMM*%
%LPD*%
G01*
G04 APERTURE LIST*
%ADD10C,0.150000*%
%ADD11C,0.120000*%
G04 APERTURE END LIST*
D10*
X104469819Y-117163220D02*
X103469819Y-117163220D01*
X103469819Y-117163220D02*
X103469819Y-116782268D01*
X103469819Y-116782268D02*
X103517438Y-116687030D01*
X103517438Y-116687030D02*
X103565057Y-116639411D01*
X103565057Y-116639411D02*
X103660295Y-116591792D01*
X103660295Y-116591792D02*
X103803152Y-116591792D01*
X103803152Y-116591792D02*
X103898390Y-116639411D01*
X103898390Y-116639411D02*
X103946009Y-116687030D01*
X103946009Y-116687030D02*
X103993628Y-116782268D01*
X103993628Y-116782268D02*
X103993628Y-117163220D01*
X104374580Y-115591792D02*
X104422200Y-115639411D01*
X104422200Y-115639411D02*
X104469819Y-115782268D01*
X104469819Y-115782268D02*
X104469819Y-115877506D01*
X104469819Y-115877506D02*
X104422200Y-116020363D01*
X104422200Y-116020363D02*
X104326961Y-116115601D01*
X104326961Y-116115601D02*
X104231723Y-116163220D01*
X104231723Y-116163220D02*
X104041247Y-116210839D01*
X104041247Y-116210839D02*
X103898390Y-116210839D01*
X103898390Y-116210839D02*
X103707914Y-116163220D01*
X103707914Y-116163220D02*
X103612676Y-116115601D01*
X103612676Y-116115601D02*
X103517438Y-116020363D01*
X103517438Y-116020363D02*
X103469819Y-115877506D01*
X103469819Y-115877506D02*
X103469819Y-115782268D01*
X103469819Y-115782268D02*
X103517438Y-115639411D01*
X103517438Y-115639411D02*
X103565057Y-115591792D01*
X103946009Y-114829887D02*
X103946009Y-115163220D01*
X104469819Y-115163220D02*
X103469819Y-115163220D01*
X103469819Y-115163220D02*
X103469819Y-114687030D01*
X103469819Y-108258458D02*
X104469819Y-107591792D01*
X103469819Y-107591792D02*
X104469819Y-108258458D01*
X104088866Y-107210839D02*
X104088866Y-106448935D01*
X103946009Y-105972744D02*
X103946009Y-105639411D01*
X104469819Y-105496554D02*
X104469819Y-105972744D01*
X104469819Y-105972744D02*
X103469819Y-105972744D01*
X103469819Y-105972744D02*
X103469819Y-105496554D01*
X103803152Y-105067982D02*
X104469819Y-105067982D01*
X103898390Y-105067982D02*
X103850771Y-105020363D01*
X103850771Y-105020363D02*
X103803152Y-104925125D01*
X103803152Y-104925125D02*
X103803152Y-104782268D01*
X103803152Y-104782268D02*
X103850771Y-104687030D01*
X103850771Y-104687030D02*
X103946009Y-104639411D01*
X103946009Y-104639411D02*
X104469819Y-104639411D01*
X104469819Y-103734649D02*
X103469819Y-103734649D01*
X104422200Y-103734649D02*
X104469819Y-103829887D01*
X104469819Y-103829887D02*
X104469819Y-104020363D01*
X104469819Y-104020363D02*
X104422200Y-104115601D01*
X104422200Y-104115601D02*
X104374580Y-104163220D01*
X104374580Y-104163220D02*
X104279342Y-104210839D01*
X104279342Y-104210839D02*
X103993628Y-104210839D01*
X103993628Y-104210839D02*
X103898390Y-104163220D01*
X103898390Y-104163220D02*
X103850771Y-104115601D01*
X103850771Y-104115601D02*
X103803152Y-104020363D01*
X103803152Y-104020363D02*
X103803152Y-103829887D01*
X103803152Y-103829887D02*
X103850771Y-103734649D01*
X104422200Y-103306077D02*
X104469819Y-103210839D01*
X104469819Y-103210839D02*
X104469819Y-103020363D01*
X104469819Y-103020363D02*
X104422200Y-102925125D01*
X104422200Y-102925125D02*
X104326961Y-102877506D01*
X104326961Y-102877506D02*
X104279342Y-102877506D01*
X104279342Y-102877506D02*
X104184104Y-102925125D01*
X104184104Y-102925125D02*
X104136485Y-103020363D01*
X104136485Y-103020363D02*
X104136485Y-103163220D01*
X104136485Y-103163220D02*
X104088866Y-103258458D01*
X104088866Y-103258458D02*
X103993628Y-103306077D01*
X103993628Y-103306077D02*
X103946009Y-103306077D01*
X103946009Y-103306077D02*
X103850771Y-103258458D01*
X103850771Y-103258458D02*
X103803152Y-103163220D01*
X103803152Y-103163220D02*
X103803152Y-103020363D01*
X103803152Y-103020363D02*
X103850771Y-102925125D01*
X103803152Y-102591791D02*
X103803152Y-102210839D01*
X103469819Y-102448934D02*
X104326961Y-102448934D01*
X104326961Y-102448934D02*
X104422200Y-102401315D01*
X104422200Y-102401315D02*
X104469819Y-102306077D01*
X104469819Y-102306077D02*
X104469819Y-102210839D01*
X104469819Y-101734648D02*
X104422200Y-101829886D01*
X104422200Y-101829886D02*
X104374580Y-101877505D01*
X104374580Y-101877505D02*
X104279342Y-101925124D01*
X104279342Y-101925124D02*
X103993628Y-101925124D01*
X103993628Y-101925124D02*
X103898390Y-101877505D01*
X103898390Y-101877505D02*
X103850771Y-101829886D01*
X103850771Y-101829886D02*
X103803152Y-101734648D01*
X103803152Y-101734648D02*
X103803152Y-101591791D01*
X103803152Y-101591791D02*
X103850771Y-101496553D01*
X103850771Y-101496553D02*
X103898390Y-101448934D01*
X103898390Y-101448934D02*
X103993628Y-101401315D01*
X103993628Y-101401315D02*
X104279342Y-101401315D01*
X104279342Y-101401315D02*
X104374580Y-101448934D01*
X104374580Y-101448934D02*
X104422200Y-101496553D01*
X104422200Y-101496553D02*
X104469819Y-101591791D01*
X104469819Y-101591791D02*
X104469819Y-101734648D01*
X103803152Y-100972743D02*
X104803152Y-100972743D01*
X103850771Y-100972743D02*
X103803152Y-100877505D01*
X103803152Y-100877505D02*
X103803152Y-100687029D01*
X103803152Y-100687029D02*
X103850771Y-100591791D01*
X103850771Y-100591791D02*
X103898390Y-100544172D01*
X103898390Y-100544172D02*
X103993628Y-100496553D01*
X103993628Y-100496553D02*
X104279342Y-100496553D01*
X104279342Y-100496553D02*
X104374580Y-100544172D01*
X104374580Y-100544172D02*
X104422200Y-100591791D01*
X104422200Y-100591791D02*
X104469819Y-100687029D01*
X104469819Y-100687029D02*
X104469819Y-100877505D01*
X104469819Y-100877505D02*
X104422200Y-100972743D01*
X130369819Y-107806077D02*
X130369819Y-107234649D01*
X131369819Y-107520363D02*
X130369819Y-107520363D01*
X131369819Y-106901315D02*
X130369819Y-106901315D01*
X131369819Y-106472744D02*
X130846009Y-106472744D01*
X130846009Y-106472744D02*
X130750771Y-106520363D01*
X130750771Y-106520363D02*
X130703152Y-106615601D01*
X130703152Y-106615601D02*
X130703152Y-106758458D01*
X130703152Y-106758458D02*
X130750771Y-106853696D01*
X130750771Y-106853696D02*
X130798390Y-106901315D01*
X131322200Y-105615601D02*
X131369819Y-105710839D01*
X131369819Y-105710839D02*
X131369819Y-105901315D01*
X131369819Y-105901315D02*
X131322200Y-105996553D01*
X131322200Y-105996553D02*
X131226961Y-106044172D01*
X131226961Y-106044172D02*
X130846009Y-106044172D01*
X130846009Y-106044172D02*
X130750771Y-105996553D01*
X130750771Y-105996553D02*
X130703152Y-105901315D01*
X130703152Y-105901315D02*
X130703152Y-105710839D01*
X130703152Y-105710839D02*
X130750771Y-105615601D01*
X130750771Y-105615601D02*
X130846009Y-105567982D01*
X130846009Y-105567982D02*
X130941247Y-105567982D01*
X130941247Y-105567982D02*
X131036485Y-106044172D01*
X131369819Y-105139410D02*
X130703152Y-105139410D01*
X130893628Y-105139410D02*
X130798390Y-105091791D01*
X130798390Y-105091791D02*
X130750771Y-105044172D01*
X130750771Y-105044172D02*
X130703152Y-104948934D01*
X130703152Y-104948934D02*
X130703152Y-104853696D01*
X131369819Y-104520362D02*
X130703152Y-104520362D01*
X130798390Y-104520362D02*
X130750771Y-104472743D01*
X130750771Y-104472743D02*
X130703152Y-104377505D01*
X130703152Y-104377505D02*
X130703152Y-104234648D01*
X130703152Y-104234648D02*
X130750771Y-104139410D01*
X130750771Y-104139410D02*
X130846009Y-104091791D01*
X130846009Y-104091791D02*
X131369819Y-104091791D01*
X130846009Y-104091791D02*
X130750771Y-104044172D01*
X130750771Y-104044172D02*
X130703152Y-103948934D01*
X130703152Y-103948934D02*
X130703152Y-103806077D01*
X130703152Y-103806077D02*
X130750771Y-103710838D01*
X130750771Y-103710838D02*
X130846009Y-103663219D01*
X130846009Y-103663219D02*
X131369819Y-103663219D01*
X131369819Y-103187029D02*
X130703152Y-103187029D01*
X130369819Y-103187029D02*
X130417438Y-103234648D01*
X130417438Y-103234648D02*
X130465057Y-103187029D01*
X130465057Y-103187029D02*
X130417438Y-103139410D01*
X130417438Y-103139410D02*
X130369819Y-103187029D01*
X130369819Y-103187029D02*
X130465057Y-103187029D01*
X131322200Y-102758458D02*
X131369819Y-102663220D01*
X131369819Y-102663220D02*
X131369819Y-102472744D01*
X131369819Y-102472744D02*
X131322200Y-102377506D01*
X131322200Y-102377506D02*
X131226961Y-102329887D01*
X131226961Y-102329887D02*
X131179342Y-102329887D01*
X131179342Y-102329887D02*
X131084104Y-102377506D01*
X131084104Y-102377506D02*
X131036485Y-102472744D01*
X131036485Y-102472744D02*
X131036485Y-102615601D01*
X131036485Y-102615601D02*
X130988866Y-102710839D01*
X130988866Y-102710839D02*
X130893628Y-102758458D01*
X130893628Y-102758458D02*
X130846009Y-102758458D01*
X130846009Y-102758458D02*
X130750771Y-102710839D01*
X130750771Y-102710839D02*
X130703152Y-102615601D01*
X130703152Y-102615601D02*
X130703152Y-102472744D01*
X130703152Y-102472744D02*
X130750771Y-102377506D01*
X130703152Y-102044172D02*
X130703152Y-101663220D01*
X130369819Y-101901315D02*
X131226961Y-101901315D01*
X131226961Y-101901315D02*
X131322200Y-101853696D01*
X131322200Y-101853696D02*
X131369819Y-101758458D01*
X131369819Y-101758458D02*
X131369819Y-101663220D01*
X131369819Y-101187029D02*
X131322200Y-101282267D01*
X131322200Y-101282267D02*
X131274580Y-101329886D01*
X131274580Y-101329886D02*
X131179342Y-101377505D01*
X131179342Y-101377505D02*
X130893628Y-101377505D01*
X130893628Y-101377505D02*
X130798390Y-101329886D01*
X130798390Y-101329886D02*
X130750771Y-101282267D01*
X130750771Y-101282267D02*
X130703152Y-101187029D01*
X130703152Y-101187029D02*
X130703152Y-101044172D01*
X130703152Y-101044172D02*
X130750771Y-100948934D01*
X130750771Y-100948934D02*
X130798390Y-100901315D01*
X130798390Y-100901315D02*
X130893628Y-100853696D01*
X130893628Y-100853696D02*
X131179342Y-100853696D01*
X131179342Y-100853696D02*
X131274580Y-100901315D01*
X131274580Y-100901315D02*
X131322200Y-100948934D01*
X131322200Y-100948934D02*
X131369819Y-101044172D01*
X131369819Y-101044172D02*
X131369819Y-101187029D01*
X131369819Y-100425124D02*
X130703152Y-100425124D01*
X130893628Y-100425124D02*
X130798390Y-100377505D01*
X130798390Y-100377505D02*
X130750771Y-100329886D01*
X130750771Y-100329886D02*
X130703152Y-100234648D01*
X130703152Y-100234648D02*
X130703152Y-100139410D01*
X144369819Y-105163220D02*
X143369819Y-105163220D01*
X143846009Y-105163220D02*
X143846009Y-104591792D01*
X144369819Y-104591792D02*
X143369819Y-104591792D01*
X144322200Y-103734649D02*
X144369819Y-103829887D01*
X144369819Y-103829887D02*
X144369819Y-104020363D01*
X144369819Y-104020363D02*
X144322200Y-104115601D01*
X144322200Y-104115601D02*
X144226961Y-104163220D01*
X144226961Y-104163220D02*
X143846009Y-104163220D01*
X143846009Y-104163220D02*
X143750771Y-104115601D01*
X143750771Y-104115601D02*
X143703152Y-104020363D01*
X143703152Y-104020363D02*
X143703152Y-103829887D01*
X143703152Y-103829887D02*
X143750771Y-103734649D01*
X143750771Y-103734649D02*
X143846009Y-103687030D01*
X143846009Y-103687030D02*
X143941247Y-103687030D01*
X143941247Y-103687030D02*
X144036485Y-104163220D01*
X144369819Y-102829887D02*
X143846009Y-102829887D01*
X143846009Y-102829887D02*
X143750771Y-102877506D01*
X143750771Y-102877506D02*
X143703152Y-102972744D01*
X143703152Y-102972744D02*
X143703152Y-103163220D01*
X143703152Y-103163220D02*
X143750771Y-103258458D01*
X144322200Y-102829887D02*
X144369819Y-102925125D01*
X144369819Y-102925125D02*
X144369819Y-103163220D01*
X144369819Y-103163220D02*
X144322200Y-103258458D01*
X144322200Y-103258458D02*
X144226961Y-103306077D01*
X144226961Y-103306077D02*
X144131723Y-103306077D01*
X144131723Y-103306077D02*
X144036485Y-103258458D01*
X144036485Y-103258458D02*
X143988866Y-103163220D01*
X143988866Y-103163220D02*
X143988866Y-102925125D01*
X143988866Y-102925125D02*
X143941247Y-102829887D01*
X143703152Y-102496553D02*
X143703152Y-102115601D01*
X143369819Y-102353696D02*
X144226961Y-102353696D01*
X144226961Y-102353696D02*
X144322200Y-102306077D01*
X144322200Y-102306077D02*
X144369819Y-102210839D01*
X144369819Y-102210839D02*
X144369819Y-102115601D01*
X144322200Y-101401315D02*
X144369819Y-101496553D01*
X144369819Y-101496553D02*
X144369819Y-101687029D01*
X144369819Y-101687029D02*
X144322200Y-101782267D01*
X144322200Y-101782267D02*
X144226961Y-101829886D01*
X144226961Y-101829886D02*
X143846009Y-101829886D01*
X143846009Y-101829886D02*
X143750771Y-101782267D01*
X143750771Y-101782267D02*
X143703152Y-101687029D01*
X143703152Y-101687029D02*
X143703152Y-101496553D01*
X143703152Y-101496553D02*
X143750771Y-101401315D01*
X143750771Y-101401315D02*
X143846009Y-101353696D01*
X143846009Y-101353696D02*
X143941247Y-101353696D01*
X143941247Y-101353696D02*
X144036485Y-101829886D01*
X144369819Y-100925124D02*
X143703152Y-100925124D01*
X143893628Y-100925124D02*
X143798390Y-100877505D01*
X143798390Y-100877505D02*
X143750771Y-100829886D01*
X143750771Y-100829886D02*
X143703152Y-100734648D01*
X143703152Y-100734648D02*
X143703152Y-100639410D01*
X142369819Y-117163220D02*
X141369819Y-117163220D01*
X141846009Y-117163220D02*
X141846009Y-116591792D01*
X142369819Y-116591792D02*
X141369819Y-116591792D01*
X141846009Y-116115601D02*
X141846009Y-115782268D01*
X142369819Y-115639411D02*
X142369819Y-116115601D01*
X142369819Y-116115601D02*
X141369819Y-116115601D01*
X141369819Y-116115601D02*
X141369819Y-115639411D01*
X141846009Y-114877506D02*
X141846009Y-115210839D01*
X142369819Y-115210839D02*
X141369819Y-115210839D01*
X141369819Y-115210839D02*
X141369819Y-114734649D01*
X109741541Y-118703152D02*
X109979636Y-119369819D01*
X109979636Y-119369819D02*
X110217731Y-118703152D01*
X110789160Y-118369819D02*
X110884398Y-118369819D01*
X110884398Y-118369819D02*
X110979636Y-118417438D01*
X110979636Y-118417438D02*
X111027255Y-118465057D01*
X111027255Y-118465057D02*
X111074874Y-118560295D01*
X111074874Y-118560295D02*
X111122493Y-118750771D01*
X111122493Y-118750771D02*
X111122493Y-118988866D01*
X111122493Y-118988866D02*
X111074874Y-119179342D01*
X111074874Y-119179342D02*
X111027255Y-119274580D01*
X111027255Y-119274580D02*
X110979636Y-119322200D01*
X110979636Y-119322200D02*
X110884398Y-119369819D01*
X110884398Y-119369819D02*
X110789160Y-119369819D01*
X110789160Y-119369819D02*
X110693922Y-119322200D01*
X110693922Y-119322200D02*
X110646303Y-119274580D01*
X110646303Y-119274580D02*
X110598684Y-119179342D01*
X110598684Y-119179342D02*
X110551065Y-118988866D01*
X110551065Y-118988866D02*
X110551065Y-118750771D01*
X110551065Y-118750771D02*
X110598684Y-118560295D01*
X110598684Y-118560295D02*
X110646303Y-118465057D01*
X110646303Y-118465057D02*
X110693922Y-118417438D01*
X110693922Y-118417438D02*
X110789160Y-118369819D01*
X112741541Y-118703152D02*
X112741541Y-119369819D01*
X112312970Y-118703152D02*
X112312970Y-119226961D01*
X112312970Y-119226961D02*
X112360589Y-119322200D01*
X112360589Y-119322200D02*
X112455827Y-119369819D01*
X112455827Y-119369819D02*
X112598684Y-119369819D01*
X112598684Y-119369819D02*
X112693922Y-119322200D01*
X112693922Y-119322200D02*
X112741541Y-119274580D01*
X113217732Y-119369819D02*
X113217732Y-118703152D01*
X113217732Y-118798390D02*
X113265351Y-118750771D01*
X113265351Y-118750771D02*
X113360589Y-118703152D01*
X113360589Y-118703152D02*
X113503446Y-118703152D01*
X113503446Y-118703152D02*
X113598684Y-118750771D01*
X113598684Y-118750771D02*
X113646303Y-118846009D01*
X113646303Y-118846009D02*
X113646303Y-119369819D01*
X113646303Y-118846009D02*
X113693922Y-118750771D01*
X113693922Y-118750771D02*
X113789160Y-118703152D01*
X113789160Y-118703152D02*
X113932017Y-118703152D01*
X113932017Y-118703152D02*
X114027256Y-118750771D01*
X114027256Y-118750771D02*
X114074875Y-118846009D01*
X114074875Y-118846009D02*
X114074875Y-119369819D01*
X114551065Y-119369819D02*
X114551065Y-118369819D01*
X114551065Y-118750771D02*
X114646303Y-118703152D01*
X114646303Y-118703152D02*
X114836779Y-118703152D01*
X114836779Y-118703152D02*
X114932017Y-118750771D01*
X114932017Y-118750771D02*
X114979636Y-118798390D01*
X114979636Y-118798390D02*
X115027255Y-118893628D01*
X115027255Y-118893628D02*
X115027255Y-119179342D01*
X115027255Y-119179342D02*
X114979636Y-119274580D01*
X114979636Y-119274580D02*
X114932017Y-119322200D01*
X114932017Y-119322200D02*
X114836779Y-119369819D01*
X114836779Y-119369819D02*
X114646303Y-119369819D01*
X114646303Y-119369819D02*
X114551065Y-119322200D01*
X115455827Y-119369819D02*
X115455827Y-118703152D01*
X115455827Y-118369819D02*
X115408208Y-118417438D01*
X115408208Y-118417438D02*
X115455827Y-118465057D01*
X115455827Y-118465057D02*
X115503446Y-118417438D01*
X115503446Y-118417438D02*
X115455827Y-118369819D01*
X115455827Y-118369819D02*
X115455827Y-118465057D01*
X116074874Y-119369819D02*
X115979636Y-119322200D01*
X115979636Y-119322200D02*
X115932017Y-119226961D01*
X115932017Y-119226961D02*
X115932017Y-118369819D01*
X116598684Y-119369819D02*
X116503446Y-119322200D01*
X116503446Y-119322200D02*
X116455827Y-119226961D01*
X116455827Y-119226961D02*
X116455827Y-118369819D01*
X116979637Y-119369819D02*
X116979637Y-118703152D01*
X116979637Y-118369819D02*
X116932018Y-118417438D01*
X116932018Y-118417438D02*
X116979637Y-118465057D01*
X116979637Y-118465057D02*
X117027256Y-118417438D01*
X117027256Y-118417438D02*
X116979637Y-118369819D01*
X116979637Y-118369819D02*
X116979637Y-118465057D01*
X117884398Y-119322200D02*
X117789160Y-119369819D01*
X117789160Y-119369819D02*
X117598684Y-119369819D01*
X117598684Y-119369819D02*
X117503446Y-119322200D01*
X117503446Y-119322200D02*
X117455827Y-119274580D01*
X117455827Y-119274580D02*
X117408208Y-119179342D01*
X117408208Y-119179342D02*
X117408208Y-118893628D01*
X117408208Y-118893628D02*
X117455827Y-118798390D01*
X117455827Y-118798390D02*
X117503446Y-118750771D01*
X117503446Y-118750771D02*
X117598684Y-118703152D01*
X117598684Y-118703152D02*
X117789160Y-118703152D01*
X117789160Y-118703152D02*
X117884398Y-118750771D01*
X118741541Y-119369819D02*
X118741541Y-118846009D01*
X118741541Y-118846009D02*
X118693922Y-118750771D01*
X118693922Y-118750771D02*
X118598684Y-118703152D01*
X118598684Y-118703152D02*
X118408208Y-118703152D01*
X118408208Y-118703152D02*
X118312970Y-118750771D01*
X118741541Y-119322200D02*
X118646303Y-119369819D01*
X118646303Y-119369819D02*
X118408208Y-119369819D01*
X118408208Y-119369819D02*
X118312970Y-119322200D01*
X118312970Y-119322200D02*
X118265351Y-119226961D01*
X118265351Y-119226961D02*
X118265351Y-119131723D01*
X118265351Y-119131723D02*
X118312970Y-119036485D01*
X118312970Y-119036485D02*
X118408208Y-118988866D01*
X118408208Y-118988866D02*
X118646303Y-118988866D01*
X118646303Y-118988866D02*
X118741541Y-118941247D01*
X119360589Y-119369819D02*
X119265351Y-119322200D01*
X119265351Y-119322200D02*
X119217732Y-119226961D01*
X119217732Y-119226961D02*
X119217732Y-118369819D01*
X120360590Y-118703152D02*
X120741542Y-118703152D01*
X120503447Y-119369819D02*
X120503447Y-118512676D01*
X120503447Y-118512676D02*
X120551066Y-118417438D01*
X120551066Y-118417438D02*
X120646304Y-118369819D01*
X120646304Y-118369819D02*
X120741542Y-118369819D01*
X121217733Y-119369819D02*
X121122495Y-119322200D01*
X121122495Y-119322200D02*
X121074876Y-119274580D01*
X121074876Y-119274580D02*
X121027257Y-119179342D01*
X121027257Y-119179342D02*
X121027257Y-118893628D01*
X121027257Y-118893628D02*
X121074876Y-118798390D01*
X121074876Y-118798390D02*
X121122495Y-118750771D01*
X121122495Y-118750771D02*
X121217733Y-118703152D01*
X121217733Y-118703152D02*
X121360590Y-118703152D01*
X121360590Y-118703152D02*
X121455828Y-118750771D01*
X121455828Y-118750771D02*
X121503447Y-118798390D01*
X121503447Y-118798390D02*
X121551066Y-118893628D01*
X121551066Y-118893628D02*
X121551066Y-119179342D01*
X121551066Y-119179342D02*
X121503447Y-119274580D01*
X121503447Y-119274580D02*
X121455828Y-119322200D01*
X121455828Y-119322200D02*
X121360590Y-119369819D01*
X121360590Y-119369819D02*
X121217733Y-119369819D01*
X121979638Y-119369819D02*
X121979638Y-118703152D01*
X121979638Y-118893628D02*
X122027257Y-118798390D01*
X122027257Y-118798390D02*
X122074876Y-118750771D01*
X122074876Y-118750771D02*
X122170114Y-118703152D01*
X122170114Y-118703152D02*
X122265352Y-118703152D01*
X123312972Y-118465057D02*
X123360591Y-118417438D01*
X123360591Y-118417438D02*
X123455829Y-118369819D01*
X123455829Y-118369819D02*
X123693924Y-118369819D01*
X123693924Y-118369819D02*
X123789162Y-118417438D01*
X123789162Y-118417438D02*
X123836781Y-118465057D01*
X123836781Y-118465057D02*
X123884400Y-118560295D01*
X123884400Y-118560295D02*
X123884400Y-118655533D01*
X123884400Y-118655533D02*
X123836781Y-118798390D01*
X123836781Y-118798390D02*
X123265353Y-119369819D01*
X123265353Y-119369819D02*
X123884400Y-119369819D01*
X124503448Y-118369819D02*
X124598686Y-118369819D01*
X124598686Y-118369819D02*
X124693924Y-118417438D01*
X124693924Y-118417438D02*
X124741543Y-118465057D01*
X124741543Y-118465057D02*
X124789162Y-118560295D01*
X124789162Y-118560295D02*
X124836781Y-118750771D01*
X124836781Y-118750771D02*
X124836781Y-118988866D01*
X124836781Y-118988866D02*
X124789162Y-119179342D01*
X124789162Y-119179342D02*
X124741543Y-119274580D01*
X124741543Y-119274580D02*
X124693924Y-119322200D01*
X124693924Y-119322200D02*
X124598686Y-119369819D01*
X124598686Y-119369819D02*
X124503448Y-119369819D01*
X124503448Y-119369819D02*
X124408210Y-119322200D01*
X124408210Y-119322200D02*
X124360591Y-119274580D01*
X124360591Y-119274580D02*
X124312972Y-119179342D01*
X124312972Y-119179342D02*
X124265353Y-118988866D01*
X124265353Y-118988866D02*
X124265353Y-118750771D01*
X124265353Y-118750771D02*
X124312972Y-118560295D01*
X124312972Y-118560295D02*
X124360591Y-118465057D01*
X124360591Y-118465057D02*
X124408210Y-118417438D01*
X124408210Y-118417438D02*
X124503448Y-118369819D01*
X125217734Y-118465057D02*
X125265353Y-118417438D01*
X125265353Y-118417438D02*
X125360591Y-118369819D01*
X125360591Y-118369819D02*
X125598686Y-118369819D01*
X125598686Y-118369819D02*
X125693924Y-118417438D01*
X125693924Y-118417438D02*
X125741543Y-118465057D01*
X125741543Y-118465057D02*
X125789162Y-118560295D01*
X125789162Y-118560295D02*
X125789162Y-118655533D01*
X125789162Y-118655533D02*
X125741543Y-118798390D01*
X125741543Y-118798390D02*
X125170115Y-119369819D01*
X125170115Y-119369819D02*
X125789162Y-119369819D01*
X126408210Y-118369819D02*
X126503448Y-118369819D01*
X126503448Y-118369819D02*
X126598686Y-118417438D01*
X126598686Y-118417438D02*
X126646305Y-118465057D01*
X126646305Y-118465057D02*
X126693924Y-118560295D01*
X126693924Y-118560295D02*
X126741543Y-118750771D01*
X126741543Y-118750771D02*
X126741543Y-118988866D01*
X126741543Y-118988866D02*
X126693924Y-119179342D01*
X126693924Y-119179342D02*
X126646305Y-119274580D01*
X126646305Y-119274580D02*
X126598686Y-119322200D01*
X126598686Y-119322200D02*
X126503448Y-119369819D01*
X126503448Y-119369819D02*
X126408210Y-119369819D01*
X126408210Y-119369819D02*
X126312972Y-119322200D01*
X126312972Y-119322200D02*
X126265353Y-119274580D01*
X126265353Y-119274580D02*
X126217734Y-119179342D01*
X126217734Y-119179342D02*
X126170115Y-118988866D01*
X126170115Y-118988866D02*
X126170115Y-118750771D01*
X126170115Y-118750771D02*
X126217734Y-118560295D01*
X126217734Y-118560295D02*
X126265353Y-118465057D01*
X126265353Y-118465057D02*
X126312972Y-118417438D01*
X126312972Y-118417438D02*
X126408210Y-118369819D01*
X120869819Y-105663220D02*
X119869819Y-105663220D01*
X119869819Y-105663220D02*
X120584104Y-105329887D01*
X120584104Y-105329887D02*
X119869819Y-104996554D01*
X119869819Y-104996554D02*
X120869819Y-104996554D01*
X120869819Y-104377506D02*
X120822200Y-104472744D01*
X120822200Y-104472744D02*
X120774580Y-104520363D01*
X120774580Y-104520363D02*
X120679342Y-104567982D01*
X120679342Y-104567982D02*
X120393628Y-104567982D01*
X120393628Y-104567982D02*
X120298390Y-104520363D01*
X120298390Y-104520363D02*
X120250771Y-104472744D01*
X120250771Y-104472744D02*
X120203152Y-104377506D01*
X120203152Y-104377506D02*
X120203152Y-104234649D01*
X120203152Y-104234649D02*
X120250771Y-104139411D01*
X120250771Y-104139411D02*
X120298390Y-104091792D01*
X120298390Y-104091792D02*
X120393628Y-104044173D01*
X120393628Y-104044173D02*
X120679342Y-104044173D01*
X120679342Y-104044173D02*
X120774580Y-104091792D01*
X120774580Y-104091792D02*
X120822200Y-104139411D01*
X120822200Y-104139411D02*
X120869819Y-104234649D01*
X120869819Y-104234649D02*
X120869819Y-104377506D01*
X120203152Y-103758458D02*
X120203152Y-103377506D01*
X119869819Y-103615601D02*
X120726961Y-103615601D01*
X120726961Y-103615601D02*
X120822200Y-103567982D01*
X120822200Y-103567982D02*
X120869819Y-103472744D01*
X120869819Y-103472744D02*
X120869819Y-103377506D01*
X120869819Y-102901315D02*
X120822200Y-102996553D01*
X120822200Y-102996553D02*
X120774580Y-103044172D01*
X120774580Y-103044172D02*
X120679342Y-103091791D01*
X120679342Y-103091791D02*
X120393628Y-103091791D01*
X120393628Y-103091791D02*
X120298390Y-103044172D01*
X120298390Y-103044172D02*
X120250771Y-102996553D01*
X120250771Y-102996553D02*
X120203152Y-102901315D01*
X120203152Y-102901315D02*
X120203152Y-102758458D01*
X120203152Y-102758458D02*
X120250771Y-102663220D01*
X120250771Y-102663220D02*
X120298390Y-102615601D01*
X120298390Y-102615601D02*
X120393628Y-102567982D01*
X120393628Y-102567982D02*
X120679342Y-102567982D01*
X120679342Y-102567982D02*
X120774580Y-102615601D01*
X120774580Y-102615601D02*
X120822200Y-102663220D01*
X120822200Y-102663220D02*
X120869819Y-102758458D01*
X120869819Y-102758458D02*
X120869819Y-102901315D01*
X120869819Y-102139410D02*
X120203152Y-102139410D01*
X120393628Y-102139410D02*
X120298390Y-102091791D01*
X120298390Y-102091791D02*
X120250771Y-102044172D01*
X120250771Y-102044172D02*
X120203152Y-101948934D01*
X120203152Y-101948934D02*
X120203152Y-101853696D01*
D11*
%TO.C,J2*%
X106400000Y-100725000D02*
X106400000Y-101975000D01*
X106690000Y-101015000D02*
X106690000Y-106985000D01*
X106690000Y-106985000D02*
X119310000Y-106985000D01*
X106700000Y-101025000D02*
X106700000Y-101775000D01*
X106700000Y-101775000D02*
X108500000Y-101775000D01*
X106700000Y-103275000D02*
X107450000Y-103275000D01*
X107450000Y-103275000D02*
X107450000Y-106225000D01*
X107450000Y-106225000D02*
X113000000Y-106225000D01*
X107650000Y-100725000D02*
X106400000Y-100725000D01*
X108500000Y-101025000D02*
X106700000Y-101025000D01*
X108500000Y-101775000D02*
X108500000Y-101025000D01*
X110000000Y-101025000D02*
X110000000Y-101775000D01*
X110000000Y-101775000D02*
X116000000Y-101775000D01*
X116000000Y-101025000D02*
X110000000Y-101025000D01*
X116000000Y-101775000D02*
X116000000Y-101025000D01*
X117500000Y-101025000D02*
X117500000Y-101775000D01*
X117500000Y-101775000D02*
X119300000Y-101775000D01*
X118550000Y-103275000D02*
X118550000Y-106225000D01*
X118550000Y-106225000D02*
X113000000Y-106225000D01*
X119300000Y-101025000D02*
X117500000Y-101025000D01*
X119300000Y-101775000D02*
X119300000Y-101025000D01*
X119300000Y-103275000D02*
X118550000Y-103275000D01*
X119310000Y-101015000D02*
X106690000Y-101015000D01*
X119310000Y-106985000D02*
X119310000Y-101015000D01*
%TO.C,J3*%
X132400000Y-112725000D02*
X132400000Y-113975000D01*
X132690000Y-113015000D02*
X132690000Y-118985000D01*
X132690000Y-118985000D02*
X140310000Y-118985000D01*
X132700000Y-113025000D02*
X132700000Y-113775000D01*
X132700000Y-113775000D02*
X134500000Y-113775000D01*
X132700000Y-115275000D02*
X133450000Y-115275000D01*
X133450000Y-115275000D02*
X133450000Y-118225000D01*
X133450000Y-118225000D02*
X136500000Y-118225000D01*
X133650000Y-112725000D02*
X132400000Y-112725000D01*
X134500000Y-113025000D02*
X132700000Y-113025000D01*
X134500000Y-113775000D02*
X134500000Y-113025000D01*
X136000000Y-113025000D02*
X136000000Y-113775000D01*
X136000000Y-113775000D02*
X137000000Y-113775000D01*
X137000000Y-113025000D02*
X136000000Y-113025000D01*
X137000000Y-113775000D02*
X137000000Y-113025000D01*
X138500000Y-113025000D02*
X138500000Y-113775000D01*
X138500000Y-113775000D02*
X140300000Y-113775000D01*
X139550000Y-115275000D02*
X139550000Y-118225000D01*
X139550000Y-118225000D02*
X136500000Y-118225000D01*
X140300000Y-113025000D02*
X138500000Y-113025000D01*
X140300000Y-113775000D02*
X140300000Y-113025000D01*
X140300000Y-115275000D02*
X139550000Y-115275000D01*
X140310000Y-113015000D02*
X132690000Y-113015000D01*
X140310000Y-118985000D02*
X140310000Y-113015000D01*
%TO.C,J5*%
X142885000Y-101535000D02*
X142885000Y-100795000D01*
X142885000Y-100795000D02*
X142385000Y-100795000D01*
X142645000Y-110956000D02*
X142645000Y-101035000D01*
X142645000Y-110956000D02*
X132365000Y-110956000D01*
X142645000Y-107996000D02*
X132365000Y-107996000D01*
X142645000Y-103095000D02*
X132365000Y-103095000D01*
X142645000Y-101595000D02*
X132365000Y-101595000D01*
X142645000Y-101035000D02*
X132365000Y-101035000D01*
X136192000Y-104672000D02*
X136239000Y-104626000D01*
X135999000Y-104456000D02*
X136034000Y-104421000D01*
X133895000Y-106970000D02*
X133930000Y-106934000D01*
X133690000Y-106764000D02*
X133737000Y-106718000D01*
X132365000Y-110956000D02*
X132365000Y-101035000D01*
X141579999Y-106378999D02*
G75*
G03*
X141580426Y-105011958I-1534992J684000D01*
G01*
X139361001Y-107229999D02*
G75*
G03*
X140728042Y-107230426I684000J1534992D01*
G01*
X140729000Y-104160001D02*
G75*
G03*
X140016195Y-104014748I-683999J-1535000D01*
G01*
X140045000Y-104015001D02*
G75*
G03*
X139361682Y-104160245I0J-1679999D01*
G01*
X138510000Y-105011000D02*
G75*
G03*
X138509574Y-106378042I1535000J-684000D01*
G01*
X136645000Y-105695000D02*
G75*
G03*
X133285000Y-105695000I-1680000J0D01*
G01*
X133285000Y-105695000D02*
G75*
G03*
X136645000Y-105695000I1680000J0D01*
G01*
%TO.C,J7*%
X94900000Y-100750000D02*
X94900000Y-102000000D01*
X95190000Y-101040000D02*
X95190000Y-107010000D01*
X95190000Y-107010000D02*
X102810000Y-107010000D01*
X95200000Y-101050000D02*
X95200000Y-101800000D01*
X95200000Y-101800000D02*
X97000000Y-101800000D01*
X95200000Y-103300000D02*
X95950000Y-103300000D01*
X95950000Y-103300000D02*
X95950000Y-106250000D01*
X95950000Y-106250000D02*
X99000000Y-106250000D01*
X96150000Y-100750000D02*
X94900000Y-100750000D01*
X97000000Y-101050000D02*
X95200000Y-101050000D01*
X97000000Y-101800000D02*
X97000000Y-101050000D01*
X98500000Y-101050000D02*
X98500000Y-101800000D01*
X98500000Y-101800000D02*
X99500000Y-101800000D01*
X99500000Y-101050000D02*
X98500000Y-101050000D01*
X99500000Y-101800000D02*
X99500000Y-101050000D01*
X101000000Y-101050000D02*
X101000000Y-101800000D01*
X101000000Y-101800000D02*
X102800000Y-101800000D01*
X102050000Y-103300000D02*
X102050000Y-106250000D01*
X102050000Y-106250000D02*
X99000000Y-106250000D01*
X102800000Y-101050000D02*
X101000000Y-101050000D01*
X102800000Y-101800000D02*
X102800000Y-101050000D01*
X102800000Y-103300000D02*
X102050000Y-103300000D01*
X102810000Y-101040000D02*
X95190000Y-101040000D01*
X102810000Y-107010000D02*
X102810000Y-101040000D01*
%TO.C,J4*%
X94900000Y-112725000D02*
X94900000Y-113975000D01*
X95190000Y-113015000D02*
X95190000Y-118985000D01*
X95190000Y-118985000D02*
X102810000Y-118985000D01*
X95200000Y-113025000D02*
X95200000Y-113775000D01*
X95200000Y-113775000D02*
X97000000Y-113775000D01*
X95200000Y-115275000D02*
X95950000Y-115275000D01*
X95950000Y-115275000D02*
X95950000Y-118225000D01*
X95950000Y-118225000D02*
X99000000Y-118225000D01*
X96150000Y-112725000D02*
X94900000Y-112725000D01*
X97000000Y-113025000D02*
X95200000Y-113025000D01*
X97000000Y-113775000D02*
X97000000Y-113025000D01*
X98500000Y-113025000D02*
X98500000Y-113775000D01*
X98500000Y-113775000D02*
X99500000Y-113775000D01*
X99500000Y-113025000D02*
X98500000Y-113025000D01*
X99500000Y-113775000D02*
X99500000Y-113025000D01*
X101000000Y-113025000D02*
X101000000Y-113775000D01*
X101000000Y-113775000D02*
X102800000Y-113775000D01*
X102050000Y-115275000D02*
X102050000Y-118225000D01*
X102050000Y-118225000D02*
X99000000Y-118225000D01*
X102800000Y-113025000D02*
X101000000Y-113025000D01*
X102800000Y-113775000D02*
X102800000Y-113025000D01*
X102800000Y-115275000D02*
X102050000Y-115275000D01*
X102810000Y-113015000D02*
X95190000Y-113015000D01*
X102810000Y-118985000D02*
X102810000Y-113015000D01*
%TO.C,J6*%
X121650000Y-100750000D02*
X121650000Y-102000000D01*
X121940000Y-101040000D02*
X121940000Y-107010000D01*
X121940000Y-107010000D02*
X129560000Y-107010000D01*
X121950000Y-101050000D02*
X121950000Y-101800000D01*
X121950000Y-101800000D02*
X123750000Y-101800000D01*
X121950000Y-103300000D02*
X122700000Y-103300000D01*
X122700000Y-103300000D02*
X122700000Y-106250000D01*
X122700000Y-106250000D02*
X125750000Y-106250000D01*
X122900000Y-100750000D02*
X121650000Y-100750000D01*
X123750000Y-101050000D02*
X121950000Y-101050000D01*
X123750000Y-101800000D02*
X123750000Y-101050000D01*
X125250000Y-101050000D02*
X125250000Y-101800000D01*
X125250000Y-101800000D02*
X126250000Y-101800000D01*
X126250000Y-101050000D02*
X125250000Y-101050000D01*
X126250000Y-101800000D02*
X126250000Y-101050000D01*
X127750000Y-101050000D02*
X127750000Y-101800000D01*
X127750000Y-101800000D02*
X129550000Y-101800000D01*
X128800000Y-103300000D02*
X128800000Y-106250000D01*
X128800000Y-106250000D02*
X125750000Y-106250000D01*
X129550000Y-101050000D02*
X127750000Y-101050000D01*
X129550000Y-101800000D02*
X129550000Y-101050000D01*
X129550000Y-103300000D02*
X128800000Y-103300000D01*
X129560000Y-101040000D02*
X121940000Y-101040000D01*
X129560000Y-107010000D02*
X129560000Y-101040000D01*
%TO.C,J1*%
X105315000Y-108420000D02*
X106735000Y-108420000D01*
X105315000Y-114170000D02*
X105315000Y-108420000D01*
X105315000Y-115710000D02*
X105315000Y-116010000D01*
X105315000Y-116010000D02*
X130685000Y-116010000D01*
X106735000Y-108420000D02*
X106735000Y-108920000D01*
X106735000Y-108920000D02*
X129265000Y-108920000D01*
X129265000Y-108420000D02*
X130685000Y-108420000D01*
X129265000Y-108920000D02*
X129265000Y-108420000D01*
X130685000Y-108420000D02*
X130685000Y-114170000D01*
X130685000Y-116010000D02*
X130685000Y-115710000D01*
%TD*%
M02*
