%TF.GenerationSoftware,KiCad,Pcbnew,7.0.10*%
%TF.CreationDate,2025-02-27T15:13:31+08:00*%
%TF.ProjectId,V0-UmbilicalBoard,56302d55-6d62-4696-9c69-63616c426f61,rev?*%
%TF.SameCoordinates,Original*%
%TF.FileFunction,Copper,L2,Bot*%
%TF.FilePolarity,Positive*%
%FSLAX46Y46*%
G04 Gerber Fmt 4.6, Leading zero omitted, Abs format (unit mm)*
G04 Created by KiCad (PCBNEW 7.0.10) date 2025-02-27 15:13:31*
%MOMM*%
%LPD*%
G01*
G04 APERTURE LIST*
G04 Aperture macros list*
%AMRoundRect*
0 Rectangle with rounded corners*
0 $1 Rounding radius*
0 $2 $3 $4 $5 $6 $7 $8 $9 X,Y pos of 4 corners*
0 Add a 4 corners polygon primitive as box body*
4,1,4,$2,$3,$4,$5,$6,$7,$8,$9,$2,$3,0*
0 Add four circle primitives for the rounded corners*
1,1,$1+$1,$2,$3*
1,1,$1+$1,$4,$5*
1,1,$1+$1,$6,$7*
1,1,$1+$1,$8,$9*
0 Add four rect primitives between the rounded corners*
20,1,$1+$1,$2,$3,$4,$5,0*
20,1,$1+$1,$4,$5,$6,$7,0*
20,1,$1+$1,$6,$7,$8,$9,0*
20,1,$1+$1,$8,$9,$2,$3,0*%
G04 Aperture macros list end*
%TA.AperFunction,ComponentPad*%
%ADD10RoundRect,0.250000X-0.600000X-0.725000X0.600000X-0.725000X0.600000X0.725000X-0.600000X0.725000X0*%
%TD*%
%TA.AperFunction,ComponentPad*%
%ADD11O,1.700000X1.950000*%
%TD*%
%TA.AperFunction,ComponentPad*%
%ADD12C,6.400000*%
%TD*%
%TA.AperFunction,ComponentPad*%
%ADD13RoundRect,0.250000X-0.600000X-0.750000X0.600000X-0.750000X0.600000X0.750000X-0.600000X0.750000X0*%
%TD*%
%TA.AperFunction,ComponentPad*%
%ADD14O,1.700000X2.000000*%
%TD*%
%TA.AperFunction,ComponentPad*%
%ADD15R,2.600000X2.600000*%
%TD*%
%TA.AperFunction,ComponentPad*%
%ADD16C,2.600000*%
%TD*%
%TA.AperFunction,ComponentPad*%
%ADD17RoundRect,0.250001X-0.499999X-0.499999X0.499999X-0.499999X0.499999X0.499999X-0.499999X0.499999X0*%
%TD*%
%TA.AperFunction,ComponentPad*%
%ADD18C,1.500000*%
%TD*%
%TA.AperFunction,Conductor*%
%ADD19C,0.500000*%
%TD*%
G04 APERTURE END LIST*
D10*
%TO.P,J2,1,Pin_1*%
%TO.N,/A1*%
X109250000Y-103475000D03*
D11*
%TO.P,J2,2,Pin_2*%
%TO.N,/A2*%
X111750000Y-103475000D03*
%TO.P,J2,3,Pin_3*%
%TO.N,/B1*%
X114250000Y-103475000D03*
%TO.P,J2,4,Pin_4*%
%TO.N,/B2*%
X116750000Y-103475000D03*
%TD*%
D12*
%TO.P,H1,1,1*%
%TO.N,GND*%
X91000000Y-110000000D03*
%TD*%
D13*
%TO.P,J3,1,Pin_1*%
%TO.N,/Hotend_Fan-*%
X135250000Y-115475000D03*
D14*
%TO.P,J3,2,Pin_2*%
%TO.N,/Hotend_Fan+*%
X137750000Y-115475000D03*
%TD*%
D15*
%TO.P,J5,1,Pin_1*%
%TO.N,Net-(J1-Pin_7)*%
X140045000Y-105695000D03*
D16*
%TO.P,J5,2,Pin_2*%
%TO.N,Net-(J1-Pin_6)*%
X134965000Y-105695000D03*
%TD*%
D12*
%TO.P,H2,1,1*%
%TO.N,GND*%
X147000000Y-110000000D03*
%TD*%
D13*
%TO.P,J7,1,Pin_1*%
%TO.N,Net-(J1-Pin_5)*%
X97750000Y-103500000D03*
D14*
%TO.P,J7,2,Pin_2*%
%TO.N,Net-(J1-Pin_8)*%
X100250000Y-103500000D03*
%TD*%
D13*
%TO.P,J4,1,Pin_1*%
%TO.N,/PartFan+*%
X97750000Y-115475000D03*
D14*
%TO.P,J4,2,Pin_2*%
%TO.N,/PartFan-*%
X100250000Y-115475000D03*
%TD*%
D13*
%TO.P,J6,1,Pin_1*%
%TO.N,Net-(J1-Pin_14)*%
X124500000Y-103500000D03*
D14*
%TO.P,J6,2,Pin_2*%
%TO.N,Net-(J1-Pin_13)*%
X127000000Y-103500000D03*
%TD*%
D17*
%TO.P,J1,1,Pin_1*%
%TO.N,/A1*%
X109000000Y-111000000D03*
D18*
%TO.P,J1,2,Pin_2*%
%TO.N,/A2*%
X112000000Y-111000000D03*
%TO.P,J1,3,Pin_3*%
%TO.N,/B1*%
X115000000Y-111000000D03*
%TO.P,J1,4,Pin_4*%
%TO.N,/B2*%
X118000000Y-111000000D03*
%TO.P,J1,5,Pin_5*%
%TO.N,Net-(J1-Pin_5)*%
X121000000Y-111000000D03*
%TO.P,J1,6,Pin_6*%
%TO.N,Net-(J1-Pin_6)*%
X124000000Y-111000000D03*
%TO.P,J1,7,Pin_7*%
%TO.N,Net-(J1-Pin_7)*%
X127000000Y-111000000D03*
%TO.P,J1,8,Pin_8*%
%TO.N,Net-(J1-Pin_8)*%
X109000000Y-114000000D03*
%TO.P,J1,9,Pin_9*%
%TO.N,/PartFan+*%
X112000000Y-114000000D03*
%TO.P,J1,10,Pin_10*%
%TO.N,/PartFan-*%
X115000000Y-114000000D03*
%TO.P,J1,11,Pin_11*%
%TO.N,/Hotend_Fan-*%
X118000000Y-114000000D03*
%TO.P,J1,12,Pin_12*%
%TO.N,/Hotend_Fan+*%
X121000000Y-114000000D03*
%TO.P,J1,13,Pin_13*%
%TO.N,Net-(J1-Pin_13)*%
X124000000Y-114000000D03*
%TO.P,J1,14,Pin_14*%
%TO.N,Net-(J1-Pin_14)*%
X127000000Y-114000000D03*
%TD*%
D19*
%TO.N,Net-(J1-Pin_5)*%
X121000000Y-111000000D02*
X121000000Y-109500000D01*
X97800000Y-107200000D02*
X97800000Y-103550000D01*
X97800000Y-103550000D02*
X97750000Y-103500000D01*
X99100000Y-108500000D02*
X97800000Y-107200000D01*
X121000000Y-109500000D02*
X120000000Y-108500000D01*
X120000000Y-108500000D02*
X99100000Y-108500000D01*
%TO.N,Net-(J1-Pin_13)*%
X127000000Y-105500000D02*
X125500000Y-107000000D01*
X125500000Y-113500000D02*
X125000000Y-114000000D01*
X125500000Y-107000000D02*
X125500000Y-113500000D01*
X127000000Y-103500000D02*
X127000000Y-105500000D01*
X125000000Y-114000000D02*
X124000000Y-114000000D01*
%TO.N,Net-(J1-Pin_14)*%
X125300000Y-101200000D02*
X129700000Y-101200000D01*
X124500000Y-103500000D02*
X124500000Y-102000000D01*
X129000000Y-114000000D02*
X127000000Y-114000000D01*
X130500000Y-112500000D02*
X129000000Y-114000000D01*
X129700000Y-101200000D02*
X130500000Y-102000000D01*
X124500000Y-102000000D02*
X125300000Y-101200000D01*
X130500000Y-102000000D02*
X130500000Y-112500000D01*
%TD*%
%TA.AperFunction,Conductor*%
%TO.N,GND*%
G36*
X150417539Y-100045185D02*
G01*
X150463294Y-100097989D01*
X150474500Y-100149500D01*
X150474500Y-119850500D01*
X150454815Y-119917539D01*
X150402011Y-119963294D01*
X150350500Y-119974500D01*
X87649500Y-119974500D01*
X87582461Y-119954815D01*
X87536706Y-119902011D01*
X87525500Y-119850500D01*
X87525500Y-116275537D01*
X96391500Y-116275537D01*
X96391501Y-116275553D01*
X96402113Y-116379427D01*
X96457884Y-116547735D01*
X96457886Y-116547740D01*
X96470626Y-116568394D01*
X96550970Y-116698652D01*
X96676348Y-116824030D01*
X96827262Y-116917115D01*
X96995574Y-116972887D01*
X97099455Y-116983500D01*
X98400544Y-116983499D01*
X98504426Y-116972887D01*
X98672738Y-116917115D01*
X98823652Y-116824030D01*
X98949030Y-116698652D01*
X99040417Y-116550489D01*
X99092363Y-116503768D01*
X99161326Y-116492545D01*
X99225408Y-116520389D01*
X99235468Y-116529780D01*
X99349228Y-116648476D01*
X99535153Y-116785985D01*
X99741643Y-116890095D01*
X99962757Y-116957811D01*
X100192135Y-116987184D01*
X100423178Y-116977369D01*
X100649238Y-116928649D01*
X100863813Y-116842426D01*
X101060730Y-116721179D01*
X101234324Y-116568398D01*
X101379600Y-116388476D01*
X101442692Y-116275537D01*
X133891500Y-116275537D01*
X133891501Y-116275553D01*
X133902113Y-116379427D01*
X133957884Y-116547735D01*
X133957886Y-116547740D01*
X133970626Y-116568394D01*
X134050970Y-116698652D01*
X134176348Y-116824030D01*
X134327262Y-116917115D01*
X134495574Y-116972887D01*
X134599455Y-116983500D01*
X135900544Y-116983499D01*
X136004426Y-116972887D01*
X136172738Y-116917115D01*
X136323652Y-116824030D01*
X136449030Y-116698652D01*
X136540417Y-116550489D01*
X136592363Y-116503768D01*
X136661326Y-116492545D01*
X136725408Y-116520389D01*
X136735468Y-116529780D01*
X136849228Y-116648476D01*
X137035153Y-116785985D01*
X137241643Y-116890095D01*
X137462757Y-116957811D01*
X137692135Y-116987184D01*
X137923178Y-116977369D01*
X138149238Y-116928649D01*
X138363813Y-116842426D01*
X138560730Y-116721179D01*
X138734324Y-116568398D01*
X138879600Y-116388476D01*
X138992380Y-116186591D01*
X139069419Y-115968550D01*
X139079946Y-115907153D01*
X139108499Y-115740634D01*
X139108500Y-115740623D01*
X139108500Y-115267287D01*
X139108499Y-115267269D01*
X139093802Y-115094586D01*
X139035530Y-114870793D01*
X139035528Y-114870786D01*
X138940283Y-114660080D01*
X138940276Y-114660068D01*
X138810790Y-114468486D01*
X138810786Y-114468481D01*
X138810783Y-114468477D01*
X138650772Y-114301524D01*
X138464847Y-114164015D01*
X138464846Y-114164014D01*
X138464844Y-114164013D01*
X138258358Y-114059905D01*
X138130888Y-114020867D01*
X138037243Y-113992189D01*
X138037241Y-113992188D01*
X138037242Y-113992188D01*
X137807859Y-113962815D01*
X137576827Y-113972630D01*
X137576821Y-113972630D01*
X137350759Y-114021351D01*
X137136190Y-114107572D01*
X136939270Y-114228820D01*
X136765679Y-114381599D01*
X136765674Y-114381604D01*
X136741757Y-114411224D01*
X136684326Y-114451015D01*
X136614498Y-114453440D01*
X136554444Y-114417728D01*
X136539747Y-114398423D01*
X136449030Y-114251348D01*
X136323652Y-114125970D01*
X136172738Y-114032885D01*
X136073487Y-113999997D01*
X136004427Y-113977113D01*
X135900545Y-113966500D01*
X134599462Y-113966500D01*
X134599446Y-113966501D01*
X134495572Y-113977113D01*
X134327264Y-114032884D01*
X134327259Y-114032886D01*
X134176346Y-114125971D01*
X134050971Y-114251346D01*
X133957886Y-114402259D01*
X133957884Y-114402264D01*
X133902113Y-114570572D01*
X133891500Y-114674447D01*
X133891500Y-116275537D01*
X101442692Y-116275537D01*
X101492380Y-116186591D01*
X101569419Y-115968550D01*
X101579946Y-115907153D01*
X101608499Y-115740634D01*
X101608500Y-115740623D01*
X101608500Y-115267287D01*
X101608499Y-115267269D01*
X101593802Y-115094586D01*
X101565143Y-114984520D01*
X105235618Y-114984520D01*
X105255025Y-115094586D01*
X105266489Y-115159599D01*
X105295033Y-115225772D01*
X105336904Y-115322839D01*
X105443067Y-115465439D01*
X105579254Y-115579714D01*
X105657990Y-115619257D01*
X105738118Y-115659499D01*
X105738119Y-115659499D01*
X105738123Y-115659501D01*
X105911110Y-115700500D01*
X105911113Y-115700500D01*
X106044285Y-115700500D01*
X106044292Y-115700500D01*
X106176577Y-115685038D01*
X106343635Y-115624234D01*
X106492168Y-115526543D01*
X106614167Y-115397231D01*
X106703057Y-115243269D01*
X106754045Y-115072958D01*
X106764382Y-114895480D01*
X106733511Y-114720401D01*
X106663096Y-114557162D01*
X106642744Y-114529825D01*
X106556932Y-114414560D01*
X106420746Y-114300286D01*
X106420744Y-114300285D01*
X106261881Y-114220500D01*
X106257122Y-114219372D01*
X106088890Y-114179500D01*
X105955708Y-114179500D01*
X105839958Y-114193029D01*
X105823422Y-114194962D01*
X105823419Y-114194963D01*
X105656367Y-114255764D01*
X105557343Y-114320893D01*
X105507832Y-114353457D01*
X105507831Y-114353457D01*
X105507831Y-114353458D01*
X105385833Y-114482767D01*
X105296944Y-114636728D01*
X105245955Y-114807041D01*
X105245954Y-114807046D01*
X105235618Y-114984519D01*
X105235618Y-114984520D01*
X101565143Y-114984520D01*
X101535530Y-114870793D01*
X101535528Y-114870786D01*
X101440283Y-114660080D01*
X101440276Y-114660068D01*
X101310790Y-114468486D01*
X101310786Y-114468481D01*
X101310783Y-114468477D01*
X101150772Y-114301524D01*
X100964847Y-114164015D01*
X100964846Y-114164014D01*
X100964844Y-114164013D01*
X100758358Y-114059905D01*
X100630888Y-114020867D01*
X100562756Y-114000002D01*
X107736693Y-114000002D01*
X107755884Y-114219365D01*
X107755885Y-114219372D01*
X107758417Y-114228820D01*
X107812880Y-114432076D01*
X107812881Y-114432079D01*
X107812882Y-114432081D01*
X107889781Y-114596992D01*
X107905944Y-114631654D01*
X108032251Y-114812038D01*
X108187962Y-114967749D01*
X108368346Y-115094056D01*
X108567924Y-115187120D01*
X108780629Y-115244115D01*
X108937322Y-115257823D01*
X108999998Y-115263307D01*
X109000000Y-115263307D01*
X109000002Y-115263307D01*
X109054842Y-115258509D01*
X109219371Y-115244115D01*
X109432076Y-115187120D01*
X109631654Y-115094056D01*
X109812038Y-114967749D01*
X109967749Y-114812038D01*
X110094056Y-114631654D01*
X110187120Y-114432076D01*
X110244115Y-114219371D01*
X110263307Y-114000002D01*
X110736693Y-114000002D01*
X110755884Y-114219365D01*
X110755885Y-114219372D01*
X110758417Y-114228820D01*
X110812880Y-114432076D01*
X110812881Y-114432079D01*
X110812882Y-114432081D01*
X110889781Y-114596992D01*
X110905944Y-114631654D01*
X111032251Y-114812038D01*
X111187962Y-114967749D01*
X111368346Y-115094056D01*
X111567924Y-115187120D01*
X111780629Y-115244115D01*
X111937322Y-115257823D01*
X111999998Y-115263307D01*
X112000000Y-115263307D01*
X112000002Y-115263307D01*
X112054842Y-115258509D01*
X112219371Y-115244115D01*
X112432076Y-115187120D01*
X112631654Y-115094056D01*
X112812038Y-114967749D01*
X112967749Y-114812038D01*
X113094056Y-114631654D01*
X113187120Y-114432076D01*
X113244115Y-114219371D01*
X113263307Y-114000002D01*
X113736693Y-114000002D01*
X113755884Y-114219365D01*
X113755885Y-114219372D01*
X113758417Y-114228820D01*
X113812880Y-114432076D01*
X113812881Y-114432079D01*
X113812882Y-114432081D01*
X113889781Y-114596992D01*
X113905944Y-114631654D01*
X114032251Y-114812038D01*
X114187962Y-114967749D01*
X114368346Y-115094056D01*
X114567924Y-115187120D01*
X114780629Y-115244115D01*
X114937322Y-115257823D01*
X114999998Y-115263307D01*
X115000000Y-115263307D01*
X115000002Y-115263307D01*
X115054842Y-115258509D01*
X115219371Y-115244115D01*
X115432076Y-115187120D01*
X115631654Y-115094056D01*
X115812038Y-114967749D01*
X115967749Y-114812038D01*
X116094056Y-114631654D01*
X116187120Y-114432076D01*
X116244115Y-114219371D01*
X116263307Y-114000002D01*
X116736693Y-114000002D01*
X116755884Y-114219365D01*
X116755885Y-114219372D01*
X116758417Y-114228820D01*
X116812880Y-114432076D01*
X116812881Y-114432079D01*
X116812882Y-114432081D01*
X116889781Y-114596992D01*
X116905944Y-114631654D01*
X117032251Y-114812038D01*
X117187962Y-114967749D01*
X117368346Y-115094056D01*
X117567924Y-115187120D01*
X117780629Y-115244115D01*
X117937322Y-115257823D01*
X117999998Y-115263307D01*
X118000000Y-115263307D01*
X118000002Y-115263307D01*
X118054842Y-115258509D01*
X118219371Y-115244115D01*
X118432076Y-115187120D01*
X118631654Y-115094056D01*
X118812038Y-114967749D01*
X118967749Y-114812038D01*
X119094056Y-114631654D01*
X119187120Y-114432076D01*
X119244115Y-114219371D01*
X119263307Y-114000002D01*
X119736693Y-114000002D01*
X119755884Y-114219365D01*
X119755885Y-114219372D01*
X119758417Y-114228820D01*
X119812880Y-114432076D01*
X119812881Y-114432079D01*
X119812882Y-114432081D01*
X119889781Y-114596992D01*
X119905944Y-114631654D01*
X120032251Y-114812038D01*
X120187962Y-114967749D01*
X120368346Y-115094056D01*
X120567924Y-115187120D01*
X120780629Y-115244115D01*
X120937322Y-115257823D01*
X120999998Y-115263307D01*
X121000000Y-115263307D01*
X121000002Y-115263307D01*
X121054842Y-115258509D01*
X121219371Y-115244115D01*
X121432076Y-115187120D01*
X121631654Y-115094056D01*
X121812038Y-114967749D01*
X121967749Y-114812038D01*
X122094056Y-114631654D01*
X122187120Y-114432076D01*
X122244115Y-114219371D01*
X122263307Y-114000002D01*
X122736693Y-114000002D01*
X122755884Y-114219365D01*
X122755885Y-114219372D01*
X122758417Y-114228820D01*
X122812880Y-114432076D01*
X122812881Y-114432079D01*
X122812882Y-114432081D01*
X122889781Y-114596992D01*
X122905944Y-114631654D01*
X123032251Y-114812038D01*
X123187962Y-114967749D01*
X123368346Y-115094056D01*
X123567924Y-115187120D01*
X123780629Y-115244115D01*
X123937322Y-115257823D01*
X123999998Y-115263307D01*
X124000000Y-115263307D01*
X124000002Y-115263307D01*
X124054842Y-115258509D01*
X124219371Y-115244115D01*
X124432076Y-115187120D01*
X124631654Y-115094056D01*
X124812038Y-114967749D01*
X124967749Y-114812038D01*
X124969845Y-114809043D01*
X124971112Y-114808031D01*
X124971228Y-114807893D01*
X124971255Y-114807916D01*
X125024416Y-114765414D01*
X125057022Y-114756998D01*
X125075343Y-114754856D01*
X125078851Y-114754498D01*
X125129822Y-114750039D01*
X125154418Y-114747888D01*
X125154420Y-114747887D01*
X125154426Y-114747887D01*
X125154431Y-114747885D01*
X125161493Y-114746427D01*
X125161502Y-114746474D01*
X125169097Y-114744790D01*
X125169087Y-114744744D01*
X125176108Y-114743079D01*
X125176113Y-114743079D01*
X125247414Y-114717126D01*
X125250708Y-114715981D01*
X125322738Y-114692114D01*
X125322744Y-114692110D01*
X125329284Y-114689061D01*
X125329305Y-114689106D01*
X125336302Y-114685719D01*
X125336280Y-114685675D01*
X125342728Y-114682436D01*
X125342732Y-114682435D01*
X125406103Y-114640753D01*
X125409110Y-114638837D01*
X125473651Y-114599030D01*
X125473656Y-114599024D01*
X125479319Y-114594548D01*
X125479350Y-114594587D01*
X125485374Y-114589680D01*
X125485342Y-114589642D01*
X125490864Y-114585006D01*
X125490874Y-114585001D01*
X125542962Y-114529789D01*
X125545409Y-114527270D01*
X125632873Y-114439806D01*
X125694194Y-114406323D01*
X125763886Y-114411307D01*
X125819819Y-114453179D01*
X125832934Y-114475084D01*
X125905943Y-114631653D01*
X126001241Y-114767751D01*
X126032251Y-114812038D01*
X126187962Y-114967749D01*
X126368346Y-115094056D01*
X126567924Y-115187120D01*
X126780629Y-115244115D01*
X126937322Y-115257823D01*
X126999998Y-115263307D01*
X127000000Y-115263307D01*
X127000002Y-115263307D01*
X127054842Y-115258509D01*
X127219371Y-115244115D01*
X127432076Y-115187120D01*
X127631654Y-115094056D01*
X127812038Y-114967749D01*
X127967749Y-114812038D01*
X127968213Y-114811376D01*
X127968489Y-114811155D01*
X127971231Y-114807888D01*
X127971887Y-114808438D01*
X128022790Y-114767751D01*
X128069787Y-114758500D01*
X128935706Y-114758500D01*
X128953676Y-114759809D01*
X128956174Y-114760174D01*
X128977789Y-114763341D01*
X129027727Y-114758971D01*
X129038534Y-114758500D01*
X129044175Y-114758500D01*
X129044180Y-114758500D01*
X129075371Y-114754853D01*
X129078844Y-114754498D01*
X129106948Y-114752040D01*
X129175447Y-114765807D01*
X129225630Y-114814423D01*
X129241562Y-114882452D01*
X129241543Y-114882777D01*
X129235617Y-114984518D01*
X129235618Y-114984520D01*
X129255025Y-115094586D01*
X129266489Y-115159599D01*
X129295033Y-115225772D01*
X129336904Y-115322839D01*
X129443067Y-115465439D01*
X129579254Y-115579714D01*
X129657990Y-115619257D01*
X129738118Y-115659499D01*
X129738119Y-115659499D01*
X129738123Y-115659501D01*
X129911110Y-115700500D01*
X129911113Y-115700500D01*
X130044285Y-115700500D01*
X130044292Y-115700500D01*
X130176577Y-115685038D01*
X130343635Y-115624234D01*
X130492168Y-115526543D01*
X130614167Y-115397231D01*
X130703057Y-115243269D01*
X130754045Y-115072958D01*
X130764382Y-114895480D01*
X130733511Y-114720401D01*
X130663096Y-114557162D01*
X130642744Y-114529825D01*
X130556932Y-114414560D01*
X130420746Y-114300286D01*
X130420744Y-114300285D01*
X130261877Y-114220498D01*
X130146862Y-114193239D01*
X130086169Y-114158625D01*
X130053826Y-114096692D01*
X130060099Y-114027105D01*
X130087776Y-113984903D01*
X130990880Y-113081799D01*
X131004506Y-113070023D01*
X131024058Y-113055469D01*
X131043543Y-113032247D01*
X131056274Y-113017075D01*
X131063590Y-113009090D01*
X131067580Y-113005101D01*
X131087043Y-112980485D01*
X131089245Y-112977781D01*
X131138032Y-112919640D01*
X131138033Y-112919636D01*
X131138036Y-112919634D01*
X131142003Y-112913603D01*
X131142044Y-112913630D01*
X131146219Y-112907076D01*
X131146177Y-112907050D01*
X131149963Y-112900910D01*
X131149967Y-112900906D01*
X131182008Y-112832189D01*
X131183563Y-112828975D01*
X131217609Y-112761188D01*
X131217611Y-112761179D01*
X131220080Y-112754399D01*
X131220126Y-112754416D01*
X131222678Y-112747075D01*
X131222631Y-112747060D01*
X131224898Y-112740214D01*
X131224902Y-112740207D01*
X131240252Y-112665861D01*
X131240997Y-112662499D01*
X131258500Y-112588656D01*
X131258500Y-112588652D01*
X131258501Y-112588648D01*
X131259339Y-112581483D01*
X131259386Y-112581488D01*
X131260176Y-112573757D01*
X131260129Y-112573753D01*
X131260758Y-112566562D01*
X131258552Y-112490741D01*
X131258500Y-112487135D01*
X131258500Y-105695004D01*
X133151429Y-105695004D01*
X133171683Y-105965289D01*
X133171684Y-105965294D01*
X133231997Y-106229545D01*
X133231999Y-106229554D01*
X133232001Y-106229559D01*
X133331029Y-106481879D01*
X133466557Y-106716621D01*
X133635558Y-106928542D01*
X133834257Y-107112907D01*
X134058215Y-107265599D01*
X134302428Y-107383206D01*
X134561442Y-107463101D01*
X134561443Y-107463101D01*
X134561446Y-107463102D01*
X134829464Y-107503499D01*
X134829469Y-107503499D01*
X134829472Y-107503500D01*
X134829473Y-107503500D01*
X135100527Y-107503500D01*
X135100528Y-107503500D01*
X135143726Y-107496989D01*
X135368553Y-107463102D01*
X135368554Y-107463101D01*
X135368558Y-107463101D01*
X135627572Y-107383206D01*
X135871786Y-107265599D01*
X136095743Y-107112907D01*
X136170380Y-107043654D01*
X138236500Y-107043654D01*
X138243011Y-107104202D01*
X138243011Y-107104204D01*
X138289083Y-107227724D01*
X138294111Y-107241204D01*
X138381739Y-107358261D01*
X138498796Y-107445889D01*
X138635799Y-107496989D01*
X138663050Y-107499918D01*
X138696345Y-107503499D01*
X138696362Y-107503500D01*
X141393638Y-107503500D01*
X141393654Y-107503499D01*
X141420692Y-107500591D01*
X141454201Y-107496989D01*
X141591204Y-107445889D01*
X141708261Y-107358261D01*
X141795889Y-107241204D01*
X141846989Y-107104201D01*
X141850591Y-107070692D01*
X141853499Y-107043654D01*
X141853500Y-107043637D01*
X141853500Y-104346362D01*
X141853499Y-104346345D01*
X141850157Y-104315270D01*
X141846989Y-104285799D01*
X141843451Y-104276314D01*
X141819312Y-104211594D01*
X141795889Y-104148796D01*
X141708261Y-104031739D01*
X141591204Y-103944111D01*
X141589681Y-103943543D01*
X141454203Y-103893011D01*
X141393654Y-103886500D01*
X141393638Y-103886500D01*
X138696362Y-103886500D01*
X138696345Y-103886500D01*
X138635797Y-103893011D01*
X138635795Y-103893011D01*
X138498795Y-103944111D01*
X138381739Y-104031739D01*
X138294111Y-104148795D01*
X138243011Y-104285795D01*
X138243011Y-104285797D01*
X138236500Y-104346345D01*
X138236500Y-107043654D01*
X136170380Y-107043654D01*
X136294442Y-106928542D01*
X136463443Y-106716621D01*
X136598971Y-106481879D01*
X136697999Y-106229559D01*
X136758315Y-105965299D01*
X136762189Y-105913603D01*
X136778571Y-105695004D01*
X136778571Y-105694995D01*
X136758316Y-105424710D01*
X136758315Y-105424705D01*
X136758315Y-105424701D01*
X136697999Y-105160441D01*
X136598971Y-104908121D01*
X136463443Y-104673379D01*
X136294442Y-104461458D01*
X136095743Y-104277093D01*
X135871786Y-104124401D01*
X135871780Y-104124398D01*
X135871779Y-104124397D01*
X135871778Y-104124396D01*
X135627574Y-104006795D01*
X135627576Y-104006795D01*
X135368559Y-103926899D01*
X135368553Y-103926897D01*
X135100535Y-103886500D01*
X135100528Y-103886500D01*
X134829472Y-103886500D01*
X134829464Y-103886500D01*
X134561446Y-103926897D01*
X134561440Y-103926899D01*
X134302427Y-104006794D01*
X134058219Y-104124398D01*
X133834256Y-104277093D01*
X133635560Y-104461456D01*
X133635558Y-104461458D01*
X133466557Y-104673379D01*
X133331029Y-104908120D01*
X133232003Y-105160435D01*
X133231997Y-105160454D01*
X133171684Y-105424705D01*
X133171683Y-105424710D01*
X133151429Y-105694995D01*
X133151429Y-105695004D01*
X131258500Y-105695004D01*
X131258500Y-102064294D01*
X131259809Y-102046324D01*
X131263341Y-102022208D01*
X131258972Y-101972275D01*
X131258500Y-101961466D01*
X131258500Y-101955824D01*
X131258499Y-101955815D01*
X131254862Y-101924700D01*
X131254495Y-101921108D01*
X131247887Y-101845576D01*
X131246427Y-101838503D01*
X131246473Y-101838493D01*
X131244790Y-101830902D01*
X131244744Y-101830914D01*
X131243079Y-101823893D01*
X131243079Y-101823887D01*
X131217120Y-101752566D01*
X131215981Y-101749290D01*
X131192114Y-101677262D01*
X131192111Y-101677257D01*
X131189061Y-101670715D01*
X131189105Y-101670694D01*
X131185717Y-101663695D01*
X131185674Y-101663717D01*
X131182437Y-101657271D01*
X131181534Y-101655898D01*
X131140717Y-101593840D01*
X131138834Y-101590883D01*
X131099030Y-101526349D01*
X131094553Y-101520687D01*
X131094590Y-101520656D01*
X131089681Y-101514629D01*
X131089645Y-101514660D01*
X131085002Y-101509127D01*
X131029825Y-101457070D01*
X131027238Y-101454557D01*
X130281804Y-100709123D01*
X130270022Y-100695490D01*
X130255472Y-100675946D01*
X130255471Y-100675945D01*
X130255469Y-100675942D01*
X130248615Y-100670191D01*
X130217059Y-100643711D01*
X130209085Y-100636404D01*
X130205102Y-100632421D01*
X130205096Y-100632416D01*
X130180512Y-100612976D01*
X130177719Y-100610701D01*
X130119642Y-100561970D01*
X130119640Y-100561968D01*
X130119635Y-100561965D01*
X130113605Y-100557999D01*
X130113630Y-100557959D01*
X130107069Y-100553779D01*
X130107045Y-100553820D01*
X130100907Y-100550034D01*
X130100906Y-100550033D01*
X130100903Y-100550032D01*
X130100899Y-100550029D01*
X130032160Y-100517974D01*
X130028916Y-100516404D01*
X129961185Y-100482389D01*
X129954401Y-100479920D01*
X129954416Y-100479876D01*
X129947071Y-100477322D01*
X129947057Y-100477367D01*
X129940205Y-100475096D01*
X129865926Y-100459758D01*
X129862408Y-100458978D01*
X129788653Y-100441499D01*
X129781482Y-100440661D01*
X129781487Y-100440612D01*
X129773757Y-100439822D01*
X129773753Y-100439870D01*
X129766562Y-100439240D01*
X129690707Y-100441448D01*
X129687101Y-100441500D01*
X125364294Y-100441500D01*
X125346324Y-100440191D01*
X125322206Y-100436658D01*
X125275411Y-100440753D01*
X125272272Y-100441028D01*
X125261466Y-100441500D01*
X125255816Y-100441500D01*
X125224680Y-100445139D01*
X125221097Y-100445505D01*
X125145574Y-100452112D01*
X125138506Y-100453572D01*
X125138496Y-100453528D01*
X125130906Y-100455210D01*
X125130917Y-100455254D01*
X125123886Y-100456920D01*
X125052652Y-100482847D01*
X125049249Y-100484030D01*
X124977262Y-100507885D01*
X124970720Y-100510936D01*
X124970700Y-100510894D01*
X124963696Y-100514285D01*
X124963717Y-100514326D01*
X124957264Y-100517566D01*
X124893900Y-100559241D01*
X124890861Y-100561178D01*
X124826346Y-100600972D01*
X124820683Y-100605450D01*
X124820653Y-100605413D01*
X124814627Y-100610322D01*
X124814657Y-100610357D01*
X124809126Y-100614997D01*
X124757052Y-100670191D01*
X124754541Y-100672776D01*
X124009122Y-101418195D01*
X123995495Y-101429973D01*
X123975941Y-101444531D01*
X123943713Y-101482938D01*
X123936421Y-101490897D01*
X123932420Y-101494898D01*
X123912983Y-101519479D01*
X123910710Y-101522269D01*
X123861967Y-101580360D01*
X123858001Y-101586391D01*
X123857963Y-101586366D01*
X123853782Y-101592928D01*
X123853821Y-101592952D01*
X123850035Y-101599088D01*
X123831168Y-101639547D01*
X123817967Y-101667855D01*
X123816412Y-101671068D01*
X123782391Y-101738810D01*
X123779923Y-101745593D01*
X123779878Y-101745576D01*
X123777322Y-101752932D01*
X123777366Y-101752947D01*
X123775096Y-101759794D01*
X123759758Y-101834073D01*
X123758978Y-101837589D01*
X123741499Y-101911344D01*
X123740661Y-101918519D01*
X123740612Y-101918513D01*
X123738935Y-101934920D01*
X123738028Y-101939310D01*
X123705187Y-102000980D01*
X123655598Y-102031927D01*
X123577262Y-102057885D01*
X123577259Y-102057886D01*
X123426346Y-102150971D01*
X123300971Y-102276346D01*
X123207886Y-102427259D01*
X123207884Y-102427264D01*
X123152113Y-102595572D01*
X123141500Y-102699447D01*
X123141500Y-104300537D01*
X123141501Y-104300553D01*
X123152113Y-104404427D01*
X123207884Y-104572735D01*
X123207886Y-104572740D01*
X123220626Y-104593394D01*
X123300970Y-104723652D01*
X123426348Y-104849030D01*
X123577262Y-104942115D01*
X123745574Y-104997887D01*
X123849455Y-105008500D01*
X125150544Y-105008499D01*
X125254426Y-104997887D01*
X125422738Y-104942115D01*
X125573652Y-104849030D01*
X125699030Y-104723652D01*
X125790417Y-104575489D01*
X125842363Y-104528768D01*
X125911326Y-104517545D01*
X125975408Y-104545389D01*
X125985468Y-104554780D01*
X126099228Y-104673476D01*
X126191235Y-104741523D01*
X126233429Y-104797211D01*
X126241500Y-104841218D01*
X126241500Y-105134456D01*
X126221815Y-105201495D01*
X126205181Y-105222137D01*
X125009122Y-106418195D01*
X124995495Y-106429973D01*
X124975941Y-106444531D01*
X124943713Y-106482938D01*
X124936421Y-106490897D01*
X124932420Y-106494898D01*
X124912983Y-106519479D01*
X124910710Y-106522269D01*
X124861967Y-106580360D01*
X124858001Y-106586391D01*
X124857963Y-106586366D01*
X124853782Y-106592928D01*
X124853821Y-106592952D01*
X124850035Y-106599088D01*
X124831168Y-106639547D01*
X124817967Y-106667855D01*
X124816412Y-106671068D01*
X124782391Y-106738810D01*
X124779923Y-106745593D01*
X124779878Y-106745576D01*
X124777322Y-106752932D01*
X124777366Y-106752947D01*
X124775096Y-106759794D01*
X124759758Y-106834073D01*
X124758978Y-106837589D01*
X124741499Y-106911344D01*
X124740661Y-106918519D01*
X124740613Y-106918513D01*
X124739823Y-106926244D01*
X124739870Y-106926249D01*
X124739240Y-106933438D01*
X124741448Y-107009290D01*
X124741500Y-107012897D01*
X124741500Y-109762525D01*
X124721815Y-109829564D01*
X124669011Y-109875319D01*
X124599853Y-109885263D01*
X124565096Y-109874907D01*
X124432081Y-109812882D01*
X124432079Y-109812881D01*
X124432076Y-109812880D01*
X124280777Y-109772339D01*
X124219372Y-109755885D01*
X124219365Y-109755884D01*
X124000002Y-109736693D01*
X123999998Y-109736693D01*
X123780634Y-109755884D01*
X123780627Y-109755885D01*
X123567920Y-109812881D01*
X123368346Y-109905944D01*
X123368342Y-109905946D01*
X123187967Y-110032247D01*
X123187960Y-110032252D01*
X123032252Y-110187960D01*
X123032247Y-110187967D01*
X122905946Y-110368342D01*
X122905944Y-110368346D01*
X122812881Y-110567920D01*
X122755885Y-110780627D01*
X122755884Y-110780634D01*
X122736693Y-110999997D01*
X122736693Y-111000000D01*
X122755885Y-111219371D01*
X122812880Y-111432076D01*
X122905944Y-111631654D01*
X123032251Y-111812038D01*
X123187962Y-111967749D01*
X123368346Y-112094056D01*
X123567924Y-112187120D01*
X123780629Y-112244115D01*
X123937322Y-112257823D01*
X123999998Y-112263307D01*
X124000000Y-112263307D01*
X124000002Y-112263307D01*
X124054957Y-112258499D01*
X124219371Y-112244115D01*
X124432076Y-112187120D01*
X124565097Y-112125091D01*
X124634173Y-112114600D01*
X124697957Y-112143120D01*
X124736196Y-112201596D01*
X124741500Y-112237474D01*
X124741500Y-112762525D01*
X124721815Y-112829564D01*
X124669011Y-112875319D01*
X124599853Y-112885263D01*
X124565096Y-112874907D01*
X124432081Y-112812882D01*
X124432079Y-112812881D01*
X124432076Y-112812880D01*
X124280777Y-112772339D01*
X124219372Y-112755885D01*
X124219365Y-112755884D01*
X124000002Y-112736693D01*
X123999998Y-112736693D01*
X123780634Y-112755884D01*
X123780627Y-112755885D01*
X123567920Y-112812881D01*
X123368346Y-112905944D01*
X123368342Y-112905946D01*
X123187967Y-113032247D01*
X123187960Y-113032252D01*
X123032252Y-113187960D01*
X123032247Y-113187967D01*
X122905946Y-113368342D01*
X122905944Y-113368346D01*
X122812881Y-113567920D01*
X122755885Y-113780627D01*
X122755884Y-113780634D01*
X122736693Y-113999997D01*
X122736693Y-114000002D01*
X122263307Y-114000002D01*
X122263307Y-114000000D01*
X122260912Y-113972630D01*
X122244115Y-113780634D01*
X122244115Y-113780629D01*
X122187120Y-113567924D01*
X122094056Y-113368347D01*
X122094054Y-113368344D01*
X122094053Y-113368342D01*
X121991453Y-113221815D01*
X121967749Y-113187962D01*
X121812038Y-113032251D01*
X121631654Y-112905944D01*
X121620850Y-112900906D01*
X121432081Y-112812882D01*
X121432079Y-112812881D01*
X121432076Y-112812880D01*
X121280777Y-112772339D01*
X121219372Y-112755885D01*
X121219365Y-112755884D01*
X121000002Y-112736693D01*
X120999998Y-112736693D01*
X120780634Y-112755884D01*
X120780627Y-112755885D01*
X120567920Y-112812881D01*
X120368346Y-112905944D01*
X120368342Y-112905946D01*
X120187967Y-113032247D01*
X120187960Y-113032252D01*
X120032252Y-113187960D01*
X120032247Y-113187967D01*
X119905946Y-113368342D01*
X119905944Y-113368346D01*
X119812881Y-113567920D01*
X119755885Y-113780627D01*
X119755884Y-113780634D01*
X119736693Y-113999997D01*
X119736693Y-114000002D01*
X119263307Y-114000002D01*
X119263307Y-114000000D01*
X119260912Y-113972630D01*
X119244115Y-113780634D01*
X119244115Y-113780629D01*
X119187120Y-113567924D01*
X119094056Y-113368347D01*
X119094054Y-113368344D01*
X119094053Y-113368342D01*
X118991453Y-113221815D01*
X118967749Y-113187962D01*
X118812038Y-113032251D01*
X118631654Y-112905944D01*
X118620850Y-112900906D01*
X118432081Y-112812882D01*
X118432079Y-112812881D01*
X118432076Y-112812880D01*
X118280777Y-112772339D01*
X118219372Y-112755885D01*
X118219365Y-112755884D01*
X118000002Y-112736693D01*
X117999998Y-112736693D01*
X117780634Y-112755884D01*
X117780627Y-112755885D01*
X117567920Y-112812881D01*
X117368346Y-112905944D01*
X117368342Y-112905946D01*
X117187967Y-113032247D01*
X117187960Y-113032252D01*
X117032252Y-113187960D01*
X117032247Y-113187967D01*
X116905946Y-113368342D01*
X116905944Y-113368346D01*
X116812881Y-113567920D01*
X116755885Y-113780627D01*
X116755884Y-113780634D01*
X116736693Y-113999997D01*
X116736693Y-114000002D01*
X116263307Y-114000002D01*
X116263307Y-114000000D01*
X116260912Y-113972630D01*
X116244115Y-113780634D01*
X116244115Y-113780629D01*
X116187120Y-113567924D01*
X116094056Y-113368347D01*
X116094054Y-113368344D01*
X116094053Y-113368342D01*
X115991453Y-113221815D01*
X115967749Y-113187962D01*
X115812038Y-113032251D01*
X115631654Y-112905944D01*
X115620850Y-112900906D01*
X115432081Y-112812882D01*
X115432079Y-112812881D01*
X115432076Y-112812880D01*
X115280777Y-112772339D01*
X115219372Y-112755885D01*
X115219365Y-112755884D01*
X115000002Y-112736693D01*
X114999998Y-112736693D01*
X114780634Y-112755884D01*
X114780627Y-112755885D01*
X114567920Y-112812881D01*
X114368346Y-112905944D01*
X114368342Y-112905946D01*
X114187967Y-113032247D01*
X114187960Y-113032252D01*
X114032252Y-113187960D01*
X114032247Y-113187967D01*
X113905946Y-113368342D01*
X113905944Y-113368346D01*
X113812881Y-113567920D01*
X113755885Y-113780627D01*
X113755884Y-113780634D01*
X113736693Y-113999997D01*
X113736693Y-114000002D01*
X113263307Y-114000002D01*
X113263307Y-114000000D01*
X113260912Y-113972630D01*
X113244115Y-113780634D01*
X113244115Y-113780629D01*
X113187120Y-113567924D01*
X113094056Y-113368347D01*
X113094054Y-113368344D01*
X113094053Y-113368342D01*
X112991453Y-113221815D01*
X112967749Y-113187962D01*
X112812038Y-113032251D01*
X112631654Y-112905944D01*
X112620850Y-112900906D01*
X112432081Y-112812882D01*
X112432079Y-112812881D01*
X112432076Y-112812880D01*
X112280777Y-112772339D01*
X112219372Y-112755885D01*
X112219365Y-112755884D01*
X112000002Y-112736693D01*
X111999998Y-112736693D01*
X111780634Y-112755884D01*
X111780627Y-112755885D01*
X111567920Y-112812881D01*
X111368346Y-112905944D01*
X111368342Y-112905946D01*
X111187967Y-113032247D01*
X111187960Y-113032252D01*
X111032252Y-113187960D01*
X111032247Y-113187967D01*
X110905946Y-113368342D01*
X110905944Y-113368346D01*
X110812881Y-113567920D01*
X110755885Y-113780627D01*
X110755884Y-113780634D01*
X110736693Y-113999997D01*
X110736693Y-114000002D01*
X110263307Y-114000002D01*
X110263307Y-114000000D01*
X110260912Y-113972630D01*
X110244115Y-113780634D01*
X110244115Y-113780629D01*
X110187120Y-113567924D01*
X110094056Y-113368347D01*
X110094054Y-113368344D01*
X110094053Y-113368342D01*
X109991453Y-113221815D01*
X109967749Y-113187962D01*
X109812038Y-113032251D01*
X109631654Y-112905944D01*
X109620850Y-112900906D01*
X109432081Y-112812882D01*
X109432079Y-112812881D01*
X109432076Y-112812880D01*
X109280777Y-112772339D01*
X109219372Y-112755885D01*
X109219365Y-112755884D01*
X109000002Y-112736693D01*
X108999998Y-112736693D01*
X108780634Y-112755884D01*
X108780627Y-112755885D01*
X108567920Y-112812881D01*
X108368346Y-112905944D01*
X108368342Y-112905946D01*
X108187967Y-113032247D01*
X108187960Y-113032252D01*
X108032252Y-113187960D01*
X108032247Y-113187967D01*
X107905946Y-113368342D01*
X107905944Y-113368346D01*
X107812881Y-113567920D01*
X107755885Y-113780627D01*
X107755884Y-113780634D01*
X107736693Y-113999997D01*
X107736693Y-114000002D01*
X100562756Y-114000002D01*
X100537243Y-113992189D01*
X100537241Y-113992188D01*
X100537242Y-113992188D01*
X100307859Y-113962815D01*
X100076827Y-113972630D01*
X100076821Y-113972630D01*
X99850759Y-114021351D01*
X99636190Y-114107572D01*
X99439270Y-114228820D01*
X99265679Y-114381599D01*
X99265674Y-114381604D01*
X99241757Y-114411224D01*
X99184326Y-114451015D01*
X99114498Y-114453440D01*
X99054444Y-114417728D01*
X99039747Y-114398423D01*
X98949030Y-114251348D01*
X98823652Y-114125970D01*
X98672738Y-114032885D01*
X98573487Y-113999997D01*
X98504427Y-113977113D01*
X98400545Y-113966500D01*
X97099462Y-113966500D01*
X97099446Y-113966501D01*
X96995572Y-113977113D01*
X96827264Y-114032884D01*
X96827259Y-114032886D01*
X96676346Y-114125971D01*
X96550971Y-114251346D01*
X96457886Y-114402259D01*
X96457884Y-114402264D01*
X96402113Y-114570572D01*
X96391500Y-114674447D01*
X96391500Y-116275537D01*
X87525500Y-116275537D01*
X87525500Y-111550551D01*
X107741500Y-111550551D01*
X107752113Y-111654428D01*
X107807883Y-111822735D01*
X107807884Y-111822738D01*
X107900967Y-111973647D01*
X107900970Y-111973651D01*
X108026348Y-112099029D01*
X108026352Y-112099032D01*
X108177261Y-112192115D01*
X108177264Y-112192116D01*
X108345571Y-112247886D01*
X108345572Y-112247886D01*
X108345575Y-112247887D01*
X108449456Y-112258500D01*
X108449461Y-112258500D01*
X109550539Y-112258500D01*
X109550544Y-112258500D01*
X109654425Y-112247887D01*
X109822738Y-112192115D01*
X109973651Y-112099030D01*
X110099030Y-111973651D01*
X110192115Y-111822738D01*
X110247887Y-111654425D01*
X110258500Y-111550544D01*
X110258500Y-111000000D01*
X110736693Y-111000000D01*
X110755885Y-111219371D01*
X110812880Y-111432076D01*
X110905944Y-111631654D01*
X111032251Y-111812038D01*
X111187962Y-111967749D01*
X111368346Y-112094056D01*
X111567924Y-112187120D01*
X111780629Y-112244115D01*
X111937322Y-112257823D01*
X111999998Y-112263307D01*
X112000000Y-112263307D01*
X112000002Y-112263307D01*
X112054957Y-112258499D01*
X112219371Y-112244115D01*
X112432076Y-112187120D01*
X112631654Y-112094056D01*
X112812038Y-111967749D01*
X112967749Y-111812038D01*
X113094056Y-111631654D01*
X113187120Y-111432076D01*
X113244115Y-111219371D01*
X113263307Y-111000000D01*
X113736693Y-111000000D01*
X113755885Y-111219371D01*
X113812880Y-111432076D01*
X113905944Y-111631654D01*
X114032251Y-111812038D01*
X114187962Y-111967749D01*
X114368346Y-112094056D01*
X114567924Y-112187120D01*
X114780629Y-112244115D01*
X114937322Y-112257823D01*
X114999998Y-112263307D01*
X115000000Y-112263307D01*
X115000002Y-112263307D01*
X115054957Y-112258499D01*
X115219371Y-112244115D01*
X115432076Y-112187120D01*
X115631654Y-112094056D01*
X115812038Y-111967749D01*
X115967749Y-111812038D01*
X116094056Y-111631654D01*
X116187120Y-111432076D01*
X116244115Y-111219371D01*
X116263307Y-111000000D01*
X116736693Y-111000000D01*
X116755885Y-111219371D01*
X116812880Y-111432076D01*
X116905944Y-111631654D01*
X117032251Y-111812038D01*
X117187962Y-111967749D01*
X117368346Y-112094056D01*
X117567924Y-112187120D01*
X117780629Y-112244115D01*
X117937322Y-112257823D01*
X117999998Y-112263307D01*
X118000000Y-112263307D01*
X118000002Y-112263307D01*
X118054957Y-112258499D01*
X118219371Y-112244115D01*
X118432076Y-112187120D01*
X118631654Y-112094056D01*
X118812038Y-111967749D01*
X118967749Y-111812038D01*
X119094056Y-111631654D01*
X119187120Y-111432076D01*
X119244115Y-111219371D01*
X119263307Y-111000000D01*
X119244115Y-110780629D01*
X119187120Y-110567924D01*
X119094056Y-110368347D01*
X119094054Y-110368344D01*
X119094053Y-110368342D01*
X119030902Y-110278154D01*
X118967749Y-110187962D01*
X118812038Y-110032251D01*
X118631654Y-109905944D01*
X118565978Y-109875319D01*
X118432081Y-109812882D01*
X118432079Y-109812881D01*
X118432076Y-109812880D01*
X118280777Y-109772339D01*
X118219372Y-109755885D01*
X118219365Y-109755884D01*
X118000002Y-109736693D01*
X117999998Y-109736693D01*
X117780634Y-109755884D01*
X117780627Y-109755885D01*
X117567920Y-109812881D01*
X117368346Y-109905944D01*
X117368342Y-109905946D01*
X117187967Y-110032247D01*
X117187960Y-110032252D01*
X117032252Y-110187960D01*
X117032247Y-110187967D01*
X116905946Y-110368342D01*
X116905944Y-110368346D01*
X116812881Y-110567920D01*
X116755885Y-110780627D01*
X116755884Y-110780634D01*
X116736693Y-110999997D01*
X116736693Y-111000000D01*
X116263307Y-111000000D01*
X116244115Y-110780629D01*
X116187120Y-110567924D01*
X116094056Y-110368347D01*
X116094054Y-110368344D01*
X116094053Y-110368342D01*
X116030902Y-110278154D01*
X115967749Y-110187962D01*
X115812038Y-110032251D01*
X115631654Y-109905944D01*
X115565978Y-109875319D01*
X115432081Y-109812882D01*
X115432079Y-109812881D01*
X115432076Y-109812880D01*
X115280777Y-109772339D01*
X115219372Y-109755885D01*
X115219365Y-109755884D01*
X115000002Y-109736693D01*
X114999998Y-109736693D01*
X114780634Y-109755884D01*
X114780627Y-109755885D01*
X114567920Y-109812881D01*
X114368346Y-109905944D01*
X114368342Y-109905946D01*
X114187967Y-110032247D01*
X114187960Y-110032252D01*
X114032252Y-110187960D01*
X114032247Y-110187967D01*
X113905946Y-110368342D01*
X113905944Y-110368346D01*
X113812881Y-110567920D01*
X113755885Y-110780627D01*
X113755884Y-110780634D01*
X113736693Y-110999997D01*
X113736693Y-111000000D01*
X113263307Y-111000000D01*
X113244115Y-110780629D01*
X113187120Y-110567924D01*
X113094056Y-110368347D01*
X113094054Y-110368344D01*
X113094053Y-110368342D01*
X113030902Y-110278154D01*
X112967749Y-110187962D01*
X112812038Y-110032251D01*
X112631654Y-109905944D01*
X112565978Y-109875319D01*
X112432081Y-109812882D01*
X112432079Y-109812881D01*
X112432076Y-109812880D01*
X112280777Y-109772339D01*
X112219372Y-109755885D01*
X112219365Y-109755884D01*
X112000002Y-109736693D01*
X111999998Y-109736693D01*
X111780634Y-109755884D01*
X111780627Y-109755885D01*
X111567920Y-109812881D01*
X111368346Y-109905944D01*
X111368342Y-109905946D01*
X111187967Y-110032247D01*
X111187960Y-110032252D01*
X111032252Y-110187960D01*
X111032247Y-110187967D01*
X110905946Y-110368342D01*
X110905944Y-110368346D01*
X110812881Y-110567920D01*
X110755885Y-110780627D01*
X110755884Y-110780634D01*
X110736693Y-110999997D01*
X110736693Y-111000000D01*
X110258500Y-111000000D01*
X110258500Y-110449456D01*
X110247887Y-110345575D01*
X110247886Y-110345571D01*
X110192116Y-110177264D01*
X110192115Y-110177261D01*
X110099032Y-110026352D01*
X110099029Y-110026348D01*
X109973651Y-109900970D01*
X109973647Y-109900967D01*
X109822738Y-109807884D01*
X109822735Y-109807883D01*
X109654428Y-109752113D01*
X109550551Y-109741500D01*
X109550544Y-109741500D01*
X108449456Y-109741500D01*
X108449448Y-109741500D01*
X108345571Y-109752113D01*
X108177264Y-109807883D01*
X108177261Y-109807884D01*
X108026352Y-109900967D01*
X108026348Y-109900970D01*
X107900970Y-110026348D01*
X107900967Y-110026352D01*
X107807884Y-110177261D01*
X107807883Y-110177264D01*
X107752113Y-110345571D01*
X107741500Y-110449448D01*
X107741500Y-111550551D01*
X87525500Y-111550551D01*
X87525500Y-104300537D01*
X96391500Y-104300537D01*
X96391501Y-104300553D01*
X96402113Y-104404427D01*
X96457884Y-104572735D01*
X96457886Y-104572740D01*
X96470626Y-104593394D01*
X96550970Y-104723652D01*
X96676348Y-104849030D01*
X96827262Y-104942115D01*
X96956504Y-104984940D01*
X97013948Y-105024712D01*
X97040772Y-105089227D01*
X97041500Y-105102646D01*
X97041500Y-107135706D01*
X97040191Y-107153676D01*
X97036658Y-107177791D01*
X97041028Y-107227724D01*
X97041500Y-107238533D01*
X97041500Y-107244183D01*
X97045139Y-107275322D01*
X97045505Y-107278905D01*
X97052112Y-107354426D01*
X97053572Y-107361494D01*
X97053526Y-107361503D01*
X97055209Y-107369094D01*
X97055254Y-107369084D01*
X97056919Y-107376110D01*
X97082854Y-107447367D01*
X97084037Y-107450770D01*
X97101511Y-107503499D01*
X97107886Y-107522738D01*
X97107889Y-107522743D01*
X97110940Y-107529286D01*
X97110896Y-107529306D01*
X97114284Y-107536304D01*
X97114327Y-107536283D01*
X97117568Y-107542737D01*
X97159245Y-107606103D01*
X97161167Y-107609120D01*
X97200970Y-107673651D01*
X97200971Y-107673652D01*
X97200973Y-107673655D01*
X97205451Y-107679318D01*
X97205413Y-107679347D01*
X97210320Y-107685372D01*
X97210357Y-107685342D01*
X97215002Y-107690877D01*
X97270172Y-107742927D01*
X97272760Y-107745441D01*
X98518196Y-108990877D01*
X98529977Y-109004509D01*
X98544531Y-109024058D01*
X98582935Y-109056283D01*
X98590901Y-109063582D01*
X98594900Y-109067581D01*
X98619470Y-109087008D01*
X98622266Y-109089286D01*
X98668006Y-109127665D01*
X98680360Y-109138032D01*
X98680362Y-109138033D01*
X98686396Y-109142002D01*
X98686370Y-109142041D01*
X98692927Y-109146218D01*
X98692953Y-109146178D01*
X98699091Y-109149964D01*
X98699095Y-109149967D01*
X98767831Y-109182019D01*
X98771044Y-109183574D01*
X98838812Y-109217609D01*
X98838817Y-109217610D01*
X98845606Y-109220082D01*
X98845589Y-109220128D01*
X98852924Y-109222677D01*
X98852940Y-109222632D01*
X98859789Y-109224902D01*
X98859794Y-109224903D01*
X98934150Y-109240256D01*
X98937557Y-109241011D01*
X99011344Y-109258500D01*
X99011350Y-109258500D01*
X99018517Y-109259338D01*
X99018511Y-109259386D01*
X99026242Y-109260177D01*
X99026247Y-109260130D01*
X99033437Y-109260759D01*
X99033441Y-109260758D01*
X99033442Y-109260759D01*
X99109293Y-109258552D01*
X99112899Y-109258500D01*
X119634457Y-109258500D01*
X119701496Y-109278185D01*
X119722138Y-109294819D01*
X120205181Y-109777862D01*
X120238666Y-109839185D01*
X120241500Y-109865543D01*
X120241500Y-109930212D01*
X120221815Y-109997251D01*
X120191839Y-110028444D01*
X120192112Y-110028769D01*
X120189093Y-110031302D01*
X120188637Y-110031777D01*
X120187974Y-110032240D01*
X120187958Y-110032254D01*
X120032252Y-110187960D01*
X120032247Y-110187967D01*
X119905946Y-110368342D01*
X119905944Y-110368346D01*
X119812881Y-110567920D01*
X119755885Y-110780627D01*
X119755884Y-110780634D01*
X119736693Y-110999997D01*
X119736693Y-111000000D01*
X119755885Y-111219371D01*
X119812880Y-111432076D01*
X119905944Y-111631654D01*
X120032251Y-111812038D01*
X120187962Y-111967749D01*
X120368346Y-112094056D01*
X120567924Y-112187120D01*
X120780629Y-112244115D01*
X120937322Y-112257823D01*
X120999998Y-112263307D01*
X121000000Y-112263307D01*
X121000002Y-112263307D01*
X121054957Y-112258499D01*
X121219371Y-112244115D01*
X121432076Y-112187120D01*
X121631654Y-112094056D01*
X121812038Y-111967749D01*
X121967749Y-111812038D01*
X122094056Y-111631654D01*
X122187120Y-111432076D01*
X122244115Y-111219371D01*
X122263307Y-111000000D01*
X122244115Y-110780629D01*
X122187120Y-110567924D01*
X122094056Y-110368347D01*
X122094054Y-110368344D01*
X122094053Y-110368342D01*
X122030902Y-110278154D01*
X121967749Y-110187962D01*
X121812038Y-110032251D01*
X121812035Y-110032249D01*
X121812025Y-110032240D01*
X121811363Y-110031777D01*
X121811140Y-110031497D01*
X121807888Y-110028769D01*
X121808436Y-110028115D01*
X121767745Y-109977194D01*
X121758500Y-109930212D01*
X121758500Y-109564294D01*
X121759809Y-109546324D01*
X121763341Y-109522208D01*
X121758972Y-109472275D01*
X121758500Y-109461466D01*
X121758500Y-109455824D01*
X121758499Y-109455815D01*
X121754862Y-109424700D01*
X121754495Y-109421108D01*
X121747887Y-109345576D01*
X121746427Y-109338503D01*
X121746473Y-109338493D01*
X121744790Y-109330902D01*
X121744744Y-109330914D01*
X121743079Y-109323893D01*
X121743079Y-109323887D01*
X121717120Y-109252566D01*
X121715981Y-109249290D01*
X121692114Y-109177262D01*
X121692111Y-109177257D01*
X121689061Y-109170715D01*
X121689105Y-109170694D01*
X121685717Y-109163695D01*
X121685674Y-109163717D01*
X121682437Y-109157271D01*
X121669782Y-109138031D01*
X121640717Y-109093840D01*
X121638834Y-109090883D01*
X121599030Y-109026349D01*
X121594553Y-109020687D01*
X121594590Y-109020656D01*
X121589681Y-109014629D01*
X121589645Y-109014660D01*
X121585002Y-109009127D01*
X121529825Y-108957070D01*
X121527238Y-108954557D01*
X120581804Y-108009123D01*
X120570022Y-107995490D01*
X120555472Y-107975946D01*
X120555471Y-107975945D01*
X120555469Y-107975942D01*
X120554380Y-107975028D01*
X120517059Y-107943711D01*
X120509085Y-107936404D01*
X120505102Y-107932421D01*
X120505096Y-107932416D01*
X120480512Y-107912976D01*
X120477719Y-107910701D01*
X120419642Y-107861970D01*
X120419640Y-107861968D01*
X120419635Y-107861965D01*
X120413605Y-107857999D01*
X120413630Y-107857959D01*
X120407069Y-107853779D01*
X120407045Y-107853820D01*
X120400907Y-107850034D01*
X120400906Y-107850033D01*
X120400903Y-107850032D01*
X120400899Y-107850029D01*
X120332160Y-107817974D01*
X120328916Y-107816404D01*
X120261185Y-107782389D01*
X120254401Y-107779920D01*
X120254416Y-107779876D01*
X120247071Y-107777322D01*
X120247057Y-107777367D01*
X120240205Y-107775096D01*
X120165926Y-107759758D01*
X120162408Y-107758978D01*
X120088653Y-107741499D01*
X120081482Y-107740661D01*
X120081487Y-107740612D01*
X120073757Y-107739822D01*
X120073753Y-107739870D01*
X120066562Y-107739240D01*
X119990707Y-107741448D01*
X119987101Y-107741500D01*
X99465543Y-107741500D01*
X99398504Y-107721815D01*
X99377862Y-107705181D01*
X98594819Y-106922138D01*
X98561334Y-106860815D01*
X98558500Y-106834457D01*
X98558500Y-105069510D01*
X98578185Y-105002471D01*
X98630989Y-104956716D01*
X98643492Y-104951805D01*
X98672738Y-104942115D01*
X98823652Y-104849030D01*
X98949030Y-104723652D01*
X99040417Y-104575489D01*
X99092363Y-104528768D01*
X99161326Y-104517545D01*
X99225408Y-104545389D01*
X99235468Y-104554780D01*
X99349228Y-104673476D01*
X99535153Y-104810985D01*
X99741643Y-104915095D01*
X99962757Y-104982811D01*
X100192135Y-105012184D01*
X100423178Y-105002369D01*
X100649238Y-104953649D01*
X100863813Y-104867426D01*
X101060730Y-104746179D01*
X101234324Y-104593398D01*
X101379600Y-104413476D01*
X101470623Y-104250537D01*
X107891500Y-104250537D01*
X107891501Y-104250553D01*
X107902113Y-104354427D01*
X107957884Y-104522735D01*
X107957886Y-104522740D01*
X107961604Y-104528768D01*
X108050970Y-104673652D01*
X108176348Y-104799030D01*
X108327262Y-104892115D01*
X108495574Y-104947887D01*
X108599455Y-104958500D01*
X109900544Y-104958499D01*
X110004426Y-104947887D01*
X110172738Y-104892115D01*
X110323652Y-104799030D01*
X110449030Y-104673652D01*
X110540417Y-104525489D01*
X110592363Y-104478768D01*
X110661326Y-104467545D01*
X110725408Y-104495389D01*
X110735468Y-104504780D01*
X110849228Y-104623476D01*
X111035153Y-104760985D01*
X111241643Y-104865095D01*
X111462757Y-104932811D01*
X111692135Y-104962184D01*
X111923178Y-104952369D01*
X112149238Y-104903649D01*
X112363813Y-104817426D01*
X112560730Y-104696179D01*
X112734324Y-104543398D01*
X112879600Y-104363476D01*
X112893030Y-104339434D01*
X112942906Y-104290509D01*
X113011318Y-104276314D01*
X113076545Y-104301359D01*
X113104019Y-104330470D01*
X113189209Y-104456512D01*
X113189212Y-104456516D01*
X113189217Y-104456523D01*
X113349228Y-104623476D01*
X113535153Y-104760985D01*
X113741643Y-104865095D01*
X113962757Y-104932811D01*
X114192135Y-104962184D01*
X114423178Y-104952369D01*
X114649238Y-104903649D01*
X114863813Y-104817426D01*
X115060730Y-104696179D01*
X115234324Y-104543398D01*
X115379600Y-104363476D01*
X115393030Y-104339434D01*
X115442906Y-104290509D01*
X115511318Y-104276314D01*
X115576545Y-104301359D01*
X115604019Y-104330470D01*
X115689209Y-104456512D01*
X115689212Y-104456516D01*
X115689217Y-104456523D01*
X115849228Y-104623476D01*
X116035153Y-104760985D01*
X116241643Y-104865095D01*
X116462757Y-104932811D01*
X116692135Y-104962184D01*
X116923178Y-104952369D01*
X117149238Y-104903649D01*
X117363813Y-104817426D01*
X117560730Y-104696179D01*
X117734324Y-104543398D01*
X117879600Y-104363476D01*
X117992380Y-104161591D01*
X118069419Y-103943550D01*
X118079946Y-103882153D01*
X118108499Y-103715634D01*
X118108500Y-103715623D01*
X118108500Y-103292287D01*
X118108499Y-103292269D01*
X118093802Y-103119586D01*
X118035530Y-102895793D01*
X118035529Y-102895789D01*
X117940283Y-102685080D01*
X117940276Y-102685068D01*
X117810790Y-102493486D01*
X117810786Y-102493481D01*
X117810783Y-102493477D01*
X117650772Y-102326524D01*
X117464847Y-102189015D01*
X117464846Y-102189014D01*
X117464844Y-102189013D01*
X117258358Y-102084905D01*
X117053641Y-102022211D01*
X117037243Y-102017189D01*
X117037241Y-102017188D01*
X117037242Y-102017188D01*
X116807859Y-101987815D01*
X116576827Y-101997630D01*
X116576821Y-101997630D01*
X116350759Y-102046351D01*
X116136190Y-102132572D01*
X115939270Y-102253820D01*
X115765679Y-102406599D01*
X115765672Y-102406605D01*
X115620404Y-102586517D01*
X115620397Y-102586527D01*
X115606968Y-102610567D01*
X115557089Y-102659493D01*
X115488675Y-102673685D01*
X115423450Y-102648637D01*
X115395980Y-102619529D01*
X115310790Y-102493487D01*
X115310788Y-102493485D01*
X115310783Y-102493477D01*
X115150772Y-102326524D01*
X114964847Y-102189015D01*
X114964846Y-102189014D01*
X114964844Y-102189013D01*
X114758358Y-102084905D01*
X114553641Y-102022211D01*
X114537243Y-102017189D01*
X114537241Y-102017188D01*
X114537242Y-102017188D01*
X114307859Y-101987815D01*
X114076827Y-101997630D01*
X114076821Y-101997630D01*
X113850759Y-102046351D01*
X113636190Y-102132572D01*
X113439270Y-102253820D01*
X113265679Y-102406599D01*
X113265672Y-102406605D01*
X113120404Y-102586517D01*
X113120397Y-102586527D01*
X113106968Y-102610567D01*
X113057089Y-102659493D01*
X112988675Y-102673685D01*
X112923450Y-102648637D01*
X112895980Y-102619529D01*
X112810790Y-102493487D01*
X112810788Y-102493485D01*
X112810783Y-102493477D01*
X112650772Y-102326524D01*
X112464847Y-102189015D01*
X112464846Y-102189014D01*
X112464844Y-102189013D01*
X112258358Y-102084905D01*
X112053641Y-102022211D01*
X112037243Y-102017189D01*
X112037241Y-102017188D01*
X112037242Y-102017188D01*
X111807859Y-101987815D01*
X111576827Y-101997630D01*
X111576821Y-101997630D01*
X111350759Y-102046351D01*
X111136190Y-102132572D01*
X110939270Y-102253820D01*
X110765679Y-102406599D01*
X110765674Y-102406604D01*
X110741757Y-102436224D01*
X110684326Y-102476015D01*
X110614498Y-102478440D01*
X110554444Y-102442728D01*
X110539747Y-102423423D01*
X110449030Y-102276348D01*
X110323652Y-102150970D01*
X110172738Y-102057885D01*
X110116247Y-102039166D01*
X110004427Y-102002113D01*
X109900545Y-101991500D01*
X108599462Y-101991500D01*
X108599446Y-101991501D01*
X108495572Y-102002113D01*
X108327264Y-102057884D01*
X108327259Y-102057886D01*
X108176346Y-102150971D01*
X108050971Y-102276346D01*
X107957886Y-102427259D01*
X107957884Y-102427264D01*
X107902113Y-102595572D01*
X107891500Y-102699447D01*
X107891500Y-104250537D01*
X101470623Y-104250537D01*
X101492380Y-104211591D01*
X101569419Y-103993550D01*
X101587774Y-103886500D01*
X101608499Y-103765634D01*
X101608500Y-103765623D01*
X101608500Y-103292287D01*
X101608499Y-103292269D01*
X101593802Y-103119586D01*
X101535530Y-102895793D01*
X101535529Y-102895789D01*
X101440283Y-102685080D01*
X101440276Y-102685068D01*
X101310790Y-102493486D01*
X101310786Y-102493481D01*
X101310783Y-102493477D01*
X101150772Y-102326524D01*
X100964847Y-102189015D01*
X100964846Y-102189014D01*
X100964844Y-102189013D01*
X100758358Y-102084905D01*
X100553641Y-102022211D01*
X100537243Y-102017189D01*
X100537241Y-102017188D01*
X100537242Y-102017188D01*
X100307859Y-101987815D01*
X100076827Y-101997630D01*
X100076821Y-101997630D01*
X99850759Y-102046351D01*
X99636190Y-102132572D01*
X99439270Y-102253820D01*
X99265679Y-102406599D01*
X99265674Y-102406604D01*
X99241757Y-102436224D01*
X99184326Y-102476015D01*
X99114498Y-102478440D01*
X99054444Y-102442728D01*
X99039747Y-102423423D01*
X98949030Y-102276348D01*
X98823652Y-102150970D01*
X98672738Y-102057885D01*
X98616247Y-102039166D01*
X98504427Y-102002113D01*
X98400545Y-101991500D01*
X97099462Y-101991500D01*
X97099446Y-101991501D01*
X96995572Y-102002113D01*
X96827264Y-102057884D01*
X96827259Y-102057886D01*
X96676346Y-102150971D01*
X96550971Y-102276346D01*
X96457886Y-102427259D01*
X96457884Y-102427264D01*
X96402113Y-102595572D01*
X96391500Y-102699447D01*
X96391500Y-104300537D01*
X87525500Y-104300537D01*
X87525500Y-100149500D01*
X87545185Y-100082461D01*
X87597989Y-100036706D01*
X87649500Y-100025500D01*
X150350500Y-100025500D01*
X150417539Y-100045185D01*
G37*
%TD.AperFunction*%
%TD*%
%TA.AperFunction,NonConductor*%
G36*
X126298049Y-101978185D02*
G01*
X126343804Y-102030989D01*
X126353748Y-102100147D01*
X126324723Y-102163703D01*
X126296025Y-102188089D01*
X126274093Y-102201592D01*
X126189270Y-102253820D01*
X126015679Y-102406599D01*
X126015674Y-102406604D01*
X125991757Y-102436224D01*
X125934326Y-102476015D01*
X125864498Y-102478440D01*
X125804444Y-102442728D01*
X125789747Y-102423423D01*
X125699030Y-102276348D01*
X125592863Y-102170181D01*
X125559379Y-102108858D01*
X125564363Y-102039166D01*
X125606235Y-101983233D01*
X125671699Y-101958816D01*
X125680545Y-101958500D01*
X126231010Y-101958500D01*
X126298049Y-101978185D01*
G37*
%TD.AperFunction*%
%TA.AperFunction,NonConductor*%
G36*
X129401496Y-101978185D02*
G01*
X129422138Y-101994819D01*
X129705181Y-102277862D01*
X129738666Y-102339185D01*
X129741500Y-102365543D01*
X129741500Y-112134457D01*
X129721815Y-112201496D01*
X129705181Y-112222138D01*
X128722138Y-113205181D01*
X128660815Y-113238666D01*
X128634457Y-113241500D01*
X128069787Y-113241500D01*
X128002748Y-113221815D01*
X127971557Y-113191838D01*
X127971231Y-113192112D01*
X127968683Y-113189076D01*
X127968213Y-113188624D01*
X127967754Y-113187969D01*
X127967753Y-113187968D01*
X127967749Y-113187962D01*
X127812038Y-113032251D01*
X127631654Y-112905944D01*
X127620850Y-112900906D01*
X127432081Y-112812882D01*
X127432079Y-112812881D01*
X127432076Y-112812880D01*
X127280777Y-112772339D01*
X127219372Y-112755885D01*
X127219365Y-112755884D01*
X127000002Y-112736693D01*
X126999998Y-112736693D01*
X126780634Y-112755884D01*
X126780627Y-112755885D01*
X126657815Y-112788793D01*
X126567924Y-112812880D01*
X126567922Y-112812880D01*
X126567918Y-112812882D01*
X126434904Y-112874907D01*
X126365827Y-112885399D01*
X126302043Y-112856879D01*
X126263804Y-112798402D01*
X126258500Y-112762525D01*
X126258500Y-112237474D01*
X126278185Y-112170435D01*
X126330989Y-112124680D01*
X126400147Y-112114736D01*
X126434900Y-112125090D01*
X126567924Y-112187120D01*
X126780629Y-112244115D01*
X126937322Y-112257823D01*
X126999998Y-112263307D01*
X127000000Y-112263307D01*
X127000002Y-112263307D01*
X127054957Y-112258499D01*
X127219371Y-112244115D01*
X127432076Y-112187120D01*
X127631654Y-112094056D01*
X127812038Y-111967749D01*
X127967749Y-111812038D01*
X128094056Y-111631654D01*
X128187120Y-111432076D01*
X128244115Y-111219371D01*
X128263307Y-111000000D01*
X128244115Y-110780629D01*
X128187120Y-110567924D01*
X128094056Y-110368347D01*
X128094054Y-110368344D01*
X128094053Y-110368342D01*
X128030902Y-110278154D01*
X127967749Y-110187962D01*
X127812038Y-110032251D01*
X127631654Y-109905944D01*
X127565978Y-109875319D01*
X127432081Y-109812882D01*
X127432079Y-109812881D01*
X127432076Y-109812880D01*
X127280777Y-109772339D01*
X127219372Y-109755885D01*
X127219365Y-109755884D01*
X127000002Y-109736693D01*
X126999998Y-109736693D01*
X126780634Y-109755884D01*
X126780627Y-109755885D01*
X126657815Y-109788793D01*
X126567924Y-109812880D01*
X126567922Y-109812880D01*
X126567918Y-109812882D01*
X126434904Y-109874907D01*
X126365827Y-109885399D01*
X126302043Y-109856879D01*
X126263804Y-109798402D01*
X126258500Y-109762525D01*
X126258500Y-107365542D01*
X126278185Y-107298503D01*
X126294814Y-107277865D01*
X127490880Y-106081799D01*
X127504506Y-106070023D01*
X127524058Y-106055469D01*
X127524060Y-106055467D01*
X127556274Y-106017075D01*
X127563590Y-106009090D01*
X127567580Y-106005101D01*
X127587043Y-105980485D01*
X127589245Y-105977781D01*
X127638032Y-105919640D01*
X127638033Y-105919636D01*
X127638036Y-105919634D01*
X127642003Y-105913603D01*
X127642044Y-105913630D01*
X127646219Y-105907076D01*
X127646177Y-105907050D01*
X127649963Y-105900910D01*
X127649967Y-105900906D01*
X127682008Y-105832189D01*
X127683563Y-105828975D01*
X127717609Y-105761188D01*
X127717611Y-105761179D01*
X127720080Y-105754399D01*
X127720126Y-105754416D01*
X127722678Y-105747075D01*
X127722631Y-105747060D01*
X127724898Y-105740214D01*
X127724902Y-105740207D01*
X127740252Y-105665861D01*
X127740997Y-105662499D01*
X127758500Y-105588656D01*
X127758500Y-105588652D01*
X127758501Y-105588648D01*
X127759339Y-105581483D01*
X127759386Y-105581488D01*
X127760176Y-105573757D01*
X127760129Y-105573753D01*
X127760758Y-105566562D01*
X127758552Y-105490741D01*
X127758500Y-105487135D01*
X127758500Y-104847327D01*
X127778185Y-104780288D01*
X127806821Y-104749710D01*
X127806776Y-104749659D01*
X127807305Y-104749192D01*
X127808773Y-104747626D01*
X127810719Y-104746185D01*
X127810730Y-104746179D01*
X127984324Y-104593398D01*
X128129600Y-104413476D01*
X128242380Y-104211591D01*
X128319419Y-103993550D01*
X128337774Y-103886500D01*
X128358499Y-103765634D01*
X128358500Y-103765623D01*
X128358500Y-103292287D01*
X128358499Y-103292269D01*
X128343802Y-103119586D01*
X128285530Y-102895793D01*
X128285529Y-102895789D01*
X128190283Y-102685080D01*
X128190276Y-102685068D01*
X128060790Y-102493486D01*
X128060786Y-102493481D01*
X128060783Y-102493477D01*
X127900772Y-102326524D01*
X127714847Y-102189015D01*
X127714843Y-102189013D01*
X127714839Y-102189010D01*
X127713343Y-102188089D01*
X127712842Y-102187533D01*
X127710611Y-102185883D01*
X127710946Y-102185429D01*
X127666578Y-102136178D01*
X127655303Y-102067224D01*
X127683096Y-102003120D01*
X127741134Y-101964219D01*
X127778358Y-101958500D01*
X129334457Y-101958500D01*
X129401496Y-101978185D01*
G37*
%TD.AperFunction*%
M02*
