%TF.GenerationSoftware,KiCad,Pcbnew,9.0.2*%
%TF.CreationDate,2025-08-11T16:15:30+08:00*%
%TF.ProjectId,tsal_g_v4.zip,7473616c-5f67-45f7-9634-2e7a69702e6b,rev?*%
%TF.SameCoordinates,Original*%
%TF.FileFunction,Copper,L2,Bot*%
%TF.FilePolarity,Positive*%
%FSLAX46Y46*%
G04 Gerber Fmt 4.6, Leading zero omitted, Abs format (unit mm)*
G04 Created by KiCad (PCBNEW 9.0.2) date 2025-08-11 16:15:30*
%MOMM*%
%LPD*%
G01*
G04 APERTURE LIST*
G04 Aperture macros list*
%AMRoundRect*
0 Rectangle with rounded corners*
0 $1 Rounding radius*
0 $2 $3 $4 $5 $6 $7 $8 $9 X,Y pos of 4 corners*
0 Add a 4 corners polygon primitive as box body*
4,1,4,$2,$3,$4,$5,$6,$7,$8,$9,$2,$3,0*
0 Add four circle primitives for the rounded corners*
1,1,$1+$1,$2,$3*
1,1,$1+$1,$4,$5*
1,1,$1+$1,$6,$7*
1,1,$1+$1,$8,$9*
0 Add four rect primitives between the rounded corners*
20,1,$1+$1,$2,$3,$4,$5,0*
20,1,$1+$1,$4,$5,$6,$7,0*
20,1,$1+$1,$6,$7,$8,$9,0*
20,1,$1+$1,$8,$9,$2,$3,0*%
G04 Aperture macros list end*
%TA.AperFunction,ComponentPad*%
%ADD10RoundRect,0.250001X0.499999X0.759999X-0.499999X0.759999X-0.499999X-0.759999X0.499999X-0.759999X0*%
%TD*%
%TA.AperFunction,ComponentPad*%
%ADD11O,1.500000X2.020000*%
%TD*%
%TA.AperFunction,ComponentPad*%
%ADD12R,1.600000X1.600000*%
%TD*%
%TA.AperFunction,ComponentPad*%
%ADD13O,1.600000X1.600000*%
%TD*%
%TA.AperFunction,ComponentPad*%
%ADD14RoundRect,0.250001X0.759999X-0.499999X0.759999X0.499999X-0.759999X0.499999X-0.759999X-0.499999X0*%
%TD*%
%TA.AperFunction,ComponentPad*%
%ADD15O,2.020000X1.500000*%
%TD*%
%TA.AperFunction,ComponentPad*%
%ADD16R,1.500000X1.500000*%
%TD*%
%TA.AperFunction,ComponentPad*%
%ADD17C,1.500000*%
%TD*%
%TA.AperFunction,ViaPad*%
%ADD18C,0.700000*%
%TD*%
%TA.AperFunction,ViaPad*%
%ADD19C,0.800000*%
%TD*%
%TA.AperFunction,ViaPad*%
%ADD20C,0.600000*%
%TD*%
%TA.AperFunction,ViaPad*%
%ADD21C,2.000000*%
%TD*%
%TA.AperFunction,Conductor*%
%ADD22C,0.500000*%
%TD*%
%TA.AperFunction,Conductor*%
%ADD23C,1.000000*%
%TD*%
%TA.AperFunction,Conductor*%
%ADD24C,0.250000*%
%TD*%
G04 APERTURE END LIST*
D10*
%TO.P,J7,1,Pin_1*%
%TO.N,GLV-*%
X145700000Y-107040000D03*
D11*
%TO.P,J7,2,Pin_2*%
%TO.N,GLV+*%
X142700000Y-107040000D03*
%TD*%
D10*
%TO.P,J8,1,Pin_1*%
%TO.N,Precharge Check*%
X153500000Y-57000000D03*
D11*
%TO.P,J8,2,Pin_2*%
%TO.N,AIRH Check*%
X150500000Y-57000000D03*
%TO.P,J8,3,Pin_3*%
%TO.N,AIRL Check*%
X147500000Y-57000000D03*
%TD*%
D12*
%TO.P,D1,1,K*%
%TO.N,/Vin*%
X84000000Y-73725000D03*
D13*
%TO.P,D1,2,A*%
%TO.N,GND*%
X84000000Y-81345000D03*
%TD*%
D14*
%TO.P,J2,1,Pin_1*%
%TO.N,GND*%
X66500000Y-90500000D03*
D15*
%TO.P,J2,2,Pin_2*%
X66500000Y-87500000D03*
%TD*%
D16*
%TO.P,U3,1,+Vin*%
%TO.N,VCC*%
X113000000Y-107500000D03*
D17*
%TO.P,U3,2,-Vin*%
%TO.N,GLV-*%
X110460000Y-107500000D03*
%TO.P,U3,4,-Vout*%
%TO.N,GND*%
X102840000Y-107500000D03*
%TO.P,U3,6,+Vout*%
%TO.N,+12V*%
X97760000Y-107500000D03*
%TD*%
D10*
%TO.P,J6,1,Pin_1*%
%TO.N,GLV-*%
X156800000Y-107000000D03*
D11*
%TO.P,J6,2,Pin_2*%
%TO.N,/GRN+*%
X153800000Y-107000000D03*
%TD*%
D10*
%TO.P,J3,1,Pin_1*%
%TO.N,Net-(J3-Pin_1)*%
X133978817Y-62973517D03*
D11*
%TO.P,J3,2,Pin_2*%
%TO.N,Net-(J3-Pin_2)*%
X130978817Y-62973517D03*
%TO.P,J3,3,Pin_3*%
%TO.N,Net-(J3-Pin_3)*%
X127978817Y-62973517D03*
%TO.P,J3,4,Pin_4*%
%TO.N,Net-(J3-Pin_4)*%
X124978817Y-62973517D03*
%TO.P,J3,5,Pin_5*%
%TO.N,Net-(J3-Pin_5)*%
X121978817Y-62973517D03*
%TO.P,J3,6,Pin_6*%
%TO.N,Net-(J3-Pin_6)*%
X118978817Y-62973517D03*
%TD*%
D14*
%TO.P,J1,1,Pin_1*%
%TO.N,Net-(J1-Pin_1)*%
X66500000Y-74000000D03*
D15*
%TO.P,J1,2,Pin_2*%
X66500000Y-71000000D03*
%TD*%
D18*
%TO.N,+12V*%
X96950000Y-75800000D03*
D19*
X103030000Y-70850000D03*
D20*
%TO.N,GND*%
X91000000Y-82130000D03*
D19*
%TO.N,VCC*%
X118402500Y-82182500D03*
X142500000Y-97000000D03*
X137078817Y-73074117D03*
X125478817Y-73144117D03*
X147834417Y-63678517D03*
X142500000Y-87500000D03*
X152500000Y-94000000D03*
X125265600Y-82148948D03*
X112765000Y-76230000D03*
D20*
%TO.N,GLV-*%
X127000000Y-99000000D03*
X122500000Y-65500000D03*
X159760000Y-61152103D03*
X121000000Y-70500000D03*
X130972107Y-55176017D03*
X117300000Y-104684400D03*
X139000000Y-100500000D03*
X152000000Y-99000000D03*
X155000000Y-95500000D03*
X145000000Y-92000000D03*
X166000000Y-91000000D03*
X117000000Y-75500000D03*
X164000000Y-93000000D03*
X127500000Y-79000000D03*
X155000000Y-93000000D03*
X126600000Y-75000000D03*
X119706900Y-104684400D03*
X159755000Y-63500000D03*
X130000000Y-70500000D03*
X125485717Y-70712917D03*
X156000000Y-76500000D03*
X119500000Y-79000000D03*
X147500000Y-87000000D03*
X125200000Y-67800000D03*
X118500000Y-70500000D03*
X131500000Y-90500000D03*
X158600000Y-96000000D03*
X116000000Y-100000000D03*
X136000000Y-60000000D03*
X131000000Y-79000000D03*
X154000000Y-89500000D03*
X159000000Y-76500000D03*
X155000000Y-98500000D03*
X164000000Y-91000000D03*
X132500000Y-70500000D03*
X120500000Y-60000000D03*
X166202500Y-81367500D03*
X166000000Y-93000000D03*
X152518817Y-69171617D03*
X158000000Y-56000000D03*
X128000000Y-84000000D03*
X150500000Y-80000000D03*
X121951976Y-55176017D03*
X129500000Y-60000000D03*
X162000000Y-95000000D03*
X125500000Y-94000000D03*
X127500000Y-70700000D03*
X142500000Y-74800000D03*
X127400000Y-65400000D03*
X120800000Y-100000000D03*
X152500000Y-87500000D03*
X123000000Y-75000000D03*
X159760000Y-65752103D03*
X153000000Y-72400000D03*
X150500000Y-77000000D03*
X131500000Y-92500000D03*
X152500000Y-85000000D03*
X164000000Y-95000000D03*
X131000000Y-65500000D03*
X132500000Y-60000000D03*
X125400000Y-65400000D03*
X162000000Y-99000000D03*
X162000000Y-91000000D03*
X134000000Y-65500000D03*
X162000000Y-97000000D03*
X145000000Y-82000000D03*
X164000000Y-99000000D03*
X160950000Y-69200000D03*
X166000000Y-95000000D03*
X119500000Y-65500000D03*
X123500000Y-60000000D03*
X166000000Y-97000000D03*
X125500000Y-97000000D03*
X123500000Y-70700000D03*
X128700000Y-74900000D03*
X117000000Y-79000000D03*
X124958686Y-55176017D03*
X119700000Y-75200000D03*
X123000000Y-79000000D03*
X156500000Y-70500000D03*
X164000000Y-97000000D03*
X162000000Y-93000000D03*
X140000000Y-58000000D03*
D19*
%TO.N,GLV+*%
X167620000Y-84420000D03*
D20*
%TO.N,Out +*%
X144860966Y-76993827D03*
X147688817Y-68308517D03*
%TO.N,Out Precharge*%
X138618817Y-72078517D03*
X142448817Y-72118517D03*
D21*
%TO.N,/GRN+*%
X160100000Y-91900000D03*
D20*
%TO.N,TS RESET*%
X128500000Y-87500000D03*
X122627500Y-88882500D03*
%TO.N,AIRL Check*%
X147688817Y-69578517D03*
X133920000Y-79500000D03*
%TO.N,AIRH Check*%
X147688817Y-72123517D03*
X139000000Y-79500000D03*
%TO.N,Precharge Check*%
X142000000Y-80000000D03*
X147688817Y-73388517D03*
D19*
%TO.N,TS LOGIC*%
X127500000Y-90000000D03*
X149000000Y-98500000D03*
D20*
%TO.N,high aux*%
X144318817Y-67078517D03*
X144277375Y-75811075D03*
%TO.N,pre aux*%
X138818817Y-70878517D03*
X142448817Y-70848517D03*
%TO.N,low aux*%
X147688817Y-67038517D03*
X145193817Y-75778517D03*
%TO.N,Net-(U21-Pad4)*%
X130500000Y-94500000D03*
X130500000Y-85500000D03*
%TO.N,Net-(U8-Pad11)*%
X134000000Y-98500000D03*
X136500000Y-98500000D03*
%TD*%
D22*
%TO.N,+12V*%
X97800000Y-70850000D02*
X96950000Y-71700000D01*
X103030000Y-70850000D02*
X97800000Y-70850000D01*
X96950000Y-71700000D02*
X96950000Y-75800000D01*
%TO.N,GND*%
X84755000Y-82100000D02*
X84000000Y-81345000D01*
X91000000Y-82130000D02*
X90970000Y-82100000D01*
X90970000Y-82100000D02*
X84755000Y-82100000D01*
D23*
%TO.N,VCC*%
X142500000Y-97000000D02*
X151500000Y-97000000D01*
X137078817Y-73074117D02*
X137078817Y-67321183D01*
X151500000Y-97000000D02*
X152500000Y-96000000D01*
X125265600Y-82000000D02*
X141500000Y-82000000D01*
D22*
X116182500Y-82182500D02*
X115425000Y-81425000D01*
D23*
X125232048Y-82182500D02*
X125265600Y-82148948D01*
X152500000Y-96000000D02*
X152500000Y-94000000D01*
X140721483Y-63678517D02*
X147834417Y-63678517D01*
D22*
X115425000Y-81425000D02*
X115425000Y-76900000D01*
D23*
X125265600Y-73357334D02*
X125478817Y-73144117D01*
X117400000Y-102200000D02*
X118402500Y-101197500D01*
D22*
X118402500Y-82182500D02*
X116182500Y-82182500D01*
D23*
X118402500Y-82182500D02*
X125232048Y-82182500D01*
D22*
X114755000Y-76230000D02*
X112765000Y-76230000D01*
D23*
X141500000Y-82000000D02*
X142500000Y-83000000D01*
X125265600Y-82000000D02*
X125265600Y-73357334D01*
X114200000Y-102200000D02*
X117400000Y-102200000D01*
X137078817Y-67321183D02*
X140721483Y-63678517D01*
X125478817Y-73144117D02*
X137008817Y-73144117D01*
D22*
X115425000Y-76900000D02*
X114755000Y-76230000D01*
D23*
X118402500Y-101197500D02*
X118402500Y-82182500D01*
X125265600Y-82148948D02*
X125265600Y-82000000D01*
X137008817Y-73144117D02*
X137078817Y-73074117D01*
X113000000Y-107500000D02*
X113000000Y-103400000D01*
X113000000Y-103400000D02*
X114200000Y-102200000D01*
X142500000Y-83000000D02*
X142500000Y-97000000D01*
%TO.N,GLV+*%
X158630000Y-84420000D02*
X167620000Y-84420000D01*
X142700000Y-107040000D02*
X142700000Y-102400000D01*
X144400000Y-100700000D02*
X155500000Y-100700000D01*
X142700000Y-102400000D02*
X144400000Y-100700000D01*
X157224000Y-98976000D02*
X157224000Y-85826000D01*
X155500000Y-100700000D02*
X157224000Y-98976000D01*
X157224000Y-85826000D02*
X158630000Y-84420000D01*
D24*
%TO.N,Out +*%
X145818817Y-75518219D02*
X145818817Y-68778517D01*
X144860966Y-76993827D02*
X145450276Y-76404517D01*
X145450276Y-76404517D02*
X145453115Y-76404517D01*
X146288817Y-68308517D02*
X147688817Y-68308517D01*
X145819817Y-76037815D02*
X145819817Y-75519219D01*
X145819817Y-75519219D02*
X145818817Y-75518219D01*
X145818817Y-68778517D02*
X146288817Y-68308517D01*
X145453115Y-76404517D02*
X145819817Y-76037815D01*
%TO.N,Out Precharge*%
X138618817Y-72078517D02*
X142408817Y-72078517D01*
X142408817Y-72078517D02*
X142448817Y-72118517D01*
D23*
%TO.N,/GRN+*%
X160000000Y-102200000D02*
X158700000Y-103500000D01*
X155000000Y-103500000D02*
X153800000Y-104700000D01*
X160000000Y-92000000D02*
X160000000Y-102200000D01*
X158700000Y-103500000D02*
X155000000Y-103500000D01*
X153800000Y-104700000D02*
X153800000Y-107000000D01*
X160100000Y-91900000D02*
X160000000Y-92000000D01*
D24*
%TO.N,TS RESET*%
X127117500Y-88882500D02*
X128500000Y-87500000D01*
X122627500Y-88882500D02*
X127117500Y-88882500D01*
%TO.N,AIRL Check*%
X134920000Y-78500000D02*
X145500000Y-78500000D01*
X149098000Y-68977000D02*
X149098000Y-58998000D01*
X133920000Y-79500000D02*
X134920000Y-78500000D01*
X146500000Y-72000000D02*
X147688817Y-70811183D01*
X147688817Y-69578517D02*
X148496483Y-69578517D01*
X147500000Y-57400000D02*
X147500000Y-57000000D01*
X149098000Y-58998000D02*
X147500000Y-57400000D01*
X146500000Y-77500000D02*
X146500000Y-72000000D01*
X148496483Y-69578517D02*
X149098000Y-68977000D01*
X145500000Y-78500000D02*
X146500000Y-77500000D01*
X147688817Y-70811183D02*
X147688817Y-69578517D01*
%TO.N,AIRH Check*%
X148876483Y-72123517D02*
X149549000Y-71451000D01*
X149549000Y-59001000D02*
X150500000Y-58050000D01*
X147062817Y-77937183D02*
X145626000Y-79374000D01*
X150500000Y-58050000D02*
X150500000Y-57000000D01*
X147062817Y-72749517D02*
X147062817Y-77937183D01*
X149549000Y-71451000D02*
X149549000Y-59001000D01*
X145626000Y-79374000D02*
X139126000Y-79374000D01*
X139126000Y-79374000D02*
X139000000Y-79500000D01*
X147688817Y-72123517D02*
X147062817Y-72749517D01*
X147688817Y-72123517D02*
X148876483Y-72123517D01*
%TO.N,Precharge Check*%
X150000000Y-59200000D02*
X150600000Y-58600000D01*
X147688817Y-73388517D02*
X149411483Y-73388517D01*
X146000000Y-80000000D02*
X142000000Y-80000000D01*
X153500000Y-58100000D02*
X153500000Y-57000000D01*
X153000000Y-58600000D02*
X153500000Y-58100000D01*
X147688817Y-78311183D02*
X146000000Y-80000000D01*
X150000000Y-72800000D02*
X150000000Y-59200000D01*
X147688817Y-73388517D02*
X147688817Y-78311183D01*
X149411483Y-73388517D02*
X150000000Y-72800000D01*
X150600000Y-58600000D02*
X153000000Y-58600000D01*
%TO.N,TS LOGIC*%
X127500000Y-97000000D02*
X127500000Y-90000000D01*
X148374000Y-99126000D02*
X129626000Y-99126000D01*
X149000000Y-98500000D02*
X148374000Y-99126000D01*
X129626000Y-99126000D02*
X127500000Y-97000000D01*
%TO.N,high aux*%
X144767817Y-75319219D02*
X144767817Y-67527517D01*
X144286259Y-75811075D02*
X144567817Y-75529517D01*
X144277375Y-75811075D02*
X144286259Y-75811075D01*
X144767817Y-67527517D02*
X144318817Y-67078517D01*
X144567817Y-75519219D02*
X144767817Y-75319219D01*
X144567817Y-75529517D02*
X144567817Y-75519219D01*
%TO.N,pre aux*%
X142418817Y-70878517D02*
X142448817Y-70848517D01*
X138818817Y-70878517D02*
X142418817Y-70878517D01*
%TO.N,low aux*%
X145218817Y-75753517D02*
X145218817Y-67578517D01*
X145758817Y-67038517D02*
X147688817Y-67038517D01*
X145193817Y-75778517D02*
X145218817Y-75753517D01*
X145218817Y-67578517D02*
X145758817Y-67038517D01*
%TO.N,Net-(U21-Pad4)*%
X130500000Y-85500000D02*
X130500000Y-94500000D01*
%TO.N,Net-(U8-Pad11)*%
X134000000Y-98500000D02*
X136500000Y-98500000D01*
%TD*%
%TA.AperFunction,Conductor*%
%TO.N,GLV-*%
G36*
X170942539Y-53520185D02*
G01*
X170988294Y-53572989D01*
X170999500Y-53624500D01*
X170999500Y-112375500D01*
X170979815Y-112442539D01*
X170927011Y-112488294D01*
X170875500Y-112499500D01*
X111624000Y-112499500D01*
X111556961Y-112479815D01*
X111511206Y-112427011D01*
X111500000Y-112375500D01*
X111500000Y-108912781D01*
X138814500Y-108912781D01*
X138814500Y-109087218D01*
X138848527Y-109258283D01*
X138848529Y-109258291D01*
X138915278Y-109419439D01*
X138915283Y-109419448D01*
X139012186Y-109564473D01*
X139012189Y-109564477D01*
X139135522Y-109687810D01*
X139135526Y-109687813D01*
X139280551Y-109784716D01*
X139280557Y-109784719D01*
X139280558Y-109784720D01*
X139441709Y-109851471D01*
X139612781Y-109885499D01*
X139612785Y-109885500D01*
X139612786Y-109885500D01*
X139787215Y-109885500D01*
X139787216Y-109885499D01*
X139958291Y-109851471D01*
X140119442Y-109784720D01*
X140264474Y-109687813D01*
X140387813Y-109564474D01*
X140484720Y-109419442D01*
X140551471Y-109258291D01*
X140585500Y-109087214D01*
X140585500Y-108912786D01*
X140585499Y-108912781D01*
X147814500Y-108912781D01*
X147814500Y-109087218D01*
X147848527Y-109258283D01*
X147848529Y-109258291D01*
X147915278Y-109419439D01*
X147915283Y-109419448D01*
X148012186Y-109564473D01*
X148012189Y-109564477D01*
X148135522Y-109687810D01*
X148135526Y-109687813D01*
X148280551Y-109784716D01*
X148280557Y-109784719D01*
X148280558Y-109784720D01*
X148441709Y-109851471D01*
X148612781Y-109885499D01*
X148612785Y-109885500D01*
X148612786Y-109885500D01*
X148787215Y-109885500D01*
X148787216Y-109885499D01*
X148958291Y-109851471D01*
X149119442Y-109784720D01*
X149264474Y-109687813D01*
X149387813Y-109564474D01*
X149484720Y-109419442D01*
X149551471Y-109258291D01*
X149585500Y-109087214D01*
X149585500Y-108912786D01*
X149577543Y-108872785D01*
X149577542Y-108872781D01*
X149914500Y-108872781D01*
X149914500Y-109047218D01*
X149948527Y-109218283D01*
X149948529Y-109218291D01*
X150015278Y-109379439D01*
X150015283Y-109379448D01*
X150112186Y-109524473D01*
X150112189Y-109524477D01*
X150235522Y-109647810D01*
X150235526Y-109647813D01*
X150380551Y-109744716D01*
X150380557Y-109744719D01*
X150380558Y-109744720D01*
X150541709Y-109811471D01*
X150712781Y-109845499D01*
X150712785Y-109845500D01*
X150712786Y-109845500D01*
X150887215Y-109845500D01*
X150887216Y-109845499D01*
X151058291Y-109811471D01*
X151219442Y-109744720D01*
X151364474Y-109647813D01*
X151487813Y-109524474D01*
X151584720Y-109379442D01*
X151651471Y-109218291D01*
X151685500Y-109047214D01*
X151685500Y-108872786D01*
X151685499Y-108872781D01*
X158914500Y-108872781D01*
X158914500Y-109047218D01*
X158948527Y-109218283D01*
X158948529Y-109218291D01*
X159015278Y-109379439D01*
X159015283Y-109379448D01*
X159112186Y-109524473D01*
X159112189Y-109524477D01*
X159235522Y-109647810D01*
X159235526Y-109647813D01*
X159380551Y-109744716D01*
X159380557Y-109744719D01*
X159380558Y-109744720D01*
X159541709Y-109811471D01*
X159712781Y-109845499D01*
X159712785Y-109845500D01*
X159712786Y-109845500D01*
X159887215Y-109845500D01*
X159887216Y-109845499D01*
X160058291Y-109811471D01*
X160219442Y-109744720D01*
X160364474Y-109647813D01*
X160487813Y-109524474D01*
X160584720Y-109379442D01*
X160651471Y-109218291D01*
X160685500Y-109047214D01*
X160685500Y-108872786D01*
X160651471Y-108701709D01*
X160584720Y-108540558D01*
X160584719Y-108540557D01*
X160584716Y-108540551D01*
X160487813Y-108395526D01*
X160487810Y-108395522D01*
X160364477Y-108272189D01*
X160364473Y-108272186D01*
X160219448Y-108175283D01*
X160219439Y-108175278D01*
X160058291Y-108108529D01*
X160058283Y-108108527D01*
X159887218Y-108074500D01*
X159887214Y-108074500D01*
X159712786Y-108074500D01*
X159712781Y-108074500D01*
X159541716Y-108108527D01*
X159541708Y-108108529D01*
X159380560Y-108175278D01*
X159380551Y-108175283D01*
X159235526Y-108272186D01*
X159235522Y-108272189D01*
X159112189Y-108395522D01*
X159112186Y-108395526D01*
X159015283Y-108540551D01*
X159015278Y-108540560D01*
X158948529Y-108701708D01*
X158948527Y-108701716D01*
X158914500Y-108872781D01*
X151685499Y-108872781D01*
X151651471Y-108701709D01*
X151584720Y-108540558D01*
X151584719Y-108540557D01*
X151584716Y-108540551D01*
X151487813Y-108395526D01*
X151487810Y-108395522D01*
X151364477Y-108272189D01*
X151364473Y-108272186D01*
X151219448Y-108175283D01*
X151219439Y-108175278D01*
X151058291Y-108108529D01*
X151058283Y-108108527D01*
X150887218Y-108074500D01*
X150887214Y-108074500D01*
X150712786Y-108074500D01*
X150712781Y-108074500D01*
X150541716Y-108108527D01*
X150541708Y-108108529D01*
X150380560Y-108175278D01*
X150380551Y-108175283D01*
X150235526Y-108272186D01*
X150235522Y-108272189D01*
X150112189Y-108395522D01*
X150112186Y-108395526D01*
X150015283Y-108540551D01*
X150015278Y-108540560D01*
X149948529Y-108701708D01*
X149948527Y-108701716D01*
X149914500Y-108872781D01*
X149577542Y-108872781D01*
X149567085Y-108820205D01*
X149551471Y-108741709D01*
X149484720Y-108580558D01*
X149484719Y-108580557D01*
X149484716Y-108580551D01*
X149387813Y-108435526D01*
X149387810Y-108435522D01*
X149264477Y-108312189D01*
X149264473Y-108312186D01*
X149119448Y-108215283D01*
X149119439Y-108215278D01*
X148958291Y-108148529D01*
X148958283Y-108148527D01*
X148787218Y-108114500D01*
X148787214Y-108114500D01*
X148612786Y-108114500D01*
X148612781Y-108114500D01*
X148441716Y-108148527D01*
X148441708Y-108148529D01*
X148280560Y-108215278D01*
X148280551Y-108215283D01*
X148135526Y-108312186D01*
X148135522Y-108312189D01*
X148012189Y-108435522D01*
X148012186Y-108435526D01*
X147915283Y-108580551D01*
X147915278Y-108580560D01*
X147848529Y-108741708D01*
X147848527Y-108741716D01*
X147814500Y-108912781D01*
X140585499Y-108912781D01*
X140551471Y-108741709D01*
X140484720Y-108580558D01*
X140484719Y-108580557D01*
X140484716Y-108580551D01*
X140387813Y-108435526D01*
X140387810Y-108435522D01*
X140264477Y-108312189D01*
X140264473Y-108312186D01*
X140119448Y-108215283D01*
X140119439Y-108215278D01*
X139958291Y-108148529D01*
X139958283Y-108148527D01*
X139787218Y-108114500D01*
X139787214Y-108114500D01*
X139612786Y-108114500D01*
X139612781Y-108114500D01*
X139441716Y-108148527D01*
X139441708Y-108148529D01*
X139280560Y-108215278D01*
X139280551Y-108215283D01*
X139135526Y-108312186D01*
X139135522Y-108312189D01*
X139012189Y-108435522D01*
X139012186Y-108435526D01*
X138915283Y-108580551D01*
X138915278Y-108580560D01*
X138848529Y-108741708D01*
X138848527Y-108741716D01*
X138814500Y-108912781D01*
X111500000Y-108912781D01*
X111500000Y-106702135D01*
X111749500Y-106702135D01*
X111749500Y-108297870D01*
X111749501Y-108297876D01*
X111755908Y-108357483D01*
X111806202Y-108492328D01*
X111806206Y-108492335D01*
X111892452Y-108607544D01*
X111892455Y-108607547D01*
X112007664Y-108693793D01*
X112007671Y-108693797D01*
X112142517Y-108744091D01*
X112142516Y-108744091D01*
X112149444Y-108744835D01*
X112202127Y-108750500D01*
X113797872Y-108750499D01*
X113857483Y-108744091D01*
X113992331Y-108693796D01*
X114107546Y-108607546D01*
X114193796Y-108492331D01*
X114244091Y-108357483D01*
X114250500Y-108297873D01*
X114250499Y-106702128D01*
X114244091Y-106642517D01*
X114243740Y-106641577D01*
X114193797Y-106507671D01*
X114193793Y-106507664D01*
X114107548Y-106392457D01*
X114107546Y-106392454D01*
X114107542Y-106392451D01*
X114050188Y-106349515D01*
X114008318Y-106293581D01*
X114000500Y-106250249D01*
X114000500Y-103865782D01*
X114020185Y-103798743D01*
X114036819Y-103778101D01*
X114578102Y-103236819D01*
X114639425Y-103203334D01*
X114665783Y-103200500D01*
X117498542Y-103200500D01*
X117529566Y-103194328D01*
X117595188Y-103181275D01*
X117691836Y-103162051D01*
X117745165Y-103139961D01*
X117873914Y-103086632D01*
X118037782Y-102977139D01*
X118177139Y-102837782D01*
X118177140Y-102837779D01*
X118184206Y-102830714D01*
X118184209Y-102830710D01*
X119040278Y-101974641D01*
X119040282Y-101974639D01*
X119179639Y-101835282D01*
X119289132Y-101671414D01*
X119312115Y-101615926D01*
X119342461Y-101542666D01*
X119342461Y-101542665D01*
X119364551Y-101489336D01*
X119403000Y-101296040D01*
X119403000Y-101098960D01*
X119403000Y-85421153D01*
X129699500Y-85421153D01*
X129699500Y-85578846D01*
X129730261Y-85733489D01*
X129730264Y-85733501D01*
X129790602Y-85879172D01*
X129790609Y-85879184D01*
X129853602Y-85973459D01*
X129874480Y-86040136D01*
X129874500Y-86042350D01*
X129874500Y-93957650D01*
X129854815Y-94024689D01*
X129853602Y-94026541D01*
X129790609Y-94120815D01*
X129790602Y-94120828D01*
X129730264Y-94266498D01*
X129730261Y-94266510D01*
X129699500Y-94421153D01*
X129699500Y-94578846D01*
X129730261Y-94733489D01*
X129730264Y-94733501D01*
X129790602Y-94879172D01*
X129790609Y-94879185D01*
X129878210Y-95010288D01*
X129878213Y-95010292D01*
X129989707Y-95121786D01*
X129989711Y-95121789D01*
X130120814Y-95209390D01*
X130120827Y-95209397D01*
X130266498Y-95269735D01*
X130266503Y-95269737D01*
X130421153Y-95300499D01*
X130421156Y-95300500D01*
X130421158Y-95300500D01*
X130578844Y-95300500D01*
X130578845Y-95300499D01*
X130733497Y-95269737D01*
X130879179Y-95209394D01*
X131010289Y-95121789D01*
X131121789Y-95010289D01*
X131209394Y-94879179D01*
X131269737Y-94733497D01*
X131300500Y-94578842D01*
X131300500Y-94421158D01*
X131300500Y-94421155D01*
X131300499Y-94421153D01*
X131269738Y-94266510D01*
X131269737Y-94266503D01*
X131209394Y-94120821D01*
X131146397Y-94026539D01*
X131125520Y-93959863D01*
X131125500Y-93957650D01*
X131125500Y-86042350D01*
X131145185Y-85975311D01*
X131146398Y-85973459D01*
X131146809Y-85972843D01*
X131209394Y-85879179D01*
X131269737Y-85733497D01*
X131300500Y-85578842D01*
X131300500Y-85421158D01*
X131300500Y-85421155D01*
X131300499Y-85421153D01*
X131286762Y-85352092D01*
X131269737Y-85266503D01*
X131241006Y-85197139D01*
X131209397Y-85120827D01*
X131209390Y-85120814D01*
X131121789Y-84989711D01*
X131121786Y-84989707D01*
X131010292Y-84878213D01*
X131010288Y-84878210D01*
X130879185Y-84790609D01*
X130879172Y-84790602D01*
X130733501Y-84730264D01*
X130733489Y-84730261D01*
X130578845Y-84699500D01*
X130578842Y-84699500D01*
X130421158Y-84699500D01*
X130421155Y-84699500D01*
X130266510Y-84730261D01*
X130266498Y-84730264D01*
X130120827Y-84790602D01*
X130120814Y-84790609D01*
X129989711Y-84878210D01*
X129989707Y-84878213D01*
X129878213Y-84989707D01*
X129878210Y-84989711D01*
X129790609Y-85120814D01*
X129790602Y-85120827D01*
X129730264Y-85266498D01*
X129730261Y-85266510D01*
X129699500Y-85421153D01*
X119403000Y-85421153D01*
X119403000Y-83307000D01*
X119422685Y-83239961D01*
X119475489Y-83194206D01*
X119527000Y-83183000D01*
X125330590Y-83183000D01*
X125351524Y-83178835D01*
X125427236Y-83163775D01*
X125523884Y-83144551D01*
X125604885Y-83110999D01*
X125705962Y-83069132D01*
X125777401Y-83021398D01*
X125844078Y-83000520D01*
X125846292Y-83000500D01*
X141034218Y-83000500D01*
X141101257Y-83020185D01*
X141121899Y-83036819D01*
X141463181Y-83378101D01*
X141496666Y-83439424D01*
X141499500Y-83465782D01*
X141499500Y-97098541D01*
X141499500Y-97098543D01*
X141499499Y-97098543D01*
X141537947Y-97291829D01*
X141537950Y-97291839D01*
X141613364Y-97473907D01*
X141613371Y-97473920D01*
X141722860Y-97637781D01*
X141722863Y-97637785D01*
X141862214Y-97777136D01*
X141862218Y-97777139D01*
X142026079Y-97886628D01*
X142026092Y-97886635D01*
X142208160Y-97962049D01*
X142208165Y-97962051D01*
X142208169Y-97962051D01*
X142208170Y-97962052D01*
X142401456Y-98000500D01*
X142401459Y-98000500D01*
X142598541Y-98000500D01*
X148046627Y-98000500D01*
X148113666Y-98020185D01*
X148159421Y-98072989D01*
X148169365Y-98142147D01*
X148161188Y-98171952D01*
X148134106Y-98237332D01*
X148134104Y-98237340D01*
X148101611Y-98400692D01*
X148069226Y-98462603D01*
X148008510Y-98497177D01*
X147979994Y-98500500D01*
X137418046Y-98500500D01*
X137351007Y-98480815D01*
X137305252Y-98428011D01*
X137296429Y-98400691D01*
X137269738Y-98266510D01*
X137269737Y-98266503D01*
X137257658Y-98237341D01*
X137209397Y-98120827D01*
X137209390Y-98120814D01*
X137121789Y-97989711D01*
X137121786Y-97989707D01*
X137010292Y-97878213D01*
X137010288Y-97878210D01*
X136879185Y-97790609D01*
X136879172Y-97790602D01*
X136733501Y-97730264D01*
X136733489Y-97730261D01*
X136578845Y-97699500D01*
X136578842Y-97699500D01*
X136421158Y-97699500D01*
X136421155Y-97699500D01*
X136266510Y-97730261D01*
X136266498Y-97730264D01*
X136120827Y-97790602D01*
X136120815Y-97790609D01*
X136026541Y-97853602D01*
X135959864Y-97874480D01*
X135957650Y-97874500D01*
X134542350Y-97874500D01*
X134475311Y-97854815D01*
X134473459Y-97853602D01*
X134379184Y-97790609D01*
X134379172Y-97790602D01*
X134233501Y-97730264D01*
X134233489Y-97730261D01*
X134078845Y-97699500D01*
X134078842Y-97699500D01*
X133921158Y-97699500D01*
X133921155Y-97699500D01*
X133766510Y-97730261D01*
X133766498Y-97730264D01*
X133620827Y-97790602D01*
X133620814Y-97790609D01*
X133489711Y-97878210D01*
X133489707Y-97878213D01*
X133378213Y-97989707D01*
X133378210Y-97989711D01*
X133290609Y-98120814D01*
X133290602Y-98120827D01*
X133230264Y-98266498D01*
X133230261Y-98266510D01*
X133203571Y-98400691D01*
X133171186Y-98462602D01*
X133110471Y-98497176D01*
X133081954Y-98500500D01*
X129936452Y-98500500D01*
X129869413Y-98480815D01*
X129848771Y-98464181D01*
X128161819Y-96777229D01*
X128128334Y-96715906D01*
X128125500Y-96689548D01*
X128125500Y-90699361D01*
X128145185Y-90632322D01*
X128161820Y-90611679D01*
X128199461Y-90574038D01*
X128199464Y-90574035D01*
X128298013Y-90426547D01*
X128365894Y-90262666D01*
X128400500Y-90088691D01*
X128400500Y-89911309D01*
X128400500Y-89911306D01*
X128400499Y-89911304D01*
X128365896Y-89737341D01*
X128365893Y-89737332D01*
X128298016Y-89573459D01*
X128298009Y-89573446D01*
X128199464Y-89425965D01*
X128199461Y-89425961D01*
X128074038Y-89300538D01*
X128074034Y-89300535D01*
X127926553Y-89201990D01*
X127926534Y-89201980D01*
X127925493Y-89201549D01*
X127925031Y-89201177D01*
X127921177Y-89199117D01*
X127921568Y-89198385D01*
X127871094Y-89157703D01*
X127849036Y-89091406D01*
X127866322Y-89023709D01*
X127885272Y-88999316D01*
X128558797Y-88325791D01*
X128620118Y-88292308D01*
X128622128Y-88291889D01*
X128733497Y-88269737D01*
X128879179Y-88209394D01*
X129010289Y-88121789D01*
X129121789Y-88010289D01*
X129209394Y-87879179D01*
X129269737Y-87733497D01*
X129300500Y-87578842D01*
X129300500Y-87421158D01*
X129300500Y-87421155D01*
X129300499Y-87421153D01*
X129269738Y-87266510D01*
X129269738Y-87266508D01*
X129269737Y-87266503D01*
X129269735Y-87266498D01*
X129209397Y-87120827D01*
X129209390Y-87120814D01*
X129121789Y-86989711D01*
X129121786Y-86989707D01*
X129010292Y-86878213D01*
X129010288Y-86878210D01*
X128879185Y-86790609D01*
X128879172Y-86790602D01*
X128733501Y-86730264D01*
X128733489Y-86730261D01*
X128578845Y-86699500D01*
X128578842Y-86699500D01*
X128421158Y-86699500D01*
X128421155Y-86699500D01*
X128266510Y-86730261D01*
X128266498Y-86730264D01*
X128120827Y-86790602D01*
X128120814Y-86790609D01*
X127989711Y-86878210D01*
X127989707Y-86878213D01*
X127878213Y-86989707D01*
X127878210Y-86989711D01*
X127790609Y-87120814D01*
X127790602Y-87120827D01*
X127730264Y-87266498D01*
X127730261Y-87266508D01*
X127708141Y-87377714D01*
X127675756Y-87439625D01*
X127674205Y-87441203D01*
X126894729Y-88220681D01*
X126833406Y-88254166D01*
X126807048Y-88257000D01*
X123169850Y-88257000D01*
X123102811Y-88237315D01*
X123100959Y-88236102D01*
X123006684Y-88173109D01*
X123006672Y-88173102D01*
X122861001Y-88112764D01*
X122860989Y-88112761D01*
X122706345Y-88082000D01*
X122706342Y-88082000D01*
X122548658Y-88082000D01*
X122548655Y-88082000D01*
X122394010Y-88112761D01*
X122393998Y-88112764D01*
X122248327Y-88173102D01*
X122248314Y-88173109D01*
X122117211Y-88260710D01*
X122117207Y-88260713D01*
X122005713Y-88372207D01*
X122005710Y-88372211D01*
X121918109Y-88503314D01*
X121918102Y-88503327D01*
X121857764Y-88648998D01*
X121857761Y-88649010D01*
X121827000Y-88803653D01*
X121827000Y-88961346D01*
X121857761Y-89115989D01*
X121857764Y-89116001D01*
X121918102Y-89261672D01*
X121918109Y-89261685D01*
X122005710Y-89392788D01*
X122005713Y-89392792D01*
X122117207Y-89504286D01*
X122117211Y-89504289D01*
X122248314Y-89591890D01*
X122248327Y-89591897D01*
X122387750Y-89649647D01*
X122394003Y-89652237D01*
X122530821Y-89679452D01*
X122548653Y-89682999D01*
X122548656Y-89683000D01*
X122548658Y-89683000D01*
X122706344Y-89683000D01*
X122706345Y-89682999D01*
X122860997Y-89652237D01*
X123006679Y-89591894D01*
X123100959Y-89528898D01*
X123167636Y-89508020D01*
X123169850Y-89508000D01*
X126543520Y-89508000D01*
X126610559Y-89527685D01*
X126656314Y-89580489D01*
X126666258Y-89649647D01*
X126658083Y-89679446D01*
X126634106Y-89737334D01*
X126634105Y-89737338D01*
X126634104Y-89737341D01*
X126634103Y-89737341D01*
X126599500Y-89911304D01*
X126599500Y-90088695D01*
X126634103Y-90262658D01*
X126634106Y-90262667D01*
X126701983Y-90426540D01*
X126701990Y-90426553D01*
X126800535Y-90574034D01*
X126800538Y-90574038D01*
X126838180Y-90611679D01*
X126871666Y-90673001D01*
X126874500Y-90699361D01*
X126874500Y-97061610D01*
X126898535Y-97182444D01*
X126898538Y-97182454D01*
X126910692Y-97211798D01*
X126910695Y-97211805D01*
X126912347Y-97215792D01*
X126945688Y-97296286D01*
X126969426Y-97331811D01*
X126973786Y-97338336D01*
X126973788Y-97338340D01*
X127014141Y-97398732D01*
X127014144Y-97398736D01*
X127105586Y-97490178D01*
X127105608Y-97490198D01*
X129140139Y-99524729D01*
X129140142Y-99524733D01*
X129227267Y-99611858D01*
X129278490Y-99646084D01*
X129329714Y-99680312D01*
X129329715Y-99680312D01*
X129329716Y-99680313D01*
X129403693Y-99710954D01*
X129410207Y-99713652D01*
X129443548Y-99727463D01*
X129496266Y-99737949D01*
X129564391Y-99751499D01*
X129564392Y-99751500D01*
X129564393Y-99751500D01*
X129564394Y-99751500D01*
X143634216Y-99751500D01*
X143655461Y-99757738D01*
X143677549Y-99759318D01*
X143688332Y-99767390D01*
X143701255Y-99771185D01*
X143715753Y-99787916D01*
X143733483Y-99801189D01*
X143738190Y-99813811D01*
X143747010Y-99823989D01*
X143750161Y-99845904D01*
X143757900Y-99866653D01*
X143755036Y-99879814D01*
X143756954Y-99893147D01*
X143747754Y-99913291D01*
X143743048Y-99934926D01*
X143729778Y-99952653D01*
X143727929Y-99956703D01*
X143721898Y-99963181D01*
X143622861Y-100062218D01*
X143622860Y-100062218D01*
X143622859Y-100062219D01*
X142586119Y-101098960D01*
X142062221Y-101622858D01*
X142062218Y-101622861D01*
X142023028Y-101662051D01*
X141922859Y-101762219D01*
X141813371Y-101926080D01*
X141813366Y-101926089D01*
X141793257Y-101974639D01*
X141737949Y-102108163D01*
X141737947Y-102108171D01*
X141718724Y-102204812D01*
X141699500Y-102301455D01*
X141699500Y-105989301D01*
X141679815Y-106056340D01*
X141675818Y-106062186D01*
X141630478Y-106124591D01*
X141541117Y-106299970D01*
X141480290Y-106487173D01*
X141449500Y-106681577D01*
X141449500Y-107398422D01*
X141480290Y-107592826D01*
X141541117Y-107780029D01*
X141608711Y-107912689D01*
X141630476Y-107955405D01*
X141746172Y-108114646D01*
X141885354Y-108253828D01*
X142044595Y-108369524D01*
X142095627Y-108395526D01*
X142219970Y-108458882D01*
X142219972Y-108458882D01*
X142219975Y-108458884D01*
X142320317Y-108491487D01*
X142407173Y-108519709D01*
X142601578Y-108550500D01*
X142601583Y-108550500D01*
X142798422Y-108550500D01*
X142992826Y-108519709D01*
X143022710Y-108509999D01*
X143180025Y-108458884D01*
X143355405Y-108369524D01*
X143514646Y-108253828D01*
X143653828Y-108114646D01*
X143769524Y-107955405D01*
X143858884Y-107780025D01*
X143919709Y-107592826D01*
X143926492Y-107550000D01*
X143950500Y-107398422D01*
X143950500Y-106681577D01*
X143919709Y-106487173D01*
X143888931Y-106392451D01*
X143858884Y-106299975D01*
X143855316Y-106292972D01*
X143850316Y-106283158D01*
X143823238Y-106230014D01*
X144450000Y-106230014D01*
X144450000Y-106790000D01*
X145255440Y-106790000D01*
X145224755Y-106843147D01*
X145190000Y-106972857D01*
X145190000Y-107107143D01*
X145224755Y-107236853D01*
X145255440Y-107290000D01*
X144450000Y-107290000D01*
X144450000Y-107849985D01*
X144460493Y-107952689D01*
X144460494Y-107952696D01*
X144515641Y-108119118D01*
X144515643Y-108119123D01*
X144607684Y-108268344D01*
X144731655Y-108392315D01*
X144880876Y-108484356D01*
X144880881Y-108484358D01*
X145047303Y-108539505D01*
X145047310Y-108539506D01*
X145150014Y-108549999D01*
X145150027Y-108550000D01*
X145450000Y-108550000D01*
X145450000Y-107484560D01*
X145503147Y-107515245D01*
X145632857Y-107550000D01*
X145767143Y-107550000D01*
X145896853Y-107515245D01*
X145950000Y-107484560D01*
X145950000Y-108550000D01*
X146249973Y-108550000D01*
X146249985Y-108549999D01*
X146352689Y-108539506D01*
X146352696Y-108539505D01*
X146519118Y-108484358D01*
X146519123Y-108484356D01*
X146668344Y-108392315D01*
X146792315Y-108268344D01*
X146884356Y-108119123D01*
X146884358Y-108119118D01*
X146939505Y-107952696D01*
X146939506Y-107952689D01*
X146949999Y-107849985D01*
X146950000Y-107849972D01*
X146950000Y-107290000D01*
X146144560Y-107290000D01*
X146175245Y-107236853D01*
X146210000Y-107107143D01*
X146210000Y-106972857D01*
X146175245Y-106843147D01*
X146144560Y-106790000D01*
X146950000Y-106790000D01*
X146950000Y-106641577D01*
X152549500Y-106641577D01*
X152549500Y-107358422D01*
X152580290Y-107552826D01*
X152641117Y-107740029D01*
X152711780Y-107878712D01*
X152730476Y-107915405D01*
X152846172Y-108074646D01*
X152985354Y-108213828D01*
X153144595Y-108329524D01*
X153199466Y-108357482D01*
X153319970Y-108418882D01*
X153319972Y-108418882D01*
X153319975Y-108418884D01*
X153420317Y-108451487D01*
X153507173Y-108479709D01*
X153701578Y-108510500D01*
X153701583Y-108510500D01*
X153898422Y-108510500D01*
X154092826Y-108479709D01*
X154156918Y-108458884D01*
X154280025Y-108418884D01*
X154455405Y-108329524D01*
X154614646Y-108213828D01*
X154753828Y-108074646D01*
X154869524Y-107915405D01*
X154958884Y-107740025D01*
X155019709Y-107552826D01*
X155026492Y-107510000D01*
X155050500Y-107358422D01*
X155050500Y-106641577D01*
X155019709Y-106447173D01*
X154987977Y-106349515D01*
X154958884Y-106259975D01*
X154955316Y-106252972D01*
X154950316Y-106243158D01*
X154923237Y-106190014D01*
X155550000Y-106190014D01*
X155550000Y-106750000D01*
X156355440Y-106750000D01*
X156324755Y-106803147D01*
X156290000Y-106932857D01*
X156290000Y-107067143D01*
X156324755Y-107196853D01*
X156355440Y-107250000D01*
X155550000Y-107250000D01*
X155550000Y-107809985D01*
X155560493Y-107912689D01*
X155560494Y-107912696D01*
X155615641Y-108079118D01*
X155615643Y-108079123D01*
X155707684Y-108228344D01*
X155831655Y-108352315D01*
X155980876Y-108444356D01*
X155980881Y-108444358D01*
X156147303Y-108499505D01*
X156147310Y-108499506D01*
X156250014Y-108509999D01*
X156250027Y-108510000D01*
X156550000Y-108510000D01*
X156550000Y-107444560D01*
X156603147Y-107475245D01*
X156732857Y-107510000D01*
X156867143Y-107510000D01*
X156996853Y-107475245D01*
X157050000Y-107444560D01*
X157050000Y-108510000D01*
X157349973Y-108510000D01*
X157349985Y-108509999D01*
X157452689Y-108499506D01*
X157452696Y-108499505D01*
X157619118Y-108444358D01*
X157619123Y-108444356D01*
X157768344Y-108352315D01*
X157892315Y-108228344D01*
X157984356Y-108079123D01*
X157984358Y-108079118D01*
X158039505Y-107912696D01*
X158039506Y-107912688D01*
X158042978Y-107878711D01*
X164649500Y-107878711D01*
X164649500Y-108121288D01*
X164679914Y-108352315D01*
X164681162Y-108361789D01*
X164707178Y-108458882D01*
X164743947Y-108596104D01*
X164807900Y-108750499D01*
X164836776Y-108820212D01*
X164958064Y-109030289D01*
X164958066Y-109030292D01*
X164958067Y-109030293D01*
X165105733Y-109222736D01*
X165105739Y-109222743D01*
X165277256Y-109394260D01*
X165277262Y-109394265D01*
X165469711Y-109541936D01*
X165679788Y-109663224D01*
X165903900Y-109756054D01*
X166138211Y-109818838D01*
X166318586Y-109842584D01*
X166378711Y-109850500D01*
X166378712Y-109850500D01*
X166621289Y-109850500D01*
X166669388Y-109844167D01*
X166861789Y-109818838D01*
X167096100Y-109756054D01*
X167320212Y-109663224D01*
X167530289Y-109541936D01*
X167722738Y-109394265D01*
X167894265Y-109222738D01*
X168041936Y-109030289D01*
X168163224Y-108820212D01*
X168256054Y-108596100D01*
X168318838Y-108361789D01*
X168350500Y-108121288D01*
X168350500Y-107878712D01*
X168348306Y-107862050D01*
X168318838Y-107638214D01*
X168318838Y-107638211D01*
X168256054Y-107403900D01*
X168163224Y-107179788D01*
X168041936Y-106969711D01*
X167894265Y-106777262D01*
X167894260Y-106777256D01*
X167722743Y-106605739D01*
X167722736Y-106605733D01*
X167530293Y-106458067D01*
X167530292Y-106458066D01*
X167530289Y-106458064D01*
X167320212Y-106336776D01*
X167273164Y-106317288D01*
X167096104Y-106243947D01*
X166861785Y-106181161D01*
X166621289Y-106149500D01*
X166621288Y-106149500D01*
X166378712Y-106149500D01*
X166378711Y-106149500D01*
X166138214Y-106181161D01*
X165903895Y-106243947D01*
X165679794Y-106336773D01*
X165679785Y-106336777D01*
X165469706Y-106458067D01*
X165277263Y-106605733D01*
X165277256Y-106605739D01*
X165105739Y-106777256D01*
X165105733Y-106777263D01*
X164958067Y-106969706D01*
X164836777Y-107179785D01*
X164836773Y-107179794D01*
X164743947Y-107403895D01*
X164681161Y-107638214D01*
X164649500Y-107878711D01*
X158042978Y-107878711D01*
X158044680Y-107862051D01*
X158044680Y-107862050D01*
X158049999Y-107809985D01*
X158050000Y-107809972D01*
X158050000Y-107250000D01*
X157244560Y-107250000D01*
X157275245Y-107196853D01*
X157310000Y-107067143D01*
X157310000Y-106932857D01*
X157275245Y-106803147D01*
X157244560Y-106750000D01*
X158050000Y-106750000D01*
X158050000Y-106190027D01*
X158049999Y-106190014D01*
X158039506Y-106087310D01*
X158039505Y-106087303D01*
X157984358Y-105920881D01*
X157984356Y-105920876D01*
X157892315Y-105771655D01*
X157768344Y-105647684D01*
X157619123Y-105555643D01*
X157619118Y-105555641D01*
X157452696Y-105500494D01*
X157452689Y-105500493D01*
X157349985Y-105490000D01*
X157050000Y-105490000D01*
X157050000Y-106555439D01*
X156996853Y-106524755D01*
X156867143Y-106490000D01*
X156732857Y-106490000D01*
X156603147Y-106524755D01*
X156550000Y-106555439D01*
X156550000Y-105490000D01*
X156250014Y-105490000D01*
X156147310Y-105500493D01*
X156147303Y-105500494D01*
X155980881Y-105555641D01*
X155980876Y-105555643D01*
X155831655Y-105647684D01*
X155707684Y-105771655D01*
X155615643Y-105920876D01*
X155615641Y-105920881D01*
X155560494Y-106087303D01*
X155560493Y-106087310D01*
X155550000Y-106190014D01*
X154923237Y-106190014D01*
X154918203Y-106180134D01*
X154869524Y-106084595D01*
X154853243Y-106062186D01*
X154824182Y-106022186D01*
X154800702Y-105956380D01*
X154800500Y-105949301D01*
X154800500Y-105165782D01*
X154820185Y-105098743D01*
X154836819Y-105078101D01*
X155378102Y-104536819D01*
X155439425Y-104503334D01*
X155465783Y-104500500D01*
X158798542Y-104500500D01*
X158829566Y-104494328D01*
X158895188Y-104481275D01*
X158991836Y-104462051D01*
X159045165Y-104439961D01*
X159173914Y-104386632D01*
X159337782Y-104277139D01*
X159477139Y-104137782D01*
X159477139Y-104137780D01*
X159487347Y-104127573D01*
X159487348Y-104127570D01*
X160777140Y-102837781D01*
X160886632Y-102673914D01*
X160962052Y-102491835D01*
X160999918Y-102301461D01*
X160999924Y-102301462D01*
X160999924Y-102301434D01*
X161000500Y-102298541D01*
X161000500Y-93163648D01*
X161020185Y-93096609D01*
X161051612Y-93063332D01*
X161077510Y-93044517D01*
X161244517Y-92877510D01*
X161383343Y-92686433D01*
X161490568Y-92475992D01*
X161563553Y-92251368D01*
X161600500Y-92018097D01*
X161600500Y-91781902D01*
X161563553Y-91548631D01*
X161490566Y-91324003D01*
X161383342Y-91113566D01*
X161244517Y-90922490D01*
X161077510Y-90755483D01*
X160886433Y-90616657D01*
X160876663Y-90611679D01*
X160675996Y-90509433D01*
X160451368Y-90436446D01*
X160218097Y-90399500D01*
X160218092Y-90399500D01*
X159981908Y-90399500D01*
X159981903Y-90399500D01*
X159748631Y-90436446D01*
X159524003Y-90509433D01*
X159313566Y-90616657D01*
X159236016Y-90673001D01*
X159122490Y-90755483D01*
X159122488Y-90755485D01*
X159122487Y-90755485D01*
X158955485Y-90922487D01*
X158955485Y-90922488D01*
X158955483Y-90922490D01*
X158895862Y-91004550D01*
X158816657Y-91113566D01*
X158709433Y-91324003D01*
X158636446Y-91548631D01*
X158599500Y-91781902D01*
X158599500Y-92018097D01*
X158636446Y-92251368D01*
X158709433Y-92475996D01*
X158816657Y-92686433D01*
X158955483Y-92877510D01*
X158955485Y-92877512D01*
X158963181Y-92885208D01*
X158996666Y-92946531D01*
X158999500Y-92972889D01*
X158999500Y-101734217D01*
X158979815Y-101801256D01*
X158963181Y-101821898D01*
X158321899Y-102463181D01*
X158260576Y-102496666D01*
X158234218Y-102499500D01*
X154901457Y-102499500D01*
X154831741Y-102513368D01*
X154831740Y-102513368D01*
X154708167Y-102537947D01*
X154708159Y-102537950D01*
X154654834Y-102560037D01*
X154654834Y-102560038D01*
X154609315Y-102578892D01*
X154526089Y-102613366D01*
X154526079Y-102613371D01*
X154362218Y-102722860D01*
X154362214Y-102722863D01*
X153306978Y-103778101D01*
X153162220Y-103922859D01*
X153162218Y-103922861D01*
X153092538Y-103992540D01*
X153022859Y-104062219D01*
X152913371Y-104226080D01*
X152913369Y-104226084D01*
X152913368Y-104226086D01*
X152888290Y-104286631D01*
X152846870Y-104386629D01*
X152846868Y-104386634D01*
X152837950Y-104408160D01*
X152837947Y-104408169D01*
X152799500Y-104601456D01*
X152799500Y-105949301D01*
X152779815Y-106016340D01*
X152775818Y-106022186D01*
X152730478Y-106084591D01*
X152641117Y-106259970D01*
X152580290Y-106447173D01*
X152549500Y-106641577D01*
X146950000Y-106641577D01*
X146950000Y-106230027D01*
X146949999Y-106230014D01*
X146939506Y-106127310D01*
X146939505Y-106127303D01*
X146884358Y-105960881D01*
X146884356Y-105960876D01*
X146792315Y-105811655D01*
X146668344Y-105687684D01*
X146519123Y-105595643D01*
X146519118Y-105595641D01*
X146352696Y-105540494D01*
X146352689Y-105540493D01*
X146249985Y-105530000D01*
X145950000Y-105530000D01*
X145950000Y-106595439D01*
X145896853Y-106564755D01*
X145767143Y-106530000D01*
X145632857Y-106530000D01*
X145503147Y-106564755D01*
X145450000Y-106595439D01*
X145450000Y-105530000D01*
X145150014Y-105530000D01*
X145047310Y-105540493D01*
X145047303Y-105540494D01*
X144880881Y-105595641D01*
X144880876Y-105595643D01*
X144731655Y-105687684D01*
X144607684Y-105811655D01*
X144515643Y-105960876D01*
X144515641Y-105960881D01*
X144460494Y-106127303D01*
X144460493Y-106127310D01*
X144450000Y-106230014D01*
X143823238Y-106230014D01*
X143798346Y-106181162D01*
X143769524Y-106124595D01*
X143742430Y-106087303D01*
X143724182Y-106062186D01*
X143700702Y-105996380D01*
X143700500Y-105989301D01*
X143700500Y-102865782D01*
X143720185Y-102798743D01*
X143736819Y-102778101D01*
X144778101Y-101736819D01*
X144839424Y-101703334D01*
X144865782Y-101700500D01*
X155598543Y-101700500D01*
X155666525Y-101686977D01*
X155744765Y-101671414D01*
X155791836Y-101662051D01*
X155845165Y-101639961D01*
X155973914Y-101586632D01*
X156137782Y-101477139D01*
X156277139Y-101337782D01*
X156277140Y-101337779D01*
X156284206Y-101330714D01*
X156284209Y-101330710D01*
X157861778Y-99753141D01*
X157861782Y-99753139D01*
X158001139Y-99613782D01*
X158110632Y-99449914D01*
X158110635Y-99449907D01*
X158165783Y-99316767D01*
X158165783Y-99316766D01*
X158169227Y-99308452D01*
X158186051Y-99267836D01*
X158214363Y-99125501D01*
X158224500Y-99074541D01*
X158224500Y-86291782D01*
X158244185Y-86224743D01*
X158260819Y-86204101D01*
X159008102Y-85456819D01*
X159069425Y-85423334D01*
X159095783Y-85420500D01*
X167718543Y-85420500D01*
X167848582Y-85394632D01*
X167911835Y-85382051D01*
X168093914Y-85306632D01*
X168257782Y-85197139D01*
X168397139Y-85057782D01*
X168506632Y-84893914D01*
X168582051Y-84711835D01*
X168620500Y-84518541D01*
X168620500Y-84321459D01*
X168620500Y-84321456D01*
X168582052Y-84128170D01*
X168582051Y-84128169D01*
X168582051Y-84128165D01*
X168582049Y-84128160D01*
X168506635Y-83946092D01*
X168506628Y-83946079D01*
X168397139Y-83782218D01*
X168397136Y-83782214D01*
X168257785Y-83642863D01*
X168257781Y-83642860D01*
X168093920Y-83533371D01*
X168093907Y-83533364D01*
X167911839Y-83457950D01*
X167911829Y-83457947D01*
X167718543Y-83419500D01*
X167718541Y-83419500D01*
X158531459Y-83419500D01*
X158531455Y-83419500D01*
X158438731Y-83437944D01*
X158438724Y-83437945D01*
X158434812Y-83438724D01*
X158338164Y-83457949D01*
X158299619Y-83473915D01*
X158292042Y-83477053D01*
X158292032Y-83477056D01*
X158156088Y-83533366D01*
X158023458Y-83621987D01*
X158023457Y-83621988D01*
X157992215Y-83642862D01*
X157992214Y-83642863D01*
X156935579Y-84699500D01*
X156586220Y-85048859D01*
X156586218Y-85048861D01*
X156516538Y-85118540D01*
X156446859Y-85188219D01*
X156337371Y-85352079D01*
X156337364Y-85352092D01*
X156261950Y-85534160D01*
X156261947Y-85534170D01*
X156223500Y-85727456D01*
X156223500Y-98510218D01*
X156203815Y-98577257D01*
X156187181Y-98597899D01*
X155121899Y-99663181D01*
X155060576Y-99696666D01*
X155034218Y-99699500D01*
X148984452Y-99699500D01*
X148963204Y-99693260D01*
X148941117Y-99691681D01*
X148930334Y-99683609D01*
X148917413Y-99679815D01*
X148902912Y-99663081D01*
X148885184Y-99649809D01*
X148880477Y-99637188D01*
X148871658Y-99627011D01*
X148868506Y-99605093D01*
X148860768Y-99584345D01*
X148863630Y-99571184D01*
X148861714Y-99557853D01*
X148870912Y-99537710D01*
X148875620Y-99516072D01*
X148888889Y-99498347D01*
X148890739Y-99494297D01*
X148896772Y-99487818D01*
X148947773Y-99436818D01*
X149009096Y-99403334D01*
X149035453Y-99400500D01*
X149088693Y-99400500D01*
X149088694Y-99400499D01*
X149146682Y-99388964D01*
X149262658Y-99365896D01*
X149262661Y-99365894D01*
X149262666Y-99365894D01*
X149426547Y-99298013D01*
X149574035Y-99199464D01*
X149699464Y-99074035D01*
X149798013Y-98926547D01*
X149865894Y-98762666D01*
X149900500Y-98588691D01*
X149900500Y-98411309D01*
X149900500Y-98411306D01*
X149900499Y-98411304D01*
X149865896Y-98237341D01*
X149865893Y-98237332D01*
X149838812Y-98171952D01*
X149831343Y-98102483D01*
X149862618Y-98040004D01*
X149922707Y-98004352D01*
X149953373Y-98000500D01*
X151598543Y-98000500D01*
X151632777Y-97993689D01*
X151724223Y-97975500D01*
X151791836Y-97962051D01*
X151845165Y-97939961D01*
X151973914Y-97886632D01*
X152137782Y-97777139D01*
X152277139Y-97637782D01*
X152277139Y-97637780D01*
X152287347Y-97627573D01*
X152287348Y-97627570D01*
X153277140Y-96637781D01*
X153386632Y-96473914D01*
X153462052Y-96291835D01*
X153500501Y-96098540D01*
X153500501Y-95901459D01*
X153500501Y-95896349D01*
X153500500Y-95896323D01*
X153500500Y-93901456D01*
X153462052Y-93708170D01*
X153462051Y-93708169D01*
X153462051Y-93708165D01*
X153462049Y-93708160D01*
X153386635Y-93526092D01*
X153386628Y-93526079D01*
X153277139Y-93362218D01*
X153277136Y-93362214D01*
X153137785Y-93222863D01*
X153137781Y-93222860D01*
X152973920Y-93113371D01*
X152973907Y-93113364D01*
X152791839Y-93037950D01*
X152791829Y-93037947D01*
X152598543Y-92999500D01*
X152598541Y-92999500D01*
X152401459Y-92999500D01*
X152401457Y-92999500D01*
X152208170Y-93037947D01*
X152208160Y-93037950D01*
X152026092Y-93113364D01*
X152026079Y-93113371D01*
X151862218Y-93222860D01*
X151862214Y-93222863D01*
X151722863Y-93362214D01*
X151722860Y-93362218D01*
X151613371Y-93526079D01*
X151613364Y-93526092D01*
X151537950Y-93708160D01*
X151537947Y-93708170D01*
X151499500Y-93901456D01*
X151499500Y-95534217D01*
X151479815Y-95601256D01*
X151463181Y-95621898D01*
X151121899Y-95963181D01*
X151060576Y-95996666D01*
X151034218Y-95999500D01*
X143624500Y-95999500D01*
X143557461Y-95979815D01*
X143511706Y-95927011D01*
X143500500Y-95875500D01*
X143500500Y-83104675D01*
X143500501Y-83104654D01*
X143500501Y-82901457D01*
X143500500Y-82901455D01*
X143489785Y-82847586D01*
X143462052Y-82708165D01*
X143386632Y-82526086D01*
X143386631Y-82526085D01*
X143386628Y-82526079D01*
X143277140Y-82362219D01*
X143277137Y-82362215D01*
X142284209Y-81369289D01*
X142284206Y-81369285D01*
X142284206Y-81369286D01*
X142277139Y-81362219D01*
X142277139Y-81362218D01*
X142137782Y-81222861D01*
X142137781Y-81222860D01*
X142137780Y-81222859D01*
X141973920Y-81113371D01*
X141973911Y-81113366D01*
X141901315Y-81083296D01*
X141845165Y-81060038D01*
X141791836Y-81037949D01*
X141791832Y-81037948D01*
X141791828Y-81037946D01*
X141695188Y-81018724D01*
X141598544Y-80999500D01*
X141598541Y-80999500D01*
X126390100Y-80999500D01*
X126323061Y-80979815D01*
X126277306Y-80927011D01*
X126266100Y-80875500D01*
X126266100Y-74268617D01*
X126285785Y-74201578D01*
X126338589Y-74155823D01*
X126390100Y-74144617D01*
X137107359Y-74144617D01*
X137140537Y-74138017D01*
X137204005Y-74125392D01*
X137300653Y-74106168D01*
X137376823Y-74074617D01*
X137482731Y-74030749D01*
X137646599Y-73921256D01*
X137785956Y-73781899D01*
X137785957Y-73781898D01*
X137855956Y-73711899D01*
X137965449Y-73548031D01*
X138026159Y-73401463D01*
X138040868Y-73365953D01*
X138067352Y-73232808D01*
X138079317Y-73172658D01*
X138079317Y-72907083D01*
X138099002Y-72840044D01*
X138151806Y-72794289D01*
X138220964Y-72784345D01*
X138250769Y-72792522D01*
X138365499Y-72840044D01*
X138385320Y-72848254D01*
X138539970Y-72879016D01*
X138539973Y-72879017D01*
X138539975Y-72879017D01*
X138697661Y-72879017D01*
X138697662Y-72879016D01*
X138852314Y-72848254D01*
X138997996Y-72787911D01*
X139092276Y-72724915D01*
X139158953Y-72704037D01*
X139161167Y-72704017D01*
X141850876Y-72704017D01*
X141917915Y-72723702D01*
X141933780Y-72736486D01*
X141933818Y-72736441D01*
X141938528Y-72740306D01*
X142069631Y-72827907D01*
X142069644Y-72827914D01*
X142203657Y-72883423D01*
X142215320Y-72888254D01*
X142369970Y-72919016D01*
X142369973Y-72919017D01*
X142369975Y-72919017D01*
X142527661Y-72919017D01*
X142527662Y-72919016D01*
X142682314Y-72888254D01*
X142827996Y-72827911D01*
X142959106Y-72740306D01*
X143070606Y-72628806D01*
X143158211Y-72497696D01*
X143218554Y-72352014D01*
X143249317Y-72197359D01*
X143249317Y-72039675D01*
X143249317Y-72039672D01*
X143249316Y-72039670D01*
X143218555Y-71885027D01*
X143218554Y-71885020D01*
X143218552Y-71885015D01*
X143158214Y-71739344D01*
X143158207Y-71739331D01*
X143070606Y-71608228D01*
X143070603Y-71608224D01*
X143033577Y-71571198D01*
X143000092Y-71509875D01*
X143005076Y-71440183D01*
X143033577Y-71395836D01*
X143070603Y-71358809D01*
X143070606Y-71358806D01*
X143158211Y-71227696D01*
X143165577Y-71209914D01*
X143175891Y-71185013D01*
X143218554Y-71082014D01*
X143249317Y-70927359D01*
X143249317Y-70769675D01*
X143249317Y-70769672D01*
X143249316Y-70769670D01*
X143218555Y-70615027D01*
X143218554Y-70615020D01*
X143192489Y-70552093D01*
X143158214Y-70469344D01*
X143158207Y-70469331D01*
X143070606Y-70338228D01*
X143070603Y-70338224D01*
X142959109Y-70226730D01*
X142959105Y-70226727D01*
X142828002Y-70139126D01*
X142827989Y-70139119D01*
X142682318Y-70078781D01*
X142682306Y-70078778D01*
X142527662Y-70048017D01*
X142527659Y-70048017D01*
X142369975Y-70048017D01*
X142369972Y-70048017D01*
X142215327Y-70078778D01*
X142215315Y-70078781D01*
X142069644Y-70139119D01*
X142069631Y-70139126D01*
X141933463Y-70230112D01*
X141932356Y-70228455D01*
X141876469Y-70252185D01*
X141862126Y-70253017D01*
X139361167Y-70253017D01*
X139294128Y-70233332D01*
X139292276Y-70232119D01*
X139198001Y-70169126D01*
X139197989Y-70169119D01*
X139052318Y-70108781D01*
X139052306Y-70108778D01*
X138897662Y-70078017D01*
X138897659Y-70078017D01*
X138739975Y-70078017D01*
X138739972Y-70078017D01*
X138585327Y-70108778D01*
X138585315Y-70108781D01*
X138439644Y-70169119D01*
X138439631Y-70169126D01*
X138308528Y-70256727D01*
X138308524Y-70256730D01*
X138290998Y-70274257D01*
X138229675Y-70307742D01*
X138159983Y-70302758D01*
X138104050Y-70260886D01*
X138079633Y-70195422D01*
X138079317Y-70186576D01*
X138079317Y-67786965D01*
X138099002Y-67719926D01*
X138115636Y-67699284D01*
X141099585Y-64715336D01*
X141160908Y-64681851D01*
X141187266Y-64679017D01*
X147932960Y-64679017D01*
X148068473Y-64652061D01*
X148126252Y-64640568D01*
X148243574Y-64591972D01*
X148301048Y-64568166D01*
X148370517Y-64560697D01*
X148432996Y-64591972D01*
X148468648Y-64652061D01*
X148472500Y-64682727D01*
X148472500Y-66390759D01*
X148452815Y-66457798D01*
X148400011Y-66503553D01*
X148330853Y-66513497D01*
X148267297Y-66484472D01*
X148260819Y-66478440D01*
X148199109Y-66416730D01*
X148199105Y-66416727D01*
X148068002Y-66329126D01*
X148067989Y-66329119D01*
X147922318Y-66268781D01*
X147922306Y-66268778D01*
X147767662Y-66238017D01*
X147767659Y-66238017D01*
X147609975Y-66238017D01*
X147609972Y-66238017D01*
X147455327Y-66268778D01*
X147455315Y-66268781D01*
X147309644Y-66329119D01*
X147309632Y-66329126D01*
X147215358Y-66392119D01*
X147148681Y-66412997D01*
X147146467Y-66413017D01*
X145697206Y-66413017D01*
X145636788Y-66425035D01*
X145593560Y-66433633D01*
X145576363Y-66437054D01*
X145462533Y-66484204D01*
X145372980Y-66544041D01*
X145372981Y-66544042D01*
X145360084Y-66552659D01*
X145209228Y-66703514D01*
X145147904Y-66736998D01*
X145078213Y-66732013D01*
X145022279Y-66690142D01*
X145018459Y-66684744D01*
X144940606Y-66568228D01*
X144940604Y-66568225D01*
X144829109Y-66456730D01*
X144829105Y-66456727D01*
X144698002Y-66369126D01*
X144697989Y-66369119D01*
X144552318Y-66308781D01*
X144552306Y-66308778D01*
X144397662Y-66278017D01*
X144397659Y-66278017D01*
X144239975Y-66278017D01*
X144239972Y-66278017D01*
X144085327Y-66308778D01*
X144085315Y-66308781D01*
X143939644Y-66369119D01*
X143939631Y-66369126D01*
X143808528Y-66456727D01*
X143808524Y-66456730D01*
X143697030Y-66568224D01*
X143697027Y-66568228D01*
X143609426Y-66699331D01*
X143609419Y-66699344D01*
X143549081Y-66845015D01*
X143549078Y-66845027D01*
X143518317Y-66999670D01*
X143518317Y-67157363D01*
X143549078Y-67312006D01*
X143549081Y-67312018D01*
X143609419Y-67457689D01*
X143609426Y-67457702D01*
X143697027Y-67588805D01*
X143697030Y-67588809D01*
X143808524Y-67700303D01*
X143808528Y-67700306D01*
X143939631Y-67787907D01*
X143939638Y-67787911D01*
X144065771Y-67840156D01*
X144120172Y-67883995D01*
X144142238Y-67950289D01*
X144142317Y-67954716D01*
X144142317Y-74919993D01*
X144122632Y-74987032D01*
X144069828Y-75032787D01*
X144049631Y-75039309D01*
X144049710Y-75039569D01*
X144043873Y-75041339D01*
X143898202Y-75101677D01*
X143898189Y-75101684D01*
X143767086Y-75189285D01*
X143767082Y-75189288D01*
X143655588Y-75300782D01*
X143655585Y-75300786D01*
X143567984Y-75431889D01*
X143567977Y-75431902D01*
X143507639Y-75577573D01*
X143507636Y-75577585D01*
X143476875Y-75732228D01*
X143476875Y-75889921D01*
X143507636Y-76044564D01*
X143507639Y-76044576D01*
X143567977Y-76190247D01*
X143567984Y-76190260D01*
X143655585Y-76321363D01*
X143655588Y-76321367D01*
X143767082Y-76432861D01*
X143767086Y-76432864D01*
X143898189Y-76520465D01*
X143898202Y-76520472D01*
X144033201Y-76576390D01*
X144087605Y-76620231D01*
X144109670Y-76686525D01*
X144100312Y-76738399D01*
X144091230Y-76760326D01*
X144091227Y-76760337D01*
X144060466Y-76914980D01*
X144060466Y-77072673D01*
X144091227Y-77227316D01*
X144091230Y-77227328D01*
X144151568Y-77372999D01*
X144151575Y-77373012D01*
X144239176Y-77504115D01*
X144239179Y-77504119D01*
X144350673Y-77615613D01*
X144350677Y-77615616D01*
X144398241Y-77647398D01*
X144443046Y-77701011D01*
X144451753Y-77770336D01*
X144421598Y-77833363D01*
X144362155Y-77870082D01*
X144329350Y-77874500D01*
X134987741Y-77874500D01*
X134987721Y-77874499D01*
X134981607Y-77874499D01*
X134858394Y-77874499D01*
X134757597Y-77894548D01*
X134757592Y-77894548D01*
X134737549Y-77898536D01*
X134737547Y-77898536D01*
X134690397Y-77918067D01*
X134623719Y-77945685D01*
X134623717Y-77945686D01*
X134521266Y-78014141D01*
X134521263Y-78014144D01*
X133861203Y-78674205D01*
X133799880Y-78707690D01*
X133797714Y-78708141D01*
X133686508Y-78730261D01*
X133686498Y-78730264D01*
X133540827Y-78790602D01*
X133540814Y-78790609D01*
X133409711Y-78878210D01*
X133409707Y-78878213D01*
X133298213Y-78989707D01*
X133298210Y-78989711D01*
X133210609Y-79120814D01*
X133210602Y-79120827D01*
X133150264Y-79266498D01*
X133150261Y-79266510D01*
X133119500Y-79421153D01*
X133119500Y-79578846D01*
X133150261Y-79733489D01*
X133150264Y-79733501D01*
X133210602Y-79879172D01*
X133210609Y-79879185D01*
X133298210Y-80010288D01*
X133298213Y-80010292D01*
X133409707Y-80121786D01*
X133409711Y-80121789D01*
X133540814Y-80209390D01*
X133540827Y-80209397D01*
X133686498Y-80269735D01*
X133686503Y-80269737D01*
X133841153Y-80300499D01*
X133841156Y-80300500D01*
X133841158Y-80300500D01*
X133998844Y-80300500D01*
X133998845Y-80300499D01*
X134153497Y-80269737D01*
X134299179Y-80209394D01*
X134430289Y-80121789D01*
X134541789Y-80010289D01*
X134629394Y-79879179D01*
X134689737Y-79733497D01*
X134711858Y-79622282D01*
X134744240Y-79560375D01*
X134745675Y-79558913D01*
X135142773Y-79161816D01*
X135204095Y-79128334D01*
X135230453Y-79125500D01*
X138107216Y-79125500D01*
X138174255Y-79145185D01*
X138220010Y-79197989D01*
X138229954Y-79267147D01*
X138228833Y-79273692D01*
X138199500Y-79421155D01*
X138199500Y-79578846D01*
X138230261Y-79733489D01*
X138230264Y-79733501D01*
X138290602Y-79879172D01*
X138290609Y-79879185D01*
X138378210Y-80010288D01*
X138378213Y-80010292D01*
X138489707Y-80121786D01*
X138489711Y-80121789D01*
X138620814Y-80209390D01*
X138620827Y-80209397D01*
X138766498Y-80269735D01*
X138766503Y-80269737D01*
X138921153Y-80300499D01*
X138921156Y-80300500D01*
X138921158Y-80300500D01*
X139078844Y-80300500D01*
X139078845Y-80300499D01*
X139233497Y-80269737D01*
X139379179Y-80209394D01*
X139510289Y-80121789D01*
X139553236Y-80078842D01*
X139596260Y-80035819D01*
X139657583Y-80002334D01*
X139683941Y-79999500D01*
X141081954Y-79999500D01*
X141148993Y-80019185D01*
X141194748Y-80071989D01*
X141203571Y-80099309D01*
X141230261Y-80233489D01*
X141230264Y-80233501D01*
X141290602Y-80379172D01*
X141290609Y-80379185D01*
X141378210Y-80510288D01*
X141378213Y-80510292D01*
X141489707Y-80621786D01*
X141489711Y-80621789D01*
X141620814Y-80709390D01*
X141620827Y-80709397D01*
X141766498Y-80769735D01*
X141766503Y-80769737D01*
X141921153Y-80800499D01*
X141921156Y-80800500D01*
X141921158Y-80800500D01*
X142078844Y-80800500D01*
X142078845Y-80800499D01*
X142233497Y-80769737D01*
X142379179Y-80709394D01*
X142473459Y-80646398D01*
X142540136Y-80625520D01*
X142542350Y-80625500D01*
X146061607Y-80625500D01*
X146122029Y-80613481D01*
X146182452Y-80601463D01*
X146215792Y-80587652D01*
X146296286Y-80554312D01*
X146362169Y-80510289D01*
X146398733Y-80485858D01*
X146485858Y-80398733D01*
X146485859Y-80398731D01*
X146492925Y-80391665D01*
X146492928Y-80391661D01*
X148087546Y-78797043D01*
X148087550Y-78797041D01*
X148174675Y-78709916D01*
X148243128Y-78607469D01*
X148243129Y-78607468D01*
X148243130Y-78607465D01*
X148243132Y-78607462D01*
X148253489Y-78582455D01*
X148290280Y-78493634D01*
X148314317Y-78372790D01*
X148314317Y-78249576D01*
X148314317Y-74138017D01*
X148334002Y-74070978D01*
X148386806Y-74025223D01*
X148438317Y-74014017D01*
X149473090Y-74014017D01*
X149533512Y-74001998D01*
X149593935Y-73989980D01*
X149631024Y-73974617D01*
X149707769Y-73942829D01*
X149773652Y-73898806D01*
X149810216Y-73874375D01*
X149897341Y-73787250D01*
X149897342Y-73787247D01*
X150485858Y-73198733D01*
X150520319Y-73147158D01*
X150554313Y-73096284D01*
X150601461Y-72982455D01*
X150601463Y-72982451D01*
X150611505Y-72931968D01*
X150625500Y-72861606D01*
X150625500Y-59510452D01*
X150634144Y-59481011D01*
X150640668Y-59451025D01*
X150644422Y-59446009D01*
X150645185Y-59443413D01*
X150661819Y-59422771D01*
X150822771Y-59261819D01*
X150884094Y-59228334D01*
X150910452Y-59225500D01*
X153061607Y-59225500D01*
X153122029Y-59213481D01*
X153182452Y-59201463D01*
X153215792Y-59187652D01*
X153296286Y-59154312D01*
X153347509Y-59120084D01*
X153398733Y-59085858D01*
X153485858Y-58998733D01*
X153485859Y-58998731D01*
X153492925Y-58991665D01*
X153492928Y-58991661D01*
X153611808Y-58872781D01*
X155614500Y-58872781D01*
X155614500Y-59047218D01*
X155648527Y-59218283D01*
X155648529Y-59218291D01*
X155715278Y-59379439D01*
X155715283Y-59379448D01*
X155812186Y-59524473D01*
X155812189Y-59524477D01*
X155935522Y-59647810D01*
X155935526Y-59647813D01*
X156080551Y-59744716D01*
X156080557Y-59744719D01*
X156080558Y-59744720D01*
X156241709Y-59811471D01*
X156412781Y-59845499D01*
X156412785Y-59845500D01*
X156412786Y-59845500D01*
X156587215Y-59845500D01*
X156587216Y-59845499D01*
X156758291Y-59811471D01*
X156919442Y-59744720D01*
X157064474Y-59647813D01*
X157187813Y-59524474D01*
X157284720Y-59379442D01*
X157351471Y-59218291D01*
X157385500Y-59047214D01*
X157385500Y-58872786D01*
X157351471Y-58701709D01*
X157284720Y-58540558D01*
X157284719Y-58540557D01*
X157284716Y-58540551D01*
X157187813Y-58395526D01*
X157187810Y-58395522D01*
X157064477Y-58272189D01*
X157064473Y-58272186D01*
X156919448Y-58175283D01*
X156919439Y-58175278D01*
X156758291Y-58108529D01*
X156758283Y-58108527D01*
X156587218Y-58074500D01*
X156587214Y-58074500D01*
X156412786Y-58074500D01*
X156412781Y-58074500D01*
X156241716Y-58108527D01*
X156241708Y-58108529D01*
X156080560Y-58175278D01*
X156080551Y-58175283D01*
X155935526Y-58272186D01*
X155935522Y-58272189D01*
X155812189Y-58395522D01*
X155812186Y-58395526D01*
X155715283Y-58540551D01*
X155715278Y-58540560D01*
X155648529Y-58701708D01*
X155648527Y-58701716D01*
X155614500Y-58872781D01*
X153611808Y-58872781D01*
X153898729Y-58585860D01*
X153898733Y-58585858D01*
X153937775Y-58546816D01*
X153970577Y-58528906D01*
X153999095Y-58513334D01*
X153999097Y-58513333D01*
X153999102Y-58513333D01*
X154025453Y-58510500D01*
X154050003Y-58510500D01*
X154050008Y-58510500D01*
X154152797Y-58499999D01*
X154319334Y-58444814D01*
X154468655Y-58352711D01*
X154592711Y-58228655D01*
X154684814Y-58079334D01*
X154739999Y-57912797D01*
X154743481Y-57878711D01*
X164649500Y-57878711D01*
X164649500Y-58121288D01*
X164681161Y-58361785D01*
X164743947Y-58596104D01*
X164787693Y-58701716D01*
X164836776Y-58820212D01*
X164958064Y-59030289D01*
X164958066Y-59030292D01*
X164958067Y-59030293D01*
X165105733Y-59222736D01*
X165105739Y-59222743D01*
X165277256Y-59394260D01*
X165277262Y-59394265D01*
X165469711Y-59541936D01*
X165679788Y-59663224D01*
X165903900Y-59756054D01*
X166138211Y-59818838D01*
X166318586Y-59842584D01*
X166378711Y-59850500D01*
X166378712Y-59850500D01*
X166621289Y-59850500D01*
X166669388Y-59844167D01*
X166861789Y-59818838D01*
X167096100Y-59756054D01*
X167320212Y-59663224D01*
X167530289Y-59541936D01*
X167722738Y-59394265D01*
X167894265Y-59222738D01*
X168041936Y-59030289D01*
X168163224Y-58820212D01*
X168256054Y-58596100D01*
X168318838Y-58361789D01*
X168350500Y-58121288D01*
X168350500Y-57878712D01*
X168348306Y-57862050D01*
X168318838Y-57638214D01*
X168318838Y-57638211D01*
X168256054Y-57403900D01*
X168163224Y-57179788D01*
X168041936Y-56969711D01*
X167894265Y-56777262D01*
X167894260Y-56777256D01*
X167722743Y-56605739D01*
X167722736Y-56605733D01*
X167530293Y-56458067D01*
X167530292Y-56458066D01*
X167530289Y-56458064D01*
X167320212Y-56336776D01*
X167320205Y-56336773D01*
X167096104Y-56243947D01*
X166861785Y-56181161D01*
X166621289Y-56149500D01*
X166621288Y-56149500D01*
X166378712Y-56149500D01*
X166378711Y-56149500D01*
X166138214Y-56181161D01*
X165903895Y-56243947D01*
X165679794Y-56336773D01*
X165679785Y-56336777D01*
X165469706Y-56458067D01*
X165277263Y-56605733D01*
X165277256Y-56605739D01*
X165105739Y-56777256D01*
X165105733Y-56777263D01*
X164958067Y-56969706D01*
X164836777Y-57179785D01*
X164836773Y-57179794D01*
X164743947Y-57403895D01*
X164681161Y-57638214D01*
X164649500Y-57878711D01*
X154743481Y-57878711D01*
X154750500Y-57810008D01*
X154750500Y-56189992D01*
X154739999Y-56087203D01*
X154684814Y-55920666D01*
X154601856Y-55786172D01*
X154592713Y-55771348D01*
X154592710Y-55771344D01*
X154468655Y-55647289D01*
X154468651Y-55647286D01*
X154319337Y-55555187D01*
X154319335Y-55555186D01*
X154214025Y-55520290D01*
X154152797Y-55500001D01*
X154152795Y-55500000D01*
X154050015Y-55489500D01*
X154050008Y-55489500D01*
X152949992Y-55489500D01*
X152949984Y-55489500D01*
X152847204Y-55500000D01*
X152847203Y-55500001D01*
X152680664Y-55555186D01*
X152680662Y-55555187D01*
X152531348Y-55647286D01*
X152531344Y-55647289D01*
X152407289Y-55771344D01*
X152407286Y-55771348D01*
X152315187Y-55920662D01*
X152315186Y-55920664D01*
X152260001Y-56087203D01*
X152260000Y-56087204D01*
X152249500Y-56189984D01*
X152249500Y-57810017D01*
X152252349Y-57837898D01*
X152239580Y-57906591D01*
X152191699Y-57957475D01*
X152128991Y-57974500D01*
X151741763Y-57974500D01*
X151674724Y-57954815D01*
X151628969Y-57902011D01*
X151619025Y-57832853D01*
X151631278Y-57794205D01*
X151658882Y-57740029D01*
X151658882Y-57740028D01*
X151658884Y-57740025D01*
X151719709Y-57552826D01*
X151719710Y-57552822D01*
X151750500Y-57358422D01*
X151750500Y-56641577D01*
X151719709Y-56447173D01*
X151658882Y-56259970D01*
X151611743Y-56167455D01*
X151569524Y-56084595D01*
X151453828Y-55925354D01*
X151314646Y-55786172D01*
X151155405Y-55670476D01*
X151109892Y-55647286D01*
X150980029Y-55581117D01*
X150792826Y-55520290D01*
X150598422Y-55489500D01*
X150598417Y-55489500D01*
X150401583Y-55489500D01*
X150401578Y-55489500D01*
X150207173Y-55520290D01*
X150019970Y-55581117D01*
X149844594Y-55670476D01*
X149753741Y-55736485D01*
X149685354Y-55786172D01*
X149685352Y-55786174D01*
X149685351Y-55786174D01*
X149546174Y-55925351D01*
X149546174Y-55925352D01*
X149546172Y-55925354D01*
X149496485Y-55993741D01*
X149430476Y-56084594D01*
X149341117Y-56259970D01*
X149280290Y-56447173D01*
X149249500Y-56641577D01*
X149249500Y-57358422D01*
X149280290Y-57552826D01*
X149341117Y-57740029D01*
X149430476Y-57915405D01*
X149502686Y-58014793D01*
X149514140Y-58046895D01*
X149526052Y-58078832D01*
X149525856Y-58079731D01*
X149526166Y-58080600D01*
X149518443Y-58113811D01*
X149511201Y-58147105D01*
X149510475Y-58148073D01*
X149510341Y-58148654D01*
X149490050Y-58175360D01*
X149412679Y-58252730D01*
X149351359Y-58286214D01*
X149281667Y-58281230D01*
X149237319Y-58252729D01*
X148728734Y-57744144D01*
X148695249Y-57682821D01*
X148698484Y-57618145D01*
X148719709Y-57552826D01*
X148733393Y-57466422D01*
X148750500Y-57358422D01*
X148750500Y-56641577D01*
X148719709Y-56447173D01*
X148658882Y-56259970D01*
X148611743Y-56167455D01*
X148569524Y-56084595D01*
X148453828Y-55925354D01*
X148314646Y-55786172D01*
X148155405Y-55670476D01*
X148109892Y-55647286D01*
X147980029Y-55581117D01*
X147792826Y-55520290D01*
X147598422Y-55489500D01*
X147598417Y-55489500D01*
X147401583Y-55489500D01*
X147401578Y-55489500D01*
X147207173Y-55520290D01*
X147019970Y-55581117D01*
X146844594Y-55670476D01*
X146753741Y-55736485D01*
X146685354Y-55786172D01*
X146685352Y-55786174D01*
X146685351Y-55786174D01*
X146546174Y-55925351D01*
X146546174Y-55925352D01*
X146546172Y-55925354D01*
X146496485Y-55993741D01*
X146430476Y-56084594D01*
X146341117Y-56259970D01*
X146280290Y-56447173D01*
X146249500Y-56641577D01*
X146249500Y-57358422D01*
X146280290Y-57552826D01*
X146341117Y-57740029D01*
X146411780Y-57878712D01*
X146430476Y-57915405D01*
X146546172Y-58074646D01*
X146685354Y-58213828D01*
X146844595Y-58329524D01*
X146907911Y-58361785D01*
X147019970Y-58418882D01*
X147019972Y-58418882D01*
X147019975Y-58418884D01*
X147099773Y-58444812D01*
X147207173Y-58479709D01*
X147401578Y-58510500D01*
X147401583Y-58510500D01*
X147598414Y-58510500D01*
X147598417Y-58510500D01*
X147646076Y-58502951D01*
X147715366Y-58511905D01*
X147753153Y-58537743D01*
X148436181Y-59220771D01*
X148469666Y-59282094D01*
X148472500Y-59308452D01*
X148472500Y-62674306D01*
X148452815Y-62741345D01*
X148400011Y-62787100D01*
X148330853Y-62797044D01*
X148301048Y-62788867D01*
X148126256Y-62716467D01*
X148126246Y-62716464D01*
X147932960Y-62678017D01*
X147932958Y-62678017D01*
X140622942Y-62678017D01*
X140622940Y-62678017D01*
X140619186Y-62678764D01*
X140619179Y-62678765D01*
X140429655Y-62716463D01*
X140429647Y-62716465D01*
X140247571Y-62791883D01*
X140247562Y-62791888D01*
X140083702Y-62901376D01*
X140083698Y-62901379D01*
X138073892Y-64911186D01*
X138012569Y-64944671D01*
X137942877Y-64939687D01*
X137886944Y-64897815D01*
X137864594Y-64847696D01*
X137830289Y-64675232D01*
X137830288Y-64675226D01*
X137763537Y-64514075D01*
X137763536Y-64514074D01*
X137763533Y-64514068D01*
X137666630Y-64369043D01*
X137666627Y-64369039D01*
X137543294Y-64245706D01*
X137543290Y-64245703D01*
X137398265Y-64148800D01*
X137398256Y-64148795D01*
X137237108Y-64082046D01*
X137237100Y-64082044D01*
X137066035Y-64048017D01*
X137066031Y-64048017D01*
X136891603Y-64048017D01*
X136891598Y-64048017D01*
X136720533Y-64082044D01*
X136720525Y-64082046D01*
X136559377Y-64148795D01*
X136559368Y-64148800D01*
X136414343Y-64245703D01*
X136414339Y-64245706D01*
X136291006Y-64369039D01*
X136291003Y-64369043D01*
X136194100Y-64514068D01*
X136194095Y-64514077D01*
X136127346Y-64675225D01*
X136127344Y-64675233D01*
X136093317Y-64846298D01*
X136093317Y-65020735D01*
X136127344Y-65191800D01*
X136127346Y-65191808D01*
X136194095Y-65352956D01*
X136194100Y-65352965D01*
X136291003Y-65497990D01*
X136291006Y-65497994D01*
X136414339Y-65621327D01*
X136414343Y-65621330D01*
X136559368Y-65718233D01*
X136559374Y-65718236D01*
X136559375Y-65718237D01*
X136720526Y-65784988D01*
X136891603Y-65819017D01*
X136892996Y-65819294D01*
X136954907Y-65851678D01*
X136989481Y-65912394D01*
X136985742Y-65982163D01*
X136956486Y-66028592D01*
X136676301Y-66308778D01*
X136441037Y-66544042D01*
X136441035Y-66544044D01*
X136371355Y-66613723D01*
X136301676Y-66683402D01*
X136192188Y-66847262D01*
X136192181Y-66847275D01*
X136150578Y-66947714D01*
X136150573Y-66947728D01*
X136148383Y-66953017D01*
X136116766Y-67029347D01*
X136102688Y-67100123D01*
X136101430Y-67106443D01*
X136101429Y-67106449D01*
X136078317Y-67222639D01*
X136078317Y-72019617D01*
X136058632Y-72086656D01*
X136005828Y-72132411D01*
X135954317Y-72143617D01*
X125380273Y-72143617D01*
X125186988Y-72182064D01*
X125186980Y-72182066D01*
X125150061Y-72197359D01*
X125150060Y-72197359D01*
X125004909Y-72257481D01*
X125004897Y-72257488D01*
X124923295Y-72312014D01*
X124923294Y-72312015D01*
X124841032Y-72366979D01*
X124488460Y-72719551D01*
X124378971Y-72883414D01*
X124378966Y-72883423D01*
X124339342Y-72979085D01*
X124339338Y-72979094D01*
X124337948Y-72982452D01*
X124303549Y-73065498D01*
X124297425Y-73096285D01*
X124295756Y-73104676D01*
X124265100Y-73258790D01*
X124265100Y-81058000D01*
X124245415Y-81125039D01*
X124192611Y-81170794D01*
X124141100Y-81182000D01*
X118303957Y-81182000D01*
X118110670Y-81220447D01*
X118110660Y-81220450D01*
X117928592Y-81295864D01*
X117928579Y-81295871D01*
X117759653Y-81408745D01*
X117758632Y-81407217D01*
X117702245Y-81431166D01*
X117687890Y-81432000D01*
X116544730Y-81432000D01*
X116477691Y-81412315D01*
X116457049Y-81395681D01*
X116211819Y-81150451D01*
X116178334Y-81089128D01*
X116175500Y-81062770D01*
X116175500Y-76826079D01*
X116146659Y-76681092D01*
X116146658Y-76681091D01*
X116146658Y-76681087D01*
X116119138Y-76614648D01*
X116090087Y-76544511D01*
X116090080Y-76544498D01*
X116007952Y-76421585D01*
X116007951Y-76421584D01*
X115903416Y-76317049D01*
X115776614Y-76190247D01*
X115233421Y-75647052D01*
X115233420Y-75647051D01*
X115149718Y-75591124D01*
X115149717Y-75591123D01*
X115110500Y-75564919D01*
X115110488Y-75564912D01*
X114973917Y-75508343D01*
X114973907Y-75508340D01*
X114828920Y-75479500D01*
X114828918Y-75479500D01*
X113300270Y-75479500D01*
X113233231Y-75459815D01*
X113231378Y-75458601D01*
X113191552Y-75431989D01*
X113191547Y-75431987D01*
X113027667Y-75364106D01*
X113027658Y-75364103D01*
X112853694Y-75329500D01*
X112853691Y-75329500D01*
X112676309Y-75329500D01*
X112676306Y-75329500D01*
X112502341Y-75364103D01*
X112502332Y-75364106D01*
X112338459Y-75431983D01*
X112338446Y-75431990D01*
X112190965Y-75530535D01*
X112190961Y-75530538D01*
X112065538Y-75655961D01*
X112065535Y-75655965D01*
X111966990Y-75803446D01*
X111966983Y-75803459D01*
X111899106Y-75967332D01*
X111899103Y-75967341D01*
X111864500Y-76141304D01*
X111864500Y-76318695D01*
X111899103Y-76492658D01*
X111899106Y-76492667D01*
X111966983Y-76656540D01*
X111966990Y-76656553D01*
X112065535Y-76804034D01*
X112065538Y-76804038D01*
X112190961Y-76929461D01*
X112190965Y-76929464D01*
X112338446Y-77028009D01*
X112338459Y-77028016D01*
X112446263Y-77072669D01*
X112502334Y-77095894D01*
X112502336Y-77095894D01*
X112502341Y-77095896D01*
X112676304Y-77130499D01*
X112676307Y-77130500D01*
X112676309Y-77130500D01*
X112853693Y-77130500D01*
X112853694Y-77130499D01*
X112911682Y-77118964D01*
X113027658Y-77095896D01*
X113027661Y-77095894D01*
X113027666Y-77095894D01*
X113191547Y-77028013D01*
X113191550Y-77028010D01*
X113191552Y-77028010D01*
X113231378Y-77001399D01*
X113298055Y-76980520D01*
X113300270Y-76980500D01*
X114392770Y-76980500D01*
X114422210Y-76989144D01*
X114452197Y-76995668D01*
X114457212Y-76999422D01*
X114459809Y-77000185D01*
X114480446Y-77016814D01*
X114638182Y-77174549D01*
X114671666Y-77235871D01*
X114674500Y-77262229D01*
X114674500Y-81498918D01*
X114674500Y-81498920D01*
X114674499Y-81498920D01*
X114703340Y-81643907D01*
X114703343Y-81643917D01*
X114759912Y-81780488D01*
X114759920Y-81780503D01*
X114790991Y-81827002D01*
X114790992Y-81827005D01*
X114790993Y-81827005D01*
X114842049Y-81903417D01*
X115704086Y-82765454D01*
X115733558Y-82785145D01*
X115777770Y-82814686D01*
X115827005Y-82847584D01*
X115827006Y-82847584D01*
X115827007Y-82847585D01*
X115827009Y-82847586D01*
X115957061Y-82901455D01*
X115963587Y-82904158D01*
X115963591Y-82904158D01*
X115963592Y-82904159D01*
X116108579Y-82933000D01*
X116108582Y-82933000D01*
X116108583Y-82933000D01*
X116256418Y-82933000D01*
X117278000Y-82933000D01*
X117345039Y-82952685D01*
X117390794Y-83005489D01*
X117402000Y-83057000D01*
X117402000Y-100731718D01*
X117382315Y-100798757D01*
X117365681Y-100819399D01*
X117021899Y-101163181D01*
X116960576Y-101196666D01*
X116934218Y-101199500D01*
X114101455Y-101199500D01*
X114004812Y-101218724D01*
X113908167Y-101237947D01*
X113908161Y-101237949D01*
X113854834Y-101260037D01*
X113854834Y-101260038D01*
X113809315Y-101278892D01*
X113726089Y-101313366D01*
X113726079Y-101313371D01*
X113562219Y-101422859D01*
X113562218Y-101422861D01*
X112362220Y-102622859D01*
X112362218Y-102622861D01*
X112311168Y-102673911D01*
X112222859Y-102762219D01*
X112113371Y-102926079D01*
X112113364Y-102926091D01*
X112071947Y-103026085D01*
X112071947Y-103026086D01*
X112046869Y-103086631D01*
X112046869Y-103086632D01*
X112046868Y-103086634D01*
X112037950Y-103108160D01*
X112037947Y-103108169D01*
X111999500Y-103301456D01*
X111999500Y-106250249D01*
X111979815Y-106317288D01*
X111949812Y-106349515D01*
X111892457Y-106392451D01*
X111892451Y-106392457D01*
X111806206Y-106507664D01*
X111806202Y-106507671D01*
X111755908Y-106642517D01*
X111751142Y-106686853D01*
X111749501Y-106702123D01*
X111749500Y-106702135D01*
X111500000Y-106702135D01*
X111500000Y-64846298D01*
X115093317Y-64846298D01*
X115093317Y-65020735D01*
X115127344Y-65191800D01*
X115127346Y-65191808D01*
X115194095Y-65352956D01*
X115194100Y-65352965D01*
X115291003Y-65497990D01*
X115291006Y-65497994D01*
X115414339Y-65621327D01*
X115414343Y-65621330D01*
X115559368Y-65718233D01*
X115559374Y-65718236D01*
X115559375Y-65718237D01*
X115720526Y-65784988D01*
X115891598Y-65819016D01*
X115891602Y-65819017D01*
X115891603Y-65819017D01*
X116066032Y-65819017D01*
X116066033Y-65819016D01*
X116237108Y-65784988D01*
X116398259Y-65718237D01*
X116543291Y-65621330D01*
X116666630Y-65497991D01*
X116763537Y-65352959D01*
X116830288Y-65191808D01*
X116864317Y-65020731D01*
X116864317Y-64846303D01*
X116830288Y-64675226D01*
X116763537Y-64514075D01*
X116763536Y-64514074D01*
X116763533Y-64514068D01*
X116666630Y-64369043D01*
X116666627Y-64369039D01*
X116543294Y-64245706D01*
X116543290Y-64245703D01*
X116398265Y-64148800D01*
X116398256Y-64148795D01*
X116237108Y-64082046D01*
X116237100Y-64082044D01*
X116066035Y-64048017D01*
X116066031Y-64048017D01*
X115891603Y-64048017D01*
X115891598Y-64048017D01*
X115720533Y-64082044D01*
X115720525Y-64082046D01*
X115559377Y-64148795D01*
X115559368Y-64148800D01*
X115414343Y-64245703D01*
X115414339Y-64245706D01*
X115291006Y-64369039D01*
X115291003Y-64369043D01*
X115194100Y-64514068D01*
X115194095Y-64514077D01*
X115127346Y-64675225D01*
X115127344Y-64675233D01*
X115093317Y-64846298D01*
X111500000Y-64846298D01*
X111500000Y-62615094D01*
X117728317Y-62615094D01*
X117728317Y-63331939D01*
X117759107Y-63526343D01*
X117819934Y-63713546D01*
X117855594Y-63783532D01*
X117909293Y-63888922D01*
X118024989Y-64048163D01*
X118164171Y-64187345D01*
X118323412Y-64303041D01*
X118406272Y-64345260D01*
X118498787Y-64392399D01*
X118498789Y-64392399D01*
X118498792Y-64392401D01*
X118578590Y-64418329D01*
X118685990Y-64453226D01*
X118880395Y-64484017D01*
X118880400Y-64484017D01*
X119077239Y-64484017D01*
X119271643Y-64453226D01*
X119458842Y-64392401D01*
X119634222Y-64303041D01*
X119793463Y-64187345D01*
X119932645Y-64048163D01*
X120048341Y-63888922D01*
X120137701Y-63713542D01*
X120198526Y-63526343D01*
X120229317Y-63331939D01*
X120229317Y-62615094D01*
X120728317Y-62615094D01*
X120728317Y-63331939D01*
X120759107Y-63526343D01*
X120819934Y-63713546D01*
X120855594Y-63783532D01*
X120909293Y-63888922D01*
X121024989Y-64048163D01*
X121164171Y-64187345D01*
X121323412Y-64303041D01*
X121406272Y-64345260D01*
X121498787Y-64392399D01*
X121498789Y-64392399D01*
X121498792Y-64392401D01*
X121578590Y-64418329D01*
X121685990Y-64453226D01*
X121880395Y-64484017D01*
X121880400Y-64484017D01*
X122077239Y-64484017D01*
X122271643Y-64453226D01*
X122458842Y-64392401D01*
X122634222Y-64303041D01*
X122793463Y-64187345D01*
X122932645Y-64048163D01*
X123048341Y-63888922D01*
X123137701Y-63713542D01*
X123198526Y-63526343D01*
X123229317Y-63331939D01*
X123229317Y-62615094D01*
X123728317Y-62615094D01*
X123728317Y-63331939D01*
X123759107Y-63526343D01*
X123819934Y-63713546D01*
X123855594Y-63783532D01*
X123909293Y-63888922D01*
X124024989Y-64048163D01*
X124164171Y-64187345D01*
X124323412Y-64303041D01*
X124406272Y-64345260D01*
X124498787Y-64392399D01*
X124498789Y-64392399D01*
X124498792Y-64392401D01*
X124578590Y-64418329D01*
X124685990Y-64453226D01*
X124880395Y-64484017D01*
X124880400Y-64484017D01*
X125077239Y-64484017D01*
X125271643Y-64453226D01*
X125458842Y-64392401D01*
X125634222Y-64303041D01*
X125793463Y-64187345D01*
X125932645Y-64048163D01*
X126048341Y-63888922D01*
X126137701Y-63713542D01*
X126198526Y-63526343D01*
X126229317Y-63331939D01*
X126229317Y-62615094D01*
X126728317Y-62615094D01*
X126728317Y-63331939D01*
X126759107Y-63526343D01*
X126819934Y-63713546D01*
X126855594Y-63783532D01*
X126909293Y-63888922D01*
X127024989Y-64048163D01*
X127164171Y-64187345D01*
X127323412Y-64303041D01*
X127406272Y-64345260D01*
X127498787Y-64392399D01*
X127498789Y-64392399D01*
X127498792Y-64392401D01*
X127578590Y-64418329D01*
X127685990Y-64453226D01*
X127880395Y-64484017D01*
X127880400Y-64484017D01*
X128077239Y-64484017D01*
X128271643Y-64453226D01*
X128458842Y-64392401D01*
X128634222Y-64303041D01*
X128793463Y-64187345D01*
X128932645Y-64048163D01*
X129048341Y-63888922D01*
X129137701Y-63713542D01*
X129198526Y-63526343D01*
X129229317Y-63331939D01*
X129229317Y-62615094D01*
X129728317Y-62615094D01*
X129728317Y-63331939D01*
X129759107Y-63526343D01*
X129819934Y-63713546D01*
X129855594Y-63783532D01*
X129909293Y-63888922D01*
X130024989Y-64048163D01*
X130164171Y-64187345D01*
X130323412Y-64303041D01*
X130406272Y-64345260D01*
X130498787Y-64392399D01*
X130498789Y-64392399D01*
X130498792Y-64392401D01*
X130578590Y-64418329D01*
X130685990Y-64453226D01*
X130880395Y-64484017D01*
X130880400Y-64484017D01*
X131077239Y-64484017D01*
X131271643Y-64453226D01*
X131458842Y-64392401D01*
X131634222Y-64303041D01*
X131793463Y-64187345D01*
X131932645Y-64048163D01*
X132048341Y-63888922D01*
X132137701Y-63713542D01*
X132198526Y-63526343D01*
X132229317Y-63331939D01*
X132229317Y-62615094D01*
X132198526Y-62420690D01*
X132179711Y-62362785D01*
X132137701Y-62233492D01*
X132137698Y-62233488D01*
X132137698Y-62233485D01*
X132129119Y-62216648D01*
X132129118Y-62216647D01*
X132102039Y-62163501D01*
X132728317Y-62163501D01*
X132728317Y-63783532D01*
X132738817Y-63886312D01*
X132738818Y-63886314D01*
X132766410Y-63969582D01*
X132794003Y-64052852D01*
X132794004Y-64052854D01*
X132886103Y-64202168D01*
X132886106Y-64202172D01*
X133010161Y-64326227D01*
X133010165Y-64326230D01*
X133159479Y-64418329D01*
X133159481Y-64418330D01*
X133159483Y-64418331D01*
X133326020Y-64473516D01*
X133428809Y-64484017D01*
X133428814Y-64484017D01*
X134528820Y-64484017D01*
X134528825Y-64484017D01*
X134631614Y-64473516D01*
X134798151Y-64418331D01*
X134947472Y-64326228D01*
X135071528Y-64202172D01*
X135163631Y-64052851D01*
X135218816Y-63886314D01*
X135229317Y-63783525D01*
X135229317Y-62163509D01*
X135218816Y-62060720D01*
X135163631Y-61894183D01*
X135080673Y-61759689D01*
X135071530Y-61744865D01*
X135071527Y-61744861D01*
X134947472Y-61620806D01*
X134947468Y-61620803D01*
X134798154Y-61528704D01*
X134798152Y-61528703D01*
X134692842Y-61493807D01*
X134631614Y-61473518D01*
X134631612Y-61473517D01*
X134528832Y-61463017D01*
X134528825Y-61463017D01*
X133428809Y-61463017D01*
X133428801Y-61463017D01*
X133326021Y-61473517D01*
X133326020Y-61473518D01*
X133159481Y-61528703D01*
X133159479Y-61528704D01*
X133010165Y-61620803D01*
X133010161Y-61620806D01*
X132886106Y-61744861D01*
X132886103Y-61744865D01*
X132794004Y-61894179D01*
X132794003Y-61894181D01*
X132738818Y-62060720D01*
X132738817Y-62060721D01*
X132728317Y-62163501D01*
X132102039Y-62163501D01*
X132048341Y-62058112D01*
X131932645Y-61898871D01*
X131793463Y-61759689D01*
X131634222Y-61643993D01*
X131588709Y-61620803D01*
X131458846Y-61554634D01*
X131271643Y-61493807D01*
X131077239Y-61463017D01*
X131077234Y-61463017D01*
X130880400Y-61463017D01*
X130880395Y-61463017D01*
X130685990Y-61493807D01*
X130498787Y-61554634D01*
X130323411Y-61643993D01*
X130232558Y-61710002D01*
X130164171Y-61759689D01*
X130164169Y-61759691D01*
X130164168Y-61759691D01*
X130024991Y-61898868D01*
X130024991Y-61898869D01*
X130024989Y-61898871D01*
X129975302Y-61967258D01*
X129909293Y-62058111D01*
X129819934Y-62233487D01*
X129759107Y-62420690D01*
X129728317Y-62615094D01*
X129229317Y-62615094D01*
X129198526Y-62420690D01*
X129137699Y-62233487D01*
X129049670Y-62060721D01*
X129048341Y-62058112D01*
X128932645Y-61898871D01*
X128793463Y-61759689D01*
X128634222Y-61643993D01*
X128588709Y-61620803D01*
X128458846Y-61554634D01*
X128271643Y-61493807D01*
X128077239Y-61463017D01*
X128077234Y-61463017D01*
X127880400Y-61463017D01*
X127880395Y-61463017D01*
X127685990Y-61493807D01*
X127498787Y-61554634D01*
X127323411Y-61643993D01*
X127232558Y-61710002D01*
X127164171Y-61759689D01*
X127164169Y-61759691D01*
X127164168Y-61759691D01*
X127024991Y-61898868D01*
X127024991Y-61898869D01*
X127024989Y-61898871D01*
X126975302Y-61967258D01*
X126909293Y-62058111D01*
X126819934Y-62233487D01*
X126759107Y-62420690D01*
X126728317Y-62615094D01*
X126229317Y-62615094D01*
X126198526Y-62420690D01*
X126137699Y-62233487D01*
X126049670Y-62060721D01*
X126048341Y-62058112D01*
X125932645Y-61898871D01*
X125793463Y-61759689D01*
X125634222Y-61643993D01*
X125588709Y-61620803D01*
X125458846Y-61554634D01*
X125271643Y-61493807D01*
X125077239Y-61463017D01*
X125077234Y-61463017D01*
X124880400Y-61463017D01*
X124880395Y-61463017D01*
X124685990Y-61493807D01*
X124498787Y-61554634D01*
X124323411Y-61643993D01*
X124232558Y-61710002D01*
X124164171Y-61759689D01*
X124164169Y-61759691D01*
X124164168Y-61759691D01*
X124024991Y-61898868D01*
X124024991Y-61898869D01*
X124024989Y-61898871D01*
X123975302Y-61967258D01*
X123909293Y-62058111D01*
X123819934Y-62233487D01*
X123759107Y-62420690D01*
X123728317Y-62615094D01*
X123229317Y-62615094D01*
X123198526Y-62420690D01*
X123137699Y-62233487D01*
X123049670Y-62060721D01*
X123048341Y-62058112D01*
X122932645Y-61898871D01*
X122793463Y-61759689D01*
X122634222Y-61643993D01*
X122588709Y-61620803D01*
X122458846Y-61554634D01*
X122271643Y-61493807D01*
X122077239Y-61463017D01*
X122077234Y-61463017D01*
X121880400Y-61463017D01*
X121880395Y-61463017D01*
X121685990Y-61493807D01*
X121498787Y-61554634D01*
X121323411Y-61643993D01*
X121232558Y-61710002D01*
X121164171Y-61759689D01*
X121164169Y-61759691D01*
X121164168Y-61759691D01*
X121024991Y-61898868D01*
X121024991Y-61898869D01*
X121024989Y-61898871D01*
X120975302Y-61967258D01*
X120909293Y-62058111D01*
X120819934Y-62233487D01*
X120759107Y-62420690D01*
X120728317Y-62615094D01*
X120229317Y-62615094D01*
X120198526Y-62420690D01*
X120137699Y-62233487D01*
X120049670Y-62060721D01*
X120048341Y-62058112D01*
X119932645Y-61898871D01*
X119793463Y-61759689D01*
X119634222Y-61643993D01*
X119588709Y-61620803D01*
X119458846Y-61554634D01*
X119271643Y-61493807D01*
X119077239Y-61463017D01*
X119077234Y-61463017D01*
X118880400Y-61463017D01*
X118880395Y-61463017D01*
X118685990Y-61493807D01*
X118498787Y-61554634D01*
X118323411Y-61643993D01*
X118232558Y-61710002D01*
X118164171Y-61759689D01*
X118164169Y-61759691D01*
X118164168Y-61759691D01*
X118024991Y-61898868D01*
X118024991Y-61898869D01*
X118024989Y-61898871D01*
X117975302Y-61967258D01*
X117909293Y-62058111D01*
X117819934Y-62233487D01*
X117759107Y-62420690D01*
X117728317Y-62615094D01*
X111500000Y-62615094D01*
X111500000Y-58872781D01*
X143614500Y-58872781D01*
X143614500Y-59047218D01*
X143648527Y-59218283D01*
X143648529Y-59218291D01*
X143715278Y-59379439D01*
X143715283Y-59379448D01*
X143812186Y-59524473D01*
X143812189Y-59524477D01*
X143935522Y-59647810D01*
X143935526Y-59647813D01*
X144080551Y-59744716D01*
X144080557Y-59744719D01*
X144080558Y-59744720D01*
X144241709Y-59811471D01*
X144412781Y-59845499D01*
X144412785Y-59845500D01*
X144412786Y-59845500D01*
X144587215Y-59845500D01*
X144587216Y-59845499D01*
X144758291Y-59811471D01*
X144919442Y-59744720D01*
X145064474Y-59647813D01*
X145187813Y-59524474D01*
X145284720Y-59379442D01*
X145351471Y-59218291D01*
X145385500Y-59047214D01*
X145385500Y-58872786D01*
X145351471Y-58701709D01*
X145284720Y-58540558D01*
X145284719Y-58540557D01*
X145284716Y-58540551D01*
X145187813Y-58395526D01*
X145187810Y-58395522D01*
X145064477Y-58272189D01*
X145064473Y-58272186D01*
X144919448Y-58175283D01*
X144919439Y-58175278D01*
X144758291Y-58108529D01*
X144758283Y-58108527D01*
X144587218Y-58074500D01*
X144587214Y-58074500D01*
X144412786Y-58074500D01*
X144412781Y-58074500D01*
X144241716Y-58108527D01*
X144241708Y-58108529D01*
X144080560Y-58175278D01*
X144080551Y-58175283D01*
X143935526Y-58272186D01*
X143935522Y-58272189D01*
X143812189Y-58395522D01*
X143812186Y-58395526D01*
X143715283Y-58540551D01*
X143715278Y-58540560D01*
X143648529Y-58701708D01*
X143648527Y-58701716D01*
X143614500Y-58872781D01*
X111500000Y-58872781D01*
X111500000Y-53624500D01*
X111519685Y-53557461D01*
X111572489Y-53511706D01*
X111624000Y-53500500D01*
X170875500Y-53500500D01*
X170942539Y-53520185D01*
G37*
%TD.AperFunction*%
%TD*%
M02*
