%TF.GenerationSoftware,KiCad,Pcbnew,9.0.0*%
%TF.CreationDate,2025-07-10T21:53:31+08:00*%
%TF.ProjectId,tsal_g_v3,7473616c-5f67-45f7-9633-2e6b69636164,rev?*%
%TF.SameCoordinates,Original*%
%TF.FileFunction,Legend,Bot*%
%TF.FilePolarity,Positive*%
%FSLAX46Y46*%
G04 Gerber Fmt 4.6, Leading zero omitted, Abs format (unit mm)*
G04 Created by KiCad (PCBNEW 9.0.0) date 2025-07-10 21:53:31*
%MOMM*%
%LPD*%
G01*
G04 APERTURE LIST*
%ADD10C,0.100000*%
%ADD11C,0.150000*%
%ADD12C,0.120000*%
G04 APERTURE END LIST*
D10*
X105500000Y-53550000D02*
X110617500Y-53550000D01*
X110617500Y-101450000D01*
X105500000Y-101450000D01*
X105500000Y-53550000D01*
D11*
X149179580Y-72319642D02*
X149227200Y-72272023D01*
X149227200Y-72272023D02*
X149274819Y-72129166D01*
X149274819Y-72129166D02*
X149274819Y-72033928D01*
X149274819Y-72033928D02*
X149227200Y-71891071D01*
X149227200Y-71891071D02*
X149131961Y-71795833D01*
X149131961Y-71795833D02*
X149036723Y-71748214D01*
X149036723Y-71748214D02*
X148846247Y-71700595D01*
X148846247Y-71700595D02*
X148703390Y-71700595D01*
X148703390Y-71700595D02*
X148512914Y-71748214D01*
X148512914Y-71748214D02*
X148417676Y-71795833D01*
X148417676Y-71795833D02*
X148322438Y-71891071D01*
X148322438Y-71891071D02*
X148274819Y-72033928D01*
X148274819Y-72033928D02*
X148274819Y-72129166D01*
X148274819Y-72129166D02*
X148322438Y-72272023D01*
X148322438Y-72272023D02*
X148370057Y-72319642D01*
X149274819Y-73272023D02*
X149274819Y-72700595D01*
X149274819Y-72986309D02*
X148274819Y-72986309D01*
X148274819Y-72986309D02*
X148417676Y-72891071D01*
X148417676Y-72891071D02*
X148512914Y-72795833D01*
X148512914Y-72795833D02*
X148560533Y-72700595D01*
X148274819Y-74176785D02*
X148274819Y-73700595D01*
X148274819Y-73700595D02*
X148751009Y-73652976D01*
X148751009Y-73652976D02*
X148703390Y-73700595D01*
X148703390Y-73700595D02*
X148655771Y-73795833D01*
X148655771Y-73795833D02*
X148655771Y-74033928D01*
X148655771Y-74033928D02*
X148703390Y-74129166D01*
X148703390Y-74129166D02*
X148751009Y-74176785D01*
X148751009Y-74176785D02*
X148846247Y-74224404D01*
X148846247Y-74224404D02*
X149084342Y-74224404D01*
X149084342Y-74224404D02*
X149179580Y-74176785D01*
X149179580Y-74176785D02*
X149227200Y-74129166D01*
X149227200Y-74129166D02*
X149274819Y-74033928D01*
X149274819Y-74033928D02*
X149274819Y-73795833D01*
X149274819Y-73795833D02*
X149227200Y-73700595D01*
X149227200Y-73700595D02*
X149179580Y-73652976D01*
X151882830Y-101357142D02*
X151930450Y-101309523D01*
X151930450Y-101309523D02*
X151978069Y-101166666D01*
X151978069Y-101166666D02*
X151978069Y-101071428D01*
X151978069Y-101071428D02*
X151930450Y-100928571D01*
X151930450Y-100928571D02*
X151835211Y-100833333D01*
X151835211Y-100833333D02*
X151739973Y-100785714D01*
X151739973Y-100785714D02*
X151549497Y-100738095D01*
X151549497Y-100738095D02*
X151406640Y-100738095D01*
X151406640Y-100738095D02*
X151216164Y-100785714D01*
X151216164Y-100785714D02*
X151120926Y-100833333D01*
X151120926Y-100833333D02*
X151025688Y-100928571D01*
X151025688Y-100928571D02*
X150978069Y-101071428D01*
X150978069Y-101071428D02*
X150978069Y-101166666D01*
X150978069Y-101166666D02*
X151025688Y-101309523D01*
X151025688Y-101309523D02*
X151073307Y-101357142D01*
X151978069Y-102309523D02*
X151978069Y-101738095D01*
X151978069Y-102023809D02*
X150978069Y-102023809D01*
X150978069Y-102023809D02*
X151120926Y-101928571D01*
X151120926Y-101928571D02*
X151216164Y-101833333D01*
X151216164Y-101833333D02*
X151263783Y-101738095D01*
X151978069Y-102785714D02*
X151978069Y-102976190D01*
X151978069Y-102976190D02*
X151930450Y-103071428D01*
X151930450Y-103071428D02*
X151882830Y-103119047D01*
X151882830Y-103119047D02*
X151739973Y-103214285D01*
X151739973Y-103214285D02*
X151549497Y-103261904D01*
X151549497Y-103261904D02*
X151168545Y-103261904D01*
X151168545Y-103261904D02*
X151073307Y-103214285D01*
X151073307Y-103214285D02*
X151025688Y-103166666D01*
X151025688Y-103166666D02*
X150978069Y-103071428D01*
X150978069Y-103071428D02*
X150978069Y-102880952D01*
X150978069Y-102880952D02*
X151025688Y-102785714D01*
X151025688Y-102785714D02*
X151073307Y-102738095D01*
X151073307Y-102738095D02*
X151168545Y-102690476D01*
X151168545Y-102690476D02*
X151406640Y-102690476D01*
X151406640Y-102690476D02*
X151501878Y-102738095D01*
X151501878Y-102738095D02*
X151549497Y-102785714D01*
X151549497Y-102785714D02*
X151597116Y-102880952D01*
X151597116Y-102880952D02*
X151597116Y-103071428D01*
X151597116Y-103071428D02*
X151549497Y-103166666D01*
X151549497Y-103166666D02*
X151501878Y-103214285D01*
X151501878Y-103214285D02*
X151406640Y-103261904D01*
X146605357Y-84539580D02*
X146652976Y-84587200D01*
X146652976Y-84587200D02*
X146795833Y-84634819D01*
X146795833Y-84634819D02*
X146891071Y-84634819D01*
X146891071Y-84634819D02*
X147033928Y-84587200D01*
X147033928Y-84587200D02*
X147129166Y-84491961D01*
X147129166Y-84491961D02*
X147176785Y-84396723D01*
X147176785Y-84396723D02*
X147224404Y-84206247D01*
X147224404Y-84206247D02*
X147224404Y-84063390D01*
X147224404Y-84063390D02*
X147176785Y-83872914D01*
X147176785Y-83872914D02*
X147129166Y-83777676D01*
X147129166Y-83777676D02*
X147033928Y-83682438D01*
X147033928Y-83682438D02*
X146891071Y-83634819D01*
X146891071Y-83634819D02*
X146795833Y-83634819D01*
X146795833Y-83634819D02*
X146652976Y-83682438D01*
X146652976Y-83682438D02*
X146605357Y-83730057D01*
X145652976Y-84634819D02*
X146224404Y-84634819D01*
X145938690Y-84634819D02*
X145938690Y-83634819D01*
X145938690Y-83634819D02*
X146033928Y-83777676D01*
X146033928Y-83777676D02*
X146129166Y-83872914D01*
X146129166Y-83872914D02*
X146224404Y-83920533D01*
X145319642Y-83634819D02*
X144652976Y-83634819D01*
X144652976Y-83634819D02*
X145081547Y-84634819D01*
X116682857Y-60872319D02*
X117016190Y-60396128D01*
X117254285Y-60872319D02*
X117254285Y-59872319D01*
X117254285Y-59872319D02*
X116873333Y-59872319D01*
X116873333Y-59872319D02*
X116778095Y-59919938D01*
X116778095Y-59919938D02*
X116730476Y-59967557D01*
X116730476Y-59967557D02*
X116682857Y-60062795D01*
X116682857Y-60062795D02*
X116682857Y-60205652D01*
X116682857Y-60205652D02*
X116730476Y-60300890D01*
X116730476Y-60300890D02*
X116778095Y-60348509D01*
X116778095Y-60348509D02*
X116873333Y-60396128D01*
X116873333Y-60396128D02*
X117254285Y-60396128D01*
X116301904Y-59967557D02*
X116254285Y-59919938D01*
X116254285Y-59919938D02*
X116159047Y-59872319D01*
X116159047Y-59872319D02*
X115920952Y-59872319D01*
X115920952Y-59872319D02*
X115825714Y-59919938D01*
X115825714Y-59919938D02*
X115778095Y-59967557D01*
X115778095Y-59967557D02*
X115730476Y-60062795D01*
X115730476Y-60062795D02*
X115730476Y-60158033D01*
X115730476Y-60158033D02*
X115778095Y-60300890D01*
X115778095Y-60300890D02*
X116349523Y-60872319D01*
X116349523Y-60872319D02*
X115730476Y-60872319D01*
X115349523Y-59967557D02*
X115301904Y-59919938D01*
X115301904Y-59919938D02*
X115206666Y-59872319D01*
X115206666Y-59872319D02*
X114968571Y-59872319D01*
X114968571Y-59872319D02*
X114873333Y-59919938D01*
X114873333Y-59919938D02*
X114825714Y-59967557D01*
X114825714Y-59967557D02*
X114778095Y-60062795D01*
X114778095Y-60062795D02*
X114778095Y-60158033D01*
X114778095Y-60158033D02*
X114825714Y-60300890D01*
X114825714Y-60300890D02*
X115397142Y-60872319D01*
X115397142Y-60872319D02*
X114778095Y-60872319D01*
X168105357Y-100539580D02*
X168152976Y-100587200D01*
X168152976Y-100587200D02*
X168295833Y-100634819D01*
X168295833Y-100634819D02*
X168391071Y-100634819D01*
X168391071Y-100634819D02*
X168533928Y-100587200D01*
X168533928Y-100587200D02*
X168629166Y-100491961D01*
X168629166Y-100491961D02*
X168676785Y-100396723D01*
X168676785Y-100396723D02*
X168724404Y-100206247D01*
X168724404Y-100206247D02*
X168724404Y-100063390D01*
X168724404Y-100063390D02*
X168676785Y-99872914D01*
X168676785Y-99872914D02*
X168629166Y-99777676D01*
X168629166Y-99777676D02*
X168533928Y-99682438D01*
X168533928Y-99682438D02*
X168391071Y-99634819D01*
X168391071Y-99634819D02*
X168295833Y-99634819D01*
X168295833Y-99634819D02*
X168152976Y-99682438D01*
X168152976Y-99682438D02*
X168105357Y-99730057D01*
X167724404Y-99730057D02*
X167676785Y-99682438D01*
X167676785Y-99682438D02*
X167581547Y-99634819D01*
X167581547Y-99634819D02*
X167343452Y-99634819D01*
X167343452Y-99634819D02*
X167248214Y-99682438D01*
X167248214Y-99682438D02*
X167200595Y-99730057D01*
X167200595Y-99730057D02*
X167152976Y-99825295D01*
X167152976Y-99825295D02*
X167152976Y-99920533D01*
X167152976Y-99920533D02*
X167200595Y-100063390D01*
X167200595Y-100063390D02*
X167772023Y-100634819D01*
X167772023Y-100634819D02*
X167152976Y-100634819D01*
X166819642Y-99634819D02*
X166200595Y-99634819D01*
X166200595Y-99634819D02*
X166533928Y-100015771D01*
X166533928Y-100015771D02*
X166391071Y-100015771D01*
X166391071Y-100015771D02*
X166295833Y-100063390D01*
X166295833Y-100063390D02*
X166248214Y-100111009D01*
X166248214Y-100111009D02*
X166200595Y-100206247D01*
X166200595Y-100206247D02*
X166200595Y-100444342D01*
X166200595Y-100444342D02*
X166248214Y-100539580D01*
X166248214Y-100539580D02*
X166295833Y-100587200D01*
X166295833Y-100587200D02*
X166391071Y-100634819D01*
X166391071Y-100634819D02*
X166676785Y-100634819D01*
X166676785Y-100634819D02*
X166772023Y-100587200D01*
X166772023Y-100587200D02*
X166819642Y-100539580D01*
X132642857Y-66454819D02*
X132976190Y-65978628D01*
X133214285Y-66454819D02*
X133214285Y-65454819D01*
X133214285Y-65454819D02*
X132833333Y-65454819D01*
X132833333Y-65454819D02*
X132738095Y-65502438D01*
X132738095Y-65502438D02*
X132690476Y-65550057D01*
X132690476Y-65550057D02*
X132642857Y-65645295D01*
X132642857Y-65645295D02*
X132642857Y-65788152D01*
X132642857Y-65788152D02*
X132690476Y-65883390D01*
X132690476Y-65883390D02*
X132738095Y-65931009D01*
X132738095Y-65931009D02*
X132833333Y-65978628D01*
X132833333Y-65978628D02*
X133214285Y-65978628D01*
X131690476Y-66454819D02*
X132261904Y-66454819D01*
X131976190Y-66454819D02*
X131976190Y-65454819D01*
X131976190Y-65454819D02*
X132071428Y-65597676D01*
X132071428Y-65597676D02*
X132166666Y-65692914D01*
X132166666Y-65692914D02*
X132261904Y-65740533D01*
X131214285Y-66454819D02*
X131023809Y-66454819D01*
X131023809Y-66454819D02*
X130928571Y-66407200D01*
X130928571Y-66407200D02*
X130880952Y-66359580D01*
X130880952Y-66359580D02*
X130785714Y-66216723D01*
X130785714Y-66216723D02*
X130738095Y-66026247D01*
X130738095Y-66026247D02*
X130738095Y-65645295D01*
X130738095Y-65645295D02*
X130785714Y-65550057D01*
X130785714Y-65550057D02*
X130833333Y-65502438D01*
X130833333Y-65502438D02*
X130928571Y-65454819D01*
X130928571Y-65454819D02*
X131119047Y-65454819D01*
X131119047Y-65454819D02*
X131214285Y-65502438D01*
X131214285Y-65502438D02*
X131261904Y-65550057D01*
X131261904Y-65550057D02*
X131309523Y-65645295D01*
X131309523Y-65645295D02*
X131309523Y-65883390D01*
X131309523Y-65883390D02*
X131261904Y-65978628D01*
X131261904Y-65978628D02*
X131214285Y-66026247D01*
X131214285Y-66026247D02*
X131119047Y-66073866D01*
X131119047Y-66073866D02*
X130928571Y-66073866D01*
X130928571Y-66073866D02*
X130833333Y-66026247D01*
X130833333Y-66026247D02*
X130785714Y-65978628D01*
X130785714Y-65978628D02*
X130738095Y-65883390D01*
X136859580Y-64357142D02*
X136907200Y-64309523D01*
X136907200Y-64309523D02*
X136954819Y-64166666D01*
X136954819Y-64166666D02*
X136954819Y-64071428D01*
X136954819Y-64071428D02*
X136907200Y-63928571D01*
X136907200Y-63928571D02*
X136811961Y-63833333D01*
X136811961Y-63833333D02*
X136716723Y-63785714D01*
X136716723Y-63785714D02*
X136526247Y-63738095D01*
X136526247Y-63738095D02*
X136383390Y-63738095D01*
X136383390Y-63738095D02*
X136192914Y-63785714D01*
X136192914Y-63785714D02*
X136097676Y-63833333D01*
X136097676Y-63833333D02*
X136002438Y-63928571D01*
X136002438Y-63928571D02*
X135954819Y-64071428D01*
X135954819Y-64071428D02*
X135954819Y-64166666D01*
X135954819Y-64166666D02*
X136002438Y-64309523D01*
X136002438Y-64309523D02*
X136050057Y-64357142D01*
X136050057Y-64738095D02*
X136002438Y-64785714D01*
X136002438Y-64785714D02*
X135954819Y-64880952D01*
X135954819Y-64880952D02*
X135954819Y-65119047D01*
X135954819Y-65119047D02*
X136002438Y-65214285D01*
X136002438Y-65214285D02*
X136050057Y-65261904D01*
X136050057Y-65261904D02*
X136145295Y-65309523D01*
X136145295Y-65309523D02*
X136240533Y-65309523D01*
X136240533Y-65309523D02*
X136383390Y-65261904D01*
X136383390Y-65261904D02*
X136954819Y-64690476D01*
X136954819Y-64690476D02*
X136954819Y-65309523D01*
X136954819Y-66261904D02*
X136954819Y-65690476D01*
X136954819Y-65976190D02*
X135954819Y-65976190D01*
X135954819Y-65976190D02*
X136097676Y-65880952D01*
X136097676Y-65880952D02*
X136192914Y-65785714D01*
X136192914Y-65785714D02*
X136240533Y-65690476D01*
X123642857Y-72359580D02*
X123690476Y-72407200D01*
X123690476Y-72407200D02*
X123833333Y-72454819D01*
X123833333Y-72454819D02*
X123928571Y-72454819D01*
X123928571Y-72454819D02*
X124071428Y-72407200D01*
X124071428Y-72407200D02*
X124166666Y-72311961D01*
X124166666Y-72311961D02*
X124214285Y-72216723D01*
X124214285Y-72216723D02*
X124261904Y-72026247D01*
X124261904Y-72026247D02*
X124261904Y-71883390D01*
X124261904Y-71883390D02*
X124214285Y-71692914D01*
X124214285Y-71692914D02*
X124166666Y-71597676D01*
X124166666Y-71597676D02*
X124071428Y-71502438D01*
X124071428Y-71502438D02*
X123928571Y-71454819D01*
X123928571Y-71454819D02*
X123833333Y-71454819D01*
X123833333Y-71454819D02*
X123690476Y-71502438D01*
X123690476Y-71502438D02*
X123642857Y-71550057D01*
X123261904Y-71550057D02*
X123214285Y-71502438D01*
X123214285Y-71502438D02*
X123119047Y-71454819D01*
X123119047Y-71454819D02*
X122880952Y-71454819D01*
X122880952Y-71454819D02*
X122785714Y-71502438D01*
X122785714Y-71502438D02*
X122738095Y-71550057D01*
X122738095Y-71550057D02*
X122690476Y-71645295D01*
X122690476Y-71645295D02*
X122690476Y-71740533D01*
X122690476Y-71740533D02*
X122738095Y-71883390D01*
X122738095Y-71883390D02*
X123309523Y-72454819D01*
X123309523Y-72454819D02*
X122690476Y-72454819D01*
X122309523Y-71550057D02*
X122261904Y-71502438D01*
X122261904Y-71502438D02*
X122166666Y-71454819D01*
X122166666Y-71454819D02*
X121928571Y-71454819D01*
X121928571Y-71454819D02*
X121833333Y-71502438D01*
X121833333Y-71502438D02*
X121785714Y-71550057D01*
X121785714Y-71550057D02*
X121738095Y-71645295D01*
X121738095Y-71645295D02*
X121738095Y-71740533D01*
X121738095Y-71740533D02*
X121785714Y-71883390D01*
X121785714Y-71883390D02*
X122357142Y-72454819D01*
X122357142Y-72454819D02*
X121738095Y-72454819D01*
X122642857Y-66454819D02*
X122976190Y-65978628D01*
X123214285Y-66454819D02*
X123214285Y-65454819D01*
X123214285Y-65454819D02*
X122833333Y-65454819D01*
X122833333Y-65454819D02*
X122738095Y-65502438D01*
X122738095Y-65502438D02*
X122690476Y-65550057D01*
X122690476Y-65550057D02*
X122642857Y-65645295D01*
X122642857Y-65645295D02*
X122642857Y-65788152D01*
X122642857Y-65788152D02*
X122690476Y-65883390D01*
X122690476Y-65883390D02*
X122738095Y-65931009D01*
X122738095Y-65931009D02*
X122833333Y-65978628D01*
X122833333Y-65978628D02*
X123214285Y-65978628D01*
X122261904Y-65550057D02*
X122214285Y-65502438D01*
X122214285Y-65502438D02*
X122119047Y-65454819D01*
X122119047Y-65454819D02*
X121880952Y-65454819D01*
X121880952Y-65454819D02*
X121785714Y-65502438D01*
X121785714Y-65502438D02*
X121738095Y-65550057D01*
X121738095Y-65550057D02*
X121690476Y-65645295D01*
X121690476Y-65645295D02*
X121690476Y-65740533D01*
X121690476Y-65740533D02*
X121738095Y-65883390D01*
X121738095Y-65883390D02*
X122309523Y-66454819D01*
X122309523Y-66454819D02*
X121690476Y-66454819D01*
X121357142Y-65454819D02*
X120738095Y-65454819D01*
X120738095Y-65454819D02*
X121071428Y-65835771D01*
X121071428Y-65835771D02*
X120928571Y-65835771D01*
X120928571Y-65835771D02*
X120833333Y-65883390D01*
X120833333Y-65883390D02*
X120785714Y-65931009D01*
X120785714Y-65931009D02*
X120738095Y-66026247D01*
X120738095Y-66026247D02*
X120738095Y-66264342D01*
X120738095Y-66264342D02*
X120785714Y-66359580D01*
X120785714Y-66359580D02*
X120833333Y-66407200D01*
X120833333Y-66407200D02*
X120928571Y-66454819D01*
X120928571Y-66454819D02*
X121214285Y-66454819D01*
X121214285Y-66454819D02*
X121309523Y-66407200D01*
X121309523Y-66407200D02*
X121357142Y-66359580D01*
X139679580Y-73857142D02*
X139727200Y-73809523D01*
X139727200Y-73809523D02*
X139774819Y-73666666D01*
X139774819Y-73666666D02*
X139774819Y-73571428D01*
X139774819Y-73571428D02*
X139727200Y-73428571D01*
X139727200Y-73428571D02*
X139631961Y-73333333D01*
X139631961Y-73333333D02*
X139536723Y-73285714D01*
X139536723Y-73285714D02*
X139346247Y-73238095D01*
X139346247Y-73238095D02*
X139203390Y-73238095D01*
X139203390Y-73238095D02*
X139012914Y-73285714D01*
X139012914Y-73285714D02*
X138917676Y-73333333D01*
X138917676Y-73333333D02*
X138822438Y-73428571D01*
X138822438Y-73428571D02*
X138774819Y-73571428D01*
X138774819Y-73571428D02*
X138774819Y-73666666D01*
X138774819Y-73666666D02*
X138822438Y-73809523D01*
X138822438Y-73809523D02*
X138870057Y-73857142D01*
X139774819Y-74809523D02*
X139774819Y-74238095D01*
X139774819Y-74523809D02*
X138774819Y-74523809D01*
X138774819Y-74523809D02*
X138917676Y-74428571D01*
X138917676Y-74428571D02*
X139012914Y-74333333D01*
X139012914Y-74333333D02*
X139060533Y-74238095D01*
X139203390Y-75380952D02*
X139155771Y-75285714D01*
X139155771Y-75285714D02*
X139108152Y-75238095D01*
X139108152Y-75238095D02*
X139012914Y-75190476D01*
X139012914Y-75190476D02*
X138965295Y-75190476D01*
X138965295Y-75190476D02*
X138870057Y-75238095D01*
X138870057Y-75238095D02*
X138822438Y-75285714D01*
X138822438Y-75285714D02*
X138774819Y-75380952D01*
X138774819Y-75380952D02*
X138774819Y-75571428D01*
X138774819Y-75571428D02*
X138822438Y-75666666D01*
X138822438Y-75666666D02*
X138870057Y-75714285D01*
X138870057Y-75714285D02*
X138965295Y-75761904D01*
X138965295Y-75761904D02*
X139012914Y-75761904D01*
X139012914Y-75761904D02*
X139108152Y-75714285D01*
X139108152Y-75714285D02*
X139155771Y-75666666D01*
X139155771Y-75666666D02*
X139203390Y-75571428D01*
X139203390Y-75571428D02*
X139203390Y-75380952D01*
X139203390Y-75380952D02*
X139251009Y-75285714D01*
X139251009Y-75285714D02*
X139298628Y-75238095D01*
X139298628Y-75238095D02*
X139393866Y-75190476D01*
X139393866Y-75190476D02*
X139584342Y-75190476D01*
X139584342Y-75190476D02*
X139679580Y-75238095D01*
X139679580Y-75238095D02*
X139727200Y-75285714D01*
X139727200Y-75285714D02*
X139774819Y-75380952D01*
X139774819Y-75380952D02*
X139774819Y-75571428D01*
X139774819Y-75571428D02*
X139727200Y-75666666D01*
X139727200Y-75666666D02*
X139679580Y-75714285D01*
X139679580Y-75714285D02*
X139584342Y-75761904D01*
X139584342Y-75761904D02*
X139393866Y-75761904D01*
X139393866Y-75761904D02*
X139298628Y-75714285D01*
X139298628Y-75714285D02*
X139251009Y-75666666D01*
X139251009Y-75666666D02*
X139203390Y-75571428D01*
X129642857Y-66454819D02*
X129976190Y-65978628D01*
X130214285Y-66454819D02*
X130214285Y-65454819D01*
X130214285Y-65454819D02*
X129833333Y-65454819D01*
X129833333Y-65454819D02*
X129738095Y-65502438D01*
X129738095Y-65502438D02*
X129690476Y-65550057D01*
X129690476Y-65550057D02*
X129642857Y-65645295D01*
X129642857Y-65645295D02*
X129642857Y-65788152D01*
X129642857Y-65788152D02*
X129690476Y-65883390D01*
X129690476Y-65883390D02*
X129738095Y-65931009D01*
X129738095Y-65931009D02*
X129833333Y-65978628D01*
X129833333Y-65978628D02*
X130214285Y-65978628D01*
X129261904Y-65550057D02*
X129214285Y-65502438D01*
X129214285Y-65502438D02*
X129119047Y-65454819D01*
X129119047Y-65454819D02*
X128880952Y-65454819D01*
X128880952Y-65454819D02*
X128785714Y-65502438D01*
X128785714Y-65502438D02*
X128738095Y-65550057D01*
X128738095Y-65550057D02*
X128690476Y-65645295D01*
X128690476Y-65645295D02*
X128690476Y-65740533D01*
X128690476Y-65740533D02*
X128738095Y-65883390D01*
X128738095Y-65883390D02*
X129309523Y-66454819D01*
X129309523Y-66454819D02*
X128690476Y-66454819D01*
X128071428Y-65454819D02*
X127976190Y-65454819D01*
X127976190Y-65454819D02*
X127880952Y-65502438D01*
X127880952Y-65502438D02*
X127833333Y-65550057D01*
X127833333Y-65550057D02*
X127785714Y-65645295D01*
X127785714Y-65645295D02*
X127738095Y-65835771D01*
X127738095Y-65835771D02*
X127738095Y-66073866D01*
X127738095Y-66073866D02*
X127785714Y-66264342D01*
X127785714Y-66264342D02*
X127833333Y-66359580D01*
X127833333Y-66359580D02*
X127880952Y-66407200D01*
X127880952Y-66407200D02*
X127976190Y-66454819D01*
X127976190Y-66454819D02*
X128071428Y-66454819D01*
X128071428Y-66454819D02*
X128166666Y-66407200D01*
X128166666Y-66407200D02*
X128214285Y-66359580D01*
X128214285Y-66359580D02*
X128261904Y-66264342D01*
X128261904Y-66264342D02*
X128309523Y-66073866D01*
X128309523Y-66073866D02*
X128309523Y-65835771D01*
X128309523Y-65835771D02*
X128261904Y-65645295D01*
X128261904Y-65645295D02*
X128214285Y-65550057D01*
X128214285Y-65550057D02*
X128166666Y-65502438D01*
X128166666Y-65502438D02*
X128071428Y-65454819D01*
X126142857Y-66454819D02*
X126476190Y-65978628D01*
X126714285Y-66454819D02*
X126714285Y-65454819D01*
X126714285Y-65454819D02*
X126333333Y-65454819D01*
X126333333Y-65454819D02*
X126238095Y-65502438D01*
X126238095Y-65502438D02*
X126190476Y-65550057D01*
X126190476Y-65550057D02*
X126142857Y-65645295D01*
X126142857Y-65645295D02*
X126142857Y-65788152D01*
X126142857Y-65788152D02*
X126190476Y-65883390D01*
X126190476Y-65883390D02*
X126238095Y-65931009D01*
X126238095Y-65931009D02*
X126333333Y-65978628D01*
X126333333Y-65978628D02*
X126714285Y-65978628D01*
X125190476Y-66454819D02*
X125761904Y-66454819D01*
X125476190Y-66454819D02*
X125476190Y-65454819D01*
X125476190Y-65454819D02*
X125571428Y-65597676D01*
X125571428Y-65597676D02*
X125666666Y-65692914D01*
X125666666Y-65692914D02*
X125761904Y-65740533D01*
X124619047Y-65883390D02*
X124714285Y-65835771D01*
X124714285Y-65835771D02*
X124761904Y-65788152D01*
X124761904Y-65788152D02*
X124809523Y-65692914D01*
X124809523Y-65692914D02*
X124809523Y-65645295D01*
X124809523Y-65645295D02*
X124761904Y-65550057D01*
X124761904Y-65550057D02*
X124714285Y-65502438D01*
X124714285Y-65502438D02*
X124619047Y-65454819D01*
X124619047Y-65454819D02*
X124428571Y-65454819D01*
X124428571Y-65454819D02*
X124333333Y-65502438D01*
X124333333Y-65502438D02*
X124285714Y-65550057D01*
X124285714Y-65550057D02*
X124238095Y-65645295D01*
X124238095Y-65645295D02*
X124238095Y-65692914D01*
X124238095Y-65692914D02*
X124285714Y-65788152D01*
X124285714Y-65788152D02*
X124333333Y-65835771D01*
X124333333Y-65835771D02*
X124428571Y-65883390D01*
X124428571Y-65883390D02*
X124619047Y-65883390D01*
X124619047Y-65883390D02*
X124714285Y-65931009D01*
X124714285Y-65931009D02*
X124761904Y-65978628D01*
X124761904Y-65978628D02*
X124809523Y-66073866D01*
X124809523Y-66073866D02*
X124809523Y-66264342D01*
X124809523Y-66264342D02*
X124761904Y-66359580D01*
X124761904Y-66359580D02*
X124714285Y-66407200D01*
X124714285Y-66407200D02*
X124619047Y-66454819D01*
X124619047Y-66454819D02*
X124428571Y-66454819D01*
X124428571Y-66454819D02*
X124333333Y-66407200D01*
X124333333Y-66407200D02*
X124285714Y-66359580D01*
X124285714Y-66359580D02*
X124238095Y-66264342D01*
X124238095Y-66264342D02*
X124238095Y-66073866D01*
X124238095Y-66073866D02*
X124285714Y-65978628D01*
X124285714Y-65978628D02*
X124333333Y-65931009D01*
X124333333Y-65931009D02*
X124428571Y-65883390D01*
X119142857Y-66454819D02*
X119476190Y-65978628D01*
X119714285Y-66454819D02*
X119714285Y-65454819D01*
X119714285Y-65454819D02*
X119333333Y-65454819D01*
X119333333Y-65454819D02*
X119238095Y-65502438D01*
X119238095Y-65502438D02*
X119190476Y-65550057D01*
X119190476Y-65550057D02*
X119142857Y-65645295D01*
X119142857Y-65645295D02*
X119142857Y-65788152D01*
X119142857Y-65788152D02*
X119190476Y-65883390D01*
X119190476Y-65883390D02*
X119238095Y-65931009D01*
X119238095Y-65931009D02*
X119333333Y-65978628D01*
X119333333Y-65978628D02*
X119714285Y-65978628D01*
X118761904Y-65550057D02*
X118714285Y-65502438D01*
X118714285Y-65502438D02*
X118619047Y-65454819D01*
X118619047Y-65454819D02*
X118380952Y-65454819D01*
X118380952Y-65454819D02*
X118285714Y-65502438D01*
X118285714Y-65502438D02*
X118238095Y-65550057D01*
X118238095Y-65550057D02*
X118190476Y-65645295D01*
X118190476Y-65645295D02*
X118190476Y-65740533D01*
X118190476Y-65740533D02*
X118238095Y-65883390D01*
X118238095Y-65883390D02*
X118809523Y-66454819D01*
X118809523Y-66454819D02*
X118190476Y-66454819D01*
X117238095Y-66454819D02*
X117809523Y-66454819D01*
X117523809Y-66454819D02*
X117523809Y-65454819D01*
X117523809Y-65454819D02*
X117619047Y-65597676D01*
X117619047Y-65597676D02*
X117714285Y-65692914D01*
X117714285Y-65692914D02*
X117809523Y-65740533D01*
D12*
%TO.C,C15*%
X151235000Y-72701248D02*
X151235000Y-73223752D01*
X149765000Y-72701248D02*
X149765000Y-73223752D01*
%TO.C,C19*%
X152258250Y-98261252D02*
X152258250Y-97738748D01*
X150788250Y-98261252D02*
X150788250Y-97738748D01*
%TO.C,C17*%
X145701248Y-83235000D02*
X146223752Y-83235000D01*
X145701248Y-81765000D02*
X146223752Y-81765000D01*
%TO.C,R22*%
X116267064Y-61332500D02*
X115812936Y-61332500D01*
X116267064Y-62802500D02*
X115812936Y-62802500D01*
%TO.C,C23*%
X167201248Y-97765000D02*
X167723752Y-97765000D01*
X167201248Y-99235000D02*
X167723752Y-99235000D01*
%TO.C,R25*%
X157265000Y-55727064D02*
X157265000Y-55272936D01*
X158735000Y-55727064D02*
X158735000Y-55272936D01*
%TO.C,R19*%
X131265000Y-62815436D02*
X131265000Y-63269564D01*
X132735000Y-62815436D02*
X132735000Y-63269564D01*
%TO.C,C21*%
X133765000Y-64321248D02*
X133765000Y-64843752D01*
X135235000Y-64321248D02*
X135235000Y-64843752D01*
%TO.C,C22*%
X126761252Y-71765000D02*
X126238748Y-71765000D01*
X126761252Y-73235000D02*
X126238748Y-73235000D01*
%TO.C,R23*%
X122265000Y-62815436D02*
X122265000Y-63269564D01*
X123735000Y-62815436D02*
X123735000Y-63269564D01*
%TO.C,C18*%
X140265000Y-74238748D02*
X140265000Y-74761252D01*
X141735000Y-74238748D02*
X141735000Y-74761252D01*
%TO.C,R26*%
X151265000Y-55727064D02*
X151265000Y-55272936D01*
X152735000Y-55727064D02*
X152735000Y-55272936D01*
%TO.C,R20*%
X128265000Y-62815436D02*
X128265000Y-63269564D01*
X129735000Y-62815436D02*
X129735000Y-63269564D01*
%TO.C,R24*%
X154265000Y-55727064D02*
X154265000Y-55272936D01*
X155735000Y-55727064D02*
X155735000Y-55272936D01*
%TO.C,R18*%
X125265000Y-62815436D02*
X125265000Y-63269564D01*
X126735000Y-62815436D02*
X126735000Y-63269564D01*
%TO.C,R21*%
X119265000Y-62815436D02*
X119265000Y-63269564D01*
X120735000Y-62815436D02*
X120735000Y-63269564D01*
%TD*%
M02*
