%TF.GenerationSoftware,KiCad,Pcbnew,9.0.2*%
%TF.CreationDate,2025-08-11T16:15:30+08:00*%
%TF.ProjectId,tsal_g_v4.zip,7473616c-5f67-45f7-9634-2e7a69702e6b,rev?*%
%TF.SameCoordinates,Original*%
%TF.FileFunction,Soldermask,Top*%
%TF.FilePolarity,Negative*%
%FSLAX46Y46*%
G04 Gerber Fmt 4.6, Leading zero omitted, Abs format (unit mm)*
G04 Created by KiCad (PCBNEW 9.0.2) date 2025-08-11 16:15:30*
%MOMM*%
%LPD*%
G01*
G04 APERTURE LIST*
G04 Aperture macros list*
%AMRoundRect*
0 Rectangle with rounded corners*
0 $1 Rounding radius*
0 $2 $3 $4 $5 $6 $7 $8 $9 X,Y pos of 4 corners*
0 Add a 4 corners polygon primitive as box body*
4,1,4,$2,$3,$4,$5,$6,$7,$8,$9,$2,$3,0*
0 Add four circle primitives for the rounded corners*
1,1,$1+$1,$2,$3*
1,1,$1+$1,$4,$5*
1,1,$1+$1,$6,$7*
1,1,$1+$1,$8,$9*
0 Add four rect primitives between the rounded corners*
20,1,$1+$1,$2,$3,$4,$5,0*
20,1,$1+$1,$4,$5,$6,$7,0*
20,1,$1+$1,$6,$7,$8,$9,0*
20,1,$1+$1,$8,$9,$2,$3,0*%
%AMOutline5P*
0 Free polygon, 5 corners , with rotation*
0 The origin of the aperture is its center*
0 number of corners: always 5*
0 $1 to $10 corner X, Y*
0 $11 Rotation angle, in degrees counterclockwise*
0 create outline with 5 corners*
4,1,5,$1,$2,$3,$4,$5,$6,$7,$8,$9,$10,$1,$2,$11*%
%AMOutline6P*
0 Free polygon, 6 corners , with rotation*
0 The origin of the aperture is its center*
0 number of corners: always 6*
0 $1 to $12 corner X, Y*
0 $13 Rotation angle, in degrees counterclockwise*
0 create outline with 6 corners*
4,1,6,$1,$2,$3,$4,$5,$6,$7,$8,$9,$10,$11,$12,$1,$2,$13*%
%AMOutline7P*
0 Free polygon, 7 corners , with rotation*
0 The origin of the aperture is its center*
0 number of corners: always 7*
0 $1 to $14 corner X, Y*
0 $15 Rotation angle, in degrees counterclockwise*
0 create outline with 7 corners*
4,1,7,$1,$2,$3,$4,$5,$6,$7,$8,$9,$10,$11,$12,$13,$14,$1,$2,$15*%
%AMOutline8P*
0 Free polygon, 8 corners , with rotation*
0 The origin of the aperture is its center*
0 number of corners: always 8*
0 $1 to $16 corner X, Y*
0 $17 Rotation angle, in degrees counterclockwise*
0 create outline with 8 corners*
4,1,8,$1,$2,$3,$4,$5,$6,$7,$8,$9,$10,$11,$12,$13,$14,$15,$16,$1,$2,$17*%
G04 Aperture macros list end*
%ADD10RoundRect,0.278125X-0.474375X-0.389375X0.474375X-0.389375X0.474375X0.389375X-0.474375X0.389375X0*%
%ADD11RoundRect,0.304348X0.420652X0.395652X-0.420652X0.395652X-0.420652X-0.395652X0.420652X-0.395652X0*%
%ADD12C,1.270000*%
%ADD13RoundRect,0.250001X0.499999X0.759999X-0.499999X0.759999X-0.499999X-0.759999X0.499999X-0.759999X0*%
%ADD14O,1.500000X2.020000*%
%ADD15RoundRect,0.305575X0.460025X0.412525X-0.460025X0.412525X-0.460025X-0.412525X0.460025X-0.412525X0*%
%ADD16RoundRect,0.308511X0.457089X0.416489X-0.457089X0.416489X-0.457089X-0.416489X0.457089X-0.416489X0*%
%ADD17RoundRect,0.390352X0.722148X0.934648X-0.722148X0.934648X-0.722148X-0.934648X0.722148X-0.934648X0*%
%ADD18RoundRect,0.250000X-1.500000X-0.650000X1.500000X-0.650000X1.500000X0.650000X-1.500000X0.650000X0*%
%ADD19RoundRect,0.162500X-0.162500X0.927500X-0.162500X-0.927500X0.162500X-0.927500X0.162500X0.927500X0*%
%ADD20RoundRect,0.150000X-0.750000X-0.150000X0.750000X-0.150000X0.750000X0.150000X-0.750000X0.150000X0*%
%ADD21RoundRect,0.278125X0.389375X-0.474375X0.389375X0.474375X-0.389375X0.474375X-0.389375X-0.474375X0*%
%ADD22RoundRect,0.162500X-0.617500X-0.162500X0.617500X-0.162500X0.617500X0.162500X-0.617500X0.162500X0*%
%ADD23RoundRect,0.278125X0.474375X0.389375X-0.474375X0.389375X-0.474375X-0.389375X0.474375X-0.389375X0*%
%ADD24RoundRect,0.305575X-0.412525X0.460025X-0.412525X-0.460025X0.412525X-0.460025X0.412525X0.460025X0*%
%ADD25RoundRect,0.308511X-0.416489X0.457089X-0.416489X-0.457089X0.416489X-0.457089X0.416489X0.457089X0*%
%ADD26RoundRect,0.305575X0.412525X-0.460025X0.412525X0.460025X-0.412525X0.460025X-0.412525X-0.460025X0*%
%ADD27RoundRect,0.308511X0.416489X-0.457089X0.416489X0.457089X-0.416489X0.457089X-0.416489X-0.457089X0*%
%ADD28RoundRect,0.278125X-0.389375X0.474375X-0.389375X-0.474375X0.389375X-0.474375X0.389375X0.474375X0*%
%ADD29RoundRect,0.250000X1.230000X0.350000X-1.230000X0.350000X-1.230000X-0.350000X1.230000X-0.350000X0*%
%ADD30Outline6P,-5.220000X2.900000X4.060000X2.900000X5.220000X1.740000X5.220000X-1.740000X4.060000X-2.900000X-5.220000X-2.900000X180.000000*%
%ADD31RoundRect,0.305575X-0.460025X-0.412525X0.460025X-0.412525X0.460025X0.412525X-0.460025X0.412525X0*%
%ADD32RoundRect,0.308511X-0.457089X-0.416489X0.457089X-0.416489X0.457089X0.416489X-0.457089X0.416489X0*%
%ADD33RoundRect,0.120600X-1.111400X-0.281400X1.111400X-0.281400X1.111400X0.281400X-1.111400X0.281400X0*%
%ADD34RoundRect,0.122100X-1.109900X-0.284900X1.109900X-0.284900X1.109900X0.284900X-1.109900X0.284900X0*%
%ADD35R,1.600000X1.600000*%
%ADD36O,1.600000X1.600000*%
%ADD37RoundRect,0.120600X-0.281400X1.111400X-0.281400X-1.111400X0.281400X-1.111400X0.281400X1.111400X0*%
%ADD38RoundRect,0.122100X-0.284900X1.109900X-0.284900X-1.109900X0.284900X-1.109900X0.284900X1.109900X0*%
%ADD39C,3.200000*%
%ADD40RoundRect,0.249999X-0.750001X-0.640001X0.750001X-0.640001X0.750001X0.640001X-0.750001X0.640001X0*%
%ADD41RoundRect,0.251116X3.376384X-2.561384X3.376384X2.561384X-3.376384X2.561384X-3.376384X-2.561384X0*%
%ADD42C,3.000000*%
%ADD43RoundRect,0.250001X0.759999X-0.499999X0.759999X0.499999X-0.759999X0.499999X-0.759999X-0.499999X0*%
%ADD44O,2.020000X1.500000*%
%ADD45R,1.500000X1.500000*%
%ADD46C,1.500000*%
%ADD47RoundRect,0.162500X-0.927500X-0.162500X0.927500X-0.162500X0.927500X0.162500X-0.927500X0.162500X0*%
%ADD48RoundRect,0.150000X0.750000X0.150000X-0.750000X0.150000X-0.750000X-0.150000X0.750000X-0.150000X0*%
%ADD49RoundRect,0.150000X-1.350000X-0.150000X1.350000X-0.150000X1.350000X0.150000X-1.350000X0.150000X0*%
%ADD50RoundRect,0.150000X-1.337500X-0.150000X1.337500X-0.150000X1.337500X0.150000X-1.337500X0.150000X0*%
G04 APERTURE END LIST*
D10*
%TO.C,R31*%
X163897500Y-81367500D03*
X166202500Y-81367500D03*
%TD*%
D11*
%TO.C,D6*%
X155230000Y-63552103D03*
X152880000Y-63552103D03*
%TD*%
D12*
%TO.C,J7*%
X148700000Y-109000000D03*
X139700000Y-109000000D03*
D13*
X145700000Y-107040000D03*
D14*
X142700000Y-107040000D03*
%TD*%
D15*
%TO.C,C1*%
X85715600Y-90506900D03*
D16*
X83284400Y-90500000D03*
%TD*%
D17*
%TO.C,F2*%
X135687500Y-107200000D03*
X131912500Y-107200000D03*
%TD*%
D18*
%TO.C,D3*%
X127000000Y-102000000D03*
X132000000Y-102000000D03*
%TD*%
D19*
%TO.C,U7*%
X149950000Y-90340000D03*
X149000000Y-90340000D03*
X148050000Y-90340000D03*
X148050000Y-93660000D03*
X149950000Y-93660000D03*
%TD*%
D20*
%TO.C,Q1*%
X116150000Y-84600000D03*
X116150000Y-86500000D03*
X118350000Y-85550000D03*
%TD*%
D21*
%TO.C,R6*%
X73467500Y-91152500D03*
X73467500Y-88847500D03*
%TD*%
D10*
%TO.C,R25*%
X157455000Y-65752103D03*
X159760000Y-65752103D03*
%TD*%
D22*
%TO.C,U4*%
X122700000Y-84700000D03*
X122700000Y-85650000D03*
X122700000Y-86600000D03*
X125400000Y-86600000D03*
X125400000Y-84700000D03*
%TD*%
D23*
%TO.C,R17*%
X125000000Y-91000000D03*
X122695000Y-91000000D03*
%TD*%
D10*
%TO.C,R4*%
X88347500Y-90467500D03*
X90652500Y-90467500D03*
%TD*%
D11*
%TO.C,D4*%
X124977500Y-88882500D03*
X122627500Y-88882500D03*
%TD*%
D24*
%TO.C,C6*%
X119706900Y-104684400D03*
D25*
X119700000Y-107115600D03*
%TD*%
D11*
%TO.C,D10*%
X161425000Y-81400000D03*
X159075000Y-81400000D03*
%TD*%
D21*
%TO.C,R10*%
X87567500Y-75877500D03*
X87567500Y-73572500D03*
%TD*%
D26*
%TO.C,C4*%
X93993100Y-98215600D03*
D27*
X94000000Y-95784400D03*
%TD*%
D15*
%TO.C,C18*%
X161009017Y-69185417D03*
D16*
X158577817Y-69178517D03*
%TD*%
D28*
%TO.C,R11*%
X87632500Y-83695000D03*
X87632500Y-86000000D03*
%TD*%
D29*
%TO.C,Q4*%
X167620000Y-88980000D03*
D30*
X159920000Y-86700000D03*
D29*
X167620000Y-84420000D03*
%TD*%
D24*
%TO.C,C21*%
X125485717Y-70712917D03*
D25*
X125478817Y-73144117D03*
%TD*%
D21*
%TO.C,R22*%
X118945266Y-57481017D03*
X118945266Y-55176017D03*
%TD*%
D12*
%TO.C,J8*%
X156500000Y-58960000D03*
X144500000Y-58960000D03*
D13*
X153500000Y-57000000D03*
D14*
X150500000Y-57000000D03*
X147500000Y-57000000D03*
%TD*%
D28*
%TO.C,R1*%
X88532500Y-95847500D03*
X88532500Y-98152500D03*
%TD*%
D11*
%TO.C,D5*%
X155130000Y-65752103D03*
X152780000Y-65752103D03*
%TD*%
D31*
%TO.C,C7*%
X122834400Y-82142048D03*
D32*
X125265600Y-82148948D03*
%TD*%
D33*
%TO.C,U20*%
X142448817Y-65768517D03*
X142448817Y-67038517D03*
X142448817Y-68308517D03*
X142448817Y-69578517D03*
X142448817Y-70848517D03*
X142448817Y-72118517D03*
X142448817Y-73388517D03*
X147688817Y-73388517D03*
D34*
X147688817Y-72123517D03*
D33*
X147688817Y-70848517D03*
X147688817Y-69578517D03*
X147688817Y-68308517D03*
X147688817Y-67038517D03*
X147688817Y-65768517D03*
%TD*%
D10*
%TO.C,R26*%
X157455000Y-61152103D03*
X159760000Y-61152103D03*
%TD*%
D28*
%TO.C,R13*%
X100432500Y-76647500D03*
X100432500Y-78952500D03*
%TD*%
D35*
%TO.C,D1*%
X84000000Y-73725000D03*
D36*
X84000000Y-81345000D03*
%TD*%
D24*
%TO.C,C2*%
X87606900Y-79009400D03*
D25*
X87600000Y-81440600D03*
%TD*%
D11*
%TO.C,D7*%
X155221334Y-61189088D03*
X152871334Y-61189088D03*
%TD*%
D37*
%TO.C,U5*%
X135088817Y-67758517D03*
X133818817Y-67758517D03*
X132548817Y-67758517D03*
X131278817Y-67758517D03*
X130008817Y-67758517D03*
X128738817Y-67758517D03*
X127468817Y-67758517D03*
X127468817Y-72998517D03*
D38*
X128733817Y-72998517D03*
D37*
X130008817Y-72998517D03*
X131278817Y-72998517D03*
X132548817Y-72998517D03*
X133818817Y-72998517D03*
X135088817Y-72998517D03*
%TD*%
D39*
%TO.C,H3*%
X166500000Y-108000000D03*
%TD*%
D15*
%TO.C,C26*%
X145000000Y-97000000D03*
D16*
X142568800Y-96993100D03*
%TD*%
D31*
%TO.C,C15*%
X152518817Y-69171617D03*
D32*
X154950017Y-69178517D03*
%TD*%
D23*
%TO.C,R2*%
X85652500Y-98101300D03*
X83347500Y-98101300D03*
%TD*%
D40*
%TO.C,U2*%
X103235000Y-76230000D03*
X103235000Y-78770000D03*
X112765000Y-78770000D03*
X112765000Y-76230000D03*
%TD*%
D37*
%TO.C,U21*%
X140270000Y-82140000D03*
X139000000Y-82140000D03*
X137730000Y-82140000D03*
X136460000Y-82140000D03*
X135190000Y-82140000D03*
X133920000Y-82140000D03*
X132650000Y-82140000D03*
X132650000Y-87380000D03*
D38*
X133915000Y-87380000D03*
D37*
X135190000Y-87380000D03*
X136460000Y-87380000D03*
X137730000Y-87380000D03*
X139000000Y-87380000D03*
X140270000Y-87380000D03*
%TD*%
D24*
%TO.C,C8*%
X152506900Y-91568800D03*
D25*
X152500000Y-94000000D03*
%TD*%
D41*
%TO.C,F1*%
X73000000Y-75775000D03*
X73000000Y-65225000D03*
%TD*%
D21*
%TO.C,R18*%
X127967500Y-57502500D03*
X127967500Y-55197500D03*
%TD*%
D10*
%TO.C,R15*%
X116097500Y-88917500D03*
X118402500Y-88917500D03*
%TD*%
D39*
%TO.C,H4*%
X166500000Y-58000000D03*
%TD*%
D42*
%TO.C,J2*%
X62180000Y-89000000D03*
D43*
X66500000Y-90500000D03*
D44*
X66500000Y-87500000D03*
%TD*%
D21*
%TO.C,R21*%
X121951976Y-57481017D03*
X121951976Y-55176017D03*
%TD*%
D28*
%TO.C,R7*%
X73532500Y-93347500D03*
X73532500Y-95652500D03*
%TD*%
D45*
%TO.C,U3*%
X113000000Y-107500000D03*
D46*
X110460000Y-107500000D03*
X102840000Y-107500000D03*
X97760000Y-107500000D03*
%TD*%
D39*
%TO.C,H1*%
X61500000Y-58000000D03*
%TD*%
D28*
%TO.C,R5*%
X73532500Y-84347500D03*
X73532500Y-86652500D03*
%TD*%
D24*
%TO.C,C22*%
X137085717Y-70642917D03*
D25*
X137078817Y-73074117D03*
%TD*%
D47*
%TO.C,U14*%
X151258817Y-71428517D03*
X151258817Y-72378517D03*
X151258817Y-73328517D03*
X154578817Y-73328517D03*
X154578817Y-71428517D03*
%TD*%
D28*
%TO.C,R14*%
X103032500Y-70847500D03*
X103032500Y-73152500D03*
%TD*%
D23*
%TO.C,R9*%
X73652500Y-103032500D03*
X71347500Y-103032500D03*
%TD*%
D37*
%TO.C,U8*%
X140310000Y-91380000D03*
X139040000Y-91380000D03*
X137770000Y-91380000D03*
X136500000Y-91380000D03*
X135230000Y-91380000D03*
X133960000Y-91380000D03*
X132690000Y-91380000D03*
X132690000Y-96620000D03*
D38*
X133955000Y-96620000D03*
D37*
X135230000Y-96620000D03*
X136500000Y-96620000D03*
X137770000Y-96620000D03*
X139040000Y-96620000D03*
X140310000Y-96620000D03*
%TD*%
D21*
%TO.C,R23*%
X124958686Y-57481017D03*
X124958686Y-55176017D03*
%TD*%
D26*
%TO.C,C5*%
X90993100Y-98215600D03*
D27*
X91000000Y-95784400D03*
%TD*%
D10*
%TO.C,R3*%
X71347500Y-81467500D03*
X73652500Y-81467500D03*
%TD*%
D21*
%TO.C,R19*%
X133978817Y-57481017D03*
X133978817Y-55176017D03*
%TD*%
D31*
%TO.C,C24*%
X145403217Y-63671617D03*
D32*
X147834417Y-63678517D03*
%TD*%
D21*
%TO.C,R20*%
X130972107Y-57481017D03*
X130972107Y-55176017D03*
%TD*%
D37*
%TO.C,U6*%
X123488817Y-67808517D03*
X122218817Y-67808517D03*
X120948817Y-67808517D03*
X119678817Y-67808517D03*
X118408817Y-67808517D03*
X117138817Y-67808517D03*
X115868817Y-67808517D03*
X115868817Y-73048517D03*
D38*
X117133817Y-73048517D03*
D37*
X118408817Y-73048517D03*
X119678817Y-73048517D03*
X120948817Y-73048517D03*
X122218817Y-73048517D03*
X123488817Y-73048517D03*
%TD*%
D47*
%TO.C,U16*%
X158158817Y-71428517D03*
X158158817Y-72378517D03*
X158158817Y-73328517D03*
X161478817Y-73328517D03*
X161478817Y-71428517D03*
%TD*%
D48*
%TO.C,U1*%
X85513800Y-95068800D03*
X85513800Y-93168800D03*
X83313800Y-94118800D03*
%TD*%
D24*
%TO.C,C9*%
X117306900Y-104684400D03*
D25*
X117300000Y-107115600D03*
%TD*%
D49*
%TO.C,LM1*%
X91000000Y-78320000D03*
X91000000Y-79590000D03*
D50*
X90987500Y-80725000D03*
D49*
X91000000Y-82130000D03*
X97000000Y-82130000D03*
X97000000Y-80860000D03*
X97000000Y-79590000D03*
X97000000Y-78320000D03*
%TD*%
D39*
%TO.C,H2*%
X61500000Y-108000000D03*
%TD*%
D23*
%TO.C,R16*%
X118402500Y-82182500D03*
X116097500Y-82182500D03*
%TD*%
D12*
%TO.C,J6*%
X159800000Y-108960000D03*
X150800000Y-108960000D03*
D13*
X156800000Y-107000000D03*
D14*
X153800000Y-107000000D03*
%TD*%
D15*
%TO.C,C25*%
X144985600Y-87386900D03*
D16*
X142554400Y-87380000D03*
%TD*%
D15*
%TO.C,C3*%
X96950000Y-75800000D03*
D16*
X94518800Y-75793100D03*
%TD*%
D21*
%TO.C,R8*%
X73467500Y-100152500D03*
X73467500Y-97847500D03*
%TD*%
D10*
%TO.C,R24*%
X157450000Y-63500000D03*
X159755000Y-63500000D03*
%TD*%
D12*
%TO.C,J3*%
X136978817Y-64933517D03*
X115978817Y-64933517D03*
D13*
X133978817Y-62973517D03*
D14*
X130978817Y-62973517D03*
X127978817Y-62973517D03*
X124978817Y-62973517D03*
X121978817Y-62973517D03*
X118978817Y-62973517D03*
%TD*%
D42*
%TO.C,J1*%
X62180000Y-72500000D03*
D43*
X66500000Y-74000000D03*
D44*
X66500000Y-71000000D03*
%TD*%
M02*
