M48
; DRILL file {KiCad 9.0.2} date 2025-08-11T16:15:35+0800
; FORMAT={-:-/ absolute / metric / decimal}
; #@! TF.CreationDate,2025-08-11T16:15:35+08:00
; #@! TF.GenerationSoftware,Kicad,Pcbnew,9.0.2
; #@! TF.FileFunction,Plated,1,2,PTH
FMAT,2
METRIC
; #@! TA.AperFunction,Plated,PTH,ViaDrill
T1C0.300
; #@! TA.AperFunction,Plated,PTH,ViaDrill
T2C0.400
; #@! TA.AperFunction,Plated,PTH,ComponentDrill
T3C0.800
; #@! TA.AperFunction,Plated,PTH,ViaDrill
T4C1.000
; #@! TA.AperFunction,Plated,PTH,ComponentDrill
T5C1.000
; #@! TA.AperFunction,Plated,PTH,ComponentDrill
T6C1.020
%
G90
G05
T1
X91.0Y-82.13
X96.95Y-75.8
X116.0Y-100.0
X117.0Y-75.5
X117.0Y-79.0
X117.3Y-104.684
X118.5Y-70.5
X119.5Y-65.5
X119.5Y-79.0
X119.7Y-75.2
X119.707Y-104.684
X120.5Y-60.0
X120.8Y-100.0
X121.0Y-70.5
X121.952Y-55.176
X122.5Y-65.5
X122.627Y-88.882
X123.0Y-75.0
X123.0Y-79.0
X123.5Y-60.0
X123.5Y-70.7
X124.959Y-55.176
X125.2Y-67.8
X125.4Y-65.4
X125.486Y-70.713
X125.5Y-94.0
X125.5Y-97.0
X126.6Y-75.0
X127.0Y-99.0
X127.4Y-65.4
X127.5Y-70.7
X127.5Y-79.0
X128.0Y-84.0
X128.5Y-87.5
X128.7Y-74.9
X129.5Y-60.0
X130.0Y-70.5
X130.5Y-85.5
X130.5Y-94.5
X130.972Y-55.176
X131.0Y-65.5
X131.0Y-79.0
X131.5Y-90.5
X131.5Y-92.5
X132.5Y-60.0
X132.5Y-70.5
X133.92Y-79.5
X134.0Y-65.5
X134.0Y-98.5
X136.0Y-60.0
X136.5Y-98.5
X138.619Y-72.079
X138.819Y-70.879
X139.0Y-79.5
X139.0Y-100.5
X140.0Y-58.0
X142.0Y-80.0
X142.449Y-70.849
X142.449Y-72.119
X142.5Y-74.8
X144.277Y-75.811
X144.319Y-67.079
X144.861Y-76.994
X145.0Y-82.0
X145.0Y-92.0
X145.194Y-75.779
X147.5Y-87.0
X147.689Y-67.039
X147.689Y-68.309
X147.689Y-69.579
X147.689Y-72.124
X147.689Y-73.389
X150.5Y-77.0
X150.5Y-80.0
X152.0Y-99.0
X152.5Y-85.0
X152.5Y-87.5
X152.519Y-69.172
X153.0Y-72.4
X154.0Y-89.5
X155.0Y-93.0
X155.0Y-95.5
X155.0Y-98.5
X156.0Y-76.5
X156.5Y-70.5
X158.0Y-56.0
X158.6Y-96.0
X159.0Y-76.5
X159.755Y-63.5
X159.76Y-61.152
X159.76Y-65.752
X160.95Y-69.2
X162.0Y-91.0
X162.0Y-93.0
X162.0Y-95.0
X162.0Y-97.0
X162.0Y-99.0
X164.0Y-91.0
X164.0Y-93.0
X164.0Y-95.0
X164.0Y-97.0
X164.0Y-99.0
X166.0Y-91.0
X166.0Y-93.0
X166.0Y-95.0
X166.0Y-97.0
X166.202Y-81.367
T2
X103.03Y-70.85
X112.765Y-76.23
X118.402Y-82.182
X125.266Y-82.149
X125.479Y-73.144
X127.5Y-90.0
X137.079Y-73.074
X142.5Y-87.5
X142.5Y-97.0
X147.834Y-63.679
X149.0Y-98.5
X152.5Y-94.0
X167.62Y-84.42
T3
X84.0Y-73.725
X84.0Y-81.345
T4
X160.1Y-91.9
T5
X97.76Y-107.5
X102.84Y-107.5
X110.46Y-107.5
X113.0Y-107.5
T6
X66.5Y-71.0
X66.5Y-74.0
X66.5Y-87.5
X66.5Y-90.5
X118.979Y-62.974
X121.979Y-62.974
X124.979Y-62.974
X127.979Y-62.974
X130.979Y-62.974
X133.979Y-62.974
X142.7Y-107.04
X145.7Y-107.04
X147.5Y-57.0
X150.5Y-57.0
X153.5Y-57.0
X153.8Y-107.0
X156.8Y-107.0
M30
