%TF.GenerationSoftware,KiCad,Pcbnew,9.0.0*%
%TF.CreationDate,2025-07-10T21:53:31+08:00*%
%TF.ProjectId,tsal_g_v3,7473616c-5f67-45f7-9633-2e6b69636164,rev?*%
%TF.SameCoordinates,Original*%
%TF.FileFunction,Copper,L2,Bot*%
%TF.FilePolarity,Positive*%
%FSLAX46Y46*%
G04 Gerber Fmt 4.6, Leading zero omitted, Abs format (unit mm)*
G04 Created by KiCad (PCBNEW 9.0.0) date 2025-07-10 21:53:31*
%MOMM*%
%LPD*%
G01*
G04 APERTURE LIST*
G04 Aperture macros list*
%AMRoundRect*
0 Rectangle with rounded corners*
0 $1 Rounding radius*
0 $2 $3 $4 $5 $6 $7 $8 $9 X,Y pos of 4 corners*
0 Add a 4 corners polygon primitive as box body*
4,1,4,$2,$3,$4,$5,$6,$7,$8,$9,$2,$3,0*
0 Add four circle primitives for the rounded corners*
1,1,$1+$1,$2,$3*
1,1,$1+$1,$4,$5*
1,1,$1+$1,$6,$7*
1,1,$1+$1,$8,$9*
0 Add four rect primitives between the rounded corners*
20,1,$1+$1,$2,$3,$4,$5,0*
20,1,$1+$1,$4,$5,$6,$7,0*
20,1,$1+$1,$6,$7,$8,$9,0*
20,1,$1+$1,$8,$9,$2,$3,0*%
G04 Aperture macros list end*
%TA.AperFunction,ComponentPad*%
%ADD10RoundRect,0.250001X0.759999X-0.499999X0.759999X0.499999X-0.759999X0.499999X-0.759999X-0.499999X0*%
%TD*%
%TA.AperFunction,ComponentPad*%
%ADD11O,2.020000X1.500000*%
%TD*%
%TA.AperFunction,ComponentPad*%
%ADD12R,1.600000X1.600000*%
%TD*%
%TA.AperFunction,ComponentPad*%
%ADD13O,1.600000X1.600000*%
%TD*%
%TA.AperFunction,ComponentPad*%
%ADD14RoundRect,0.250001X0.499999X0.759999X-0.499999X0.759999X-0.499999X-0.759999X0.499999X-0.759999X0*%
%TD*%
%TA.AperFunction,ComponentPad*%
%ADD15O,1.500000X2.020000*%
%TD*%
%TA.AperFunction,SMDPad,CuDef*%
%ADD16RoundRect,0.250000X-0.475000X0.337500X-0.475000X-0.337500X0.475000X-0.337500X0.475000X0.337500X0*%
%TD*%
%TA.AperFunction,ComponentPad*%
%ADD17R,1.500000X1.500000*%
%TD*%
%TA.AperFunction,ComponentPad*%
%ADD18C,1.500000*%
%TD*%
%TA.AperFunction,SMDPad,CuDef*%
%ADD19RoundRect,0.250000X0.475000X-0.337500X0.475000X0.337500X-0.475000X0.337500X-0.475000X-0.337500X0*%
%TD*%
%TA.AperFunction,SMDPad,CuDef*%
%ADD20RoundRect,0.250000X-0.337500X-0.475000X0.337500X-0.475000X0.337500X0.475000X-0.337500X0.475000X0*%
%TD*%
%TA.AperFunction,SMDPad,CuDef*%
%ADD21RoundRect,0.250000X0.350000X0.450000X-0.350000X0.450000X-0.350000X-0.450000X0.350000X-0.450000X0*%
%TD*%
%TA.AperFunction,SMDPad,CuDef*%
%ADD22RoundRect,0.250000X0.450000X-0.350000X0.450000X0.350000X-0.450000X0.350000X-0.450000X-0.350000X0*%
%TD*%
%TA.AperFunction,SMDPad,CuDef*%
%ADD23RoundRect,0.250000X-0.450000X0.350000X-0.450000X-0.350000X0.450000X-0.350000X0.450000X0.350000X0*%
%TD*%
%TA.AperFunction,SMDPad,CuDef*%
%ADD24RoundRect,0.250000X0.337500X0.475000X-0.337500X0.475000X-0.337500X-0.475000X0.337500X-0.475000X0*%
%TD*%
%TA.AperFunction,ViaPad*%
%ADD25C,0.700000*%
%TD*%
%TA.AperFunction,ViaPad*%
%ADD26C,0.600000*%
%TD*%
%TA.AperFunction,Conductor*%
%ADD27C,0.500000*%
%TD*%
G04 APERTURE END LIST*
D10*
%TO.P,J8,1,Pin_1*%
%TO.N,AIRL Check*%
X165085000Y-74000000D03*
D11*
%TO.P,J8,2,Pin_2*%
%TO.N,AIRH Check*%
X165085000Y-71000000D03*
%TO.P,J8,3,Pin_3*%
%TO.N,Precharge Check*%
X165085000Y-68000000D03*
%TD*%
D12*
%TO.P,D1,1,K*%
%TO.N,/Vin*%
X84000000Y-73725000D03*
D13*
%TO.P,D1,2,A*%
%TO.N,GND*%
X84000000Y-81345000D03*
%TD*%
D14*
%TO.P,J7,1,Pin_1*%
%TO.N,GLV-*%
X136500000Y-107500000D03*
D15*
%TO.P,J7,2,Pin_2*%
%TO.N,GLV+*%
X133500000Y-107500000D03*
%TD*%
D10*
%TO.P,J2,1,Pin_1*%
%TO.N,/-HV*%
X66500000Y-90500000D03*
D11*
%TO.P,J2,2,Pin_2*%
X66500000Y-87500000D03*
%TD*%
D16*
%TO.P,C15,1*%
%TO.N,GLV-*%
X150500000Y-71925000D03*
%TO.P,C15,2*%
%TO.N,VCC*%
X150500000Y-74000000D03*
%TD*%
D14*
%TO.P,J6,1,Pin_1*%
%TO.N,GLV-*%
X149000000Y-107500000D03*
D15*
%TO.P,J6,2,Pin_2*%
%TO.N,/GRN+*%
X146000000Y-107500000D03*
%TD*%
D17*
%TO.P,U3,1,+Vin*%
%TO.N,VCC*%
X113000000Y-107500000D03*
D18*
%TO.P,U3,2,-Vin*%
%TO.N,GLV-*%
X110460000Y-107500000D03*
%TO.P,U3,4,-Vout*%
%TO.N,GND*%
X102840000Y-107500000D03*
%TO.P,U3,6,+Vout*%
%TO.N,+12V*%
X97760000Y-107500000D03*
%TD*%
D19*
%TO.P,C19,1*%
%TO.N,GLV-*%
X151523250Y-99037500D03*
%TO.P,C19,2*%
%TO.N,VCC*%
X151523250Y-96962500D03*
%TD*%
D20*
%TO.P,C17,1*%
%TO.N,GLV-*%
X144925000Y-82500000D03*
%TO.P,C17,2*%
%TO.N,VCC*%
X147000000Y-82500000D03*
%TD*%
D14*
%TO.P,J3,1,Pin_1*%
%TO.N,Net-(J3-Pin_1)*%
X132000000Y-57957500D03*
D15*
%TO.P,J3,2,Pin_2*%
%TO.N,Net-(J3-Pin_2)*%
X129000000Y-57957500D03*
%TO.P,J3,3,Pin_3*%
%TO.N,Net-(J3-Pin_3)*%
X126000000Y-57957500D03*
%TO.P,J3,4,Pin_4*%
%TO.N,Net-(J3-Pin_4)*%
X123000000Y-57957500D03*
%TO.P,J3,5,Pin_5*%
%TO.N,Net-(J3-Pin_5)*%
X120000000Y-57957500D03*
%TO.P,J3,6,Pin_6*%
%TO.N,Net-(J3-Pin_6)*%
X117000000Y-57957500D03*
%TD*%
D10*
%TO.P,J1,1,Pin_1*%
%TO.N,Net-(J1-Pin_1)*%
X66500000Y-74000000D03*
D11*
%TO.P,J1,2,Pin_2*%
X66500000Y-71000000D03*
%TD*%
D21*
%TO.P,R22,1*%
%TO.N,Net-(J3-Pin_6)*%
X117040000Y-62067500D03*
%TO.P,R22,2*%
%TO.N,VCC*%
X115040000Y-62067500D03*
%TD*%
D20*
%TO.P,C23,1*%
%TO.N,GLV-*%
X166425000Y-98500000D03*
%TO.P,C23,2*%
%TO.N,VCC*%
X168500000Y-98500000D03*
%TD*%
D22*
%TO.P,R25,1*%
%TO.N,Net-(D5-K)*%
X158000000Y-56500000D03*
%TO.P,R25,2*%
%TO.N,GLV-*%
X158000000Y-54500000D03*
%TD*%
D23*
%TO.P,R19,1*%
%TO.N,Net-(J3-Pin_1)*%
X132000000Y-62042500D03*
%TO.P,R19,2*%
%TO.N,VCC*%
X132000000Y-64042500D03*
%TD*%
D16*
%TO.P,C21,1*%
%TO.N,GLV-*%
X134500000Y-63545000D03*
%TO.P,C21,2*%
%TO.N,VCC*%
X134500000Y-65620000D03*
%TD*%
D24*
%TO.P,C22,1*%
%TO.N,GLV-*%
X127537500Y-72500000D03*
%TO.P,C22,2*%
%TO.N,VCC*%
X125462500Y-72500000D03*
%TD*%
D23*
%TO.P,R23,1*%
%TO.N,Net-(J3-Pin_4)*%
X123000000Y-62042500D03*
%TO.P,R23,2*%
%TO.N,GLV-*%
X123000000Y-64042500D03*
%TD*%
D16*
%TO.P,C18,1*%
%TO.N,GLV-*%
X141000000Y-73462500D03*
%TO.P,C18,2*%
%TO.N,VCC*%
X141000000Y-75537500D03*
%TD*%
D22*
%TO.P,R26,1*%
%TO.N,Net-(D7-K)*%
X152000000Y-56500000D03*
%TO.P,R26,2*%
%TO.N,GLV-*%
X152000000Y-54500000D03*
%TD*%
D23*
%TO.P,R20,1*%
%TO.N,Net-(J3-Pin_2)*%
X129000000Y-62042500D03*
%TO.P,R20,2*%
%TO.N,GLV-*%
X129000000Y-64042500D03*
%TD*%
D22*
%TO.P,R24,1*%
%TO.N,Net-(D6-K)*%
X155000000Y-56500000D03*
%TO.P,R24,2*%
%TO.N,GLV-*%
X155000000Y-54500000D03*
%TD*%
D23*
%TO.P,R18,1*%
%TO.N,Net-(J3-Pin_3)*%
X126000000Y-62042500D03*
%TO.P,R18,2*%
%TO.N,VCC*%
X126000000Y-64042500D03*
%TD*%
%TO.P,R21,1*%
%TO.N,Net-(J3-Pin_5)*%
X120000000Y-62042500D03*
%TO.P,R21,2*%
%TO.N,GLV-*%
X120000000Y-64042500D03*
%TD*%
D25*
%TO.N,VCC*%
X112500000Y-82500000D03*
X147000000Y-84000000D03*
X153500000Y-96500000D03*
X123000000Y-79500000D03*
X119500000Y-101000000D03*
X125500000Y-92000000D03*
X125000000Y-97500000D03*
X125500000Y-70000000D03*
X148500000Y-74000000D03*
%TO.N,AIRH Check*%
X144000000Y-62500000D03*
%TO.N,Net-(U14-Pad2)*%
X139000000Y-62500000D03*
X145500000Y-69500000D03*
%TO.N,+12V*%
X100500000Y-71000000D03*
X97000000Y-75000000D03*
D26*
%TO.N,GND*%
X91500000Y-84000000D03*
D25*
%TO.N,VCC*%
X149500000Y-89500000D03*
X134810000Y-67500000D03*
X165000000Y-102500000D03*
X168500000Y-94500000D03*
X141000000Y-78500000D03*
X115000000Y-76000000D03*
X144000000Y-56000000D03*
%TO.N,Net-(D5-K)*%
X158000000Y-58000000D03*
%TO.N,TS RESET*%
X135500000Y-83000000D03*
X140500000Y-85500000D03*
%TO.N,Net-(D6-K)*%
X155000000Y-58000000D03*
%TO.N,AIRH Check*%
X155000000Y-63500000D03*
%TO.N,Net-(D7-K)*%
X152000000Y-58000000D03*
%TO.N,Precharge Check*%
X148500000Y-63460000D03*
X155500000Y-65000000D03*
X139000000Y-60000000D03*
%TO.N,Net-(D8-A)*%
X130000000Y-90000000D03*
X136500000Y-98500000D03*
%TO.N,RESET*%
X156500000Y-89500000D03*
X153500000Y-90500000D03*
%TO.N,GLV-*%
X166500000Y-96000000D03*
X151500000Y-101000000D03*
X156500000Y-78000000D03*
X154000000Y-106000000D03*
X143000000Y-72000000D03*
X153000000Y-78000000D03*
X154000000Y-109000000D03*
X130000000Y-95500000D03*
X140000000Y-102000000D03*
X129500000Y-86000000D03*
X143000000Y-74500000D03*
X113500000Y-83500000D03*
D26*
X142500000Y-83000000D03*
D25*
X113000000Y-72000000D03*
X134000000Y-86000000D03*
X113000000Y-63000000D03*
X128000000Y-81500000D03*
X135000000Y-93500000D03*
X135500000Y-101500000D03*
X137500000Y-81500000D03*
X113000000Y-69000000D03*
X122000000Y-87000000D03*
X144000000Y-93000000D03*
X141000000Y-68700000D03*
X164500000Y-87500000D03*
X133000000Y-81500000D03*
X113000000Y-66000000D03*
%TD*%
D27*
%TO.N,VCC*%
X145500000Y-100000000D02*
X148000000Y-97500000D01*
X120500000Y-100000000D02*
X145500000Y-100000000D01*
X119500000Y-101000000D02*
X120500000Y-100000000D01*
X148000000Y-97500000D02*
X148537500Y-96962500D01*
X148537500Y-96962500D02*
X151523250Y-96962500D01*
X148000000Y-97500000D02*
X149500000Y-96000000D01*
X149500000Y-96000000D02*
X149500000Y-91500000D01*
X119500000Y-79500000D02*
X121500000Y-77500000D01*
X119500000Y-101000000D02*
X119500000Y-79500000D01*
%TO.N,Precharge Check*%
X158500000Y-68000000D02*
X165085000Y-68000000D01*
X155500000Y-65000000D02*
X158500000Y-68000000D01*
%TO.N,VCC*%
X137500000Y-73500000D02*
X133500000Y-77500000D01*
X137500000Y-67000000D02*
X137500000Y-73500000D01*
X133500000Y-77500000D02*
X132000000Y-77500000D01*
X132000000Y-66000000D02*
X132000000Y-64042500D01*
X131500000Y-66500000D02*
X132000000Y-66000000D01*
X125000000Y-66500000D02*
X131500000Y-66500000D01*
X126000000Y-65500000D02*
X126000000Y-64042500D01*
X125000000Y-66500000D02*
X126000000Y-65500000D01*
X116000000Y-66500000D02*
X125000000Y-66500000D01*
X116000000Y-66500000D02*
X115000000Y-67500000D01*
X115000000Y-67500000D02*
X115000000Y-62107500D01*
X115000000Y-62107500D02*
X115040000Y-62067500D01*
X115000000Y-76000000D02*
X115000000Y-67500000D01*
X115000000Y-80000000D02*
X112500000Y-82500000D01*
X115000000Y-76000000D02*
X115000000Y-80000000D01*
X132000000Y-77500000D02*
X137000000Y-77500000D01*
X136120000Y-65620000D02*
X137500000Y-67000000D01*
X134500000Y-65620000D02*
X136120000Y-65620000D01*
X138962500Y-75537500D02*
X141000000Y-75537500D01*
X137000000Y-77500000D02*
X138962500Y-75537500D01*
X141000000Y-75537500D02*
X141000000Y-78500000D01*
X147000000Y-82500000D02*
X147000000Y-81000000D01*
X147000000Y-81000000D02*
X146500000Y-80500000D01*
X146500000Y-80500000D02*
X147000000Y-80500000D01*
X147000000Y-82500000D02*
X147000000Y-84000000D01*
X153037500Y-96962500D02*
X153500000Y-96500000D01*
X151523250Y-96962500D02*
X153037500Y-96962500D01*
X149500000Y-89500000D02*
X149500000Y-91500000D01*
%TO.N,AIRH Check*%
X153750000Y-65500000D02*
X151500000Y-65500000D01*
X155000000Y-64250000D02*
X153750000Y-65500000D01*
X155000000Y-63500000D02*
X155000000Y-64250000D01*
%TO.N,TS RESET*%
X140500000Y-84500000D02*
X140500000Y-85500000D01*
X139000000Y-83000000D02*
X140500000Y-84500000D01*
X135500000Y-83000000D02*
X139000000Y-83000000D01*
%TO.N,VCC*%
X123000000Y-82000000D02*
X123000000Y-79500000D01*
X125500000Y-84500000D02*
X123000000Y-82000000D01*
X125500000Y-92000000D02*
X125500000Y-84500000D01*
X121500000Y-77500000D02*
X132000000Y-77500000D01*
X125462500Y-73537500D02*
X121500000Y-77500000D01*
X125462500Y-72500000D02*
X125462500Y-73537500D01*
X148000000Y-80500000D02*
X166000000Y-80500000D01*
X150500000Y-77000000D02*
X147000000Y-80500000D01*
X150500000Y-74000000D02*
X150500000Y-77000000D01*
X147000000Y-80500000D02*
X148000000Y-80500000D01*
X140000000Y-80500000D02*
X146500000Y-80500000D01*
X137000000Y-77500000D02*
X140000000Y-80500000D01*
X125500000Y-97000000D02*
X125500000Y-92000000D01*
X125000000Y-97500000D02*
X125500000Y-97000000D01*
X125462500Y-70037500D02*
X125500000Y-70000000D01*
X125462500Y-72500000D02*
X125462500Y-70037500D01*
X134500000Y-67190000D02*
X134500000Y-65620000D01*
X134810000Y-67500000D02*
X134500000Y-67190000D01*
%TO.N,AIRH Check*%
X151500000Y-65500000D02*
X146000000Y-65500000D01*
X159500000Y-71000000D02*
X165085000Y-71000000D01*
X154000000Y-65500000D02*
X159500000Y-71000000D01*
X151500000Y-65500000D02*
X154000000Y-65500000D01*
%TO.N,VCC*%
X150500000Y-74000000D02*
X148500000Y-74000000D01*
X168500000Y-83000000D02*
X168500000Y-94500000D01*
X166000000Y-80500000D02*
X168500000Y-83000000D01*
%TO.N,AIRH Check*%
X144000000Y-63500000D02*
X144000000Y-62500000D01*
X146000000Y-65500000D02*
X144000000Y-63500000D01*
%TO.N,Net-(U14-Pad2)*%
X139000000Y-68500000D02*
X139000000Y-62500000D01*
X140000000Y-69500000D02*
X139000000Y-68500000D01*
X145500000Y-69500000D02*
X140000000Y-69500000D01*
%TO.N,+12V*%
X97000000Y-72500000D02*
X98500000Y-71000000D01*
X97000000Y-75000000D02*
X97000000Y-72500000D01*
X98500000Y-71000000D02*
X100500000Y-71000000D01*
%TO.N,GND*%
X88845000Y-81345000D02*
X91500000Y-84000000D01*
X84000000Y-81345000D02*
X88845000Y-81345000D01*
%TO.N,VCC*%
X168462500Y-98500000D02*
X168462500Y-100537500D01*
X140000000Y-56000000D02*
X144000000Y-56000000D01*
X168500000Y-98462500D02*
X168462500Y-98500000D01*
X168500000Y-94500000D02*
X168500000Y-98462500D01*
X168462500Y-100537500D02*
X166500000Y-102500000D01*
X137500000Y-58500000D02*
X140000000Y-56000000D01*
X137500000Y-67000000D02*
X137500000Y-58500000D01*
X166500000Y-102500000D02*
X165000000Y-102500000D01*
%TO.N,Net-(D5-K)*%
X158000000Y-58000000D02*
X158000000Y-56500000D01*
%TO.N,Net-(D6-K)*%
X155000000Y-58000000D02*
X155000000Y-56500000D01*
%TO.N,Net-(D7-K)*%
X152000000Y-58000000D02*
X152000000Y-56500000D01*
%TO.N,Precharge Check*%
X148500000Y-63460000D02*
X148500000Y-61000000D01*
X148500000Y-61000000D02*
X147500000Y-60000000D01*
X147500000Y-60000000D02*
X139000000Y-60000000D01*
%TO.N,Net-(D8-A)*%
X135500000Y-94500000D02*
X136500000Y-95500000D01*
X131000000Y-94500000D02*
X135500000Y-94500000D01*
X130000000Y-90000000D02*
X130000000Y-93500000D01*
X136500000Y-95500000D02*
X136500000Y-98500000D01*
X130000000Y-93500000D02*
X131000000Y-94500000D01*
%TO.N,RESET*%
X156500000Y-89500000D02*
X154000000Y-89500000D01*
X153500000Y-90000000D02*
X153500000Y-90500000D01*
X154000000Y-89500000D02*
X153500000Y-90000000D01*
%TO.N,Net-(J3-Pin_4)*%
X123000000Y-62042500D02*
X123000000Y-57957500D01*
%TO.N,Net-(J3-Pin_3)*%
X126000000Y-62042500D02*
X126000000Y-57957500D01*
%TO.N,Net-(J3-Pin_1)*%
X132000000Y-62042500D02*
X132000000Y-57957500D01*
%TO.N,Net-(J3-Pin_2)*%
X129000000Y-62042500D02*
X129000000Y-57957500D01*
%TO.N,Net-(J3-Pin_5)*%
X120000000Y-57957500D02*
X120000000Y-62027500D01*
%TO.N,Net-(J3-Pin_6)*%
X117000000Y-57957500D02*
X117000000Y-62027500D01*
X117000000Y-62027500D02*
X117040000Y-62067500D01*
%TD*%
%TA.AperFunction,Conductor*%
%TO.N,GLV-*%
G36*
X150914285Y-53520185D02*
G01*
X150960040Y-53572989D01*
X150969984Y-53642147D01*
X150952785Y-53689597D01*
X150865643Y-53830875D01*
X150865641Y-53830880D01*
X150810494Y-53997302D01*
X150810493Y-53997309D01*
X150800000Y-54100013D01*
X150800000Y-54250000D01*
X153199999Y-54250000D01*
X153199999Y-54100028D01*
X153199998Y-54100013D01*
X153189505Y-53997302D01*
X153134358Y-53830880D01*
X153134356Y-53830875D01*
X153047215Y-53689597D01*
X153028775Y-53622204D01*
X153049698Y-53555541D01*
X153103340Y-53510771D01*
X153152754Y-53500500D01*
X153847246Y-53500500D01*
X153914285Y-53520185D01*
X153960040Y-53572989D01*
X153969984Y-53642147D01*
X153952785Y-53689597D01*
X153865643Y-53830875D01*
X153865641Y-53830880D01*
X153810494Y-53997302D01*
X153810493Y-53997309D01*
X153800000Y-54100013D01*
X153800000Y-54250000D01*
X156199999Y-54250000D01*
X156199999Y-54100028D01*
X156199998Y-54100013D01*
X156189505Y-53997302D01*
X156134358Y-53830880D01*
X156134356Y-53830875D01*
X156047215Y-53689597D01*
X156028775Y-53622204D01*
X156049698Y-53555541D01*
X156103340Y-53510771D01*
X156152754Y-53500500D01*
X156847246Y-53500500D01*
X156914285Y-53520185D01*
X156960040Y-53572989D01*
X156969984Y-53642147D01*
X156952785Y-53689597D01*
X156865643Y-53830875D01*
X156865641Y-53830880D01*
X156810494Y-53997302D01*
X156810493Y-53997309D01*
X156800000Y-54100013D01*
X156800000Y-54250000D01*
X159199999Y-54250000D01*
X159199999Y-54100028D01*
X159199998Y-54100013D01*
X159189505Y-53997302D01*
X159134358Y-53830880D01*
X159134356Y-53830875D01*
X159047215Y-53689597D01*
X159028775Y-53622204D01*
X159049698Y-53555541D01*
X159103340Y-53510771D01*
X159152754Y-53500500D01*
X170875500Y-53500500D01*
X170942539Y-53520185D01*
X170988294Y-53572989D01*
X170999500Y-53624500D01*
X170999500Y-112375500D01*
X170979815Y-112442539D01*
X170927011Y-112488294D01*
X170875500Y-112499500D01*
X111624000Y-112499500D01*
X111556961Y-112479815D01*
X111511206Y-112427011D01*
X111500000Y-112375500D01*
X111500000Y-109372781D01*
X129614500Y-109372781D01*
X129614500Y-109547218D01*
X129648527Y-109718283D01*
X129648529Y-109718291D01*
X129715278Y-109879439D01*
X129715283Y-109879448D01*
X129812186Y-110024473D01*
X129812189Y-110024477D01*
X129935522Y-110147810D01*
X129935526Y-110147813D01*
X130080551Y-110244716D01*
X130080557Y-110244719D01*
X130080558Y-110244720D01*
X130241709Y-110311471D01*
X130412781Y-110345499D01*
X130412785Y-110345500D01*
X130412786Y-110345500D01*
X130587215Y-110345500D01*
X130587216Y-110345499D01*
X130758291Y-110311471D01*
X130919442Y-110244720D01*
X131064474Y-110147813D01*
X131187813Y-110024474D01*
X131284720Y-109879442D01*
X131351471Y-109718291D01*
X131385500Y-109547214D01*
X131385500Y-109372786D01*
X131385499Y-109372781D01*
X138614500Y-109372781D01*
X138614500Y-109547218D01*
X138648527Y-109718283D01*
X138648529Y-109718291D01*
X138715278Y-109879439D01*
X138715283Y-109879448D01*
X138812186Y-110024473D01*
X138812189Y-110024477D01*
X138935522Y-110147810D01*
X138935526Y-110147813D01*
X139080551Y-110244716D01*
X139080557Y-110244719D01*
X139080558Y-110244720D01*
X139241709Y-110311471D01*
X139412781Y-110345499D01*
X139412785Y-110345500D01*
X139412786Y-110345500D01*
X139587215Y-110345500D01*
X139587216Y-110345499D01*
X139758291Y-110311471D01*
X139919442Y-110244720D01*
X140064474Y-110147813D01*
X140187813Y-110024474D01*
X140284720Y-109879442D01*
X140351471Y-109718291D01*
X140385500Y-109547214D01*
X140385500Y-109372786D01*
X140385499Y-109372781D01*
X142114500Y-109372781D01*
X142114500Y-109547218D01*
X142148527Y-109718283D01*
X142148529Y-109718291D01*
X142215278Y-109879439D01*
X142215283Y-109879448D01*
X142312186Y-110024473D01*
X142312189Y-110024477D01*
X142435522Y-110147810D01*
X142435526Y-110147813D01*
X142580551Y-110244716D01*
X142580557Y-110244719D01*
X142580558Y-110244720D01*
X142741709Y-110311471D01*
X142912781Y-110345499D01*
X142912785Y-110345500D01*
X142912786Y-110345500D01*
X143087215Y-110345500D01*
X143087216Y-110345499D01*
X143258291Y-110311471D01*
X143419442Y-110244720D01*
X143564474Y-110147813D01*
X143687813Y-110024474D01*
X143784720Y-109879442D01*
X143851471Y-109718291D01*
X143885500Y-109547214D01*
X143885500Y-109372786D01*
X143885499Y-109372781D01*
X151114500Y-109372781D01*
X151114500Y-109547218D01*
X151148527Y-109718283D01*
X151148529Y-109718291D01*
X151215278Y-109879439D01*
X151215283Y-109879448D01*
X151312186Y-110024473D01*
X151312189Y-110024477D01*
X151435522Y-110147810D01*
X151435526Y-110147813D01*
X151580551Y-110244716D01*
X151580557Y-110244719D01*
X151580558Y-110244720D01*
X151741709Y-110311471D01*
X151912781Y-110345499D01*
X151912785Y-110345500D01*
X151912786Y-110345500D01*
X152087215Y-110345500D01*
X152087216Y-110345499D01*
X152258291Y-110311471D01*
X152419442Y-110244720D01*
X152564474Y-110147813D01*
X152687813Y-110024474D01*
X152784720Y-109879442D01*
X152851471Y-109718291D01*
X152885500Y-109547214D01*
X152885500Y-109372786D01*
X152851471Y-109201709D01*
X152784720Y-109040558D01*
X152784719Y-109040557D01*
X152784716Y-109040551D01*
X152687813Y-108895526D01*
X152687810Y-108895522D01*
X152564477Y-108772189D01*
X152564473Y-108772186D01*
X152419448Y-108675283D01*
X152419439Y-108675278D01*
X152258291Y-108608529D01*
X152258283Y-108608527D01*
X152087218Y-108574500D01*
X152087214Y-108574500D01*
X151912786Y-108574500D01*
X151912781Y-108574500D01*
X151741716Y-108608527D01*
X151741708Y-108608529D01*
X151580560Y-108675278D01*
X151580551Y-108675283D01*
X151435526Y-108772186D01*
X151435522Y-108772189D01*
X151312189Y-108895522D01*
X151312186Y-108895526D01*
X151215283Y-109040551D01*
X151215278Y-109040560D01*
X151148529Y-109201708D01*
X151148527Y-109201716D01*
X151114500Y-109372781D01*
X143885499Y-109372781D01*
X143851471Y-109201709D01*
X143784720Y-109040558D01*
X143784719Y-109040557D01*
X143784716Y-109040551D01*
X143687813Y-108895526D01*
X143687810Y-108895522D01*
X143564477Y-108772189D01*
X143564473Y-108772186D01*
X143419448Y-108675283D01*
X143419439Y-108675278D01*
X143258291Y-108608529D01*
X143258283Y-108608527D01*
X143087218Y-108574500D01*
X143087214Y-108574500D01*
X142912786Y-108574500D01*
X142912781Y-108574500D01*
X142741716Y-108608527D01*
X142741708Y-108608529D01*
X142580560Y-108675278D01*
X142580551Y-108675283D01*
X142435526Y-108772186D01*
X142435522Y-108772189D01*
X142312189Y-108895522D01*
X142312186Y-108895526D01*
X142215283Y-109040551D01*
X142215278Y-109040560D01*
X142148529Y-109201708D01*
X142148527Y-109201716D01*
X142114500Y-109372781D01*
X140385499Y-109372781D01*
X140351471Y-109201709D01*
X140284720Y-109040558D01*
X140284719Y-109040557D01*
X140284716Y-109040551D01*
X140187813Y-108895526D01*
X140187810Y-108895522D01*
X140064477Y-108772189D01*
X140064473Y-108772186D01*
X139919448Y-108675283D01*
X139919439Y-108675278D01*
X139758291Y-108608529D01*
X139758283Y-108608527D01*
X139587218Y-108574500D01*
X139587214Y-108574500D01*
X139412786Y-108574500D01*
X139412781Y-108574500D01*
X139241716Y-108608527D01*
X139241708Y-108608529D01*
X139080560Y-108675278D01*
X139080551Y-108675283D01*
X138935526Y-108772186D01*
X138935522Y-108772189D01*
X138812189Y-108895522D01*
X138812186Y-108895526D01*
X138715283Y-109040551D01*
X138715278Y-109040560D01*
X138648529Y-109201708D01*
X138648527Y-109201716D01*
X138614500Y-109372781D01*
X131385499Y-109372781D01*
X131351471Y-109201709D01*
X131284720Y-109040558D01*
X131284719Y-109040557D01*
X131284716Y-109040551D01*
X131187813Y-108895526D01*
X131187810Y-108895522D01*
X131064477Y-108772189D01*
X131064473Y-108772186D01*
X130919448Y-108675283D01*
X130919439Y-108675278D01*
X130758291Y-108608529D01*
X130758283Y-108608527D01*
X130587218Y-108574500D01*
X130587214Y-108574500D01*
X130412786Y-108574500D01*
X130412781Y-108574500D01*
X130241716Y-108608527D01*
X130241708Y-108608529D01*
X130080560Y-108675278D01*
X130080551Y-108675283D01*
X129935526Y-108772186D01*
X129935522Y-108772189D01*
X129812189Y-108895522D01*
X129812186Y-108895526D01*
X129715283Y-109040551D01*
X129715278Y-109040560D01*
X129648529Y-109201708D01*
X129648527Y-109201716D01*
X129614500Y-109372781D01*
X111500000Y-109372781D01*
X111500000Y-106702135D01*
X111749500Y-106702135D01*
X111749500Y-108297870D01*
X111749501Y-108297876D01*
X111755908Y-108357483D01*
X111806202Y-108492328D01*
X111806206Y-108492335D01*
X111892452Y-108607544D01*
X111892455Y-108607547D01*
X112007664Y-108693793D01*
X112007671Y-108693797D01*
X112142517Y-108744091D01*
X112142516Y-108744091D01*
X112149444Y-108744835D01*
X112202127Y-108750500D01*
X113797872Y-108750499D01*
X113857483Y-108744091D01*
X113992331Y-108693796D01*
X114107546Y-108607546D01*
X114193796Y-108492331D01*
X114244091Y-108357483D01*
X114250500Y-108297873D01*
X114250499Y-107141577D01*
X132249500Y-107141577D01*
X132249500Y-107858422D01*
X132280290Y-108052826D01*
X132341117Y-108240029D01*
X132376762Y-108309985D01*
X132430476Y-108415405D01*
X132546172Y-108574646D01*
X132685354Y-108713828D01*
X132844595Y-108829524D01*
X132927455Y-108871743D01*
X133019970Y-108918882D01*
X133019972Y-108918882D01*
X133019975Y-108918884D01*
X133120317Y-108951487D01*
X133207173Y-108979709D01*
X133401578Y-109010500D01*
X133401583Y-109010500D01*
X133598422Y-109010500D01*
X133792826Y-108979709D01*
X133980025Y-108918884D01*
X134155405Y-108829524D01*
X134314646Y-108713828D01*
X134453828Y-108574646D01*
X134569524Y-108415405D01*
X134658884Y-108240025D01*
X134719709Y-108052826D01*
X134726492Y-108010000D01*
X134750500Y-107858422D01*
X134750500Y-107141577D01*
X134719709Y-106947173D01*
X134708085Y-106911399D01*
X134658884Y-106759975D01*
X134655316Y-106752972D01*
X134650316Y-106743158D01*
X134623237Y-106690014D01*
X135250000Y-106690014D01*
X135250000Y-107250000D01*
X136055440Y-107250000D01*
X136024755Y-107303147D01*
X135990000Y-107432857D01*
X135990000Y-107567143D01*
X136024755Y-107696853D01*
X136055440Y-107750000D01*
X135250000Y-107750000D01*
X135250000Y-108309985D01*
X135260493Y-108412689D01*
X135260494Y-108412696D01*
X135315641Y-108579118D01*
X135315643Y-108579123D01*
X135407684Y-108728344D01*
X135531655Y-108852315D01*
X135680876Y-108944356D01*
X135680881Y-108944358D01*
X135847303Y-108999505D01*
X135847310Y-108999506D01*
X135950014Y-109009999D01*
X135950027Y-109010000D01*
X136250000Y-109010000D01*
X136250000Y-107944560D01*
X136303147Y-107975245D01*
X136432857Y-108010000D01*
X136567143Y-108010000D01*
X136696853Y-107975245D01*
X136750000Y-107944560D01*
X136750000Y-109010000D01*
X137049973Y-109010000D01*
X137049985Y-109009999D01*
X137152689Y-108999506D01*
X137152696Y-108999505D01*
X137319118Y-108944358D01*
X137319123Y-108944356D01*
X137468344Y-108852315D01*
X137592315Y-108728344D01*
X137684356Y-108579123D01*
X137684358Y-108579118D01*
X137739505Y-108412696D01*
X137739506Y-108412689D01*
X137749999Y-108309985D01*
X137750000Y-108309972D01*
X137750000Y-107750000D01*
X136944560Y-107750000D01*
X136975245Y-107696853D01*
X137010000Y-107567143D01*
X137010000Y-107432857D01*
X136975245Y-107303147D01*
X136944560Y-107250000D01*
X137750000Y-107250000D01*
X137750000Y-107141577D01*
X144749500Y-107141577D01*
X144749500Y-107858422D01*
X144780290Y-108052826D01*
X144841117Y-108240029D01*
X144876762Y-108309985D01*
X144930476Y-108415405D01*
X145046172Y-108574646D01*
X145185354Y-108713828D01*
X145344595Y-108829524D01*
X145427455Y-108871743D01*
X145519970Y-108918882D01*
X145519972Y-108918882D01*
X145519975Y-108918884D01*
X145620317Y-108951487D01*
X145707173Y-108979709D01*
X145901578Y-109010500D01*
X145901583Y-109010500D01*
X146098422Y-109010500D01*
X146292826Y-108979709D01*
X146480025Y-108918884D01*
X146655405Y-108829524D01*
X146814646Y-108713828D01*
X146953828Y-108574646D01*
X147069524Y-108415405D01*
X147158884Y-108240025D01*
X147219709Y-108052826D01*
X147226492Y-108010000D01*
X147250500Y-107858422D01*
X147250500Y-107141577D01*
X147219709Y-106947173D01*
X147208085Y-106911399D01*
X147158884Y-106759975D01*
X147155316Y-106752972D01*
X147150316Y-106743158D01*
X147123237Y-106690014D01*
X147750000Y-106690014D01*
X147750000Y-107250000D01*
X148555440Y-107250000D01*
X148524755Y-107303147D01*
X148490000Y-107432857D01*
X148490000Y-107567143D01*
X148524755Y-107696853D01*
X148555440Y-107750000D01*
X147750000Y-107750000D01*
X147750000Y-108309985D01*
X147760493Y-108412689D01*
X147760494Y-108412696D01*
X147815641Y-108579118D01*
X147815643Y-108579123D01*
X147907684Y-108728344D01*
X148031655Y-108852315D01*
X148180876Y-108944356D01*
X148180881Y-108944358D01*
X148347303Y-108999505D01*
X148347310Y-108999506D01*
X148450014Y-109009999D01*
X148450027Y-109010000D01*
X148750000Y-109010000D01*
X148750000Y-107944560D01*
X148803147Y-107975245D01*
X148932857Y-108010000D01*
X149067143Y-108010000D01*
X149196853Y-107975245D01*
X149250000Y-107944560D01*
X149250000Y-109010000D01*
X149549973Y-109010000D01*
X149549985Y-109009999D01*
X149652689Y-108999506D01*
X149652696Y-108999505D01*
X149819118Y-108944358D01*
X149819123Y-108944356D01*
X149968344Y-108852315D01*
X150092315Y-108728344D01*
X150184356Y-108579123D01*
X150184358Y-108579118D01*
X150239505Y-108412696D01*
X150239506Y-108412689D01*
X150249999Y-108309985D01*
X150250000Y-108309972D01*
X150250000Y-107878711D01*
X164649500Y-107878711D01*
X164649500Y-108121288D01*
X164672748Y-108297883D01*
X164681162Y-108361789D01*
X164712554Y-108478944D01*
X164743947Y-108596104D01*
X164807900Y-108750499D01*
X164836776Y-108820212D01*
X164958064Y-109030289D01*
X164958066Y-109030292D01*
X164958067Y-109030293D01*
X165105733Y-109222736D01*
X165105739Y-109222743D01*
X165277256Y-109394260D01*
X165277262Y-109394265D01*
X165469711Y-109541936D01*
X165679788Y-109663224D01*
X165903900Y-109756054D01*
X166138211Y-109818838D01*
X166318586Y-109842584D01*
X166378711Y-109850500D01*
X166378712Y-109850500D01*
X166621289Y-109850500D01*
X166669388Y-109844167D01*
X166861789Y-109818838D01*
X167096100Y-109756054D01*
X167320212Y-109663224D01*
X167530289Y-109541936D01*
X167722738Y-109394265D01*
X167894265Y-109222738D01*
X168041936Y-109030289D01*
X168163224Y-108820212D01*
X168256054Y-108596100D01*
X168318838Y-108361789D01*
X168350500Y-108121288D01*
X168350500Y-107878712D01*
X168318838Y-107638211D01*
X168256054Y-107403900D01*
X168163224Y-107179788D01*
X168041936Y-106969711D01*
X167894265Y-106777262D01*
X167894260Y-106777256D01*
X167722743Y-106605739D01*
X167722736Y-106605733D01*
X167530293Y-106458067D01*
X167530292Y-106458066D01*
X167530289Y-106458064D01*
X167320212Y-106336776D01*
X167320205Y-106336773D01*
X167096104Y-106243947D01*
X166861785Y-106181161D01*
X166621289Y-106149500D01*
X166621288Y-106149500D01*
X166378712Y-106149500D01*
X166378711Y-106149500D01*
X166138214Y-106181161D01*
X165903895Y-106243947D01*
X165679794Y-106336773D01*
X165679785Y-106336777D01*
X165469706Y-106458067D01*
X165277263Y-106605733D01*
X165277256Y-106605739D01*
X165105739Y-106777256D01*
X165105733Y-106777263D01*
X164958067Y-106969706D01*
X164836777Y-107179785D01*
X164836773Y-107179794D01*
X164743947Y-107403895D01*
X164681161Y-107638214D01*
X164649500Y-107878711D01*
X150250000Y-107878711D01*
X150250000Y-107750000D01*
X149444560Y-107750000D01*
X149475245Y-107696853D01*
X149510000Y-107567143D01*
X149510000Y-107432857D01*
X149475245Y-107303147D01*
X149444560Y-107250000D01*
X150250000Y-107250000D01*
X150250000Y-106690027D01*
X150249999Y-106690014D01*
X150239506Y-106587310D01*
X150239505Y-106587303D01*
X150184358Y-106420881D01*
X150184356Y-106420876D01*
X150092315Y-106271655D01*
X149968344Y-106147684D01*
X149819123Y-106055643D01*
X149819118Y-106055641D01*
X149652696Y-106000494D01*
X149652689Y-106000493D01*
X149549985Y-105990000D01*
X149250000Y-105990000D01*
X149250000Y-107055439D01*
X149196853Y-107024755D01*
X149067143Y-106990000D01*
X148932857Y-106990000D01*
X148803147Y-107024755D01*
X148750000Y-107055439D01*
X148750000Y-105990000D01*
X148450014Y-105990000D01*
X148347310Y-106000493D01*
X148347303Y-106000494D01*
X148180881Y-106055641D01*
X148180876Y-106055643D01*
X148031655Y-106147684D01*
X147907684Y-106271655D01*
X147815643Y-106420876D01*
X147815641Y-106420881D01*
X147760494Y-106587303D01*
X147760493Y-106587310D01*
X147750000Y-106690014D01*
X147123237Y-106690014D01*
X147104747Y-106653725D01*
X147069524Y-106584595D01*
X146953828Y-106425354D01*
X146814646Y-106286172D01*
X146655405Y-106170476D01*
X146610673Y-106147684D01*
X146480029Y-106081117D01*
X146292826Y-106020290D01*
X146098422Y-105989500D01*
X146098417Y-105989500D01*
X145901583Y-105989500D01*
X145901578Y-105989500D01*
X145707173Y-106020290D01*
X145519970Y-106081117D01*
X145344594Y-106170476D01*
X145253741Y-106236485D01*
X145185354Y-106286172D01*
X145185352Y-106286174D01*
X145185351Y-106286174D01*
X145046174Y-106425351D01*
X145046174Y-106425352D01*
X145046172Y-106425354D01*
X144996485Y-106493741D01*
X144930476Y-106584594D01*
X144841117Y-106759970D01*
X144780290Y-106947173D01*
X144749500Y-107141577D01*
X137750000Y-107141577D01*
X137750000Y-106690027D01*
X137749999Y-106690014D01*
X137739506Y-106587310D01*
X137739505Y-106587303D01*
X137684358Y-106420881D01*
X137684356Y-106420876D01*
X137592315Y-106271655D01*
X137468344Y-106147684D01*
X137319123Y-106055643D01*
X137319118Y-106055641D01*
X137152696Y-106000494D01*
X137152689Y-106000493D01*
X137049985Y-105990000D01*
X136750000Y-105990000D01*
X136750000Y-107055439D01*
X136696853Y-107024755D01*
X136567143Y-106990000D01*
X136432857Y-106990000D01*
X136303147Y-107024755D01*
X136250000Y-107055439D01*
X136250000Y-105990000D01*
X135950014Y-105990000D01*
X135847310Y-106000493D01*
X135847303Y-106000494D01*
X135680881Y-106055641D01*
X135680876Y-106055643D01*
X135531655Y-106147684D01*
X135407684Y-106271655D01*
X135315643Y-106420876D01*
X135315641Y-106420881D01*
X135260494Y-106587303D01*
X135260493Y-106587310D01*
X135250000Y-106690014D01*
X134623237Y-106690014D01*
X134604747Y-106653725D01*
X134569524Y-106584595D01*
X134453828Y-106425354D01*
X134314646Y-106286172D01*
X134155405Y-106170476D01*
X134110673Y-106147684D01*
X133980029Y-106081117D01*
X133792826Y-106020290D01*
X133598422Y-105989500D01*
X133598417Y-105989500D01*
X133401583Y-105989500D01*
X133401578Y-105989500D01*
X133207173Y-106020290D01*
X133019970Y-106081117D01*
X132844594Y-106170476D01*
X132753741Y-106236485D01*
X132685354Y-106286172D01*
X132685352Y-106286174D01*
X132685351Y-106286174D01*
X132546174Y-106425351D01*
X132546174Y-106425352D01*
X132546172Y-106425354D01*
X132496485Y-106493741D01*
X132430476Y-106584594D01*
X132341117Y-106759970D01*
X132280290Y-106947173D01*
X132249500Y-107141577D01*
X114250499Y-107141577D01*
X114250499Y-106702128D01*
X114244091Y-106642517D01*
X114230372Y-106605735D01*
X114193797Y-106507671D01*
X114193793Y-106507664D01*
X114107547Y-106392455D01*
X114107544Y-106392452D01*
X113992335Y-106306206D01*
X113992328Y-106306202D01*
X113857482Y-106255908D01*
X113857483Y-106255908D01*
X113797883Y-106249501D01*
X113797881Y-106249500D01*
X113797873Y-106249500D01*
X113797864Y-106249500D01*
X112202129Y-106249500D01*
X112202123Y-106249501D01*
X112142516Y-106255908D01*
X112007671Y-106306202D01*
X112007664Y-106306206D01*
X111892455Y-106392452D01*
X111892452Y-106392455D01*
X111806206Y-106507664D01*
X111806202Y-106507671D01*
X111755908Y-106642517D01*
X111750802Y-106690014D01*
X111749501Y-106702123D01*
X111749500Y-106702135D01*
X111500000Y-106702135D01*
X111500000Y-82931640D01*
X111519685Y-82864601D01*
X111572489Y-82818846D01*
X111641647Y-82808902D01*
X111705203Y-82837927D01*
X111738561Y-82884187D01*
X111746297Y-82902863D01*
X111761812Y-82926082D01*
X111839373Y-83042162D01*
X111957837Y-83160626D01*
X112050494Y-83222537D01*
X112097137Y-83253703D01*
X112251918Y-83317816D01*
X112416228Y-83350499D01*
X112416232Y-83350500D01*
X112416233Y-83350500D01*
X112583768Y-83350500D01*
X112583769Y-83350499D01*
X112748082Y-83317816D01*
X112902863Y-83253703D01*
X113042162Y-83160626D01*
X113160626Y-83042162D01*
X113253703Y-82902863D01*
X113311582Y-82763130D01*
X113338458Y-82722908D01*
X115582952Y-80478416D01*
X115632186Y-80404729D01*
X115665084Y-80355495D01*
X115721658Y-80218913D01*
X115750500Y-80073918D01*
X115750500Y-76435261D01*
X115759939Y-76387808D01*
X115778227Y-76343657D01*
X115817816Y-76248082D01*
X115850500Y-76083767D01*
X115850500Y-75916233D01*
X115817816Y-75751918D01*
X115759938Y-75612191D01*
X115750500Y-75564739D01*
X115750500Y-67862229D01*
X115770185Y-67795190D01*
X115786819Y-67774548D01*
X116274548Y-67286819D01*
X116335871Y-67253334D01*
X116362229Y-67250500D01*
X131573920Y-67250500D01*
X131677906Y-67229815D01*
X131718913Y-67221658D01*
X131855495Y-67165084D01*
X131904729Y-67132186D01*
X131978416Y-67082952D01*
X132582952Y-66478416D01*
X132617870Y-66426157D01*
X132655052Y-66370510D01*
X132655054Y-66370505D01*
X132655058Y-66370500D01*
X132665084Y-66355495D01*
X132721658Y-66218913D01*
X132748703Y-66082952D01*
X132750500Y-66073920D01*
X132750500Y-65158138D01*
X132770185Y-65091099D01*
X132809401Y-65052600D01*
X132918656Y-64985212D01*
X133042712Y-64861156D01*
X133134814Y-64711834D01*
X133189999Y-64545297D01*
X133200500Y-64442509D01*
X133200499Y-64411653D01*
X133220182Y-64344617D01*
X133272984Y-64298860D01*
X133342142Y-64288915D01*
X133405699Y-64317938D01*
X133412307Y-64324099D01*
X133582367Y-64494652D01*
X133592376Y-64513045D01*
X133606381Y-64528616D01*
X133608740Y-64543118D01*
X133615763Y-64556023D01*
X133614238Y-64576909D01*
X133617602Y-64597579D01*
X133611747Y-64611053D01*
X133610678Y-64625708D01*
X133598104Y-64642454D01*
X133589759Y-64661661D01*
X133572368Y-64676730D01*
X133568726Y-64681581D01*
X133565303Y-64682851D01*
X133559661Y-64687741D01*
X133556349Y-64689783D01*
X133556343Y-64689788D01*
X133432289Y-64813842D01*
X133340187Y-64963163D01*
X133340185Y-64963168D01*
X133315704Y-65037048D01*
X133285001Y-65129703D01*
X133285001Y-65129704D01*
X133285000Y-65129704D01*
X133274500Y-65232483D01*
X133274500Y-66007501D01*
X133274501Y-66007519D01*
X133285000Y-66110296D01*
X133285001Y-66110299D01*
X133320991Y-66218907D01*
X133340186Y-66276834D01*
X133432288Y-66426156D01*
X133556344Y-66550212D01*
X133690597Y-66633019D01*
X133737321Y-66684965D01*
X133749500Y-66738557D01*
X133749500Y-67263918D01*
X133749500Y-67263920D01*
X133749499Y-67263920D01*
X133778340Y-67408907D01*
X133778343Y-67408917D01*
X133834914Y-67545492D01*
X133834915Y-67545494D01*
X133834916Y-67545495D01*
X133867813Y-67594729D01*
X133917048Y-67668416D01*
X133976100Y-67727468D01*
X133980181Y-67732501D01*
X133983901Y-67741410D01*
X133998419Y-67763136D01*
X134056295Y-67902860D01*
X134149373Y-68042162D01*
X134267837Y-68160626D01*
X134310500Y-68189132D01*
X134407137Y-68253703D01*
X134561918Y-68317816D01*
X134726228Y-68350499D01*
X134726232Y-68350500D01*
X134726233Y-68350500D01*
X134893768Y-68350500D01*
X134893769Y-68350499D01*
X135058082Y-68317816D01*
X135212863Y-68253703D01*
X135352162Y-68160626D01*
X135470626Y-68042162D01*
X135563703Y-67902863D01*
X135627816Y-67748082D01*
X135660500Y-67583767D01*
X135660500Y-67416233D01*
X135627816Y-67251918D01*
X135563703Y-67097137D01*
X135532537Y-67050494D01*
X135470626Y-66957837D01*
X135352165Y-66839376D01*
X135352161Y-66839373D01*
X135331595Y-66825631D01*
X135286790Y-66772018D01*
X135278083Y-66702693D01*
X135308238Y-66639666D01*
X135335387Y-66616992D01*
X135443656Y-66550212D01*
X135567712Y-66426156D01*
X135567715Y-66426150D01*
X135572193Y-66420489D01*
X135573704Y-66421684D01*
X135577535Y-66413297D01*
X135598838Y-66399606D01*
X135617665Y-66382675D01*
X135629296Y-66380032D01*
X135636313Y-66375523D01*
X135671248Y-66370500D01*
X135757770Y-66370500D01*
X135824809Y-66390185D01*
X135845451Y-66406819D01*
X136713181Y-67274549D01*
X136746666Y-67335872D01*
X136749500Y-67362230D01*
X136749500Y-73137770D01*
X136729815Y-73204809D01*
X136713181Y-73225451D01*
X133225451Y-76713181D01*
X133164128Y-76746666D01*
X133137770Y-76749500D01*
X123611230Y-76749500D01*
X123544191Y-76729815D01*
X123498436Y-76677011D01*
X123488492Y-76607853D01*
X123517517Y-76544297D01*
X123523549Y-76537819D01*
X126045448Y-74015919D01*
X126045447Y-74015919D01*
X126045451Y-74015916D01*
X126127584Y-73892995D01*
X126184158Y-73756413D01*
X126204586Y-73653713D01*
X126236970Y-73591804D01*
X126238934Y-73589815D01*
X126249019Y-73579823D01*
X126268656Y-73567712D01*
X126392712Y-73443656D01*
X126402519Y-73427755D01*
X126413024Y-73417349D01*
X126431273Y-73407494D01*
X126446694Y-73393623D01*
X126461396Y-73391229D01*
X126474503Y-73384152D01*
X126495182Y-73385728D01*
X126515656Y-73382395D01*
X126529320Y-73388330D01*
X126544171Y-73389463D01*
X126560715Y-73401969D01*
X126579740Y-73410234D01*
X126595109Y-73427969D01*
X126599907Y-73431596D01*
X126601126Y-73434912D01*
X126605829Y-73440339D01*
X126607681Y-73443341D01*
X126607683Y-73443344D01*
X126731654Y-73567315D01*
X126880875Y-73659356D01*
X126880880Y-73659358D01*
X127047302Y-73714505D01*
X127047309Y-73714506D01*
X127150019Y-73724999D01*
X127287499Y-73724999D01*
X127787500Y-73724999D01*
X127924972Y-73724999D01*
X127924986Y-73724998D01*
X128027697Y-73714505D01*
X128194119Y-73659358D01*
X128194124Y-73659356D01*
X128343345Y-73567315D01*
X128467315Y-73443345D01*
X128559356Y-73294124D01*
X128559358Y-73294119D01*
X128614505Y-73127697D01*
X128614506Y-73127690D01*
X128624999Y-73024986D01*
X128625000Y-73024973D01*
X128625000Y-72750000D01*
X127787500Y-72750000D01*
X127787500Y-73724999D01*
X127287499Y-73724999D01*
X127287500Y-73724998D01*
X127287500Y-72250000D01*
X127787500Y-72250000D01*
X128624999Y-72250000D01*
X128624999Y-71975028D01*
X128624998Y-71975013D01*
X128614505Y-71872302D01*
X128559358Y-71705880D01*
X128559356Y-71705875D01*
X128467315Y-71556654D01*
X128343345Y-71432684D01*
X128194124Y-71340643D01*
X128194119Y-71340641D01*
X128027697Y-71285494D01*
X128027690Y-71285493D01*
X127924986Y-71275000D01*
X127787500Y-71275000D01*
X127787500Y-72250000D01*
X127287500Y-72250000D01*
X127287500Y-71275000D01*
X127150027Y-71275000D01*
X127150012Y-71275001D01*
X127047302Y-71285494D01*
X126880880Y-71340641D01*
X126880875Y-71340643D01*
X126731654Y-71432684D01*
X126607683Y-71556655D01*
X126607679Y-71556660D01*
X126605826Y-71559665D01*
X126604018Y-71561290D01*
X126603202Y-71562323D01*
X126603025Y-71562183D01*
X126553874Y-71606385D01*
X126484911Y-71617601D01*
X126420831Y-71589752D01*
X126411945Y-71581568D01*
X126402111Y-71571583D01*
X126392712Y-71556344D01*
X126268656Y-71432288D01*
X126259160Y-71426430D01*
X126248652Y-71415761D01*
X126238931Y-71397631D01*
X126225175Y-71382335D01*
X126221089Y-71364355D01*
X126215636Y-71354184D01*
X126216448Y-71343928D01*
X126213000Y-71328752D01*
X126213000Y-70501393D01*
X126232685Y-70434354D01*
X126233829Y-70432604D01*
X126253703Y-70402863D01*
X126317816Y-70248082D01*
X126350500Y-70083767D01*
X126350500Y-69916233D01*
X126317816Y-69751918D01*
X126253703Y-69597137D01*
X126222537Y-69550494D01*
X126160626Y-69457837D01*
X126042162Y-69339373D01*
X125902860Y-69246295D01*
X125748082Y-69182184D01*
X125748074Y-69182182D01*
X125583771Y-69149500D01*
X125583767Y-69149500D01*
X125416233Y-69149500D01*
X125416228Y-69149500D01*
X125251925Y-69182182D01*
X125251917Y-69182184D01*
X125097139Y-69246295D01*
X124957837Y-69339373D01*
X124839373Y-69457837D01*
X124746295Y-69597139D01*
X124682184Y-69751917D01*
X124682182Y-69751925D01*
X124649500Y-69916228D01*
X124649500Y-70083771D01*
X124682182Y-70248074D01*
X124682184Y-70248082D01*
X124702561Y-70297275D01*
X124712000Y-70344728D01*
X124712000Y-71328752D01*
X124692315Y-71395791D01*
X124661002Y-71426531D01*
X124662011Y-71427807D01*
X124656343Y-71432288D01*
X124532289Y-71556342D01*
X124440187Y-71705663D01*
X124440185Y-71705668D01*
X124426891Y-71745787D01*
X124385001Y-71872203D01*
X124385001Y-71872204D01*
X124385000Y-71872204D01*
X124374500Y-71974983D01*
X124374500Y-73025001D01*
X124374501Y-73025019D01*
X124385000Y-73127796D01*
X124385001Y-73127799D01*
X124424267Y-73246295D01*
X124440186Y-73294334D01*
X124440190Y-73294340D01*
X124466582Y-73337130D01*
X124485022Y-73404523D01*
X124464099Y-73471186D01*
X124448724Y-73489907D01*
X120917048Y-77021584D01*
X118917050Y-79021581D01*
X118917048Y-79021584D01*
X118903299Y-79042162D01*
X118903297Y-79042163D01*
X118903297Y-79042164D01*
X118834916Y-79144503D01*
X118834914Y-79144506D01*
X118778343Y-79281082D01*
X118778340Y-79281092D01*
X118749500Y-79426079D01*
X118749500Y-100564739D01*
X118740061Y-100612192D01*
X118682184Y-100751917D01*
X118682182Y-100751925D01*
X118649500Y-100916228D01*
X118649500Y-101083771D01*
X118682182Y-101248074D01*
X118682184Y-101248082D01*
X118746295Y-101402860D01*
X118839373Y-101542162D01*
X118957837Y-101660626D01*
X119036492Y-101713181D01*
X119097137Y-101753703D01*
X119251918Y-101817816D01*
X119416228Y-101850499D01*
X119416232Y-101850500D01*
X119416233Y-101850500D01*
X119583768Y-101850500D01*
X119583769Y-101850499D01*
X119748082Y-101817816D01*
X119902863Y-101753703D01*
X120042162Y-101660626D01*
X120160626Y-101542162D01*
X120253703Y-101402863D01*
X120311582Y-101263130D01*
X120338458Y-101222907D01*
X120774548Y-100786819D01*
X120835871Y-100753334D01*
X120862229Y-100750500D01*
X145573920Y-100750500D01*
X145671462Y-100731096D01*
X145718913Y-100721658D01*
X145855495Y-100665084D01*
X145904729Y-100632186D01*
X145978416Y-100582952D01*
X147136382Y-99424986D01*
X150298251Y-99424986D01*
X150308744Y-99527697D01*
X150363891Y-99694119D01*
X150363893Y-99694124D01*
X150455934Y-99843345D01*
X150579904Y-99967315D01*
X150729125Y-100059356D01*
X150729130Y-100059358D01*
X150895552Y-100114505D01*
X150895559Y-100114506D01*
X150998269Y-100124999D01*
X151273249Y-100124999D01*
X151773250Y-100124999D01*
X152048222Y-100124999D01*
X152048236Y-100124998D01*
X152150947Y-100114505D01*
X152317369Y-100059358D01*
X152317374Y-100059356D01*
X152466595Y-99967315D01*
X152590565Y-99843345D01*
X152682606Y-99694124D01*
X152682608Y-99694119D01*
X152737755Y-99527697D01*
X152737756Y-99527690D01*
X152748249Y-99424986D01*
X152748250Y-99424973D01*
X152748250Y-99287500D01*
X151773250Y-99287500D01*
X151773250Y-100124999D01*
X151273249Y-100124999D01*
X151273250Y-100124998D01*
X151273250Y-99287500D01*
X150298251Y-99287500D01*
X150298251Y-99424986D01*
X147136382Y-99424986D01*
X147536382Y-99024986D01*
X165337501Y-99024986D01*
X165347994Y-99127697D01*
X165403141Y-99294119D01*
X165403143Y-99294124D01*
X165495184Y-99443345D01*
X165619154Y-99567315D01*
X165768375Y-99659356D01*
X165768380Y-99659358D01*
X165934802Y-99714505D01*
X165934809Y-99714506D01*
X166037519Y-99724999D01*
X166174999Y-99724999D01*
X166175000Y-99724998D01*
X166175000Y-98750000D01*
X165337501Y-98750000D01*
X165337501Y-99024986D01*
X147536382Y-99024986D01*
X148582952Y-97978416D01*
X148582952Y-97978415D01*
X148812050Y-97749316D01*
X148873372Y-97715834D01*
X148899730Y-97713000D01*
X150352002Y-97713000D01*
X150419041Y-97732685D01*
X150439011Y-97748652D01*
X150449680Y-97759160D01*
X150455538Y-97768656D01*
X150579594Y-97892712D01*
X150594833Y-97902111D01*
X150604818Y-97911945D01*
X150615258Y-97930723D01*
X150629629Y-97946699D01*
X150631900Y-97960654D01*
X150638770Y-97973010D01*
X150637401Y-97994451D01*
X150640853Y-98015661D01*
X150635218Y-98028628D01*
X150634318Y-98042738D01*
X150621572Y-98060038D01*
X150613011Y-98079744D01*
X150596536Y-98094021D01*
X150592876Y-98098990D01*
X150589171Y-98100404D01*
X150582915Y-98105826D01*
X150579910Y-98107679D01*
X150579905Y-98107683D01*
X150455934Y-98231654D01*
X150363893Y-98380875D01*
X150363891Y-98380880D01*
X150308744Y-98547302D01*
X150308743Y-98547309D01*
X150298250Y-98650013D01*
X150298250Y-98787500D01*
X152748249Y-98787500D01*
X152748249Y-98650028D01*
X152748248Y-98650013D01*
X152737755Y-98547302D01*
X152682608Y-98380880D01*
X152682606Y-98380875D01*
X152590565Y-98231654D01*
X152466594Y-98107683D01*
X152466591Y-98107681D01*
X152463589Y-98105829D01*
X152461963Y-98104021D01*
X152460927Y-98103202D01*
X152461067Y-98103024D01*
X152444231Y-98084305D01*
X152422814Y-98064839D01*
X152421154Y-98058646D01*
X152416867Y-98053880D01*
X152412218Y-98025310D01*
X152404725Y-97997352D01*
X152406676Y-97991245D01*
X152405647Y-97984917D01*
X152409951Y-97975013D01*
X165337500Y-97975013D01*
X165337500Y-98250000D01*
X166175000Y-98250000D01*
X166175000Y-97275000D01*
X166037527Y-97275000D01*
X166037512Y-97275001D01*
X165934802Y-97285494D01*
X165768380Y-97340641D01*
X165768375Y-97340643D01*
X165619154Y-97432684D01*
X165495184Y-97556654D01*
X165403143Y-97705875D01*
X165403141Y-97705880D01*
X165347994Y-97872302D01*
X165347993Y-97872309D01*
X165337500Y-97975013D01*
X152409951Y-97975013D01*
X152417182Y-97958371D01*
X152425994Y-97930798D01*
X152431427Y-97925589D01*
X152433493Y-97920836D01*
X152449733Y-97904680D01*
X152456314Y-97899245D01*
X152466906Y-97892712D01*
X152590962Y-97768656D01*
X152590965Y-97768650D01*
X152595443Y-97762989D01*
X152597265Y-97764430D01*
X152640915Y-97725175D01*
X152694498Y-97713000D01*
X153111420Y-97713000D01*
X153208962Y-97693596D01*
X153256413Y-97684158D01*
X153392995Y-97627584D01*
X153458572Y-97583767D01*
X153515916Y-97545452D01*
X153722910Y-97338456D01*
X153763130Y-97311582D01*
X153902863Y-97253703D01*
X154042162Y-97160626D01*
X154160626Y-97042162D01*
X154253703Y-96902863D01*
X154317816Y-96748082D01*
X154350500Y-96583767D01*
X154350500Y-96416233D01*
X154317816Y-96251918D01*
X154253703Y-96097137D01*
X154210372Y-96032288D01*
X154160626Y-95957837D01*
X154042162Y-95839373D01*
X153902860Y-95746295D01*
X153748082Y-95682184D01*
X153748074Y-95682182D01*
X153583771Y-95649500D01*
X153583767Y-95649500D01*
X153416233Y-95649500D01*
X153416228Y-95649500D01*
X153251925Y-95682182D01*
X153251917Y-95682184D01*
X153097139Y-95746295D01*
X152957837Y-95839373D01*
X152839376Y-95957834D01*
X152839373Y-95957838D01*
X152744306Y-96100115D01*
X152690693Y-96144920D01*
X152621368Y-96153627D01*
X152558341Y-96123472D01*
X152553523Y-96118905D01*
X152466907Y-96032289D01*
X152466906Y-96032288D01*
X152317584Y-95940186D01*
X152151047Y-95885001D01*
X152151045Y-95885000D01*
X152048260Y-95874500D01*
X150998248Y-95874500D01*
X150998230Y-95874501D01*
X150895453Y-95885000D01*
X150895450Y-95885001D01*
X150728918Y-95940185D01*
X150728913Y-95940187D01*
X150579592Y-96032289D01*
X150462181Y-96149701D01*
X150400858Y-96183186D01*
X150331166Y-96178202D01*
X150275233Y-96136330D01*
X150250816Y-96070866D01*
X150250500Y-96062020D01*
X150250500Y-90416228D01*
X152649500Y-90416228D01*
X152649500Y-90583771D01*
X152682182Y-90748074D01*
X152682184Y-90748082D01*
X152746295Y-90902860D01*
X152839373Y-91042162D01*
X152957837Y-91160626D01*
X153050494Y-91222537D01*
X153097137Y-91253703D01*
X153251918Y-91317816D01*
X153416228Y-91350499D01*
X153416232Y-91350500D01*
X153416233Y-91350500D01*
X153583768Y-91350500D01*
X153583769Y-91350499D01*
X153748082Y-91317816D01*
X153902863Y-91253703D01*
X154042162Y-91160626D01*
X154160626Y-91042162D01*
X154253703Y-90902863D01*
X154317816Y-90748082D01*
X154350500Y-90583767D01*
X154350500Y-90416233D01*
X154347011Y-90398692D01*
X154353238Y-90329100D01*
X154396100Y-90273923D01*
X154461990Y-90250678D01*
X154468628Y-90250500D01*
X156064739Y-90250500D01*
X156112191Y-90259938D01*
X156251918Y-90317816D01*
X156416228Y-90350499D01*
X156416232Y-90350500D01*
X156416233Y-90350500D01*
X156583768Y-90350500D01*
X156583769Y-90350499D01*
X156748082Y-90317816D01*
X156902863Y-90253703D01*
X157042162Y-90160626D01*
X157160626Y-90042162D01*
X157253703Y-89902863D01*
X157317816Y-89748082D01*
X157350500Y-89583767D01*
X157350500Y-89416233D01*
X157317816Y-89251918D01*
X157253703Y-89097137D01*
X157222537Y-89050494D01*
X157160626Y-88957837D01*
X157042162Y-88839373D01*
X156902860Y-88746295D01*
X156748082Y-88682184D01*
X156748074Y-88682182D01*
X156583771Y-88649500D01*
X156583767Y-88649500D01*
X156416233Y-88649500D01*
X156416228Y-88649500D01*
X156251925Y-88682182D01*
X156251917Y-88682184D01*
X156112192Y-88740061D01*
X156064739Y-88749500D01*
X153926080Y-88749500D01*
X153781092Y-88778340D01*
X153781086Y-88778342D01*
X153644508Y-88834914D01*
X153644496Y-88834921D01*
X153595269Y-88867813D01*
X153521588Y-88917044D01*
X153521580Y-88917050D01*
X152917048Y-89521583D01*
X152896205Y-89552778D01*
X152875500Y-89583767D01*
X152866565Y-89597139D01*
X152834916Y-89644504D01*
X152834912Y-89644511D01*
X152778343Y-89781082D01*
X152778340Y-89781092D01*
X152749500Y-89926079D01*
X152749500Y-90064739D01*
X152740061Y-90112192D01*
X152682184Y-90251917D01*
X152682182Y-90251925D01*
X152649500Y-90416228D01*
X150250500Y-90416228D01*
X150250500Y-89935261D01*
X150259939Y-89887808D01*
X150317816Y-89748082D01*
X150350500Y-89583767D01*
X150350500Y-89416233D01*
X150317816Y-89251918D01*
X150253703Y-89097137D01*
X150222537Y-89050494D01*
X150160626Y-88957837D01*
X150042162Y-88839373D01*
X149902860Y-88746295D01*
X149748082Y-88682184D01*
X149748074Y-88682182D01*
X149583771Y-88649500D01*
X149583767Y-88649500D01*
X149416233Y-88649500D01*
X149416228Y-88649500D01*
X149251925Y-88682182D01*
X149251917Y-88682184D01*
X149097139Y-88746295D01*
X148957837Y-88839373D01*
X148839373Y-88957837D01*
X148746295Y-89097139D01*
X148682184Y-89251917D01*
X148682182Y-89251925D01*
X148649500Y-89416228D01*
X148649500Y-89583768D01*
X148682182Y-89748074D01*
X148682184Y-89748082D01*
X148740061Y-89887808D01*
X148749500Y-89935261D01*
X148749500Y-95637769D01*
X148729815Y-95704808D01*
X148713181Y-95725450D01*
X147504142Y-96934489D01*
X145225451Y-99213181D01*
X145164128Y-99246666D01*
X145137770Y-99249500D01*
X137252645Y-99249500D01*
X137185606Y-99229815D01*
X137139851Y-99177011D01*
X137129907Y-99107853D01*
X137156789Y-99046839D01*
X137160623Y-99042166D01*
X137160626Y-99042162D01*
X137253703Y-98902863D01*
X137317816Y-98748082D01*
X137350500Y-98583767D01*
X137350500Y-98416233D01*
X137317816Y-98251918D01*
X137259938Y-98112191D01*
X137250500Y-98064739D01*
X137250500Y-95426081D01*
X137244763Y-95397242D01*
X137244763Y-95397240D01*
X137221660Y-95281095D01*
X137221659Y-95281088D01*
X137173608Y-95165084D01*
X137165084Y-95144505D01*
X137082951Y-95021584D01*
X136978416Y-94917049D01*
X136809441Y-94748074D01*
X135978421Y-93917052D01*
X135978414Y-93917046D01*
X135904729Y-93867812D01*
X135904729Y-93867813D01*
X135855491Y-93834913D01*
X135718917Y-93778343D01*
X135718907Y-93778340D01*
X135573920Y-93749500D01*
X135573918Y-93749500D01*
X131362229Y-93749500D01*
X131295190Y-93729815D01*
X131274548Y-93713181D01*
X130786819Y-93225451D01*
X130753334Y-93164128D01*
X130750500Y-93137770D01*
X130750500Y-90435261D01*
X130759939Y-90387808D01*
X130817816Y-90248082D01*
X130850500Y-90083767D01*
X130850500Y-89916233D01*
X130817816Y-89751918D01*
X130753703Y-89597137D01*
X130703219Y-89521583D01*
X130660626Y-89457837D01*
X130542162Y-89339373D01*
X130402860Y-89246295D01*
X130248082Y-89182184D01*
X130248074Y-89182182D01*
X130083771Y-89149500D01*
X130083767Y-89149500D01*
X129916233Y-89149500D01*
X129916228Y-89149500D01*
X129751925Y-89182182D01*
X129751917Y-89182184D01*
X129597139Y-89246295D01*
X129457837Y-89339373D01*
X129339373Y-89457837D01*
X129246295Y-89597139D01*
X129182184Y-89751917D01*
X129182182Y-89751925D01*
X129149500Y-89916228D01*
X129149500Y-90083771D01*
X129182182Y-90248074D01*
X129182184Y-90248082D01*
X129240061Y-90387808D01*
X129249500Y-90435261D01*
X129249500Y-93573918D01*
X129249500Y-93573920D01*
X129249499Y-93573920D01*
X129278340Y-93718907D01*
X129278343Y-93718917D01*
X129334913Y-93855489D01*
X129334914Y-93855491D01*
X129334916Y-93855495D01*
X129347613Y-93874498D01*
X129347614Y-93874501D01*
X129417046Y-93978414D01*
X129417052Y-93978421D01*
X130417049Y-94978416D01*
X130521584Y-95082951D01*
X130521587Y-95082953D01*
X130521588Y-95082954D01*
X130644503Y-95165083D01*
X130644504Y-95165084D01*
X130694665Y-95185861D01*
X130701080Y-95188518D01*
X130781088Y-95221659D01*
X130897241Y-95244763D01*
X130920380Y-95249365D01*
X130926081Y-95250500D01*
X130926082Y-95250500D01*
X130926083Y-95250500D01*
X131073918Y-95250500D01*
X135137770Y-95250500D01*
X135204809Y-95270185D01*
X135225451Y-95286819D01*
X135713181Y-95774548D01*
X135746666Y-95835871D01*
X135749500Y-95862229D01*
X135749500Y-98064739D01*
X135740061Y-98112192D01*
X135682184Y-98251917D01*
X135682182Y-98251925D01*
X135649500Y-98416228D01*
X135649500Y-98583771D01*
X135682182Y-98748074D01*
X135682184Y-98748082D01*
X135746295Y-98902860D01*
X135839376Y-99042166D01*
X135843211Y-99046839D01*
X135870522Y-99111150D01*
X135858728Y-99180017D01*
X135811574Y-99231575D01*
X135747355Y-99249500D01*
X120426082Y-99249500D01*
X120404953Y-99253703D01*
X120398684Y-99254950D01*
X120329093Y-99248718D01*
X120273918Y-99205852D01*
X120250677Y-99139961D01*
X120250500Y-99133331D01*
X120250500Y-79862229D01*
X120270185Y-79795190D01*
X120286819Y-79774548D01*
X120645139Y-79416228D01*
X122149500Y-79416228D01*
X122149500Y-79583771D01*
X122182182Y-79748074D01*
X122182184Y-79748082D01*
X122240061Y-79887808D01*
X122249500Y-79935261D01*
X122249500Y-82073918D01*
X122249500Y-82073920D01*
X122249499Y-82073920D01*
X122278340Y-82218907D01*
X122278343Y-82218917D01*
X122334913Y-82355489D01*
X122334914Y-82355491D01*
X122334916Y-82355495D01*
X122347613Y-82374498D01*
X122347614Y-82374501D01*
X122417046Y-82478414D01*
X122417052Y-82478421D01*
X124713181Y-84774549D01*
X124746666Y-84835872D01*
X124749500Y-84862230D01*
X124749500Y-91564739D01*
X124740061Y-91612192D01*
X124682184Y-91751917D01*
X124682182Y-91751925D01*
X124649500Y-91916228D01*
X124649500Y-92083771D01*
X124682182Y-92248074D01*
X124682184Y-92248082D01*
X124740061Y-92387808D01*
X124749500Y-92435261D01*
X124749500Y-96600331D01*
X124729815Y-96667370D01*
X124677011Y-96713125D01*
X124672954Y-96714892D01*
X124597137Y-96746296D01*
X124457837Y-96839373D01*
X124339373Y-96957837D01*
X124246295Y-97097139D01*
X124182184Y-97251917D01*
X124182182Y-97251925D01*
X124149500Y-97416228D01*
X124149500Y-97583771D01*
X124182182Y-97748074D01*
X124182184Y-97748082D01*
X124246295Y-97902860D01*
X124339373Y-98042162D01*
X124457837Y-98160626D01*
X124550494Y-98222537D01*
X124597137Y-98253703D01*
X124751918Y-98317816D01*
X124916228Y-98350499D01*
X124916232Y-98350500D01*
X124916233Y-98350500D01*
X125083768Y-98350500D01*
X125083769Y-98350499D01*
X125248082Y-98317816D01*
X125402863Y-98253703D01*
X125542162Y-98160626D01*
X125660626Y-98042162D01*
X125753703Y-97902863D01*
X125811582Y-97763130D01*
X125838456Y-97722910D01*
X126082952Y-97478416D01*
X126132186Y-97404729D01*
X126165084Y-97355495D01*
X126221658Y-97218913D01*
X126245881Y-97097139D01*
X126250500Y-97073920D01*
X126250500Y-92435261D01*
X126259939Y-92387808D01*
X126317816Y-92248082D01*
X126350500Y-92083767D01*
X126350500Y-91916233D01*
X126317816Y-91751918D01*
X126259938Y-91612191D01*
X126250500Y-91564739D01*
X126250500Y-84426079D01*
X126221659Y-84281092D01*
X126221658Y-84281091D01*
X126221658Y-84281087D01*
X126207984Y-84248074D01*
X126165087Y-84144511D01*
X126165083Y-84144504D01*
X126165079Y-84144498D01*
X126124500Y-84083767D01*
X126082952Y-84021584D01*
X124977596Y-82916228D01*
X134649500Y-82916228D01*
X134649500Y-83083771D01*
X134682182Y-83248074D01*
X134682184Y-83248082D01*
X134746295Y-83402860D01*
X134839373Y-83542162D01*
X134957837Y-83660626D01*
X135001748Y-83689966D01*
X135097137Y-83753703D01*
X135251918Y-83817816D01*
X135416228Y-83850499D01*
X135416232Y-83850500D01*
X135416233Y-83850500D01*
X135583768Y-83850500D01*
X135583769Y-83850499D01*
X135748082Y-83817816D01*
X135887808Y-83759938D01*
X135935261Y-83750500D01*
X138637770Y-83750500D01*
X138704809Y-83770185D01*
X138725451Y-83786819D01*
X139713181Y-84774548D01*
X139727884Y-84801475D01*
X139744477Y-84827294D01*
X139745368Y-84833494D01*
X139746666Y-84835871D01*
X139749500Y-84862229D01*
X139749500Y-85064739D01*
X139740061Y-85112192D01*
X139682184Y-85251917D01*
X139682182Y-85251925D01*
X139649500Y-85416228D01*
X139649500Y-85583771D01*
X139682182Y-85748074D01*
X139682184Y-85748082D01*
X139746295Y-85902860D01*
X139839373Y-86042162D01*
X139957837Y-86160626D01*
X140050494Y-86222537D01*
X140097137Y-86253703D01*
X140251918Y-86317816D01*
X140416228Y-86350499D01*
X140416232Y-86350500D01*
X140416233Y-86350500D01*
X140583768Y-86350500D01*
X140583769Y-86350499D01*
X140748082Y-86317816D01*
X140902863Y-86253703D01*
X141042162Y-86160626D01*
X141160626Y-86042162D01*
X141253703Y-85902863D01*
X141317816Y-85748082D01*
X141350500Y-85583767D01*
X141350500Y-85416233D01*
X141317816Y-85251918D01*
X141259938Y-85112191D01*
X141250500Y-85064739D01*
X141250500Y-84426079D01*
X141221659Y-84281092D01*
X141221658Y-84281091D01*
X141221658Y-84281087D01*
X141207984Y-84248074D01*
X141165087Y-84144511D01*
X141165080Y-84144498D01*
X141082952Y-84021585D01*
X141082950Y-84021583D01*
X140978416Y-83917049D01*
X140713689Y-83652322D01*
X140086354Y-83024986D01*
X143837501Y-83024986D01*
X143847994Y-83127697D01*
X143903141Y-83294119D01*
X143903143Y-83294124D01*
X143995184Y-83443345D01*
X144119154Y-83567315D01*
X144268375Y-83659356D01*
X144268380Y-83659358D01*
X144434802Y-83714505D01*
X144434809Y-83714506D01*
X144537519Y-83724999D01*
X144674999Y-83724999D01*
X144675000Y-83724998D01*
X144675000Y-82750000D01*
X143837501Y-82750000D01*
X143837501Y-83024986D01*
X140086354Y-83024986D01*
X139847688Y-82786319D01*
X139478421Y-82417052D01*
X139478414Y-82417046D01*
X139404729Y-82367812D01*
X139404729Y-82367813D01*
X139355491Y-82334913D01*
X139218917Y-82278343D01*
X139218907Y-82278340D01*
X139073920Y-82249500D01*
X139073918Y-82249500D01*
X135935261Y-82249500D01*
X135887808Y-82240061D01*
X135748082Y-82182184D01*
X135748074Y-82182182D01*
X135583771Y-82149500D01*
X135583767Y-82149500D01*
X135416233Y-82149500D01*
X135416228Y-82149500D01*
X135251925Y-82182182D01*
X135251917Y-82182184D01*
X135097139Y-82246295D01*
X134957837Y-82339373D01*
X134839373Y-82457837D01*
X134746295Y-82597139D01*
X134682184Y-82751917D01*
X134682182Y-82751925D01*
X134649500Y-82916228D01*
X124977596Y-82916228D01*
X123786819Y-81725451D01*
X123753334Y-81664128D01*
X123750500Y-81637770D01*
X123750500Y-79935261D01*
X123759939Y-79887808D01*
X123773324Y-79855493D01*
X123817816Y-79748082D01*
X123850500Y-79583767D01*
X123850500Y-79416233D01*
X123817816Y-79251918D01*
X123753703Y-79097137D01*
X123703218Y-79021581D01*
X123660626Y-78957837D01*
X123542162Y-78839373D01*
X123402860Y-78746295D01*
X123248082Y-78682184D01*
X123248074Y-78682182D01*
X123083771Y-78649500D01*
X123083767Y-78649500D01*
X122916233Y-78649500D01*
X122916228Y-78649500D01*
X122751925Y-78682182D01*
X122751917Y-78682184D01*
X122597139Y-78746295D01*
X122457837Y-78839373D01*
X122339373Y-78957837D01*
X122246295Y-79097139D01*
X122182184Y-79251917D01*
X122182182Y-79251925D01*
X122149500Y-79416228D01*
X120645139Y-79416228D01*
X121774548Y-78286819D01*
X121835871Y-78253334D01*
X121862229Y-78250500D01*
X131926082Y-78250500D01*
X133426083Y-78250500D01*
X133573917Y-78250500D01*
X136637770Y-78250500D01*
X136704809Y-78270185D01*
X136725451Y-78286819D01*
X139417049Y-80978416D01*
X139521584Y-81082951D01*
X139521587Y-81082953D01*
X139521588Y-81082954D01*
X139644503Y-81165083D01*
X139644506Y-81165085D01*
X139694665Y-81185861D01*
X139701080Y-81188518D01*
X139781088Y-81221659D01*
X139897241Y-81244763D01*
X139920380Y-81249365D01*
X139926081Y-81250500D01*
X139926082Y-81250500D01*
X139926083Y-81250500D01*
X140073918Y-81250500D01*
X144001977Y-81250500D01*
X144069016Y-81270185D01*
X144114771Y-81322989D01*
X144124715Y-81392147D01*
X144095690Y-81455703D01*
X144089658Y-81462181D01*
X143995184Y-81556654D01*
X143903143Y-81705875D01*
X143903141Y-81705880D01*
X143847994Y-81872302D01*
X143847993Y-81872309D01*
X143837500Y-81975013D01*
X143837500Y-82250000D01*
X144801000Y-82250000D01*
X144868039Y-82269685D01*
X144913794Y-82322489D01*
X144925000Y-82374000D01*
X144925000Y-82500000D01*
X145051000Y-82500000D01*
X145118039Y-82519685D01*
X145163794Y-82572489D01*
X145175000Y-82624000D01*
X145175000Y-83724999D01*
X145312472Y-83724999D01*
X145312486Y-83724998D01*
X145415197Y-83714505D01*
X145581619Y-83659358D01*
X145581624Y-83659356D01*
X145730845Y-83567315D01*
X145854818Y-83443342D01*
X145856665Y-83440348D01*
X145858469Y-83438724D01*
X145859298Y-83437677D01*
X145859476Y-83437818D01*
X145908610Y-83393621D01*
X145977573Y-83382396D01*
X146041656Y-83410236D01*
X146051825Y-83419741D01*
X146060873Y-83429203D01*
X146069788Y-83443656D01*
X146181941Y-83555809D01*
X146182903Y-83556815D01*
X146198344Y-83586661D01*
X146214450Y-83616156D01*
X146214347Y-83617592D01*
X146215009Y-83618871D01*
X146211863Y-83652322D01*
X146209466Y-83685848D01*
X146208474Y-83688367D01*
X146208468Y-83688434D01*
X146208427Y-83688485D01*
X146207845Y-83689966D01*
X146182184Y-83751916D01*
X146182181Y-83751925D01*
X146149500Y-83916228D01*
X146149500Y-84083768D01*
X146182182Y-84248074D01*
X146182184Y-84248082D01*
X146246295Y-84402860D01*
X146339373Y-84542162D01*
X146457837Y-84660626D01*
X146550494Y-84722537D01*
X146597137Y-84753703D01*
X146751918Y-84817816D01*
X146916228Y-84850499D01*
X146916232Y-84850500D01*
X146916233Y-84850500D01*
X147083768Y-84850500D01*
X147083769Y-84850499D01*
X147248082Y-84817816D01*
X147402863Y-84753703D01*
X147542162Y-84660626D01*
X147660626Y-84542162D01*
X147753703Y-84402863D01*
X147817816Y-84248082D01*
X147850500Y-84083767D01*
X147850500Y-83916233D01*
X147817816Y-83751918D01*
X147792153Y-83689963D01*
X147784685Y-83620499D01*
X147815959Y-83558019D01*
X147818979Y-83554888D01*
X147930212Y-83443656D01*
X148022314Y-83294334D01*
X148077499Y-83127797D01*
X148088000Y-83025009D01*
X148087999Y-81974992D01*
X148077499Y-81872203D01*
X148022314Y-81705666D01*
X147930212Y-81556344D01*
X147836049Y-81462181D01*
X147802564Y-81400858D01*
X147807548Y-81331166D01*
X147849420Y-81275233D01*
X147914884Y-81250816D01*
X147923730Y-81250500D01*
X147926082Y-81250500D01*
X165637770Y-81250500D01*
X165704809Y-81270185D01*
X165725451Y-81286819D01*
X167713181Y-83274549D01*
X167746666Y-83335872D01*
X167749500Y-83362230D01*
X167749500Y-94064739D01*
X167740061Y-94112192D01*
X167682184Y-94251917D01*
X167682182Y-94251925D01*
X167649500Y-94416228D01*
X167649500Y-94583771D01*
X167682182Y-94748074D01*
X167682184Y-94748082D01*
X167740061Y-94887808D01*
X167749500Y-94935261D01*
X167749500Y-97328752D01*
X167729815Y-97395791D01*
X167713848Y-97415761D01*
X167703339Y-97426430D01*
X167693844Y-97432288D01*
X167569788Y-97556344D01*
X167560390Y-97571580D01*
X167550554Y-97581568D01*
X167531770Y-97592011D01*
X167515791Y-97606383D01*
X167501840Y-97608652D01*
X167489489Y-97615520D01*
X167468042Y-97614150D01*
X167446828Y-97617602D01*
X167433864Y-97611968D01*
X167419761Y-97611068D01*
X167402459Y-97598321D01*
X167382747Y-97589755D01*
X167368476Y-97573284D01*
X167363509Y-97569625D01*
X167362094Y-97565918D01*
X167356668Y-97559656D01*
X167354819Y-97556659D01*
X167354816Y-97556655D01*
X167230845Y-97432684D01*
X167081624Y-97340643D01*
X167081619Y-97340641D01*
X166915197Y-97285494D01*
X166915190Y-97285493D01*
X166812486Y-97275000D01*
X166675000Y-97275000D01*
X166675000Y-99724999D01*
X166812472Y-99724999D01*
X166812486Y-99724998D01*
X166915197Y-99714505D01*
X167081619Y-99659358D01*
X167081624Y-99659356D01*
X167230845Y-99567315D01*
X167354818Y-99443342D01*
X167356665Y-99440348D01*
X167358469Y-99438724D01*
X167359298Y-99437677D01*
X167359476Y-99437818D01*
X167408610Y-99393621D01*
X167477573Y-99382396D01*
X167541656Y-99410236D01*
X167551904Y-99419823D01*
X167560902Y-99429250D01*
X167569788Y-99443656D01*
X167676711Y-99550579D01*
X167677698Y-99551613D01*
X167693093Y-99581437D01*
X167709166Y-99610872D01*
X167709397Y-99613021D01*
X167709747Y-99613699D01*
X167709617Y-99615067D01*
X167712000Y-99637230D01*
X167712000Y-100175270D01*
X167692315Y-100242309D01*
X167675681Y-100262951D01*
X166225451Y-101713181D01*
X166164128Y-101746666D01*
X166137770Y-101749500D01*
X165435261Y-101749500D01*
X165387808Y-101740061D01*
X165248082Y-101682184D01*
X165248074Y-101682182D01*
X165083771Y-101649500D01*
X165083767Y-101649500D01*
X164916233Y-101649500D01*
X164916228Y-101649500D01*
X164751925Y-101682182D01*
X164751917Y-101682184D01*
X164597139Y-101746295D01*
X164457837Y-101839373D01*
X164339373Y-101957837D01*
X164246295Y-102097139D01*
X164182184Y-102251917D01*
X164182182Y-102251925D01*
X164149500Y-102416228D01*
X164149500Y-102583771D01*
X164182182Y-102748074D01*
X164182184Y-102748082D01*
X164246295Y-102902860D01*
X164339373Y-103042162D01*
X164457837Y-103160626D01*
X164549175Y-103221656D01*
X164597137Y-103253703D01*
X164751918Y-103317816D01*
X164916228Y-103350499D01*
X164916232Y-103350500D01*
X164916233Y-103350500D01*
X165083768Y-103350500D01*
X165083769Y-103350499D01*
X165248082Y-103317816D01*
X165387808Y-103259938D01*
X165435261Y-103250500D01*
X166573920Y-103250500D01*
X166671462Y-103231096D01*
X166718913Y-103221658D01*
X166855495Y-103165084D01*
X166914735Y-103125501D01*
X166978416Y-103082952D01*
X169045451Y-101015916D01*
X169105475Y-100926083D01*
X169127584Y-100892995D01*
X169184158Y-100756413D01*
X169202325Y-100665083D01*
X169213000Y-100611420D01*
X169213000Y-99694377D01*
X169232685Y-99627338D01*
X169271906Y-99588837D01*
X169283904Y-99581437D01*
X169306156Y-99567712D01*
X169430212Y-99443656D01*
X169522314Y-99294334D01*
X169577499Y-99127797D01*
X169588000Y-99025009D01*
X169587999Y-97974992D01*
X169586568Y-97960987D01*
X169577499Y-97872203D01*
X169577498Y-97872200D01*
X169522314Y-97705666D01*
X169430212Y-97556344D01*
X169306156Y-97432288D01*
X169300489Y-97427807D01*
X169301930Y-97425984D01*
X169262675Y-97382335D01*
X169250500Y-97328752D01*
X169250500Y-94935261D01*
X169259939Y-94887808D01*
X169317816Y-94748082D01*
X169350500Y-94583767D01*
X169350500Y-94416233D01*
X169317816Y-94251918D01*
X169259938Y-94112191D01*
X169250500Y-94064739D01*
X169250500Y-82926079D01*
X169221659Y-82781092D01*
X169221658Y-82781091D01*
X169221658Y-82781087D01*
X169209576Y-82751918D01*
X169165087Y-82644511D01*
X169165085Y-82644507D01*
X169165084Y-82644505D01*
X169123955Y-82582951D01*
X169082952Y-82521584D01*
X167783027Y-81221659D01*
X166478421Y-79917052D01*
X166478420Y-79917051D01*
X166464359Y-79907656D01*
X166386292Y-79855494D01*
X166355495Y-79834916D01*
X166355488Y-79834912D01*
X166218917Y-79778343D01*
X166218907Y-79778340D01*
X166073920Y-79749500D01*
X166073918Y-79749500D01*
X149111230Y-79749500D01*
X149044191Y-79729815D01*
X148998436Y-79677011D01*
X148988492Y-79607853D01*
X149017517Y-79544297D01*
X149023549Y-79537819D01*
X151082948Y-77478419D01*
X151082947Y-77478419D01*
X151082951Y-77478416D01*
X151165084Y-77355495D01*
X151221658Y-77218913D01*
X151231096Y-77171462D01*
X151250500Y-77073920D01*
X151250500Y-76912781D01*
X162239500Y-76912781D01*
X162239500Y-77087218D01*
X162273527Y-77258283D01*
X162273529Y-77258291D01*
X162340278Y-77419439D01*
X162340283Y-77419448D01*
X162437186Y-77564473D01*
X162437189Y-77564477D01*
X162560522Y-77687810D01*
X162560526Y-77687813D01*
X162705551Y-77784716D01*
X162705557Y-77784719D01*
X162705558Y-77784720D01*
X162866709Y-77851471D01*
X163037781Y-77885499D01*
X163037785Y-77885500D01*
X163037786Y-77885500D01*
X163212215Y-77885500D01*
X163212216Y-77885499D01*
X163383291Y-77851471D01*
X163544442Y-77784720D01*
X163689474Y-77687813D01*
X163812813Y-77564474D01*
X163909720Y-77419442D01*
X163976471Y-77258291D01*
X164010500Y-77087214D01*
X164010500Y-76912786D01*
X163976471Y-76741709D01*
X163909720Y-76580558D01*
X163909719Y-76580557D01*
X163909716Y-76580551D01*
X163812813Y-76435526D01*
X163812810Y-76435522D01*
X163689477Y-76312189D01*
X163689473Y-76312186D01*
X163544448Y-76215283D01*
X163544439Y-76215278D01*
X163383291Y-76148529D01*
X163383283Y-76148527D01*
X163212218Y-76114500D01*
X163212214Y-76114500D01*
X163037786Y-76114500D01*
X163037781Y-76114500D01*
X162866716Y-76148527D01*
X162866708Y-76148529D01*
X162705560Y-76215278D01*
X162705551Y-76215283D01*
X162560526Y-76312186D01*
X162560522Y-76312189D01*
X162437189Y-76435522D01*
X162437186Y-76435526D01*
X162340283Y-76580551D01*
X162340278Y-76580560D01*
X162273529Y-76741708D01*
X162273527Y-76741716D01*
X162239500Y-76912781D01*
X151250500Y-76912781D01*
X151250500Y-75118557D01*
X151270185Y-75051518D01*
X151309401Y-75013020D01*
X151443656Y-74930212D01*
X151567712Y-74806156D01*
X151659814Y-74656834D01*
X151714999Y-74490297D01*
X151725500Y-74387509D01*
X151725499Y-73612492D01*
X151725389Y-73611418D01*
X151714999Y-73509703D01*
X151714997Y-73509698D01*
X151707092Y-73485841D01*
X151707091Y-73485839D01*
X151695210Y-73449984D01*
X163574500Y-73449984D01*
X163574500Y-74550015D01*
X163585000Y-74652795D01*
X163585001Y-74652797D01*
X163611028Y-74731342D01*
X163640186Y-74819335D01*
X163640187Y-74819337D01*
X163732286Y-74968651D01*
X163732289Y-74968655D01*
X163856344Y-75092710D01*
X163856348Y-75092713D01*
X164005662Y-75184812D01*
X164005664Y-75184813D01*
X164005666Y-75184814D01*
X164172203Y-75239999D01*
X164274992Y-75250500D01*
X164274997Y-75250500D01*
X165895003Y-75250500D01*
X165895008Y-75250500D01*
X165997797Y-75239999D01*
X166164334Y-75184814D01*
X166313655Y-75092711D01*
X166437711Y-74968655D01*
X166529814Y-74819334D01*
X166584999Y-74652797D01*
X166595500Y-74550008D01*
X166595500Y-73449992D01*
X166584999Y-73347203D01*
X166529814Y-73180666D01*
X166510590Y-73149500D01*
X166437713Y-73031348D01*
X166437710Y-73031344D01*
X166313655Y-72907289D01*
X166313651Y-72907286D01*
X166164337Y-72815187D01*
X166164335Y-72815186D01*
X166081065Y-72787593D01*
X165997797Y-72760001D01*
X165997795Y-72760000D01*
X165895015Y-72749500D01*
X165895008Y-72749500D01*
X164274992Y-72749500D01*
X164274984Y-72749500D01*
X164172204Y-72760000D01*
X164172203Y-72760001D01*
X164005664Y-72815186D01*
X164005662Y-72815187D01*
X163856348Y-72907286D01*
X163856344Y-72907289D01*
X163732289Y-73031344D01*
X163732286Y-73031348D01*
X163640187Y-73180662D01*
X163640186Y-73180664D01*
X163585001Y-73347203D01*
X163585000Y-73347204D01*
X163574500Y-73449984D01*
X151695210Y-73449984D01*
X151659814Y-73343166D01*
X151567712Y-73193844D01*
X151443656Y-73069788D01*
X151440342Y-73067743D01*
X151438546Y-73065748D01*
X151437989Y-73065307D01*
X151438064Y-73065211D01*
X151393618Y-73015797D01*
X151382397Y-72946834D01*
X151410240Y-72882752D01*
X151440348Y-72856665D01*
X151443342Y-72854818D01*
X151567315Y-72730845D01*
X151659356Y-72581624D01*
X151659358Y-72581619D01*
X151714505Y-72415197D01*
X151714506Y-72415190D01*
X151724999Y-72312486D01*
X151725000Y-72312473D01*
X151725000Y-72175000D01*
X149275001Y-72175000D01*
X149275001Y-72312486D01*
X149285494Y-72415197D01*
X149340641Y-72581619D01*
X149340643Y-72581624D01*
X149432684Y-72730845D01*
X149556655Y-72854816D01*
X149556659Y-72854819D01*
X149559656Y-72856668D01*
X149561279Y-72858472D01*
X149562323Y-72859298D01*
X149562181Y-72859476D01*
X149606381Y-72908616D01*
X149617602Y-72977579D01*
X149589759Y-73041661D01*
X149581568Y-73050554D01*
X149571580Y-73060390D01*
X149556344Y-73069788D01*
X149432288Y-73193844D01*
X149426430Y-73203339D01*
X149415761Y-73213848D01*
X149397631Y-73223568D01*
X149382335Y-73237325D01*
X149364355Y-73241410D01*
X149354184Y-73246864D01*
X149343928Y-73246051D01*
X149328752Y-73249500D01*
X148935261Y-73249500D01*
X148887808Y-73240061D01*
X148748082Y-73182184D01*
X148748074Y-73182182D01*
X148583771Y-73149500D01*
X148583767Y-73149500D01*
X148416233Y-73149500D01*
X148416228Y-73149500D01*
X148251925Y-73182182D01*
X148251917Y-73182184D01*
X148097139Y-73246295D01*
X147957837Y-73339373D01*
X147839373Y-73457837D01*
X147746295Y-73597139D01*
X147682184Y-73751917D01*
X147682182Y-73751925D01*
X147649500Y-73916228D01*
X147649500Y-74083771D01*
X147682182Y-74248074D01*
X147682184Y-74248082D01*
X147746295Y-74402860D01*
X147839373Y-74542162D01*
X147957837Y-74660626D01*
X148050494Y-74722537D01*
X148097137Y-74753703D01*
X148097138Y-74753703D01*
X148097139Y-74753704D01*
X148132201Y-74768227D01*
X148251918Y-74817816D01*
X148416228Y-74850499D01*
X148416232Y-74850500D01*
X148416233Y-74850500D01*
X148583768Y-74850500D01*
X148583769Y-74850499D01*
X148748082Y-74817816D01*
X148887808Y-74759938D01*
X148935261Y-74750500D01*
X149328752Y-74750500D01*
X149395791Y-74770185D01*
X149426531Y-74801497D01*
X149427807Y-74800489D01*
X149432288Y-74806156D01*
X149556344Y-74930212D01*
X149690597Y-75013019D01*
X149737321Y-75064965D01*
X149749500Y-75118557D01*
X149749500Y-76637770D01*
X149729815Y-76704809D01*
X149713181Y-76725451D01*
X146725451Y-79713181D01*
X146664128Y-79746666D01*
X146637770Y-79749500D01*
X140362229Y-79749500D01*
X140295190Y-79729815D01*
X140274548Y-79713181D01*
X138149048Y-77587680D01*
X138115563Y-77526357D01*
X138120547Y-77456665D01*
X138149048Y-77412318D01*
X139237048Y-76324319D01*
X139298371Y-76290834D01*
X139324729Y-76288000D01*
X139828752Y-76288000D01*
X139895791Y-76307685D01*
X139926531Y-76338997D01*
X139927807Y-76337989D01*
X139932288Y-76343656D01*
X140056344Y-76467712D01*
X140190597Y-76550519D01*
X140237321Y-76602465D01*
X140249500Y-76656057D01*
X140249500Y-78064739D01*
X140240061Y-78112192D01*
X140182184Y-78251917D01*
X140182182Y-78251925D01*
X140149500Y-78416228D01*
X140149500Y-78583771D01*
X140182182Y-78748074D01*
X140182184Y-78748082D01*
X140246295Y-78902860D01*
X140339373Y-79042162D01*
X140457837Y-79160626D01*
X140550494Y-79222537D01*
X140597137Y-79253703D01*
X140751918Y-79317816D01*
X140916228Y-79350499D01*
X140916232Y-79350500D01*
X140916233Y-79350500D01*
X141083768Y-79350500D01*
X141083769Y-79350499D01*
X141248082Y-79317816D01*
X141402863Y-79253703D01*
X141542162Y-79160626D01*
X141558285Y-79144503D01*
X141660625Y-79042164D01*
X141660626Y-79042162D01*
X141674378Y-79021581D01*
X141753703Y-78902863D01*
X141817816Y-78748082D01*
X141850500Y-78583767D01*
X141850500Y-78416233D01*
X141817816Y-78251918D01*
X141759938Y-78112191D01*
X141750500Y-78064739D01*
X141750500Y-76656057D01*
X141770185Y-76589018D01*
X141809401Y-76550520D01*
X141943656Y-76467712D01*
X142067712Y-76343656D01*
X142159814Y-76194334D01*
X142214999Y-76027797D01*
X142225500Y-75925009D01*
X142225499Y-75149992D01*
X142214999Y-75047203D01*
X142159814Y-74880666D01*
X142067712Y-74731344D01*
X141943656Y-74607288D01*
X141940342Y-74605243D01*
X141938546Y-74603248D01*
X141937989Y-74602807D01*
X141938064Y-74602711D01*
X141893618Y-74553297D01*
X141882397Y-74484334D01*
X141910240Y-74420252D01*
X141940348Y-74394165D01*
X141943342Y-74392318D01*
X142067315Y-74268345D01*
X142159356Y-74119124D01*
X142159358Y-74119119D01*
X142214505Y-73952697D01*
X142214506Y-73952690D01*
X142224999Y-73849986D01*
X142225000Y-73849973D01*
X142225000Y-73712500D01*
X139775001Y-73712500D01*
X139775001Y-73849986D01*
X139785494Y-73952697D01*
X139840641Y-74119119D01*
X139840643Y-74119124D01*
X139932684Y-74268345D01*
X140056655Y-74392316D01*
X140056659Y-74392319D01*
X140059656Y-74394168D01*
X140061279Y-74395972D01*
X140062323Y-74396798D01*
X140062181Y-74396976D01*
X140106381Y-74446116D01*
X140117602Y-74515079D01*
X140089759Y-74579161D01*
X140081568Y-74588054D01*
X140071580Y-74597890D01*
X140056344Y-74607288D01*
X139932288Y-74731344D01*
X139926430Y-74740839D01*
X139915761Y-74751348D01*
X139897631Y-74761068D01*
X139882335Y-74774825D01*
X139864355Y-74778910D01*
X139854184Y-74784364D01*
X139843928Y-74783551D01*
X139828752Y-74787000D01*
X138888580Y-74787000D01*
X138743592Y-74815840D01*
X138743582Y-74815843D01*
X138607011Y-74872412D01*
X138606996Y-74872420D01*
X138572469Y-74895492D01*
X138572467Y-74895494D01*
X138484081Y-74954550D01*
X138484080Y-74954551D01*
X136725451Y-76713181D01*
X136664128Y-76746666D01*
X136637770Y-76749500D01*
X135611230Y-76749500D01*
X135544191Y-76729815D01*
X135498436Y-76677011D01*
X135488492Y-76607853D01*
X135517517Y-76544297D01*
X135523549Y-76537819D01*
X138082948Y-73978419D01*
X138082947Y-73978419D01*
X138082951Y-73978416D01*
X138165084Y-73855495D01*
X138221658Y-73718913D01*
X138242827Y-73612492D01*
X138250500Y-73573920D01*
X138250500Y-73075013D01*
X139775000Y-73075013D01*
X139775000Y-73212500D01*
X140750000Y-73212500D01*
X141250000Y-73212500D01*
X142224999Y-73212500D01*
X142224999Y-73075028D01*
X142224998Y-73075013D01*
X142214505Y-72972302D01*
X142159358Y-72805880D01*
X142159356Y-72805875D01*
X142067315Y-72656654D01*
X141943345Y-72532684D01*
X141794124Y-72440643D01*
X141794119Y-72440641D01*
X141627697Y-72385494D01*
X141627690Y-72385493D01*
X141524986Y-72375000D01*
X141250000Y-72375000D01*
X141250000Y-73212500D01*
X140750000Y-73212500D01*
X140750000Y-72375000D01*
X140475029Y-72375000D01*
X140475012Y-72375001D01*
X140372302Y-72385494D01*
X140205880Y-72440641D01*
X140205875Y-72440643D01*
X140056654Y-72532684D01*
X139932684Y-72656654D01*
X139840643Y-72805875D01*
X139840641Y-72805880D01*
X139785494Y-72972302D01*
X139785493Y-72972309D01*
X139775000Y-73075013D01*
X138250500Y-73075013D01*
X138250500Y-71537513D01*
X149275000Y-71537513D01*
X149275000Y-71675000D01*
X150250000Y-71675000D01*
X150750000Y-71675000D01*
X151724999Y-71675000D01*
X151724999Y-71537528D01*
X151724998Y-71537513D01*
X151714505Y-71434802D01*
X151659358Y-71268380D01*
X151659356Y-71268375D01*
X151567315Y-71119154D01*
X151443345Y-70995184D01*
X151294124Y-70903143D01*
X151294119Y-70903141D01*
X151127697Y-70847994D01*
X151127690Y-70847993D01*
X151024986Y-70837500D01*
X150750000Y-70837500D01*
X150750000Y-71675000D01*
X150250000Y-71675000D01*
X150250000Y-70837500D01*
X149975029Y-70837500D01*
X149975012Y-70837501D01*
X149872302Y-70847994D01*
X149705880Y-70903141D01*
X149705875Y-70903143D01*
X149556654Y-70995184D01*
X149432684Y-71119154D01*
X149340643Y-71268375D01*
X149340641Y-71268380D01*
X149285494Y-71434802D01*
X149285493Y-71434809D01*
X149275000Y-71537513D01*
X138250500Y-71537513D01*
X138250500Y-69111230D01*
X138270185Y-69044191D01*
X138322989Y-68998436D01*
X138392147Y-68988492D01*
X138455703Y-69017517D01*
X138462181Y-69023549D01*
X139417049Y-69978416D01*
X139480795Y-70042162D01*
X139521585Y-70082952D01*
X139644498Y-70165080D01*
X139644511Y-70165087D01*
X139686250Y-70182375D01*
X139693441Y-70185354D01*
X139781088Y-70221659D01*
X139897241Y-70244763D01*
X139917930Y-70248878D01*
X139926081Y-70250500D01*
X139926082Y-70250500D01*
X139926083Y-70250500D01*
X140073918Y-70250500D01*
X145064739Y-70250500D01*
X145112191Y-70259938D01*
X145251918Y-70317816D01*
X145387215Y-70344728D01*
X145416228Y-70350499D01*
X145416232Y-70350500D01*
X145416233Y-70350500D01*
X145583768Y-70350500D01*
X145583769Y-70350499D01*
X145748082Y-70317816D01*
X145902863Y-70253703D01*
X146042162Y-70160626D01*
X146160626Y-70042162D01*
X146253703Y-69902863D01*
X146317816Y-69748082D01*
X146350500Y-69583767D01*
X146350500Y-69416233D01*
X146317816Y-69251918D01*
X146253703Y-69097137D01*
X146222537Y-69050494D01*
X146160626Y-68957837D01*
X146042162Y-68839373D01*
X145902860Y-68746295D01*
X145748082Y-68682184D01*
X145748074Y-68682182D01*
X145583771Y-68649500D01*
X145583767Y-68649500D01*
X145416233Y-68649500D01*
X145416228Y-68649500D01*
X145251925Y-68682182D01*
X145251917Y-68682184D01*
X145112192Y-68740061D01*
X145064739Y-68749500D01*
X140362229Y-68749500D01*
X140295190Y-68729815D01*
X140274548Y-68713181D01*
X139786819Y-68225451D01*
X139753334Y-68164128D01*
X139750500Y-68137770D01*
X139750500Y-62935261D01*
X139759939Y-62887808D01*
X139770979Y-62861156D01*
X139817816Y-62748082D01*
X139850500Y-62583767D01*
X139850500Y-62416233D01*
X139850499Y-62416228D01*
X143149500Y-62416228D01*
X143149500Y-62583771D01*
X143182182Y-62748074D01*
X143182184Y-62748082D01*
X143240061Y-62887808D01*
X143249500Y-62935261D01*
X143249500Y-63573918D01*
X143249500Y-63573920D01*
X143249499Y-63573920D01*
X143278340Y-63718907D01*
X143278343Y-63718917D01*
X143334913Y-63855490D01*
X143334916Y-63855495D01*
X143347725Y-63874664D01*
X143347726Y-63874669D01*
X143347728Y-63874669D01*
X143388213Y-63935261D01*
X143417051Y-63978420D01*
X143417052Y-63978421D01*
X145003106Y-65564473D01*
X145417048Y-65978415D01*
X145417049Y-65978416D01*
X145512551Y-66073918D01*
X145521585Y-66082952D01*
X145644498Y-66165080D01*
X145644511Y-66165087D01*
X145781082Y-66221656D01*
X145781087Y-66221658D01*
X145781091Y-66221658D01*
X145781092Y-66221659D01*
X145926079Y-66250500D01*
X145926082Y-66250500D01*
X145926083Y-66250500D01*
X146073917Y-66250500D01*
X151426082Y-66250500D01*
X153637770Y-66250500D01*
X153704809Y-66270185D01*
X153725451Y-66286819D01*
X156339491Y-68900858D01*
X158917049Y-71478416D01*
X159021584Y-71582951D01*
X159021587Y-71582953D01*
X159021588Y-71582954D01*
X159144503Y-71665083D01*
X159144506Y-71665085D01*
X159168444Y-71675000D01*
X159201080Y-71688518D01*
X159281088Y-71721659D01*
X159397241Y-71744763D01*
X159420380Y-71749365D01*
X159426081Y-71750500D01*
X159426082Y-71750500D01*
X159426083Y-71750500D01*
X159573918Y-71750500D01*
X163761386Y-71750500D01*
X163828425Y-71770185D01*
X163861702Y-71801612D01*
X163871172Y-71814646D01*
X164010354Y-71953828D01*
X164169595Y-72069524D01*
X164252455Y-72111743D01*
X164344970Y-72158882D01*
X164344972Y-72158882D01*
X164344975Y-72158884D01*
X164394575Y-72175000D01*
X164532173Y-72219709D01*
X164726578Y-72250500D01*
X164726583Y-72250500D01*
X165443422Y-72250500D01*
X165637826Y-72219709D01*
X165825025Y-72158884D01*
X166000405Y-72069524D01*
X166159646Y-71953828D01*
X166298828Y-71814646D01*
X166414524Y-71655405D01*
X166503884Y-71480025D01*
X166564709Y-71292826D01*
X166592216Y-71119154D01*
X166595500Y-71098422D01*
X166595500Y-70901577D01*
X166564709Y-70707173D01*
X166503882Y-70519970D01*
X166444210Y-70402857D01*
X166414524Y-70344595D01*
X166298828Y-70185354D01*
X166159646Y-70046172D01*
X166000405Y-69930476D01*
X165825029Y-69841117D01*
X165637826Y-69780290D01*
X165443422Y-69749500D01*
X165443417Y-69749500D01*
X164726583Y-69749500D01*
X164726578Y-69749500D01*
X164532173Y-69780290D01*
X164344970Y-69841117D01*
X164169594Y-69930476D01*
X164078741Y-69996485D01*
X164010354Y-70046172D01*
X164010352Y-70046174D01*
X164010351Y-70046174D01*
X163871171Y-70185354D01*
X163861703Y-70198387D01*
X163806372Y-70241052D01*
X163761386Y-70249500D01*
X159862229Y-70249500D01*
X159795190Y-70229815D01*
X159774548Y-70213181D01*
X158523548Y-68962181D01*
X158490063Y-68900858D01*
X158495047Y-68831166D01*
X158536919Y-68775233D01*
X158602383Y-68750816D01*
X158611229Y-68750500D01*
X163761386Y-68750500D01*
X163828425Y-68770185D01*
X163861702Y-68801612D01*
X163871172Y-68814646D01*
X164010354Y-68953828D01*
X164169595Y-69069524D01*
X164223789Y-69097137D01*
X164344970Y-69158882D01*
X164344972Y-69158882D01*
X164344975Y-69158884D01*
X164416685Y-69182184D01*
X164532173Y-69219709D01*
X164726578Y-69250500D01*
X164726583Y-69250500D01*
X165443422Y-69250500D01*
X165637826Y-69219709D01*
X165825025Y-69158884D01*
X166000405Y-69069524D01*
X166159646Y-68953828D01*
X166298828Y-68814646D01*
X166414524Y-68655405D01*
X166503884Y-68480025D01*
X166564709Y-68292826D01*
X166570905Y-68253704D01*
X166595500Y-68098422D01*
X166595500Y-67901577D01*
X166564709Y-67707173D01*
X166503882Y-67519970D01*
X166414523Y-67344594D01*
X166408186Y-67335872D01*
X166298828Y-67185354D01*
X166159646Y-67046172D01*
X166000405Y-66930476D01*
X165825029Y-66841117D01*
X165637826Y-66780290D01*
X165443422Y-66749500D01*
X165443417Y-66749500D01*
X164726583Y-66749500D01*
X164726578Y-66749500D01*
X164532173Y-66780290D01*
X164344970Y-66841117D01*
X164169594Y-66930476D01*
X164078741Y-66996485D01*
X164010354Y-67046172D01*
X164010352Y-67046174D01*
X164010351Y-67046174D01*
X163871171Y-67185354D01*
X163861703Y-67198387D01*
X163806372Y-67241052D01*
X163761386Y-67249500D01*
X158862229Y-67249500D01*
X158795190Y-67229815D01*
X158774548Y-67213181D01*
X157568868Y-66007501D01*
X156474149Y-64912781D01*
X162239500Y-64912781D01*
X162239500Y-65087218D01*
X162273527Y-65258283D01*
X162273529Y-65258291D01*
X162340278Y-65419439D01*
X162340283Y-65419448D01*
X162437186Y-65564473D01*
X162437189Y-65564477D01*
X162560522Y-65687810D01*
X162560526Y-65687813D01*
X162705551Y-65784716D01*
X162705557Y-65784719D01*
X162705558Y-65784720D01*
X162866709Y-65851471D01*
X163037781Y-65885499D01*
X163037785Y-65885500D01*
X163037786Y-65885500D01*
X163212215Y-65885500D01*
X163212216Y-65885499D01*
X163383291Y-65851471D01*
X163544442Y-65784720D01*
X163689474Y-65687813D01*
X163812813Y-65564474D01*
X163909720Y-65419442D01*
X163976471Y-65258291D01*
X164010500Y-65087214D01*
X164010500Y-64912786D01*
X163976471Y-64741709D01*
X163909720Y-64580558D01*
X163909719Y-64580557D01*
X163909716Y-64580551D01*
X163812813Y-64435526D01*
X163812810Y-64435522D01*
X163689477Y-64312189D01*
X163689473Y-64312186D01*
X163544448Y-64215283D01*
X163544439Y-64215278D01*
X163383291Y-64148529D01*
X163383283Y-64148527D01*
X163212218Y-64114500D01*
X163212214Y-64114500D01*
X163037786Y-64114500D01*
X163037781Y-64114500D01*
X162866716Y-64148527D01*
X162866708Y-64148529D01*
X162705560Y-64215278D01*
X162705551Y-64215283D01*
X162560526Y-64312186D01*
X162560522Y-64312189D01*
X162437189Y-64435522D01*
X162437186Y-64435526D01*
X162340283Y-64580551D01*
X162340278Y-64580560D01*
X162273529Y-64741708D01*
X162273527Y-64741716D01*
X162239500Y-64912781D01*
X156474149Y-64912781D01*
X156338457Y-64777089D01*
X156311581Y-64736866D01*
X156259467Y-64611053D01*
X156253705Y-64597141D01*
X156253704Y-64597139D01*
X156242626Y-64580560D01*
X156219066Y-64545299D01*
X156160626Y-64457837D01*
X156042162Y-64339373D01*
X155902862Y-64246296D01*
X155827046Y-64214892D01*
X155811480Y-64202348D01*
X155793297Y-64194044D01*
X155784832Y-64180873D01*
X155772643Y-64171050D01*
X155766330Y-64152082D01*
X155755523Y-64135266D01*
X155751560Y-64107703D01*
X155750579Y-64104756D01*
X155750500Y-64100331D01*
X155750500Y-63935261D01*
X155759939Y-63887808D01*
X155765381Y-63874669D01*
X155817816Y-63748082D01*
X155850500Y-63583767D01*
X155850500Y-63416233D01*
X155817816Y-63251918D01*
X155753703Y-63097137D01*
X155699584Y-63016142D01*
X155660626Y-62957837D01*
X155542162Y-62839373D01*
X155402860Y-62746295D01*
X155248082Y-62682184D01*
X155248074Y-62682182D01*
X155083771Y-62649500D01*
X155083767Y-62649500D01*
X154916233Y-62649500D01*
X154916228Y-62649500D01*
X154751925Y-62682182D01*
X154751917Y-62682184D01*
X154597139Y-62746295D01*
X154457837Y-62839373D01*
X154339373Y-62957837D01*
X154246295Y-63097139D01*
X154182184Y-63251917D01*
X154182182Y-63251925D01*
X154149500Y-63416228D01*
X154149500Y-63583771D01*
X154182182Y-63748074D01*
X154182184Y-63748082D01*
X154226151Y-63854226D01*
X154233620Y-63923695D01*
X154202345Y-63986174D01*
X154199271Y-63989360D01*
X153475451Y-64713181D01*
X153414128Y-64746666D01*
X153387770Y-64749500D01*
X146362229Y-64749500D01*
X146295190Y-64729815D01*
X146274548Y-64713181D01*
X144786819Y-63225451D01*
X144772115Y-63198523D01*
X144755523Y-63172705D01*
X144754631Y-63166504D01*
X144753334Y-63164128D01*
X144750500Y-63137770D01*
X144750500Y-62935261D01*
X144759939Y-62887808D01*
X144770979Y-62861156D01*
X144817816Y-62748082D01*
X144850500Y-62583767D01*
X144850500Y-62416233D01*
X144817816Y-62251918D01*
X144753703Y-62097137D01*
X144722537Y-62050494D01*
X144660626Y-61957837D01*
X144542162Y-61839373D01*
X144402860Y-61746295D01*
X144248082Y-61682184D01*
X144248074Y-61682182D01*
X144083771Y-61649500D01*
X144083767Y-61649500D01*
X143916233Y-61649500D01*
X143916228Y-61649500D01*
X143751925Y-61682182D01*
X143751917Y-61682184D01*
X143597139Y-61746295D01*
X143457837Y-61839373D01*
X143339373Y-61957837D01*
X143246295Y-62097139D01*
X143182184Y-62251917D01*
X143182182Y-62251925D01*
X143149500Y-62416228D01*
X139850499Y-62416228D01*
X139817816Y-62251918D01*
X139753703Y-62097137D01*
X139722537Y-62050494D01*
X139660626Y-61957837D01*
X139542162Y-61839373D01*
X139402860Y-61746295D01*
X139248082Y-61682184D01*
X139248074Y-61682182D01*
X139083771Y-61649500D01*
X139083767Y-61649500D01*
X138916233Y-61649500D01*
X138916228Y-61649500D01*
X138751925Y-61682182D01*
X138751917Y-61682184D01*
X138597139Y-61746295D01*
X138457833Y-61839376D01*
X138453161Y-61843211D01*
X138388850Y-61870522D01*
X138319983Y-61858728D01*
X138268425Y-61811574D01*
X138250500Y-61747355D01*
X138250500Y-60752644D01*
X138270185Y-60685605D01*
X138322989Y-60639850D01*
X138392147Y-60629906D01*
X138453167Y-60656793D01*
X138457836Y-60660625D01*
X138520082Y-60702216D01*
X138597137Y-60753703D01*
X138751918Y-60817816D01*
X138916228Y-60850499D01*
X138916232Y-60850500D01*
X138916233Y-60850500D01*
X139083768Y-60850500D01*
X139083769Y-60850499D01*
X139248082Y-60817816D01*
X139387808Y-60759938D01*
X139435261Y-60750500D01*
X147137770Y-60750500D01*
X147204809Y-60770185D01*
X147225451Y-60786819D01*
X147713181Y-61274548D01*
X147746666Y-61335871D01*
X147749500Y-61362229D01*
X147749500Y-63024739D01*
X147740061Y-63072192D01*
X147682184Y-63211917D01*
X147682182Y-63211925D01*
X147649500Y-63376228D01*
X147649500Y-63543771D01*
X147682182Y-63708074D01*
X147682184Y-63708082D01*
X147746295Y-63862860D01*
X147839373Y-64002162D01*
X147957837Y-64120626D01*
X148048004Y-64180873D01*
X148097137Y-64213703D01*
X148251918Y-64277816D01*
X148416228Y-64310499D01*
X148416232Y-64310500D01*
X148416233Y-64310500D01*
X148583768Y-64310500D01*
X148583769Y-64310499D01*
X148748082Y-64277816D01*
X148902863Y-64213703D01*
X149042162Y-64120626D01*
X149160626Y-64002162D01*
X149253703Y-63862863D01*
X149317816Y-63708082D01*
X149350500Y-63543767D01*
X149350500Y-63376233D01*
X149317816Y-63211918D01*
X149259938Y-63072191D01*
X149250500Y-63024739D01*
X149250500Y-60926081D01*
X149244763Y-60897242D01*
X149244763Y-60897240D01*
X149228965Y-60817817D01*
X149221659Y-60781088D01*
X149173608Y-60665084D01*
X149165084Y-60644505D01*
X149155329Y-60629906D01*
X149082954Y-60521588D01*
X149082953Y-60521587D01*
X149082951Y-60521584D01*
X148978416Y-60417049D01*
X148737150Y-60175783D01*
X147978421Y-59417052D01*
X147978414Y-59417046D01*
X147904729Y-59367812D01*
X147904729Y-59367813D01*
X147855491Y-59334913D01*
X147718917Y-59278343D01*
X147718907Y-59278340D01*
X147573920Y-59249500D01*
X147573918Y-59249500D01*
X139435261Y-59249500D01*
X139387808Y-59240061D01*
X139325070Y-59214074D01*
X139248082Y-59182184D01*
X139248074Y-59182182D01*
X139083771Y-59149500D01*
X139083767Y-59149500D01*
X138916233Y-59149500D01*
X138916228Y-59149500D01*
X138751925Y-59182182D01*
X138751917Y-59182184D01*
X138597139Y-59246295D01*
X138457833Y-59339376D01*
X138453161Y-59343211D01*
X138388850Y-59370522D01*
X138319983Y-59358728D01*
X138268425Y-59311574D01*
X138250500Y-59247355D01*
X138250500Y-58862230D01*
X138270185Y-58795191D01*
X138286819Y-58774549D01*
X140274549Y-56786819D01*
X140335872Y-56753334D01*
X140362230Y-56750500D01*
X143564739Y-56750500D01*
X143612191Y-56759938D01*
X143751918Y-56817816D01*
X143916228Y-56850499D01*
X143916232Y-56850500D01*
X143916233Y-56850500D01*
X144083768Y-56850500D01*
X144083769Y-56850499D01*
X144248082Y-56817816D01*
X144402863Y-56753703D01*
X144542162Y-56660626D01*
X144660626Y-56542162D01*
X144753703Y-56402863D01*
X144817816Y-56248082D01*
X144847271Y-56099999D01*
X144847274Y-56099983D01*
X150799500Y-56099983D01*
X150799500Y-56900001D01*
X150799501Y-56900019D01*
X150810000Y-57002796D01*
X150810001Y-57002799D01*
X150857946Y-57147484D01*
X150865186Y-57169334D01*
X150957288Y-57318656D01*
X151081344Y-57442712D01*
X151173804Y-57499742D01*
X151220528Y-57551689D01*
X151231751Y-57620652D01*
X151223268Y-57652733D01*
X151182184Y-57751917D01*
X151182182Y-57751925D01*
X151149500Y-57916228D01*
X151149500Y-58083768D01*
X151182182Y-58248074D01*
X151182184Y-58248082D01*
X151246295Y-58402860D01*
X151339373Y-58542162D01*
X151457837Y-58660626D01*
X151513061Y-58697525D01*
X151597137Y-58753703D01*
X151751918Y-58817816D01*
X151916228Y-58850499D01*
X151916232Y-58850500D01*
X151916233Y-58850500D01*
X152083768Y-58850500D01*
X152083769Y-58850499D01*
X152248082Y-58817816D01*
X152402863Y-58753703D01*
X152542162Y-58660626D01*
X152660626Y-58542162D01*
X152753703Y-58402863D01*
X152817816Y-58248082D01*
X152850500Y-58083767D01*
X152850500Y-57916233D01*
X152817816Y-57751918D01*
X152776730Y-57652729D01*
X152769262Y-57583264D01*
X152800536Y-57520785D01*
X152826193Y-57499742D01*
X152918656Y-57442712D01*
X153042712Y-57318656D01*
X153134814Y-57169334D01*
X153189999Y-57002797D01*
X153200500Y-56900009D01*
X153200499Y-56099992D01*
X153200498Y-56099983D01*
X153799500Y-56099983D01*
X153799500Y-56900001D01*
X153799501Y-56900019D01*
X153810000Y-57002796D01*
X153810001Y-57002799D01*
X153857946Y-57147484D01*
X153865186Y-57169334D01*
X153957288Y-57318656D01*
X154081344Y-57442712D01*
X154173804Y-57499742D01*
X154220528Y-57551689D01*
X154231751Y-57620652D01*
X154223268Y-57652733D01*
X154182184Y-57751917D01*
X154182182Y-57751925D01*
X154149500Y-57916228D01*
X154149500Y-58083768D01*
X154182182Y-58248074D01*
X154182184Y-58248082D01*
X154246295Y-58402860D01*
X154339373Y-58542162D01*
X154457837Y-58660626D01*
X154513061Y-58697525D01*
X154597137Y-58753703D01*
X154751918Y-58817816D01*
X154916228Y-58850499D01*
X154916232Y-58850500D01*
X154916233Y-58850500D01*
X155083768Y-58850500D01*
X155083769Y-58850499D01*
X155248082Y-58817816D01*
X155402863Y-58753703D01*
X155542162Y-58660626D01*
X155660626Y-58542162D01*
X155753703Y-58402863D01*
X155817816Y-58248082D01*
X155850500Y-58083767D01*
X155850500Y-57916233D01*
X155817816Y-57751918D01*
X155776730Y-57652729D01*
X155769262Y-57583264D01*
X155800536Y-57520785D01*
X155826193Y-57499742D01*
X155918656Y-57442712D01*
X156042712Y-57318656D01*
X156134814Y-57169334D01*
X156189999Y-57002797D01*
X156200500Y-56900009D01*
X156200499Y-56099992D01*
X156200498Y-56099983D01*
X156799500Y-56099983D01*
X156799500Y-56900001D01*
X156799501Y-56900019D01*
X156810000Y-57002796D01*
X156810001Y-57002799D01*
X156857946Y-57147484D01*
X156865186Y-57169334D01*
X156957288Y-57318656D01*
X157081344Y-57442712D01*
X157173804Y-57499742D01*
X157220528Y-57551689D01*
X157231751Y-57620652D01*
X157223268Y-57652733D01*
X157182184Y-57751917D01*
X157182182Y-57751925D01*
X157149500Y-57916228D01*
X157149500Y-58083768D01*
X157182182Y-58248074D01*
X157182184Y-58248082D01*
X157246295Y-58402860D01*
X157339373Y-58542162D01*
X157457837Y-58660626D01*
X157513061Y-58697525D01*
X157597137Y-58753703D01*
X157751918Y-58817816D01*
X157916228Y-58850499D01*
X157916232Y-58850500D01*
X157916233Y-58850500D01*
X158083768Y-58850500D01*
X158083769Y-58850499D01*
X158248082Y-58817816D01*
X158402863Y-58753703D01*
X158542162Y-58660626D01*
X158660626Y-58542162D01*
X158753703Y-58402863D01*
X158817816Y-58248082D01*
X158850500Y-58083767D01*
X158850500Y-57916233D01*
X158847041Y-57898842D01*
X158847041Y-57898839D01*
X158843037Y-57878711D01*
X164649500Y-57878711D01*
X164649500Y-58121288D01*
X164681161Y-58361785D01*
X164743947Y-58596104D01*
X164835784Y-58817817D01*
X164836776Y-58820212D01*
X164958064Y-59030289D01*
X164958066Y-59030292D01*
X164958067Y-59030293D01*
X165105733Y-59222736D01*
X165105739Y-59222743D01*
X165277256Y-59394260D01*
X165277263Y-59394266D01*
X165317477Y-59425123D01*
X165469711Y-59541936D01*
X165679788Y-59663224D01*
X165903900Y-59756054D01*
X166138211Y-59818838D01*
X166318586Y-59842584D01*
X166378711Y-59850500D01*
X166378712Y-59850500D01*
X166621289Y-59850500D01*
X166669388Y-59844167D01*
X166861789Y-59818838D01*
X167096100Y-59756054D01*
X167320212Y-59663224D01*
X167530289Y-59541936D01*
X167722738Y-59394265D01*
X167894265Y-59222738D01*
X168041936Y-59030289D01*
X168163224Y-58820212D01*
X168256054Y-58596100D01*
X168318838Y-58361789D01*
X168350500Y-58121288D01*
X168350500Y-57878712D01*
X168318838Y-57638211D01*
X168256054Y-57403900D01*
X168163224Y-57179788D01*
X168041936Y-56969711D01*
X167925382Y-56817815D01*
X167894266Y-56777263D01*
X167894260Y-56777256D01*
X167722743Y-56605739D01*
X167722736Y-56605733D01*
X167530293Y-56458067D01*
X167530292Y-56458066D01*
X167530289Y-56458064D01*
X167320212Y-56336776D01*
X167320205Y-56336773D01*
X167096104Y-56243947D01*
X166861785Y-56181161D01*
X166621289Y-56149500D01*
X166621288Y-56149500D01*
X166378712Y-56149500D01*
X166378711Y-56149500D01*
X166138214Y-56181161D01*
X165903895Y-56243947D01*
X165679794Y-56336773D01*
X165679785Y-56336777D01*
X165469706Y-56458067D01*
X165277263Y-56605733D01*
X165277256Y-56605739D01*
X165105739Y-56777256D01*
X165105733Y-56777263D01*
X164958067Y-56969706D01*
X164836777Y-57179785D01*
X164836773Y-57179794D01*
X164743947Y-57403895D01*
X164681161Y-57638214D01*
X164649500Y-57878711D01*
X158843037Y-57878711D01*
X158817817Y-57751925D01*
X158817816Y-57751918D01*
X158776730Y-57652729D01*
X158769262Y-57583264D01*
X158800536Y-57520785D01*
X158826193Y-57499742D01*
X158918656Y-57442712D01*
X159042712Y-57318656D01*
X159134814Y-57169334D01*
X159189999Y-57002797D01*
X159200500Y-56900009D01*
X159200499Y-56099992D01*
X159198841Y-56083765D01*
X159189999Y-55997203D01*
X159189998Y-55997200D01*
X159163168Y-55916233D01*
X159134814Y-55830666D01*
X159042712Y-55681344D01*
X158948695Y-55587327D01*
X158915210Y-55526004D01*
X158920194Y-55456312D01*
X158948695Y-55411964D01*
X159042317Y-55318342D01*
X159134356Y-55169124D01*
X159134358Y-55169119D01*
X159189505Y-55002697D01*
X159189506Y-55002690D01*
X159199999Y-54899986D01*
X159200000Y-54899973D01*
X159200000Y-54750000D01*
X156800001Y-54750000D01*
X156800001Y-54899986D01*
X156810494Y-55002697D01*
X156865641Y-55169119D01*
X156865643Y-55169124D01*
X156957684Y-55318345D01*
X157051304Y-55411965D01*
X157084789Y-55473288D01*
X157079805Y-55542980D01*
X157051305Y-55587327D01*
X156957287Y-55681345D01*
X156865187Y-55830663D01*
X156865186Y-55830666D01*
X156810001Y-55997203D01*
X156810001Y-55997204D01*
X156810000Y-55997204D01*
X156799500Y-56099983D01*
X156200498Y-56099983D01*
X156198841Y-56083765D01*
X156189999Y-55997203D01*
X156189998Y-55997200D01*
X156163168Y-55916233D01*
X156134814Y-55830666D01*
X156042712Y-55681344D01*
X155948695Y-55587327D01*
X155915210Y-55526004D01*
X155920194Y-55456312D01*
X155948695Y-55411964D01*
X156042317Y-55318342D01*
X156134356Y-55169124D01*
X156134358Y-55169119D01*
X156189505Y-55002697D01*
X156189506Y-55002690D01*
X156199999Y-54899986D01*
X156200000Y-54899973D01*
X156200000Y-54750000D01*
X153800001Y-54750000D01*
X153800001Y-54899986D01*
X153810494Y-55002697D01*
X153865641Y-55169119D01*
X153865643Y-55169124D01*
X153957684Y-55318345D01*
X154051304Y-55411965D01*
X154084789Y-55473288D01*
X154079805Y-55542980D01*
X154051305Y-55587327D01*
X153957287Y-55681345D01*
X153865187Y-55830663D01*
X153865186Y-55830666D01*
X153810001Y-55997203D01*
X153810001Y-55997204D01*
X153810000Y-55997204D01*
X153799500Y-56099983D01*
X153200498Y-56099983D01*
X153198841Y-56083765D01*
X153189999Y-55997203D01*
X153189998Y-55997200D01*
X153163168Y-55916233D01*
X153134814Y-55830666D01*
X153042712Y-55681344D01*
X152948695Y-55587327D01*
X152915210Y-55526004D01*
X152920194Y-55456312D01*
X152948695Y-55411964D01*
X153042317Y-55318342D01*
X153134356Y-55169124D01*
X153134358Y-55169119D01*
X153189505Y-55002697D01*
X153189506Y-55002690D01*
X153199999Y-54899986D01*
X153200000Y-54899973D01*
X153200000Y-54750000D01*
X150800001Y-54750000D01*
X150800001Y-54899986D01*
X150810494Y-55002697D01*
X150865641Y-55169119D01*
X150865643Y-55169124D01*
X150957684Y-55318345D01*
X151051304Y-55411965D01*
X151084789Y-55473288D01*
X151079805Y-55542980D01*
X151051305Y-55587327D01*
X150957287Y-55681345D01*
X150865187Y-55830663D01*
X150865186Y-55830666D01*
X150810001Y-55997203D01*
X150810001Y-55997204D01*
X150810000Y-55997204D01*
X150799500Y-56099983D01*
X144847274Y-56099983D01*
X144850499Y-56083773D01*
X144850500Y-56083765D01*
X144850500Y-55916232D01*
X144850499Y-55916228D01*
X144817817Y-55751925D01*
X144817816Y-55751918D01*
X144753703Y-55597137D01*
X144706173Y-55526004D01*
X144660626Y-55457837D01*
X144542162Y-55339373D01*
X144402860Y-55246295D01*
X144248082Y-55182184D01*
X144248074Y-55182182D01*
X144083771Y-55149500D01*
X144083767Y-55149500D01*
X143916233Y-55149500D01*
X143916228Y-55149500D01*
X143751925Y-55182182D01*
X143751917Y-55182184D01*
X143612192Y-55240061D01*
X143564739Y-55249500D01*
X139926080Y-55249500D01*
X139781092Y-55278340D01*
X139781086Y-55278342D01*
X139644508Y-55334914D01*
X139644496Y-55334921D01*
X139595269Y-55367813D01*
X139521588Y-55417044D01*
X139521580Y-55417050D01*
X136917048Y-58021583D01*
X136896205Y-58052778D01*
X136875500Y-58083767D01*
X136855208Y-58114136D01*
X136834916Y-58144504D01*
X136834912Y-58144511D01*
X136778343Y-58281082D01*
X136778340Y-58281092D01*
X136749500Y-58426079D01*
X136749500Y-64906012D01*
X136729815Y-64973051D01*
X136677011Y-65018806D01*
X136607853Y-65028750D01*
X136556610Y-65009115D01*
X136500551Y-64971658D01*
X136500551Y-64971657D01*
X136475495Y-64954916D01*
X136475490Y-64954913D01*
X136338917Y-64898343D01*
X136338907Y-64898340D01*
X136193920Y-64869500D01*
X136193918Y-64869500D01*
X135671248Y-64869500D01*
X135604209Y-64849815D01*
X135584239Y-64833848D01*
X135573569Y-64823339D01*
X135567712Y-64813844D01*
X135443656Y-64689788D01*
X135428416Y-64680388D01*
X135418431Y-64670554D01*
X135407990Y-64651776D01*
X135393618Y-64635797D01*
X135391347Y-64621842D01*
X135384479Y-64609489D01*
X135385848Y-64588041D01*
X135382397Y-64566834D01*
X135388030Y-64553868D01*
X135388931Y-64539761D01*
X135401677Y-64522459D01*
X135410240Y-64502752D01*
X135426708Y-64488482D01*
X135430373Y-64483509D01*
X135434083Y-64482092D01*
X135440348Y-64476665D01*
X135443342Y-64474818D01*
X135567315Y-64350845D01*
X135659356Y-64201624D01*
X135659358Y-64201619D01*
X135714505Y-64035197D01*
X135714506Y-64035190D01*
X135724999Y-63932486D01*
X135725000Y-63932473D01*
X135725000Y-63795000D01*
X134624000Y-63795000D01*
X134556961Y-63775315D01*
X134511206Y-63722511D01*
X134500000Y-63671000D01*
X134500000Y-63545000D01*
X134374000Y-63545000D01*
X134306961Y-63525315D01*
X134261206Y-63472511D01*
X134250000Y-63421000D01*
X134250000Y-63295000D01*
X134750000Y-63295000D01*
X135724999Y-63295000D01*
X135724999Y-63157528D01*
X135724998Y-63157513D01*
X135714505Y-63054802D01*
X135659358Y-62888380D01*
X135659356Y-62888375D01*
X135567315Y-62739154D01*
X135443345Y-62615184D01*
X135294124Y-62523143D01*
X135294119Y-62523141D01*
X135127697Y-62467994D01*
X135127690Y-62467993D01*
X135024986Y-62457500D01*
X134750000Y-62457500D01*
X134750000Y-63295000D01*
X134250000Y-63295000D01*
X134250000Y-62457500D01*
X133975029Y-62457500D01*
X133975012Y-62457501D01*
X133872302Y-62467994D01*
X133705880Y-62523141D01*
X133705875Y-62523143D01*
X133556654Y-62615184D01*
X133432684Y-62739154D01*
X133340643Y-62888375D01*
X133340641Y-62888380D01*
X133285494Y-63054802D01*
X133285493Y-63054809D01*
X133275000Y-63157513D01*
X133275000Y-63163204D01*
X133255315Y-63230243D01*
X133202511Y-63275998D01*
X133133353Y-63285942D01*
X133069797Y-63256917D01*
X133060952Y-63248452D01*
X133052165Y-63239170D01*
X133042712Y-63223844D01*
X132947854Y-63128986D01*
X132946682Y-63127748D01*
X132931526Y-63098091D01*
X132915564Y-63068858D01*
X132915689Y-63067100D01*
X132914888Y-63065532D01*
X132918171Y-63032398D01*
X132920548Y-62999166D01*
X132921631Y-62997479D01*
X132921778Y-62996003D01*
X132926031Y-62990634D01*
X132949049Y-62954819D01*
X132968607Y-62935261D01*
X133042712Y-62861156D01*
X133134814Y-62711834D01*
X133189999Y-62545297D01*
X133200500Y-62442509D01*
X133200499Y-61642492D01*
X133192836Y-61567480D01*
X133189999Y-61539703D01*
X133189998Y-61539700D01*
X133134814Y-61373166D01*
X133042712Y-61223844D01*
X132918656Y-61099788D01*
X132809402Y-61032400D01*
X132762679Y-60980453D01*
X132750500Y-60926862D01*
X132750500Y-59830281D01*
X134114500Y-59830281D01*
X134114500Y-60004718D01*
X134148527Y-60175783D01*
X134148529Y-60175791D01*
X134215278Y-60336939D01*
X134215283Y-60336948D01*
X134312186Y-60481973D01*
X134312189Y-60481977D01*
X134435522Y-60605310D01*
X134435526Y-60605313D01*
X134580551Y-60702216D01*
X134580557Y-60702219D01*
X134580558Y-60702220D01*
X134741709Y-60768971D01*
X134890751Y-60798617D01*
X134912781Y-60802999D01*
X134912785Y-60803000D01*
X134912786Y-60803000D01*
X135087215Y-60803000D01*
X135087216Y-60802999D01*
X135258291Y-60768971D01*
X135419442Y-60702220D01*
X135564474Y-60605313D01*
X135687813Y-60481974D01*
X135784720Y-60336942D01*
X135851471Y-60175791D01*
X135885500Y-60004714D01*
X135885500Y-59830286D01*
X135851471Y-59659209D01*
X135784720Y-59498058D01*
X135784719Y-59498057D01*
X135784716Y-59498051D01*
X135687813Y-59353026D01*
X135687810Y-59353022D01*
X135564477Y-59229689D01*
X135564473Y-59229686D01*
X135419448Y-59132783D01*
X135419439Y-59132778D01*
X135258291Y-59066029D01*
X135258283Y-59066027D01*
X135087218Y-59032000D01*
X135087214Y-59032000D01*
X134912786Y-59032000D01*
X134912781Y-59032000D01*
X134741716Y-59066027D01*
X134741708Y-59066029D01*
X134580560Y-59132778D01*
X134580551Y-59132783D01*
X134435526Y-59229686D01*
X134435522Y-59229689D01*
X134312189Y-59353022D01*
X134312186Y-59353026D01*
X134215283Y-59498051D01*
X134215278Y-59498060D01*
X134148529Y-59659208D01*
X134148527Y-59659216D01*
X134114500Y-59830281D01*
X132750500Y-59830281D01*
X132750500Y-59513408D01*
X132770185Y-59446369D01*
X132814271Y-59407864D01*
X132813187Y-59406106D01*
X132915154Y-59343211D01*
X132968655Y-59310211D01*
X133092711Y-59186155D01*
X133184814Y-59036834D01*
X133239999Y-58870297D01*
X133250500Y-58767508D01*
X133250500Y-57147492D01*
X133239999Y-57044703D01*
X133184814Y-56878166D01*
X133167749Y-56850500D01*
X133092713Y-56728848D01*
X133092710Y-56728844D01*
X132968655Y-56604789D01*
X132968651Y-56604786D01*
X132819337Y-56512687D01*
X132819335Y-56512686D01*
X132714025Y-56477790D01*
X132652797Y-56457501D01*
X132652795Y-56457500D01*
X132550015Y-56447000D01*
X132550008Y-56447000D01*
X131449992Y-56447000D01*
X131449984Y-56447000D01*
X131347204Y-56457500D01*
X131347203Y-56457501D01*
X131180664Y-56512686D01*
X131180662Y-56512687D01*
X131031348Y-56604786D01*
X131031344Y-56604789D01*
X130907289Y-56728844D01*
X130907286Y-56728848D01*
X130815187Y-56878162D01*
X130815186Y-56878164D01*
X130760001Y-57044703D01*
X130760000Y-57044704D01*
X130749500Y-57147484D01*
X130749500Y-58767515D01*
X130760000Y-58870295D01*
X130760001Y-58870297D01*
X130787593Y-58953565D01*
X130815186Y-59036835D01*
X130815187Y-59036837D01*
X130907286Y-59186151D01*
X130907289Y-59186155D01*
X131031344Y-59310210D01*
X131031348Y-59310213D01*
X131186813Y-59406106D01*
X131185706Y-59407899D01*
X131230337Y-59447187D01*
X131249500Y-59513408D01*
X131249500Y-60926862D01*
X131229815Y-60993901D01*
X131190598Y-61032399D01*
X131189705Y-61032951D01*
X131081342Y-61099789D01*
X130957289Y-61223842D01*
X130865187Y-61373163D01*
X130865186Y-61373166D01*
X130810001Y-61539703D01*
X130810001Y-61539704D01*
X130810000Y-61539704D01*
X130799500Y-61642483D01*
X130799500Y-62442501D01*
X130799501Y-62442519D01*
X130810000Y-62545296D01*
X130810001Y-62545299D01*
X130865185Y-62711831D01*
X130865187Y-62711836D01*
X130886443Y-62746297D01*
X130943852Y-62839373D01*
X130957289Y-62861157D01*
X131050951Y-62954819D01*
X131084436Y-63016142D01*
X131079452Y-63085834D01*
X131050951Y-63130181D01*
X130957289Y-63223842D01*
X130865187Y-63373163D01*
X130865185Y-63373168D01*
X130850915Y-63416232D01*
X130810001Y-63539703D01*
X130810001Y-63539704D01*
X130810000Y-63539704D01*
X130799500Y-63642483D01*
X130799500Y-64442501D01*
X130799501Y-64442519D01*
X130810000Y-64545296D01*
X130810001Y-64545299D01*
X130848560Y-64661661D01*
X130865186Y-64711834D01*
X130957288Y-64861156D01*
X131081344Y-64985212D01*
X131190597Y-65052599D01*
X131237321Y-65104547D01*
X131249500Y-65158138D01*
X131249500Y-65625500D01*
X131229815Y-65692539D01*
X131177011Y-65738294D01*
X131125500Y-65749500D01*
X126866669Y-65749500D01*
X126799630Y-65729815D01*
X126753875Y-65677011D01*
X126743931Y-65607853D01*
X126745052Y-65601309D01*
X126750499Y-65573921D01*
X126750500Y-65573918D01*
X126750500Y-65158138D01*
X126770185Y-65091099D01*
X126809401Y-65052600D01*
X126918656Y-64985212D01*
X127042712Y-64861156D01*
X127134814Y-64711834D01*
X127189999Y-64545297D01*
X127200500Y-64442509D01*
X127200500Y-64442486D01*
X127800001Y-64442486D01*
X127810494Y-64545197D01*
X127865641Y-64711619D01*
X127865643Y-64711624D01*
X127957684Y-64860845D01*
X128081654Y-64984815D01*
X128230875Y-65076856D01*
X128230880Y-65076858D01*
X128397302Y-65132005D01*
X128397309Y-65132006D01*
X128500019Y-65142499D01*
X128749999Y-65142499D01*
X129250000Y-65142499D01*
X129499972Y-65142499D01*
X129499986Y-65142498D01*
X129602697Y-65132005D01*
X129769119Y-65076858D01*
X129769124Y-65076856D01*
X129918345Y-64984815D01*
X130042315Y-64860845D01*
X130134356Y-64711624D01*
X130134358Y-64711619D01*
X130189505Y-64545197D01*
X130189506Y-64545190D01*
X130199999Y-64442486D01*
X130200000Y-64442473D01*
X130200000Y-64292500D01*
X129250000Y-64292500D01*
X129250000Y-65142499D01*
X128749999Y-65142499D01*
X128750000Y-65142498D01*
X128750000Y-64292500D01*
X127800001Y-64292500D01*
X127800001Y-64442486D01*
X127200500Y-64442486D01*
X127200499Y-64035197D01*
X127200499Y-63642498D01*
X127200498Y-63642480D01*
X127189999Y-63539703D01*
X127189998Y-63539700D01*
X127185231Y-63525315D01*
X127134814Y-63373166D01*
X127042712Y-63223844D01*
X126949049Y-63130181D01*
X126915564Y-63068858D01*
X126920548Y-62999166D01*
X126949049Y-62954819D01*
X126968607Y-62935261D01*
X127042712Y-62861156D01*
X127134814Y-62711834D01*
X127189999Y-62545297D01*
X127200500Y-62442509D01*
X127200499Y-61642492D01*
X127192836Y-61567480D01*
X127189999Y-61539703D01*
X127189998Y-61539700D01*
X127134814Y-61373166D01*
X127042712Y-61223844D01*
X126918656Y-61099788D01*
X126809402Y-61032400D01*
X126762679Y-60980453D01*
X126750500Y-60926862D01*
X126750500Y-59281113D01*
X126770185Y-59214074D01*
X126801613Y-59180796D01*
X126814646Y-59171328D01*
X126953828Y-59032146D01*
X127069524Y-58872905D01*
X127158884Y-58697525D01*
X127219709Y-58510326D01*
X127233052Y-58426082D01*
X127250500Y-58315922D01*
X127250500Y-57599077D01*
X127749500Y-57599077D01*
X127749500Y-58315922D01*
X127780290Y-58510326D01*
X127841117Y-58697529D01*
X127919060Y-58850499D01*
X127930476Y-58872905D01*
X128046172Y-59032146D01*
X128185354Y-59171328D01*
X128198385Y-59180795D01*
X128241050Y-59236122D01*
X128249500Y-59281113D01*
X128249500Y-60926862D01*
X128229815Y-60993901D01*
X128190598Y-61032399D01*
X128189705Y-61032951D01*
X128081342Y-61099789D01*
X127957289Y-61223842D01*
X127865187Y-61373163D01*
X127865186Y-61373166D01*
X127810001Y-61539703D01*
X127810001Y-61539704D01*
X127810000Y-61539704D01*
X127799500Y-61642483D01*
X127799500Y-62442501D01*
X127799501Y-62442519D01*
X127810000Y-62545296D01*
X127810001Y-62545299D01*
X127865185Y-62711831D01*
X127865187Y-62711836D01*
X127886443Y-62746297D01*
X127943852Y-62839373D01*
X127957289Y-62861157D01*
X128051304Y-62955172D01*
X128084789Y-63016495D01*
X128079805Y-63086187D01*
X128051305Y-63130534D01*
X127957682Y-63224157D01*
X127865643Y-63373375D01*
X127865641Y-63373380D01*
X127810494Y-63539802D01*
X127810493Y-63539809D01*
X127800000Y-63642513D01*
X127800000Y-63792500D01*
X130199999Y-63792500D01*
X130199999Y-63642528D01*
X130199998Y-63642513D01*
X130189505Y-63539802D01*
X130134358Y-63373380D01*
X130134356Y-63373375D01*
X130042315Y-63224154D01*
X129948695Y-63130534D01*
X129915210Y-63069211D01*
X129920194Y-62999519D01*
X129948691Y-62955176D01*
X130042712Y-62861156D01*
X130134814Y-62711834D01*
X130189999Y-62545297D01*
X130200500Y-62442509D01*
X130200499Y-61642492D01*
X130192836Y-61567480D01*
X130189999Y-61539703D01*
X130189998Y-61539700D01*
X130134814Y-61373166D01*
X130042712Y-61223844D01*
X129918656Y-61099788D01*
X129809402Y-61032400D01*
X129762679Y-60980453D01*
X129750500Y-60926862D01*
X129750500Y-59281113D01*
X129770185Y-59214074D01*
X129801613Y-59180796D01*
X129814646Y-59171328D01*
X129953828Y-59032146D01*
X130069524Y-58872905D01*
X130158884Y-58697525D01*
X130219709Y-58510326D01*
X130233052Y-58426082D01*
X130250500Y-58315922D01*
X130250500Y-57599077D01*
X130219709Y-57404673D01*
X130158882Y-57217470D01*
X130070853Y-57044704D01*
X130069524Y-57042095D01*
X129953828Y-56882854D01*
X129814646Y-56743672D01*
X129655405Y-56627976D01*
X129480029Y-56538617D01*
X129292826Y-56477790D01*
X129098422Y-56447000D01*
X129098417Y-56447000D01*
X128901583Y-56447000D01*
X128901578Y-56447000D01*
X128707173Y-56477790D01*
X128519970Y-56538617D01*
X128344594Y-56627976D01*
X128299656Y-56660626D01*
X128185354Y-56743672D01*
X128185352Y-56743674D01*
X128185351Y-56743674D01*
X128046174Y-56882851D01*
X128046174Y-56882852D01*
X128046172Y-56882854D01*
X128033703Y-56900016D01*
X127930476Y-57042094D01*
X127841117Y-57217470D01*
X127780290Y-57404673D01*
X127749500Y-57599077D01*
X127250500Y-57599077D01*
X127219709Y-57404673D01*
X127158882Y-57217470D01*
X127070853Y-57044704D01*
X127069524Y-57042095D01*
X126953828Y-56882854D01*
X126814646Y-56743672D01*
X126655405Y-56627976D01*
X126480029Y-56538617D01*
X126292826Y-56477790D01*
X126098422Y-56447000D01*
X126098417Y-56447000D01*
X125901583Y-56447000D01*
X125901578Y-56447000D01*
X125707173Y-56477790D01*
X125519970Y-56538617D01*
X125344594Y-56627976D01*
X125299656Y-56660626D01*
X125185354Y-56743672D01*
X125185352Y-56743674D01*
X125185351Y-56743674D01*
X125046174Y-56882851D01*
X125046174Y-56882852D01*
X125046172Y-56882854D01*
X125033703Y-56900016D01*
X124930476Y-57042094D01*
X124841117Y-57217470D01*
X124780290Y-57404673D01*
X124749500Y-57599077D01*
X124749500Y-58315922D01*
X124780290Y-58510326D01*
X124841117Y-58697529D01*
X124919060Y-58850499D01*
X124930476Y-58872905D01*
X125046172Y-59032146D01*
X125185354Y-59171328D01*
X125198385Y-59180795D01*
X125241050Y-59236122D01*
X125249500Y-59281113D01*
X125249500Y-60926862D01*
X125229815Y-60993901D01*
X125190598Y-61032399D01*
X125189705Y-61032951D01*
X125081342Y-61099789D01*
X124957289Y-61223842D01*
X124865187Y-61373163D01*
X124865186Y-61373166D01*
X124810001Y-61539703D01*
X124810001Y-61539704D01*
X124810000Y-61539704D01*
X124799500Y-61642483D01*
X124799500Y-62442501D01*
X124799501Y-62442519D01*
X124810000Y-62545296D01*
X124810001Y-62545299D01*
X124865185Y-62711831D01*
X124865187Y-62711836D01*
X124886443Y-62746297D01*
X124943852Y-62839373D01*
X124957289Y-62861157D01*
X125050951Y-62954819D01*
X125084436Y-63016142D01*
X125079452Y-63085834D01*
X125050951Y-63130181D01*
X124957289Y-63223842D01*
X124865187Y-63373163D01*
X124865185Y-63373168D01*
X124850915Y-63416232D01*
X124810001Y-63539703D01*
X124810001Y-63539704D01*
X124810000Y-63539704D01*
X124799500Y-63642483D01*
X124799500Y-64442501D01*
X124799501Y-64442519D01*
X124810000Y-64545296D01*
X124810001Y-64545299D01*
X124848560Y-64661661D01*
X124865186Y-64711834D01*
X124957288Y-64861156D01*
X125081344Y-64985212D01*
X125177998Y-65044828D01*
X125224723Y-65096776D01*
X125235946Y-65165738D01*
X125208103Y-65229820D01*
X125200583Y-65238048D01*
X124725451Y-65713181D01*
X124664128Y-65746666D01*
X124637770Y-65749500D01*
X115926082Y-65749500D01*
X115904953Y-65753703D01*
X115898684Y-65754950D01*
X115829093Y-65748718D01*
X115773918Y-65705852D01*
X115750677Y-65639961D01*
X115750500Y-65633331D01*
X115750500Y-64442486D01*
X118800001Y-64442486D01*
X118810494Y-64545197D01*
X118865641Y-64711619D01*
X118865643Y-64711624D01*
X118957684Y-64860845D01*
X119081654Y-64984815D01*
X119230875Y-65076856D01*
X119230880Y-65076858D01*
X119397302Y-65132005D01*
X119397309Y-65132006D01*
X119500019Y-65142499D01*
X119749999Y-65142499D01*
X120250000Y-65142499D01*
X120499972Y-65142499D01*
X120499986Y-65142498D01*
X120602697Y-65132005D01*
X120769119Y-65076858D01*
X120769124Y-65076856D01*
X120918345Y-64984815D01*
X121042315Y-64860845D01*
X121134356Y-64711624D01*
X121134358Y-64711619D01*
X121189505Y-64545197D01*
X121189506Y-64545190D01*
X121199999Y-64442486D01*
X121800001Y-64442486D01*
X121810494Y-64545197D01*
X121865641Y-64711619D01*
X121865643Y-64711624D01*
X121957684Y-64860845D01*
X122081654Y-64984815D01*
X122230875Y-65076856D01*
X122230880Y-65076858D01*
X122397302Y-65132005D01*
X122397309Y-65132006D01*
X122500019Y-65142499D01*
X122749999Y-65142499D01*
X123250000Y-65142499D01*
X123499972Y-65142499D01*
X123499986Y-65142498D01*
X123602697Y-65132005D01*
X123769119Y-65076858D01*
X123769124Y-65076856D01*
X123918345Y-64984815D01*
X124042315Y-64860845D01*
X124134356Y-64711624D01*
X124134358Y-64711619D01*
X124189505Y-64545197D01*
X124189506Y-64545190D01*
X124199999Y-64442486D01*
X124200000Y-64442473D01*
X124200000Y-64292500D01*
X123250000Y-64292500D01*
X123250000Y-65142499D01*
X122749999Y-65142499D01*
X122750000Y-65142498D01*
X122750000Y-64292500D01*
X121800001Y-64292500D01*
X121800001Y-64442486D01*
X121199999Y-64442486D01*
X121200000Y-64442473D01*
X121200000Y-64292500D01*
X120250000Y-64292500D01*
X120250000Y-65142499D01*
X119749999Y-65142499D01*
X119750000Y-65142498D01*
X119750000Y-64292500D01*
X118800001Y-64292500D01*
X118800001Y-64442486D01*
X115750500Y-64442486D01*
X115750500Y-63246129D01*
X115770185Y-63179090D01*
X115793788Y-63151993D01*
X115801147Y-63145682D01*
X115858656Y-63110212D01*
X115955683Y-63013184D01*
X115959288Y-63010094D01*
X115986983Y-62997620D01*
X116013642Y-62983064D01*
X116018528Y-62983413D01*
X116022995Y-62981402D01*
X116053035Y-62985881D01*
X116083334Y-62988048D01*
X116088097Y-62991109D01*
X116092100Y-62991706D01*
X116100578Y-62999130D01*
X116127681Y-63016549D01*
X116221344Y-63110212D01*
X116370666Y-63202314D01*
X116537203Y-63257499D01*
X116639991Y-63268000D01*
X117440008Y-63267999D01*
X117440016Y-63267998D01*
X117440019Y-63267998D01*
X117496302Y-63262248D01*
X117542797Y-63257499D01*
X117709334Y-63202314D01*
X117858656Y-63110212D01*
X117982712Y-62986156D01*
X118074814Y-62836834D01*
X118129999Y-62670297D01*
X118140500Y-62567509D01*
X118140499Y-61567492D01*
X118137660Y-61539704D01*
X118129999Y-61464703D01*
X118129998Y-61464700D01*
X118099667Y-61373168D01*
X118074814Y-61298166D01*
X117982712Y-61148844D01*
X117858656Y-61024788D01*
X117858655Y-61024787D01*
X117809402Y-60994407D01*
X117762678Y-60942458D01*
X117750500Y-60888869D01*
X117750500Y-59281113D01*
X117770185Y-59214074D01*
X117801613Y-59180796D01*
X117814646Y-59171328D01*
X117953828Y-59032146D01*
X118069524Y-58872905D01*
X118158884Y-58697525D01*
X118219709Y-58510326D01*
X118233052Y-58426082D01*
X118250500Y-58315922D01*
X118250500Y-57599077D01*
X118749500Y-57599077D01*
X118749500Y-58315922D01*
X118780290Y-58510326D01*
X118841117Y-58697529D01*
X118919060Y-58850499D01*
X118930476Y-58872905D01*
X119046172Y-59032146D01*
X119185354Y-59171328D01*
X119198385Y-59180795D01*
X119241050Y-59236122D01*
X119249500Y-59281113D01*
X119249500Y-60926862D01*
X119229815Y-60993901D01*
X119190598Y-61032399D01*
X119189705Y-61032951D01*
X119081342Y-61099789D01*
X118957289Y-61223842D01*
X118865187Y-61373163D01*
X118865186Y-61373166D01*
X118810001Y-61539703D01*
X118810001Y-61539704D01*
X118810000Y-61539704D01*
X118799500Y-61642483D01*
X118799500Y-62442501D01*
X118799501Y-62442519D01*
X118810000Y-62545296D01*
X118810001Y-62545299D01*
X118865185Y-62711831D01*
X118865187Y-62711836D01*
X118886443Y-62746297D01*
X118943852Y-62839373D01*
X118957289Y-62861157D01*
X119051304Y-62955172D01*
X119084789Y-63016495D01*
X119079805Y-63086187D01*
X119051305Y-63130534D01*
X118957682Y-63224157D01*
X118865643Y-63373375D01*
X118865641Y-63373380D01*
X118810494Y-63539802D01*
X118810493Y-63539809D01*
X118800000Y-63642513D01*
X118800000Y-63792500D01*
X121199999Y-63792500D01*
X121199999Y-63642528D01*
X121199998Y-63642513D01*
X121189505Y-63539802D01*
X121134358Y-63373380D01*
X121134356Y-63373375D01*
X121042315Y-63224154D01*
X120948695Y-63130534D01*
X120915210Y-63069211D01*
X120920194Y-62999519D01*
X120948691Y-62955176D01*
X121042712Y-62861156D01*
X121134814Y-62711834D01*
X121189999Y-62545297D01*
X121200500Y-62442509D01*
X121200499Y-61642492D01*
X121192836Y-61567480D01*
X121189999Y-61539703D01*
X121189998Y-61539700D01*
X121134814Y-61373166D01*
X121042712Y-61223844D01*
X120918656Y-61099788D01*
X120809402Y-61032400D01*
X120762679Y-60980453D01*
X120750500Y-60926862D01*
X120750500Y-59281113D01*
X120770185Y-59214074D01*
X120801613Y-59180796D01*
X120814646Y-59171328D01*
X120953828Y-59032146D01*
X121069524Y-58872905D01*
X121158884Y-58697525D01*
X121219709Y-58510326D01*
X121233052Y-58426082D01*
X121250500Y-58315922D01*
X121250500Y-57599077D01*
X121749500Y-57599077D01*
X121749500Y-58315922D01*
X121780290Y-58510326D01*
X121841117Y-58697529D01*
X121919060Y-58850499D01*
X121930476Y-58872905D01*
X122046172Y-59032146D01*
X122185354Y-59171328D01*
X122198385Y-59180795D01*
X122241050Y-59236122D01*
X122249500Y-59281113D01*
X122249500Y-60926862D01*
X122229815Y-60993901D01*
X122190598Y-61032399D01*
X122189705Y-61032951D01*
X122081342Y-61099789D01*
X121957289Y-61223842D01*
X121865187Y-61373163D01*
X121865186Y-61373166D01*
X121810001Y-61539703D01*
X121810001Y-61539704D01*
X121810000Y-61539704D01*
X121799500Y-61642483D01*
X121799500Y-62442501D01*
X121799501Y-62442519D01*
X121810000Y-62545296D01*
X121810001Y-62545299D01*
X121865185Y-62711831D01*
X121865187Y-62711836D01*
X121886443Y-62746297D01*
X121943852Y-62839373D01*
X121957289Y-62861157D01*
X122051304Y-62955172D01*
X122084789Y-63016495D01*
X122079805Y-63086187D01*
X122051305Y-63130534D01*
X121957682Y-63224157D01*
X121865643Y-63373375D01*
X121865641Y-63373380D01*
X121810494Y-63539802D01*
X121810493Y-63539809D01*
X121800000Y-63642513D01*
X121800000Y-63792500D01*
X124199999Y-63792500D01*
X124199999Y-63642528D01*
X124199998Y-63642513D01*
X124189505Y-63539802D01*
X124134358Y-63373380D01*
X124134356Y-63373375D01*
X124042315Y-63224154D01*
X123948695Y-63130534D01*
X123915210Y-63069211D01*
X123920194Y-62999519D01*
X123948691Y-62955176D01*
X124042712Y-62861156D01*
X124134814Y-62711834D01*
X124189999Y-62545297D01*
X124200500Y-62442509D01*
X124200499Y-61642492D01*
X124192836Y-61567480D01*
X124189999Y-61539703D01*
X124189998Y-61539700D01*
X124134814Y-61373166D01*
X124042712Y-61223844D01*
X123918656Y-61099788D01*
X123809402Y-61032400D01*
X123762679Y-60980453D01*
X123750500Y-60926862D01*
X123750500Y-59281113D01*
X123770185Y-59214074D01*
X123801613Y-59180796D01*
X123814646Y-59171328D01*
X123953828Y-59032146D01*
X124069524Y-58872905D01*
X124158884Y-58697525D01*
X124219709Y-58510326D01*
X124233052Y-58426082D01*
X124250500Y-58315922D01*
X124250500Y-57599077D01*
X124219709Y-57404673D01*
X124158882Y-57217470D01*
X124070853Y-57044704D01*
X124069524Y-57042095D01*
X123953828Y-56882854D01*
X123814646Y-56743672D01*
X123655405Y-56627976D01*
X123480029Y-56538617D01*
X123292826Y-56477790D01*
X123098422Y-56447000D01*
X123098417Y-56447000D01*
X122901583Y-56447000D01*
X122901578Y-56447000D01*
X122707173Y-56477790D01*
X122519970Y-56538617D01*
X122344594Y-56627976D01*
X122299656Y-56660626D01*
X122185354Y-56743672D01*
X122185352Y-56743674D01*
X122185351Y-56743674D01*
X122046174Y-56882851D01*
X122046174Y-56882852D01*
X122046172Y-56882854D01*
X122033703Y-56900016D01*
X121930476Y-57042094D01*
X121841117Y-57217470D01*
X121780290Y-57404673D01*
X121749500Y-57599077D01*
X121250500Y-57599077D01*
X121219709Y-57404673D01*
X121158882Y-57217470D01*
X121070853Y-57044704D01*
X121069524Y-57042095D01*
X120953828Y-56882854D01*
X120814646Y-56743672D01*
X120655405Y-56627976D01*
X120480029Y-56538617D01*
X120292826Y-56477790D01*
X120098422Y-56447000D01*
X120098417Y-56447000D01*
X119901583Y-56447000D01*
X119901578Y-56447000D01*
X119707173Y-56477790D01*
X119519970Y-56538617D01*
X119344594Y-56627976D01*
X119299656Y-56660626D01*
X119185354Y-56743672D01*
X119185352Y-56743674D01*
X119185351Y-56743674D01*
X119046174Y-56882851D01*
X119046174Y-56882852D01*
X119046172Y-56882854D01*
X119033703Y-56900016D01*
X118930476Y-57042094D01*
X118841117Y-57217470D01*
X118780290Y-57404673D01*
X118749500Y-57599077D01*
X118250500Y-57599077D01*
X118219709Y-57404673D01*
X118158882Y-57217470D01*
X118070853Y-57044704D01*
X118069524Y-57042095D01*
X117953828Y-56882854D01*
X117814646Y-56743672D01*
X117655405Y-56627976D01*
X117480029Y-56538617D01*
X117292826Y-56477790D01*
X117098422Y-56447000D01*
X117098417Y-56447000D01*
X116901583Y-56447000D01*
X116901578Y-56447000D01*
X116707173Y-56477790D01*
X116519970Y-56538617D01*
X116344594Y-56627976D01*
X116299656Y-56660626D01*
X116185354Y-56743672D01*
X116185352Y-56743674D01*
X116185351Y-56743674D01*
X116046174Y-56882851D01*
X116046174Y-56882852D01*
X116046172Y-56882854D01*
X116033703Y-56900016D01*
X115930476Y-57042094D01*
X115841117Y-57217470D01*
X115780290Y-57404673D01*
X115749500Y-57599077D01*
X115749500Y-58315922D01*
X115780290Y-58510326D01*
X115841117Y-58697529D01*
X115919060Y-58850499D01*
X115930476Y-58872905D01*
X116046172Y-59032146D01*
X116185354Y-59171328D01*
X116198385Y-59180795D01*
X116241050Y-59236122D01*
X116249500Y-59281113D01*
X116249500Y-60945270D01*
X116240855Y-60974710D01*
X116234332Y-61004697D01*
X116230577Y-61009712D01*
X116229815Y-61012309D01*
X116213181Y-61032951D01*
X116127681Y-61118451D01*
X116066358Y-61151936D01*
X115996666Y-61146952D01*
X115952319Y-61118451D01*
X115858657Y-61024789D01*
X115858656Y-61024788D01*
X115709334Y-60932686D01*
X115542797Y-60877501D01*
X115542795Y-60877500D01*
X115440010Y-60867000D01*
X114639998Y-60867000D01*
X114639980Y-60867001D01*
X114584807Y-60872638D01*
X114516114Y-60859868D01*
X114465230Y-60811987D01*
X114448310Y-60744197D01*
X114470726Y-60678021D01*
X114503314Y-60646178D01*
X114564474Y-60605313D01*
X114687813Y-60481974D01*
X114784720Y-60336942D01*
X114851471Y-60175791D01*
X114885500Y-60004714D01*
X114885500Y-59830286D01*
X114851471Y-59659209D01*
X114784720Y-59498058D01*
X114784719Y-59498057D01*
X114784716Y-59498051D01*
X114687813Y-59353026D01*
X114687810Y-59353022D01*
X114564477Y-59229689D01*
X114564473Y-59229686D01*
X114419448Y-59132783D01*
X114419439Y-59132778D01*
X114258291Y-59066029D01*
X114258283Y-59066027D01*
X114087218Y-59032000D01*
X114087214Y-59032000D01*
X113912786Y-59032000D01*
X113912781Y-59032000D01*
X113741716Y-59066027D01*
X113741708Y-59066029D01*
X113580560Y-59132778D01*
X113580551Y-59132783D01*
X113435526Y-59229686D01*
X113435522Y-59229689D01*
X113312189Y-59353022D01*
X113312186Y-59353026D01*
X113215283Y-59498051D01*
X113215278Y-59498060D01*
X113148529Y-59659208D01*
X113148527Y-59659216D01*
X113114500Y-59830281D01*
X113114500Y-60004718D01*
X113148527Y-60175783D01*
X113148529Y-60175791D01*
X113215278Y-60336939D01*
X113215283Y-60336948D01*
X113312186Y-60481973D01*
X113312189Y-60481977D01*
X113435522Y-60605310D01*
X113435526Y-60605313D01*
X113580551Y-60702216D01*
X113580557Y-60702219D01*
X113580558Y-60702220D01*
X113741709Y-60768971D01*
X113890751Y-60798617D01*
X113912781Y-60802999D01*
X113912785Y-60803000D01*
X113912786Y-60803000D01*
X114087215Y-60803000D01*
X114087215Y-60802999D01*
X114140554Y-60792390D01*
X114210144Y-60798617D01*
X114265322Y-60841479D01*
X114288567Y-60907369D01*
X114272500Y-60975366D01*
X114229846Y-61019543D01*
X114221346Y-61024785D01*
X114097289Y-61148842D01*
X114005187Y-61298163D01*
X114005186Y-61298166D01*
X113950001Y-61464703D01*
X113950001Y-61464704D01*
X113950000Y-61464704D01*
X113939500Y-61567483D01*
X113939500Y-62567501D01*
X113939501Y-62567519D01*
X113950000Y-62670296D01*
X113950001Y-62670299D01*
X114005185Y-62836831D01*
X114005187Y-62836836D01*
X114020188Y-62861156D01*
X114097118Y-62985881D01*
X114097289Y-62986157D01*
X114213181Y-63102049D01*
X114246666Y-63163372D01*
X114249500Y-63189730D01*
X114249500Y-75564739D01*
X114240061Y-75612192D01*
X114182184Y-75751917D01*
X114182182Y-75751925D01*
X114149500Y-75916228D01*
X114149500Y-76083771D01*
X114182182Y-76248074D01*
X114182184Y-76248082D01*
X114240061Y-76387808D01*
X114249500Y-76435261D01*
X114249500Y-79637769D01*
X114229815Y-79704808D01*
X114213181Y-79725450D01*
X112277090Y-81661540D01*
X112236862Y-81688420D01*
X112097139Y-81746295D01*
X111957837Y-81839373D01*
X111839373Y-81957837D01*
X111746295Y-82097139D01*
X111746293Y-82097143D01*
X111738560Y-82115813D01*
X111694719Y-82170216D01*
X111628424Y-82192280D01*
X111560725Y-82175000D01*
X111513115Y-82123862D01*
X111500000Y-82068359D01*
X111500000Y-53624500D01*
X111519685Y-53557461D01*
X111572489Y-53511706D01*
X111624000Y-53500500D01*
X150847246Y-53500500D01*
X150914285Y-53520185D01*
G37*
%TD.AperFunction*%
%TD*%
M02*
