%TF.GenerationSoftware,KiCad,Pcbnew,9.0.0*%
%TF.CreationDate,2025-07-10T21:53:31+08:00*%
%TF.ProjectId,tsal_g_v3,7473616c-5f67-45f7-9633-2e6b69636164,rev?*%
%TF.SameCoordinates,Original*%
%TF.FileFunction,Soldermask,Top*%
%TF.FilePolarity,Negative*%
%FSLAX46Y46*%
G04 Gerber Fmt 4.6, Leading zero omitted, Abs format (unit mm)*
G04 Created by KiCad (PCBNEW 9.0.0) date 2025-07-10 21:53:31*
%MOMM*%
%LPD*%
G01*
G04 APERTURE LIST*
G04 Aperture macros list*
%AMRoundRect*
0 Rectangle with rounded corners*
0 $1 Rounding radius*
0 $2 $3 $4 $5 $6 $7 $8 $9 X,Y pos of 4 corners*
0 Add a 4 corners polygon primitive as box body*
4,1,4,$2,$3,$4,$5,$6,$7,$8,$9,$2,$3,0*
0 Add four circle primitives for the rounded corners*
1,1,$1+$1,$2,$3*
1,1,$1+$1,$4,$5*
1,1,$1+$1,$6,$7*
1,1,$1+$1,$8,$9*
0 Add four rect primitives between the rounded corners*
20,1,$1+$1,$2,$3,$4,$5,0*
20,1,$1+$1,$4,$5,$6,$7,0*
20,1,$1+$1,$6,$7,$8,$9,0*
20,1,$1+$1,$8,$9,$2,$3,0*%
G04 Aperture macros list end*
%ADD10RoundRect,0.250000X0.337500X0.475000X-0.337500X0.475000X-0.337500X-0.475000X0.337500X-0.475000X0*%
%ADD11RoundRect,0.150000X-1.100000X-0.150000X1.100000X-0.150000X1.100000X0.150000X-1.100000X0.150000X0*%
%ADD12RoundRect,0.152500X-1.097500X-0.152500X1.097500X-0.152500X1.097500X0.152500X-1.097500X0.152500X0*%
%ADD13RoundRect,0.150000X-0.150000X1.100000X-0.150000X-1.100000X0.150000X-1.100000X0.150000X1.100000X0*%
%ADD14RoundRect,0.152500X-0.152500X1.097500X-0.152500X-1.097500X0.152500X-1.097500X0.152500X1.097500X0*%
%ADD15RoundRect,0.250000X0.475000X-0.337500X0.475000X0.337500X-0.475000X0.337500X-0.475000X-0.337500X0*%
%ADD16RoundRect,0.251116X3.376384X-2.561384X3.376384X2.561384X-3.376384X2.561384X-3.376384X-2.561384X0*%
%ADD17RoundRect,0.162500X0.617500X0.162500X-0.617500X0.162500X-0.617500X-0.162500X0.617500X-0.162500X0*%
%ADD18RoundRect,0.375000X-0.375000X0.625000X-0.375000X-0.625000X0.375000X-0.625000X0.375000X0.625000X0*%
%ADD19RoundRect,0.500000X-1.400000X0.500000X-1.400000X-0.500000X1.400000X-0.500000X1.400000X0.500000X0*%
%ADD20RoundRect,0.250000X-0.475000X0.337500X-0.475000X-0.337500X0.475000X-0.337500X0.475000X0.337500X0*%
%ADD21RoundRect,0.250000X-0.450000X0.325000X-0.450000X-0.325000X0.450000X-0.325000X0.450000X0.325000X0*%
%ADD22RoundRect,0.250000X0.450000X-0.350000X0.450000X0.350000X-0.450000X0.350000X-0.450000X-0.350000X0*%
%ADD23RoundRect,0.162500X-0.162500X0.617500X-0.162500X-0.617500X0.162500X-0.617500X0.162500X0.617500X0*%
%ADD24RoundRect,0.250000X-0.350000X-0.450000X0.350000X-0.450000X0.350000X0.450000X-0.350000X0.450000X0*%
%ADD25RoundRect,0.250000X-0.337500X-0.475000X0.337500X-0.475000X0.337500X0.475000X-0.337500X0.475000X0*%
%ADD26RoundRect,0.250000X-0.450000X0.350000X-0.450000X-0.350000X0.450000X-0.350000X0.450000X0.350000X0*%
%ADD27RoundRect,0.250000X-0.325000X-0.450000X0.325000X-0.450000X0.325000X0.450000X-0.325000X0.450000X0*%
%ADD28C,1.270000*%
%ADD29RoundRect,0.250001X0.759999X-0.499999X0.759999X0.499999X-0.759999X0.499999X-0.759999X-0.499999X0*%
%ADD30O,2.020000X1.500000*%
%ADD31R,1.600000X1.600000*%
%ADD32O,1.600000X1.600000*%
%ADD33C,3.200000*%
%ADD34RoundRect,0.250001X0.499999X0.759999X-0.499999X0.759999X-0.499999X-0.759999X0.499999X-0.759999X0*%
%ADD35O,1.500000X2.020000*%
%ADD36RoundRect,0.249999X-0.750001X-0.640001X0.750001X-0.640001X0.750001X0.640001X-0.750001X0.640001X0*%
%ADD37RoundRect,0.162500X-0.617500X-0.162500X0.617500X-0.162500X0.617500X0.162500X-0.617500X0.162500X0*%
%ADD38RoundRect,0.250000X0.350000X0.450000X-0.350000X0.450000X-0.350000X-0.450000X0.350000X-0.450000X0*%
%ADD39RoundRect,0.250000X0.325000X0.450000X-0.325000X0.450000X-0.325000X-0.450000X0.325000X-0.450000X0*%
%ADD40C,3.000000*%
%ADD41R,1.500000X1.500000*%
%ADD42C,1.500000*%
%ADD43RoundRect,0.250001X1.074999X-0.462499X1.074999X0.462499X-1.074999X0.462499X-1.074999X-0.462499X0*%
%ADD44RoundRect,0.250000X0.450000X-0.325000X0.450000X0.325000X-0.450000X0.325000X-0.450000X-0.325000X0*%
%ADD45RoundRect,0.250000X0.650000X-1.000000X0.650000X1.000000X-0.650000X1.000000X-0.650000X-1.000000X0*%
%ADD46RoundRect,0.200000X-0.750000X-0.200000X0.750000X-0.200000X0.750000X0.200000X-0.750000X0.200000X0*%
%ADD47RoundRect,0.150000X-0.825000X-0.150000X0.825000X-0.150000X0.825000X0.150000X-0.825000X0.150000X0*%
%ADD48RoundRect,0.200000X0.750000X0.200000X-0.750000X0.200000X-0.750000X-0.200000X0.750000X-0.200000X0*%
G04 APERTURE END LIST*
D10*
%TO.C,C7*%
X127037500Y-79500000D03*
X124962500Y-79500000D03*
%TD*%
D11*
%TO.C,U20*%
X141225000Y-59650000D03*
X141225000Y-60920000D03*
X141225000Y-62190000D03*
X141225000Y-63460000D03*
X141225000Y-64730000D03*
X141225000Y-66000000D03*
D12*
X141225000Y-67265000D03*
X146725000Y-67265000D03*
D11*
X146725000Y-66000000D03*
X146725000Y-64730000D03*
X146725000Y-63460000D03*
X146725000Y-62190000D03*
X146725000Y-60920000D03*
X146725000Y-59650000D03*
%TD*%
D13*
%TO.C,U17*%
X163310000Y-97250000D03*
X162040000Y-97250000D03*
X160770000Y-97250000D03*
X159500000Y-97250000D03*
X158230000Y-97250000D03*
X156960000Y-97250000D03*
D14*
X155695000Y-97250000D03*
X155695000Y-102750000D03*
D13*
X156960000Y-102750000D03*
X158230000Y-102750000D03*
X159500000Y-102750000D03*
X160770000Y-102750000D03*
X162040000Y-102750000D03*
X163310000Y-102750000D03*
%TD*%
%TO.C,U6*%
X123850000Y-64317500D03*
X122580000Y-64317500D03*
X121310000Y-64317500D03*
X120040000Y-64317500D03*
X118770000Y-64317500D03*
X117500000Y-64317500D03*
D14*
X116235000Y-64317500D03*
X116235000Y-69817500D03*
D13*
X117500000Y-69817500D03*
X118770000Y-69817500D03*
X120040000Y-69817500D03*
X121310000Y-69817500D03*
X122580000Y-69817500D03*
X123850000Y-69817500D03*
%TD*%
%TO.C,U5*%
X134810000Y-64292500D03*
X133540000Y-64292500D03*
X132270000Y-64292500D03*
X131000000Y-64292500D03*
X129730000Y-64292500D03*
X128460000Y-64292500D03*
D14*
X127195000Y-64292500D03*
X127195000Y-69792500D03*
D13*
X128460000Y-69792500D03*
X129730000Y-69792500D03*
X131000000Y-69792500D03*
X132270000Y-69792500D03*
X133540000Y-69792500D03*
X134810000Y-69792500D03*
%TD*%
D15*
%TO.C,C6*%
X117000000Y-107462500D03*
X117000000Y-109537500D03*
%TD*%
%TO.C,C9*%
X119500000Y-107462500D03*
X119500000Y-109537500D03*
%TD*%
D16*
%TO.C,F1*%
X73000000Y-75775000D03*
X73000000Y-65225000D03*
%TD*%
D17*
%TO.C,U18*%
X156350000Y-94450000D03*
X156350000Y-93500000D03*
X156350000Y-92550000D03*
X153650000Y-92550000D03*
X153650000Y-94450000D03*
%TD*%
D18*
%TO.C,Q2*%
X148300000Y-95350000D03*
X146000000Y-95350000D03*
D19*
X146000000Y-101650000D03*
D18*
X143700000Y-95350000D03*
%TD*%
D20*
%TO.C,C1*%
X83500000Y-92187500D03*
X83500000Y-94262500D03*
%TD*%
D21*
%TO.C,D6*%
X155000000Y-59450000D03*
X155000000Y-61500000D03*
%TD*%
D22*
%TO.C,R30*%
X161000000Y-87500000D03*
X161000000Y-85500000D03*
%TD*%
%TO.C,R6*%
X73500000Y-91000000D03*
X73500000Y-89000000D03*
%TD*%
D10*
%TO.C,C16*%
X165537500Y-94500000D03*
X163462500Y-94500000D03*
%TD*%
D22*
%TO.C,R29*%
X161000000Y-94500000D03*
X161000000Y-92500000D03*
%TD*%
D23*
%TO.C,U14*%
X146450000Y-71197500D03*
X145500000Y-71197500D03*
X144550000Y-71197500D03*
X144550000Y-73897500D03*
X146450000Y-73897500D03*
%TD*%
D10*
%TO.C,C12*%
X133537500Y-101000000D03*
X131462500Y-101000000D03*
%TD*%
D24*
%TO.C,R4*%
X91000000Y-85725000D03*
X93000000Y-85725000D03*
%TD*%
D15*
%TO.C,C11*%
X128000000Y-94037500D03*
X128000000Y-91962500D03*
%TD*%
D17*
%TO.C,U10*%
X134350000Y-91950000D03*
X134350000Y-91000000D03*
X134350000Y-90050000D03*
X131650000Y-90050000D03*
X131650000Y-91950000D03*
%TD*%
D21*
%TO.C,D5*%
X158000000Y-59450000D03*
X158000000Y-61500000D03*
%TD*%
D22*
%TO.C,R10*%
X88000000Y-75725000D03*
X88000000Y-73725000D03*
%TD*%
D25*
%TO.C,C4*%
X95925000Y-97500000D03*
X98000000Y-97500000D03*
%TD*%
D26*
%TO.C,R11*%
X88000000Y-83725000D03*
X88000000Y-85725000D03*
%TD*%
%TO.C,R1*%
X86500000Y-92225000D03*
X86500000Y-94225000D03*
%TD*%
D27*
%TO.C,D4*%
X114475000Y-88000000D03*
X116525000Y-88000000D03*
%TD*%
D10*
%TO.C,C24*%
X148537500Y-56000000D03*
X146462500Y-56000000D03*
%TD*%
D28*
%TO.C,J8*%
X163125000Y-77000000D03*
X163125000Y-65000000D03*
D29*
X165085000Y-74000000D03*
D30*
X165085000Y-71000000D03*
X165085000Y-68000000D03*
%TD*%
D26*
%TO.C,R13*%
X99500000Y-77225000D03*
X99500000Y-79225000D03*
%TD*%
D31*
%TO.C,D1*%
X84000000Y-73725000D03*
D32*
X84000000Y-81345000D03*
%TD*%
D20*
%TO.C,C2*%
X88000000Y-79187500D03*
X88000000Y-81262500D03*
%TD*%
%TO.C,C20*%
X151000000Y-85462500D03*
X151000000Y-87537500D03*
%TD*%
D33*
%TO.C,H3*%
X166500000Y-108000000D03*
%TD*%
D28*
%TO.C,J7*%
X139500000Y-109460000D03*
X130500000Y-109460000D03*
D34*
X136500000Y-107500000D03*
D35*
X133500000Y-107500000D03*
%TD*%
D24*
%TO.C,R2*%
X90500000Y-97225000D03*
X92500000Y-97225000D03*
%TD*%
D36*
%TO.C,U2*%
X103235000Y-76230000D03*
X103235000Y-78770000D03*
X112765000Y-78770000D03*
X112765000Y-76230000D03*
%TD*%
D37*
%TO.C,U15*%
X144150000Y-85550000D03*
X144150000Y-86500000D03*
X144150000Y-87450000D03*
X146850000Y-87450000D03*
X146850000Y-85550000D03*
%TD*%
D23*
%TO.C,U7*%
X125950000Y-87150000D03*
X125000000Y-87150000D03*
X124050000Y-87150000D03*
X124050000Y-89850000D03*
X125950000Y-89850000D03*
%TD*%
D21*
%TO.C,D7*%
X152000000Y-59450000D03*
X152000000Y-61500000D03*
%TD*%
D24*
%TO.C,R17*%
X114500000Y-90500000D03*
X116500000Y-90500000D03*
%TD*%
%TO.C,R27*%
X139000000Y-97500000D03*
X141000000Y-97500000D03*
%TD*%
D38*
%TO.C,R28*%
X165500000Y-91000000D03*
X163500000Y-91000000D03*
%TD*%
D39*
%TO.C,D9*%
X161025000Y-90000000D03*
X158975000Y-90000000D03*
%TD*%
D33*
%TO.C,H4*%
X166500000Y-58000000D03*
%TD*%
D20*
%TO.C,C8*%
X128000000Y-87962500D03*
X128000000Y-90037500D03*
%TD*%
D40*
%TO.C,J2*%
X62180000Y-89000000D03*
D29*
X66500000Y-90500000D03*
D30*
X66500000Y-87500000D03*
%TD*%
D17*
%TO.C,U19*%
X156350000Y-87450000D03*
X156350000Y-86500000D03*
X156350000Y-85550000D03*
X153650000Y-85550000D03*
X153650000Y-87450000D03*
%TD*%
D26*
%TO.C,R7*%
X73500000Y-93500000D03*
X73500000Y-95500000D03*
%TD*%
D28*
%TO.C,J6*%
X152000000Y-109460000D03*
X143000000Y-109460000D03*
D34*
X149000000Y-107500000D03*
D35*
X146000000Y-107500000D03*
%TD*%
D41*
%TO.C,U3*%
X113000000Y-107500000D03*
D42*
X110460000Y-107500000D03*
X102840000Y-107500000D03*
X97760000Y-107500000D03*
%TD*%
D33*
%TO.C,H1*%
X61500000Y-58000000D03*
%TD*%
D43*
%TO.C,F2*%
X127000000Y-107487500D03*
X127000000Y-104512500D03*
%TD*%
D26*
%TO.C,R5*%
X73500000Y-84500000D03*
X73500000Y-86500000D03*
%TD*%
%TO.C,R14*%
X103000000Y-71000000D03*
X103000000Y-73000000D03*
%TD*%
D38*
%TO.C,R9*%
X73500000Y-103000000D03*
X71500000Y-103000000D03*
%TD*%
D22*
%TO.C,R12*%
X83500000Y-89725000D03*
X83500000Y-87725000D03*
%TD*%
D37*
%TO.C,U4*%
X122150000Y-82050000D03*
X122150000Y-83000000D03*
X122150000Y-83950000D03*
X124850000Y-83950000D03*
X124850000Y-82050000D03*
%TD*%
D25*
%TO.C,C5*%
X95925000Y-94000000D03*
X98000000Y-94000000D03*
%TD*%
D17*
%TO.C,U16*%
X145850000Y-78450000D03*
X145850000Y-77500000D03*
X145850000Y-76550000D03*
X143150000Y-76550000D03*
X143150000Y-78450000D03*
%TD*%
D24*
%TO.C,R3*%
X71500000Y-81500000D03*
X73500000Y-81500000D03*
%TD*%
%TO.C,R15*%
X115500000Y-79000000D03*
X117500000Y-79000000D03*
%TD*%
D17*
%TO.C,U11*%
X134350000Y-98450000D03*
X134350000Y-97500000D03*
X134350000Y-96550000D03*
X131650000Y-96550000D03*
X131650000Y-98450000D03*
%TD*%
D44*
%TO.C,D2*%
X86000000Y-89750000D03*
X86000000Y-87700000D03*
%TD*%
D28*
%TO.C,J3*%
X135000000Y-59917500D03*
X114000000Y-59917500D03*
D34*
X132000000Y-57957500D03*
D35*
X129000000Y-57957500D03*
X126000000Y-57957500D03*
X123000000Y-57957500D03*
X120000000Y-57957500D03*
X117000000Y-57957500D03*
%TD*%
D45*
%TO.C,D3*%
X123000000Y-109000000D03*
X123000000Y-105000000D03*
%TD*%
D46*
%TO.C,U1*%
X89500000Y-92275000D03*
X89500000Y-94175000D03*
X92500000Y-93225000D03*
%TD*%
D27*
%TO.C,D8*%
X138975000Y-95000000D03*
X141025000Y-95000000D03*
%TD*%
D47*
%TO.C,LM1*%
X91525000Y-78320000D03*
X91525000Y-79590000D03*
X91525000Y-80860000D03*
X91525000Y-82130000D03*
X96475000Y-82130000D03*
X96475000Y-80860000D03*
X96475000Y-79590000D03*
X96475000Y-78320000D03*
%TD*%
D33*
%TO.C,H2*%
X61500000Y-108000000D03*
%TD*%
D48*
%TO.C,Q1*%
X118500000Y-82950000D03*
X115500000Y-82000000D03*
X118500000Y-81050000D03*
%TD*%
D10*
%TO.C,C3*%
X93537500Y-75725000D03*
X91462500Y-75725000D03*
%TD*%
D22*
%TO.C,R8*%
X73500000Y-100000000D03*
X73500000Y-98000000D03*
%TD*%
D24*
%TO.C,R16*%
X114500000Y-85500000D03*
X116500000Y-85500000D03*
%TD*%
D40*
%TO.C,J1*%
X62180000Y-72500000D03*
D29*
X66500000Y-74000000D03*
D30*
X66500000Y-71000000D03*
%TD*%
M02*
