%TF.GenerationSoftware,KiCad,Pcbnew,9.0.0*%
%TF.CreationDate,2025-07-10T21:53:31+08:00*%
%TF.ProjectId,tsal_g_v3,7473616c-5f67-45f7-9633-2e6b69636164,rev?*%
%TF.SameCoordinates,Original*%
%TF.FileFunction,Soldermask,Bot*%
%TF.FilePolarity,Negative*%
%FSLAX46Y46*%
G04 Gerber Fmt 4.6, Leading zero omitted, Abs format (unit mm)*
G04 Created by KiCad (PCBNEW 9.0.0) date 2025-07-10 21:53:31*
%MOMM*%
%LPD*%
G01*
G04 APERTURE LIST*
G04 Aperture macros list*
%AMRoundRect*
0 Rectangle with rounded corners*
0 $1 Rounding radius*
0 $2 $3 $4 $5 $6 $7 $8 $9 X,Y pos of 4 corners*
0 Add a 4 corners polygon primitive as box body*
4,1,4,$2,$3,$4,$5,$6,$7,$8,$9,$2,$3,0*
0 Add four circle primitives for the rounded corners*
1,1,$1+$1,$2,$3*
1,1,$1+$1,$4,$5*
1,1,$1+$1,$6,$7*
1,1,$1+$1,$8,$9*
0 Add four rect primitives between the rounded corners*
20,1,$1+$1,$2,$3,$4,$5,0*
20,1,$1+$1,$4,$5,$6,$7,0*
20,1,$1+$1,$6,$7,$8,$9,0*
20,1,$1+$1,$8,$9,$2,$3,0*%
G04 Aperture macros list end*
%ADD10C,1.270000*%
%ADD11RoundRect,0.250001X0.759999X-0.499999X0.759999X0.499999X-0.759999X0.499999X-0.759999X-0.499999X0*%
%ADD12O,2.020000X1.500000*%
%ADD13R,1.600000X1.600000*%
%ADD14O,1.600000X1.600000*%
%ADD15C,3.200000*%
%ADD16RoundRect,0.250001X0.499999X0.759999X-0.499999X0.759999X-0.499999X-0.759999X0.499999X-0.759999X0*%
%ADD17O,1.500000X2.020000*%
%ADD18C,3.000000*%
%ADD19RoundRect,0.250000X-0.475000X0.337500X-0.475000X-0.337500X0.475000X-0.337500X0.475000X0.337500X0*%
%ADD20R,1.500000X1.500000*%
%ADD21C,1.500000*%
%ADD22RoundRect,0.250000X0.475000X-0.337500X0.475000X0.337500X-0.475000X0.337500X-0.475000X-0.337500X0*%
%ADD23RoundRect,0.250000X-0.337500X-0.475000X0.337500X-0.475000X0.337500X0.475000X-0.337500X0.475000X0*%
%ADD24RoundRect,0.250000X0.350000X0.450000X-0.350000X0.450000X-0.350000X-0.450000X0.350000X-0.450000X0*%
%ADD25RoundRect,0.250000X0.450000X-0.350000X0.450000X0.350000X-0.450000X0.350000X-0.450000X-0.350000X0*%
%ADD26RoundRect,0.250000X-0.450000X0.350000X-0.450000X-0.350000X0.450000X-0.350000X0.450000X0.350000X0*%
%ADD27RoundRect,0.250000X0.337500X0.475000X-0.337500X0.475000X-0.337500X-0.475000X0.337500X-0.475000X0*%
G04 APERTURE END LIST*
D10*
%TO.C,J8*%
X163125000Y-77000000D03*
X163125000Y-65000000D03*
D11*
X165085000Y-74000000D03*
D12*
X165085000Y-71000000D03*
X165085000Y-68000000D03*
%TD*%
D13*
%TO.C,D1*%
X84000000Y-73725000D03*
D14*
X84000000Y-81345000D03*
%TD*%
D15*
%TO.C,H3*%
X166500000Y-108000000D03*
%TD*%
D10*
%TO.C,J7*%
X139500000Y-109460000D03*
X130500000Y-109460000D03*
D16*
X136500000Y-107500000D03*
D17*
X133500000Y-107500000D03*
%TD*%
D15*
%TO.C,H4*%
X166500000Y-58000000D03*
%TD*%
D18*
%TO.C,J2*%
X62180000Y-89000000D03*
D11*
X66500000Y-90500000D03*
D12*
X66500000Y-87500000D03*
%TD*%
D19*
%TO.C,C15*%
X150500000Y-71925000D03*
X150500000Y-74000000D03*
%TD*%
D10*
%TO.C,J6*%
X152000000Y-109460000D03*
X143000000Y-109460000D03*
D16*
X149000000Y-107500000D03*
D17*
X146000000Y-107500000D03*
%TD*%
D20*
%TO.C,U3*%
X113000000Y-107500000D03*
D21*
X110460000Y-107500000D03*
X102840000Y-107500000D03*
X97760000Y-107500000D03*
%TD*%
D22*
%TO.C,C19*%
X151523250Y-99037500D03*
X151523250Y-96962500D03*
%TD*%
D15*
%TO.C,H1*%
X61500000Y-58000000D03*
%TD*%
D23*
%TO.C,C17*%
X144925000Y-82500000D03*
X147000000Y-82500000D03*
%TD*%
D10*
%TO.C,J3*%
X135000000Y-59917500D03*
X114000000Y-59917500D03*
D16*
X132000000Y-57957500D03*
D17*
X129000000Y-57957500D03*
X126000000Y-57957500D03*
X123000000Y-57957500D03*
X120000000Y-57957500D03*
X117000000Y-57957500D03*
%TD*%
D15*
%TO.C,H2*%
X61500000Y-108000000D03*
%TD*%
D18*
%TO.C,J1*%
X62180000Y-72500000D03*
D11*
X66500000Y-74000000D03*
D12*
X66500000Y-71000000D03*
%TD*%
D24*
%TO.C,R22*%
X117040000Y-62067500D03*
X115040000Y-62067500D03*
%TD*%
D23*
%TO.C,C23*%
X166425000Y-98500000D03*
X168500000Y-98500000D03*
%TD*%
D25*
%TO.C,R25*%
X158000000Y-56500000D03*
X158000000Y-54500000D03*
%TD*%
D26*
%TO.C,R19*%
X132000000Y-62042500D03*
X132000000Y-64042500D03*
%TD*%
D19*
%TO.C,C21*%
X134500000Y-63545000D03*
X134500000Y-65620000D03*
%TD*%
D27*
%TO.C,C22*%
X127537500Y-72500000D03*
X125462500Y-72500000D03*
%TD*%
D26*
%TO.C,R23*%
X123000000Y-62042500D03*
X123000000Y-64042500D03*
%TD*%
D19*
%TO.C,C18*%
X141000000Y-73462500D03*
X141000000Y-75537500D03*
%TD*%
D25*
%TO.C,R26*%
X152000000Y-56500000D03*
X152000000Y-54500000D03*
%TD*%
D26*
%TO.C,R20*%
X129000000Y-62042500D03*
X129000000Y-64042500D03*
%TD*%
D25*
%TO.C,R24*%
X155000000Y-56500000D03*
X155000000Y-54500000D03*
%TD*%
D26*
%TO.C,R18*%
X126000000Y-62042500D03*
X126000000Y-64042500D03*
%TD*%
%TO.C,R21*%
X120000000Y-62042500D03*
X120000000Y-64042500D03*
%TD*%
M02*
