%TF.GenerationSoftware,KiCad,Pcbnew,9.0.2*%
%TF.CreationDate,2025-06-10T12:21:51+08:00*%
%TF.ProjectId,BDU_TS,4244555f-5453-42e6-9b69-6361645f7063,rev?*%
%TF.SameCoordinates,Original*%
%TF.FileFunction,Copper,L1,Top*%
%TF.FilePolarity,Positive*%
%FSLAX46Y46*%
G04 Gerber Fmt 4.6, Leading zero omitted, Abs format (unit mm)*
G04 Created by KiCad (PCBNEW 9.0.2) date 2025-06-10 12:21:51*
%MOMM*%
%LPD*%
G01*
G04 APERTURE LIST*
G04 Aperture macros list*
%AMRoundRect*
0 Rectangle with rounded corners*
0 $1 Rounding radius*
0 $2 $3 $4 $5 $6 $7 $8 $9 X,Y pos of 4 corners*
0 Add a 4 corners polygon primitive as box body*
4,1,4,$2,$3,$4,$5,$6,$7,$8,$9,$2,$3,0*
0 Add four circle primitives for the rounded corners*
1,1,$1+$1,$2,$3*
1,1,$1+$1,$4,$5*
1,1,$1+$1,$6,$7*
1,1,$1+$1,$8,$9*
0 Add four rect primitives between the rounded corners*
20,1,$1+$1,$2,$3,$4,$5,0*
20,1,$1+$1,$4,$5,$6,$7,0*
20,1,$1+$1,$6,$7,$8,$9,0*
20,1,$1+$1,$8,$9,$2,$3,0*%
G04 Aperture macros list end*
%TA.AperFunction,ComponentPad*%
%ADD10RoundRect,0.250001X0.759999X-0.499999X0.759999X0.499999X-0.759999X0.499999X-0.759999X-0.499999X0*%
%TD*%
%TA.AperFunction,ComponentPad*%
%ADD11O,2.020000X1.500000*%
%TD*%
%TA.AperFunction,SMDPad,CuDef*%
%ADD12RoundRect,0.251116X2.561384X3.376384X-2.561384X3.376384X-2.561384X-3.376384X2.561384X-3.376384X0*%
%TD*%
%TA.AperFunction,ComponentPad*%
%ADD13RoundRect,0.250001X-0.499999X-0.759999X0.499999X-0.759999X0.499999X0.759999X-0.499999X0.759999X0*%
%TD*%
%TA.AperFunction,ComponentPad*%
%ADD14O,1.500000X2.020000*%
%TD*%
%TA.AperFunction,SMDPad,CuDef*%
%ADD15RoundRect,0.251116X3.376384X-2.561384X3.376384X2.561384X-3.376384X2.561384X-3.376384X-2.561384X0*%
%TD*%
%TA.AperFunction,ComponentPad*%
%ADD16RoundRect,0.250001X0.499999X0.759999X-0.499999X0.759999X-0.499999X-0.759999X0.499999X-0.759999X0*%
%TD*%
%TA.AperFunction,ComponentPad*%
%ADD17RoundRect,0.250001X-0.759999X0.499999X-0.759999X-0.499999X0.759999X-0.499999X0.759999X0.499999X0*%
%TD*%
%TA.AperFunction,Conductor*%
%ADD18C,1.200000*%
%TD*%
G04 APERTURE END LIST*
D10*
%TO.P,J13,1,Pin_1*%
%TO.N,/precharge*%
X84560000Y-114400000D03*
D11*
%TO.P,J13,2,Pin_2*%
X84560000Y-111400000D03*
%TD*%
D12*
%TO.P,F10,1*%
%TO.N,/fused_TS+*%
X113100000Y-94725000D03*
%TO.P,F10,2*%
%TO.N,TS+*%
X102550000Y-94725000D03*
%TD*%
D13*
%TO.P,J5,1,Pin_1*%
%TO.N,/fused_TS+*%
X113100000Y-79500000D03*
D14*
%TO.P,J5,2,Pin_2*%
X116100000Y-79500000D03*
%TD*%
D10*
%TO.P,R1,1*%
%TO.N,Net-(F2-Pad2)*%
X84635000Y-101500000D03*
D11*
%TO.P,R1,2*%
%TO.N,TS+*%
X84635000Y-98500000D03*
%TD*%
D13*
%TO.P,J9,1,Pin_1*%
%TO.N,TS-*%
X128300000Y-75500000D03*
D14*
%TO.P,J9,2,Pin_2*%
X131300000Y-75500000D03*
%TD*%
D10*
%TO.P,J8,1,Pin_1*%
%TO.N,TS+*%
X84625000Y-88825000D03*
D11*
%TO.P,J8,2,Pin_2*%
X84625000Y-85825000D03*
%TD*%
D15*
%TO.P,F2,1*%
%TO.N,/precharge*%
X109000000Y-120025000D03*
%TO.P,F2,2*%
%TO.N,Net-(F2-Pad2)*%
X109000000Y-109475000D03*
%TD*%
D13*
%TO.P,J7,1,Pin_1*%
%TO.N,/fused_TS+*%
X143100000Y-75400000D03*
D14*
%TO.P,J7,2,Pin_2*%
X146100000Y-75400000D03*
%TD*%
D16*
%TO.P,J10,1,Pin_1*%
%TO.N,TS-*%
X123800000Y-124500000D03*
D14*
%TO.P,J10,2,Pin_2*%
X120800000Y-124500000D03*
%TD*%
D17*
%TO.P,J12,1,Pin_1*%
%TO.N,TS-*%
X147000000Y-100100000D03*
D11*
%TO.P,J12,2,Pin_2*%
X147000000Y-103100000D03*
%TD*%
D16*
%TO.P,J6,1,Pin_1*%
%TO.N,/fused_TS+*%
X139700000Y-124515000D03*
D14*
%TO.P,J6,2,Pin_2*%
X136700000Y-124515000D03*
%TD*%
D13*
%TO.P,J11,1,Pin_1*%
%TO.N,TS-*%
X98200000Y-79500000D03*
D14*
%TO.P,J11,2,Pin_2*%
X101200000Y-79500000D03*
%TD*%
D18*
%TO.N,TS+*%
X97850000Y-94725000D02*
X102550000Y-94725000D01*
X97800000Y-94675000D02*
X101200000Y-94675000D01*
X97800000Y-94675000D02*
X97850000Y-94725000D01*
%TO.N,/fused_TS+*%
X113100000Y-86550000D02*
X113100000Y-94725000D01*
%TO.N,/precharge*%
X84560000Y-114400000D02*
X84560000Y-111400000D01*
X84560000Y-114400000D02*
X93950000Y-114400000D01*
X95050000Y-115500000D02*
X95050000Y-118675000D01*
X95050000Y-118675000D02*
X96400000Y-120025000D01*
X96400000Y-120025000D02*
X109000000Y-120025000D01*
X93950000Y-114400000D02*
X95050000Y-115500000D01*
%TO.N,Net-(F2-Pad2)*%
X84635000Y-101500000D02*
X93275000Y-101500000D01*
X96250000Y-109475000D02*
X109000000Y-109475000D01*
X94950000Y-108175000D02*
X96250000Y-109475000D01*
X93275000Y-101500000D02*
X94950000Y-103175000D01*
X94950000Y-103175000D02*
X94950000Y-108175000D01*
%TO.N,/fused_TS+*%
X143100000Y-83200000D02*
X143100000Y-75400000D01*
X113100000Y-79500000D02*
X116100000Y-79500000D01*
X139700000Y-86600000D02*
X143100000Y-83200000D01*
X139700000Y-124515000D02*
X139700000Y-86600000D01*
X113100000Y-79500000D02*
X113100000Y-86550000D01*
X113150000Y-86600000D02*
X139700000Y-86600000D01*
X113100000Y-86550000D02*
X113150000Y-86600000D01*
X143100000Y-75400000D02*
X146100000Y-75400000D01*
X139700000Y-124515000D02*
X136700000Y-124515000D01*
%TO.N,TS+*%
X84625000Y-88825000D02*
X84625000Y-94725000D01*
X101200000Y-94675000D02*
X101250000Y-94725000D01*
X84625000Y-94725000D02*
X101250000Y-94725000D01*
X84635000Y-94675000D02*
X97800000Y-94675000D01*
X84625000Y-85825000D02*
X84625000Y-88825000D01*
X84635000Y-98500000D02*
X84635000Y-94675000D01*
%TD*%
M02*
