%TF.GenerationSoftware,KiCad,Pcbnew,9.0.2*%
%TF.CreationDate,2025-06-10T12:21:51+08:00*%
%TF.ProjectId,BDU_TS,4244555f-5453-42e6-9b69-6361645f7063,rev?*%
%TF.SameCoordinates,Original*%
%TF.FileFunction,Legend,Top*%
%TF.FilePolarity,Positive*%
%FSLAX46Y46*%
G04 Gerber Fmt 4.6, Leading zero omitted, Abs format (unit mm)*
G04 Created by KiCad (PCBNEW 9.0.2) date 2025-06-10 12:21:51*
%MOMM*%
%LPD*%
G01*
G04 APERTURE LIST*
%ADD10C,0.100000*%
%ADD11C,0.250000*%
%ADD12C,0.240000*%
%ADD13C,0.150000*%
%ADD14C,0.120000*%
%ADD15C,0.000000*%
G04 APERTURE END LIST*
D10*
X80500000Y-120400000D02*
X89600000Y-120400000D01*
X89600000Y-129500000D01*
X80500000Y-129500000D01*
X80500000Y-120400000D01*
G36*
X80500000Y-120400000D02*
G01*
X89600000Y-120400000D01*
X89600000Y-129500000D01*
X80500000Y-129500000D01*
X80500000Y-120400000D01*
G37*
X153700000Y-70450000D02*
X162800000Y-70450000D01*
X162800000Y-79550000D01*
X153700000Y-79550000D01*
X153700000Y-70450000D01*
G36*
X153700000Y-70450000D02*
G01*
X162800000Y-70450000D01*
X162800000Y-79550000D01*
X153700000Y-79550000D01*
X153700000Y-70450000D01*
G37*
X80500000Y-70400000D02*
X89600000Y-70400000D01*
X89600000Y-79500000D01*
X80500000Y-79500000D01*
X80500000Y-70400000D01*
G36*
X80500000Y-70400000D02*
G01*
X89600000Y-70400000D01*
X89600000Y-79500000D01*
X80500000Y-79500000D01*
X80500000Y-70400000D01*
G37*
X153700000Y-120450000D02*
X162800000Y-120450000D01*
X162800000Y-129550000D01*
X153700000Y-129550000D01*
X153700000Y-120450000D01*
G36*
X153700000Y-120450000D02*
G01*
X162800000Y-120450000D01*
X162800000Y-129550000D01*
X153700000Y-129550000D01*
X153700000Y-120450000D01*
G37*
D11*
X131457143Y-117612238D02*
X132123809Y-119612238D01*
X132123809Y-119612238D02*
X132790476Y-117612238D01*
X133742857Y-119612238D02*
X133552381Y-119517000D01*
X133552381Y-119517000D02*
X133457143Y-119421761D01*
X133457143Y-119421761D02*
X133361905Y-119231285D01*
X133361905Y-119231285D02*
X133361905Y-118659857D01*
X133361905Y-118659857D02*
X133457143Y-118469380D01*
X133457143Y-118469380D02*
X133552381Y-118374142D01*
X133552381Y-118374142D02*
X133742857Y-118278904D01*
X133742857Y-118278904D02*
X134028572Y-118278904D01*
X134028572Y-118278904D02*
X134219048Y-118374142D01*
X134219048Y-118374142D02*
X134314286Y-118469380D01*
X134314286Y-118469380D02*
X134409524Y-118659857D01*
X134409524Y-118659857D02*
X134409524Y-119231285D01*
X134409524Y-119231285D02*
X134314286Y-119421761D01*
X134314286Y-119421761D02*
X134219048Y-119517000D01*
X134219048Y-119517000D02*
X134028572Y-119612238D01*
X134028572Y-119612238D02*
X133742857Y-119612238D01*
X135552381Y-119612238D02*
X135361905Y-119517000D01*
X135361905Y-119517000D02*
X135266667Y-119326523D01*
X135266667Y-119326523D02*
X135266667Y-117612238D01*
X136028572Y-118278904D02*
X136790476Y-118278904D01*
X136314286Y-117612238D02*
X136314286Y-119326523D01*
X136314286Y-119326523D02*
X136409524Y-119517000D01*
X136409524Y-119517000D02*
X136600000Y-119612238D01*
X136600000Y-119612238D02*
X136790476Y-119612238D01*
X137457143Y-119612238D02*
X137457143Y-118278904D01*
X137457143Y-118469380D02*
X137552381Y-118374142D01*
X137552381Y-118374142D02*
X137742857Y-118278904D01*
X137742857Y-118278904D02*
X138028572Y-118278904D01*
X138028572Y-118278904D02*
X138219048Y-118374142D01*
X138219048Y-118374142D02*
X138314286Y-118564619D01*
X138314286Y-118564619D02*
X138314286Y-119612238D01*
X138314286Y-118564619D02*
X138409524Y-118374142D01*
X138409524Y-118374142D02*
X138600000Y-118278904D01*
X138600000Y-118278904D02*
X138885714Y-118278904D01*
X138885714Y-118278904D02*
X139076191Y-118374142D01*
X139076191Y-118374142D02*
X139171429Y-118564619D01*
X139171429Y-118564619D02*
X139171429Y-119612238D01*
X140885715Y-119517000D02*
X140695239Y-119612238D01*
X140695239Y-119612238D02*
X140314286Y-119612238D01*
X140314286Y-119612238D02*
X140123810Y-119517000D01*
X140123810Y-119517000D02*
X140028572Y-119326523D01*
X140028572Y-119326523D02*
X140028572Y-118564619D01*
X140028572Y-118564619D02*
X140123810Y-118374142D01*
X140123810Y-118374142D02*
X140314286Y-118278904D01*
X140314286Y-118278904D02*
X140695239Y-118278904D01*
X140695239Y-118278904D02*
X140885715Y-118374142D01*
X140885715Y-118374142D02*
X140980953Y-118564619D01*
X140980953Y-118564619D02*
X140980953Y-118755095D01*
X140980953Y-118755095D02*
X140028572Y-118945571D01*
X141552382Y-118278904D02*
X142314286Y-118278904D01*
X141838096Y-117612238D02*
X141838096Y-119326523D01*
X141838096Y-119326523D02*
X141933334Y-119517000D01*
X141933334Y-119517000D02*
X142123810Y-119612238D01*
X142123810Y-119612238D02*
X142314286Y-119612238D01*
X143742858Y-119517000D02*
X143552382Y-119612238D01*
X143552382Y-119612238D02*
X143171429Y-119612238D01*
X143171429Y-119612238D02*
X142980953Y-119517000D01*
X142980953Y-119517000D02*
X142885715Y-119326523D01*
X142885715Y-119326523D02*
X142885715Y-118564619D01*
X142885715Y-118564619D02*
X142980953Y-118374142D01*
X142980953Y-118374142D02*
X143171429Y-118278904D01*
X143171429Y-118278904D02*
X143552382Y-118278904D01*
X143552382Y-118278904D02*
X143742858Y-118374142D01*
X143742858Y-118374142D02*
X143838096Y-118564619D01*
X143838096Y-118564619D02*
X143838096Y-118755095D01*
X143838096Y-118755095D02*
X142885715Y-118945571D01*
X144695239Y-119612238D02*
X144695239Y-118278904D01*
X144695239Y-118659857D02*
X144790477Y-118469380D01*
X144790477Y-118469380D02*
X144885715Y-118374142D01*
X144885715Y-118374142D02*
X145076191Y-118278904D01*
X145076191Y-118278904D02*
X145266668Y-118278904D01*
X145933334Y-118850333D02*
X147457144Y-118850333D01*
X146695239Y-119612238D02*
X146695239Y-118088428D01*
X114057143Y-117597238D02*
X114723809Y-119597238D01*
X114723809Y-119597238D02*
X115390476Y-117597238D01*
X116342857Y-119597238D02*
X116152381Y-119502000D01*
X116152381Y-119502000D02*
X116057143Y-119406761D01*
X116057143Y-119406761D02*
X115961905Y-119216285D01*
X115961905Y-119216285D02*
X115961905Y-118644857D01*
X115961905Y-118644857D02*
X116057143Y-118454380D01*
X116057143Y-118454380D02*
X116152381Y-118359142D01*
X116152381Y-118359142D02*
X116342857Y-118263904D01*
X116342857Y-118263904D02*
X116628572Y-118263904D01*
X116628572Y-118263904D02*
X116819048Y-118359142D01*
X116819048Y-118359142D02*
X116914286Y-118454380D01*
X116914286Y-118454380D02*
X117009524Y-118644857D01*
X117009524Y-118644857D02*
X117009524Y-119216285D01*
X117009524Y-119216285D02*
X116914286Y-119406761D01*
X116914286Y-119406761D02*
X116819048Y-119502000D01*
X116819048Y-119502000D02*
X116628572Y-119597238D01*
X116628572Y-119597238D02*
X116342857Y-119597238D01*
X118152381Y-119597238D02*
X117961905Y-119502000D01*
X117961905Y-119502000D02*
X117866667Y-119311523D01*
X117866667Y-119311523D02*
X117866667Y-117597238D01*
X118628572Y-118263904D02*
X119390476Y-118263904D01*
X118914286Y-117597238D02*
X118914286Y-119311523D01*
X118914286Y-119311523D02*
X119009524Y-119502000D01*
X119009524Y-119502000D02*
X119200000Y-119597238D01*
X119200000Y-119597238D02*
X119390476Y-119597238D01*
X120057143Y-119597238D02*
X120057143Y-118263904D01*
X120057143Y-118454380D02*
X120152381Y-118359142D01*
X120152381Y-118359142D02*
X120342857Y-118263904D01*
X120342857Y-118263904D02*
X120628572Y-118263904D01*
X120628572Y-118263904D02*
X120819048Y-118359142D01*
X120819048Y-118359142D02*
X120914286Y-118549619D01*
X120914286Y-118549619D02*
X120914286Y-119597238D01*
X120914286Y-118549619D02*
X121009524Y-118359142D01*
X121009524Y-118359142D02*
X121200000Y-118263904D01*
X121200000Y-118263904D02*
X121485714Y-118263904D01*
X121485714Y-118263904D02*
X121676191Y-118359142D01*
X121676191Y-118359142D02*
X121771429Y-118549619D01*
X121771429Y-118549619D02*
X121771429Y-119597238D01*
X123485715Y-119502000D02*
X123295239Y-119597238D01*
X123295239Y-119597238D02*
X122914286Y-119597238D01*
X122914286Y-119597238D02*
X122723810Y-119502000D01*
X122723810Y-119502000D02*
X122628572Y-119311523D01*
X122628572Y-119311523D02*
X122628572Y-118549619D01*
X122628572Y-118549619D02*
X122723810Y-118359142D01*
X122723810Y-118359142D02*
X122914286Y-118263904D01*
X122914286Y-118263904D02*
X123295239Y-118263904D01*
X123295239Y-118263904D02*
X123485715Y-118359142D01*
X123485715Y-118359142D02*
X123580953Y-118549619D01*
X123580953Y-118549619D02*
X123580953Y-118740095D01*
X123580953Y-118740095D02*
X122628572Y-118930571D01*
X124152382Y-118263904D02*
X124914286Y-118263904D01*
X124438096Y-117597238D02*
X124438096Y-119311523D01*
X124438096Y-119311523D02*
X124533334Y-119502000D01*
X124533334Y-119502000D02*
X124723810Y-119597238D01*
X124723810Y-119597238D02*
X124914286Y-119597238D01*
X126342858Y-119502000D02*
X126152382Y-119597238D01*
X126152382Y-119597238D02*
X125771429Y-119597238D01*
X125771429Y-119597238D02*
X125580953Y-119502000D01*
X125580953Y-119502000D02*
X125485715Y-119311523D01*
X125485715Y-119311523D02*
X125485715Y-118549619D01*
X125485715Y-118549619D02*
X125580953Y-118359142D01*
X125580953Y-118359142D02*
X125771429Y-118263904D01*
X125771429Y-118263904D02*
X126152382Y-118263904D01*
X126152382Y-118263904D02*
X126342858Y-118359142D01*
X126342858Y-118359142D02*
X126438096Y-118549619D01*
X126438096Y-118549619D02*
X126438096Y-118740095D01*
X126438096Y-118740095D02*
X125485715Y-118930571D01*
X127295239Y-119597238D02*
X127295239Y-118263904D01*
X127295239Y-118644857D02*
X127390477Y-118454380D01*
X127390477Y-118454380D02*
X127485715Y-118359142D01*
X127485715Y-118359142D02*
X127676191Y-118263904D01*
X127676191Y-118263904D02*
X127866668Y-118263904D01*
X128533334Y-118835333D02*
X130057144Y-118835333D01*
X135709524Y-98640809D02*
X136661905Y-98640809D01*
X135519048Y-99212238D02*
X136185714Y-97212238D01*
X136185714Y-97212238D02*
X136852381Y-99212238D01*
X137519048Y-99212238D02*
X137519048Y-97212238D01*
X139614286Y-99212238D02*
X138947619Y-98259857D01*
X138471429Y-99212238D02*
X138471429Y-97212238D01*
X138471429Y-97212238D02*
X139233334Y-97212238D01*
X139233334Y-97212238D02*
X139423810Y-97307476D01*
X139423810Y-97307476D02*
X139519048Y-97402714D01*
X139519048Y-97402714D02*
X139614286Y-97593190D01*
X139614286Y-97593190D02*
X139614286Y-97878904D01*
X139614286Y-97878904D02*
X139519048Y-98069380D01*
X139519048Y-98069380D02*
X139423810Y-98164619D01*
X139423810Y-98164619D02*
X139233334Y-98259857D01*
X139233334Y-98259857D02*
X138471429Y-98259857D01*
X140471429Y-98450333D02*
X141995239Y-98450333D01*
X123609523Y-80312238D02*
X124752380Y-80312238D01*
X124180951Y-82312238D02*
X124180951Y-80312238D01*
X125323809Y-82217000D02*
X125609523Y-82312238D01*
X125609523Y-82312238D02*
X126085714Y-82312238D01*
X126085714Y-82312238D02*
X126276190Y-82217000D01*
X126276190Y-82217000D02*
X126371428Y-82121761D01*
X126371428Y-82121761D02*
X126466666Y-81931285D01*
X126466666Y-81931285D02*
X126466666Y-81740809D01*
X126466666Y-81740809D02*
X126371428Y-81550333D01*
X126371428Y-81550333D02*
X126276190Y-81455095D01*
X126276190Y-81455095D02*
X126085714Y-81359857D01*
X126085714Y-81359857D02*
X125704761Y-81264619D01*
X125704761Y-81264619D02*
X125514285Y-81169380D01*
X125514285Y-81169380D02*
X125419047Y-81074142D01*
X125419047Y-81074142D02*
X125323809Y-80883666D01*
X125323809Y-80883666D02*
X125323809Y-80693190D01*
X125323809Y-80693190D02*
X125419047Y-80502714D01*
X125419047Y-80502714D02*
X125514285Y-80407476D01*
X125514285Y-80407476D02*
X125704761Y-80312238D01*
X125704761Y-80312238D02*
X126180952Y-80312238D01*
X126180952Y-80312238D02*
X126466666Y-80407476D01*
X127228571Y-81740809D02*
X128180952Y-81740809D01*
X127038095Y-82312238D02*
X127704761Y-80312238D01*
X127704761Y-80312238D02*
X128371428Y-82312238D01*
X129990476Y-82312238D02*
X129038095Y-82312238D01*
X129038095Y-82312238D02*
X129038095Y-80312238D01*
X130180953Y-82502714D02*
X131704762Y-82502714D01*
X133228572Y-80407476D02*
X133038096Y-80312238D01*
X133038096Y-80312238D02*
X132752382Y-80312238D01*
X132752382Y-80312238D02*
X132466667Y-80407476D01*
X132466667Y-80407476D02*
X132276191Y-80597952D01*
X132276191Y-80597952D02*
X132180953Y-80788428D01*
X132180953Y-80788428D02*
X132085715Y-81169380D01*
X132085715Y-81169380D02*
X132085715Y-81455095D01*
X132085715Y-81455095D02*
X132180953Y-81836047D01*
X132180953Y-81836047D02*
X132276191Y-82026523D01*
X132276191Y-82026523D02*
X132466667Y-82217000D01*
X132466667Y-82217000D02*
X132752382Y-82312238D01*
X132752382Y-82312238D02*
X132942858Y-82312238D01*
X132942858Y-82312238D02*
X133228572Y-82217000D01*
X133228572Y-82217000D02*
X133323810Y-82121761D01*
X133323810Y-82121761D02*
X133323810Y-81455095D01*
X133323810Y-81455095D02*
X132942858Y-81455095D01*
X134180953Y-81550333D02*
X135704763Y-81550333D01*
D12*
X93029322Y-126908729D02*
X92629322Y-126337301D01*
X92343608Y-126908729D02*
X92343608Y-125708729D01*
X92343608Y-125708729D02*
X92800751Y-125708729D01*
X92800751Y-125708729D02*
X92915036Y-125765872D01*
X92915036Y-125765872D02*
X92972179Y-125823015D01*
X92972179Y-125823015D02*
X93029322Y-125937301D01*
X93029322Y-125937301D02*
X93029322Y-126108729D01*
X93029322Y-126108729D02*
X92972179Y-126223015D01*
X92972179Y-126223015D02*
X92915036Y-126280158D01*
X92915036Y-126280158D02*
X92800751Y-126337301D01*
X92800751Y-126337301D02*
X92343608Y-126337301D01*
X93943608Y-126280158D02*
X94115036Y-126337301D01*
X94115036Y-126337301D02*
X94172179Y-126394444D01*
X94172179Y-126394444D02*
X94229322Y-126508729D01*
X94229322Y-126508729D02*
X94229322Y-126680158D01*
X94229322Y-126680158D02*
X94172179Y-126794444D01*
X94172179Y-126794444D02*
X94115036Y-126851587D01*
X94115036Y-126851587D02*
X94000751Y-126908729D01*
X94000751Y-126908729D02*
X93543608Y-126908729D01*
X93543608Y-126908729D02*
X93543608Y-125708729D01*
X93543608Y-125708729D02*
X93943608Y-125708729D01*
X93943608Y-125708729D02*
X94057894Y-125765872D01*
X94057894Y-125765872D02*
X94115036Y-125823015D01*
X94115036Y-125823015D02*
X94172179Y-125937301D01*
X94172179Y-125937301D02*
X94172179Y-126051587D01*
X94172179Y-126051587D02*
X94115036Y-126165872D01*
X94115036Y-126165872D02*
X94057894Y-126223015D01*
X94057894Y-126223015D02*
X93943608Y-126280158D01*
X93943608Y-126280158D02*
X93543608Y-126280158D01*
X95429322Y-126908729D02*
X95029322Y-126337301D01*
X94743608Y-126908729D02*
X94743608Y-125708729D01*
X94743608Y-125708729D02*
X95200751Y-125708729D01*
X95200751Y-125708729D02*
X95315036Y-125765872D01*
X95315036Y-125765872D02*
X95372179Y-125823015D01*
X95372179Y-125823015D02*
X95429322Y-125937301D01*
X95429322Y-125937301D02*
X95429322Y-126108729D01*
X95429322Y-126108729D02*
X95372179Y-126223015D01*
X95372179Y-126223015D02*
X95315036Y-126280158D01*
X95315036Y-126280158D02*
X95200751Y-126337301D01*
X95200751Y-126337301D02*
X94743608Y-126337301D01*
X95657894Y-127023015D02*
X96572179Y-127023015D01*
X97257894Y-126280158D02*
X97429322Y-126337301D01*
X97429322Y-126337301D02*
X97486465Y-126394444D01*
X97486465Y-126394444D02*
X97543608Y-126508729D01*
X97543608Y-126508729D02*
X97543608Y-126680158D01*
X97543608Y-126680158D02*
X97486465Y-126794444D01*
X97486465Y-126794444D02*
X97429322Y-126851587D01*
X97429322Y-126851587D02*
X97315037Y-126908729D01*
X97315037Y-126908729D02*
X96857894Y-126908729D01*
X96857894Y-126908729D02*
X96857894Y-125708729D01*
X96857894Y-125708729D02*
X97257894Y-125708729D01*
X97257894Y-125708729D02*
X97372180Y-125765872D01*
X97372180Y-125765872D02*
X97429322Y-125823015D01*
X97429322Y-125823015D02*
X97486465Y-125937301D01*
X97486465Y-125937301D02*
X97486465Y-126051587D01*
X97486465Y-126051587D02*
X97429322Y-126165872D01*
X97429322Y-126165872D02*
X97372180Y-126223015D01*
X97372180Y-126223015D02*
X97257894Y-126280158D01*
X97257894Y-126280158D02*
X96857894Y-126280158D01*
X98057894Y-126908729D02*
X98057894Y-125708729D01*
X98057894Y-125708729D02*
X98343608Y-125708729D01*
X98343608Y-125708729D02*
X98515037Y-125765872D01*
X98515037Y-125765872D02*
X98629322Y-125880158D01*
X98629322Y-125880158D02*
X98686465Y-125994444D01*
X98686465Y-125994444D02*
X98743608Y-126223015D01*
X98743608Y-126223015D02*
X98743608Y-126394444D01*
X98743608Y-126394444D02*
X98686465Y-126623015D01*
X98686465Y-126623015D02*
X98629322Y-126737301D01*
X98629322Y-126737301D02*
X98515037Y-126851587D01*
X98515037Y-126851587D02*
X98343608Y-126908729D01*
X98343608Y-126908729D02*
X98057894Y-126908729D01*
X99257894Y-125708729D02*
X99257894Y-126680158D01*
X99257894Y-126680158D02*
X99315037Y-126794444D01*
X99315037Y-126794444D02*
X99372180Y-126851587D01*
X99372180Y-126851587D02*
X99486465Y-126908729D01*
X99486465Y-126908729D02*
X99715037Y-126908729D01*
X99715037Y-126908729D02*
X99829322Y-126851587D01*
X99829322Y-126851587D02*
X99886465Y-126794444D01*
X99886465Y-126794444D02*
X99943608Y-126680158D01*
X99943608Y-126680158D02*
X99943608Y-125708729D01*
X100229323Y-127023015D02*
X101143608Y-127023015D01*
X101257894Y-125708729D02*
X101943609Y-125708729D01*
X101600751Y-126908729D02*
X101600751Y-125708729D01*
X102286466Y-126851587D02*
X102457895Y-126908729D01*
X102457895Y-126908729D02*
X102743609Y-126908729D01*
X102743609Y-126908729D02*
X102857895Y-126851587D01*
X102857895Y-126851587D02*
X102915037Y-126794444D01*
X102915037Y-126794444D02*
X102972180Y-126680158D01*
X102972180Y-126680158D02*
X102972180Y-126565872D01*
X102972180Y-126565872D02*
X102915037Y-126451587D01*
X102915037Y-126451587D02*
X102857895Y-126394444D01*
X102857895Y-126394444D02*
X102743609Y-126337301D01*
X102743609Y-126337301D02*
X102515037Y-126280158D01*
X102515037Y-126280158D02*
X102400752Y-126223015D01*
X102400752Y-126223015D02*
X102343609Y-126165872D01*
X102343609Y-126165872D02*
X102286466Y-126051587D01*
X102286466Y-126051587D02*
X102286466Y-125937301D01*
X102286466Y-125937301D02*
X102343609Y-125823015D01*
X102343609Y-125823015D02*
X102400752Y-125765872D01*
X102400752Y-125765872D02*
X102515037Y-125708729D01*
X102515037Y-125708729D02*
X102800752Y-125708729D01*
X102800752Y-125708729D02*
X102972180Y-125765872D01*
X103200752Y-127023015D02*
X104115037Y-127023015D01*
X104286466Y-126108729D02*
X104572180Y-126908729D01*
X104572180Y-126908729D02*
X104857895Y-126108729D01*
X105943609Y-126908729D02*
X105257895Y-126908729D01*
X105600752Y-126908729D02*
X105600752Y-125708729D01*
X105600752Y-125708729D02*
X105486466Y-125880158D01*
X105486466Y-125880158D02*
X105372181Y-125994444D01*
X105372181Y-125994444D02*
X105257895Y-126051587D01*
X92343608Y-128840662D02*
X92343608Y-127640662D01*
X92343608Y-127640662D02*
X93029322Y-128840662D01*
X93029322Y-128840662D02*
X93029322Y-127640662D01*
X93600751Y-128840662D02*
X93600751Y-128040662D01*
X93600751Y-127640662D02*
X93543608Y-127697805D01*
X93543608Y-127697805D02*
X93600751Y-127754948D01*
X93600751Y-127754948D02*
X93657894Y-127697805D01*
X93657894Y-127697805D02*
X93600751Y-127640662D01*
X93600751Y-127640662D02*
X93600751Y-127754948D01*
X94686466Y-128783520D02*
X94572180Y-128840662D01*
X94572180Y-128840662D02*
X94343608Y-128840662D01*
X94343608Y-128840662D02*
X94229323Y-128783520D01*
X94229323Y-128783520D02*
X94172180Y-128726377D01*
X94172180Y-128726377D02*
X94115037Y-128612091D01*
X94115037Y-128612091D02*
X94115037Y-128269234D01*
X94115037Y-128269234D02*
X94172180Y-128154948D01*
X94172180Y-128154948D02*
X94229323Y-128097805D01*
X94229323Y-128097805D02*
X94343608Y-128040662D01*
X94343608Y-128040662D02*
X94572180Y-128040662D01*
X94572180Y-128040662D02*
X94686466Y-128097805D01*
X95200751Y-128840662D02*
X95200751Y-127640662D01*
X95715037Y-128840662D02*
X95715037Y-128212091D01*
X95715037Y-128212091D02*
X95657894Y-128097805D01*
X95657894Y-128097805D02*
X95543608Y-128040662D01*
X95543608Y-128040662D02*
X95372179Y-128040662D01*
X95372179Y-128040662D02*
X95257894Y-128097805D01*
X95257894Y-128097805D02*
X95200751Y-128154948D01*
X96457893Y-128840662D02*
X96343608Y-128783520D01*
X96343608Y-128783520D02*
X96286465Y-128726377D01*
X96286465Y-128726377D02*
X96229322Y-128612091D01*
X96229322Y-128612091D02*
X96229322Y-128269234D01*
X96229322Y-128269234D02*
X96286465Y-128154948D01*
X96286465Y-128154948D02*
X96343608Y-128097805D01*
X96343608Y-128097805D02*
X96457893Y-128040662D01*
X96457893Y-128040662D02*
X96629322Y-128040662D01*
X96629322Y-128040662D02*
X96743608Y-128097805D01*
X96743608Y-128097805D02*
X96800751Y-128154948D01*
X96800751Y-128154948D02*
X96857893Y-128269234D01*
X96857893Y-128269234D02*
X96857893Y-128612091D01*
X96857893Y-128612091D02*
X96800751Y-128726377D01*
X96800751Y-128726377D02*
X96743608Y-128783520D01*
X96743608Y-128783520D02*
X96629322Y-128840662D01*
X96629322Y-128840662D02*
X96457893Y-128840662D01*
X97543607Y-128840662D02*
X97429322Y-128783520D01*
X97429322Y-128783520D02*
X97372179Y-128669234D01*
X97372179Y-128669234D02*
X97372179Y-127640662D01*
X98515036Y-128840662D02*
X98515036Y-128212091D01*
X98515036Y-128212091D02*
X98457893Y-128097805D01*
X98457893Y-128097805D02*
X98343607Y-128040662D01*
X98343607Y-128040662D02*
X98115036Y-128040662D01*
X98115036Y-128040662D02*
X98000750Y-128097805D01*
X98515036Y-128783520D02*
X98400750Y-128840662D01*
X98400750Y-128840662D02*
X98115036Y-128840662D01*
X98115036Y-128840662D02*
X98000750Y-128783520D01*
X98000750Y-128783520D02*
X97943607Y-128669234D01*
X97943607Y-128669234D02*
X97943607Y-128554948D01*
X97943607Y-128554948D02*
X98000750Y-128440662D01*
X98000750Y-128440662D02*
X98115036Y-128383520D01*
X98115036Y-128383520D02*
X98400750Y-128383520D01*
X98400750Y-128383520D02*
X98515036Y-128326377D01*
X99029321Y-128783520D02*
X99143607Y-128840662D01*
X99143607Y-128840662D02*
X99372178Y-128840662D01*
X99372178Y-128840662D02*
X99486464Y-128783520D01*
X99486464Y-128783520D02*
X99543607Y-128669234D01*
X99543607Y-128669234D02*
X99543607Y-128612091D01*
X99543607Y-128612091D02*
X99486464Y-128497805D01*
X99486464Y-128497805D02*
X99372178Y-128440662D01*
X99372178Y-128440662D02*
X99200750Y-128440662D01*
X99200750Y-128440662D02*
X99086464Y-128383520D01*
X99086464Y-128383520D02*
X99029321Y-128269234D01*
X99029321Y-128269234D02*
X99029321Y-128212091D01*
X99029321Y-128212091D02*
X99086464Y-128097805D01*
X99086464Y-128097805D02*
X99200750Y-128040662D01*
X99200750Y-128040662D02*
X99372178Y-128040662D01*
X99372178Y-128040662D02*
X99486464Y-128097805D01*
X101657893Y-128726377D02*
X101600750Y-128783520D01*
X101600750Y-128783520D02*
X101429322Y-128840662D01*
X101429322Y-128840662D02*
X101315036Y-128840662D01*
X101315036Y-128840662D02*
X101143607Y-128783520D01*
X101143607Y-128783520D02*
X101029322Y-128669234D01*
X101029322Y-128669234D02*
X100972179Y-128554948D01*
X100972179Y-128554948D02*
X100915036Y-128326377D01*
X100915036Y-128326377D02*
X100915036Y-128154948D01*
X100915036Y-128154948D02*
X100972179Y-127926377D01*
X100972179Y-127926377D02*
X101029322Y-127812091D01*
X101029322Y-127812091D02*
X101143607Y-127697805D01*
X101143607Y-127697805D02*
X101315036Y-127640662D01*
X101315036Y-127640662D02*
X101429322Y-127640662D01*
X101429322Y-127640662D02*
X101600750Y-127697805D01*
X101600750Y-127697805D02*
X101657893Y-127754948D01*
X102172179Y-128840662D02*
X102172179Y-127640662D01*
X102686465Y-128840662D02*
X102686465Y-128212091D01*
X102686465Y-128212091D02*
X102629322Y-128097805D01*
X102629322Y-128097805D02*
X102515036Y-128040662D01*
X102515036Y-128040662D02*
X102343607Y-128040662D01*
X102343607Y-128040662D02*
X102229322Y-128097805D01*
X102229322Y-128097805D02*
X102172179Y-128154948D01*
X103772179Y-128840662D02*
X103772179Y-128212091D01*
X103772179Y-128212091D02*
X103715036Y-128097805D01*
X103715036Y-128097805D02*
X103600750Y-128040662D01*
X103600750Y-128040662D02*
X103372179Y-128040662D01*
X103372179Y-128040662D02*
X103257893Y-128097805D01*
X103772179Y-128783520D02*
X103657893Y-128840662D01*
X103657893Y-128840662D02*
X103372179Y-128840662D01*
X103372179Y-128840662D02*
X103257893Y-128783520D01*
X103257893Y-128783520D02*
X103200750Y-128669234D01*
X103200750Y-128669234D02*
X103200750Y-128554948D01*
X103200750Y-128554948D02*
X103257893Y-128440662D01*
X103257893Y-128440662D02*
X103372179Y-128383520D01*
X103372179Y-128383520D02*
X103657893Y-128383520D01*
X103657893Y-128383520D02*
X103772179Y-128326377D01*
X104343607Y-128040662D02*
X104343607Y-128840662D01*
X104343607Y-128154948D02*
X104400750Y-128097805D01*
X104400750Y-128097805D02*
X104515035Y-128040662D01*
X104515035Y-128040662D02*
X104686464Y-128040662D01*
X104686464Y-128040662D02*
X104800750Y-128097805D01*
X104800750Y-128097805D02*
X104857893Y-128212091D01*
X104857893Y-128212091D02*
X104857893Y-128840662D01*
D11*
X89909524Y-88940809D02*
X90861905Y-88940809D01*
X89719048Y-89512238D02*
X90385714Y-87512238D01*
X90385714Y-87512238D02*
X91052381Y-89512238D01*
X91719048Y-89512238D02*
X91719048Y-87512238D01*
X93814286Y-89512238D02*
X93147619Y-88559857D01*
X92671429Y-89512238D02*
X92671429Y-87512238D01*
X92671429Y-87512238D02*
X93433334Y-87512238D01*
X93433334Y-87512238D02*
X93623810Y-87607476D01*
X93623810Y-87607476D02*
X93719048Y-87702714D01*
X93719048Y-87702714D02*
X93814286Y-87893190D01*
X93814286Y-87893190D02*
X93814286Y-88178904D01*
X93814286Y-88178904D02*
X93719048Y-88369380D01*
X93719048Y-88369380D02*
X93623810Y-88464619D01*
X93623810Y-88464619D02*
X93433334Y-88559857D01*
X93433334Y-88559857D02*
X92671429Y-88559857D01*
X94671429Y-88750333D02*
X96195239Y-88750333D01*
X95433334Y-89512238D02*
X95433334Y-87988428D01*
X89533333Y-106412238D02*
X89533333Y-104412238D01*
X89533333Y-104412238D02*
X90295238Y-104412238D01*
X90295238Y-104412238D02*
X90485714Y-104507476D01*
X90485714Y-104507476D02*
X90580952Y-104602714D01*
X90580952Y-104602714D02*
X90676190Y-104793190D01*
X90676190Y-104793190D02*
X90676190Y-105078904D01*
X90676190Y-105078904D02*
X90580952Y-105269380D01*
X90580952Y-105269380D02*
X90485714Y-105364619D01*
X90485714Y-105364619D02*
X90295238Y-105459857D01*
X90295238Y-105459857D02*
X89533333Y-105459857D01*
X92676190Y-106412238D02*
X92009523Y-105459857D01*
X91533333Y-106412238D02*
X91533333Y-104412238D01*
X91533333Y-104412238D02*
X92295238Y-104412238D01*
X92295238Y-104412238D02*
X92485714Y-104507476D01*
X92485714Y-104507476D02*
X92580952Y-104602714D01*
X92580952Y-104602714D02*
X92676190Y-104793190D01*
X92676190Y-104793190D02*
X92676190Y-105078904D01*
X92676190Y-105078904D02*
X92580952Y-105269380D01*
X92580952Y-105269380D02*
X92485714Y-105364619D01*
X92485714Y-105364619D02*
X92295238Y-105459857D01*
X92295238Y-105459857D02*
X91533333Y-105459857D01*
X93533333Y-105364619D02*
X94200000Y-105364619D01*
X94485714Y-106412238D02*
X93533333Y-106412238D01*
X93533333Y-106412238D02*
X93533333Y-104412238D01*
X93533333Y-104412238D02*
X94485714Y-104412238D01*
X95342857Y-105650333D02*
X96866667Y-105650333D01*
X96104762Y-106412238D02*
X96104762Y-104888428D01*
X111319048Y-84912238D02*
X111319048Y-82912238D01*
X112271429Y-84912238D02*
X112271429Y-82912238D01*
X112271429Y-82912238D02*
X112938096Y-84340809D01*
X112938096Y-84340809D02*
X113604762Y-82912238D01*
X113604762Y-82912238D02*
X113604762Y-84912238D01*
X114557143Y-84912238D02*
X114557143Y-82912238D01*
X114557143Y-82912238D02*
X115033333Y-82912238D01*
X115033333Y-82912238D02*
X115319048Y-83007476D01*
X115319048Y-83007476D02*
X115509524Y-83197952D01*
X115509524Y-83197952D02*
X115604762Y-83388428D01*
X115604762Y-83388428D02*
X115700000Y-83769380D01*
X115700000Y-83769380D02*
X115700000Y-84055095D01*
X115700000Y-84055095D02*
X115604762Y-84436047D01*
X115604762Y-84436047D02*
X115509524Y-84626523D01*
X115509524Y-84626523D02*
X115319048Y-84817000D01*
X115319048Y-84817000D02*
X115033333Y-84912238D01*
X115033333Y-84912238D02*
X114557143Y-84912238D01*
X116557143Y-84150333D02*
X118080953Y-84150333D01*
X117319048Y-84912238D02*
X117319048Y-83388428D01*
X96719048Y-84812238D02*
X96719048Y-82812238D01*
X97671429Y-84812238D02*
X97671429Y-82812238D01*
X97671429Y-82812238D02*
X98338096Y-84240809D01*
X98338096Y-84240809D02*
X99004762Y-82812238D01*
X99004762Y-82812238D02*
X99004762Y-84812238D01*
X99957143Y-84812238D02*
X99957143Y-82812238D01*
X99957143Y-82812238D02*
X100433333Y-82812238D01*
X100433333Y-82812238D02*
X100719048Y-82907476D01*
X100719048Y-82907476D02*
X100909524Y-83097952D01*
X100909524Y-83097952D02*
X101004762Y-83288428D01*
X101004762Y-83288428D02*
X101100000Y-83669380D01*
X101100000Y-83669380D02*
X101100000Y-83955095D01*
X101100000Y-83955095D02*
X101004762Y-84336047D01*
X101004762Y-84336047D02*
X100909524Y-84526523D01*
X100909524Y-84526523D02*
X100719048Y-84717000D01*
X100719048Y-84717000D02*
X100433333Y-84812238D01*
X100433333Y-84812238D02*
X99957143Y-84812238D01*
X101957143Y-84050333D02*
X103480953Y-84050333D01*
X138909523Y-80612238D02*
X140052380Y-80612238D01*
X139480951Y-82612238D02*
X139480951Y-80612238D01*
X140623809Y-82517000D02*
X140909523Y-82612238D01*
X140909523Y-82612238D02*
X141385714Y-82612238D01*
X141385714Y-82612238D02*
X141576190Y-82517000D01*
X141576190Y-82517000D02*
X141671428Y-82421761D01*
X141671428Y-82421761D02*
X141766666Y-82231285D01*
X141766666Y-82231285D02*
X141766666Y-82040809D01*
X141766666Y-82040809D02*
X141671428Y-81850333D01*
X141671428Y-81850333D02*
X141576190Y-81755095D01*
X141576190Y-81755095D02*
X141385714Y-81659857D01*
X141385714Y-81659857D02*
X141004761Y-81564619D01*
X141004761Y-81564619D02*
X140814285Y-81469380D01*
X140814285Y-81469380D02*
X140719047Y-81374142D01*
X140719047Y-81374142D02*
X140623809Y-81183666D01*
X140623809Y-81183666D02*
X140623809Y-80993190D01*
X140623809Y-80993190D02*
X140719047Y-80802714D01*
X140719047Y-80802714D02*
X140814285Y-80707476D01*
X140814285Y-80707476D02*
X141004761Y-80612238D01*
X141004761Y-80612238D02*
X141480952Y-80612238D01*
X141480952Y-80612238D02*
X141766666Y-80707476D01*
X142528571Y-82040809D02*
X143480952Y-82040809D01*
X142338095Y-82612238D02*
X143004761Y-80612238D01*
X143004761Y-80612238D02*
X143671428Y-82612238D01*
X145290476Y-82612238D02*
X144338095Y-82612238D01*
X144338095Y-82612238D02*
X144338095Y-80612238D01*
X145480953Y-82802714D02*
X147004762Y-82802714D01*
X148528572Y-80707476D02*
X148338096Y-80612238D01*
X148338096Y-80612238D02*
X148052382Y-80612238D01*
X148052382Y-80612238D02*
X147766667Y-80707476D01*
X147766667Y-80707476D02*
X147576191Y-80897952D01*
X147576191Y-80897952D02*
X147480953Y-81088428D01*
X147480953Y-81088428D02*
X147385715Y-81469380D01*
X147385715Y-81469380D02*
X147385715Y-81755095D01*
X147385715Y-81755095D02*
X147480953Y-82136047D01*
X147480953Y-82136047D02*
X147576191Y-82326523D01*
X147576191Y-82326523D02*
X147766667Y-82517000D01*
X147766667Y-82517000D02*
X148052382Y-82612238D01*
X148052382Y-82612238D02*
X148242858Y-82612238D01*
X148242858Y-82612238D02*
X148528572Y-82517000D01*
X148528572Y-82517000D02*
X148623810Y-82421761D01*
X148623810Y-82421761D02*
X148623810Y-81755095D01*
X148623810Y-81755095D02*
X148242858Y-81755095D01*
X149480953Y-81850333D02*
X151004763Y-81850333D01*
X150242858Y-82612238D02*
X150242858Y-81088428D01*
D13*
X80344819Y-113709523D02*
X81059104Y-113709523D01*
X81059104Y-113709523D02*
X81201961Y-113757142D01*
X81201961Y-113757142D02*
X81297200Y-113852380D01*
X81297200Y-113852380D02*
X81344819Y-113995237D01*
X81344819Y-113995237D02*
X81344819Y-114090475D01*
X81344819Y-112709523D02*
X81344819Y-113280951D01*
X81344819Y-112995237D02*
X80344819Y-112995237D01*
X80344819Y-112995237D02*
X80487676Y-113090475D01*
X80487676Y-113090475D02*
X80582914Y-113185713D01*
X80582914Y-113185713D02*
X80630533Y-113280951D01*
X80344819Y-112376189D02*
X80344819Y-111757142D01*
X80344819Y-111757142D02*
X80725771Y-112090475D01*
X80725771Y-112090475D02*
X80725771Y-111947618D01*
X80725771Y-111947618D02*
X80773390Y-111852380D01*
X80773390Y-111852380D02*
X80821009Y-111804761D01*
X80821009Y-111804761D02*
X80916247Y-111757142D01*
X80916247Y-111757142D02*
X81154342Y-111757142D01*
X81154342Y-111757142D02*
X81249580Y-111804761D01*
X81249580Y-111804761D02*
X81297200Y-111852380D01*
X81297200Y-111852380D02*
X81344819Y-111947618D01*
X81344819Y-111947618D02*
X81344819Y-112233332D01*
X81344819Y-112233332D02*
X81297200Y-112328570D01*
X81297200Y-112328570D02*
X81249580Y-112376189D01*
X108634523Y-97993990D02*
X108967856Y-97993990D01*
X108967856Y-97470180D02*
X108967856Y-98470180D01*
X108967856Y-98470180D02*
X108491666Y-98470180D01*
X107586904Y-97470180D02*
X108158332Y-97470180D01*
X107872618Y-97470180D02*
X107872618Y-98470180D01*
X107872618Y-98470180D02*
X107967856Y-98327323D01*
X107967856Y-98327323D02*
X108063094Y-98232085D01*
X108063094Y-98232085D02*
X108158332Y-98184466D01*
X106967856Y-98470180D02*
X106872618Y-98470180D01*
X106872618Y-98470180D02*
X106777380Y-98422561D01*
X106777380Y-98422561D02*
X106729761Y-98374942D01*
X106729761Y-98374942D02*
X106682142Y-98279704D01*
X106682142Y-98279704D02*
X106634523Y-98089228D01*
X106634523Y-98089228D02*
X106634523Y-97851133D01*
X106634523Y-97851133D02*
X106682142Y-97660657D01*
X106682142Y-97660657D02*
X106729761Y-97565419D01*
X106729761Y-97565419D02*
X106777380Y-97517800D01*
X106777380Y-97517800D02*
X106872618Y-97470180D01*
X106872618Y-97470180D02*
X106967856Y-97470180D01*
X106967856Y-97470180D02*
X107063094Y-97517800D01*
X107063094Y-97517800D02*
X107110713Y-97565419D01*
X107110713Y-97565419D02*
X107158332Y-97660657D01*
X107158332Y-97660657D02*
X107205951Y-97851133D01*
X107205951Y-97851133D02*
X107205951Y-98089228D01*
X107205951Y-98089228D02*
X107158332Y-98279704D01*
X107158332Y-98279704D02*
X107110713Y-98374942D01*
X107110713Y-98374942D02*
X107063094Y-98422561D01*
X107063094Y-98422561D02*
X106967856Y-98470180D01*
X120666666Y-79354819D02*
X120666666Y-80069104D01*
X120666666Y-80069104D02*
X120619047Y-80211961D01*
X120619047Y-80211961D02*
X120523809Y-80307200D01*
X120523809Y-80307200D02*
X120380952Y-80354819D01*
X120380952Y-80354819D02*
X120285714Y-80354819D01*
X121619047Y-79354819D02*
X121142857Y-79354819D01*
X121142857Y-79354819D02*
X121095238Y-79831009D01*
X121095238Y-79831009D02*
X121142857Y-79783390D01*
X121142857Y-79783390D02*
X121238095Y-79735771D01*
X121238095Y-79735771D02*
X121476190Y-79735771D01*
X121476190Y-79735771D02*
X121571428Y-79783390D01*
X121571428Y-79783390D02*
X121619047Y-79831009D01*
X121619047Y-79831009D02*
X121666666Y-79926247D01*
X121666666Y-79926247D02*
X121666666Y-80164342D01*
X121666666Y-80164342D02*
X121619047Y-80259580D01*
X121619047Y-80259580D02*
X121571428Y-80307200D01*
X121571428Y-80307200D02*
X121476190Y-80354819D01*
X121476190Y-80354819D02*
X121238095Y-80354819D01*
X121238095Y-80354819D02*
X121142857Y-80307200D01*
X121142857Y-80307200D02*
X121095238Y-80259580D01*
X81419819Y-100166666D02*
X80943628Y-100499999D01*
X81419819Y-100738094D02*
X80419819Y-100738094D01*
X80419819Y-100738094D02*
X80419819Y-100357142D01*
X80419819Y-100357142D02*
X80467438Y-100261904D01*
X80467438Y-100261904D02*
X80515057Y-100214285D01*
X80515057Y-100214285D02*
X80610295Y-100166666D01*
X80610295Y-100166666D02*
X80753152Y-100166666D01*
X80753152Y-100166666D02*
X80848390Y-100214285D01*
X80848390Y-100214285D02*
X80896009Y-100261904D01*
X80896009Y-100261904D02*
X80943628Y-100357142D01*
X80943628Y-100357142D02*
X80943628Y-100738094D01*
X81419819Y-99214285D02*
X81419819Y-99785713D01*
X81419819Y-99499999D02*
X80419819Y-99499999D01*
X80419819Y-99499999D02*
X80562676Y-99595237D01*
X80562676Y-99595237D02*
X80657914Y-99690475D01*
X80657914Y-99690475D02*
X80705533Y-99785713D01*
X129466666Y-71284819D02*
X129466666Y-71999104D01*
X129466666Y-71999104D02*
X129419047Y-72141961D01*
X129419047Y-72141961D02*
X129323809Y-72237200D01*
X129323809Y-72237200D02*
X129180952Y-72284819D01*
X129180952Y-72284819D02*
X129085714Y-72284819D01*
X129990476Y-72284819D02*
X130180952Y-72284819D01*
X130180952Y-72284819D02*
X130276190Y-72237200D01*
X130276190Y-72237200D02*
X130323809Y-72189580D01*
X130323809Y-72189580D02*
X130419047Y-72046723D01*
X130419047Y-72046723D02*
X130466666Y-71856247D01*
X130466666Y-71856247D02*
X130466666Y-71475295D01*
X130466666Y-71475295D02*
X130419047Y-71380057D01*
X130419047Y-71380057D02*
X130371428Y-71332438D01*
X130371428Y-71332438D02*
X130276190Y-71284819D01*
X130276190Y-71284819D02*
X130085714Y-71284819D01*
X130085714Y-71284819D02*
X129990476Y-71332438D01*
X129990476Y-71332438D02*
X129942857Y-71380057D01*
X129942857Y-71380057D02*
X129895238Y-71475295D01*
X129895238Y-71475295D02*
X129895238Y-71713390D01*
X129895238Y-71713390D02*
X129942857Y-71808628D01*
X129942857Y-71808628D02*
X129990476Y-71856247D01*
X129990476Y-71856247D02*
X130085714Y-71903866D01*
X130085714Y-71903866D02*
X130276190Y-71903866D01*
X130276190Y-71903866D02*
X130371428Y-71856247D01*
X130371428Y-71856247D02*
X130419047Y-71808628D01*
X130419047Y-71808628D02*
X130466666Y-71713390D01*
X80409819Y-87658333D02*
X81124104Y-87658333D01*
X81124104Y-87658333D02*
X81266961Y-87705952D01*
X81266961Y-87705952D02*
X81362200Y-87801190D01*
X81362200Y-87801190D02*
X81409819Y-87944047D01*
X81409819Y-87944047D02*
X81409819Y-88039285D01*
X80838390Y-87039285D02*
X80790771Y-87134523D01*
X80790771Y-87134523D02*
X80743152Y-87182142D01*
X80743152Y-87182142D02*
X80647914Y-87229761D01*
X80647914Y-87229761D02*
X80600295Y-87229761D01*
X80600295Y-87229761D02*
X80505057Y-87182142D01*
X80505057Y-87182142D02*
X80457438Y-87134523D01*
X80457438Y-87134523D02*
X80409819Y-87039285D01*
X80409819Y-87039285D02*
X80409819Y-86848809D01*
X80409819Y-86848809D02*
X80457438Y-86753571D01*
X80457438Y-86753571D02*
X80505057Y-86705952D01*
X80505057Y-86705952D02*
X80600295Y-86658333D01*
X80600295Y-86658333D02*
X80647914Y-86658333D01*
X80647914Y-86658333D02*
X80743152Y-86705952D01*
X80743152Y-86705952D02*
X80790771Y-86753571D01*
X80790771Y-86753571D02*
X80838390Y-86848809D01*
X80838390Y-86848809D02*
X80838390Y-87039285D01*
X80838390Y-87039285D02*
X80886009Y-87134523D01*
X80886009Y-87134523D02*
X80933628Y-87182142D01*
X80933628Y-87182142D02*
X81028866Y-87229761D01*
X81028866Y-87229761D02*
X81219342Y-87229761D01*
X81219342Y-87229761D02*
X81314580Y-87182142D01*
X81314580Y-87182142D02*
X81362200Y-87134523D01*
X81362200Y-87134523D02*
X81409819Y-87039285D01*
X81409819Y-87039285D02*
X81409819Y-86848809D01*
X81409819Y-86848809D02*
X81362200Y-86753571D01*
X81362200Y-86753571D02*
X81314580Y-86705952D01*
X81314580Y-86705952D02*
X81219342Y-86658333D01*
X81219342Y-86658333D02*
X81028866Y-86658333D01*
X81028866Y-86658333D02*
X80933628Y-86705952D01*
X80933628Y-86705952D02*
X80886009Y-86753571D01*
X80886009Y-86753571D02*
X80838390Y-86848809D01*
X105731009Y-115083333D02*
X105731009Y-115416666D01*
X106254819Y-115416666D02*
X105254819Y-115416666D01*
X105254819Y-115416666D02*
X105254819Y-114940476D01*
X105350057Y-114607142D02*
X105302438Y-114559523D01*
X105302438Y-114559523D02*
X105254819Y-114464285D01*
X105254819Y-114464285D02*
X105254819Y-114226190D01*
X105254819Y-114226190D02*
X105302438Y-114130952D01*
X105302438Y-114130952D02*
X105350057Y-114083333D01*
X105350057Y-114083333D02*
X105445295Y-114035714D01*
X105445295Y-114035714D02*
X105540533Y-114035714D01*
X105540533Y-114035714D02*
X105683390Y-114083333D01*
X105683390Y-114083333D02*
X106254819Y-114654761D01*
X106254819Y-114654761D02*
X106254819Y-114035714D01*
X144266666Y-71184819D02*
X144266666Y-71899104D01*
X144266666Y-71899104D02*
X144219047Y-72041961D01*
X144219047Y-72041961D02*
X144123809Y-72137200D01*
X144123809Y-72137200D02*
X143980952Y-72184819D01*
X143980952Y-72184819D02*
X143885714Y-72184819D01*
X144647619Y-71184819D02*
X145314285Y-71184819D01*
X145314285Y-71184819D02*
X144885714Y-72184819D01*
X121490476Y-127624819D02*
X121490476Y-128339104D01*
X121490476Y-128339104D02*
X121442857Y-128481961D01*
X121442857Y-128481961D02*
X121347619Y-128577200D01*
X121347619Y-128577200D02*
X121204762Y-128624819D01*
X121204762Y-128624819D02*
X121109524Y-128624819D01*
X122490476Y-128624819D02*
X121919048Y-128624819D01*
X122204762Y-128624819D02*
X122204762Y-127624819D01*
X122204762Y-127624819D02*
X122109524Y-127767676D01*
X122109524Y-127767676D02*
X122014286Y-127862914D01*
X122014286Y-127862914D02*
X121919048Y-127910533D01*
X123109524Y-127624819D02*
X123204762Y-127624819D01*
X123204762Y-127624819D02*
X123300000Y-127672438D01*
X123300000Y-127672438D02*
X123347619Y-127720057D01*
X123347619Y-127720057D02*
X123395238Y-127815295D01*
X123395238Y-127815295D02*
X123442857Y-128005771D01*
X123442857Y-128005771D02*
X123442857Y-128243866D01*
X123442857Y-128243866D02*
X123395238Y-128434342D01*
X123395238Y-128434342D02*
X123347619Y-128529580D01*
X123347619Y-128529580D02*
X123300000Y-128577200D01*
X123300000Y-128577200D02*
X123204762Y-128624819D01*
X123204762Y-128624819D02*
X123109524Y-128624819D01*
X123109524Y-128624819D02*
X123014286Y-128577200D01*
X123014286Y-128577200D02*
X122966667Y-128529580D01*
X122966667Y-128529580D02*
X122919048Y-128434342D01*
X122919048Y-128434342D02*
X122871429Y-128243866D01*
X122871429Y-128243866D02*
X122871429Y-128005771D01*
X122871429Y-128005771D02*
X122919048Y-127815295D01*
X122919048Y-127815295D02*
X122966667Y-127720057D01*
X122966667Y-127720057D02*
X123014286Y-127672438D01*
X123014286Y-127672438D02*
X123109524Y-127624819D01*
X150124819Y-102409523D02*
X150839104Y-102409523D01*
X150839104Y-102409523D02*
X150981961Y-102457142D01*
X150981961Y-102457142D02*
X151077200Y-102552380D01*
X151077200Y-102552380D02*
X151124819Y-102695237D01*
X151124819Y-102695237D02*
X151124819Y-102790475D01*
X151124819Y-101409523D02*
X151124819Y-101980951D01*
X151124819Y-101695237D02*
X150124819Y-101695237D01*
X150124819Y-101695237D02*
X150267676Y-101790475D01*
X150267676Y-101790475D02*
X150362914Y-101885713D01*
X150362914Y-101885713D02*
X150410533Y-101980951D01*
X150220057Y-101028570D02*
X150172438Y-100980951D01*
X150172438Y-100980951D02*
X150124819Y-100885713D01*
X150124819Y-100885713D02*
X150124819Y-100647618D01*
X150124819Y-100647618D02*
X150172438Y-100552380D01*
X150172438Y-100552380D02*
X150220057Y-100504761D01*
X150220057Y-100504761D02*
X150315295Y-100457142D01*
X150315295Y-100457142D02*
X150410533Y-100457142D01*
X150410533Y-100457142D02*
X150553390Y-100504761D01*
X150553390Y-100504761D02*
X151124819Y-101076189D01*
X151124819Y-101076189D02*
X151124819Y-100457142D01*
X137866666Y-127639819D02*
X137866666Y-128354104D01*
X137866666Y-128354104D02*
X137819047Y-128496961D01*
X137819047Y-128496961D02*
X137723809Y-128592200D01*
X137723809Y-128592200D02*
X137580952Y-128639819D01*
X137580952Y-128639819D02*
X137485714Y-128639819D01*
X138771428Y-127639819D02*
X138580952Y-127639819D01*
X138580952Y-127639819D02*
X138485714Y-127687438D01*
X138485714Y-127687438D02*
X138438095Y-127735057D01*
X138438095Y-127735057D02*
X138342857Y-127877914D01*
X138342857Y-127877914D02*
X138295238Y-128068390D01*
X138295238Y-128068390D02*
X138295238Y-128449342D01*
X138295238Y-128449342D02*
X138342857Y-128544580D01*
X138342857Y-128544580D02*
X138390476Y-128592200D01*
X138390476Y-128592200D02*
X138485714Y-128639819D01*
X138485714Y-128639819D02*
X138676190Y-128639819D01*
X138676190Y-128639819D02*
X138771428Y-128592200D01*
X138771428Y-128592200D02*
X138819047Y-128544580D01*
X138819047Y-128544580D02*
X138866666Y-128449342D01*
X138866666Y-128449342D02*
X138866666Y-128211247D01*
X138866666Y-128211247D02*
X138819047Y-128116009D01*
X138819047Y-128116009D02*
X138771428Y-128068390D01*
X138771428Y-128068390D02*
X138676190Y-128020771D01*
X138676190Y-128020771D02*
X138485714Y-128020771D01*
X138485714Y-128020771D02*
X138390476Y-128068390D01*
X138390476Y-128068390D02*
X138342857Y-128116009D01*
X138342857Y-128116009D02*
X138295238Y-128211247D01*
X105690476Y-79754819D02*
X105690476Y-80469104D01*
X105690476Y-80469104D02*
X105642857Y-80611961D01*
X105642857Y-80611961D02*
X105547619Y-80707200D01*
X105547619Y-80707200D02*
X105404762Y-80754819D01*
X105404762Y-80754819D02*
X105309524Y-80754819D01*
X106690476Y-80754819D02*
X106119048Y-80754819D01*
X106404762Y-80754819D02*
X106404762Y-79754819D01*
X106404762Y-79754819D02*
X106309524Y-79897676D01*
X106309524Y-79897676D02*
X106214286Y-79992914D01*
X106214286Y-79992914D02*
X106119048Y-80040533D01*
X107642857Y-80754819D02*
X107071429Y-80754819D01*
X107357143Y-80754819D02*
X107357143Y-79754819D01*
X107357143Y-79754819D02*
X107261905Y-79897676D01*
X107261905Y-79897676D02*
X107166667Y-79992914D01*
X107166667Y-79992914D02*
X107071429Y-80040533D01*
D14*
%TO.C,J13*%
X81980000Y-109385000D02*
X81980000Y-109405000D01*
X81980000Y-116395000D02*
X81980000Y-116415000D01*
X81980000Y-116415000D02*
X82480000Y-116415000D01*
X82480000Y-109385000D02*
X81980000Y-109385000D01*
X82480000Y-116415000D02*
X82480000Y-109385000D01*
X83495000Y-117835000D02*
X86570000Y-117835000D01*
X86570000Y-107965000D02*
X83495000Y-107965000D01*
X86570000Y-117835000D02*
X86570000Y-107965000D01*
%TO.C,F10*%
X109815000Y-92235000D02*
X105835000Y-92235000D01*
X109815000Y-97215000D02*
X105835000Y-97215000D01*
%TO.C,J5*%
X109665000Y-71470000D02*
X110665000Y-70470000D01*
X109665000Y-80590000D02*
X109665000Y-71470000D01*
X109665000Y-80590000D02*
X112090000Y-80590000D01*
X110665000Y-70470000D02*
X118535000Y-70470000D01*
X114110000Y-80590000D02*
X115448233Y-80590000D01*
X118535000Y-70470000D02*
X119535000Y-71470000D01*
X119535000Y-71470000D02*
X119535000Y-80590000D01*
X119535000Y-80590000D02*
X116751767Y-80590000D01*
%TO.C,R1*%
X82055000Y-96485000D02*
X82055000Y-96505000D01*
X82055000Y-103495000D02*
X82055000Y-103515000D01*
X82055000Y-103515000D02*
X82555000Y-103515000D01*
X82555000Y-96485000D02*
X82055000Y-96485000D01*
X82555000Y-103515000D02*
X82555000Y-96485000D01*
X83570000Y-104935000D02*
X86645000Y-104935000D01*
X86645000Y-95065000D02*
X83570000Y-95065000D01*
X86645000Y-104935000D02*
X86645000Y-95065000D01*
%TO.C,J9*%
X124865000Y-74435000D02*
X124865000Y-77510000D01*
X124865000Y-77510000D02*
X134735000Y-77510000D01*
X126285000Y-72920000D02*
X126285000Y-73420000D01*
X126285000Y-73420000D02*
X133315000Y-73420000D01*
X126305000Y-72920000D02*
X126285000Y-72920000D01*
X133315000Y-72920000D02*
X133295000Y-72920000D01*
X133315000Y-73420000D02*
X133315000Y-72920000D01*
X134735000Y-77510000D02*
X134735000Y-74435000D01*
D15*
%TO.C,G\u002A\u002A\u002A*%
G36*
X134456920Y-104669688D02*
G01*
X134456920Y-104921378D01*
X134386777Y-104921378D01*
X134316634Y-104921378D01*
X134316634Y-104669688D01*
X134316634Y-104417999D01*
X134386777Y-104417999D01*
X134456920Y-104417999D01*
X134456920Y-104669688D01*
G37*
G36*
X130495906Y-104236452D02*
G01*
X130495906Y-104302469D01*
X130372125Y-104302469D01*
X130248343Y-104302469D01*
X130248343Y-104611923D01*
X130248343Y-104921378D01*
X130174175Y-104921378D01*
X130100006Y-104921378D01*
X130097843Y-104613986D01*
X130095679Y-104306595D01*
X129969834Y-104304317D01*
X129843990Y-104302039D01*
X129843990Y-104236237D01*
X129843990Y-104170435D01*
X130169948Y-104170435D01*
X130495906Y-104170435D01*
X130495906Y-104236452D01*
G37*
G36*
X136552956Y-104236452D02*
G01*
X136552956Y-104302469D01*
X136429175Y-104302469D01*
X136305393Y-104302469D01*
X136305393Y-104611923D01*
X136305393Y-104921378D01*
X136231225Y-104921378D01*
X136157056Y-104921378D01*
X136154893Y-104613986D01*
X136152729Y-104306595D01*
X136026884Y-104304317D01*
X135901040Y-104302039D01*
X135901040Y-104236237D01*
X135901040Y-104170435D01*
X136226998Y-104170435D01*
X136552956Y-104170435D01*
X136552956Y-104236452D01*
G37*
G36*
X134427026Y-104240076D02*
G01*
X134437480Y-104247761D01*
X134455268Y-104272441D01*
X134460833Y-104301802D01*
X134453814Y-104330188D01*
X134443636Y-104344177D01*
X134420380Y-104358479D01*
X134391005Y-104365266D01*
X134363221Y-104363233D01*
X134353769Y-104359372D01*
X134329319Y-104339196D01*
X134318078Y-104312217D01*
X134316634Y-104293239D01*
X134323579Y-104263816D01*
X134341883Y-104242361D01*
X134367754Y-104230301D01*
X134397400Y-104229064D01*
X134427026Y-104240076D01*
G37*
G36*
X127186810Y-104318973D02*
G01*
X127186810Y-104467511D01*
X127364230Y-104467511D01*
X127541650Y-104467511D01*
X127541650Y-104318973D01*
X127541650Y-104170435D01*
X127615919Y-104170435D01*
X127690188Y-104170435D01*
X127690188Y-104545906D01*
X127690188Y-104921378D01*
X127615919Y-104921378D01*
X127541650Y-104921378D01*
X127541650Y-104764587D01*
X127541650Y-104607797D01*
X127364230Y-104607797D01*
X127186810Y-104607797D01*
X127186810Y-104764587D01*
X127186810Y-104921378D01*
X127112541Y-104921378D01*
X127038272Y-104921378D01*
X127038272Y-104545906D01*
X127038272Y-104170435D01*
X127112541Y-104170435D01*
X127186810Y-104170435D01*
X127186810Y-104318973D01*
G37*
G36*
X131428395Y-104236306D02*
G01*
X131428395Y-104302176D01*
X131228281Y-104304385D01*
X131028168Y-104306595D01*
X131025806Y-104387053D01*
X131023444Y-104467511D01*
X131176407Y-104467511D01*
X131329370Y-104467511D01*
X131329370Y-104537654D01*
X131329370Y-104607797D01*
X131176706Y-104607797D01*
X131024042Y-104607797D01*
X131024042Y-104694444D01*
X131024042Y-104781092D01*
X131226218Y-104781092D01*
X131428395Y-104781092D01*
X131428395Y-104851235D01*
X131428395Y-104921378D01*
X131151949Y-104921378D01*
X130875504Y-104921378D01*
X130875504Y-104545906D01*
X130875504Y-104170435D01*
X131151949Y-104170435D01*
X131428395Y-104170435D01*
X131428395Y-104236306D01*
G37*
G36*
X127962508Y-104319762D02*
G01*
X127962508Y-104469089D01*
X128086987Y-104319762D01*
X128211467Y-104170435D01*
X128293777Y-104170435D01*
X128327797Y-104171069D01*
X128354087Y-104172780D01*
X128369389Y-104175280D01*
X128371835Y-104177317D01*
X128365587Y-104185255D01*
X128350164Y-104204094D01*
X128327003Y-104232099D01*
X128297545Y-104267535D01*
X128263229Y-104308665D01*
X128227419Y-104351459D01*
X128087256Y-104518718D01*
X128241500Y-104692174D01*
X128282868Y-104738755D01*
X128321759Y-104782660D01*
X128356492Y-104821980D01*
X128385382Y-104854808D01*
X128406747Y-104879233D01*
X128418904Y-104893348D01*
X128419260Y-104893773D01*
X128442776Y-104921916D01*
X128345267Y-104919584D01*
X128247759Y-104917251D01*
X128107197Y-104757772D01*
X127966634Y-104598293D01*
X127964397Y-104759835D01*
X127962159Y-104921378D01*
X127888065Y-104921378D01*
X127813970Y-104921378D01*
X127813970Y-104545906D01*
X127813970Y-104170435D01*
X127888239Y-104170435D01*
X127962508Y-104170435D01*
X127962508Y-104319762D01*
G37*
G36*
X122121318Y-110155133D02*
G01*
X123452729Y-110157342D01*
X123501582Y-110175948D01*
X123570998Y-110207786D01*
X123625724Y-110245267D01*
X123666940Y-110289494D01*
X123695823Y-110341568D01*
X123704460Y-110365724D01*
X123715541Y-110410390D01*
X123719471Y-110452685D01*
X123715658Y-110495484D01*
X123703510Y-110541660D01*
X123682433Y-110594090D01*
X123651836Y-110655646D01*
X123640268Y-110677135D01*
X123593015Y-110763698D01*
X122015606Y-110763785D01*
X120438197Y-110763873D01*
X120429429Y-110738721D01*
X120427491Y-110731389D01*
X120427314Y-110723093D01*
X120429653Y-110712306D01*
X120435265Y-110697503D01*
X120444908Y-110677158D01*
X120459338Y-110649745D01*
X120479312Y-110613737D01*
X120505587Y-110567610D01*
X120538920Y-110509837D01*
X120566844Y-110461672D01*
X120606631Y-110393340D01*
X120639316Y-110337838D01*
X120665913Y-110293626D01*
X120687436Y-110259164D01*
X120704901Y-110232910D01*
X120719322Y-110213325D01*
X120731713Y-110198869D01*
X120743089Y-110188000D01*
X120751468Y-110181349D01*
X120789907Y-110152924D01*
X122121318Y-110155133D01*
G37*
G36*
X125603957Y-110155133D02*
G01*
X126935120Y-110157342D01*
X126983973Y-110175948D01*
X127053389Y-110207786D01*
X127108115Y-110245267D01*
X127149331Y-110289494D01*
X127178214Y-110341568D01*
X127186852Y-110365724D01*
X127197932Y-110410390D01*
X127201862Y-110452685D01*
X127198049Y-110495484D01*
X127185901Y-110541660D01*
X127164824Y-110594090D01*
X127134227Y-110655646D01*
X127122660Y-110677135D01*
X127075406Y-110763698D01*
X125497564Y-110763785D01*
X123919721Y-110763873D01*
X123914353Y-110735258D01*
X123913440Y-110726201D01*
X123914585Y-110715760D01*
X123918600Y-110702280D01*
X123926296Y-110684109D01*
X123938484Y-110659594D01*
X123955975Y-110627082D01*
X123979581Y-110584920D01*
X124010111Y-110531455D01*
X124038873Y-110481505D01*
X124071519Y-110424948D01*
X124102125Y-110371978D01*
X124129550Y-110324566D01*
X124152655Y-110284682D01*
X124170299Y-110254294D01*
X124181341Y-110235371D01*
X124183809Y-110231195D01*
X124199461Y-110211612D01*
X124222501Y-110189883D01*
X124235825Y-110179473D01*
X124272794Y-110152924D01*
X125603957Y-110155133D01*
G37*
G36*
X134928843Y-110155133D02*
G01*
X136260007Y-110157342D01*
X136308860Y-110175948D01*
X136378275Y-110207786D01*
X136433002Y-110245267D01*
X136474217Y-110289494D01*
X136503100Y-110341568D01*
X136511738Y-110365724D01*
X136522818Y-110410390D01*
X136526749Y-110452685D01*
X136522936Y-110495484D01*
X136510787Y-110541660D01*
X136489710Y-110594090D01*
X136459113Y-110655646D01*
X136447546Y-110677135D01*
X136400292Y-110763698D01*
X134822450Y-110763785D01*
X133244608Y-110763873D01*
X133239239Y-110735258D01*
X133238326Y-110726201D01*
X133239471Y-110715760D01*
X133243486Y-110702280D01*
X133251182Y-110684109D01*
X133263370Y-110659594D01*
X133280861Y-110627082D01*
X133304467Y-110584920D01*
X133334998Y-110531455D01*
X133363759Y-110481505D01*
X133396405Y-110424948D01*
X133427011Y-110371978D01*
X133454437Y-110324566D01*
X133477541Y-110284682D01*
X133495185Y-110254294D01*
X133506227Y-110235371D01*
X133508695Y-110231195D01*
X133524348Y-110211612D01*
X133547387Y-110189883D01*
X133560711Y-110179473D01*
X133597680Y-110152924D01*
X134928843Y-110155133D01*
G37*
G36*
X133233431Y-110180036D02*
G01*
X133236722Y-110200706D01*
X133236956Y-110214140D01*
X133236861Y-110214515D01*
X133232194Y-110223751D01*
X133220533Y-110244898D01*
X133203201Y-110275612D01*
X133181523Y-110313548D01*
X133156820Y-110356363D01*
X133155334Y-110358927D01*
X133125302Y-110410802D01*
X133093242Y-110466317D01*
X133061973Y-110520581D01*
X133034318Y-110568698D01*
X133019419Y-110594704D01*
X132984326Y-110652422D01*
X132952515Y-110697308D01*
X132924967Y-110727983D01*
X132924071Y-110728801D01*
X132885345Y-110763873D01*
X131757016Y-110763873D01*
X130628688Y-110763873D01*
X130623320Y-110735258D01*
X130622406Y-110726201D01*
X130623552Y-110715760D01*
X130627567Y-110702280D01*
X130635263Y-110684109D01*
X130647451Y-110659594D01*
X130664942Y-110627082D01*
X130688548Y-110584920D01*
X130719078Y-110531455D01*
X130747840Y-110481505D01*
X130780486Y-110424948D01*
X130811092Y-110371978D01*
X130838517Y-110324566D01*
X130861622Y-110284682D01*
X130879265Y-110254294D01*
X130890308Y-110235371D01*
X130892775Y-110231195D01*
X130908455Y-110211571D01*
X130931488Y-110189850D01*
X130944588Y-110179619D01*
X130981353Y-110153216D01*
X132104561Y-110153216D01*
X133227768Y-110153216D01*
X133233431Y-110180036D01*
G37*
G36*
X134677689Y-104422886D02*
G01*
X134679709Y-104435071D01*
X134679727Y-104437904D01*
X134680256Y-104452330D01*
X134684192Y-104457638D01*
X134695061Y-104454080D01*
X134716390Y-104441911D01*
X134718453Y-104440692D01*
X134741921Y-104429616D01*
X134768567Y-104423871D01*
X134804739Y-104422134D01*
X134807635Y-104422128D01*
X134863640Y-104428172D01*
X134909931Y-104446902D01*
X134948355Y-104479228D01*
X134964059Y-104499144D01*
X134989181Y-104534902D01*
X134991668Y-104728140D01*
X134994155Y-104921378D01*
X134927714Y-104921378D01*
X134861274Y-104921378D01*
X134861261Y-104770777D01*
X134860798Y-104708088D01*
X134859017Y-104659620D01*
X134855306Y-104623102D01*
X134849056Y-104596265D01*
X134839657Y-104576840D01*
X134826499Y-104562557D01*
X134808971Y-104551148D01*
X134801151Y-104547149D01*
X134767722Y-104536747D01*
X134738074Y-104541358D01*
X134709405Y-104561577D01*
X134703227Y-104567882D01*
X134679727Y-104593038D01*
X134679727Y-104757208D01*
X134679727Y-104921378D01*
X134609584Y-104921378D01*
X134539441Y-104921378D01*
X134539441Y-104678446D01*
X134539441Y-104435514D01*
X134578639Y-104430445D01*
X134610291Y-104426259D01*
X134641235Y-104422027D01*
X134648782Y-104420962D01*
X134668962Y-104419049D01*
X134677689Y-104422886D01*
G37*
G36*
X132237955Y-104209334D02*
G01*
X132231629Y-104225287D01*
X132219931Y-104254778D01*
X132203576Y-104296002D01*
X132183279Y-104347157D01*
X132159755Y-104406439D01*
X132133721Y-104472047D01*
X132105891Y-104542175D01*
X132088854Y-104585104D01*
X131955401Y-104921378D01*
X131881275Y-104921378D01*
X131807150Y-104921378D01*
X131796017Y-104894558D01*
X131790682Y-104881492D01*
X131779856Y-104854796D01*
X131764217Y-104816148D01*
X131744442Y-104767226D01*
X131721209Y-104709708D01*
X131695198Y-104645271D01*
X131667084Y-104575594D01*
X131644295Y-104519087D01*
X131503706Y-104170435D01*
X131583643Y-104170462D01*
X131663580Y-104170488D01*
X131766121Y-104436592D01*
X131790355Y-104499256D01*
X131812872Y-104557051D01*
X131832954Y-104608162D01*
X131849878Y-104650774D01*
X131862926Y-104683071D01*
X131871377Y-104703237D01*
X131874355Y-104709429D01*
X131878684Y-104703797D01*
X131888167Y-104684597D01*
X131902011Y-104653660D01*
X131919427Y-104612816D01*
X131939623Y-104563893D01*
X131961807Y-104508721D01*
X131968920Y-104490748D01*
X131992526Y-104430880D01*
X132015039Y-104373787D01*
X132035498Y-104321912D01*
X132052940Y-104277694D01*
X132066403Y-104243575D01*
X132074922Y-104221995D01*
X132075731Y-104219948D01*
X132093669Y-104174561D01*
X132173635Y-104172200D01*
X132253601Y-104169838D01*
X132237955Y-104209334D01*
G37*
G36*
X140196775Y-110181921D02*
G01*
X140197655Y-110190545D01*
X140196604Y-110200525D01*
X140192848Y-110213407D01*
X140185610Y-110230738D01*
X140174117Y-110254063D01*
X140157594Y-110284928D01*
X140135265Y-110324879D01*
X140106355Y-110375462D01*
X140070090Y-110438222D01*
X140056773Y-110461184D01*
X140014228Y-110534055D01*
X139978790Y-110593683D01*
X139949660Y-110641315D01*
X139926037Y-110678195D01*
X139907121Y-110705567D01*
X139892113Y-110724676D01*
X139880211Y-110736768D01*
X139878951Y-110737808D01*
X139846517Y-110763873D01*
X138265008Y-110763873D01*
X136683499Y-110763873D01*
X136718322Y-110699919D01*
X136760623Y-110627893D01*
X136804022Y-110566624D01*
X136852671Y-110510648D01*
X136891418Y-110472306D01*
X136985136Y-110393909D01*
X137089932Y-110323629D01*
X137202405Y-110263183D01*
X137319150Y-110214288D01*
X137436764Y-110178661D01*
X137499557Y-110165523D01*
X137510777Y-110163876D01*
X137525173Y-110162379D01*
X137543512Y-110161024D01*
X137566562Y-110159806D01*
X137595090Y-110158717D01*
X137629863Y-110157751D01*
X137671648Y-110156900D01*
X137721212Y-110156158D01*
X137779323Y-110155518D01*
X137846748Y-110154973D01*
X137924253Y-110154517D01*
X138012607Y-110154142D01*
X138112576Y-110153841D01*
X138224927Y-110153608D01*
X138350429Y-110153437D01*
X138489847Y-110153319D01*
X138643949Y-110153249D01*
X138813502Y-110153219D01*
X138880759Y-110153216D01*
X140191390Y-110153216D01*
X140196775Y-110181921D01*
G37*
G36*
X130619740Y-110182255D02*
G01*
X130622095Y-110190271D01*
X130623049Y-110198355D01*
X130621845Y-110208063D01*
X130617729Y-110220951D01*
X130609944Y-110238573D01*
X130597737Y-110262485D01*
X130580351Y-110294243D01*
X130557032Y-110335400D01*
X130527024Y-110387514D01*
X130489572Y-110452139D01*
X130484155Y-110461474D01*
X130444370Y-110529794D01*
X130411686Y-110585253D01*
X130385102Y-110629373D01*
X130363621Y-110663673D01*
X130346244Y-110689673D01*
X130331972Y-110708895D01*
X130319805Y-110722857D01*
X130308746Y-110733081D01*
X130302631Y-110737764D01*
X130266275Y-110763873D01*
X128808318Y-110763873D01*
X127350360Y-110763873D01*
X127385183Y-110699919D01*
X127427485Y-110627893D01*
X127470883Y-110566624D01*
X127519532Y-110510648D01*
X127558280Y-110472306D01*
X127651997Y-110393909D01*
X127756794Y-110323629D01*
X127869266Y-110263183D01*
X127986011Y-110214288D01*
X128103626Y-110178661D01*
X128166418Y-110165523D01*
X128178168Y-110163794D01*
X128193142Y-110162230D01*
X128212152Y-110160823D01*
X128236008Y-110159566D01*
X128265518Y-110158450D01*
X128301493Y-110157468D01*
X128344743Y-110156612D01*
X128396078Y-110155873D01*
X128456307Y-110155245D01*
X128526241Y-110154718D01*
X128606689Y-110154285D01*
X128698460Y-110153939D01*
X128802366Y-110153670D01*
X128919216Y-110153472D01*
X129049819Y-110153336D01*
X129194986Y-110153254D01*
X129355527Y-110153219D01*
X129423573Y-110153216D01*
X130610156Y-110153216D01*
X130619740Y-110182255D01*
G37*
G36*
X128631126Y-104395305D02*
G01*
X128631451Y-104456390D01*
X128632265Y-104513598D01*
X128633493Y-104564388D01*
X128635059Y-104606218D01*
X128636886Y-104636544D01*
X128638830Y-104652545D01*
X128656918Y-104697427D01*
X128687398Y-104731991D01*
X128729255Y-104755542D01*
X128781473Y-104767385D01*
X128808570Y-104768710D01*
X128867154Y-104762786D01*
X128914356Y-104745040D01*
X128950073Y-104715521D01*
X128966644Y-104690881D01*
X128972140Y-104680022D01*
X128976468Y-104669261D01*
X128979766Y-104656567D01*
X128982176Y-104639912D01*
X128983836Y-104617265D01*
X128984886Y-104586596D01*
X128985465Y-104545875D01*
X128985713Y-104493072D01*
X128985769Y-104426157D01*
X128985770Y-104412575D01*
X128985770Y-104170435D01*
X129060039Y-104170435D01*
X129134308Y-104170435D01*
X129134308Y-104437908D01*
X129134308Y-104705381D01*
X129107489Y-104757183D01*
X129070372Y-104811465D01*
X129020935Y-104856719D01*
X128961997Y-104890491D01*
X128947704Y-104896261D01*
X128898042Y-104909559D01*
X128840092Y-104916901D01*
X128781125Y-104917832D01*
X128728415Y-104911896D01*
X128721702Y-104910434D01*
X128655163Y-104887527D01*
X128596200Y-104852705D01*
X128547271Y-104807861D01*
X128510835Y-104754890D01*
X128505479Y-104743957D01*
X128500242Y-104731999D01*
X128496045Y-104720078D01*
X128492752Y-104706242D01*
X128490225Y-104688542D01*
X128488327Y-104665026D01*
X128486924Y-104633745D01*
X128485876Y-104592749D01*
X128485049Y-104540086D01*
X128484305Y-104473806D01*
X128483937Y-104436566D01*
X128481356Y-104170435D01*
X128556143Y-104170435D01*
X128630929Y-104170435D01*
X128631126Y-104395305D01*
G37*
G36*
X134096146Y-104423832D02*
G01*
X134130574Y-104428280D01*
X134151592Y-104433927D01*
X134175980Y-104445657D01*
X134202160Y-104460928D01*
X134226048Y-104476987D01*
X134243559Y-104491082D01*
X134250610Y-104500461D01*
X134250617Y-104500649D01*
X134244493Y-104509112D01*
X134228450Y-104523953D01*
X134206342Y-104541666D01*
X134162066Y-104575094D01*
X134125884Y-104554411D01*
X134081242Y-104536826D01*
X134038600Y-104535206D01*
X133999761Y-104549012D01*
X133966529Y-104577706D01*
X133946784Y-104607864D01*
X133932843Y-104650272D01*
X133932754Y-104692641D01*
X133944895Y-104732095D01*
X133967647Y-104765760D01*
X133999388Y-104790761D01*
X134038498Y-104804222D01*
X134058346Y-104805749D01*
X134087729Y-104800824D01*
X134119847Y-104788226D01*
X134125884Y-104784966D01*
X134162066Y-104764282D01*
X134206342Y-104797711D01*
X134228740Y-104815671D01*
X134244663Y-104830443D01*
X134250617Y-104838727D01*
X134243555Y-104849678D01*
X134224992Y-104864177D01*
X134198864Y-104879936D01*
X134169109Y-104894665D01*
X134139663Y-104906076D01*
X134129910Y-104908927D01*
X134076098Y-104918956D01*
X134027097Y-104918536D01*
X133992611Y-104912399D01*
X133937343Y-104892640D01*
X133888777Y-104862169D01*
X133849802Y-104823448D01*
X133823305Y-104778933D01*
X133817836Y-104763544D01*
X133807519Y-104708875D01*
X133805994Y-104649344D01*
X133813292Y-104593135D01*
X133817144Y-104578350D01*
X133838655Y-104530053D01*
X133872554Y-104490151D01*
X133920377Y-104456962D01*
X133934876Y-104449424D01*
X133966184Y-104435098D01*
X133992154Y-104426884D01*
X134020110Y-104423142D01*
X134056301Y-104422232D01*
X134096146Y-104423832D01*
G37*
G36*
X132931593Y-104170751D02*
G01*
X132990321Y-104171907D01*
X133037091Y-104174219D01*
X133074173Y-104178002D01*
X133103835Y-104183571D01*
X133128346Y-104191240D01*
X133149976Y-104201324D01*
X133170320Y-104213691D01*
X133201797Y-104243810D01*
X133225574Y-104285660D01*
X133240050Y-104335638D01*
X133243860Y-104379324D01*
X133242458Y-104414031D01*
X133238809Y-104446984D01*
X133234440Y-104468153D01*
X133214915Y-104508956D01*
X133184017Y-104546131D01*
X133146719Y-104573789D01*
X133144036Y-104575196D01*
X133124507Y-104586031D01*
X133113068Y-104594063D01*
X133111826Y-104595857D01*
X133115738Y-104603987D01*
X133126648Y-104624184D01*
X133143313Y-104654215D01*
X133164493Y-104691846D01*
X133188946Y-104734843D01*
X133193133Y-104742165D01*
X133218762Y-104787026D01*
X133242089Y-104827995D01*
X133261670Y-104862530D01*
X133276067Y-104888090D01*
X133283837Y-104902133D01*
X133284196Y-104902810D01*
X133293953Y-104921378D01*
X133209079Y-104921245D01*
X133124204Y-104921112D01*
X133033916Y-104764454D01*
X132943627Y-104607797D01*
X132875062Y-104607797D01*
X132806498Y-104607797D01*
X132806498Y-104764587D01*
X132806498Y-104921378D01*
X132732229Y-104921378D01*
X132657960Y-104921378D01*
X132657960Y-104545906D01*
X132657960Y-104468647D01*
X132806498Y-104468647D01*
X132938325Y-104466016D01*
X132988250Y-104464863D01*
X133024386Y-104463465D01*
X133049443Y-104461459D01*
X133066137Y-104458481D01*
X133077179Y-104454168D01*
X133085284Y-104448156D01*
X133087486Y-104446029D01*
X133100058Y-104426310D01*
X133108494Y-104400333D01*
X133109209Y-104395944D01*
X133109946Y-104370219D01*
X133101964Y-104350690D01*
X133094145Y-104340663D01*
X133078441Y-104326500D01*
X133057675Y-104316161D01*
X133029330Y-104309130D01*
X132990888Y-104304896D01*
X132939832Y-104302947D01*
X132907586Y-104302666D01*
X132806498Y-104302469D01*
X132806498Y-104385558D01*
X132806498Y-104468647D01*
X132657960Y-104468647D01*
X132657960Y-104385558D01*
X132657960Y-104170435D01*
X132858639Y-104170435D01*
X132931593Y-104170751D01*
G37*
G36*
X136234749Y-111007542D02*
G01*
X136235905Y-111012015D01*
X136237112Y-111015637D01*
X136237898Y-111019279D01*
X136237791Y-111023810D01*
X136236318Y-111030099D01*
X136233007Y-111039018D01*
X136227386Y-111051435D01*
X136218983Y-111068221D01*
X136207326Y-111090245D01*
X136191942Y-111118377D01*
X136172360Y-111153487D01*
X136148107Y-111196444D01*
X136118711Y-111248120D01*
X136083700Y-111309382D01*
X136042602Y-111381102D01*
X135994944Y-111464149D01*
X135940255Y-111559393D01*
X135878062Y-111667704D01*
X135847398Y-111721118D01*
X135806871Y-111791739D01*
X135764934Y-111864852D01*
X135723227Y-111937593D01*
X135683394Y-112007097D01*
X135647077Y-112070499D01*
X135615916Y-112124933D01*
X135594371Y-112162606D01*
X135557661Y-112225598D01*
X135527254Y-112274946D01*
X135502323Y-112311891D01*
X135482044Y-112337675D01*
X135469780Y-112350095D01*
X135434795Y-112380794D01*
X134951359Y-112381040D01*
X134863539Y-112380994D01*
X134780673Y-112380772D01*
X134704226Y-112380393D01*
X134635664Y-112379870D01*
X134576453Y-112379220D01*
X134528057Y-112378459D01*
X134491942Y-112377602D01*
X134469573Y-112376665D01*
X134462422Y-112375785D01*
X134457675Y-112369149D01*
X134455564Y-112360227D01*
X134456647Y-112347857D01*
X134461480Y-112330880D01*
X134470618Y-112308135D01*
X134484618Y-112278460D01*
X134504037Y-112240696D01*
X134529430Y-112193682D01*
X134561355Y-112136257D01*
X134600367Y-112067260D01*
X134647023Y-111985531D01*
X134662060Y-111959286D01*
X134709852Y-111875910D01*
X134761343Y-111786058D01*
X134814691Y-111692943D01*
X134868055Y-111599782D01*
X134919593Y-111509790D01*
X134967464Y-111426181D01*
X135009826Y-111352171D01*
X135027216Y-111321780D01*
X135068795Y-111249311D01*
X135103273Y-111189784D01*
X135131592Y-111141728D01*
X135154696Y-111103675D01*
X135173528Y-111074156D01*
X135189030Y-111051700D01*
X135202147Y-111034839D01*
X135213822Y-111022103D01*
X135224997Y-111012022D01*
X135227171Y-111010263D01*
X135267109Y-110978428D01*
X135748198Y-110978428D01*
X136229287Y-110978428D01*
X136234749Y-111007542D01*
G37*
G36*
X134093827Y-111008270D02*
G01*
X134092004Y-111020808D01*
X134086014Y-111038566D01*
X134075079Y-111063104D01*
X134058419Y-111095986D01*
X134035254Y-111138773D01*
X134004806Y-111193026D01*
X133979542Y-111237266D01*
X133947270Y-111293500D01*
X133908757Y-111360600D01*
X133865982Y-111435123D01*
X133820922Y-111513622D01*
X133775555Y-111592652D01*
X133731857Y-111668769D01*
X133706541Y-111712866D01*
X133666052Y-111783401D01*
X133623712Y-111857187D01*
X133581281Y-111931153D01*
X133540521Y-112002229D01*
X133503192Y-112067344D01*
X133471055Y-112123427D01*
X133452141Y-112156455D01*
X133419118Y-112213557D01*
X133392512Y-112258041D01*
X133371001Y-112291863D01*
X133353257Y-112316980D01*
X133337957Y-112335350D01*
X133323776Y-112348928D01*
X133319434Y-112352443D01*
X133282412Y-112381287D01*
X132801504Y-112381287D01*
X132713993Y-112381183D01*
X132631497Y-112380886D01*
X132555477Y-112380413D01*
X132487396Y-112379784D01*
X132428713Y-112379016D01*
X132380890Y-112378129D01*
X132345388Y-112377142D01*
X132323668Y-112376072D01*
X132317125Y-112375097D01*
X132312783Y-112363106D01*
X132308303Y-112346511D01*
X132307312Y-112342723D01*
X132306648Y-112339039D01*
X132306802Y-112334558D01*
X132308267Y-112328378D01*
X132311537Y-112319595D01*
X132317103Y-112307310D01*
X132325460Y-112290619D01*
X132337100Y-112268621D01*
X132352516Y-112240414D01*
X132372200Y-112205096D01*
X132396646Y-112161765D01*
X132426346Y-112109519D01*
X132461793Y-112047456D01*
X132503480Y-111974675D01*
X132551900Y-111890273D01*
X132607546Y-111793348D01*
X132670346Y-111683983D01*
X132706183Y-111621562D01*
X132747669Y-111549292D01*
X132792238Y-111471641D01*
X132837326Y-111393077D01*
X132880370Y-111318067D01*
X132912874Y-111261417D01*
X132949462Y-111197846D01*
X132979102Y-111146978D01*
X133002926Y-111107124D01*
X133022065Y-111076596D01*
X133037651Y-111053706D01*
X133050816Y-111036764D01*
X133062691Y-111024082D01*
X133074407Y-111013972D01*
X133082917Y-111007664D01*
X133124151Y-110978428D01*
X133608989Y-110978428D01*
X134093827Y-110978428D01*
X134093827Y-111008270D01*
G37*
G36*
X136906165Y-104429575D02*
G01*
X136959331Y-104451393D01*
X137004681Y-104484325D01*
X137032655Y-104517257D01*
X137049892Y-104546697D01*
X137062088Y-104577990D01*
X137070750Y-104616086D01*
X137077121Y-104663499D01*
X137082712Y-104715075D01*
X136908608Y-104715075D01*
X136850750Y-104715151D01*
X136807333Y-104715501D01*
X136776295Y-104716307D01*
X136755573Y-104717751D01*
X136743104Y-104720017D01*
X136736826Y-104723285D01*
X136734675Y-104727740D01*
X136734503Y-104730466D01*
X136741472Y-104752504D01*
X136759416Y-104775259D01*
X136783889Y-104793565D01*
X136792284Y-104797603D01*
X136822692Y-104803944D01*
X136860841Y-104803370D01*
X136899842Y-104796603D01*
X136932808Y-104784369D01*
X136936194Y-104782472D01*
X136963692Y-104766248D01*
X137003267Y-104806427D01*
X137023910Y-104827884D01*
X137034425Y-104841376D01*
X137036433Y-104850531D01*
X137031555Y-104858974D01*
X137028370Y-104862599D01*
X137002138Y-104882036D01*
X136963901Y-104898257D01*
X136917989Y-104910408D01*
X136868733Y-104917632D01*
X136820463Y-104919075D01*
X136777508Y-104913881D01*
X136773572Y-104912938D01*
X136716328Y-104890675D01*
X136665990Y-104855804D01*
X136625762Y-104810949D01*
X136605364Y-104775086D01*
X136595239Y-104739700D01*
X136590480Y-104694738D01*
X136590967Y-104646192D01*
X136596579Y-104600052D01*
X136596764Y-104599395D01*
X136735725Y-104599395D01*
X136736378Y-104610724D01*
X136746491Y-104618055D01*
X136767950Y-104622208D01*
X136802641Y-104624005D01*
X136836908Y-104624302D01*
X136874795Y-104623679D01*
X136906319Y-104621990D01*
X136928000Y-104619498D01*
X136936252Y-104616742D01*
X136937417Y-104600828D01*
X136928096Y-104580344D01*
X136911212Y-104560342D01*
X136897688Y-104550067D01*
X136862910Y-104536924D01*
X136824983Y-104535403D01*
X136788606Y-104544499D01*
X136758479Y-104563205D01*
X136742646Y-104583244D01*
X136735725Y-104599395D01*
X136596764Y-104599395D01*
X136607196Y-104562308D01*
X136609760Y-104556598D01*
X136634051Y-104518873D01*
X136667531Y-104482636D01*
X136704845Y-104453086D01*
X136730982Y-104438908D01*
X136788869Y-104422522D01*
X136848304Y-104419681D01*
X136906165Y-104429575D01*
G37*
G36*
X137796994Y-104422886D02*
G01*
X137799009Y-104435001D01*
X137799025Y-104437625D01*
X137799025Y-104458703D01*
X137829971Y-104440414D01*
X137851142Y-104430197D01*
X137874873Y-104424578D01*
X137906897Y-104422456D01*
X137923883Y-104422341D01*
X137958657Y-104423277D01*
X137983334Y-104426832D01*
X138004288Y-104434561D01*
X138027035Y-104447483D01*
X138067219Y-104472409D01*
X138094547Y-104453935D01*
X138136425Y-104434081D01*
X138186975Y-104422952D01*
X138240728Y-104420764D01*
X138292217Y-104427729D01*
X138335972Y-104444064D01*
X138336649Y-104444442D01*
X138371095Y-104471753D01*
X138399885Y-104509497D01*
X138418124Y-104550696D01*
X138420574Y-104567376D01*
X138422725Y-104597575D01*
X138424455Y-104638308D01*
X138425643Y-104686592D01*
X138426170Y-104739440D01*
X138426186Y-104750092D01*
X138426186Y-104921378D01*
X138356515Y-104921378D01*
X138286844Y-104921378D01*
X138284309Y-104753055D01*
X138283206Y-104691561D01*
X138281551Y-104644411D01*
X138278689Y-104609447D01*
X138273963Y-104584510D01*
X138266718Y-104567440D01*
X138256300Y-104556078D01*
X138242052Y-104548265D01*
X138223320Y-104541842D01*
X138219879Y-104540804D01*
X138195030Y-104535973D01*
X138174249Y-104540158D01*
X138163598Y-104545141D01*
X138147212Y-104554901D01*
X138134737Y-104566529D01*
X138125649Y-104582280D01*
X138119424Y-104604405D01*
X138115536Y-104635156D01*
X138113462Y-104676786D01*
X138112678Y-104731546D01*
X138112606Y-104764178D01*
X138112606Y-104921378D01*
X138047567Y-104921378D01*
X137982528Y-104921378D01*
X137979246Y-104761794D01*
X137977669Y-104700023D01*
X137975374Y-104652521D01*
X137971720Y-104617055D01*
X137966064Y-104591389D01*
X137957766Y-104573290D01*
X137946183Y-104560522D01*
X137930673Y-104550852D01*
X137916867Y-104544617D01*
X137883122Y-104536641D01*
X137852768Y-104543609D01*
X137822848Y-104566201D01*
X137822724Y-104566325D01*
X137799025Y-104590024D01*
X137799025Y-104755701D01*
X137799025Y-104921378D01*
X137728882Y-104921378D01*
X137658739Y-104921378D01*
X137658739Y-104678446D01*
X137658739Y-104435514D01*
X137697937Y-104430445D01*
X137729589Y-104426259D01*
X137760534Y-104422027D01*
X137768080Y-104420962D01*
X137788264Y-104419057D01*
X137796994Y-104422886D01*
G37*
G36*
X133616337Y-104428412D02*
G01*
X133664688Y-104448938D01*
X133702365Y-104481618D01*
X133723663Y-104514659D01*
X133730030Y-104528437D01*
X133734888Y-104542170D01*
X133738486Y-104558350D01*
X133741070Y-104579468D01*
X133742890Y-104608016D01*
X133744192Y-104646484D01*
X133745225Y-104697363D01*
X133745862Y-104737768D01*
X133748611Y-104921378D01*
X133677782Y-104921378D01*
X133643612Y-104921184D01*
X133622696Y-104919982D01*
X133611781Y-104916844D01*
X133607617Y-104910839D01*
X133606953Y-104901127D01*
X133606953Y-104880876D01*
X133563629Y-104901046D01*
X133518869Y-104916416D01*
X133473321Y-104919783D01*
X133421732Y-104911446D01*
X133414410Y-104909545D01*
X133370695Y-104893211D01*
X133338745Y-104869460D01*
X133314359Y-104835047D01*
X133311940Y-104830436D01*
X133296990Y-104784198D01*
X133296585Y-104745580D01*
X133417460Y-104745580D01*
X133424708Y-104771385D01*
X133444324Y-104792953D01*
X133470122Y-104805228D01*
X133492446Y-104811163D01*
X133509116Y-104812956D01*
X133528903Y-104811051D01*
X133542518Y-104808882D01*
X133577161Y-104797379D01*
X133598460Y-104776299D01*
X133606796Y-104745233D01*
X133606953Y-104739388D01*
X133604735Y-104715891D01*
X133595254Y-104700759D01*
X133580133Y-104689738D01*
X133548448Y-104678059D01*
X133510250Y-104675609D01*
X133472492Y-104682069D01*
X133443631Y-104695968D01*
X133423471Y-104719216D01*
X133417460Y-104745580D01*
X133296585Y-104745580D01*
X133296485Y-104736075D01*
X133309217Y-104689405D01*
X133333974Y-104647528D01*
X133369547Y-104613781D01*
X133395940Y-104598661D01*
X133431779Y-104588301D01*
X133476205Y-104583884D01*
X133522361Y-104585540D01*
X133563388Y-104593397D01*
X133569502Y-104595410D01*
X133590532Y-104601759D01*
X133604136Y-104603743D01*
X133606110Y-104603138D01*
X133607500Y-104591574D01*
X133600494Y-104574037D01*
X133588267Y-104556325D01*
X133573992Y-104544235D01*
X133573807Y-104544140D01*
X133545388Y-104536187D01*
X133507045Y-104534172D01*
X133464218Y-104538009D01*
X133426090Y-104546468D01*
X133401838Y-104553136D01*
X133385143Y-104556718D01*
X133380478Y-104556783D01*
X133368727Y-104540217D01*
X133355240Y-104519261D01*
X133343172Y-104499087D01*
X133335679Y-104484866D01*
X133334633Y-104481643D01*
X133342099Y-104472866D01*
X133362086Y-104461966D01*
X133390977Y-104450276D01*
X133425155Y-104439130D01*
X133461002Y-104429862D01*
X133489485Y-104424543D01*
X133557779Y-104420220D01*
X133616337Y-104428412D01*
G37*
G36*
X137445317Y-104428412D02*
G01*
X137493668Y-104448938D01*
X137531345Y-104481618D01*
X137552643Y-104514659D01*
X137559010Y-104528437D01*
X137563868Y-104542170D01*
X137567465Y-104558350D01*
X137570050Y-104579468D01*
X137571869Y-104608016D01*
X137573172Y-104646484D01*
X137574205Y-104697363D01*
X137574842Y-104737768D01*
X137577591Y-104921378D01*
X137506762Y-104921378D01*
X137472592Y-104921184D01*
X137451675Y-104919982D01*
X137440761Y-104916844D01*
X137436597Y-104910839D01*
X137435932Y-104901127D01*
X137435932Y-104880876D01*
X137392609Y-104901046D01*
X137347849Y-104916416D01*
X137302301Y-104919783D01*
X137250712Y-104911446D01*
X137243390Y-104909545D01*
X137199674Y-104893211D01*
X137167725Y-104869460D01*
X137143339Y-104835047D01*
X137140919Y-104830436D01*
X137125969Y-104784198D01*
X137125565Y-104745580D01*
X137246440Y-104745580D01*
X137253688Y-104771385D01*
X137273304Y-104792953D01*
X137299101Y-104805228D01*
X137321426Y-104811163D01*
X137338096Y-104812956D01*
X137357882Y-104811051D01*
X137371498Y-104808882D01*
X137406141Y-104797379D01*
X137427440Y-104776299D01*
X137435776Y-104745233D01*
X137435932Y-104739388D01*
X137433715Y-104715891D01*
X137424234Y-104700759D01*
X137409113Y-104689738D01*
X137377428Y-104678059D01*
X137339230Y-104675609D01*
X137301472Y-104682069D01*
X137272611Y-104695968D01*
X137252450Y-104719216D01*
X137246440Y-104745580D01*
X137125565Y-104745580D01*
X137125465Y-104736075D01*
X137138197Y-104689405D01*
X137162954Y-104647528D01*
X137198527Y-104613781D01*
X137224920Y-104598661D01*
X137260759Y-104588301D01*
X137305185Y-104583884D01*
X137351341Y-104585540D01*
X137392368Y-104593397D01*
X137398482Y-104595410D01*
X137419512Y-104601759D01*
X137433115Y-104603743D01*
X137435090Y-104603138D01*
X137436480Y-104591574D01*
X137429474Y-104574037D01*
X137417247Y-104556325D01*
X137402972Y-104544235D01*
X137402787Y-104544140D01*
X137374368Y-104536187D01*
X137336025Y-104534172D01*
X137293198Y-104538009D01*
X137255070Y-104546468D01*
X137230818Y-104553136D01*
X137214123Y-104556718D01*
X137209458Y-104556783D01*
X137197707Y-104540217D01*
X137184220Y-104519261D01*
X137172152Y-104499087D01*
X137164659Y-104484866D01*
X137163613Y-104481643D01*
X137171079Y-104472866D01*
X137191066Y-104461966D01*
X137219957Y-104450276D01*
X137254134Y-104439130D01*
X137289981Y-104429862D01*
X137318465Y-104424543D01*
X137386759Y-104420220D01*
X137445317Y-104428412D01*
G37*
G36*
X129574535Y-104174826D02*
G01*
X129606229Y-104176029D01*
X129629564Y-104178781D01*
X129648608Y-104183696D01*
X129667434Y-104191387D01*
X129678947Y-104196912D01*
X129709140Y-104213447D01*
X129737741Y-104231807D01*
X129751602Y-104242299D01*
X129778871Y-104265335D01*
X129729186Y-104314314D01*
X129704716Y-104337950D01*
X129688720Y-104351404D01*
X129678198Y-104356357D01*
X129670149Y-104354490D01*
X129664784Y-104350381D01*
X129629270Y-104326087D01*
X129588303Y-104312363D01*
X129537494Y-104307801D01*
X129532092Y-104307792D01*
X129487662Y-104310937D01*
X129455216Y-104321052D01*
X129431085Y-104339870D01*
X129414880Y-104363099D01*
X129407092Y-104380695D01*
X129408966Y-104395516D01*
X129414996Y-104407684D01*
X129433018Y-104428998D01*
X129462413Y-104446504D01*
X129504990Y-104461052D01*
X129549930Y-104471166D01*
X129624450Y-104490230D01*
X129684302Y-104516332D01*
X129729945Y-104549912D01*
X129761839Y-104591411D01*
X129780442Y-104641269D01*
X129786225Y-104697435D01*
X129778463Y-104750951D01*
X129756231Y-104799309D01*
X129721112Y-104841189D01*
X129674686Y-104875272D01*
X129618536Y-104900241D01*
X129554242Y-104914776D01*
X129522157Y-104917605D01*
X129483644Y-104917935D01*
X129444169Y-104915952D01*
X129414880Y-104912471D01*
X129369467Y-104900356D01*
X129320827Y-104880756D01*
X129275701Y-104856769D01*
X129243200Y-104833590D01*
X129215931Y-104809974D01*
X129264662Y-104761938D01*
X129313393Y-104713901D01*
X129344716Y-104735158D01*
X129387789Y-104758345D01*
X129434351Y-104773234D01*
X129481487Y-104779976D01*
X129526283Y-104778724D01*
X129565825Y-104769631D01*
X129597199Y-104752848D01*
X129617490Y-104728530D01*
X129620682Y-104720718D01*
X129625997Y-104694962D01*
X129621448Y-104671150D01*
X129618478Y-104663566D01*
X129605801Y-104642969D01*
X129585468Y-104626620D01*
X129555060Y-104613358D01*
X129512160Y-104602019D01*
X129475901Y-104595037D01*
X129408681Y-104579270D01*
X129351989Y-104557631D01*
X129307687Y-104531021D01*
X129277641Y-104500339D01*
X129276625Y-104498834D01*
X129262924Y-104473760D01*
X129255096Y-104446188D01*
X129251212Y-104409259D01*
X129251150Y-104408162D01*
X129253264Y-104351945D01*
X129267294Y-104304182D01*
X129294416Y-104263000D01*
X129335808Y-104226529D01*
X129383638Y-104197544D01*
X129403025Y-104187884D01*
X129420378Y-104181387D01*
X129439676Y-104177431D01*
X129464900Y-104175392D01*
X129500032Y-104174647D01*
X129530409Y-104174561D01*
X129574535Y-104174826D01*
G37*
G36*
X128243080Y-111008754D02*
G01*
X128240838Y-111024579D01*
X128233489Y-111046077D01*
X128220096Y-111075281D01*
X128199722Y-111114224D01*
X128171431Y-111164941D01*
X128169915Y-111167607D01*
X128112096Y-111269163D01*
X128061896Y-111357363D01*
X128018793Y-111433206D01*
X127982265Y-111497691D01*
X127951791Y-111551818D01*
X127926847Y-111596587D01*
X127906912Y-111632997D01*
X127891463Y-111662048D01*
X127879979Y-111684740D01*
X127871937Y-111702071D01*
X127866815Y-111715043D01*
X127864092Y-111724654D01*
X127863244Y-111731904D01*
X127863751Y-111737792D01*
X127865089Y-111743319D01*
X127866497Y-111748509D01*
X127872031Y-111770558D01*
X128781598Y-111772657D01*
X129691164Y-111774756D01*
X129695691Y-111799513D01*
X129696449Y-111807757D01*
X129695268Y-111817467D01*
X129691368Y-111830180D01*
X129683967Y-111847435D01*
X129672286Y-111870768D01*
X129655541Y-111901717D01*
X129632954Y-111941820D01*
X129603742Y-111992614D01*
X129567125Y-112055636D01*
X129555279Y-112075958D01*
X129538879Y-112104074D01*
X129516952Y-112141662D01*
X129492285Y-112183939D01*
X129467671Y-112226125D01*
X129466196Y-112228652D01*
X129438700Y-112274254D01*
X129416179Y-112307744D01*
X129396522Y-112331916D01*
X129377616Y-112349563D01*
X129371092Y-112354496D01*
X129333787Y-112381287D01*
X128138580Y-112380631D01*
X127968582Y-112380512D01*
X127814348Y-112380349D01*
X127675134Y-112380133D01*
X127550200Y-112379858D01*
X127438804Y-112379516D01*
X127340205Y-112379101D01*
X127253660Y-112378606D01*
X127178428Y-112378023D01*
X127113768Y-112377346D01*
X127058939Y-112376568D01*
X127013198Y-112375681D01*
X126975804Y-112374679D01*
X126946015Y-112373555D01*
X126923090Y-112372301D01*
X126906288Y-112370912D01*
X126894867Y-112369379D01*
X126892351Y-112368884D01*
X126819077Y-112346335D01*
X126757676Y-112313464D01*
X126708774Y-112270918D01*
X126672991Y-112219339D01*
X126650952Y-112159375D01*
X126643972Y-112111795D01*
X126642913Y-112090948D01*
X126642963Y-112071251D01*
X126644670Y-112051521D01*
X126648580Y-112030574D01*
X126655243Y-112007229D01*
X126665205Y-111980302D01*
X126679015Y-111948612D01*
X126697219Y-111910975D01*
X126720366Y-111866208D01*
X126749003Y-111813130D01*
X126783678Y-111750557D01*
X126824938Y-111677306D01*
X126873331Y-111592195D01*
X126929405Y-111494042D01*
X126932679Y-111488317D01*
X126985303Y-111396379D01*
X127030461Y-111317676D01*
X127068846Y-111251094D01*
X127101150Y-111195522D01*
X127128068Y-111149848D01*
X127150292Y-111112959D01*
X127168514Y-111083744D01*
X127183429Y-111061089D01*
X127195728Y-111043884D01*
X127206105Y-111031015D01*
X127215253Y-111021370D01*
X127223865Y-111013837D01*
X127232170Y-111007632D01*
X127273404Y-110978428D01*
X127758242Y-110978428D01*
X128243080Y-110978428D01*
X128243080Y-111008754D01*
G37*
G36*
X135436858Y-104420955D02*
G01*
X135457806Y-104424253D01*
X135487305Y-104428152D01*
X135507792Y-104430555D01*
X135556032Y-104435888D01*
X135552450Y-104688948D01*
X135551282Y-104762964D01*
X135550019Y-104822427D01*
X135548540Y-104869289D01*
X135546726Y-104905502D01*
X135544457Y-104933017D01*
X135541613Y-104953786D01*
X135538075Y-104969761D01*
X135534536Y-104980748D01*
X135510692Y-105026271D01*
X135476269Y-105067397D01*
X135435762Y-105099255D01*
X135415327Y-105109889D01*
X135374482Y-105122409D01*
X135325104Y-105130161D01*
X135274657Y-105132435D01*
X135230606Y-105128518D01*
X135227204Y-105127836D01*
X135189165Y-105117174D01*
X135150998Y-105102167D01*
X135117974Y-105085213D01*
X135095365Y-105068712D01*
X135093886Y-105067186D01*
X135077311Y-105049285D01*
X135107664Y-105014302D01*
X135138017Y-104979319D01*
X135175003Y-104997633D01*
X135214277Y-105011520D01*
X135259090Y-105018786D01*
X135303397Y-105019070D01*
X135341153Y-105012010D01*
X135350885Y-105008131D01*
X135376594Y-104988272D01*
X135398006Y-104958072D01*
X135411446Y-104923680D01*
X135414165Y-104902268D01*
X135413724Y-104887861D01*
X135410071Y-104881951D01*
X135399708Y-104884247D01*
X135379138Y-104894458D01*
X135371096Y-104898684D01*
X135343218Y-104910247D01*
X135311853Y-104915962D01*
X135278005Y-104917251D01*
X135216427Y-104911690D01*
X135165568Y-104894580D01*
X135123763Y-104865285D01*
X135112686Y-104853967D01*
X135088699Y-104824721D01*
X135072372Y-104796681D01*
X135062325Y-104765497D01*
X135057178Y-104726824D01*
X135055575Y-104676967D01*
X135169332Y-104676967D01*
X135174313Y-104704816D01*
X135193304Y-104748517D01*
X135222171Y-104780492D01*
X135258500Y-104799632D01*
X135299877Y-104804828D01*
X135343888Y-104794971D01*
X135357353Y-104788858D01*
X135385767Y-104768483D01*
X135403752Y-104740414D01*
X135412304Y-104702255D01*
X135412688Y-104655982D01*
X135409616Y-104622724D01*
X135403882Y-104600497D01*
X135393834Y-104583861D01*
X135389162Y-104578533D01*
X135353709Y-104550428D01*
X135315753Y-104536679D01*
X135277684Y-104535881D01*
X135241894Y-104546629D01*
X135210772Y-104567517D01*
X135186711Y-104597139D01*
X135172100Y-104634091D01*
X135169332Y-104676967D01*
X135055575Y-104676967D01*
X135055554Y-104676313D01*
X135055542Y-104673814D01*
X135055885Y-104632224D01*
X135057770Y-104602465D01*
X135061902Y-104579884D01*
X135068984Y-104559830D01*
X135074597Y-104547773D01*
X135107347Y-104496257D01*
X135148366Y-104458703D01*
X135198455Y-104434626D01*
X135258418Y-104423542D01*
X135282263Y-104422641D01*
X135319145Y-104423623D01*
X135345510Y-104427755D01*
X135367223Y-104436180D01*
X135375571Y-104440801D01*
X135397756Y-104453537D01*
X135409228Y-104457682D01*
X135413520Y-104452978D01*
X135414165Y-104439167D01*
X135414165Y-104437973D01*
X135416241Y-104423052D01*
X135425891Y-104419423D01*
X135436858Y-104420955D01*
G37*
G36*
X132115637Y-111005247D02*
G01*
X132115825Y-111013540D01*
X132113611Y-111024529D01*
X132108300Y-111039591D01*
X132099196Y-111060106D01*
X132085603Y-111087449D01*
X132066825Y-111123000D01*
X132042167Y-111168136D01*
X132010932Y-111224235D01*
X131972425Y-111292674D01*
X131954150Y-111325016D01*
X131907065Y-111408241D01*
X131867432Y-111478304D01*
X131834622Y-111536432D01*
X131808003Y-111583851D01*
X131786945Y-111621791D01*
X131770820Y-111651477D01*
X131758997Y-111674139D01*
X131750846Y-111691002D01*
X131745736Y-111703294D01*
X131743038Y-111712243D01*
X131742123Y-111719076D01*
X131742359Y-111725021D01*
X131743117Y-111731304D01*
X131743528Y-111735356D01*
X131746101Y-111766504D01*
X132022130Y-111768681D01*
X132098710Y-111769311D01*
X132160398Y-111770020D01*
X132208807Y-111771035D01*
X132245547Y-111772582D01*
X132272231Y-111774888D01*
X132290470Y-111778181D01*
X132301876Y-111782686D01*
X132308062Y-111788631D01*
X132310638Y-111796243D01*
X132311217Y-111805748D01*
X132311245Y-111809369D01*
X132307248Y-111820626D01*
X132295841Y-111844302D01*
X132277992Y-111878599D01*
X132254671Y-111921719D01*
X132226845Y-111971863D01*
X132195485Y-112027230D01*
X132171265Y-112069311D01*
X132130085Y-112139965D01*
X132095876Y-112197618D01*
X132067682Y-112243748D01*
X132044548Y-112279829D01*
X132025519Y-112307338D01*
X132009639Y-112327750D01*
X131995953Y-112342542D01*
X131992008Y-112346215D01*
X131952856Y-112381287D01*
X130828767Y-112381287D01*
X130693915Y-112381242D01*
X130563633Y-112381112D01*
X130438871Y-112380901D01*
X130320579Y-112380615D01*
X130209709Y-112380259D01*
X130107210Y-112379838D01*
X130014033Y-112379357D01*
X129931129Y-112378822D01*
X129859448Y-112378238D01*
X129799941Y-112377609D01*
X129753558Y-112376943D01*
X129721249Y-112376242D01*
X129703966Y-112375513D01*
X129701206Y-112375097D01*
X129694462Y-112360576D01*
X129691810Y-112345810D01*
X129694044Y-112328402D01*
X129701958Y-112305956D01*
X129716345Y-112276077D01*
X129737998Y-112236369D01*
X129759821Y-112198110D01*
X129807823Y-112114831D01*
X129848411Y-112044654D01*
X129882362Y-111986352D01*
X129910451Y-111938697D01*
X129933453Y-111900461D01*
X129952143Y-111870417D01*
X129967297Y-111847336D01*
X129979690Y-111829993D01*
X129990097Y-111817158D01*
X129999294Y-111807605D01*
X130008057Y-111800105D01*
X130013977Y-111795685D01*
X130048864Y-111770630D01*
X130323890Y-111770630D01*
X130598915Y-111770630D01*
X130640247Y-111742129D01*
X130660443Y-111726535D01*
X130678319Y-111708161D01*
X130696524Y-111683616D01*
X130717706Y-111649510D01*
X130732101Y-111624537D01*
X130750435Y-111592182D01*
X130775090Y-111548633D01*
X130804270Y-111497066D01*
X130836178Y-111440657D01*
X130869017Y-111382582D01*
X130892228Y-111341520D01*
X130933958Y-111267670D01*
X130968419Y-111206777D01*
X130996510Y-111157460D01*
X131019128Y-111118332D01*
X131037171Y-111088010D01*
X131051534Y-111065109D01*
X131063117Y-111048246D01*
X131072816Y-111036036D01*
X131081528Y-111027095D01*
X131090151Y-111020038D01*
X131099582Y-111013481D01*
X131108905Y-111007267D01*
X131151729Y-110978428D01*
X131631588Y-110978428D01*
X132111447Y-110978428D01*
X132115637Y-111005247D01*
G37*
G36*
X126914490Y-111008016D02*
G01*
X126912725Y-111020505D01*
X126906903Y-111038011D01*
X126896236Y-111062117D01*
X126879933Y-111094405D01*
X126857206Y-111136460D01*
X126827265Y-111189865D01*
X126800205Y-111237266D01*
X126767933Y-111293500D01*
X126729420Y-111360600D01*
X126686645Y-111435123D01*
X126641585Y-111513622D01*
X126596217Y-111592652D01*
X126552520Y-111668769D01*
X126527203Y-111712866D01*
X126486715Y-111783401D01*
X126444375Y-111857187D01*
X126401944Y-111931153D01*
X126361184Y-112002229D01*
X126323854Y-112067344D01*
X126291718Y-112123427D01*
X126272804Y-112156455D01*
X126239780Y-112213557D01*
X126213175Y-112258041D01*
X126191663Y-112291863D01*
X126173920Y-112316980D01*
X126158620Y-112335350D01*
X126144438Y-112348928D01*
X126140097Y-112352443D01*
X126103074Y-112381287D01*
X124786154Y-112380631D01*
X124607628Y-112380520D01*
X124444901Y-112380369D01*
X124297266Y-112380172D01*
X124164017Y-112379923D01*
X124044449Y-112379616D01*
X123937854Y-112379244D01*
X123843528Y-112378803D01*
X123760765Y-112378285D01*
X123688858Y-112377685D01*
X123627101Y-112376996D01*
X123574789Y-112376213D01*
X123531216Y-112375329D01*
X123495674Y-112374339D01*
X123467460Y-112373236D01*
X123445866Y-112372014D01*
X123430187Y-112370667D01*
X123419716Y-112369190D01*
X123418212Y-112368884D01*
X123344937Y-112346335D01*
X123283537Y-112313464D01*
X123234635Y-112270918D01*
X123198852Y-112219339D01*
X123176813Y-112159375D01*
X123169833Y-112111795D01*
X123168896Y-112081821D01*
X123170693Y-112053098D01*
X123175983Y-112023694D01*
X123185527Y-111991676D01*
X123200084Y-111955111D01*
X123220416Y-111912065D01*
X123247283Y-111860606D01*
X123281444Y-111798801D01*
X123316848Y-111736605D01*
X124389079Y-111736605D01*
X124389088Y-111744088D01*
X124390576Y-111750391D01*
X124394749Y-111755612D01*
X124402813Y-111759854D01*
X124415973Y-111763218D01*
X124435435Y-111765804D01*
X124462404Y-111767715D01*
X124498086Y-111769050D01*
X124543686Y-111769911D01*
X124600411Y-111770399D01*
X124669465Y-111770616D01*
X124752055Y-111770661D01*
X124849385Y-111770637D01*
X124899723Y-111770630D01*
X125400085Y-111770630D01*
X125441579Y-111742052D01*
X125470186Y-111717202D01*
X125496803Y-111685029D01*
X125519091Y-111649541D01*
X125534710Y-111614746D01*
X125541324Y-111584655D01*
X125540492Y-111572482D01*
X125535076Y-111547823D01*
X125027880Y-111547823D01*
X124520684Y-111547823D01*
X124484236Y-111574643D01*
X124462065Y-111595584D01*
X124438800Y-111624936D01*
X124417254Y-111658161D01*
X124400236Y-111690722D01*
X124390558Y-111718081D01*
X124389344Y-111727839D01*
X124389079Y-111736605D01*
X123316848Y-111736605D01*
X123318703Y-111733347D01*
X123352721Y-111674088D01*
X123387311Y-111613823D01*
X123420679Y-111555683D01*
X123451026Y-111502797D01*
X123476558Y-111458295D01*
X123493838Y-111428168D01*
X123535008Y-111358805D01*
X123572308Y-111302009D01*
X123608112Y-111255068D01*
X123644792Y-111215273D01*
X123684722Y-111179911D01*
X123730276Y-111146271D01*
X123754981Y-111129846D01*
X123832409Y-111085492D01*
X123916275Y-111049027D01*
X124009905Y-111019183D01*
X124100520Y-110997894D01*
X124110499Y-110996045D01*
X124121988Y-110994356D01*
X124135760Y-110992819D01*
X124152587Y-110991424D01*
X124173240Y-110990161D01*
X124198494Y-110989022D01*
X124229120Y-110987997D01*
X124265890Y-110987078D01*
X124309577Y-110986255D01*
X124360954Y-110985519D01*
X124420792Y-110984860D01*
X124489864Y-110984270D01*
X124568944Y-110983739D01*
X124658802Y-110983259D01*
X124760212Y-110982819D01*
X124873945Y-110982412D01*
X125000775Y-110982027D01*
X125141474Y-110981656D01*
X125296814Y-110981288D01*
X125467567Y-110980916D01*
X125542576Y-110980760D01*
X126914490Y-110977919D01*
X126914490Y-111008016D01*
G37*
G36*
X122050875Y-110978448D02*
G01*
X122206293Y-110978509D01*
X122356443Y-110978608D01*
X122500525Y-110978743D01*
X122637740Y-110978912D01*
X122767288Y-110979113D01*
X122888369Y-110979344D01*
X123000183Y-110979603D01*
X123101930Y-110979888D01*
X123192810Y-110980196D01*
X123272023Y-110980526D01*
X123338769Y-110980876D01*
X123392249Y-110981243D01*
X123431662Y-110981627D01*
X123456209Y-110982023D01*
X123465089Y-110982431D01*
X123465107Y-110982451D01*
X123460824Y-110992655D01*
X123449201Y-111013642D01*
X123432080Y-111042482D01*
X123411302Y-111076244D01*
X123388708Y-111111996D01*
X123366140Y-111146806D01*
X123345438Y-111177744D01*
X123328444Y-111201879D01*
X123321753Y-111210679D01*
X123260622Y-111277200D01*
X123185982Y-111341485D01*
X123100820Y-111401859D01*
X123008123Y-111456650D01*
X122910875Y-111504181D01*
X122812064Y-111542779D01*
X122714676Y-111570771D01*
X122660526Y-111581405D01*
X122629123Y-111586871D01*
X122604321Y-111592029D01*
X122590400Y-111595963D01*
X122589053Y-111596705D01*
X122587262Y-111606823D01*
X122588386Y-111627903D01*
X122590883Y-111646849D01*
X122593880Y-111666666D01*
X122598759Y-111700299D01*
X122605161Y-111745212D01*
X122612727Y-111798868D01*
X122621098Y-111858732D01*
X122629914Y-111922269D01*
X122631766Y-111935673D01*
X122640888Y-112001532D01*
X122649871Y-112065936D01*
X122658303Y-112125976D01*
X122665774Y-112178744D01*
X122671875Y-112221331D01*
X122676195Y-112250828D01*
X122676579Y-112253379D01*
X122681366Y-112285960D01*
X122684844Y-112311345D01*
X122686526Y-112325897D01*
X122686539Y-112327974D01*
X122680121Y-112332993D01*
X122665122Y-112345449D01*
X122654050Y-112354793D01*
X122622818Y-112381287D01*
X122117663Y-112381230D01*
X121612508Y-112381174D01*
X121594854Y-112354411D01*
X121587456Y-112342058D01*
X121581035Y-112327902D01*
X121574951Y-112309465D01*
X121568563Y-112284266D01*
X121561232Y-112249825D01*
X121552316Y-112203663D01*
X121543196Y-112154353D01*
X121535494Y-112112507D01*
X121525815Y-112060265D01*
X121515242Y-112003449D01*
X121504855Y-111947881D01*
X121501791Y-111931546D01*
X121492057Y-111879573D01*
X121482143Y-111826428D01*
X121473006Y-111777249D01*
X121465601Y-111737172D01*
X121463411Y-111725244D01*
X121455425Y-111687781D01*
X121446005Y-111652758D01*
X121436807Y-111626109D01*
X121434035Y-111620029D01*
X121418248Y-111589084D01*
X121219871Y-111589084D01*
X121021493Y-111589084D01*
X120977618Y-111620029D01*
X120963401Y-111630666D01*
X120950513Y-111642247D01*
X120937591Y-111656737D01*
X120923267Y-111676100D01*
X120906177Y-111702297D01*
X120884954Y-111737293D01*
X120858233Y-111783052D01*
X120829807Y-111832521D01*
X120774774Y-111928624D01*
X120727285Y-112011454D01*
X120686695Y-112082065D01*
X120652359Y-112141512D01*
X120623630Y-112190851D01*
X120599863Y-112231137D01*
X120580413Y-112263424D01*
X120564634Y-112288768D01*
X120551880Y-112308224D01*
X120541505Y-112322847D01*
X120532865Y-112333691D01*
X120525314Y-112341813D01*
X120518205Y-112348267D01*
X120510894Y-112354108D01*
X120510428Y-112354467D01*
X120475603Y-112381287D01*
X119994265Y-112381287D01*
X119893066Y-112381271D01*
X119807103Y-112381198D01*
X119735105Y-112381025D01*
X119675805Y-112380711D01*
X119627933Y-112380215D01*
X119590219Y-112379496D01*
X119561395Y-112378512D01*
X119540192Y-112377221D01*
X119525341Y-112375583D01*
X119515572Y-112373556D01*
X119509616Y-112371099D01*
X119506206Y-112368170D01*
X119504384Y-112365325D01*
X119498708Y-112351968D01*
X119497321Y-112338129D01*
X119501131Y-112321015D01*
X119511047Y-112297833D01*
X119527977Y-112265790D01*
X119548570Y-112229486D01*
X119611255Y-112120547D01*
X119666672Y-112024237D01*
X119715785Y-111938884D01*
X119759557Y-111862810D01*
X119798951Y-111794342D01*
X119834932Y-111731805D01*
X119868463Y-111673523D01*
X119900508Y-111617823D01*
X119932031Y-111563029D01*
X119963994Y-111507466D01*
X119997362Y-111449460D01*
X119997743Y-111448798D01*
X120033892Y-111385946D01*
X120069518Y-111323988D01*
X120103255Y-111265298D01*
X120133736Y-111212255D01*
X120159597Y-111167234D01*
X120179472Y-111132611D01*
X120188465Y-111116928D01*
X120213052Y-111076050D01*
X120234019Y-111046537D01*
X120254361Y-111024632D01*
X120275640Y-111007588D01*
X120316874Y-110978428D01*
X121890991Y-110978428D01*
X122050875Y-110978448D01*
G37*
G36*
X137576218Y-111008754D02*
G01*
X137573977Y-111024579D01*
X137566628Y-111046077D01*
X137553235Y-111075281D01*
X137532861Y-111114224D01*
X137504570Y-111164941D01*
X137503054Y-111167607D01*
X137445234Y-111269163D01*
X137395034Y-111357363D01*
X137351931Y-111433206D01*
X137315403Y-111497692D01*
X137284928Y-111551819D01*
X137259984Y-111596589D01*
X137240049Y-111633000D01*
X137224600Y-111662052D01*
X137213116Y-111684745D01*
X137205075Y-111702078D01*
X137199954Y-111715052D01*
X137197231Y-111724665D01*
X137196385Y-111731918D01*
X137196892Y-111737810D01*
X137198232Y-111743341D01*
X137199645Y-111748545D01*
X137205188Y-111770630D01*
X137706275Y-111770630D01*
X138207362Y-111770630D01*
X138248856Y-111742052D01*
X138277464Y-111717202D01*
X138304081Y-111685029D01*
X138326368Y-111649541D01*
X138341988Y-111614746D01*
X138348602Y-111584655D01*
X138347769Y-111572482D01*
X138342353Y-111547823D01*
X138013807Y-111547823D01*
X137930130Y-111547847D01*
X137861474Y-111547784D01*
X137806359Y-111547435D01*
X137763303Y-111546599D01*
X137730825Y-111545077D01*
X137707443Y-111542667D01*
X137691676Y-111539170D01*
X137682041Y-111534386D01*
X137677058Y-111528115D01*
X137675245Y-111520155D01*
X137675120Y-111510308D01*
X137675244Y-111502078D01*
X137679232Y-111490201D01*
X137690524Y-111465996D01*
X137708108Y-111431389D01*
X137730971Y-111388308D01*
X137758102Y-111338680D01*
X137788490Y-111284434D01*
X137801088Y-111262298D01*
X137838020Y-111198006D01*
X137868116Y-111146464D01*
X137892502Y-111105965D01*
X137912301Y-111074800D01*
X137928637Y-111051261D01*
X137942633Y-111033640D01*
X137955414Y-111020228D01*
X137966872Y-111010293D01*
X138006810Y-110978428D01*
X138859244Y-110978428D01*
X139711679Y-110978428D01*
X139717117Y-111007419D01*
X139717793Y-111014217D01*
X139716996Y-111022409D01*
X139714135Y-111033123D01*
X139708620Y-111047485D01*
X139699858Y-111066623D01*
X139687260Y-111091662D01*
X139670234Y-111123729D01*
X139648189Y-111163951D01*
X139620534Y-111213454D01*
X139586677Y-111273366D01*
X139546028Y-111344813D01*
X139497996Y-111428921D01*
X139473640Y-111471507D01*
X139428469Y-111550356D01*
X139385110Y-111625830D01*
X139344363Y-111696555D01*
X139307027Y-111761152D01*
X139273899Y-111818246D01*
X139245778Y-111866461D01*
X139223463Y-111904419D01*
X139207753Y-111930744D01*
X139199602Y-111943831D01*
X139173867Y-111976859D01*
X139137864Y-112016061D01*
X139094930Y-112058265D01*
X139048398Y-112100298D01*
X139001604Y-112138987D01*
X138968093Y-112164078D01*
X138900557Y-112207955D01*
X138824252Y-112250925D01*
X138745310Y-112289828D01*
X138669864Y-112321509D01*
X138644867Y-112330494D01*
X138624119Y-112337598D01*
X138605094Y-112344008D01*
X138586885Y-112349759D01*
X138568583Y-112354886D01*
X138549281Y-112359424D01*
X138528071Y-112363408D01*
X138504046Y-112366874D01*
X138476298Y-112369856D01*
X138443919Y-112372391D01*
X138406002Y-112374512D01*
X138361638Y-112376255D01*
X138309920Y-112377656D01*
X138249940Y-112378749D01*
X138180791Y-112379570D01*
X138101565Y-112380153D01*
X138011354Y-112380534D01*
X137909251Y-112380748D01*
X137794347Y-112380831D01*
X137665735Y-112380817D01*
X137522508Y-112380741D01*
X137363757Y-112380639D01*
X137350267Y-112380631D01*
X137189194Y-112380504D01*
X137043842Y-112380324D01*
X136913428Y-112380085D01*
X136797170Y-112379776D01*
X136694285Y-112379390D01*
X136603989Y-112378920D01*
X136525500Y-112378356D01*
X136458035Y-112377690D01*
X136400811Y-112376915D01*
X136353045Y-112376022D01*
X136313955Y-112375003D01*
X136282757Y-112373850D01*
X136258669Y-112372554D01*
X136240907Y-112371108D01*
X136228689Y-112369503D01*
X136225489Y-112368884D01*
X136152215Y-112346335D01*
X136090815Y-112313464D01*
X136041912Y-112270918D01*
X136006130Y-112219339D01*
X135984091Y-112159375D01*
X135977110Y-112111795D01*
X135976051Y-112090948D01*
X135976101Y-112071251D01*
X135977808Y-112051521D01*
X135981719Y-112030574D01*
X135988382Y-112007229D01*
X135998344Y-111980302D01*
X136012153Y-111948612D01*
X136030358Y-111910975D01*
X136053504Y-111866208D01*
X136082141Y-111813130D01*
X136116816Y-111750557D01*
X136158076Y-111677306D01*
X136206469Y-111592195D01*
X136262543Y-111494042D01*
X136265818Y-111488317D01*
X136318441Y-111396379D01*
X136363599Y-111317676D01*
X136401984Y-111251094D01*
X136434289Y-111195522D01*
X136461207Y-111149848D01*
X136483430Y-111112959D01*
X136501653Y-111083744D01*
X136516567Y-111061089D01*
X136528867Y-111043884D01*
X136539244Y-111031015D01*
X136548391Y-111021370D01*
X136557003Y-111013837D01*
X136565308Y-111007632D01*
X136606542Y-110978428D01*
X137091380Y-110978428D01*
X137576218Y-110978428D01*
X137576218Y-111008754D01*
G37*
G36*
X128390849Y-105202169D02*
G01*
X128552748Y-105202226D01*
X128709441Y-105202332D01*
X128860158Y-105202485D01*
X129004131Y-105202682D01*
X129140590Y-105202921D01*
X129268765Y-105203199D01*
X129387888Y-105203515D01*
X129497189Y-105203865D01*
X129595899Y-105204248D01*
X129683248Y-105204661D01*
X129758468Y-105205101D01*
X129820789Y-105205567D01*
X129869441Y-105206055D01*
X129903656Y-105206564D01*
X129922664Y-105207090D01*
X129926511Y-105207461D01*
X129922422Y-105215148D01*
X129910496Y-105236196D01*
X129891241Y-105269729D01*
X129865169Y-105314870D01*
X129832789Y-105370742D01*
X129794611Y-105436470D01*
X129751144Y-105511176D01*
X129702899Y-105593985D01*
X129650385Y-105684019D01*
X129594113Y-105780403D01*
X129534591Y-105882259D01*
X129472331Y-105988712D01*
X129425195Y-106069247D01*
X128923879Y-106925521D01*
X128309097Y-107257209D01*
X128215903Y-107307501D01*
X128126934Y-107355538D01*
X128043251Y-107400743D01*
X127965921Y-107442540D01*
X127896006Y-107480355D01*
X127834570Y-107513610D01*
X127782679Y-107541730D01*
X127741396Y-107564139D01*
X127711785Y-107580261D01*
X127694910Y-107589521D01*
X127691251Y-107591605D01*
X127694372Y-107599212D01*
X127704489Y-107620010D01*
X127720886Y-107652599D01*
X127742842Y-107695581D01*
X127769638Y-107747557D01*
X127800557Y-107807127D01*
X127834878Y-107872894D01*
X127871884Y-107943457D01*
X127878986Y-107956962D01*
X127916539Y-108028513D01*
X127951643Y-108095735D01*
X127983561Y-108157196D01*
X128011561Y-108211466D01*
X128034907Y-108257114D01*
X128052864Y-108292709D01*
X128064698Y-108316820D01*
X128069675Y-108328017D01*
X128069786Y-108328533D01*
X128068234Y-108333091D01*
X128063319Y-108342964D01*
X128054648Y-108358807D01*
X128041832Y-108381271D01*
X128024479Y-108411009D01*
X128002197Y-108448672D01*
X127974595Y-108494914D01*
X127941283Y-108550386D01*
X127901870Y-108615740D01*
X127855963Y-108691630D01*
X127803173Y-108778707D01*
X127743107Y-108877624D01*
X127675375Y-108989033D01*
X127599586Y-109113586D01*
X127564502Y-109171215D01*
X127280627Y-109637459D01*
X126171218Y-109639552D01*
X125061808Y-109641645D01*
X124748269Y-109223781D01*
X124693296Y-109150478D01*
X124641183Y-109080913D01*
X124592789Y-109016239D01*
X124548971Y-108957605D01*
X124510589Y-108906161D01*
X124478499Y-108863058D01*
X124453561Y-108829447D01*
X124436633Y-108806478D01*
X124428572Y-108795301D01*
X124428075Y-108794541D01*
X124429266Y-108781583D01*
X124440265Y-108755825D01*
X124460912Y-108717618D01*
X124474443Y-108694555D01*
X124485004Y-108676765D01*
X124503375Y-108645649D01*
X124529022Y-108602119D01*
X124561408Y-108547087D01*
X124599998Y-108481465D01*
X124604631Y-108473583D01*
X125745800Y-108473583D01*
X125746151Y-108476004D01*
X125749909Y-108478101D01*
X125758152Y-108479895D01*
X125771955Y-108481412D01*
X125792395Y-108482672D01*
X125820548Y-108483699D01*
X125857492Y-108484517D01*
X125904302Y-108485147D01*
X125962055Y-108485613D01*
X126031828Y-108485937D01*
X126114696Y-108486143D01*
X126211737Y-108486252D01*
X126324027Y-108486289D01*
X126344211Y-108486290D01*
X126442361Y-108486237D01*
X126535550Y-108486086D01*
X126622488Y-108485843D01*
X126701882Y-108485518D01*
X126772440Y-108485120D01*
X126832869Y-108484655D01*
X126881879Y-108484134D01*
X126918175Y-108483564D01*
X126940467Y-108482954D01*
X126947498Y-108482354D01*
X126943388Y-108474618D01*
X126931603Y-108454127D01*
X126912966Y-108422254D01*
X126888299Y-108380376D01*
X126858422Y-108329868D01*
X126824158Y-108272103D01*
X126786327Y-108208458D01*
X126745752Y-108140307D01*
X126703255Y-108069025D01*
X126659656Y-107995987D01*
X126615777Y-107922569D01*
X126572439Y-107850144D01*
X126530465Y-107780088D01*
X126490676Y-107713776D01*
X126453893Y-107652583D01*
X126420938Y-107597884D01*
X126392633Y-107551054D01*
X126369799Y-107513468D01*
X126353257Y-107486500D01*
X126343830Y-107471526D01*
X126341931Y-107468871D01*
X126337260Y-107475507D01*
X126325042Y-107494991D01*
X126306094Y-107525946D01*
X126281234Y-107566992D01*
X126251280Y-107616751D01*
X126217050Y-107673844D01*
X126179361Y-107736894D01*
X126139032Y-107804522D01*
X126096881Y-107875348D01*
X126053725Y-107947996D01*
X126010382Y-108021086D01*
X125967671Y-108093240D01*
X125926408Y-108163079D01*
X125887413Y-108229226D01*
X125851502Y-108290300D01*
X125819494Y-108344925D01*
X125792207Y-108391722D01*
X125770458Y-108429311D01*
X125755066Y-108456315D01*
X125746848Y-108471356D01*
X125745800Y-108473583D01*
X124604631Y-108473583D01*
X124644255Y-108406165D01*
X124693645Y-108322100D01*
X124747631Y-108230180D01*
X124805677Y-108131319D01*
X124867249Y-108026428D01*
X124931809Y-107916419D01*
X124998822Y-107802204D01*
X125067753Y-107684696D01*
X125103384Y-107623944D01*
X125177644Y-107497327D01*
X125253173Y-107368554D01*
X125270959Y-107338231D01*
X126415796Y-107338231D01*
X126417568Y-107338332D01*
X126425860Y-107334086D01*
X126447797Y-107322484D01*
X126482494Y-107304000D01*
X126529069Y-107279107D01*
X126586638Y-107248281D01*
X126654316Y-107211995D01*
X126731220Y-107170724D01*
X126816467Y-107124942D01*
X126909173Y-107075122D01*
X127008454Y-107021740D01*
X127113427Y-106965269D01*
X127223207Y-106906185D01*
X127330809Y-106848246D01*
X127444174Y-106787143D01*
X127553436Y-106728156D01*
X127657720Y-106671762D01*
X127756155Y-106618437D01*
X127847867Y-106568657D01*
X127931984Y-106522897D01*
X128007633Y-106481635D01*
X128073940Y-106445345D01*
X128130034Y-106414505D01*
X128175041Y-106389590D01*
X128208089Y-106371076D01*
X128228304Y-106359439D01*
X128234828Y-106355183D01*
X128226754Y-106354345D01*
X128203247Y-106353541D01*
X128165376Y-106352778D01*
X128114213Y-106352063D01*
X128050828Y-106351404D01*
X127976292Y-106350808D01*
X127891675Y-106350284D01*
X127798047Y-106349839D01*
X127696480Y-106349479D01*
X127588043Y-106349213D01*
X127473808Y-106349049D01*
X127355978Y-106348993D01*
X127197586Y-106349063D01*
X127055497Y-106349274D01*
X126929513Y-106349629D01*
X126819433Y-106350128D01*
X126725057Y-106350775D01*
X126646186Y-106351571D01*
X126582620Y-106352518D01*
X126534159Y-106353617D01*
X126500604Y-106354872D01*
X126481754Y-106356283D01*
X126477128Y-106357529D01*
X126481404Y-106366406D01*
X126493497Y-106387371D01*
X126512307Y-106418622D01*
X126536736Y-106458359D01*
X126565682Y-106504782D01*
X126598045Y-106556090D01*
X126608437Y-106572451D01*
X126739746Y-106778836D01*
X126591281Y-107032222D01*
X126556127Y-107092180D01*
X126522966Y-107148662D01*
X126492883Y-107199826D01*
X126466964Y-107243830D01*
X126446293Y-107278830D01*
X126431955Y-107302984D01*
X126425581Y-107313576D01*
X126416946Y-107330087D01*
X126415796Y-107338231D01*
X125270959Y-107338231D01*
X125329166Y-107238998D01*
X125404818Y-107110030D01*
X125479325Y-106983021D01*
X125551883Y-106859342D01*
X125621686Y-106740365D01*
X125687931Y-106627460D01*
X125749813Y-106522000D01*
X125806528Y-106425354D01*
X125857270Y-106338896D01*
X125901236Y-106263995D01*
X125936118Y-106204581D01*
X125988177Y-106115892D01*
X126042850Y-106022689D01*
X126098660Y-105927495D01*
X126154129Y-105832832D01*
X126207781Y-105741221D01*
X126258138Y-105655185D01*
X126303723Y-105577245D01*
X126343059Y-105509924D01*
X126357725Y-105484799D01*
X126522515Y-105202378D01*
X128224513Y-105202164D01*
X128390849Y-105202169D01*
G37*
G36*
X112723611Y-100754085D02*
G01*
X112910923Y-100754156D01*
X113093213Y-100754273D01*
X113269814Y-100754432D01*
X113440058Y-100754632D01*
X113603278Y-100754872D01*
X113758806Y-100755149D01*
X113905975Y-100755460D01*
X114044117Y-100755805D01*
X114172565Y-100756181D01*
X114290651Y-100756586D01*
X114397708Y-100757019D01*
X114493069Y-100757476D01*
X114576065Y-100757957D01*
X114646030Y-100758459D01*
X114702295Y-100758980D01*
X114744194Y-100759519D01*
X114771058Y-100760072D01*
X114782221Y-100760639D01*
X114782510Y-100760756D01*
X114777920Y-100768611D01*
X114765339Y-100789592D01*
X114745357Y-100822723D01*
X114718565Y-100867034D01*
X114685552Y-100921549D01*
X114646908Y-100985295D01*
X114603225Y-101057300D01*
X114555091Y-101136590D01*
X114503097Y-101222192D01*
X114447833Y-101313132D01*
X114389890Y-101408437D01*
X114365984Y-101447744D01*
X114304194Y-101549342D01*
X114242780Y-101650338D01*
X114182557Y-101749389D01*
X114124340Y-101845154D01*
X114068945Y-101936294D01*
X114017185Y-102021466D01*
X113969877Y-102099329D01*
X113927834Y-102168543D01*
X113891873Y-102227766D01*
X113862808Y-102275658D01*
X113841453Y-102310876D01*
X113840367Y-102312670D01*
X113728525Y-102497302D01*
X113131855Y-102822954D01*
X113034051Y-102876331D01*
X112935975Y-102929855D01*
X112839242Y-102982642D01*
X112745468Y-103033812D01*
X112656268Y-103082483D01*
X112573257Y-103127774D01*
X112498052Y-103168803D01*
X112432266Y-103204689D01*
X112377517Y-103234550D01*
X112335420Y-103257505D01*
X112330759Y-103260046D01*
X112126332Y-103371488D01*
X112162486Y-103422310D01*
X112187285Y-103457245D01*
X112219300Y-103502465D01*
X112257859Y-103557015D01*
X112302291Y-103619939D01*
X112351922Y-103690283D01*
X112406083Y-103767092D01*
X112464100Y-103849410D01*
X112525303Y-103936281D01*
X112589019Y-104026752D01*
X112654576Y-104119867D01*
X112721303Y-104214671D01*
X112788527Y-104310208D01*
X112855578Y-104405523D01*
X112921782Y-104499663D01*
X112986470Y-104591670D01*
X113048967Y-104680590D01*
X113108604Y-104765469D01*
X113164707Y-104845350D01*
X113216606Y-104919279D01*
X113263628Y-104986301D01*
X113305101Y-105045460D01*
X113340354Y-105095802D01*
X113368716Y-105136371D01*
X113389513Y-105166212D01*
X113402074Y-105184370D01*
X113405783Y-105189932D01*
X113397746Y-105190543D01*
X113374493Y-105191123D01*
X113337314Y-105191665D01*
X113287498Y-105192160D01*
X113226333Y-105192600D01*
X113155109Y-105192977D01*
X113075115Y-105193283D01*
X112987638Y-105193511D01*
X112893970Y-105193651D01*
X112799519Y-105193697D01*
X112193254Y-105193697D01*
X112137287Y-105112761D01*
X112125415Y-105095550D01*
X112104845Y-105065674D01*
X112076222Y-105024075D01*
X112040193Y-104971693D01*
X111997405Y-104909467D01*
X111948502Y-104838338D01*
X111894133Y-104759245D01*
X111834942Y-104673130D01*
X111771576Y-104580931D01*
X111704682Y-104483590D01*
X111634905Y-104382046D01*
X111562892Y-104277239D01*
X111516049Y-104209060D01*
X111430714Y-104084896D01*
X111354206Y-103973688D01*
X111286048Y-103874763D01*
X111225759Y-103787447D01*
X111172861Y-103711068D01*
X111126875Y-103644952D01*
X111087320Y-103588426D01*
X111053718Y-103540816D01*
X111025589Y-103501450D01*
X111002454Y-103469655D01*
X110983834Y-103444756D01*
X110969249Y-103426081D01*
X110958221Y-103412957D01*
X110950269Y-103404710D01*
X110944915Y-103400668D01*
X110941679Y-103400156D01*
X110940730Y-103400978D01*
X110935300Y-103409786D01*
X110921917Y-103431889D01*
X110901102Y-103466419D01*
X110873377Y-103512508D01*
X110839262Y-103569287D01*
X110799277Y-103635890D01*
X110753945Y-103711447D01*
X110703785Y-103795091D01*
X110649318Y-103885954D01*
X110591065Y-103983167D01*
X110529547Y-104085862D01*
X110465285Y-104193172D01*
X110402235Y-104298490D01*
X110335966Y-104409098D01*
X110271977Y-104515706D01*
X110210781Y-104617465D01*
X110152896Y-104713524D01*
X110098838Y-104803033D01*
X110049124Y-104885142D01*
X110004268Y-104959002D01*
X109964788Y-105023762D01*
X109931200Y-105078571D01*
X109904020Y-105122581D01*
X109883764Y-105154942D01*
X109870948Y-105174802D01*
X109866115Y-105181319D01*
X109859955Y-105174890D01*
X109844780Y-105156344D01*
X109821443Y-105126791D01*
X109790797Y-105087343D01*
X109753697Y-105039111D01*
X109710996Y-104983205D01*
X109663547Y-104920737D01*
X109612204Y-104852816D01*
X109557822Y-104780556D01*
X109543226Y-104761110D01*
X109476978Y-104672651D01*
X109420179Y-104596468D01*
X109372242Y-104531736D01*
X109332583Y-104477628D01*
X109300614Y-104433318D01*
X109275750Y-104397978D01*
X109257405Y-104370784D01*
X109244993Y-104350907D01*
X109237928Y-104337523D01*
X109235625Y-104329804D01*
X109236035Y-104327874D01*
X109241201Y-104319153D01*
X109254175Y-104297119D01*
X109274415Y-104262695D01*
X109301379Y-104216805D01*
X109334524Y-104160371D01*
X109373308Y-104094317D01*
X109417190Y-104019567D01*
X109465628Y-103937043D01*
X109518079Y-103847668D01*
X109574001Y-103752367D01*
X109632853Y-103652062D01*
X109694092Y-103547676D01*
X109708776Y-103522645D01*
X109780041Y-103401161D01*
X109855586Y-103272386D01*
X109934166Y-103138437D01*
X110014540Y-103001435D01*
X110050331Y-102940428D01*
X111212920Y-102940428D01*
X111213921Y-102941030D01*
X111215653Y-102940882D01*
X111216012Y-102940871D01*
X111223828Y-102936961D01*
X111245234Y-102925545D01*
X111279371Y-102907093D01*
X111325380Y-102882077D01*
X111382402Y-102850965D01*
X111449579Y-102814230D01*
X111526052Y-102772341D01*
X111610962Y-102725768D01*
X111703451Y-102674983D01*
X111802658Y-102620456D01*
X111907727Y-102562657D01*
X112017797Y-102502057D01*
X112132010Y-102439126D01*
X112153686Y-102427177D01*
X113085489Y-101913483D01*
X112634346Y-101911349D01*
X112528996Y-101910946D01*
X112411851Y-101910666D01*
X112287202Y-101910508D01*
X112159340Y-101910471D01*
X112032559Y-101910557D01*
X111911148Y-101910765D01*
X111799400Y-101911095D01*
X111739346Y-101911349D01*
X111295489Y-101913483D01*
X111430163Y-102119786D01*
X111464048Y-102171822D01*
X111494832Y-102219342D01*
X111521399Y-102260606D01*
X111542636Y-102293873D01*
X111557428Y-102317404D01*
X111564661Y-102329460D01*
X111565200Y-102330632D01*
X111561227Y-102338495D01*
X111549737Y-102359042D01*
X111531610Y-102390747D01*
X111507728Y-102432087D01*
X111478973Y-102481537D01*
X111446227Y-102537574D01*
X111410371Y-102598674D01*
X111395713Y-102623582D01*
X111351250Y-102699077D01*
X111314455Y-102761568D01*
X111284636Y-102812282D01*
X111261098Y-102852444D01*
X111243148Y-102883278D01*
X111230091Y-102906011D01*
X111221234Y-102921867D01*
X111215882Y-102932071D01*
X111213342Y-102937850D01*
X111212920Y-102940428D01*
X110050331Y-102940428D01*
X110095463Y-102863498D01*
X110175694Y-102726744D01*
X110253987Y-102593293D01*
X110329102Y-102465264D01*
X110399794Y-102344776D01*
X110464819Y-102233948D01*
X110522936Y-102134898D01*
X110531489Y-102120322D01*
X110585381Y-102028280D01*
X110636722Y-101940216D01*
X110684911Y-101857181D01*
X110729351Y-101780224D01*
X110769440Y-101710396D01*
X110804582Y-101648747D01*
X110834176Y-101596326D01*
X110857623Y-101554184D01*
X110874324Y-101523371D01*
X110883680Y-101504936D01*
X110885519Y-101499871D01*
X110879690Y-101491755D01*
X110864319Y-101472058D01*
X110840348Y-101441945D01*
X110808717Y-101402584D01*
X110770370Y-101355139D01*
X110726247Y-101300776D01*
X110677290Y-101240662D01*
X110624442Y-101175961D01*
X110580092Y-101121801D01*
X110278629Y-100754061D01*
X112531945Y-100754061D01*
X112723611Y-100754085D01*
G37*
G36*
X121877770Y-101172856D02*
G01*
X121922717Y-101248163D01*
X121965279Y-101319463D01*
X122004679Y-101385455D01*
X122040139Y-101444837D01*
X122070882Y-101496308D01*
X122096132Y-101538566D01*
X122115110Y-101570310D01*
X122127039Y-101590239D01*
X122131003Y-101596829D01*
X122130450Y-101601095D01*
X122126461Y-101610747D01*
X122118738Y-101626286D01*
X122106983Y-101648213D01*
X122090897Y-101677029D01*
X122070182Y-101713236D01*
X122044539Y-101757335D01*
X122013671Y-101809826D01*
X121977278Y-101871212D01*
X121935062Y-101941993D01*
X121886726Y-102022670D01*
X121831970Y-102113745D01*
X121770496Y-102215719D01*
X121702006Y-102329092D01*
X121626202Y-102454367D01*
X121542785Y-102592044D01*
X121451456Y-102742624D01*
X121351918Y-102906609D01*
X121315439Y-102966680D01*
X121231919Y-103104171D01*
X121150593Y-103237988D01*
X121071883Y-103367439D01*
X120996212Y-103491833D01*
X120924001Y-103610479D01*
X120855672Y-103722685D01*
X120791647Y-103827758D01*
X120732348Y-103925009D01*
X120678197Y-104013744D01*
X120629615Y-104093272D01*
X120587025Y-104162903D01*
X120550849Y-104221943D01*
X120521507Y-104269702D01*
X120499423Y-104305487D01*
X120485018Y-104328609D01*
X120478714Y-104338373D01*
X120478559Y-104338574D01*
X120470092Y-104346331D01*
X120449703Y-104363874D01*
X120418224Y-104390515D01*
X120376485Y-104425562D01*
X120325317Y-104468327D01*
X120265552Y-104518119D01*
X120198020Y-104574249D01*
X120123553Y-104636027D01*
X120042981Y-104702763D01*
X119957136Y-104773767D01*
X119866848Y-104848349D01*
X119772950Y-104925821D01*
X119676271Y-105005491D01*
X119577642Y-105086671D01*
X119534719Y-105121969D01*
X119437437Y-105201949D01*
X118026646Y-105201949D01*
X117875395Y-105201923D01*
X117728657Y-105201844D01*
X117587276Y-105201717D01*
X117452098Y-105201544D01*
X117323967Y-105201327D01*
X117203728Y-105201070D01*
X117092227Y-105200776D01*
X116990308Y-105200446D01*
X116898817Y-105200084D01*
X116818598Y-105199693D01*
X116750495Y-105199275D01*
X116695355Y-105198834D01*
X116654023Y-105198372D01*
X116627342Y-105197891D01*
X116616158Y-105197395D01*
X116615854Y-105197298D01*
X116620031Y-105189242D01*
X116632516Y-105167078D01*
X116653244Y-105130921D01*
X116682148Y-105080885D01*
X116719160Y-105017084D01*
X116764216Y-104939632D01*
X116817248Y-104848642D01*
X116878189Y-104744230D01*
X116946974Y-104626508D01*
X117023535Y-104495591D01*
X117107806Y-104351594D01*
X117199722Y-104194629D01*
X117292460Y-104036339D01*
X118425298Y-104036339D01*
X118427521Y-104038509D01*
X118436665Y-104040372D01*
X118453736Y-104041948D01*
X118479738Y-104043257D01*
X118515676Y-104044320D01*
X118562555Y-104045156D01*
X118621380Y-104045785D01*
X118693155Y-104046229D01*
X118778886Y-104046506D01*
X118879576Y-104046637D01*
X118940087Y-104046654D01*
X119458873Y-104046654D01*
X120103692Y-102984194D01*
X120748511Y-101921735D01*
X120326416Y-101916724D01*
X120171762Y-101914987D01*
X120025428Y-101913543D01*
X119888086Y-101912389D01*
X119760413Y-101911527D01*
X119643082Y-101910956D01*
X119536767Y-101910677D01*
X119442142Y-101910687D01*
X119359883Y-101910989D01*
X119290662Y-101911580D01*
X119235155Y-101912462D01*
X119194035Y-101913633D01*
X119167978Y-101915094D01*
X119157656Y-101916844D01*
X119157505Y-101917104D01*
X119161748Y-101925792D01*
X119173750Y-101946621D01*
X119192424Y-101977797D01*
X119216682Y-102017528D01*
X119245434Y-102064022D01*
X119277594Y-102115487D01*
X119288548Y-102132907D01*
X119419591Y-102340962D01*
X119390211Y-102391290D01*
X119382142Y-102405061D01*
X119366284Y-102432079D01*
X119343213Y-102471362D01*
X119313506Y-102521931D01*
X119277737Y-102582805D01*
X119236485Y-102653004D01*
X119190324Y-102731547D01*
X119139831Y-102817454D01*
X119085582Y-102909744D01*
X119028154Y-103007436D01*
X118968123Y-103109551D01*
X118906064Y-103215108D01*
X118895062Y-103233821D01*
X118833287Y-103338923D01*
X118773840Y-103440123D01*
X118717260Y-103536503D01*
X118664084Y-103627145D01*
X118614848Y-103711131D01*
X118570091Y-103787544D01*
X118530349Y-103855465D01*
X118496161Y-103913977D01*
X118468062Y-103962162D01*
X118446591Y-103999101D01*
X118432284Y-104023877D01*
X118425680Y-104035573D01*
X118425298Y-104036339D01*
X117292460Y-104036339D01*
X117299214Y-104024811D01*
X117406217Y-103842254D01*
X117443618Y-103778460D01*
X117490437Y-103698580D01*
X117543688Y-103607675D01*
X117602558Y-103507135D01*
X117666236Y-103398350D01*
X117733908Y-103282708D01*
X117804763Y-103161600D01*
X117877988Y-103036415D01*
X117952771Y-102908542D01*
X118028299Y-102779371D01*
X118103762Y-102650291D01*
X118178345Y-102522693D01*
X118251237Y-102397964D01*
X118321626Y-102277495D01*
X118388698Y-102162675D01*
X118451643Y-102054894D01*
X118509647Y-101955541D01*
X118561899Y-101866005D01*
X118607586Y-101787677D01*
X118645895Y-101721945D01*
X118652092Y-101711306D01*
X118681318Y-101660931D01*
X118707752Y-101615006D01*
X118730261Y-101575530D01*
X118747712Y-101544501D01*
X118758972Y-101523916D01*
X118762874Y-101515975D01*
X118758645Y-101507143D01*
X118745270Y-101487641D01*
X118724136Y-101459167D01*
X118696628Y-101423417D01*
X118664135Y-101382089D01*
X118628041Y-101336879D01*
X118589734Y-101289485D01*
X118550601Y-101241603D01*
X118512027Y-101194931D01*
X118475399Y-101151165D01*
X118442103Y-101112002D01*
X118413527Y-101079140D01*
X118391056Y-101054275D01*
X118376078Y-101039104D01*
X118370067Y-101035201D01*
X118364541Y-101043376D01*
X118351242Y-101064441D01*
X118330929Y-101097159D01*
X118304359Y-101140293D01*
X118272292Y-101192606D01*
X118235485Y-101252860D01*
X118194696Y-101319817D01*
X118150686Y-101392240D01*
X118104211Y-101468893D01*
X118101220Y-101473832D01*
X117839987Y-101905231D01*
X116522365Y-101907319D01*
X116376265Y-101907580D01*
X116234707Y-101907890D01*
X116098565Y-101908245D01*
X115968714Y-101908640D01*
X115846028Y-101909071D01*
X115731380Y-101909532D01*
X115625647Y-101910021D01*
X115529701Y-101910531D01*
X115444418Y-101911059D01*
X115370670Y-101911600D01*
X115309334Y-101912149D01*
X115261283Y-101912702D01*
X115227391Y-101913254D01*
X115208533Y-101913801D01*
X115204743Y-101914168D01*
X115209184Y-101921941D01*
X115221760Y-101941676D01*
X115241350Y-101971674D01*
X115266833Y-102010232D01*
X115297087Y-102055651D01*
X115330992Y-102106229D01*
X115346117Y-102128698D01*
X115487490Y-102338467D01*
X115973277Y-102338467D01*
X116061116Y-102338569D01*
X116143847Y-102338863D01*
X116220030Y-102339330D01*
X116288226Y-102339953D01*
X116346994Y-102340713D01*
X116394895Y-102341591D01*
X116430488Y-102342569D01*
X116452335Y-102343630D01*
X116459054Y-102344656D01*
X116454834Y-102352476D01*
X116442603Y-102373304D01*
X116422996Y-102406091D01*
X116396652Y-102449788D01*
X116364208Y-102503345D01*
X116326300Y-102565714D01*
X116283566Y-102635846D01*
X116236643Y-102712691D01*
X116186168Y-102795202D01*
X116132779Y-102882329D01*
X116101923Y-102932619D01*
X115744801Y-103514392D01*
X115082797Y-103516505D01*
X114979875Y-103516874D01*
X114881854Y-103517305D01*
X114789968Y-103517789D01*
X114705449Y-103518314D01*
X114629533Y-103518870D01*
X114563451Y-103519448D01*
X114508438Y-103520037D01*
X114465727Y-103520626D01*
X114436551Y-103521207D01*
X114422144Y-103521767D01*
X114420793Y-103521987D01*
X114425061Y-103529476D01*
X114437214Y-103549334D01*
X114456279Y-103580003D01*
X114481280Y-103619928D01*
X114511243Y-103667553D01*
X114545193Y-103721322D01*
X114582156Y-103779678D01*
X114584862Y-103783943D01*
X114748931Y-104042528D01*
X115644949Y-104044627D01*
X116540967Y-104046727D01*
X116473772Y-104156031D01*
X116457598Y-104182455D01*
X116433830Y-104221446D01*
X116403413Y-104271449D01*
X116367292Y-104330907D01*
X116326411Y-104398262D01*
X116281715Y-104471960D01*
X116234148Y-104550444D01*
X116184655Y-104632156D01*
X116134180Y-104715541D01*
X116124476Y-104731579D01*
X115842376Y-105197823D01*
X114806642Y-105199918D01*
X113770908Y-105202013D01*
X113457507Y-104783186D01*
X113402635Y-104709818D01*
X113350648Y-104640235D01*
X113302400Y-104575582D01*
X113258742Y-104517006D01*
X113220526Y-104465650D01*
X113188604Y-104422661D01*
X113163827Y-104389182D01*
X113147048Y-104366359D01*
X113139118Y-104355337D01*
X113138637Y-104354594D01*
X113141485Y-104345461D01*
X113152085Y-104324032D01*
X113169469Y-104292023D01*
X113192669Y-104251149D01*
X113220715Y-104203127D01*
X113252641Y-104149672D01*
X113276034Y-104111156D01*
X113294123Y-104081508D01*
X113320297Y-104038514D01*
X113354091Y-103982945D01*
X113395036Y-103915569D01*
X113442667Y-103837156D01*
X113496515Y-103748476D01*
X113556114Y-103650298D01*
X113620996Y-103543393D01*
X113690696Y-103428529D01*
X113764745Y-103306477D01*
X113842677Y-103178006D01*
X113924025Y-103043885D01*
X114008322Y-102904884D01*
X114095101Y-102761773D01*
X114183894Y-102615322D01*
X114274235Y-102466299D01*
X114362976Y-102319899D01*
X115307051Y-100762313D01*
X118469905Y-100762313D01*
X121632760Y-100762313D01*
X121877770Y-101172856D01*
G37*
G36*
X126176890Y-102126083D02*
G01*
X126241792Y-102130669D01*
X126301492Y-102138139D01*
X126349220Y-102147862D01*
X126417874Y-102169366D01*
X126491618Y-102198238D01*
X126562815Y-102231339D01*
X126597544Y-102249885D01*
X126624510Y-102264752D01*
X126647202Y-102276629D01*
X126659999Y-102282639D01*
X126672242Y-102289328D01*
X126693396Y-102302645D01*
X126719407Y-102319838D01*
X126746221Y-102338153D01*
X126769783Y-102354838D01*
X126786040Y-102367139D01*
X126790708Y-102371402D01*
X126801613Y-102380036D01*
X126823393Y-102393915D01*
X126852193Y-102410842D01*
X126884158Y-102428620D01*
X126915434Y-102445050D01*
X126942164Y-102457934D01*
X126943626Y-102458584D01*
X126984823Y-102472771D01*
X127039613Y-102485498D01*
X127105116Y-102496388D01*
X127178455Y-102505064D01*
X127256753Y-102511147D01*
X127337133Y-102514261D01*
X127370419Y-102514593D01*
X127422591Y-102514877D01*
X127460331Y-102515725D01*
X127485705Y-102517310D01*
X127500781Y-102519805D01*
X127507625Y-102523385D01*
X127508642Y-102526219D01*
X127504304Y-102540422D01*
X127493075Y-102563360D01*
X127477630Y-102590318D01*
X127460647Y-102616583D01*
X127446884Y-102634983D01*
X127404130Y-102684166D01*
X127363902Y-102724296D01*
X127323112Y-102757275D01*
X127278670Y-102785005D01*
X127227487Y-102809388D01*
X127166474Y-102832326D01*
X127092542Y-102855721D01*
X127084573Y-102858084D01*
X127018271Y-102877756D01*
X126965483Y-102893725D01*
X126923851Y-102906806D01*
X126891018Y-102917819D01*
X126864624Y-102927579D01*
X126842313Y-102936905D01*
X126821725Y-102946615D01*
X126805908Y-102954687D01*
X126760540Y-102981864D01*
X126727123Y-103011455D01*
X126701320Y-103048250D01*
X126680194Y-103093535D01*
X126667261Y-103124877D01*
X126655227Y-103152709D01*
X126646584Y-103171269D01*
X126646245Y-103171930D01*
X126633091Y-103200240D01*
X126616645Y-103239977D01*
X126598524Y-103286809D01*
X126580343Y-103336405D01*
X126563718Y-103384434D01*
X126550266Y-103426564D01*
X126546791Y-103438460D01*
X126532985Y-103487272D01*
X126522909Y-103523006D01*
X126515794Y-103548463D01*
X126510871Y-103566445D01*
X126507373Y-103579751D01*
X126504529Y-103591185D01*
X126502168Y-103601040D01*
X126496491Y-103626273D01*
X126489705Y-103658285D01*
X126486244Y-103675309D01*
X126479854Y-103703814D01*
X126473286Y-103727699D01*
X126469890Y-103737200D01*
X126464000Y-103752868D01*
X126455149Y-103779097D01*
X126445099Y-103810635D01*
X126443568Y-103815595D01*
X126433855Y-103846023D01*
X126425373Y-103870511D01*
X126419693Y-103884568D01*
X126419028Y-103885738D01*
X126413926Y-103896943D01*
X126405168Y-103919560D01*
X126394370Y-103949359D01*
X126390649Y-103960007D01*
X126378648Y-103993358D01*
X126367205Y-104022950D01*
X126358379Y-104043502D01*
X126356800Y-104046654D01*
X126348598Y-104064737D01*
X126337539Y-104092550D01*
X126325976Y-104124164D01*
X126325667Y-104125049D01*
X126313356Y-104159909D01*
X126302870Y-104188174D01*
X126291293Y-104217492D01*
X126278465Y-104248830D01*
X126272052Y-104266223D01*
X126263371Y-104291961D01*
X126258675Y-104306595D01*
X126249746Y-104333753D01*
X126241596Y-104356545D01*
X126238462Y-104364360D01*
X126230816Y-104383509D01*
X126221983Y-104407803D01*
X126221313Y-104409747D01*
X126212788Y-104433968D01*
X126205421Y-104453950D01*
X126204963Y-104455133D01*
X126198122Y-104472752D01*
X126188404Y-104497844D01*
X126184178Y-104508772D01*
X126174162Y-104534642D01*
X126165717Y-104556386D01*
X126163366Y-104562411D01*
X126156757Y-104578069D01*
X126145637Y-104603261D01*
X126132411Y-104632533D01*
X126132402Y-104632554D01*
X126117560Y-104665349D01*
X126103276Y-104697418D01*
X126093774Y-104719201D01*
X126083253Y-104742726D01*
X126074251Y-104761102D01*
X126072316Y-104764587D01*
X126063871Y-104779969D01*
X126052568Y-104801830D01*
X126050550Y-104805848D01*
X126040711Y-104824706D01*
X126025067Y-104853756D01*
X126005894Y-104888799D01*
X125988431Y-104920330D01*
X125969806Y-104954337D01*
X125954587Y-104983226D01*
X125944368Y-105003894D01*
X125940741Y-105013166D01*
X125934432Y-105020199D01*
X125932489Y-105020403D01*
X125924559Y-105026751D01*
X125924237Y-105029173D01*
X125919870Y-105038668D01*
X125908039Y-105058851D01*
X125890650Y-105086825D01*
X125869607Y-105119689D01*
X125846815Y-105154545D01*
X125824179Y-105188495D01*
X125803603Y-105218638D01*
X125786994Y-105242078D01*
X125776254Y-105255914D01*
X125773650Y-105258339D01*
X125767975Y-105267838D01*
X125767446Y-105272780D01*
X125763758Y-105283326D01*
X125760974Y-105284470D01*
X125753025Y-105290918D01*
X125741564Y-105306865D01*
X125738902Y-105311290D01*
X125727430Y-105329855D01*
X125719099Y-105341320D01*
X125718158Y-105342235D01*
X125710608Y-105351083D01*
X125697903Y-105368266D01*
X125693003Y-105375244D01*
X125678981Y-105395231D01*
X125668400Y-105409868D01*
X125666489Y-105412378D01*
X125658940Y-105422138D01*
X125643859Y-105441764D01*
X125623738Y-105468010D01*
X125609470Y-105486647D01*
X125587135Y-105515474D01*
X125567841Y-105539716D01*
X125554214Y-105556105D01*
X125549735Y-105560916D01*
X125539595Y-105572131D01*
X125524312Y-105591242D01*
X125516044Y-105602177D01*
X125498167Y-105625447D01*
X125474632Y-105654974D01*
X125450475Y-105684444D01*
X125450027Y-105684981D01*
X125425039Y-105715132D01*
X125399653Y-105746088D01*
X125379597Y-105770859D01*
X125349883Y-105806355D01*
X125312748Y-105848214D01*
X125270480Y-105894089D01*
X125225364Y-105941633D01*
X125179689Y-105988500D01*
X125135742Y-106032341D01*
X125095810Y-106070811D01*
X125062180Y-106101563D01*
X125037140Y-106122249D01*
X125037135Y-106122253D01*
X125015569Y-106138710D01*
X124998528Y-106152430D01*
X124993606Y-106156747D01*
X124982391Y-106166468D01*
X124962767Y-106182783D01*
X124939241Y-106202008D01*
X124916321Y-106220465D01*
X124898514Y-106234472D01*
X124896935Y-106235679D01*
X124884871Y-106245243D01*
X124868767Y-106258373D01*
X124853258Y-106269861D01*
X124843565Y-106274723D01*
X124843503Y-106274724D01*
X124833879Y-106279606D01*
X124821622Y-106289165D01*
X124802217Y-106304657D01*
X124789121Y-106313785D01*
X124718185Y-106358564D01*
X124660982Y-106394243D01*
X124617489Y-106420838D01*
X124587680Y-106438364D01*
X124571529Y-106446836D01*
X124568827Y-106447697D01*
X124563466Y-106441531D01*
X124563241Y-106437703D01*
X124568333Y-106423966D01*
X124581104Y-106400750D01*
X124599163Y-106371651D01*
X124620119Y-106340267D01*
X124641583Y-106310194D01*
X124661164Y-106285031D01*
X124674588Y-106270143D01*
X124690137Y-106253090D01*
X124699551Y-106240085D01*
X124708034Y-106228679D01*
X124724937Y-106208355D01*
X124747518Y-106182352D01*
X124764815Y-106162973D01*
X124790663Y-106134255D01*
X124813783Y-106108438D01*
X124831016Y-106089053D01*
X124837521Y-106081628D01*
X124854633Y-106061755D01*
X124868927Y-106045136D01*
X124886666Y-106022792D01*
X124906533Y-105995178D01*
X124926101Y-105966028D01*
X124942940Y-105939076D01*
X124954625Y-105918056D01*
X124958739Y-105906983D01*
X124962626Y-105896330D01*
X124965652Y-105895127D01*
X124971499Y-105888017D01*
X124982388Y-105868645D01*
X124996922Y-105839943D01*
X125013705Y-105804844D01*
X125031340Y-105766281D01*
X125048429Y-105727188D01*
X125063576Y-105690498D01*
X125065863Y-105684698D01*
X125084880Y-105634867D01*
X125099946Y-105592952D01*
X125110312Y-105561155D01*
X125115229Y-105541680D01*
X125115530Y-105538506D01*
X125119912Y-105523663D01*
X125123782Y-105519656D01*
X125130374Y-105508181D01*
X125132034Y-105496063D01*
X125134872Y-105477857D01*
X125138891Y-105469730D01*
X125142181Y-105464406D01*
X125146302Y-105454039D01*
X125151918Y-105436413D01*
X125159696Y-105409311D01*
X125170301Y-105370519D01*
X125183392Y-105321605D01*
X125192090Y-105290301D01*
X125201513Y-105258251D01*
X125202327Y-105255588D01*
X125209215Y-105230361D01*
X125218368Y-105192794D01*
X125228912Y-105146752D01*
X125239974Y-105096097D01*
X125250679Y-105044695D01*
X125255529Y-105020403D01*
X125262967Y-104972457D01*
X125269478Y-104910003D01*
X125274956Y-104835019D01*
X125279290Y-104749481D01*
X125282375Y-104655365D01*
X125284100Y-104554648D01*
X125284438Y-104492268D01*
X125284129Y-104418682D01*
X125283108Y-104336304D01*
X125281458Y-104247691D01*
X125279264Y-104155402D01*
X125276608Y-104061996D01*
X125273575Y-103970031D01*
X125270249Y-103882065D01*
X125266712Y-103800658D01*
X125263050Y-103728366D01*
X125259344Y-103667750D01*
X125256088Y-103625796D01*
X125254076Y-103595060D01*
X125252230Y-103550808D01*
X125250619Y-103496026D01*
X125249316Y-103433701D01*
X125248393Y-103366821D01*
X125247921Y-103298372D01*
X125247885Y-103283333D01*
X125248072Y-103196458D01*
X125249048Y-103123827D01*
X125250990Y-103063193D01*
X125254076Y-103012307D01*
X125258485Y-102968920D01*
X125264393Y-102930785D01*
X125271980Y-102895653D01*
X125281238Y-102861890D01*
X125286744Y-102838005D01*
X125288824Y-102819058D01*
X125291950Y-102800716D01*
X125300439Y-102772074D01*
X125312956Y-102736361D01*
X125328169Y-102696807D01*
X125344743Y-102656642D01*
X125361344Y-102619096D01*
X125376639Y-102587398D01*
X125389294Y-102564778D01*
X125397974Y-102554467D01*
X125398124Y-102554397D01*
X125403823Y-102544898D01*
X125404353Y-102539956D01*
X125409036Y-102529423D01*
X125412606Y-102528265D01*
X125420618Y-102522031D01*
X125420858Y-102520076D01*
X125425740Y-102508725D01*
X125437671Y-102491846D01*
X125439425Y-102489716D01*
X125474651Y-102448750D01*
X125504843Y-102416636D01*
X125534615Y-102388833D01*
X125568579Y-102360802D01*
X125577648Y-102353707D01*
X125605716Y-102331848D01*
X125629478Y-102313231D01*
X125645456Y-102300585D01*
X125649506Y-102297299D01*
X125662833Y-102289767D01*
X125667062Y-102288954D01*
X125677994Y-102283278D01*
X125685639Y-102275716D01*
X125702555Y-102261241D01*
X125713469Y-102255105D01*
X125734913Y-102244244D01*
X125746504Y-102237398D01*
X125824131Y-102193840D01*
X125905043Y-102159356D01*
X125983935Y-102136115D01*
X126004096Y-102132067D01*
X126052730Y-102126540D01*
X126112099Y-102124626D01*
X126176890Y-102126083D01*
G37*
G36*
X132707466Y-105193967D02*
G01*
X132962418Y-105194049D01*
X133230855Y-105194210D01*
X133512546Y-105194450D01*
X133807259Y-105194770D01*
X134114761Y-105195168D01*
X134434820Y-105195646D01*
X134767204Y-105196203D01*
X135111681Y-105196839D01*
X135468019Y-105197554D01*
X135835986Y-105198348D01*
X136204935Y-105199197D01*
X138526471Y-105204693D01*
X138770663Y-105613864D01*
X138815533Y-105689044D01*
X138858018Y-105760216D01*
X138897340Y-105826076D01*
X138932718Y-105885322D01*
X138963375Y-105936647D01*
X138988532Y-105978750D01*
X139007410Y-106010326D01*
X139019230Y-106030072D01*
X139023076Y-106036466D01*
X139022523Y-106040731D01*
X139018534Y-106050383D01*
X139010811Y-106065922D01*
X138999056Y-106087849D01*
X138982970Y-106116665D01*
X138962255Y-106152872D01*
X138936612Y-106196971D01*
X138905743Y-106249462D01*
X138869351Y-106310848D01*
X138827135Y-106381629D01*
X138778799Y-106462306D01*
X138724043Y-106553381D01*
X138662569Y-106655355D01*
X138594079Y-106768729D01*
X138518275Y-106894003D01*
X138434858Y-107031680D01*
X138343529Y-107182260D01*
X138243991Y-107346245D01*
X138207512Y-107406316D01*
X138123991Y-107543807D01*
X138042666Y-107677624D01*
X137963956Y-107807075D01*
X137888285Y-107931470D01*
X137816074Y-108050115D01*
X137747745Y-108162321D01*
X137683720Y-108267395D01*
X137624421Y-108364645D01*
X137570270Y-108453380D01*
X137521688Y-108532908D01*
X137479098Y-108602539D01*
X137442921Y-108661579D01*
X137413580Y-108709338D01*
X137391496Y-108745124D01*
X137377091Y-108768245D01*
X137370787Y-108778009D01*
X137370631Y-108778210D01*
X137362165Y-108785967D01*
X137341776Y-108803511D01*
X137310297Y-108830151D01*
X137268558Y-108865199D01*
X137217390Y-108907963D01*
X137157625Y-108957755D01*
X137090093Y-109013885D01*
X137015626Y-109075663D01*
X136935054Y-109142399D01*
X136849209Y-109213403D01*
X136758921Y-109287985D01*
X136665022Y-109365457D01*
X136568343Y-109445127D01*
X136469715Y-109526307D01*
X136426792Y-109561605D01*
X136329510Y-109641585D01*
X134920782Y-109639660D01*
X134763378Y-109639422D01*
X134606760Y-109639140D01*
X134452070Y-109638819D01*
X134300449Y-109638463D01*
X134153040Y-109638075D01*
X134010983Y-109637660D01*
X133875422Y-109637221D01*
X133747497Y-109636763D01*
X133628351Y-109636290D01*
X133519125Y-109635806D01*
X133420962Y-109635315D01*
X133335003Y-109634821D01*
X133262390Y-109634328D01*
X133204264Y-109633839D01*
X133170252Y-109633471D01*
X132828450Y-109629207D01*
X132208881Y-108727586D01*
X132119314Y-108597285D01*
X132038601Y-108479966D01*
X131966287Y-108374986D01*
X131901913Y-108281699D01*
X131845024Y-108199463D01*
X131795160Y-108127634D01*
X131751867Y-108065567D01*
X131714685Y-108012618D01*
X131683159Y-107968144D01*
X131656831Y-107931501D01*
X131635244Y-107902044D01*
X131617941Y-107879129D01*
X131604465Y-107862114D01*
X131594358Y-107850353D01*
X131587163Y-107843203D01*
X131582424Y-107840019D01*
X131579684Y-107840159D01*
X131579262Y-107840631D01*
X131573831Y-107849437D01*
X131560448Y-107871538D01*
X131539634Y-107906066D01*
X131511909Y-107952153D01*
X131477794Y-108008930D01*
X131437809Y-108075531D01*
X131392477Y-108151087D01*
X131342317Y-108234729D01*
X131287850Y-108325590D01*
X131229597Y-108422802D01*
X131168080Y-108525497D01*
X131103818Y-108632807D01*
X131040766Y-108738127D01*
X130974498Y-108848734D01*
X130910508Y-108955343D01*
X130849313Y-109057101D01*
X130791428Y-109153160D01*
X130737370Y-109242669D01*
X130687655Y-109324778D01*
X130642800Y-109398638D01*
X130603320Y-109463398D01*
X130569732Y-109518208D01*
X130542551Y-109562218D01*
X130522295Y-109594578D01*
X130509479Y-109614438D01*
X130504647Y-109620955D01*
X130498487Y-109614526D01*
X130483312Y-109595980D01*
X130459974Y-109566427D01*
X130429329Y-109526979D01*
X130392228Y-109478747D01*
X130349527Y-109422841D01*
X130302078Y-109360373D01*
X130250736Y-109292453D01*
X130196353Y-109220192D01*
X130181758Y-109200746D01*
X130115510Y-109112287D01*
X130058710Y-109036104D01*
X130010774Y-108971372D01*
X129971114Y-108917264D01*
X129939146Y-108872954D01*
X129914282Y-108837614D01*
X129895937Y-108810420D01*
X129883525Y-108790544D01*
X129876460Y-108777159D01*
X129874156Y-108769440D01*
X129874566Y-108767510D01*
X129879733Y-108758789D01*
X129892707Y-108736755D01*
X129912947Y-108702331D01*
X129939910Y-108656441D01*
X129973055Y-108600007D01*
X130011840Y-108533953D01*
X130055722Y-108459203D01*
X130104159Y-108376679D01*
X130156610Y-108287304D01*
X130212533Y-108192003D01*
X130271385Y-108091698D01*
X130332624Y-107987312D01*
X130347308Y-107962281D01*
X130418563Y-107840813D01*
X130436051Y-107811002D01*
X132765088Y-107811002D01*
X132804360Y-107866643D01*
X132814753Y-107881381D01*
X132833920Y-107908579D01*
X132861135Y-107947204D01*
X132895668Y-107996221D01*
X132936792Y-108054597D01*
X132983779Y-108121298D01*
X133035900Y-108195291D01*
X133092428Y-108275543D01*
X133152634Y-108361018D01*
X133215790Y-108450685D01*
X133281168Y-108543508D01*
X133297498Y-108566695D01*
X133362321Y-108658601D01*
X133424480Y-108746480D01*
X133483320Y-108829414D01*
X133538181Y-108906490D01*
X133588406Y-108976789D01*
X133633337Y-109039398D01*
X133672318Y-109093401D01*
X133704688Y-109137881D01*
X133729792Y-109171923D01*
X133746971Y-109194611D01*
X133755568Y-109205029D01*
X133756434Y-109205602D01*
X133761248Y-109197831D01*
X133773801Y-109176814D01*
X133793503Y-109143551D01*
X133819767Y-109099045D01*
X133852002Y-109044297D01*
X133889620Y-108980310D01*
X133932031Y-108908085D01*
X133978648Y-108828625D01*
X134028880Y-108742931D01*
X134082139Y-108652006D01*
X134137836Y-108556851D01*
X134147737Y-108539929D01*
X134185153Y-108475975D01*
X135317370Y-108475975D01*
X135319593Y-108478145D01*
X135328738Y-108480008D01*
X135345809Y-108481584D01*
X135371811Y-108482894D01*
X135407749Y-108483956D01*
X135454628Y-108484792D01*
X135513453Y-108485422D01*
X135585228Y-108485865D01*
X135670958Y-108486142D01*
X135771649Y-108486273D01*
X135832160Y-108486290D01*
X136350946Y-108486290D01*
X136995765Y-107423830D01*
X137640584Y-106361371D01*
X137218489Y-106356360D01*
X137063835Y-106354624D01*
X136917500Y-106353179D01*
X136780159Y-106352025D01*
X136652486Y-106351163D01*
X136535155Y-106350593D01*
X136428840Y-106350313D01*
X136334215Y-106350323D01*
X136251956Y-106350625D01*
X136182735Y-106351216D01*
X136127228Y-106352098D01*
X136086108Y-106353269D01*
X136060050Y-106354730D01*
X136049729Y-106356481D01*
X136049578Y-106356740D01*
X136053820Y-106365429D01*
X136065823Y-106386257D01*
X136084497Y-106417433D01*
X136108755Y-106457164D01*
X136137507Y-106503658D01*
X136169666Y-106555123D01*
X136180621Y-106572543D01*
X136311664Y-106780599D01*
X136282284Y-106830926D01*
X136274215Y-106844697D01*
X136258357Y-106871715D01*
X136235286Y-106910998D01*
X136205578Y-106961567D01*
X136169810Y-107022441D01*
X136128557Y-107092640D01*
X136082396Y-107171183D01*
X136031904Y-107257090D01*
X135977655Y-107349380D01*
X135920227Y-107447072D01*
X135860196Y-107549187D01*
X135798137Y-107654744D01*
X135787135Y-107673457D01*
X135725359Y-107778559D01*
X135665913Y-107879759D01*
X135609333Y-107976139D01*
X135556156Y-108066781D01*
X135506921Y-108150767D01*
X135462164Y-108227180D01*
X135422422Y-108295101D01*
X135388233Y-108353613D01*
X135360135Y-108401798D01*
X135338664Y-108438737D01*
X135324357Y-108463513D01*
X135317753Y-108475209D01*
X135317370Y-108475975D01*
X134185153Y-108475975D01*
X134283740Y-108307461D01*
X134411636Y-108088837D01*
X134531658Y-107883657D01*
X134644039Y-107691522D01*
X134749011Y-107512034D01*
X134846807Y-107344794D01*
X134937660Y-107189402D01*
X135021803Y-107045460D01*
X135099467Y-106912568D01*
X135170887Y-106790328D01*
X135236294Y-106678341D01*
X135295921Y-106576207D01*
X135350000Y-106483528D01*
X135398766Y-106399905D01*
X135442450Y-106324938D01*
X135481284Y-106258230D01*
X135515502Y-106199380D01*
X135545337Y-106147990D01*
X135571020Y-106103661D01*
X135592785Y-106065994D01*
X135610865Y-106034590D01*
X135625491Y-106009050D01*
X135636897Y-105988974D01*
X135645316Y-105973965D01*
X135650979Y-105963624D01*
X135654121Y-105957550D01*
X135654947Y-105955611D01*
X135650457Y-105947677D01*
X135636901Y-105928703D01*
X135615660Y-105900422D01*
X135588119Y-105864569D01*
X135555658Y-105822879D01*
X135519662Y-105777087D01*
X135481512Y-105728925D01*
X135442591Y-105680129D01*
X135404283Y-105632433D01*
X135367970Y-105587572D01*
X135335034Y-105547279D01*
X135306859Y-105513289D01*
X135284826Y-105487337D01*
X135270319Y-105471157D01*
X135264913Y-105466380D01*
X135262555Y-105468841D01*
X135256983Y-105476734D01*
X135247850Y-105490625D01*
X135234809Y-105511082D01*
X135217511Y-105538671D01*
X135195611Y-105573960D01*
X135168761Y-105617515D01*
X135136613Y-105669905D01*
X135098821Y-105731696D01*
X135055037Y-105803455D01*
X135004914Y-105885749D01*
X134948104Y-105979146D01*
X134884262Y-106084212D01*
X134813038Y-106201516D01*
X134734087Y-106331623D01*
X134647061Y-106475101D01*
X134616566Y-106525390D01*
X134366994Y-106936972D01*
X133770356Y-107262607D01*
X133672558Y-107315981D01*
X133574490Y-107369500D01*
X133477768Y-107422281D01*
X133384006Y-107473445D01*
X133294820Y-107522108D01*
X133211825Y-107567390D01*
X133136636Y-107608410D01*
X133070869Y-107644286D01*
X133016138Y-107674138D01*
X132974059Y-107697083D01*
X132969403Y-107699621D01*
X132765088Y-107811002D01*
X130436051Y-107811002D01*
X130494092Y-107712065D01*
X130572650Y-107578154D01*
X130652997Y-107441198D01*
X130688862Y-107380064D01*
X131851452Y-107380064D01*
X131852453Y-107380666D01*
X131854184Y-107380519D01*
X131854544Y-107380507D01*
X131862360Y-107376597D01*
X131883765Y-107365181D01*
X131917902Y-107346729D01*
X131963911Y-107321713D01*
X132020934Y-107290601D01*
X132088111Y-107253866D01*
X132164584Y-107211977D01*
X132249494Y-107165404D01*
X132341982Y-107114619D01*
X132441190Y-107060092D01*
X132546258Y-107002293D01*
X132656328Y-106941693D01*
X132770541Y-106878762D01*
X132792218Y-106866813D01*
X133724021Y-106353119D01*
X133272878Y-106350985D01*
X133167528Y-106350583D01*
X133050382Y-106350302D01*
X132925733Y-106350144D01*
X132797872Y-106350107D01*
X132671090Y-106350193D01*
X132549679Y-106350401D01*
X132437931Y-106350731D01*
X132377878Y-106350985D01*
X131934020Y-106353119D01*
X132068694Y-106559422D01*
X132102580Y-106611458D01*
X132133363Y-106658978D01*
X132159931Y-106700242D01*
X132181167Y-106733509D01*
X132195959Y-106757041D01*
X132203192Y-106769096D01*
X132203731Y-106770268D01*
X132199759Y-106778132D01*
X132188269Y-106798678D01*
X132170142Y-106830383D01*
X132146260Y-106871723D01*
X132117505Y-106921173D01*
X132084758Y-106977210D01*
X132048902Y-107038310D01*
X132034245Y-107063218D01*
X131989781Y-107138713D01*
X131952987Y-107201204D01*
X131923167Y-107251918D01*
X131899630Y-107292080D01*
X131881679Y-107322914D01*
X131868623Y-107345647D01*
X131859765Y-107361503D01*
X131854414Y-107371708D01*
X131851874Y-107377486D01*
X131851452Y-107380064D01*
X130688862Y-107380064D01*
X130733889Y-107303314D01*
X130814084Y-107166620D01*
X130892341Y-107033233D01*
X130967415Y-106905272D01*
X131038066Y-106784853D01*
X131103051Y-106674095D01*
X131161127Y-106575116D01*
X131169723Y-106560465D01*
X131223625Y-106468531D01*
X131275062Y-106380666D01*
X131323428Y-106297910D01*
X131368118Y-106221307D01*
X131408527Y-106151899D01*
X131444048Y-106090730D01*
X131474076Y-106038840D01*
X131498005Y-105997273D01*
X131515230Y-105967072D01*
X131525145Y-105949279D01*
X131527420Y-105944710D01*
X131522374Y-105936135D01*
X131508439Y-105917314D01*
X131487421Y-105890422D01*
X131461125Y-105857637D01*
X131431356Y-105821134D01*
X131399920Y-105783090D01*
X131368621Y-105745680D01*
X131339266Y-105711082D01*
X131313660Y-105681472D01*
X131293607Y-105659025D01*
X131280914Y-105645919D01*
X131277504Y-105643437D01*
X131271811Y-105650343D01*
X131258646Y-105670156D01*
X131238838Y-105701517D01*
X131213216Y-105743070D01*
X131182609Y-105793455D01*
X131147848Y-105851317D01*
X131109760Y-105915297D01*
X131069176Y-105984037D01*
X131062028Y-105996201D01*
X130854873Y-106348964D01*
X130596995Y-106348978D01*
X130513992Y-106349242D01*
X130447294Y-106350026D01*
X130396710Y-106351337D01*
X130362047Y-106353183D01*
X130343115Y-106355568D01*
X130339116Y-106357621D01*
X130343372Y-106366534D01*
X130355411Y-106387558D01*
X130374137Y-106418887D01*
X130398457Y-106458720D01*
X130427277Y-106505252D01*
X130459501Y-106556680D01*
X130469968Y-106573267D01*
X130600820Y-106780284D01*
X130481838Y-106983433D01*
X130422002Y-107085551D01*
X130358490Y-107193855D01*
X130291763Y-107307566D01*
X130222279Y-107425904D01*
X130150498Y-107548091D01*
X130076879Y-107673347D01*
X130001882Y-107800893D01*
X129925967Y-107929950D01*
X129849591Y-108059738D01*
X129773216Y-108189478D01*
X129697300Y-108318391D01*
X129622303Y-108445698D01*
X129548684Y-108570620D01*
X129476902Y-108692377D01*
X129407418Y-108810190D01*
X129340690Y-108923280D01*
X129277177Y-109030868D01*
X129217340Y-109132174D01*
X129161638Y-109226419D01*
X129110529Y-109312825D01*
X129064474Y-109390611D01*
X129023932Y-109458999D01*
X128989362Y-109517209D01*
X128961224Y-109564462D01*
X128939977Y-109599979D01*
X128926080Y-109622981D01*
X128919993Y-109632689D01*
X128919753Y-109632966D01*
X128914427Y-109626540D01*
X128900242Y-109608259D01*
X128878222Y-109579484D01*
X128849390Y-109541578D01*
X128814772Y-109495903D01*
X128775392Y-109443820D01*
X128732275Y-109386691D01*
X128686444Y-109325879D01*
X128638924Y-109262746D01*
X128590740Y-109198652D01*
X128542915Y-109134961D01*
X128496475Y-109073034D01*
X128452444Y-109014233D01*
X128411845Y-108959920D01*
X128375704Y-108911458D01*
X128345045Y-108870207D01*
X128320893Y-108837530D01*
X128304271Y-108814789D01*
X128302310Y-108812069D01*
X128283145Y-108785391D01*
X128577004Y-108285121D01*
X128631490Y-108192323D01*
X128692770Y-108087889D01*
X128759310Y-107974430D01*
X128829581Y-107854563D01*
X128902049Y-107730899D01*
X128975184Y-107606054D01*
X129047453Y-107482641D01*
X129117326Y-107363273D01*
X129183270Y-107250566D01*
X129219486Y-107188641D01*
X129279152Y-107086648D01*
X129345745Y-106972894D01*
X129417822Y-106849841D01*
X129493939Y-106719953D01*
X129572651Y-106585691D01*
X129652515Y-106449518D01*
X129732087Y-106313896D01*
X129809922Y-106181289D01*
X129884577Y-106054158D01*
X129954607Y-105934965D01*
X129976033Y-105898513D01*
X130383957Y-105204596D01*
X130784457Y-105199156D01*
X130859469Y-105198288D01*
X130950753Y-105197499D01*
X131058076Y-105196790D01*
X131181207Y-105196160D01*
X131319913Y-105195609D01*
X131473963Y-105195137D01*
X131643123Y-105194744D01*
X131827163Y-105194430D01*
X132025849Y-105194196D01*
X132238950Y-105194040D01*
X132466233Y-105193964D01*
X132707466Y-105193967D01*
G37*
G36*
X124435590Y-97249238D02*
G01*
X124435953Y-97249512D01*
X124434737Y-97258274D01*
X124425130Y-97269555D01*
X124413423Y-97279903D01*
X124391908Y-97298904D01*
X124363155Y-97324291D01*
X124329731Y-97353797D01*
X124310586Y-97370695D01*
X124248541Y-97426553D01*
X124190062Y-97481308D01*
X124137724Y-97532465D01*
X124094100Y-97577526D01*
X124071637Y-97602366D01*
X124033359Y-97647123D01*
X123996470Y-97691690D01*
X123962493Y-97734086D01*
X123932951Y-97772333D01*
X123909368Y-97804448D01*
X123893266Y-97828454D01*
X123886170Y-97842368D01*
X123885965Y-97843739D01*
X123882720Y-97852875D01*
X123874060Y-97873200D01*
X123861603Y-97900971D01*
X123856146Y-97912834D01*
X123841327Y-97945116D01*
X123828323Y-97973947D01*
X123819395Y-97994297D01*
X123817907Y-97997856D01*
X123808554Y-98020403D01*
X123802356Y-98034990D01*
X123795328Y-98052728D01*
X123783934Y-98083183D01*
X123769208Y-98123479D01*
X123752184Y-98170735D01*
X123733894Y-98222074D01*
X123715370Y-98274617D01*
X123697647Y-98325486D01*
X123686863Y-98356823D01*
X123677399Y-98389799D01*
X123666735Y-98435827D01*
X123655467Y-98491554D01*
X123644190Y-98553626D01*
X123633501Y-98618689D01*
X123623995Y-98683389D01*
X123616268Y-98744372D01*
X123613558Y-98769428D01*
X123609581Y-98807142D01*
X123604431Y-98853825D01*
X123598934Y-98902067D01*
X123596104Y-98926218D01*
X123592345Y-98969090D01*
X123589406Y-99025387D01*
X123587290Y-99092050D01*
X123585998Y-99166020D01*
X123585534Y-99244239D01*
X123585899Y-99323648D01*
X123587096Y-99401188D01*
X123589128Y-99473801D01*
X123591997Y-99538426D01*
X123595576Y-99590513D01*
X123600064Y-99642414D01*
X123604802Y-99697134D01*
X123609249Y-99748418D01*
X123612862Y-99790009D01*
X123613095Y-99792690D01*
X123617172Y-99835229D01*
X123622624Y-99885789D01*
X123629137Y-99942013D01*
X123636397Y-100001541D01*
X123644090Y-100062014D01*
X123651901Y-100121072D01*
X123659517Y-100176357D01*
X123666623Y-100225509D01*
X123672905Y-100266170D01*
X123678048Y-100295980D01*
X123681740Y-100312580D01*
X123682633Y-100314837D01*
X123685546Y-100325097D01*
X123690345Y-100347763D01*
X123696241Y-100378955D01*
X123699816Y-100399220D01*
X123709835Y-100452542D01*
X123723138Y-100516182D01*
X123738503Y-100584581D01*
X123754702Y-100652182D01*
X123761664Y-100679792D01*
X123774198Y-100728460D01*
X123784439Y-100767721D01*
X123794118Y-100804176D01*
X123799499Y-100824204D01*
X123808403Y-100857404D01*
X123817034Y-100889848D01*
X123821480Y-100906725D01*
X123828729Y-100933544D01*
X123835473Y-100957127D01*
X123836452Y-100960364D01*
X123842552Y-100981294D01*
X123850175Y-101008797D01*
X123852685Y-101018129D01*
X123861197Y-101049918D01*
X123870704Y-101085197D01*
X123873771Y-101096524D01*
X123882764Y-101129969D01*
X123891928Y-101164472D01*
X123894673Y-101174919D01*
X123902141Y-101202532D01*
X123909108Y-101226807D01*
X123910910Y-101232684D01*
X123918361Y-101257020D01*
X123928739Y-101291913D01*
X123940535Y-101332177D01*
X123952242Y-101372628D01*
X123962349Y-101408080D01*
X123969349Y-101433350D01*
X123969752Y-101434860D01*
X123978535Y-101464827D01*
X123988320Y-101494060D01*
X123989312Y-101496751D01*
X123996523Y-101517797D01*
X124006506Y-101549193D01*
X124017519Y-101585412D01*
X124021791Y-101599903D01*
X124032119Y-101634500D01*
X124041493Y-101664518D01*
X124048465Y-101685375D01*
X124050486Y-101690676D01*
X124055962Y-101705654D01*
X124064726Y-101731880D01*
X124075275Y-101764807D01*
X124080467Y-101781449D01*
X124091150Y-101815332D01*
X124100578Y-101844047D01*
X124107338Y-101863336D01*
X124109266Y-101868096D01*
X124116162Y-101883514D01*
X124124980Y-101904872D01*
X124136877Y-101935067D01*
X124153010Y-101976997D01*
X124158689Y-101991878D01*
X124170882Y-102023788D01*
X124180869Y-102049569D01*
X124190222Y-102073086D01*
X124200516Y-102098206D01*
X124213324Y-102128796D01*
X124230219Y-102168722D01*
X124240972Y-102194055D01*
X124255802Y-102228512D01*
X124268668Y-102257543D01*
X124277988Y-102277628D01*
X124281782Y-102284828D01*
X124288382Y-102297601D01*
X124297099Y-102318259D01*
X124298528Y-102321962D01*
X124307934Y-102345303D01*
X124320997Y-102376024D01*
X124331717Y-102400357D01*
X124346534Y-102433630D01*
X124364124Y-102473485D01*
X124380709Y-102511362D01*
X124380883Y-102511761D01*
X124398822Y-102552809D01*
X124414894Y-102589184D01*
X124431772Y-102626882D01*
X124452128Y-102671901D01*
X124458802Y-102686607D01*
X124470005Y-102712479D01*
X124477725Y-102732607D01*
X124480117Y-102741547D01*
X124483567Y-102752936D01*
X124492423Y-102773569D01*
X124500077Y-102789508D01*
X124508490Y-102806865D01*
X124517812Y-102827308D01*
X124529057Y-102853221D01*
X124543238Y-102886986D01*
X124561366Y-102930986D01*
X124584456Y-102987603D01*
X124588102Y-102996572D01*
X124601066Y-103028901D01*
X124610719Y-103054384D01*
X124620181Y-103081375D01*
X124624297Y-103093535D01*
X124633636Y-103120591D01*
X124641881Y-103143344D01*
X124644971Y-103151300D01*
X124651180Y-103168651D01*
X124660659Y-103197718D01*
X124672147Y-103234347D01*
X124684382Y-103274383D01*
X124696105Y-103313672D01*
X124706053Y-103348061D01*
X124712967Y-103373394D01*
X124715102Y-103382359D01*
X124720827Y-103408508D01*
X124727338Y-103435997D01*
X124741587Y-103498599D01*
X124755455Y-103568900D01*
X124767937Y-103641072D01*
X124778030Y-103709288D01*
X124784728Y-103767721D01*
X124784949Y-103770208D01*
X124789196Y-103814825D01*
X124793977Y-103858901D01*
X124798644Y-103896754D01*
X124801863Y-103918746D01*
X124804067Y-103940579D01*
X124805912Y-103975806D01*
X124807396Y-104021990D01*
X124808521Y-104076698D01*
X124809285Y-104137494D01*
X124809690Y-104201943D01*
X124809736Y-104267609D01*
X124809422Y-104332058D01*
X124808749Y-104392855D01*
X124807717Y-104447564D01*
X124806326Y-104493751D01*
X124804576Y-104528979D01*
X124802468Y-104550815D01*
X124801823Y-104554159D01*
X124797847Y-104575937D01*
X124793291Y-104609241D01*
X124788776Y-104649137D01*
X124785650Y-104682066D01*
X124782998Y-104711603D01*
X124779678Y-104746265D01*
X124775535Y-104787498D01*
X124770417Y-104836746D01*
X124764171Y-104895452D01*
X124756642Y-104965061D01*
X124747678Y-105047018D01*
X124737125Y-105142766D01*
X124727373Y-105230832D01*
X124714658Y-105335093D01*
X124700664Y-105428056D01*
X124684467Y-105514924D01*
X124665145Y-105600898D01*
X124653403Y-105647563D01*
X124646569Y-105675365D01*
X124640781Y-105701202D01*
X124634690Y-105725076D01*
X124628772Y-105742463D01*
X124622616Y-105759474D01*
X124614189Y-105785483D01*
X124608445Y-105804353D01*
X124599733Y-105832541D01*
X124591755Y-105856296D01*
X124587980Y-105866244D01*
X124573871Y-105900069D01*
X124559175Y-105936458D01*
X124545230Y-105971944D01*
X124533377Y-106003060D01*
X124524957Y-106026339D01*
X124521309Y-106038314D01*
X124521255Y-106038889D01*
X124516537Y-106050862D01*
X124510358Y-106059519D01*
X124499980Y-106075958D01*
X124489288Y-106098777D01*
X124488245Y-106101430D01*
X124480672Y-106118905D01*
X124467218Y-106147704D01*
X124449108Y-106185376D01*
X124427570Y-106229465D01*
X124403831Y-106277521D01*
X124379116Y-106327089D01*
X124354654Y-106375718D01*
X124331669Y-106420953D01*
X124311389Y-106460342D01*
X124295041Y-106491433D01*
X124283851Y-106511771D01*
X124279851Y-106518161D01*
X124272916Y-106529534D01*
X124261366Y-106550661D01*
X124250356Y-106571800D01*
X124205386Y-106659545D01*
X124167491Y-106732593D01*
X124136580Y-106791111D01*
X124112562Y-106835268D01*
X124095346Y-106865234D01*
X124084841Y-106881178D01*
X124081953Y-106884005D01*
X124075892Y-106893473D01*
X124075764Y-106895250D01*
X124071008Y-106905463D01*
X124058103Y-106925714D01*
X124039093Y-106953065D01*
X124016024Y-106984573D01*
X123990939Y-107017298D01*
X123990719Y-107017578D01*
X123980039Y-107031545D01*
X123964330Y-107052486D01*
X123956544Y-107062964D01*
X123941545Y-107082828D01*
X123930573Y-107096644D01*
X123927615Y-107099935D01*
X123920367Y-107108474D01*
X123907045Y-107125627D01*
X123898435Y-107137070D01*
X123868189Y-107176755D01*
X123844765Y-107205262D01*
X123840409Y-107210196D01*
X123831475Y-107221431D01*
X123816343Y-107241626D01*
X123799327Y-107264977D01*
X123761942Y-107312909D01*
X123714119Y-107368037D01*
X123658609Y-107427636D01*
X123598163Y-107488979D01*
X123535531Y-107549341D01*
X123473463Y-107605995D01*
X123414710Y-107656215D01*
X123366362Y-107694087D01*
X123343033Y-107712538D01*
X123321930Y-107731087D01*
X123319265Y-107733660D01*
X123306357Y-107745134D01*
X123300160Y-107748166D01*
X123300065Y-107747779D01*
X123294959Y-107749275D01*
X123282560Y-107759451D01*
X123281498Y-107760444D01*
X123267018Y-107772110D01*
X123241678Y-107790609D01*
X123208523Y-107813886D01*
X123170601Y-107839887D01*
X123130957Y-107866559D01*
X123092640Y-107891847D01*
X123058695Y-107913696D01*
X123032169Y-107930054D01*
X123018661Y-107937643D01*
X123001550Y-107947339D01*
X122974988Y-107963532D01*
X122942991Y-107983646D01*
X122909576Y-108005105D01*
X122878757Y-108025335D01*
X122854551Y-108041760D01*
X122842073Y-108050888D01*
X122831405Y-108059120D01*
X122812055Y-108073739D01*
X122792582Y-108088317D01*
X122769232Y-108105930D01*
X122750551Y-108120380D01*
X122742018Y-108127323D01*
X122728171Y-108138090D01*
X122714028Y-108147953D01*
X122693607Y-108162379D01*
X122673820Y-108177404D01*
X122655727Y-108191152D01*
X122630039Y-108209973D01*
X122605686Y-108227400D01*
X122576808Y-108248246D01*
X122548952Y-108269070D01*
X122531417Y-108282756D01*
X122516167Y-108294625D01*
X122490529Y-108314064D01*
X122457434Y-108338897D01*
X122419815Y-108366950D01*
X122380601Y-108396045D01*
X122342726Y-108424008D01*
X122309120Y-108448661D01*
X122282713Y-108467830D01*
X122268334Y-108478038D01*
X122251436Y-108490312D01*
X122226602Y-108508983D01*
X122198846Y-108530213D01*
X122173180Y-108550164D01*
X122154615Y-108564997D01*
X122152731Y-108566562D01*
X122138458Y-108577723D01*
X122112097Y-108597503D01*
X122074984Y-108624914D01*
X122028454Y-108658973D01*
X121973841Y-108698692D01*
X121971520Y-108700375D01*
X121943390Y-108720831D01*
X121919967Y-108737969D01*
X121904746Y-108749228D01*
X121901377Y-108751792D01*
X121889753Y-108760995D01*
X121871829Y-108775186D01*
X121868324Y-108777962D01*
X121853504Y-108789379D01*
X121827822Y-108808835D01*
X121793671Y-108834538D01*
X121753447Y-108864698D01*
X121709544Y-108897523D01*
X121664357Y-108931224D01*
X121620281Y-108964008D01*
X121579710Y-108994086D01*
X121549795Y-109016168D01*
X121517845Y-109039793D01*
X121477581Y-109069728D01*
X121432377Y-109103447D01*
X121385608Y-109138424D01*
X121340649Y-109172135D01*
X121300874Y-109202055D01*
X121269658Y-109225658D01*
X121260495Y-109232634D01*
X121232284Y-109252323D01*
X121213235Y-109261548D01*
X121204480Y-109259814D01*
X121204029Y-109257312D01*
X121208611Y-109248387D01*
X121219848Y-109231779D01*
X121233975Y-109212605D01*
X121247230Y-109195984D01*
X121255594Y-109187210D01*
X121264144Y-109178075D01*
X121277675Y-109161067D01*
X121281840Y-109155503D01*
X121300332Y-109132049D01*
X121322482Y-109106057D01*
X121329514Y-109098248D01*
X121352670Y-109071550D01*
X121376103Y-109042365D01*
X121381619Y-109035055D01*
X121398755Y-109012898D01*
X121413994Y-108994865D01*
X121418967Y-108989669D01*
X121428901Y-108978657D01*
X121446593Y-108957615D01*
X121469605Y-108929490D01*
X121495497Y-108897231D01*
X121497453Y-108894769D01*
X121523187Y-108862527D01*
X121545898Y-108834363D01*
X121563252Y-108813152D01*
X121572914Y-108801771D01*
X121573311Y-108801344D01*
X121582162Y-108788863D01*
X121583626Y-108784039D01*
X121588570Y-108773940D01*
X121600515Y-108758375D01*
X121601009Y-108757809D01*
X121612858Y-108742956D01*
X121631732Y-108717805D01*
X121655271Y-108685636D01*
X121681114Y-108649726D01*
X121706900Y-108613354D01*
X121730268Y-108579799D01*
X121747661Y-108554148D01*
X121764049Y-108531063D01*
X121779832Y-108511248D01*
X121782732Y-108508012D01*
X121794133Y-108493951D01*
X121798181Y-108485852D01*
X121803180Y-108476820D01*
X121815799Y-108460516D01*
X121822805Y-108452337D01*
X121837799Y-108433219D01*
X121846602Y-108417925D01*
X121847562Y-108414084D01*
X121852100Y-108404484D01*
X121854646Y-108403769D01*
X121862599Y-108397184D01*
X121873827Y-108380789D01*
X121877153Y-108374886D01*
X121888455Y-108356594D01*
X121897439Y-108346622D01*
X121899083Y-108346004D01*
X121904746Y-108339294D01*
X121905458Y-108333626D01*
X121909914Y-108322644D01*
X121913710Y-108321248D01*
X121921031Y-108314564D01*
X121921962Y-108308869D01*
X121926418Y-108297888D01*
X121930214Y-108296491D01*
X121938201Y-108290189D01*
X121938467Y-108288075D01*
X121942576Y-108276587D01*
X121952995Y-108257062D01*
X121959540Y-108246276D01*
X121977013Y-108217988D01*
X121994308Y-108189077D01*
X121998143Y-108182487D01*
X122012398Y-108157789D01*
X122030065Y-108127217D01*
X122041023Y-108108274D01*
X122126479Y-107953577D01*
X122162211Y-107883886D01*
X122177889Y-107853102D01*
X122191108Y-107828254D01*
X122199988Y-107812827D01*
X122202342Y-107809617D01*
X122207848Y-107801010D01*
X122219013Y-107780687D01*
X122234191Y-107751729D01*
X122250915Y-107718843D01*
X122272380Y-107676136D01*
X122297977Y-107625311D01*
X122324379Y-107572972D01*
X122346576Y-107529045D01*
X122376287Y-107469742D01*
X122410595Y-107400330D01*
X122447135Y-107325667D01*
X122483542Y-107250607D01*
X122517449Y-107180007D01*
X122546491Y-107118722D01*
X122547562Y-107116439D01*
X122561891Y-107086100D01*
X122574126Y-107060582D01*
X122582116Y-107044358D01*
X122583257Y-107042170D01*
X122597095Y-107014989D01*
X122611242Y-106983749D01*
X122627017Y-106945279D01*
X122645740Y-106896410D01*
X122660507Y-106856498D01*
X122669036Y-106829849D01*
X122679187Y-106793020D01*
X122688990Y-106753346D01*
X122694985Y-106729185D01*
X122703316Y-106697445D01*
X122709436Y-106674951D01*
X122719422Y-106637650D01*
X122728846Y-106599387D01*
X122739080Y-106554434D01*
X122746977Y-106518161D01*
X122752571Y-106492693D01*
X122760144Y-106458880D01*
X122767295Y-106427388D01*
X122775808Y-106387776D01*
X122784214Y-106344799D01*
X122789308Y-106315984D01*
X122800238Y-106251953D01*
X122810165Y-106199786D01*
X122819956Y-106154952D01*
X122820903Y-106150942D01*
X122824986Y-106131150D01*
X122831058Y-106098325D01*
X122838544Y-106055740D01*
X122846869Y-106006667D01*
X122855459Y-105954376D01*
X122855699Y-105952892D01*
X122865795Y-105889721D01*
X122873768Y-105837976D01*
X122880276Y-105792813D01*
X122885978Y-105749389D01*
X122891533Y-105702860D01*
X122897600Y-105648384D01*
X122899479Y-105631059D01*
X122902195Y-105602668D01*
X122905767Y-105560459D01*
X122910006Y-105507083D01*
X122914721Y-105445194D01*
X122919722Y-105377443D01*
X122924819Y-105306484D01*
X122929822Y-105234968D01*
X122934541Y-105165548D01*
X122938787Y-105100877D01*
X122942369Y-105043607D01*
X122945098Y-104996391D01*
X122945576Y-104987394D01*
X122948208Y-104937116D01*
X122951468Y-104875227D01*
X122955100Y-104806596D01*
X122958845Y-104736094D01*
X122962445Y-104668589D01*
X122963269Y-104653184D01*
X122965531Y-104600474D01*
X122967491Y-104533750D01*
X122969151Y-104454945D01*
X122970514Y-104365989D01*
X122971579Y-104268813D01*
X122972348Y-104165347D01*
X122972824Y-104057523D01*
X122973007Y-103947271D01*
X122972898Y-103836522D01*
X122972500Y-103727207D01*
X122971813Y-103621256D01*
X122970838Y-103520601D01*
X122969578Y-103427172D01*
X122968034Y-103342900D01*
X122966207Y-103269716D01*
X122964098Y-103209551D01*
X122962199Y-103171930D01*
X122956739Y-103085078D01*
X122951793Y-103011862D01*
X122947115Y-102949432D01*
X122942459Y-102894938D01*
X122937577Y-102845529D01*
X122932225Y-102798356D01*
X122926155Y-102750568D01*
X122925121Y-102742820D01*
X122918692Y-102693497D01*
X122912139Y-102640752D01*
X122906333Y-102591738D01*
X122902947Y-102561274D01*
X122898349Y-102518958D01*
X122893437Y-102475369D01*
X122889080Y-102438176D01*
X122887990Y-102429240D01*
X122883610Y-102395946D01*
X122877491Y-102352355D01*
X122870052Y-102301183D01*
X122861711Y-102245149D01*
X122852886Y-102186968D01*
X122843997Y-102129359D01*
X122835461Y-102075037D01*
X122827698Y-102026720D01*
X122821125Y-101987125D01*
X122816162Y-101958969D01*
X122813627Y-101946491D01*
X122807295Y-101918430D01*
X122800271Y-101884475D01*
X122797100Y-101868096D01*
X122790076Y-101831868D01*
X122779784Y-101780657D01*
X122766147Y-101714091D01*
X122749091Y-101631799D01*
X122747604Y-101624659D01*
X122741675Y-101596746D01*
X122734343Y-101562946D01*
X122730669Y-101546264D01*
X122723487Y-101513467D01*
X122716553Y-101481185D01*
X122713752Y-101467869D01*
X122704435Y-101424633D01*
X122693263Y-101375103D01*
X122682428Y-101328981D01*
X122681089Y-101323457D01*
X122676344Y-101300680D01*
X122670593Y-101268427D01*
X122665060Y-101233576D01*
X122664928Y-101232684D01*
X122659255Y-101196711D01*
X122653183Y-101162063D01*
X122648064Y-101136413D01*
X122644079Y-101114863D01*
X122638913Y-101081441D01*
X122633227Y-101040672D01*
X122627682Y-100997087D01*
X122627566Y-100996127D01*
X122621929Y-100951044D01*
X122616092Y-100907228D01*
X122610755Y-100869771D01*
X122606719Y-100844338D01*
X122601992Y-100810850D01*
X122599081Y-100777410D01*
X122598635Y-100763445D01*
X122596856Y-100736400D01*
X122592234Y-100701706D01*
X122587027Y-100673169D01*
X122582307Y-100644101D01*
X122577327Y-100602142D01*
X122572361Y-100550898D01*
X122567680Y-100493974D01*
X122563558Y-100434975D01*
X122560266Y-100377507D01*
X122558077Y-100325174D01*
X122557265Y-100281582D01*
X122557266Y-100279565D01*
X122558182Y-100240225D01*
X122560603Y-100191305D01*
X122564182Y-100137128D01*
X122568575Y-100082019D01*
X122573436Y-100030302D01*
X122578419Y-99986300D01*
X122583178Y-99954338D01*
X122583315Y-99953606D01*
X122587832Y-99924737D01*
X122592683Y-99885965D01*
X122597080Y-99843849D01*
X122598688Y-99825699D01*
X122605719Y-99746732D01*
X122613097Y-99678943D01*
X122621611Y-99618162D01*
X122632048Y-99560222D01*
X122645198Y-99500953D01*
X122661848Y-99436188D01*
X122682787Y-99361758D01*
X122693099Y-99326446D01*
X122702262Y-99294633D01*
X122713246Y-99255547D01*
X122723257Y-99219168D01*
X122732446Y-99185601D01*
X122740929Y-99155087D01*
X122746992Y-99133787D01*
X122747364Y-99132521D01*
X122752852Y-99113302D01*
X122761160Y-99083505D01*
X122770798Y-99048487D01*
X122774336Y-99035523D01*
X122783615Y-99002966D01*
X122791871Y-98976713D01*
X122797835Y-98960686D01*
X122799472Y-98957816D01*
X122804237Y-98945657D01*
X122804938Y-98937890D01*
X122808590Y-98920369D01*
X122816887Y-98900068D01*
X122825908Y-98880386D01*
X122837920Y-98851551D01*
X122849904Y-98820896D01*
X122878053Y-98749510D01*
X122904887Y-98688529D01*
X122925920Y-98645647D01*
X122956328Y-98586489D01*
X122980127Y-98540494D01*
X122998161Y-98506099D01*
X123011273Y-98481740D01*
X123020308Y-98465854D01*
X123026107Y-98456879D01*
X123029516Y-98453250D01*
X123029808Y-98453097D01*
X123035967Y-98443691D01*
X123035997Y-98442942D01*
X123040157Y-98432624D01*
X123051015Y-98412976D01*
X123064880Y-98390388D01*
X123079794Y-98365822D01*
X123090226Y-98346250D01*
X123093762Y-98336589D01*
X123098561Y-98328245D01*
X123100271Y-98327940D01*
X123107616Y-98321425D01*
X123120255Y-98304456D01*
X123133463Y-98283912D01*
X123150159Y-98257597D01*
X123165736Y-98235082D01*
X123174404Y-98224078D01*
X123187954Y-98207893D01*
X123205599Y-98185394D01*
X123213246Y-98175269D01*
X123230936Y-98152167D01*
X123249822Y-98129124D01*
X123273623Y-98101705D01*
X123295939Y-98076713D01*
X123308333Y-98062845D01*
X123328472Y-98040220D01*
X123353158Y-98012434D01*
X123370208Y-97993218D01*
X123395560Y-97965447D01*
X123429398Y-97929553D01*
X123468427Y-97888970D01*
X123509349Y-97847133D01*
X123539807Y-97816493D01*
X123587252Y-97769446D01*
X123626560Y-97731257D01*
X123661021Y-97698876D01*
X123693926Y-97669253D01*
X123728564Y-97639339D01*
X123753931Y-97617990D01*
X123774404Y-97600831D01*
X123791066Y-97586795D01*
X123806313Y-97574732D01*
X123829651Y-97557162D01*
X123852956Y-97540118D01*
X123876478Y-97522847D01*
X123894293Y-97509182D01*
X123902469Y-97502151D01*
X123910740Y-97495763D01*
X123929843Y-97482625D01*
X123956680Y-97464837D01*
X123979687Y-97449917D01*
X124105153Y-97377123D01*
X124232554Y-97316950D01*
X124263756Y-97303778D01*
X124292425Y-97291669D01*
X124310949Y-97283837D01*
X124341006Y-97272255D01*
X124372659Y-97261861D01*
X124401747Y-97253799D01*
X124424111Y-97249210D01*
X124435590Y-97249238D01*
G37*
G36*
X120864182Y-104664359D02*
G01*
X120878357Y-104684224D01*
X120896416Y-104716917D01*
X120897860Y-104719781D01*
X120912062Y-104747460D01*
X120923684Y-104768961D01*
X120930592Y-104780363D01*
X120931227Y-104781092D01*
X120936610Y-104789670D01*
X120947763Y-104809928D01*
X120963037Y-104838799D01*
X120980091Y-104871865D01*
X121001533Y-104913570D01*
X121024082Y-104956866D01*
X121044550Y-104995654D01*
X121055615Y-105016277D01*
X121074836Y-105051839D01*
X121094867Y-105089113D01*
X121111053Y-105119428D01*
X121128795Y-105152579D01*
X121149138Y-105190214D01*
X121162285Y-105214328D01*
X121177601Y-105242588D01*
X121197640Y-105279994D01*
X121219476Y-105321068D01*
X121235010Y-105350487D01*
X121254910Y-105388204D01*
X121273801Y-105423824D01*
X121289332Y-105452929D01*
X121298017Y-105469023D01*
X121315714Y-105501740D01*
X121340811Y-105548628D01*
X121373066Y-105609231D01*
X121412236Y-105683091D01*
X121430558Y-105717706D01*
X121471196Y-105794404D01*
X121505105Y-105858140D01*
X121533179Y-105910586D01*
X121556318Y-105953415D01*
X121575418Y-105988302D01*
X121580943Y-105998278D01*
X121599218Y-106031796D01*
X121617853Y-106066962D01*
X121629210Y-106089051D01*
X121643152Y-106116036D01*
X121661689Y-106150950D01*
X121681373Y-106187313D01*
X121686321Y-106196329D01*
X121706114Y-106232772D01*
X121726012Y-106270234D01*
X121742366Y-106301827D01*
X121745339Y-106307732D01*
X121759051Y-106334109D01*
X121771210Y-106355653D01*
X121777606Y-106365497D01*
X121787022Y-106381383D01*
X121797344Y-106403858D01*
X121798500Y-106406758D01*
X121814540Y-106436175D01*
X121833147Y-106449809D01*
X121853702Y-106447402D01*
X121868850Y-106436102D01*
X121878047Y-106422757D01*
X121890314Y-106399853D01*
X121903195Y-106372709D01*
X121914233Y-106346642D01*
X121920972Y-106326971D01*
X121921962Y-106321109D01*
X121926206Y-106307230D01*
X121929263Y-106304194D01*
X121936146Y-106293498D01*
X121941248Y-106276888D01*
X121944477Y-106262001D01*
X121949373Y-106240924D01*
X121956492Y-106211350D01*
X121966391Y-106170975D01*
X121979628Y-106117491D01*
X121983616Y-106101430D01*
X121992574Y-106066450D01*
X122001929Y-106031589D01*
X122007841Y-106010656D01*
X122014429Y-105986157D01*
X122023057Y-105951255D01*
X122032326Y-105911688D01*
X122036974Y-105891001D01*
X122045617Y-105853202D01*
X122053969Y-105818931D01*
X122060821Y-105793061D01*
X122063663Y-105783723D01*
X122076034Y-105741383D01*
X122088607Y-105687077D01*
X122095016Y-105654774D01*
X122100351Y-105628457D01*
X122108459Y-105590897D01*
X122118260Y-105546898D01*
X122128674Y-105501267D01*
X122138621Y-105458808D01*
X122144860Y-105433008D01*
X122159491Y-105370978D01*
X122169591Y-105321705D01*
X122174069Y-105294786D01*
X122179744Y-105270097D01*
X122186954Y-105260778D01*
X122195416Y-105265796D01*
X122204846Y-105284118D01*
X122214962Y-105314709D01*
X122225480Y-105356536D01*
X122236116Y-105408566D01*
X122246589Y-105469764D01*
X122256613Y-105539099D01*
X122265908Y-105615535D01*
X122268471Y-105639311D01*
X122280620Y-105775958D01*
X122289472Y-105920055D01*
X122294942Y-106067309D01*
X122296944Y-106213427D01*
X122295393Y-106354113D01*
X122290205Y-106485074D01*
X122286419Y-106542918D01*
X122280229Y-106620810D01*
X122273683Y-106695018D01*
X122266999Y-106763601D01*
X122260394Y-106824614D01*
X122254086Y-106876117D01*
X122248291Y-106916166D01*
X122243227Y-106942819D01*
X122240702Y-106951397D01*
X122236903Y-106965663D01*
X122231927Y-106990583D01*
X122227391Y-107017414D01*
X122215335Y-107088897D01*
X122201754Y-107156261D01*
X122185115Y-107226633D01*
X122169725Y-107285608D01*
X122154548Y-107341328D01*
X122142741Y-107382850D01*
X122133718Y-107411998D01*
X122126893Y-107430597D01*
X122121681Y-107440471D01*
X122119250Y-107442869D01*
X122113104Y-107454008D01*
X122111761Y-107464555D01*
X122108450Y-107481006D01*
X122098784Y-107511388D01*
X122083164Y-107554573D01*
X122061990Y-107609434D01*
X122046296Y-107648700D01*
X122011127Y-107729524D01*
X121969660Y-107814704D01*
X121925251Y-107897698D01*
X121881257Y-107971968D01*
X121876637Y-107979246D01*
X121861800Y-108003082D01*
X121851361Y-108021081D01*
X121847693Y-108029008D01*
X121843139Y-108037802D01*
X121831756Y-108054301D01*
X121827063Y-108060573D01*
X121814119Y-108078961D01*
X121806944Y-108091910D01*
X121806433Y-108093988D01*
X121801898Y-108103581D01*
X121790149Y-108121897D01*
X121777550Y-108139701D01*
X121761990Y-108162359D01*
X121751504Y-108180424D01*
X121748668Y-108188256D01*
X121742933Y-108197025D01*
X121740416Y-108197466D01*
X121733095Y-108204150D01*
X121732164Y-108209844D01*
X121728414Y-108220836D01*
X121725239Y-108222222D01*
X121717806Y-108228986D01*
X121707178Y-108246034D01*
X121702546Y-108255136D01*
X121691733Y-108275073D01*
X121682925Y-108286822D01*
X121680588Y-108288144D01*
X121675001Y-108294905D01*
X121674399Y-108299930D01*
X121670416Y-108312263D01*
X121667724Y-108314371D01*
X121660510Y-108322476D01*
X121648157Y-108340989D01*
X121634109Y-108364571D01*
X121619329Y-108388719D01*
X121606824Y-108405806D01*
X121599524Y-108412021D01*
X121592249Y-108418443D01*
X121591878Y-108421288D01*
X121587388Y-108432126D01*
X121575534Y-108452191D01*
X121558742Y-108477422D01*
X121556148Y-108481116D01*
X121538516Y-108506734D01*
X121514778Y-108542159D01*
X121487670Y-108583260D01*
X121459929Y-108625909D01*
X121451530Y-108638954D01*
X121427439Y-108676220D01*
X121406330Y-108708410D01*
X121389862Y-108733024D01*
X121379698Y-108747568D01*
X121377411Y-108750357D01*
X121370992Y-108758504D01*
X121357523Y-108777497D01*
X121339046Y-108804408D01*
X121319887Y-108832879D01*
X121290269Y-108876793D01*
X121266303Y-108911028D01*
X121244883Y-108939892D01*
X121222899Y-108967693D01*
X121220408Y-108970753D01*
X121213115Y-108982533D01*
X121212281Y-108985784D01*
X121207438Y-108995471D01*
X121201966Y-109002350D01*
X121191469Y-109014389D01*
X121181085Y-109027342D01*
X121168368Y-109044494D01*
X121150874Y-109069129D01*
X121130000Y-109099009D01*
X121110112Y-109126692D01*
X121093393Y-109148340D01*
X121082218Y-109160958D01*
X121079288Y-109162963D01*
X121071844Y-109169654D01*
X121068283Y-109177404D01*
X121060069Y-109192002D01*
X121044871Y-109212244D01*
X121036781Y-109221702D01*
X121014763Y-109247116D01*
X120992876Y-109273531D01*
X120987786Y-109279913D01*
X120968528Y-109303387D01*
X120949219Y-109324209D01*
X120927395Y-109344405D01*
X120900597Y-109366003D01*
X120866362Y-109391030D01*
X120822227Y-109421514D01*
X120787058Y-109445220D01*
X120739381Y-109477256D01*
X120690356Y-109510340D01*
X120643990Y-109541758D01*
X120604291Y-109568797D01*
X120580994Y-109584780D01*
X120531403Y-109618841D01*
X120481267Y-109653013D01*
X120432489Y-109686027D01*
X120386971Y-109716611D01*
X120346614Y-109743494D01*
X120313322Y-109765408D01*
X120288997Y-109781080D01*
X120275540Y-109789240D01*
X120273554Y-109790123D01*
X120265255Y-109794936D01*
X120248483Y-109807358D01*
X120233192Y-109819558D01*
X120213857Y-109834321D01*
X120200765Y-109842249D01*
X120197145Y-109842252D01*
X120193654Y-109841208D01*
X120190956Y-109844478D01*
X120182356Y-109852159D01*
X120163901Y-109866180D01*
X120139120Y-109884085D01*
X120111542Y-109903419D01*
X120084695Y-109921727D01*
X120062108Y-109936554D01*
X120047310Y-109945444D01*
X120043735Y-109946914D01*
X120035199Y-109951293D01*
X120015787Y-109963225D01*
X119988213Y-109980897D01*
X119955190Y-110002498D01*
X119919428Y-110026217D01*
X119883642Y-110050243D01*
X119850542Y-110072764D01*
X119822841Y-110091970D01*
X119803252Y-110106048D01*
X119794487Y-110113189D01*
X119794293Y-110113490D01*
X119785175Y-110120182D01*
X119784554Y-110120208D01*
X119775754Y-110124583D01*
X119755595Y-110136733D01*
X119726394Y-110155196D01*
X119690470Y-110178507D01*
X119653845Y-110202729D01*
X119614022Y-110229141D01*
X119579050Y-110252052D01*
X119551186Y-110270006D01*
X119532687Y-110281547D01*
X119525881Y-110285250D01*
X119517821Y-110289690D01*
X119499149Y-110301746D01*
X119472740Y-110319518D01*
X119444786Y-110338795D01*
X119406215Y-110365108D01*
X119365231Y-110392158D01*
X119327945Y-110415946D01*
X119310169Y-110426826D01*
X119283016Y-110443638D01*
X119261971Y-110457802D01*
X119250616Y-110466870D01*
X119249653Y-110468180D01*
X119240344Y-110475013D01*
X119239580Y-110475049D01*
X119229019Y-110479312D01*
X119210073Y-110490209D01*
X119196944Y-110498663D01*
X119174652Y-110513530D01*
X119144783Y-110533397D01*
X119110815Y-110555958D01*
X119076225Y-110578904D01*
X119044492Y-110599928D01*
X119019095Y-110616724D01*
X119003511Y-110626984D01*
X119002394Y-110627713D01*
X118992068Y-110634497D01*
X118970109Y-110648965D01*
X118938657Y-110669703D01*
X118899854Y-110695302D01*
X118855838Y-110724349D01*
X118832240Y-110739925D01*
X118785849Y-110770420D01*
X118743022Y-110798329D01*
X118706032Y-110822191D01*
X118677151Y-110840543D01*
X118658652Y-110851924D01*
X118654126Y-110854483D01*
X118635711Y-110865854D01*
X118611709Y-110883058D01*
X118598424Y-110893424D01*
X118579307Y-110907763D01*
X118566516Y-110915231D01*
X118563226Y-110915026D01*
X118559736Y-110913983D01*
X118557037Y-110917254D01*
X118548668Y-110924045D01*
X118528347Y-110938389D01*
X118498039Y-110958966D01*
X118459709Y-110984453D01*
X118415319Y-111013529D01*
X118379212Y-111036909D01*
X118298502Y-111088917D01*
X118230169Y-111132928D01*
X118172720Y-111169890D01*
X118124658Y-111200748D01*
X118084490Y-111226448D01*
X118050721Y-111247935D01*
X118021857Y-111266156D01*
X117996403Y-111282057D01*
X117972863Y-111296583D01*
X117949744Y-111310681D01*
X117925551Y-111325295D01*
X117898790Y-111341373D01*
X117885750Y-111349194D01*
X117851822Y-111369983D01*
X117818045Y-111391412D01*
X117790943Y-111409328D01*
X117787654Y-111411597D01*
X117764497Y-111427221D01*
X117745449Y-111439214D01*
X117738142Y-111443254D01*
X117724168Y-111451032D01*
X117702755Y-111464173D01*
X117691139Y-111471625D01*
X117673060Y-111482981D01*
X117643692Y-111500935D01*
X117605972Y-111523715D01*
X117562835Y-111549549D01*
X117517845Y-111576290D01*
X117474651Y-111602115D01*
X117436317Y-111625509D01*
X117405133Y-111645036D01*
X117383391Y-111659258D01*
X117373381Y-111666740D01*
X117373112Y-111667063D01*
X117367551Y-111670732D01*
X117366797Y-111667479D01*
X117363359Y-111665204D01*
X117360481Y-111668662D01*
X117350358Y-111677693D01*
X117330597Y-111691098D01*
X117312937Y-111701671D01*
X117289019Y-111715302D01*
X117255682Y-111734357D01*
X117215202Y-111757529D01*
X117169856Y-111783511D01*
X117121921Y-111810998D01*
X117073673Y-111838681D01*
X117027390Y-111865256D01*
X116985347Y-111889415D01*
X116949822Y-111909852D01*
X116923092Y-111925260D01*
X116907434Y-111934332D01*
X116904678Y-111935956D01*
X116889607Y-111944691D01*
X116862894Y-111959814D01*
X116827357Y-111979758D01*
X116785816Y-112002956D01*
X116741089Y-112027840D01*
X116695994Y-112052844D01*
X116653350Y-112076401D01*
X116615975Y-112096942D01*
X116586688Y-112112901D01*
X116578720Y-112117195D01*
X116525263Y-112146112D01*
X116485262Y-112168342D01*
X116457439Y-112184631D01*
X116440515Y-112195726D01*
X116433385Y-112202112D01*
X116426202Y-112207480D01*
X116425133Y-112207140D01*
X116416822Y-112209605D01*
X116398983Y-112218371D01*
X116384795Y-112226225D01*
X116365594Y-112237154D01*
X116335086Y-112254387D01*
X116296372Y-112276181D01*
X116252554Y-112300787D01*
X116211501Y-112323793D01*
X116157701Y-112353993D01*
X116095255Y-112389178D01*
X116029844Y-112426141D01*
X115967148Y-112461672D01*
X115926803Y-112484609D01*
X115867064Y-112518581D01*
X115817853Y-112546423D01*
X115775390Y-112570235D01*
X115735898Y-112592117D01*
X115695599Y-112614171D01*
X115650712Y-112638496D01*
X115625601Y-112652041D01*
X115599441Y-112666343D01*
X115562923Y-112686588D01*
X115520031Y-112710553D01*
X115474749Y-112736016D01*
X115452307Y-112748700D01*
X115406119Y-112774763D01*
X115364509Y-112798000D01*
X115324222Y-112820175D01*
X115282001Y-112843054D01*
X115234591Y-112868403D01*
X115178737Y-112897987D01*
X115118096Y-112929935D01*
X115085918Y-112947090D01*
X115058901Y-112961920D01*
X115040623Y-112972437D01*
X115035123Y-112976020D01*
X115023356Y-112983131D01*
X114999040Y-112996111D01*
X114964556Y-113013794D01*
X114922286Y-113035018D01*
X114874610Y-113058616D01*
X114823910Y-113083424D01*
X114772567Y-113108277D01*
X114722963Y-113132012D01*
X114677478Y-113153462D01*
X114638495Y-113171463D01*
X114608393Y-113184851D01*
X114606465Y-113185678D01*
X114570330Y-113201355D01*
X114539553Y-113215175D01*
X114517453Y-113225616D01*
X114507440Y-113231082D01*
X114498177Y-113235488D01*
X114475243Y-113245243D01*
X114440328Y-113259661D01*
X114395123Y-113278055D01*
X114341318Y-113299738D01*
X114280602Y-113324024D01*
X114214666Y-113350226D01*
X114193860Y-113358461D01*
X114126087Y-113385293D01*
X114062505Y-113410531D01*
X114004893Y-113433463D01*
X113955031Y-113453379D01*
X113914698Y-113469568D01*
X113885675Y-113481318D01*
X113869740Y-113487918D01*
X113867901Y-113488730D01*
X113851329Y-113496188D01*
X113843145Y-113499550D01*
X113833248Y-113503358D01*
X113817928Y-113509641D01*
X113790219Y-113521025D01*
X113752270Y-113536340D01*
X113706134Y-113554781D01*
X113653863Y-113575544D01*
X113597513Y-113597822D01*
X113539137Y-113620812D01*
X113480788Y-113643707D01*
X113424519Y-113665703D01*
X113372384Y-113685995D01*
X113326438Y-113703777D01*
X113288733Y-113718244D01*
X113261323Y-113728591D01*
X113246261Y-113734014D01*
X113244052Y-113734633D01*
X113240741Y-113729917D01*
X113246879Y-113719478D01*
X113261052Y-113706876D01*
X113273749Y-113699274D01*
X113288037Y-113691713D01*
X113309547Y-113679161D01*
X113319136Y-113673314D01*
X113343270Y-113659137D01*
X113375348Y-113641260D01*
X113408595Y-113623455D01*
X113409909Y-113622768D01*
X113439072Y-113607185D01*
X113463524Y-113593453D01*
X113478677Y-113584165D01*
X113480052Y-113583173D01*
X113496606Y-113571917D01*
X113513060Y-113561948D01*
X113528991Y-113552595D01*
X113554727Y-113537204D01*
X113585991Y-113518341D01*
X113603834Y-113507511D01*
X113638930Y-113486372D01*
X113673424Y-113465953D01*
X113701820Y-113449493D01*
X113711111Y-113444260D01*
X113735348Y-113430537D01*
X113768031Y-113411650D01*
X113803444Y-113390913D01*
X113816545Y-113383167D01*
X113847814Y-113364650D01*
X113874928Y-113348644D01*
X113893906Y-113337499D01*
X113899234Y-113334405D01*
X113948355Y-113305693D01*
X113983143Y-113284120D01*
X114003417Y-113269800D01*
X114006714Y-113266865D01*
X114019361Y-113257614D01*
X114024627Y-113256010D01*
X114034235Y-113251905D01*
X114054389Y-113240861D01*
X114081703Y-113224785D01*
X114100370Y-113213361D01*
X114134062Y-113192648D01*
X114166177Y-113173234D01*
X114191670Y-113158158D01*
X114199752Y-113153534D01*
X114224729Y-113139262D01*
X114256887Y-113120494D01*
X114293499Y-113098868D01*
X114331834Y-113076022D01*
X114369163Y-113053595D01*
X114402758Y-113033226D01*
X114429889Y-113016553D01*
X114447827Y-113005215D01*
X114453801Y-113001003D01*
X114456231Y-112998448D01*
X114460712Y-112995000D01*
X114469497Y-112989255D01*
X114484839Y-112979808D01*
X114508988Y-112965255D01*
X114544199Y-112944191D01*
X114561079Y-112934109D01*
X114639673Y-112886995D01*
X114704420Y-112847784D01*
X114755797Y-112816179D01*
X114794278Y-112791885D01*
X114820342Y-112774604D01*
X114834463Y-112764040D01*
X114834900Y-112763651D01*
X114848988Y-112752625D01*
X114856958Y-112748964D01*
X114865905Y-112745055D01*
X114885168Y-112734234D01*
X114911195Y-112718532D01*
X114921926Y-112711829D01*
X114958907Y-112688681D01*
X114999355Y-112663608D01*
X115034733Y-112641903D01*
X115035842Y-112641228D01*
X115069485Y-112620638D01*
X115104403Y-112598975D01*
X115143774Y-112574245D01*
X115190773Y-112544452D01*
X115246004Y-112509246D01*
X115273799Y-112491906D01*
X115295903Y-112478886D01*
X115309007Y-112472100D01*
X115311098Y-112471597D01*
X115317920Y-112468098D01*
X115319350Y-112466288D01*
X115327864Y-112459312D01*
X115347497Y-112445411D01*
X115375441Y-112426517D01*
X115408887Y-112404559D01*
X115413418Y-112401629D01*
X115443317Y-112382176D01*
X115483894Y-112355559D01*
X115532926Y-112323255D01*
X115588190Y-112286739D01*
X115647464Y-112247488D01*
X115708525Y-112206977D01*
X115769150Y-112166683D01*
X115827116Y-112128082D01*
X115880200Y-112092649D01*
X115926181Y-112061861D01*
X115962835Y-112037193D01*
X115987939Y-112020121D01*
X115988025Y-112020062D01*
X116013257Y-112002810D01*
X116034427Y-111988510D01*
X116045720Y-111981059D01*
X116058738Y-111972135D01*
X116080296Y-111956734D01*
X116105239Y-111938549D01*
X116131320Y-111919827D01*
X116154274Y-111904175D01*
X116168619Y-111895280D01*
X116187285Y-111883279D01*
X116196416Y-111875792D01*
X116210836Y-111864162D01*
X116230797Y-111850302D01*
X116231917Y-111849580D01*
X116250948Y-111836948D01*
X116264259Y-111827370D01*
X116264925Y-111826829D01*
X116274754Y-111819504D01*
X116295055Y-111804907D01*
X116322770Y-111785223D01*
X116351787Y-111764779D01*
X116383353Y-111742248D01*
X116409955Y-111722567D01*
X116428629Y-111707972D01*
X116436245Y-111700989D01*
X116441799Y-111697294D01*
X116442560Y-111700487D01*
X116445926Y-111703122D01*
X116448876Y-111699658D01*
X116458998Y-111689920D01*
X116477667Y-111675689D01*
X116487947Y-111668610D01*
X116514960Y-111650383D01*
X116545732Y-111629271D01*
X116559178Y-111619927D01*
X116585225Y-111601773D01*
X116618131Y-111578911D01*
X116651174Y-111556010D01*
X116654077Y-111554001D01*
X116687274Y-111530977D01*
X116727155Y-111503233D01*
X116766887Y-111475524D01*
X116780897Y-111465732D01*
X116821284Y-111437691D01*
X116866996Y-111406270D01*
X116909879Y-111377065D01*
X116921183Y-111369432D01*
X116950896Y-111349236D01*
X116975232Y-111332350D01*
X116991084Y-111320947D01*
X116995452Y-111317415D01*
X117003458Y-111311359D01*
X117022664Y-111297956D01*
X117050503Y-111278967D01*
X117084409Y-111256152D01*
X117098603Y-111246676D01*
X117134294Y-111222662D01*
X117164996Y-111201554D01*
X117188104Y-111185176D01*
X117201015Y-111175353D01*
X117202703Y-111173723D01*
X117213418Y-111164375D01*
X117224650Y-111157165D01*
X117237366Y-111149157D01*
X117261094Y-111133500D01*
X117293269Y-111111930D01*
X117331327Y-111086184D01*
X117372703Y-111057998D01*
X117414833Y-111029110D01*
X117455154Y-111001255D01*
X117465822Y-110993841D01*
X117496243Y-110972692D01*
X117528920Y-110950010D01*
X117540091Y-110942266D01*
X117562957Y-110925460D01*
X117580991Y-110910500D01*
X117587278Y-110904159D01*
X117595479Y-110896855D01*
X117597593Y-110898295D01*
X117602662Y-110899598D01*
X117608171Y-110895841D01*
X117619916Y-110886600D01*
X117640514Y-110871227D01*
X117663873Y-110854231D01*
X117688210Y-110836625D01*
X117707679Y-110822351D01*
X117717726Y-110814763D01*
X117730132Y-110805855D01*
X117748947Y-110793350D01*
X117750734Y-110792200D01*
X117770274Y-110779106D01*
X117784475Y-110768628D01*
X117785098Y-110768106D01*
X117797772Y-110758383D01*
X117817611Y-110744158D01*
X117824865Y-110739116D01*
X117850142Y-110721089D01*
X117874248Y-110702969D01*
X117878125Y-110699919D01*
X117895819Y-110687547D01*
X117908737Y-110681477D01*
X117909877Y-110681352D01*
X117920344Y-110675915D01*
X117921063Y-110674559D01*
X117928450Y-110667163D01*
X117946401Y-110652242D01*
X117972182Y-110631853D01*
X118003061Y-110608055D01*
X118036305Y-110582902D01*
X118069181Y-110558453D01*
X118098955Y-110536765D01*
X118122895Y-110519895D01*
X118138267Y-110509900D01*
X118142280Y-110508057D01*
X118151924Y-110501961D01*
X118152123Y-110501526D01*
X118159871Y-110493161D01*
X118176524Y-110479164D01*
X118187718Y-110470581D01*
X118218289Y-110447713D01*
X118239306Y-110431515D01*
X118254561Y-110418952D01*
X118267847Y-110406984D01*
X118271846Y-110403218D01*
X118284855Y-110392456D01*
X118291074Y-110390397D01*
X118291160Y-110390840D01*
X118294788Y-110391151D01*
X118297349Y-110388094D01*
X118305360Y-110380515D01*
X118324226Y-110364297D01*
X118351924Y-110341129D01*
X118386434Y-110312696D01*
X118425733Y-110280688D01*
X118435445Y-110272829D01*
X118475782Y-110240177D01*
X118512047Y-110210722D01*
X118542163Y-110186157D01*
X118564054Y-110168178D01*
X118575644Y-110158479D01*
X118576625Y-110157607D01*
X118586823Y-110148419D01*
X118605826Y-110131540D01*
X118630036Y-110110165D01*
X118637377Y-110103704D01*
X118663988Y-110080240D01*
X118687949Y-110059004D01*
X118704861Y-110043901D01*
X118707172Y-110041813D01*
X118721261Y-110029162D01*
X118743901Y-110008976D01*
X118771277Y-109984652D01*
X118785923Y-109971670D01*
X118815443Y-109945409D01*
X118843321Y-109920407D01*
X118865191Y-109900590D01*
X118872024Y-109894302D01*
X118886850Y-109880507D01*
X118910991Y-109858021D01*
X118941695Y-109829411D01*
X118976206Y-109797242D01*
X118996015Y-109778773D01*
X119032998Y-109744307D01*
X119069196Y-109710605D01*
X119101364Y-109680687D01*
X119126255Y-109657573D01*
X119134605Y-109649838D01*
X119159046Y-109627028D01*
X119190099Y-109597767D01*
X119222480Y-109567044D01*
X119235168Y-109554938D01*
X119264133Y-109527454D01*
X119300949Y-109492822D01*
X119341319Y-109455069D01*
X119380947Y-109418220D01*
X119389257Y-109410526D01*
X119424985Y-109377383D01*
X119459395Y-109345300D01*
X119489282Y-109317276D01*
X119511441Y-109296310D01*
X119517113Y-109290871D01*
X119540963Y-109268217D01*
X119570669Y-109240512D01*
X119599813Y-109213742D01*
X119599905Y-109213658D01*
X119622344Y-109193070D01*
X119653058Y-109164644D01*
X119689479Y-109130780D01*
X119729043Y-109093877D01*
X119769183Y-109056334D01*
X119807333Y-109020552D01*
X119840929Y-108988929D01*
X119867404Y-108963866D01*
X119883529Y-108948408D01*
X119897618Y-108935079D01*
X119920849Y-108913514D01*
X119950135Y-108886565D01*
X119982390Y-108857081D01*
X119986312Y-108853509D01*
X120025264Y-108817731D01*
X120067875Y-108778076D01*
X120108492Y-108739830D01*
X120136351Y-108713223D01*
X120162266Y-108688230D01*
X120197350Y-108654394D01*
X120238893Y-108614329D01*
X120284184Y-108570648D01*
X120330515Y-108525965D01*
X120354539Y-108502794D01*
X120401618Y-108457314D01*
X120450260Y-108410195D01*
X120497442Y-108364372D01*
X120540145Y-108322780D01*
X120575346Y-108288356D01*
X120588062Y-108275861D01*
X120625725Y-108239332D01*
X120666459Y-108200751D01*
X120705377Y-108164698D01*
X120737593Y-108135749D01*
X120737792Y-108135575D01*
X120772904Y-108104797D01*
X120798199Y-108082410D01*
X120816256Y-108065904D01*
X120829653Y-108052773D01*
X120840968Y-108040508D01*
X120852779Y-108026601D01*
X120864863Y-108011945D01*
X120887237Y-107981205D01*
X120896792Y-107957121D01*
X120893944Y-107936482D01*
X120879107Y-107916081D01*
X120877462Y-107914410D01*
X120861781Y-107902909D01*
X120836229Y-107888267D01*
X120805473Y-107872706D01*
X120774178Y-107858450D01*
X120747010Y-107847721D01*
X120728635Y-107842740D01*
X120726748Y-107842625D01*
X120711018Y-107838922D01*
X120683268Y-107828626D01*
X120646013Y-107812953D01*
X120601772Y-107793123D01*
X120553061Y-107770353D01*
X120502399Y-107745860D01*
X120452302Y-107720864D01*
X120405288Y-107696580D01*
X120363874Y-107674229D01*
X120330577Y-107655026D01*
X120307915Y-107640191D01*
X120307162Y-107639628D01*
X120289181Y-107627042D01*
X120276921Y-107620220D01*
X120275259Y-107619818D01*
X120266496Y-107615333D01*
X120248773Y-107603846D01*
X120226294Y-107588305D01*
X120203266Y-107571660D01*
X120183892Y-107556861D01*
X120175492Y-107549844D01*
X120162471Y-107539291D01*
X120143976Y-107525409D01*
X120143300Y-107524919D01*
X120121460Y-107507824D01*
X120093434Y-107484027D01*
X120061516Y-107455691D01*
X120028001Y-107424983D01*
X119995183Y-107394066D01*
X119965357Y-107365107D01*
X119940818Y-107340270D01*
X119923860Y-107321719D01*
X119916777Y-107311622D01*
X119916699Y-107311111D01*
X119911650Y-107302080D01*
X119902258Y-107290974D01*
X119884486Y-107270426D01*
X119862677Y-107242733D01*
X119839958Y-107212175D01*
X119819458Y-107183029D01*
X119804302Y-107159575D01*
X119798816Y-107149448D01*
X119791242Y-107135177D01*
X119778646Y-107113690D01*
X119772744Y-107104061D01*
X119756695Y-107075988D01*
X119739900Y-107043259D01*
X119733568Y-107029792D01*
X119718600Y-106997751D01*
X119701109Y-106961784D01*
X119692025Y-106943698D01*
X119679901Y-106918954D01*
X119671603Y-106900114D01*
X119669136Y-106892348D01*
X119665970Y-106881929D01*
X119657722Y-106861268D01*
X119647652Y-106838156D01*
X119634774Y-106809252D01*
X119623554Y-106783503D01*
X119617806Y-106769851D01*
X119608547Y-106748377D01*
X119602156Y-106734891D01*
X119595939Y-106718266D01*
X119594867Y-106711382D01*
X119591696Y-106698066D01*
X119583981Y-106678027D01*
X119583169Y-106676198D01*
X119571484Y-106646850D01*
X119556307Y-106603287D01*
X119538240Y-106547280D01*
X119525860Y-106507116D01*
X119517085Y-106474016D01*
X119508458Y-106434768D01*
X119503572Y-106408091D01*
X119497668Y-106374351D01*
X119491386Y-106342538D01*
X119486997Y-106323279D01*
X119481682Y-106295706D01*
X119479342Y-106269972D01*
X119479337Y-106269047D01*
X119476726Y-106245770D01*
X119470196Y-106217133D01*
X119467481Y-106208114D01*
X119461327Y-106183000D01*
X119454497Y-106145049D01*
X119447415Y-106097891D01*
X119440506Y-106045156D01*
X119434194Y-105990474D01*
X119428905Y-105937477D01*
X119425064Y-105889794D01*
X119423094Y-105851055D01*
X119423140Y-105829193D01*
X119425375Y-105799256D01*
X119429239Y-105782193D01*
X119435858Y-105774378D01*
X119440657Y-105772786D01*
X119454356Y-105777506D01*
X119476526Y-105794275D01*
X119505857Y-105821851D01*
X119541041Y-105858989D01*
X119580766Y-105904445D01*
X119586615Y-105911401D01*
X119608120Y-105936907D01*
X119629350Y-105961601D01*
X119653683Y-105989355D01*
X119684494Y-106024045D01*
X119698018Y-106039197D01*
X119710650Y-106053419D01*
X119730804Y-106076198D01*
X119755094Y-106103705D01*
X119768161Y-106118522D01*
X119800280Y-106153867D01*
X119838719Y-106194449D01*
X119880744Y-106237547D01*
X119923619Y-106280438D01*
X119964611Y-106320400D01*
X120000985Y-106354710D01*
X120030006Y-106380646D01*
X120038767Y-106387924D01*
X120060081Y-106405206D01*
X120075825Y-106418266D01*
X120081741Y-106423475D01*
X120091578Y-106431686D01*
X120110077Y-106445769D01*
X120132369Y-106462144D01*
X120153587Y-106477233D01*
X120168421Y-106487184D01*
X120188965Y-106498906D01*
X120221298Y-106516053D01*
X120262259Y-106537061D01*
X120308687Y-106560365D01*
X120357421Y-106584402D01*
X120405299Y-106607605D01*
X120449160Y-106628412D01*
X120485842Y-106645256D01*
X120503150Y-106652836D01*
X120610490Y-106690424D01*
X120721607Y-106713151D01*
X120838913Y-106721483D01*
X120857440Y-106721519D01*
X120910723Y-106720948D01*
X120950437Y-106719809D01*
X120979515Y-106717737D01*
X121000891Y-106714365D01*
X121017500Y-106709329D01*
X121032274Y-106702262D01*
X121037933Y-106699017D01*
X121064575Y-106683279D01*
X121059180Y-106596594D01*
X121056182Y-106556385D01*
X121052502Y-106518685D01*
X121048704Y-106488860D01*
X121046588Y-106476901D01*
X121042046Y-106447331D01*
X121039424Y-106413452D01*
X121039188Y-106403343D01*
X121037645Y-106375579D01*
X121033741Y-106338683D01*
X121028250Y-106299727D01*
X121026967Y-106291940D01*
X121023830Y-106271976D01*
X121020239Y-106246142D01*
X121016068Y-106213306D01*
X121011193Y-106172338D01*
X121005487Y-106122106D01*
X120998826Y-106061478D01*
X120991083Y-105989323D01*
X120982133Y-105904510D01*
X120971851Y-105805907D01*
X120960110Y-105692382D01*
X120955919Y-105651689D01*
X120951740Y-105611331D01*
X120946747Y-105563495D01*
X120941874Y-105517115D01*
X120940835Y-105507277D01*
X120936541Y-105464977D01*
X120931613Y-105413828D01*
X120926774Y-105361430D01*
X120923980Y-105329857D01*
X120920247Y-105289161D01*
X120916528Y-105252823D01*
X120913266Y-105224960D01*
X120911022Y-105210201D01*
X120908300Y-105193264D01*
X120904578Y-105164625D01*
X120900447Y-105129008D01*
X120898101Y-105107050D01*
X120893340Y-105061121D01*
X120888149Y-105011263D01*
X120883443Y-104966254D01*
X120882196Y-104954386D01*
X120877866Y-104912747D01*
X120872811Y-104863468D01*
X120867932Y-104815332D01*
X120866567Y-104801722D01*
X120862376Y-104762460D01*
X120857994Y-104725728D01*
X120854098Y-104697044D01*
X120852491Y-104687148D01*
X120850496Y-104665279D01*
X120854644Y-104657864D01*
X120864182Y-104664359D01*
G37*
D14*
%TO.C,J8*%
X82045000Y-83810000D02*
X82045000Y-83830000D01*
X82045000Y-90820000D02*
X82045000Y-90840000D01*
X82045000Y-90840000D02*
X82545000Y-90840000D01*
X82545000Y-83810000D02*
X82045000Y-83810000D01*
X82545000Y-90840000D02*
X82545000Y-83810000D01*
X83560000Y-92260000D02*
X86635000Y-92260000D01*
X86635000Y-82390000D02*
X83560000Y-82390000D01*
X86635000Y-92260000D02*
X86635000Y-82390000D01*
%TO.C,F2*%
X106510000Y-116740000D02*
X106510000Y-112760000D01*
X111490000Y-116740000D02*
X111490000Y-112760000D01*
%TO.C,J7*%
X139665000Y-74335000D02*
X139665000Y-77410000D01*
X139665000Y-77410000D02*
X149535000Y-77410000D01*
X141085000Y-72820000D02*
X141085000Y-73320000D01*
X141085000Y-73320000D02*
X148115000Y-73320000D01*
X141105000Y-72820000D02*
X141085000Y-72820000D01*
X148115000Y-72820000D02*
X148095000Y-72820000D01*
X148115000Y-73320000D02*
X148115000Y-72820000D01*
X149535000Y-77410000D02*
X149535000Y-74335000D01*
%TO.C,J10*%
X117365000Y-122490000D02*
X117365000Y-125565000D01*
X118785000Y-126580000D02*
X118785000Y-127080000D01*
X118785000Y-127080000D02*
X118805000Y-127080000D01*
X125795000Y-127080000D02*
X125815000Y-127080000D01*
X125815000Y-126580000D02*
X118785000Y-126580000D01*
X125815000Y-127080000D02*
X125815000Y-126580000D01*
X127235000Y-122490000D02*
X117365000Y-122490000D01*
X127235000Y-125565000D02*
X127235000Y-122490000D01*
%TO.C,J12*%
X144990000Y-96665000D02*
X144990000Y-106535000D01*
X144990000Y-106535000D02*
X148065000Y-106535000D01*
X148065000Y-96665000D02*
X144990000Y-96665000D01*
X149080000Y-98085000D02*
X149080000Y-105115000D01*
X149080000Y-105115000D02*
X149580000Y-105115000D01*
X149580000Y-98085000D02*
X149080000Y-98085000D01*
X149580000Y-98105000D02*
X149580000Y-98085000D01*
X149580000Y-105115000D02*
X149580000Y-105095000D01*
%TO.C,J6*%
X133265000Y-122505000D02*
X133265000Y-125580000D01*
X134685000Y-126595000D02*
X134685000Y-127095000D01*
X134685000Y-127095000D02*
X134705000Y-127095000D01*
X141695000Y-127095000D02*
X141715000Y-127095000D01*
X141715000Y-126595000D02*
X134685000Y-126595000D01*
X141715000Y-127095000D02*
X141715000Y-126595000D01*
X143135000Y-122505000D02*
X133265000Y-122505000D01*
X143135000Y-125580000D02*
X143135000Y-122505000D01*
%TO.C,J11*%
X94765000Y-71470000D02*
X95765000Y-70470000D01*
X94765000Y-80590000D02*
X94765000Y-71470000D01*
X94765000Y-80590000D02*
X97190000Y-80590000D01*
X95765000Y-70470000D02*
X103635000Y-70470000D01*
X99210000Y-80590000D02*
X100548233Y-80590000D01*
X103635000Y-70470000D02*
X104635000Y-71470000D01*
X104635000Y-71470000D02*
X104635000Y-80590000D01*
X104635000Y-80590000D02*
X101851767Y-80590000D01*
%TD*%
M02*
