M48
; DRILL file {KiCad 9.0.2} date 2025-06-10T12:21:54+0800
; FORMAT={-:-/ absolute / inch / decimal}
; #@! TF.CreationDate,2025-06-10T12:21:54+08:00
; #@! TF.GenerationSoftware,Kicad,Pcbnew,9.0.2
; #@! TF.FileFunction,Plated,1,2,PTH
FMAT,2
INCH
; #@! TA.AperFunction,Plated,PTH,ComponentDrill
T1C0.0402
%
G90
G05
T1
X3.3291Y-4.3858
X3.3291Y-4.5039
X3.3317Y-3.3789
X3.3317Y-3.497
X3.3321Y-3.878
X3.3321Y-3.9961
X3.8661Y-3.1299
X3.9843Y-3.1299
X4.4528Y-3.1299
X4.5709Y-3.1299
X4.7559Y-4.9016
X4.874Y-4.9016
X5.0512Y-2.9724
X5.1693Y-2.9724
X5.3819Y-4.9022
X5.5Y-4.9022
X5.6339Y-2.9685
X5.752Y-2.9685
X5.7874Y-3.9409
X5.7874Y-4.0591
M30
