%TF.GenerationSoftware,KiCad,Pcbnew,9.0.2*%
%TF.CreationDate,2025-06-10T12:21:51+08:00*%
%TF.ProjectId,BDU_TS,4244555f-5453-42e6-9b69-6361645f7063,rev?*%
%TF.SameCoordinates,Original*%
%TF.FileFunction,Legend,Bot*%
%TF.FilePolarity,Positive*%
%FSLAX46Y46*%
G04 Gerber Fmt 4.6, Leading zero omitted, Abs format (unit mm)*
G04 Created by KiCad (PCBNEW 9.0.2) date 2025-06-10 12:21:51*
%MOMM*%
%LPD*%
G01*
G04 APERTURE LIST*
%ADD10C,0.100000*%
G04 APERTURE END LIST*
D10*
X80500000Y-70400000D02*
X89600000Y-70400000D01*
X89600000Y-79500000D01*
X80500000Y-79500000D01*
X80500000Y-70400000D01*
G36*
X80500000Y-70400000D02*
G01*
X89600000Y-70400000D01*
X89600000Y-79500000D01*
X80500000Y-79500000D01*
X80500000Y-70400000D01*
G37*
X153700000Y-70450000D02*
X162800000Y-70450000D01*
X162800000Y-79550000D01*
X153700000Y-79550000D01*
X153700000Y-70450000D01*
G36*
X153700000Y-70450000D02*
G01*
X162800000Y-70450000D01*
X162800000Y-79550000D01*
X153700000Y-79550000D01*
X153700000Y-70450000D01*
G37*
X153700000Y-120450000D02*
X162800000Y-120450000D01*
X162800000Y-129550000D01*
X153700000Y-129550000D01*
X153700000Y-120450000D01*
G36*
X153700000Y-120450000D02*
G01*
X162800000Y-120450000D01*
X162800000Y-129550000D01*
X153700000Y-129550000D01*
X153700000Y-120450000D01*
G37*
X80500000Y-120400000D02*
X89600000Y-120400000D01*
X89600000Y-129500000D01*
X80500000Y-129500000D01*
X80500000Y-120400000D01*
G36*
X80500000Y-120400000D02*
G01*
X89600000Y-120400000D01*
X89600000Y-129500000D01*
X80500000Y-129500000D01*
X80500000Y-120400000D01*
G37*
M02*
