%TF.GenerationSoftware,KiCad,Pcbnew,9.0.0*%
%TF.CreationDate,2025-10-29T06:17:34+08:00*%
%TF.ProjectId,TSAL_G_V4_2,5453414c-5f47-45f5-9634-5f322e6b6963,rev?*%
%TF.SameCoordinates,Original*%
%TF.FileFunction,Legend,Bot*%
%TF.FilePolarity,Positive*%
%FSLAX46Y46*%
G04 Gerber Fmt 4.6, Leading zero omitted, Abs format (unit mm)*
G04 Created by KiCad (PCBNEW 9.0.0) date 2025-10-29 06:17:34*
%MOMM*%
%LPD*%
G01*
G04 APERTURE LIST*
%ADD10C,0.150000*%
%ADD11C,0.120000*%
G04 APERTURE END LIST*
D10*
X111142857Y-71539580D02*
X111190476Y-71587200D01*
X111190476Y-71587200D02*
X111333333Y-71634819D01*
X111333333Y-71634819D02*
X111428571Y-71634819D01*
X111428571Y-71634819D02*
X111571428Y-71587200D01*
X111571428Y-71587200D02*
X111666666Y-71491961D01*
X111666666Y-71491961D02*
X111714285Y-71396723D01*
X111714285Y-71396723D02*
X111761904Y-71206247D01*
X111761904Y-71206247D02*
X111761904Y-71063390D01*
X111761904Y-71063390D02*
X111714285Y-70872914D01*
X111714285Y-70872914D02*
X111666666Y-70777676D01*
X111666666Y-70777676D02*
X111571428Y-70682438D01*
X111571428Y-70682438D02*
X111428571Y-70634819D01*
X111428571Y-70634819D02*
X111333333Y-70634819D01*
X111333333Y-70634819D02*
X111190476Y-70682438D01*
X111190476Y-70682438D02*
X111142857Y-70730057D01*
X110190476Y-71634819D02*
X110761904Y-71634819D01*
X110476190Y-71634819D02*
X110476190Y-70634819D01*
X110476190Y-70634819D02*
X110571428Y-70777676D01*
X110571428Y-70777676D02*
X110666666Y-70872914D01*
X110666666Y-70872914D02*
X110761904Y-70920533D01*
X109333333Y-70968152D02*
X109333333Y-71634819D01*
X109571428Y-70587200D02*
X109809523Y-71301485D01*
X109809523Y-71301485D02*
X109190476Y-71301485D01*
X142642857Y-83454819D02*
X142976190Y-82978628D01*
X143214285Y-83454819D02*
X143214285Y-82454819D01*
X143214285Y-82454819D02*
X142833333Y-82454819D01*
X142833333Y-82454819D02*
X142738095Y-82502438D01*
X142738095Y-82502438D02*
X142690476Y-82550057D01*
X142690476Y-82550057D02*
X142642857Y-82645295D01*
X142642857Y-82645295D02*
X142642857Y-82788152D01*
X142642857Y-82788152D02*
X142690476Y-82883390D01*
X142690476Y-82883390D02*
X142738095Y-82931009D01*
X142738095Y-82931009D02*
X142833333Y-82978628D01*
X142833333Y-82978628D02*
X143214285Y-82978628D01*
X141690476Y-83454819D02*
X142261904Y-83454819D01*
X141976190Y-83454819D02*
X141976190Y-82454819D01*
X141976190Y-82454819D02*
X142071428Y-82597676D01*
X142071428Y-82597676D02*
X142166666Y-82692914D01*
X142166666Y-82692914D02*
X142261904Y-82740533D01*
X141309523Y-82550057D02*
X141261904Y-82502438D01*
X141261904Y-82502438D02*
X141166666Y-82454819D01*
X141166666Y-82454819D02*
X140928571Y-82454819D01*
X140928571Y-82454819D02*
X140833333Y-82502438D01*
X140833333Y-82502438D02*
X140785714Y-82550057D01*
X140785714Y-82550057D02*
X140738095Y-82645295D01*
X140738095Y-82645295D02*
X140738095Y-82740533D01*
X140738095Y-82740533D02*
X140785714Y-82883390D01*
X140785714Y-82883390D02*
X141357142Y-83454819D01*
X141357142Y-83454819D02*
X140738095Y-83454819D01*
X137795357Y-60604819D02*
X138128690Y-60128628D01*
X138366785Y-60604819D02*
X138366785Y-59604819D01*
X138366785Y-59604819D02*
X137985833Y-59604819D01*
X137985833Y-59604819D02*
X137890595Y-59652438D01*
X137890595Y-59652438D02*
X137842976Y-59700057D01*
X137842976Y-59700057D02*
X137795357Y-59795295D01*
X137795357Y-59795295D02*
X137795357Y-59938152D01*
X137795357Y-59938152D02*
X137842976Y-60033390D01*
X137842976Y-60033390D02*
X137890595Y-60081009D01*
X137890595Y-60081009D02*
X137985833Y-60128628D01*
X137985833Y-60128628D02*
X138366785Y-60128628D01*
X137462023Y-59604819D02*
X136842976Y-59604819D01*
X136842976Y-59604819D02*
X137176309Y-59985771D01*
X137176309Y-59985771D02*
X137033452Y-59985771D01*
X137033452Y-59985771D02*
X136938214Y-60033390D01*
X136938214Y-60033390D02*
X136890595Y-60081009D01*
X136890595Y-60081009D02*
X136842976Y-60176247D01*
X136842976Y-60176247D02*
X136842976Y-60414342D01*
X136842976Y-60414342D02*
X136890595Y-60509580D01*
X136890595Y-60509580D02*
X136938214Y-60557200D01*
X136938214Y-60557200D02*
X137033452Y-60604819D01*
X137033452Y-60604819D02*
X137319166Y-60604819D01*
X137319166Y-60604819D02*
X137414404Y-60557200D01*
X137414404Y-60557200D02*
X137462023Y-60509580D01*
X136509642Y-59604819D02*
X135890595Y-59604819D01*
X135890595Y-59604819D02*
X136223928Y-59985771D01*
X136223928Y-59985771D02*
X136081071Y-59985771D01*
X136081071Y-59985771D02*
X135985833Y-60033390D01*
X135985833Y-60033390D02*
X135938214Y-60081009D01*
X135938214Y-60081009D02*
X135890595Y-60176247D01*
X135890595Y-60176247D02*
X135890595Y-60414342D01*
X135890595Y-60414342D02*
X135938214Y-60509580D01*
X135938214Y-60509580D02*
X135985833Y-60557200D01*
X135985833Y-60557200D02*
X136081071Y-60604819D01*
X136081071Y-60604819D02*
X136366785Y-60604819D01*
X136366785Y-60604819D02*
X136462023Y-60557200D01*
X136462023Y-60557200D02*
X136509642Y-60509580D01*
X109642857Y-81954819D02*
X109976190Y-81478628D01*
X110214285Y-81954819D02*
X110214285Y-80954819D01*
X110214285Y-80954819D02*
X109833333Y-80954819D01*
X109833333Y-80954819D02*
X109738095Y-81002438D01*
X109738095Y-81002438D02*
X109690476Y-81050057D01*
X109690476Y-81050057D02*
X109642857Y-81145295D01*
X109642857Y-81145295D02*
X109642857Y-81288152D01*
X109642857Y-81288152D02*
X109690476Y-81383390D01*
X109690476Y-81383390D02*
X109738095Y-81431009D01*
X109738095Y-81431009D02*
X109833333Y-81478628D01*
X109833333Y-81478628D02*
X110214285Y-81478628D01*
X109309523Y-80954819D02*
X108690476Y-80954819D01*
X108690476Y-80954819D02*
X109023809Y-81335771D01*
X109023809Y-81335771D02*
X108880952Y-81335771D01*
X108880952Y-81335771D02*
X108785714Y-81383390D01*
X108785714Y-81383390D02*
X108738095Y-81431009D01*
X108738095Y-81431009D02*
X108690476Y-81526247D01*
X108690476Y-81526247D02*
X108690476Y-81764342D01*
X108690476Y-81764342D02*
X108738095Y-81859580D01*
X108738095Y-81859580D02*
X108785714Y-81907200D01*
X108785714Y-81907200D02*
X108880952Y-81954819D01*
X108880952Y-81954819D02*
X109166666Y-81954819D01*
X109166666Y-81954819D02*
X109261904Y-81907200D01*
X109261904Y-81907200D02*
X109309523Y-81859580D01*
X107833333Y-80954819D02*
X108023809Y-80954819D01*
X108023809Y-80954819D02*
X108119047Y-81002438D01*
X108119047Y-81002438D02*
X108166666Y-81050057D01*
X108166666Y-81050057D02*
X108261904Y-81192914D01*
X108261904Y-81192914D02*
X108309523Y-81383390D01*
X108309523Y-81383390D02*
X108309523Y-81764342D01*
X108309523Y-81764342D02*
X108261904Y-81859580D01*
X108261904Y-81859580D02*
X108214285Y-81907200D01*
X108214285Y-81907200D02*
X108119047Y-81954819D01*
X108119047Y-81954819D02*
X107928571Y-81954819D01*
X107928571Y-81954819D02*
X107833333Y-81907200D01*
X107833333Y-81907200D02*
X107785714Y-81859580D01*
X107785714Y-81859580D02*
X107738095Y-81764342D01*
X107738095Y-81764342D02*
X107738095Y-81526247D01*
X107738095Y-81526247D02*
X107785714Y-81431009D01*
X107785714Y-81431009D02*
X107833333Y-81383390D01*
X107833333Y-81383390D02*
X107928571Y-81335771D01*
X107928571Y-81335771D02*
X108119047Y-81335771D01*
X108119047Y-81335771D02*
X108214285Y-81383390D01*
X108214285Y-81383390D02*
X108261904Y-81431009D01*
X108261904Y-81431009D02*
X108309523Y-81526247D01*
X138039580Y-70857142D02*
X138087200Y-70809523D01*
X138087200Y-70809523D02*
X138134819Y-70666666D01*
X138134819Y-70666666D02*
X138134819Y-70571428D01*
X138134819Y-70571428D02*
X138087200Y-70428571D01*
X138087200Y-70428571D02*
X137991961Y-70333333D01*
X137991961Y-70333333D02*
X137896723Y-70285714D01*
X137896723Y-70285714D02*
X137706247Y-70238095D01*
X137706247Y-70238095D02*
X137563390Y-70238095D01*
X137563390Y-70238095D02*
X137372914Y-70285714D01*
X137372914Y-70285714D02*
X137277676Y-70333333D01*
X137277676Y-70333333D02*
X137182438Y-70428571D01*
X137182438Y-70428571D02*
X137134819Y-70571428D01*
X137134819Y-70571428D02*
X137134819Y-70666666D01*
X137134819Y-70666666D02*
X137182438Y-70809523D01*
X137182438Y-70809523D02*
X137230057Y-70857142D01*
X138134819Y-71809523D02*
X138134819Y-71238095D01*
X138134819Y-71523809D02*
X137134819Y-71523809D01*
X137134819Y-71523809D02*
X137277676Y-71428571D01*
X137277676Y-71428571D02*
X137372914Y-71333333D01*
X137372914Y-71333333D02*
X137420533Y-71238095D01*
X137134819Y-72714285D02*
X137134819Y-72238095D01*
X137134819Y-72238095D02*
X137611009Y-72190476D01*
X137611009Y-72190476D02*
X137563390Y-72238095D01*
X137563390Y-72238095D02*
X137515771Y-72333333D01*
X137515771Y-72333333D02*
X137515771Y-72571428D01*
X137515771Y-72571428D02*
X137563390Y-72666666D01*
X137563390Y-72666666D02*
X137611009Y-72714285D01*
X137611009Y-72714285D02*
X137706247Y-72761904D01*
X137706247Y-72761904D02*
X137944342Y-72761904D01*
X137944342Y-72761904D02*
X138039580Y-72714285D01*
X138039580Y-72714285D02*
X138087200Y-72666666D01*
X138087200Y-72666666D02*
X138134819Y-72571428D01*
X138134819Y-72571428D02*
X138134819Y-72333333D01*
X138134819Y-72333333D02*
X138087200Y-72238095D01*
X138087200Y-72238095D02*
X138039580Y-72190476D01*
X119359580Y-57357142D02*
X119407200Y-57309523D01*
X119407200Y-57309523D02*
X119454819Y-57166666D01*
X119454819Y-57166666D02*
X119454819Y-57071428D01*
X119454819Y-57071428D02*
X119407200Y-56928571D01*
X119407200Y-56928571D02*
X119311961Y-56833333D01*
X119311961Y-56833333D02*
X119216723Y-56785714D01*
X119216723Y-56785714D02*
X119026247Y-56738095D01*
X119026247Y-56738095D02*
X118883390Y-56738095D01*
X118883390Y-56738095D02*
X118692914Y-56785714D01*
X118692914Y-56785714D02*
X118597676Y-56833333D01*
X118597676Y-56833333D02*
X118502438Y-56928571D01*
X118502438Y-56928571D02*
X118454819Y-57071428D01*
X118454819Y-57071428D02*
X118454819Y-57166666D01*
X118454819Y-57166666D02*
X118502438Y-57309523D01*
X118502438Y-57309523D02*
X118550057Y-57357142D01*
X119454819Y-58309523D02*
X119454819Y-57738095D01*
X119454819Y-58023809D02*
X118454819Y-58023809D01*
X118454819Y-58023809D02*
X118597676Y-57928571D01*
X118597676Y-57928571D02*
X118692914Y-57833333D01*
X118692914Y-57833333D02*
X118740533Y-57738095D01*
X118454819Y-58642857D02*
X118454819Y-59309523D01*
X118454819Y-59309523D02*
X119454819Y-58880952D01*
X69166666Y-76679580D02*
X69214285Y-76727200D01*
X69214285Y-76727200D02*
X69357142Y-76774819D01*
X69357142Y-76774819D02*
X69452380Y-76774819D01*
X69452380Y-76774819D02*
X69595237Y-76727200D01*
X69595237Y-76727200D02*
X69690475Y-76631961D01*
X69690475Y-76631961D02*
X69738094Y-76536723D01*
X69738094Y-76536723D02*
X69785713Y-76346247D01*
X69785713Y-76346247D02*
X69785713Y-76203390D01*
X69785713Y-76203390D02*
X69738094Y-76012914D01*
X69738094Y-76012914D02*
X69690475Y-75917676D01*
X69690475Y-75917676D02*
X69595237Y-75822438D01*
X69595237Y-75822438D02*
X69452380Y-75774819D01*
X69452380Y-75774819D02*
X69357142Y-75774819D01*
X69357142Y-75774819D02*
X69214285Y-75822438D01*
X69214285Y-75822438D02*
X69166666Y-75870057D01*
X68309523Y-75774819D02*
X68499999Y-75774819D01*
X68499999Y-75774819D02*
X68595237Y-75822438D01*
X68595237Y-75822438D02*
X68642856Y-75870057D01*
X68642856Y-75870057D02*
X68738094Y-76012914D01*
X68738094Y-76012914D02*
X68785713Y-76203390D01*
X68785713Y-76203390D02*
X68785713Y-76584342D01*
X68785713Y-76584342D02*
X68738094Y-76679580D01*
X68738094Y-76679580D02*
X68690475Y-76727200D01*
X68690475Y-76727200D02*
X68595237Y-76774819D01*
X68595237Y-76774819D02*
X68404761Y-76774819D01*
X68404761Y-76774819D02*
X68309523Y-76727200D01*
X68309523Y-76727200D02*
X68261904Y-76679580D01*
X68261904Y-76679580D02*
X68214285Y-76584342D01*
X68214285Y-76584342D02*
X68214285Y-76346247D01*
X68214285Y-76346247D02*
X68261904Y-76251009D01*
X68261904Y-76251009D02*
X68309523Y-76203390D01*
X68309523Y-76203390D02*
X68404761Y-76155771D01*
X68404761Y-76155771D02*
X68595237Y-76155771D01*
X68595237Y-76155771D02*
X68690475Y-76203390D01*
X68690475Y-76203390D02*
X68738094Y-76251009D01*
X68738094Y-76251009D02*
X68785713Y-76346247D01*
X95604819Y-54857142D02*
X95128628Y-54523809D01*
X95604819Y-54285714D02*
X94604819Y-54285714D01*
X94604819Y-54285714D02*
X94604819Y-54666666D01*
X94604819Y-54666666D02*
X94652438Y-54761904D01*
X94652438Y-54761904D02*
X94700057Y-54809523D01*
X94700057Y-54809523D02*
X94795295Y-54857142D01*
X94795295Y-54857142D02*
X94938152Y-54857142D01*
X94938152Y-54857142D02*
X95033390Y-54809523D01*
X95033390Y-54809523D02*
X95081009Y-54761904D01*
X95081009Y-54761904D02*
X95128628Y-54666666D01*
X95128628Y-54666666D02*
X95128628Y-54285714D01*
X94938152Y-55714285D02*
X95604819Y-55714285D01*
X94557200Y-55476190D02*
X95271485Y-55238095D01*
X95271485Y-55238095D02*
X95271485Y-55857142D01*
X94604819Y-56714285D02*
X94604819Y-56238095D01*
X94604819Y-56238095D02*
X95081009Y-56190476D01*
X95081009Y-56190476D02*
X95033390Y-56238095D01*
X95033390Y-56238095D02*
X94985771Y-56333333D01*
X94985771Y-56333333D02*
X94985771Y-56571428D01*
X94985771Y-56571428D02*
X95033390Y-56666666D01*
X95033390Y-56666666D02*
X95081009Y-56714285D01*
X95081009Y-56714285D02*
X95176247Y-56761904D01*
X95176247Y-56761904D02*
X95414342Y-56761904D01*
X95414342Y-56761904D02*
X95509580Y-56714285D01*
X95509580Y-56714285D02*
X95557200Y-56666666D01*
X95557200Y-56666666D02*
X95604819Y-56571428D01*
X95604819Y-56571428D02*
X95604819Y-56333333D01*
X95604819Y-56333333D02*
X95557200Y-56238095D01*
X95557200Y-56238095D02*
X95509580Y-56190476D01*
X110359580Y-57309642D02*
X110407200Y-57262023D01*
X110407200Y-57262023D02*
X110454819Y-57119166D01*
X110454819Y-57119166D02*
X110454819Y-57023928D01*
X110454819Y-57023928D02*
X110407200Y-56881071D01*
X110407200Y-56881071D02*
X110311961Y-56785833D01*
X110311961Y-56785833D02*
X110216723Y-56738214D01*
X110216723Y-56738214D02*
X110026247Y-56690595D01*
X110026247Y-56690595D02*
X109883390Y-56690595D01*
X109883390Y-56690595D02*
X109692914Y-56738214D01*
X109692914Y-56738214D02*
X109597676Y-56785833D01*
X109597676Y-56785833D02*
X109502438Y-56881071D01*
X109502438Y-56881071D02*
X109454819Y-57023928D01*
X109454819Y-57023928D02*
X109454819Y-57119166D01*
X109454819Y-57119166D02*
X109502438Y-57262023D01*
X109502438Y-57262023D02*
X109550057Y-57309642D01*
X110454819Y-58262023D02*
X110454819Y-57690595D01*
X110454819Y-57976309D02*
X109454819Y-57976309D01*
X109454819Y-57976309D02*
X109597676Y-57881071D01*
X109597676Y-57881071D02*
X109692914Y-57785833D01*
X109692914Y-57785833D02*
X109740533Y-57690595D01*
X110454819Y-58738214D02*
X110454819Y-58928690D01*
X110454819Y-58928690D02*
X110407200Y-59023928D01*
X110407200Y-59023928D02*
X110359580Y-59071547D01*
X110359580Y-59071547D02*
X110216723Y-59166785D01*
X110216723Y-59166785D02*
X110026247Y-59214404D01*
X110026247Y-59214404D02*
X109645295Y-59214404D01*
X109645295Y-59214404D02*
X109550057Y-59166785D01*
X109550057Y-59166785D02*
X109502438Y-59119166D01*
X109502438Y-59119166D02*
X109454819Y-59023928D01*
X109454819Y-59023928D02*
X109454819Y-58833452D01*
X109454819Y-58833452D02*
X109502438Y-58738214D01*
X109502438Y-58738214D02*
X109550057Y-58690595D01*
X109550057Y-58690595D02*
X109645295Y-58642976D01*
X109645295Y-58642976D02*
X109883390Y-58642976D01*
X109883390Y-58642976D02*
X109978628Y-58690595D01*
X109978628Y-58690595D02*
X110026247Y-58738214D01*
X110026247Y-58738214D02*
X110073866Y-58833452D01*
X110073866Y-58833452D02*
X110073866Y-59023928D01*
X110073866Y-59023928D02*
X110026247Y-59119166D01*
X110026247Y-59119166D02*
X109978628Y-59166785D01*
X109978628Y-59166785D02*
X109883390Y-59214404D01*
X140804819Y-90357142D02*
X140328628Y-90023809D01*
X140804819Y-89785714D02*
X139804819Y-89785714D01*
X139804819Y-89785714D02*
X139804819Y-90166666D01*
X139804819Y-90166666D02*
X139852438Y-90261904D01*
X139852438Y-90261904D02*
X139900057Y-90309523D01*
X139900057Y-90309523D02*
X139995295Y-90357142D01*
X139995295Y-90357142D02*
X140138152Y-90357142D01*
X140138152Y-90357142D02*
X140233390Y-90309523D01*
X140233390Y-90309523D02*
X140281009Y-90261904D01*
X140281009Y-90261904D02*
X140328628Y-90166666D01*
X140328628Y-90166666D02*
X140328628Y-89785714D01*
X140804819Y-91309523D02*
X140804819Y-90738095D01*
X140804819Y-91023809D02*
X139804819Y-91023809D01*
X139804819Y-91023809D02*
X139947676Y-90928571D01*
X139947676Y-90928571D02*
X140042914Y-90833333D01*
X140042914Y-90833333D02*
X140090533Y-90738095D01*
X139804819Y-91928571D02*
X139804819Y-92023809D01*
X139804819Y-92023809D02*
X139852438Y-92119047D01*
X139852438Y-92119047D02*
X139900057Y-92166666D01*
X139900057Y-92166666D02*
X139995295Y-92214285D01*
X139995295Y-92214285D02*
X140185771Y-92261904D01*
X140185771Y-92261904D02*
X140423866Y-92261904D01*
X140423866Y-92261904D02*
X140614342Y-92214285D01*
X140614342Y-92214285D02*
X140709580Y-92166666D01*
X140709580Y-92166666D02*
X140757200Y-92119047D01*
X140757200Y-92119047D02*
X140804819Y-92023809D01*
X140804819Y-92023809D02*
X140804819Y-91928571D01*
X140804819Y-91928571D02*
X140757200Y-91833333D01*
X140757200Y-91833333D02*
X140709580Y-91785714D01*
X140709580Y-91785714D02*
X140614342Y-91738095D01*
X140614342Y-91738095D02*
X140423866Y-91690476D01*
X140423866Y-91690476D02*
X140185771Y-91690476D01*
X140185771Y-91690476D02*
X139995295Y-91738095D01*
X139995295Y-91738095D02*
X139900057Y-91785714D01*
X139900057Y-91785714D02*
X139852438Y-91833333D01*
X139852438Y-91833333D02*
X139804819Y-91928571D01*
X95142857Y-61359025D02*
X95476190Y-60882834D01*
X95714285Y-61359025D02*
X95714285Y-60359025D01*
X95714285Y-60359025D02*
X95333333Y-60359025D01*
X95333333Y-60359025D02*
X95238095Y-60406644D01*
X95238095Y-60406644D02*
X95190476Y-60454263D01*
X95190476Y-60454263D02*
X95142857Y-60549501D01*
X95142857Y-60549501D02*
X95142857Y-60692358D01*
X95142857Y-60692358D02*
X95190476Y-60787596D01*
X95190476Y-60787596D02*
X95238095Y-60835215D01*
X95238095Y-60835215D02*
X95333333Y-60882834D01*
X95333333Y-60882834D02*
X95714285Y-60882834D01*
X94238095Y-60359025D02*
X94714285Y-60359025D01*
X94714285Y-60359025D02*
X94761904Y-60835215D01*
X94761904Y-60835215D02*
X94714285Y-60787596D01*
X94714285Y-60787596D02*
X94619047Y-60739977D01*
X94619047Y-60739977D02*
X94380952Y-60739977D01*
X94380952Y-60739977D02*
X94285714Y-60787596D01*
X94285714Y-60787596D02*
X94238095Y-60835215D01*
X94238095Y-60835215D02*
X94190476Y-60930453D01*
X94190476Y-60930453D02*
X94190476Y-61168548D01*
X94190476Y-61168548D02*
X94238095Y-61263786D01*
X94238095Y-61263786D02*
X94285714Y-61311406D01*
X94285714Y-61311406D02*
X94380952Y-61359025D01*
X94380952Y-61359025D02*
X94619047Y-61359025D01*
X94619047Y-61359025D02*
X94714285Y-61311406D01*
X94714285Y-61311406D02*
X94761904Y-61263786D01*
X93571428Y-60359025D02*
X93476190Y-60359025D01*
X93476190Y-60359025D02*
X93380952Y-60406644D01*
X93380952Y-60406644D02*
X93333333Y-60454263D01*
X93333333Y-60454263D02*
X93285714Y-60549501D01*
X93285714Y-60549501D02*
X93238095Y-60739977D01*
X93238095Y-60739977D02*
X93238095Y-60978072D01*
X93238095Y-60978072D02*
X93285714Y-61168548D01*
X93285714Y-61168548D02*
X93333333Y-61263786D01*
X93333333Y-61263786D02*
X93380952Y-61311406D01*
X93380952Y-61311406D02*
X93476190Y-61359025D01*
X93476190Y-61359025D02*
X93571428Y-61359025D01*
X93571428Y-61359025D02*
X93666666Y-61311406D01*
X93666666Y-61311406D02*
X93714285Y-61263786D01*
X93714285Y-61263786D02*
X93761904Y-61168548D01*
X93761904Y-61168548D02*
X93809523Y-60978072D01*
X93809523Y-60978072D02*
X93809523Y-60739977D01*
X93809523Y-60739977D02*
X93761904Y-60549501D01*
X93761904Y-60549501D02*
X93714285Y-60454263D01*
X93714285Y-60454263D02*
X93666666Y-60406644D01*
X93666666Y-60406644D02*
X93571428Y-60359025D01*
X101359580Y-57357142D02*
X101407200Y-57309523D01*
X101407200Y-57309523D02*
X101454819Y-57166666D01*
X101454819Y-57166666D02*
X101454819Y-57071428D01*
X101454819Y-57071428D02*
X101407200Y-56928571D01*
X101407200Y-56928571D02*
X101311961Y-56833333D01*
X101311961Y-56833333D02*
X101216723Y-56785714D01*
X101216723Y-56785714D02*
X101026247Y-56738095D01*
X101026247Y-56738095D02*
X100883390Y-56738095D01*
X100883390Y-56738095D02*
X100692914Y-56785714D01*
X100692914Y-56785714D02*
X100597676Y-56833333D01*
X100597676Y-56833333D02*
X100502438Y-56928571D01*
X100502438Y-56928571D02*
X100454819Y-57071428D01*
X100454819Y-57071428D02*
X100454819Y-57166666D01*
X100454819Y-57166666D02*
X100502438Y-57309523D01*
X100502438Y-57309523D02*
X100550057Y-57357142D01*
X101454819Y-58309523D02*
X101454819Y-57738095D01*
X101454819Y-58023809D02*
X100454819Y-58023809D01*
X100454819Y-58023809D02*
X100597676Y-57928571D01*
X100597676Y-57928571D02*
X100692914Y-57833333D01*
X100692914Y-57833333D02*
X100740533Y-57738095D01*
X100883390Y-58880952D02*
X100835771Y-58785714D01*
X100835771Y-58785714D02*
X100788152Y-58738095D01*
X100788152Y-58738095D02*
X100692914Y-58690476D01*
X100692914Y-58690476D02*
X100645295Y-58690476D01*
X100645295Y-58690476D02*
X100550057Y-58738095D01*
X100550057Y-58738095D02*
X100502438Y-58785714D01*
X100502438Y-58785714D02*
X100454819Y-58880952D01*
X100454819Y-58880952D02*
X100454819Y-59071428D01*
X100454819Y-59071428D02*
X100502438Y-59166666D01*
X100502438Y-59166666D02*
X100550057Y-59214285D01*
X100550057Y-59214285D02*
X100645295Y-59261904D01*
X100645295Y-59261904D02*
X100692914Y-59261904D01*
X100692914Y-59261904D02*
X100788152Y-59214285D01*
X100788152Y-59214285D02*
X100835771Y-59166666D01*
X100835771Y-59166666D02*
X100883390Y-59071428D01*
X100883390Y-59071428D02*
X100883390Y-58880952D01*
X100883390Y-58880952D02*
X100931009Y-58785714D01*
X100931009Y-58785714D02*
X100978628Y-58738095D01*
X100978628Y-58738095D02*
X101073866Y-58690476D01*
X101073866Y-58690476D02*
X101264342Y-58690476D01*
X101264342Y-58690476D02*
X101359580Y-58738095D01*
X101359580Y-58738095D02*
X101407200Y-58785714D01*
X101407200Y-58785714D02*
X101454819Y-58880952D01*
X101454819Y-58880952D02*
X101454819Y-59071428D01*
X101454819Y-59071428D02*
X101407200Y-59166666D01*
X101407200Y-59166666D02*
X101359580Y-59214285D01*
X101359580Y-59214285D02*
X101264342Y-59261904D01*
X101264342Y-59261904D02*
X101073866Y-59261904D01*
X101073866Y-59261904D02*
X100978628Y-59214285D01*
X100978628Y-59214285D02*
X100931009Y-59166666D01*
X100931009Y-59166666D02*
X100883390Y-59071428D01*
X132104819Y-58857142D02*
X131628628Y-58523809D01*
X132104819Y-58285714D02*
X131104819Y-58285714D01*
X131104819Y-58285714D02*
X131104819Y-58666666D01*
X131104819Y-58666666D02*
X131152438Y-58761904D01*
X131152438Y-58761904D02*
X131200057Y-58809523D01*
X131200057Y-58809523D02*
X131295295Y-58857142D01*
X131295295Y-58857142D02*
X131438152Y-58857142D01*
X131438152Y-58857142D02*
X131533390Y-58809523D01*
X131533390Y-58809523D02*
X131581009Y-58761904D01*
X131581009Y-58761904D02*
X131628628Y-58666666D01*
X131628628Y-58666666D02*
X131628628Y-58285714D01*
X131200057Y-59238095D02*
X131152438Y-59285714D01*
X131152438Y-59285714D02*
X131104819Y-59380952D01*
X131104819Y-59380952D02*
X131104819Y-59619047D01*
X131104819Y-59619047D02*
X131152438Y-59714285D01*
X131152438Y-59714285D02*
X131200057Y-59761904D01*
X131200057Y-59761904D02*
X131295295Y-59809523D01*
X131295295Y-59809523D02*
X131390533Y-59809523D01*
X131390533Y-59809523D02*
X131533390Y-59761904D01*
X131533390Y-59761904D02*
X132104819Y-59190476D01*
X132104819Y-59190476D02*
X132104819Y-59809523D01*
X131104819Y-60142857D02*
X131104819Y-60809523D01*
X131104819Y-60809523D02*
X132104819Y-60380952D01*
X121954819Y-73857142D02*
X121478628Y-73523809D01*
X121954819Y-73285714D02*
X120954819Y-73285714D01*
X120954819Y-73285714D02*
X120954819Y-73666666D01*
X120954819Y-73666666D02*
X121002438Y-73761904D01*
X121002438Y-73761904D02*
X121050057Y-73809523D01*
X121050057Y-73809523D02*
X121145295Y-73857142D01*
X121145295Y-73857142D02*
X121288152Y-73857142D01*
X121288152Y-73857142D02*
X121383390Y-73809523D01*
X121383390Y-73809523D02*
X121431009Y-73761904D01*
X121431009Y-73761904D02*
X121478628Y-73666666D01*
X121478628Y-73666666D02*
X121478628Y-73285714D01*
X121288152Y-74714285D02*
X121954819Y-74714285D01*
X120907200Y-74476190D02*
X121621485Y-74238095D01*
X121621485Y-74238095D02*
X121621485Y-74857142D01*
X121383390Y-75380952D02*
X121335771Y-75285714D01*
X121335771Y-75285714D02*
X121288152Y-75238095D01*
X121288152Y-75238095D02*
X121192914Y-75190476D01*
X121192914Y-75190476D02*
X121145295Y-75190476D01*
X121145295Y-75190476D02*
X121050057Y-75238095D01*
X121050057Y-75238095D02*
X121002438Y-75285714D01*
X121002438Y-75285714D02*
X120954819Y-75380952D01*
X120954819Y-75380952D02*
X120954819Y-75571428D01*
X120954819Y-75571428D02*
X121002438Y-75666666D01*
X121002438Y-75666666D02*
X121050057Y-75714285D01*
X121050057Y-75714285D02*
X121145295Y-75761904D01*
X121145295Y-75761904D02*
X121192914Y-75761904D01*
X121192914Y-75761904D02*
X121288152Y-75714285D01*
X121288152Y-75714285D02*
X121335771Y-75666666D01*
X121335771Y-75666666D02*
X121383390Y-75571428D01*
X121383390Y-75571428D02*
X121383390Y-75380952D01*
X121383390Y-75380952D02*
X121431009Y-75285714D01*
X121431009Y-75285714D02*
X121478628Y-75238095D01*
X121478628Y-75238095D02*
X121573866Y-75190476D01*
X121573866Y-75190476D02*
X121764342Y-75190476D01*
X121764342Y-75190476D02*
X121859580Y-75238095D01*
X121859580Y-75238095D02*
X121907200Y-75285714D01*
X121907200Y-75285714D02*
X121954819Y-75380952D01*
X121954819Y-75380952D02*
X121954819Y-75571428D01*
X121954819Y-75571428D02*
X121907200Y-75666666D01*
X121907200Y-75666666D02*
X121859580Y-75714285D01*
X121859580Y-75714285D02*
X121764342Y-75761904D01*
X121764342Y-75761904D02*
X121573866Y-75761904D01*
X121573866Y-75761904D02*
X121478628Y-75714285D01*
X121478628Y-75714285D02*
X121431009Y-75666666D01*
X121431009Y-75666666D02*
X121383390Y-75571428D01*
X152142857Y-88454819D02*
X152476190Y-87978628D01*
X152714285Y-88454819D02*
X152714285Y-87454819D01*
X152714285Y-87454819D02*
X152333333Y-87454819D01*
X152333333Y-87454819D02*
X152238095Y-87502438D01*
X152238095Y-87502438D02*
X152190476Y-87550057D01*
X152190476Y-87550057D02*
X152142857Y-87645295D01*
X152142857Y-87645295D02*
X152142857Y-87788152D01*
X152142857Y-87788152D02*
X152190476Y-87883390D01*
X152190476Y-87883390D02*
X152238095Y-87931009D01*
X152238095Y-87931009D02*
X152333333Y-87978628D01*
X152333333Y-87978628D02*
X152714285Y-87978628D01*
X151190476Y-88454819D02*
X151761904Y-88454819D01*
X151476190Y-88454819D02*
X151476190Y-87454819D01*
X151476190Y-87454819D02*
X151571428Y-87597676D01*
X151571428Y-87597676D02*
X151666666Y-87692914D01*
X151666666Y-87692914D02*
X151761904Y-87740533D01*
X150857142Y-87454819D02*
X150238095Y-87454819D01*
X150238095Y-87454819D02*
X150571428Y-87835771D01*
X150571428Y-87835771D02*
X150428571Y-87835771D01*
X150428571Y-87835771D02*
X150333333Y-87883390D01*
X150333333Y-87883390D02*
X150285714Y-87931009D01*
X150285714Y-87931009D02*
X150238095Y-88026247D01*
X150238095Y-88026247D02*
X150238095Y-88264342D01*
X150238095Y-88264342D02*
X150285714Y-88359580D01*
X150285714Y-88359580D02*
X150333333Y-88407200D01*
X150333333Y-88407200D02*
X150428571Y-88454819D01*
X150428571Y-88454819D02*
X150714285Y-88454819D01*
X150714285Y-88454819D02*
X150809523Y-88407200D01*
X150809523Y-88407200D02*
X150857142Y-88359580D01*
X95372857Y-68059580D02*
X95420476Y-68107200D01*
X95420476Y-68107200D02*
X95563333Y-68154819D01*
X95563333Y-68154819D02*
X95658571Y-68154819D01*
X95658571Y-68154819D02*
X95801428Y-68107200D01*
X95801428Y-68107200D02*
X95896666Y-68011961D01*
X95896666Y-68011961D02*
X95944285Y-67916723D01*
X95944285Y-67916723D02*
X95991904Y-67726247D01*
X95991904Y-67726247D02*
X95991904Y-67583390D01*
X95991904Y-67583390D02*
X95944285Y-67392914D01*
X95944285Y-67392914D02*
X95896666Y-67297676D01*
X95896666Y-67297676D02*
X95801428Y-67202438D01*
X95801428Y-67202438D02*
X95658571Y-67154819D01*
X95658571Y-67154819D02*
X95563333Y-67154819D01*
X95563333Y-67154819D02*
X95420476Y-67202438D01*
X95420476Y-67202438D02*
X95372857Y-67250057D01*
X94420476Y-68154819D02*
X94991904Y-68154819D01*
X94706190Y-68154819D02*
X94706190Y-67154819D01*
X94706190Y-67154819D02*
X94801428Y-67297676D01*
X94801428Y-67297676D02*
X94896666Y-67392914D01*
X94896666Y-67392914D02*
X94991904Y-67440533D01*
X94039523Y-67250057D02*
X93991904Y-67202438D01*
X93991904Y-67202438D02*
X93896666Y-67154819D01*
X93896666Y-67154819D02*
X93658571Y-67154819D01*
X93658571Y-67154819D02*
X93563333Y-67202438D01*
X93563333Y-67202438D02*
X93515714Y-67250057D01*
X93515714Y-67250057D02*
X93468095Y-67345295D01*
X93468095Y-67345295D02*
X93468095Y-67440533D01*
X93468095Y-67440533D02*
X93515714Y-67583390D01*
X93515714Y-67583390D02*
X94087142Y-68154819D01*
X94087142Y-68154819D02*
X93468095Y-68154819D01*
X157604819Y-61857142D02*
X157128628Y-61523809D01*
X157604819Y-61285714D02*
X156604819Y-61285714D01*
X156604819Y-61285714D02*
X156604819Y-61666666D01*
X156604819Y-61666666D02*
X156652438Y-61761904D01*
X156652438Y-61761904D02*
X156700057Y-61809523D01*
X156700057Y-61809523D02*
X156795295Y-61857142D01*
X156795295Y-61857142D02*
X156938152Y-61857142D01*
X156938152Y-61857142D02*
X157033390Y-61809523D01*
X157033390Y-61809523D02*
X157081009Y-61761904D01*
X157081009Y-61761904D02*
X157128628Y-61666666D01*
X157128628Y-61666666D02*
X157128628Y-61285714D01*
X156604819Y-62190476D02*
X156604819Y-62809523D01*
X156604819Y-62809523D02*
X156985771Y-62476190D01*
X156985771Y-62476190D02*
X156985771Y-62619047D01*
X156985771Y-62619047D02*
X157033390Y-62714285D01*
X157033390Y-62714285D02*
X157081009Y-62761904D01*
X157081009Y-62761904D02*
X157176247Y-62809523D01*
X157176247Y-62809523D02*
X157414342Y-62809523D01*
X157414342Y-62809523D02*
X157509580Y-62761904D01*
X157509580Y-62761904D02*
X157557200Y-62714285D01*
X157557200Y-62714285D02*
X157604819Y-62619047D01*
X157604819Y-62619047D02*
X157604819Y-62333333D01*
X157604819Y-62333333D02*
X157557200Y-62238095D01*
X157557200Y-62238095D02*
X157509580Y-62190476D01*
X156604819Y-63714285D02*
X156604819Y-63238095D01*
X156604819Y-63238095D02*
X157081009Y-63190476D01*
X157081009Y-63190476D02*
X157033390Y-63238095D01*
X157033390Y-63238095D02*
X156985771Y-63333333D01*
X156985771Y-63333333D02*
X156985771Y-63571428D01*
X156985771Y-63571428D02*
X157033390Y-63666666D01*
X157033390Y-63666666D02*
X157081009Y-63714285D01*
X157081009Y-63714285D02*
X157176247Y-63761904D01*
X157176247Y-63761904D02*
X157414342Y-63761904D01*
X157414342Y-63761904D02*
X157509580Y-63714285D01*
X157509580Y-63714285D02*
X157557200Y-63666666D01*
X157557200Y-63666666D02*
X157604819Y-63571428D01*
X157604819Y-63571428D02*
X157604819Y-63333333D01*
X157604819Y-63333333D02*
X157557200Y-63238095D01*
X157557200Y-63238095D02*
X157509580Y-63190476D01*
X119454819Y-73857142D02*
X118978628Y-73523809D01*
X119454819Y-73285714D02*
X118454819Y-73285714D01*
X118454819Y-73285714D02*
X118454819Y-73666666D01*
X118454819Y-73666666D02*
X118502438Y-73761904D01*
X118502438Y-73761904D02*
X118550057Y-73809523D01*
X118550057Y-73809523D02*
X118645295Y-73857142D01*
X118645295Y-73857142D02*
X118788152Y-73857142D01*
X118788152Y-73857142D02*
X118883390Y-73809523D01*
X118883390Y-73809523D02*
X118931009Y-73761904D01*
X118931009Y-73761904D02*
X118978628Y-73666666D01*
X118978628Y-73666666D02*
X118978628Y-73285714D01*
X118788152Y-74714285D02*
X119454819Y-74714285D01*
X118407200Y-74476190D02*
X119121485Y-74238095D01*
X119121485Y-74238095D02*
X119121485Y-74857142D01*
X118454819Y-75142857D02*
X118454819Y-75809523D01*
X118454819Y-75809523D02*
X119454819Y-75380952D01*
X157604819Y-56857142D02*
X157128628Y-56523809D01*
X157604819Y-56285714D02*
X156604819Y-56285714D01*
X156604819Y-56285714D02*
X156604819Y-56666666D01*
X156604819Y-56666666D02*
X156652438Y-56761904D01*
X156652438Y-56761904D02*
X156700057Y-56809523D01*
X156700057Y-56809523D02*
X156795295Y-56857142D01*
X156795295Y-56857142D02*
X156938152Y-56857142D01*
X156938152Y-56857142D02*
X157033390Y-56809523D01*
X157033390Y-56809523D02*
X157081009Y-56761904D01*
X157081009Y-56761904D02*
X157128628Y-56666666D01*
X157128628Y-56666666D02*
X157128628Y-56285714D01*
X156700057Y-57238095D02*
X156652438Y-57285714D01*
X156652438Y-57285714D02*
X156604819Y-57380952D01*
X156604819Y-57380952D02*
X156604819Y-57619047D01*
X156604819Y-57619047D02*
X156652438Y-57714285D01*
X156652438Y-57714285D02*
X156700057Y-57761904D01*
X156700057Y-57761904D02*
X156795295Y-57809523D01*
X156795295Y-57809523D02*
X156890533Y-57809523D01*
X156890533Y-57809523D02*
X157033390Y-57761904D01*
X157033390Y-57761904D02*
X157604819Y-57190476D01*
X157604819Y-57190476D02*
X157604819Y-57809523D01*
X156604819Y-58714285D02*
X156604819Y-58238095D01*
X156604819Y-58238095D02*
X157081009Y-58190476D01*
X157081009Y-58190476D02*
X157033390Y-58238095D01*
X157033390Y-58238095D02*
X156985771Y-58333333D01*
X156985771Y-58333333D02*
X156985771Y-58571428D01*
X156985771Y-58571428D02*
X157033390Y-58666666D01*
X157033390Y-58666666D02*
X157081009Y-58714285D01*
X157081009Y-58714285D02*
X157176247Y-58761904D01*
X157176247Y-58761904D02*
X157414342Y-58761904D01*
X157414342Y-58761904D02*
X157509580Y-58714285D01*
X157509580Y-58714285D02*
X157557200Y-58666666D01*
X157557200Y-58666666D02*
X157604819Y-58571428D01*
X157604819Y-58571428D02*
X157604819Y-58333333D01*
X157604819Y-58333333D02*
X157557200Y-58238095D01*
X157557200Y-58238095D02*
X157509580Y-58190476D01*
X143166666Y-96859580D02*
X143214285Y-96907200D01*
X143214285Y-96907200D02*
X143357142Y-96954819D01*
X143357142Y-96954819D02*
X143452380Y-96954819D01*
X143452380Y-96954819D02*
X143595237Y-96907200D01*
X143595237Y-96907200D02*
X143690475Y-96811961D01*
X143690475Y-96811961D02*
X143738094Y-96716723D01*
X143738094Y-96716723D02*
X143785713Y-96526247D01*
X143785713Y-96526247D02*
X143785713Y-96383390D01*
X143785713Y-96383390D02*
X143738094Y-96192914D01*
X143738094Y-96192914D02*
X143690475Y-96097676D01*
X143690475Y-96097676D02*
X143595237Y-96002438D01*
X143595237Y-96002438D02*
X143452380Y-95954819D01*
X143452380Y-95954819D02*
X143357142Y-95954819D01*
X143357142Y-95954819D02*
X143214285Y-96002438D01*
X143214285Y-96002438D02*
X143166666Y-96050057D01*
X142785713Y-96050057D02*
X142738094Y-96002438D01*
X142738094Y-96002438D02*
X142642856Y-95954819D01*
X142642856Y-95954819D02*
X142404761Y-95954819D01*
X142404761Y-95954819D02*
X142309523Y-96002438D01*
X142309523Y-96002438D02*
X142261904Y-96050057D01*
X142261904Y-96050057D02*
X142214285Y-96145295D01*
X142214285Y-96145295D02*
X142214285Y-96240533D01*
X142214285Y-96240533D02*
X142261904Y-96383390D01*
X142261904Y-96383390D02*
X142833332Y-96954819D01*
X142833332Y-96954819D02*
X142214285Y-96954819D01*
X137642857Y-55604819D02*
X137976190Y-55128628D01*
X138214285Y-55604819D02*
X138214285Y-54604819D01*
X138214285Y-54604819D02*
X137833333Y-54604819D01*
X137833333Y-54604819D02*
X137738095Y-54652438D01*
X137738095Y-54652438D02*
X137690476Y-54700057D01*
X137690476Y-54700057D02*
X137642857Y-54795295D01*
X137642857Y-54795295D02*
X137642857Y-54938152D01*
X137642857Y-54938152D02*
X137690476Y-55033390D01*
X137690476Y-55033390D02*
X137738095Y-55081009D01*
X137738095Y-55081009D02*
X137833333Y-55128628D01*
X137833333Y-55128628D02*
X138214285Y-55128628D01*
X137261904Y-54700057D02*
X137214285Y-54652438D01*
X137214285Y-54652438D02*
X137119047Y-54604819D01*
X137119047Y-54604819D02*
X136880952Y-54604819D01*
X136880952Y-54604819D02*
X136785714Y-54652438D01*
X136785714Y-54652438D02*
X136738095Y-54700057D01*
X136738095Y-54700057D02*
X136690476Y-54795295D01*
X136690476Y-54795295D02*
X136690476Y-54890533D01*
X136690476Y-54890533D02*
X136738095Y-55033390D01*
X136738095Y-55033390D02*
X137309523Y-55604819D01*
X137309523Y-55604819D02*
X136690476Y-55604819D01*
X136309523Y-54700057D02*
X136261904Y-54652438D01*
X136261904Y-54652438D02*
X136166666Y-54604819D01*
X136166666Y-54604819D02*
X135928571Y-54604819D01*
X135928571Y-54604819D02*
X135833333Y-54652438D01*
X135833333Y-54652438D02*
X135785714Y-54700057D01*
X135785714Y-54700057D02*
X135738095Y-54795295D01*
X135738095Y-54795295D02*
X135738095Y-54890533D01*
X135738095Y-54890533D02*
X135785714Y-55033390D01*
X135785714Y-55033390D02*
X136357142Y-55604819D01*
X136357142Y-55604819D02*
X135738095Y-55604819D01*
X92604819Y-54857142D02*
X92128628Y-54523809D01*
X92604819Y-54285714D02*
X91604819Y-54285714D01*
X91604819Y-54285714D02*
X91604819Y-54666666D01*
X91604819Y-54666666D02*
X91652438Y-54761904D01*
X91652438Y-54761904D02*
X91700057Y-54809523D01*
X91700057Y-54809523D02*
X91795295Y-54857142D01*
X91795295Y-54857142D02*
X91938152Y-54857142D01*
X91938152Y-54857142D02*
X92033390Y-54809523D01*
X92033390Y-54809523D02*
X92081009Y-54761904D01*
X92081009Y-54761904D02*
X92128628Y-54666666D01*
X92128628Y-54666666D02*
X92128628Y-54285714D01*
X91938152Y-55714285D02*
X92604819Y-55714285D01*
X91557200Y-55476190D02*
X92271485Y-55238095D01*
X92271485Y-55238095D02*
X92271485Y-55857142D01*
X91604819Y-56142857D02*
X91604819Y-56761904D01*
X91604819Y-56761904D02*
X91985771Y-56428571D01*
X91985771Y-56428571D02*
X91985771Y-56571428D01*
X91985771Y-56571428D02*
X92033390Y-56666666D01*
X92033390Y-56666666D02*
X92081009Y-56714285D01*
X92081009Y-56714285D02*
X92176247Y-56761904D01*
X92176247Y-56761904D02*
X92414342Y-56761904D01*
X92414342Y-56761904D02*
X92509580Y-56714285D01*
X92509580Y-56714285D02*
X92557200Y-56666666D01*
X92557200Y-56666666D02*
X92604819Y-56571428D01*
X92604819Y-56571428D02*
X92604819Y-56285714D01*
X92604819Y-56285714D02*
X92557200Y-56190476D01*
X92557200Y-56190476D02*
X92509580Y-56142857D01*
X148539580Y-70817142D02*
X148587200Y-70769523D01*
X148587200Y-70769523D02*
X148634819Y-70626666D01*
X148634819Y-70626666D02*
X148634819Y-70531428D01*
X148634819Y-70531428D02*
X148587200Y-70388571D01*
X148587200Y-70388571D02*
X148491961Y-70293333D01*
X148491961Y-70293333D02*
X148396723Y-70245714D01*
X148396723Y-70245714D02*
X148206247Y-70198095D01*
X148206247Y-70198095D02*
X148063390Y-70198095D01*
X148063390Y-70198095D02*
X147872914Y-70245714D01*
X147872914Y-70245714D02*
X147777676Y-70293333D01*
X147777676Y-70293333D02*
X147682438Y-70388571D01*
X147682438Y-70388571D02*
X147634819Y-70531428D01*
X147634819Y-70531428D02*
X147634819Y-70626666D01*
X147634819Y-70626666D02*
X147682438Y-70769523D01*
X147682438Y-70769523D02*
X147730057Y-70817142D01*
X148634819Y-71769523D02*
X148634819Y-71198095D01*
X148634819Y-71483809D02*
X147634819Y-71483809D01*
X147634819Y-71483809D02*
X147777676Y-71388571D01*
X147777676Y-71388571D02*
X147872914Y-71293333D01*
X147872914Y-71293333D02*
X147920533Y-71198095D01*
X147634819Y-72626666D02*
X147634819Y-72436190D01*
X147634819Y-72436190D02*
X147682438Y-72340952D01*
X147682438Y-72340952D02*
X147730057Y-72293333D01*
X147730057Y-72293333D02*
X147872914Y-72198095D01*
X147872914Y-72198095D02*
X148063390Y-72150476D01*
X148063390Y-72150476D02*
X148444342Y-72150476D01*
X148444342Y-72150476D02*
X148539580Y-72198095D01*
X148539580Y-72198095D02*
X148587200Y-72245714D01*
X148587200Y-72245714D02*
X148634819Y-72340952D01*
X148634819Y-72340952D02*
X148634819Y-72531428D01*
X148634819Y-72531428D02*
X148587200Y-72626666D01*
X148587200Y-72626666D02*
X148539580Y-72674285D01*
X148539580Y-72674285D02*
X148444342Y-72721904D01*
X148444342Y-72721904D02*
X148206247Y-72721904D01*
X148206247Y-72721904D02*
X148111009Y-72674285D01*
X148111009Y-72674285D02*
X148063390Y-72626666D01*
X148063390Y-72626666D02*
X148015771Y-72531428D01*
X148015771Y-72531428D02*
X148015771Y-72340952D01*
X148015771Y-72340952D02*
X148063390Y-72245714D01*
X148063390Y-72245714D02*
X148111009Y-72198095D01*
X148111009Y-72198095D02*
X148206247Y-72150476D01*
X148666666Y-89359580D02*
X148714285Y-89407200D01*
X148714285Y-89407200D02*
X148857142Y-89454819D01*
X148857142Y-89454819D02*
X148952380Y-89454819D01*
X148952380Y-89454819D02*
X149095237Y-89407200D01*
X149095237Y-89407200D02*
X149190475Y-89311961D01*
X149190475Y-89311961D02*
X149238094Y-89216723D01*
X149238094Y-89216723D02*
X149285713Y-89026247D01*
X149285713Y-89026247D02*
X149285713Y-88883390D01*
X149285713Y-88883390D02*
X149238094Y-88692914D01*
X149238094Y-88692914D02*
X149190475Y-88597676D01*
X149190475Y-88597676D02*
X149095237Y-88502438D01*
X149095237Y-88502438D02*
X148952380Y-88454819D01*
X148952380Y-88454819D02*
X148857142Y-88454819D01*
X148857142Y-88454819D02*
X148714285Y-88502438D01*
X148714285Y-88502438D02*
X148666666Y-88550057D01*
X148333332Y-88454819D02*
X147714285Y-88454819D01*
X147714285Y-88454819D02*
X148047618Y-88835771D01*
X148047618Y-88835771D02*
X147904761Y-88835771D01*
X147904761Y-88835771D02*
X147809523Y-88883390D01*
X147809523Y-88883390D02*
X147761904Y-88931009D01*
X147761904Y-88931009D02*
X147714285Y-89026247D01*
X147714285Y-89026247D02*
X147714285Y-89264342D01*
X147714285Y-89264342D02*
X147761904Y-89359580D01*
X147761904Y-89359580D02*
X147809523Y-89407200D01*
X147809523Y-89407200D02*
X147904761Y-89454819D01*
X147904761Y-89454819D02*
X148190475Y-89454819D01*
X148190475Y-89454819D02*
X148285713Y-89407200D01*
X148285713Y-89407200D02*
X148333332Y-89359580D01*
X151142857Y-96954819D02*
X151476190Y-96478628D01*
X151714285Y-96954819D02*
X151714285Y-95954819D01*
X151714285Y-95954819D02*
X151333333Y-95954819D01*
X151333333Y-95954819D02*
X151238095Y-96002438D01*
X151238095Y-96002438D02*
X151190476Y-96050057D01*
X151190476Y-96050057D02*
X151142857Y-96145295D01*
X151142857Y-96145295D02*
X151142857Y-96288152D01*
X151142857Y-96288152D02*
X151190476Y-96383390D01*
X151190476Y-96383390D02*
X151238095Y-96431009D01*
X151238095Y-96431009D02*
X151333333Y-96478628D01*
X151333333Y-96478628D02*
X151714285Y-96478628D01*
X150190476Y-96954819D02*
X150761904Y-96954819D01*
X150476190Y-96954819D02*
X150476190Y-95954819D01*
X150476190Y-95954819D02*
X150571428Y-96097676D01*
X150571428Y-96097676D02*
X150666666Y-96192914D01*
X150666666Y-96192914D02*
X150761904Y-96240533D01*
X149333333Y-96288152D02*
X149333333Y-96954819D01*
X149571428Y-95907200D02*
X149809523Y-96621485D01*
X149809523Y-96621485D02*
X149190476Y-96621485D01*
X132104819Y-53857142D02*
X131628628Y-53523809D01*
X132104819Y-53285714D02*
X131104819Y-53285714D01*
X131104819Y-53285714D02*
X131104819Y-53666666D01*
X131104819Y-53666666D02*
X131152438Y-53761904D01*
X131152438Y-53761904D02*
X131200057Y-53809523D01*
X131200057Y-53809523D02*
X131295295Y-53857142D01*
X131295295Y-53857142D02*
X131438152Y-53857142D01*
X131438152Y-53857142D02*
X131533390Y-53809523D01*
X131533390Y-53809523D02*
X131581009Y-53761904D01*
X131581009Y-53761904D02*
X131628628Y-53666666D01*
X131628628Y-53666666D02*
X131628628Y-53285714D01*
X131104819Y-54190476D02*
X131104819Y-54809523D01*
X131104819Y-54809523D02*
X131485771Y-54476190D01*
X131485771Y-54476190D02*
X131485771Y-54619047D01*
X131485771Y-54619047D02*
X131533390Y-54714285D01*
X131533390Y-54714285D02*
X131581009Y-54761904D01*
X131581009Y-54761904D02*
X131676247Y-54809523D01*
X131676247Y-54809523D02*
X131914342Y-54809523D01*
X131914342Y-54809523D02*
X132009580Y-54761904D01*
X132009580Y-54761904D02*
X132057200Y-54714285D01*
X132057200Y-54714285D02*
X132104819Y-54619047D01*
X132104819Y-54619047D02*
X132104819Y-54333333D01*
X132104819Y-54333333D02*
X132057200Y-54238095D01*
X132057200Y-54238095D02*
X132009580Y-54190476D01*
X131104819Y-55428571D02*
X131104819Y-55523809D01*
X131104819Y-55523809D02*
X131152438Y-55619047D01*
X131152438Y-55619047D02*
X131200057Y-55666666D01*
X131200057Y-55666666D02*
X131295295Y-55714285D01*
X131295295Y-55714285D02*
X131485771Y-55761904D01*
X131485771Y-55761904D02*
X131723866Y-55761904D01*
X131723866Y-55761904D02*
X131914342Y-55714285D01*
X131914342Y-55714285D02*
X132009580Y-55666666D01*
X132009580Y-55666666D02*
X132057200Y-55619047D01*
X132057200Y-55619047D02*
X132104819Y-55523809D01*
X132104819Y-55523809D02*
X132104819Y-55428571D01*
X132104819Y-55428571D02*
X132057200Y-55333333D01*
X132057200Y-55333333D02*
X132009580Y-55285714D01*
X132009580Y-55285714D02*
X131914342Y-55238095D01*
X131914342Y-55238095D02*
X131723866Y-55190476D01*
X131723866Y-55190476D02*
X131485771Y-55190476D01*
X131485771Y-55190476D02*
X131295295Y-55238095D01*
X131295295Y-55238095D02*
X131200057Y-55285714D01*
X131200057Y-55285714D02*
X131152438Y-55333333D01*
X131152438Y-55333333D02*
X131104819Y-55428571D01*
X157604819Y-51857142D02*
X157128628Y-51523809D01*
X157604819Y-51285714D02*
X156604819Y-51285714D01*
X156604819Y-51285714D02*
X156604819Y-51666666D01*
X156604819Y-51666666D02*
X156652438Y-51761904D01*
X156652438Y-51761904D02*
X156700057Y-51809523D01*
X156700057Y-51809523D02*
X156795295Y-51857142D01*
X156795295Y-51857142D02*
X156938152Y-51857142D01*
X156938152Y-51857142D02*
X157033390Y-51809523D01*
X157033390Y-51809523D02*
X157081009Y-51761904D01*
X157081009Y-51761904D02*
X157128628Y-51666666D01*
X157128628Y-51666666D02*
X157128628Y-51285714D01*
X156604819Y-52190476D02*
X156604819Y-52809523D01*
X156604819Y-52809523D02*
X156985771Y-52476190D01*
X156985771Y-52476190D02*
X156985771Y-52619047D01*
X156985771Y-52619047D02*
X157033390Y-52714285D01*
X157033390Y-52714285D02*
X157081009Y-52761904D01*
X157081009Y-52761904D02*
X157176247Y-52809523D01*
X157176247Y-52809523D02*
X157414342Y-52809523D01*
X157414342Y-52809523D02*
X157509580Y-52761904D01*
X157509580Y-52761904D02*
X157557200Y-52714285D01*
X157557200Y-52714285D02*
X157604819Y-52619047D01*
X157604819Y-52619047D02*
X157604819Y-52333333D01*
X157604819Y-52333333D02*
X157557200Y-52238095D01*
X157557200Y-52238095D02*
X157509580Y-52190476D01*
X157604819Y-53761904D02*
X157604819Y-53190476D01*
X157604819Y-53476190D02*
X156604819Y-53476190D01*
X156604819Y-53476190D02*
X156747676Y-53380952D01*
X156747676Y-53380952D02*
X156842914Y-53285714D01*
X156842914Y-53285714D02*
X156890533Y-53190476D01*
X146142857Y-89454819D02*
X146476190Y-88978628D01*
X146714285Y-89454819D02*
X146714285Y-88454819D01*
X146714285Y-88454819D02*
X146333333Y-88454819D01*
X146333333Y-88454819D02*
X146238095Y-88502438D01*
X146238095Y-88502438D02*
X146190476Y-88550057D01*
X146190476Y-88550057D02*
X146142857Y-88645295D01*
X146142857Y-88645295D02*
X146142857Y-88788152D01*
X146142857Y-88788152D02*
X146190476Y-88883390D01*
X146190476Y-88883390D02*
X146238095Y-88931009D01*
X146238095Y-88931009D02*
X146333333Y-88978628D01*
X146333333Y-88978628D02*
X146714285Y-88978628D01*
X145190476Y-89454819D02*
X145761904Y-89454819D01*
X145476190Y-89454819D02*
X145476190Y-88454819D01*
X145476190Y-88454819D02*
X145571428Y-88597676D01*
X145571428Y-88597676D02*
X145666666Y-88692914D01*
X145666666Y-88692914D02*
X145761904Y-88740533D01*
X144238095Y-89454819D02*
X144809523Y-89454819D01*
X144523809Y-89454819D02*
X144523809Y-88454819D01*
X144523809Y-88454819D02*
X144619047Y-88597676D01*
X144619047Y-88597676D02*
X144714285Y-88692914D01*
X144714285Y-88692914D02*
X144809523Y-88740533D01*
X104449580Y-82452742D02*
X104497200Y-82405123D01*
X104497200Y-82405123D02*
X104544819Y-82262266D01*
X104544819Y-82262266D02*
X104544819Y-82167028D01*
X104544819Y-82167028D02*
X104497200Y-82024171D01*
X104497200Y-82024171D02*
X104401961Y-81928933D01*
X104401961Y-81928933D02*
X104306723Y-81881314D01*
X104306723Y-81881314D02*
X104116247Y-81833695D01*
X104116247Y-81833695D02*
X103973390Y-81833695D01*
X103973390Y-81833695D02*
X103782914Y-81881314D01*
X103782914Y-81881314D02*
X103687676Y-81928933D01*
X103687676Y-81928933D02*
X103592438Y-82024171D01*
X103592438Y-82024171D02*
X103544819Y-82167028D01*
X103544819Y-82167028D02*
X103544819Y-82262266D01*
X103544819Y-82262266D02*
X103592438Y-82405123D01*
X103592438Y-82405123D02*
X103640057Y-82452742D01*
X103640057Y-82833695D02*
X103592438Y-82881314D01*
X103592438Y-82881314D02*
X103544819Y-82976552D01*
X103544819Y-82976552D02*
X103544819Y-83214647D01*
X103544819Y-83214647D02*
X103592438Y-83309885D01*
X103592438Y-83309885D02*
X103640057Y-83357504D01*
X103640057Y-83357504D02*
X103735295Y-83405123D01*
X103735295Y-83405123D02*
X103830533Y-83405123D01*
X103830533Y-83405123D02*
X103973390Y-83357504D01*
X103973390Y-83357504D02*
X104544819Y-82786076D01*
X104544819Y-82786076D02*
X104544819Y-83405123D01*
X103544819Y-84024171D02*
X103544819Y-84119409D01*
X103544819Y-84119409D02*
X103592438Y-84214647D01*
X103592438Y-84214647D02*
X103640057Y-84262266D01*
X103640057Y-84262266D02*
X103735295Y-84309885D01*
X103735295Y-84309885D02*
X103925771Y-84357504D01*
X103925771Y-84357504D02*
X104163866Y-84357504D01*
X104163866Y-84357504D02*
X104354342Y-84309885D01*
X104354342Y-84309885D02*
X104449580Y-84262266D01*
X104449580Y-84262266D02*
X104497200Y-84214647D01*
X104497200Y-84214647D02*
X104544819Y-84119409D01*
X104544819Y-84119409D02*
X104544819Y-84024171D01*
X104544819Y-84024171D02*
X104497200Y-83928933D01*
X104497200Y-83928933D02*
X104449580Y-83881314D01*
X104449580Y-83881314D02*
X104354342Y-83833695D01*
X104354342Y-83833695D02*
X104163866Y-83786076D01*
X104163866Y-83786076D02*
X103925771Y-83786076D01*
X103925771Y-83786076D02*
X103735295Y-83833695D01*
X103735295Y-83833695D02*
X103640057Y-83881314D01*
X103640057Y-83881314D02*
X103592438Y-83928933D01*
X103592438Y-83928933D02*
X103544819Y-84024171D01*
X116954819Y-73857142D02*
X116478628Y-73523809D01*
X116954819Y-73285714D02*
X115954819Y-73285714D01*
X115954819Y-73285714D02*
X115954819Y-73666666D01*
X115954819Y-73666666D02*
X116002438Y-73761904D01*
X116002438Y-73761904D02*
X116050057Y-73809523D01*
X116050057Y-73809523D02*
X116145295Y-73857142D01*
X116145295Y-73857142D02*
X116288152Y-73857142D01*
X116288152Y-73857142D02*
X116383390Y-73809523D01*
X116383390Y-73809523D02*
X116431009Y-73761904D01*
X116431009Y-73761904D02*
X116478628Y-73666666D01*
X116478628Y-73666666D02*
X116478628Y-73285714D01*
X116288152Y-74714285D02*
X116954819Y-74714285D01*
X115907200Y-74476190D02*
X116621485Y-74238095D01*
X116621485Y-74238095D02*
X116621485Y-74857142D01*
X116954819Y-75285714D02*
X116954819Y-75476190D01*
X116954819Y-75476190D02*
X116907200Y-75571428D01*
X116907200Y-75571428D02*
X116859580Y-75619047D01*
X116859580Y-75619047D02*
X116716723Y-75714285D01*
X116716723Y-75714285D02*
X116526247Y-75761904D01*
X116526247Y-75761904D02*
X116145295Y-75761904D01*
X116145295Y-75761904D02*
X116050057Y-75714285D01*
X116050057Y-75714285D02*
X116002438Y-75666666D01*
X116002438Y-75666666D02*
X115954819Y-75571428D01*
X115954819Y-75571428D02*
X115954819Y-75380952D01*
X115954819Y-75380952D02*
X116002438Y-75285714D01*
X116002438Y-75285714D02*
X116050057Y-75238095D01*
X116050057Y-75238095D02*
X116145295Y-75190476D01*
X116145295Y-75190476D02*
X116383390Y-75190476D01*
X116383390Y-75190476D02*
X116478628Y-75238095D01*
X116478628Y-75238095D02*
X116526247Y-75285714D01*
X116526247Y-75285714D02*
X116573866Y-75380952D01*
X116573866Y-75380952D02*
X116573866Y-75571428D01*
X116573866Y-75571428D02*
X116526247Y-75666666D01*
X116526247Y-75666666D02*
X116478628Y-75714285D01*
X116478628Y-75714285D02*
X116383390Y-75761904D01*
X132104819Y-63857142D02*
X131628628Y-63523809D01*
X132104819Y-63285714D02*
X131104819Y-63285714D01*
X131104819Y-63285714D02*
X131104819Y-63666666D01*
X131104819Y-63666666D02*
X131152438Y-63761904D01*
X131152438Y-63761904D02*
X131200057Y-63809523D01*
X131200057Y-63809523D02*
X131295295Y-63857142D01*
X131295295Y-63857142D02*
X131438152Y-63857142D01*
X131438152Y-63857142D02*
X131533390Y-63809523D01*
X131533390Y-63809523D02*
X131581009Y-63761904D01*
X131581009Y-63761904D02*
X131628628Y-63666666D01*
X131628628Y-63666666D02*
X131628628Y-63285714D01*
X131200057Y-64238095D02*
X131152438Y-64285714D01*
X131152438Y-64285714D02*
X131104819Y-64380952D01*
X131104819Y-64380952D02*
X131104819Y-64619047D01*
X131104819Y-64619047D02*
X131152438Y-64714285D01*
X131152438Y-64714285D02*
X131200057Y-64761904D01*
X131200057Y-64761904D02*
X131295295Y-64809523D01*
X131295295Y-64809523D02*
X131390533Y-64809523D01*
X131390533Y-64809523D02*
X131533390Y-64761904D01*
X131533390Y-64761904D02*
X132104819Y-64190476D01*
X132104819Y-64190476D02*
X132104819Y-64809523D01*
X131104819Y-65428571D02*
X131104819Y-65523809D01*
X131104819Y-65523809D02*
X131152438Y-65619047D01*
X131152438Y-65619047D02*
X131200057Y-65666666D01*
X131200057Y-65666666D02*
X131295295Y-65714285D01*
X131295295Y-65714285D02*
X131485771Y-65761904D01*
X131485771Y-65761904D02*
X131723866Y-65761904D01*
X131723866Y-65761904D02*
X131914342Y-65714285D01*
X131914342Y-65714285D02*
X132009580Y-65666666D01*
X132009580Y-65666666D02*
X132057200Y-65619047D01*
X132057200Y-65619047D02*
X132104819Y-65523809D01*
X132104819Y-65523809D02*
X132104819Y-65428571D01*
X132104819Y-65428571D02*
X132057200Y-65333333D01*
X132057200Y-65333333D02*
X132009580Y-65285714D01*
X132009580Y-65285714D02*
X131914342Y-65238095D01*
X131914342Y-65238095D02*
X131723866Y-65190476D01*
X131723866Y-65190476D02*
X131485771Y-65190476D01*
X131485771Y-65190476D02*
X131295295Y-65238095D01*
X131295295Y-65238095D02*
X131200057Y-65285714D01*
X131200057Y-65285714D02*
X131152438Y-65333333D01*
X131152438Y-65333333D02*
X131104819Y-65428571D01*
X139166666Y-83359580D02*
X139214285Y-83407200D01*
X139214285Y-83407200D02*
X139357142Y-83454819D01*
X139357142Y-83454819D02*
X139452380Y-83454819D01*
X139452380Y-83454819D02*
X139595237Y-83407200D01*
X139595237Y-83407200D02*
X139690475Y-83311961D01*
X139690475Y-83311961D02*
X139738094Y-83216723D01*
X139738094Y-83216723D02*
X139785713Y-83026247D01*
X139785713Y-83026247D02*
X139785713Y-82883390D01*
X139785713Y-82883390D02*
X139738094Y-82692914D01*
X139738094Y-82692914D02*
X139690475Y-82597676D01*
X139690475Y-82597676D02*
X139595237Y-82502438D01*
X139595237Y-82502438D02*
X139452380Y-82454819D01*
X139452380Y-82454819D02*
X139357142Y-82454819D01*
X139357142Y-82454819D02*
X139214285Y-82502438D01*
X139214285Y-82502438D02*
X139166666Y-82550057D01*
X138309523Y-82788152D02*
X138309523Y-83454819D01*
X138547618Y-82407200D02*
X138785713Y-83121485D01*
X138785713Y-83121485D02*
X138166666Y-83121485D01*
X137642857Y-50604819D02*
X137976190Y-50128628D01*
X138214285Y-50604819D02*
X138214285Y-49604819D01*
X138214285Y-49604819D02*
X137833333Y-49604819D01*
X137833333Y-49604819D02*
X137738095Y-49652438D01*
X137738095Y-49652438D02*
X137690476Y-49700057D01*
X137690476Y-49700057D02*
X137642857Y-49795295D01*
X137642857Y-49795295D02*
X137642857Y-49938152D01*
X137642857Y-49938152D02*
X137690476Y-50033390D01*
X137690476Y-50033390D02*
X137738095Y-50081009D01*
X137738095Y-50081009D02*
X137833333Y-50128628D01*
X137833333Y-50128628D02*
X138214285Y-50128628D01*
X137261904Y-49700057D02*
X137214285Y-49652438D01*
X137214285Y-49652438D02*
X137119047Y-49604819D01*
X137119047Y-49604819D02*
X136880952Y-49604819D01*
X136880952Y-49604819D02*
X136785714Y-49652438D01*
X136785714Y-49652438D02*
X136738095Y-49700057D01*
X136738095Y-49700057D02*
X136690476Y-49795295D01*
X136690476Y-49795295D02*
X136690476Y-49890533D01*
X136690476Y-49890533D02*
X136738095Y-50033390D01*
X136738095Y-50033390D02*
X137309523Y-50604819D01*
X137309523Y-50604819D02*
X136690476Y-50604819D01*
X136214285Y-50604819D02*
X136023809Y-50604819D01*
X136023809Y-50604819D02*
X135928571Y-50557200D01*
X135928571Y-50557200D02*
X135880952Y-50509580D01*
X135880952Y-50509580D02*
X135785714Y-50366723D01*
X135785714Y-50366723D02*
X135738095Y-50176247D01*
X135738095Y-50176247D02*
X135738095Y-49795295D01*
X135738095Y-49795295D02*
X135785714Y-49700057D01*
X135785714Y-49700057D02*
X135833333Y-49652438D01*
X135833333Y-49652438D02*
X135928571Y-49604819D01*
X135928571Y-49604819D02*
X136119047Y-49604819D01*
X136119047Y-49604819D02*
X136214285Y-49652438D01*
X136214285Y-49652438D02*
X136261904Y-49700057D01*
X136261904Y-49700057D02*
X136309523Y-49795295D01*
X136309523Y-49795295D02*
X136309523Y-50033390D01*
X136309523Y-50033390D02*
X136261904Y-50128628D01*
X136261904Y-50128628D02*
X136214285Y-50176247D01*
X136214285Y-50176247D02*
X136119047Y-50223866D01*
X136119047Y-50223866D02*
X135928571Y-50223866D01*
X135928571Y-50223866D02*
X135833333Y-50176247D01*
X135833333Y-50176247D02*
X135785714Y-50128628D01*
X135785714Y-50128628D02*
X135738095Y-50033390D01*
X159859580Y-71317142D02*
X159907200Y-71269523D01*
X159907200Y-71269523D02*
X159954819Y-71126666D01*
X159954819Y-71126666D02*
X159954819Y-71031428D01*
X159954819Y-71031428D02*
X159907200Y-70888571D01*
X159907200Y-70888571D02*
X159811961Y-70793333D01*
X159811961Y-70793333D02*
X159716723Y-70745714D01*
X159716723Y-70745714D02*
X159526247Y-70698095D01*
X159526247Y-70698095D02*
X159383390Y-70698095D01*
X159383390Y-70698095D02*
X159192914Y-70745714D01*
X159192914Y-70745714D02*
X159097676Y-70793333D01*
X159097676Y-70793333D02*
X159002438Y-70888571D01*
X159002438Y-70888571D02*
X158954819Y-71031428D01*
X158954819Y-71031428D02*
X158954819Y-71126666D01*
X158954819Y-71126666D02*
X159002438Y-71269523D01*
X159002438Y-71269523D02*
X159050057Y-71317142D01*
X159954819Y-72269523D02*
X159954819Y-71698095D01*
X159954819Y-71983809D02*
X158954819Y-71983809D01*
X158954819Y-71983809D02*
X159097676Y-71888571D01*
X159097676Y-71888571D02*
X159192914Y-71793333D01*
X159192914Y-71793333D02*
X159240533Y-71698095D01*
X158954819Y-72602857D02*
X158954819Y-73221904D01*
X158954819Y-73221904D02*
X159335771Y-72888571D01*
X159335771Y-72888571D02*
X159335771Y-73031428D01*
X159335771Y-73031428D02*
X159383390Y-73126666D01*
X159383390Y-73126666D02*
X159431009Y-73174285D01*
X159431009Y-73174285D02*
X159526247Y-73221904D01*
X159526247Y-73221904D02*
X159764342Y-73221904D01*
X159764342Y-73221904D02*
X159859580Y-73174285D01*
X159859580Y-73174285D02*
X159907200Y-73126666D01*
X159907200Y-73126666D02*
X159954819Y-73031428D01*
X159954819Y-73031428D02*
X159954819Y-72745714D01*
X159954819Y-72745714D02*
X159907200Y-72650476D01*
X159907200Y-72650476D02*
X159859580Y-72602857D01*
D11*
%TO.C,C14*%
X110238748Y-68765000D02*
X110761252Y-68765000D01*
X110238748Y-70235000D02*
X110761252Y-70235000D01*
%TO.C,R12*%
X141265000Y-85772936D02*
X141265000Y-86227064D01*
X142735000Y-85772936D02*
X142735000Y-86227064D01*
%TO.C,R33*%
X136925436Y-57765000D02*
X137379564Y-57765000D01*
X136925436Y-59235000D02*
X137379564Y-59235000D01*
%TO.C,R36*%
X106620436Y-78732500D02*
X107074564Y-78732500D01*
X106620436Y-80202500D02*
X107074564Y-80202500D01*
%TO.C,C15*%
X135265000Y-71761252D02*
X135265000Y-71238748D01*
X136735000Y-71761252D02*
X136735000Y-71238748D01*
%TO.C,C17*%
X116265000Y-58261252D02*
X116265000Y-57738748D01*
X117735000Y-58261252D02*
X117735000Y-57738748D01*
%TO.C,C6*%
X69261252Y-77265000D02*
X68738748Y-77265000D01*
X69261252Y-78735000D02*
X68738748Y-78735000D01*
%TO.C,R45*%
X92765000Y-55727064D02*
X92765000Y-55272936D01*
X94235000Y-55727064D02*
X94235000Y-55272936D01*
%TO.C,C19*%
X107021142Y-58213752D02*
X107021142Y-57691248D01*
X108491142Y-58213752D02*
X108491142Y-57691248D01*
%TO.C,R10*%
X141265000Y-90772936D02*
X141265000Y-91227064D01*
X142735000Y-90772936D02*
X142735000Y-91227064D01*
%TO.C,R50*%
X94727064Y-62265000D02*
X94272936Y-62265000D01*
X94727064Y-63735000D02*
X94272936Y-63735000D01*
%TO.C,C18*%
X97860000Y-58213752D02*
X97860000Y-57691248D01*
X99330000Y-58213752D02*
X99330000Y-57691248D01*
%TO.C,R27*%
X129265000Y-59727064D02*
X129265000Y-59272936D01*
X130735000Y-59727064D02*
X130735000Y-59272936D01*
%TO.C,R48*%
X120765000Y-78272936D02*
X120765000Y-78727064D01*
X122235000Y-78272936D02*
X122235000Y-78727064D01*
%TO.C,R13*%
X150765000Y-91227064D02*
X150765000Y-90772936D01*
X152235000Y-91227064D02*
X152235000Y-90772936D01*
%TO.C,C12*%
X94991252Y-68645000D02*
X94468748Y-68645000D01*
X94991252Y-70115000D02*
X94468748Y-70115000D01*
%TO.C,R35*%
X154765000Y-62727064D02*
X154765000Y-62272936D01*
X156235000Y-62727064D02*
X156235000Y-62272936D01*
%TO.C,R47*%
X118265000Y-78272936D02*
X118265000Y-78727064D01*
X119735000Y-78272936D02*
X119735000Y-78727064D01*
%TO.C,R25*%
X154765000Y-57727064D02*
X154765000Y-57272936D01*
X156235000Y-57727064D02*
X156235000Y-57272936D01*
%TO.C,C2*%
X142788748Y-93825000D02*
X143311252Y-93825000D01*
X142788748Y-95295000D02*
X143311252Y-95295000D01*
%TO.C,R22*%
X136772936Y-52765000D02*
X137227064Y-52765000D01*
X136772936Y-54235000D02*
X137227064Y-54235000D01*
%TO.C,R43*%
X89765000Y-55727064D02*
X89765000Y-55272936D01*
X91235000Y-55727064D02*
X91235000Y-55272936D01*
%TO.C,C16*%
X145765000Y-71721252D02*
X145765000Y-71198748D01*
X147235000Y-71721252D02*
X147235000Y-71198748D01*
%TO.C,C3*%
X147265000Y-86261252D02*
X147265000Y-85738748D01*
X148735000Y-86261252D02*
X148735000Y-85738748D01*
%TO.C,R14*%
X150272936Y-93765000D02*
X150727064Y-93765000D01*
X150272936Y-95235000D02*
X150727064Y-95235000D01*
%TO.C,R30*%
X129265000Y-54727064D02*
X129265000Y-54272936D01*
X130735000Y-54727064D02*
X130735000Y-54272936D01*
%TO.C,R31*%
X154765000Y-52727064D02*
X154765000Y-52272936D01*
X156235000Y-52727064D02*
X156235000Y-52272936D01*
%TO.C,R11*%
X144765000Y-85772936D02*
X144765000Y-86227064D01*
X146235000Y-85772936D02*
X146235000Y-86227064D01*
%TO.C,C20*%
X105035000Y-82834348D02*
X105035000Y-83356852D01*
X106505000Y-82834348D02*
X106505000Y-83356852D01*
%TO.C,R49*%
X115765000Y-78272936D02*
X115765000Y-78727064D01*
X117235000Y-78272936D02*
X117235000Y-78727064D01*
%TO.C,R20*%
X129265000Y-64727064D02*
X129265000Y-64272936D01*
X130735000Y-64727064D02*
X130735000Y-64272936D01*
%TO.C,C4*%
X138765000Y-86261252D02*
X138765000Y-85738748D01*
X140235000Y-86261252D02*
X140235000Y-85738748D01*
%TO.C,R29*%
X136772936Y-47765000D02*
X137227064Y-47765000D01*
X136772936Y-49235000D02*
X137227064Y-49235000D01*
%TO.C,C13*%
X156265000Y-71721252D02*
X156265000Y-71198748D01*
X157735000Y-71721252D02*
X157735000Y-71198748D01*
%TD*%
M02*
