%TF.GenerationSoftware,KiCad,Pcbnew,9.0.0*%
%TF.CreationDate,2025-10-29T06:17:34+08:00*%
%TF.ProjectId,TSAL_G_V4_2,5453414c-5f47-45f5-9634-5f322e6b6963,rev?*%
%TF.SameCoordinates,Original*%
%TF.FileFunction,Soldermask,Top*%
%TF.FilePolarity,Negative*%
%FSLAX46Y46*%
G04 Gerber Fmt 4.6, Leading zero omitted, Abs format (unit mm)*
G04 Created by KiCad (PCBNEW 9.0.0) date 2025-10-29 06:17:34*
%MOMM*%
%LPD*%
G01*
G04 APERTURE LIST*
G04 Aperture macros list*
%AMRoundRect*
0 Rectangle with rounded corners*
0 $1 Rounding radius*
0 $2 $3 $4 $5 $6 $7 $8 $9 X,Y pos of 4 corners*
0 Add a 4 corners polygon primitive as box body*
4,1,4,$2,$3,$4,$5,$6,$7,$8,$9,$2,$3,0*
0 Add four circle primitives for the rounded corners*
1,1,$1+$1,$2,$3*
1,1,$1+$1,$4,$5*
1,1,$1+$1,$6,$7*
1,1,$1+$1,$8,$9*
0 Add four rect primitives between the rounded corners*
20,1,$1+$1,$2,$3,$4,$5,0*
20,1,$1+$1,$4,$5,$6,$7,0*
20,1,$1+$1,$6,$7,$8,$9,0*
20,1,$1+$1,$8,$9,$2,$3,0*%
%AMOutline5P*
0 Free polygon, 5 corners , with rotation*
0 The origin of the aperture is its center*
0 number of corners: always 5*
0 $1 to $10 corner X, Y*
0 $11 Rotation angle, in degrees counterclockwise*
0 create outline with 5 corners*
4,1,5,$1,$2,$3,$4,$5,$6,$7,$8,$9,$10,$1,$2,$11*%
%AMOutline6P*
0 Free polygon, 6 corners , with rotation*
0 The origin of the aperture is its center*
0 number of corners: always 6*
0 $1 to $12 corner X, Y*
0 $13 Rotation angle, in degrees counterclockwise*
0 create outline with 6 corners*
4,1,6,$1,$2,$3,$4,$5,$6,$7,$8,$9,$10,$11,$12,$1,$2,$13*%
%AMOutline7P*
0 Free polygon, 7 corners , with rotation*
0 The origin of the aperture is its center*
0 number of corners: always 7*
0 $1 to $14 corner X, Y*
0 $15 Rotation angle, in degrees counterclockwise*
0 create outline with 7 corners*
4,1,7,$1,$2,$3,$4,$5,$6,$7,$8,$9,$10,$11,$12,$13,$14,$1,$2,$15*%
%AMOutline8P*
0 Free polygon, 8 corners , with rotation*
0 The origin of the aperture is its center*
0 number of corners: always 8*
0 $1 to $16 corner X, Y*
0 $17 Rotation angle, in degrees counterclockwise*
0 create outline with 8 corners*
4,1,8,$1,$2,$3,$4,$5,$6,$7,$8,$9,$10,$11,$12,$13,$14,$15,$16,$1,$2,$17*%
G04 Aperture macros list end*
%ADD10RoundRect,0.249999X-0.750001X-0.640001X0.750001X-0.640001X0.750001X0.640001X-0.750001X0.640001X0*%
%ADD11RoundRect,0.120600X-0.281400X1.111400X-0.281400X-1.111400X0.281400X-1.111400X0.281400X1.111400X0*%
%ADD12RoundRect,0.122100X-0.284900X1.109900X-0.284900X-1.109900X0.284900X-1.109900X0.284900X1.109900X0*%
%ADD13RoundRect,0.120600X-1.111400X-0.281400X1.111400X-0.281400X1.111400X0.281400X-1.111400X0.281400X0*%
%ADD14RoundRect,0.122100X-1.109900X-0.284900X1.109900X-0.284900X1.109900X0.284900X-1.109900X0.284900X0*%
%ADD15RoundRect,0.278125X0.389375X-0.474375X0.389375X0.474375X-0.389375X0.474375X-0.389375X-0.474375X0*%
%ADD16RoundRect,0.278125X-0.474375X-0.389375X0.474375X-0.389375X0.474375X0.389375X-0.474375X0.389375X0*%
%ADD17C,4.300000*%
%ADD18RoundRect,0.278125X-0.389375X0.474375X-0.389375X-0.474375X0.389375X-0.474375X0.389375X0.474375X0*%
%ADD19RoundRect,0.150000X-1.350000X-0.150000X1.350000X-0.150000X1.350000X0.150000X-1.350000X0.150000X0*%
%ADD20RoundRect,0.150000X-1.337500X-0.150000X1.337500X-0.150000X1.337500X0.150000X-1.337500X0.150000X0*%
%ADD21RoundRect,0.304348X-0.420652X-0.395652X0.420652X-0.395652X0.420652X0.395652X-0.420652X0.395652X0*%
%ADD22RoundRect,0.150000X0.150000X-1.350000X0.150000X1.350000X-0.150000X1.350000X-0.150000X-1.350000X0*%
%ADD23RoundRect,0.150000X0.150000X-1.337500X0.150000X1.337500X-0.150000X1.337500X-0.150000X-1.337500X0*%
%ADD24C,1.270000*%
%ADD25RoundRect,0.250001X0.759999X-0.499999X0.759999X0.499999X-0.759999X0.499999X-0.759999X-0.499999X0*%
%ADD26O,2.020000X1.500000*%
%ADD27RoundRect,0.278125X0.474375X0.389375X-0.474375X0.389375X-0.474375X-0.389375X0.474375X-0.389375X0*%
%ADD28RoundRect,0.304348X0.420652X0.395652X-0.420652X0.395652X-0.420652X-0.395652X0.420652X-0.395652X0*%
%ADD29RoundRect,0.251116X3.376384X-2.561384X3.376384X2.561384X-3.376384X2.561384X-3.376384X-2.561384X0*%
%ADD30RoundRect,0.250001X-0.499999X-0.759999X0.499999X-0.759999X0.499999X0.759999X-0.499999X0.759999X0*%
%ADD31O,1.500000X2.020000*%
%ADD32RoundRect,0.120600X0.281400X-1.111400X0.281400X1.111400X-0.281400X1.111400X-0.281400X-1.111400X0*%
%ADD33RoundRect,0.122100X0.284900X-1.109900X0.284900X1.109900X-0.284900X1.109900X-0.284900X-1.109900X0*%
%ADD34RoundRect,0.305575X-0.412525X0.460025X-0.412525X-0.460025X0.412525X-0.460025X0.412525X0.460025X0*%
%ADD35RoundRect,0.308511X-0.416489X0.457089X-0.416489X-0.457089X0.416489X-0.457089X0.416489X0.457089X0*%
%ADD36RoundRect,0.305575X0.412525X-0.460025X0.412525X0.460025X-0.412525X0.460025X-0.412525X-0.460025X0*%
%ADD37RoundRect,0.308511X0.416489X-0.457089X0.416489X0.457089X-0.416489X0.457089X-0.416489X-0.457089X0*%
%ADD38RoundRect,0.150000X0.750000X0.150000X-0.750000X0.150000X-0.750000X-0.150000X0.750000X-0.150000X0*%
%ADD39RoundRect,0.250001X-0.759999X0.499999X-0.759999X-0.499999X0.759999X-0.499999X0.759999X0.499999X0*%
%ADD40R,1.600000X1.600000*%
%ADD41C,1.600000*%
%ADD42RoundRect,0.250000X-1.500000X-0.650000X1.500000X-0.650000X1.500000X0.650000X-1.500000X0.650000X0*%
%ADD43R,1.500000X1.500000*%
%ADD44C,1.500000*%
%ADD45O,1.600000X1.600000*%
%ADD46RoundRect,0.150000X-0.150000X0.587500X-0.150000X-0.587500X0.150000X-0.587500X0.150000X0.587500X0*%
%ADD47RoundRect,0.250000X1.230000X0.350000X-1.230000X0.350000X-1.230000X-0.350000X1.230000X-0.350000X0*%
%ADD48Outline6P,-5.220000X2.900000X4.060000X2.900000X5.220000X1.740000X5.220000X-1.740000X4.060000X-2.900000X-5.220000X-2.900000X180.000000*%
%ADD49Outline6P,-5.220000X2.900000X4.060000X2.900000X5.220000X1.740000X5.220000X-1.740000X4.060000X-2.900000X-5.220000X-2.900000X0.000000*%
%ADD50RoundRect,0.250000X-1.230000X-0.350000X1.230000X-0.350000X1.230000X0.350000X-1.230000X0.350000X0*%
%ADD51RoundRect,0.304348X-0.395652X0.420652X-0.395652X-0.420652X0.395652X-0.420652X0.395652X0.420652X0*%
%ADD52RoundRect,0.305575X0.460025X0.412525X-0.460025X0.412525X-0.460025X-0.412525X0.460025X-0.412525X0*%
%ADD53RoundRect,0.308511X0.457089X0.416489X-0.457089X0.416489X-0.457089X-0.416489X0.457089X-0.416489X0*%
%ADD54RoundRect,0.250001X0.462499X1.074999X-0.462499X1.074999X-0.462499X-1.074999X0.462499X-1.074999X0*%
G04 APERTURE END LIST*
D10*
%TO.C,U4*%
X74235000Y-79730000D03*
X74235000Y-82270000D03*
X83765000Y-82270000D03*
X83765000Y-79730000D03*
%TD*%
D11*
%TO.C,U9*%
X103310000Y-79260000D03*
X102040000Y-79260000D03*
X100770000Y-79260000D03*
X99500000Y-79260000D03*
X98230000Y-79260000D03*
X96960000Y-79260000D03*
X95690000Y-79260000D03*
X95690000Y-84500000D03*
D12*
X96955000Y-84500000D03*
D11*
X98230000Y-84500000D03*
X99500000Y-84500000D03*
X100770000Y-84500000D03*
X102040000Y-84500000D03*
X103310000Y-84500000D03*
%TD*%
D13*
%TO.C,U12*%
X141380000Y-71690000D03*
X141380000Y-72960000D03*
X141380000Y-74230000D03*
X141380000Y-75500000D03*
X141380000Y-76770000D03*
X141380000Y-78040000D03*
X141380000Y-79310000D03*
X146620000Y-79310000D03*
D14*
X146620000Y-78045000D03*
D13*
X146620000Y-76770000D03*
X146620000Y-75500000D03*
X146620000Y-74230000D03*
X146620000Y-72960000D03*
X146620000Y-71690000D03*
%TD*%
D15*
%TO.C,R15*%
X58967500Y-77652500D03*
X58967500Y-75347500D03*
%TD*%
D16*
%TO.C,R3*%
X39347500Y-67692500D03*
X41652500Y-67692500D03*
%TD*%
D17*
%TO.C,H3*%
X30500000Y-43500000D03*
%TD*%
D18*
%TO.C,R51*%
X114532500Y-49347500D03*
X114532500Y-51652500D03*
%TD*%
D19*
%TO.C,LM1*%
X64000000Y-80595000D03*
X64000000Y-81865000D03*
D20*
X63987500Y-83000000D03*
D19*
X64000000Y-84405000D03*
X70000000Y-84405000D03*
X70000000Y-83135000D03*
X70000000Y-81865000D03*
X70000000Y-80595000D03*
%TD*%
D21*
%TO.C,D3*%
X127825000Y-63540000D03*
X130175000Y-63540000D03*
%TD*%
D18*
%TO.C,R4*%
X59532500Y-87695000D03*
X59532500Y-90000000D03*
%TD*%
D22*
%TO.C,U13*%
X101190000Y-62952500D03*
X102460000Y-62952500D03*
D23*
X103595000Y-62965000D03*
D22*
X105000000Y-62952500D03*
X105000000Y-56952500D03*
X103730000Y-56952500D03*
X102460000Y-56952500D03*
X101190000Y-56952500D03*
%TD*%
D24*
%TO.C,J1*%
X27125000Y-60500000D03*
X27125000Y-51500000D03*
D25*
X29085000Y-57500000D03*
D26*
X29085000Y-54500000D03*
%TD*%
D16*
%TO.C,R39*%
X103383642Y-89847500D03*
X105688642Y-89847500D03*
%TD*%
D27*
%TO.C,R34*%
X123152500Y-82032500D03*
X120847500Y-82032500D03*
%TD*%
D28*
%TO.C,D10*%
X157675000Y-51500000D03*
X155325000Y-51500000D03*
%TD*%
D29*
%TO.C,F1*%
X41500000Y-63000000D03*
X41500000Y-52450000D03*
%TD*%
D18*
%TO.C,R5*%
X41532500Y-70072500D03*
X41532500Y-72377500D03*
%TD*%
D24*
%TO.C,J4*%
X111500000Y-91625000D03*
X120500000Y-91625000D03*
D30*
X114500000Y-93585000D03*
D31*
X117500000Y-93585000D03*
%TD*%
D21*
%TO.C,D8*%
X127825000Y-58500000D03*
X130175000Y-58500000D03*
%TD*%
%TO.C,D9*%
X127825000Y-53500000D03*
X130175000Y-53500000D03*
%TD*%
D32*
%TO.C,U7*%
X95920000Y-74500000D03*
X97190000Y-74500000D03*
X98460000Y-74500000D03*
X99730000Y-74500000D03*
X101000000Y-74500000D03*
X102270000Y-74500000D03*
X103540000Y-74500000D03*
X103540000Y-69260000D03*
D33*
X102275000Y-69260000D03*
D32*
X101000000Y-69260000D03*
X99730000Y-69260000D03*
X98460000Y-69260000D03*
X97190000Y-69260000D03*
X95920000Y-69260000D03*
%TD*%
D34*
%TO.C,C5*%
X59006900Y-80284400D03*
D35*
X59000000Y-82715600D03*
%TD*%
D17*
%TO.C,H2*%
X159500000Y-92500000D03*
%TD*%
D36*
%TO.C,C8*%
X65493100Y-92715600D03*
D37*
X65500000Y-90284400D03*
%TD*%
D24*
%TO.C,J5*%
X127500000Y-91625000D03*
X136500000Y-91625000D03*
D30*
X130500000Y-93585000D03*
D31*
X133500000Y-93585000D03*
%TD*%
D13*
%TO.C,U6*%
X151880000Y-71690000D03*
X151880000Y-72960000D03*
X151880000Y-74230000D03*
X151880000Y-75500000D03*
X151880000Y-76770000D03*
X151880000Y-78040000D03*
X151880000Y-79310000D03*
X157120000Y-79310000D03*
D14*
X157120000Y-78045000D03*
D13*
X157120000Y-76770000D03*
X157120000Y-75500000D03*
X157120000Y-74230000D03*
X157120000Y-72960000D03*
X157120000Y-71690000D03*
%TD*%
D18*
%TO.C,R18*%
X74032500Y-74347500D03*
X74032500Y-76652500D03*
%TD*%
D38*
%TO.C,U1*%
X53600000Y-93450000D03*
X53600000Y-91550000D03*
X51400000Y-92500000D03*
%TD*%
D24*
%TO.C,J8*%
X80960000Y-45000000D03*
X80960000Y-54000000D03*
D39*
X79000000Y-48000000D03*
D26*
X79000000Y-51000000D03*
%TD*%
D34*
%TO.C,C10*%
X90506900Y-91068800D03*
D35*
X90500000Y-93500000D03*
%TD*%
D22*
%TO.C,U14*%
X110351142Y-62952500D03*
X111621142Y-62952500D03*
D23*
X112756142Y-62965000D03*
D22*
X114161142Y-62952500D03*
X114161142Y-56952500D03*
X112891142Y-56952500D03*
X111621142Y-56952500D03*
X110351142Y-56952500D03*
%TD*%
D27*
%TO.C,R38*%
X91152500Y-86532500D03*
X88847500Y-86532500D03*
%TD*%
D28*
%TO.C,D6*%
X157675000Y-56500000D03*
X155325000Y-56500000D03*
%TD*%
D24*
%TO.C,J2*%
X27125000Y-83500000D03*
X27125000Y-74500000D03*
D25*
X29085000Y-80500000D03*
D26*
X29085000Y-77500000D03*
%TD*%
D24*
%TO.C,J3*%
X101875000Y-40000000D03*
X101875000Y-52000000D03*
D39*
X99915000Y-43000000D03*
D26*
X99915000Y-46000000D03*
X99915000Y-49000000D03*
%TD*%
D40*
%TO.C,C22*%
X72000000Y-42500000D03*
D41*
X69500000Y-42500000D03*
%TD*%
D15*
%TO.C,R40*%
X114467500Y-89152500D03*
X114467500Y-86847500D03*
%TD*%
D18*
%TO.C,R2*%
X56532500Y-93347500D03*
X56532500Y-95652500D03*
%TD*%
D42*
%TO.C,D2*%
X97500000Y-93500000D03*
X102500000Y-93500000D03*
%TD*%
D27*
%TO.C,R24*%
X91152500Y-78032500D03*
X88847500Y-78032500D03*
%TD*%
D18*
%TO.C,R53*%
X124532500Y-49347500D03*
X124532500Y-51652500D03*
%TD*%
D43*
%TO.C,U5*%
X85587500Y-93440000D03*
D44*
X83047500Y-93440000D03*
X75427500Y-93440000D03*
X70347500Y-93440000D03*
%TD*%
D27*
%TO.C,R23*%
X91152500Y-72632500D03*
X88847500Y-72632500D03*
%TD*%
D10*
%TO.C,U8*%
X140970000Y-43260000D03*
X140970000Y-45800000D03*
X140970000Y-48340000D03*
X140970000Y-50880000D03*
X140970000Y-53420000D03*
X140970000Y-55960000D03*
X140970000Y-58500000D03*
X140970000Y-61040000D03*
X150500000Y-61040000D03*
X150500000Y-58500000D03*
X150500000Y-55960000D03*
X150500000Y-53420000D03*
X150500000Y-50880000D03*
X150500000Y-48340000D03*
X150500000Y-45800000D03*
X150500000Y-43260000D03*
%TD*%
D18*
%TO.C,R7*%
X41532500Y-80072500D03*
X41532500Y-82377500D03*
%TD*%
D24*
%TO.C,J6*%
X111875000Y-40000000D03*
X111875000Y-52000000D03*
D39*
X109915000Y-43000000D03*
D26*
X109915000Y-46000000D03*
X109915000Y-49000000D03*
%TD*%
D24*
%TO.C,J7*%
X121875000Y-40000000D03*
X121875000Y-52000000D03*
D39*
X119915000Y-43000000D03*
D26*
X119915000Y-46000000D03*
X119915000Y-49000000D03*
%TD*%
D32*
%TO.C,U10*%
X113690000Y-74620000D03*
X114960000Y-74620000D03*
X116230000Y-74620000D03*
X117500000Y-74620000D03*
X118770000Y-74620000D03*
X120040000Y-74620000D03*
X121310000Y-74620000D03*
X121310000Y-69380000D03*
D33*
X120045000Y-69380000D03*
D32*
X118770000Y-69380000D03*
X117500000Y-69380000D03*
X116230000Y-69380000D03*
X114960000Y-69380000D03*
X113690000Y-69380000D03*
%TD*%
D22*
%TO.C,U15*%
X119595000Y-63000000D03*
X120865000Y-63000000D03*
D23*
X122000000Y-63012500D03*
D22*
X123405000Y-63000000D03*
X123405000Y-57000000D03*
X122135000Y-57000000D03*
X120865000Y-57000000D03*
X119595000Y-57000000D03*
%TD*%
D19*
%TO.C,U3*%
X142000000Y-83595000D03*
X142000000Y-84865000D03*
D20*
X141987500Y-86000000D03*
D19*
X142000000Y-87405000D03*
X148000000Y-87405000D03*
X148000000Y-86135000D03*
X148000000Y-84865000D03*
X148000000Y-83595000D03*
%TD*%
D40*
%TO.C,C11*%
X109500000Y-84294888D03*
D41*
X109500000Y-86794888D03*
%TD*%
D18*
%TO.C,R21*%
X136032500Y-53847500D03*
X136032500Y-56152500D03*
%TD*%
D19*
%TO.C,U2*%
X142000000Y-90095000D03*
X142000000Y-91365000D03*
D20*
X141987500Y-92500000D03*
D19*
X142000000Y-93905000D03*
X148000000Y-93905000D03*
X148000000Y-92635000D03*
X148000000Y-91365000D03*
X148000000Y-90095000D03*
%TD*%
D28*
%TO.C,D14*%
X91168242Y-84000000D03*
X88818242Y-84000000D03*
%TD*%
D40*
%TO.C,D1*%
X53000000Y-75690000D03*
D45*
X53000000Y-83310000D03*
%TD*%
D15*
%TO.C,R8*%
X41467500Y-87377500D03*
X41467500Y-85072500D03*
%TD*%
D27*
%TO.C,R44*%
X90652500Y-54532500D03*
X88347500Y-54532500D03*
%TD*%
D18*
%TO.C,R9*%
X41532500Y-90072500D03*
X41532500Y-92377500D03*
%TD*%
D27*
%TO.C,R16*%
X59152500Y-85032500D03*
X56847500Y-85032500D03*
%TD*%
D15*
%TO.C,R6*%
X41467500Y-77377500D03*
X41467500Y-75072500D03*
%TD*%
D36*
%TO.C,C7*%
X62493100Y-92715600D03*
D37*
X62500000Y-90284400D03*
%TD*%
D16*
%TO.C,R46*%
X93347500Y-54467500D03*
X95652500Y-54467500D03*
%TD*%
D27*
%TO.C,R37*%
X119152500Y-86532500D03*
X116847500Y-86532500D03*
%TD*%
D17*
%TO.C,H4*%
X30500000Y-92500000D03*
%TD*%
D21*
%TO.C,D13*%
X105679258Y-79467500D03*
X108029258Y-79467500D03*
%TD*%
D46*
%TO.C,Q1*%
X118450000Y-82062500D03*
X116550000Y-82062500D03*
X117500000Y-83937500D03*
%TD*%
D47*
%TO.C,U16*%
X71920000Y-52780000D03*
D48*
X64220000Y-50500000D03*
D47*
X71920000Y-48220000D03*
%TD*%
D49*
%TO.C,Q2*%
X133200000Y-86500000D03*
D50*
X125500000Y-84220000D03*
X125500000Y-88780000D03*
%TD*%
D18*
%TO.C,R32*%
X136185000Y-58847500D03*
X136185000Y-61152500D03*
%TD*%
D28*
%TO.C,D4*%
X91168242Y-70100000D03*
X88818242Y-70100000D03*
%TD*%
D15*
%TO.C,R41*%
X114467500Y-84152500D03*
X114467500Y-81847500D03*
%TD*%
D40*
%TO.C,C21*%
X71867677Y-57500000D03*
D41*
X69367677Y-57500000D03*
%TD*%
D27*
%TO.C,R19*%
X85652500Y-85532500D03*
X83347500Y-85532500D03*
%TD*%
D13*
%TO.C,U11*%
X130760000Y-71730000D03*
X130760000Y-73000000D03*
X130760000Y-74270000D03*
X130760000Y-75540000D03*
X130760000Y-76810000D03*
X130760000Y-78080000D03*
X130760000Y-79350000D03*
X136000000Y-79350000D03*
D14*
X136000000Y-78085000D03*
D13*
X136000000Y-76810000D03*
X136000000Y-75540000D03*
X136000000Y-74270000D03*
X136000000Y-73000000D03*
X136000000Y-71730000D03*
%TD*%
D28*
%TO.C,D11*%
X157675000Y-61500000D03*
X155325000Y-61500000D03*
%TD*%
D18*
%TO.C,R17*%
X62032500Y-75347500D03*
X62032500Y-77652500D03*
%TD*%
D28*
%TO.C,D5*%
X91175000Y-80500000D03*
X88825000Y-80500000D03*
%TD*%
D17*
%TO.C,H1*%
X159500000Y-43500000D03*
%TD*%
D34*
%TO.C,C9*%
X93506900Y-91068800D03*
D35*
X93500000Y-93500000D03*
%TD*%
D18*
%TO.C,R52*%
X104532500Y-49347500D03*
X104532500Y-51652500D03*
%TD*%
D27*
%TO.C,R26*%
X91159258Y-66032500D03*
X88854258Y-66032500D03*
%TD*%
D28*
%TO.C,D7*%
X91175000Y-63500000D03*
X88825000Y-63500000D03*
%TD*%
D18*
%TO.C,R28*%
X136032500Y-48847500D03*
X136032500Y-51152500D03*
%TD*%
D51*
%TO.C,D12*%
X122000000Y-86325000D03*
X122000000Y-88675000D03*
%TD*%
D15*
%TO.C,R42*%
X100967500Y-89652500D03*
X100967500Y-87347500D03*
%TD*%
D52*
%TO.C,C1*%
X53715600Y-87506900D03*
D53*
X51284400Y-87500000D03*
%TD*%
D54*
%TO.C,F2*%
X108987500Y-93500000D03*
X106012500Y-93500000D03*
%TD*%
D18*
%TO.C,R1*%
X56532500Y-87695000D03*
X56532500Y-90000000D03*
%TD*%
M02*
