%TF.GenerationSoftware,KiCad,Pcbnew,9.0.2*%
%TF.CreationDate,2025-07-25T15:19:20+08:00*%
%TF.ProjectId,accum_pcb_under,61636375-6d5f-4706-9362-5f756e646572,rev?*%
%TF.SameCoordinates,Original*%
%TF.FileFunction,Profile,NP*%
%FSLAX46Y46*%
G04 Gerber Fmt 4.6, Leading zero omitted, Abs format (unit mm)*
G04 Created by KiCad (PCBNEW 9.0.2) date 2025-07-25 15:19:20*
%MOMM*%
%LPD*%
G01*
G04 APERTURE LIST*
%TA.AperFunction,Profile*%
%ADD10C,0.050000*%
%TD*%
G04 APERTURE END LIST*
D10*
X378945418Y-185683590D02*
X377445418Y-185683590D01*
X350945752Y-185680590D02*
X349445752Y-185680590D01*
X150665418Y-185674590D02*
X149165418Y-185674590D01*
X513131767Y-206688090D02*
X511631767Y-206688090D01*
X330898448Y-235621590D02*
X329398448Y-235621590D01*
X475085115Y-235622590D02*
X473585115Y-235622590D01*
X312897130Y-235615090D02*
X311397130Y-235615090D01*
X311397130Y-206682090D02*
X311397130Y-185682090D01*
X187212129Y-235614090D02*
X187212129Y-214614090D01*
X198756811Y-235615590D02*
X197256811Y-235615590D01*
X274850478Y-235616590D02*
X273350478Y-235616590D01*
X453539085Y-206686590D02*
X453539085Y-185686590D01*
X132665115Y-214613590D02*
X131165115Y-214613590D01*
X425537115Y-206686590D02*
X425537115Y-185686590D01*
X435538463Y-235621090D02*
X435538463Y-214621090D01*
X465085767Y-185685090D02*
X463585767Y-185685090D01*
X284851100Y-206679090D02*
X283351100Y-206679090D01*
X102620100Y-185674090D02*
X101120100Y-185674090D01*
X111119085Y-206675590D02*
X111119085Y-185675590D01*
X398991448Y-235621590D02*
X397491448Y-235621590D01*
X246804841Y-214613590D02*
X246804841Y-235613590D01*
X264805433Y-206679090D02*
X263305433Y-206679090D01*
X274852115Y-185677590D02*
X273352115Y-185677590D01*
X483085115Y-206689590D02*
X481585115Y-206689590D01*
X427039478Y-214619590D02*
X425539478Y-214619590D01*
X378945811Y-214621590D02*
X378945811Y-235621590D01*
X122665767Y-185674090D02*
X121165767Y-185674090D01*
X274850115Y-206680590D02*
X273350115Y-206680590D01*
X455039448Y-214622590D02*
X453539448Y-214622590D01*
X427037115Y-206686590D02*
X425537115Y-206686590D01*
X254806811Y-214613590D02*
X253306811Y-214613590D01*
X437038130Y-185685090D02*
X437038130Y-206685090D01*
X170711478Y-214612590D02*
X170711478Y-235612590D01*
X139164796Y-235614090D02*
X139164796Y-214614090D01*
X292853463Y-185679090D02*
X291353463Y-185679090D01*
X503132782Y-214619590D02*
X501632782Y-214619590D01*
X475084782Y-185686590D02*
X475084782Y-206686590D01*
X322898115Y-206680590D02*
X321398115Y-206680590D01*
X491586100Y-206688090D02*
X491586100Y-185688090D01*
X312899130Y-185679090D02*
X312899130Y-206679090D01*
X339399433Y-235620090D02*
X339399433Y-214620090D01*
X406993811Y-214619590D02*
X406993811Y-235619590D01*
X387490100Y-206685090D02*
X387490100Y-185685090D01*
X367444796Y-235623090D02*
X367444796Y-214623090D01*
X330900448Y-214618590D02*
X330900448Y-235618590D01*
X254804811Y-235616590D02*
X253304811Y-235616590D01*
X226758781Y-185677590D02*
X225258781Y-185677590D01*
X388990463Y-235623090D02*
X387490463Y-235623090D01*
X465086130Y-214621090D02*
X465086130Y-235621090D01*
X188712129Y-235614090D02*
X187212129Y-235614090D01*
X216758159Y-235615090D02*
X215258159Y-235615090D01*
X340899463Y-214620090D02*
X340899463Y-235620090D01*
X226758811Y-185677590D02*
X226758811Y-206677590D01*
X513131767Y-214621090D02*
X511631767Y-214621090D01*
X160710463Y-235614090D02*
X159210463Y-235614090D01*
X170711448Y-214612590D02*
X169211448Y-214612590D01*
X132664782Y-185675590D02*
X132664782Y-206675590D01*
X140664796Y-235614090D02*
X139164796Y-235614090D01*
X475084752Y-185686590D02*
X473584752Y-185686590D01*
X322898115Y-185680590D02*
X321398115Y-185680590D01*
X322898145Y-185680590D02*
X322898145Y-206680590D01*
X359444737Y-206682090D02*
X359444737Y-185682090D01*
X378945418Y-206683590D02*
X377445418Y-206683590D01*
X455039085Y-185686590D02*
X453539085Y-185686590D01*
X475084752Y-206686590D02*
X473584752Y-206686590D01*
X140666433Y-185673090D02*
X139166433Y-185673090D01*
X254806811Y-214613590D02*
X254806811Y-235613590D01*
X284851100Y-185679090D02*
X283351100Y-185679090D01*
X463583767Y-206688090D02*
X463583767Y-185688090D01*
X435538100Y-206685090D02*
X435538100Y-185685090D01*
X443538463Y-235624090D02*
X443538463Y-214624090D01*
X360945130Y-214620090D02*
X360945130Y-235620090D01*
X465085767Y-185685090D02*
X465085767Y-206685090D01*
X160712463Y-214611090D02*
X159212463Y-214611090D01*
X102618100Y-206677090D02*
X101118100Y-206677090D01*
X360944737Y-185682090D02*
X359444737Y-185682090D01*
X349443752Y-206683590D02*
X349443752Y-185683590D01*
X216760159Y-214612090D02*
X215260159Y-214612090D01*
X246804448Y-206677590D02*
X245304448Y-206677590D01*
X501630782Y-206689590D02*
X501630782Y-185689590D01*
X378945781Y-214621590D02*
X377445781Y-214621590D01*
X139164433Y-206676090D02*
X139164433Y-185676090D01*
X284851130Y-185679090D02*
X284851130Y-206679090D01*
X170711085Y-185674590D02*
X169211085Y-185674590D01*
X368944796Y-235623090D02*
X367444796Y-235623090D01*
X427039115Y-185683590D02*
X427039115Y-206683590D01*
X235303463Y-206679090D02*
X235303463Y-185679090D01*
X445040100Y-185685090D02*
X445040100Y-206685090D01*
X284851463Y-214615090D02*
X283351463Y-214615090D01*
X427037478Y-235622590D02*
X425537478Y-235622590D01*
X483087115Y-214619590D02*
X481587115Y-214619590D01*
X169211085Y-206674590D02*
X169211085Y-185674590D01*
X291351463Y-235615090D02*
X291351463Y-214615090D01*
X236805463Y-185676090D02*
X236805463Y-206676090D01*
X437038100Y-206685090D02*
X435538100Y-206685090D01*
X292853463Y-214612090D02*
X292853463Y-235612090D01*
X292853463Y-214612090D02*
X291353463Y-214612090D01*
X264805826Y-214615090D02*
X264805826Y-235615090D01*
X503132782Y-214619590D02*
X503132782Y-235619590D01*
X170711085Y-206674590D02*
X169211085Y-206674590D01*
X453539448Y-235622590D02*
X453539448Y-214622590D01*
X533222115Y-177186590D02*
X85740115Y-177186598D01*
X398991085Y-206683590D02*
X397491085Y-206683590D01*
X437038463Y-235621090D02*
X435538463Y-235621090D01*
X398991085Y-185683590D02*
X397491085Y-185683590D01*
X483087115Y-185686590D02*
X481587115Y-185686590D01*
X263305796Y-235615090D02*
X263305796Y-214615090D01*
X340899070Y-206682090D02*
X339399070Y-206682090D01*
X388992100Y-185682090D02*
X387492100Y-185682090D01*
X197256448Y-206677590D02*
X197256448Y-185677590D01*
X445040100Y-185685090D02*
X443540100Y-185685090D01*
X264805433Y-185679090D02*
X263305433Y-185679090D01*
X140666796Y-214611090D02*
X140666796Y-235611090D01*
X159210100Y-206676090D02*
X159210100Y-185676090D01*
X483087115Y-185686590D02*
X483087115Y-206686590D01*
X253304811Y-235616590D02*
X253304811Y-214616590D01*
X208757433Y-185676090D02*
X207257433Y-185676090D01*
X122666130Y-214612090D02*
X121166130Y-214612090D01*
X437038463Y-214621090D02*
X435538463Y-214621090D01*
X416992796Y-235621090D02*
X415492796Y-235621090D01*
X416992463Y-185685090D02*
X416992463Y-206685090D01*
X322898115Y-235613590D02*
X321398115Y-235613590D01*
X169211448Y-235612590D02*
X169211448Y-214612590D01*
X312899130Y-214612090D02*
X311399130Y-214612090D01*
X160710100Y-206676090D02*
X159210100Y-206676090D01*
X122663767Y-206677090D02*
X121163767Y-206677090D01*
X284851493Y-214615090D02*
X284851493Y-235615090D01*
X349444115Y-235621590D02*
X349444115Y-214621590D01*
X416992826Y-214621090D02*
X416992826Y-235621090D01*
X302852448Y-214613590D02*
X301352448Y-214613590D01*
X150665418Y-206674590D02*
X149165418Y-206674590D01*
X302852448Y-206680590D02*
X301352448Y-206680590D01*
X236805463Y-185676090D02*
X235305463Y-185676090D01*
X140666796Y-214611090D02*
X139166796Y-214611090D01*
X216760159Y-214612090D02*
X216760159Y-235612090D01*
X160712463Y-214611090D02*
X160712463Y-235611090D01*
X437038493Y-214621090D02*
X437038493Y-235621090D01*
X329398085Y-206683590D02*
X329398085Y-185683590D01*
X513131767Y-185688090D02*
X511631767Y-185688090D01*
X378945781Y-235621590D02*
X377445781Y-235621590D01*
X122666130Y-214612090D02*
X122666130Y-235612090D01*
X150665448Y-185674590D02*
X150665448Y-206674590D01*
X513131767Y-235621090D02*
X511631767Y-235621090D01*
X415492433Y-206685090D02*
X415492433Y-185685090D01*
X513131797Y-214621090D02*
X513131797Y-235621090D01*
X226759144Y-214613590D02*
X225259144Y-214613590D01*
X330898085Y-206683590D02*
X329398085Y-206683590D01*
X188711766Y-206676090D02*
X187211766Y-206676090D01*
X475085145Y-214622590D02*
X475085145Y-235622590D01*
X131164752Y-206675590D02*
X131164752Y-185675590D01*
X197256811Y-235615590D02*
X197256811Y-214615590D01*
X235303826Y-235615090D02*
X235303826Y-214615090D01*
X493086100Y-235621090D02*
X491586100Y-235621090D01*
X302852478Y-214613590D02*
X302852478Y-235613590D01*
X170711448Y-235612590D02*
X169211448Y-235612590D01*
X150665781Y-235612590D02*
X149165781Y-235612590D01*
X339399070Y-206682090D02*
X339399070Y-185682090D01*
X178711144Y-235615590D02*
X177211144Y-235615590D01*
X322898145Y-214613590D02*
X322898145Y-235613590D01*
X465083767Y-206688090D02*
X463583767Y-206688090D01*
X455039085Y-206686590D02*
X453539085Y-206686590D01*
X178712781Y-185674590D02*
X177212781Y-185674590D01*
X406993811Y-214619590D02*
X405493811Y-214619590D01*
X208757796Y-214614090D02*
X207257796Y-214614090D01*
X359445100Y-235620090D02*
X359445100Y-214620090D01*
X406993448Y-185683590D02*
X406993448Y-206683590D01*
X112619085Y-185675590D02*
X111119085Y-185675590D01*
X312897130Y-206682090D02*
X311397130Y-206682090D01*
X493086130Y-214621090D02*
X493086130Y-235621090D01*
X321398115Y-206680590D02*
X321398115Y-185680590D01*
X481585115Y-235622590D02*
X481585115Y-214622590D01*
X208757463Y-185676090D02*
X208757463Y-206676090D01*
X177210781Y-206677590D02*
X177210781Y-185677590D01*
X445038463Y-235624090D02*
X443538463Y-235624090D01*
X503130782Y-206689590D02*
X501630782Y-206689590D01*
X273350478Y-235616590D02*
X273350478Y-214616590D01*
X198758811Y-214612590D02*
X198758811Y-235612590D01*
X513131797Y-185688090D02*
X513131797Y-206688090D01*
X254806448Y-185677590D02*
X254806448Y-206677590D01*
X283351100Y-206679090D02*
X283351100Y-185679090D01*
X330900085Y-185680590D02*
X329400085Y-185680590D01*
X85748115Y-233920590D02*
X97748291Y-233920590D01*
X406991811Y-235622590D02*
X405491811Y-235622590D01*
X445040463Y-214621090D02*
X443540463Y-214621090D01*
X455039478Y-214622590D02*
X455039478Y-235622590D01*
X443538100Y-206688090D02*
X443538100Y-185688090D01*
X121163767Y-206677090D02*
X121163767Y-185677090D01*
X273350115Y-206680590D02*
X273350115Y-185680590D01*
X330900085Y-185680590D02*
X330900085Y-206680590D01*
X188712159Y-214614090D02*
X188712159Y-235614090D01*
X263305433Y-206679090D02*
X263305433Y-185679090D01*
X178713144Y-214612590D02*
X178713144Y-235612590D01*
X311397130Y-235615090D02*
X311397130Y-214615090D01*
X178712781Y-185674590D02*
X178712781Y-206674590D01*
X387490463Y-235623090D02*
X387490463Y-214623090D01*
X132664752Y-185675590D02*
X131164752Y-185675590D01*
X350944115Y-235621590D02*
X349444115Y-235621590D01*
X455039115Y-185686590D02*
X455039115Y-206686590D01*
X397491085Y-206683590D02*
X397491085Y-185683590D01*
X274852478Y-214613590D02*
X273352478Y-214613590D01*
X340899433Y-235620090D02*
X339399433Y-235620090D01*
X254806448Y-185677590D02*
X253306448Y-185677590D01*
X245304448Y-206677590D02*
X245304448Y-185677590D01*
X225258781Y-206677590D02*
X225258781Y-185677590D01*
X102620100Y-185674090D02*
X102620100Y-206674090D01*
X132665115Y-235613590D02*
X131165115Y-235613590D01*
X159210463Y-235614090D02*
X159210463Y-214614090D01*
X178710781Y-206677590D02*
X177210781Y-206677590D01*
X264805796Y-214615090D02*
X263305796Y-214615090D01*
X208757796Y-235614090D02*
X207257796Y-235614090D01*
X329398448Y-235621590D02*
X329398448Y-214621590D01*
X483087115Y-214619590D02*
X483087115Y-235619590D01*
X388992463Y-214620090D02*
X388992463Y-235620090D01*
X398991115Y-185683590D02*
X398991115Y-206683590D01*
X493086100Y-214621090D02*
X491586100Y-214621090D01*
X398991478Y-214621590D02*
X398991478Y-235621590D01*
X187211766Y-206676090D02*
X187211766Y-185676090D01*
X132665145Y-214613590D02*
X132665145Y-235613590D01*
X226759144Y-235613590D02*
X225259144Y-235613590D01*
X427039115Y-185683590D02*
X425539115Y-185683590D01*
X360944767Y-185682090D02*
X360944767Y-206682090D01*
X292851463Y-235615090D02*
X291351463Y-235615090D01*
X283351463Y-235615090D02*
X283351463Y-214615090D01*
X465084130Y-235624090D02*
X463584130Y-235624090D01*
X160712100Y-185673090D02*
X160712100Y-206673090D01*
X102620463Y-214612090D02*
X101120463Y-214612090D01*
X368946796Y-214620090D02*
X367446796Y-214620090D01*
X330900448Y-214618590D02*
X329400448Y-214618590D01*
X198758811Y-214612590D02*
X197258811Y-214612590D01*
X140666433Y-185673090D02*
X140666433Y-206673090D01*
X85740115Y-187388590D02*
X97740115Y-187388590D01*
X405491448Y-206686590D02*
X405491448Y-185686590D01*
X302852478Y-185680590D02*
X302852478Y-206680590D01*
X416992433Y-206685090D02*
X415492433Y-206685090D01*
X284851463Y-235615090D02*
X283351463Y-235615090D01*
X302852448Y-235613590D02*
X301352448Y-235613590D01*
X475085115Y-214622590D02*
X473585115Y-214622590D01*
X360944737Y-206682090D02*
X359444737Y-206682090D01*
X85748115Y-244121590D02*
X533222115Y-244121590D01*
X483085115Y-235622590D02*
X481585115Y-235622590D01*
X208757433Y-206676090D02*
X207257433Y-206676090D01*
X236803463Y-206679090D02*
X235303463Y-206679090D01*
X368946433Y-185682090D02*
X368946433Y-206682090D01*
X415492796Y-235621090D02*
X415492796Y-214621090D01*
X406993448Y-185683590D02*
X405493448Y-185683590D01*
X301352448Y-235613590D02*
X301352448Y-214613590D01*
X177211144Y-235615590D02*
X177211144Y-214615590D01*
X225259144Y-235613590D02*
X225259144Y-214613590D01*
X246804811Y-214613590D02*
X245304811Y-214613590D01*
X85748115Y-244121590D02*
X85748115Y-233920590D01*
X416992433Y-185685090D02*
X415492433Y-185685090D01*
X473585115Y-235622590D02*
X473585115Y-214622590D01*
X388992100Y-185682090D02*
X388992100Y-206682090D01*
X377445418Y-206683590D02*
X377445418Y-185683590D01*
X140664433Y-206676090D02*
X139164433Y-206676090D01*
X132664752Y-206675590D02*
X131164752Y-206675590D01*
X397491448Y-235621590D02*
X397491448Y-214621590D01*
X198758448Y-185674590D02*
X198758448Y-206674590D01*
X102618463Y-235615090D02*
X101118463Y-235615090D01*
X226758781Y-206677590D02*
X225258781Y-206677590D01*
X188711766Y-185676090D02*
X187211766Y-185676090D01*
X216759796Y-185676090D02*
X216759796Y-206676090D01*
X388990100Y-206685090D02*
X387490100Y-206685090D01*
X491586100Y-235621090D02*
X491586100Y-214621090D01*
X226759174Y-214613590D02*
X226759174Y-235613590D01*
X85740115Y-187388590D02*
X85740115Y-177186590D01*
X302852448Y-185680590D02*
X301352448Y-185680590D01*
X274852478Y-214613590D02*
X274852478Y-235613590D01*
X368944433Y-206685090D02*
X367444433Y-206685090D01*
X198758448Y-185674590D02*
X197258448Y-185674590D01*
X149165781Y-235612590D02*
X149165781Y-214612590D01*
X245304811Y-235613590D02*
X245304811Y-214613590D01*
X465086130Y-214621090D02*
X463586130Y-214621090D01*
X322898115Y-214613590D02*
X321398115Y-214613590D01*
X406991448Y-206686590D02*
X405491448Y-206686590D01*
X246804448Y-185677590D02*
X245304448Y-185677590D01*
X236805826Y-214612090D02*
X235305826Y-214612090D01*
X292851463Y-206682090D02*
X291351463Y-206682090D01*
X207257796Y-235614090D02*
X207257796Y-214614090D01*
X368946433Y-185682090D02*
X367446433Y-185682090D01*
X301352448Y-206680590D02*
X301352448Y-185680590D01*
X112619085Y-206675590D02*
X111119085Y-206675590D01*
X246804811Y-235613590D02*
X245304811Y-235613590D01*
X481585115Y-206689590D02*
X481585115Y-185689590D01*
X350945752Y-185680590D02*
X350945752Y-206680590D01*
X405491811Y-235622590D02*
X405491811Y-214622590D01*
X188712129Y-214614090D02*
X187212129Y-214614090D01*
X101118463Y-235615090D02*
X101118463Y-214615090D01*
X312899130Y-214612090D02*
X312899130Y-235612090D01*
X493086100Y-185688090D02*
X491586100Y-185688090D01*
X112619478Y-214613590D02*
X112619478Y-235613590D01*
X445038100Y-206688090D02*
X443538100Y-206688090D01*
X198756448Y-206677590D02*
X197256448Y-206677590D01*
X340899100Y-185682090D02*
X340899100Y-206682090D01*
X493086100Y-206688090D02*
X491586100Y-206688090D01*
X264805463Y-185679090D02*
X264805463Y-206679090D01*
X188711796Y-185676090D02*
X188711796Y-206676090D01*
X216759796Y-185676090D02*
X215259796Y-185676090D01*
X378945448Y-185683590D02*
X378945448Y-206683590D01*
X150665781Y-214612590D02*
X149165781Y-214612590D01*
X350943752Y-206683590D02*
X349443752Y-206683590D01*
X216757796Y-206679090D02*
X215257796Y-206679090D01*
X437038100Y-185685090D02*
X435538100Y-185685090D01*
X215258159Y-235615090D02*
X215258159Y-214615090D01*
X368946796Y-214620090D02*
X368946796Y-235620090D01*
X350946115Y-214618590D02*
X349446115Y-214618590D01*
X264805796Y-235615090D02*
X263305796Y-235615090D01*
X367444433Y-206685090D02*
X367444433Y-185685090D01*
X511631767Y-206688090D02*
X511631767Y-185688090D01*
X312899130Y-185679090D02*
X311399130Y-185679090D01*
X360945100Y-214620090D02*
X359445100Y-214620090D01*
X473584752Y-206686590D02*
X473584752Y-185686590D01*
X291351463Y-206682090D02*
X291351463Y-185682090D01*
X398991448Y-214621590D02*
X397491448Y-214621590D01*
X102620463Y-214612090D02*
X102620463Y-235612090D01*
X533222115Y-244121590D02*
X533222115Y-177186590D01*
X503132782Y-185686590D02*
X503132782Y-206686590D01*
X321398115Y-235613590D02*
X321398115Y-214613590D01*
X427039478Y-214619590D02*
X427039478Y-235619590D01*
X236805826Y-214612090D02*
X236805826Y-235612090D01*
X112619448Y-235613590D02*
X111119448Y-235613590D01*
X207257433Y-206676090D02*
X207257433Y-185676090D01*
X131165115Y-235613590D02*
X131165115Y-214613590D01*
X170711115Y-185674590D02*
X170711115Y-206674590D01*
X388992463Y-214620090D02*
X387492463Y-214620090D01*
X445040463Y-214621090D02*
X445040463Y-235621090D01*
X503130782Y-235622590D02*
X501630782Y-235622590D01*
X425537478Y-235622590D02*
X425537478Y-214622590D01*
X350946115Y-214618590D02*
X350946115Y-235618590D01*
X463584130Y-235624090D02*
X463584130Y-214624090D01*
X503132782Y-185686590D02*
X501632782Y-185686590D01*
X149165418Y-206674590D02*
X149165418Y-185674590D01*
X455039448Y-235622590D02*
X453539448Y-235622590D01*
X111119448Y-235613590D02*
X111119448Y-214613590D01*
X501630782Y-235622590D02*
X501630782Y-214622590D01*
X121164130Y-235615090D02*
X121164130Y-214615090D01*
X340899433Y-214620090D02*
X339399433Y-214620090D01*
X511631767Y-235621090D02*
X511631767Y-214621090D01*
X97740115Y-187388590D02*
X97748291Y-233920590D01*
X112619448Y-214613590D02*
X111119448Y-214613590D01*
X178713144Y-214612590D02*
X177213144Y-214612590D01*
X150665811Y-214612590D02*
X150665811Y-235612590D01*
X160712100Y-185673090D02*
X159212100Y-185673090D01*
X112619115Y-185675590D02*
X112619115Y-206675590D01*
X416992796Y-214621090D02*
X415492796Y-214621090D01*
X360945100Y-235620090D02*
X359445100Y-235620090D01*
X253304448Y-206680590D02*
X253304448Y-185680590D01*
X208757826Y-214614090D02*
X208757826Y-235614090D01*
X246804478Y-185677590D02*
X246804478Y-206677590D01*
X122665767Y-185674090D02*
X122665767Y-206674090D01*
X101118100Y-206677090D02*
X101118100Y-185677090D01*
X274852115Y-185677590D02*
X274852115Y-206677590D01*
X493086130Y-185688090D02*
X493086130Y-206688090D01*
X377445781Y-235621590D02*
X377445781Y-214621590D01*
X236803826Y-235615090D02*
X235303826Y-235615090D01*
X340899070Y-185682090D02*
X339399070Y-185682090D01*
X254804448Y-206680590D02*
X253304448Y-206680590D01*
X292853463Y-185679090D02*
X292853463Y-206679090D01*
X122664130Y-235615090D02*
X121164130Y-235615090D01*
X215257796Y-206679090D02*
X215257796Y-185679090D01*
M02*
