M48
; DRILL file {KiCad 9.0.2} date 2025-07-25T15:19:23+0800
; FORMAT={-:-/ absolute / metric / decimal}
; #@! TF.CreationDate,2025-07-25T15:19:23+08:00
; #@! TF.GenerationSoftware,Kicad,Pcbnew,9.0.2
; #@! TF.FileFunction,Plated,1,2,PTH
FMAT,2
METRIC
; #@! TA.AperFunction,Plated,PTH,ComponentDrill
T1C0.800
; #@! TA.AperFunction,Plated,PTH,ComponentDrill
T2C1.020
; #@! TA.AperFunction,Plated,PTH,ComponentDrill
T3C4.200
%
G90
G05
T1
X115.736Y-239.614
X118.236Y-239.614
X153.614Y-239.614
X156.114Y-239.614
X229.744Y-239.614
X232.244Y-239.614
X306.039Y-239.614
X308.539Y-239.614
X344.406Y-239.614
X346.906Y-239.614
X420.424Y-239.614
X422.924Y-239.614
X496.003Y-239.614
X498.503Y-239.614
X514.583Y-239.614
X517.083Y-239.614
T2
X525.212Y-200.154
X525.212Y-203.154
X525.212Y-206.154
X525.212Y-209.154
X525.212Y-212.154
X525.212Y-215.154
X525.212Y-218.154
X525.212Y-221.154
X528.212Y-200.154
X528.212Y-203.154
X528.212Y-206.154
X528.212Y-209.154
X528.212Y-212.154
X528.212Y-215.154
X528.212Y-218.154
X528.212Y-221.154
T3
X106.869Y-196.176
X106.869Y-225.114
X126.915Y-196.176
X126.915Y-225.114
X144.915Y-196.175
X144.916Y-225.113
X164.961Y-196.175
X164.961Y-225.113
X182.962Y-196.176
X182.962Y-225.114
X203.007Y-196.176
X203.008Y-225.114
X221.009Y-196.178
X221.009Y-225.114
X241.054Y-196.178
X241.055Y-225.114
X259.055Y-196.179
X259.056Y-225.115
X279.101Y-196.179
X279.101Y-225.115
X297.102Y-196.181
X297.102Y-225.114
X317.148Y-196.181
X317.148Y-225.114
X335.149Y-196.182
X335.149Y-225.12
X355.195Y-196.182
X355.195Y-225.12
X373.195Y-196.184
X373.196Y-225.122
X393.241Y-196.184
X393.241Y-225.122
X411.242Y-196.185
X411.243Y-225.121
X431.288Y-196.185
X431.288Y-225.121
X449.289Y-196.187
X449.289Y-225.123
X469.335Y-196.187
X469.335Y-225.123
X487.336Y-196.188
X487.336Y-225.121
X507.382Y-196.188
X507.382Y-225.121
M30
