%TF.GenerationSoftware,KiCad,Pcbnew,7.0.11-rc3*%
%TF.CreationDate,2025-09-10T17:00:16+08:00*%
%TF.ProjectId,328_3ch_can_devboard,3332385f-3363-4685-9f63-616e5f646576,rev?*%
%TF.SameCoordinates,Original*%
%TF.FileFunction,AssemblyDrawing,Bot*%
%FSLAX46Y46*%
G04 Gerber Fmt 4.6, Leading zero omitted, Abs format (unit mm)*
G04 Created by KiCad (PCBNEW 7.0.11-rc3) date 2025-09-10 17:00:16*
%MOMM*%
%LPD*%
G01*
G04 APERTURE LIST*
%ADD10C,0.150000*%
%ADD11C,0.080000*%
%ADD12C,0.100000*%
G04 APERTURE END LIST*
D10*
X159471428Y-108734819D02*
X160042856Y-108734819D01*
X159757142Y-108734819D02*
X159757142Y-107734819D01*
X159757142Y-107734819D02*
X159852380Y-107877676D01*
X159852380Y-107877676D02*
X159947618Y-107972914D01*
X159947618Y-107972914D02*
X160042856Y-108020533D01*
X158852380Y-107734819D02*
X158757142Y-107734819D01*
X158757142Y-107734819D02*
X158661904Y-107782438D01*
X158661904Y-107782438D02*
X158614285Y-107830057D01*
X158614285Y-107830057D02*
X158566666Y-107925295D01*
X158566666Y-107925295D02*
X158519047Y-108115771D01*
X158519047Y-108115771D02*
X158519047Y-108353866D01*
X158519047Y-108353866D02*
X158566666Y-108544342D01*
X158566666Y-108544342D02*
X158614285Y-108639580D01*
X158614285Y-108639580D02*
X158661904Y-108687200D01*
X158661904Y-108687200D02*
X158757142Y-108734819D01*
X158757142Y-108734819D02*
X158852380Y-108734819D01*
X158852380Y-108734819D02*
X158947618Y-108687200D01*
X158947618Y-108687200D02*
X158995237Y-108639580D01*
X158995237Y-108639580D02*
X159042856Y-108544342D01*
X159042856Y-108544342D02*
X159090475Y-108353866D01*
X159090475Y-108353866D02*
X159090475Y-108115771D01*
X159090475Y-108115771D02*
X159042856Y-107925295D01*
X159042856Y-107925295D02*
X158995237Y-107830057D01*
X158995237Y-107830057D02*
X158947618Y-107782438D01*
X158947618Y-107782438D02*
X158852380Y-107734819D01*
X157661904Y-108068152D02*
X157661904Y-108734819D01*
X158090475Y-108068152D02*
X158090475Y-108591961D01*
X158090475Y-108591961D02*
X158042856Y-108687200D01*
X158042856Y-108687200D02*
X157947618Y-108734819D01*
X157947618Y-108734819D02*
X157804761Y-108734819D01*
X157804761Y-108734819D02*
X157709523Y-108687200D01*
X157709523Y-108687200D02*
X157661904Y-108639580D01*
X156852380Y-108211009D02*
X157185713Y-108211009D01*
X157185713Y-108734819D02*
X157185713Y-107734819D01*
X157185713Y-107734819D02*
X156709523Y-107734819D01*
D11*
X158721428Y-106779530D02*
X158745237Y-106803340D01*
X158745237Y-106803340D02*
X158816666Y-106827149D01*
X158816666Y-106827149D02*
X158864285Y-106827149D01*
X158864285Y-106827149D02*
X158935713Y-106803340D01*
X158935713Y-106803340D02*
X158983332Y-106755720D01*
X158983332Y-106755720D02*
X159007142Y-106708101D01*
X159007142Y-106708101D02*
X159030951Y-106612863D01*
X159030951Y-106612863D02*
X159030951Y-106541435D01*
X159030951Y-106541435D02*
X159007142Y-106446197D01*
X159007142Y-106446197D02*
X158983332Y-106398578D01*
X158983332Y-106398578D02*
X158935713Y-106350959D01*
X158935713Y-106350959D02*
X158864285Y-106327149D01*
X158864285Y-106327149D02*
X158816666Y-106327149D01*
X158816666Y-106327149D02*
X158745237Y-106350959D01*
X158745237Y-106350959D02*
X158721428Y-106374768D01*
X158245237Y-106827149D02*
X158530951Y-106827149D01*
X158388094Y-106827149D02*
X158388094Y-106327149D01*
X158388094Y-106327149D02*
X158435713Y-106398578D01*
X158435713Y-106398578D02*
X158483332Y-106446197D01*
X158483332Y-106446197D02*
X158530951Y-106470006D01*
X158054761Y-106374768D02*
X158030952Y-106350959D01*
X158030952Y-106350959D02*
X157983333Y-106327149D01*
X157983333Y-106327149D02*
X157864285Y-106327149D01*
X157864285Y-106327149D02*
X157816666Y-106350959D01*
X157816666Y-106350959D02*
X157792857Y-106374768D01*
X157792857Y-106374768D02*
X157769047Y-106422387D01*
X157769047Y-106422387D02*
X157769047Y-106470006D01*
X157769047Y-106470006D02*
X157792857Y-106541435D01*
X157792857Y-106541435D02*
X158078571Y-106827149D01*
X158078571Y-106827149D02*
X157769047Y-106827149D01*
D10*
X138947619Y-93837319D02*
X139519047Y-93837319D01*
X139233333Y-93837319D02*
X139233333Y-92837319D01*
X139233333Y-92837319D02*
X139328571Y-92980176D01*
X139328571Y-92980176D02*
X139423809Y-93075414D01*
X139423809Y-93075414D02*
X139519047Y-93123033D01*
X138328571Y-92837319D02*
X138233333Y-92837319D01*
X138233333Y-92837319D02*
X138138095Y-92884938D01*
X138138095Y-92884938D02*
X138090476Y-92932557D01*
X138090476Y-92932557D02*
X138042857Y-93027795D01*
X138042857Y-93027795D02*
X137995238Y-93218271D01*
X137995238Y-93218271D02*
X137995238Y-93456366D01*
X137995238Y-93456366D02*
X138042857Y-93646842D01*
X138042857Y-93646842D02*
X138090476Y-93742080D01*
X138090476Y-93742080D02*
X138138095Y-93789700D01*
X138138095Y-93789700D02*
X138233333Y-93837319D01*
X138233333Y-93837319D02*
X138328571Y-93837319D01*
X138328571Y-93837319D02*
X138423809Y-93789700D01*
X138423809Y-93789700D02*
X138471428Y-93742080D01*
X138471428Y-93742080D02*
X138519047Y-93646842D01*
X138519047Y-93646842D02*
X138566666Y-93456366D01*
X138566666Y-93456366D02*
X138566666Y-93218271D01*
X138566666Y-93218271D02*
X138519047Y-93027795D01*
X138519047Y-93027795D02*
X138471428Y-92932557D01*
X138471428Y-92932557D02*
X138423809Y-92884938D01*
X138423809Y-92884938D02*
X138328571Y-92837319D01*
X137376190Y-92837319D02*
X137280952Y-92837319D01*
X137280952Y-92837319D02*
X137185714Y-92884938D01*
X137185714Y-92884938D02*
X137138095Y-92932557D01*
X137138095Y-92932557D02*
X137090476Y-93027795D01*
X137090476Y-93027795D02*
X137042857Y-93218271D01*
X137042857Y-93218271D02*
X137042857Y-93456366D01*
X137042857Y-93456366D02*
X137090476Y-93646842D01*
X137090476Y-93646842D02*
X137138095Y-93742080D01*
X137138095Y-93742080D02*
X137185714Y-93789700D01*
X137185714Y-93789700D02*
X137280952Y-93837319D01*
X137280952Y-93837319D02*
X137376190Y-93837319D01*
X137376190Y-93837319D02*
X137471428Y-93789700D01*
X137471428Y-93789700D02*
X137519047Y-93742080D01*
X137519047Y-93742080D02*
X137566666Y-93646842D01*
X137566666Y-93646842D02*
X137614285Y-93456366D01*
X137614285Y-93456366D02*
X137614285Y-93218271D01*
X137614285Y-93218271D02*
X137566666Y-93027795D01*
X137566666Y-93027795D02*
X137519047Y-92932557D01*
X137519047Y-92932557D02*
X137471428Y-92884938D01*
X137471428Y-92884938D02*
X137376190Y-92837319D01*
X136614285Y-93170652D02*
X136614285Y-93837319D01*
X136614285Y-93265890D02*
X136566666Y-93218271D01*
X136566666Y-93218271D02*
X136471428Y-93170652D01*
X136471428Y-93170652D02*
X136328571Y-93170652D01*
X136328571Y-93170652D02*
X136233333Y-93218271D01*
X136233333Y-93218271D02*
X136185714Y-93313509D01*
X136185714Y-93313509D02*
X136185714Y-93837319D01*
X135376190Y-93313509D02*
X135709523Y-93313509D01*
X135709523Y-93837319D02*
X135709523Y-92837319D01*
X135709523Y-92837319D02*
X135233333Y-92837319D01*
D11*
X137483333Y-95242030D02*
X137507142Y-95265840D01*
X137507142Y-95265840D02*
X137578571Y-95289649D01*
X137578571Y-95289649D02*
X137626190Y-95289649D01*
X137626190Y-95289649D02*
X137697618Y-95265840D01*
X137697618Y-95265840D02*
X137745237Y-95218220D01*
X137745237Y-95218220D02*
X137769047Y-95170601D01*
X137769047Y-95170601D02*
X137792856Y-95075363D01*
X137792856Y-95075363D02*
X137792856Y-95003935D01*
X137792856Y-95003935D02*
X137769047Y-94908697D01*
X137769047Y-94908697D02*
X137745237Y-94861078D01*
X137745237Y-94861078D02*
X137697618Y-94813459D01*
X137697618Y-94813459D02*
X137626190Y-94789649D01*
X137626190Y-94789649D02*
X137578571Y-94789649D01*
X137578571Y-94789649D02*
X137507142Y-94813459D01*
X137507142Y-94813459D02*
X137483333Y-94837268D01*
X137316666Y-94789649D02*
X137007142Y-94789649D01*
X137007142Y-94789649D02*
X137173809Y-94980125D01*
X137173809Y-94980125D02*
X137102380Y-94980125D01*
X137102380Y-94980125D02*
X137054761Y-95003935D01*
X137054761Y-95003935D02*
X137030952Y-95027744D01*
X137030952Y-95027744D02*
X137007142Y-95075363D01*
X137007142Y-95075363D02*
X137007142Y-95194411D01*
X137007142Y-95194411D02*
X137030952Y-95242030D01*
X137030952Y-95242030D02*
X137054761Y-95265840D01*
X137054761Y-95265840D02*
X137102380Y-95289649D01*
X137102380Y-95289649D02*
X137245237Y-95289649D01*
X137245237Y-95289649D02*
X137292856Y-95265840D01*
X137292856Y-95265840D02*
X137316666Y-95242030D01*
D10*
X161634819Y-88752380D02*
X161634819Y-88180952D01*
X161634819Y-88466666D02*
X160634819Y-88466666D01*
X160634819Y-88466666D02*
X160777676Y-88371428D01*
X160777676Y-88371428D02*
X160872914Y-88276190D01*
X160872914Y-88276190D02*
X160920533Y-88180952D01*
X160634819Y-89371428D02*
X160634819Y-89466666D01*
X160634819Y-89466666D02*
X160682438Y-89561904D01*
X160682438Y-89561904D02*
X160730057Y-89609523D01*
X160730057Y-89609523D02*
X160825295Y-89657142D01*
X160825295Y-89657142D02*
X161015771Y-89704761D01*
X161015771Y-89704761D02*
X161253866Y-89704761D01*
X161253866Y-89704761D02*
X161444342Y-89657142D01*
X161444342Y-89657142D02*
X161539580Y-89609523D01*
X161539580Y-89609523D02*
X161587200Y-89561904D01*
X161587200Y-89561904D02*
X161634819Y-89466666D01*
X161634819Y-89466666D02*
X161634819Y-89371428D01*
X161634819Y-89371428D02*
X161587200Y-89276190D01*
X161587200Y-89276190D02*
X161539580Y-89228571D01*
X161539580Y-89228571D02*
X161444342Y-89180952D01*
X161444342Y-89180952D02*
X161253866Y-89133333D01*
X161253866Y-89133333D02*
X161015771Y-89133333D01*
X161015771Y-89133333D02*
X160825295Y-89180952D01*
X160825295Y-89180952D02*
X160730057Y-89228571D01*
X160730057Y-89228571D02*
X160682438Y-89276190D01*
X160682438Y-89276190D02*
X160634819Y-89371428D01*
X160634819Y-90323809D02*
X160634819Y-90419047D01*
X160634819Y-90419047D02*
X160682438Y-90514285D01*
X160682438Y-90514285D02*
X160730057Y-90561904D01*
X160730057Y-90561904D02*
X160825295Y-90609523D01*
X160825295Y-90609523D02*
X161015771Y-90657142D01*
X161015771Y-90657142D02*
X161253866Y-90657142D01*
X161253866Y-90657142D02*
X161444342Y-90609523D01*
X161444342Y-90609523D02*
X161539580Y-90561904D01*
X161539580Y-90561904D02*
X161587200Y-90514285D01*
X161587200Y-90514285D02*
X161634819Y-90419047D01*
X161634819Y-90419047D02*
X161634819Y-90323809D01*
X161634819Y-90323809D02*
X161587200Y-90228571D01*
X161587200Y-90228571D02*
X161539580Y-90180952D01*
X161539580Y-90180952D02*
X161444342Y-90133333D01*
X161444342Y-90133333D02*
X161253866Y-90085714D01*
X161253866Y-90085714D02*
X161015771Y-90085714D01*
X161015771Y-90085714D02*
X160825295Y-90133333D01*
X160825295Y-90133333D02*
X160730057Y-90180952D01*
X160730057Y-90180952D02*
X160682438Y-90228571D01*
X160682438Y-90228571D02*
X160634819Y-90323809D01*
X160968152Y-91085714D02*
X161634819Y-91085714D01*
X161063390Y-91085714D02*
X161015771Y-91133333D01*
X161015771Y-91133333D02*
X160968152Y-91228571D01*
X160968152Y-91228571D02*
X160968152Y-91371428D01*
X160968152Y-91371428D02*
X161015771Y-91466666D01*
X161015771Y-91466666D02*
X161111009Y-91514285D01*
X161111009Y-91514285D02*
X161634819Y-91514285D01*
X161111009Y-92323809D02*
X161111009Y-91990476D01*
X161634819Y-91990476D02*
X160634819Y-91990476D01*
X160634819Y-91990476D02*
X160634819Y-92466666D01*
D11*
X159679530Y-90216666D02*
X159703340Y-90192857D01*
X159703340Y-90192857D02*
X159727149Y-90121428D01*
X159727149Y-90121428D02*
X159727149Y-90073809D01*
X159727149Y-90073809D02*
X159703340Y-90002381D01*
X159703340Y-90002381D02*
X159655720Y-89954762D01*
X159655720Y-89954762D02*
X159608101Y-89930952D01*
X159608101Y-89930952D02*
X159512863Y-89907143D01*
X159512863Y-89907143D02*
X159441435Y-89907143D01*
X159441435Y-89907143D02*
X159346197Y-89930952D01*
X159346197Y-89930952D02*
X159298578Y-89954762D01*
X159298578Y-89954762D02*
X159250959Y-90002381D01*
X159250959Y-90002381D02*
X159227149Y-90073809D01*
X159227149Y-90073809D02*
X159227149Y-90121428D01*
X159227149Y-90121428D02*
X159250959Y-90192857D01*
X159250959Y-90192857D02*
X159274768Y-90216666D01*
X159227149Y-90383333D02*
X159227149Y-90716666D01*
X159227149Y-90716666D02*
X159727149Y-90502381D01*
D10*
X124492319Y-77552380D02*
X124492319Y-76980952D01*
X124492319Y-77266666D02*
X123492319Y-77266666D01*
X123492319Y-77266666D02*
X123635176Y-77171428D01*
X123635176Y-77171428D02*
X123730414Y-77076190D01*
X123730414Y-77076190D02*
X123778033Y-76980952D01*
X123492319Y-78171428D02*
X123492319Y-78266666D01*
X123492319Y-78266666D02*
X123539938Y-78361904D01*
X123539938Y-78361904D02*
X123587557Y-78409523D01*
X123587557Y-78409523D02*
X123682795Y-78457142D01*
X123682795Y-78457142D02*
X123873271Y-78504761D01*
X123873271Y-78504761D02*
X124111366Y-78504761D01*
X124111366Y-78504761D02*
X124301842Y-78457142D01*
X124301842Y-78457142D02*
X124397080Y-78409523D01*
X124397080Y-78409523D02*
X124444700Y-78361904D01*
X124444700Y-78361904D02*
X124492319Y-78266666D01*
X124492319Y-78266666D02*
X124492319Y-78171428D01*
X124492319Y-78171428D02*
X124444700Y-78076190D01*
X124444700Y-78076190D02*
X124397080Y-78028571D01*
X124397080Y-78028571D02*
X124301842Y-77980952D01*
X124301842Y-77980952D02*
X124111366Y-77933333D01*
X124111366Y-77933333D02*
X123873271Y-77933333D01*
X123873271Y-77933333D02*
X123682795Y-77980952D01*
X123682795Y-77980952D02*
X123587557Y-78028571D01*
X123587557Y-78028571D02*
X123539938Y-78076190D01*
X123539938Y-78076190D02*
X123492319Y-78171428D01*
X123492319Y-79123809D02*
X123492319Y-79219047D01*
X123492319Y-79219047D02*
X123539938Y-79314285D01*
X123539938Y-79314285D02*
X123587557Y-79361904D01*
X123587557Y-79361904D02*
X123682795Y-79409523D01*
X123682795Y-79409523D02*
X123873271Y-79457142D01*
X123873271Y-79457142D02*
X124111366Y-79457142D01*
X124111366Y-79457142D02*
X124301842Y-79409523D01*
X124301842Y-79409523D02*
X124397080Y-79361904D01*
X124397080Y-79361904D02*
X124444700Y-79314285D01*
X124444700Y-79314285D02*
X124492319Y-79219047D01*
X124492319Y-79219047D02*
X124492319Y-79123809D01*
X124492319Y-79123809D02*
X124444700Y-79028571D01*
X124444700Y-79028571D02*
X124397080Y-78980952D01*
X124397080Y-78980952D02*
X124301842Y-78933333D01*
X124301842Y-78933333D02*
X124111366Y-78885714D01*
X124111366Y-78885714D02*
X123873271Y-78885714D01*
X123873271Y-78885714D02*
X123682795Y-78933333D01*
X123682795Y-78933333D02*
X123587557Y-78980952D01*
X123587557Y-78980952D02*
X123539938Y-79028571D01*
X123539938Y-79028571D02*
X123492319Y-79123809D01*
X123825652Y-79885714D02*
X124492319Y-79885714D01*
X123920890Y-79885714D02*
X123873271Y-79933333D01*
X123873271Y-79933333D02*
X123825652Y-80028571D01*
X123825652Y-80028571D02*
X123825652Y-80171428D01*
X123825652Y-80171428D02*
X123873271Y-80266666D01*
X123873271Y-80266666D02*
X123968509Y-80314285D01*
X123968509Y-80314285D02*
X124492319Y-80314285D01*
X123968509Y-81123809D02*
X123968509Y-80790476D01*
X124492319Y-80790476D02*
X123492319Y-80790476D01*
X123492319Y-80790476D02*
X123492319Y-81266666D01*
D11*
X125897030Y-78778571D02*
X125920840Y-78754762D01*
X125920840Y-78754762D02*
X125944649Y-78683333D01*
X125944649Y-78683333D02*
X125944649Y-78635714D01*
X125944649Y-78635714D02*
X125920840Y-78564286D01*
X125920840Y-78564286D02*
X125873220Y-78516667D01*
X125873220Y-78516667D02*
X125825601Y-78492857D01*
X125825601Y-78492857D02*
X125730363Y-78469048D01*
X125730363Y-78469048D02*
X125658935Y-78469048D01*
X125658935Y-78469048D02*
X125563697Y-78492857D01*
X125563697Y-78492857D02*
X125516078Y-78516667D01*
X125516078Y-78516667D02*
X125468459Y-78564286D01*
X125468459Y-78564286D02*
X125444649Y-78635714D01*
X125444649Y-78635714D02*
X125444649Y-78683333D01*
X125444649Y-78683333D02*
X125468459Y-78754762D01*
X125468459Y-78754762D02*
X125492268Y-78778571D01*
X125492268Y-78969048D02*
X125468459Y-78992857D01*
X125468459Y-78992857D02*
X125444649Y-79040476D01*
X125444649Y-79040476D02*
X125444649Y-79159524D01*
X125444649Y-79159524D02*
X125468459Y-79207143D01*
X125468459Y-79207143D02*
X125492268Y-79230952D01*
X125492268Y-79230952D02*
X125539887Y-79254762D01*
X125539887Y-79254762D02*
X125587506Y-79254762D01*
X125587506Y-79254762D02*
X125658935Y-79230952D01*
X125658935Y-79230952D02*
X125944649Y-78945238D01*
X125944649Y-78945238D02*
X125944649Y-79254762D01*
X125492268Y-79445238D02*
X125468459Y-79469047D01*
X125468459Y-79469047D02*
X125444649Y-79516666D01*
X125444649Y-79516666D02*
X125444649Y-79635714D01*
X125444649Y-79635714D02*
X125468459Y-79683333D01*
X125468459Y-79683333D02*
X125492268Y-79707142D01*
X125492268Y-79707142D02*
X125539887Y-79730952D01*
X125539887Y-79730952D02*
X125587506Y-79730952D01*
X125587506Y-79730952D02*
X125658935Y-79707142D01*
X125658935Y-79707142D02*
X125944649Y-79421428D01*
X125944649Y-79421428D02*
X125944649Y-79730952D01*
D10*
X176838152Y-111682170D02*
X177504819Y-111682170D01*
X176457200Y-111444075D02*
X177171485Y-111205980D01*
X177171485Y-111205980D02*
X177171485Y-111825027D01*
X177409580Y-112205980D02*
X177457200Y-112253599D01*
X177457200Y-112253599D02*
X177504819Y-112205980D01*
X177504819Y-112205980D02*
X177457200Y-112158361D01*
X177457200Y-112158361D02*
X177409580Y-112205980D01*
X177409580Y-112205980D02*
X177504819Y-112205980D01*
X176504819Y-112586932D02*
X176504819Y-113253598D01*
X176504819Y-113253598D02*
X177504819Y-112825027D01*
X177504819Y-113634551D02*
X176504819Y-113634551D01*
X177123866Y-113729789D02*
X177504819Y-114015503D01*
X176838152Y-114015503D02*
X177219104Y-113634551D01*
D11*
X175627149Y-112527408D02*
X175389054Y-112360742D01*
X175627149Y-112241694D02*
X175127149Y-112241694D01*
X175127149Y-112241694D02*
X175127149Y-112432170D01*
X175127149Y-112432170D02*
X175150959Y-112479789D01*
X175150959Y-112479789D02*
X175174768Y-112503599D01*
X175174768Y-112503599D02*
X175222387Y-112527408D01*
X175222387Y-112527408D02*
X175293816Y-112527408D01*
X175293816Y-112527408D02*
X175341435Y-112503599D01*
X175341435Y-112503599D02*
X175365244Y-112479789D01*
X175365244Y-112479789D02*
X175389054Y-112432170D01*
X175389054Y-112432170D02*
X175389054Y-112241694D01*
X175127149Y-112979789D02*
X175127149Y-112741694D01*
X175127149Y-112741694D02*
X175365244Y-112717885D01*
X175365244Y-112717885D02*
X175341435Y-112741694D01*
X175341435Y-112741694D02*
X175317625Y-112789313D01*
X175317625Y-112789313D02*
X175317625Y-112908361D01*
X175317625Y-112908361D02*
X175341435Y-112955980D01*
X175341435Y-112955980D02*
X175365244Y-112979789D01*
X175365244Y-112979789D02*
X175412863Y-113003599D01*
X175412863Y-113003599D02*
X175531911Y-113003599D01*
X175531911Y-113003599D02*
X175579530Y-112979789D01*
X175579530Y-112979789D02*
X175603340Y-112955980D01*
X175603340Y-112955980D02*
X175627149Y-112908361D01*
X175627149Y-112908361D02*
X175627149Y-112789313D01*
X175627149Y-112789313D02*
X175603340Y-112741694D01*
X175603340Y-112741694D02*
X175579530Y-112717885D01*
D10*
X164234819Y-88752380D02*
X164234819Y-88180952D01*
X164234819Y-88466666D02*
X163234819Y-88466666D01*
X163234819Y-88466666D02*
X163377676Y-88371428D01*
X163377676Y-88371428D02*
X163472914Y-88276190D01*
X163472914Y-88276190D02*
X163520533Y-88180952D01*
X163234819Y-89371428D02*
X163234819Y-89466666D01*
X163234819Y-89466666D02*
X163282438Y-89561904D01*
X163282438Y-89561904D02*
X163330057Y-89609523D01*
X163330057Y-89609523D02*
X163425295Y-89657142D01*
X163425295Y-89657142D02*
X163615771Y-89704761D01*
X163615771Y-89704761D02*
X163853866Y-89704761D01*
X163853866Y-89704761D02*
X164044342Y-89657142D01*
X164044342Y-89657142D02*
X164139580Y-89609523D01*
X164139580Y-89609523D02*
X164187200Y-89561904D01*
X164187200Y-89561904D02*
X164234819Y-89466666D01*
X164234819Y-89466666D02*
X164234819Y-89371428D01*
X164234819Y-89371428D02*
X164187200Y-89276190D01*
X164187200Y-89276190D02*
X164139580Y-89228571D01*
X164139580Y-89228571D02*
X164044342Y-89180952D01*
X164044342Y-89180952D02*
X163853866Y-89133333D01*
X163853866Y-89133333D02*
X163615771Y-89133333D01*
X163615771Y-89133333D02*
X163425295Y-89180952D01*
X163425295Y-89180952D02*
X163330057Y-89228571D01*
X163330057Y-89228571D02*
X163282438Y-89276190D01*
X163282438Y-89276190D02*
X163234819Y-89371428D01*
X163234819Y-90323809D02*
X163234819Y-90419047D01*
X163234819Y-90419047D02*
X163282438Y-90514285D01*
X163282438Y-90514285D02*
X163330057Y-90561904D01*
X163330057Y-90561904D02*
X163425295Y-90609523D01*
X163425295Y-90609523D02*
X163615771Y-90657142D01*
X163615771Y-90657142D02*
X163853866Y-90657142D01*
X163853866Y-90657142D02*
X164044342Y-90609523D01*
X164044342Y-90609523D02*
X164139580Y-90561904D01*
X164139580Y-90561904D02*
X164187200Y-90514285D01*
X164187200Y-90514285D02*
X164234819Y-90419047D01*
X164234819Y-90419047D02*
X164234819Y-90323809D01*
X164234819Y-90323809D02*
X164187200Y-90228571D01*
X164187200Y-90228571D02*
X164139580Y-90180952D01*
X164139580Y-90180952D02*
X164044342Y-90133333D01*
X164044342Y-90133333D02*
X163853866Y-90085714D01*
X163853866Y-90085714D02*
X163615771Y-90085714D01*
X163615771Y-90085714D02*
X163425295Y-90133333D01*
X163425295Y-90133333D02*
X163330057Y-90180952D01*
X163330057Y-90180952D02*
X163282438Y-90228571D01*
X163282438Y-90228571D02*
X163234819Y-90323809D01*
X163568152Y-91085714D02*
X164234819Y-91085714D01*
X163663390Y-91085714D02*
X163615771Y-91133333D01*
X163615771Y-91133333D02*
X163568152Y-91228571D01*
X163568152Y-91228571D02*
X163568152Y-91371428D01*
X163568152Y-91371428D02*
X163615771Y-91466666D01*
X163615771Y-91466666D02*
X163711009Y-91514285D01*
X163711009Y-91514285D02*
X164234819Y-91514285D01*
X163711009Y-92323809D02*
X163711009Y-91990476D01*
X164234819Y-91990476D02*
X163234819Y-91990476D01*
X163234819Y-91990476D02*
X163234819Y-92466666D01*
D11*
X162279530Y-90216666D02*
X162303340Y-90192857D01*
X162303340Y-90192857D02*
X162327149Y-90121428D01*
X162327149Y-90121428D02*
X162327149Y-90073809D01*
X162327149Y-90073809D02*
X162303340Y-90002381D01*
X162303340Y-90002381D02*
X162255720Y-89954762D01*
X162255720Y-89954762D02*
X162208101Y-89930952D01*
X162208101Y-89930952D02*
X162112863Y-89907143D01*
X162112863Y-89907143D02*
X162041435Y-89907143D01*
X162041435Y-89907143D02*
X161946197Y-89930952D01*
X161946197Y-89930952D02*
X161898578Y-89954762D01*
X161898578Y-89954762D02*
X161850959Y-90002381D01*
X161850959Y-90002381D02*
X161827149Y-90073809D01*
X161827149Y-90073809D02*
X161827149Y-90121428D01*
X161827149Y-90121428D02*
X161850959Y-90192857D01*
X161850959Y-90192857D02*
X161874768Y-90216666D01*
X162041435Y-90502381D02*
X162017625Y-90454762D01*
X162017625Y-90454762D02*
X161993816Y-90430952D01*
X161993816Y-90430952D02*
X161946197Y-90407143D01*
X161946197Y-90407143D02*
X161922387Y-90407143D01*
X161922387Y-90407143D02*
X161874768Y-90430952D01*
X161874768Y-90430952D02*
X161850959Y-90454762D01*
X161850959Y-90454762D02*
X161827149Y-90502381D01*
X161827149Y-90502381D02*
X161827149Y-90597619D01*
X161827149Y-90597619D02*
X161850959Y-90645238D01*
X161850959Y-90645238D02*
X161874768Y-90669047D01*
X161874768Y-90669047D02*
X161922387Y-90692857D01*
X161922387Y-90692857D02*
X161946197Y-90692857D01*
X161946197Y-90692857D02*
X161993816Y-90669047D01*
X161993816Y-90669047D02*
X162017625Y-90645238D01*
X162017625Y-90645238D02*
X162041435Y-90597619D01*
X162041435Y-90597619D02*
X162041435Y-90502381D01*
X162041435Y-90502381D02*
X162065244Y-90454762D01*
X162065244Y-90454762D02*
X162089054Y-90430952D01*
X162089054Y-90430952D02*
X162136673Y-90407143D01*
X162136673Y-90407143D02*
X162231911Y-90407143D01*
X162231911Y-90407143D02*
X162279530Y-90430952D01*
X162279530Y-90430952D02*
X162303340Y-90454762D01*
X162303340Y-90454762D02*
X162327149Y-90502381D01*
X162327149Y-90502381D02*
X162327149Y-90597619D01*
X162327149Y-90597619D02*
X162303340Y-90645238D01*
X162303340Y-90645238D02*
X162279530Y-90669047D01*
X162279530Y-90669047D02*
X162231911Y-90692857D01*
X162231911Y-90692857D02*
X162136673Y-90692857D01*
X162136673Y-90692857D02*
X162089054Y-90669047D01*
X162089054Y-90669047D02*
X162065244Y-90645238D01*
X162065244Y-90645238D02*
X162041435Y-90597619D01*
D10*
X138947619Y-76174819D02*
X139519047Y-76174819D01*
X139233333Y-76174819D02*
X139233333Y-75174819D01*
X139233333Y-75174819D02*
X139328571Y-75317676D01*
X139328571Y-75317676D02*
X139423809Y-75412914D01*
X139423809Y-75412914D02*
X139519047Y-75460533D01*
X138328571Y-75174819D02*
X138233333Y-75174819D01*
X138233333Y-75174819D02*
X138138095Y-75222438D01*
X138138095Y-75222438D02*
X138090476Y-75270057D01*
X138090476Y-75270057D02*
X138042857Y-75365295D01*
X138042857Y-75365295D02*
X137995238Y-75555771D01*
X137995238Y-75555771D02*
X137995238Y-75793866D01*
X137995238Y-75793866D02*
X138042857Y-75984342D01*
X138042857Y-75984342D02*
X138090476Y-76079580D01*
X138090476Y-76079580D02*
X138138095Y-76127200D01*
X138138095Y-76127200D02*
X138233333Y-76174819D01*
X138233333Y-76174819D02*
X138328571Y-76174819D01*
X138328571Y-76174819D02*
X138423809Y-76127200D01*
X138423809Y-76127200D02*
X138471428Y-76079580D01*
X138471428Y-76079580D02*
X138519047Y-75984342D01*
X138519047Y-75984342D02*
X138566666Y-75793866D01*
X138566666Y-75793866D02*
X138566666Y-75555771D01*
X138566666Y-75555771D02*
X138519047Y-75365295D01*
X138519047Y-75365295D02*
X138471428Y-75270057D01*
X138471428Y-75270057D02*
X138423809Y-75222438D01*
X138423809Y-75222438D02*
X138328571Y-75174819D01*
X137376190Y-75174819D02*
X137280952Y-75174819D01*
X137280952Y-75174819D02*
X137185714Y-75222438D01*
X137185714Y-75222438D02*
X137138095Y-75270057D01*
X137138095Y-75270057D02*
X137090476Y-75365295D01*
X137090476Y-75365295D02*
X137042857Y-75555771D01*
X137042857Y-75555771D02*
X137042857Y-75793866D01*
X137042857Y-75793866D02*
X137090476Y-75984342D01*
X137090476Y-75984342D02*
X137138095Y-76079580D01*
X137138095Y-76079580D02*
X137185714Y-76127200D01*
X137185714Y-76127200D02*
X137280952Y-76174819D01*
X137280952Y-76174819D02*
X137376190Y-76174819D01*
X137376190Y-76174819D02*
X137471428Y-76127200D01*
X137471428Y-76127200D02*
X137519047Y-76079580D01*
X137519047Y-76079580D02*
X137566666Y-75984342D01*
X137566666Y-75984342D02*
X137614285Y-75793866D01*
X137614285Y-75793866D02*
X137614285Y-75555771D01*
X137614285Y-75555771D02*
X137566666Y-75365295D01*
X137566666Y-75365295D02*
X137519047Y-75270057D01*
X137519047Y-75270057D02*
X137471428Y-75222438D01*
X137471428Y-75222438D02*
X137376190Y-75174819D01*
X136614285Y-75508152D02*
X136614285Y-76174819D01*
X136614285Y-75603390D02*
X136566666Y-75555771D01*
X136566666Y-75555771D02*
X136471428Y-75508152D01*
X136471428Y-75508152D02*
X136328571Y-75508152D01*
X136328571Y-75508152D02*
X136233333Y-75555771D01*
X136233333Y-75555771D02*
X136185714Y-75651009D01*
X136185714Y-75651009D02*
X136185714Y-76174819D01*
X135376190Y-75651009D02*
X135709523Y-75651009D01*
X135709523Y-76174819D02*
X135709523Y-75174819D01*
X135709523Y-75174819D02*
X135233333Y-75174819D01*
D11*
X137721428Y-77579530D02*
X137745237Y-77603340D01*
X137745237Y-77603340D02*
X137816666Y-77627149D01*
X137816666Y-77627149D02*
X137864285Y-77627149D01*
X137864285Y-77627149D02*
X137935713Y-77603340D01*
X137935713Y-77603340D02*
X137983332Y-77555720D01*
X137983332Y-77555720D02*
X138007142Y-77508101D01*
X138007142Y-77508101D02*
X138030951Y-77412863D01*
X138030951Y-77412863D02*
X138030951Y-77341435D01*
X138030951Y-77341435D02*
X138007142Y-77246197D01*
X138007142Y-77246197D02*
X137983332Y-77198578D01*
X137983332Y-77198578D02*
X137935713Y-77150959D01*
X137935713Y-77150959D02*
X137864285Y-77127149D01*
X137864285Y-77127149D02*
X137816666Y-77127149D01*
X137816666Y-77127149D02*
X137745237Y-77150959D01*
X137745237Y-77150959D02*
X137721428Y-77174768D01*
X137530951Y-77174768D02*
X137507142Y-77150959D01*
X137507142Y-77150959D02*
X137459523Y-77127149D01*
X137459523Y-77127149D02*
X137340475Y-77127149D01*
X137340475Y-77127149D02*
X137292856Y-77150959D01*
X137292856Y-77150959D02*
X137269047Y-77174768D01*
X137269047Y-77174768D02*
X137245237Y-77222387D01*
X137245237Y-77222387D02*
X137245237Y-77270006D01*
X137245237Y-77270006D02*
X137269047Y-77341435D01*
X137269047Y-77341435D02*
X137554761Y-77627149D01*
X137554761Y-77627149D02*
X137245237Y-77627149D01*
X137078571Y-77127149D02*
X136769047Y-77127149D01*
X136769047Y-77127149D02*
X136935714Y-77317625D01*
X136935714Y-77317625D02*
X136864285Y-77317625D01*
X136864285Y-77317625D02*
X136816666Y-77341435D01*
X136816666Y-77341435D02*
X136792857Y-77365244D01*
X136792857Y-77365244D02*
X136769047Y-77412863D01*
X136769047Y-77412863D02*
X136769047Y-77531911D01*
X136769047Y-77531911D02*
X136792857Y-77579530D01*
X136792857Y-77579530D02*
X136816666Y-77603340D01*
X136816666Y-77603340D02*
X136864285Y-77627149D01*
X136864285Y-77627149D02*
X137007142Y-77627149D01*
X137007142Y-77627149D02*
X137054761Y-77603340D01*
X137054761Y-77603340D02*
X137078571Y-77579530D01*
D10*
X124492319Y-112877380D02*
X124492319Y-112305952D01*
X124492319Y-112591666D02*
X123492319Y-112591666D01*
X123492319Y-112591666D02*
X123635176Y-112496428D01*
X123635176Y-112496428D02*
X123730414Y-112401190D01*
X123730414Y-112401190D02*
X123778033Y-112305952D01*
X123492319Y-113496428D02*
X123492319Y-113591666D01*
X123492319Y-113591666D02*
X123539938Y-113686904D01*
X123539938Y-113686904D02*
X123587557Y-113734523D01*
X123587557Y-113734523D02*
X123682795Y-113782142D01*
X123682795Y-113782142D02*
X123873271Y-113829761D01*
X123873271Y-113829761D02*
X124111366Y-113829761D01*
X124111366Y-113829761D02*
X124301842Y-113782142D01*
X124301842Y-113782142D02*
X124397080Y-113734523D01*
X124397080Y-113734523D02*
X124444700Y-113686904D01*
X124444700Y-113686904D02*
X124492319Y-113591666D01*
X124492319Y-113591666D02*
X124492319Y-113496428D01*
X124492319Y-113496428D02*
X124444700Y-113401190D01*
X124444700Y-113401190D02*
X124397080Y-113353571D01*
X124397080Y-113353571D02*
X124301842Y-113305952D01*
X124301842Y-113305952D02*
X124111366Y-113258333D01*
X124111366Y-113258333D02*
X123873271Y-113258333D01*
X123873271Y-113258333D02*
X123682795Y-113305952D01*
X123682795Y-113305952D02*
X123587557Y-113353571D01*
X123587557Y-113353571D02*
X123539938Y-113401190D01*
X123539938Y-113401190D02*
X123492319Y-113496428D01*
X123492319Y-114448809D02*
X123492319Y-114544047D01*
X123492319Y-114544047D02*
X123539938Y-114639285D01*
X123539938Y-114639285D02*
X123587557Y-114686904D01*
X123587557Y-114686904D02*
X123682795Y-114734523D01*
X123682795Y-114734523D02*
X123873271Y-114782142D01*
X123873271Y-114782142D02*
X124111366Y-114782142D01*
X124111366Y-114782142D02*
X124301842Y-114734523D01*
X124301842Y-114734523D02*
X124397080Y-114686904D01*
X124397080Y-114686904D02*
X124444700Y-114639285D01*
X124444700Y-114639285D02*
X124492319Y-114544047D01*
X124492319Y-114544047D02*
X124492319Y-114448809D01*
X124492319Y-114448809D02*
X124444700Y-114353571D01*
X124444700Y-114353571D02*
X124397080Y-114305952D01*
X124397080Y-114305952D02*
X124301842Y-114258333D01*
X124301842Y-114258333D02*
X124111366Y-114210714D01*
X124111366Y-114210714D02*
X123873271Y-114210714D01*
X123873271Y-114210714D02*
X123682795Y-114258333D01*
X123682795Y-114258333D02*
X123587557Y-114305952D01*
X123587557Y-114305952D02*
X123539938Y-114353571D01*
X123539938Y-114353571D02*
X123492319Y-114448809D01*
X123825652Y-115210714D02*
X124492319Y-115210714D01*
X123920890Y-115210714D02*
X123873271Y-115258333D01*
X123873271Y-115258333D02*
X123825652Y-115353571D01*
X123825652Y-115353571D02*
X123825652Y-115496428D01*
X123825652Y-115496428D02*
X123873271Y-115591666D01*
X123873271Y-115591666D02*
X123968509Y-115639285D01*
X123968509Y-115639285D02*
X124492319Y-115639285D01*
X123968509Y-116448809D02*
X123968509Y-116115476D01*
X124492319Y-116115476D02*
X123492319Y-116115476D01*
X123492319Y-116115476D02*
X123492319Y-116591666D01*
D11*
X125897030Y-114103571D02*
X125920840Y-114079762D01*
X125920840Y-114079762D02*
X125944649Y-114008333D01*
X125944649Y-114008333D02*
X125944649Y-113960714D01*
X125944649Y-113960714D02*
X125920840Y-113889286D01*
X125920840Y-113889286D02*
X125873220Y-113841667D01*
X125873220Y-113841667D02*
X125825601Y-113817857D01*
X125825601Y-113817857D02*
X125730363Y-113794048D01*
X125730363Y-113794048D02*
X125658935Y-113794048D01*
X125658935Y-113794048D02*
X125563697Y-113817857D01*
X125563697Y-113817857D02*
X125516078Y-113841667D01*
X125516078Y-113841667D02*
X125468459Y-113889286D01*
X125468459Y-113889286D02*
X125444649Y-113960714D01*
X125444649Y-113960714D02*
X125444649Y-114008333D01*
X125444649Y-114008333D02*
X125468459Y-114079762D01*
X125468459Y-114079762D02*
X125492268Y-114103571D01*
X125944649Y-114579762D02*
X125944649Y-114294048D01*
X125944649Y-114436905D02*
X125444649Y-114436905D01*
X125444649Y-114436905D02*
X125516078Y-114389286D01*
X125516078Y-114389286D02*
X125563697Y-114341667D01*
X125563697Y-114341667D02*
X125587506Y-114294048D01*
X125611316Y-115008333D02*
X125944649Y-115008333D01*
X125420840Y-114889285D02*
X125777982Y-114770238D01*
X125777982Y-114770238D02*
X125777982Y-115079761D01*
D10*
X173540255Y-120460687D02*
X174206922Y-120460687D01*
X173159303Y-120222592D02*
X173873588Y-119984497D01*
X173873588Y-119984497D02*
X173873588Y-120603544D01*
X174111683Y-120984497D02*
X174159303Y-121032116D01*
X174159303Y-121032116D02*
X174206922Y-120984497D01*
X174206922Y-120984497D02*
X174159303Y-120936878D01*
X174159303Y-120936878D02*
X174111683Y-120984497D01*
X174111683Y-120984497D02*
X174206922Y-120984497D01*
X173206922Y-121365449D02*
X173206922Y-122032115D01*
X173206922Y-122032115D02*
X174206922Y-121603544D01*
X174206922Y-122413068D02*
X173206922Y-122413068D01*
X173825969Y-122508306D02*
X174206922Y-122794020D01*
X173540255Y-122794020D02*
X173921207Y-122413068D01*
D11*
X175629252Y-121305925D02*
X175391157Y-121139259D01*
X175629252Y-121020211D02*
X175129252Y-121020211D01*
X175129252Y-121020211D02*
X175129252Y-121210687D01*
X175129252Y-121210687D02*
X175153062Y-121258306D01*
X175153062Y-121258306D02*
X175176871Y-121282116D01*
X175176871Y-121282116D02*
X175224490Y-121305925D01*
X175224490Y-121305925D02*
X175295919Y-121305925D01*
X175295919Y-121305925D02*
X175343538Y-121282116D01*
X175343538Y-121282116D02*
X175367347Y-121258306D01*
X175367347Y-121258306D02*
X175391157Y-121210687D01*
X175391157Y-121210687D02*
X175391157Y-121020211D01*
X175129252Y-121734497D02*
X175129252Y-121639259D01*
X175129252Y-121639259D02*
X175153062Y-121591640D01*
X175153062Y-121591640D02*
X175176871Y-121567830D01*
X175176871Y-121567830D02*
X175248300Y-121520211D01*
X175248300Y-121520211D02*
X175343538Y-121496402D01*
X175343538Y-121496402D02*
X175534014Y-121496402D01*
X175534014Y-121496402D02*
X175581633Y-121520211D01*
X175581633Y-121520211D02*
X175605443Y-121544021D01*
X175605443Y-121544021D02*
X175629252Y-121591640D01*
X175629252Y-121591640D02*
X175629252Y-121686878D01*
X175629252Y-121686878D02*
X175605443Y-121734497D01*
X175605443Y-121734497D02*
X175581633Y-121758306D01*
X175581633Y-121758306D02*
X175534014Y-121782116D01*
X175534014Y-121782116D02*
X175414966Y-121782116D01*
X175414966Y-121782116D02*
X175367347Y-121758306D01*
X175367347Y-121758306D02*
X175343538Y-121734497D01*
X175343538Y-121734497D02*
X175319728Y-121686878D01*
X175319728Y-121686878D02*
X175319728Y-121591640D01*
X175319728Y-121591640D02*
X175343538Y-121544021D01*
X175343538Y-121544021D02*
X175367347Y-121520211D01*
X175367347Y-121520211D02*
X175414966Y-121496402D01*
D10*
X137995238Y-113929819D02*
X138566666Y-113929819D01*
X138280952Y-113929819D02*
X138280952Y-112929819D01*
X138280952Y-112929819D02*
X138376190Y-113072676D01*
X138376190Y-113072676D02*
X138471428Y-113167914D01*
X138471428Y-113167914D02*
X138566666Y-113215533D01*
X137376190Y-112929819D02*
X137280952Y-112929819D01*
X137280952Y-112929819D02*
X137185714Y-112977438D01*
X137185714Y-112977438D02*
X137138095Y-113025057D01*
X137138095Y-113025057D02*
X137090476Y-113120295D01*
X137090476Y-113120295D02*
X137042857Y-113310771D01*
X137042857Y-113310771D02*
X137042857Y-113548866D01*
X137042857Y-113548866D02*
X137090476Y-113739342D01*
X137090476Y-113739342D02*
X137138095Y-113834580D01*
X137138095Y-113834580D02*
X137185714Y-113882200D01*
X137185714Y-113882200D02*
X137280952Y-113929819D01*
X137280952Y-113929819D02*
X137376190Y-113929819D01*
X137376190Y-113929819D02*
X137471428Y-113882200D01*
X137471428Y-113882200D02*
X137519047Y-113834580D01*
X137519047Y-113834580D02*
X137566666Y-113739342D01*
X137566666Y-113739342D02*
X137614285Y-113548866D01*
X137614285Y-113548866D02*
X137614285Y-113310771D01*
X137614285Y-113310771D02*
X137566666Y-113120295D01*
X137566666Y-113120295D02*
X137519047Y-113025057D01*
X137519047Y-113025057D02*
X137471428Y-112977438D01*
X137471428Y-112977438D02*
X137376190Y-112929819D01*
X136614285Y-113929819D02*
X136614285Y-112929819D01*
X136519047Y-113548866D02*
X136233333Y-113929819D01*
X136233333Y-113263152D02*
X136614285Y-113644104D01*
D11*
X137721428Y-115352149D02*
X137888094Y-115114054D01*
X138007142Y-115352149D02*
X138007142Y-114852149D01*
X138007142Y-114852149D02*
X137816666Y-114852149D01*
X137816666Y-114852149D02*
X137769047Y-114875959D01*
X137769047Y-114875959D02*
X137745237Y-114899768D01*
X137745237Y-114899768D02*
X137721428Y-114947387D01*
X137721428Y-114947387D02*
X137721428Y-115018816D01*
X137721428Y-115018816D02*
X137745237Y-115066435D01*
X137745237Y-115066435D02*
X137769047Y-115090244D01*
X137769047Y-115090244D02*
X137816666Y-115114054D01*
X137816666Y-115114054D02*
X138007142Y-115114054D01*
X137245237Y-115352149D02*
X137530951Y-115352149D01*
X137388094Y-115352149D02*
X137388094Y-114852149D01*
X137388094Y-114852149D02*
X137435713Y-114923578D01*
X137435713Y-114923578D02*
X137483332Y-114971197D01*
X137483332Y-114971197D02*
X137530951Y-114995006D01*
X137007142Y-115352149D02*
X136911904Y-115352149D01*
X136911904Y-115352149D02*
X136864285Y-115328340D01*
X136864285Y-115328340D02*
X136840476Y-115304530D01*
X136840476Y-115304530D02*
X136792857Y-115233101D01*
X136792857Y-115233101D02*
X136769047Y-115137863D01*
X136769047Y-115137863D02*
X136769047Y-114947387D01*
X136769047Y-114947387D02*
X136792857Y-114899768D01*
X136792857Y-114899768D02*
X136816666Y-114875959D01*
X136816666Y-114875959D02*
X136864285Y-114852149D01*
X136864285Y-114852149D02*
X136959523Y-114852149D01*
X136959523Y-114852149D02*
X137007142Y-114875959D01*
X137007142Y-114875959D02*
X137030952Y-114899768D01*
X137030952Y-114899768D02*
X137054761Y-114947387D01*
X137054761Y-114947387D02*
X137054761Y-115066435D01*
X137054761Y-115066435D02*
X137030952Y-115114054D01*
X137030952Y-115114054D02*
X137007142Y-115137863D01*
X137007142Y-115137863D02*
X136959523Y-115161673D01*
X136959523Y-115161673D02*
X136864285Y-115161673D01*
X136864285Y-115161673D02*
X136816666Y-115137863D01*
X136816666Y-115137863D02*
X136792857Y-115114054D01*
X136792857Y-115114054D02*
X136769047Y-115066435D01*
D10*
X124492319Y-95214880D02*
X124492319Y-94643452D01*
X124492319Y-94929166D02*
X123492319Y-94929166D01*
X123492319Y-94929166D02*
X123635176Y-94833928D01*
X123635176Y-94833928D02*
X123730414Y-94738690D01*
X123730414Y-94738690D02*
X123778033Y-94643452D01*
X123492319Y-95833928D02*
X123492319Y-95929166D01*
X123492319Y-95929166D02*
X123539938Y-96024404D01*
X123539938Y-96024404D02*
X123587557Y-96072023D01*
X123587557Y-96072023D02*
X123682795Y-96119642D01*
X123682795Y-96119642D02*
X123873271Y-96167261D01*
X123873271Y-96167261D02*
X124111366Y-96167261D01*
X124111366Y-96167261D02*
X124301842Y-96119642D01*
X124301842Y-96119642D02*
X124397080Y-96072023D01*
X124397080Y-96072023D02*
X124444700Y-96024404D01*
X124444700Y-96024404D02*
X124492319Y-95929166D01*
X124492319Y-95929166D02*
X124492319Y-95833928D01*
X124492319Y-95833928D02*
X124444700Y-95738690D01*
X124444700Y-95738690D02*
X124397080Y-95691071D01*
X124397080Y-95691071D02*
X124301842Y-95643452D01*
X124301842Y-95643452D02*
X124111366Y-95595833D01*
X124111366Y-95595833D02*
X123873271Y-95595833D01*
X123873271Y-95595833D02*
X123682795Y-95643452D01*
X123682795Y-95643452D02*
X123587557Y-95691071D01*
X123587557Y-95691071D02*
X123539938Y-95738690D01*
X123539938Y-95738690D02*
X123492319Y-95833928D01*
X123492319Y-96786309D02*
X123492319Y-96881547D01*
X123492319Y-96881547D02*
X123539938Y-96976785D01*
X123539938Y-96976785D02*
X123587557Y-97024404D01*
X123587557Y-97024404D02*
X123682795Y-97072023D01*
X123682795Y-97072023D02*
X123873271Y-97119642D01*
X123873271Y-97119642D02*
X124111366Y-97119642D01*
X124111366Y-97119642D02*
X124301842Y-97072023D01*
X124301842Y-97072023D02*
X124397080Y-97024404D01*
X124397080Y-97024404D02*
X124444700Y-96976785D01*
X124444700Y-96976785D02*
X124492319Y-96881547D01*
X124492319Y-96881547D02*
X124492319Y-96786309D01*
X124492319Y-96786309D02*
X124444700Y-96691071D01*
X124444700Y-96691071D02*
X124397080Y-96643452D01*
X124397080Y-96643452D02*
X124301842Y-96595833D01*
X124301842Y-96595833D02*
X124111366Y-96548214D01*
X124111366Y-96548214D02*
X123873271Y-96548214D01*
X123873271Y-96548214D02*
X123682795Y-96595833D01*
X123682795Y-96595833D02*
X123587557Y-96643452D01*
X123587557Y-96643452D02*
X123539938Y-96691071D01*
X123539938Y-96691071D02*
X123492319Y-96786309D01*
X123825652Y-97548214D02*
X124492319Y-97548214D01*
X123920890Y-97548214D02*
X123873271Y-97595833D01*
X123873271Y-97595833D02*
X123825652Y-97691071D01*
X123825652Y-97691071D02*
X123825652Y-97833928D01*
X123825652Y-97833928D02*
X123873271Y-97929166D01*
X123873271Y-97929166D02*
X123968509Y-97976785D01*
X123968509Y-97976785D02*
X124492319Y-97976785D01*
X123968509Y-98786309D02*
X123968509Y-98452976D01*
X124492319Y-98452976D02*
X123492319Y-98452976D01*
X123492319Y-98452976D02*
X123492319Y-98929166D01*
D11*
X125897030Y-96679166D02*
X125920840Y-96655357D01*
X125920840Y-96655357D02*
X125944649Y-96583928D01*
X125944649Y-96583928D02*
X125944649Y-96536309D01*
X125944649Y-96536309D02*
X125920840Y-96464881D01*
X125920840Y-96464881D02*
X125873220Y-96417262D01*
X125873220Y-96417262D02*
X125825601Y-96393452D01*
X125825601Y-96393452D02*
X125730363Y-96369643D01*
X125730363Y-96369643D02*
X125658935Y-96369643D01*
X125658935Y-96369643D02*
X125563697Y-96393452D01*
X125563697Y-96393452D02*
X125516078Y-96417262D01*
X125516078Y-96417262D02*
X125468459Y-96464881D01*
X125468459Y-96464881D02*
X125444649Y-96536309D01*
X125444649Y-96536309D02*
X125444649Y-96583928D01*
X125444649Y-96583928D02*
X125468459Y-96655357D01*
X125468459Y-96655357D02*
X125492268Y-96679166D01*
X125492268Y-96869643D02*
X125468459Y-96893452D01*
X125468459Y-96893452D02*
X125444649Y-96941071D01*
X125444649Y-96941071D02*
X125444649Y-97060119D01*
X125444649Y-97060119D02*
X125468459Y-97107738D01*
X125468459Y-97107738D02*
X125492268Y-97131547D01*
X125492268Y-97131547D02*
X125539887Y-97155357D01*
X125539887Y-97155357D02*
X125587506Y-97155357D01*
X125587506Y-97155357D02*
X125658935Y-97131547D01*
X125658935Y-97131547D02*
X125944649Y-96845833D01*
X125944649Y-96845833D02*
X125944649Y-97155357D01*
D10*
X137995238Y-96267319D02*
X138566666Y-96267319D01*
X138280952Y-96267319D02*
X138280952Y-95267319D01*
X138280952Y-95267319D02*
X138376190Y-95410176D01*
X138376190Y-95410176D02*
X138471428Y-95505414D01*
X138471428Y-95505414D02*
X138566666Y-95553033D01*
X137376190Y-95267319D02*
X137280952Y-95267319D01*
X137280952Y-95267319D02*
X137185714Y-95314938D01*
X137185714Y-95314938D02*
X137138095Y-95362557D01*
X137138095Y-95362557D02*
X137090476Y-95457795D01*
X137090476Y-95457795D02*
X137042857Y-95648271D01*
X137042857Y-95648271D02*
X137042857Y-95886366D01*
X137042857Y-95886366D02*
X137090476Y-96076842D01*
X137090476Y-96076842D02*
X137138095Y-96172080D01*
X137138095Y-96172080D02*
X137185714Y-96219700D01*
X137185714Y-96219700D02*
X137280952Y-96267319D01*
X137280952Y-96267319D02*
X137376190Y-96267319D01*
X137376190Y-96267319D02*
X137471428Y-96219700D01*
X137471428Y-96219700D02*
X137519047Y-96172080D01*
X137519047Y-96172080D02*
X137566666Y-96076842D01*
X137566666Y-96076842D02*
X137614285Y-95886366D01*
X137614285Y-95886366D02*
X137614285Y-95648271D01*
X137614285Y-95648271D02*
X137566666Y-95457795D01*
X137566666Y-95457795D02*
X137519047Y-95362557D01*
X137519047Y-95362557D02*
X137471428Y-95314938D01*
X137471428Y-95314938D02*
X137376190Y-95267319D01*
X136614285Y-96267319D02*
X136614285Y-95267319D01*
X136519047Y-95886366D02*
X136233333Y-96267319D01*
X136233333Y-95600652D02*
X136614285Y-95981604D01*
D11*
X137721428Y-97689649D02*
X137888094Y-97451554D01*
X138007142Y-97689649D02*
X138007142Y-97189649D01*
X138007142Y-97189649D02*
X137816666Y-97189649D01*
X137816666Y-97189649D02*
X137769047Y-97213459D01*
X137769047Y-97213459D02*
X137745237Y-97237268D01*
X137745237Y-97237268D02*
X137721428Y-97284887D01*
X137721428Y-97284887D02*
X137721428Y-97356316D01*
X137721428Y-97356316D02*
X137745237Y-97403935D01*
X137745237Y-97403935D02*
X137769047Y-97427744D01*
X137769047Y-97427744D02*
X137816666Y-97451554D01*
X137816666Y-97451554D02*
X138007142Y-97451554D01*
X137245237Y-97689649D02*
X137530951Y-97689649D01*
X137388094Y-97689649D02*
X137388094Y-97189649D01*
X137388094Y-97189649D02*
X137435713Y-97261078D01*
X137435713Y-97261078D02*
X137483332Y-97308697D01*
X137483332Y-97308697D02*
X137530951Y-97332506D01*
X136935714Y-97189649D02*
X136888095Y-97189649D01*
X136888095Y-97189649D02*
X136840476Y-97213459D01*
X136840476Y-97213459D02*
X136816666Y-97237268D01*
X136816666Y-97237268D02*
X136792857Y-97284887D01*
X136792857Y-97284887D02*
X136769047Y-97380125D01*
X136769047Y-97380125D02*
X136769047Y-97499173D01*
X136769047Y-97499173D02*
X136792857Y-97594411D01*
X136792857Y-97594411D02*
X136816666Y-97642030D01*
X136816666Y-97642030D02*
X136840476Y-97665840D01*
X136840476Y-97665840D02*
X136888095Y-97689649D01*
X136888095Y-97689649D02*
X136935714Y-97689649D01*
X136935714Y-97689649D02*
X136983333Y-97665840D01*
X136983333Y-97665840D02*
X137007142Y-97642030D01*
X137007142Y-97642030D02*
X137030952Y-97594411D01*
X137030952Y-97594411D02*
X137054761Y-97499173D01*
X137054761Y-97499173D02*
X137054761Y-97380125D01*
X137054761Y-97380125D02*
X137030952Y-97284887D01*
X137030952Y-97284887D02*
X137007142Y-97237268D01*
X137007142Y-97237268D02*
X136983333Y-97213459D01*
X136983333Y-97213459D02*
X136935714Y-97189649D01*
D10*
X137995238Y-78604819D02*
X138566666Y-78604819D01*
X138280952Y-78604819D02*
X138280952Y-77604819D01*
X138280952Y-77604819D02*
X138376190Y-77747676D01*
X138376190Y-77747676D02*
X138471428Y-77842914D01*
X138471428Y-77842914D02*
X138566666Y-77890533D01*
X137376190Y-77604819D02*
X137280952Y-77604819D01*
X137280952Y-77604819D02*
X137185714Y-77652438D01*
X137185714Y-77652438D02*
X137138095Y-77700057D01*
X137138095Y-77700057D02*
X137090476Y-77795295D01*
X137090476Y-77795295D02*
X137042857Y-77985771D01*
X137042857Y-77985771D02*
X137042857Y-78223866D01*
X137042857Y-78223866D02*
X137090476Y-78414342D01*
X137090476Y-78414342D02*
X137138095Y-78509580D01*
X137138095Y-78509580D02*
X137185714Y-78557200D01*
X137185714Y-78557200D02*
X137280952Y-78604819D01*
X137280952Y-78604819D02*
X137376190Y-78604819D01*
X137376190Y-78604819D02*
X137471428Y-78557200D01*
X137471428Y-78557200D02*
X137519047Y-78509580D01*
X137519047Y-78509580D02*
X137566666Y-78414342D01*
X137566666Y-78414342D02*
X137614285Y-78223866D01*
X137614285Y-78223866D02*
X137614285Y-77985771D01*
X137614285Y-77985771D02*
X137566666Y-77795295D01*
X137566666Y-77795295D02*
X137519047Y-77700057D01*
X137519047Y-77700057D02*
X137471428Y-77652438D01*
X137471428Y-77652438D02*
X137376190Y-77604819D01*
X136614285Y-78604819D02*
X136614285Y-77604819D01*
X136519047Y-78223866D02*
X136233333Y-78604819D01*
X136233333Y-77938152D02*
X136614285Y-78319104D01*
D11*
X137483333Y-80027149D02*
X137649999Y-79789054D01*
X137769047Y-80027149D02*
X137769047Y-79527149D01*
X137769047Y-79527149D02*
X137578571Y-79527149D01*
X137578571Y-79527149D02*
X137530952Y-79550959D01*
X137530952Y-79550959D02*
X137507142Y-79574768D01*
X137507142Y-79574768D02*
X137483333Y-79622387D01*
X137483333Y-79622387D02*
X137483333Y-79693816D01*
X137483333Y-79693816D02*
X137507142Y-79741435D01*
X137507142Y-79741435D02*
X137530952Y-79765244D01*
X137530952Y-79765244D02*
X137578571Y-79789054D01*
X137578571Y-79789054D02*
X137769047Y-79789054D01*
X137245237Y-80027149D02*
X137149999Y-80027149D01*
X137149999Y-80027149D02*
X137102380Y-80003340D01*
X137102380Y-80003340D02*
X137078571Y-79979530D01*
X137078571Y-79979530D02*
X137030952Y-79908101D01*
X137030952Y-79908101D02*
X137007142Y-79812863D01*
X137007142Y-79812863D02*
X137007142Y-79622387D01*
X137007142Y-79622387D02*
X137030952Y-79574768D01*
X137030952Y-79574768D02*
X137054761Y-79550959D01*
X137054761Y-79550959D02*
X137102380Y-79527149D01*
X137102380Y-79527149D02*
X137197618Y-79527149D01*
X137197618Y-79527149D02*
X137245237Y-79550959D01*
X137245237Y-79550959D02*
X137269047Y-79574768D01*
X137269047Y-79574768D02*
X137292856Y-79622387D01*
X137292856Y-79622387D02*
X137292856Y-79741435D01*
X137292856Y-79741435D02*
X137269047Y-79789054D01*
X137269047Y-79789054D02*
X137245237Y-79812863D01*
X137245237Y-79812863D02*
X137197618Y-79836673D01*
X137197618Y-79836673D02*
X137102380Y-79836673D01*
X137102380Y-79836673D02*
X137054761Y-79812863D01*
X137054761Y-79812863D02*
X137030952Y-79789054D01*
X137030952Y-79789054D02*
X137007142Y-79741435D01*
D10*
X138947619Y-111499819D02*
X139519047Y-111499819D01*
X139233333Y-111499819D02*
X139233333Y-110499819D01*
X139233333Y-110499819D02*
X139328571Y-110642676D01*
X139328571Y-110642676D02*
X139423809Y-110737914D01*
X139423809Y-110737914D02*
X139519047Y-110785533D01*
X138328571Y-110499819D02*
X138233333Y-110499819D01*
X138233333Y-110499819D02*
X138138095Y-110547438D01*
X138138095Y-110547438D02*
X138090476Y-110595057D01*
X138090476Y-110595057D02*
X138042857Y-110690295D01*
X138042857Y-110690295D02*
X137995238Y-110880771D01*
X137995238Y-110880771D02*
X137995238Y-111118866D01*
X137995238Y-111118866D02*
X138042857Y-111309342D01*
X138042857Y-111309342D02*
X138090476Y-111404580D01*
X138090476Y-111404580D02*
X138138095Y-111452200D01*
X138138095Y-111452200D02*
X138233333Y-111499819D01*
X138233333Y-111499819D02*
X138328571Y-111499819D01*
X138328571Y-111499819D02*
X138423809Y-111452200D01*
X138423809Y-111452200D02*
X138471428Y-111404580D01*
X138471428Y-111404580D02*
X138519047Y-111309342D01*
X138519047Y-111309342D02*
X138566666Y-111118866D01*
X138566666Y-111118866D02*
X138566666Y-110880771D01*
X138566666Y-110880771D02*
X138519047Y-110690295D01*
X138519047Y-110690295D02*
X138471428Y-110595057D01*
X138471428Y-110595057D02*
X138423809Y-110547438D01*
X138423809Y-110547438D02*
X138328571Y-110499819D01*
X137376190Y-110499819D02*
X137280952Y-110499819D01*
X137280952Y-110499819D02*
X137185714Y-110547438D01*
X137185714Y-110547438D02*
X137138095Y-110595057D01*
X137138095Y-110595057D02*
X137090476Y-110690295D01*
X137090476Y-110690295D02*
X137042857Y-110880771D01*
X137042857Y-110880771D02*
X137042857Y-111118866D01*
X137042857Y-111118866D02*
X137090476Y-111309342D01*
X137090476Y-111309342D02*
X137138095Y-111404580D01*
X137138095Y-111404580D02*
X137185714Y-111452200D01*
X137185714Y-111452200D02*
X137280952Y-111499819D01*
X137280952Y-111499819D02*
X137376190Y-111499819D01*
X137376190Y-111499819D02*
X137471428Y-111452200D01*
X137471428Y-111452200D02*
X137519047Y-111404580D01*
X137519047Y-111404580D02*
X137566666Y-111309342D01*
X137566666Y-111309342D02*
X137614285Y-111118866D01*
X137614285Y-111118866D02*
X137614285Y-110880771D01*
X137614285Y-110880771D02*
X137566666Y-110690295D01*
X137566666Y-110690295D02*
X137519047Y-110595057D01*
X137519047Y-110595057D02*
X137471428Y-110547438D01*
X137471428Y-110547438D02*
X137376190Y-110499819D01*
X136614285Y-110833152D02*
X136614285Y-111499819D01*
X136614285Y-110928390D02*
X136566666Y-110880771D01*
X136566666Y-110880771D02*
X136471428Y-110833152D01*
X136471428Y-110833152D02*
X136328571Y-110833152D01*
X136328571Y-110833152D02*
X136233333Y-110880771D01*
X136233333Y-110880771D02*
X136185714Y-110976009D01*
X136185714Y-110976009D02*
X136185714Y-111499819D01*
X135376190Y-110976009D02*
X135709523Y-110976009D01*
X135709523Y-111499819D02*
X135709523Y-110499819D01*
X135709523Y-110499819D02*
X135233333Y-110499819D01*
D11*
X137721428Y-112904530D02*
X137745237Y-112928340D01*
X137745237Y-112928340D02*
X137816666Y-112952149D01*
X137816666Y-112952149D02*
X137864285Y-112952149D01*
X137864285Y-112952149D02*
X137935713Y-112928340D01*
X137935713Y-112928340D02*
X137983332Y-112880720D01*
X137983332Y-112880720D02*
X138007142Y-112833101D01*
X138007142Y-112833101D02*
X138030951Y-112737863D01*
X138030951Y-112737863D02*
X138030951Y-112666435D01*
X138030951Y-112666435D02*
X138007142Y-112571197D01*
X138007142Y-112571197D02*
X137983332Y-112523578D01*
X137983332Y-112523578D02*
X137935713Y-112475959D01*
X137935713Y-112475959D02*
X137864285Y-112452149D01*
X137864285Y-112452149D02*
X137816666Y-112452149D01*
X137816666Y-112452149D02*
X137745237Y-112475959D01*
X137745237Y-112475959D02*
X137721428Y-112499768D01*
X137245237Y-112952149D02*
X137530951Y-112952149D01*
X137388094Y-112952149D02*
X137388094Y-112452149D01*
X137388094Y-112452149D02*
X137435713Y-112523578D01*
X137435713Y-112523578D02*
X137483332Y-112571197D01*
X137483332Y-112571197D02*
X137530951Y-112595006D01*
X136792857Y-112452149D02*
X137030952Y-112452149D01*
X137030952Y-112452149D02*
X137054761Y-112690244D01*
X137054761Y-112690244D02*
X137030952Y-112666435D01*
X137030952Y-112666435D02*
X136983333Y-112642625D01*
X136983333Y-112642625D02*
X136864285Y-112642625D01*
X136864285Y-112642625D02*
X136816666Y-112666435D01*
X136816666Y-112666435D02*
X136792857Y-112690244D01*
X136792857Y-112690244D02*
X136769047Y-112737863D01*
X136769047Y-112737863D02*
X136769047Y-112856911D01*
X136769047Y-112856911D02*
X136792857Y-112904530D01*
X136792857Y-112904530D02*
X136816666Y-112928340D01*
X136816666Y-112928340D02*
X136864285Y-112952149D01*
X136864285Y-112952149D02*
X136983333Y-112952149D01*
X136983333Y-112952149D02*
X137030952Y-112928340D01*
X137030952Y-112928340D02*
X137054761Y-112904530D01*
D12*
%TO.C,C12*%
X159400000Y-107225000D02*
X159400000Y-105975000D01*
X159400000Y-105975000D02*
X157400000Y-105975000D01*
X157400000Y-107225000D02*
X159400000Y-107225000D01*
X157400000Y-105975000D02*
X157400000Y-107225000D01*
%TO.C,C3*%
X136400000Y-94437500D02*
X136400000Y-95687500D01*
X136400000Y-95687500D02*
X138400000Y-95687500D01*
X138400000Y-94437500D02*
X136400000Y-94437500D01*
X138400000Y-95687500D02*
X138400000Y-94437500D01*
%TO.C,C7*%
X160125000Y-89300000D02*
X158875000Y-89300000D01*
X158875000Y-89300000D02*
X158875000Y-91300000D01*
X160125000Y-91300000D02*
X160125000Y-89300000D01*
X158875000Y-91300000D02*
X160125000Y-91300000D01*
%TO.C,C22*%
X125092500Y-80100000D02*
X126342500Y-80100000D01*
X126342500Y-80100000D02*
X126342500Y-78100000D01*
X125092500Y-78100000D02*
X125092500Y-80100000D01*
X126342500Y-78100000D02*
X125092500Y-78100000D01*
%TO.C,R5*%
X176025000Y-111610742D02*
X174775000Y-111610742D01*
X174775000Y-111610742D02*
X174775000Y-113610742D01*
X176025000Y-113610742D02*
X176025000Y-111610742D01*
X174775000Y-113610742D02*
X176025000Y-113610742D01*
%TO.C,C8*%
X162725000Y-89300000D02*
X161475000Y-89300000D01*
X161475000Y-89300000D02*
X161475000Y-91300000D01*
X162725000Y-91300000D02*
X162725000Y-89300000D01*
X161475000Y-91300000D02*
X162725000Y-91300000D01*
%TO.C,C23*%
X136400000Y-76775000D02*
X136400000Y-78025000D01*
X136400000Y-78025000D02*
X138400000Y-78025000D01*
X138400000Y-76775000D02*
X136400000Y-76775000D01*
X138400000Y-78025000D02*
X138400000Y-76775000D01*
%TO.C,C14*%
X125092500Y-115425000D02*
X126342500Y-115425000D01*
X126342500Y-115425000D02*
X126342500Y-113425000D01*
X125092500Y-113425000D02*
X125092500Y-115425000D01*
X126342500Y-113425000D02*
X125092500Y-113425000D01*
%TO.C,R6*%
X174777103Y-122389259D02*
X176027103Y-122389259D01*
X176027103Y-122389259D02*
X176027103Y-120389259D01*
X174777103Y-120389259D02*
X174777103Y-122389259D01*
X176027103Y-120389259D02*
X174777103Y-120389259D01*
%TO.C,R19*%
X136400000Y-114500000D02*
X136400000Y-115750000D01*
X136400000Y-115750000D02*
X138400000Y-115750000D01*
X138400000Y-114500000D02*
X136400000Y-114500000D01*
X138400000Y-115750000D02*
X138400000Y-114500000D01*
%TO.C,C2*%
X125092500Y-97762500D02*
X126342500Y-97762500D01*
X126342500Y-97762500D02*
X126342500Y-95762500D01*
X125092500Y-95762500D02*
X125092500Y-97762500D01*
X126342500Y-95762500D02*
X125092500Y-95762500D01*
%TO.C,R10*%
X136400000Y-96837500D02*
X136400000Y-98087500D01*
X136400000Y-98087500D02*
X138400000Y-98087500D01*
X138400000Y-96837500D02*
X136400000Y-96837500D01*
X138400000Y-98087500D02*
X138400000Y-96837500D01*
%TO.C,R9*%
X136400000Y-79175000D02*
X136400000Y-80425000D01*
X136400000Y-80425000D02*
X138400000Y-80425000D01*
X138400000Y-79175000D02*
X136400000Y-79175000D01*
X138400000Y-80425000D02*
X138400000Y-79175000D01*
%TO.C,C15*%
X136400000Y-112100000D02*
X136400000Y-113350000D01*
X136400000Y-113350000D02*
X138400000Y-113350000D01*
X138400000Y-112100000D02*
X136400000Y-112100000D01*
X138400000Y-113350000D02*
X138400000Y-112100000D01*
%TD*%
M02*
