M48
; DRILL file {KiCad 7.0.11-rc3} date Wed Sep 10 17:00:19 2025
; FORMAT={-:-/ absolute / inch / decimal}
; #@! TF.CreationDate,2025-09-10T17:00:19+08:00
; #@! TF.GenerationSoftware,Kicad,Pcbnew,7.0.11-rc3
; #@! TF.FileFunction,Plated,1,2,PTH
FMAT,2
INCH
; #@! TA.AperFunction,Plated,PTH,ViaDrill
T1C0.0157
; #@! TA.AperFunction,Plated,PTH,ComponentDrill
T2C0.0281
; #@! TA.AperFunction,Plated,PTH,ComponentDrill
T3C0.0374
; #@! TA.AperFunction,Plated,PTH,ComponentDrill
T4C0.0394
; #@! TA.AperFunction,Plated,PTH,ComponentDrill
T5C0.0433
%
G90
G05
T1
X4.9495Y-3.0663
X4.9495Y-3.7617
X4.9495Y-4.4571
X4.9498Y-3.162
X5.3641Y-3.143
X5.3641Y-3.8384
X5.3641Y-4.5338
X5.4573Y-3.0472
X5.4573Y-3.7426
X5.4573Y-4.438
X5.5413Y-3.8701
X5.5571Y-4.5945
X5.5669Y-4.6457
X5.5728Y-3.8346
X5.5866Y-4.4252
X5.6004Y-3.8996
X5.6024Y-3.9488
X5.9016Y-4.0394
X5.9301Y-3.9262
X5.9469Y-3.9961
X5.9593Y-4.0334
X5.9921Y-3.8858
X5.9921Y-3.9331
X6.0217Y-4.252
X6.061Y-4.0846
X6.1457Y-3.8189
X6.1496Y-3.9134
X6.185Y-3.8799
X6.1884Y-4.1969
X6.2205Y-3.8228
X6.2795Y-3.603
X6.2913Y-3.9547
X6.5906Y-3.4331
X6.6339Y-3.4331
X6.6772Y-3.4331
X7.3117Y-4.185
X7.3125Y-3.8347
T2
X6.1677Y-4.4528
X6.1677Y-4.8031
X6.2677Y-4.3528
X6.2677Y-4.7031
X6.3677Y-4.4528
X6.3677Y-4.8031
X6.5024Y-4.4528
X6.5024Y-4.8031
X6.6024Y-4.3528
X6.6024Y-4.7031
X6.7024Y-4.4528
X6.7024Y-4.8031
T3
X4.3652Y-3.1457
X4.3652Y-3.2441
X4.3652Y-3.3425
X4.3652Y-3.4409
X4.3652Y-3.841
X4.3652Y-3.9395
X4.3652Y-4.0379
X4.3652Y-4.1363
X4.3652Y-4.5364
X4.3652Y-4.6348
X4.3652Y-4.7333
X4.3652Y-4.8317
X7.2077Y-3.2736
X7.2077Y-3.372
X7.2077Y-3.4705
X7.2077Y-3.5689
T4
X4.7722Y-3.3819
X4.7722Y-4.0773
X4.7722Y-4.7726
X4.9722Y-3.3819
X4.9722Y-4.0773
X4.9722Y-4.7726
X5.7638Y-4.4906
X5.7638Y-4.5906
X5.7638Y-4.6906
X5.8231Y-3.4646
X5.8638Y-4.4906
X5.8638Y-4.5906
X5.8638Y-4.6906
X6.0231Y-3.4646
T5
X7.0256Y-4.3445
X7.0256Y-4.5217
X7.0256Y-4.6909
X7.0256Y-4.8681
X7.2815Y-4.3445
X7.2815Y-4.5217
X7.2815Y-4.6909
X7.2815Y-4.8681
M30
