G04 #@! TF.GenerationSoftware,KiCad,Pcbnew,8.0.2*
G04 #@! TF.CreationDate,2025-02-21T12:28:42+08:00*
G04 #@! TF.ProjectId,Indicators,496e6469-6361-4746-9f72-732e6b696361,rev?*
G04 #@! TF.SameCoordinates,Original*
G04 #@! TF.FileFunction,Soldermask,Top*
G04 #@! TF.FilePolarity,Negative*
%FSLAX46Y46*%
G04 Gerber Fmt 4.6, Leading zero omitted, Abs format (unit mm)*
G04 Created by KiCad (PCBNEW 8.0.2) date 2025-02-21 12:28:42*
%MOMM*%
%LPD*%
G01*
G04 APERTURE LIST*
G04 Aperture macros list*
%AMRoundRect*
0 Rectangle with rounded corners*
0 $1 Rounding radius*
0 $2 $3 $4 $5 $6 $7 $8 $9 X,Y pos of 4 corners*
0 Add a 4 corners polygon primitive as box body*
4,1,4,$2,$3,$4,$5,$6,$7,$8,$9,$2,$3,0*
0 Add four circle primitives for the rounded corners*
1,1,$1+$1,$2,$3*
1,1,$1+$1,$4,$5*
1,1,$1+$1,$6,$7*
1,1,$1+$1,$8,$9*
0 Add four rect primitives between the rounded corners*
20,1,$1+$1,$2,$3,$4,$5,0*
20,1,$1+$1,$4,$5,$6,$7,0*
20,1,$1+$1,$6,$7,$8,$9,0*
20,1,$1+$1,$8,$9,$2,$3,0*%
G04 Aperture macros list end*
%ADD10RoundRect,0.250000X1.500000X0.650000X-1.500000X0.650000X-1.500000X-0.650000X1.500000X-0.650000X0*%
%ADD11RoundRect,0.250000X-0.450000X0.262500X-0.450000X-0.262500X0.450000X-0.262500X0.450000X0.262500X0*%
%ADD12RoundRect,0.250000X0.600000X0.750000X-0.600000X0.750000X-0.600000X-0.750000X0.600000X-0.750000X0*%
%ADD13O,1.700000X2.000000*%
%ADD14RoundRect,0.250000X0.262500X0.450000X-0.262500X0.450000X-0.262500X-0.450000X0.262500X-0.450000X0*%
%ADD15C,3.200000*%
%ADD16RoundRect,0.250000X-0.725000X0.600000X-0.725000X-0.600000X0.725000X-0.600000X0.725000X0.600000X0*%
%ADD17O,1.950000X1.700000*%
%ADD18R,1.800000X1.800000*%
%ADD19C,1.800000*%
%ADD20R,1.600000X1.600000*%
%ADD21O,1.600000X1.600000*%
%ADD22RoundRect,0.250000X-0.262500X-0.450000X0.262500X-0.450000X0.262500X0.450000X-0.262500X0.450000X0*%
%ADD23RoundRect,0.250000X-0.337500X-0.475000X0.337500X-0.475000X0.337500X0.475000X-0.337500X0.475000X0*%
%ADD24RoundRect,0.250000X0.450000X-0.262500X0.450000X0.262500X-0.450000X0.262500X-0.450000X-0.262500X0*%
G04 APERTURE END LIST*
D10*
X87500000Y-102975000D03*
X82500000Y-102975000D03*
D11*
X109000000Y-87500000D03*
X109000000Y-89325000D03*
D12*
X76250000Y-106500000D03*
D13*
X73750000Y-106500000D03*
D14*
X88500000Y-87500000D03*
X86675000Y-87500000D03*
D15*
X114500000Y-86000000D03*
D16*
X114000000Y-92750000D03*
D17*
X114000000Y-95250000D03*
X114000000Y-97750000D03*
X114000000Y-100250000D03*
D18*
X105540000Y-106000000D03*
D19*
X103000000Y-106000000D03*
D12*
X97000000Y-106475000D03*
D13*
X94500000Y-106475000D03*
D12*
X97000000Y-87500000D03*
D13*
X94500000Y-87500000D03*
D18*
X105500000Y-86900000D03*
D19*
X102960000Y-86900000D03*
D20*
X81700000Y-98620000D03*
D21*
X84240000Y-98620000D03*
X86780000Y-98620000D03*
X89320000Y-98620000D03*
X89320000Y-91000000D03*
X86780000Y-91000000D03*
X84240000Y-91000000D03*
X81700000Y-91000000D03*
D12*
X76500000Y-87500000D03*
D13*
X74000000Y-87500000D03*
D16*
X104525000Y-94000000D03*
D17*
X104525000Y-96500000D03*
X104525000Y-99000000D03*
D15*
X66500000Y-86000000D03*
X66500000Y-107000000D03*
D22*
X82175000Y-85000000D03*
X84000000Y-85000000D03*
D15*
X114500000Y-107000000D03*
D10*
X87500000Y-107475000D03*
X82500000Y-107475000D03*
D23*
X82137500Y-87500000D03*
X84212500Y-87500000D03*
D24*
X109040000Y-105300000D03*
X109040000Y-103475000D03*
D23*
X86500000Y-85000000D03*
X88575000Y-85000000D03*
M02*
