M48
; DRILL file {KiCad 9.0.2} date 2025-07-08T15:17:52+0800
; FORMAT={-:-/ absolute / metric / decimal}
; #@! TF.CreationDate,2025-07-08T15:17:52+08:00
; #@! TF.GenerationSoftware,Kicad,Pcbnew,9.0.2
; #@! TF.FileFunction,Plated,1,2,PTH
FMAT,2
METRIC
; #@! TA.AperFunction,Plated,PTH,ViaDrill
T1C0.300
; #@! TA.AperFunction,Plated,PTH,ViaDrill
T2C0.400
; #@! TA.AperFunction,Plated,PTH,ViaDrill
T3C0.500
; #@! TA.AperFunction,Plated,PTH,ComponentDrill
T4C0.800
; #@! TA.AperFunction,Plated,PTH,ComponentDrill
T5C0.950
; #@! TA.AperFunction,Plated,PTH,ComponentDrill
T6C1.000
; #@! TA.AperFunction,Plated,PTH,ComponentDrill
T7C1.100
; #@! TA.AperFunction,Plated,PTH,ComponentDrill
T8C1.700
%
G90
G05
T1
X108.152Y-122.968
X109.5Y-83.95
X112.5Y-80.847
X112.7Y-92.1
X113.0Y-111.4
X113.007Y-98.937
X114.984Y-84.0
X115.25Y-139.05
X115.7Y-119.4
X116.007Y-125.784
X116.2Y-114.2
X117.365Y-123.365
X117.416Y-84.007
X118.0Y-90.216
X118.007Y-87.784
X118.2Y-138.9
X118.2Y-141.6
X118.3Y-115.2
X118.5Y-79.5
X118.635Y-123.365
X119.3Y-118.4
X120.007Y-125.784
X121.03Y-90.216
X121.037Y-87.784
X121.6Y-103.5
X122.0Y-100.0
X122.0Y-107.0
X122.0Y-109.0
X122.0Y-110.5
X122.2Y-99.2
X122.45Y-84.85
X122.45Y-141.55
X122.9Y-101.8
X123.7Y-109.3
X123.7Y-110.4
X124.0Y-95.5
X124.0Y-96.5
X124.0Y-98.0
X124.0Y-99.0
X124.1Y-106.9
X124.1Y-108.1
X124.55Y-103.4
X124.7Y-114.5
X124.75Y-78.05
X125.0Y-98.0
X125.0Y-99.0
X125.075Y-117.3
X125.5Y-95.5
X125.5Y-96.5
X125.532Y-80.847
X125.8Y-116.6
X125.9Y-118.9
X126.473Y-115.9
X127.0Y-101.1
X127.1Y-121.5
X127.2Y-109.2
X127.2Y-110.4
X127.8Y-101.0
X128.0Y-95.5
X128.0Y-96.5
X128.125Y-103.649
X128.425Y-104.391
X128.425Y-102.456
X128.45Y-105.25
X128.5Y-83.95
X128.6Y-100.3
X128.975Y-119.375
X129.2Y-115.1
X129.3Y-101.7
X129.3Y-109.0
X129.3Y-123.7
X129.4Y-100.2
X129.401Y-106.046
X129.6Y-117.5
X129.829Y-109.729
X130.0Y-112.5
X130.1Y-105.0
X130.2Y-96.1
X130.2Y-101.1
X130.2Y-106.0
X130.9Y-100.2
X131.0Y-104.6
X131.0Y-106.0
X131.3Y-101.7
X131.5Y-112.5
X131.8Y-109.7
X131.95Y-105.0
X132.2Y-85.849
X132.6Y-119.3
X132.642Y-120.142
X132.7Y-110.6
X132.784Y-113.993
X133.0Y-108.8
X133.5Y-98.5
X134.0Y-112.5
X134.2Y-110.6
X134.6Y-108.8
X135.0Y-71.0
X135.3Y-122.0
X135.4Y-104.5
X135.6Y-125.15
X136.0Y-93.784
X138.5Y-121.9
X138.8Y-118.4
X139.0Y-111.0
X139.0Y-128.784
X140.8Y-101.2
X141.0Y-111.0
X141.9Y-73.9
X142.007Y-69.784
X142.2Y-101.8
X143.0Y-111.0
X143.6Y-120.2
X143.7Y-96.216
X144.0Y-71.0
X144.6Y-66.7
X145.0Y-98.6
X145.0Y-128.3
X145.6Y-60.0
X145.893Y-125.916
X145.907Y-113.484
X146.0Y-99.7
X146.6Y-128.3
X146.65Y-100.65
X147.0Y-61.784
X147.0Y-113.3
X147.0Y-117.2
X147.592Y-100.592
X147.6Y-122.0
X147.7Y-109.375
X148.2Y-70.9
X148.375Y-111.2
X148.4Y-107.0
X148.6Y-124.5
X149.0Y-106.0
X149.1Y-68.3
X149.2Y-66.2
X150.4Y-115.8
X150.6Y-97.5
X150.8Y-100.8
X150.9Y-74.2
X150.9Y-92.2
X151.0Y-80.8
X151.0Y-86.2
X151.0Y-99.4
X151.0Y-113.4
X151.5Y-116.7
X151.7Y-106.5
X152.0Y-102.1
X152.0Y-109.6
X152.8Y-120.0
X152.9Y-100.8
X153.1Y-99.2
X153.3Y-97.5
X153.375Y-119.3
X153.375Y-120.7
X153.6Y-108.2
X155.0Y-101.5
X155.3Y-97.5
X155.3Y-106.3
X155.4Y-100.5
X155.5Y-99.2
X158.1Y-115.2
X158.5Y-117.1
X158.7Y-109.4
X158.7Y-121.4
X159.0Y-128.784
X159.8Y-122.0
X160.0Y-81.0
X160.0Y-83.0
X160.0Y-85.0
X160.0Y-87.0
X160.0Y-89.0
X160.0Y-91.0
X160.0Y-93.0
X160.0Y-95.0
X160.1Y-124.7
X161.4Y-129.6
X162.5Y-120.2
X163.7Y-118.6
X163.9Y-129.7
X164.034Y-133.216
X164.5Y-119.6
X164.6Y-121.9
X164.7Y-117.5
X165.1Y-126.2
X166.0Y-141.3
X166.011Y-125.759
X166.024Y-113.328
X166.2Y-80.7
X166.8Y-143.216
X167.8Y-124.5
X167.9Y-122.0
X167.95Y-139.2
X168.0Y-77.316
X168.007Y-74.884
X168.5Y-113.9
X168.784Y-145.216
X169.3Y-139.216
X171.015Y-77.252
X172.5Y-93.0
X173.5Y-80.3
X173.5Y-94.0
X174.0Y-84.0
X174.5Y-55.0
X174.5Y-94.0
X175.0Y-121.225
X176.0Y-94.0
X178.0Y-94.0
X182.325Y-94.0
X182.325Y-97.4
X183.216Y-86.007
X187.0Y-88.5
X188.0Y-88.5
X188.0Y-99.5
X189.0Y-88.5
X189.234Y-113.032
X190.5Y-88.5
X190.5Y-99.5
X192.5Y-88.0
X194.0Y-88.5
X195.466Y-111.007
X195.5Y-88.5
X197.5Y-88.5
X197.5Y-99.5
X198.5Y-89.0
X198.5Y-90.0
X198.5Y-91.0
X198.5Y-92.5
X198.5Y-93.5
X198.5Y-94.5
X198.5Y-96.0
X198.5Y-97.0
X198.5Y-98.0
X198.5Y-99.5
T2
X123.0Y-67.8
T3
X131.8Y-83.8
X142.1Y-99.1
X150.0Y-65.0
X158.5Y-70.7
X158.5Y-77.4
T5
X104.0Y-63.0
X104.0Y-65.5
X104.0Y-68.0
X104.0Y-70.5
X104.0Y-96.0
X104.0Y-98.5
X104.0Y-101.0
X104.0Y-103.5
X115.0Y-63.0
X115.0Y-65.5
X115.0Y-68.0
X115.0Y-70.5
X117.0Y-146.0
X119.5Y-146.0
X122.0Y-146.0
X124.5Y-146.0
X156.0Y-54.0
X156.0Y-56.5
X156.0Y-59.0
X165.0Y-54.0
X165.0Y-56.5
X165.0Y-59.0
T6
X104.0Y-78.0
X104.0Y-80.5
X104.0Y-87.0
X104.0Y-89.5
X105.725Y-113.92
X105.725Y-116.46
X105.725Y-119.0
X108.265Y-113.92
X108.265Y-116.46
X108.265Y-119.0
X115.0Y-54.0
X115.0Y-56.5
X118.0Y-102.813
X118.0Y-107.893
X123.0Y-54.0
X123.0Y-56.5
X131.0Y-54.0
X131.0Y-56.5
X133.739Y-146.0
X136.239Y-146.0
X140.0Y-54.0
X140.0Y-56.5
X142.0Y-117.113
X142.0Y-122.193
X153.739Y-146.0
X156.239Y-146.0
X162.0Y-117.113
X162.0Y-122.193
X181.0Y-80.0
X193.0Y-105.0
T7
X104.75Y-128.75
X104.75Y-135.25
X109.25Y-128.75
X109.25Y-135.25
T8
X194.55Y-73.242
X194.55Y-77.203
T4
G00X183.4Y-80.0
M15
G01X184.6Y-80.0
M16
G05
G00X195.4Y-105.0
M15
G01X196.6Y-105.0
M16
G05
M30
