%TF.GenerationSoftware,KiCad,Pcbnew,8.0.2*%
%TF.CreationDate,2025-03-10T15:18:04+08:00*%
%TF.ProjectId,sensorboard_v10,73656e73-6f72-4626-9f61-72645f763130,rev?*%
%TF.SameCoordinates,Original*%
%TF.FileFunction,Legend,Bot*%
%TF.FilePolarity,Positive*%
%FSLAX46Y46*%
G04 Gerber Fmt 4.6, Leading zero omitted, Abs format (unit mm)*
G04 Created by KiCad (PCBNEW 8.0.2) date 2025-03-10 15:18:04*
%MOMM*%
%LPD*%
G01*
G04 APERTURE LIST*
%ADD10C,0.100000*%
%ADD11C,0.150000*%
%ADD12C,0.120000*%
G04 APERTURE END LIST*
D10*
X100000000Y-141300000D02*
X108700000Y-141300000D01*
X108700000Y-150000000D01*
X100000000Y-150000000D01*
X100000000Y-141300000D01*
G36*
X100000000Y-141300000D02*
G01*
X108700000Y-141300000D01*
X108700000Y-150000000D01*
X100000000Y-150000000D01*
X100000000Y-141300000D01*
G37*
X191300000Y-141300000D02*
X200000000Y-141300000D01*
X200000000Y-150000000D01*
X191300000Y-150000000D01*
X191300000Y-141300000D01*
G36*
X191300000Y-141300000D02*
G01*
X200000000Y-141300000D01*
X200000000Y-150000000D01*
X191300000Y-150000000D01*
X191300000Y-141300000D01*
G37*
X191300000Y-50000000D02*
X200000000Y-50000000D01*
X200000000Y-58700000D01*
X191300000Y-58700000D01*
X191300000Y-50000000D01*
G36*
X191300000Y-50000000D02*
G01*
X200000000Y-50000000D01*
X200000000Y-58700000D01*
X191300000Y-58700000D01*
X191300000Y-50000000D01*
G37*
X100000000Y-50000000D02*
X108700000Y-50000000D01*
X108700000Y-58700000D01*
X100000000Y-58700000D01*
X100000000Y-50000000D01*
G36*
X100000000Y-50000000D02*
G01*
X108700000Y-50000000D01*
X108700000Y-58700000D01*
X100000000Y-58700000D01*
X100000000Y-50000000D01*
G37*
D11*
X150292857Y-76790046D02*
X150340476Y-76837666D01*
X150340476Y-76837666D02*
X150483333Y-76885285D01*
X150483333Y-76885285D02*
X150578571Y-76885285D01*
X150578571Y-76885285D02*
X150721428Y-76837666D01*
X150721428Y-76837666D02*
X150816666Y-76742427D01*
X150816666Y-76742427D02*
X150864285Y-76647189D01*
X150864285Y-76647189D02*
X150911904Y-76456713D01*
X150911904Y-76456713D02*
X150911904Y-76313856D01*
X150911904Y-76313856D02*
X150864285Y-76123380D01*
X150864285Y-76123380D02*
X150816666Y-76028142D01*
X150816666Y-76028142D02*
X150721428Y-75932904D01*
X150721428Y-75932904D02*
X150578571Y-75885285D01*
X150578571Y-75885285D02*
X150483333Y-75885285D01*
X150483333Y-75885285D02*
X150340476Y-75932904D01*
X150340476Y-75932904D02*
X150292857Y-75980523D01*
X149340476Y-76885285D02*
X149911904Y-76885285D01*
X149626190Y-76885285D02*
X149626190Y-75885285D01*
X149626190Y-75885285D02*
X149721428Y-76028142D01*
X149721428Y-76028142D02*
X149816666Y-76123380D01*
X149816666Y-76123380D02*
X149911904Y-76170999D01*
X148435714Y-75885285D02*
X148911904Y-75885285D01*
X148911904Y-75885285D02*
X148959523Y-76361475D01*
X148959523Y-76361475D02*
X148911904Y-76313856D01*
X148911904Y-76313856D02*
X148816666Y-76266237D01*
X148816666Y-76266237D02*
X148578571Y-76266237D01*
X148578571Y-76266237D02*
X148483333Y-76313856D01*
X148483333Y-76313856D02*
X148435714Y-76361475D01*
X148435714Y-76361475D02*
X148388095Y-76456713D01*
X148388095Y-76456713D02*
X148388095Y-76694808D01*
X148388095Y-76694808D02*
X148435714Y-76790046D01*
X148435714Y-76790046D02*
X148483333Y-76837666D01*
X148483333Y-76837666D02*
X148578571Y-76885285D01*
X148578571Y-76885285D02*
X148816666Y-76885285D01*
X148816666Y-76885285D02*
X148911904Y-76837666D01*
X148911904Y-76837666D02*
X148959523Y-76790046D01*
X136642857Y-74073380D02*
X136690476Y-74121000D01*
X136690476Y-74121000D02*
X136833333Y-74168619D01*
X136833333Y-74168619D02*
X136928571Y-74168619D01*
X136928571Y-74168619D02*
X137071428Y-74121000D01*
X137071428Y-74121000D02*
X137166666Y-74025761D01*
X137166666Y-74025761D02*
X137214285Y-73930523D01*
X137214285Y-73930523D02*
X137261904Y-73740047D01*
X137261904Y-73740047D02*
X137261904Y-73597190D01*
X137261904Y-73597190D02*
X137214285Y-73406714D01*
X137214285Y-73406714D02*
X137166666Y-73311476D01*
X137166666Y-73311476D02*
X137071428Y-73216238D01*
X137071428Y-73216238D02*
X136928571Y-73168619D01*
X136928571Y-73168619D02*
X136833333Y-73168619D01*
X136833333Y-73168619D02*
X136690476Y-73216238D01*
X136690476Y-73216238D02*
X136642857Y-73263857D01*
X135690476Y-74168619D02*
X136261904Y-74168619D01*
X135976190Y-74168619D02*
X135976190Y-73168619D01*
X135976190Y-73168619D02*
X136071428Y-73311476D01*
X136071428Y-73311476D02*
X136166666Y-73406714D01*
X136166666Y-73406714D02*
X136261904Y-73454333D01*
X135357142Y-73168619D02*
X134738095Y-73168619D01*
X134738095Y-73168619D02*
X135071428Y-73549571D01*
X135071428Y-73549571D02*
X134928571Y-73549571D01*
X134928571Y-73549571D02*
X134833333Y-73597190D01*
X134833333Y-73597190D02*
X134785714Y-73644809D01*
X134785714Y-73644809D02*
X134738095Y-73740047D01*
X134738095Y-73740047D02*
X134738095Y-73978142D01*
X134738095Y-73978142D02*
X134785714Y-74073380D01*
X134785714Y-74073380D02*
X134833333Y-74121000D01*
X134833333Y-74121000D02*
X134928571Y-74168619D01*
X134928571Y-74168619D02*
X135214285Y-74168619D01*
X135214285Y-74168619D02*
X135309523Y-74121000D01*
X135309523Y-74121000D02*
X135357142Y-74073380D01*
X131790475Y-84312295D02*
X131790475Y-83512295D01*
X131790475Y-83512295D02*
X131599999Y-83512295D01*
X131599999Y-83512295D02*
X131485713Y-83550390D01*
X131485713Y-83550390D02*
X131409523Y-83626580D01*
X131409523Y-83626580D02*
X131371428Y-83702771D01*
X131371428Y-83702771D02*
X131333332Y-83855152D01*
X131333332Y-83855152D02*
X131333332Y-83969438D01*
X131333332Y-83969438D02*
X131371428Y-84121819D01*
X131371428Y-84121819D02*
X131409523Y-84198009D01*
X131409523Y-84198009D02*
X131485713Y-84274200D01*
X131485713Y-84274200D02*
X131599999Y-84312295D01*
X131599999Y-84312295D02*
X131790475Y-84312295D01*
X131066666Y-83512295D02*
X130571428Y-83512295D01*
X130571428Y-83512295D02*
X130838094Y-83817057D01*
X130838094Y-83817057D02*
X130723809Y-83817057D01*
X130723809Y-83817057D02*
X130647618Y-83855152D01*
X130647618Y-83855152D02*
X130609523Y-83893247D01*
X130609523Y-83893247D02*
X130571428Y-83969438D01*
X130571428Y-83969438D02*
X130571428Y-84159914D01*
X130571428Y-84159914D02*
X130609523Y-84236104D01*
X130609523Y-84236104D02*
X130647618Y-84274200D01*
X130647618Y-84274200D02*
X130723809Y-84312295D01*
X130723809Y-84312295D02*
X130952380Y-84312295D01*
X130952380Y-84312295D02*
X131028571Y-84274200D01*
X131028571Y-84274200D02*
X131066666Y-84236104D01*
X150292857Y-82973380D02*
X150340476Y-83021000D01*
X150340476Y-83021000D02*
X150483333Y-83068619D01*
X150483333Y-83068619D02*
X150578571Y-83068619D01*
X150578571Y-83068619D02*
X150721428Y-83021000D01*
X150721428Y-83021000D02*
X150816666Y-82925761D01*
X150816666Y-82925761D02*
X150864285Y-82830523D01*
X150864285Y-82830523D02*
X150911904Y-82640047D01*
X150911904Y-82640047D02*
X150911904Y-82497190D01*
X150911904Y-82497190D02*
X150864285Y-82306714D01*
X150864285Y-82306714D02*
X150816666Y-82211476D01*
X150816666Y-82211476D02*
X150721428Y-82116238D01*
X150721428Y-82116238D02*
X150578571Y-82068619D01*
X150578571Y-82068619D02*
X150483333Y-82068619D01*
X150483333Y-82068619D02*
X150340476Y-82116238D01*
X150340476Y-82116238D02*
X150292857Y-82163857D01*
X149911904Y-82163857D02*
X149864285Y-82116238D01*
X149864285Y-82116238D02*
X149769047Y-82068619D01*
X149769047Y-82068619D02*
X149530952Y-82068619D01*
X149530952Y-82068619D02*
X149435714Y-82116238D01*
X149435714Y-82116238D02*
X149388095Y-82163857D01*
X149388095Y-82163857D02*
X149340476Y-82259095D01*
X149340476Y-82259095D02*
X149340476Y-82354333D01*
X149340476Y-82354333D02*
X149388095Y-82497190D01*
X149388095Y-82497190D02*
X149959523Y-83068619D01*
X149959523Y-83068619D02*
X149340476Y-83068619D01*
X148483333Y-82401952D02*
X148483333Y-83068619D01*
X148721428Y-82021000D02*
X148959523Y-82735285D01*
X148959523Y-82735285D02*
X148340476Y-82735285D01*
X150342857Y-73923380D02*
X150390476Y-73971000D01*
X150390476Y-73971000D02*
X150533333Y-74018619D01*
X150533333Y-74018619D02*
X150628571Y-74018619D01*
X150628571Y-74018619D02*
X150771428Y-73971000D01*
X150771428Y-73971000D02*
X150866666Y-73875761D01*
X150866666Y-73875761D02*
X150914285Y-73780523D01*
X150914285Y-73780523D02*
X150961904Y-73590047D01*
X150961904Y-73590047D02*
X150961904Y-73447190D01*
X150961904Y-73447190D02*
X150914285Y-73256714D01*
X150914285Y-73256714D02*
X150866666Y-73161476D01*
X150866666Y-73161476D02*
X150771428Y-73066238D01*
X150771428Y-73066238D02*
X150628571Y-73018619D01*
X150628571Y-73018619D02*
X150533333Y-73018619D01*
X150533333Y-73018619D02*
X150390476Y-73066238D01*
X150390476Y-73066238D02*
X150342857Y-73113857D01*
X149390476Y-74018619D02*
X149961904Y-74018619D01*
X149676190Y-74018619D02*
X149676190Y-73018619D01*
X149676190Y-73018619D02*
X149771428Y-73161476D01*
X149771428Y-73161476D02*
X149866666Y-73256714D01*
X149866666Y-73256714D02*
X149961904Y-73304333D01*
X148533333Y-73351952D02*
X148533333Y-74018619D01*
X148771428Y-72971000D02*
X149009523Y-73685285D01*
X149009523Y-73685285D02*
X148390476Y-73685285D01*
X136542857Y-79806712D02*
X136590476Y-79854332D01*
X136590476Y-79854332D02*
X136733333Y-79901951D01*
X136733333Y-79901951D02*
X136828571Y-79901951D01*
X136828571Y-79901951D02*
X136971428Y-79854332D01*
X136971428Y-79854332D02*
X137066666Y-79759093D01*
X137066666Y-79759093D02*
X137114285Y-79663855D01*
X137114285Y-79663855D02*
X137161904Y-79473379D01*
X137161904Y-79473379D02*
X137161904Y-79330522D01*
X137161904Y-79330522D02*
X137114285Y-79140046D01*
X137114285Y-79140046D02*
X137066666Y-79044808D01*
X137066666Y-79044808D02*
X136971428Y-78949570D01*
X136971428Y-78949570D02*
X136828571Y-78901951D01*
X136828571Y-78901951D02*
X136733333Y-78901951D01*
X136733333Y-78901951D02*
X136590476Y-78949570D01*
X136590476Y-78949570D02*
X136542857Y-78997189D01*
X136161904Y-78997189D02*
X136114285Y-78949570D01*
X136114285Y-78949570D02*
X136019047Y-78901951D01*
X136019047Y-78901951D02*
X135780952Y-78901951D01*
X135780952Y-78901951D02*
X135685714Y-78949570D01*
X135685714Y-78949570D02*
X135638095Y-78997189D01*
X135638095Y-78997189D02*
X135590476Y-79092427D01*
X135590476Y-79092427D02*
X135590476Y-79187665D01*
X135590476Y-79187665D02*
X135638095Y-79330522D01*
X135638095Y-79330522D02*
X136209523Y-79901951D01*
X136209523Y-79901951D02*
X135590476Y-79901951D01*
X135209523Y-78997189D02*
X135161904Y-78949570D01*
X135161904Y-78949570D02*
X135066666Y-78901951D01*
X135066666Y-78901951D02*
X134828571Y-78901951D01*
X134828571Y-78901951D02*
X134733333Y-78949570D01*
X134733333Y-78949570D02*
X134685714Y-78997189D01*
X134685714Y-78997189D02*
X134638095Y-79092427D01*
X134638095Y-79092427D02*
X134638095Y-79187665D01*
X134638095Y-79187665D02*
X134685714Y-79330522D01*
X134685714Y-79330522D02*
X135257142Y-79901951D01*
X135257142Y-79901951D02*
X134638095Y-79901951D01*
X136642857Y-84073380D02*
X136690476Y-84121000D01*
X136690476Y-84121000D02*
X136833333Y-84168619D01*
X136833333Y-84168619D02*
X136928571Y-84168619D01*
X136928571Y-84168619D02*
X137071428Y-84121000D01*
X137071428Y-84121000D02*
X137166666Y-84025761D01*
X137166666Y-84025761D02*
X137214285Y-83930523D01*
X137214285Y-83930523D02*
X137261904Y-83740047D01*
X137261904Y-83740047D02*
X137261904Y-83597190D01*
X137261904Y-83597190D02*
X137214285Y-83406714D01*
X137214285Y-83406714D02*
X137166666Y-83311476D01*
X137166666Y-83311476D02*
X137071428Y-83216238D01*
X137071428Y-83216238D02*
X136928571Y-83168619D01*
X136928571Y-83168619D02*
X136833333Y-83168619D01*
X136833333Y-83168619D02*
X136690476Y-83216238D01*
X136690476Y-83216238D02*
X136642857Y-83263857D01*
X136261904Y-83263857D02*
X136214285Y-83216238D01*
X136214285Y-83216238D02*
X136119047Y-83168619D01*
X136119047Y-83168619D02*
X135880952Y-83168619D01*
X135880952Y-83168619D02*
X135785714Y-83216238D01*
X135785714Y-83216238D02*
X135738095Y-83263857D01*
X135738095Y-83263857D02*
X135690476Y-83359095D01*
X135690476Y-83359095D02*
X135690476Y-83454333D01*
X135690476Y-83454333D02*
X135738095Y-83597190D01*
X135738095Y-83597190D02*
X136309523Y-84168619D01*
X136309523Y-84168619D02*
X135690476Y-84168619D01*
X135357142Y-83168619D02*
X134738095Y-83168619D01*
X134738095Y-83168619D02*
X135071428Y-83549571D01*
X135071428Y-83549571D02*
X134928571Y-83549571D01*
X134928571Y-83549571D02*
X134833333Y-83597190D01*
X134833333Y-83597190D02*
X134785714Y-83644809D01*
X134785714Y-83644809D02*
X134738095Y-83740047D01*
X134738095Y-83740047D02*
X134738095Y-83978142D01*
X134738095Y-83978142D02*
X134785714Y-84073380D01*
X134785714Y-84073380D02*
X134833333Y-84121000D01*
X134833333Y-84121000D02*
X134928571Y-84168619D01*
X134928571Y-84168619D02*
X135214285Y-84168619D01*
X135214285Y-84168619D02*
X135309523Y-84121000D01*
X135309523Y-84121000D02*
X135357142Y-84073380D01*
X182992857Y-109004819D02*
X183326190Y-108528628D01*
X183564285Y-109004819D02*
X183564285Y-108004819D01*
X183564285Y-108004819D02*
X183183333Y-108004819D01*
X183183333Y-108004819D02*
X183088095Y-108052438D01*
X183088095Y-108052438D02*
X183040476Y-108100057D01*
X183040476Y-108100057D02*
X182992857Y-108195295D01*
X182992857Y-108195295D02*
X182992857Y-108338152D01*
X182992857Y-108338152D02*
X183040476Y-108433390D01*
X183040476Y-108433390D02*
X183088095Y-108481009D01*
X183088095Y-108481009D02*
X183183333Y-108528628D01*
X183183333Y-108528628D02*
X183564285Y-108528628D01*
X182040476Y-109004819D02*
X182611904Y-109004819D01*
X182326190Y-109004819D02*
X182326190Y-108004819D01*
X182326190Y-108004819D02*
X182421428Y-108147676D01*
X182421428Y-108147676D02*
X182516666Y-108242914D01*
X182516666Y-108242914D02*
X182611904Y-108290533D01*
X181564285Y-109004819D02*
X181373809Y-109004819D01*
X181373809Y-109004819D02*
X181278571Y-108957200D01*
X181278571Y-108957200D02*
X181230952Y-108909580D01*
X181230952Y-108909580D02*
X181135714Y-108766723D01*
X181135714Y-108766723D02*
X181088095Y-108576247D01*
X181088095Y-108576247D02*
X181088095Y-108195295D01*
X181088095Y-108195295D02*
X181135714Y-108100057D01*
X181135714Y-108100057D02*
X181183333Y-108052438D01*
X181183333Y-108052438D02*
X181278571Y-108004819D01*
X181278571Y-108004819D02*
X181469047Y-108004819D01*
X181469047Y-108004819D02*
X181564285Y-108052438D01*
X181564285Y-108052438D02*
X181611904Y-108100057D01*
X181611904Y-108100057D02*
X181659523Y-108195295D01*
X181659523Y-108195295D02*
X181659523Y-108433390D01*
X181659523Y-108433390D02*
X181611904Y-108528628D01*
X181611904Y-108528628D02*
X181564285Y-108576247D01*
X181564285Y-108576247D02*
X181469047Y-108623866D01*
X181469047Y-108623866D02*
X181278571Y-108623866D01*
X181278571Y-108623866D02*
X181183333Y-108576247D01*
X181183333Y-108576247D02*
X181135714Y-108528628D01*
X181135714Y-108528628D02*
X181088095Y-108433390D01*
X159242857Y-75486480D02*
X159290476Y-75534100D01*
X159290476Y-75534100D02*
X159433333Y-75581719D01*
X159433333Y-75581719D02*
X159528571Y-75581719D01*
X159528571Y-75581719D02*
X159671428Y-75534100D01*
X159671428Y-75534100D02*
X159766666Y-75438861D01*
X159766666Y-75438861D02*
X159814285Y-75343623D01*
X159814285Y-75343623D02*
X159861904Y-75153147D01*
X159861904Y-75153147D02*
X159861904Y-75010290D01*
X159861904Y-75010290D02*
X159814285Y-74819814D01*
X159814285Y-74819814D02*
X159766666Y-74724576D01*
X159766666Y-74724576D02*
X159671428Y-74629338D01*
X159671428Y-74629338D02*
X159528571Y-74581719D01*
X159528571Y-74581719D02*
X159433333Y-74581719D01*
X159433333Y-74581719D02*
X159290476Y-74629338D01*
X159290476Y-74629338D02*
X159242857Y-74676957D01*
X158861904Y-74676957D02*
X158814285Y-74629338D01*
X158814285Y-74629338D02*
X158719047Y-74581719D01*
X158719047Y-74581719D02*
X158480952Y-74581719D01*
X158480952Y-74581719D02*
X158385714Y-74629338D01*
X158385714Y-74629338D02*
X158338095Y-74676957D01*
X158338095Y-74676957D02*
X158290476Y-74772195D01*
X158290476Y-74772195D02*
X158290476Y-74867433D01*
X158290476Y-74867433D02*
X158338095Y-75010290D01*
X158338095Y-75010290D02*
X158909523Y-75581719D01*
X158909523Y-75581719D02*
X158290476Y-75581719D01*
X157814285Y-75581719D02*
X157623809Y-75581719D01*
X157623809Y-75581719D02*
X157528571Y-75534100D01*
X157528571Y-75534100D02*
X157480952Y-75486480D01*
X157480952Y-75486480D02*
X157385714Y-75343623D01*
X157385714Y-75343623D02*
X157338095Y-75153147D01*
X157338095Y-75153147D02*
X157338095Y-74772195D01*
X157338095Y-74772195D02*
X157385714Y-74676957D01*
X157385714Y-74676957D02*
X157433333Y-74629338D01*
X157433333Y-74629338D02*
X157528571Y-74581719D01*
X157528571Y-74581719D02*
X157719047Y-74581719D01*
X157719047Y-74581719D02*
X157814285Y-74629338D01*
X157814285Y-74629338D02*
X157861904Y-74676957D01*
X157861904Y-74676957D02*
X157909523Y-74772195D01*
X157909523Y-74772195D02*
X157909523Y-75010290D01*
X157909523Y-75010290D02*
X157861904Y-75105528D01*
X157861904Y-75105528D02*
X157814285Y-75153147D01*
X157814285Y-75153147D02*
X157719047Y-75200766D01*
X157719047Y-75200766D02*
X157528571Y-75200766D01*
X157528571Y-75200766D02*
X157433333Y-75153147D01*
X157433333Y-75153147D02*
X157385714Y-75105528D01*
X157385714Y-75105528D02*
X157338095Y-75010290D01*
X112842857Y-111234819D02*
X113176190Y-110758628D01*
X113414285Y-111234819D02*
X113414285Y-110234819D01*
X113414285Y-110234819D02*
X113033333Y-110234819D01*
X113033333Y-110234819D02*
X112938095Y-110282438D01*
X112938095Y-110282438D02*
X112890476Y-110330057D01*
X112890476Y-110330057D02*
X112842857Y-110425295D01*
X112842857Y-110425295D02*
X112842857Y-110568152D01*
X112842857Y-110568152D02*
X112890476Y-110663390D01*
X112890476Y-110663390D02*
X112938095Y-110711009D01*
X112938095Y-110711009D02*
X113033333Y-110758628D01*
X113033333Y-110758628D02*
X113414285Y-110758628D01*
X112461904Y-110330057D02*
X112414285Y-110282438D01*
X112414285Y-110282438D02*
X112319047Y-110234819D01*
X112319047Y-110234819D02*
X112080952Y-110234819D01*
X112080952Y-110234819D02*
X111985714Y-110282438D01*
X111985714Y-110282438D02*
X111938095Y-110330057D01*
X111938095Y-110330057D02*
X111890476Y-110425295D01*
X111890476Y-110425295D02*
X111890476Y-110520533D01*
X111890476Y-110520533D02*
X111938095Y-110663390D01*
X111938095Y-110663390D02*
X112509523Y-111234819D01*
X112509523Y-111234819D02*
X111890476Y-111234819D01*
X110985714Y-110234819D02*
X111461904Y-110234819D01*
X111461904Y-110234819D02*
X111509523Y-110711009D01*
X111509523Y-110711009D02*
X111461904Y-110663390D01*
X111461904Y-110663390D02*
X111366666Y-110615771D01*
X111366666Y-110615771D02*
X111128571Y-110615771D01*
X111128571Y-110615771D02*
X111033333Y-110663390D01*
X111033333Y-110663390D02*
X110985714Y-110711009D01*
X110985714Y-110711009D02*
X110938095Y-110806247D01*
X110938095Y-110806247D02*
X110938095Y-111044342D01*
X110938095Y-111044342D02*
X110985714Y-111139580D01*
X110985714Y-111139580D02*
X111033333Y-111187200D01*
X111033333Y-111187200D02*
X111128571Y-111234819D01*
X111128571Y-111234819D02*
X111366666Y-111234819D01*
X111366666Y-111234819D02*
X111461904Y-111187200D01*
X111461904Y-111187200D02*
X111509523Y-111139580D01*
X173492857Y-87759580D02*
X173540476Y-87807200D01*
X173540476Y-87807200D02*
X173683333Y-87854819D01*
X173683333Y-87854819D02*
X173778571Y-87854819D01*
X173778571Y-87854819D02*
X173921428Y-87807200D01*
X173921428Y-87807200D02*
X174016666Y-87711961D01*
X174016666Y-87711961D02*
X174064285Y-87616723D01*
X174064285Y-87616723D02*
X174111904Y-87426247D01*
X174111904Y-87426247D02*
X174111904Y-87283390D01*
X174111904Y-87283390D02*
X174064285Y-87092914D01*
X174064285Y-87092914D02*
X174016666Y-86997676D01*
X174016666Y-86997676D02*
X173921428Y-86902438D01*
X173921428Y-86902438D02*
X173778571Y-86854819D01*
X173778571Y-86854819D02*
X173683333Y-86854819D01*
X173683333Y-86854819D02*
X173540476Y-86902438D01*
X173540476Y-86902438D02*
X173492857Y-86950057D01*
X173159523Y-86854819D02*
X172540476Y-86854819D01*
X172540476Y-86854819D02*
X172873809Y-87235771D01*
X172873809Y-87235771D02*
X172730952Y-87235771D01*
X172730952Y-87235771D02*
X172635714Y-87283390D01*
X172635714Y-87283390D02*
X172588095Y-87331009D01*
X172588095Y-87331009D02*
X172540476Y-87426247D01*
X172540476Y-87426247D02*
X172540476Y-87664342D01*
X172540476Y-87664342D02*
X172588095Y-87759580D01*
X172588095Y-87759580D02*
X172635714Y-87807200D01*
X172635714Y-87807200D02*
X172730952Y-87854819D01*
X172730952Y-87854819D02*
X173016666Y-87854819D01*
X173016666Y-87854819D02*
X173111904Y-87807200D01*
X173111904Y-87807200D02*
X173159523Y-87759580D01*
X171683333Y-86854819D02*
X171873809Y-86854819D01*
X171873809Y-86854819D02*
X171969047Y-86902438D01*
X171969047Y-86902438D02*
X172016666Y-86950057D01*
X172016666Y-86950057D02*
X172111904Y-87092914D01*
X172111904Y-87092914D02*
X172159523Y-87283390D01*
X172159523Y-87283390D02*
X172159523Y-87664342D01*
X172159523Y-87664342D02*
X172111904Y-87759580D01*
X172111904Y-87759580D02*
X172064285Y-87807200D01*
X172064285Y-87807200D02*
X171969047Y-87854819D01*
X171969047Y-87854819D02*
X171778571Y-87854819D01*
X171778571Y-87854819D02*
X171683333Y-87807200D01*
X171683333Y-87807200D02*
X171635714Y-87759580D01*
X171635714Y-87759580D02*
X171588095Y-87664342D01*
X171588095Y-87664342D02*
X171588095Y-87426247D01*
X171588095Y-87426247D02*
X171635714Y-87331009D01*
X171635714Y-87331009D02*
X171683333Y-87283390D01*
X171683333Y-87283390D02*
X171778571Y-87235771D01*
X171778571Y-87235771D02*
X171969047Y-87235771D01*
X171969047Y-87235771D02*
X172064285Y-87283390D01*
X172064285Y-87283390D02*
X172111904Y-87331009D01*
X172111904Y-87331009D02*
X172159523Y-87426247D01*
X111766666Y-78904819D02*
X112099999Y-78428628D01*
X112338094Y-78904819D02*
X112338094Y-77904819D01*
X112338094Y-77904819D02*
X111957142Y-77904819D01*
X111957142Y-77904819D02*
X111861904Y-77952438D01*
X111861904Y-77952438D02*
X111814285Y-78000057D01*
X111814285Y-78000057D02*
X111766666Y-78095295D01*
X111766666Y-78095295D02*
X111766666Y-78238152D01*
X111766666Y-78238152D02*
X111814285Y-78333390D01*
X111814285Y-78333390D02*
X111861904Y-78381009D01*
X111861904Y-78381009D02*
X111957142Y-78428628D01*
X111957142Y-78428628D02*
X112338094Y-78428628D01*
X111385713Y-78000057D02*
X111338094Y-77952438D01*
X111338094Y-77952438D02*
X111242856Y-77904819D01*
X111242856Y-77904819D02*
X111004761Y-77904819D01*
X111004761Y-77904819D02*
X110909523Y-77952438D01*
X110909523Y-77952438D02*
X110861904Y-78000057D01*
X110861904Y-78000057D02*
X110814285Y-78095295D01*
X110814285Y-78095295D02*
X110814285Y-78190533D01*
X110814285Y-78190533D02*
X110861904Y-78333390D01*
X110861904Y-78333390D02*
X111433332Y-78904819D01*
X111433332Y-78904819D02*
X110814285Y-78904819D01*
X184766666Y-73704819D02*
X185099999Y-73228628D01*
X185338094Y-73704819D02*
X185338094Y-72704819D01*
X185338094Y-72704819D02*
X184957142Y-72704819D01*
X184957142Y-72704819D02*
X184861904Y-72752438D01*
X184861904Y-72752438D02*
X184814285Y-72800057D01*
X184814285Y-72800057D02*
X184766666Y-72895295D01*
X184766666Y-72895295D02*
X184766666Y-73038152D01*
X184766666Y-73038152D02*
X184814285Y-73133390D01*
X184814285Y-73133390D02*
X184861904Y-73181009D01*
X184861904Y-73181009D02*
X184957142Y-73228628D01*
X184957142Y-73228628D02*
X185338094Y-73228628D01*
X183861904Y-72704819D02*
X184338094Y-72704819D01*
X184338094Y-72704819D02*
X184385713Y-73181009D01*
X184385713Y-73181009D02*
X184338094Y-73133390D01*
X184338094Y-73133390D02*
X184242856Y-73085771D01*
X184242856Y-73085771D02*
X184004761Y-73085771D01*
X184004761Y-73085771D02*
X183909523Y-73133390D01*
X183909523Y-73133390D02*
X183861904Y-73181009D01*
X183861904Y-73181009D02*
X183814285Y-73276247D01*
X183814285Y-73276247D02*
X183814285Y-73514342D01*
X183814285Y-73514342D02*
X183861904Y-73609580D01*
X183861904Y-73609580D02*
X183909523Y-73657200D01*
X183909523Y-73657200D02*
X184004761Y-73704819D01*
X184004761Y-73704819D02*
X184242856Y-73704819D01*
X184242856Y-73704819D02*
X184338094Y-73657200D01*
X184338094Y-73657200D02*
X184385713Y-73609580D01*
X112842857Y-104034819D02*
X113176190Y-103558628D01*
X113414285Y-104034819D02*
X113414285Y-103034819D01*
X113414285Y-103034819D02*
X113033333Y-103034819D01*
X113033333Y-103034819D02*
X112938095Y-103082438D01*
X112938095Y-103082438D02*
X112890476Y-103130057D01*
X112890476Y-103130057D02*
X112842857Y-103225295D01*
X112842857Y-103225295D02*
X112842857Y-103368152D01*
X112842857Y-103368152D02*
X112890476Y-103463390D01*
X112890476Y-103463390D02*
X112938095Y-103511009D01*
X112938095Y-103511009D02*
X113033333Y-103558628D01*
X113033333Y-103558628D02*
X113414285Y-103558628D01*
X112461904Y-103130057D02*
X112414285Y-103082438D01*
X112414285Y-103082438D02*
X112319047Y-103034819D01*
X112319047Y-103034819D02*
X112080952Y-103034819D01*
X112080952Y-103034819D02*
X111985714Y-103082438D01*
X111985714Y-103082438D02*
X111938095Y-103130057D01*
X111938095Y-103130057D02*
X111890476Y-103225295D01*
X111890476Y-103225295D02*
X111890476Y-103320533D01*
X111890476Y-103320533D02*
X111938095Y-103463390D01*
X111938095Y-103463390D02*
X112509523Y-104034819D01*
X112509523Y-104034819D02*
X111890476Y-104034819D01*
X111033333Y-103368152D02*
X111033333Y-104034819D01*
X111271428Y-102987200D02*
X111509523Y-103701485D01*
X111509523Y-103701485D02*
X110890476Y-103701485D01*
X112842857Y-118234819D02*
X113176190Y-117758628D01*
X113414285Y-118234819D02*
X113414285Y-117234819D01*
X113414285Y-117234819D02*
X113033333Y-117234819D01*
X113033333Y-117234819D02*
X112938095Y-117282438D01*
X112938095Y-117282438D02*
X112890476Y-117330057D01*
X112890476Y-117330057D02*
X112842857Y-117425295D01*
X112842857Y-117425295D02*
X112842857Y-117568152D01*
X112842857Y-117568152D02*
X112890476Y-117663390D01*
X112890476Y-117663390D02*
X112938095Y-117711009D01*
X112938095Y-117711009D02*
X113033333Y-117758628D01*
X113033333Y-117758628D02*
X113414285Y-117758628D01*
X112461904Y-117330057D02*
X112414285Y-117282438D01*
X112414285Y-117282438D02*
X112319047Y-117234819D01*
X112319047Y-117234819D02*
X112080952Y-117234819D01*
X112080952Y-117234819D02*
X111985714Y-117282438D01*
X111985714Y-117282438D02*
X111938095Y-117330057D01*
X111938095Y-117330057D02*
X111890476Y-117425295D01*
X111890476Y-117425295D02*
X111890476Y-117520533D01*
X111890476Y-117520533D02*
X111938095Y-117663390D01*
X111938095Y-117663390D02*
X112509523Y-118234819D01*
X112509523Y-118234819D02*
X111890476Y-118234819D01*
X111033333Y-117234819D02*
X111223809Y-117234819D01*
X111223809Y-117234819D02*
X111319047Y-117282438D01*
X111319047Y-117282438D02*
X111366666Y-117330057D01*
X111366666Y-117330057D02*
X111461904Y-117472914D01*
X111461904Y-117472914D02*
X111509523Y-117663390D01*
X111509523Y-117663390D02*
X111509523Y-118044342D01*
X111509523Y-118044342D02*
X111461904Y-118139580D01*
X111461904Y-118139580D02*
X111414285Y-118187200D01*
X111414285Y-118187200D02*
X111319047Y-118234819D01*
X111319047Y-118234819D02*
X111128571Y-118234819D01*
X111128571Y-118234819D02*
X111033333Y-118187200D01*
X111033333Y-118187200D02*
X110985714Y-118139580D01*
X110985714Y-118139580D02*
X110938095Y-118044342D01*
X110938095Y-118044342D02*
X110938095Y-117806247D01*
X110938095Y-117806247D02*
X110985714Y-117711009D01*
X110985714Y-117711009D02*
X111033333Y-117663390D01*
X111033333Y-117663390D02*
X111128571Y-117615771D01*
X111128571Y-117615771D02*
X111319047Y-117615771D01*
X111319047Y-117615771D02*
X111414285Y-117663390D01*
X111414285Y-117663390D02*
X111461904Y-117711009D01*
X111461904Y-117711009D02*
X111509523Y-117806247D01*
X195792857Y-75354819D02*
X196126190Y-74878628D01*
X196364285Y-75354819D02*
X196364285Y-74354819D01*
X196364285Y-74354819D02*
X195983333Y-74354819D01*
X195983333Y-74354819D02*
X195888095Y-74402438D01*
X195888095Y-74402438D02*
X195840476Y-74450057D01*
X195840476Y-74450057D02*
X195792857Y-74545295D01*
X195792857Y-74545295D02*
X195792857Y-74688152D01*
X195792857Y-74688152D02*
X195840476Y-74783390D01*
X195840476Y-74783390D02*
X195888095Y-74831009D01*
X195888095Y-74831009D02*
X195983333Y-74878628D01*
X195983333Y-74878628D02*
X196364285Y-74878628D01*
X194935714Y-74688152D02*
X194935714Y-75354819D01*
X195173809Y-74307200D02*
X195411904Y-75021485D01*
X195411904Y-75021485D02*
X194792857Y-75021485D01*
X193888095Y-75354819D02*
X194459523Y-75354819D01*
X194173809Y-75354819D02*
X194173809Y-74354819D01*
X194173809Y-74354819D02*
X194269047Y-74497676D01*
X194269047Y-74497676D02*
X194364285Y-74592914D01*
X194364285Y-74592914D02*
X194459523Y-74640533D01*
X135359580Y-65857142D02*
X135407200Y-65809523D01*
X135407200Y-65809523D02*
X135454819Y-65666666D01*
X135454819Y-65666666D02*
X135454819Y-65571428D01*
X135454819Y-65571428D02*
X135407200Y-65428571D01*
X135407200Y-65428571D02*
X135311961Y-65333333D01*
X135311961Y-65333333D02*
X135216723Y-65285714D01*
X135216723Y-65285714D02*
X135026247Y-65238095D01*
X135026247Y-65238095D02*
X134883390Y-65238095D01*
X134883390Y-65238095D02*
X134692914Y-65285714D01*
X134692914Y-65285714D02*
X134597676Y-65333333D01*
X134597676Y-65333333D02*
X134502438Y-65428571D01*
X134502438Y-65428571D02*
X134454819Y-65571428D01*
X134454819Y-65571428D02*
X134454819Y-65666666D01*
X134454819Y-65666666D02*
X134502438Y-65809523D01*
X134502438Y-65809523D02*
X134550057Y-65857142D01*
X135454819Y-66809523D02*
X135454819Y-66238095D01*
X135454819Y-66523809D02*
X134454819Y-66523809D01*
X134454819Y-66523809D02*
X134597676Y-66428571D01*
X134597676Y-66428571D02*
X134692914Y-66333333D01*
X134692914Y-66333333D02*
X134740533Y-66238095D01*
X134550057Y-67190476D02*
X134502438Y-67238095D01*
X134502438Y-67238095D02*
X134454819Y-67333333D01*
X134454819Y-67333333D02*
X134454819Y-67571428D01*
X134454819Y-67571428D02*
X134502438Y-67666666D01*
X134502438Y-67666666D02*
X134550057Y-67714285D01*
X134550057Y-67714285D02*
X134645295Y-67761904D01*
X134645295Y-67761904D02*
X134740533Y-67761904D01*
X134740533Y-67761904D02*
X134883390Y-67714285D01*
X134883390Y-67714285D02*
X135454819Y-67142857D01*
X135454819Y-67142857D02*
X135454819Y-67761904D01*
X192654819Y-59757142D02*
X192178628Y-59423809D01*
X192654819Y-59185714D02*
X191654819Y-59185714D01*
X191654819Y-59185714D02*
X191654819Y-59566666D01*
X191654819Y-59566666D02*
X191702438Y-59661904D01*
X191702438Y-59661904D02*
X191750057Y-59709523D01*
X191750057Y-59709523D02*
X191845295Y-59757142D01*
X191845295Y-59757142D02*
X191988152Y-59757142D01*
X191988152Y-59757142D02*
X192083390Y-59709523D01*
X192083390Y-59709523D02*
X192131009Y-59661904D01*
X192131009Y-59661904D02*
X192178628Y-59566666D01*
X192178628Y-59566666D02*
X192178628Y-59185714D01*
X191988152Y-60614285D02*
X192654819Y-60614285D01*
X191607200Y-60376190D02*
X192321485Y-60138095D01*
X192321485Y-60138095D02*
X192321485Y-60757142D01*
X191750057Y-61090476D02*
X191702438Y-61138095D01*
X191702438Y-61138095D02*
X191654819Y-61233333D01*
X191654819Y-61233333D02*
X191654819Y-61471428D01*
X191654819Y-61471428D02*
X191702438Y-61566666D01*
X191702438Y-61566666D02*
X191750057Y-61614285D01*
X191750057Y-61614285D02*
X191845295Y-61661904D01*
X191845295Y-61661904D02*
X191940533Y-61661904D01*
X191940533Y-61661904D02*
X192083390Y-61614285D01*
X192083390Y-61614285D02*
X192654819Y-61042857D01*
X192654819Y-61042857D02*
X192654819Y-61661904D01*
X111916666Y-81104819D02*
X112249999Y-80628628D01*
X112488094Y-81104819D02*
X112488094Y-80104819D01*
X112488094Y-80104819D02*
X112107142Y-80104819D01*
X112107142Y-80104819D02*
X112011904Y-80152438D01*
X112011904Y-80152438D02*
X111964285Y-80200057D01*
X111964285Y-80200057D02*
X111916666Y-80295295D01*
X111916666Y-80295295D02*
X111916666Y-80438152D01*
X111916666Y-80438152D02*
X111964285Y-80533390D01*
X111964285Y-80533390D02*
X112011904Y-80581009D01*
X112011904Y-80581009D02*
X112107142Y-80628628D01*
X112107142Y-80628628D02*
X112488094Y-80628628D01*
X111583332Y-80104819D02*
X110964285Y-80104819D01*
X110964285Y-80104819D02*
X111297618Y-80485771D01*
X111297618Y-80485771D02*
X111154761Y-80485771D01*
X111154761Y-80485771D02*
X111059523Y-80533390D01*
X111059523Y-80533390D02*
X111011904Y-80581009D01*
X111011904Y-80581009D02*
X110964285Y-80676247D01*
X110964285Y-80676247D02*
X110964285Y-80914342D01*
X110964285Y-80914342D02*
X111011904Y-81009580D01*
X111011904Y-81009580D02*
X111059523Y-81057200D01*
X111059523Y-81057200D02*
X111154761Y-81104819D01*
X111154761Y-81104819D02*
X111440475Y-81104819D01*
X111440475Y-81104819D02*
X111535713Y-81057200D01*
X111535713Y-81057200D02*
X111583332Y-81009580D01*
X176679580Y-58833333D02*
X176727200Y-58785714D01*
X176727200Y-58785714D02*
X176774819Y-58642857D01*
X176774819Y-58642857D02*
X176774819Y-58547619D01*
X176774819Y-58547619D02*
X176727200Y-58404762D01*
X176727200Y-58404762D02*
X176631961Y-58309524D01*
X176631961Y-58309524D02*
X176536723Y-58261905D01*
X176536723Y-58261905D02*
X176346247Y-58214286D01*
X176346247Y-58214286D02*
X176203390Y-58214286D01*
X176203390Y-58214286D02*
X176012914Y-58261905D01*
X176012914Y-58261905D02*
X175917676Y-58309524D01*
X175917676Y-58309524D02*
X175822438Y-58404762D01*
X175822438Y-58404762D02*
X175774819Y-58547619D01*
X175774819Y-58547619D02*
X175774819Y-58642857D01*
X175774819Y-58642857D02*
X175822438Y-58785714D01*
X175822438Y-58785714D02*
X175870057Y-58833333D01*
X175774819Y-59166667D02*
X175774819Y-59785714D01*
X175774819Y-59785714D02*
X176155771Y-59452381D01*
X176155771Y-59452381D02*
X176155771Y-59595238D01*
X176155771Y-59595238D02*
X176203390Y-59690476D01*
X176203390Y-59690476D02*
X176251009Y-59738095D01*
X176251009Y-59738095D02*
X176346247Y-59785714D01*
X176346247Y-59785714D02*
X176584342Y-59785714D01*
X176584342Y-59785714D02*
X176679580Y-59738095D01*
X176679580Y-59738095D02*
X176727200Y-59690476D01*
X176727200Y-59690476D02*
X176774819Y-59595238D01*
X176774819Y-59595238D02*
X176774819Y-59309524D01*
X176774819Y-59309524D02*
X176727200Y-59214286D01*
X176727200Y-59214286D02*
X176679580Y-59166667D01*
X190661904Y-55504819D02*
X190661904Y-56314342D01*
X190661904Y-56314342D02*
X190614285Y-56409580D01*
X190614285Y-56409580D02*
X190566666Y-56457200D01*
X190566666Y-56457200D02*
X190471428Y-56504819D01*
X190471428Y-56504819D02*
X190280952Y-56504819D01*
X190280952Y-56504819D02*
X190185714Y-56457200D01*
X190185714Y-56457200D02*
X190138095Y-56409580D01*
X190138095Y-56409580D02*
X190090476Y-56314342D01*
X190090476Y-56314342D02*
X190090476Y-55504819D01*
X189661904Y-55600057D02*
X189614285Y-55552438D01*
X189614285Y-55552438D02*
X189519047Y-55504819D01*
X189519047Y-55504819D02*
X189280952Y-55504819D01*
X189280952Y-55504819D02*
X189185714Y-55552438D01*
X189185714Y-55552438D02*
X189138095Y-55600057D01*
X189138095Y-55600057D02*
X189090476Y-55695295D01*
X189090476Y-55695295D02*
X189090476Y-55790533D01*
X189090476Y-55790533D02*
X189138095Y-55933390D01*
X189138095Y-55933390D02*
X189709523Y-56504819D01*
X189709523Y-56504819D02*
X189090476Y-56504819D01*
X112742857Y-83259580D02*
X112790476Y-83307200D01*
X112790476Y-83307200D02*
X112933333Y-83354819D01*
X112933333Y-83354819D02*
X113028571Y-83354819D01*
X113028571Y-83354819D02*
X113171428Y-83307200D01*
X113171428Y-83307200D02*
X113266666Y-83211961D01*
X113266666Y-83211961D02*
X113314285Y-83116723D01*
X113314285Y-83116723D02*
X113361904Y-82926247D01*
X113361904Y-82926247D02*
X113361904Y-82783390D01*
X113361904Y-82783390D02*
X113314285Y-82592914D01*
X113314285Y-82592914D02*
X113266666Y-82497676D01*
X113266666Y-82497676D02*
X113171428Y-82402438D01*
X113171428Y-82402438D02*
X113028571Y-82354819D01*
X113028571Y-82354819D02*
X112933333Y-82354819D01*
X112933333Y-82354819D02*
X112790476Y-82402438D01*
X112790476Y-82402438D02*
X112742857Y-82450057D01*
X112409523Y-82354819D02*
X111790476Y-82354819D01*
X111790476Y-82354819D02*
X112123809Y-82735771D01*
X112123809Y-82735771D02*
X111980952Y-82735771D01*
X111980952Y-82735771D02*
X111885714Y-82783390D01*
X111885714Y-82783390D02*
X111838095Y-82831009D01*
X111838095Y-82831009D02*
X111790476Y-82926247D01*
X111790476Y-82926247D02*
X111790476Y-83164342D01*
X111790476Y-83164342D02*
X111838095Y-83259580D01*
X111838095Y-83259580D02*
X111885714Y-83307200D01*
X111885714Y-83307200D02*
X111980952Y-83354819D01*
X111980952Y-83354819D02*
X112266666Y-83354819D01*
X112266666Y-83354819D02*
X112361904Y-83307200D01*
X112361904Y-83307200D02*
X112409523Y-83259580D01*
X111219047Y-82783390D02*
X111314285Y-82735771D01*
X111314285Y-82735771D02*
X111361904Y-82688152D01*
X111361904Y-82688152D02*
X111409523Y-82592914D01*
X111409523Y-82592914D02*
X111409523Y-82545295D01*
X111409523Y-82545295D02*
X111361904Y-82450057D01*
X111361904Y-82450057D02*
X111314285Y-82402438D01*
X111314285Y-82402438D02*
X111219047Y-82354819D01*
X111219047Y-82354819D02*
X111028571Y-82354819D01*
X111028571Y-82354819D02*
X110933333Y-82402438D01*
X110933333Y-82402438D02*
X110885714Y-82450057D01*
X110885714Y-82450057D02*
X110838095Y-82545295D01*
X110838095Y-82545295D02*
X110838095Y-82592914D01*
X110838095Y-82592914D02*
X110885714Y-82688152D01*
X110885714Y-82688152D02*
X110933333Y-82735771D01*
X110933333Y-82735771D02*
X111028571Y-82783390D01*
X111028571Y-82783390D02*
X111219047Y-82783390D01*
X111219047Y-82783390D02*
X111314285Y-82831009D01*
X111314285Y-82831009D02*
X111361904Y-82878628D01*
X111361904Y-82878628D02*
X111409523Y-82973866D01*
X111409523Y-82973866D02*
X111409523Y-83164342D01*
X111409523Y-83164342D02*
X111361904Y-83259580D01*
X111361904Y-83259580D02*
X111314285Y-83307200D01*
X111314285Y-83307200D02*
X111219047Y-83354819D01*
X111219047Y-83354819D02*
X111028571Y-83354819D01*
X111028571Y-83354819D02*
X110933333Y-83307200D01*
X110933333Y-83307200D02*
X110885714Y-83259580D01*
X110885714Y-83259580D02*
X110838095Y-83164342D01*
X110838095Y-83164342D02*
X110838095Y-82973866D01*
X110838095Y-82973866D02*
X110885714Y-82878628D01*
X110885714Y-82878628D02*
X110933333Y-82831009D01*
X110933333Y-82831009D02*
X111028571Y-82783390D01*
X162759580Y-58783333D02*
X162807200Y-58735714D01*
X162807200Y-58735714D02*
X162854819Y-58592857D01*
X162854819Y-58592857D02*
X162854819Y-58497619D01*
X162854819Y-58497619D02*
X162807200Y-58354762D01*
X162807200Y-58354762D02*
X162711961Y-58259524D01*
X162711961Y-58259524D02*
X162616723Y-58211905D01*
X162616723Y-58211905D02*
X162426247Y-58164286D01*
X162426247Y-58164286D02*
X162283390Y-58164286D01*
X162283390Y-58164286D02*
X162092914Y-58211905D01*
X162092914Y-58211905D02*
X161997676Y-58259524D01*
X161997676Y-58259524D02*
X161902438Y-58354762D01*
X161902438Y-58354762D02*
X161854819Y-58497619D01*
X161854819Y-58497619D02*
X161854819Y-58592857D01*
X161854819Y-58592857D02*
X161902438Y-58735714D01*
X161902438Y-58735714D02*
X161950057Y-58783333D01*
X162854819Y-59735714D02*
X162854819Y-59164286D01*
X162854819Y-59450000D02*
X161854819Y-59450000D01*
X161854819Y-59450000D02*
X161997676Y-59354762D01*
X161997676Y-59354762D02*
X162092914Y-59259524D01*
X162092914Y-59259524D02*
X162140533Y-59164286D01*
X192645238Y-69550057D02*
X192740476Y-69502438D01*
X192740476Y-69502438D02*
X192835714Y-69407200D01*
X192835714Y-69407200D02*
X192978571Y-69264342D01*
X192978571Y-69264342D02*
X193073809Y-69216723D01*
X193073809Y-69216723D02*
X193169047Y-69216723D01*
X193121428Y-69454819D02*
X193216666Y-69407200D01*
X193216666Y-69407200D02*
X193311904Y-69311961D01*
X193311904Y-69311961D02*
X193359523Y-69121485D01*
X193359523Y-69121485D02*
X193359523Y-68788152D01*
X193359523Y-68788152D02*
X193311904Y-68597676D01*
X193311904Y-68597676D02*
X193216666Y-68502438D01*
X193216666Y-68502438D02*
X193121428Y-68454819D01*
X193121428Y-68454819D02*
X192930952Y-68454819D01*
X192930952Y-68454819D02*
X192835714Y-68502438D01*
X192835714Y-68502438D02*
X192740476Y-68597676D01*
X192740476Y-68597676D02*
X192692857Y-68788152D01*
X192692857Y-68788152D02*
X192692857Y-69121485D01*
X192692857Y-69121485D02*
X192740476Y-69311961D01*
X192740476Y-69311961D02*
X192835714Y-69407200D01*
X192835714Y-69407200D02*
X192930952Y-69454819D01*
X192930952Y-69454819D02*
X193121428Y-69454819D01*
X191740476Y-69454819D02*
X192311904Y-69454819D01*
X192026190Y-69454819D02*
X192026190Y-68454819D01*
X192026190Y-68454819D02*
X192121428Y-68597676D01*
X192121428Y-68597676D02*
X192216666Y-68692914D01*
X192216666Y-68692914D02*
X192311904Y-68740533D01*
X182992857Y-111054819D02*
X183326190Y-110578628D01*
X183564285Y-111054819D02*
X183564285Y-110054819D01*
X183564285Y-110054819D02*
X183183333Y-110054819D01*
X183183333Y-110054819D02*
X183088095Y-110102438D01*
X183088095Y-110102438D02*
X183040476Y-110150057D01*
X183040476Y-110150057D02*
X182992857Y-110245295D01*
X182992857Y-110245295D02*
X182992857Y-110388152D01*
X182992857Y-110388152D02*
X183040476Y-110483390D01*
X183040476Y-110483390D02*
X183088095Y-110531009D01*
X183088095Y-110531009D02*
X183183333Y-110578628D01*
X183183333Y-110578628D02*
X183564285Y-110578628D01*
X182611904Y-110150057D02*
X182564285Y-110102438D01*
X182564285Y-110102438D02*
X182469047Y-110054819D01*
X182469047Y-110054819D02*
X182230952Y-110054819D01*
X182230952Y-110054819D02*
X182135714Y-110102438D01*
X182135714Y-110102438D02*
X182088095Y-110150057D01*
X182088095Y-110150057D02*
X182040476Y-110245295D01*
X182040476Y-110245295D02*
X182040476Y-110340533D01*
X182040476Y-110340533D02*
X182088095Y-110483390D01*
X182088095Y-110483390D02*
X182659523Y-111054819D01*
X182659523Y-111054819D02*
X182040476Y-111054819D01*
X181421428Y-110054819D02*
X181326190Y-110054819D01*
X181326190Y-110054819D02*
X181230952Y-110102438D01*
X181230952Y-110102438D02*
X181183333Y-110150057D01*
X181183333Y-110150057D02*
X181135714Y-110245295D01*
X181135714Y-110245295D02*
X181088095Y-110435771D01*
X181088095Y-110435771D02*
X181088095Y-110673866D01*
X181088095Y-110673866D02*
X181135714Y-110864342D01*
X181135714Y-110864342D02*
X181183333Y-110959580D01*
X181183333Y-110959580D02*
X181230952Y-111007200D01*
X181230952Y-111007200D02*
X181326190Y-111054819D01*
X181326190Y-111054819D02*
X181421428Y-111054819D01*
X181421428Y-111054819D02*
X181516666Y-111007200D01*
X181516666Y-111007200D02*
X181564285Y-110959580D01*
X181564285Y-110959580D02*
X181611904Y-110864342D01*
X181611904Y-110864342D02*
X181659523Y-110673866D01*
X181659523Y-110673866D02*
X181659523Y-110435771D01*
X181659523Y-110435771D02*
X181611904Y-110245295D01*
X181611904Y-110245295D02*
X181564285Y-110150057D01*
X181564285Y-110150057D02*
X181516666Y-110102438D01*
X181516666Y-110102438D02*
X181421428Y-110054819D01*
X188479580Y-76033333D02*
X188527200Y-75985714D01*
X188527200Y-75985714D02*
X188574819Y-75842857D01*
X188574819Y-75842857D02*
X188574819Y-75747619D01*
X188574819Y-75747619D02*
X188527200Y-75604762D01*
X188527200Y-75604762D02*
X188431961Y-75509524D01*
X188431961Y-75509524D02*
X188336723Y-75461905D01*
X188336723Y-75461905D02*
X188146247Y-75414286D01*
X188146247Y-75414286D02*
X188003390Y-75414286D01*
X188003390Y-75414286D02*
X187812914Y-75461905D01*
X187812914Y-75461905D02*
X187717676Y-75509524D01*
X187717676Y-75509524D02*
X187622438Y-75604762D01*
X187622438Y-75604762D02*
X187574819Y-75747619D01*
X187574819Y-75747619D02*
X187574819Y-75842857D01*
X187574819Y-75842857D02*
X187622438Y-75985714D01*
X187622438Y-75985714D02*
X187670057Y-76033333D01*
X187574819Y-76938095D02*
X187574819Y-76461905D01*
X187574819Y-76461905D02*
X188051009Y-76414286D01*
X188051009Y-76414286D02*
X188003390Y-76461905D01*
X188003390Y-76461905D02*
X187955771Y-76557143D01*
X187955771Y-76557143D02*
X187955771Y-76795238D01*
X187955771Y-76795238D02*
X188003390Y-76890476D01*
X188003390Y-76890476D02*
X188051009Y-76938095D01*
X188051009Y-76938095D02*
X188146247Y-76985714D01*
X188146247Y-76985714D02*
X188384342Y-76985714D01*
X188384342Y-76985714D02*
X188479580Y-76938095D01*
X188479580Y-76938095D02*
X188527200Y-76890476D01*
X188527200Y-76890476D02*
X188574819Y-76795238D01*
X188574819Y-76795238D02*
X188574819Y-76557143D01*
X188574819Y-76557143D02*
X188527200Y-76461905D01*
X188527200Y-76461905D02*
X188479580Y-76414286D01*
X104179580Y-66133333D02*
X104227200Y-66085714D01*
X104227200Y-66085714D02*
X104274819Y-65942857D01*
X104274819Y-65942857D02*
X104274819Y-65847619D01*
X104274819Y-65847619D02*
X104227200Y-65704762D01*
X104227200Y-65704762D02*
X104131961Y-65609524D01*
X104131961Y-65609524D02*
X104036723Y-65561905D01*
X104036723Y-65561905D02*
X103846247Y-65514286D01*
X103846247Y-65514286D02*
X103703390Y-65514286D01*
X103703390Y-65514286D02*
X103512914Y-65561905D01*
X103512914Y-65561905D02*
X103417676Y-65609524D01*
X103417676Y-65609524D02*
X103322438Y-65704762D01*
X103322438Y-65704762D02*
X103274819Y-65847619D01*
X103274819Y-65847619D02*
X103274819Y-65942857D01*
X103274819Y-65942857D02*
X103322438Y-66085714D01*
X103322438Y-66085714D02*
X103370057Y-66133333D01*
X103274819Y-66990476D02*
X103274819Y-66800000D01*
X103274819Y-66800000D02*
X103322438Y-66704762D01*
X103322438Y-66704762D02*
X103370057Y-66657143D01*
X103370057Y-66657143D02*
X103512914Y-66561905D01*
X103512914Y-66561905D02*
X103703390Y-66514286D01*
X103703390Y-66514286D02*
X104084342Y-66514286D01*
X104084342Y-66514286D02*
X104179580Y-66561905D01*
X104179580Y-66561905D02*
X104227200Y-66609524D01*
X104227200Y-66609524D02*
X104274819Y-66704762D01*
X104274819Y-66704762D02*
X104274819Y-66895238D01*
X104274819Y-66895238D02*
X104227200Y-66990476D01*
X104227200Y-66990476D02*
X104179580Y-67038095D01*
X104179580Y-67038095D02*
X104084342Y-67085714D01*
X104084342Y-67085714D02*
X103846247Y-67085714D01*
X103846247Y-67085714D02*
X103751009Y-67038095D01*
X103751009Y-67038095D02*
X103703390Y-66990476D01*
X103703390Y-66990476D02*
X103655771Y-66895238D01*
X103655771Y-66895238D02*
X103655771Y-66704762D01*
X103655771Y-66704762D02*
X103703390Y-66609524D01*
X103703390Y-66609524D02*
X103751009Y-66561905D01*
X103751009Y-66561905D02*
X103846247Y-66514286D01*
X185366666Y-68304819D02*
X185699999Y-67828628D01*
X185938094Y-68304819D02*
X185938094Y-67304819D01*
X185938094Y-67304819D02*
X185557142Y-67304819D01*
X185557142Y-67304819D02*
X185461904Y-67352438D01*
X185461904Y-67352438D02*
X185414285Y-67400057D01*
X185414285Y-67400057D02*
X185366666Y-67495295D01*
X185366666Y-67495295D02*
X185366666Y-67638152D01*
X185366666Y-67638152D02*
X185414285Y-67733390D01*
X185414285Y-67733390D02*
X185461904Y-67781009D01*
X185461904Y-67781009D02*
X185557142Y-67828628D01*
X185557142Y-67828628D02*
X185938094Y-67828628D01*
X184509523Y-67638152D02*
X184509523Y-68304819D01*
X184747618Y-67257200D02*
X184985713Y-67971485D01*
X184985713Y-67971485D02*
X184366666Y-67971485D01*
X182792857Y-112759580D02*
X182840476Y-112807200D01*
X182840476Y-112807200D02*
X182983333Y-112854819D01*
X182983333Y-112854819D02*
X183078571Y-112854819D01*
X183078571Y-112854819D02*
X183221428Y-112807200D01*
X183221428Y-112807200D02*
X183316666Y-112711961D01*
X183316666Y-112711961D02*
X183364285Y-112616723D01*
X183364285Y-112616723D02*
X183411904Y-112426247D01*
X183411904Y-112426247D02*
X183411904Y-112283390D01*
X183411904Y-112283390D02*
X183364285Y-112092914D01*
X183364285Y-112092914D02*
X183316666Y-111997676D01*
X183316666Y-111997676D02*
X183221428Y-111902438D01*
X183221428Y-111902438D02*
X183078571Y-111854819D01*
X183078571Y-111854819D02*
X182983333Y-111854819D01*
X182983333Y-111854819D02*
X182840476Y-111902438D01*
X182840476Y-111902438D02*
X182792857Y-111950057D01*
X182459523Y-111854819D02*
X181840476Y-111854819D01*
X181840476Y-111854819D02*
X182173809Y-112235771D01*
X182173809Y-112235771D02*
X182030952Y-112235771D01*
X182030952Y-112235771D02*
X181935714Y-112283390D01*
X181935714Y-112283390D02*
X181888095Y-112331009D01*
X181888095Y-112331009D02*
X181840476Y-112426247D01*
X181840476Y-112426247D02*
X181840476Y-112664342D01*
X181840476Y-112664342D02*
X181888095Y-112759580D01*
X181888095Y-112759580D02*
X181935714Y-112807200D01*
X181935714Y-112807200D02*
X182030952Y-112854819D01*
X182030952Y-112854819D02*
X182316666Y-112854819D01*
X182316666Y-112854819D02*
X182411904Y-112807200D01*
X182411904Y-112807200D02*
X182459523Y-112759580D01*
X180888095Y-112854819D02*
X181459523Y-112854819D01*
X181173809Y-112854819D02*
X181173809Y-111854819D01*
X181173809Y-111854819D02*
X181269047Y-111997676D01*
X181269047Y-111997676D02*
X181364285Y-112092914D01*
X181364285Y-112092914D02*
X181459523Y-112140533D01*
X178895238Y-71750057D02*
X178990476Y-71702438D01*
X178990476Y-71702438D02*
X179085714Y-71607200D01*
X179085714Y-71607200D02*
X179228571Y-71464342D01*
X179228571Y-71464342D02*
X179323809Y-71416723D01*
X179323809Y-71416723D02*
X179419047Y-71416723D01*
X179371428Y-71654819D02*
X179466666Y-71607200D01*
X179466666Y-71607200D02*
X179561904Y-71511961D01*
X179561904Y-71511961D02*
X179609523Y-71321485D01*
X179609523Y-71321485D02*
X179609523Y-70988152D01*
X179609523Y-70988152D02*
X179561904Y-70797676D01*
X179561904Y-70797676D02*
X179466666Y-70702438D01*
X179466666Y-70702438D02*
X179371428Y-70654819D01*
X179371428Y-70654819D02*
X179180952Y-70654819D01*
X179180952Y-70654819D02*
X179085714Y-70702438D01*
X179085714Y-70702438D02*
X178990476Y-70797676D01*
X178990476Y-70797676D02*
X178942857Y-70988152D01*
X178942857Y-70988152D02*
X178942857Y-71321485D01*
X178942857Y-71321485D02*
X178990476Y-71511961D01*
X178990476Y-71511961D02*
X179085714Y-71607200D01*
X179085714Y-71607200D02*
X179180952Y-71654819D01*
X179180952Y-71654819D02*
X179371428Y-71654819D01*
X178561904Y-70750057D02*
X178514285Y-70702438D01*
X178514285Y-70702438D02*
X178419047Y-70654819D01*
X178419047Y-70654819D02*
X178180952Y-70654819D01*
X178180952Y-70654819D02*
X178085714Y-70702438D01*
X178085714Y-70702438D02*
X178038095Y-70750057D01*
X178038095Y-70750057D02*
X177990476Y-70845295D01*
X177990476Y-70845295D02*
X177990476Y-70940533D01*
X177990476Y-70940533D02*
X178038095Y-71083390D01*
X178038095Y-71083390D02*
X178609523Y-71654819D01*
X178609523Y-71654819D02*
X177990476Y-71654819D01*
X172142857Y-71639580D02*
X172190476Y-71687200D01*
X172190476Y-71687200D02*
X172333333Y-71734819D01*
X172333333Y-71734819D02*
X172428571Y-71734819D01*
X172428571Y-71734819D02*
X172571428Y-71687200D01*
X172571428Y-71687200D02*
X172666666Y-71591961D01*
X172666666Y-71591961D02*
X172714285Y-71496723D01*
X172714285Y-71496723D02*
X172761904Y-71306247D01*
X172761904Y-71306247D02*
X172761904Y-71163390D01*
X172761904Y-71163390D02*
X172714285Y-70972914D01*
X172714285Y-70972914D02*
X172666666Y-70877676D01*
X172666666Y-70877676D02*
X172571428Y-70782438D01*
X172571428Y-70782438D02*
X172428571Y-70734819D01*
X172428571Y-70734819D02*
X172333333Y-70734819D01*
X172333333Y-70734819D02*
X172190476Y-70782438D01*
X172190476Y-70782438D02*
X172142857Y-70830057D01*
X171190476Y-71734819D02*
X171761904Y-71734819D01*
X171476190Y-71734819D02*
X171476190Y-70734819D01*
X171476190Y-70734819D02*
X171571428Y-70877676D01*
X171571428Y-70877676D02*
X171666666Y-70972914D01*
X171666666Y-70972914D02*
X171761904Y-71020533D01*
X170714285Y-71734819D02*
X170523809Y-71734819D01*
X170523809Y-71734819D02*
X170428571Y-71687200D01*
X170428571Y-71687200D02*
X170380952Y-71639580D01*
X170380952Y-71639580D02*
X170285714Y-71496723D01*
X170285714Y-71496723D02*
X170238095Y-71306247D01*
X170238095Y-71306247D02*
X170238095Y-70925295D01*
X170238095Y-70925295D02*
X170285714Y-70830057D01*
X170285714Y-70830057D02*
X170333333Y-70782438D01*
X170333333Y-70782438D02*
X170428571Y-70734819D01*
X170428571Y-70734819D02*
X170619047Y-70734819D01*
X170619047Y-70734819D02*
X170714285Y-70782438D01*
X170714285Y-70782438D02*
X170761904Y-70830057D01*
X170761904Y-70830057D02*
X170809523Y-70925295D01*
X170809523Y-70925295D02*
X170809523Y-71163390D01*
X170809523Y-71163390D02*
X170761904Y-71258628D01*
X170761904Y-71258628D02*
X170714285Y-71306247D01*
X170714285Y-71306247D02*
X170619047Y-71353866D01*
X170619047Y-71353866D02*
X170428571Y-71353866D01*
X170428571Y-71353866D02*
X170333333Y-71306247D01*
X170333333Y-71306247D02*
X170285714Y-71258628D01*
X170285714Y-71258628D02*
X170238095Y-71163390D01*
X119388094Y-77554819D02*
X119388094Y-76554819D01*
X119388094Y-76554819D02*
X119149999Y-76554819D01*
X119149999Y-76554819D02*
X119007142Y-76602438D01*
X119007142Y-76602438D02*
X118911904Y-76697676D01*
X118911904Y-76697676D02*
X118864285Y-76792914D01*
X118864285Y-76792914D02*
X118816666Y-76983390D01*
X118816666Y-76983390D02*
X118816666Y-77126247D01*
X118816666Y-77126247D02*
X118864285Y-77316723D01*
X118864285Y-77316723D02*
X118911904Y-77411961D01*
X118911904Y-77411961D02*
X119007142Y-77507200D01*
X119007142Y-77507200D02*
X119149999Y-77554819D01*
X119149999Y-77554819D02*
X119388094Y-77554819D01*
X118435713Y-76650057D02*
X118388094Y-76602438D01*
X118388094Y-76602438D02*
X118292856Y-76554819D01*
X118292856Y-76554819D02*
X118054761Y-76554819D01*
X118054761Y-76554819D02*
X117959523Y-76602438D01*
X117959523Y-76602438D02*
X117911904Y-76650057D01*
X117911904Y-76650057D02*
X117864285Y-76745295D01*
X117864285Y-76745295D02*
X117864285Y-76840533D01*
X117864285Y-76840533D02*
X117911904Y-76983390D01*
X117911904Y-76983390D02*
X118483332Y-77554819D01*
X118483332Y-77554819D02*
X117864285Y-77554819D01*
X172142857Y-90579580D02*
X172190476Y-90627200D01*
X172190476Y-90627200D02*
X172333333Y-90674819D01*
X172333333Y-90674819D02*
X172428571Y-90674819D01*
X172428571Y-90674819D02*
X172571428Y-90627200D01*
X172571428Y-90627200D02*
X172666666Y-90531961D01*
X172666666Y-90531961D02*
X172714285Y-90436723D01*
X172714285Y-90436723D02*
X172761904Y-90246247D01*
X172761904Y-90246247D02*
X172761904Y-90103390D01*
X172761904Y-90103390D02*
X172714285Y-89912914D01*
X172714285Y-89912914D02*
X172666666Y-89817676D01*
X172666666Y-89817676D02*
X172571428Y-89722438D01*
X172571428Y-89722438D02*
X172428571Y-89674819D01*
X172428571Y-89674819D02*
X172333333Y-89674819D01*
X172333333Y-89674819D02*
X172190476Y-89722438D01*
X172190476Y-89722438D02*
X172142857Y-89770057D01*
X171809523Y-89674819D02*
X171190476Y-89674819D01*
X171190476Y-89674819D02*
X171523809Y-90055771D01*
X171523809Y-90055771D02*
X171380952Y-90055771D01*
X171380952Y-90055771D02*
X171285714Y-90103390D01*
X171285714Y-90103390D02*
X171238095Y-90151009D01*
X171238095Y-90151009D02*
X171190476Y-90246247D01*
X171190476Y-90246247D02*
X171190476Y-90484342D01*
X171190476Y-90484342D02*
X171238095Y-90579580D01*
X171238095Y-90579580D02*
X171285714Y-90627200D01*
X171285714Y-90627200D02*
X171380952Y-90674819D01*
X171380952Y-90674819D02*
X171666666Y-90674819D01*
X171666666Y-90674819D02*
X171761904Y-90627200D01*
X171761904Y-90627200D02*
X171809523Y-90579580D01*
X170857142Y-89674819D02*
X170190476Y-89674819D01*
X170190476Y-89674819D02*
X170619047Y-90674819D01*
X168542857Y-59059580D02*
X168590476Y-59107200D01*
X168590476Y-59107200D02*
X168733333Y-59154819D01*
X168733333Y-59154819D02*
X168828571Y-59154819D01*
X168828571Y-59154819D02*
X168971428Y-59107200D01*
X168971428Y-59107200D02*
X169066666Y-59011961D01*
X169066666Y-59011961D02*
X169114285Y-58916723D01*
X169114285Y-58916723D02*
X169161904Y-58726247D01*
X169161904Y-58726247D02*
X169161904Y-58583390D01*
X169161904Y-58583390D02*
X169114285Y-58392914D01*
X169114285Y-58392914D02*
X169066666Y-58297676D01*
X169066666Y-58297676D02*
X168971428Y-58202438D01*
X168971428Y-58202438D02*
X168828571Y-58154819D01*
X168828571Y-58154819D02*
X168733333Y-58154819D01*
X168733333Y-58154819D02*
X168590476Y-58202438D01*
X168590476Y-58202438D02*
X168542857Y-58250057D01*
X167590476Y-59154819D02*
X168161904Y-59154819D01*
X167876190Y-59154819D02*
X167876190Y-58154819D01*
X167876190Y-58154819D02*
X167971428Y-58297676D01*
X167971428Y-58297676D02*
X168066666Y-58392914D01*
X168066666Y-58392914D02*
X168161904Y-58440533D01*
X167257142Y-58154819D02*
X166590476Y-58154819D01*
X166590476Y-58154819D02*
X167019047Y-59154819D01*
X112942857Y-125904819D02*
X113276190Y-125428628D01*
X113514285Y-125904819D02*
X113514285Y-124904819D01*
X113514285Y-124904819D02*
X113133333Y-124904819D01*
X113133333Y-124904819D02*
X113038095Y-124952438D01*
X113038095Y-124952438D02*
X112990476Y-125000057D01*
X112990476Y-125000057D02*
X112942857Y-125095295D01*
X112942857Y-125095295D02*
X112942857Y-125238152D01*
X112942857Y-125238152D02*
X112990476Y-125333390D01*
X112990476Y-125333390D02*
X113038095Y-125381009D01*
X113038095Y-125381009D02*
X113133333Y-125428628D01*
X113133333Y-125428628D02*
X113514285Y-125428628D01*
X112561904Y-125000057D02*
X112514285Y-124952438D01*
X112514285Y-124952438D02*
X112419047Y-124904819D01*
X112419047Y-124904819D02*
X112180952Y-124904819D01*
X112180952Y-124904819D02*
X112085714Y-124952438D01*
X112085714Y-124952438D02*
X112038095Y-125000057D01*
X112038095Y-125000057D02*
X111990476Y-125095295D01*
X111990476Y-125095295D02*
X111990476Y-125190533D01*
X111990476Y-125190533D02*
X112038095Y-125333390D01*
X112038095Y-125333390D02*
X112609523Y-125904819D01*
X112609523Y-125904819D02*
X111990476Y-125904819D01*
X111657142Y-124904819D02*
X110990476Y-124904819D01*
X110990476Y-124904819D02*
X111419047Y-125904819D01*
X168692857Y-61459580D02*
X168740476Y-61507200D01*
X168740476Y-61507200D02*
X168883333Y-61554819D01*
X168883333Y-61554819D02*
X168978571Y-61554819D01*
X168978571Y-61554819D02*
X169121428Y-61507200D01*
X169121428Y-61507200D02*
X169216666Y-61411961D01*
X169216666Y-61411961D02*
X169264285Y-61316723D01*
X169264285Y-61316723D02*
X169311904Y-61126247D01*
X169311904Y-61126247D02*
X169311904Y-60983390D01*
X169311904Y-60983390D02*
X169264285Y-60792914D01*
X169264285Y-60792914D02*
X169216666Y-60697676D01*
X169216666Y-60697676D02*
X169121428Y-60602438D01*
X169121428Y-60602438D02*
X168978571Y-60554819D01*
X168978571Y-60554819D02*
X168883333Y-60554819D01*
X168883333Y-60554819D02*
X168740476Y-60602438D01*
X168740476Y-60602438D02*
X168692857Y-60650057D01*
X168311904Y-60650057D02*
X168264285Y-60602438D01*
X168264285Y-60602438D02*
X168169047Y-60554819D01*
X168169047Y-60554819D02*
X167930952Y-60554819D01*
X167930952Y-60554819D02*
X167835714Y-60602438D01*
X167835714Y-60602438D02*
X167788095Y-60650057D01*
X167788095Y-60650057D02*
X167740476Y-60745295D01*
X167740476Y-60745295D02*
X167740476Y-60840533D01*
X167740476Y-60840533D02*
X167788095Y-60983390D01*
X167788095Y-60983390D02*
X168359523Y-61554819D01*
X168359523Y-61554819D02*
X167740476Y-61554819D01*
X167121428Y-60554819D02*
X167026190Y-60554819D01*
X167026190Y-60554819D02*
X166930952Y-60602438D01*
X166930952Y-60602438D02*
X166883333Y-60650057D01*
X166883333Y-60650057D02*
X166835714Y-60745295D01*
X166835714Y-60745295D02*
X166788095Y-60935771D01*
X166788095Y-60935771D02*
X166788095Y-61173866D01*
X166788095Y-61173866D02*
X166835714Y-61364342D01*
X166835714Y-61364342D02*
X166883333Y-61459580D01*
X166883333Y-61459580D02*
X166930952Y-61507200D01*
X166930952Y-61507200D02*
X167026190Y-61554819D01*
X167026190Y-61554819D02*
X167121428Y-61554819D01*
X167121428Y-61554819D02*
X167216666Y-61507200D01*
X167216666Y-61507200D02*
X167264285Y-61459580D01*
X167264285Y-61459580D02*
X167311904Y-61364342D01*
X167311904Y-61364342D02*
X167359523Y-61173866D01*
X167359523Y-61173866D02*
X167359523Y-60935771D01*
X167359523Y-60935771D02*
X167311904Y-60745295D01*
X167311904Y-60745295D02*
X167264285Y-60650057D01*
X167264285Y-60650057D02*
X167216666Y-60602438D01*
X167216666Y-60602438D02*
X167121428Y-60554819D01*
X180579580Y-75733333D02*
X180627200Y-75685714D01*
X180627200Y-75685714D02*
X180674819Y-75542857D01*
X180674819Y-75542857D02*
X180674819Y-75447619D01*
X180674819Y-75447619D02*
X180627200Y-75304762D01*
X180627200Y-75304762D02*
X180531961Y-75209524D01*
X180531961Y-75209524D02*
X180436723Y-75161905D01*
X180436723Y-75161905D02*
X180246247Y-75114286D01*
X180246247Y-75114286D02*
X180103390Y-75114286D01*
X180103390Y-75114286D02*
X179912914Y-75161905D01*
X179912914Y-75161905D02*
X179817676Y-75209524D01*
X179817676Y-75209524D02*
X179722438Y-75304762D01*
X179722438Y-75304762D02*
X179674819Y-75447619D01*
X179674819Y-75447619D02*
X179674819Y-75542857D01*
X179674819Y-75542857D02*
X179722438Y-75685714D01*
X179722438Y-75685714D02*
X179770057Y-75733333D01*
X180008152Y-76590476D02*
X180674819Y-76590476D01*
X179627200Y-76352381D02*
X180341485Y-76114286D01*
X180341485Y-76114286D02*
X180341485Y-76733333D01*
X136842857Y-76840046D02*
X136890476Y-76887666D01*
X136890476Y-76887666D02*
X137033333Y-76935285D01*
X137033333Y-76935285D02*
X137128571Y-76935285D01*
X137128571Y-76935285D02*
X137271428Y-76887666D01*
X137271428Y-76887666D02*
X137366666Y-76792427D01*
X137366666Y-76792427D02*
X137414285Y-76697189D01*
X137414285Y-76697189D02*
X137461904Y-76506713D01*
X137461904Y-76506713D02*
X137461904Y-76363856D01*
X137461904Y-76363856D02*
X137414285Y-76173380D01*
X137414285Y-76173380D02*
X137366666Y-76078142D01*
X137366666Y-76078142D02*
X137271428Y-75982904D01*
X137271428Y-75982904D02*
X137128571Y-75935285D01*
X137128571Y-75935285D02*
X137033333Y-75935285D01*
X137033333Y-75935285D02*
X136890476Y-75982904D01*
X136890476Y-75982904D02*
X136842857Y-76030523D01*
X135890476Y-76935285D02*
X136461904Y-76935285D01*
X136176190Y-76935285D02*
X136176190Y-75935285D01*
X136176190Y-75935285D02*
X136271428Y-76078142D01*
X136271428Y-76078142D02*
X136366666Y-76173380D01*
X136366666Y-76173380D02*
X136461904Y-76220999D01*
X135033333Y-75935285D02*
X135223809Y-75935285D01*
X135223809Y-75935285D02*
X135319047Y-75982904D01*
X135319047Y-75982904D02*
X135366666Y-76030523D01*
X135366666Y-76030523D02*
X135461904Y-76173380D01*
X135461904Y-76173380D02*
X135509523Y-76363856D01*
X135509523Y-76363856D02*
X135509523Y-76744808D01*
X135509523Y-76744808D02*
X135461904Y-76840046D01*
X135461904Y-76840046D02*
X135414285Y-76887666D01*
X135414285Y-76887666D02*
X135319047Y-76935285D01*
X135319047Y-76935285D02*
X135128571Y-76935285D01*
X135128571Y-76935285D02*
X135033333Y-76887666D01*
X135033333Y-76887666D02*
X134985714Y-76840046D01*
X134985714Y-76840046D02*
X134938095Y-76744808D01*
X134938095Y-76744808D02*
X134938095Y-76506713D01*
X134938095Y-76506713D02*
X134985714Y-76411475D01*
X134985714Y-76411475D02*
X135033333Y-76363856D01*
X135033333Y-76363856D02*
X135128571Y-76316237D01*
X135128571Y-76316237D02*
X135319047Y-76316237D01*
X135319047Y-76316237D02*
X135414285Y-76363856D01*
X135414285Y-76363856D02*
X135461904Y-76411475D01*
X135461904Y-76411475D02*
X135509523Y-76506713D01*
X150492857Y-80006712D02*
X150540476Y-80054332D01*
X150540476Y-80054332D02*
X150683333Y-80101951D01*
X150683333Y-80101951D02*
X150778571Y-80101951D01*
X150778571Y-80101951D02*
X150921428Y-80054332D01*
X150921428Y-80054332D02*
X151016666Y-79959093D01*
X151016666Y-79959093D02*
X151064285Y-79863855D01*
X151064285Y-79863855D02*
X151111904Y-79673379D01*
X151111904Y-79673379D02*
X151111904Y-79530522D01*
X151111904Y-79530522D02*
X151064285Y-79340046D01*
X151064285Y-79340046D02*
X151016666Y-79244808D01*
X151016666Y-79244808D02*
X150921428Y-79149570D01*
X150921428Y-79149570D02*
X150778571Y-79101951D01*
X150778571Y-79101951D02*
X150683333Y-79101951D01*
X150683333Y-79101951D02*
X150540476Y-79149570D01*
X150540476Y-79149570D02*
X150492857Y-79197189D01*
X150111904Y-79197189D02*
X150064285Y-79149570D01*
X150064285Y-79149570D02*
X149969047Y-79101951D01*
X149969047Y-79101951D02*
X149730952Y-79101951D01*
X149730952Y-79101951D02*
X149635714Y-79149570D01*
X149635714Y-79149570D02*
X149588095Y-79197189D01*
X149588095Y-79197189D02*
X149540476Y-79292427D01*
X149540476Y-79292427D02*
X149540476Y-79387665D01*
X149540476Y-79387665D02*
X149588095Y-79530522D01*
X149588095Y-79530522D02*
X150159523Y-80101951D01*
X150159523Y-80101951D02*
X149540476Y-80101951D01*
X148635714Y-79101951D02*
X149111904Y-79101951D01*
X149111904Y-79101951D02*
X149159523Y-79578141D01*
X149159523Y-79578141D02*
X149111904Y-79530522D01*
X149111904Y-79530522D02*
X149016666Y-79482903D01*
X149016666Y-79482903D02*
X148778571Y-79482903D01*
X148778571Y-79482903D02*
X148683333Y-79530522D01*
X148683333Y-79530522D02*
X148635714Y-79578141D01*
X148635714Y-79578141D02*
X148588095Y-79673379D01*
X148588095Y-79673379D02*
X148588095Y-79911474D01*
X148588095Y-79911474D02*
X148635714Y-80006712D01*
X148635714Y-80006712D02*
X148683333Y-80054332D01*
X148683333Y-80054332D02*
X148778571Y-80101951D01*
X148778571Y-80101951D02*
X149016666Y-80101951D01*
X149016666Y-80101951D02*
X149111904Y-80054332D01*
X149111904Y-80054332D02*
X149159523Y-80006712D01*
D12*
%TO.C,C15*%
X145976852Y-77375233D02*
X145454348Y-77375233D01*
X145976852Y-75905233D02*
X145454348Y-75905233D01*
%TO.C,C13*%
X140376852Y-74441900D02*
X139854348Y-74441900D01*
X140376852Y-72971900D02*
X139854348Y-72971900D01*
%TO.C,C24*%
X145454348Y-83241900D02*
X145976852Y-83241900D01*
X145454348Y-81771900D02*
X145976852Y-81771900D01*
%TO.C,C14*%
X145976852Y-74441900D02*
X145454348Y-74441900D01*
X145976852Y-72971900D02*
X145454348Y-72971900D01*
%TO.C,C22*%
X139854348Y-80308566D02*
X140376852Y-80308566D01*
X139854348Y-78838566D02*
X140376852Y-78838566D01*
%TO.C,C23*%
X139854348Y-83241900D02*
X140376852Y-83241900D01*
X139854348Y-81771900D02*
X140376852Y-81771900D01*
%TO.C,R19*%
X185925436Y-107797500D02*
X186379564Y-107797500D01*
X185925436Y-109267500D02*
X186379564Y-109267500D01*
%TO.C,C29*%
X158338748Y-76071900D02*
X158861252Y-76071900D01*
X158338748Y-77541900D02*
X158861252Y-77541900D01*
%TO.C,R25*%
X111472936Y-111690000D02*
X112927064Y-111690000D01*
X111472936Y-113510000D02*
X112927064Y-113510000D01*
%TO.C,C36*%
X173161252Y-84765000D02*
X172638748Y-84765000D01*
X173161252Y-86235000D02*
X172638748Y-86235000D01*
%TO.C,R2*%
X108427064Y-77665000D02*
X107972936Y-77665000D01*
X108427064Y-79135000D02*
X107972936Y-79135000D01*
%TO.C,R5*%
X185620436Y-70632500D02*
X186074564Y-70632500D01*
X185620436Y-72102500D02*
X186074564Y-72102500D01*
%TO.C,R24*%
X111472936Y-104490000D02*
X112927064Y-104490000D01*
X111472936Y-106310000D02*
X112927064Y-106310000D01*
%TO.C,R26*%
X111472936Y-118690000D02*
X112927064Y-118690000D01*
X111472936Y-120510000D02*
X112927064Y-120510000D01*
%TO.C,R41*%
X195377064Y-72515000D02*
X194922936Y-72515000D01*
X195377064Y-73985000D02*
X194922936Y-73985000D01*
%TO.C,C12*%
X132565000Y-66561252D02*
X132565000Y-66038748D01*
X134035000Y-66561252D02*
X134035000Y-66038748D01*
%TO.C,R42*%
X195122936Y-59915000D02*
X195577064Y-59915000D01*
X195122936Y-61385000D02*
X195577064Y-61385000D01*
%TO.C,R3*%
X108427064Y-79865000D02*
X107972936Y-79865000D01*
X108427064Y-81335000D02*
X107972936Y-81335000D01*
%TO.C,C3*%
X177265000Y-59261252D02*
X177265000Y-58738748D01*
X178735000Y-59261252D02*
X178735000Y-58738748D01*
%TO.C,U2*%
X183050000Y-56940000D02*
X185000000Y-56940000D01*
X183050000Y-67060000D02*
X185000000Y-67060000D01*
X186950000Y-56940000D02*
X185000000Y-56940000D01*
X186950000Y-67060000D02*
X185000000Y-67060000D01*
X182540000Y-67335000D02*
X182060000Y-67335000D01*
X182300000Y-67005000D01*
X182540000Y-67335000D01*
G36*
X182540000Y-67335000D02*
G01*
X182060000Y-67335000D01*
X182300000Y-67005000D01*
X182540000Y-67335000D01*
G37*
%TO.C,C38*%
X107854348Y-81965000D02*
X108376852Y-81965000D01*
X107854348Y-83435000D02*
X108376852Y-83435000D01*
%TO.C,C1*%
X159765000Y-59261252D02*
X159765000Y-58738748D01*
X161235000Y-59261252D02*
X161235000Y-58738748D01*
%TO.C,Q1*%
X188320000Y-69960000D02*
X188320000Y-70760000D01*
X188320000Y-71560000D02*
X188320000Y-70760000D01*
X189250000Y-71560000D02*
X188320000Y-71560000D01*
X190550000Y-71560000D02*
X191480000Y-71560000D01*
X191480000Y-70100000D02*
X191480000Y-71560000D01*
X188290000Y-69460000D02*
X187960000Y-69700000D01*
X187960000Y-69220000D01*
X188290000Y-69460000D01*
G36*
X188290000Y-69460000D02*
G01*
X187960000Y-69700000D01*
X187960000Y-69220000D01*
X188290000Y-69460000D01*
G37*
%TO.C,R20*%
X185925436Y-109797500D02*
X186379564Y-109797500D01*
X185925436Y-111267500D02*
X186379564Y-111267500D01*
%TO.C,C5*%
X189065000Y-76461252D02*
X189065000Y-75938748D01*
X190535000Y-76461252D02*
X190535000Y-75938748D01*
%TO.C,C6*%
X104765000Y-66561252D02*
X104765000Y-66038748D01*
X106235000Y-66561252D02*
X106235000Y-66038748D01*
%TO.C,R4*%
X185572936Y-68565000D02*
X186027064Y-68565000D01*
X185572936Y-70035000D02*
X186027064Y-70035000D01*
%TO.C,C31*%
X185891248Y-111797500D02*
X186413752Y-111797500D01*
X185891248Y-113267500D02*
X186413752Y-113267500D01*
%TO.C,Q2*%
X180220000Y-69960000D02*
X180220000Y-70760000D01*
X180220000Y-71560000D02*
X180220000Y-70760000D01*
X181150000Y-71560000D02*
X180220000Y-71560000D01*
X182450000Y-71560000D02*
X183380000Y-71560000D01*
X183380000Y-70100000D02*
X183380000Y-71560000D01*
X180190000Y-69460000D02*
X179860000Y-69700000D01*
X179860000Y-69220000D01*
X180190000Y-69460000D01*
G36*
X180190000Y-69460000D02*
G01*
X179860000Y-69700000D01*
X179860000Y-69220000D01*
X180190000Y-69460000D01*
G37*
%TO.C,C19*%
X171761252Y-68865000D02*
X171238748Y-68865000D01*
X171761252Y-70335000D02*
X171238748Y-70335000D01*
%TO.C,D2*%
X113590000Y-73050000D02*
X113590000Y-76350000D01*
X120600000Y-73050000D02*
X113590000Y-73050000D01*
X120600000Y-76350000D02*
X113590000Y-76350000D01*
%TO.C,C37*%
X171238748Y-91165000D02*
X171761252Y-91165000D01*
X171238748Y-92635000D02*
X171761252Y-92635000D01*
%TO.C,C17*%
X171861252Y-57865000D02*
X171338748Y-57865000D01*
X171861252Y-59335000D02*
X171338748Y-59335000D01*
%TO.C,R27*%
X111472936Y-126490000D02*
X112927064Y-126490000D01*
X111472936Y-128310000D02*
X112927064Y-128310000D01*
%TO.C,C20*%
X171861252Y-60665000D02*
X171338748Y-60665000D01*
X171861252Y-62135000D02*
X171338748Y-62135000D01*
%TO.C,C4*%
X181165000Y-76161252D02*
X181165000Y-75638748D01*
X182635000Y-76161252D02*
X182635000Y-75638748D01*
%TO.C,C16*%
X140376852Y-77375233D02*
X139854348Y-77375233D01*
X140376852Y-75905233D02*
X139854348Y-75905233D01*
%TO.C,C25*%
X145454348Y-80308566D02*
X145976852Y-80308566D01*
X145454348Y-78838566D02*
X145976852Y-78838566D01*
%TD*%
M02*
