%TF.GenerationSoftware,KiCad,Pcbnew,9.0.4*%
%TF.CreationDate,2025-09-16T19:44:55+08:00*%
%TF.ProjectId,accum_pcb_up,61636375-6d5f-4706-9362-5f75702e6b69,rev?*%
%TF.SameCoordinates,Original*%
%TF.FileFunction,Legend,Bot*%
%TF.FilePolarity,Positive*%
%FSLAX46Y46*%
G04 Gerber Fmt 4.6, Leading zero omitted, Abs format (unit mm)*
G04 Created by KiCad (PCBNEW 9.0.4) date 2025-09-16 19:44:55*
%MOMM*%
%LPD*%
G01*
G04 APERTURE LIST*
%ADD10C,0.100000*%
%ADD11C,0.300000*%
%ADD12C,0.400000*%
G04 APERTURE END LIST*
D10*
X91441419Y-198989693D02*
X91441419Y-198418265D01*
X91441419Y-198703979D02*
X90441419Y-198703979D01*
X90441419Y-198703979D02*
X90584276Y-198608741D01*
X90584276Y-198608741D02*
X90679514Y-198513503D01*
X90679514Y-198513503D02*
X90727133Y-198418265D01*
X90441419Y-195370646D02*
X90441419Y-195989693D01*
X90441419Y-195989693D02*
X90822371Y-195656360D01*
X90822371Y-195656360D02*
X90822371Y-195799217D01*
X90822371Y-195799217D02*
X90869990Y-195894455D01*
X90869990Y-195894455D02*
X90917609Y-195942074D01*
X90917609Y-195942074D02*
X91012847Y-195989693D01*
X91012847Y-195989693D02*
X91250942Y-195989693D01*
X91250942Y-195989693D02*
X91346180Y-195942074D01*
X91346180Y-195942074D02*
X91393800Y-195894455D01*
X91393800Y-195894455D02*
X91441419Y-195799217D01*
X91441419Y-195799217D02*
X91441419Y-195513503D01*
X91441419Y-195513503D02*
X91393800Y-195418265D01*
X91393800Y-195418265D02*
X91346180Y-195370646D01*
D11*
X356350346Y-194642828D02*
X355993203Y-195642828D01*
X355993203Y-195642828D02*
X355636060Y-194642828D01*
X355136060Y-194285685D02*
X355064632Y-194214257D01*
X355064632Y-194214257D02*
X354921775Y-194142828D01*
X354921775Y-194142828D02*
X354564632Y-194142828D01*
X354564632Y-194142828D02*
X354421775Y-194214257D01*
X354421775Y-194214257D02*
X354350346Y-194285685D01*
X354350346Y-194285685D02*
X354278917Y-194428542D01*
X354278917Y-194428542D02*
X354278917Y-194571400D01*
X354278917Y-194571400D02*
X354350346Y-194785685D01*
X354350346Y-194785685D02*
X355207489Y-195642828D01*
X355207489Y-195642828D02*
X354278917Y-195642828D01*
D10*
X90536657Y-176918265D02*
X90489038Y-176965884D01*
X90489038Y-176965884D02*
X90441419Y-177061122D01*
X90441419Y-177061122D02*
X90441419Y-177299217D01*
X90441419Y-177299217D02*
X90489038Y-177394455D01*
X90489038Y-177394455D02*
X90536657Y-177442074D01*
X90536657Y-177442074D02*
X90631895Y-177489693D01*
X90631895Y-177489693D02*
X90727133Y-177489693D01*
X90727133Y-177489693D02*
X90869990Y-177442074D01*
X90869990Y-177442074D02*
X91441419Y-176870646D01*
X91441419Y-176870646D02*
X91441419Y-177489693D01*
X90441419Y-178108741D02*
X90441419Y-178203979D01*
X90441419Y-178203979D02*
X90489038Y-178299217D01*
X90489038Y-178299217D02*
X90536657Y-178346836D01*
X90536657Y-178346836D02*
X90631895Y-178394455D01*
X90631895Y-178394455D02*
X90822371Y-178442074D01*
X90822371Y-178442074D02*
X91060466Y-178442074D01*
X91060466Y-178442074D02*
X91250942Y-178394455D01*
X91250942Y-178394455D02*
X91346180Y-178346836D01*
X91346180Y-178346836D02*
X91393800Y-178299217D01*
X91393800Y-178299217D02*
X91441419Y-178203979D01*
X91441419Y-178203979D02*
X91441419Y-178108741D01*
X91441419Y-178108741D02*
X91393800Y-178013503D01*
X91393800Y-178013503D02*
X91346180Y-177965884D01*
X91346180Y-177965884D02*
X91250942Y-177918265D01*
X91250942Y-177918265D02*
X91060466Y-177870646D01*
X91060466Y-177870646D02*
X90822371Y-177870646D01*
X90822371Y-177870646D02*
X90631895Y-177918265D01*
X90631895Y-177918265D02*
X90536657Y-177965884D01*
X90536657Y-177965884D02*
X90489038Y-178013503D01*
X90489038Y-178013503D02*
X90441419Y-178108741D01*
X82159990Y-192603741D02*
X82112371Y-192508503D01*
X82112371Y-192508503D02*
X82064752Y-192460884D01*
X82064752Y-192460884D02*
X81969514Y-192413265D01*
X81969514Y-192413265D02*
X81921895Y-192413265D01*
X81921895Y-192413265D02*
X81826657Y-192460884D01*
X81826657Y-192460884D02*
X81779038Y-192508503D01*
X81779038Y-192508503D02*
X81731419Y-192603741D01*
X81731419Y-192603741D02*
X81731419Y-192794217D01*
X81731419Y-192794217D02*
X81779038Y-192889455D01*
X81779038Y-192889455D02*
X81826657Y-192937074D01*
X81826657Y-192937074D02*
X81921895Y-192984693D01*
X81921895Y-192984693D02*
X81969514Y-192984693D01*
X81969514Y-192984693D02*
X82064752Y-192937074D01*
X82064752Y-192937074D02*
X82112371Y-192889455D01*
X82112371Y-192889455D02*
X82159990Y-192794217D01*
X82159990Y-192794217D02*
X82159990Y-192603741D01*
X82159990Y-192603741D02*
X82207609Y-192508503D01*
X82207609Y-192508503D02*
X82255228Y-192460884D01*
X82255228Y-192460884D02*
X82350466Y-192413265D01*
X82350466Y-192413265D02*
X82540942Y-192413265D01*
X82540942Y-192413265D02*
X82636180Y-192460884D01*
X82636180Y-192460884D02*
X82683800Y-192508503D01*
X82683800Y-192508503D02*
X82731419Y-192603741D01*
X82731419Y-192603741D02*
X82731419Y-192794217D01*
X82731419Y-192794217D02*
X82683800Y-192889455D01*
X82683800Y-192889455D02*
X82636180Y-192937074D01*
X82636180Y-192937074D02*
X82540942Y-192984693D01*
X82540942Y-192984693D02*
X82350466Y-192984693D01*
X82350466Y-192984693D02*
X82255228Y-192937074D01*
X82255228Y-192937074D02*
X82207609Y-192889455D01*
X82207609Y-192889455D02*
X82159990Y-192794217D01*
X82731419Y-195484693D02*
X82731419Y-194913265D01*
X82731419Y-195198979D02*
X81731419Y-195198979D01*
X81731419Y-195198979D02*
X81874276Y-195103741D01*
X81874276Y-195103741D02*
X81969514Y-195008503D01*
X81969514Y-195008503D02*
X82017133Y-194913265D01*
X81731419Y-195818027D02*
X81731419Y-196437074D01*
X81731419Y-196437074D02*
X82112371Y-196103741D01*
X82112371Y-196103741D02*
X82112371Y-196246598D01*
X82112371Y-196246598D02*
X82159990Y-196341836D01*
X82159990Y-196341836D02*
X82207609Y-196389455D01*
X82207609Y-196389455D02*
X82302847Y-196437074D01*
X82302847Y-196437074D02*
X82540942Y-196437074D01*
X82540942Y-196437074D02*
X82636180Y-196389455D01*
X82636180Y-196389455D02*
X82683800Y-196341836D01*
X82683800Y-196341836D02*
X82731419Y-196246598D01*
X82731419Y-196246598D02*
X82731419Y-195960884D01*
X82731419Y-195960884D02*
X82683800Y-195865646D01*
X82683800Y-195865646D02*
X82636180Y-195818027D01*
X82731419Y-186484693D02*
X82731419Y-185913265D01*
X82731419Y-186198979D02*
X81731419Y-186198979D01*
X81731419Y-186198979D02*
X81874276Y-186103741D01*
X81874276Y-186103741D02*
X81969514Y-186008503D01*
X81969514Y-186008503D02*
X82017133Y-185913265D01*
X81826657Y-186865646D02*
X81779038Y-186913265D01*
X81779038Y-186913265D02*
X81731419Y-187008503D01*
X81731419Y-187008503D02*
X81731419Y-187246598D01*
X81731419Y-187246598D02*
X81779038Y-187341836D01*
X81779038Y-187341836D02*
X81826657Y-187389455D01*
X81826657Y-187389455D02*
X81921895Y-187437074D01*
X81921895Y-187437074D02*
X82017133Y-187437074D01*
X82017133Y-187437074D02*
X82159990Y-187389455D01*
X82159990Y-187389455D02*
X82731419Y-186818027D01*
X82731419Y-186818027D02*
X82731419Y-187437074D01*
X90441419Y-183370646D02*
X90441419Y-183989693D01*
X90441419Y-183989693D02*
X90822371Y-183656360D01*
X90822371Y-183656360D02*
X90822371Y-183799217D01*
X90822371Y-183799217D02*
X90869990Y-183894455D01*
X90869990Y-183894455D02*
X90917609Y-183942074D01*
X90917609Y-183942074D02*
X91012847Y-183989693D01*
X91012847Y-183989693D02*
X91250942Y-183989693D01*
X91250942Y-183989693D02*
X91346180Y-183942074D01*
X91346180Y-183942074D02*
X91393800Y-183894455D01*
X91393800Y-183894455D02*
X91441419Y-183799217D01*
X91441419Y-183799217D02*
X91441419Y-183513503D01*
X91441419Y-183513503D02*
X91393800Y-183418265D01*
X91393800Y-183418265D02*
X91346180Y-183370646D01*
X90774752Y-186894455D02*
X91441419Y-186894455D01*
X90393800Y-186656360D02*
X91108085Y-186418265D01*
X91108085Y-186418265D02*
X91108085Y-187037312D01*
X82731419Y-180484693D02*
X82731419Y-179913265D01*
X82731419Y-180198979D02*
X81731419Y-180198979D01*
X81731419Y-180198979D02*
X81874276Y-180103741D01*
X81874276Y-180103741D02*
X81969514Y-180008503D01*
X81969514Y-180008503D02*
X82017133Y-179913265D01*
X82159990Y-181056122D02*
X82112371Y-180960884D01*
X82112371Y-180960884D02*
X82064752Y-180913265D01*
X82064752Y-180913265D02*
X81969514Y-180865646D01*
X81969514Y-180865646D02*
X81921895Y-180865646D01*
X81921895Y-180865646D02*
X81826657Y-180913265D01*
X81826657Y-180913265D02*
X81779038Y-180960884D01*
X81779038Y-180960884D02*
X81731419Y-181056122D01*
X81731419Y-181056122D02*
X81731419Y-181246598D01*
X81731419Y-181246598D02*
X81779038Y-181341836D01*
X81779038Y-181341836D02*
X81826657Y-181389455D01*
X81826657Y-181389455D02*
X81921895Y-181437074D01*
X81921895Y-181437074D02*
X81969514Y-181437074D01*
X81969514Y-181437074D02*
X82064752Y-181389455D01*
X82064752Y-181389455D02*
X82112371Y-181341836D01*
X82112371Y-181341836D02*
X82159990Y-181246598D01*
X82159990Y-181246598D02*
X82159990Y-181056122D01*
X82159990Y-181056122D02*
X82207609Y-180960884D01*
X82207609Y-180960884D02*
X82255228Y-180913265D01*
X82255228Y-180913265D02*
X82350466Y-180865646D01*
X82350466Y-180865646D02*
X82540942Y-180865646D01*
X82540942Y-180865646D02*
X82636180Y-180913265D01*
X82636180Y-180913265D02*
X82683800Y-180960884D01*
X82683800Y-180960884D02*
X82731419Y-181056122D01*
X82731419Y-181056122D02*
X82731419Y-181246598D01*
X82731419Y-181246598D02*
X82683800Y-181341836D01*
X82683800Y-181341836D02*
X82636180Y-181389455D01*
X82636180Y-181389455D02*
X82540942Y-181437074D01*
X82540942Y-181437074D02*
X82350466Y-181437074D01*
X82350466Y-181437074D02*
X82255228Y-181389455D01*
X82255228Y-181389455D02*
X82207609Y-181341836D01*
X82207609Y-181341836D02*
X82159990Y-181246598D01*
X82731419Y-183484693D02*
X82731419Y-182913265D01*
X82731419Y-183198979D02*
X81731419Y-183198979D01*
X81731419Y-183198979D02*
X81874276Y-183103741D01*
X81874276Y-183103741D02*
X81969514Y-183008503D01*
X81969514Y-183008503D02*
X82017133Y-182913265D01*
X81731419Y-184103741D02*
X81731419Y-184198979D01*
X81731419Y-184198979D02*
X81779038Y-184294217D01*
X81779038Y-184294217D02*
X81826657Y-184341836D01*
X81826657Y-184341836D02*
X81921895Y-184389455D01*
X81921895Y-184389455D02*
X82112371Y-184437074D01*
X82112371Y-184437074D02*
X82350466Y-184437074D01*
X82350466Y-184437074D02*
X82540942Y-184389455D01*
X82540942Y-184389455D02*
X82636180Y-184341836D01*
X82636180Y-184341836D02*
X82683800Y-184294217D01*
X82683800Y-184294217D02*
X82731419Y-184198979D01*
X82731419Y-184198979D02*
X82731419Y-184103741D01*
X82731419Y-184103741D02*
X82683800Y-184008503D01*
X82683800Y-184008503D02*
X82636180Y-183960884D01*
X82636180Y-183960884D02*
X82540942Y-183913265D01*
X82540942Y-183913265D02*
X82350466Y-183865646D01*
X82350466Y-183865646D02*
X82112371Y-183865646D01*
X82112371Y-183865646D02*
X81921895Y-183913265D01*
X81921895Y-183913265D02*
X81826657Y-183960884D01*
X81826657Y-183960884D02*
X81779038Y-184008503D01*
X81779038Y-184008503D02*
X81731419Y-184103741D01*
X90536657Y-189418265D02*
X90489038Y-189465884D01*
X90489038Y-189465884D02*
X90441419Y-189561122D01*
X90441419Y-189561122D02*
X90441419Y-189799217D01*
X90441419Y-189799217D02*
X90489038Y-189894455D01*
X90489038Y-189894455D02*
X90536657Y-189942074D01*
X90536657Y-189942074D02*
X90631895Y-189989693D01*
X90631895Y-189989693D02*
X90727133Y-189989693D01*
X90727133Y-189989693D02*
X90869990Y-189942074D01*
X90869990Y-189942074D02*
X91441419Y-189370646D01*
X91441419Y-189370646D02*
X91441419Y-189989693D01*
X90441419Y-201370646D02*
X90441419Y-202037312D01*
X90441419Y-202037312D02*
X91441419Y-201608741D01*
X91441419Y-180489693D02*
X91441419Y-179918265D01*
X91441419Y-180203979D02*
X90441419Y-180203979D01*
X90441419Y-180203979D02*
X90584276Y-180108741D01*
X90584276Y-180108741D02*
X90679514Y-180013503D01*
X90679514Y-180013503D02*
X90727133Y-179918265D01*
X90441419Y-181346836D02*
X90441419Y-181156360D01*
X90441419Y-181156360D02*
X90489038Y-181061122D01*
X90489038Y-181061122D02*
X90536657Y-181013503D01*
X90536657Y-181013503D02*
X90679514Y-180918265D01*
X90679514Y-180918265D02*
X90869990Y-180870646D01*
X90869990Y-180870646D02*
X91250942Y-180870646D01*
X91250942Y-180870646D02*
X91346180Y-180918265D01*
X91346180Y-180918265D02*
X91393800Y-180965884D01*
X91393800Y-180965884D02*
X91441419Y-181061122D01*
X91441419Y-181061122D02*
X91441419Y-181251598D01*
X91441419Y-181251598D02*
X91393800Y-181346836D01*
X91393800Y-181346836D02*
X91346180Y-181394455D01*
X91346180Y-181394455D02*
X91250942Y-181442074D01*
X91250942Y-181442074D02*
X91012847Y-181442074D01*
X91012847Y-181442074D02*
X90917609Y-181394455D01*
X90917609Y-181394455D02*
X90869990Y-181346836D01*
X90869990Y-181346836D02*
X90822371Y-181251598D01*
X90822371Y-181251598D02*
X90822371Y-181061122D01*
X90822371Y-181061122D02*
X90869990Y-180965884D01*
X90869990Y-180965884D02*
X90917609Y-180918265D01*
X90917609Y-180918265D02*
X91012847Y-180870646D01*
X82731419Y-201508503D02*
X82731419Y-201698979D01*
X82731419Y-201698979D02*
X82683800Y-201794217D01*
X82683800Y-201794217D02*
X82636180Y-201841836D01*
X82636180Y-201841836D02*
X82493323Y-201937074D01*
X82493323Y-201937074D02*
X82302847Y-201984693D01*
X82302847Y-201984693D02*
X81921895Y-201984693D01*
X81921895Y-201984693D02*
X81826657Y-201937074D01*
X81826657Y-201937074D02*
X81779038Y-201889455D01*
X81779038Y-201889455D02*
X81731419Y-201794217D01*
X81731419Y-201794217D02*
X81731419Y-201603741D01*
X81731419Y-201603741D02*
X81779038Y-201508503D01*
X81779038Y-201508503D02*
X81826657Y-201460884D01*
X81826657Y-201460884D02*
X81921895Y-201413265D01*
X81921895Y-201413265D02*
X82159990Y-201413265D01*
X82159990Y-201413265D02*
X82255228Y-201460884D01*
X82255228Y-201460884D02*
X82302847Y-201508503D01*
X82302847Y-201508503D02*
X82350466Y-201603741D01*
X82350466Y-201603741D02*
X82350466Y-201794217D01*
X82350466Y-201794217D02*
X82302847Y-201889455D01*
X82302847Y-201889455D02*
X82255228Y-201937074D01*
X82255228Y-201937074D02*
X82159990Y-201984693D01*
X90441419Y-204942074D02*
X90441419Y-204465884D01*
X90441419Y-204465884D02*
X90917609Y-204418265D01*
X90917609Y-204418265D02*
X90869990Y-204465884D01*
X90869990Y-204465884D02*
X90822371Y-204561122D01*
X90822371Y-204561122D02*
X90822371Y-204799217D01*
X90822371Y-204799217D02*
X90869990Y-204894455D01*
X90869990Y-204894455D02*
X90917609Y-204942074D01*
X90917609Y-204942074D02*
X91012847Y-204989693D01*
X91012847Y-204989693D02*
X91250942Y-204989693D01*
X91250942Y-204989693D02*
X91346180Y-204942074D01*
X91346180Y-204942074D02*
X91393800Y-204894455D01*
X91393800Y-204894455D02*
X91441419Y-204799217D01*
X91441419Y-204799217D02*
X91441419Y-204561122D01*
X91441419Y-204561122D02*
X91393800Y-204465884D01*
X91393800Y-204465884D02*
X91346180Y-204418265D01*
X81826657Y-209913265D02*
X81779038Y-209960884D01*
X81779038Y-209960884D02*
X81731419Y-210056122D01*
X81731419Y-210056122D02*
X81731419Y-210294217D01*
X81731419Y-210294217D02*
X81779038Y-210389455D01*
X81779038Y-210389455D02*
X81826657Y-210437074D01*
X81826657Y-210437074D02*
X81921895Y-210484693D01*
X81921895Y-210484693D02*
X82017133Y-210484693D01*
X82017133Y-210484693D02*
X82159990Y-210437074D01*
X82159990Y-210437074D02*
X82731419Y-209865646D01*
X82731419Y-209865646D02*
X82731419Y-210484693D01*
X82731419Y-211437074D02*
X82731419Y-210865646D01*
X82731419Y-211151360D02*
X81731419Y-211151360D01*
X81731419Y-211151360D02*
X81874276Y-211056122D01*
X81874276Y-211056122D02*
X81969514Y-210960884D01*
X81969514Y-210960884D02*
X82017133Y-210865646D01*
X82731419Y-198484693D02*
X82731419Y-197913265D01*
X82731419Y-198198979D02*
X81731419Y-198198979D01*
X81731419Y-198198979D02*
X81874276Y-198103741D01*
X81874276Y-198103741D02*
X81969514Y-198008503D01*
X81969514Y-198008503D02*
X82017133Y-197913265D01*
X82731419Y-199437074D02*
X82731419Y-198865646D01*
X82731419Y-199151360D02*
X81731419Y-199151360D01*
X81731419Y-199151360D02*
X81874276Y-199056122D01*
X81874276Y-199056122D02*
X81969514Y-198960884D01*
X81969514Y-198960884D02*
X82017133Y-198865646D01*
D11*
X429163203Y-194639114D02*
X427734632Y-194639114D01*
X429448917Y-195496257D02*
X428448917Y-192496257D01*
X428448917Y-192496257D02*
X427448917Y-195496257D01*
X425163203Y-195353400D02*
X425448917Y-195496257D01*
X425448917Y-195496257D02*
X426020345Y-195496257D01*
X426020345Y-195496257D02*
X426306060Y-195353400D01*
X426306060Y-195353400D02*
X426448917Y-195210542D01*
X426448917Y-195210542D02*
X426591774Y-194924828D01*
X426591774Y-194924828D02*
X426591774Y-194067685D01*
X426591774Y-194067685D02*
X426448917Y-193781971D01*
X426448917Y-193781971D02*
X426306060Y-193639114D01*
X426306060Y-193639114D02*
X426020345Y-193496257D01*
X426020345Y-193496257D02*
X425448917Y-193496257D01*
X425448917Y-193496257D02*
X425163203Y-193639114D01*
X422591774Y-195353400D02*
X422877488Y-195496257D01*
X422877488Y-195496257D02*
X423448916Y-195496257D01*
X423448916Y-195496257D02*
X423734631Y-195353400D01*
X423734631Y-195353400D02*
X423877488Y-195210542D01*
X423877488Y-195210542D02*
X424020345Y-194924828D01*
X424020345Y-194924828D02*
X424020345Y-194067685D01*
X424020345Y-194067685D02*
X423877488Y-193781971D01*
X423877488Y-193781971D02*
X423734631Y-193639114D01*
X423734631Y-193639114D02*
X423448916Y-193496257D01*
X423448916Y-193496257D02*
X422877488Y-193496257D01*
X422877488Y-193496257D02*
X422591774Y-193639114D01*
X420020345Y-193496257D02*
X420020345Y-195496257D01*
X421306059Y-193496257D02*
X421306059Y-195067685D01*
X421306059Y-195067685D02*
X421163202Y-195353400D01*
X421163202Y-195353400D02*
X420877487Y-195496257D01*
X420877487Y-195496257D02*
X420448916Y-195496257D01*
X420448916Y-195496257D02*
X420163202Y-195353400D01*
X420163202Y-195353400D02*
X420020345Y-195210542D01*
X418591773Y-195496257D02*
X418591773Y-193496257D01*
X418591773Y-193781971D02*
X418448916Y-193639114D01*
X418448916Y-193639114D02*
X418163201Y-193496257D01*
X418163201Y-193496257D02*
X417734630Y-193496257D01*
X417734630Y-193496257D02*
X417448916Y-193639114D01*
X417448916Y-193639114D02*
X417306059Y-193924828D01*
X417306059Y-193924828D02*
X417306059Y-195496257D01*
X417306059Y-193924828D02*
X417163201Y-193639114D01*
X417163201Y-193639114D02*
X416877487Y-193496257D01*
X416877487Y-193496257D02*
X416448916Y-193496257D01*
X416448916Y-193496257D02*
X416163201Y-193639114D01*
X416163201Y-193639114D02*
X416020344Y-193924828D01*
X416020344Y-193924828D02*
X416020344Y-195496257D01*
X413306059Y-193496257D02*
X413306059Y-195496257D01*
X414591773Y-193496257D02*
X414591773Y-195067685D01*
X414591773Y-195067685D02*
X414448916Y-195353400D01*
X414448916Y-195353400D02*
X414163201Y-195496257D01*
X414163201Y-195496257D02*
X413734630Y-195496257D01*
X413734630Y-195496257D02*
X413448916Y-195353400D01*
X413448916Y-195353400D02*
X413306059Y-195210542D01*
X411448915Y-195496257D02*
X411734630Y-195353400D01*
X411734630Y-195353400D02*
X411877487Y-195067685D01*
X411877487Y-195067685D02*
X411877487Y-192496257D01*
X409020344Y-195496257D02*
X409020344Y-193924828D01*
X409020344Y-193924828D02*
X409163201Y-193639114D01*
X409163201Y-193639114D02*
X409448915Y-193496257D01*
X409448915Y-193496257D02*
X410020344Y-193496257D01*
X410020344Y-193496257D02*
X410306058Y-193639114D01*
X409020344Y-195353400D02*
X409306058Y-195496257D01*
X409306058Y-195496257D02*
X410020344Y-195496257D01*
X410020344Y-195496257D02*
X410306058Y-195353400D01*
X410306058Y-195353400D02*
X410448915Y-195067685D01*
X410448915Y-195067685D02*
X410448915Y-194781971D01*
X410448915Y-194781971D02*
X410306058Y-194496257D01*
X410306058Y-194496257D02*
X410020344Y-194353400D01*
X410020344Y-194353400D02*
X409306058Y-194353400D01*
X409306058Y-194353400D02*
X409020344Y-194210542D01*
X408020343Y-193496257D02*
X406877486Y-193496257D01*
X407591772Y-192496257D02*
X407591772Y-195067685D01*
X407591772Y-195067685D02*
X407448915Y-195353400D01*
X407448915Y-195353400D02*
X407163200Y-195496257D01*
X407163200Y-195496257D02*
X406877486Y-195496257D01*
X405448914Y-195496257D02*
X405734629Y-195353400D01*
X405734629Y-195353400D02*
X405877486Y-195210542D01*
X405877486Y-195210542D02*
X406020343Y-194924828D01*
X406020343Y-194924828D02*
X406020343Y-194067685D01*
X406020343Y-194067685D02*
X405877486Y-193781971D01*
X405877486Y-193781971D02*
X405734629Y-193639114D01*
X405734629Y-193639114D02*
X405448914Y-193496257D01*
X405448914Y-193496257D02*
X405020343Y-193496257D01*
X405020343Y-193496257D02*
X404734629Y-193639114D01*
X404734629Y-193639114D02*
X404591772Y-193781971D01*
X404591772Y-193781971D02*
X404448914Y-194067685D01*
X404448914Y-194067685D02*
X404448914Y-194924828D01*
X404448914Y-194924828D02*
X404591772Y-195210542D01*
X404591772Y-195210542D02*
X404734629Y-195353400D01*
X404734629Y-195353400D02*
X405020343Y-195496257D01*
X405020343Y-195496257D02*
X405448914Y-195496257D01*
X403163200Y-195496257D02*
X403163200Y-193496257D01*
X403163200Y-194067685D02*
X403020343Y-193781971D01*
X403020343Y-193781971D02*
X402877486Y-193639114D01*
X402877486Y-193639114D02*
X402591771Y-193496257D01*
X402591771Y-193496257D02*
X402306057Y-193496257D01*
X399448914Y-193496257D02*
X398306057Y-193496257D01*
X399020343Y-192496257D02*
X399020343Y-195067685D01*
X399020343Y-195067685D02*
X398877486Y-195353400D01*
X398877486Y-195353400D02*
X398591771Y-195496257D01*
X398591771Y-195496257D02*
X398306057Y-195496257D01*
X396877485Y-195496257D02*
X397163200Y-195353400D01*
X397163200Y-195353400D02*
X397306057Y-195210542D01*
X397306057Y-195210542D02*
X397448914Y-194924828D01*
X397448914Y-194924828D02*
X397448914Y-194067685D01*
X397448914Y-194067685D02*
X397306057Y-193781971D01*
X397306057Y-193781971D02*
X397163200Y-193639114D01*
X397163200Y-193639114D02*
X396877485Y-193496257D01*
X396877485Y-193496257D02*
X396448914Y-193496257D01*
X396448914Y-193496257D02*
X396163200Y-193639114D01*
X396163200Y-193639114D02*
X396020343Y-193781971D01*
X396020343Y-193781971D02*
X395877485Y-194067685D01*
X395877485Y-194067685D02*
X395877485Y-194924828D01*
X395877485Y-194924828D02*
X396020343Y-195210542D01*
X396020343Y-195210542D02*
X396163200Y-195353400D01*
X396163200Y-195353400D02*
X396448914Y-195496257D01*
X396448914Y-195496257D02*
X396877485Y-195496257D01*
X394591771Y-193496257D02*
X394591771Y-196496257D01*
X394591771Y-193639114D02*
X394306057Y-193496257D01*
X394306057Y-193496257D02*
X393734628Y-193496257D01*
X393734628Y-193496257D02*
X393448914Y-193639114D01*
X393448914Y-193639114D02*
X393306057Y-193781971D01*
X393306057Y-193781971D02*
X393163199Y-194067685D01*
X393163199Y-194067685D02*
X393163199Y-194924828D01*
X393163199Y-194924828D02*
X393306057Y-195210542D01*
X393306057Y-195210542D02*
X393448914Y-195353400D01*
X393448914Y-195353400D02*
X393734628Y-195496257D01*
X393734628Y-195496257D02*
X394306057Y-195496257D01*
X394306057Y-195496257D02*
X394591771Y-195353400D01*
X389591771Y-195496257D02*
X389591771Y-192496257D01*
X389591771Y-192496257D02*
X388448914Y-192496257D01*
X388448914Y-192496257D02*
X388163199Y-192639114D01*
X388163199Y-192639114D02*
X388020342Y-192781971D01*
X388020342Y-192781971D02*
X387877485Y-193067685D01*
X387877485Y-193067685D02*
X387877485Y-193496257D01*
X387877485Y-193496257D02*
X388020342Y-193781971D01*
X388020342Y-193781971D02*
X388163199Y-193924828D01*
X388163199Y-193924828D02*
X388448914Y-194067685D01*
X388448914Y-194067685D02*
X389591771Y-194067685D01*
X384877485Y-195210542D02*
X385020342Y-195353400D01*
X385020342Y-195353400D02*
X385448914Y-195496257D01*
X385448914Y-195496257D02*
X385734628Y-195496257D01*
X385734628Y-195496257D02*
X386163199Y-195353400D01*
X386163199Y-195353400D02*
X386448914Y-195067685D01*
X386448914Y-195067685D02*
X386591771Y-194781971D01*
X386591771Y-194781971D02*
X386734628Y-194210542D01*
X386734628Y-194210542D02*
X386734628Y-193781971D01*
X386734628Y-193781971D02*
X386591771Y-193210542D01*
X386591771Y-193210542D02*
X386448914Y-192924828D01*
X386448914Y-192924828D02*
X386163199Y-192639114D01*
X386163199Y-192639114D02*
X385734628Y-192496257D01*
X385734628Y-192496257D02*
X385448914Y-192496257D01*
X385448914Y-192496257D02*
X385020342Y-192639114D01*
X385020342Y-192639114D02*
X384877485Y-192781971D01*
X382591771Y-193924828D02*
X382163199Y-194067685D01*
X382163199Y-194067685D02*
X382020342Y-194210542D01*
X382020342Y-194210542D02*
X381877485Y-194496257D01*
X381877485Y-194496257D02*
X381877485Y-194924828D01*
X381877485Y-194924828D02*
X382020342Y-195210542D01*
X382020342Y-195210542D02*
X382163199Y-195353400D01*
X382163199Y-195353400D02*
X382448914Y-195496257D01*
X382448914Y-195496257D02*
X383591771Y-195496257D01*
X383591771Y-195496257D02*
X383591771Y-192496257D01*
X383591771Y-192496257D02*
X382591771Y-192496257D01*
X382591771Y-192496257D02*
X382306057Y-192639114D01*
X382306057Y-192639114D02*
X382163199Y-192781971D01*
X382163199Y-192781971D02*
X382020342Y-193067685D01*
X382020342Y-193067685D02*
X382020342Y-193353400D01*
X382020342Y-193353400D02*
X382163199Y-193639114D01*
X382163199Y-193639114D02*
X382306057Y-193781971D01*
X382306057Y-193781971D02*
X382591771Y-193924828D01*
X382591771Y-193924828D02*
X383591771Y-193924828D01*
X378591771Y-193496257D02*
X378020343Y-195496257D01*
X378020343Y-195496257D02*
X377448914Y-194067685D01*
X377448914Y-194067685D02*
X376877485Y-195496257D01*
X376877485Y-195496257D02*
X376306057Y-193496257D01*
X375163200Y-195496257D02*
X375163200Y-193496257D01*
X375163200Y-192496257D02*
X375306057Y-192639114D01*
X375306057Y-192639114D02*
X375163200Y-192781971D01*
X375163200Y-192781971D02*
X375020343Y-192639114D01*
X375020343Y-192639114D02*
X375163200Y-192496257D01*
X375163200Y-192496257D02*
X375163200Y-192781971D01*
X374163200Y-193496257D02*
X373020343Y-193496257D01*
X373734629Y-192496257D02*
X373734629Y-195067685D01*
X373734629Y-195067685D02*
X373591772Y-195353400D01*
X373591772Y-195353400D02*
X373306057Y-195496257D01*
X373306057Y-195496257D02*
X373020343Y-195496257D01*
X372020343Y-195496257D02*
X372020343Y-192496257D01*
X370734629Y-195496257D02*
X370734629Y-193924828D01*
X370734629Y-193924828D02*
X370877486Y-193639114D01*
X370877486Y-193639114D02*
X371163200Y-193496257D01*
X371163200Y-193496257D02*
X371591771Y-193496257D01*
X371591771Y-193496257D02*
X371877486Y-193639114D01*
X371877486Y-193639114D02*
X372020343Y-193781971D01*
X366020343Y-193924828D02*
X367020343Y-193924828D01*
X367020343Y-195496257D02*
X367020343Y-192496257D01*
X367020343Y-192496257D02*
X365591771Y-192496257D01*
X363163200Y-193496257D02*
X363163200Y-195496257D01*
X364448914Y-193496257D02*
X364448914Y-195067685D01*
X364448914Y-195067685D02*
X364306057Y-195353400D01*
X364306057Y-195353400D02*
X364020342Y-195496257D01*
X364020342Y-195496257D02*
X363591771Y-195496257D01*
X363591771Y-195496257D02*
X363306057Y-195353400D01*
X363306057Y-195353400D02*
X363163200Y-195210542D01*
X361877485Y-195353400D02*
X361591771Y-195496257D01*
X361591771Y-195496257D02*
X361020342Y-195496257D01*
X361020342Y-195496257D02*
X360734628Y-195353400D01*
X360734628Y-195353400D02*
X360591771Y-195067685D01*
X360591771Y-195067685D02*
X360591771Y-194924828D01*
X360591771Y-194924828D02*
X360734628Y-194639114D01*
X360734628Y-194639114D02*
X361020342Y-194496257D01*
X361020342Y-194496257D02*
X361448914Y-194496257D01*
X361448914Y-194496257D02*
X361734628Y-194353400D01*
X361734628Y-194353400D02*
X361877485Y-194067685D01*
X361877485Y-194067685D02*
X361877485Y-193924828D01*
X361877485Y-193924828D02*
X361734628Y-193639114D01*
X361734628Y-193639114D02*
X361448914Y-193496257D01*
X361448914Y-193496257D02*
X361020342Y-193496257D01*
X361020342Y-193496257D02*
X360734628Y-193639114D01*
X358163200Y-195353400D02*
X358448914Y-195496257D01*
X358448914Y-195496257D02*
X359020343Y-195496257D01*
X359020343Y-195496257D02*
X359306057Y-195353400D01*
X359306057Y-195353400D02*
X359448914Y-195067685D01*
X359448914Y-195067685D02*
X359448914Y-193924828D01*
X359448914Y-193924828D02*
X359306057Y-193639114D01*
X359306057Y-193639114D02*
X359020343Y-193496257D01*
X359020343Y-193496257D02*
X358448914Y-193496257D01*
X358448914Y-193496257D02*
X358163200Y-193639114D01*
X358163200Y-193639114D02*
X358020343Y-193924828D01*
X358020343Y-193924828D02*
X358020343Y-194210542D01*
X358020343Y-194210542D02*
X359448914Y-194496257D01*
D10*
X90441419Y-192894455D02*
X90441419Y-192703979D01*
X90441419Y-192703979D02*
X90489038Y-192608741D01*
X90489038Y-192608741D02*
X90536657Y-192561122D01*
X90536657Y-192561122D02*
X90679514Y-192465884D01*
X90679514Y-192465884D02*
X90869990Y-192418265D01*
X90869990Y-192418265D02*
X91250942Y-192418265D01*
X91250942Y-192418265D02*
X91346180Y-192465884D01*
X91346180Y-192465884D02*
X91393800Y-192513503D01*
X91393800Y-192513503D02*
X91441419Y-192608741D01*
X91441419Y-192608741D02*
X91441419Y-192799217D01*
X91441419Y-192799217D02*
X91393800Y-192894455D01*
X91393800Y-192894455D02*
X91346180Y-192942074D01*
X91346180Y-192942074D02*
X91250942Y-192989693D01*
X91250942Y-192989693D02*
X91012847Y-192989693D01*
X91012847Y-192989693D02*
X90917609Y-192942074D01*
X90917609Y-192942074D02*
X90869990Y-192894455D01*
X90869990Y-192894455D02*
X90822371Y-192799217D01*
X90822371Y-192799217D02*
X90822371Y-192608741D01*
X90822371Y-192608741D02*
X90869990Y-192513503D01*
X90869990Y-192513503D02*
X90917609Y-192465884D01*
X90917609Y-192465884D02*
X91012847Y-192418265D01*
D12*
X512321676Y-169933537D02*
X508321676Y-169933537D01*
X510226438Y-169933537D02*
X510226438Y-172219252D01*
X512321676Y-172219252D02*
X508321676Y-172219252D01*
X512321676Y-174124013D02*
X508321676Y-174124013D01*
X512321676Y-176409728D02*
X510035961Y-174695442D01*
X508321676Y-176409728D02*
X510607390Y-174124013D01*
X508321676Y-178124013D02*
X511559771Y-178124013D01*
X511559771Y-178124013D02*
X511940723Y-178314490D01*
X511940723Y-178314490D02*
X512131200Y-178504966D01*
X512131200Y-178504966D02*
X512321676Y-178885918D01*
X512321676Y-178885918D02*
X512321676Y-179647823D01*
X512321676Y-179647823D02*
X512131200Y-180028775D01*
X512131200Y-180028775D02*
X511940723Y-180219252D01*
X511940723Y-180219252D02*
X511559771Y-180409728D01*
X511559771Y-180409728D02*
X508321676Y-180409728D01*
X512131200Y-182124013D02*
X512321676Y-182695442D01*
X512321676Y-182695442D02*
X512321676Y-183647823D01*
X512321676Y-183647823D02*
X512131200Y-184028775D01*
X512131200Y-184028775D02*
X511940723Y-184219251D01*
X511940723Y-184219251D02*
X511559771Y-184409728D01*
X511559771Y-184409728D02*
X511178819Y-184409728D01*
X511178819Y-184409728D02*
X510797866Y-184219251D01*
X510797866Y-184219251D02*
X510607390Y-184028775D01*
X510607390Y-184028775D02*
X510416914Y-183647823D01*
X510416914Y-183647823D02*
X510226438Y-182885918D01*
X510226438Y-182885918D02*
X510035961Y-182504966D01*
X510035961Y-182504966D02*
X509845485Y-182314489D01*
X509845485Y-182314489D02*
X509464533Y-182124013D01*
X509464533Y-182124013D02*
X509083580Y-182124013D01*
X509083580Y-182124013D02*
X508702628Y-182314489D01*
X508702628Y-182314489D02*
X508512152Y-182504966D01*
X508512152Y-182504966D02*
X508321676Y-182885918D01*
X508321676Y-182885918D02*
X508321676Y-183838299D01*
X508321676Y-183838299D02*
X508512152Y-184409728D01*
X508321676Y-185552585D02*
X508321676Y-187838299D01*
X512321676Y-186695442D02*
X508321676Y-186695442D01*
X512321676Y-194504966D02*
X510416914Y-193171632D01*
X512321676Y-192219251D02*
X508321676Y-192219251D01*
X508321676Y-192219251D02*
X508321676Y-193743061D01*
X508321676Y-193743061D02*
X508512152Y-194124013D01*
X508512152Y-194124013D02*
X508702628Y-194314490D01*
X508702628Y-194314490D02*
X509083580Y-194504966D01*
X509083580Y-194504966D02*
X509655009Y-194504966D01*
X509655009Y-194504966D02*
X510035961Y-194314490D01*
X510035961Y-194314490D02*
X510226438Y-194124013D01*
X510226438Y-194124013D02*
X510416914Y-193743061D01*
X510416914Y-193743061D02*
X510416914Y-192219251D01*
X510226438Y-197552585D02*
X510416914Y-198124013D01*
X510416914Y-198124013D02*
X510607390Y-198314490D01*
X510607390Y-198314490D02*
X510988342Y-198504966D01*
X510988342Y-198504966D02*
X511559771Y-198504966D01*
X511559771Y-198504966D02*
X511940723Y-198314490D01*
X511940723Y-198314490D02*
X512131200Y-198124013D01*
X512131200Y-198124013D02*
X512321676Y-197743061D01*
X512321676Y-197743061D02*
X512321676Y-196219251D01*
X512321676Y-196219251D02*
X508321676Y-196219251D01*
X508321676Y-196219251D02*
X508321676Y-197552585D01*
X508321676Y-197552585D02*
X508512152Y-197933537D01*
X508512152Y-197933537D02*
X508702628Y-198124013D01*
X508702628Y-198124013D02*
X509083580Y-198314490D01*
X509083580Y-198314490D02*
X509464533Y-198314490D01*
X509464533Y-198314490D02*
X509845485Y-198124013D01*
X509845485Y-198124013D02*
X510035961Y-197933537D01*
X510035961Y-197933537D02*
X510226438Y-197552585D01*
X510226438Y-197552585D02*
X510226438Y-196219251D01*
X512321676Y-202504966D02*
X510416914Y-201171632D01*
X512321676Y-200219251D02*
X508321676Y-200219251D01*
X508321676Y-200219251D02*
X508321676Y-201743061D01*
X508321676Y-201743061D02*
X508512152Y-202124013D01*
X508512152Y-202124013D02*
X508702628Y-202314490D01*
X508702628Y-202314490D02*
X509083580Y-202504966D01*
X509083580Y-202504966D02*
X509655009Y-202504966D01*
X509655009Y-202504966D02*
X510035961Y-202314490D01*
X510035961Y-202314490D02*
X510226438Y-202124013D01*
X510226438Y-202124013D02*
X510416914Y-201743061D01*
X510416914Y-201743061D02*
X510416914Y-200219251D01*
X510226438Y-207266870D02*
X510226438Y-208600204D01*
X512321676Y-209171632D02*
X512321676Y-207266870D01*
X512321676Y-207266870D02*
X508321676Y-207266870D01*
X508321676Y-207266870D02*
X508321676Y-209171632D01*
X508321676Y-210314490D02*
X512321676Y-211647823D01*
X512321676Y-211647823D02*
X508321676Y-212981157D01*
X512321676Y-216600204D02*
X510416914Y-215266870D01*
X512321676Y-214314489D02*
X508321676Y-214314489D01*
X508321676Y-214314489D02*
X508321676Y-215838299D01*
X508321676Y-215838299D02*
X508512152Y-216219251D01*
X508512152Y-216219251D02*
X508702628Y-216409728D01*
X508702628Y-216409728D02*
X509083580Y-216600204D01*
X509083580Y-216600204D02*
X509655009Y-216600204D01*
X509655009Y-216600204D02*
X510035961Y-216409728D01*
X510035961Y-216409728D02*
X510226438Y-216219251D01*
X510226438Y-216219251D02*
X510416914Y-215838299D01*
X510416914Y-215838299D02*
X510416914Y-214314489D01*
X508321676Y-217743061D02*
X508321676Y-220028775D01*
X512321676Y-218885918D02*
X508321676Y-218885918D01*
D10*
X91441419Y-207489693D02*
X91441419Y-206918265D01*
X91441419Y-207203979D02*
X90441419Y-207203979D01*
X90441419Y-207203979D02*
X90584276Y-207108741D01*
X90584276Y-207108741D02*
X90679514Y-207013503D01*
X90679514Y-207013503D02*
X90727133Y-206918265D01*
X90441419Y-208394455D02*
X90441419Y-207918265D01*
X90441419Y-207918265D02*
X90917609Y-207870646D01*
X90917609Y-207870646D02*
X90869990Y-207918265D01*
X90869990Y-207918265D02*
X90822371Y-208013503D01*
X90822371Y-208013503D02*
X90822371Y-208251598D01*
X90822371Y-208251598D02*
X90869990Y-208346836D01*
X90869990Y-208346836D02*
X90917609Y-208394455D01*
X90917609Y-208394455D02*
X91012847Y-208442074D01*
X91012847Y-208442074D02*
X91250942Y-208442074D01*
X91250942Y-208442074D02*
X91346180Y-208394455D01*
X91346180Y-208394455D02*
X91393800Y-208346836D01*
X91393800Y-208346836D02*
X91441419Y-208251598D01*
X91441419Y-208251598D02*
X91441419Y-208013503D01*
X91441419Y-208013503D02*
X91393800Y-207918265D01*
X91393800Y-207918265D02*
X91346180Y-207870646D01*
X81826657Y-176913265D02*
X81779038Y-176960884D01*
X81779038Y-176960884D02*
X81731419Y-177056122D01*
X81731419Y-177056122D02*
X81731419Y-177294217D01*
X81731419Y-177294217D02*
X81779038Y-177389455D01*
X81779038Y-177389455D02*
X81826657Y-177437074D01*
X81826657Y-177437074D02*
X81921895Y-177484693D01*
X81921895Y-177484693D02*
X82017133Y-177484693D01*
X82017133Y-177484693D02*
X82159990Y-177437074D01*
X82159990Y-177437074D02*
X82731419Y-176865646D01*
X82731419Y-176865646D02*
X82731419Y-177484693D01*
X81826657Y-177865646D02*
X81779038Y-177913265D01*
X81779038Y-177913265D02*
X81731419Y-178008503D01*
X81731419Y-178008503D02*
X81731419Y-178246598D01*
X81731419Y-178246598D02*
X81779038Y-178341836D01*
X81779038Y-178341836D02*
X81826657Y-178389455D01*
X81826657Y-178389455D02*
X81921895Y-178437074D01*
X81921895Y-178437074D02*
X82017133Y-178437074D01*
X82017133Y-178437074D02*
X82159990Y-178389455D01*
X82159990Y-178389455D02*
X82731419Y-177818027D01*
X82731419Y-177818027D02*
X82731419Y-178437074D01*
X82731419Y-189484693D02*
X82731419Y-188913265D01*
X82731419Y-189198979D02*
X81731419Y-189198979D01*
X81731419Y-189198979D02*
X81874276Y-189103741D01*
X81874276Y-189103741D02*
X81969514Y-189008503D01*
X81969514Y-189008503D02*
X82017133Y-188913265D01*
X82064752Y-190341836D02*
X82731419Y-190341836D01*
X81683800Y-190103741D02*
X82398085Y-189865646D01*
X82398085Y-189865646D02*
X82398085Y-190484693D01*
X91441419Y-210489693D02*
X91441419Y-209918265D01*
X91441419Y-210203979D02*
X90441419Y-210203979D01*
X90441419Y-210203979D02*
X90584276Y-210108741D01*
X90584276Y-210108741D02*
X90679514Y-210013503D01*
X90679514Y-210013503D02*
X90727133Y-209918265D01*
X90441419Y-210823027D02*
X90441419Y-211489693D01*
X90441419Y-211489693D02*
X91441419Y-211061122D01*
X82731419Y-207484693D02*
X82731419Y-206913265D01*
X82731419Y-207198979D02*
X81731419Y-207198979D01*
X81731419Y-207198979D02*
X81874276Y-207103741D01*
X81874276Y-207103741D02*
X81969514Y-207008503D01*
X81969514Y-207008503D02*
X82017133Y-206913265D01*
X82731419Y-207960884D02*
X82731419Y-208151360D01*
X82731419Y-208151360D02*
X82683800Y-208246598D01*
X82683800Y-208246598D02*
X82636180Y-208294217D01*
X82636180Y-208294217D02*
X82493323Y-208389455D01*
X82493323Y-208389455D02*
X82302847Y-208437074D01*
X82302847Y-208437074D02*
X81921895Y-208437074D01*
X81921895Y-208437074D02*
X81826657Y-208389455D01*
X81826657Y-208389455D02*
X81779038Y-208341836D01*
X81779038Y-208341836D02*
X81731419Y-208246598D01*
X81731419Y-208246598D02*
X81731419Y-208056122D01*
X81731419Y-208056122D02*
X81779038Y-207960884D01*
X81779038Y-207960884D02*
X81826657Y-207913265D01*
X81826657Y-207913265D02*
X81921895Y-207865646D01*
X81921895Y-207865646D02*
X82159990Y-207865646D01*
X82159990Y-207865646D02*
X82255228Y-207913265D01*
X82255228Y-207913265D02*
X82302847Y-207960884D01*
X82302847Y-207960884D02*
X82350466Y-208056122D01*
X82350466Y-208056122D02*
X82350466Y-208246598D01*
X82350466Y-208246598D02*
X82302847Y-208341836D01*
X82302847Y-208341836D02*
X82255228Y-208389455D01*
X82255228Y-208389455D02*
X82159990Y-208437074D01*
M02*
