%TF.GenerationSoftware,KiCad,Pcbnew,9.0.4*%
%TF.CreationDate,2025-09-16T19:44:55+08:00*%
%TF.ProjectId,accum_pcb_up,61636375-6d5f-4706-9362-5f75702e6b69,rev?*%
%TF.SameCoordinates,Original*%
%TF.FileFunction,Soldermask,Bot*%
%TF.FilePolarity,Negative*%
%FSLAX46Y46*%
G04 Gerber Fmt 4.6, Leading zero omitted, Abs format (unit mm)*
G04 Created by KiCad (PCBNEW 9.0.4) date 2025-09-16 19:44:55*
%MOMM*%
%LPD*%
G01*
G04 APERTURE LIST*
G04 Aperture macros list*
%AMRoundRect*
0 Rectangle with rounded corners*
0 $1 Rounding radius*
0 $2 $3 $4 $5 $6 $7 $8 $9 X,Y pos of 4 corners*
0 Add a 4 corners polygon primitive as box body*
4,1,4,$2,$3,$4,$5,$6,$7,$8,$9,$2,$3,0*
0 Add four circle primitives for the rounded corners*
1,1,$1+$1,$2,$3*
1,1,$1+$1,$4,$5*
1,1,$1+$1,$6,$7*
1,1,$1+$1,$8,$9*
0 Add four rect primitives between the rounded corners*
20,1,$1+$1,$2,$3,$4,$5,0*
20,1,$1+$1,$4,$5,$6,$7,0*
20,1,$1+$1,$6,$7,$8,$9,0*
20,1,$1+$1,$8,$9,$2,$3,0*%
G04 Aperture macros list end*
%ADD10C,4.500000*%
%ADD11RoundRect,0.250001X-0.499999X0.499999X-0.499999X-0.499999X0.499999X-0.499999X0.499999X0.499999X0*%
%ADD12C,1.500000*%
%ADD13C,4.300000*%
G04 APERTURE END LIST*
D10*
%TO.C,*%
X235443015Y-179675500D03*
%TD*%
%TO.C,*%
X349583304Y-179680000D03*
%TD*%
%TO.C,*%
X367583985Y-179681500D03*
%TD*%
%TO.C,*%
X501770334Y-179686000D03*
%TD*%
%TO.C,*%
X139303985Y-179672500D03*
%TD*%
%TO.C,*%
X291491015Y-179678500D03*
%TD*%
%TO.C,*%
X177350333Y-179674000D03*
%TD*%
%TO.C,*%
X215382564Y-208611500D03*
%TD*%
%TO.C,*%
X159350015Y-208610500D03*
%TD*%
%TO.C,*%
X177350696Y-208612000D03*
%TD*%
%TO.C,*%
X121303682Y-208611500D03*
%TD*%
%TO.C,*%
X367584348Y-208619500D03*
%TD*%
%TO.C,*%
X443678015Y-208620500D03*
%TD*%
%TO.C,*%
X405631363Y-208619000D03*
%TD*%
%TO.C,*%
X235443378Y-208611500D03*
%TD*%
%TO.C,*%
X387629652Y-179681500D03*
%TD*%
D11*
%TO.C,J1*%
X88070000Y-177652144D03*
D12*
X88070000Y-180652144D03*
X88070000Y-183652144D03*
X88070000Y-186652144D03*
X88070000Y-189652144D03*
X88070000Y-192652144D03*
X88070000Y-195652144D03*
X88070000Y-198652144D03*
X88070000Y-201652144D03*
X88070000Y-204652144D03*
X88070000Y-207652144D03*
X88070000Y-210652144D03*
X85070000Y-177652144D03*
X85070000Y-180652144D03*
X85070000Y-183652144D03*
X85070000Y-186652144D03*
X85070000Y-189652144D03*
X85070000Y-192652144D03*
X85070000Y-195652144D03*
X85070000Y-198652144D03*
X85070000Y-201652144D03*
X85070000Y-204652144D03*
X85070000Y-207652144D03*
X85070000Y-210652144D03*
%TD*%
D10*
%TO.C,*%
X425677030Y-208619000D03*
%TD*%
%TO.C,*%
X311536682Y-208611500D03*
%TD*%
D13*
%TO.C,H2*%
X522111000Y-222119000D03*
%TD*%
D10*
%TO.C,*%
X311536682Y-179678500D03*
%TD*%
%TO.C,*%
X349583667Y-208618000D03*
%TD*%
%TO.C,*%
X197396000Y-179674000D03*
%TD*%
%TO.C,*%
X253444363Y-208613000D03*
%TD*%
%TO.C,*%
X329537637Y-179680000D03*
%TD*%
D13*
%TO.C,H1*%
X522111000Y-166186000D03*
%TD*%
D10*
%TO.C,*%
X291491015Y-208611500D03*
%TD*%
%TO.C,*%
X273490030Y-208613000D03*
%TD*%
%TO.C,*%
X387630015Y-208619500D03*
%TD*%
%TO.C,*%
X273489667Y-179677000D03*
%TD*%
%TO.C,*%
X215397348Y-179675500D03*
%TD*%
%TO.C,*%
X443677652Y-179684500D03*
%TD*%
%TO.C,*%
X463723319Y-179684500D03*
%TD*%
%TO.C,*%
X159349652Y-179672500D03*
%TD*%
%TO.C,*%
X139304348Y-208610500D03*
%TD*%
%TO.C,*%
X101257652Y-179673500D03*
%TD*%
%TO.C,*%
X481724667Y-179686000D03*
%TD*%
%TO.C,*%
X481724667Y-208619000D03*
%TD*%
%TO.C,*%
X121303319Y-179673500D03*
%TD*%
%TO.C,*%
X329538000Y-208618000D03*
%TD*%
D13*
%TO.C,H4*%
X85629000Y-222118000D03*
%TD*%
D10*
%TO.C,*%
X101258015Y-208611500D03*
%TD*%
%TO.C,*%
X501770334Y-208619000D03*
%TD*%
%TO.C,*%
X405631000Y-179683000D03*
%TD*%
%TO.C,*%
X463723682Y-208620500D03*
%TD*%
%TO.C,*%
X425676667Y-179683000D03*
%TD*%
%TO.C,*%
X253444000Y-179677000D03*
%TD*%
%TO.C,*%
X197396363Y-208612000D03*
%TD*%
D13*
%TO.C,H3*%
X85629000Y-166186000D03*
%TD*%
G36*
X446732540Y-200829685D02*
G01*
X446778295Y-200882489D01*
X446789501Y-200934000D01*
X446789501Y-216307000D01*
X446769816Y-216374039D01*
X446717012Y-216419794D01*
X446665501Y-216431000D01*
X440690538Y-216431000D01*
X440623499Y-216411315D01*
X440577744Y-216358511D01*
X440566538Y-216306992D01*
X440567498Y-200933992D01*
X440587187Y-200866954D01*
X440639994Y-200821202D01*
X440691498Y-200810000D01*
X446665501Y-200810000D01*
X446732540Y-200829685D01*
G37*
G36*
X484779192Y-200828185D02*
G01*
X484824947Y-200880989D01*
X484836153Y-200932500D01*
X484836153Y-216305500D01*
X484816468Y-216372539D01*
X484763664Y-216418294D01*
X484712153Y-216429500D01*
X478737190Y-216429500D01*
X478670151Y-216409815D01*
X478624396Y-216357011D01*
X478613190Y-216305492D01*
X478614150Y-200932492D01*
X478633839Y-200865454D01*
X478686646Y-200819702D01*
X478738150Y-200808500D01*
X484712153Y-200808500D01*
X484779192Y-200828185D01*
G37*
G36*
X466777844Y-171893685D02*
G01*
X466823599Y-171946489D01*
X466834805Y-171998000D01*
X466834805Y-187371000D01*
X466815120Y-187438039D01*
X466762316Y-187483794D01*
X466710805Y-187495000D01*
X460735842Y-187495000D01*
X460668803Y-187475315D01*
X460623048Y-187422511D01*
X460611842Y-187370992D01*
X460612802Y-171997992D01*
X460632491Y-171930954D01*
X460685298Y-171885202D01*
X460736802Y-171874000D01*
X466710805Y-171874000D01*
X466777844Y-171893685D01*
G37*
G36*
X218437091Y-200820685D02*
G01*
X218482846Y-200873489D01*
X218494052Y-200925000D01*
X218494052Y-216298000D01*
X218474367Y-216365039D01*
X218421563Y-216410794D01*
X218370052Y-216422000D01*
X212395084Y-216422000D01*
X212328045Y-216402315D01*
X212282290Y-216349511D01*
X212271084Y-216297992D01*
X212272044Y-200924992D01*
X212291733Y-200857954D01*
X212344540Y-200812202D01*
X212396044Y-200801000D01*
X218370052Y-200801000D01*
X218437091Y-200820685D01*
G37*
G36*
X256498888Y-200822185D02*
G01*
X256544643Y-200874989D01*
X256555849Y-200926500D01*
X256555849Y-216299500D01*
X256536164Y-216366539D01*
X256483360Y-216412294D01*
X256431849Y-216423500D01*
X250456886Y-216423500D01*
X250389847Y-216403815D01*
X250344092Y-216351011D01*
X250332886Y-216299492D01*
X250333846Y-200926492D01*
X250353535Y-200859454D01*
X250406342Y-200813702D01*
X250457846Y-200802500D01*
X256431849Y-200802500D01*
X256498888Y-200822185D01*
G37*
G36*
X294545540Y-200820685D02*
G01*
X294591295Y-200873489D01*
X294602501Y-200925000D01*
X294602501Y-216298000D01*
X294582816Y-216365039D01*
X294530012Y-216410794D01*
X294478501Y-216422000D01*
X288503538Y-216422000D01*
X288436499Y-216402315D01*
X288390744Y-216349511D01*
X288379538Y-216297992D01*
X288380498Y-200924992D01*
X288400187Y-200857954D01*
X288452994Y-200812202D01*
X288504498Y-200801000D01*
X294478501Y-200801000D01*
X294545540Y-200820685D01*
G37*
G36*
X162404177Y-171881685D02*
G01*
X162449932Y-171934489D01*
X162461138Y-171986000D01*
X162461138Y-187359000D01*
X162441453Y-187426039D01*
X162388649Y-187471794D01*
X162337138Y-187483000D01*
X156362175Y-187483000D01*
X156295136Y-187463315D01*
X156249381Y-187410511D01*
X156238175Y-187358992D01*
X156239135Y-171985992D01*
X156258824Y-171918954D01*
X156311631Y-171873202D01*
X156363135Y-171862000D01*
X162337138Y-171862000D01*
X162404177Y-171881685D01*
G37*
G36*
X504824859Y-171895185D02*
G01*
X504870614Y-171947989D01*
X504881820Y-171999500D01*
X504881820Y-187372500D01*
X504862135Y-187439539D01*
X504809331Y-187485294D01*
X504757820Y-187496500D01*
X498782857Y-187496500D01*
X498715818Y-187476815D01*
X498670063Y-187424011D01*
X498658857Y-187372492D01*
X498659817Y-171999492D01*
X498679506Y-171932454D01*
X498732313Y-171886702D01*
X498783817Y-171875500D01*
X504757820Y-171875500D01*
X504824859Y-171895185D01*
G37*
G36*
X200450525Y-171883185D02*
G01*
X200496280Y-171935989D01*
X200507486Y-171987500D01*
X200507486Y-187360500D01*
X200487801Y-187427539D01*
X200434997Y-187473294D01*
X200383486Y-187484500D01*
X194408523Y-187484500D01*
X194341484Y-187464815D01*
X194295729Y-187412011D01*
X194284523Y-187360492D01*
X194285483Y-171987492D01*
X194305172Y-171920454D01*
X194357979Y-171874702D01*
X194409483Y-171863500D01*
X200383486Y-171863500D01*
X200450525Y-171883185D01*
G37*
G36*
X408685888Y-200828185D02*
G01*
X408731643Y-200880989D01*
X408742849Y-200932500D01*
X408742849Y-216305500D01*
X408723164Y-216372539D01*
X408670360Y-216418294D01*
X408618849Y-216429500D01*
X402643886Y-216429500D01*
X402576847Y-216409815D01*
X402531092Y-216357011D01*
X402519886Y-216305492D01*
X402520846Y-200932492D01*
X402540535Y-200865454D01*
X402593342Y-200819702D01*
X402644846Y-200808500D01*
X408618849Y-200808500D01*
X408685888Y-200828185D01*
G37*
G36*
X180405221Y-200821185D02*
G01*
X180450976Y-200873989D01*
X180462182Y-200925500D01*
X180462182Y-216298500D01*
X180442497Y-216365539D01*
X180389693Y-216411294D01*
X180338182Y-216422500D01*
X174363219Y-216422500D01*
X174296180Y-216402815D01*
X174250425Y-216350011D01*
X174239219Y-216298492D01*
X174240179Y-200925492D01*
X174259868Y-200858454D01*
X174312675Y-200812702D01*
X174364179Y-200801500D01*
X180338182Y-200801500D01*
X180405221Y-200821185D01*
G37*
G36*
X124284563Y-171882685D02*
G01*
X124330318Y-171935489D01*
X124341524Y-171987000D01*
X124341524Y-187360000D01*
X124321839Y-187427039D01*
X124269035Y-187472794D01*
X124217524Y-187484000D01*
X118242561Y-187484000D01*
X118175522Y-187464315D01*
X118129767Y-187411511D01*
X118118561Y-187359992D01*
X118119521Y-171986992D01*
X118139210Y-171919954D01*
X118192017Y-171874202D01*
X118243521Y-171863000D01*
X124217524Y-171863000D01*
X124284563Y-171882685D01*
G37*
G36*
X238497540Y-171884685D02*
G01*
X238543295Y-171937489D01*
X238554501Y-171989000D01*
X238554501Y-187362000D01*
X238534816Y-187429039D01*
X238482012Y-187474794D01*
X238430501Y-187486000D01*
X232455538Y-187486000D01*
X232388499Y-187466315D01*
X232342744Y-187413511D01*
X232331538Y-187361992D01*
X232332498Y-171988992D01*
X232352187Y-171921954D01*
X232404994Y-171876202D01*
X232456498Y-171865000D01*
X238430501Y-171865000D01*
X238497540Y-171884685D01*
G37*
G36*
X370638873Y-200828685D02*
G01*
X370684628Y-200881489D01*
X370695834Y-200933000D01*
X370695834Y-216306000D01*
X370676149Y-216373039D01*
X370623345Y-216418794D01*
X370571834Y-216430000D01*
X364596871Y-216430000D01*
X364529832Y-216410315D01*
X364484077Y-216357511D01*
X364472871Y-216305992D01*
X364473831Y-200932992D01*
X364493520Y-200865954D01*
X364546327Y-200820202D01*
X364597831Y-200809000D01*
X370571834Y-200809000D01*
X370638873Y-200828685D01*
G37*
G36*
X276544192Y-171886185D02*
G01*
X276589947Y-171938989D01*
X276601153Y-171990500D01*
X276601153Y-187363500D01*
X276581468Y-187430539D01*
X276528664Y-187476294D01*
X276477153Y-187487500D01*
X270502190Y-187487500D01*
X270435151Y-187467815D01*
X270389396Y-187415011D01*
X270378190Y-187363492D01*
X270379150Y-171990492D01*
X270398839Y-171923454D01*
X270451646Y-171877702D01*
X270503150Y-171866500D01*
X276477153Y-171866500D01*
X276544192Y-171886185D01*
G37*
G36*
X352637829Y-171889185D02*
G01*
X352683584Y-171941989D01*
X352694790Y-171993500D01*
X352694790Y-187366500D01*
X352675105Y-187433539D01*
X352622301Y-187479294D01*
X352570790Y-187490500D01*
X346595827Y-187490500D01*
X346528788Y-187470815D01*
X346483033Y-187418011D01*
X346471827Y-187366492D01*
X346472787Y-171993492D01*
X346492476Y-171926454D01*
X346545283Y-171880702D01*
X346596787Y-171869500D01*
X352570790Y-171869500D01*
X352637829Y-171889185D01*
G37*
G36*
X314591207Y-171887685D02*
G01*
X314636962Y-171940489D01*
X314648168Y-171992000D01*
X314648168Y-187365000D01*
X314628483Y-187432039D01*
X314575679Y-187477794D01*
X314524168Y-187489000D01*
X308549205Y-187489000D01*
X308482166Y-187469315D01*
X308436411Y-187416511D01*
X308425205Y-187364992D01*
X308426165Y-171991992D01*
X308445854Y-171924954D01*
X308498661Y-171879202D01*
X308550165Y-171868000D01*
X314524168Y-171868000D01*
X314591207Y-171887685D01*
G37*
G36*
X104312540Y-200820685D02*
G01*
X104358295Y-200873489D01*
X104369501Y-200925000D01*
X104369501Y-216298000D01*
X104349816Y-216365039D01*
X104297012Y-216410794D01*
X104245501Y-216422000D01*
X98270538Y-216422000D01*
X98203499Y-216402315D01*
X98157744Y-216349511D01*
X98146538Y-216297992D01*
X98147498Y-200924992D01*
X98167187Y-200857954D01*
X98219994Y-200812202D01*
X98271498Y-200801000D01*
X104245501Y-200801000D01*
X104312540Y-200820685D01*
G37*
G36*
X428731192Y-171892185D02*
G01*
X428776947Y-171944989D01*
X428788153Y-171996500D01*
X428788153Y-187369500D01*
X428768468Y-187436539D01*
X428715664Y-187482294D01*
X428664153Y-187493500D01*
X422689190Y-187493500D01*
X422622151Y-187473815D01*
X422576396Y-187421011D01*
X422565190Y-187369492D01*
X422566150Y-171996492D01*
X422585839Y-171929454D01*
X422638646Y-171883702D01*
X422690150Y-171872500D01*
X428664153Y-171872500D01*
X428731192Y-171892185D01*
G37*
G36*
X332592525Y-200827185D02*
G01*
X332638280Y-200879989D01*
X332649486Y-200931500D01*
X332649486Y-216304500D01*
X332629801Y-216371539D01*
X332576997Y-216417294D01*
X332525486Y-216428500D01*
X326550523Y-216428500D01*
X326483484Y-216408815D01*
X326437729Y-216356011D01*
X326426523Y-216304492D01*
X326427483Y-200931492D01*
X326447172Y-200864454D01*
X326499979Y-200818702D01*
X326551483Y-200807500D01*
X332525486Y-200807500D01*
X332592525Y-200827185D01*
G37*
G36*
X142358873Y-200819685D02*
G01*
X142404628Y-200872489D01*
X142415834Y-200924000D01*
X142415834Y-216297000D01*
X142396149Y-216364039D01*
X142343345Y-216409794D01*
X142291834Y-216421000D01*
X136316871Y-216421000D01*
X136249832Y-216401315D01*
X136204077Y-216348511D01*
X136192871Y-216296992D01*
X136193831Y-200923992D01*
X136213520Y-200856954D01*
X136266327Y-200811202D01*
X136317831Y-200800000D01*
X142291834Y-200800000D01*
X142358873Y-200819685D01*
G37*
G36*
X390684177Y-171890685D02*
G01*
X390729932Y-171943489D01*
X390741138Y-171995000D01*
X390741138Y-187368000D01*
X390721453Y-187435039D01*
X390668649Y-187480794D01*
X390617138Y-187492000D01*
X384642175Y-187492000D01*
X384575136Y-187472315D01*
X384529381Y-187419511D01*
X384518175Y-187367992D01*
X384519135Y-171994992D01*
X384538824Y-171927954D01*
X384591631Y-171882202D01*
X384643135Y-171871000D01*
X390617138Y-171871000D01*
X390684177Y-171890685D01*
G37*
G36*
X104323117Y-171882685D02*
G01*
X104368872Y-171935489D01*
X104380078Y-171987000D01*
X104380078Y-187360000D01*
X104360393Y-187427039D01*
X104307589Y-187472794D01*
X104256078Y-187484000D01*
X98363118Y-187484000D01*
X98296079Y-187464315D01*
X98250324Y-187411511D01*
X98239118Y-187359992D01*
X98240078Y-171986992D01*
X98259767Y-171919954D01*
X98312574Y-171874202D01*
X98364078Y-171863000D01*
X104256078Y-171863000D01*
X104323117Y-171882685D01*
G37*
M02*
