M48
; DRILL file {KiCad 9.0.4} date 2025-09-16T19:45:07+0800
; FORMAT={-:-/ absolute / metric / decimal}
; #@! TF.CreationDate,2025-09-16T19:45:07+08:00
; #@! TF.GenerationSoftware,Kicad,Pcbnew,9.0.4
; #@! TF.FileFunction,Plated,1,4,PTH
FMAT,2
METRIC
; #@! TA.AperFunction,Plated,PTH,ViaDrill
T1C0.300
; #@! TA.AperFunction,Plated,PTH,ComponentDrill
T2C1.020
; #@! TA.AperFunction,Plated,PTH,ComponentDrill
T3C4.500
%
G90
G05
T1
X98.925Y-194.152
X101.258Y-185.673
X101.258Y-202.611
X109.475Y-194.152
X121.303Y-185.673
X122.891Y-194.152
X133.441Y-194.152
X139.304Y-202.611
X142.842Y-194.152
X144.283Y-167.947
X153.392Y-194.152
X154.833Y-167.947
X159.35Y-173.673
X164.645Y-194.152
X175.195Y-194.152
X177.351Y-214.612
X181.964Y-220.38
X186.846Y-194.152
X192.426Y-220.468
X197.396Y-185.674
X197.396Y-194.152
X215.383Y-214.612
X219.878Y-220.38
X224.906Y-194.152
X230.428Y-220.38
X235.443Y-185.675
X235.456Y-194.152
X253.444Y-214.612
X258.02Y-220.38
X258.197Y-167.947
X268.57Y-221.88
X268.747Y-167.947
X273.49Y-173.673
X280.948Y-194.152
X291.491Y-202.611
X291.498Y-194.152
X296.079Y-167.947
X306.629Y-167.947
X311.537Y-173.673
X318.996Y-194.152
X329.538Y-202.618
X329.546Y-194.152
X339.043Y-194.152
X349.583Y-185.68
X349.593Y-194.152
X367.584Y-214.612
X372.047Y-167.947
X372.584Y-220.38
X382.597Y-167.947
X383.134Y-220.38
X387.63Y-173.673
X405.631Y-214.612
X410.118Y-220.38
X410.339Y-167.947
X420.668Y-220.38
X420.889Y-167.947
X425.677Y-173.673
X443.678Y-214.612
X448.266Y-220.38
X448.407Y-167.947
X458.816Y-220.38
X458.957Y-167.947
X463.723Y-173.673
X469.651Y-194.152
X480.201Y-194.152
X481.725Y-214.612
X488.069Y-220.38
X498.619Y-220.38
X501.77Y-185.673
T2
X85.07Y-177.652
X85.07Y-180.652
X85.07Y-183.652
X85.07Y-186.652
X85.07Y-189.652
X85.07Y-192.652
X85.07Y-195.652
X85.07Y-198.652
X85.07Y-201.652
X85.07Y-204.652
X85.07Y-207.652
X85.07Y-210.652
X88.07Y-177.652
X88.07Y-180.652
X88.07Y-183.652
X88.07Y-186.652
X88.07Y-189.652
X88.07Y-192.652
X88.07Y-195.652
X88.07Y-198.652
X88.07Y-201.652
X88.07Y-204.652
X88.07Y-207.652
X88.07Y-210.652
T3
X101.258Y-179.673
X101.258Y-208.611
X121.303Y-179.673
X121.304Y-208.611
X139.304Y-179.672
X139.304Y-208.611
X159.35Y-179.672
X159.35Y-208.611
X177.35Y-179.674
X177.351Y-208.612
X197.396Y-179.674
X197.396Y-208.612
X215.383Y-208.611
X215.397Y-179.675
X235.443Y-179.675
X235.443Y-208.611
X253.444Y-179.677
X253.444Y-208.613
X273.49Y-179.677
X273.49Y-208.613
X291.491Y-179.678
X291.491Y-208.611
X311.537Y-179.678
X311.537Y-208.611
X329.538Y-179.68
X329.538Y-208.618
X349.583Y-179.68
X349.584Y-208.618
X367.584Y-179.681
X367.584Y-208.619
X387.63Y-179.681
X387.63Y-208.619
X405.631Y-179.683
X405.631Y-208.619
X425.677Y-179.683
X425.677Y-208.619
X443.678Y-179.684
X443.678Y-208.62
X463.723Y-179.684
X463.724Y-208.62
X481.725Y-179.686
X481.725Y-208.619
X501.77Y-179.686
X501.77Y-208.619
M30
