%TF.GenerationSoftware,KiCad,Pcbnew,9.0.4*%
%TF.CreationDate,2025-09-16T19:44:55+08:00*%
%TF.ProjectId,accum_pcb_up,61636375-6d5f-4706-9362-5f75702e6b69,rev?*%
%TF.SameCoordinates,Original*%
%TF.FileFunction,Copper,L1,Top*%
%TF.FilePolarity,Positive*%
%FSLAX46Y46*%
G04 Gerber Fmt 4.6, Leading zero omitted, Abs format (unit mm)*
G04 Created by KiCad (PCBNEW 9.0.4) date 2025-09-16 19:44:55*
%MOMM*%
%LPD*%
G01*
G04 APERTURE LIST*
G04 Aperture macros list*
%AMRoundRect*
0 Rectangle with rounded corners*
0 $1 Rounding radius*
0 $2 $3 $4 $5 $6 $7 $8 $9 X,Y pos of 4 corners*
0 Add a 4 corners polygon primitive as box body*
4,1,4,$2,$3,$4,$5,$6,$7,$8,$9,$2,$3,0*
0 Add four circle primitives for the rounded corners*
1,1,$1+$1,$2,$3*
1,1,$1+$1,$4,$5*
1,1,$1+$1,$6,$7*
1,1,$1+$1,$8,$9*
0 Add four rect primitives between the rounded corners*
20,1,$1+$1,$2,$3,$4,$5,0*
20,1,$1+$1,$4,$5,$6,$7,0*
20,1,$1+$1,$6,$7,$8,$9,0*
20,1,$1+$1,$8,$9,$2,$3,0*%
G04 Aperture macros list end*
%TA.AperFunction,SMDPad,CuDef*%
%ADD10RoundRect,0.218750X-2.331250X-2.231250X2.331250X-2.231250X2.331250X2.231250X-2.331250X2.231250X0*%
%TD*%
%TA.AperFunction,ComponentPad*%
%ADD11C,4.500000*%
%TD*%
%TA.AperFunction,SMDPad,CuDef*%
%ADD12RoundRect,0.218750X2.331250X2.231250X-2.331250X2.231250X-2.331250X-2.231250X2.331250X-2.231250X0*%
%TD*%
%TA.AperFunction,ComponentPad*%
%ADD13RoundRect,0.250001X-0.499999X0.499999X-0.499999X-0.499999X0.499999X-0.499999X0.499999X0.499999X0*%
%TD*%
%TA.AperFunction,ComponentPad*%
%ADD14C,1.500000*%
%TD*%
%TA.AperFunction,ViaPad*%
%ADD15C,0.600000*%
%TD*%
G04 APERTURE END LIST*
D10*
%TO.P,F20,1*%
%TO.N,/Cell_19-*%
X448266000Y-220380000D03*
%TO.P,F20,2*%
%TO.N,/Cell_19-_out*%
X458816000Y-220380000D03*
%TD*%
D11*
%TO.P,,1*%
%TO.N,/Cell_8-*%
X235443015Y-179675500D03*
%TD*%
%TO.P,,1*%
%TO.N,/Cell_14-*%
X349583304Y-179680000D03*
%TD*%
D12*
%TO.P,F11,1*%
%TO.N,/Cell_10-*%
X268747000Y-167947000D03*
%TO.P,F11,2*%
%TO.N,/Cell_10-_out*%
X258197000Y-167947000D03*
%TD*%
D11*
%TO.P,,1*%
%TO.N,N/C*%
X367583985Y-179681500D03*
%TD*%
D10*
%TO.P,F23,1*%
%TO.N,/Cell_22-_out*%
X469651000Y-194152145D03*
%TO.P,F23,2*%
%TO.N,/Cell_22-*%
X480201000Y-194152145D03*
%TD*%
D11*
%TO.P,,1*%
%TO.N,/Cell_22-*%
X501770334Y-179686000D03*
%TD*%
%TO.P,,1*%
%TO.N,N/C*%
X139303985Y-179672500D03*
%TD*%
%TO.P,,1*%
%TO.N,N/C*%
X291491015Y-179678500D03*
%TD*%
%TO.P,,1*%
%TO.N,N/C*%
X177350333Y-179674000D03*
%TD*%
%TO.P,,1*%
%TO.N,/Cell_7-*%
X215382564Y-208611500D03*
%TD*%
%TO.P,,1*%
%TO.N,N/C*%
X159350015Y-208610500D03*
%TD*%
D12*
%TO.P,F4,1*%
%TO.N,/Cell_3-*%
X175195000Y-194152145D03*
%TO.P,F4,2*%
%TO.N,/Cell_3-_out*%
X164645000Y-194152145D03*
%TD*%
D11*
%TO.P,,1*%
%TO.N,/Cell_5-*%
X177350696Y-208612000D03*
%TD*%
%TO.P,,1*%
%TO.N,N/C*%
X121303682Y-208611500D03*
%TD*%
%TO.P,,1*%
%TO.N,/Cell_15-*%
X367584348Y-208619500D03*
%TD*%
%TO.P,,1*%
%TO.N,/Cell_19-*%
X443678015Y-208620500D03*
%TD*%
%TO.P,,1*%
%TO.N,/Cell_17-*%
X405631363Y-208619000D03*
%TD*%
%TO.P,,1*%
%TO.N,N/C*%
X235443378Y-208611500D03*
%TD*%
D12*
%TO.P,F17,1*%
%TO.N,/Cell_16-*%
X382597000Y-167947000D03*
%TO.P,F17,2*%
%TO.N,/Cell_16-_out*%
X372047000Y-167947000D03*
%TD*%
D11*
%TO.P,,1*%
%TO.N,/Cell_16-*%
X387629652Y-179681500D03*
%TD*%
D13*
%TO.P,J1,1,Pin_1*%
%TO.N,/Cell_20-_out*%
X88070000Y-177652144D03*
D14*
%TO.P,J1,2,Pin_2*%
%TO.N,/Cell_16-_out*%
X88070000Y-180652144D03*
%TO.P,J1,3,Pin_3*%
%TO.N,/Cell_1+_out*%
X88070000Y-183652144D03*
%TO.P,J1,4,Pin_4*%
%TO.N,/Cell_4-_out*%
X88070000Y-186652144D03*
%TO.P,J1,5,Pin_5*%
%TO.N,/Cell_2-_out*%
X88070000Y-189652144D03*
%TO.P,J1,6,Pin_6*%
%TO.N,/Cell_6-_out*%
X88070000Y-192652144D03*
%TO.P,J1,7,Pin_7*%
%TO.N,/Cell_3-_out*%
X88070000Y-195652144D03*
%TO.P,J1,8,Pin_8*%
%TO.N,/Cell_1-_out*%
X88070000Y-198652144D03*
%TO.P,J1,9,Pin_9*%
%TO.N,/Cell_7-_out*%
X88070000Y-201652144D03*
%TO.P,J1,10,Pin_10*%
%TO.N,/Cell_5-_out*%
X88070000Y-204652144D03*
%TO.P,J1,11,Pin_11*%
%TO.N,/Cell_15-_out*%
X88070000Y-207652144D03*
%TO.P,J1,12,Pin_12*%
%TO.N,/Cell_17-_out*%
X88070000Y-210652144D03*
%TO.P,J1,13,Pin_13*%
%TO.N,/Cell_22-_out*%
X85070000Y-177652144D03*
%TO.P,J1,14,Pin_14*%
%TO.N,/Cell_18-_out*%
X85070000Y-180652144D03*
%TO.P,J1,15,Pin_15*%
%TO.N,/Cell_10-_out*%
X85070000Y-183652144D03*
%TO.P,J1,16,Pin_16*%
%TO.N,/Cell_12-_out*%
X85070000Y-186652144D03*
%TO.P,J1,17,Pin_17*%
%TO.N,/Cell_14-_out*%
X85070000Y-189652144D03*
%TO.P,J1,18,Pin_18*%
%TO.N,/Cell_8-_out*%
X85070000Y-192652144D03*
%TO.P,J1,19,Pin_19*%
%TO.N,/Cell_13-_out*%
X85070000Y-195652144D03*
%TO.P,J1,20,Pin_20*%
%TO.N,/Cell_11-_out*%
X85070000Y-198652144D03*
%TO.P,J1,21,Pin_21*%
%TO.N,/Cell_9-_out*%
X85070000Y-201652144D03*
%TO.P,J1,22,Pin_22*%
%TO.N,unconnected-(J1-Pin_22-Pad22)*%
X85070000Y-204652144D03*
%TO.P,J1,23,Pin_23*%
%TO.N,/Cell_19-_out*%
X85070000Y-207652144D03*
%TO.P,J1,24,Pin_24*%
%TO.N,/Cell_21-_out*%
X85070000Y-210652144D03*
%TD*%
D12*
%TO.P,F5,1*%
%TO.N,/Cell_4-*%
X154833000Y-167947000D03*
%TO.P,F5,2*%
%TO.N,/Cell_4-_out*%
X144283000Y-167947000D03*
%TD*%
D11*
%TO.P,,1*%
%TO.N,N/C*%
X425677030Y-208619000D03*
%TD*%
%TO.P,,1*%
%TO.N,N/C*%
X311536682Y-208611500D03*
%TD*%
%TO.P,,1*%
%TO.N,/Cell_12-*%
X311536682Y-179678500D03*
%TD*%
D10*
%TO.P,F10,1*%
%TO.N,/Cell_9-*%
X258020000Y-220380000D03*
%TO.P,F10,2*%
%TO.N,/Cell_9-_out*%
X268570000Y-220380000D03*
%TD*%
D12*
%TO.P,F19,1*%
%TO.N,/Cell_18-*%
X420889000Y-167947000D03*
%TO.P,F19,2*%
%TO.N,/Cell_18-_out*%
X410339000Y-167947000D03*
%TD*%
D11*
%TO.P,,1*%
%TO.N,N/C*%
X349583667Y-208618000D03*
%TD*%
D12*
%TO.P,F13,1*%
%TO.N,/Cell_12-*%
X306629000Y-167947000D03*
%TO.P,F13,2*%
%TO.N,/Cell_12-_out*%
X296079000Y-167947000D03*
%TD*%
D11*
%TO.P,,1*%
%TO.N,/Cell_6-*%
X197396000Y-179674000D03*
%TD*%
%TO.P,,1*%
%TO.N,/Cell_9-*%
X253444363Y-208613000D03*
%TD*%
%TO.P,,1*%
%TO.N,N/C*%
X329537637Y-179680000D03*
%TD*%
%TO.P,,1*%
%TO.N,/Cell_11-*%
X291491015Y-208611500D03*
%TD*%
D12*
%TO.P,F9,1*%
%TO.N,/Cell_8-*%
X235456000Y-194152145D03*
%TO.P,F9,2*%
%TO.N,/Cell_8-_out*%
X224906000Y-194152145D03*
%TD*%
D11*
%TO.P,,1*%
%TO.N,N/C*%
X273490030Y-208613000D03*
%TD*%
D10*
%TO.P,F18,1*%
%TO.N,/Cell_17-*%
X410118200Y-220380000D03*
%TO.P,F18,2*%
%TO.N,/Cell_17-_out*%
X420668200Y-220380000D03*
%TD*%
D11*
%TO.P,,1*%
%TO.N,N/C*%
X387630015Y-208619500D03*
%TD*%
%TO.P,,1*%
%TO.N,/Cell_10-*%
X273489667Y-179677000D03*
%TD*%
D12*
%TO.P,F3,1*%
%TO.N,/Cell_2-*%
X153392000Y-194152145D03*
%TO.P,F3,2*%
%TO.N,/Cell_2-_out*%
X142842000Y-194152145D03*
%TD*%
%TO.P,F7,1*%
%TO.N,/Cell_6-*%
X197396000Y-194152145D03*
%TO.P,F7,2*%
%TO.N,/Cell_6-_out*%
X186846000Y-194152145D03*
%TD*%
D11*
%TO.P,,1*%
%TO.N,N/C*%
X215397348Y-179675500D03*
%TD*%
D12*
%TO.P,F22,1*%
%TO.N,/Cell_21-_out*%
X498619000Y-220380000D03*
%TO.P,F22,2*%
%TO.N,/Cell_21-*%
X488069000Y-220380000D03*
%TD*%
D11*
%TO.P,,1*%
%TO.N,N/C*%
X443677652Y-179684500D03*
%TD*%
%TO.P,,1*%
%TO.N,/Cell_20-*%
X463723319Y-179684500D03*
%TD*%
D12*
%TO.P,F21,1*%
%TO.N,/Cell_20-*%
X458957000Y-167947000D03*
%TO.P,F21,2*%
%TO.N,/Cell_20-_out*%
X448407000Y-167947000D03*
%TD*%
D11*
%TO.P,,1*%
%TO.N,/Cell_4-*%
X159349652Y-179672500D03*
%TD*%
%TO.P,,1*%
%TO.N,/Cell_3-*%
X139304348Y-208610500D03*
%TD*%
%TO.P,,1*%
%TO.N,/Cell_1+*%
X101257652Y-179673500D03*
%TD*%
%TO.P,,1*%
%TO.N,N/C*%
X481724667Y-179686000D03*
%TD*%
D12*
%TO.P,F12,1*%
%TO.N,/Cell_11-*%
X291498000Y-194152145D03*
%TO.P,F12,2*%
%TO.N,/Cell_11-_out*%
X280948000Y-194152145D03*
%TD*%
D11*
%TO.P,,1*%
%TO.N,/Cell_21-*%
X481724667Y-208619000D03*
%TD*%
%TO.P,,1*%
%TO.N,/Cell_2-*%
X121303319Y-179673500D03*
%TD*%
%TO.P,,1*%
%TO.N,/Cell_13-*%
X329538000Y-208618000D03*
%TD*%
%TO.P,,1*%
%TO.N,/Cell_1-*%
X101258015Y-208611500D03*
%TD*%
D10*
%TO.P,F16,1*%
%TO.N,/Cell_15-*%
X372584000Y-220380000D03*
%TO.P,F16,2*%
%TO.N,/Cell_15-_out*%
X383134000Y-220380000D03*
%TD*%
D12*
%TO.P,F15,1*%
%TO.N,/Cell_14-*%
X349593000Y-194152145D03*
%TO.P,F15,2*%
%TO.N,/Cell_14-_out*%
X339043000Y-194152145D03*
%TD*%
D11*
%TO.P,,1*%
%TO.N,N/C*%
X501770334Y-208619000D03*
%TD*%
D12*
%TO.P,F1,1*%
%TO.N,/Cell_1+*%
X109475000Y-194152145D03*
%TO.P,F1,2*%
%TO.N,/Cell_1+_out*%
X98925000Y-194152145D03*
%TD*%
D11*
%TO.P,,1*%
%TO.N,N/C*%
X405631000Y-179683000D03*
%TD*%
%TO.P,,1*%
%TO.N,N/C*%
X463723682Y-208620500D03*
%TD*%
D12*
%TO.P,F8,1*%
%TO.N,/Cell_7-*%
X230428000Y-220380000D03*
%TO.P,F8,2*%
%TO.N,/Cell_7-_out*%
X219878000Y-220380000D03*
%TD*%
D11*
%TO.P,,1*%
%TO.N,/Cell_18-*%
X425676667Y-179683000D03*
%TD*%
%TO.P,,1*%
%TO.N,N/C*%
X253444000Y-179677000D03*
%TD*%
D10*
%TO.P,F6,1*%
%TO.N,/Cell_5-*%
X181964228Y-220380000D03*
%TO.P,F6,2*%
%TO.N,/Cell_5-_out*%
X192514228Y-220380000D03*
%TD*%
D12*
%TO.P,F14,1*%
%TO.N,/Cell_13-*%
X329546000Y-194152145D03*
%TO.P,F14,2*%
%TO.N,/Cell_13-_out*%
X318996000Y-194152145D03*
%TD*%
D11*
%TO.P,,1*%
%TO.N,N/C*%
X197396363Y-208612000D03*
%TD*%
D12*
%TO.P,F2,1*%
%TO.N,/Cell_1-*%
X133441000Y-194152145D03*
%TO.P,F2,2*%
%TO.N,/Cell_1-_out*%
X122891000Y-194152145D03*
%TD*%
D15*
%TO.N,/Cell_1+_out*%
X98925000Y-194152145D03*
%TO.N,/Cell_1+*%
X101257652Y-185673500D03*
X109475000Y-194152145D03*
%TO.N,/Cell_1-_out*%
X122891000Y-194152145D03*
%TO.N,/Cell_1-*%
X133441000Y-194152145D03*
X101258015Y-202611500D03*
%TO.N,/Cell_2-*%
X121303319Y-185673500D03*
X153392000Y-194152145D03*
%TO.N,/Cell_2-_out*%
X142842000Y-194152145D03*
%TO.N,/Cell_3-_out*%
X164645000Y-194152145D03*
%TO.N,/Cell_3-*%
X139304348Y-202610500D03*
X175195000Y-194152145D03*
%TO.N,/Cell_4-*%
X154833000Y-167947000D03*
X159349652Y-173673500D03*
%TO.N,/Cell_4-_out*%
X144283000Y-167947000D03*
%TO.N,/Cell_5-_out*%
X192426114Y-220468114D03*
%TO.N,/Cell_5-*%
X177350696Y-214612000D03*
X181964228Y-220380000D03*
%TO.N,/Cell_6-_out*%
X186846000Y-194152145D03*
%TO.N,/Cell_6-*%
X197396000Y-185674000D03*
X197396000Y-194152145D03*
%TO.N,/Cell_7-_out*%
X219878000Y-220380000D03*
%TO.N,/Cell_7-*%
X230428000Y-220380000D03*
X215382564Y-214612000D03*
%TO.N,/Cell_8-_out*%
X224906000Y-194152145D03*
%TO.N,/Cell_8-*%
X235456000Y-194152145D03*
X235443015Y-185675500D03*
%TO.N,/Cell_9-_out*%
X268570000Y-221880000D03*
%TO.N,/Cell_9-*%
X258020000Y-220380000D03*
X253444363Y-214612000D03*
%TO.N,/Cell_10-_out*%
X258197000Y-167947000D03*
%TO.N,/Cell_10-*%
X268747000Y-167947000D03*
X273489667Y-173673500D03*
%TO.N,/Cell_11-_out*%
X280948000Y-194152145D03*
%TO.N,/Cell_11-*%
X291498000Y-194152145D03*
X291491015Y-202611500D03*
%TO.N,/Cell_12-*%
X306629000Y-167947000D03*
X311536682Y-173673500D03*
%TO.N,/Cell_12-_out*%
X296079000Y-167947000D03*
%TO.N,/Cell_13-*%
X329546000Y-194152145D03*
X329538000Y-202618000D03*
%TO.N,/Cell_13-_out*%
X318996000Y-194152145D03*
%TO.N,/Cell_14-_out*%
X339043000Y-194152145D03*
%TO.N,/Cell_14-*%
X349593000Y-194152145D03*
X349583304Y-185680000D03*
%TO.N,/Cell_15-*%
X367584348Y-214612000D03*
X372584000Y-220380000D03*
%TO.N,/Cell_15-_out*%
X383134000Y-220380000D03*
%TO.N,/Cell_16-*%
X382597000Y-167947000D03*
X387629652Y-173673500D03*
%TO.N,/Cell_16-_out*%
X372047000Y-167947000D03*
%TO.N,/Cell_17-_out*%
X420668200Y-220380000D03*
%TO.N,/Cell_17-*%
X405631363Y-214612000D03*
X410118200Y-220380000D03*
%TO.N,/Cell_18-_out*%
X410339000Y-167947000D03*
%TO.N,/Cell_18-*%
X425676667Y-173673500D03*
X420889000Y-167947000D03*
%TO.N,/Cell_19-_out*%
X458816000Y-220380000D03*
%TO.N,/Cell_19-*%
X448266000Y-220380000D03*
X443678015Y-214612000D03*
%TO.N,/Cell_20-_out*%
X448407000Y-167947000D03*
%TO.N,/Cell_20-*%
X463723319Y-173673500D03*
X458957000Y-167947000D03*
%TO.N,/Cell_21-*%
X481724667Y-214612000D03*
X488069000Y-220380000D03*
%TO.N,/Cell_21-_out*%
X498619000Y-220380000D03*
%TO.N,/Cell_22-*%
X480201000Y-194152145D03*
X501770334Y-185673500D03*
%TO.N,/Cell_22-_out*%
X469651000Y-194152145D03*
%TD*%
M02*
