M48
; DRILL file {KiCad 7.0.5} date Sun Aug  4 19:03:27 2024
; FORMAT={-:-/ absolute / metric / decimal}
; #@! TF.CreationDate,2024-08-04T19:03:27+08:00
; #@! TF.GenerationSoftware,Kicad,Pcbnew,7.0.5
; #@! TF.FileFunction,Plated,1,2,PTH
FMAT,2
METRIC
; #@! TA.AperFunction,Plated,PTH,ViaDrill
T1C0.400
; #@! TA.AperFunction,Plated,PTH,ComponentDrill
T2C0.900
; #@! TA.AperFunction,Plated,PTH,ComponentDrill
T3C0.950
; #@! TA.AperFunction,Plated,PTH,ComponentDrill
T4C1.000
%
G90
G05
T1
X134.55Y-91.9
X135.35Y-94.45
X136.95Y-104.9
X138.15Y-100.1
X140.75Y-104.9
X140.85Y-94.45
X144.85Y-103.0
X145.35Y-95.8
X147.25Y-97.8
X149.041Y-92.474
X150.25Y-93.7
X153.184Y-89.4
X153.35Y-102.5
X156.85Y-89.373
X157.65Y-85.2
X160.15Y-88.6
X160.15Y-90.1
X161.35Y-82.8
X161.65Y-80.2
X162.05Y-106.0
X163.45Y-100.9
X163.55Y-80.2
X164.35Y-85.2
X166.15Y-95.6
X166.55Y-104.6
X167.85Y-85.1
X170.35Y-80.5
X171.6Y-85.45
X176.68Y-89.8
X178.85Y-111.0
X178.85Y-120.0
X178.95Y-89.0
X179.35Y-100.8
X180.65Y-109.4
T2
X132.756Y-98.606
X134.552Y-100.402
T3
X185.45Y-104.4
X185.45Y-106.9
X185.45Y-109.4
X185.45Y-117.9
X185.45Y-120.4
X185.45Y-122.9
T4
X117.45Y-88.5
X117.51Y-81.5
X119.99Y-88.5
X120.05Y-81.5
X122.325Y-120.5
X122.325Y-123.0
X122.35Y-93.6
X122.35Y-96.1
X122.35Y-102.5
X122.35Y-105.0
X122.35Y-111.5
X122.35Y-114.0
X122.53Y-88.5
X122.59Y-81.5
X125.07Y-88.5
X125.13Y-81.5
X138.425Y-127.1
X140.925Y-127.1
X147.825Y-127.1
X150.325Y-127.1
X157.325Y-127.1
X159.825Y-127.1
X166.725Y-127.1
X169.225Y-127.1
X182.795Y-83.225
X182.795Y-85.765
X185.335Y-83.225
X185.335Y-85.765
X185.45Y-93.6
X185.45Y-96.1
X187.875Y-83.225
X187.875Y-85.765
T0
M30
