G04 #@! TF.GenerationSoftware,KiCad,Pcbnew,7.0.5*
G04 #@! TF.CreationDate,2024-08-04T19:03:28+08:00*
G04 #@! TF.ProjectId,Vehicle_Control_Unit_VCU_V1,56656869-636c-4655-9f43-6f6e74726f6c,rev?*
G04 #@! TF.SameCoordinates,Original*
G04 #@! TF.FileFunction,Legend,Bot*
G04 #@! TF.FilePolarity,Positive*
%FSLAX46Y46*%
G04 Gerber Fmt 4.6, Leading zero omitted, Abs format (unit mm)*
G04 Created by KiCad (PCBNEW 7.0.5) date 2024-08-04 19:03:28*
%MOMM*%
%LPD*%
G01*
G04 APERTURE LIST*
G04 Aperture macros list*
%AMRoundRect*
0 Rectangle with rounded corners*
0 $1 Rounding radius*
0 $2 $3 $4 $5 $6 $7 $8 $9 X,Y pos of 4 corners*
0 Add a 4 corners polygon primitive as box body*
4,1,4,$2,$3,$4,$5,$6,$7,$8,$9,$2,$3,0*
0 Add four circle primitives for the rounded corners*
1,1,$1+$1,$2,$3*
1,1,$1+$1,$4,$5*
1,1,$1+$1,$6,$7*
1,1,$1+$1,$8,$9*
0 Add four rect primitives between the rounded corners*
20,1,$1+$1,$2,$3,$4,$5,0*
20,1,$1+$1,$4,$5,$6,$7,0*
20,1,$1+$1,$6,$7,$8,$9,0*
20,1,$1+$1,$8,$9,$2,$3,0*%
%AMRotRect*
0 Rectangle, with rotation*
0 The origin of the aperture is its center*
0 $1 length*
0 $2 width*
0 $3 Rotation angle, in degrees counterclockwise*
0 Add horizontal line*
21,1,$1,$2,0,0,$3*%
G04 Aperture macros list end*
%ADD10C,0.150000*%
%ADD11C,0.275000*%
%ADD12RoundRect,0.250000X-0.750000X0.600000X-0.750000X-0.600000X0.750000X-0.600000X0.750000X0.600000X0*%
%ADD13O,2.000000X1.700000*%
%ADD14RotRect,1.800000X1.800000X135.000000*%
%ADD15C,1.800000*%
%ADD16RoundRect,0.250000X0.725000X-0.600000X0.725000X0.600000X-0.725000X0.600000X-0.725000X-0.600000X0*%
%ADD17O,1.950000X1.700000*%
%ADD18RoundRect,0.250000X0.750000X-0.600000X0.750000X0.600000X-0.750000X0.600000X-0.750000X-0.600000X0*%
%ADD19RoundRect,0.250000X-0.600000X-0.750000X0.600000X-0.750000X0.600000X0.750000X-0.600000X0.750000X0*%
%ADD20O,1.700000X2.000000*%
%ADD21R,1.700000X1.700000*%
%ADD22O,1.700000X1.700000*%
G04 APERTURE END LIST*
D10*
G36*
X178411448Y-75296000D02*
G01*
X178800380Y-74103411D01*
X178618370Y-74103411D01*
X178332020Y-75038372D01*
X178045669Y-74103411D01*
X177863660Y-74103411D01*
X178252299Y-75296000D01*
X178411448Y-75296000D01*
G37*
G36*
X177433108Y-75308309D02*
G01*
X177455033Y-75307922D01*
X177476330Y-75306761D01*
X177497000Y-75304827D01*
X177517042Y-75302118D01*
X177536457Y-75298635D01*
X177555245Y-75294378D01*
X177573405Y-75289348D01*
X177590938Y-75283543D01*
X177607844Y-75276965D01*
X177624122Y-75269612D01*
X177639772Y-75261486D01*
X177654795Y-75252585D01*
X177669191Y-75242911D01*
X177682960Y-75232463D01*
X177696101Y-75221241D01*
X177708614Y-75209244D01*
X177720433Y-75196498D01*
X177731489Y-75183100D01*
X177741783Y-75169049D01*
X177751314Y-75154345D01*
X177760083Y-75138988D01*
X177768089Y-75122979D01*
X177775333Y-75106318D01*
X177781814Y-75089004D01*
X177787533Y-75071037D01*
X177792489Y-75052418D01*
X177796683Y-75033146D01*
X177800114Y-75013221D01*
X177802783Y-74992644D01*
X177804689Y-74971414D01*
X177805832Y-74949532D01*
X177806214Y-74926997D01*
X177806214Y-74830863D01*
X177806122Y-74819059D01*
X177805389Y-74795955D01*
X177803924Y-74773525D01*
X177801726Y-74751767D01*
X177798795Y-74730683D01*
X177795131Y-74710272D01*
X177790735Y-74690534D01*
X177785606Y-74671469D01*
X177779744Y-74653078D01*
X177773149Y-74635359D01*
X177765822Y-74618314D01*
X177757762Y-74601942D01*
X177748969Y-74586244D01*
X177739444Y-74571218D01*
X177729186Y-74556866D01*
X177718195Y-74543187D01*
X177712424Y-74536600D01*
X177700365Y-74523965D01*
X177687709Y-74512145D01*
X177674454Y-74501140D01*
X177660602Y-74490951D01*
X177646153Y-74481576D01*
X177631105Y-74473017D01*
X177615460Y-74465273D01*
X177599218Y-74458344D01*
X177582378Y-74452231D01*
X177564940Y-74446932D01*
X177546905Y-74442449D01*
X177528271Y-74438780D01*
X177509041Y-74435927D01*
X177489212Y-74433889D01*
X177468787Y-74432667D01*
X177447763Y-74432259D01*
X177427935Y-74432720D01*
X177408676Y-74434105D01*
X177389988Y-74436412D01*
X177371871Y-74439641D01*
X177354323Y-74443794D01*
X177337345Y-74448869D01*
X177320938Y-74454867D01*
X177305101Y-74461788D01*
X177289834Y-74469632D01*
X177275137Y-74478398D01*
X177261010Y-74488087D01*
X177247453Y-74498699D01*
X177234467Y-74510234D01*
X177222050Y-74522692D01*
X177210204Y-74536072D01*
X177198928Y-74550375D01*
X177188245Y-74565512D01*
X177178252Y-74581392D01*
X177168947Y-74598017D01*
X177160332Y-74615386D01*
X177152406Y-74633500D01*
X177145169Y-74652357D01*
X177138621Y-74671959D01*
X177132763Y-74692304D01*
X177127594Y-74713394D01*
X177123114Y-74735229D01*
X177119323Y-74757807D01*
X177116222Y-74781129D01*
X177114929Y-74793070D01*
X177113809Y-74805196D01*
X177112862Y-74817509D01*
X177112086Y-74830007D01*
X177111483Y-74842692D01*
X177111052Y-74855562D01*
X177110794Y-74868619D01*
X177110708Y-74881861D01*
X177110708Y-74937549D01*
X177684874Y-74937549D01*
X177684874Y-74803020D01*
X177269856Y-74803020D01*
X177270925Y-74790265D01*
X177272297Y-74777864D01*
X177273975Y-74765819D01*
X177275956Y-74754128D01*
X177279500Y-74737258D01*
X177283729Y-74721187D01*
X177288643Y-74705913D01*
X177294243Y-74691439D01*
X177300527Y-74677763D01*
X177307497Y-74664886D01*
X177315152Y-74652807D01*
X177323492Y-74641526D01*
X177332453Y-74631103D01*
X177341971Y-74621705D01*
X177352045Y-74613332D01*
X177362675Y-74605984D01*
X177373862Y-74599662D01*
X177385605Y-74594365D01*
X177397904Y-74590093D01*
X177410760Y-74586846D01*
X177424173Y-74584625D01*
X177438141Y-74583429D01*
X177447763Y-74583201D01*
X177465090Y-74583750D01*
X177481680Y-74585396D01*
X177497534Y-74588139D01*
X177512651Y-74591980D01*
X177527031Y-74596918D01*
X177540674Y-74602954D01*
X177553581Y-74610087D01*
X177565751Y-74618317D01*
X177577184Y-74627645D01*
X177587880Y-74638070D01*
X177594602Y-74645630D01*
X177603978Y-74657736D01*
X177612431Y-74670754D01*
X177619962Y-74684684D01*
X177626572Y-74699526D01*
X177632259Y-74715280D01*
X177637023Y-74731946D01*
X177639687Y-74743563D01*
X177641942Y-74755586D01*
X177643786Y-74768014D01*
X177645221Y-74780847D01*
X177646245Y-74794085D01*
X177646860Y-74807729D01*
X177647065Y-74821778D01*
X177647065Y-74930221D01*
X177646846Y-74943255D01*
X177646190Y-74955904D01*
X177645097Y-74968168D01*
X177643566Y-74980047D01*
X177640450Y-74997145D01*
X177636350Y-75013377D01*
X177631266Y-75028744D01*
X177625198Y-75043245D01*
X177618146Y-75056880D01*
X177610109Y-75069650D01*
X177601089Y-75081555D01*
X177591085Y-75092594D01*
X177580134Y-75102703D01*
X177568385Y-75111818D01*
X177555837Y-75119938D01*
X177542491Y-75127064D01*
X177528346Y-75133196D01*
X177513403Y-75138333D01*
X177497661Y-75142477D01*
X177481120Y-75145625D01*
X177463781Y-75147780D01*
X177451778Y-75148664D01*
X177439420Y-75149105D01*
X177433108Y-75149161D01*
X177420377Y-75148840D01*
X177407683Y-75147878D01*
X177395025Y-75146276D01*
X177382404Y-75144032D01*
X177369819Y-75141146D01*
X177357271Y-75137620D01*
X177344760Y-75133453D01*
X177332285Y-75128644D01*
X177319920Y-75123259D01*
X177307885Y-75117360D01*
X177296180Y-75110949D01*
X177284804Y-75104025D01*
X177273758Y-75096587D01*
X177263042Y-75088637D01*
X177252656Y-75080174D01*
X177242599Y-75071198D01*
X177132690Y-75181108D01*
X177144696Y-75192244D01*
X177156976Y-75202901D01*
X177169529Y-75213078D01*
X177182355Y-75222777D01*
X177195454Y-75231997D01*
X177208826Y-75240737D01*
X177222471Y-75248998D01*
X177236389Y-75256780D01*
X177250580Y-75264083D01*
X177265044Y-75270907D01*
X177274839Y-75275190D01*
X177289577Y-75281109D01*
X177304336Y-75286445D01*
X177319115Y-75291200D01*
X177333915Y-75295372D01*
X177348736Y-75298962D01*
X177363577Y-75301970D01*
X177378439Y-75304396D01*
X177393321Y-75306239D01*
X177408224Y-75307501D01*
X177423148Y-75308180D01*
X177433108Y-75308309D01*
G37*
G36*
X176881217Y-75296000D02*
G01*
X176881217Y-74444569D01*
X176713862Y-74444569D01*
X176713862Y-75296000D01*
X176881217Y-75296000D01*
G37*
G36*
X176412857Y-74646216D02*
G01*
X176421612Y-74636568D01*
X176431171Y-74627847D01*
X176441533Y-74620054D01*
X176452699Y-74613188D01*
X176464669Y-74607250D01*
X176468838Y-74605476D01*
X176481749Y-74600695D01*
X176493090Y-74597466D01*
X176504961Y-74594925D01*
X176517362Y-74593070D01*
X176530292Y-74591902D01*
X176543751Y-74591421D01*
X176546507Y-74591408D01*
X176561140Y-74591794D01*
X176575145Y-74592953D01*
X176588521Y-74594885D01*
X176601269Y-74597590D01*
X176613388Y-74601068D01*
X176624879Y-74605318D01*
X176635741Y-74610341D01*
X176645975Y-74616137D01*
X176658642Y-74625067D01*
X176670191Y-74635371D01*
X176680427Y-74646825D01*
X176689297Y-74659350D01*
X176696803Y-74672947D01*
X176701537Y-74683847D01*
X176705503Y-74695351D01*
X176708702Y-74707457D01*
X176711133Y-74720166D01*
X176712796Y-74733478D01*
X176713691Y-74747393D01*
X176713862Y-74757004D01*
X176731154Y-74592873D01*
X176723689Y-74579038D01*
X176715801Y-74565781D01*
X176707491Y-74553100D01*
X176698759Y-74540996D01*
X176689604Y-74529469D01*
X176680026Y-74518520D01*
X176670026Y-74508147D01*
X176659603Y-74498351D01*
X176648759Y-74489133D01*
X176637491Y-74480491D01*
X176629745Y-74475050D01*
X176617874Y-74467403D01*
X176605781Y-74460508D01*
X176593467Y-74454365D01*
X176580931Y-74448974D01*
X176568174Y-74444336D01*
X176555195Y-74440450D01*
X176541995Y-74437315D01*
X176528573Y-74434934D01*
X176514930Y-74433304D01*
X176501065Y-74432426D01*
X176491699Y-74432259D01*
X176477291Y-74432525D01*
X176463232Y-74433322D01*
X176449521Y-74434650D01*
X176436158Y-74436509D01*
X176423143Y-74438899D01*
X176410476Y-74441821D01*
X176398157Y-74445274D01*
X176386186Y-74449258D01*
X176374577Y-74453687D01*
X176363343Y-74458619D01*
X176352485Y-74464055D01*
X176342002Y-74469995D01*
X176331895Y-74476438D01*
X176322164Y-74483385D01*
X176312808Y-74490836D01*
X176303827Y-74498791D01*
X176412857Y-74646216D01*
G37*
G36*
X175863897Y-75308309D02*
G01*
X175877957Y-75308180D01*
X175891855Y-75307792D01*
X175905590Y-75307145D01*
X175919163Y-75306239D01*
X175932573Y-75305075D01*
X175945821Y-75303652D01*
X175958905Y-75301970D01*
X175971828Y-75300030D01*
X175984588Y-75297830D01*
X175997185Y-75295372D01*
X176009619Y-75292655D01*
X176021892Y-75289680D01*
X176034001Y-75286445D01*
X176045948Y-75282952D01*
X176057732Y-75279201D01*
X176069354Y-75275190D01*
X176080819Y-75270885D01*
X176092133Y-75266324D01*
X176103295Y-75261506D01*
X176114307Y-75256432D01*
X176125167Y-75251102D01*
X176135877Y-75245515D01*
X176146435Y-75239671D01*
X176156842Y-75233571D01*
X176167098Y-75227215D01*
X176177202Y-75220602D01*
X176187156Y-75213732D01*
X176196959Y-75206607D01*
X176206610Y-75199224D01*
X176216110Y-75191586D01*
X176225460Y-75183691D01*
X176234658Y-75175539D01*
X176135300Y-75053320D01*
X176122291Y-75062927D01*
X176109313Y-75072077D01*
X176096366Y-75080767D01*
X176083450Y-75088999D01*
X176070565Y-75096773D01*
X176057710Y-75104088D01*
X176044887Y-75110944D01*
X176032095Y-75117342D01*
X176019333Y-75123281D01*
X176006603Y-75128762D01*
X175998133Y-75132161D01*
X175985449Y-75136823D01*
X175972785Y-75141026D01*
X175960142Y-75144771D01*
X175947520Y-75148057D01*
X175934918Y-75150885D01*
X175922337Y-75153254D01*
X175909776Y-75155164D01*
X175897236Y-75156616D01*
X175884717Y-75157610D01*
X175872218Y-75158145D01*
X175863897Y-75158247D01*
X175851672Y-75158126D01*
X175839836Y-75157766D01*
X175822812Y-75156774D01*
X175806664Y-75155241D01*
X175791392Y-75153168D01*
X175776995Y-75150553D01*
X175763475Y-75147397D01*
X175750830Y-75143701D01*
X175739061Y-75139463D01*
X175728168Y-75134685D01*
X175715006Y-75127472D01*
X175703397Y-75119297D01*
X175693336Y-75110161D01*
X175684823Y-75100063D01*
X175677857Y-75089004D01*
X175672440Y-75076982D01*
X175668570Y-75063999D01*
X175666248Y-75050055D01*
X175665474Y-75035148D01*
X175666283Y-75020990D01*
X175668708Y-75008192D01*
X175672751Y-74996753D01*
X175679737Y-74984821D01*
X175689052Y-74974847D01*
X175698593Y-74968030D01*
X175709451Y-74962138D01*
X175721325Y-74956919D01*
X175734215Y-74952372D01*
X175748121Y-74948498D01*
X175759978Y-74945883D01*
X175772484Y-74943699D01*
X175785642Y-74941945D01*
X175799174Y-74940438D01*
X175812954Y-74938996D01*
X175826981Y-74937617D01*
X175841256Y-74936303D01*
X175855777Y-74935053D01*
X175870546Y-74933867D01*
X175885563Y-74932745D01*
X175900826Y-74931687D01*
X175913713Y-74930592D01*
X175926582Y-74929360D01*
X175939432Y-74927991D01*
X175952264Y-74926484D01*
X175965078Y-74924840D01*
X175977873Y-74923059D01*
X175990650Y-74921140D01*
X176003408Y-74919084D01*
X176015947Y-74916739D01*
X176028211Y-74913955D01*
X176040201Y-74910731D01*
X176051915Y-74907067D01*
X176063355Y-74902964D01*
X176074520Y-74898421D01*
X176085410Y-74893438D01*
X176096025Y-74888016D01*
X176106242Y-74882035D01*
X176115937Y-74875377D01*
X176125110Y-74868040D01*
X176133761Y-74860026D01*
X176141890Y-74851334D01*
X176149496Y-74841964D01*
X176156581Y-74831917D01*
X176163143Y-74821191D01*
X176168982Y-74809587D01*
X176174043Y-74797048D01*
X176178324Y-74783575D01*
X176181828Y-74769168D01*
X176184553Y-74753826D01*
X176186085Y-74741707D01*
X176187180Y-74729062D01*
X176187837Y-74715892D01*
X176188056Y-74702196D01*
X176187732Y-74685537D01*
X176186760Y-74669411D01*
X176185140Y-74653819D01*
X176182872Y-74638760D01*
X176179956Y-74624235D01*
X176176392Y-74610243D01*
X176172180Y-74596785D01*
X176167320Y-74583861D01*
X176161812Y-74571470D01*
X176155656Y-74559612D01*
X176148852Y-74548288D01*
X176141400Y-74537497D01*
X176133299Y-74527240D01*
X176124551Y-74517517D01*
X176115155Y-74508327D01*
X176105111Y-74499670D01*
X176094426Y-74491507D01*
X176083106Y-74483871D01*
X176071153Y-74476761D01*
X176058565Y-74470178D01*
X176045342Y-74464121D01*
X176031486Y-74458592D01*
X176016995Y-74453588D01*
X176001870Y-74449112D01*
X175986110Y-74445162D01*
X175969717Y-74441739D01*
X175952689Y-74438842D01*
X175935027Y-74436472D01*
X175916730Y-74434629D01*
X175897799Y-74433312D01*
X175878234Y-74432522D01*
X175858035Y-74432259D01*
X175845596Y-74432366D01*
X175833264Y-74432685D01*
X175821040Y-74433217D01*
X175808924Y-74433963D01*
X175796915Y-74434921D01*
X175785014Y-74436092D01*
X175773221Y-74437476D01*
X175761535Y-74439073D01*
X175744208Y-74441868D01*
X175727123Y-74445143D01*
X175710280Y-74448896D01*
X175693679Y-74453128D01*
X175677321Y-74457840D01*
X175671922Y-74459517D01*
X175655861Y-74464825D01*
X175639990Y-74470638D01*
X175624310Y-74476956D01*
X175608820Y-74483779D01*
X175593522Y-74491107D01*
X175578413Y-74498940D01*
X175563496Y-74507277D01*
X175548769Y-74516120D01*
X175534232Y-74525467D01*
X175519887Y-74535320D01*
X175510429Y-74542168D01*
X175611252Y-74664387D01*
X175623217Y-74656874D01*
X175635151Y-74649721D01*
X175647053Y-74642929D01*
X175658925Y-74636498D01*
X175670766Y-74630427D01*
X175682576Y-74624717D01*
X175694356Y-74619368D01*
X175706104Y-74614379D01*
X175717821Y-74609751D01*
X175729508Y-74605483D01*
X175737281Y-74602838D01*
X175748851Y-74599172D01*
X175760369Y-74595866D01*
X175771836Y-74592921D01*
X175787045Y-74589555D01*
X175802162Y-74586830D01*
X175817187Y-74584746D01*
X175832121Y-74583304D01*
X175846963Y-74582502D01*
X175858035Y-74582322D01*
X175873706Y-74582580D01*
X175888624Y-74583352D01*
X175902790Y-74584640D01*
X175916205Y-74586443D01*
X175928866Y-74588762D01*
X175940776Y-74591595D01*
X175955486Y-74596175D01*
X175968858Y-74601671D01*
X175980893Y-74608082D01*
X175986409Y-74611631D01*
X175996370Y-74619338D01*
X176005002Y-74627953D01*
X176012307Y-74637473D01*
X176018283Y-74647901D01*
X176022931Y-74659235D01*
X176026251Y-74671477D01*
X176028243Y-74684625D01*
X176028907Y-74698679D01*
X176027867Y-74712425D01*
X176024745Y-74724645D01*
X176019541Y-74735341D01*
X176010840Y-74745892D01*
X176001126Y-74753283D01*
X175999305Y-74754367D01*
X175987545Y-74760219D01*
X175974466Y-74765248D01*
X175962559Y-74768808D01*
X175949736Y-74771796D01*
X175935997Y-74774212D01*
X175924347Y-74775732D01*
X175921343Y-74776055D01*
X175909134Y-74777219D01*
X175896687Y-74778363D01*
X175884001Y-74779490D01*
X175871078Y-74780598D01*
X175857916Y-74781688D01*
X175844516Y-74782760D01*
X175830878Y-74783813D01*
X175817002Y-74784848D01*
X175803717Y-74785805D01*
X175790386Y-74786918D01*
X175777009Y-74788187D01*
X175763586Y-74789611D01*
X175750118Y-74791191D01*
X175736604Y-74792926D01*
X175723044Y-74794818D01*
X175709438Y-74796865D01*
X175695878Y-74799242D01*
X175682602Y-74802122D01*
X175669609Y-74805506D01*
X175656901Y-74809394D01*
X175644477Y-74813786D01*
X175632336Y-74818682D01*
X175620480Y-74824081D01*
X175608907Y-74829984D01*
X175597687Y-74836510D01*
X175587035Y-74843778D01*
X175576951Y-74851787D01*
X175567435Y-74860539D01*
X175558487Y-74870032D01*
X175550106Y-74880268D01*
X175542293Y-74891245D01*
X175535048Y-74902964D01*
X175528522Y-74915608D01*
X175522867Y-74929360D01*
X175518081Y-74944221D01*
X175515063Y-74956094D01*
X175512534Y-74968590D01*
X175510495Y-74981710D01*
X175508945Y-74995453D01*
X175507884Y-75009819D01*
X175507313Y-75024809D01*
X175507205Y-75035148D01*
X175507553Y-75051989D01*
X175508597Y-75068295D01*
X175510337Y-75084065D01*
X175512773Y-75099299D01*
X175515906Y-75113997D01*
X175519734Y-75128159D01*
X175524259Y-75141785D01*
X175529480Y-75154876D01*
X175535396Y-75167431D01*
X175542009Y-75179450D01*
X175549318Y-75190933D01*
X175557323Y-75201881D01*
X175566024Y-75212292D01*
X175575422Y-75222168D01*
X175585515Y-75231508D01*
X175596304Y-75240312D01*
X175607757Y-75248546D01*
X175619912Y-75256249D01*
X175632770Y-75263421D01*
X175646331Y-75270061D01*
X175660596Y-75276170D01*
X175675563Y-75281748D01*
X175691233Y-75286795D01*
X175707606Y-75291310D01*
X175724682Y-75295294D01*
X175742461Y-75298747D01*
X175760943Y-75301669D01*
X175780128Y-75304060D01*
X175800016Y-75305919D01*
X175820606Y-75307247D01*
X175841900Y-75308044D01*
X175863897Y-75308309D01*
G37*
G36*
X175293834Y-74270473D02*
G01*
X175293834Y-74103411D01*
X175126479Y-74103411D01*
X175126479Y-74270473D01*
X175293834Y-74270473D01*
G37*
G36*
X175293834Y-75296000D02*
G01*
X175293834Y-74444569D01*
X175126479Y-74444569D01*
X175126479Y-75296000D01*
X175293834Y-75296000D01*
G37*
G36*
X174567076Y-74432635D02*
G01*
X174587113Y-74433761D01*
X174606561Y-74435639D01*
X174625421Y-74438267D01*
X174643692Y-74441647D01*
X174661375Y-74445778D01*
X174678469Y-74450660D01*
X174694975Y-74456293D01*
X174710892Y-74462676D01*
X174726221Y-74469811D01*
X174740962Y-74477697D01*
X174755114Y-74486334D01*
X174768677Y-74495723D01*
X174781652Y-74505862D01*
X174794039Y-74516752D01*
X174805837Y-74528393D01*
X174816946Y-74540681D01*
X174827338Y-74553585D01*
X174837013Y-74567105D01*
X174845972Y-74581241D01*
X174854214Y-74595993D01*
X174861740Y-74611361D01*
X174868548Y-74627345D01*
X174874640Y-74643944D01*
X174880015Y-74661160D01*
X174884674Y-74678992D01*
X174888616Y-74697439D01*
X174891841Y-74716503D01*
X174894349Y-74736182D01*
X174896141Y-74756478D01*
X174897216Y-74777389D01*
X174897575Y-74798916D01*
X174897575Y-74937549D01*
X174897216Y-74959295D01*
X174896141Y-74980422D01*
X174894349Y-75000932D01*
X174891841Y-75020823D01*
X174888616Y-75040096D01*
X174884674Y-75058751D01*
X174880015Y-75076788D01*
X174874640Y-75094206D01*
X174868548Y-75111006D01*
X174861740Y-75127188D01*
X174854214Y-75142752D01*
X174845972Y-75157697D01*
X174837013Y-75172024D01*
X174827338Y-75185733D01*
X174816946Y-75198824D01*
X174805837Y-75211296D01*
X174794039Y-75223044D01*
X174781652Y-75234034D01*
X174768677Y-75244265D01*
X174755114Y-75253739D01*
X174740962Y-75262455D01*
X174726221Y-75270414D01*
X174710892Y-75277614D01*
X174694975Y-75284056D01*
X174678469Y-75289740D01*
X174661375Y-75294667D01*
X174643692Y-75298835D01*
X174625421Y-75302246D01*
X174606561Y-75304899D01*
X174587113Y-75306794D01*
X174567076Y-75307930D01*
X174546451Y-75308309D01*
X174525827Y-75307933D01*
X174505794Y-75306803D01*
X174486351Y-75304919D01*
X174467500Y-75302283D01*
X174449239Y-75298893D01*
X174431568Y-75294749D01*
X174414489Y-75289853D01*
X174398000Y-75284203D01*
X174382102Y-75277799D01*
X174366795Y-75270643D01*
X174352079Y-75262732D01*
X174337953Y-75254069D01*
X174324418Y-75244652D01*
X174311474Y-75234482D01*
X174299121Y-75223559D01*
X174287358Y-75211882D01*
X174276214Y-75199520D01*
X174265788Y-75186539D01*
X174256082Y-75172940D01*
X174247095Y-75158723D01*
X174238826Y-75143887D01*
X174231277Y-75128434D01*
X174224447Y-75112362D01*
X174218335Y-75095672D01*
X174212943Y-75078363D01*
X174208269Y-75060436D01*
X174204315Y-75041892D01*
X174201079Y-75022728D01*
X174198563Y-75002947D01*
X174196765Y-74982547D01*
X174195687Y-74961530D01*
X174195327Y-74939893D01*
X174362683Y-74939893D01*
X174362730Y-74946060D01*
X174363105Y-74958134D01*
X174363856Y-74969862D01*
X174365687Y-74986806D01*
X174368362Y-75002972D01*
X174371883Y-75018361D01*
X174376248Y-75032971D01*
X174381459Y-75046803D01*
X174387514Y-75059857D01*
X174394414Y-75072134D01*
X174402160Y-75083632D01*
X174410750Y-75094353D01*
X174416913Y-75100990D01*
X174426737Y-75110142D01*
X174437256Y-75118331D01*
X174448471Y-75125557D01*
X174460382Y-75131819D01*
X174472988Y-75137118D01*
X174486289Y-75141453D01*
X174500287Y-75144825D01*
X174514979Y-75147234D01*
X174530367Y-75148679D01*
X174546451Y-75149161D01*
X174557181Y-75148947D01*
X174572709Y-75147823D01*
X174587557Y-75145735D01*
X174601725Y-75142684D01*
X174615213Y-75138670D01*
X174628021Y-75133692D01*
X174640149Y-75127751D01*
X174651596Y-75120847D01*
X174662364Y-75112979D01*
X174672452Y-75104147D01*
X174681859Y-75094353D01*
X174684835Y-75090866D01*
X174693194Y-75079886D01*
X174700703Y-75068128D01*
X174707362Y-75055592D01*
X174713170Y-75042279D01*
X174718129Y-75028187D01*
X174722238Y-75013318D01*
X174725497Y-74997670D01*
X174727905Y-74981245D01*
X174729464Y-74964041D01*
X174730030Y-74952140D01*
X174730219Y-74939893D01*
X174730219Y-74798916D01*
X174730172Y-74792751D01*
X174729794Y-74780686D01*
X174729039Y-74768976D01*
X174727197Y-74752077D01*
X174724505Y-74735976D01*
X174720963Y-74720674D01*
X174716571Y-74706170D01*
X174711329Y-74692465D01*
X174705236Y-74679558D01*
X174698294Y-74667450D01*
X174690502Y-74656141D01*
X174681859Y-74645630D01*
X174675663Y-74639064D01*
X174665802Y-74630009D01*
X174655261Y-74621908D01*
X174644040Y-74614759D01*
X174632139Y-74608564D01*
X174619558Y-74603322D01*
X174606297Y-74599033D01*
X174592355Y-74595697D01*
X174577734Y-74593314D01*
X174562432Y-74591884D01*
X174546451Y-74591408D01*
X174535651Y-74591620D01*
X174520031Y-74592732D01*
X174505107Y-74594797D01*
X174490878Y-74597815D01*
X174477344Y-74601786D01*
X174464506Y-74606711D01*
X174452364Y-74612588D01*
X174440917Y-74619419D01*
X174430166Y-74627203D01*
X174420110Y-74635940D01*
X174410750Y-74645630D01*
X174407792Y-74649045D01*
X174399484Y-74659822D01*
X174392020Y-74671397D01*
X174385402Y-74683772D01*
X174379628Y-74696944D01*
X174374699Y-74710916D01*
X174370616Y-74725686D01*
X174367377Y-74741254D01*
X174364983Y-74757621D01*
X174363434Y-74774787D01*
X174362870Y-74786674D01*
X174362683Y-74798916D01*
X174362683Y-74939893D01*
X174195327Y-74939893D01*
X174195327Y-74798916D01*
X174195687Y-74777389D01*
X174196765Y-74756478D01*
X174198563Y-74736182D01*
X174201079Y-74716503D01*
X174204315Y-74697439D01*
X174208269Y-74678992D01*
X174212943Y-74661160D01*
X174218335Y-74643944D01*
X174224447Y-74627345D01*
X174231277Y-74611361D01*
X174238826Y-74595993D01*
X174247095Y-74581241D01*
X174256082Y-74567105D01*
X174265788Y-74553585D01*
X174276214Y-74540681D01*
X174287358Y-74528393D01*
X174299121Y-74516752D01*
X174311474Y-74505862D01*
X174324418Y-74495723D01*
X174337953Y-74486334D01*
X174352079Y-74477697D01*
X174366795Y-74469811D01*
X174382102Y-74462676D01*
X174398000Y-74456293D01*
X174414489Y-74450660D01*
X174431568Y-74445778D01*
X174449239Y-74441647D01*
X174467500Y-74438267D01*
X174486351Y-74435639D01*
X174505794Y-74433761D01*
X174525827Y-74432635D01*
X174546451Y-74432259D01*
X174567076Y-74432635D01*
G37*
G36*
X173958510Y-75296000D02*
G01*
X173958510Y-74444569D01*
X173791154Y-74444569D01*
X173791154Y-75296000D01*
X173958510Y-75296000D01*
G37*
G36*
X173441789Y-75296000D02*
G01*
X173441789Y-74780159D01*
X173442196Y-74763593D01*
X173443417Y-74747749D01*
X173445453Y-74732626D01*
X173448302Y-74718225D01*
X173451965Y-74704544D01*
X173456442Y-74691585D01*
X173461733Y-74679348D01*
X173467838Y-74667831D01*
X173474757Y-74657036D01*
X173482490Y-74646962D01*
X173488098Y-74640647D01*
X173497123Y-74631847D01*
X173506834Y-74623913D01*
X173517230Y-74616845D01*
X173528311Y-74610642D01*
X173540077Y-74605304D01*
X173552529Y-74600832D01*
X173565666Y-74597226D01*
X173579487Y-74594485D01*
X173593995Y-74592610D01*
X173609187Y-74591600D01*
X173619696Y-74591408D01*
X173634756Y-74591789D01*
X173649162Y-74592933D01*
X173662913Y-74594839D01*
X173676011Y-74597508D01*
X173688454Y-74600939D01*
X173700242Y-74605133D01*
X173711377Y-74610089D01*
X173721857Y-74615808D01*
X173731682Y-74622289D01*
X173743765Y-74632117D01*
X173746605Y-74634785D01*
X173757046Y-74646184D01*
X173766095Y-74658691D01*
X173773752Y-74672306D01*
X173778581Y-74683244D01*
X173782627Y-74694806D01*
X173785890Y-74706991D01*
X173788370Y-74719800D01*
X173790067Y-74733232D01*
X173790980Y-74747288D01*
X173791154Y-74757004D01*
X173808447Y-74592873D01*
X173800869Y-74578732D01*
X173792864Y-74565214D01*
X173784431Y-74552319D01*
X173775570Y-74540048D01*
X173766282Y-74528400D01*
X173756566Y-74517376D01*
X173746423Y-74506975D01*
X173735852Y-74497197D01*
X173724853Y-74488043D01*
X173713427Y-74479512D01*
X173705572Y-74474171D01*
X173693528Y-74466681D01*
X173681247Y-74459928D01*
X173668730Y-74453911D01*
X173655975Y-74448631D01*
X173642984Y-74444088D01*
X173629755Y-74440281D01*
X173616289Y-74437212D01*
X173602587Y-74434879D01*
X173588647Y-74433282D01*
X173574471Y-74432423D01*
X173564888Y-74432259D01*
X173547804Y-74432613D01*
X173531210Y-74433674D01*
X173515106Y-74435443D01*
X173499492Y-74437919D01*
X173484368Y-74441103D01*
X173469734Y-74444995D01*
X173455590Y-74449594D01*
X173441936Y-74454900D01*
X173428772Y-74460915D01*
X173416098Y-74467636D01*
X173403914Y-74475065D01*
X173392220Y-74483202D01*
X173381016Y-74492046D01*
X173370303Y-74501598D01*
X173360079Y-74511857D01*
X173350345Y-74522824D01*
X173341153Y-74534439D01*
X173332553Y-74546643D01*
X173324547Y-74559434D01*
X173317134Y-74572815D01*
X173310314Y-74586784D01*
X173304087Y-74601341D01*
X173298453Y-74616487D01*
X173293412Y-74632221D01*
X173288964Y-74648543D01*
X173285109Y-74665455D01*
X173281847Y-74682954D01*
X173279179Y-74701042D01*
X173277103Y-74719719D01*
X173275620Y-74738984D01*
X173274731Y-74758837D01*
X173274434Y-74779279D01*
X173274434Y-75296000D01*
X173441789Y-75296000D01*
G37*
G36*
X172290819Y-74103411D02*
G01*
X172290819Y-75296000D01*
X172458175Y-75296000D01*
X172458175Y-74285420D01*
X172627875Y-74389468D01*
X172627875Y-74216544D01*
X172458175Y-74103411D01*
X172290819Y-74103411D01*
G37*
G36*
X172041106Y-75296000D02*
G01*
X172041106Y-75120438D01*
X171865544Y-75120438D01*
X171865544Y-75296000D01*
X172041106Y-75296000D01*
G37*
G36*
X171370376Y-74088815D02*
G01*
X171390411Y-74089873D01*
X171409806Y-74091636D01*
X171428563Y-74094105D01*
X171446681Y-74097279D01*
X171464160Y-74101157D01*
X171481000Y-74105742D01*
X171497201Y-74111031D01*
X171512764Y-74117026D01*
X171527687Y-74123725D01*
X171541972Y-74131131D01*
X171555618Y-74139241D01*
X171568625Y-74148057D01*
X171580993Y-74157577D01*
X171592723Y-74167804D01*
X171603813Y-74178735D01*
X171614248Y-74190285D01*
X171624009Y-74202366D01*
X171633097Y-74214978D01*
X171641512Y-74228121D01*
X171649254Y-74241795D01*
X171656322Y-74256001D01*
X171662718Y-74270738D01*
X171668440Y-74286006D01*
X171673489Y-74301806D01*
X171677865Y-74318137D01*
X171681567Y-74334999D01*
X171684596Y-74352392D01*
X171686953Y-74370316D01*
X171688636Y-74388772D01*
X171689645Y-74407758D01*
X171689982Y-74427277D01*
X171689982Y-74969496D01*
X171689651Y-74988734D01*
X171688659Y-75007469D01*
X171687004Y-75025701D01*
X171684688Y-75043428D01*
X171681710Y-75060652D01*
X171678071Y-75077372D01*
X171673769Y-75093588D01*
X171668806Y-75109300D01*
X171663181Y-75124509D01*
X171656895Y-75139214D01*
X171649946Y-75153415D01*
X171642336Y-75167113D01*
X171634065Y-75180306D01*
X171625131Y-75192996D01*
X171615536Y-75205182D01*
X171605279Y-75216865D01*
X171594320Y-75227938D01*
X171582692Y-75238297D01*
X171570396Y-75247942D01*
X171557431Y-75256872D01*
X171543798Y-75265088D01*
X171529496Y-75272589D01*
X171514526Y-75279376D01*
X171498886Y-75285448D01*
X171482579Y-75290806D01*
X171465602Y-75295450D01*
X171447957Y-75299379D01*
X171429644Y-75302594D01*
X171410661Y-75305094D01*
X171391010Y-75306881D01*
X171370691Y-75307952D01*
X171349703Y-75308309D01*
X171328890Y-75307957D01*
X171308730Y-75306899D01*
X171289222Y-75305136D01*
X171270367Y-75302667D01*
X171252164Y-75299494D01*
X171234614Y-75295615D01*
X171217717Y-75291031D01*
X171201472Y-75285741D01*
X171185880Y-75279747D01*
X171170940Y-75273047D01*
X171156653Y-75265642D01*
X171143019Y-75257531D01*
X171130037Y-75248716D01*
X171117707Y-75239195D01*
X171106031Y-75228969D01*
X171095006Y-75218037D01*
X171084607Y-75206488D01*
X171074879Y-75194407D01*
X171065822Y-75181795D01*
X171057436Y-75168651D01*
X171049720Y-75154977D01*
X171042676Y-75140771D01*
X171036302Y-75126034D01*
X171030600Y-75110766D01*
X171025568Y-75094966D01*
X171021207Y-75078636D01*
X171017517Y-75061774D01*
X171014498Y-75044381D01*
X171012150Y-75026456D01*
X171010473Y-75008001D01*
X171009466Y-74989014D01*
X171009131Y-74969496D01*
X171176486Y-74969496D01*
X171176645Y-74979834D01*
X171177481Y-74994818D01*
X171179032Y-75009173D01*
X171181300Y-75022900D01*
X171184284Y-75035998D01*
X171187984Y-75048467D01*
X171192400Y-75060308D01*
X171197532Y-75071521D01*
X171203380Y-75082105D01*
X171209945Y-75092060D01*
X171217226Y-75101387D01*
X171222483Y-75107172D01*
X171231125Y-75115150D01*
X171240673Y-75122288D01*
X171251128Y-75128586D01*
X171262490Y-75134045D01*
X171274759Y-75138664D01*
X171287934Y-75142442D01*
X171302016Y-75145382D01*
X171317005Y-75147481D01*
X171332901Y-75148741D01*
X171349703Y-75149161D01*
X171360971Y-75148974D01*
X171377126Y-75147994D01*
X171392384Y-75146175D01*
X171406746Y-75143516D01*
X171420212Y-75140016D01*
X171432781Y-75135678D01*
X171444454Y-75130499D01*
X171455230Y-75124481D01*
X171465110Y-75117622D01*
X171474093Y-75109925D01*
X171482180Y-75101387D01*
X171487078Y-75095239D01*
X171493832Y-75085493D01*
X171499876Y-75075118D01*
X171505208Y-75064116D01*
X171509829Y-75052484D01*
X171513740Y-75040224D01*
X171516939Y-75027335D01*
X171519427Y-75013818D01*
X171521205Y-74999673D01*
X171522271Y-74984898D01*
X171522627Y-74969496D01*
X171522627Y-74427277D01*
X171522587Y-74422037D01*
X171521995Y-74406751D01*
X171520691Y-74392114D01*
X171518677Y-74378126D01*
X171515952Y-74364788D01*
X171512515Y-74352099D01*
X171508368Y-74340058D01*
X171503510Y-74328667D01*
X171497940Y-74317925D01*
X171491660Y-74307833D01*
X171482180Y-74295385D01*
X171476889Y-74289600D01*
X171468204Y-74281622D01*
X171458623Y-74274484D01*
X171448146Y-74268186D01*
X171436772Y-74262727D01*
X171424501Y-74258109D01*
X171411335Y-74254330D01*
X171397271Y-74251390D01*
X171382312Y-74249291D01*
X171366455Y-74248031D01*
X171349703Y-74247612D01*
X171338401Y-74247798D01*
X171322203Y-74248778D01*
X171306912Y-74250597D01*
X171292527Y-74253257D01*
X171279050Y-74256756D01*
X171266479Y-74261095D01*
X171254815Y-74266273D01*
X171244057Y-74272292D01*
X171234207Y-74279150D01*
X171225263Y-74286848D01*
X171217226Y-74295385D01*
X171212292Y-74301465D01*
X171205489Y-74311125D01*
X171199402Y-74321434D01*
X171194031Y-74332392D01*
X171189376Y-74344000D01*
X171185437Y-74356256D01*
X171182215Y-74369162D01*
X171179708Y-74382717D01*
X171177918Y-74396921D01*
X171176844Y-74411774D01*
X171176486Y-74427277D01*
X171176486Y-74969496D01*
X171009131Y-74969496D01*
X171009131Y-74427277D01*
X171009466Y-74407654D01*
X171010473Y-74388575D01*
X171012150Y-74370038D01*
X171014498Y-74352044D01*
X171017517Y-74334592D01*
X171021207Y-74317683D01*
X171025568Y-74301317D01*
X171030600Y-74285494D01*
X171036302Y-74270213D01*
X171042676Y-74255475D01*
X171049720Y-74241279D01*
X171057436Y-74227626D01*
X171065822Y-74214516D01*
X171074879Y-74201949D01*
X171084607Y-74189924D01*
X171095006Y-74178442D01*
X171106031Y-74167546D01*
X171117707Y-74157353D01*
X171130037Y-74147863D01*
X171143019Y-74139076D01*
X171156653Y-74130992D01*
X171170940Y-74123611D01*
X171185880Y-74116933D01*
X171201472Y-74110958D01*
X171217717Y-74105685D01*
X171234614Y-74101116D01*
X171252164Y-74097250D01*
X171270367Y-74094087D01*
X171289222Y-74091626D01*
X171308730Y-74089869D01*
X171328890Y-74088814D01*
X171349703Y-74088463D01*
X171370376Y-74088815D01*
G37*
G36*
X178604302Y-73091589D02*
G01*
X178604302Y-72932441D01*
X178197491Y-72932441D01*
X178184060Y-72931995D01*
X178171133Y-72930658D01*
X178158712Y-72928430D01*
X178146795Y-72925310D01*
X178135383Y-72921299D01*
X178124477Y-72916397D01*
X178114075Y-72910604D01*
X178104178Y-72903919D01*
X178094786Y-72896343D01*
X178085899Y-72887876D01*
X178080254Y-72881736D01*
X178072345Y-72871885D01*
X178065214Y-72861457D01*
X178058861Y-72850453D01*
X178053285Y-72838871D01*
X178048488Y-72826712D01*
X178044468Y-72813977D01*
X178041227Y-72800664D01*
X178038763Y-72786774D01*
X178037078Y-72772307D01*
X178036170Y-72757263D01*
X178035997Y-72746914D01*
X178036386Y-72731540D01*
X178037553Y-72716744D01*
X178039498Y-72702524D01*
X178042221Y-72688882D01*
X178045722Y-72675816D01*
X178050001Y-72663328D01*
X178055057Y-72651416D01*
X178060892Y-72640082D01*
X178067504Y-72629324D01*
X178074895Y-72619144D01*
X178080254Y-72612678D01*
X178088805Y-72603564D01*
X178097860Y-72595346D01*
X178107421Y-72588025D01*
X178117486Y-72581601D01*
X178128056Y-72576073D01*
X178139131Y-72571441D01*
X178150711Y-72567706D01*
X178162796Y-72564867D01*
X178175386Y-72562925D01*
X178188481Y-72561879D01*
X178197491Y-72561680D01*
X178604302Y-72561680D01*
X178604302Y-72402531D01*
X178203939Y-72402531D01*
X178191035Y-72402700D01*
X178178335Y-72403204D01*
X178165838Y-72404046D01*
X178153545Y-72405224D01*
X178141457Y-72406739D01*
X178129571Y-72408590D01*
X178117890Y-72410778D01*
X178106413Y-72413302D01*
X178089578Y-72417720D01*
X178073203Y-72422895D01*
X178057286Y-72428828D01*
X178041827Y-72435518D01*
X178026827Y-72442965D01*
X178021929Y-72445616D01*
X178007618Y-72453993D01*
X177993919Y-72462968D01*
X177980834Y-72472540D01*
X177968362Y-72482710D01*
X177956503Y-72493478D01*
X177945257Y-72504843D01*
X177934624Y-72516806D01*
X177924604Y-72529367D01*
X177915198Y-72542525D01*
X177906404Y-72556281D01*
X177900882Y-72565783D01*
X177893183Y-72580473D01*
X177886240Y-72595637D01*
X177880055Y-72611275D01*
X177874628Y-72627387D01*
X177869957Y-72643973D01*
X177866044Y-72661033D01*
X177863857Y-72672670D01*
X177862005Y-72684517D01*
X177860491Y-72696575D01*
X177859313Y-72708844D01*
X177858471Y-72721323D01*
X177857966Y-72734013D01*
X177857798Y-72746914D01*
X177857968Y-72759746D01*
X177858480Y-72772376D01*
X177859333Y-72784805D01*
X177860527Y-72797032D01*
X177862063Y-72809058D01*
X177863939Y-72820883D01*
X177866157Y-72832506D01*
X177870123Y-72849562D01*
X177874857Y-72866165D01*
X177880358Y-72882315D01*
X177886627Y-72898011D01*
X177893664Y-72913254D01*
X177901468Y-72928044D01*
X177909903Y-72942251D01*
X177918941Y-72955855D01*
X177928581Y-72968856D01*
X177938824Y-72981254D01*
X177949670Y-72993049D01*
X177961118Y-73004242D01*
X177973170Y-73014832D01*
X177985824Y-73024819D01*
X177999081Y-73034204D01*
X178012941Y-73042985D01*
X178022515Y-73048505D01*
X178037258Y-73056204D01*
X178052469Y-73063147D01*
X178068149Y-73069332D01*
X178084298Y-73074759D01*
X178100916Y-73079430D01*
X178118002Y-73083343D01*
X178129654Y-73085530D01*
X178141514Y-73087382D01*
X178153582Y-73088896D01*
X178165859Y-73090074D01*
X178178344Y-73090916D01*
X178191037Y-73091421D01*
X178203939Y-73091589D01*
X178604302Y-73091589D01*
G37*
G36*
X178677281Y-73596000D02*
G01*
X178677281Y-72402531D01*
X178509926Y-72402531D01*
X178509926Y-73596000D01*
X178677281Y-73596000D01*
G37*
G36*
X178006395Y-73596000D02*
G01*
X178279556Y-73054660D01*
X178113080Y-73016851D01*
X177807679Y-73596000D01*
X178006395Y-73596000D01*
G37*
G36*
X177283046Y-73608309D02*
G01*
X177304970Y-73607922D01*
X177326267Y-73606761D01*
X177346937Y-73604827D01*
X177366980Y-73602118D01*
X177386395Y-73598635D01*
X177405182Y-73594378D01*
X177423342Y-73589348D01*
X177440875Y-73583543D01*
X177457781Y-73576965D01*
X177474059Y-73569612D01*
X177489709Y-73561486D01*
X177504733Y-73552585D01*
X177519128Y-73542911D01*
X177532897Y-73532463D01*
X177546038Y-73521241D01*
X177558551Y-73509244D01*
X177570370Y-73496498D01*
X177581426Y-73483100D01*
X177591720Y-73469049D01*
X177601251Y-73454345D01*
X177610020Y-73438988D01*
X177618026Y-73422979D01*
X177625270Y-73406318D01*
X177631751Y-73389004D01*
X177637470Y-73371037D01*
X177642426Y-73352418D01*
X177646620Y-73333146D01*
X177650051Y-73313221D01*
X177652720Y-73292644D01*
X177654626Y-73271414D01*
X177655770Y-73249532D01*
X177656151Y-73226997D01*
X177656151Y-73130863D01*
X177656059Y-73119059D01*
X177655327Y-73095955D01*
X177653861Y-73073525D01*
X177651663Y-73051767D01*
X177648732Y-73030683D01*
X177645068Y-73010272D01*
X177640672Y-72990534D01*
X177635543Y-72971469D01*
X177629681Y-72953078D01*
X177623087Y-72935359D01*
X177615759Y-72918314D01*
X177607699Y-72901942D01*
X177598907Y-72886244D01*
X177589381Y-72871218D01*
X177579123Y-72856866D01*
X177568132Y-72843187D01*
X177562362Y-72836600D01*
X177550303Y-72823965D01*
X177537646Y-72812145D01*
X177524391Y-72801140D01*
X177510539Y-72790951D01*
X177496090Y-72781576D01*
X177481043Y-72773017D01*
X177465398Y-72765273D01*
X177449155Y-72758344D01*
X177432315Y-72752231D01*
X177414877Y-72746932D01*
X177396842Y-72742449D01*
X177378209Y-72738780D01*
X177358978Y-72735927D01*
X177339150Y-72733889D01*
X177318724Y-72732667D01*
X177297700Y-72732259D01*
X177277872Y-72732720D01*
X177258614Y-72734105D01*
X177239926Y-72736412D01*
X177221808Y-72739641D01*
X177204260Y-72743794D01*
X177187283Y-72748869D01*
X177170875Y-72754867D01*
X177155038Y-72761788D01*
X177139771Y-72769632D01*
X177125074Y-72778398D01*
X177110947Y-72788087D01*
X177097390Y-72798699D01*
X177084404Y-72810234D01*
X177071988Y-72822692D01*
X177060142Y-72836072D01*
X177048866Y-72850375D01*
X177038183Y-72865512D01*
X177028189Y-72881392D01*
X177018884Y-72898017D01*
X177010269Y-72915386D01*
X177002343Y-72933500D01*
X176995106Y-72952357D01*
X176988559Y-72971959D01*
X176982700Y-72992304D01*
X176977531Y-73013394D01*
X176973051Y-73035229D01*
X176969260Y-73057807D01*
X176966159Y-73081129D01*
X176964866Y-73093070D01*
X176963747Y-73105196D01*
X176962799Y-73117509D01*
X176962023Y-73130007D01*
X176961420Y-73142692D01*
X176960990Y-73155562D01*
X176960731Y-73168619D01*
X176960645Y-73181861D01*
X176960645Y-73237549D01*
X177534811Y-73237549D01*
X177534811Y-73103020D01*
X177119794Y-73103020D01*
X177120862Y-73090265D01*
X177122235Y-73077864D01*
X177123912Y-73065819D01*
X177125894Y-73054128D01*
X177129437Y-73037258D01*
X177133666Y-73021187D01*
X177138580Y-73005913D01*
X177144180Y-72991439D01*
X177150464Y-72977763D01*
X177157434Y-72964886D01*
X177165089Y-72952807D01*
X177173429Y-72941526D01*
X177182390Y-72931103D01*
X177191908Y-72921705D01*
X177201982Y-72913332D01*
X177212612Y-72905984D01*
X177223799Y-72899662D01*
X177235542Y-72894365D01*
X177247841Y-72890093D01*
X177260697Y-72886846D01*
X177274110Y-72884625D01*
X177288078Y-72883429D01*
X177297700Y-72883201D01*
X177315027Y-72883750D01*
X177331617Y-72885396D01*
X177347471Y-72888139D01*
X177362588Y-72891980D01*
X177376968Y-72896918D01*
X177390611Y-72902954D01*
X177403518Y-72910087D01*
X177415688Y-72918317D01*
X177427121Y-72927645D01*
X177437817Y-72938070D01*
X177444539Y-72945630D01*
X177453915Y-72957736D01*
X177462368Y-72970754D01*
X177469900Y-72984684D01*
X177476509Y-72999526D01*
X177482196Y-73015280D01*
X177486960Y-73031946D01*
X177489625Y-73043563D01*
X177491879Y-73055586D01*
X177493723Y-73068014D01*
X177495158Y-73080847D01*
X177496183Y-73094085D01*
X177496797Y-73107729D01*
X177497002Y-73121778D01*
X177497002Y-73230221D01*
X177496784Y-73243255D01*
X177496128Y-73255904D01*
X177495034Y-73268168D01*
X177493504Y-73280047D01*
X177490387Y-73297145D01*
X177486287Y-73313377D01*
X177481203Y-73328744D01*
X177475135Y-73343245D01*
X177468083Y-73356880D01*
X177460046Y-73369650D01*
X177451026Y-73381555D01*
X177441022Y-73392594D01*
X177430071Y-73402703D01*
X177418322Y-73411818D01*
X177405774Y-73419938D01*
X177392428Y-73427064D01*
X177378283Y-73433196D01*
X177363340Y-73438333D01*
X177347598Y-73442477D01*
X177331058Y-73445625D01*
X177313719Y-73447780D01*
X177301716Y-73448664D01*
X177289358Y-73449105D01*
X177283046Y-73449161D01*
X177270314Y-73448840D01*
X177257620Y-73447878D01*
X177244962Y-73446276D01*
X177232341Y-73444032D01*
X177219756Y-73441146D01*
X177207208Y-73437620D01*
X177194697Y-73433453D01*
X177182222Y-73428644D01*
X177169857Y-73423259D01*
X177157822Y-73417360D01*
X177146117Y-73410949D01*
X177134741Y-73404025D01*
X177123695Y-73396587D01*
X177112979Y-73388637D01*
X177102593Y-73380174D01*
X177092536Y-73371198D01*
X176982627Y-73481108D01*
X176994634Y-73492244D01*
X177006913Y-73502901D01*
X177019466Y-73513078D01*
X177032292Y-73522777D01*
X177045391Y-73531997D01*
X177058763Y-73540737D01*
X177072408Y-73548998D01*
X177086326Y-73556780D01*
X177100517Y-73564083D01*
X177114982Y-73570907D01*
X177124776Y-73575190D01*
X177139514Y-73581109D01*
X177154273Y-73586445D01*
X177169052Y-73591200D01*
X177183852Y-73595372D01*
X177198673Y-73598962D01*
X177213514Y-73601970D01*
X177228376Y-73604396D01*
X177243258Y-73606239D01*
X177258161Y-73607501D01*
X177273085Y-73608180D01*
X177283046Y-73608309D01*
G37*
G36*
X176247260Y-73596000D02*
G01*
X176247260Y-72403411D01*
X176079905Y-72403411D01*
X176079905Y-73596000D01*
X176247260Y-73596000D01*
G37*
G36*
X176461217Y-73610654D02*
G01*
X176478624Y-73610300D01*
X176495527Y-73609239D01*
X176511927Y-73607470D01*
X176527822Y-73604994D01*
X176543214Y-73601810D01*
X176558102Y-73597918D01*
X176572487Y-73593319D01*
X176586367Y-73588013D01*
X176599744Y-73581999D01*
X176612617Y-73575277D01*
X176624987Y-73567848D01*
X176636852Y-73559711D01*
X176648214Y-73550867D01*
X176659072Y-73541315D01*
X176669427Y-73531056D01*
X176679277Y-73520089D01*
X176688541Y-73508477D01*
X176697206Y-73496284D01*
X176705274Y-73483510D01*
X176712745Y-73470153D01*
X176719617Y-73456216D01*
X176725893Y-73441696D01*
X176731570Y-73426595D01*
X176736650Y-73410912D01*
X176741132Y-73394648D01*
X176745017Y-73377802D01*
X176748304Y-73360375D01*
X176750993Y-73342366D01*
X176753085Y-73323775D01*
X176754579Y-73304603D01*
X176755475Y-73284849D01*
X176755774Y-73264513D01*
X176755774Y-73076642D01*
X176755481Y-73056235D01*
X176754602Y-73036415D01*
X176753136Y-73017181D01*
X176751085Y-72998533D01*
X176748447Y-72980471D01*
X176745223Y-72962995D01*
X176741413Y-72946106D01*
X176737016Y-72929803D01*
X176732034Y-72914086D01*
X176726465Y-72898955D01*
X176720310Y-72884410D01*
X176713569Y-72870452D01*
X176706242Y-72857079D01*
X176698328Y-72844293D01*
X176689829Y-72832093D01*
X176680743Y-72820480D01*
X176671124Y-72809477D01*
X176661028Y-72799185D01*
X176650452Y-72789602D01*
X176639398Y-72780729D01*
X176627866Y-72772566D01*
X176615855Y-72765113D01*
X176603365Y-72758369D01*
X176590397Y-72752336D01*
X176576951Y-72747012D01*
X176563025Y-72742398D01*
X176548621Y-72738494D01*
X176533739Y-72735300D01*
X176518378Y-72732816D01*
X176502539Y-72731041D01*
X176486220Y-72729976D01*
X176469424Y-72729621D01*
X176455411Y-72729969D01*
X176441620Y-72731012D01*
X176428051Y-72732751D01*
X176414703Y-72735185D01*
X176401576Y-72738315D01*
X176388671Y-72742141D01*
X176375988Y-72746662D01*
X176363526Y-72751878D01*
X176351286Y-72757790D01*
X176339267Y-72764397D01*
X176331378Y-72769189D01*
X176319829Y-72776836D01*
X176308702Y-72785050D01*
X176297998Y-72793831D01*
X176287716Y-72803178D01*
X176277857Y-72813092D01*
X176268420Y-72823573D01*
X176259406Y-72834621D01*
X176250814Y-72846235D01*
X176242645Y-72858416D01*
X176234898Y-72871164D01*
X176229968Y-72879977D01*
X176247260Y-73053780D01*
X176247567Y-73040472D01*
X176248488Y-73027659D01*
X176250022Y-73015340D01*
X176252170Y-73003515D01*
X176255717Y-72989430D01*
X176260224Y-72976118D01*
X176265689Y-72963579D01*
X176266898Y-72961163D01*
X176273471Y-72949531D01*
X176280917Y-72938815D01*
X176289236Y-72929015D01*
X176298428Y-72920131D01*
X176308493Y-72912162D01*
X176319431Y-72905110D01*
X176324050Y-72902545D01*
X176336076Y-72896719D01*
X176348889Y-72891881D01*
X176362489Y-72888029D01*
X176376876Y-72885166D01*
X176388952Y-72883586D01*
X176401532Y-72882638D01*
X176414616Y-72882322D01*
X176429838Y-72882778D01*
X176444401Y-72884146D01*
X176458305Y-72886425D01*
X176471549Y-72889617D01*
X176484133Y-72893721D01*
X176496058Y-72898736D01*
X176507324Y-72904664D01*
X176517930Y-72911503D01*
X176527877Y-72919254D01*
X176537165Y-72927917D01*
X176542990Y-72934199D01*
X176551108Y-72944239D01*
X176558429Y-72955017D01*
X176564950Y-72966530D01*
X176570673Y-72978781D01*
X176575598Y-72991768D01*
X176579723Y-73005492D01*
X176583051Y-73019953D01*
X176585580Y-73035151D01*
X176587310Y-73051085D01*
X176588241Y-73067756D01*
X176588419Y-73079279D01*
X176588419Y-73264513D01*
X176588020Y-73281560D01*
X176586822Y-73297860D01*
X176584825Y-73313413D01*
X176582030Y-73328219D01*
X176578437Y-73342278D01*
X176574045Y-73355590D01*
X176568854Y-73368155D01*
X176562865Y-73379973D01*
X176556077Y-73391044D01*
X176548491Y-73401367D01*
X176542990Y-73407835D01*
X176534142Y-73416844D01*
X176524635Y-73424967D01*
X176514468Y-73432204D01*
X176503642Y-73438554D01*
X176492157Y-73444019D01*
X176480012Y-73448597D01*
X176467207Y-73452290D01*
X176453743Y-73455096D01*
X176439620Y-73457016D01*
X176424837Y-73458050D01*
X176414616Y-73458247D01*
X176401532Y-73457921D01*
X176388952Y-73456946D01*
X176376876Y-73455320D01*
X176365303Y-73453044D01*
X176351546Y-73449285D01*
X176338576Y-73444509D01*
X176326393Y-73438717D01*
X176324050Y-73437437D01*
X176312763Y-73430399D01*
X176302349Y-73422473D01*
X176292808Y-73413661D01*
X176284140Y-73403961D01*
X176276344Y-73393373D01*
X176269422Y-73381899D01*
X176266898Y-73377060D01*
X176261240Y-73364323D01*
X176256542Y-73350842D01*
X176253474Y-73339522D01*
X176251019Y-73327725D01*
X176249178Y-73315451D01*
X176247951Y-73302702D01*
X176247337Y-73289476D01*
X176247260Y-73282685D01*
X176235830Y-73462350D01*
X176242067Y-73476524D01*
X176249349Y-73490322D01*
X176255495Y-73500424D01*
X176262229Y-73510315D01*
X176269550Y-73519995D01*
X176277458Y-73529463D01*
X176285954Y-73538720D01*
X176295037Y-73547766D01*
X176304707Y-73556601D01*
X176314965Y-73565225D01*
X176325812Y-73573344D01*
X176337252Y-73580664D01*
X176349285Y-73587185D01*
X176361910Y-73592908D01*
X176375127Y-73597833D01*
X176388937Y-73601959D01*
X176403339Y-73605286D01*
X176418334Y-73607815D01*
X176433922Y-73609545D01*
X176450102Y-73610477D01*
X176461217Y-73610654D01*
G37*
G36*
X175444776Y-73608309D02*
G01*
X175459491Y-73607974D01*
X175473851Y-73606970D01*
X175487855Y-73605295D01*
X175501503Y-73602951D01*
X175514796Y-73599937D01*
X175527734Y-73596254D01*
X175540316Y-73591900D01*
X175552542Y-73586877D01*
X175564413Y-73581184D01*
X175575929Y-73574821D01*
X175583408Y-73570207D01*
X175594181Y-73562785D01*
X175604408Y-73554806D01*
X175614089Y-73546271D01*
X175623223Y-73537180D01*
X175631811Y-73527532D01*
X175639854Y-73517327D01*
X175647350Y-73506567D01*
X175654300Y-73495249D01*
X175660704Y-73483376D01*
X175666562Y-73470946D01*
X175670163Y-73462350D01*
X175658733Y-73284150D01*
X175658426Y-73297669D01*
X175657506Y-73310675D01*
X175655971Y-73323168D01*
X175653824Y-73335148D01*
X175651062Y-73346615D01*
X175646747Y-73360228D01*
X175641474Y-73373039D01*
X175639096Y-73377939D01*
X175632530Y-73389501D01*
X175625105Y-73400190D01*
X175616822Y-73410006D01*
X175607680Y-73418949D01*
X175597679Y-73427019D01*
X175586820Y-73434216D01*
X175582236Y-73436851D01*
X175570126Y-73442761D01*
X175557243Y-73447670D01*
X175543587Y-73451577D01*
X175532107Y-73453981D01*
X175520131Y-73455744D01*
X175507661Y-73456866D01*
X175494696Y-73457347D01*
X175491378Y-73457367D01*
X175476208Y-73456924D01*
X175461692Y-73455595D01*
X175447830Y-73453380D01*
X175434623Y-73450278D01*
X175422070Y-73446290D01*
X175410172Y-73441417D01*
X175398928Y-73435657D01*
X175388338Y-73429011D01*
X175378402Y-73421478D01*
X175369121Y-73413060D01*
X175363297Y-73406956D01*
X175355126Y-73397138D01*
X175347758Y-73386588D01*
X175341195Y-73375307D01*
X175335435Y-73363294D01*
X175330479Y-73350550D01*
X175326326Y-73337074D01*
X175322977Y-73322866D01*
X175320432Y-73307927D01*
X175318691Y-73292257D01*
X175317753Y-73275854D01*
X175317575Y-73264513D01*
X175317575Y-73080159D01*
X175317976Y-73062944D01*
X175319182Y-73046471D01*
X175321191Y-73030741D01*
X175324004Y-73015752D01*
X175327621Y-73001505D01*
X175332041Y-72988000D01*
X175337265Y-72975236D01*
X175343293Y-72963215D01*
X175350125Y-72951936D01*
X175357760Y-72941398D01*
X175363297Y-72934785D01*
X175372142Y-72925567D01*
X175381641Y-72917255D01*
X175391795Y-72909850D01*
X175402603Y-72903351D01*
X175414065Y-72897760D01*
X175426182Y-72893075D01*
X175438953Y-72889297D01*
X175452378Y-72886425D01*
X175466458Y-72884461D01*
X175481192Y-72883403D01*
X175491378Y-72883201D01*
X175504466Y-72883508D01*
X175517060Y-72884428D01*
X175529159Y-72885963D01*
X175540764Y-72888110D01*
X175554574Y-72891658D01*
X175567611Y-72896165D01*
X175579876Y-72901630D01*
X175582236Y-72902838D01*
X175593439Y-72909419D01*
X175603783Y-72916886D01*
X175613268Y-72925241D01*
X175621895Y-72934483D01*
X175629663Y-72944612D01*
X175636572Y-72955629D01*
X175639096Y-72960284D01*
X175644753Y-72972493D01*
X175649451Y-72985489D01*
X175653191Y-72999272D01*
X175655492Y-73010865D01*
X175657180Y-73022962D01*
X175658254Y-73035563D01*
X175658714Y-73048667D01*
X175658733Y-73052022D01*
X175676025Y-72888184D01*
X175668565Y-72874472D01*
X175660693Y-72861362D01*
X175652409Y-72848856D01*
X175643712Y-72836952D01*
X175634603Y-72825651D01*
X175625082Y-72814953D01*
X175615149Y-72804858D01*
X175604804Y-72795365D01*
X175594047Y-72786476D01*
X175582877Y-72778189D01*
X175575202Y-72772999D01*
X175563375Y-72765718D01*
X175551307Y-72759154D01*
X175538996Y-72753305D01*
X175526443Y-72748173D01*
X175513648Y-72743757D01*
X175500611Y-72740057D01*
X175487332Y-72737073D01*
X175473811Y-72734805D01*
X175460047Y-72733254D01*
X175446041Y-72732418D01*
X175436570Y-72732259D01*
X175419669Y-72732613D01*
X175403258Y-72733674D01*
X175387337Y-72735443D01*
X175371906Y-72737919D01*
X175356966Y-72741103D01*
X175342515Y-72744995D01*
X175328554Y-72749594D01*
X175315083Y-72754900D01*
X175302102Y-72760915D01*
X175289612Y-72767636D01*
X175277611Y-72775065D01*
X175266100Y-72783202D01*
X175255080Y-72792046D01*
X175244549Y-72801598D01*
X175234508Y-72811857D01*
X175224958Y-72822824D01*
X175215907Y-72834439D01*
X175207441Y-72846643D01*
X175199558Y-72859434D01*
X175192260Y-72872815D01*
X175185545Y-72886784D01*
X175179414Y-72901341D01*
X175173867Y-72916487D01*
X175168904Y-72932221D01*
X175164525Y-72948543D01*
X175160729Y-72965455D01*
X175157518Y-72982954D01*
X175154890Y-73001042D01*
X175152847Y-73019719D01*
X175151387Y-73038984D01*
X175150511Y-73058837D01*
X175150219Y-73079279D01*
X175150219Y-73264513D01*
X175150520Y-73284635D01*
X175151424Y-73304186D01*
X175152929Y-73323167D01*
X175155037Y-73341578D01*
X175157747Y-73359419D01*
X175161059Y-73376689D01*
X175164973Y-73393390D01*
X175169490Y-73409520D01*
X175174609Y-73425080D01*
X175180330Y-73440070D01*
X175186653Y-73454490D01*
X175193579Y-73468340D01*
X175201106Y-73481619D01*
X175209236Y-73494329D01*
X175217968Y-73506468D01*
X175227302Y-73518037D01*
X175237185Y-73528969D01*
X175247562Y-73539195D01*
X175258434Y-73548716D01*
X175269801Y-73557531D01*
X175281662Y-73565642D01*
X175294017Y-73573047D01*
X175306868Y-73579747D01*
X175320212Y-73585741D01*
X175334052Y-73591031D01*
X175348386Y-73595615D01*
X175363214Y-73599494D01*
X175378538Y-73602667D01*
X175394355Y-73605136D01*
X175410668Y-73606899D01*
X175427475Y-73607957D01*
X175444776Y-73608309D01*
G37*
G36*
X175826088Y-73596000D02*
G01*
X175826088Y-72403411D01*
X175658733Y-72403411D01*
X175658733Y-73596000D01*
X175826088Y-73596000D01*
G37*
G36*
X174912815Y-72570473D02*
G01*
X174912815Y-72403411D01*
X174745460Y-72403411D01*
X174745460Y-72570473D01*
X174912815Y-72570473D01*
G37*
G36*
X174912815Y-73596000D02*
G01*
X174912815Y-72744569D01*
X174745460Y-72744569D01*
X174745460Y-73596000D01*
X174912815Y-73596000D01*
G37*
G36*
X174491936Y-73596000D02*
G01*
X174491936Y-72744569D01*
X174324581Y-72744569D01*
X174324581Y-73596000D01*
X174491936Y-73596000D01*
G37*
G36*
X174023576Y-72946216D02*
G01*
X174032331Y-72936568D01*
X174041890Y-72927847D01*
X174052252Y-72920054D01*
X174063418Y-72913188D01*
X174075388Y-72907250D01*
X174079556Y-72905476D01*
X174092467Y-72900695D01*
X174103809Y-72897466D01*
X174115680Y-72894925D01*
X174128080Y-72893070D01*
X174141011Y-72891902D01*
X174154470Y-72891421D01*
X174157226Y-72891408D01*
X174171859Y-72891794D01*
X174185864Y-72892953D01*
X174199240Y-72894885D01*
X174211988Y-72897590D01*
X174224107Y-72901068D01*
X174235598Y-72905318D01*
X174246460Y-72910341D01*
X174256693Y-72916137D01*
X174269361Y-72925067D01*
X174280910Y-72935371D01*
X174291145Y-72946825D01*
X174300016Y-72959350D01*
X174307522Y-72972947D01*
X174312256Y-72983847D01*
X174316222Y-72995351D01*
X174319420Y-73007457D01*
X174321851Y-73020166D01*
X174323515Y-73033478D01*
X174324410Y-73047393D01*
X174324581Y-73057004D01*
X174341873Y-72892873D01*
X174334408Y-72879038D01*
X174326520Y-72865781D01*
X174318210Y-72853100D01*
X174309477Y-72840996D01*
X174300322Y-72829469D01*
X174290745Y-72818520D01*
X174280745Y-72808147D01*
X174270322Y-72798351D01*
X174259477Y-72789133D01*
X174248210Y-72780491D01*
X174240464Y-72775050D01*
X174228593Y-72767403D01*
X174216500Y-72760508D01*
X174204186Y-72754365D01*
X174191650Y-72748974D01*
X174178893Y-72744336D01*
X174165914Y-72740450D01*
X174152714Y-72737315D01*
X174139292Y-72734934D01*
X174125649Y-72733304D01*
X174111784Y-72732426D01*
X174102418Y-72732259D01*
X174088010Y-72732525D01*
X174073951Y-72733322D01*
X174060240Y-72734650D01*
X174046877Y-72736509D01*
X174033862Y-72738899D01*
X174021195Y-72741821D01*
X174008876Y-72745274D01*
X173996905Y-72749258D01*
X173985295Y-72753687D01*
X173974062Y-72758619D01*
X173963204Y-72764055D01*
X173952721Y-72769995D01*
X173942614Y-72776438D01*
X173932882Y-72783385D01*
X173923526Y-72790836D01*
X173914546Y-72798791D01*
X174023576Y-72946216D01*
G37*
G36*
X173308140Y-73596000D02*
G01*
X173308140Y-72403411D01*
X173140785Y-72403411D01*
X173140785Y-73596000D01*
X173308140Y-73596000D01*
G37*
G36*
X173522096Y-73610654D02*
G01*
X173539503Y-73610300D01*
X173556407Y-73609239D01*
X173572806Y-73607470D01*
X173588702Y-73604994D01*
X173604093Y-73601810D01*
X173618982Y-73597918D01*
X173633366Y-73593319D01*
X173647247Y-73588013D01*
X173660623Y-73581999D01*
X173673497Y-73575277D01*
X173685866Y-73567848D01*
X173697732Y-73559711D01*
X173709093Y-73550867D01*
X173719952Y-73541315D01*
X173730306Y-73531056D01*
X173740157Y-73520089D01*
X173749420Y-73508477D01*
X173758085Y-73496284D01*
X173766153Y-73483510D01*
X173773624Y-73470153D01*
X173780497Y-73456216D01*
X173786772Y-73441696D01*
X173792449Y-73426595D01*
X173797529Y-73410912D01*
X173802011Y-73394648D01*
X173805896Y-73377802D01*
X173809183Y-73360375D01*
X173811872Y-73342366D01*
X173813964Y-73323775D01*
X173815458Y-73304603D01*
X173816355Y-73284849D01*
X173816653Y-73264513D01*
X173816653Y-73076642D01*
X173816360Y-73056235D01*
X173815481Y-73036415D01*
X173814016Y-73017181D01*
X173811964Y-72998533D01*
X173809326Y-72980471D01*
X173806102Y-72962995D01*
X173802292Y-72946106D01*
X173797896Y-72929803D01*
X173792913Y-72914086D01*
X173787344Y-72898955D01*
X173781189Y-72884410D01*
X173774448Y-72870452D01*
X173767121Y-72857079D01*
X173759207Y-72844293D01*
X173750708Y-72832093D01*
X173741622Y-72820480D01*
X173732004Y-72809477D01*
X173721907Y-72799185D01*
X173711332Y-72789602D01*
X173700278Y-72780729D01*
X173688745Y-72772566D01*
X173676734Y-72765113D01*
X173664245Y-72758369D01*
X173651277Y-72752336D01*
X173637830Y-72747012D01*
X173623905Y-72742398D01*
X173609501Y-72738494D01*
X173594618Y-72735300D01*
X173579257Y-72732816D01*
X173563418Y-72731041D01*
X173547100Y-72729976D01*
X173530303Y-72729621D01*
X173516290Y-72729969D01*
X173502499Y-72731012D01*
X173488930Y-72732751D01*
X173475582Y-72735185D01*
X173462456Y-72738315D01*
X173449551Y-72742141D01*
X173436867Y-72746662D01*
X173424405Y-72751878D01*
X173412165Y-72757790D01*
X173400146Y-72764397D01*
X173392257Y-72769189D01*
X173380708Y-72776836D01*
X173369581Y-72785050D01*
X173358877Y-72793831D01*
X173348596Y-72803178D01*
X173338736Y-72813092D01*
X173329300Y-72823573D01*
X173320285Y-72834621D01*
X173311693Y-72846235D01*
X173303524Y-72858416D01*
X173295777Y-72871164D01*
X173290847Y-72879977D01*
X173308140Y-73053780D01*
X173308447Y-73040472D01*
X173309367Y-73027659D01*
X173310901Y-73015340D01*
X173313049Y-73003515D01*
X173316597Y-72989430D01*
X173321103Y-72976118D01*
X173326569Y-72963579D01*
X173327777Y-72961163D01*
X173334350Y-72949531D01*
X173341796Y-72938815D01*
X173350115Y-72929015D01*
X173359307Y-72920131D01*
X173369372Y-72912162D01*
X173380310Y-72905110D01*
X173384930Y-72902545D01*
X173396955Y-72896719D01*
X173409768Y-72891881D01*
X173423368Y-72888029D01*
X173437755Y-72885166D01*
X173449831Y-72883586D01*
X173462411Y-72882638D01*
X173475495Y-72882322D01*
X173490717Y-72882778D01*
X173505280Y-72884146D01*
X173519184Y-72886425D01*
X173532428Y-72889617D01*
X173545013Y-72893721D01*
X173556938Y-72898736D01*
X173568203Y-72904664D01*
X173578810Y-72911503D01*
X173588756Y-72919254D01*
X173598044Y-72927917D01*
X173603869Y-72934199D01*
X173611988Y-72944239D01*
X173619308Y-72955017D01*
X173625829Y-72966530D01*
X173631552Y-72978781D01*
X173636477Y-72991768D01*
X173640603Y-73005492D01*
X173643930Y-73019953D01*
X173646459Y-73035151D01*
X173648189Y-73051085D01*
X173649121Y-73067756D01*
X173649298Y-73079279D01*
X173649298Y-73264513D01*
X173648899Y-73281560D01*
X173647701Y-73297860D01*
X173645705Y-73313413D01*
X173642910Y-73328219D01*
X173639316Y-73342278D01*
X173634924Y-73355590D01*
X173629733Y-73368155D01*
X173623744Y-73379973D01*
X173616957Y-73391044D01*
X173609370Y-73401367D01*
X173603869Y-73407835D01*
X173595021Y-73416844D01*
X173585514Y-73424967D01*
X173575348Y-73432204D01*
X173564521Y-73438554D01*
X173553036Y-73444019D01*
X173540891Y-73448597D01*
X173528087Y-73452290D01*
X173514623Y-73455096D01*
X173500499Y-73457016D01*
X173485717Y-73458050D01*
X173475495Y-73458247D01*
X173462411Y-73457921D01*
X173449831Y-73456946D01*
X173437755Y-73455320D01*
X173426182Y-73453044D01*
X173412425Y-73449285D01*
X173399455Y-73444509D01*
X173387272Y-73438717D01*
X173384930Y-73437437D01*
X173373643Y-73430399D01*
X173363228Y-73422473D01*
X173353687Y-73413661D01*
X173345019Y-73403961D01*
X173337224Y-73393373D01*
X173330301Y-73381899D01*
X173327777Y-73377060D01*
X173322120Y-73364323D01*
X173317421Y-73350842D01*
X173314353Y-73339522D01*
X173311898Y-73327725D01*
X173310057Y-73315451D01*
X173308830Y-73302702D01*
X173308216Y-73289476D01*
X173308140Y-73282685D01*
X173296709Y-73462350D01*
X173302947Y-73476524D01*
X173310228Y-73490322D01*
X173316374Y-73500424D01*
X173323108Y-73510315D01*
X173330429Y-73519995D01*
X173338337Y-73529463D01*
X173346833Y-73538720D01*
X173355916Y-73547766D01*
X173365586Y-73556601D01*
X173375844Y-73565225D01*
X173386691Y-73573344D01*
X173398131Y-73580664D01*
X173410164Y-73587185D01*
X173422789Y-73592908D01*
X173436006Y-73597833D01*
X173449816Y-73601959D01*
X173464219Y-73605286D01*
X173479214Y-73607815D01*
X173494801Y-73609545D01*
X173510981Y-73610477D01*
X173522096Y-73610654D01*
G37*
G36*
X172347386Y-73091589D02*
G01*
X172347386Y-72932441D01*
X171940575Y-72932441D01*
X171927144Y-72931995D01*
X171914218Y-72930658D01*
X171901796Y-72928430D01*
X171889880Y-72925310D01*
X171878468Y-72921299D01*
X171867561Y-72916397D01*
X171857159Y-72910604D01*
X171847262Y-72903919D01*
X171837870Y-72896343D01*
X171828983Y-72887876D01*
X171823339Y-72881736D01*
X171815429Y-72871885D01*
X171808298Y-72861457D01*
X171801945Y-72850453D01*
X171796370Y-72838871D01*
X171791572Y-72826712D01*
X171787553Y-72813977D01*
X171784311Y-72800664D01*
X171781848Y-72786774D01*
X171780162Y-72772307D01*
X171779255Y-72757263D01*
X171779082Y-72746914D01*
X171779471Y-72731540D01*
X171780638Y-72716744D01*
X171782583Y-72702524D01*
X171785305Y-72688882D01*
X171788806Y-72675816D01*
X171793085Y-72663328D01*
X171798142Y-72651416D01*
X171803976Y-72640082D01*
X171810589Y-72629324D01*
X171817979Y-72619144D01*
X171823339Y-72612678D01*
X171831889Y-72603564D01*
X171840945Y-72595346D01*
X171850505Y-72588025D01*
X171860570Y-72581601D01*
X171871141Y-72576073D01*
X171882216Y-72571441D01*
X171893796Y-72567706D01*
X171905881Y-72564867D01*
X171918470Y-72562925D01*
X171931565Y-72561879D01*
X171940575Y-72561680D01*
X172347386Y-72561680D01*
X172347386Y-72402531D01*
X171947023Y-72402531D01*
X171934119Y-72402700D01*
X171921419Y-72403204D01*
X171908922Y-72404046D01*
X171896630Y-72405224D01*
X171884541Y-72406739D01*
X171872656Y-72408590D01*
X171860975Y-72410778D01*
X171849497Y-72413302D01*
X171832663Y-72417720D01*
X171816287Y-72422895D01*
X171800370Y-72428828D01*
X171784912Y-72435518D01*
X171769912Y-72442965D01*
X171765013Y-72445616D01*
X171750702Y-72453993D01*
X171737004Y-72462968D01*
X171723919Y-72472540D01*
X171711446Y-72482710D01*
X171699587Y-72493478D01*
X171688341Y-72504843D01*
X171677709Y-72516806D01*
X171667689Y-72529367D01*
X171658282Y-72542525D01*
X171649488Y-72556281D01*
X171643967Y-72565783D01*
X171636267Y-72580473D01*
X171629325Y-72595637D01*
X171623140Y-72611275D01*
X171617712Y-72627387D01*
X171613042Y-72643973D01*
X171609129Y-72661033D01*
X171606941Y-72672670D01*
X171605090Y-72684517D01*
X171603575Y-72696575D01*
X171602397Y-72708844D01*
X171601555Y-72721323D01*
X171601051Y-72734013D01*
X171600882Y-72746914D01*
X171601053Y-72759746D01*
X171601565Y-72772376D01*
X171602418Y-72784805D01*
X171603612Y-72797032D01*
X171605147Y-72809058D01*
X171607023Y-72820883D01*
X171609241Y-72832506D01*
X171613207Y-72849562D01*
X171617941Y-72866165D01*
X171623443Y-72882315D01*
X171629712Y-72898011D01*
X171636748Y-72913254D01*
X171644553Y-72928044D01*
X171652988Y-72942251D01*
X171662025Y-72955855D01*
X171671665Y-72968856D01*
X171681908Y-72981254D01*
X171692754Y-72993049D01*
X171704203Y-73004242D01*
X171716254Y-73014832D01*
X171728908Y-73024819D01*
X171742165Y-73034204D01*
X171756025Y-73042985D01*
X171765600Y-73048505D01*
X171780342Y-73056204D01*
X171795553Y-73063147D01*
X171811233Y-73069332D01*
X171827382Y-73074759D01*
X171844000Y-73079430D01*
X171861087Y-73083343D01*
X171872738Y-73085530D01*
X171884598Y-73087382D01*
X171896666Y-73088896D01*
X171908943Y-73090074D01*
X171921428Y-73090916D01*
X171934121Y-73091421D01*
X171947023Y-73091589D01*
X172347386Y-73091589D01*
G37*
G36*
X172420366Y-73596000D02*
G01*
X172420366Y-72402531D01*
X172253011Y-72402531D01*
X172253011Y-73596000D01*
X172420366Y-73596000D01*
G37*
G36*
X171749480Y-73596000D02*
G01*
X172022641Y-73054660D01*
X171856165Y-73016851D01*
X171550764Y-73596000D01*
X171749480Y-73596000D01*
G37*
G36*
X170885739Y-73596000D02*
G01*
X170885739Y-73056125D01*
X170886133Y-73040790D01*
X170887316Y-73026110D01*
X170889286Y-73012083D01*
X170892045Y-72998711D01*
X170895592Y-72985994D01*
X170899928Y-72973930D01*
X170905051Y-72962521D01*
X170910963Y-72951766D01*
X170917664Y-72941666D01*
X170925152Y-72932220D01*
X170930582Y-72926286D01*
X170939265Y-72918010D01*
X170948607Y-72910548D01*
X170958609Y-72903900D01*
X170969270Y-72898066D01*
X170980591Y-72893047D01*
X170992571Y-72888841D01*
X171005211Y-72885449D01*
X171018510Y-72882871D01*
X171032468Y-72881108D01*
X171047086Y-72880158D01*
X171057198Y-72879977D01*
X171069709Y-72880215D01*
X171082184Y-72880930D01*
X171094622Y-72882120D01*
X171107023Y-72883787D01*
X171119388Y-72885931D01*
X171131716Y-72888550D01*
X171144008Y-72891646D01*
X171156263Y-72895218D01*
X171168266Y-72899170D01*
X171179948Y-72903553D01*
X171191310Y-72908366D01*
X171202351Y-72913609D01*
X171213072Y-72919283D01*
X171223472Y-72925388D01*
X171233552Y-72931923D01*
X171243311Y-72938889D01*
X171365530Y-72855357D01*
X171356192Y-72844651D01*
X171346313Y-72834403D01*
X171335893Y-72824613D01*
X171324932Y-72815282D01*
X171313430Y-72806409D01*
X171301387Y-72797995D01*
X171288804Y-72790040D01*
X171275679Y-72782543D01*
X171262013Y-72775504D01*
X171247807Y-72768924D01*
X171238035Y-72764792D01*
X171223043Y-72758978D01*
X171207741Y-72753736D01*
X171192131Y-72749066D01*
X171176211Y-72744967D01*
X171159982Y-72741441D01*
X171143444Y-72738486D01*
X171126597Y-72736103D01*
X171109441Y-72734292D01*
X171091976Y-72733053D01*
X171080161Y-72732545D01*
X171068208Y-72732291D01*
X171062180Y-72732259D01*
X171042460Y-72732583D01*
X171023304Y-72733555D01*
X171004715Y-72735175D01*
X170986691Y-72737443D01*
X170969232Y-72740359D01*
X170952340Y-72743923D01*
X170936012Y-72748135D01*
X170920251Y-72752995D01*
X170905055Y-72758503D01*
X170890424Y-72764659D01*
X170876359Y-72771464D01*
X170862860Y-72778916D01*
X170849926Y-72787016D01*
X170837558Y-72795764D01*
X170825755Y-72805160D01*
X170814518Y-72815204D01*
X170803871Y-72825802D01*
X170793910Y-72836934D01*
X170784636Y-72848599D01*
X170776050Y-72860798D01*
X170768150Y-72873530D01*
X170760937Y-72886796D01*
X170754411Y-72900595D01*
X170748572Y-72914928D01*
X170743420Y-72929795D01*
X170738955Y-72945195D01*
X170735177Y-72961128D01*
X170732086Y-72977595D01*
X170729682Y-72994595D01*
X170727964Y-73012129D01*
X170726934Y-73030197D01*
X170726591Y-73048798D01*
X170726591Y-73596000D01*
X170885739Y-73596000D01*
G37*
G36*
X171094127Y-73608309D02*
G01*
X171113421Y-73608056D01*
X171132101Y-73607297D01*
X171150167Y-73606032D01*
X171167620Y-73604261D01*
X171184459Y-73601984D01*
X171200684Y-73599201D01*
X171216296Y-73595911D01*
X171231294Y-73592116D01*
X171245678Y-73587815D01*
X171259449Y-73583007D01*
X171272606Y-73577694D01*
X171285150Y-73571874D01*
X171297079Y-73565549D01*
X171308395Y-73558717D01*
X171319098Y-73551380D01*
X171329187Y-73543536D01*
X171338663Y-73535170D01*
X171347528Y-73526267D01*
X171355781Y-73516825D01*
X171363423Y-73506845D01*
X171370454Y-73496327D01*
X171376873Y-73485270D01*
X171382681Y-73473676D01*
X171387878Y-73461544D01*
X171392463Y-73448873D01*
X171396437Y-73435665D01*
X171399800Y-73421918D01*
X171402551Y-73407633D01*
X171404691Y-73392810D01*
X171406219Y-73377449D01*
X171407136Y-73361550D01*
X171407442Y-73345113D01*
X171407161Y-73329465D01*
X171406320Y-73314320D01*
X171404917Y-73299679D01*
X171402954Y-73285542D01*
X171400429Y-73271909D01*
X171397344Y-73258780D01*
X171393698Y-73246154D01*
X171389490Y-73234032D01*
X171384722Y-73222413D01*
X171379392Y-73211299D01*
X171373502Y-73200688D01*
X171367050Y-73190581D01*
X171360038Y-73180977D01*
X171352464Y-73171878D01*
X171344330Y-73163282D01*
X171335635Y-73155190D01*
X171326379Y-73147595D01*
X171316565Y-73140490D01*
X171306193Y-73133874D01*
X171295261Y-73127749D01*
X171283771Y-73122114D01*
X171271722Y-73116969D01*
X171259115Y-73112314D01*
X171245949Y-73108149D01*
X171232224Y-73104474D01*
X171217940Y-73101289D01*
X171203098Y-73098594D01*
X171187697Y-73096389D01*
X171171737Y-73094674D01*
X171155218Y-73093448D01*
X171138141Y-73092713D01*
X171120505Y-73092468D01*
X170878412Y-73092468D01*
X170866981Y-73226997D01*
X171119626Y-73226997D01*
X171131490Y-73227252D01*
X171146436Y-73228386D01*
X171160383Y-73230426D01*
X171173331Y-73233373D01*
X171185282Y-73237227D01*
X171196234Y-73241987D01*
X171208520Y-73249213D01*
X171217226Y-73256013D01*
X171226682Y-73265839D01*
X171234536Y-73277182D01*
X171240787Y-73290042D01*
X171244634Y-73301423D01*
X171247455Y-73313774D01*
X171249250Y-73327096D01*
X171250020Y-73341388D01*
X171250052Y-73345113D01*
X171249671Y-73356962D01*
X171247976Y-73371839D01*
X171244926Y-73385662D01*
X171240521Y-73398432D01*
X171234760Y-73410149D01*
X171227643Y-73420812D01*
X171219171Y-73430423D01*
X171209343Y-73438979D01*
X171206674Y-73440954D01*
X171195079Y-73448236D01*
X171182128Y-73454546D01*
X171167821Y-73459886D01*
X171156202Y-73463254D01*
X171143820Y-73466075D01*
X171130675Y-73468351D01*
X171116769Y-73470080D01*
X171102099Y-73471263D01*
X171086667Y-73471900D01*
X171075956Y-73472022D01*
X171058568Y-73471842D01*
X171042014Y-73471301D01*
X171026295Y-73470399D01*
X171011411Y-73469137D01*
X170997362Y-73467514D01*
X170984147Y-73465530D01*
X170971767Y-73463186D01*
X170960221Y-73460481D01*
X170946125Y-73456314D01*
X170933513Y-73451505D01*
X170922316Y-73446019D01*
X170910419Y-73438157D01*
X170900855Y-73429178D01*
X170893624Y-73419083D01*
X170888725Y-73407871D01*
X170886159Y-73395544D01*
X170885739Y-73387612D01*
X170868447Y-73507486D01*
X170875665Y-73517909D01*
X170883399Y-73527745D01*
X170891648Y-73536994D01*
X170900412Y-73545656D01*
X170909691Y-73553732D01*
X170919486Y-73561221D01*
X170923548Y-73564053D01*
X170934035Y-73570657D01*
X170944980Y-73576732D01*
X170956383Y-73582278D01*
X170968244Y-73587294D01*
X170980563Y-73591780D01*
X170993340Y-73595737D01*
X170998579Y-73597172D01*
X171012040Y-73600380D01*
X171026045Y-73603045D01*
X171037641Y-73604785D01*
X171049584Y-73606178D01*
X171061876Y-73607222D01*
X171074515Y-73607918D01*
X171087503Y-73608266D01*
X171094127Y-73608309D01*
G37*
G36*
X170129270Y-73608309D02*
G01*
X170150906Y-73607932D01*
X170171924Y-73606798D01*
X170192324Y-73604909D01*
X170212105Y-73602264D01*
X170231268Y-73598864D01*
X170249813Y-73594708D01*
X170267740Y-73589796D01*
X170285048Y-73584129D01*
X170301739Y-73577706D01*
X170317810Y-73570528D01*
X170333264Y-73562594D01*
X170348100Y-73553904D01*
X170362317Y-73544459D01*
X170375916Y-73534258D01*
X170388897Y-73523301D01*
X170401259Y-73511589D01*
X170412936Y-73499153D01*
X170423859Y-73486099D01*
X170434029Y-73472427D01*
X170443446Y-73458137D01*
X170452109Y-73443228D01*
X170460019Y-73427701D01*
X170467176Y-73411556D01*
X170473579Y-73394792D01*
X170479229Y-73377411D01*
X170484126Y-73359411D01*
X170488269Y-73340792D01*
X170491659Y-73321556D01*
X170494296Y-73301701D01*
X170496179Y-73281228D01*
X170497310Y-73260137D01*
X170497686Y-73238428D01*
X170497686Y-73098037D01*
X170497310Y-73076511D01*
X170496179Y-73055603D01*
X170494296Y-73035313D01*
X170491659Y-73015642D01*
X170488269Y-72996589D01*
X170484126Y-72978154D01*
X170479229Y-72960337D01*
X170473579Y-72943138D01*
X170467176Y-72926558D01*
X170460019Y-72910596D01*
X170452109Y-72895252D01*
X170443446Y-72880527D01*
X170434029Y-72866419D01*
X170423859Y-72852930D01*
X170412936Y-72840059D01*
X170401259Y-72827807D01*
X170388897Y-72816237D01*
X170375916Y-72805413D01*
X170362317Y-72795336D01*
X170348100Y-72786005D01*
X170333264Y-72777420D01*
X170317810Y-72769582D01*
X170301739Y-72762491D01*
X170285048Y-72756146D01*
X170267740Y-72750548D01*
X170249813Y-72745696D01*
X170231268Y-72741590D01*
X170212105Y-72738231D01*
X170192324Y-72735618D01*
X170171924Y-72733752D01*
X170150906Y-72732632D01*
X170129270Y-72732259D01*
X170116854Y-72732398D01*
X170104591Y-72732813D01*
X170092482Y-72733506D01*
X170080525Y-72734476D01*
X170068723Y-72735722D01*
X170057074Y-72737246D01*
X170039887Y-72740051D01*
X170023046Y-72743480D01*
X170006551Y-72747532D01*
X169990400Y-72752208D01*
X169974594Y-72757506D01*
X169959134Y-72763429D01*
X169949019Y-72767723D01*
X169934198Y-72774583D01*
X169919958Y-72781974D01*
X169906301Y-72789895D01*
X169893226Y-72798347D01*
X169880734Y-72807329D01*
X169868823Y-72816842D01*
X169857495Y-72826886D01*
X169846748Y-72837461D01*
X169836584Y-72848566D01*
X169827003Y-72860202D01*
X169820938Y-72868254D01*
X169941692Y-72976697D01*
X169950691Y-72966737D01*
X169960102Y-72957372D01*
X169969925Y-72948602D01*
X169980160Y-72940427D01*
X169990807Y-72932848D01*
X170001867Y-72925864D01*
X170013339Y-72919476D01*
X170025223Y-72913683D01*
X170037391Y-72908462D01*
X170049714Y-72903937D01*
X170062194Y-72900109D01*
X170074829Y-72896976D01*
X170087619Y-72894540D01*
X170100566Y-72892800D01*
X170113668Y-72891756D01*
X170126926Y-72891408D01*
X170138846Y-72891620D01*
X170156092Y-72892732D01*
X170172575Y-72894797D01*
X170188295Y-72897815D01*
X170203253Y-72901786D01*
X170217448Y-72906711D01*
X170230881Y-72912588D01*
X170243552Y-72919419D01*
X170255460Y-72927203D01*
X170266605Y-72935940D01*
X170276988Y-72945630D01*
X170286521Y-72956133D01*
X170295116Y-72967419D01*
X170302774Y-72979489D01*
X170309494Y-72992341D01*
X170315276Y-73005977D01*
X170320121Y-73020395D01*
X170324028Y-73035597D01*
X170326997Y-73051582D01*
X170329029Y-73068350D01*
X170330123Y-73085901D01*
X170330331Y-73098037D01*
X170330331Y-73238428D01*
X170330123Y-73250852D01*
X170329497Y-73262919D01*
X170328456Y-73274629D01*
X170326111Y-73291524D01*
X170322830Y-73307616D01*
X170318610Y-73322904D01*
X170313453Y-73337388D01*
X170307358Y-73351068D01*
X170300326Y-73363944D01*
X170292356Y-73376017D01*
X170283448Y-73387286D01*
X170276988Y-73394353D01*
X170266605Y-73404147D01*
X170255460Y-73412979D01*
X170243552Y-73420847D01*
X170230881Y-73427751D01*
X170217448Y-73433692D01*
X170203253Y-73438670D01*
X170188295Y-73442684D01*
X170172575Y-73445735D01*
X170156092Y-73447823D01*
X170138846Y-73448947D01*
X170126926Y-73449161D01*
X170113668Y-73448790D01*
X170100566Y-73447677D01*
X170087619Y-73445822D01*
X170074829Y-73443226D01*
X170062194Y-73439887D01*
X170049714Y-73435807D01*
X170037391Y-73430984D01*
X170025223Y-73425420D01*
X170013339Y-73419174D01*
X170001867Y-73412304D01*
X169990807Y-73404812D01*
X169980160Y-73396697D01*
X169969925Y-73387960D01*
X169960102Y-73378599D01*
X169950691Y-73368616D01*
X169941692Y-73358009D01*
X169820938Y-73474660D01*
X169830134Y-73486385D01*
X169839918Y-73497600D01*
X169850289Y-73508305D01*
X169861247Y-73518500D01*
X169872793Y-73528185D01*
X169884926Y-73537359D01*
X169897646Y-73546024D01*
X169910954Y-73554179D01*
X169924849Y-73561824D01*
X169939331Y-73568958D01*
X169949312Y-73573431D01*
X169964639Y-73579665D01*
X169980286Y-73585284D01*
X169996252Y-73590291D01*
X170012537Y-73594685D01*
X170029142Y-73598466D01*
X170046067Y-73601633D01*
X170063310Y-73604188D01*
X170074984Y-73605550D01*
X170086799Y-73606640D01*
X170098756Y-73607458D01*
X170110855Y-73608003D01*
X170123096Y-73608275D01*
X170129270Y-73608309D01*
G37*
G36*
X169637170Y-72570473D02*
G01*
X169637170Y-72403411D01*
X169469815Y-72403411D01*
X169469815Y-72570473D01*
X169637170Y-72570473D01*
G37*
G36*
X169637170Y-73596000D02*
G01*
X169637170Y-72744569D01*
X169469815Y-72744569D01*
X169469815Y-73596000D01*
X169637170Y-73596000D01*
G37*
G36*
X169216290Y-73596000D02*
G01*
X169216290Y-72744569D01*
X169048935Y-72744569D01*
X169048935Y-73596000D01*
X169216290Y-73596000D01*
G37*
G36*
X168699570Y-73596000D02*
G01*
X168699570Y-73080159D01*
X168699977Y-73063593D01*
X168701198Y-73047749D01*
X168703233Y-73032626D01*
X168706082Y-73018225D01*
X168709746Y-73004544D01*
X168714223Y-72991585D01*
X168719514Y-72979348D01*
X168725619Y-72967831D01*
X168732538Y-72957036D01*
X168740271Y-72946962D01*
X168745879Y-72940647D01*
X168754904Y-72931847D01*
X168764615Y-72923913D01*
X168775011Y-72916845D01*
X168786092Y-72910642D01*
X168797858Y-72905304D01*
X168810310Y-72900832D01*
X168823446Y-72897226D01*
X168837268Y-72894485D01*
X168851776Y-72892610D01*
X168866968Y-72891600D01*
X168877477Y-72891408D01*
X168892537Y-72891789D01*
X168906943Y-72892933D01*
X168920694Y-72894839D01*
X168933792Y-72897508D01*
X168946235Y-72900939D01*
X168958023Y-72905133D01*
X168969157Y-72910089D01*
X168979637Y-72915808D01*
X168989463Y-72922289D01*
X169001546Y-72932117D01*
X169004385Y-72934785D01*
X169014827Y-72946184D01*
X169023876Y-72958691D01*
X169031533Y-72972306D01*
X169036362Y-72983244D01*
X169040408Y-72994806D01*
X169043671Y-73006991D01*
X169046151Y-73019800D01*
X169047848Y-73033232D01*
X169048761Y-73047288D01*
X169048935Y-73057004D01*
X169066228Y-72892873D01*
X169058650Y-72878732D01*
X169050645Y-72865214D01*
X169042212Y-72852319D01*
X169033351Y-72840048D01*
X169024063Y-72828400D01*
X169014347Y-72817376D01*
X169004204Y-72806975D01*
X168993633Y-72797197D01*
X168982634Y-72788043D01*
X168971208Y-72779512D01*
X168963353Y-72774171D01*
X168951309Y-72766681D01*
X168939028Y-72759928D01*
X168926511Y-72753911D01*
X168913756Y-72748631D01*
X168900764Y-72744088D01*
X168887536Y-72740281D01*
X168874070Y-72737212D01*
X168860368Y-72734879D01*
X168846428Y-72733282D01*
X168832251Y-72732423D01*
X168822669Y-72732259D01*
X168805585Y-72732613D01*
X168788991Y-72733674D01*
X168772887Y-72735443D01*
X168757273Y-72737919D01*
X168742149Y-72741103D01*
X168727515Y-72744995D01*
X168713371Y-72749594D01*
X168699717Y-72754900D01*
X168686553Y-72760915D01*
X168673879Y-72767636D01*
X168661695Y-72775065D01*
X168650001Y-72783202D01*
X168638797Y-72792046D01*
X168628084Y-72801598D01*
X168617860Y-72811857D01*
X168608126Y-72822824D01*
X168598933Y-72834439D01*
X168590334Y-72846643D01*
X168582328Y-72859434D01*
X168574915Y-72872815D01*
X168568095Y-72886784D01*
X168561868Y-72901341D01*
X168556234Y-72916487D01*
X168551193Y-72932221D01*
X168546745Y-72948543D01*
X168542890Y-72965455D01*
X168539628Y-72982954D01*
X168536960Y-73001042D01*
X168534884Y-73019719D01*
X168533401Y-73038984D01*
X168532512Y-73058837D01*
X168532215Y-73079279D01*
X168532215Y-73596000D01*
X168699570Y-73596000D01*
G37*
G36*
X167992927Y-73942140D02*
G01*
X168004865Y-73942001D01*
X168016644Y-73941582D01*
X168034018Y-73940429D01*
X168051036Y-73938649D01*
X168067698Y-73936239D01*
X168084005Y-73933201D01*
X168099957Y-73929535D01*
X168115552Y-73925240D01*
X168130793Y-73920316D01*
X168145678Y-73914764D01*
X168160207Y-73908583D01*
X168164972Y-73906383D01*
X168178854Y-73899476D01*
X168192143Y-73892054D01*
X168204840Y-73884116D01*
X168216945Y-73875664D01*
X168228457Y-73866696D01*
X168239377Y-73857213D01*
X168249704Y-73847214D01*
X168259439Y-73836701D01*
X168268581Y-73825672D01*
X168277131Y-73814128D01*
X168282501Y-73806146D01*
X168169368Y-73703564D01*
X168160964Y-73714528D01*
X168152167Y-73724850D01*
X168142976Y-73734531D01*
X168133391Y-73743571D01*
X168123412Y-73751970D01*
X168113039Y-73759728D01*
X168102273Y-73766844D01*
X168091113Y-73773320D01*
X168079618Y-73779090D01*
X168067995Y-73784091D01*
X168056244Y-73788322D01*
X168044364Y-73791785D01*
X168032357Y-73794477D01*
X168020221Y-73796401D01*
X168007957Y-73797555D01*
X167995565Y-73797939D01*
X167983719Y-73797732D01*
X167966589Y-73796644D01*
X167950227Y-73794624D01*
X167934633Y-73791671D01*
X167919806Y-73787785D01*
X167905747Y-73782967D01*
X167892456Y-73777217D01*
X167879932Y-73770534D01*
X167868176Y-73762918D01*
X167857188Y-73754370D01*
X167846967Y-73744890D01*
X167837592Y-73734559D01*
X167829138Y-73723461D01*
X167821607Y-73711595D01*
X167814998Y-73698962D01*
X167809311Y-73685560D01*
X167804546Y-73671392D01*
X167800703Y-73656455D01*
X167797783Y-73640751D01*
X167795785Y-73624279D01*
X167794709Y-73607040D01*
X167794504Y-73595120D01*
X167794504Y-72744569D01*
X167627149Y-72744569D01*
X167627149Y-73570501D01*
X167627522Y-73592352D01*
X167628642Y-73613576D01*
X167630508Y-73634172D01*
X167633121Y-73654142D01*
X167636480Y-73673483D01*
X167640585Y-73692198D01*
X167645437Y-73710285D01*
X167651036Y-73727744D01*
X167657381Y-73744576D01*
X167664472Y-73760781D01*
X167672310Y-73776358D01*
X167680894Y-73791308D01*
X167690225Y-73805631D01*
X167700303Y-73819326D01*
X167711126Y-73832394D01*
X167722697Y-73844834D01*
X167734949Y-73856617D01*
X167747820Y-73867640D01*
X167761309Y-73877903D01*
X167775416Y-73887406D01*
X167790142Y-73896148D01*
X167805486Y-73904130D01*
X167821448Y-73911352D01*
X167838028Y-73917814D01*
X167855227Y-73923515D01*
X167873043Y-73928457D01*
X167891478Y-73932638D01*
X167910532Y-73936059D01*
X167930203Y-73938720D01*
X167950493Y-73940620D01*
X167971401Y-73941760D01*
X167992927Y-73942140D01*
G37*
G36*
X168008461Y-73610654D02*
G01*
X168025868Y-73610300D01*
X168042771Y-73609239D01*
X168059170Y-73607470D01*
X168075066Y-73604994D01*
X168090458Y-73601810D01*
X168105346Y-73597918D01*
X168119730Y-73593319D01*
X168133611Y-73588013D01*
X168146988Y-73581999D01*
X168159861Y-73575277D01*
X168172230Y-73567848D01*
X168184096Y-73559711D01*
X168195458Y-73550867D01*
X168206316Y-73541315D01*
X168216670Y-73531056D01*
X168226521Y-73520089D01*
X168235784Y-73508477D01*
X168244450Y-73496284D01*
X168252518Y-73483510D01*
X168259988Y-73470153D01*
X168266861Y-73456216D01*
X168273136Y-73441696D01*
X168278814Y-73426595D01*
X168283893Y-73410912D01*
X168288376Y-73394648D01*
X168292260Y-73377802D01*
X168295547Y-73360375D01*
X168298237Y-73342366D01*
X168300328Y-73323775D01*
X168301822Y-73304603D01*
X168302719Y-73284849D01*
X168303018Y-73264513D01*
X168303018Y-73076642D01*
X168302725Y-73056235D01*
X168301845Y-73036415D01*
X168300380Y-73017181D01*
X168298328Y-72998533D01*
X168295690Y-72980471D01*
X168292466Y-72962995D01*
X168288656Y-72946106D01*
X168284260Y-72929803D01*
X168279277Y-72914086D01*
X168273709Y-72898955D01*
X168267554Y-72884410D01*
X168260812Y-72870452D01*
X168253485Y-72857079D01*
X168245572Y-72844293D01*
X168237072Y-72832093D01*
X168227986Y-72820480D01*
X168218368Y-72809477D01*
X168208271Y-72799185D01*
X168197696Y-72789602D01*
X168186642Y-72780729D01*
X168175110Y-72772566D01*
X168163099Y-72765113D01*
X168150609Y-72758369D01*
X168137641Y-72752336D01*
X168124194Y-72747012D01*
X168110269Y-72742398D01*
X168095865Y-72738494D01*
X168080983Y-72735300D01*
X168065622Y-72732816D01*
X168049782Y-72731041D01*
X168033464Y-72729976D01*
X168016667Y-72729621D01*
X168002655Y-72729969D01*
X167988864Y-72731012D01*
X167975294Y-72732751D01*
X167961946Y-72735185D01*
X167948820Y-72738315D01*
X167935915Y-72742141D01*
X167923232Y-72746662D01*
X167910770Y-72751878D01*
X167898529Y-72757790D01*
X167886511Y-72764397D01*
X167878621Y-72769189D01*
X167867072Y-72776836D01*
X167855946Y-72785050D01*
X167845241Y-72793831D01*
X167834960Y-72803178D01*
X167825101Y-72813092D01*
X167815664Y-72823573D01*
X167806650Y-72834621D01*
X167798058Y-72846235D01*
X167789888Y-72858416D01*
X167782142Y-72871164D01*
X167777212Y-72879977D01*
X167794504Y-73053780D01*
X167794811Y-73040472D01*
X167795731Y-73027659D01*
X167797266Y-73015340D01*
X167799413Y-73003515D01*
X167802961Y-72989430D01*
X167807468Y-72976118D01*
X167812933Y-72963579D01*
X167814141Y-72961163D01*
X167820714Y-72949531D01*
X167828160Y-72938815D01*
X167836479Y-72929015D01*
X167845671Y-72920131D01*
X167855736Y-72912162D01*
X167866674Y-72905110D01*
X167871294Y-72902545D01*
X167883320Y-72896719D01*
X167896132Y-72891881D01*
X167909732Y-72888029D01*
X167924119Y-72885166D01*
X167936195Y-72883586D01*
X167948775Y-72882638D01*
X167961859Y-72882322D01*
X167977082Y-72882778D01*
X167991645Y-72884146D01*
X168005548Y-72886425D01*
X168018792Y-72889617D01*
X168031377Y-72893721D01*
X168043302Y-72898736D01*
X168054568Y-72904664D01*
X168065174Y-72911503D01*
X168075121Y-72919254D01*
X168084408Y-72927917D01*
X168090233Y-72934199D01*
X168098352Y-72944239D01*
X168105672Y-72955017D01*
X168112194Y-72966530D01*
X168117917Y-72978781D01*
X168122841Y-72991768D01*
X168126967Y-73005492D01*
X168130294Y-73019953D01*
X168132823Y-73035151D01*
X168134553Y-73051085D01*
X168135485Y-73067756D01*
X168135662Y-73079279D01*
X168135662Y-73264513D01*
X168135263Y-73281560D01*
X168134065Y-73297860D01*
X168132069Y-73313413D01*
X168129274Y-73328219D01*
X168125680Y-73342278D01*
X168121288Y-73355590D01*
X168116098Y-73368155D01*
X168110109Y-73379973D01*
X168103321Y-73391044D01*
X168095734Y-73401367D01*
X168090233Y-73407835D01*
X168081386Y-73416844D01*
X168071878Y-73424967D01*
X168061712Y-73432204D01*
X168050886Y-73438554D01*
X168039400Y-73444019D01*
X168027255Y-73448597D01*
X168014451Y-73452290D01*
X168000987Y-73455096D01*
X167986864Y-73457016D01*
X167972081Y-73458050D01*
X167961859Y-73458247D01*
X167948775Y-73457921D01*
X167936195Y-73456946D01*
X167924119Y-73455320D01*
X167912547Y-73453044D01*
X167898789Y-73449285D01*
X167885819Y-73444509D01*
X167873636Y-73438717D01*
X167871294Y-73437437D01*
X167860007Y-73430399D01*
X167849593Y-73422473D01*
X167840051Y-73413661D01*
X167831383Y-73403961D01*
X167823588Y-73393373D01*
X167816666Y-73381899D01*
X167814141Y-73377060D01*
X167808484Y-73364323D01*
X167803786Y-73350842D01*
X167800717Y-73339522D01*
X167798263Y-73327725D01*
X167796422Y-73315451D01*
X167795194Y-73302702D01*
X167794581Y-73289476D01*
X167794504Y-73282685D01*
X167783073Y-73462350D01*
X167789311Y-73476524D01*
X167796592Y-73490322D01*
X167802739Y-73500424D01*
X167809472Y-73510315D01*
X167816793Y-73519995D01*
X167824702Y-73529463D01*
X167833197Y-73538720D01*
X167842280Y-73547766D01*
X167851951Y-73556601D01*
X167862208Y-73565225D01*
X167873056Y-73573344D01*
X167884496Y-73580664D01*
X167896528Y-73587185D01*
X167909153Y-73592908D01*
X167922371Y-73597833D01*
X167936181Y-73601959D01*
X167950583Y-73605286D01*
X167965578Y-73607815D01*
X167981165Y-73609545D01*
X167997345Y-73610477D01*
X168008461Y-73610654D01*
G37*
G36*
X166640896Y-73596000D02*
G01*
X167029829Y-72403411D01*
X166847819Y-72403411D01*
X166561468Y-73338372D01*
X166275118Y-72403411D01*
X166093108Y-72403411D01*
X166481748Y-73596000D01*
X166640896Y-73596000D01*
G37*
G36*
X165546786Y-73608309D02*
G01*
X165562236Y-73608093D01*
X165577446Y-73607444D01*
X165592415Y-73606362D01*
X165607144Y-73604847D01*
X165621633Y-73602900D01*
X165635881Y-73600520D01*
X165649889Y-73597707D01*
X165663656Y-73594461D01*
X165677183Y-73590782D01*
X165690469Y-73586671D01*
X165703515Y-73582127D01*
X165716321Y-73577150D01*
X165728886Y-73571740D01*
X165741211Y-73565898D01*
X165753295Y-73559623D01*
X165765139Y-73552915D01*
X165776662Y-73545817D01*
X165787858Y-73538370D01*
X165798727Y-73530576D01*
X165809268Y-73522434D01*
X165819481Y-73513943D01*
X165829367Y-73505105D01*
X165838926Y-73495918D01*
X165848157Y-73486383D01*
X165857061Y-73476501D01*
X165865637Y-73466270D01*
X165873886Y-73455691D01*
X165881808Y-73444764D01*
X165889402Y-73433489D01*
X165896668Y-73421867D01*
X165903608Y-73409896D01*
X165910219Y-73397577D01*
X165916466Y-73384916D01*
X165922309Y-73371995D01*
X165927750Y-73358813D01*
X165932787Y-73345370D01*
X165937422Y-73331665D01*
X165941653Y-73317700D01*
X165945482Y-73303474D01*
X165948907Y-73288986D01*
X165951930Y-73274238D01*
X165954549Y-73259228D01*
X165956766Y-73243958D01*
X165958579Y-73228426D01*
X165959990Y-73212634D01*
X165960997Y-73196580D01*
X165961602Y-73180265D01*
X165961803Y-73163690D01*
X165961803Y-72836307D01*
X165961602Y-72819626D01*
X165960997Y-72803215D01*
X165959990Y-72787074D01*
X165958579Y-72771204D01*
X165956766Y-72755603D01*
X165954549Y-72740273D01*
X165951930Y-72725213D01*
X165948907Y-72710424D01*
X165945482Y-72695904D01*
X165941653Y-72681655D01*
X165937422Y-72667676D01*
X165932787Y-72653967D01*
X165927750Y-72640528D01*
X165922309Y-72627360D01*
X165916466Y-72614462D01*
X165910219Y-72601833D01*
X165903608Y-72589480D01*
X165896668Y-72577479D01*
X165889402Y-72565831D01*
X165881808Y-72554536D01*
X165873886Y-72543593D01*
X165865637Y-72533003D01*
X165857061Y-72522765D01*
X165848157Y-72512880D01*
X165838926Y-72503348D01*
X165829367Y-72494168D01*
X165819481Y-72485341D01*
X165809268Y-72476867D01*
X165798727Y-72468745D01*
X165787858Y-72460976D01*
X165776662Y-72453559D01*
X165765139Y-72446495D01*
X165753295Y-72439787D01*
X165741211Y-72433512D01*
X165728886Y-72427670D01*
X165716321Y-72422260D01*
X165703515Y-72417283D01*
X165690469Y-72412739D01*
X165677183Y-72408628D01*
X165663656Y-72404949D01*
X165649889Y-72401703D01*
X165635881Y-72398891D01*
X165621633Y-72396510D01*
X165607144Y-72394563D01*
X165592415Y-72393048D01*
X165577446Y-72391966D01*
X165562236Y-72391317D01*
X165546786Y-72391101D01*
X165533923Y-72391274D01*
X165521200Y-72391792D01*
X165508617Y-72392657D01*
X165496173Y-72393867D01*
X165483869Y-72395423D01*
X165471704Y-72397324D01*
X165459679Y-72399572D01*
X165447794Y-72402165D01*
X165436049Y-72405104D01*
X165424443Y-72408389D01*
X165412977Y-72412019D01*
X165401651Y-72415995D01*
X165390464Y-72420317D01*
X165379417Y-72424985D01*
X165368510Y-72429998D01*
X165357742Y-72435357D01*
X165347117Y-72441028D01*
X165336713Y-72446976D01*
X165326528Y-72453201D01*
X165316563Y-72459702D01*
X165306817Y-72466481D01*
X165297292Y-72473537D01*
X165287986Y-72480870D01*
X165278900Y-72488480D01*
X165270034Y-72496367D01*
X165261388Y-72504532D01*
X165252962Y-72512973D01*
X165244755Y-72521691D01*
X165236769Y-72530687D01*
X165229002Y-72539959D01*
X165221454Y-72549509D01*
X165214127Y-72559335D01*
X165207055Y-72569370D01*
X165200274Y-72579618D01*
X165193784Y-72590079D01*
X165187584Y-72600753D01*
X165181675Y-72611639D01*
X165176057Y-72622739D01*
X165170730Y-72634052D01*
X165165694Y-72645577D01*
X165160948Y-72657316D01*
X165156494Y-72669267D01*
X165152330Y-72681432D01*
X165148456Y-72693809D01*
X165144874Y-72706400D01*
X165141582Y-72719203D01*
X165138582Y-72732219D01*
X165135872Y-72745448D01*
X165307330Y-72745448D01*
X165311543Y-72731311D01*
X165316416Y-72717623D01*
X165321948Y-72704383D01*
X165328140Y-72691593D01*
X165334991Y-72679251D01*
X165342501Y-72667358D01*
X165350671Y-72655913D01*
X165359501Y-72644918D01*
X165368788Y-72634449D01*
X165378478Y-72624585D01*
X165388572Y-72615325D01*
X165399068Y-72606669D01*
X165409967Y-72598619D01*
X165421270Y-72591172D01*
X165432975Y-72584330D01*
X165445083Y-72578093D01*
X165457443Y-72572460D01*
X165469904Y-72567578D01*
X165482466Y-72563448D01*
X165495129Y-72560068D01*
X165507892Y-72557439D01*
X165520756Y-72555562D01*
X165533720Y-72554435D01*
X165546786Y-72554060D01*
X165560356Y-72554363D01*
X165573590Y-72555273D01*
X165586487Y-72556790D01*
X165599048Y-72558914D01*
X165611272Y-72561644D01*
X165623159Y-72564982D01*
X165634710Y-72568926D01*
X165645924Y-72573477D01*
X165656802Y-72578635D01*
X165667343Y-72584399D01*
X165677547Y-72590770D01*
X165687415Y-72597748D01*
X165696946Y-72605333D01*
X165706141Y-72613525D01*
X165714999Y-72622323D01*
X165723520Y-72631729D01*
X165731612Y-72641595D01*
X165739182Y-72651851D01*
X165746230Y-72662496D01*
X165752756Y-72673531D01*
X165758760Y-72684955D01*
X165764241Y-72696768D01*
X165769201Y-72708970D01*
X165773639Y-72721561D01*
X165777554Y-72734542D01*
X165780948Y-72747912D01*
X165783819Y-72761671D01*
X165786168Y-72775820D01*
X165787996Y-72790358D01*
X165789301Y-72805285D01*
X165790084Y-72820601D01*
X165790345Y-72836307D01*
X165790345Y-73163690D01*
X165790084Y-73179394D01*
X165789301Y-73194707D01*
X165787996Y-73209628D01*
X165786168Y-73224158D01*
X165783819Y-73238296D01*
X165780948Y-73252043D01*
X165777554Y-73265398D01*
X165773639Y-73278362D01*
X165769201Y-73290934D01*
X165764241Y-73303114D01*
X165758760Y-73314903D01*
X165752756Y-73326300D01*
X165746230Y-73337306D01*
X165739182Y-73347921D01*
X165731612Y-73358143D01*
X165723520Y-73367974D01*
X165714999Y-73377309D01*
X165706141Y-73386041D01*
X165696946Y-73394171D01*
X165687415Y-73401698D01*
X165677547Y-73408624D01*
X165667343Y-73414947D01*
X165656802Y-73420668D01*
X165645924Y-73425787D01*
X165634710Y-73430303D01*
X165623159Y-73434218D01*
X165611272Y-73437530D01*
X165599048Y-73440240D01*
X165586487Y-73442347D01*
X165573590Y-73443853D01*
X165560356Y-73444756D01*
X165546786Y-73445057D01*
X165532248Y-73444625D01*
X165517870Y-73443326D01*
X165503651Y-73441163D01*
X165489592Y-73438133D01*
X165475693Y-73434238D01*
X165461953Y-73429478D01*
X165448373Y-73423852D01*
X165434953Y-73417360D01*
X165421693Y-73410003D01*
X165408592Y-73401781D01*
X165399947Y-73395818D01*
X165387430Y-73386204D01*
X165375705Y-73375828D01*
X165364774Y-73364690D01*
X165354637Y-73352789D01*
X165345293Y-73340125D01*
X165336742Y-73326699D01*
X165328985Y-73312510D01*
X165322021Y-73297559D01*
X165315851Y-73281846D01*
X165310474Y-73265369D01*
X165307330Y-73253962D01*
X165135872Y-73253962D01*
X165138584Y-73267192D01*
X165141592Y-73280212D01*
X165144895Y-73293021D01*
X165148493Y-73305619D01*
X165152387Y-73318007D01*
X165156576Y-73330184D01*
X165161060Y-73342150D01*
X165165840Y-73353906D01*
X165170916Y-73365451D01*
X165176286Y-73376785D01*
X165181952Y-73387909D01*
X165187914Y-73398822D01*
X165194171Y-73409525D01*
X165200723Y-73420016D01*
X165207570Y-73430298D01*
X165214713Y-73440368D01*
X165222074Y-73450159D01*
X165229647Y-73459675D01*
X165237434Y-73468917D01*
X165245433Y-73477884D01*
X165253645Y-73486576D01*
X165262071Y-73494993D01*
X165270709Y-73503135D01*
X165279560Y-73511003D01*
X165288624Y-73518596D01*
X165297901Y-73525914D01*
X165307391Y-73532957D01*
X165317094Y-73539726D01*
X165327010Y-73546220D01*
X165337139Y-73552439D01*
X165347480Y-73558383D01*
X165358035Y-73564053D01*
X165368767Y-73569412D01*
X165379641Y-73574425D01*
X165390658Y-73579093D01*
X165401816Y-73583415D01*
X165413116Y-73587391D01*
X165424558Y-73591022D01*
X165436142Y-73594306D01*
X165447868Y-73597245D01*
X165459736Y-73599838D01*
X165471745Y-73602086D01*
X165483897Y-73603987D01*
X165496191Y-73605543D01*
X165508627Y-73606753D01*
X165521205Y-73607618D01*
X165533924Y-73608136D01*
X165546786Y-73608309D01*
G37*
G36*
X164529466Y-73608309D02*
G01*
X164541834Y-73608196D01*
X164554028Y-73607856D01*
X164566047Y-73607289D01*
X164577890Y-73606496D01*
X164601051Y-73604229D01*
X164623511Y-73601055D01*
X164645271Y-73596975D01*
X164666330Y-73591988D01*
X164686689Y-73586094D01*
X164706346Y-73579293D01*
X164725303Y-73571586D01*
X164743560Y-73562972D01*
X164761115Y-73553451D01*
X164777971Y-73543023D01*
X164794125Y-73531689D01*
X164809579Y-73519448D01*
X164824332Y-73506300D01*
X164838384Y-73492245D01*
X164851622Y-73477364D01*
X164864007Y-73461736D01*
X164875537Y-73445362D01*
X164886213Y-73428241D01*
X164896035Y-73410374D01*
X164905003Y-73391761D01*
X164913117Y-73372401D01*
X164920376Y-73352294D01*
X164926782Y-73331441D01*
X164932334Y-73309842D01*
X164937031Y-73287496D01*
X164940874Y-73264403D01*
X164942476Y-73252577D01*
X164943864Y-73240564D01*
X164945038Y-73228365D01*
X164945999Y-73215979D01*
X164946746Y-73203406D01*
X164947280Y-73190647D01*
X164947600Y-73177701D01*
X164947707Y-73164569D01*
X164947707Y-72403411D01*
X164780352Y-72403411D01*
X164780352Y-73170138D01*
X164780095Y-73186211D01*
X164779326Y-73201824D01*
X164778044Y-73216976D01*
X164776249Y-73231669D01*
X164773941Y-73245901D01*
X164771120Y-73259673D01*
X164767786Y-73272984D01*
X164763939Y-73285836D01*
X164759579Y-73298227D01*
X164754706Y-73310158D01*
X164749321Y-73321628D01*
X164743422Y-73332639D01*
X164737011Y-73343189D01*
X164730087Y-73353279D01*
X164722650Y-73362908D01*
X164714699Y-73372078D01*
X164706282Y-73380702D01*
X164697444Y-73388770D01*
X164688184Y-73396282D01*
X164678503Y-73403237D01*
X164668400Y-73409636D01*
X164657876Y-73415478D01*
X164646931Y-73420764D01*
X164635565Y-73425494D01*
X164623777Y-73429667D01*
X164611568Y-73433283D01*
X164598937Y-73436344D01*
X164585886Y-73438848D01*
X164572413Y-73440795D01*
X164558518Y-73442186D01*
X164544203Y-73443021D01*
X164529466Y-73443299D01*
X164514586Y-73443021D01*
X164500134Y-73442186D01*
X164486110Y-73440795D01*
X164472514Y-73438848D01*
X164459347Y-73436344D01*
X164446608Y-73433283D01*
X164434297Y-73429667D01*
X164422414Y-73425494D01*
X164410959Y-73420764D01*
X164399933Y-73415478D01*
X164389335Y-73409636D01*
X164379165Y-73403237D01*
X164369423Y-73396282D01*
X164360109Y-73388770D01*
X164351224Y-73380702D01*
X164342766Y-73372078D01*
X164334781Y-73362908D01*
X164327310Y-73353279D01*
X164320355Y-73343189D01*
X164313915Y-73332639D01*
X164307990Y-73321628D01*
X164302581Y-73310158D01*
X164297686Y-73298227D01*
X164293307Y-73285836D01*
X164289443Y-73272984D01*
X164286094Y-73259673D01*
X164283261Y-73245901D01*
X164280942Y-73231669D01*
X164279139Y-73216976D01*
X164277851Y-73201824D01*
X164277078Y-73186211D01*
X164276821Y-73170138D01*
X164276821Y-72403411D01*
X164109466Y-72403411D01*
X164109466Y-73164569D01*
X164109573Y-73177701D01*
X164109895Y-73190647D01*
X164110432Y-73203406D01*
X164111183Y-73215979D01*
X164112149Y-73228365D01*
X164113330Y-73240564D01*
X164114725Y-73252577D01*
X164116335Y-73264403D01*
X164118160Y-73276043D01*
X164122453Y-73298762D01*
X164127605Y-73320735D01*
X164133616Y-73341961D01*
X164140485Y-73362441D01*
X164148213Y-73382174D01*
X164156800Y-73401161D01*
X164166245Y-73419401D01*
X164176549Y-73436895D01*
X164187712Y-73453642D01*
X164199733Y-73469643D01*
X164212613Y-73484898D01*
X164219375Y-73492245D01*
X164233466Y-73506300D01*
X164248263Y-73519448D01*
X164263765Y-73531689D01*
X164279972Y-73543023D01*
X164296884Y-73553451D01*
X164314501Y-73562972D01*
X164332824Y-73571586D01*
X164351852Y-73579293D01*
X164371586Y-73586094D01*
X164392024Y-73591988D01*
X164413168Y-73596975D01*
X164435017Y-73601055D01*
X164457571Y-73604229D01*
X164480831Y-73606496D01*
X164492725Y-73607289D01*
X164504796Y-73607856D01*
X164517042Y-73608196D01*
X164529466Y-73608309D01*
G37*
D11*
G36*
X114737000Y-123679637D02*
G01*
X115830475Y-123679637D01*
X115830475Y-123473569D01*
X114737000Y-123473569D01*
X114737000Y-123679637D01*
G37*
G36*
X114737000Y-123588021D02*
G01*
X114935545Y-123588021D01*
X114935545Y-122947250D01*
X114737000Y-122947250D01*
X114737000Y-123588021D01*
G37*
G36*
X114737000Y-122797334D02*
G01*
X115830475Y-122797334D01*
X115830475Y-122591266D01*
X114737000Y-122591266D01*
X114737000Y-122797334D01*
G37*
G36*
X114737000Y-122722913D02*
G01*
X114935545Y-122722913D01*
X114935545Y-122064947D01*
X114737000Y-122064947D01*
X114737000Y-122722913D01*
G37*
G36*
X115180569Y-122722913D02*
G01*
X115379114Y-122722913D01*
X115379114Y-122147697D01*
X115180569Y-122147697D01*
X115180569Y-122722913D01*
G37*
G36*
X115631930Y-122722913D02*
G01*
X115830475Y-122722913D01*
X115830475Y-122064947D01*
X115631930Y-122064947D01*
X115631930Y-122722913D01*
G37*
G36*
X114737000Y-121773712D02*
G01*
X114935545Y-121773712D01*
X114935545Y-121511224D01*
X114935737Y-121498709D01*
X114936313Y-121486553D01*
X114937273Y-121474756D01*
X114938617Y-121463317D01*
X114940346Y-121452238D01*
X114942458Y-121441518D01*
X114946348Y-121426110D01*
X114951101Y-121411510D01*
X114956719Y-121397717D01*
X114963200Y-121384732D01*
X114970547Y-121372555D01*
X114978757Y-121361185D01*
X114984711Y-121354054D01*
X114994324Y-121344115D01*
X115004628Y-121335154D01*
X115015620Y-121327170D01*
X115027303Y-121320164D01*
X115039675Y-121314136D01*
X115052736Y-121309085D01*
X115066487Y-121305011D01*
X115080927Y-121301916D01*
X115096057Y-121299798D01*
X115111876Y-121298657D01*
X115122806Y-121298440D01*
X115444669Y-121298440D01*
X115455694Y-121298657D01*
X115471636Y-121299798D01*
X115486866Y-121301916D01*
X115501383Y-121305011D01*
X115515187Y-121309085D01*
X115528277Y-121314136D01*
X115540654Y-121320164D01*
X115552318Y-121327170D01*
X115563270Y-121335154D01*
X115573507Y-121344115D01*
X115583032Y-121354054D01*
X115591771Y-121364885D01*
X115599650Y-121376524D01*
X115606669Y-121388971D01*
X115612829Y-121402225D01*
X115618130Y-121416287D01*
X115622570Y-121431156D01*
X115626152Y-121446833D01*
X115628062Y-121457733D01*
X115629590Y-121468992D01*
X115630736Y-121480610D01*
X115631500Y-121492586D01*
X115631882Y-121504922D01*
X115631930Y-121511224D01*
X115631930Y-121773712D01*
X115830475Y-121773712D01*
X115830475Y-121515792D01*
X115830374Y-121503004D01*
X115830073Y-121490399D01*
X115829570Y-121477978D01*
X115828867Y-121465740D01*
X115827963Y-121453685D01*
X115826857Y-121441813D01*
X115825551Y-121430124D01*
X115824044Y-121418618D01*
X115822335Y-121407295D01*
X115820426Y-121396156D01*
X115818316Y-121385200D01*
X115816004Y-121374426D01*
X115813492Y-121363836D01*
X115810779Y-121353429D01*
X115804750Y-121333165D01*
X115797917Y-121313633D01*
X115790280Y-121294834D01*
X115781839Y-121276767D01*
X115772594Y-121259433D01*
X115762545Y-121242831D01*
X115751692Y-121226962D01*
X115740036Y-121211825D01*
X115727575Y-121197421D01*
X115714419Y-121183789D01*
X115700608Y-121171037D01*
X115686142Y-121159164D01*
X115671021Y-121148171D01*
X115655245Y-121138057D01*
X115638814Y-121128823D01*
X115621729Y-121120468D01*
X115603988Y-121112992D01*
X115585593Y-121106396D01*
X115566543Y-121100680D01*
X115546838Y-121095843D01*
X115526478Y-121091885D01*
X115505463Y-121088807D01*
X115494710Y-121087598D01*
X115483793Y-121086608D01*
X115472713Y-121085839D01*
X115461469Y-121085289D01*
X115450061Y-121084959D01*
X115438489Y-121084849D01*
X115128716Y-121084849D01*
X115114251Y-121085037D01*
X115100007Y-121085601D01*
X115085982Y-121086540D01*
X115072179Y-121087855D01*
X115058595Y-121089546D01*
X115045232Y-121091612D01*
X115032089Y-121094054D01*
X115019167Y-121096872D01*
X115006465Y-121100066D01*
X114993984Y-121103635D01*
X114981723Y-121107580D01*
X114969682Y-121111901D01*
X114957862Y-121116597D01*
X114946262Y-121121669D01*
X114934882Y-121127117D01*
X114923723Y-121132941D01*
X114912859Y-121139139D01*
X114902297Y-121145711D01*
X114892037Y-121152656D01*
X114882080Y-121159976D01*
X114872425Y-121167668D01*
X114863072Y-121175735D01*
X114854021Y-121184174D01*
X114845272Y-121192988D01*
X114836826Y-121202175D01*
X114828682Y-121211736D01*
X114820840Y-121221670D01*
X114813301Y-121231978D01*
X114806064Y-121242660D01*
X114799129Y-121253715D01*
X114792496Y-121265144D01*
X114786166Y-121276946D01*
X114780212Y-121289123D01*
X114774642Y-121301672D01*
X114769457Y-121314596D01*
X114764655Y-121327892D01*
X114760238Y-121341563D01*
X114756205Y-121355607D01*
X114752556Y-121370025D01*
X114749291Y-121384816D01*
X114746410Y-121399981D01*
X114743913Y-121415520D01*
X114741801Y-121431432D01*
X114740072Y-121447718D01*
X114738728Y-121464377D01*
X114737768Y-121481411D01*
X114737192Y-121498817D01*
X114737000Y-121516598D01*
X114737000Y-121773712D01*
G37*
G36*
X114737000Y-121877418D02*
G01*
X115830475Y-121877418D01*
X115830475Y-121671350D01*
X114737000Y-121671350D01*
X114737000Y-121877418D01*
G37*
G36*
X114725715Y-120171919D02*
G01*
X114725856Y-120184129D01*
X114726278Y-120196178D01*
X114726981Y-120208066D01*
X114727966Y-120219792D01*
X114729231Y-120231356D01*
X114730778Y-120242759D01*
X114732606Y-120254000D01*
X114734716Y-120265079D01*
X114737107Y-120275997D01*
X114739779Y-120286753D01*
X114742732Y-120297347D01*
X114745966Y-120307780D01*
X114749482Y-120318051D01*
X114753279Y-120328161D01*
X114757357Y-120338109D01*
X114761717Y-120347896D01*
X114768799Y-120362127D01*
X114776442Y-120375806D01*
X114784648Y-120388933D01*
X114793415Y-120401507D01*
X114802745Y-120413529D01*
X114812637Y-120424998D01*
X114823090Y-120435914D01*
X114834106Y-120446278D01*
X114845683Y-120456089D01*
X114857823Y-120465348D01*
X114866228Y-120471214D01*
X114879324Y-120479423D01*
X114892921Y-120486924D01*
X114907018Y-120493717D01*
X114921616Y-120499802D01*
X114936714Y-120505178D01*
X114947058Y-120508368D01*
X114957624Y-120511244D01*
X114968413Y-120513804D01*
X114979424Y-120516050D01*
X114990657Y-120517981D01*
X115002114Y-120519597D01*
X115013792Y-120520899D01*
X115025693Y-120521885D01*
X115031727Y-120522260D01*
X115031727Y-120309476D01*
X115019516Y-120307243D01*
X115008001Y-120304304D01*
X114997183Y-120300660D01*
X114987061Y-120296311D01*
X114975390Y-120289883D01*
X114964807Y-120282353D01*
X114955313Y-120273721D01*
X114953545Y-120271863D01*
X114945573Y-120262040D01*
X114938952Y-120251377D01*
X114933682Y-120239875D01*
X114929764Y-120227533D01*
X114927197Y-120214351D01*
X114926116Y-120203201D01*
X114925872Y-120194487D01*
X114926158Y-120183693D01*
X114927428Y-120170043D01*
X114929714Y-120157242D01*
X114933016Y-120145288D01*
X114937333Y-120134183D01*
X114942667Y-120123925D01*
X114949016Y-120114515D01*
X114956381Y-120105954D01*
X114958381Y-120103946D01*
X114966991Y-120096452D01*
X114976432Y-120089958D01*
X114986705Y-120084463D01*
X114997808Y-120079967D01*
X115009743Y-120076470D01*
X115022509Y-120073973D01*
X115036106Y-120072474D01*
X115046849Y-120072006D01*
X115050534Y-120071974D01*
X115076057Y-120071974D01*
X115087540Y-120072203D01*
X115098512Y-120072891D01*
X115112348Y-120074519D01*
X115125278Y-120076963D01*
X115137301Y-120080220D01*
X115148417Y-120084292D01*
X115158626Y-120089179D01*
X115167929Y-120094879D01*
X115172240Y-120098035D01*
X115181993Y-120106640D01*
X115190092Y-120116333D01*
X115196538Y-120127115D01*
X115201332Y-120138986D01*
X115204472Y-120151946D01*
X115205795Y-120163097D01*
X115206092Y-120171919D01*
X115206092Y-120264340D01*
X115404637Y-120264340D01*
X115404637Y-120171919D01*
X115405359Y-120160100D01*
X115407523Y-120149161D01*
X115412026Y-120137193D01*
X115418606Y-120126492D01*
X115427264Y-120117056D01*
X115434191Y-120111468D01*
X115444087Y-120105277D01*
X115455138Y-120100134D01*
X115467344Y-120096041D01*
X115477939Y-120093522D01*
X115489274Y-120091675D01*
X115501347Y-120090500D01*
X115514159Y-120089996D01*
X115517478Y-120089975D01*
X115536284Y-120089975D01*
X115548551Y-120090344D01*
X115560095Y-120091453D01*
X115570917Y-120093300D01*
X115583430Y-120096648D01*
X115594814Y-120101150D01*
X115605070Y-120106807D01*
X115614198Y-120113618D01*
X115622092Y-120121478D01*
X115628649Y-120130284D01*
X115633868Y-120140033D01*
X115637748Y-120150727D01*
X115640290Y-120162366D01*
X115641495Y-120174949D01*
X115641602Y-120180247D01*
X115640828Y-120193050D01*
X115638506Y-120205262D01*
X115634636Y-120216883D01*
X115629218Y-120227915D01*
X115622252Y-120238356D01*
X115613738Y-120248206D01*
X115609899Y-120251981D01*
X115601625Y-120259076D01*
X115592520Y-120265583D01*
X115582583Y-120271502D01*
X115571815Y-120276833D01*
X115560217Y-120281577D01*
X115547787Y-120285733D01*
X115534525Y-120289301D01*
X115520433Y-120292281D01*
X115520433Y-120504260D01*
X115539273Y-120502272D01*
X115557576Y-120499667D01*
X115575342Y-120496445D01*
X115592570Y-120492606D01*
X115609261Y-120488150D01*
X115625415Y-120483077D01*
X115641031Y-120477387D01*
X115656110Y-120471079D01*
X115670651Y-120464155D01*
X115684656Y-120456613D01*
X115698123Y-120448455D01*
X115711052Y-120439679D01*
X115723444Y-120430286D01*
X115735299Y-120420276D01*
X115746617Y-120409649D01*
X115757397Y-120398405D01*
X115767580Y-120386661D01*
X115777107Y-120374603D01*
X115785976Y-120362229D01*
X115794188Y-120349541D01*
X115801743Y-120336538D01*
X115808641Y-120323220D01*
X115814883Y-120309587D01*
X115820467Y-120295640D01*
X115825394Y-120281377D01*
X115829665Y-120266800D01*
X115833278Y-120251908D01*
X115836234Y-120236701D01*
X115838534Y-120221179D01*
X115840176Y-120205342D01*
X115841162Y-120189191D01*
X115841490Y-120172725D01*
X115841200Y-120154814D01*
X115840331Y-120137420D01*
X115838883Y-120120542D01*
X115836856Y-120104181D01*
X115834249Y-120088336D01*
X115831062Y-120073007D01*
X115827297Y-120058195D01*
X115822952Y-120043899D01*
X115818028Y-120030119D01*
X115812524Y-120016856D01*
X115806442Y-120004109D01*
X115799780Y-119991878D01*
X115792538Y-119980164D01*
X115784717Y-119968966D01*
X115776317Y-119958284D01*
X115767338Y-119948119D01*
X115757860Y-119938521D01*
X115747897Y-119929543D01*
X115737450Y-119921184D01*
X115726517Y-119913444D01*
X115715100Y-119906323D01*
X115703198Y-119899822D01*
X115690811Y-119893939D01*
X115677939Y-119888676D01*
X115664582Y-119884032D01*
X115650741Y-119880008D01*
X115636414Y-119876602D01*
X115621603Y-119873816D01*
X115606307Y-119871648D01*
X115590526Y-119870100D01*
X115574260Y-119869172D01*
X115557509Y-119868862D01*
X115524194Y-119868862D01*
X115510158Y-119869200D01*
X115496463Y-119870213D01*
X115483107Y-119871901D01*
X115470091Y-119874265D01*
X115457416Y-119877304D01*
X115445080Y-119881018D01*
X115433085Y-119885408D01*
X115421429Y-119890473D01*
X115410114Y-119896213D01*
X115399138Y-119902629D01*
X115392010Y-119907281D01*
X115381682Y-119914720D01*
X115371854Y-119922731D01*
X115362526Y-119931313D01*
X115353700Y-119940466D01*
X115345374Y-119950191D01*
X115337548Y-119960487D01*
X115330223Y-119971355D01*
X115323399Y-119982794D01*
X115317075Y-119994804D01*
X115311252Y-120007386D01*
X115307648Y-120016092D01*
X115303862Y-120001643D01*
X115299255Y-119987819D01*
X115293825Y-119974617D01*
X115287574Y-119962039D01*
X115280501Y-119950085D01*
X115272606Y-119938753D01*
X115263890Y-119928045D01*
X115254352Y-119917961D01*
X115243992Y-119908500D01*
X115232810Y-119899662D01*
X115224899Y-119894117D01*
X115212497Y-119886387D01*
X115199472Y-119879417D01*
X115185824Y-119873207D01*
X115171552Y-119867758D01*
X115156657Y-119863069D01*
X115141138Y-119859141D01*
X115130446Y-119856944D01*
X115119477Y-119855085D01*
X115108230Y-119853565D01*
X115096707Y-119852382D01*
X115084907Y-119851537D01*
X115072829Y-119851030D01*
X115060475Y-119850861D01*
X115027160Y-119850861D01*
X115009478Y-119851191D01*
X114992300Y-119852179D01*
X114975626Y-119853827D01*
X114959456Y-119856134D01*
X114943789Y-119859100D01*
X114928626Y-119862725D01*
X114913967Y-119867009D01*
X114899812Y-119871952D01*
X114886160Y-119877554D01*
X114873012Y-119883815D01*
X114860368Y-119890735D01*
X114848228Y-119898315D01*
X114836591Y-119906553D01*
X114825458Y-119915451D01*
X114814829Y-119925007D01*
X114804704Y-119935223D01*
X114795139Y-119946002D01*
X114786191Y-119957316D01*
X114777860Y-119969166D01*
X114770146Y-119981551D01*
X114763050Y-119994471D01*
X114756570Y-120007927D01*
X114750708Y-120021917D01*
X114745463Y-120036443D01*
X114740834Y-120051504D01*
X114736823Y-120067101D01*
X114733429Y-120083232D01*
X114730652Y-120099899D01*
X114728492Y-120117101D01*
X114726950Y-120134838D01*
X114726024Y-120153111D01*
X114725715Y-120171919D01*
G37*
G36*
X193038000Y-105215045D02*
G01*
X191944524Y-105633091D01*
X191944524Y-105763932D01*
X193038000Y-106181978D01*
X193038000Y-105960327D01*
X192291374Y-105698646D01*
X193038000Y-105436964D01*
X193038000Y-105215045D01*
G37*
G36*
X192862829Y-105415739D02*
G01*
X192664284Y-105415739D01*
X192664284Y-105990956D01*
X192862829Y-105990956D01*
X192862829Y-105415739D01*
G37*
G36*
X193038000Y-106420286D02*
G01*
X192839454Y-106420286D01*
X192839454Y-106682773D01*
X192839262Y-106695288D01*
X192838686Y-106707445D01*
X192837726Y-106719242D01*
X192836382Y-106730680D01*
X192834653Y-106741759D01*
X192832541Y-106752480D01*
X192828651Y-106767888D01*
X192823898Y-106782488D01*
X192818280Y-106796280D01*
X192811799Y-106809265D01*
X192804452Y-106821443D01*
X192796242Y-106832812D01*
X192790288Y-106839944D01*
X192780675Y-106849883D01*
X192770371Y-106858844D01*
X192759379Y-106866827D01*
X192747696Y-106873834D01*
X192735324Y-106879862D01*
X192722263Y-106884913D01*
X192708512Y-106888986D01*
X192694072Y-106892082D01*
X192678942Y-106894200D01*
X192663123Y-106895341D01*
X192652193Y-106895558D01*
X192330330Y-106895558D01*
X192319305Y-106895341D01*
X192303363Y-106894200D01*
X192288133Y-106892082D01*
X192273616Y-106888986D01*
X192259812Y-106884913D01*
X192246722Y-106879862D01*
X192234345Y-106873834D01*
X192222681Y-106866827D01*
X192211729Y-106858844D01*
X192201492Y-106849883D01*
X192191967Y-106839944D01*
X192183228Y-106829112D01*
X192175349Y-106817473D01*
X192168330Y-106805027D01*
X192162170Y-106791772D01*
X192156869Y-106777711D01*
X192152429Y-106762841D01*
X192148847Y-106747165D01*
X192146937Y-106736265D01*
X192145409Y-106725006D01*
X192144263Y-106713388D01*
X192143499Y-106701411D01*
X192143117Y-106689076D01*
X192143069Y-106682773D01*
X192143069Y-106420286D01*
X191944524Y-106420286D01*
X191944524Y-106678206D01*
X191944625Y-106690994D01*
X191944926Y-106703598D01*
X191945429Y-106716020D01*
X191946132Y-106728258D01*
X191947036Y-106740313D01*
X191948142Y-106752185D01*
X191949448Y-106763874D01*
X191950955Y-106775380D01*
X191952664Y-106786702D01*
X191954573Y-106797842D01*
X191956683Y-106808798D01*
X191958995Y-106819571D01*
X191961507Y-106830161D01*
X191964220Y-106840568D01*
X191970249Y-106860833D01*
X191977082Y-106880364D01*
X191984719Y-106899164D01*
X191993160Y-106917231D01*
X192002405Y-106934565D01*
X192012454Y-106951167D01*
X192023307Y-106967036D01*
X192034963Y-106982172D01*
X192047424Y-106996577D01*
X192060580Y-107010208D01*
X192074391Y-107022961D01*
X192088857Y-107034833D01*
X192103978Y-107045827D01*
X192119754Y-107055941D01*
X192136185Y-107065175D01*
X192153270Y-107073530D01*
X192171011Y-107081005D01*
X192189406Y-107087601D01*
X192208456Y-107093318D01*
X192228161Y-107098155D01*
X192248521Y-107102112D01*
X192269536Y-107105191D01*
X192280289Y-107106400D01*
X192291206Y-107107389D01*
X192302286Y-107108159D01*
X192313530Y-107108708D01*
X192324938Y-107109038D01*
X192336510Y-107109148D01*
X192646283Y-107109148D01*
X192660748Y-107108960D01*
X192674992Y-107108397D01*
X192689017Y-107107457D01*
X192702820Y-107106142D01*
X192716404Y-107104452D01*
X192729767Y-107102385D01*
X192742910Y-107099943D01*
X192755832Y-107097125D01*
X192768534Y-107093932D01*
X192781015Y-107090362D01*
X192793276Y-107086417D01*
X192805317Y-107082097D01*
X192817137Y-107077400D01*
X192828737Y-107072328D01*
X192840117Y-107066880D01*
X192851276Y-107061057D01*
X192862140Y-107054858D01*
X192872702Y-107048287D01*
X192882962Y-107041341D01*
X192892919Y-107034022D01*
X192902574Y-107026329D01*
X192911927Y-107018263D01*
X192920978Y-107009823D01*
X192929727Y-107001010D01*
X192938173Y-106991822D01*
X192946317Y-106982262D01*
X192954159Y-106972327D01*
X192961698Y-106962019D01*
X192968935Y-106951338D01*
X192975870Y-106940282D01*
X192982503Y-106928854D01*
X192988833Y-106917051D01*
X192994787Y-106904875D01*
X193000357Y-106892325D01*
X193005542Y-106879402D01*
X193010344Y-106866105D01*
X193014761Y-106852435D01*
X193018794Y-106838390D01*
X193022443Y-106823973D01*
X193025708Y-106809181D01*
X193028589Y-106794016D01*
X193031086Y-106778478D01*
X193033198Y-106762565D01*
X193034927Y-106746280D01*
X193036271Y-106729620D01*
X193037231Y-106712587D01*
X193037807Y-106695180D01*
X193038000Y-106677400D01*
X193038000Y-106420286D01*
G37*
G36*
X193038000Y-106316580D02*
G01*
X191944524Y-106316580D01*
X191944524Y-106522648D01*
X193038000Y-106522648D01*
X193038000Y-106316580D01*
G37*
G36*
X193049284Y-107669588D02*
G01*
X193049098Y-107654049D01*
X193048540Y-107638800D01*
X193047612Y-107623841D01*
X193046311Y-107609171D01*
X193044640Y-107594791D01*
X193042596Y-107580701D01*
X193040181Y-107566900D01*
X193037395Y-107553389D01*
X193034237Y-107540168D01*
X193030708Y-107527236D01*
X193026807Y-107514594D01*
X193022534Y-107502242D01*
X193017890Y-107490179D01*
X193012875Y-107478406D01*
X193007488Y-107466923D01*
X193001729Y-107455729D01*
X192995582Y-107444842D01*
X192989094Y-107434282D01*
X192982266Y-107424046D01*
X192975098Y-107414136D01*
X192967590Y-107404551D01*
X192959742Y-107395291D01*
X192951554Y-107386357D01*
X192943026Y-107377748D01*
X192934158Y-107369465D01*
X192924949Y-107361506D01*
X192915401Y-107353873D01*
X192905513Y-107346566D01*
X192895285Y-107339584D01*
X192884717Y-107332927D01*
X192873808Y-107326595D01*
X192862560Y-107320589D01*
X192850961Y-107314961D01*
X192839068Y-107309696D01*
X192826882Y-107304793D01*
X192814401Y-107300254D01*
X192801627Y-107296079D01*
X192788559Y-107292266D01*
X192775197Y-107288816D01*
X192761541Y-107285730D01*
X192747591Y-107283006D01*
X192733348Y-107280646D01*
X192718810Y-107278649D01*
X192703979Y-107277015D01*
X192688854Y-107275744D01*
X192673435Y-107274836D01*
X192657722Y-107274291D01*
X192641715Y-107274110D01*
X192341614Y-107274110D01*
X192325513Y-107274291D01*
X192309718Y-107274836D01*
X192294230Y-107275744D01*
X192279048Y-107277015D01*
X192264173Y-107278649D01*
X192249604Y-107280646D01*
X192235342Y-107283006D01*
X192221386Y-107285730D01*
X192207736Y-107288816D01*
X192194393Y-107292266D01*
X192181356Y-107296079D01*
X192168626Y-107300254D01*
X192156202Y-107304793D01*
X192144085Y-107309696D01*
X192132274Y-107314961D01*
X192120770Y-107320589D01*
X192109553Y-107326595D01*
X192098672Y-107332927D01*
X192088127Y-107339584D01*
X192077918Y-107346566D01*
X192068044Y-107353873D01*
X192058506Y-107361506D01*
X192049304Y-107369465D01*
X192040438Y-107377748D01*
X192031908Y-107386357D01*
X192023714Y-107395291D01*
X192015855Y-107404551D01*
X192008333Y-107414136D01*
X192001146Y-107424046D01*
X191994295Y-107434282D01*
X191987780Y-107444842D01*
X191981600Y-107455729D01*
X191975777Y-107466923D01*
X191970329Y-107478406D01*
X191965257Y-107490179D01*
X191960560Y-107502242D01*
X191956240Y-107514594D01*
X191952295Y-107527236D01*
X191948725Y-107540168D01*
X191945532Y-107553389D01*
X191942714Y-107566900D01*
X191940272Y-107580701D01*
X191938205Y-107594791D01*
X191936515Y-107609171D01*
X191935200Y-107623841D01*
X191934260Y-107638800D01*
X191933697Y-107654049D01*
X191933509Y-107669588D01*
X191933682Y-107682462D01*
X191934202Y-107695157D01*
X191935067Y-107707674D01*
X191936280Y-107720013D01*
X191937838Y-107732174D01*
X191939743Y-107744155D01*
X191941994Y-107755959D01*
X191944591Y-107767584D01*
X191947535Y-107779031D01*
X191950825Y-107790299D01*
X191954462Y-107801389D01*
X191958445Y-107812300D01*
X191962774Y-107823033D01*
X191967449Y-107833588D01*
X191972471Y-107843964D01*
X191977839Y-107854162D01*
X191983537Y-107864162D01*
X191989547Y-107873943D01*
X191995870Y-107883506D01*
X192002506Y-107892850D01*
X192009455Y-107901976D01*
X192016716Y-107910884D01*
X192024290Y-107919574D01*
X192032177Y-107928046D01*
X192040377Y-107936299D01*
X192048889Y-107944334D01*
X192057714Y-107952150D01*
X192066852Y-107959748D01*
X192076302Y-107967128D01*
X192086066Y-107974290D01*
X192096142Y-107981233D01*
X192106531Y-107987958D01*
X192117184Y-107994479D01*
X192128120Y-108000741D01*
X192139340Y-108006745D01*
X192150844Y-108012491D01*
X192162631Y-108017979D01*
X192174701Y-108023208D01*
X192187054Y-108028180D01*
X192199691Y-108032893D01*
X192212611Y-108037348D01*
X192225815Y-108041545D01*
X192239301Y-108045484D01*
X192253072Y-108049164D01*
X192267125Y-108052586D01*
X192281462Y-108055751D01*
X192296083Y-108058657D01*
X192310986Y-108061304D01*
X192310986Y-107847714D01*
X192297486Y-107844549D01*
X192284523Y-107840964D01*
X192272097Y-107836959D01*
X192260208Y-107832534D01*
X192248857Y-107827690D01*
X192238043Y-107822426D01*
X192227767Y-107816742D01*
X192218027Y-107810638D01*
X192208830Y-107804161D01*
X192200178Y-107797356D01*
X192192072Y-107790224D01*
X192182706Y-107780848D01*
X192174194Y-107770960D01*
X192166534Y-107760561D01*
X192159727Y-107749651D01*
X192153844Y-107738274D01*
X192148959Y-107726478D01*
X192145071Y-107714262D01*
X192142179Y-107701626D01*
X192140285Y-107688571D01*
X192139487Y-107677824D01*
X192139308Y-107669588D01*
X192139775Y-107653707D01*
X192141178Y-107638506D01*
X192143516Y-107623986D01*
X192146789Y-107610145D01*
X192150997Y-107596985D01*
X192156140Y-107584504D01*
X192162218Y-107572704D01*
X192169231Y-107561584D01*
X192177179Y-107551143D01*
X192186062Y-107541383D01*
X192192504Y-107535254D01*
X192202808Y-107526756D01*
X192213873Y-107519093D01*
X192225697Y-107512267D01*
X192238282Y-107506276D01*
X192251628Y-107501121D01*
X192265734Y-107496802D01*
X192280600Y-107493319D01*
X192296226Y-107490672D01*
X192307066Y-107489372D01*
X192318244Y-107488443D01*
X192329760Y-107487886D01*
X192341614Y-107487700D01*
X192641715Y-107487700D01*
X192653568Y-107487886D01*
X192665081Y-107488443D01*
X192676254Y-107489372D01*
X192687087Y-107490672D01*
X192702698Y-107493319D01*
X192717545Y-107496802D01*
X192731626Y-107501121D01*
X192744942Y-107506276D01*
X192757494Y-107512267D01*
X192769280Y-107519093D01*
X192780301Y-107526756D01*
X192790557Y-107535254D01*
X192799968Y-107544561D01*
X192808453Y-107554548D01*
X192816012Y-107565215D01*
X192822646Y-107576562D01*
X192828354Y-107588589D01*
X192833137Y-107601296D01*
X192836993Y-107614683D01*
X192839925Y-107628750D01*
X192841930Y-107643498D01*
X192843010Y-107658925D01*
X192843216Y-107669588D01*
X192842824Y-107682096D01*
X192841648Y-107694231D01*
X192839688Y-107705992D01*
X192836944Y-107717381D01*
X192833416Y-107728397D01*
X192829105Y-107739039D01*
X192824009Y-107749309D01*
X192818129Y-107759205D01*
X192811465Y-107768728D01*
X192804018Y-107777878D01*
X192798617Y-107783771D01*
X192789879Y-107792277D01*
X192780488Y-107800263D01*
X192770446Y-107807729D01*
X192759753Y-107814676D01*
X192748407Y-107821104D01*
X192736410Y-107827012D01*
X192723761Y-107832401D01*
X192710461Y-107837270D01*
X192696508Y-107841619D01*
X192681904Y-107845449D01*
X192671806Y-107847714D01*
X192671806Y-108061304D01*
X192686614Y-108058559D01*
X192701150Y-108055562D01*
X192715412Y-108052313D01*
X192729402Y-108048811D01*
X192743118Y-108045058D01*
X192756562Y-108041054D01*
X192769733Y-108036797D01*
X192782631Y-108032288D01*
X192795257Y-108027528D01*
X192807609Y-108022516D01*
X192819689Y-108017251D01*
X192831495Y-108011735D01*
X192843029Y-108005967D01*
X192854290Y-107999948D01*
X192865278Y-107993676D01*
X192875993Y-107987152D01*
X192886415Y-107980428D01*
X192896521Y-107973488D01*
X192906313Y-107966332D01*
X192915790Y-107958959D01*
X192924952Y-107951370D01*
X192933799Y-107943565D01*
X192942331Y-107935544D01*
X192950548Y-107927307D01*
X192958451Y-107918853D01*
X192966039Y-107910183D01*
X192973312Y-107901297D01*
X192980270Y-107892195D01*
X192986913Y-107882877D01*
X192993241Y-107873342D01*
X192999255Y-107863592D01*
X193004953Y-107853625D01*
X193010322Y-107843492D01*
X193015343Y-107833177D01*
X193020019Y-107822679D01*
X193024348Y-107811998D01*
X193028331Y-107801135D01*
X193031967Y-107790089D01*
X193035257Y-107778861D01*
X193038201Y-107767450D01*
X193040798Y-107755856D01*
X193043050Y-107744080D01*
X193044954Y-107732121D01*
X193046513Y-107719980D01*
X193047725Y-107707656D01*
X193048591Y-107695149D01*
X193049110Y-107682460D01*
X193049284Y-107669588D01*
G37*
G36*
X191944524Y-108932861D02*
G01*
X193038000Y-108932861D01*
X193038000Y-108726793D01*
X192186862Y-108726793D01*
X192237103Y-108593803D01*
X192018408Y-108593803D01*
X191944524Y-108756884D01*
X191944524Y-108932861D01*
G37*
G36*
X193249284Y-92393272D02*
G01*
X193249098Y-92377734D01*
X193248540Y-92362485D01*
X193247612Y-92347525D01*
X193246311Y-92332856D01*
X193244640Y-92318476D01*
X193242596Y-92304386D01*
X193240181Y-92290585D01*
X193237395Y-92277074D01*
X193234237Y-92263852D01*
X193230708Y-92250921D01*
X193226807Y-92238279D01*
X193222534Y-92225926D01*
X193217890Y-92213864D01*
X193212875Y-92202091D01*
X193207488Y-92190607D01*
X193201729Y-92179413D01*
X193195582Y-92168527D01*
X193189094Y-92157966D01*
X193182266Y-92147731D01*
X193175098Y-92137820D01*
X193167590Y-92128235D01*
X193159742Y-92118976D01*
X193151554Y-92110042D01*
X193143026Y-92101433D01*
X193134158Y-92093149D01*
X193124949Y-92085191D01*
X193115401Y-92077558D01*
X193105513Y-92070251D01*
X193095285Y-92063268D01*
X193084717Y-92056611D01*
X193073808Y-92050280D01*
X193062560Y-92044274D01*
X193050961Y-92038645D01*
X193039068Y-92033380D01*
X193026882Y-92028478D01*
X193014401Y-92023939D01*
X193001627Y-92019763D01*
X192988559Y-92015950D01*
X192975197Y-92012501D01*
X192961541Y-92009414D01*
X192947591Y-92006691D01*
X192933348Y-92004331D01*
X192918810Y-92002333D01*
X192903979Y-92000699D01*
X192888854Y-91999428D01*
X192873435Y-91998521D01*
X192857722Y-91997976D01*
X192841715Y-91997794D01*
X192541614Y-91997794D01*
X192525513Y-91997976D01*
X192509718Y-91998521D01*
X192494230Y-91999428D01*
X192479048Y-92000699D01*
X192464173Y-92002333D01*
X192449604Y-92004331D01*
X192435342Y-92006691D01*
X192421386Y-92009414D01*
X192407736Y-92012501D01*
X192394393Y-92015950D01*
X192381356Y-92019763D01*
X192368626Y-92023939D01*
X192356202Y-92028478D01*
X192344085Y-92033380D01*
X192332274Y-92038645D01*
X192320770Y-92044274D01*
X192309553Y-92050280D01*
X192298672Y-92056611D01*
X192288127Y-92063268D01*
X192277918Y-92070251D01*
X192268044Y-92077558D01*
X192258506Y-92085191D01*
X192249304Y-92093149D01*
X192240438Y-92101433D01*
X192231908Y-92110042D01*
X192223714Y-92118976D01*
X192215855Y-92128235D01*
X192208333Y-92137820D01*
X192201146Y-92147731D01*
X192194295Y-92157966D01*
X192187780Y-92168527D01*
X192181600Y-92179413D01*
X192175777Y-92190607D01*
X192170329Y-92202091D01*
X192165257Y-92213864D01*
X192160560Y-92225926D01*
X192156240Y-92238279D01*
X192152295Y-92250921D01*
X192148725Y-92263852D01*
X192145532Y-92277074D01*
X192142714Y-92290585D01*
X192140272Y-92304386D01*
X192138205Y-92318476D01*
X192136515Y-92332856D01*
X192135200Y-92347525D01*
X192134260Y-92362485D01*
X192133697Y-92377734D01*
X192133509Y-92393272D01*
X192133682Y-92406146D01*
X192134202Y-92418842D01*
X192135067Y-92431359D01*
X192136280Y-92443698D01*
X192137838Y-92455858D01*
X192139743Y-92467840D01*
X192141994Y-92479644D01*
X192144591Y-92491269D01*
X192147535Y-92502715D01*
X192150825Y-92513984D01*
X192154462Y-92525074D01*
X192158445Y-92535985D01*
X192162774Y-92546718D01*
X192167449Y-92557273D01*
X192172471Y-92567649D01*
X192177839Y-92577847D01*
X192183537Y-92587846D01*
X192189547Y-92597627D01*
X192195870Y-92607190D01*
X192202506Y-92616535D01*
X192209455Y-92625661D01*
X192216716Y-92634569D01*
X192224290Y-92643259D01*
X192232177Y-92651730D01*
X192240377Y-92659983D01*
X192248889Y-92668018D01*
X192257714Y-92675835D01*
X192266852Y-92683433D01*
X192276302Y-92690813D01*
X192286066Y-92697974D01*
X192296142Y-92704918D01*
X192306531Y-92711643D01*
X192317184Y-92718163D01*
X192328120Y-92724426D01*
X192339340Y-92730430D01*
X192350844Y-92736176D01*
X192362631Y-92741663D01*
X192374701Y-92746893D01*
X192387054Y-92751864D01*
X192399691Y-92756577D01*
X192412611Y-92761033D01*
X192425815Y-92765229D01*
X192439301Y-92769168D01*
X192453072Y-92772849D01*
X192467125Y-92776271D01*
X192481462Y-92779435D01*
X192496083Y-92782341D01*
X192510986Y-92784989D01*
X192510986Y-92571399D01*
X192497486Y-92568233D01*
X192484523Y-92564648D01*
X192472097Y-92560644D01*
X192460208Y-92556219D01*
X192448857Y-92551375D01*
X192438043Y-92546110D01*
X192427767Y-92540426D01*
X192418027Y-92534323D01*
X192408830Y-92527845D01*
X192400178Y-92521040D01*
X192392072Y-92513908D01*
X192382706Y-92504532D01*
X192374194Y-92494645D01*
X192366534Y-92484246D01*
X192359727Y-92473335D01*
X192353844Y-92461959D01*
X192348959Y-92450163D01*
X192345071Y-92437947D01*
X192342179Y-92425311D01*
X192340285Y-92412255D01*
X192339487Y-92401509D01*
X192339308Y-92393272D01*
X192339775Y-92377392D01*
X192341178Y-92362191D01*
X192343516Y-92347670D01*
X192346789Y-92333830D01*
X192350997Y-92320669D01*
X192356140Y-92308189D01*
X192362218Y-92296388D01*
X192369231Y-92285268D01*
X192377179Y-92274828D01*
X192386062Y-92265068D01*
X192392504Y-92258939D01*
X192402808Y-92250440D01*
X192413873Y-92242778D01*
X192425697Y-92235951D01*
X192438282Y-92229961D01*
X192451628Y-92224806D01*
X192465734Y-92220487D01*
X192480600Y-92217004D01*
X192496226Y-92214357D01*
X192507066Y-92213057D01*
X192518244Y-92212128D01*
X192529760Y-92211570D01*
X192541614Y-92211385D01*
X192841715Y-92211385D01*
X192853568Y-92211570D01*
X192865081Y-92212128D01*
X192876254Y-92213057D01*
X192887087Y-92214357D01*
X192902698Y-92217004D01*
X192917545Y-92220487D01*
X192931626Y-92224806D01*
X192944942Y-92229961D01*
X192957494Y-92235951D01*
X192969280Y-92242778D01*
X192980301Y-92250440D01*
X192990557Y-92258939D01*
X192999968Y-92268246D01*
X193008453Y-92278232D01*
X193016012Y-92288899D01*
X193022646Y-92300246D01*
X193028354Y-92312273D01*
X193033137Y-92324981D01*
X193036993Y-92338368D01*
X193039925Y-92352435D01*
X193041930Y-92367182D01*
X193043010Y-92382610D01*
X193043216Y-92393272D01*
X193042824Y-92405780D01*
X193041648Y-92417915D01*
X193039688Y-92429677D01*
X193036944Y-92441066D01*
X193033416Y-92452081D01*
X193029105Y-92462724D01*
X193024009Y-92472993D01*
X193018129Y-92482890D01*
X193011465Y-92492413D01*
X193004018Y-92501563D01*
X192998617Y-92507456D01*
X192989879Y-92515961D01*
X192980488Y-92523947D01*
X192970446Y-92531414D01*
X192959753Y-92538361D01*
X192948407Y-92544789D01*
X192936410Y-92550697D01*
X192923761Y-92556085D01*
X192910461Y-92560954D01*
X192896508Y-92565304D01*
X192881904Y-92569134D01*
X192871806Y-92571399D01*
X192871806Y-92784989D01*
X192886614Y-92782244D01*
X192901150Y-92779246D01*
X192915412Y-92775997D01*
X192929402Y-92772496D01*
X192943118Y-92768743D01*
X192956562Y-92764738D01*
X192969733Y-92760482D01*
X192982631Y-92755973D01*
X192995257Y-92751213D01*
X193007609Y-92746200D01*
X193019689Y-92740936D01*
X193031495Y-92735420D01*
X193043029Y-92729652D01*
X193054290Y-92723632D01*
X193065278Y-92717360D01*
X193075993Y-92710837D01*
X193086415Y-92704113D01*
X193096521Y-92697173D01*
X193106313Y-92690016D01*
X193115790Y-92682644D01*
X193124952Y-92675055D01*
X193133799Y-92667250D01*
X193142331Y-92659229D01*
X193150548Y-92650991D01*
X193158451Y-92642538D01*
X193166039Y-92633868D01*
X193173312Y-92624982D01*
X193180270Y-92615880D01*
X193186913Y-92606562D01*
X193193241Y-92597027D01*
X193199255Y-92587276D01*
X193204953Y-92577309D01*
X193210322Y-92567177D01*
X193215343Y-92556861D01*
X193220019Y-92546363D01*
X193224348Y-92535683D01*
X193228331Y-92524820D01*
X193231967Y-92513774D01*
X193235257Y-92502545D01*
X193238201Y-92491134D01*
X193240798Y-92479541D01*
X193243050Y-92467765D01*
X193244954Y-92455806D01*
X193246513Y-92443664D01*
X193247725Y-92431340D01*
X193248591Y-92418834D01*
X193249110Y-92406144D01*
X193249284Y-92393272D01*
G37*
G36*
X193238000Y-92822065D02*
G01*
X192144524Y-93240111D01*
X192144524Y-93370952D01*
X193238000Y-93788998D01*
X193238000Y-93567348D01*
X192491374Y-93305666D01*
X193238000Y-93043984D01*
X193238000Y-92822065D01*
G37*
G36*
X193062829Y-93022759D02*
G01*
X192864284Y-93022759D01*
X192864284Y-93597976D01*
X193062829Y-93597976D01*
X193062829Y-93022759D01*
G37*
G36*
X193237193Y-93923600D02*
G01*
X192144524Y-93923600D01*
X192144524Y-94175341D01*
X192982497Y-94582372D01*
X193001841Y-94564103D01*
X192144524Y-94564103D01*
X192144524Y-94761304D01*
X193237193Y-94761304D01*
X193237193Y-94507951D01*
X192412117Y-94102533D01*
X192392773Y-94120533D01*
X193237193Y-94120533D01*
X193237193Y-93923600D01*
G37*
G36*
X193238000Y-95504438D02*
G01*
X193039454Y-95504438D01*
X193039454Y-95853168D01*
X193039155Y-95866135D01*
X193038255Y-95878541D01*
X193036755Y-95890385D01*
X193034656Y-95901666D01*
X193031957Y-95912386D01*
X193027426Y-95925805D01*
X193021828Y-95938224D01*
X193015163Y-95949645D01*
X193007433Y-95960066D01*
X193005334Y-95962515D01*
X192996312Y-95971646D01*
X192986443Y-95979559D01*
X192975726Y-95986254D01*
X192964161Y-95991733D01*
X192951747Y-95995994D01*
X192938486Y-95999037D01*
X192924377Y-96000863D01*
X192913238Y-96001434D01*
X192909420Y-96001472D01*
X192907270Y-96001472D01*
X192895783Y-96001130D01*
X192884797Y-96000102D01*
X192870927Y-95997668D01*
X192857947Y-95994015D01*
X192845857Y-95989146D01*
X192834657Y-95983059D01*
X192824347Y-95975754D01*
X192814926Y-95967233D01*
X192810550Y-95962515D01*
X192802553Y-95952344D01*
X192795622Y-95941173D01*
X192789758Y-95929003D01*
X192784960Y-95915834D01*
X192782061Y-95905302D01*
X192779761Y-95894208D01*
X192778062Y-95882551D01*
X192776963Y-95870333D01*
X192776463Y-95857553D01*
X192776429Y-95853168D01*
X192776429Y-95504438D01*
X192577884Y-95504438D01*
X192577884Y-95853168D01*
X192577601Y-95864902D01*
X192576751Y-95876126D01*
X192575334Y-95886840D01*
X192572563Y-95900332D01*
X192568785Y-95912918D01*
X192564000Y-95924596D01*
X192558207Y-95935368D01*
X192551406Y-95945233D01*
X192545644Y-95952037D01*
X192537110Y-95960286D01*
X192527761Y-95967435D01*
X192517598Y-95973484D01*
X192506620Y-95978434D01*
X192494828Y-95982283D01*
X192482222Y-95985033D01*
X192468801Y-95986683D01*
X192454566Y-95987233D01*
X192441582Y-95986683D01*
X192429362Y-95985033D01*
X192417906Y-95982283D01*
X192407214Y-95978434D01*
X192397285Y-95973484D01*
X192388121Y-95967435D01*
X192379721Y-95960286D01*
X192372085Y-95952037D01*
X192365285Y-95942852D01*
X192359391Y-95932760D01*
X192354404Y-95921762D01*
X192350323Y-95909856D01*
X192347150Y-95897044D01*
X192344883Y-95883326D01*
X192343778Y-95872441D01*
X192343183Y-95861047D01*
X192343069Y-95853168D01*
X192343069Y-95504438D01*
X192144524Y-95504438D01*
X192144524Y-95860153D01*
X192144828Y-95879788D01*
X192145737Y-95898862D01*
X192147254Y-95917376D01*
X192149377Y-95935329D01*
X192152107Y-95952722D01*
X192155443Y-95969555D01*
X192159386Y-95985827D01*
X192163935Y-96001539D01*
X192169092Y-96016690D01*
X192174854Y-96031281D01*
X192181224Y-96045312D01*
X192188199Y-96058782D01*
X192195782Y-96071692D01*
X192203971Y-96084041D01*
X192212767Y-96095830D01*
X192222169Y-96107058D01*
X192232091Y-96117664D01*
X192242512Y-96127586D01*
X192253433Y-96136823D01*
X192264854Y-96145377D01*
X192276774Y-96153246D01*
X192289193Y-96160431D01*
X192302112Y-96166931D01*
X192315531Y-96172747D01*
X192329449Y-96177879D01*
X192343867Y-96182327D01*
X192358784Y-96186090D01*
X192374201Y-96189170D01*
X192390118Y-96191564D01*
X192406533Y-96193275D01*
X192423449Y-96194301D01*
X192440864Y-96194644D01*
X192452689Y-96194424D01*
X192464251Y-96193766D01*
X192475551Y-96192670D01*
X192486588Y-96191134D01*
X192497363Y-96189160D01*
X192507876Y-96186747D01*
X192523153Y-96182306D01*
X192537839Y-96176877D01*
X192551936Y-96170461D01*
X192565442Y-96163058D01*
X192578357Y-96154669D01*
X192590683Y-96145292D01*
X192598572Y-96138492D01*
X192609768Y-96127606D01*
X192620186Y-96115902D01*
X192629824Y-96103382D01*
X192638683Y-96090044D01*
X192644156Y-96080698D01*
X192649283Y-96070990D01*
X192654063Y-96060918D01*
X192658497Y-96050483D01*
X192662585Y-96039685D01*
X192666326Y-96028523D01*
X192669721Y-96016999D01*
X192672770Y-96005112D01*
X192675472Y-95992861D01*
X192677829Y-95980247D01*
X192679916Y-95993689D01*
X192682417Y-96006745D01*
X192685331Y-96019414D01*
X192688659Y-96031697D01*
X192692401Y-96043594D01*
X192696555Y-96055105D01*
X192701124Y-96066229D01*
X192706106Y-96076967D01*
X192711501Y-96087319D01*
X192717310Y-96097285D01*
X192723532Y-96106865D01*
X192730168Y-96116058D01*
X192737218Y-96124866D01*
X192744680Y-96133287D01*
X192752557Y-96141322D01*
X192760847Y-96148970D01*
X192769504Y-96156225D01*
X192778482Y-96163012D01*
X192787782Y-96169331D01*
X192797402Y-96175182D01*
X192807344Y-96180565D01*
X192817607Y-96185480D01*
X192828191Y-96189926D01*
X192839096Y-96193905D01*
X192850322Y-96197415D01*
X192861870Y-96200458D01*
X192873738Y-96203032D01*
X192885928Y-96205138D01*
X192898439Y-96206777D01*
X192911271Y-96207947D01*
X192924424Y-96208649D01*
X192937898Y-96208883D01*
X192940316Y-96208883D01*
X192957831Y-96208539D01*
X192974844Y-96207506D01*
X192991356Y-96205785D01*
X193007366Y-96203375D01*
X193022874Y-96200277D01*
X193037880Y-96196491D01*
X193052385Y-96192016D01*
X193066388Y-96186852D01*
X193079890Y-96181000D01*
X193092890Y-96174460D01*
X193105388Y-96167231D01*
X193117385Y-96159314D01*
X193128880Y-96150708D01*
X193139873Y-96141414D01*
X193150365Y-96131431D01*
X193160355Y-96120760D01*
X193169757Y-96109496D01*
X193178553Y-96097667D01*
X193186742Y-96085274D01*
X193194324Y-96072316D01*
X193201300Y-96058794D01*
X193207669Y-96044706D01*
X193213432Y-96030055D01*
X193218588Y-96014838D01*
X193223138Y-95999057D01*
X193227081Y-95982711D01*
X193230417Y-95965801D01*
X193233147Y-95948326D01*
X193235270Y-95930287D01*
X193236786Y-95911683D01*
X193237696Y-95892514D01*
X193238000Y-95872780D01*
X193238000Y-95504438D01*
G37*
G36*
X193238000Y-95414166D02*
G01*
X192144524Y-95414166D01*
X192144524Y-95620233D01*
X193238000Y-95620233D01*
X193238000Y-95414166D01*
G37*
G36*
X193249284Y-96769054D02*
G01*
X193249180Y-96757266D01*
X193248868Y-96745645D01*
X193248348Y-96734192D01*
X193247621Y-96722906D01*
X193246686Y-96711788D01*
X193245543Y-96700837D01*
X193244192Y-96690053D01*
X193240868Y-96668988D01*
X193236712Y-96648592D01*
X193231725Y-96628866D01*
X193225906Y-96609810D01*
X193219257Y-96591423D01*
X193211776Y-96573705D01*
X193203464Y-96556658D01*
X193194321Y-96540279D01*
X193184347Y-96524571D01*
X193173541Y-96509532D01*
X193161905Y-96495162D01*
X193149437Y-96481462D01*
X193142891Y-96474863D01*
X193129250Y-96462240D01*
X193114925Y-96450432D01*
X193099915Y-96439437D01*
X193084221Y-96429257D01*
X193067843Y-96419892D01*
X193050780Y-96411340D01*
X193033034Y-96403604D01*
X193014603Y-96396681D01*
X192995488Y-96390573D01*
X192975688Y-96385280D01*
X192955204Y-96380801D01*
X192934036Y-96377136D01*
X192923196Y-96375609D01*
X192912184Y-96374285D01*
X192901001Y-96373166D01*
X192889647Y-96372249D01*
X192878123Y-96371537D01*
X192866427Y-96371028D01*
X192854560Y-96370722D01*
X192842521Y-96370621D01*
X192144524Y-96370621D01*
X192144524Y-96576688D01*
X192847626Y-96576688D01*
X192859216Y-96576885D01*
X192870475Y-96577473D01*
X192881406Y-96578455D01*
X192897183Y-96580662D01*
X192912220Y-96583753D01*
X192926514Y-96587727D01*
X192940068Y-96592585D01*
X192952879Y-96598325D01*
X192964950Y-96604949D01*
X192976279Y-96612455D01*
X192986866Y-96620845D01*
X192993512Y-96626929D01*
X193002779Y-96636715D01*
X193011134Y-96647233D01*
X193018578Y-96658484D01*
X193025110Y-96670466D01*
X193030731Y-96683180D01*
X193035440Y-96696626D01*
X193039238Y-96710804D01*
X193042124Y-96725715D01*
X193044099Y-96741357D01*
X193044909Y-96752192D01*
X193045315Y-96763352D01*
X193045365Y-96769054D01*
X193045163Y-96780444D01*
X193044555Y-96791509D01*
X193043542Y-96802248D01*
X193041264Y-96817747D01*
X193038073Y-96832514D01*
X193033972Y-96846549D01*
X193028959Y-96859852D01*
X193023034Y-96872423D01*
X193016198Y-96884262D01*
X193008450Y-96895369D01*
X192999791Y-96905744D01*
X192993512Y-96912254D01*
X192983419Y-96921328D01*
X192972585Y-96929510D01*
X192961009Y-96936800D01*
X192948691Y-96943196D01*
X192935632Y-96948701D01*
X192921832Y-96953312D01*
X192907290Y-96957031D01*
X192892007Y-96959858D01*
X192875982Y-96961792D01*
X192864887Y-96962585D01*
X192853462Y-96962982D01*
X192847626Y-96963032D01*
X192144524Y-96963032D01*
X192144524Y-97169099D01*
X192842521Y-97169099D01*
X192854560Y-97168997D01*
X192866427Y-97168690D01*
X192878123Y-97168178D01*
X192889647Y-97167462D01*
X192901001Y-97166541D01*
X192912184Y-97165416D01*
X192923196Y-97164085D01*
X192934036Y-97162551D01*
X192944706Y-97160811D01*
X192965532Y-97156718D01*
X192985673Y-97151806D01*
X193005131Y-97146076D01*
X193023904Y-97139528D01*
X193041993Y-97132160D01*
X193059397Y-97123974D01*
X193076118Y-97114970D01*
X193092154Y-97105147D01*
X193107505Y-97094505D01*
X193122173Y-97083044D01*
X193136156Y-97070766D01*
X193142891Y-97064319D01*
X193155775Y-97050918D01*
X193167827Y-97036844D01*
X193179048Y-97022095D01*
X193189438Y-97006673D01*
X193198997Y-96990577D01*
X193207724Y-96973808D01*
X193215620Y-96956364D01*
X193222685Y-96938247D01*
X193228919Y-96919456D01*
X193234322Y-96899991D01*
X193238894Y-96879853D01*
X193242634Y-96859041D01*
X193244192Y-96848382D01*
X193245543Y-96837555D01*
X193246686Y-96826559D01*
X193247621Y-96815395D01*
X193248348Y-96804062D01*
X193248868Y-96792561D01*
X193249180Y-96780892D01*
X193249284Y-96769054D01*
G37*
G36*
X193249284Y-97708314D02*
G01*
X193249144Y-97693683D01*
X193248726Y-97679109D01*
X193248030Y-97664592D01*
X193247054Y-97650131D01*
X193245801Y-97635727D01*
X193244268Y-97621379D01*
X193242457Y-97607089D01*
X193240367Y-97592855D01*
X193237999Y-97578677D01*
X193235352Y-97564556D01*
X193233432Y-97555174D01*
X193230333Y-97541250D01*
X193226978Y-97527487D01*
X193223368Y-97513884D01*
X193219503Y-97500441D01*
X193215384Y-97487160D01*
X193211009Y-97474039D01*
X193206379Y-97461078D01*
X193201494Y-97448278D01*
X193196355Y-97435639D01*
X193190960Y-97423160D01*
X193187221Y-97414930D01*
X193181418Y-97402800D01*
X193175393Y-97390891D01*
X193169145Y-97379205D01*
X193162676Y-97367741D01*
X193155985Y-97356499D01*
X193149072Y-97345478D01*
X193141937Y-97334680D01*
X193134579Y-97324103D01*
X193127000Y-97313749D01*
X193119199Y-97303617D01*
X193113875Y-97296985D01*
X192944078Y-97392362D01*
X192953592Y-97404372D01*
X192962691Y-97416727D01*
X192971375Y-97429428D01*
X192979642Y-97442472D01*
X192987495Y-97455862D01*
X192994931Y-97469596D01*
X193001952Y-97483675D01*
X193008558Y-97498099D01*
X193014748Y-97512868D01*
X193018643Y-97522905D01*
X193022354Y-97533095D01*
X193024140Y-97538248D01*
X193027557Y-97548609D01*
X193030752Y-97559007D01*
X193033727Y-97569440D01*
X193036482Y-97579908D01*
X193039017Y-97590412D01*
X193041331Y-97600952D01*
X193043425Y-97611528D01*
X193045298Y-97622139D01*
X193046951Y-97632786D01*
X193048383Y-97643469D01*
X193049596Y-97654187D01*
X193050587Y-97664941D01*
X193051359Y-97675731D01*
X193051910Y-97686556D01*
X193052240Y-97697417D01*
X193052351Y-97708314D01*
X193052217Y-97720732D01*
X193051817Y-97732797D01*
X193051151Y-97744509D01*
X193050218Y-97755868D01*
X193049018Y-97766875D01*
X193047552Y-97777530D01*
X193044853Y-97792850D01*
X193041555Y-97807377D01*
X193037656Y-97821110D01*
X193033158Y-97834050D01*
X193028059Y-97846197D01*
X193022362Y-97857550D01*
X193018230Y-97864678D01*
X193011536Y-97874617D01*
X193004351Y-97883579D01*
X192996676Y-97891562D01*
X192988508Y-97898568D01*
X192976855Y-97906389D01*
X192964328Y-97912472D01*
X192950929Y-97916817D01*
X192940306Y-97918935D01*
X192929192Y-97920075D01*
X192921510Y-97920293D01*
X192920704Y-97920293D01*
X192909226Y-97919856D01*
X192898438Y-97918546D01*
X192885920Y-97915681D01*
X192874478Y-97911452D01*
X192864112Y-97905858D01*
X192854821Y-97898900D01*
X192848163Y-97892351D01*
X192840593Y-97883264D01*
X192833665Y-97873298D01*
X192827380Y-97862453D01*
X192821738Y-97850729D01*
X192817687Y-97840717D01*
X192814047Y-97830142D01*
X192810819Y-97819005D01*
X192807859Y-97807532D01*
X192805026Y-97795816D01*
X192802318Y-97783856D01*
X192799736Y-97771653D01*
X192797280Y-97759206D01*
X192794951Y-97746515D01*
X192792747Y-97733582D01*
X192790669Y-97720404D01*
X192788765Y-97708401D01*
X192786780Y-97696369D01*
X192784716Y-97684309D01*
X192782571Y-97672220D01*
X192780346Y-97660104D01*
X192778040Y-97647959D01*
X192775655Y-97635785D01*
X192773189Y-97623583D01*
X192770642Y-97611353D01*
X192768016Y-97599095D01*
X192766220Y-97590907D01*
X192763298Y-97578755D01*
X192760074Y-97566783D01*
X192756548Y-97554991D01*
X192752719Y-97543378D01*
X192748589Y-97531944D01*
X192744156Y-97520690D01*
X192739420Y-97509615D01*
X192734383Y-97498720D01*
X192729043Y-97488005D01*
X192723401Y-97477468D01*
X192719472Y-97470544D01*
X192713236Y-97460454D01*
X192706519Y-97450737D01*
X192699320Y-97441393D01*
X192691640Y-97432422D01*
X192683477Y-97423825D01*
X192674833Y-97415600D01*
X192665708Y-97407749D01*
X192656100Y-97400271D01*
X192646011Y-97393165D01*
X192635440Y-97386433D01*
X192628125Y-97382152D01*
X192616643Y-97376199D01*
X192604461Y-97370831D01*
X192591581Y-97366048D01*
X192578002Y-97361851D01*
X192563724Y-97358240D01*
X192548747Y-97355214D01*
X192533070Y-97352774D01*
X192522231Y-97351473D01*
X192511082Y-97350432D01*
X192499621Y-97349651D01*
X192487850Y-97349130D01*
X192475769Y-97348870D01*
X192469612Y-97348838D01*
X192468806Y-97348838D01*
X192449073Y-97349249D01*
X192429908Y-97350483D01*
X192411309Y-97352540D01*
X192393276Y-97355420D01*
X192375811Y-97359123D01*
X192358912Y-97363648D01*
X192342580Y-97368996D01*
X192326815Y-97375167D01*
X192311616Y-97382161D01*
X192296984Y-97389977D01*
X192282919Y-97398617D01*
X192269421Y-97408079D01*
X192256489Y-97418364D01*
X192244124Y-97429471D01*
X192232326Y-97441402D01*
X192221094Y-97454155D01*
X192210488Y-97467660D01*
X192200567Y-97481845D01*
X192191329Y-97496709D01*
X192182776Y-97512254D01*
X192174907Y-97528479D01*
X192167722Y-97545384D01*
X192161222Y-97562970D01*
X192155405Y-97581235D01*
X192150273Y-97600180D01*
X192145826Y-97619805D01*
X192142062Y-97640111D01*
X192138983Y-97661096D01*
X192137700Y-97671844D01*
X192136588Y-97682761D01*
X192135647Y-97693849D01*
X192134877Y-97705107D01*
X192134279Y-97716535D01*
X192133851Y-97728133D01*
X192133594Y-97739900D01*
X192133509Y-97751838D01*
X192133625Y-97762932D01*
X192133975Y-97774050D01*
X192134557Y-97785190D01*
X192135373Y-97796353D01*
X192136421Y-97807540D01*
X192137703Y-97818749D01*
X192139217Y-97829982D01*
X192140964Y-97841237D01*
X192142945Y-97852516D01*
X192145158Y-97863818D01*
X192147604Y-97875143D01*
X192150284Y-97886491D01*
X192153196Y-97897862D01*
X192156341Y-97909256D01*
X192159720Y-97920674D01*
X192163331Y-97932114D01*
X192167124Y-97943549D01*
X192171114Y-97954883D01*
X192175301Y-97966117D01*
X192179686Y-97977250D01*
X192184268Y-97988282D01*
X192189047Y-97999214D01*
X192194024Y-98010044D01*
X192199198Y-98020774D01*
X192204569Y-98031403D01*
X192210138Y-98041932D01*
X192215904Y-98052359D01*
X192221867Y-98062686D01*
X192228027Y-98072912D01*
X192234385Y-98083038D01*
X192240940Y-98093062D01*
X192247692Y-98102986D01*
X192422057Y-98015938D01*
X192413927Y-98004048D01*
X192406161Y-97992054D01*
X192398758Y-97979956D01*
X192391719Y-97967754D01*
X192385044Y-97955449D01*
X192378732Y-97943039D01*
X192372784Y-97930526D01*
X192367199Y-97917908D01*
X192361978Y-97905187D01*
X192357121Y-97892362D01*
X192354085Y-97883754D01*
X192349859Y-97870907D01*
X192346050Y-97858160D01*
X192342656Y-97845512D01*
X192339677Y-97832963D01*
X192337115Y-97820513D01*
X192334967Y-97808163D01*
X192333236Y-97795912D01*
X192331920Y-97783759D01*
X192331019Y-97771706D01*
X192330534Y-97759752D01*
X192330442Y-97751838D01*
X192330564Y-97740183D01*
X192330929Y-97728859D01*
X192331538Y-97717867D01*
X192332907Y-97702000D01*
X192334825Y-97686880D01*
X192337290Y-97672505D01*
X192340303Y-97658877D01*
X192343864Y-97645996D01*
X192347972Y-97633860D01*
X192352629Y-97622470D01*
X192357833Y-97611827D01*
X192361607Y-97605146D01*
X192367673Y-97595879D01*
X192376451Y-97584942D01*
X192386018Y-97575624D01*
X192396374Y-97567928D01*
X192407519Y-97561851D01*
X192419454Y-97557395D01*
X192432178Y-97554559D01*
X192445691Y-97553344D01*
X192449193Y-97553293D01*
X192449999Y-97553293D01*
X192462765Y-97553776D01*
X192474733Y-97555224D01*
X192485904Y-97557638D01*
X192496277Y-97561017D01*
X192508121Y-97566599D01*
X192518720Y-97573690D01*
X192528072Y-97582289D01*
X192529793Y-97584190D01*
X192537854Y-97594298D01*
X192545247Y-97605311D01*
X192550679Y-97614773D01*
X192555683Y-97624814D01*
X192560258Y-97635435D01*
X192564406Y-97646635D01*
X192568125Y-97658415D01*
X192569824Y-97664521D01*
X192573086Y-97677065D01*
X192576289Y-97689843D01*
X192579433Y-97702857D01*
X192582519Y-97716106D01*
X192585546Y-97729589D01*
X192588514Y-97743308D01*
X192591423Y-97757262D01*
X192593566Y-97767882D01*
X192594273Y-97771451D01*
X192596590Y-97783282D01*
X192599005Y-97795099D01*
X192601520Y-97806902D01*
X192604134Y-97818690D01*
X192606847Y-97830465D01*
X192609659Y-97842225D01*
X192612571Y-97853971D01*
X192615582Y-97865703D01*
X192618692Y-97877421D01*
X192621901Y-97889124D01*
X192624095Y-97896919D01*
X192627554Y-97908561D01*
X192631283Y-97920016D01*
X192635281Y-97931281D01*
X192639548Y-97942357D01*
X192644084Y-97953244D01*
X192648889Y-97963943D01*
X192653964Y-97974452D01*
X192659307Y-97984773D01*
X192664920Y-97994904D01*
X192670802Y-98004847D01*
X192674873Y-98011371D01*
X192681289Y-98020907D01*
X192688144Y-98030069D01*
X192695438Y-98038859D01*
X192703171Y-98047276D01*
X192711344Y-98055319D01*
X192719956Y-98062989D01*
X192729007Y-98070287D01*
X192738497Y-98077211D01*
X192748426Y-98083762D01*
X192758795Y-98089940D01*
X192765951Y-98093852D01*
X192777087Y-98099373D01*
X192788831Y-98104352D01*
X192801185Y-98108787D01*
X192814148Y-98112679D01*
X192827720Y-98116028D01*
X192841901Y-98118834D01*
X192856692Y-98121097D01*
X192872092Y-98122817D01*
X192888101Y-98123994D01*
X192899112Y-98124477D01*
X192910394Y-98124718D01*
X192916136Y-98124748D01*
X192917748Y-98124748D01*
X192937186Y-98124322D01*
X192956071Y-98123044D01*
X192974405Y-98120913D01*
X192992186Y-98117931D01*
X193009415Y-98114096D01*
X193026092Y-98109409D01*
X193042218Y-98103870D01*
X193057791Y-98097479D01*
X193072812Y-98090235D01*
X193087281Y-98082139D01*
X193101199Y-98073191D01*
X193114564Y-98063391D01*
X193127377Y-98052739D01*
X193139638Y-98041235D01*
X193151347Y-98028878D01*
X193162504Y-98015669D01*
X193173012Y-98001718D01*
X193182843Y-97987065D01*
X193191996Y-97971711D01*
X193200470Y-97955656D01*
X193208267Y-97938900D01*
X193215385Y-97921443D01*
X193221826Y-97903285D01*
X193227589Y-97884426D01*
X193232673Y-97864865D01*
X193237080Y-97844604D01*
X193240809Y-97823642D01*
X193242419Y-97812898D01*
X193243860Y-97801978D01*
X193245131Y-97790884D01*
X193246233Y-97779614D01*
X193247165Y-97768169D01*
X193247928Y-97756548D01*
X193248521Y-97744753D01*
X193248945Y-97732782D01*
X193249199Y-97720636D01*
X193249284Y-97708314D01*
G37*
G36*
X114637000Y-105379637D02*
G01*
X115730475Y-105379637D01*
X115730475Y-105173569D01*
X114637000Y-105173569D01*
X114637000Y-105379637D01*
G37*
G36*
X114637000Y-105288021D02*
G01*
X114835545Y-105288021D01*
X114835545Y-104647250D01*
X114637000Y-104647250D01*
X114637000Y-105288021D01*
G37*
G36*
X114637000Y-104497334D02*
G01*
X115730475Y-104497334D01*
X115730475Y-104291266D01*
X114637000Y-104291266D01*
X114637000Y-104497334D01*
G37*
G36*
X114637000Y-104422913D02*
G01*
X114835545Y-104422913D01*
X114835545Y-103764947D01*
X114637000Y-103764947D01*
X114637000Y-104422913D01*
G37*
G36*
X115080569Y-104422913D02*
G01*
X115279114Y-104422913D01*
X115279114Y-103847697D01*
X115080569Y-103847697D01*
X115080569Y-104422913D01*
G37*
G36*
X115531930Y-104422913D02*
G01*
X115730475Y-104422913D01*
X115730475Y-103764947D01*
X115531930Y-103764947D01*
X115531930Y-104422913D01*
G37*
G36*
X114637000Y-103473712D02*
G01*
X114835545Y-103473712D01*
X114835545Y-103211224D01*
X114835737Y-103198709D01*
X114836313Y-103186553D01*
X114837273Y-103174756D01*
X114838617Y-103163317D01*
X114840346Y-103152238D01*
X114842458Y-103141518D01*
X114846348Y-103126110D01*
X114851101Y-103111510D01*
X114856719Y-103097717D01*
X114863200Y-103084732D01*
X114870547Y-103072555D01*
X114878757Y-103061185D01*
X114884711Y-103054054D01*
X114894324Y-103044115D01*
X114904628Y-103035154D01*
X114915620Y-103027170D01*
X114927303Y-103020164D01*
X114939675Y-103014136D01*
X114952736Y-103009085D01*
X114966487Y-103005011D01*
X114980927Y-103001916D01*
X114996057Y-102999798D01*
X115011876Y-102998657D01*
X115022806Y-102998440D01*
X115344669Y-102998440D01*
X115355694Y-102998657D01*
X115371636Y-102999798D01*
X115386866Y-103001916D01*
X115401383Y-103005011D01*
X115415187Y-103009085D01*
X115428277Y-103014136D01*
X115440654Y-103020164D01*
X115452318Y-103027170D01*
X115463270Y-103035154D01*
X115473507Y-103044115D01*
X115483032Y-103054054D01*
X115491771Y-103064885D01*
X115499650Y-103076524D01*
X115506669Y-103088971D01*
X115512829Y-103102225D01*
X115518130Y-103116287D01*
X115522570Y-103131156D01*
X115526152Y-103146833D01*
X115528062Y-103157733D01*
X115529590Y-103168992D01*
X115530736Y-103180610D01*
X115531500Y-103192586D01*
X115531882Y-103204922D01*
X115531930Y-103211224D01*
X115531930Y-103473712D01*
X115730475Y-103473712D01*
X115730475Y-103215792D01*
X115730374Y-103203004D01*
X115730073Y-103190399D01*
X115729570Y-103177978D01*
X115728867Y-103165740D01*
X115727963Y-103153685D01*
X115726857Y-103141813D01*
X115725551Y-103130124D01*
X115724044Y-103118618D01*
X115722335Y-103107295D01*
X115720426Y-103096156D01*
X115718316Y-103085200D01*
X115716004Y-103074426D01*
X115713492Y-103063836D01*
X115710779Y-103053429D01*
X115704750Y-103033165D01*
X115697917Y-103013633D01*
X115690280Y-102994834D01*
X115681839Y-102976767D01*
X115672594Y-102959433D01*
X115662545Y-102942831D01*
X115651692Y-102926962D01*
X115640036Y-102911825D01*
X115627575Y-102897421D01*
X115614419Y-102883789D01*
X115600608Y-102871037D01*
X115586142Y-102859164D01*
X115571021Y-102848171D01*
X115555245Y-102838057D01*
X115538814Y-102828823D01*
X115521729Y-102820468D01*
X115503988Y-102812992D01*
X115485593Y-102806396D01*
X115466543Y-102800680D01*
X115446838Y-102795843D01*
X115426478Y-102791885D01*
X115405463Y-102788807D01*
X115394710Y-102787598D01*
X115383793Y-102786608D01*
X115372713Y-102785839D01*
X115361469Y-102785289D01*
X115350061Y-102784959D01*
X115338489Y-102784849D01*
X115028716Y-102784849D01*
X115014251Y-102785037D01*
X115000007Y-102785601D01*
X114985982Y-102786540D01*
X114972179Y-102787855D01*
X114958595Y-102789546D01*
X114945232Y-102791612D01*
X114932089Y-102794054D01*
X114919167Y-102796872D01*
X114906465Y-102800066D01*
X114893984Y-102803635D01*
X114881723Y-102807580D01*
X114869682Y-102811901D01*
X114857862Y-102816597D01*
X114846262Y-102821669D01*
X114834882Y-102827117D01*
X114823723Y-102832941D01*
X114812859Y-102839139D01*
X114802297Y-102845711D01*
X114792037Y-102852656D01*
X114782080Y-102859976D01*
X114772425Y-102867668D01*
X114763072Y-102875735D01*
X114754021Y-102884174D01*
X114745272Y-102892988D01*
X114736826Y-102902175D01*
X114728682Y-102911736D01*
X114720840Y-102921670D01*
X114713301Y-102931978D01*
X114706064Y-102942660D01*
X114699129Y-102953715D01*
X114692496Y-102965144D01*
X114686166Y-102976946D01*
X114680212Y-102989123D01*
X114674642Y-103001672D01*
X114669457Y-103014596D01*
X114664655Y-103027892D01*
X114660238Y-103041563D01*
X114656205Y-103055607D01*
X114652556Y-103070025D01*
X114649291Y-103084816D01*
X114646410Y-103099981D01*
X114643913Y-103115520D01*
X114641801Y-103131432D01*
X114640072Y-103147718D01*
X114638728Y-103164377D01*
X114637768Y-103181411D01*
X114637192Y-103198817D01*
X114637000Y-103216598D01*
X114637000Y-103473712D01*
G37*
G36*
X114637000Y-103577418D02*
G01*
X115730475Y-103577418D01*
X115730475Y-103371350D01*
X114637000Y-103371350D01*
X114637000Y-103577418D01*
G37*
G36*
X115730475Y-101883203D02*
G01*
X114637000Y-101883203D01*
X114637000Y-102089270D01*
X115488137Y-102089270D01*
X115437896Y-102222260D01*
X115656591Y-102222260D01*
X115730475Y-102059180D01*
X115730475Y-101883203D01*
G37*
G36*
X115061225Y-97285603D02*
G01*
X115259501Y-97285603D01*
X115259501Y-96936067D01*
X115260085Y-96922491D01*
X115261835Y-96909570D01*
X115264753Y-96897304D01*
X115268837Y-96885692D01*
X115274089Y-96874736D01*
X115280508Y-96864434D01*
X115288093Y-96854787D01*
X115296846Y-96845795D01*
X115306606Y-96837672D01*
X115317080Y-96830632D01*
X115328267Y-96824675D01*
X115340169Y-96819801D01*
X115352783Y-96816011D01*
X115366112Y-96813303D01*
X115380154Y-96811679D01*
X115391154Y-96811171D01*
X115394909Y-96811137D01*
X115406423Y-96811439D01*
X115417487Y-96812346D01*
X115431542Y-96814495D01*
X115444799Y-96817719D01*
X115457258Y-96822018D01*
X115468920Y-96827391D01*
X115479784Y-96833839D01*
X115489851Y-96841362D01*
X115494585Y-96845526D01*
X115503338Y-96854405D01*
X115510923Y-96863980D01*
X115517342Y-96874253D01*
X115522594Y-96885222D01*
X115526678Y-96896888D01*
X115529596Y-96909251D01*
X115531346Y-96922311D01*
X115531930Y-96936067D01*
X115531930Y-97285603D01*
X115730475Y-97285603D01*
X115730475Y-96941172D01*
X115730311Y-96928345D01*
X115729820Y-96915724D01*
X115729001Y-96903309D01*
X115727855Y-96891099D01*
X115726382Y-96879095D01*
X115724581Y-96867297D01*
X115722452Y-96855704D01*
X115719997Y-96844317D01*
X115717213Y-96833136D01*
X115714103Y-96822161D01*
X115710665Y-96811391D01*
X115706899Y-96800827D01*
X115702806Y-96790468D01*
X115698386Y-96780316D01*
X115693638Y-96770369D01*
X115688563Y-96760628D01*
X115683226Y-96751091D01*
X115677627Y-96741825D01*
X115668737Y-96728434D01*
X115659256Y-96715652D01*
X115649185Y-96703479D01*
X115638523Y-96691916D01*
X115627272Y-96680962D01*
X115615430Y-96670617D01*
X115602997Y-96660881D01*
X115589974Y-96651754D01*
X115576361Y-96643237D01*
X115571692Y-96640533D01*
X115562186Y-96635328D01*
X115552474Y-96630458D01*
X115542557Y-96625925D01*
X115532433Y-96621727D01*
X115522104Y-96617865D01*
X115511570Y-96614338D01*
X115500829Y-96611148D01*
X115489883Y-96608293D01*
X115478732Y-96605775D01*
X115467374Y-96603592D01*
X115455811Y-96601745D01*
X115444042Y-96600233D01*
X115432067Y-96599058D01*
X115419887Y-96598218D01*
X115407501Y-96597715D01*
X115394909Y-96597547D01*
X115382415Y-96597715D01*
X115370121Y-96598218D01*
X115358025Y-96599058D01*
X115346130Y-96600233D01*
X115334433Y-96601745D01*
X115322936Y-96603592D01*
X115311638Y-96605775D01*
X115300540Y-96608293D01*
X115289641Y-96611148D01*
X115278942Y-96614338D01*
X115268442Y-96617865D01*
X115258141Y-96621727D01*
X115248040Y-96625925D01*
X115238138Y-96630458D01*
X115228436Y-96635328D01*
X115218933Y-96640533D01*
X115209661Y-96646041D01*
X115196251Y-96654806D01*
X115183435Y-96664176D01*
X115171214Y-96674150D01*
X115159589Y-96684729D01*
X115148558Y-96695912D01*
X115138122Y-96707700D01*
X115128282Y-96720092D01*
X115119037Y-96733089D01*
X115110386Y-96746690D01*
X115104950Y-96756094D01*
X115102331Y-96760896D01*
X115097353Y-96770668D01*
X115092697Y-96780639D01*
X115088361Y-96790810D01*
X115084347Y-96801179D01*
X115080654Y-96811749D01*
X115077282Y-96822518D01*
X115074231Y-96833486D01*
X115071501Y-96844653D01*
X115069093Y-96856020D01*
X115067005Y-96867586D01*
X115065239Y-96879352D01*
X115063794Y-96891317D01*
X115062670Y-96903482D01*
X115061867Y-96915846D01*
X115061385Y-96928409D01*
X115061225Y-96941172D01*
X115061225Y-97285603D01*
G37*
G36*
X114637000Y-97379637D02*
G01*
X115730475Y-97379637D01*
X115730475Y-97173569D01*
X114637000Y-97173569D01*
X114637000Y-97379637D01*
G37*
G36*
X115353613Y-95660361D02*
G01*
X115368492Y-95660944D01*
X115383125Y-95661914D01*
X115397512Y-95663273D01*
X115411654Y-95665021D01*
X115425550Y-95667157D01*
X115439201Y-95669681D01*
X115452606Y-95672593D01*
X115465765Y-95675893D01*
X115478679Y-95679582D01*
X115491347Y-95683660D01*
X115503770Y-95688125D01*
X115515947Y-95692979D01*
X115527879Y-95698221D01*
X115539565Y-95703852D01*
X115551005Y-95709870D01*
X115562164Y-95716208D01*
X115573006Y-95722863D01*
X115583532Y-95729835D01*
X115593740Y-95737123D01*
X115603631Y-95744729D01*
X115613206Y-95752651D01*
X115622463Y-95760891D01*
X115631404Y-95769447D01*
X115640027Y-95778321D01*
X115648334Y-95787511D01*
X115656324Y-95797018D01*
X115663996Y-95806842D01*
X115671352Y-95816984D01*
X115678391Y-95827442D01*
X115685113Y-95838217D01*
X115691518Y-95849309D01*
X115697569Y-95860645D01*
X115703230Y-95872221D01*
X115708501Y-95884036D01*
X115713381Y-95896090D01*
X115717870Y-95908384D01*
X115721970Y-95920917D01*
X115725679Y-95933689D01*
X115728997Y-95946700D01*
X115731925Y-95959951D01*
X115734463Y-95973441D01*
X115736610Y-95987171D01*
X115738367Y-96001139D01*
X115739733Y-96015347D01*
X115740709Y-96029794D01*
X115741295Y-96044481D01*
X115741490Y-96059406D01*
X115741295Y-96074333D01*
X115740709Y-96089023D01*
X115739733Y-96103475D01*
X115738367Y-96117690D01*
X115736610Y-96131668D01*
X115734463Y-96145409D01*
X115731925Y-96158913D01*
X115728997Y-96172179D01*
X115725679Y-96185209D01*
X115721970Y-96198001D01*
X115717870Y-96210556D01*
X115713381Y-96222873D01*
X115708501Y-96234954D01*
X115703230Y-96246797D01*
X115697569Y-96258404D01*
X115691518Y-96269773D01*
X115685113Y-96280833D01*
X115678391Y-96291581D01*
X115671352Y-96302016D01*
X115663996Y-96312138D01*
X115656324Y-96321948D01*
X115648334Y-96331444D01*
X115640027Y-96340628D01*
X115631404Y-96349500D01*
X115622463Y-96358058D01*
X115613206Y-96366304D01*
X115603631Y-96374237D01*
X115593740Y-96381857D01*
X115583532Y-96389165D01*
X115573006Y-96396160D01*
X115562164Y-96402842D01*
X115551005Y-96409211D01*
X115539565Y-96415197D01*
X115527879Y-96420797D01*
X115515947Y-96426011D01*
X115503770Y-96430839D01*
X115491347Y-96435280D01*
X115478679Y-96439335D01*
X115465765Y-96443004D01*
X115452606Y-96446287D01*
X115439201Y-96449184D01*
X115425550Y-96451694D01*
X115411654Y-96453818D01*
X115397512Y-96455556D01*
X115383125Y-96456908D01*
X115368492Y-96457873D01*
X115353613Y-96458453D01*
X115338489Y-96458646D01*
X115028716Y-96458646D01*
X115013720Y-96458453D01*
X114998957Y-96457873D01*
X114984427Y-96456908D01*
X114970130Y-96455556D01*
X114956066Y-96453818D01*
X114942235Y-96451694D01*
X114928637Y-96449184D01*
X114915271Y-96446287D01*
X114902139Y-96443004D01*
X114889240Y-96439335D01*
X114876574Y-96435280D01*
X114864141Y-96430839D01*
X114851941Y-96426011D01*
X114839973Y-96420797D01*
X114828239Y-96415197D01*
X114816738Y-96409211D01*
X114805514Y-96402842D01*
X114794611Y-96396160D01*
X114784029Y-96389165D01*
X114773768Y-96381857D01*
X114763828Y-96374237D01*
X114754210Y-96366304D01*
X114744912Y-96358058D01*
X114735936Y-96349500D01*
X114727281Y-96340628D01*
X114718947Y-96331444D01*
X114710934Y-96321948D01*
X114703243Y-96312138D01*
X114695872Y-96302016D01*
X114688823Y-96291581D01*
X114682095Y-96280833D01*
X114675688Y-96269773D01*
X114669636Y-96258404D01*
X114663975Y-96246797D01*
X114658705Y-96234954D01*
X114653825Y-96222873D01*
X114649335Y-96210556D01*
X114645236Y-96198001D01*
X114641527Y-96185209D01*
X114638209Y-96172179D01*
X114635280Y-96158913D01*
X114632743Y-96145409D01*
X114630596Y-96131668D01*
X114628839Y-96117690D01*
X114627472Y-96103475D01*
X114626496Y-96089023D01*
X114625911Y-96074333D01*
X114625719Y-96059675D01*
X114831783Y-96059675D01*
X114831989Y-96070024D01*
X114833069Y-96085063D01*
X114835074Y-96099522D01*
X114838006Y-96113399D01*
X114841862Y-96126696D01*
X114846645Y-96139412D01*
X114852353Y-96151547D01*
X114858987Y-96163101D01*
X114866546Y-96174074D01*
X114875031Y-96184466D01*
X114884442Y-96194277D01*
X114891157Y-96200426D01*
X114901724Y-96208906D01*
X114912887Y-96216493D01*
X114924645Y-96223187D01*
X114936998Y-96228989D01*
X114949946Y-96233898D01*
X114963489Y-96237915D01*
X114977627Y-96241039D01*
X114992360Y-96243270D01*
X115007688Y-96244609D01*
X115023612Y-96245055D01*
X115343863Y-96245055D01*
X115354608Y-96244857D01*
X115370219Y-96243816D01*
X115385221Y-96241882D01*
X115399613Y-96239055D01*
X115413396Y-96235336D01*
X115426570Y-96230724D01*
X115439135Y-96225220D01*
X115451090Y-96218823D01*
X115462436Y-96211534D01*
X115473173Y-96203352D01*
X115483301Y-96194277D01*
X115489645Y-96187800D01*
X115498394Y-96177596D01*
X115506222Y-96166806D01*
X115513129Y-96155431D01*
X115519115Y-96143470D01*
X115524180Y-96130923D01*
X115528324Y-96117791D01*
X115531547Y-96104073D01*
X115533849Y-96089770D01*
X115535231Y-96074881D01*
X115535691Y-96059406D01*
X115535486Y-96048993D01*
X115534412Y-96033870D01*
X115532417Y-96019341D01*
X115529500Y-96005408D01*
X115525663Y-95992070D01*
X115520905Y-95979326D01*
X115515226Y-95967178D01*
X115508626Y-95955625D01*
X115501105Y-95944667D01*
X115492664Y-95934303D01*
X115483301Y-95924535D01*
X115473173Y-95915461D01*
X115462436Y-95907279D01*
X115451090Y-95899989D01*
X115439135Y-95893593D01*
X115426570Y-95888088D01*
X115413396Y-95883477D01*
X115399613Y-95879757D01*
X115385221Y-95876931D01*
X115370219Y-95874997D01*
X115354608Y-95873956D01*
X115343863Y-95873757D01*
X115023612Y-95873757D01*
X115012930Y-95873956D01*
X114997403Y-95874997D01*
X114982472Y-95876931D01*
X114968135Y-95879757D01*
X114954394Y-95883477D01*
X114941248Y-95888088D01*
X114928696Y-95893593D01*
X114916740Y-95899989D01*
X114905379Y-95907279D01*
X114894613Y-95915461D01*
X114884442Y-95924535D01*
X114878065Y-95930982D01*
X114869272Y-95941153D01*
X114861404Y-95951923D01*
X114854461Y-95963293D01*
X114848445Y-95975262D01*
X114843354Y-95987831D01*
X114839188Y-96001001D01*
X114835949Y-96014770D01*
X114833634Y-96029138D01*
X114832246Y-96044107D01*
X114831783Y-96059675D01*
X114625719Y-96059675D01*
X114625715Y-96059406D01*
X114625911Y-96044481D01*
X114626496Y-96029794D01*
X114627472Y-96015347D01*
X114628839Y-96001139D01*
X114630596Y-95987171D01*
X114632743Y-95973441D01*
X114635280Y-95959951D01*
X114638209Y-95946700D01*
X114641527Y-95933689D01*
X114645236Y-95920917D01*
X114649335Y-95908384D01*
X114653825Y-95896090D01*
X114658705Y-95884036D01*
X114663975Y-95872221D01*
X114669636Y-95860645D01*
X114675688Y-95849309D01*
X114682095Y-95838217D01*
X114688823Y-95827442D01*
X114695872Y-95816984D01*
X114703243Y-95806842D01*
X114710934Y-95797018D01*
X114718947Y-95787511D01*
X114727281Y-95778321D01*
X114735936Y-95769447D01*
X114744912Y-95760891D01*
X114754210Y-95752651D01*
X114763828Y-95744729D01*
X114773768Y-95737123D01*
X114784029Y-95729835D01*
X114794611Y-95722863D01*
X114805514Y-95716208D01*
X114816738Y-95709870D01*
X114828239Y-95703852D01*
X114839973Y-95698221D01*
X114851941Y-95692979D01*
X114864141Y-95688125D01*
X114876574Y-95683660D01*
X114889240Y-95679582D01*
X114902139Y-95675893D01*
X114915271Y-95672593D01*
X114928637Y-95669681D01*
X114942235Y-95667157D01*
X114956066Y-95665021D01*
X114970130Y-95663273D01*
X114984427Y-95661914D01*
X114998957Y-95660944D01*
X115013720Y-95660361D01*
X115028716Y-95660167D01*
X115338489Y-95660167D01*
X115353613Y-95660361D01*
G37*
G36*
X115001043Y-95202090D02*
G01*
X115730475Y-94993066D01*
X115730475Y-94827836D01*
X115001043Y-94618545D01*
X115730475Y-94478032D01*
X115730475Y-94266053D01*
X114637000Y-94517794D01*
X114637000Y-94712041D01*
X115401089Y-94906018D01*
X114637000Y-95108862D01*
X114637000Y-95302840D01*
X115730475Y-95554849D01*
X115730475Y-95342871D01*
X115001043Y-95202090D01*
G37*
G36*
X114637000Y-94130914D02*
G01*
X115730475Y-94130914D01*
X115730475Y-93924846D01*
X114637000Y-93924846D01*
X114637000Y-94130914D01*
G37*
G36*
X114637000Y-94056493D02*
G01*
X114835545Y-94056493D01*
X114835545Y-93398527D01*
X114637000Y-93398527D01*
X114637000Y-94056493D01*
G37*
G36*
X115080569Y-94056493D02*
G01*
X115279114Y-94056493D01*
X115279114Y-93481277D01*
X115080569Y-93481277D01*
X115080569Y-94056493D01*
G37*
G36*
X115531930Y-94056493D02*
G01*
X115730475Y-94056493D01*
X115730475Y-93398527D01*
X115531930Y-93398527D01*
X115531930Y-94056493D01*
G37*
G36*
X115076808Y-93129054D02*
G01*
X115275353Y-93129054D01*
X115275353Y-92748621D01*
X115275903Y-92736896D01*
X115277552Y-92725768D01*
X115280302Y-92715235D01*
X115285286Y-92702908D01*
X115291988Y-92691512D01*
X115300409Y-92681047D01*
X115308383Y-92673346D01*
X115310548Y-92671514D01*
X115319767Y-92664701D01*
X115329691Y-92658769D01*
X115340320Y-92653719D01*
X115351654Y-92649550D01*
X115363694Y-92646263D01*
X115376439Y-92643858D01*
X115389889Y-92642334D01*
X115404044Y-92641692D01*
X115418132Y-92642145D01*
X115431515Y-92643505D01*
X115444193Y-92645772D01*
X115456166Y-92648946D01*
X115467433Y-92653026D01*
X115477995Y-92658013D01*
X115487852Y-92663907D01*
X115497003Y-92670708D01*
X115505315Y-92678272D01*
X115512519Y-92686458D01*
X115519965Y-92697565D01*
X115525679Y-92709641D01*
X115529004Y-92720002D01*
X115531220Y-92730984D01*
X115532329Y-92742587D01*
X115532467Y-92748621D01*
X115532467Y-93129054D01*
X115731012Y-93129054D01*
X115731012Y-92731964D01*
X115730854Y-92720702D01*
X115730378Y-92709618D01*
X115729586Y-92698713D01*
X115728477Y-92687986D01*
X115726218Y-92672231D01*
X115723247Y-92656877D01*
X115719562Y-92641924D01*
X115715165Y-92627373D01*
X115710054Y-92613223D01*
X115704230Y-92599474D01*
X115697693Y-92586127D01*
X115690443Y-92573182D01*
X115682544Y-92560656D01*
X115674059Y-92548668D01*
X115664988Y-92537219D01*
X115655332Y-92526308D01*
X115645090Y-92515935D01*
X115634263Y-92506101D01*
X115622849Y-92496805D01*
X115610851Y-92488048D01*
X115598266Y-92479829D01*
X115585096Y-92472148D01*
X115575991Y-92467327D01*
X115561971Y-92460605D01*
X115547517Y-92454544D01*
X115532628Y-92449145D01*
X115517304Y-92444406D01*
X115506847Y-92441615D01*
X115496197Y-92439117D01*
X115485354Y-92436913D01*
X115474317Y-92435003D01*
X115463088Y-92433387D01*
X115451665Y-92432064D01*
X115440050Y-92431036D01*
X115428241Y-92430301D01*
X115416239Y-92429860D01*
X115404044Y-92429713D01*
X115391817Y-92429862D01*
X115379784Y-92430309D01*
X115367947Y-92431055D01*
X115356305Y-92432098D01*
X115344859Y-92433439D01*
X115333607Y-92435078D01*
X115322551Y-92437016D01*
X115311690Y-92439251D01*
X115301024Y-92441785D01*
X115290553Y-92444616D01*
X115275213Y-92449422D01*
X115260312Y-92454899D01*
X115245851Y-92461046D01*
X115231829Y-92467864D01*
X115218314Y-92475229D01*
X115205375Y-92483118D01*
X115193013Y-92491532D01*
X115181227Y-92500469D01*
X115170017Y-92509931D01*
X115159383Y-92519917D01*
X115149325Y-92530428D01*
X115139844Y-92541462D01*
X115130938Y-92553021D01*
X115122609Y-92565104D01*
X115117376Y-92573450D01*
X115110126Y-92586348D01*
X115103589Y-92599652D01*
X115097765Y-92613362D01*
X115092655Y-92627478D01*
X115088257Y-92642000D01*
X115084573Y-92656928D01*
X115081601Y-92672263D01*
X115079343Y-92688003D01*
X115078234Y-92698723D01*
X115077441Y-92709623D01*
X115076966Y-92720703D01*
X115076808Y-92731964D01*
X115076808Y-93129054D01*
G37*
G36*
X114637000Y-93210997D02*
G01*
X115731012Y-93210997D01*
X115731012Y-93004930D01*
X114637000Y-93004930D01*
X114637000Y-93210997D01*
G37*
G36*
X114637000Y-92633632D02*
G01*
X115110660Y-92899075D01*
X115145318Y-92678768D01*
X114637000Y-92383771D01*
X114637000Y-92633632D01*
G37*
G36*
X114737000Y-114579637D02*
G01*
X115830475Y-114579637D01*
X115830475Y-114373569D01*
X114737000Y-114373569D01*
X114737000Y-114579637D01*
G37*
G36*
X114737000Y-114488021D02*
G01*
X114935545Y-114488021D01*
X114935545Y-113847250D01*
X114737000Y-113847250D01*
X114737000Y-114488021D01*
G37*
G36*
X114737000Y-113697334D02*
G01*
X115830475Y-113697334D01*
X115830475Y-113491266D01*
X114737000Y-113491266D01*
X114737000Y-113697334D01*
G37*
G36*
X114737000Y-113622913D02*
G01*
X114935545Y-113622913D01*
X114935545Y-112964947D01*
X114737000Y-112964947D01*
X114737000Y-113622913D01*
G37*
G36*
X115180569Y-113622913D02*
G01*
X115379114Y-113622913D01*
X115379114Y-113047697D01*
X115180569Y-113047697D01*
X115180569Y-113622913D01*
G37*
G36*
X115631930Y-113622913D02*
G01*
X115830475Y-113622913D01*
X115830475Y-112964947D01*
X115631930Y-112964947D01*
X115631930Y-113622913D01*
G37*
G36*
X114737000Y-112673712D02*
G01*
X114935545Y-112673712D01*
X114935545Y-112411224D01*
X114935737Y-112398709D01*
X114936313Y-112386553D01*
X114937273Y-112374756D01*
X114938617Y-112363317D01*
X114940346Y-112352238D01*
X114942458Y-112341518D01*
X114946348Y-112326110D01*
X114951101Y-112311510D01*
X114956719Y-112297717D01*
X114963200Y-112284732D01*
X114970547Y-112272555D01*
X114978757Y-112261185D01*
X114984711Y-112254054D01*
X114994324Y-112244115D01*
X115004628Y-112235154D01*
X115015620Y-112227170D01*
X115027303Y-112220164D01*
X115039675Y-112214136D01*
X115052736Y-112209085D01*
X115066487Y-112205011D01*
X115080927Y-112201916D01*
X115096057Y-112199798D01*
X115111876Y-112198657D01*
X115122806Y-112198440D01*
X115444669Y-112198440D01*
X115455694Y-112198657D01*
X115471636Y-112199798D01*
X115486866Y-112201916D01*
X115501383Y-112205011D01*
X115515187Y-112209085D01*
X115528277Y-112214136D01*
X115540654Y-112220164D01*
X115552318Y-112227170D01*
X115563270Y-112235154D01*
X115573507Y-112244115D01*
X115583032Y-112254054D01*
X115591771Y-112264885D01*
X115599650Y-112276524D01*
X115606669Y-112288971D01*
X115612829Y-112302225D01*
X115618130Y-112316287D01*
X115622570Y-112331156D01*
X115626152Y-112346833D01*
X115628062Y-112357733D01*
X115629590Y-112368992D01*
X115630736Y-112380610D01*
X115631500Y-112392586D01*
X115631882Y-112404922D01*
X115631930Y-112411224D01*
X115631930Y-112673712D01*
X115830475Y-112673712D01*
X115830475Y-112415792D01*
X115830374Y-112403004D01*
X115830073Y-112390399D01*
X115829570Y-112377978D01*
X115828867Y-112365740D01*
X115827963Y-112353685D01*
X115826857Y-112341813D01*
X115825551Y-112330124D01*
X115824044Y-112318618D01*
X115822335Y-112307295D01*
X115820426Y-112296156D01*
X115818316Y-112285200D01*
X115816004Y-112274426D01*
X115813492Y-112263836D01*
X115810779Y-112253429D01*
X115804750Y-112233165D01*
X115797917Y-112213633D01*
X115790280Y-112194834D01*
X115781839Y-112176767D01*
X115772594Y-112159433D01*
X115762545Y-112142831D01*
X115751692Y-112126962D01*
X115740036Y-112111825D01*
X115727575Y-112097421D01*
X115714419Y-112083789D01*
X115700608Y-112071037D01*
X115686142Y-112059164D01*
X115671021Y-112048171D01*
X115655245Y-112038057D01*
X115638814Y-112028823D01*
X115621729Y-112020468D01*
X115603988Y-112012992D01*
X115585593Y-112006396D01*
X115566543Y-112000680D01*
X115546838Y-111995843D01*
X115526478Y-111991885D01*
X115505463Y-111988807D01*
X115494710Y-111987598D01*
X115483793Y-111986608D01*
X115472713Y-111985839D01*
X115461469Y-111985289D01*
X115450061Y-111984959D01*
X115438489Y-111984849D01*
X115128716Y-111984849D01*
X115114251Y-111985037D01*
X115100007Y-111985601D01*
X115085982Y-111986540D01*
X115072179Y-111987855D01*
X115058595Y-111989546D01*
X115045232Y-111991612D01*
X115032089Y-111994054D01*
X115019167Y-111996872D01*
X115006465Y-112000066D01*
X114993984Y-112003635D01*
X114981723Y-112007580D01*
X114969682Y-112011901D01*
X114957862Y-112016597D01*
X114946262Y-112021669D01*
X114934882Y-112027117D01*
X114923723Y-112032941D01*
X114912859Y-112039139D01*
X114902297Y-112045711D01*
X114892037Y-112052656D01*
X114882080Y-112059976D01*
X114872425Y-112067668D01*
X114863072Y-112075735D01*
X114854021Y-112084174D01*
X114845272Y-112092988D01*
X114836826Y-112102175D01*
X114828682Y-112111736D01*
X114820840Y-112121670D01*
X114813301Y-112131978D01*
X114806064Y-112142660D01*
X114799129Y-112153715D01*
X114792496Y-112165144D01*
X114786166Y-112176946D01*
X114780212Y-112189123D01*
X114774642Y-112201672D01*
X114769457Y-112214596D01*
X114764655Y-112227892D01*
X114760238Y-112241563D01*
X114756205Y-112255607D01*
X114752556Y-112270025D01*
X114749291Y-112284816D01*
X114746410Y-112299981D01*
X114743913Y-112315520D01*
X114741801Y-112331432D01*
X114740072Y-112347718D01*
X114738728Y-112364377D01*
X114737768Y-112381411D01*
X114737192Y-112398817D01*
X114737000Y-112416598D01*
X114737000Y-112673712D01*
G37*
G36*
X114737000Y-112777418D02*
G01*
X115830475Y-112777418D01*
X115830475Y-112571350D01*
X114737000Y-112571350D01*
X114737000Y-112777418D01*
G37*
G36*
X114737000Y-111393782D02*
G01*
X114922648Y-111393782D01*
X115415921Y-111018454D01*
X115426294Y-111010760D01*
X115436759Y-111003630D01*
X115447315Y-110997064D01*
X115457964Y-110991062D01*
X115468704Y-110985625D01*
X115479536Y-110980751D01*
X115483894Y-110978960D01*
X115494768Y-110974935D01*
X115505393Y-110971592D01*
X115517813Y-110968482D01*
X115529875Y-110966353D01*
X115541578Y-110965207D01*
X115549180Y-110964989D01*
X115550524Y-110964989D01*
X115561291Y-110965438D01*
X115573865Y-110967263D01*
X115585456Y-110970491D01*
X115596062Y-110975124D01*
X115605684Y-110981159D01*
X115614323Y-110988599D01*
X115619034Y-110993736D01*
X115626000Y-111003226D01*
X115631785Y-111013897D01*
X115636389Y-111025748D01*
X115639813Y-111038780D01*
X115641702Y-111050056D01*
X115642836Y-111062087D01*
X115643214Y-111074874D01*
X115642689Y-111087212D01*
X115641115Y-111098970D01*
X115638491Y-111110149D01*
X115634818Y-111120749D01*
X115630095Y-111130769D01*
X115624323Y-111140210D01*
X115617501Y-111149072D01*
X115609630Y-111157355D01*
X115600857Y-111164894D01*
X115591193Y-111171661D01*
X115580639Y-111177656D01*
X115569196Y-111182878D01*
X115556862Y-111187328D01*
X115543639Y-111191005D01*
X115529526Y-111193910D01*
X115518356Y-111195582D01*
X115514522Y-111196043D01*
X115513716Y-111196043D01*
X115513716Y-111407215D01*
X115514522Y-111407215D01*
X115533694Y-111405599D01*
X115552320Y-111403370D01*
X115570401Y-111400528D01*
X115587935Y-111397073D01*
X115604924Y-111393005D01*
X115621368Y-111388324D01*
X115637265Y-111383031D01*
X115652617Y-111377124D01*
X115667423Y-111370605D01*
X115681684Y-111363473D01*
X115695398Y-111355728D01*
X115708567Y-111347370D01*
X115721190Y-111338399D01*
X115733268Y-111328815D01*
X115744799Y-111318618D01*
X115755785Y-111307808D01*
X115766164Y-111296452D01*
X115775872Y-111284682D01*
X115784912Y-111272499D01*
X115793281Y-111259902D01*
X115800981Y-111246891D01*
X115808012Y-111233467D01*
X115814373Y-111219630D01*
X115820064Y-111205379D01*
X115825086Y-111190715D01*
X115829438Y-111175637D01*
X115833120Y-111160145D01*
X115836134Y-111144240D01*
X115838477Y-111127922D01*
X115840151Y-111111190D01*
X115841155Y-111094045D01*
X115841490Y-111076486D01*
X115841199Y-111057481D01*
X115840327Y-111039019D01*
X115838874Y-111021102D01*
X115836839Y-111003727D01*
X115834222Y-110986897D01*
X115831025Y-110970610D01*
X115827245Y-110954867D01*
X115822885Y-110939667D01*
X115817943Y-110925011D01*
X115812419Y-110910899D01*
X115806315Y-110897330D01*
X115799628Y-110884305D01*
X115792361Y-110871823D01*
X115784512Y-110859886D01*
X115776081Y-110848491D01*
X115767069Y-110837641D01*
X115757526Y-110827393D01*
X115747503Y-110817806D01*
X115736999Y-110808880D01*
X115726014Y-110800615D01*
X115714548Y-110793012D01*
X115702602Y-110786069D01*
X115690175Y-110779788D01*
X115677267Y-110774168D01*
X115663879Y-110769209D01*
X115650010Y-110764912D01*
X115635661Y-110761275D01*
X115620830Y-110758300D01*
X115605520Y-110755986D01*
X115589728Y-110754333D01*
X115573456Y-110753341D01*
X115556703Y-110753011D01*
X115555897Y-110753011D01*
X115541952Y-110753240D01*
X115528027Y-110753927D01*
X115514120Y-110755072D01*
X115500232Y-110756675D01*
X115486364Y-110758737D01*
X115472514Y-110761256D01*
X115458682Y-110764234D01*
X115444870Y-110767670D01*
X115431077Y-110771564D01*
X115417302Y-110775916D01*
X115408130Y-110779071D01*
X115394500Y-110784092D01*
X115381116Y-110789480D01*
X115367978Y-110795237D01*
X115355085Y-110801362D01*
X115342438Y-110807856D01*
X115330036Y-110814718D01*
X115317880Y-110821948D01*
X115305969Y-110829547D01*
X115294304Y-110837514D01*
X115282885Y-110845850D01*
X115275408Y-110851612D01*
X114935545Y-111120816D01*
X114935545Y-110747100D01*
X114737000Y-110747100D01*
X114737000Y-111393782D01*
G37*
G36*
X192938000Y-118215045D02*
G01*
X191844524Y-118633091D01*
X191844524Y-118763932D01*
X192938000Y-119181978D01*
X192938000Y-118960327D01*
X192191374Y-118698646D01*
X192938000Y-118436964D01*
X192938000Y-118215045D01*
G37*
G36*
X192762829Y-118415739D02*
G01*
X192564284Y-118415739D01*
X192564284Y-118990956D01*
X192762829Y-118990956D01*
X192762829Y-118415739D01*
G37*
G36*
X192938000Y-119420286D02*
G01*
X192739454Y-119420286D01*
X192739454Y-119682773D01*
X192739262Y-119695288D01*
X192738686Y-119707445D01*
X192737726Y-119719242D01*
X192736382Y-119730680D01*
X192734653Y-119741759D01*
X192732541Y-119752480D01*
X192728651Y-119767888D01*
X192723898Y-119782488D01*
X192718280Y-119796280D01*
X192711799Y-119809265D01*
X192704452Y-119821443D01*
X192696242Y-119832812D01*
X192690288Y-119839944D01*
X192680675Y-119849883D01*
X192670371Y-119858844D01*
X192659379Y-119866827D01*
X192647696Y-119873834D01*
X192635324Y-119879862D01*
X192622263Y-119884913D01*
X192608512Y-119888986D01*
X192594072Y-119892082D01*
X192578942Y-119894200D01*
X192563123Y-119895341D01*
X192552193Y-119895558D01*
X192230330Y-119895558D01*
X192219305Y-119895341D01*
X192203363Y-119894200D01*
X192188133Y-119892082D01*
X192173616Y-119888986D01*
X192159812Y-119884913D01*
X192146722Y-119879862D01*
X192134345Y-119873834D01*
X192122681Y-119866827D01*
X192111729Y-119858844D01*
X192101492Y-119849883D01*
X192091967Y-119839944D01*
X192083228Y-119829112D01*
X192075349Y-119817473D01*
X192068330Y-119805027D01*
X192062170Y-119791772D01*
X192056869Y-119777711D01*
X192052429Y-119762841D01*
X192048847Y-119747165D01*
X192046937Y-119736265D01*
X192045409Y-119725006D01*
X192044263Y-119713388D01*
X192043499Y-119701411D01*
X192043117Y-119689076D01*
X192043069Y-119682773D01*
X192043069Y-119420286D01*
X191844524Y-119420286D01*
X191844524Y-119678206D01*
X191844625Y-119690994D01*
X191844926Y-119703598D01*
X191845429Y-119716020D01*
X191846132Y-119728258D01*
X191847036Y-119740313D01*
X191848142Y-119752185D01*
X191849448Y-119763874D01*
X191850955Y-119775380D01*
X191852664Y-119786702D01*
X191854573Y-119797842D01*
X191856683Y-119808798D01*
X191858995Y-119819571D01*
X191861507Y-119830161D01*
X191864220Y-119840568D01*
X191870249Y-119860833D01*
X191877082Y-119880364D01*
X191884719Y-119899164D01*
X191893160Y-119917231D01*
X191902405Y-119934565D01*
X191912454Y-119951167D01*
X191923307Y-119967036D01*
X191934963Y-119982172D01*
X191947424Y-119996577D01*
X191960580Y-120010208D01*
X191974391Y-120022961D01*
X191988857Y-120034833D01*
X192003978Y-120045827D01*
X192019754Y-120055941D01*
X192036185Y-120065175D01*
X192053270Y-120073530D01*
X192071011Y-120081005D01*
X192089406Y-120087601D01*
X192108456Y-120093318D01*
X192128161Y-120098155D01*
X192148521Y-120102112D01*
X192169536Y-120105191D01*
X192180289Y-120106400D01*
X192191206Y-120107389D01*
X192202286Y-120108159D01*
X192213530Y-120108708D01*
X192224938Y-120109038D01*
X192236510Y-120109148D01*
X192546283Y-120109148D01*
X192560748Y-120108960D01*
X192574992Y-120108397D01*
X192589017Y-120107457D01*
X192602820Y-120106142D01*
X192616404Y-120104452D01*
X192629767Y-120102385D01*
X192642910Y-120099943D01*
X192655832Y-120097125D01*
X192668534Y-120093932D01*
X192681015Y-120090362D01*
X192693276Y-120086417D01*
X192705317Y-120082097D01*
X192717137Y-120077400D01*
X192728737Y-120072328D01*
X192740117Y-120066880D01*
X192751276Y-120061057D01*
X192762140Y-120054858D01*
X192772702Y-120048287D01*
X192782962Y-120041341D01*
X192792919Y-120034022D01*
X192802574Y-120026329D01*
X192811927Y-120018263D01*
X192820978Y-120009823D01*
X192829727Y-120001010D01*
X192838173Y-119991822D01*
X192846317Y-119982262D01*
X192854159Y-119972327D01*
X192861698Y-119962019D01*
X192868935Y-119951338D01*
X192875870Y-119940282D01*
X192882503Y-119928854D01*
X192888833Y-119917051D01*
X192894787Y-119904875D01*
X192900357Y-119892325D01*
X192905542Y-119879402D01*
X192910344Y-119866105D01*
X192914761Y-119852435D01*
X192918794Y-119838390D01*
X192922443Y-119823973D01*
X192925708Y-119809181D01*
X192928589Y-119794016D01*
X192931086Y-119778478D01*
X192933198Y-119762565D01*
X192934927Y-119746280D01*
X192936271Y-119729620D01*
X192937231Y-119712587D01*
X192937807Y-119695180D01*
X192938000Y-119677400D01*
X192938000Y-119420286D01*
G37*
G36*
X192938000Y-119316580D02*
G01*
X191844524Y-119316580D01*
X191844524Y-119522648D01*
X192938000Y-119522648D01*
X192938000Y-119316580D01*
G37*
G36*
X192949284Y-120669588D02*
G01*
X192949098Y-120654049D01*
X192948540Y-120638800D01*
X192947612Y-120623841D01*
X192946311Y-120609171D01*
X192944640Y-120594791D01*
X192942596Y-120580701D01*
X192940181Y-120566900D01*
X192937395Y-120553389D01*
X192934237Y-120540168D01*
X192930708Y-120527236D01*
X192926807Y-120514594D01*
X192922534Y-120502242D01*
X192917890Y-120490179D01*
X192912875Y-120478406D01*
X192907488Y-120466923D01*
X192901729Y-120455729D01*
X192895582Y-120444842D01*
X192889094Y-120434282D01*
X192882266Y-120424046D01*
X192875098Y-120414136D01*
X192867590Y-120404551D01*
X192859742Y-120395291D01*
X192851554Y-120386357D01*
X192843026Y-120377748D01*
X192834158Y-120369465D01*
X192824949Y-120361506D01*
X192815401Y-120353873D01*
X192805513Y-120346566D01*
X192795285Y-120339584D01*
X192784717Y-120332927D01*
X192773808Y-120326595D01*
X192762560Y-120320589D01*
X192750961Y-120314961D01*
X192739068Y-120309696D01*
X192726882Y-120304793D01*
X192714401Y-120300254D01*
X192701627Y-120296079D01*
X192688559Y-120292266D01*
X192675197Y-120288816D01*
X192661541Y-120285730D01*
X192647591Y-120283006D01*
X192633348Y-120280646D01*
X192618810Y-120278649D01*
X192603979Y-120277015D01*
X192588854Y-120275744D01*
X192573435Y-120274836D01*
X192557722Y-120274291D01*
X192541715Y-120274110D01*
X192241614Y-120274110D01*
X192225513Y-120274291D01*
X192209718Y-120274836D01*
X192194230Y-120275744D01*
X192179048Y-120277015D01*
X192164173Y-120278649D01*
X192149604Y-120280646D01*
X192135342Y-120283006D01*
X192121386Y-120285730D01*
X192107736Y-120288816D01*
X192094393Y-120292266D01*
X192081356Y-120296079D01*
X192068626Y-120300254D01*
X192056202Y-120304793D01*
X192044085Y-120309696D01*
X192032274Y-120314961D01*
X192020770Y-120320589D01*
X192009553Y-120326595D01*
X191998672Y-120332927D01*
X191988127Y-120339584D01*
X191977918Y-120346566D01*
X191968044Y-120353873D01*
X191958506Y-120361506D01*
X191949304Y-120369465D01*
X191940438Y-120377748D01*
X191931908Y-120386357D01*
X191923714Y-120395291D01*
X191915855Y-120404551D01*
X191908333Y-120414136D01*
X191901146Y-120424046D01*
X191894295Y-120434282D01*
X191887780Y-120444842D01*
X191881600Y-120455729D01*
X191875777Y-120466923D01*
X191870329Y-120478406D01*
X191865257Y-120490179D01*
X191860560Y-120502242D01*
X191856240Y-120514594D01*
X191852295Y-120527236D01*
X191848725Y-120540168D01*
X191845532Y-120553389D01*
X191842714Y-120566900D01*
X191840272Y-120580701D01*
X191838205Y-120594791D01*
X191836515Y-120609171D01*
X191835200Y-120623841D01*
X191834260Y-120638800D01*
X191833697Y-120654049D01*
X191833509Y-120669588D01*
X191833682Y-120682462D01*
X191834202Y-120695157D01*
X191835067Y-120707674D01*
X191836280Y-120720013D01*
X191837838Y-120732174D01*
X191839743Y-120744155D01*
X191841994Y-120755959D01*
X191844591Y-120767584D01*
X191847535Y-120779031D01*
X191850825Y-120790299D01*
X191854462Y-120801389D01*
X191858445Y-120812300D01*
X191862774Y-120823033D01*
X191867449Y-120833588D01*
X191872471Y-120843964D01*
X191877839Y-120854162D01*
X191883537Y-120864162D01*
X191889547Y-120873943D01*
X191895870Y-120883506D01*
X191902506Y-120892850D01*
X191909455Y-120901976D01*
X191916716Y-120910884D01*
X191924290Y-120919574D01*
X191932177Y-120928046D01*
X191940377Y-120936299D01*
X191948889Y-120944334D01*
X191957714Y-120952150D01*
X191966852Y-120959748D01*
X191976302Y-120967128D01*
X191986066Y-120974290D01*
X191996142Y-120981233D01*
X192006531Y-120987958D01*
X192017184Y-120994479D01*
X192028120Y-121000741D01*
X192039340Y-121006745D01*
X192050844Y-121012491D01*
X192062631Y-121017979D01*
X192074701Y-121023208D01*
X192087054Y-121028180D01*
X192099691Y-121032893D01*
X192112611Y-121037348D01*
X192125815Y-121041545D01*
X192139301Y-121045484D01*
X192153072Y-121049164D01*
X192167125Y-121052586D01*
X192181462Y-121055751D01*
X192196083Y-121058657D01*
X192210986Y-121061304D01*
X192210986Y-120847714D01*
X192197486Y-120844549D01*
X192184523Y-120840964D01*
X192172097Y-120836959D01*
X192160208Y-120832534D01*
X192148857Y-120827690D01*
X192138043Y-120822426D01*
X192127767Y-120816742D01*
X192118027Y-120810638D01*
X192108830Y-120804161D01*
X192100178Y-120797356D01*
X192092072Y-120790224D01*
X192082706Y-120780848D01*
X192074194Y-120770960D01*
X192066534Y-120760561D01*
X192059727Y-120749651D01*
X192053844Y-120738274D01*
X192048959Y-120726478D01*
X192045071Y-120714262D01*
X192042179Y-120701626D01*
X192040285Y-120688571D01*
X192039487Y-120677824D01*
X192039308Y-120669588D01*
X192039775Y-120653707D01*
X192041178Y-120638506D01*
X192043516Y-120623986D01*
X192046789Y-120610145D01*
X192050997Y-120596985D01*
X192056140Y-120584504D01*
X192062218Y-120572704D01*
X192069231Y-120561584D01*
X192077179Y-120551143D01*
X192086062Y-120541383D01*
X192092504Y-120535254D01*
X192102808Y-120526756D01*
X192113873Y-120519093D01*
X192125697Y-120512267D01*
X192138282Y-120506276D01*
X192151628Y-120501121D01*
X192165734Y-120496802D01*
X192180600Y-120493319D01*
X192196226Y-120490672D01*
X192207066Y-120489372D01*
X192218244Y-120488443D01*
X192229760Y-120487886D01*
X192241614Y-120487700D01*
X192541715Y-120487700D01*
X192553568Y-120487886D01*
X192565081Y-120488443D01*
X192576254Y-120489372D01*
X192587087Y-120490672D01*
X192602698Y-120493319D01*
X192617545Y-120496802D01*
X192631626Y-120501121D01*
X192644942Y-120506276D01*
X192657494Y-120512267D01*
X192669280Y-120519093D01*
X192680301Y-120526756D01*
X192690557Y-120535254D01*
X192699968Y-120544561D01*
X192708453Y-120554548D01*
X192716012Y-120565215D01*
X192722646Y-120576562D01*
X192728354Y-120588589D01*
X192733137Y-120601296D01*
X192736993Y-120614683D01*
X192739925Y-120628750D01*
X192741930Y-120643498D01*
X192743010Y-120658925D01*
X192743216Y-120669588D01*
X192742824Y-120682096D01*
X192741648Y-120694231D01*
X192739688Y-120705992D01*
X192736944Y-120717381D01*
X192733416Y-120728397D01*
X192729105Y-120739039D01*
X192724009Y-120749309D01*
X192718129Y-120759205D01*
X192711465Y-120768728D01*
X192704018Y-120777878D01*
X192698617Y-120783771D01*
X192689879Y-120792277D01*
X192680488Y-120800263D01*
X192670446Y-120807729D01*
X192659753Y-120814676D01*
X192648407Y-120821104D01*
X192636410Y-120827012D01*
X192623761Y-120832401D01*
X192610461Y-120837270D01*
X192596508Y-120841619D01*
X192581904Y-120845449D01*
X192571806Y-120847714D01*
X192571806Y-121061304D01*
X192586614Y-121058559D01*
X192601150Y-121055562D01*
X192615412Y-121052313D01*
X192629402Y-121048811D01*
X192643118Y-121045058D01*
X192656562Y-121041054D01*
X192669733Y-121036797D01*
X192682631Y-121032288D01*
X192695257Y-121027528D01*
X192707609Y-121022516D01*
X192719689Y-121017251D01*
X192731495Y-121011735D01*
X192743029Y-121005967D01*
X192754290Y-120999948D01*
X192765278Y-120993676D01*
X192775993Y-120987152D01*
X192786415Y-120980428D01*
X192796521Y-120973488D01*
X192806313Y-120966332D01*
X192815790Y-120958959D01*
X192824952Y-120951370D01*
X192833799Y-120943565D01*
X192842331Y-120935544D01*
X192850548Y-120927307D01*
X192858451Y-120918853D01*
X192866039Y-120910183D01*
X192873312Y-120901297D01*
X192880270Y-120892195D01*
X192886913Y-120882877D01*
X192893241Y-120873342D01*
X192899255Y-120863592D01*
X192904953Y-120853625D01*
X192910322Y-120843492D01*
X192915343Y-120833177D01*
X192920019Y-120822679D01*
X192924348Y-120811998D01*
X192928331Y-120801135D01*
X192931967Y-120790089D01*
X192935257Y-120778861D01*
X192938201Y-120767450D01*
X192940798Y-120755856D01*
X192943050Y-120744080D01*
X192944954Y-120732121D01*
X192946513Y-120719980D01*
X192947725Y-120707656D01*
X192948591Y-120695149D01*
X192949110Y-120682460D01*
X192949284Y-120669588D01*
G37*
G36*
X192938000Y-121622281D02*
G01*
X192752351Y-121622281D01*
X192259078Y-121997609D01*
X192248705Y-122005303D01*
X192238240Y-122012433D01*
X192227684Y-122018999D01*
X192217035Y-122025001D01*
X192206295Y-122030438D01*
X192195463Y-122035312D01*
X192191105Y-122037103D01*
X192180231Y-122041128D01*
X192169606Y-122044471D01*
X192157186Y-122047581D01*
X192145124Y-122049710D01*
X192133421Y-122050856D01*
X192125819Y-122051074D01*
X192124475Y-122051074D01*
X192113708Y-122050625D01*
X192101134Y-122048800D01*
X192089543Y-122045572D01*
X192078937Y-122040940D01*
X192069315Y-122034904D01*
X192060676Y-122027464D01*
X192055965Y-122022327D01*
X192048999Y-122012837D01*
X192043214Y-122002166D01*
X192038610Y-121990315D01*
X192035186Y-121977283D01*
X192033297Y-121966007D01*
X192032163Y-121953976D01*
X192031785Y-121941189D01*
X192032310Y-121928852D01*
X192033884Y-121917093D01*
X192036508Y-121905914D01*
X192040181Y-121895314D01*
X192044904Y-121885294D01*
X192050676Y-121875853D01*
X192057498Y-121866991D01*
X192065369Y-121858709D01*
X192074142Y-121851169D01*
X192083806Y-121844402D01*
X192094360Y-121838407D01*
X192105803Y-121833185D01*
X192118137Y-121828735D01*
X192131360Y-121825058D01*
X192145473Y-121822153D01*
X192156643Y-121820481D01*
X192160477Y-121820020D01*
X192161283Y-121820020D01*
X192161283Y-121608848D01*
X192160477Y-121608848D01*
X192141305Y-121610464D01*
X192122679Y-121612693D01*
X192104598Y-121615535D01*
X192087064Y-121618990D01*
X192070075Y-121623058D01*
X192053631Y-121627739D01*
X192037734Y-121633032D01*
X192022382Y-121638939D01*
X192007576Y-121645458D01*
X191993315Y-121652590D01*
X191979601Y-121660336D01*
X191966432Y-121668694D01*
X191953809Y-121677665D01*
X191941731Y-121687248D01*
X191930200Y-121697445D01*
X191919214Y-121708255D01*
X191908835Y-121719611D01*
X191899127Y-121731381D01*
X191890087Y-121743565D01*
X191881718Y-121756162D01*
X191874018Y-121769172D01*
X191866987Y-121782596D01*
X191860626Y-121796433D01*
X191854935Y-121810684D01*
X191849913Y-121825349D01*
X191845561Y-121840427D01*
X191841879Y-121855918D01*
X191838865Y-121871823D01*
X191836522Y-121888141D01*
X191834848Y-121904873D01*
X191833844Y-121922018D01*
X191833509Y-121939577D01*
X191833800Y-121958582D01*
X191834672Y-121977044D01*
X191836125Y-121994962D01*
X191838160Y-122012336D01*
X191840777Y-122029166D01*
X191843974Y-122045453D01*
X191847754Y-122061196D01*
X191852114Y-122076396D01*
X191857056Y-122091052D01*
X191862580Y-122105164D01*
X191868684Y-122118733D01*
X191875371Y-122131758D01*
X191882638Y-122144240D01*
X191890487Y-122156178D01*
X191898918Y-122167572D01*
X191907930Y-122178422D01*
X191917473Y-122188671D01*
X191927496Y-122198258D01*
X191938000Y-122207183D01*
X191948985Y-122215448D01*
X191960451Y-122223052D01*
X191972397Y-122229994D01*
X191984824Y-122236275D01*
X191997732Y-122241895D01*
X192011120Y-122246854D01*
X192024989Y-122251151D01*
X192039338Y-122254788D01*
X192054169Y-122257763D01*
X192069479Y-122260077D01*
X192085271Y-122261730D01*
X192101543Y-122262722D01*
X192118296Y-122263053D01*
X192119102Y-122263053D01*
X192133047Y-122262823D01*
X192146972Y-122262136D01*
X192160879Y-122260991D01*
X192174767Y-122259388D01*
X192188635Y-122257326D01*
X192202485Y-122254807D01*
X192216317Y-122251829D01*
X192230129Y-122248393D01*
X192243922Y-122244500D01*
X192257697Y-122240148D01*
X192266869Y-122236992D01*
X192280499Y-122231972D01*
X192293883Y-122226583D01*
X192307021Y-122220826D01*
X192319914Y-122214701D01*
X192332561Y-122208207D01*
X192344963Y-122201345D01*
X192357119Y-122194115D01*
X192369030Y-122186516D01*
X192380695Y-122178549D01*
X192392114Y-122170213D01*
X192399591Y-122164452D01*
X192739454Y-121895247D01*
X192739454Y-122268963D01*
X192938000Y-122268963D01*
X192938000Y-121622281D01*
G37*
%LPC*%
D12*
X122350000Y-111500000D03*
D13*
X122350000Y-114000000D03*
D14*
X134551561Y-100401561D03*
D15*
X132755510Y-98605510D03*
D16*
X185450000Y-109400000D03*
D17*
X185450000Y-106900000D03*
X185450000Y-104400000D03*
D18*
X185450000Y-96100000D03*
D13*
X185450000Y-93600000D03*
D16*
X185450000Y-122900000D03*
D17*
X185450000Y-120400000D03*
X185450000Y-117900000D03*
D19*
X138425000Y-127100000D03*
D20*
X140925000Y-127100000D03*
D21*
X117510000Y-81500000D03*
D22*
X120050000Y-81500000D03*
X122590000Y-81500000D03*
X125130000Y-81500000D03*
D21*
X187875000Y-83225000D03*
D22*
X187875000Y-85765000D03*
X185335000Y-83225000D03*
X185335000Y-85765000D03*
X182795000Y-83225000D03*
X182795000Y-85765000D03*
D12*
X122350000Y-102500000D03*
D13*
X122350000Y-105000000D03*
D21*
X117450000Y-88500000D03*
D22*
X119990000Y-88500000D03*
X122530000Y-88500000D03*
X125070000Y-88500000D03*
D12*
X122325000Y-120500000D03*
D13*
X122325000Y-123000000D03*
D19*
X166725000Y-127100000D03*
D20*
X169225000Y-127100000D03*
D12*
X122350000Y-93600000D03*
D13*
X122350000Y-96100000D03*
D19*
X157325000Y-127100000D03*
D20*
X159825000Y-127100000D03*
D19*
X147825000Y-127100000D03*
D20*
X150325000Y-127100000D03*
%LPD*%
M02*
