%TF.GenerationSoftware,KiCad,Pcbnew,9.0.2*%
%TF.CreationDate,2025-07-25T15:12:23+08:00*%
%TF.ProjectId,tsal_r_v3,7473616c-5f72-45f7-9633-2e6b69636164,rev?*%
%TF.SameCoordinates,Original*%
%TF.FileFunction,Copper,L1,Top*%
%TF.FilePolarity,Positive*%
%FSLAX46Y46*%
G04 Gerber Fmt 4.6, Leading zero omitted, Abs format (unit mm)*
G04 Created by KiCad (PCBNEW 9.0.2) date 2025-07-25 15:12:23*
%MOMM*%
%LPD*%
G01*
G04 APERTURE LIST*
G04 Aperture macros list*
%AMRoundRect*
0 Rectangle with rounded corners*
0 $1 Rounding radius*
0 $2 $3 $4 $5 $6 $7 $8 $9 X,Y pos of 4 corners*
0 Add a 4 corners polygon primitive as box body*
4,1,4,$2,$3,$4,$5,$6,$7,$8,$9,$2,$3,0*
0 Add four circle primitives for the rounded corners*
1,1,$1+$1,$2,$3*
1,1,$1+$1,$4,$5*
1,1,$1+$1,$6,$7*
1,1,$1+$1,$8,$9*
0 Add four rect primitives between the rounded corners*
20,1,$1+$1,$2,$3,$4,$5,0*
20,1,$1+$1,$4,$5,$6,$7,0*
20,1,$1+$1,$6,$7,$8,$9,0*
20,1,$1+$1,$8,$9,$2,$3,0*%
%AMOutline5P*
0 Free polygon, 5 corners , with rotation*
0 The origin of the aperture is its center*
0 number of corners: always 5*
0 $1 to $10 corner X, Y*
0 $11 Rotation angle, in degrees counterclockwise*
0 create outline with 5 corners*
4,1,5,$1,$2,$3,$4,$5,$6,$7,$8,$9,$10,$1,$2,$11*%
%AMOutline6P*
0 Free polygon, 6 corners , with rotation*
0 The origin of the aperture is its center*
0 number of corners: always 6*
0 $1 to $12 corner X, Y*
0 $13 Rotation angle, in degrees counterclockwise*
0 create outline with 6 corners*
4,1,6,$1,$2,$3,$4,$5,$6,$7,$8,$9,$10,$11,$12,$1,$2,$13*%
%AMOutline7P*
0 Free polygon, 7 corners , with rotation*
0 The origin of the aperture is its center*
0 number of corners: always 7*
0 $1 to $14 corner X, Y*
0 $15 Rotation angle, in degrees counterclockwise*
0 create outline with 7 corners*
4,1,7,$1,$2,$3,$4,$5,$6,$7,$8,$9,$10,$11,$12,$13,$14,$1,$2,$15*%
%AMOutline8P*
0 Free polygon, 8 corners , with rotation*
0 The origin of the aperture is its center*
0 number of corners: always 8*
0 $1 to $16 corner X, Y*
0 $17 Rotation angle, in degrees counterclockwise*
0 create outline with 8 corners*
4,1,8,$1,$2,$3,$4,$5,$6,$7,$8,$9,$10,$11,$12,$13,$14,$15,$16,$1,$2,$17*%
G04 Aperture macros list end*
%TA.AperFunction,ComponentPad*%
%ADD10R,1.500000X1.500000*%
%TD*%
%TA.AperFunction,ComponentPad*%
%ADD11C,1.500000*%
%TD*%
%TA.AperFunction,SMDPad,CuDef*%
%ADD12RoundRect,0.305575X0.460025X0.412525X-0.460025X0.412525X-0.460025X-0.412525X0.460025X-0.412525X0*%
%TD*%
%TA.AperFunction,SMDPad,CuDef*%
%ADD13RoundRect,0.308511X0.457089X0.416489X-0.457089X0.416489X-0.457089X-0.416489X0.457089X-0.416489X0*%
%TD*%
%TA.AperFunction,ComponentPad*%
%ADD14RoundRect,0.250001X0.759999X-0.499999X0.759999X0.499999X-0.759999X0.499999X-0.759999X-0.499999X0*%
%TD*%
%TA.AperFunction,ComponentPad*%
%ADD15O,2.020000X1.500000*%
%TD*%
%TA.AperFunction,SMDPad,CuDef*%
%ADD16RoundRect,0.278125X-0.389375X0.474375X-0.389375X-0.474375X0.389375X-0.474375X0.389375X0.474375X0*%
%TD*%
%TA.AperFunction,ComponentPad*%
%ADD17RoundRect,0.250001X-0.759999X0.499999X-0.759999X-0.499999X0.759999X-0.499999X0.759999X0.499999X0*%
%TD*%
%TA.AperFunction,SMDPad,CuDef*%
%ADD18RoundRect,0.150000X0.150000X-1.350000X0.150000X1.350000X-0.150000X1.350000X-0.150000X-1.350000X0*%
%TD*%
%TA.AperFunction,SMDPad,CuDef*%
%ADD19RoundRect,0.150000X0.150000X-1.337500X0.150000X1.337500X-0.150000X1.337500X-0.150000X-1.337500X0*%
%TD*%
%TA.AperFunction,SMDPad,CuDef*%
%ADD20RoundRect,0.305575X0.412525X-0.460025X0.412525X0.460025X-0.412525X0.460025X-0.412525X-0.460025X0*%
%TD*%
%TA.AperFunction,SMDPad,CuDef*%
%ADD21RoundRect,0.308511X0.416489X-0.457089X0.416489X0.457089X-0.416489X0.457089X-0.416489X-0.457089X0*%
%TD*%
%TA.AperFunction,SMDPad,CuDef*%
%ADD22RoundRect,0.251116X3.376384X-2.561384X3.376384X2.561384X-3.376384X2.561384X-3.376384X-2.561384X0*%
%TD*%
%TA.AperFunction,SMDPad,CuDef*%
%ADD23RoundRect,0.305575X-0.460025X-0.412525X0.460025X-0.412525X0.460025X0.412525X-0.460025X0.412525X0*%
%TD*%
%TA.AperFunction,SMDPad,CuDef*%
%ADD24RoundRect,0.308511X-0.457089X-0.416489X0.457089X-0.416489X0.457089X0.416489X-0.457089X0.416489X0*%
%TD*%
%TA.AperFunction,SMDPad,CuDef*%
%ADD25RoundRect,0.305575X-0.412525X0.460025X-0.412525X-0.460025X0.412525X-0.460025X0.412525X0.460025X0*%
%TD*%
%TA.AperFunction,SMDPad,CuDef*%
%ADD26RoundRect,0.308511X-0.416489X0.457089X-0.416489X-0.457089X0.416489X-0.457089X0.416489X0.457089X0*%
%TD*%
%TA.AperFunction,SMDPad,CuDef*%
%ADD27RoundRect,0.150000X-1.350000X-0.150000X1.350000X-0.150000X1.350000X0.150000X-1.350000X0.150000X0*%
%TD*%
%TA.AperFunction,SMDPad,CuDef*%
%ADD28RoundRect,0.150000X-1.337500X-0.150000X1.337500X-0.150000X1.337500X0.150000X-1.337500X0.150000X0*%
%TD*%
%TA.AperFunction,SMDPad,CuDef*%
%ADD29RoundRect,0.250001X1.074999X-0.462499X1.074999X0.462499X-1.074999X0.462499X-1.074999X-0.462499X0*%
%TD*%
%TA.AperFunction,SMDPad,CuDef*%
%ADD30RoundRect,0.150000X0.750000X0.150000X-0.750000X0.150000X-0.750000X-0.150000X0.750000X-0.150000X0*%
%TD*%
%TA.AperFunction,SMDPad,CuDef*%
%ADD31RoundRect,0.278125X0.389375X-0.474375X0.389375X0.474375X-0.389375X0.474375X-0.389375X-0.474375X0*%
%TD*%
%TA.AperFunction,ComponentPad*%
%ADD32RoundRect,0.250000X-0.550000X0.550000X-0.550000X-0.550000X0.550000X-0.550000X0.550000X0.550000X0*%
%TD*%
%TA.AperFunction,ComponentPad*%
%ADD33C,1.600000*%
%TD*%
%TA.AperFunction,SMDPad,CuDef*%
%ADD34RoundRect,0.278125X-0.474375X-0.389375X0.474375X-0.389375X0.474375X0.389375X-0.474375X0.389375X0*%
%TD*%
%TA.AperFunction,SMDPad,CuDef*%
%ADD35RoundRect,0.150000X-0.750000X-0.150000X0.750000X-0.150000X0.750000X0.150000X-0.750000X0.150000X0*%
%TD*%
%TA.AperFunction,SMDPad,CuDef*%
%ADD36RoundRect,0.278125X0.474375X0.389375X-0.474375X0.389375X-0.474375X-0.389375X0.474375X-0.389375X0*%
%TD*%
%TA.AperFunction,SMDPad,CuDef*%
%ADD37RoundRect,0.250000X-1.230000X-0.350000X1.230000X-0.350000X1.230000X0.350000X-1.230000X0.350000X0*%
%TD*%
%TA.AperFunction,SMDPad,CuDef*%
%ADD38Outline6P,-5.220000X2.900000X4.060000X2.900000X5.220000X1.740000X5.220000X-1.740000X4.060000X-2.900000X-5.220000X-2.900000X0.000000*%
%TD*%
%TA.AperFunction,SMDPad,CuDef*%
%ADD39RoundRect,0.250000X-1.500000X-0.650000X1.500000X-0.650000X1.500000X0.650000X-1.500000X0.650000X0*%
%TD*%
%TA.AperFunction,SMDPad,CuDef*%
%ADD40RoundRect,0.150000X0.150000X-0.750000X0.150000X0.750000X-0.150000X0.750000X-0.150000X-0.750000X0*%
%TD*%
%TA.AperFunction,SMDPad,CuDef*%
%ADD41RoundRect,0.249999X-0.750001X-0.640001X0.750001X-0.640001X0.750001X0.640001X-0.750001X0.640001X0*%
%TD*%
%TA.AperFunction,SMDPad,CuDef*%
%ADD42RoundRect,0.304348X-0.395652X0.420652X-0.395652X-0.420652X0.395652X-0.420652X0.395652X0.420652X0*%
%TD*%
%TA.AperFunction,ViaPad*%
%ADD43C,0.700000*%
%TD*%
%TA.AperFunction,Conductor*%
%ADD44C,0.500000*%
%TD*%
%TA.AperFunction,Conductor*%
%ADD45C,0.300000*%
%TD*%
%TA.AperFunction,Conductor*%
%ADD46C,1.200000*%
%TD*%
G04 APERTURE END LIST*
D10*
%TO.P,U3,1,+Vin*%
%TO.N,VCC*%
X79540000Y-113750000D03*
D11*
%TO.P,U3,2,-Vin*%
%TO.N,GLV-*%
X77000000Y-113750000D03*
%TO.P,U3,4,-Vout*%
%TO.N,GND*%
X69380000Y-113750000D03*
%TO.P,U3,6,+Vout*%
%TO.N,+12V*%
X64300000Y-113750000D03*
%TD*%
D12*
%TO.P,C3,1*%
%TO.N,+12V*%
X57000000Y-94730000D03*
D13*
%TO.P,C3,2*%
%TO.N,GND*%
X54568800Y-94723100D03*
%TD*%
D14*
%TO.P,J2,1,Pin_1*%
%TO.N,GND*%
X25000000Y-110000000D03*
D15*
%TO.P,J2,2,Pin_2*%
X25000000Y-107000000D03*
%TD*%
D16*
%TO.P,R9,1*%
%TO.N,Net-(R8-Pad1)*%
X29739603Y-119347500D03*
%TO.P,R9,2*%
%TO.N,GND*%
X29739603Y-121652500D03*
%TD*%
%TO.P,R11,1*%
%TO.N,Net-(LM1--)*%
X50532500Y-103195000D03*
%TO.P,R11,2*%
%TO.N,/Vref*%
X50532500Y-105500000D03*
%TD*%
%TO.P,R16,1*%
%TO.N,Net-(U2-DIS)*%
X83750000Y-89695000D03*
%TO.P,R16,2*%
%TO.N,VCC*%
X83750000Y-92000000D03*
%TD*%
D17*
%TO.P,J3,1,Pin_1*%
%TO.N,GLV+*%
X105000000Y-90000000D03*
D15*
%TO.P,J3,2,Pin_2*%
%TO.N,GLV-*%
X105000000Y-93000000D03*
%TD*%
D18*
%TO.P,U2,1,GND*%
%TO.N,GLV-*%
X86595000Y-99500000D03*
%TO.P,U2,2,TR*%
%TO.N,Net-(U2-THR)*%
X87865000Y-99500000D03*
D19*
%TO.P,U2,3,Q*%
%TO.N,Net-(U2-Q)*%
X89000000Y-99512500D03*
D18*
%TO.P,U2,4,R*%
%TO.N,Net-(U2-R)*%
X90405000Y-99500000D03*
%TO.P,U2,5,CV*%
%TO.N,Net-(U2-CV)*%
X90405000Y-93500000D03*
%TO.P,U2,6,THR*%
%TO.N,Net-(U2-THR)*%
X89135000Y-93500000D03*
%TO.P,U2,7,DIS*%
%TO.N,Net-(U2-DIS)*%
X87865000Y-93500000D03*
%TO.P,U2,8,VCC*%
%TO.N,VCC*%
X86595000Y-93500000D03*
%TD*%
D20*
%TO.P,C9,1*%
%TO.N,GND*%
X55708700Y-113715600D03*
D21*
%TO.P,C9,2*%
%TO.N,+12V*%
X55715600Y-111284400D03*
%TD*%
D22*
%TO.P,F1,1*%
%TO.N,Net-(F1-Pad1)*%
X31600000Y-91800000D03*
%TO.P,F1,2*%
%TO.N,Net-(J1-Pin_1)*%
X31600000Y-81250000D03*
%TD*%
D14*
%TO.P,J1,1,Pin_1*%
%TO.N,Net-(J1-Pin_1)*%
X25000000Y-93000000D03*
D15*
%TO.P,J1,2,Pin_2*%
X25000000Y-90000000D03*
%TD*%
D20*
%TO.P,C4,1*%
%TO.N,GND*%
X58444600Y-113681200D03*
D21*
%TO.P,C4,2*%
%TO.N,+12V*%
X58451500Y-111250000D03*
%TD*%
D23*
%TO.P,C8,1*%
%TO.N,GLV-*%
X86818800Y-103743100D03*
D24*
%TO.P,C8,2*%
%TO.N,Net-(U2-THR)*%
X89250000Y-103750000D03*
%TD*%
D25*
%TO.P,C5,1*%
%TO.N,GLV-*%
X86506900Y-111284400D03*
D26*
%TO.P,C5,2*%
%TO.N,VCC*%
X86500000Y-113715600D03*
%TD*%
D27*
%TO.P,LM1,1,GND*%
%TO.N,GND*%
X54750000Y-97460000D03*
%TO.P,LM1,2,+*%
%TO.N,Net-(LM1-+)*%
X54750000Y-98730000D03*
D28*
%TO.P,LM1,3,-*%
%TO.N,Net-(LM1--)*%
X54737500Y-99865000D03*
D27*
%TO.P,LM1,4,V-*%
%TO.N,GND*%
X54750000Y-101270000D03*
%TO.P,LM1,5,BAL*%
%TO.N,Net-(LM1-BAL)*%
X60750000Y-101270000D03*
%TO.P,LM1,6,STRB*%
X60750000Y-100000000D03*
%TO.P,LM1,7*%
%TO.N,Net-(LM1-Pad7)*%
X60750000Y-98730000D03*
%TO.P,LM1,8,V+*%
%TO.N,+12V*%
X60750000Y-97460000D03*
%TD*%
D25*
%TO.P,C2,1*%
%TO.N,Net-(LM1-+)*%
X50506900Y-98088800D03*
D26*
%TO.P,C2,2*%
%TO.N,Net-(LM1--)*%
X50500000Y-100520000D03*
%TD*%
D29*
%TO.P,F2,1*%
%TO.N,GLV+*%
X98750000Y-89737500D03*
%TO.P,F2,2*%
%TO.N,Net-(D2-A)*%
X98750000Y-86762500D03*
%TD*%
D25*
%TO.P,C6,1*%
%TO.N,GLV-*%
X80750000Y-89631900D03*
D26*
%TO.P,C6,2*%
%TO.N,VCC*%
X80743100Y-92063100D03*
%TD*%
D12*
%TO.P,C1,1*%
%TO.N,/Vref*%
X48215600Y-109006900D03*
D13*
%TO.P,C1,2*%
%TO.N,GND*%
X45784400Y-109000000D03*
%TD*%
D30*
%TO.P,U1,1,REF*%
%TO.N,Net-(U1-REF)*%
X48100000Y-113450000D03*
%TO.P,U1,2,K*%
%TO.N,/Vref*%
X48100000Y-111550000D03*
%TO.P,U1,3,A*%
%TO.N,GND*%
X45900000Y-112500000D03*
%TD*%
D16*
%TO.P,R1,1*%
%TO.N,/Vref*%
X53032500Y-108347500D03*
%TO.P,R1,2*%
%TO.N,Net-(U1-REF)*%
X53032500Y-110652500D03*
%TD*%
%TO.P,R12,1*%
%TO.N,/Vin*%
X65032500Y-97097500D03*
%TO.P,R12,2*%
%TO.N,Net-(LM1-Pad7)*%
X65032500Y-99402500D03*
%TD*%
%TO.P,R5,1*%
%TO.N,Net-(R3-Pad2)*%
X29760000Y-99132500D03*
%TO.P,R5,2*%
%TO.N,Net-(R5-Pad2)*%
X29760000Y-101437500D03*
%TD*%
D31*
%TO.P,R10,1*%
%TO.N,Net-(LM1-+)*%
X50467500Y-95402500D03*
%TO.P,R10,2*%
%TO.N,/Vin*%
X50467500Y-93097500D03*
%TD*%
D32*
%TO.P,D1,1,K*%
%TO.N,/Vin*%
X47500000Y-93250000D03*
D33*
%TO.P,D1,2,A*%
%TO.N,GND*%
X47500000Y-100870000D03*
%TD*%
D34*
%TO.P,R4,1*%
%TO.N,/Vref*%
X53195000Y-105750000D03*
%TO.P,R4,2*%
%TO.N,+12V*%
X55500000Y-105750000D03*
%TD*%
D35*
%TO.P,U5,1,G*%
%TO.N,Net-(U2-Q)*%
X94050000Y-95550000D03*
%TO.P,U5,2,S*%
%TO.N,GLV-*%
X94050000Y-97450000D03*
%TO.P,U5,3,D*%
%TO.N,Net-(Q2-G)*%
X96250000Y-96500000D03*
%TD*%
D16*
%TO.P,R19,1*%
%TO.N,Net-(D3-K)*%
X98032500Y-100847500D03*
%TO.P,R19,2*%
%TO.N,GLV-*%
X98032500Y-103152500D03*
%TD*%
D36*
%TO.P,R15,1*%
%TO.N,Net-(U2-R)*%
X83250000Y-95532500D03*
%TO.P,R15,2*%
%TO.N,VCC*%
X80945000Y-95532500D03*
%TD*%
D37*
%TO.P,Q2,1,G*%
%TO.N,Net-(Q2-G)*%
X89580000Y-109292500D03*
D38*
%TO.P,Q2,2,S*%
%TO.N,/RED+*%
X97280000Y-111572500D03*
D37*
%TO.P,Q2,3,D*%
%TO.N,VCC*%
X89580000Y-113852500D03*
%TD*%
D39*
%TO.P,D2,1,K*%
%TO.N,VCC*%
X93750000Y-83250000D03*
%TO.P,D2,2,A*%
%TO.N,Net-(D2-A)*%
X98750000Y-83250000D03*
%TD*%
D36*
%TO.P,R17,1*%
%TO.N,Net-(U2-THR)*%
X89055000Y-89500000D03*
%TO.P,R17,2*%
%TO.N,Net-(U2-DIS)*%
X86750000Y-89500000D03*
%TD*%
D31*
%TO.P,R6,1*%
%TO.N,Net-(R6-Pad1)*%
X29695000Y-106447500D03*
%TO.P,R6,2*%
%TO.N,Net-(R5-Pad2)*%
X29695000Y-104142500D03*
%TD*%
D16*
%TO.P,R7,1*%
%TO.N,Net-(R6-Pad1)*%
X29737500Y-109142500D03*
%TO.P,R7,2*%
%TO.N,/Vin*%
X29737500Y-111447500D03*
%TD*%
D40*
%TO.P,U4,1,G*%
%TO.N,Net-(U4-G)*%
X82050000Y-100750000D03*
%TO.P,U4,2,S*%
%TO.N,GLV-*%
X83950000Y-100750000D03*
%TO.P,U4,3,D*%
%TO.N,Net-(U2-R)*%
X83000000Y-98550000D03*
%TD*%
D41*
%TO.P,U7,1*%
%TO.N,Net-(R13-Pad2)*%
X68485000Y-98230000D03*
%TO.P,U7,2*%
%TO.N,Net-(LM1-Pad7)*%
X68485000Y-100770000D03*
%TO.P,U7,3*%
%TO.N,Net-(U4-G)*%
X78015000Y-100770000D03*
%TO.P,U7,4*%
%TO.N,VCC*%
X78015000Y-98230000D03*
%TD*%
D16*
%TO.P,R20,1*%
%TO.N,VCC*%
X99400000Y-93895000D03*
%TO.P,R20,2*%
%TO.N,Net-(Q2-G)*%
X99400000Y-96200000D03*
%TD*%
D31*
%TO.P,R8,1*%
%TO.N,Net-(R8-Pad1)*%
X29672500Y-116350000D03*
%TO.P,R8,2*%
%TO.N,/Vin*%
X29672500Y-114045000D03*
%TD*%
D16*
%TO.P,R13,1*%
%TO.N,+12V*%
X68250000Y-92500000D03*
%TO.P,R13,2*%
%TO.N,Net-(R13-Pad2)*%
X68250000Y-94805000D03*
%TD*%
D36*
%TO.P,R3,1*%
%TO.N,Net-(F1-Pad1)*%
X32100000Y-96532500D03*
%TO.P,R3,2*%
%TO.N,Net-(R3-Pad2)*%
X29795000Y-96532500D03*
%TD*%
D25*
%TO.P,C7,1*%
%TO.N,GLV-*%
X91750000Y-87000000D03*
D26*
%TO.P,C7,2*%
%TO.N,Net-(U2-CV)*%
X91743100Y-89431200D03*
%TD*%
D34*
%TO.P,R14,1*%
%TO.N,Net-(U4-G)*%
X81445000Y-103717500D03*
%TO.P,R14,2*%
%TO.N,GLV-*%
X83750000Y-103717500D03*
%TD*%
D42*
%TO.P,D3,1,K*%
%TO.N,Net-(D3-K)*%
X100200000Y-100825000D03*
%TO.P,D3,2,A*%
%TO.N,/RED+*%
X100200000Y-103175000D03*
%TD*%
D17*
%TO.P,J4,1,Pin_1*%
%TO.N,/RED+*%
X105000000Y-107000000D03*
D15*
%TO.P,J4,2,Pin_2*%
%TO.N,GLV-*%
X105000000Y-110000000D03*
%TD*%
D25*
%TO.P,C10,1*%
%TO.N,GLV-*%
X84006900Y-111284400D03*
D26*
%TO.P,C10,2*%
%TO.N,VCC*%
X84000000Y-113715600D03*
%TD*%
D34*
%TO.P,R2,1*%
%TO.N,Net-(U1-REF)*%
X50847500Y-113467500D03*
%TO.P,R2,2*%
%TO.N,GND*%
X53152500Y-113467500D03*
%TD*%
D43*
%TO.N,+12V*%
X57000000Y-94730000D03*
X68250000Y-92500000D03*
X55500000Y-105750000D03*
%TO.N,VCC*%
X78015000Y-98230000D03*
%TO.N,GLV-*%
X87500000Y-77500000D03*
X87500000Y-117500000D03*
X102500000Y-82500000D03*
X97500000Y-122500000D03*
X97500000Y-117500000D03*
X87500000Y-122500000D03*
X92500000Y-122500000D03*
X92500000Y-77500000D03*
X82500000Y-85000000D03*
X95000000Y-105000000D03*
X77500000Y-117500000D03*
X97500000Y-77500000D03*
X110000000Y-100000000D03*
X102500000Y-122500000D03*
X87500000Y-85000000D03*
X102500000Y-77500000D03*
X92500000Y-117500000D03*
X82500000Y-117500000D03*
X77400000Y-82400000D03*
X102500000Y-117500000D03*
%TO.N,Net-(U2-R)*%
X83250000Y-95532500D03*
X90405000Y-99500000D03*
%TD*%
D44*
%TO.N,GND*%
X55950000Y-103750000D02*
X68000000Y-103750000D01*
X69360000Y-113730000D02*
X69380000Y-113750000D01*
X69380000Y-113750000D02*
X67130000Y-116000000D01*
D45*
X57500000Y-100480000D02*
X57500000Y-98230000D01*
D44*
X45900000Y-112500000D02*
X45900000Y-114900000D01*
X26200000Y-120200000D02*
X27652500Y-121652500D01*
X47500000Y-100870000D02*
X47500000Y-103000000D01*
X55708700Y-120891300D02*
X55708700Y-113715600D01*
X25000000Y-107000000D02*
X25000000Y-110000000D01*
X55460600Y-113467500D02*
X55708700Y-113715600D01*
X27652500Y-121652500D02*
X29739603Y-121652500D01*
D45*
X56750000Y-101230000D02*
X57500000Y-100480000D01*
D44*
X54750000Y-102550000D02*
X55950000Y-103750000D01*
X58410200Y-113715600D02*
X58444600Y-113681200D01*
X45900000Y-114900000D02*
X47000000Y-116000000D01*
D45*
X54568800Y-97278800D02*
X54750000Y-97460000D01*
X54790000Y-101230000D02*
X56750000Y-101230000D01*
D44*
X47000000Y-116000000D02*
X52000000Y-116000000D01*
X25000000Y-114000000D02*
X26200000Y-115200000D01*
X68000000Y-103750000D02*
X69360000Y-105110000D01*
X55674300Y-113750000D02*
X55708700Y-113715600D01*
X26200000Y-115200000D02*
X26200000Y-120200000D01*
X55708700Y-113715600D02*
X58410200Y-113715600D01*
X53152500Y-114847500D02*
X53152500Y-113467500D01*
X60431200Y-113681200D02*
X58444600Y-113681200D01*
X45784400Y-112384400D02*
X45900000Y-112500000D01*
X62750000Y-116000000D02*
X60431200Y-113681200D01*
D45*
X54750000Y-101270000D02*
X54790000Y-101230000D01*
D44*
X52000000Y-116000000D02*
X53152500Y-114847500D01*
X69360000Y-105110000D02*
X69360000Y-113730000D01*
X53152500Y-113467500D02*
X55460600Y-113467500D01*
X54750000Y-101270000D02*
X54750000Y-102550000D01*
D45*
X57500000Y-98230000D02*
X56730000Y-97460000D01*
D44*
X25000000Y-110000000D02*
X25000000Y-114000000D01*
D45*
X54568800Y-94723100D02*
X54568800Y-97278800D01*
D44*
X45784400Y-109000000D02*
X45784400Y-112384400D01*
X29739603Y-121652500D02*
X54947500Y-121652500D01*
X54947500Y-121652500D02*
X55708700Y-120891300D01*
X45784400Y-109000000D02*
X45784400Y-104715600D01*
X67130000Y-116000000D02*
X62750000Y-116000000D01*
D45*
X56730000Y-97460000D02*
X54750000Y-97460000D01*
D44*
X45784400Y-104715600D02*
X47500000Y-103000000D01*
%TO.N,/Vref*%
X48215600Y-109006900D02*
X49993100Y-109006900D01*
X53032500Y-108347500D02*
X50652500Y-108347500D01*
X48100000Y-111550000D02*
X48100000Y-109122500D01*
X53195000Y-105750000D02*
X50750000Y-105750000D01*
X50652500Y-108347500D02*
X49993100Y-109006900D01*
X53032500Y-108347500D02*
X53032500Y-105912500D01*
X53032500Y-105912500D02*
X53195000Y-105750000D01*
D45*
X50750000Y-105750000D02*
X50500000Y-105500000D01*
D44*
X48100000Y-109122500D02*
X48215600Y-109006900D01*
D45*
%TO.N,Net-(LM1--)*%
X52399400Y-99865000D02*
X51744400Y-100520000D01*
X54737500Y-99865000D02*
X52399400Y-99865000D01*
X51744400Y-100520000D02*
X50500000Y-100520000D01*
X50500000Y-103195000D02*
X50500000Y-100520000D01*
%TO.N,Net-(LM1-+)*%
X52284400Y-98730000D02*
X54750000Y-98730000D01*
X50506900Y-98088800D02*
X50506900Y-95441900D01*
X50506900Y-98088800D02*
X51643200Y-98088800D01*
X51643200Y-98088800D02*
X52284400Y-98730000D01*
X50506900Y-95441900D02*
X50467500Y-95402500D01*
D44*
%TO.N,+12V*%
X61800000Y-111250000D02*
X64300000Y-113750000D01*
X58417100Y-111284400D02*
X58451500Y-111250000D01*
X55715600Y-105965600D02*
X55500000Y-105750000D01*
D45*
X57000000Y-95980000D02*
X57000000Y-94730000D01*
D44*
X55715600Y-111284400D02*
X58417100Y-111284400D01*
X55715600Y-111284400D02*
X55715600Y-105965600D01*
X58451500Y-111250000D02*
X61800000Y-111250000D01*
D45*
X58480000Y-97460000D02*
X57000000Y-95980000D01*
X60750000Y-97460000D02*
X58480000Y-97460000D01*
D44*
%TO.N,VCC*%
X81347500Y-95532500D02*
X80850000Y-95035000D01*
X80850000Y-95035000D02*
X80850000Y-92170000D01*
X99400000Y-93895000D02*
X94895000Y-93895000D01*
X78015000Y-84785000D02*
X79550000Y-83250000D01*
X93800000Y-92800000D02*
X93800000Y-83300000D01*
X79574400Y-113715600D02*
X86500000Y-113715600D01*
X86500000Y-113715600D02*
X86636900Y-113852500D01*
X80945000Y-97555000D02*
X80270000Y-98230000D01*
X80270000Y-98230000D02*
X78015000Y-98230000D01*
X80850000Y-92170000D02*
X80743100Y-92063100D01*
X86595000Y-93500000D02*
X85750000Y-93500000D01*
X80945000Y-95532500D02*
X80945000Y-97555000D01*
X79550000Y-83250000D02*
X93750000Y-83250000D01*
X79540000Y-113750000D02*
X79574400Y-113715600D01*
X83750000Y-92000000D02*
X80806200Y-92000000D01*
X85750000Y-93500000D02*
X84250000Y-92000000D01*
X93800000Y-83300000D02*
X93750000Y-83250000D01*
X81347500Y-95532500D02*
X80950000Y-95135000D01*
X78015000Y-98230000D02*
X78015000Y-84785000D01*
X84250000Y-92000000D02*
X83750000Y-92000000D01*
X80806200Y-92000000D02*
X80743100Y-92063100D01*
X86636900Y-113852500D02*
X90800000Y-113852500D01*
X94895000Y-93895000D02*
X93800000Y-92800000D01*
%TO.N,GLV-*%
X84006900Y-111284400D02*
X86506900Y-111284400D01*
X77965600Y-111284400D02*
X84006900Y-111284400D01*
X77000000Y-113750000D02*
X77000000Y-117000000D01*
X77000000Y-112250000D02*
X77000000Y-113750000D01*
X77000000Y-117000000D02*
X77500000Y-117500000D01*
X77965600Y-111284400D02*
X77000000Y-112250000D01*
D45*
%TO.N,Net-(U2-CV)*%
X90405000Y-93500000D02*
X90405000Y-91345000D01*
X90405000Y-91345000D02*
X91743100Y-90006900D01*
X91743100Y-90006900D02*
X91743100Y-89431200D01*
%TO.N,Net-(U2-THR)*%
X89135000Y-93500000D02*
X89135000Y-89580000D01*
X89250000Y-102750000D02*
X89250000Y-103750000D01*
X89135000Y-89580000D02*
X89055000Y-89500000D01*
X87865000Y-99500000D02*
X87865000Y-101365000D01*
X87865000Y-96635000D02*
X87865000Y-99500000D01*
X87865000Y-101365000D02*
X89250000Y-102750000D01*
X89135000Y-93500000D02*
X89135000Y-95365000D01*
X89135000Y-95365000D02*
X87865000Y-96635000D01*
D44*
%TO.N,/Vin*%
X45000000Y-101500000D02*
X45000000Y-94500000D01*
D45*
X47652500Y-93097500D02*
X47500000Y-93250000D01*
D44*
X39000000Y-111500000D02*
X41500000Y-109000000D01*
X29737500Y-113980000D02*
X29672500Y-114045000D01*
X29737500Y-111447500D02*
X29790000Y-111500000D01*
X29737500Y-111447500D02*
X29737500Y-113980000D01*
X29790000Y-111500000D02*
X39000000Y-111500000D01*
X63500000Y-92750000D02*
X65032500Y-94282500D01*
X45000000Y-94500000D02*
X46250000Y-93250000D01*
X65032500Y-94282500D02*
X65032500Y-97097500D01*
X50467500Y-93097500D02*
X50815000Y-92750000D01*
X41500000Y-109000000D02*
X41500000Y-105000000D01*
X50815000Y-92750000D02*
X63500000Y-92750000D01*
X41500000Y-105000000D02*
X45000000Y-101500000D01*
X50467500Y-93097500D02*
X47652500Y-93097500D01*
X46250000Y-93250000D02*
X47500000Y-93250000D01*
%TO.N,GLV+*%
X99012500Y-90000000D02*
X98750000Y-89737500D01*
X105000000Y-90000000D02*
X99012500Y-90000000D01*
%TO.N,Net-(D3-K)*%
X100325000Y-101000000D02*
X98380000Y-101000000D01*
X98380000Y-101000000D02*
X98032500Y-101347500D01*
D46*
%TO.N,/RED+*%
X105000000Y-107000000D02*
X104000000Y-107000000D01*
X99427500Y-111572500D02*
X97280000Y-111572500D01*
D44*
X100200000Y-103175000D02*
X100200000Y-108652500D01*
X100200000Y-108652500D02*
X97280000Y-111572500D01*
D46*
X104000000Y-107000000D02*
X99427500Y-111572500D01*
D44*
%TO.N,Net-(F1-Pad1)*%
X32100000Y-96532500D02*
X32100000Y-92300000D01*
X32100000Y-92300000D02*
X31600000Y-91800000D01*
%TO.N,Net-(J1-Pin_1)*%
X25000000Y-87400000D02*
X25000000Y-90000000D01*
X31600000Y-85600000D02*
X30800000Y-86400000D01*
X26000000Y-86400000D02*
X25000000Y-87400000D01*
X31600000Y-81250000D02*
X31600000Y-85600000D01*
X25000000Y-93000000D02*
X25000000Y-90000000D01*
X30800000Y-86400000D02*
X26000000Y-86400000D01*
%TO.N,Net-(LM1-Pad7)*%
X66400000Y-100770000D02*
X65032500Y-99402500D01*
X65250000Y-99902500D02*
X64077500Y-98730000D01*
X68485000Y-100770000D02*
X66400000Y-100770000D01*
X64077500Y-98730000D02*
X60750000Y-98730000D01*
D45*
%TO.N,Net-(LM1-BAL)*%
X60750000Y-100000000D02*
X60750000Y-101270000D01*
D44*
%TO.N,Net-(Q2-G)*%
X92200000Y-106200000D02*
X93200000Y-105200000D01*
D45*
X99100000Y-96500000D02*
X99400000Y-96200000D01*
D44*
X87000000Y-107000000D02*
X87800000Y-106200000D01*
X94200000Y-99000000D02*
X98400000Y-99000000D01*
X87800000Y-106200000D02*
X92200000Y-106200000D01*
D45*
X96250000Y-96500000D02*
X99100000Y-96500000D01*
D44*
X87000000Y-108800000D02*
X87000000Y-107000000D01*
X99400000Y-98000000D02*
X99400000Y-96200000D01*
X93200000Y-100000000D02*
X94200000Y-99000000D01*
X89580000Y-109292500D02*
X87492500Y-109292500D01*
X87492500Y-109292500D02*
X87000000Y-108800000D01*
X98400000Y-99000000D02*
X99400000Y-98000000D01*
X93200000Y-105200000D02*
X93200000Y-100000000D01*
%TO.N,Net-(U1-REF)*%
X50847500Y-113467500D02*
X50847500Y-111652500D01*
X48100000Y-113450000D02*
X50830000Y-113450000D01*
X50830000Y-113450000D02*
X50847500Y-113467500D01*
X50847500Y-111652500D02*
X51847500Y-110652500D01*
X51847500Y-110652500D02*
X53032500Y-110652500D01*
%TO.N,Net-(R3-Pad2)*%
X29795000Y-96532500D02*
X29795000Y-99097500D01*
X29795000Y-99097500D02*
X29760000Y-99132500D01*
%TO.N,Net-(R5-Pad2)*%
X29760000Y-101437500D02*
X29760000Y-104077500D01*
X29760000Y-104077500D02*
X29695000Y-104142500D01*
%TO.N,Net-(R6-Pad1)*%
X29695000Y-106447500D02*
X29695000Y-109100000D01*
X29695000Y-109100000D02*
X29737500Y-109142500D01*
%TO.N,Net-(R8-Pad1)*%
X29591250Y-119045000D02*
X29591250Y-116431250D01*
X29591250Y-116431250D02*
X29672500Y-116350000D01*
%TO.N,Net-(R13-Pad2)*%
X68250000Y-97995000D02*
X68485000Y-98230000D01*
X68250000Y-94805000D02*
X68250000Y-97995000D01*
D45*
%TO.N,Net-(U4-G)*%
X82050000Y-100750000D02*
X78035000Y-100750000D01*
X82050000Y-100750000D02*
X82050000Y-103015000D01*
X78035000Y-100750000D02*
X78015000Y-100770000D01*
X82050000Y-103015000D02*
X81347500Y-103717500D01*
%TO.N,Net-(U2-R)*%
X83250000Y-95532500D02*
X83250000Y-95935000D01*
X83250000Y-95935000D02*
X83000000Y-96185000D01*
X83000000Y-96185000D02*
X83000000Y-98550000D01*
%TO.N,Net-(U2-DIS)*%
X87865000Y-90615000D02*
X87865000Y-93500000D01*
X86750000Y-89500000D02*
X83945000Y-89500000D01*
X86750000Y-89500000D02*
X87865000Y-90615000D01*
X83945000Y-89500000D02*
X83750000Y-89695000D01*
%TO.N,Net-(U2-Q)*%
X94050000Y-95550000D02*
X91200000Y-95550000D01*
X91200000Y-95550000D02*
X89000000Y-97750000D01*
X89000000Y-97750000D02*
X89000000Y-99512500D01*
D44*
%TO.N,Net-(D2-A)*%
X98750000Y-86762500D02*
X98750000Y-83250000D01*
%TD*%
%TA.AperFunction,Conductor*%
%TO.N,GLV-*%
G36*
X104843039Y-75020185D02*
G01*
X104888794Y-75072989D01*
X104900000Y-75124500D01*
X104900000Y-85100000D01*
X114875500Y-85100000D01*
X114942539Y-85119685D01*
X114988294Y-85172489D01*
X114999500Y-85224000D01*
X114999500Y-114776000D01*
X114979815Y-114843039D01*
X114927011Y-114888794D01*
X114875500Y-114900000D01*
X105000000Y-114900000D01*
X105000000Y-124875500D01*
X104980315Y-124942539D01*
X104927511Y-124988294D01*
X104876000Y-124999500D01*
X75374000Y-124999500D01*
X75306961Y-124979815D01*
X75261206Y-124927011D01*
X75250000Y-124875500D01*
X75250000Y-113651617D01*
X75750000Y-113651617D01*
X75750000Y-113848382D01*
X75780778Y-114042705D01*
X75841581Y-114229835D01*
X75930905Y-114405145D01*
X75956319Y-114440125D01*
X75956320Y-114440125D01*
X76517037Y-113879408D01*
X76534075Y-113942993D01*
X76599901Y-114057007D01*
X76692993Y-114150099D01*
X76807007Y-114215925D01*
X76870590Y-114232962D01*
X76309873Y-114793677D01*
X76309873Y-114793678D01*
X76344858Y-114819096D01*
X76520164Y-114908418D01*
X76707294Y-114969221D01*
X76901618Y-115000000D01*
X77098382Y-115000000D01*
X77292705Y-114969221D01*
X77479835Y-114908418D01*
X77655143Y-114819095D01*
X77690125Y-114793678D01*
X77690126Y-114793678D01*
X77129410Y-114232962D01*
X77192993Y-114215925D01*
X77307007Y-114150099D01*
X77400099Y-114057007D01*
X77465925Y-113942993D01*
X77482962Y-113879409D01*
X78043678Y-114440126D01*
X78043678Y-114440125D01*
X78069095Y-114405143D01*
X78158418Y-114229835D01*
X78219221Y-114042705D01*
X78250000Y-113848382D01*
X78250000Y-113651617D01*
X78219221Y-113457294D01*
X78158418Y-113270164D01*
X78069094Y-113094855D01*
X78043679Y-113059873D01*
X78043677Y-113059873D01*
X77482962Y-113620589D01*
X77465925Y-113557007D01*
X77400099Y-113442993D01*
X77307007Y-113349901D01*
X77192993Y-113284075D01*
X77129409Y-113267037D01*
X77421517Y-112974928D01*
X78535500Y-112974928D01*
X78535500Y-114525063D01*
X78550266Y-114599301D01*
X78606515Y-114683484D01*
X78632040Y-114700539D01*
X78690699Y-114739734D01*
X78690702Y-114739734D01*
X78690703Y-114739735D01*
X78715666Y-114744700D01*
X78764933Y-114754500D01*
X80315066Y-114754499D01*
X80389301Y-114739734D01*
X80473484Y-114683484D01*
X80529734Y-114599301D01*
X80544500Y-114525067D01*
X80544500Y-114344100D01*
X80564185Y-114277061D01*
X80616989Y-114231306D01*
X80668500Y-114220100D01*
X82913166Y-114220100D01*
X82980205Y-114239785D01*
X83025960Y-114292589D01*
X83032941Y-114312009D01*
X83034992Y-114319664D01*
X83091720Y-114456621D01*
X83091721Y-114456623D01*
X83091722Y-114456624D01*
X83181967Y-114574233D01*
X83299576Y-114664478D01*
X83436536Y-114721208D01*
X83546612Y-114735700D01*
X83546619Y-114735700D01*
X84453381Y-114735700D01*
X84453388Y-114735700D01*
X84563464Y-114721208D01*
X84700424Y-114664478D01*
X84818033Y-114574233D01*
X84908278Y-114456624D01*
X84965008Y-114319664D01*
X84965008Y-114319656D01*
X84967059Y-114312009D01*
X85003422Y-114252348D01*
X85066268Y-114221817D01*
X85086834Y-114220100D01*
X85413166Y-114220100D01*
X85480205Y-114239785D01*
X85525960Y-114292589D01*
X85532941Y-114312009D01*
X85534992Y-114319664D01*
X85591720Y-114456621D01*
X85591721Y-114456623D01*
X85591722Y-114456624D01*
X85681967Y-114574233D01*
X85799576Y-114664478D01*
X85936536Y-114721208D01*
X86046612Y-114735700D01*
X86046619Y-114735700D01*
X86953381Y-114735700D01*
X86953388Y-114735700D01*
X87063464Y-114721208D01*
X87200424Y-114664478D01*
X87318033Y-114574233D01*
X87408278Y-114456624D01*
X87417835Y-114433548D01*
X87461675Y-114379145D01*
X87527969Y-114357079D01*
X87532397Y-114357000D01*
X87783082Y-114357000D01*
X87850121Y-114376685D01*
X87895876Y-114429489D01*
X87899259Y-114437656D01*
X87902658Y-114446767D01*
X87910035Y-114456621D01*
X87989595Y-114562904D01*
X88038216Y-114599300D01*
X88105733Y-114649842D01*
X88241658Y-114700540D01*
X88301745Y-114707000D01*
X90858254Y-114706999D01*
X90918342Y-114700540D01*
X91054267Y-114649842D01*
X91170404Y-114562904D01*
X91257342Y-114446767D01*
X91308040Y-114310842D01*
X91314329Y-114252348D01*
X91314499Y-114250771D01*
X91314499Y-114250764D01*
X91314500Y-114250755D01*
X91314499Y-113454246D01*
X91308040Y-113394158D01*
X91283482Y-113328315D01*
X91257344Y-113258238D01*
X91257342Y-113258234D01*
X91257342Y-113258233D01*
X91197919Y-113178852D01*
X91170404Y-113142095D01*
X91093126Y-113084247D01*
X91054267Y-113055158D01*
X90918342Y-113004460D01*
X90918338Y-113004459D01*
X90858262Y-112998000D01*
X88301748Y-112998000D01*
X88301742Y-112998001D01*
X88241655Y-113004460D01*
X88105738Y-113055155D01*
X88105730Y-113055160D01*
X87989595Y-113142095D01*
X87902660Y-113258230D01*
X87902657Y-113258234D01*
X87899263Y-113267336D01*
X87885993Y-113285061D01*
X87876795Y-113305203D01*
X87865462Y-113312485D01*
X87857390Y-113323269D01*
X87836643Y-113331006D01*
X87818017Y-113342977D01*
X87796095Y-113346128D01*
X87791926Y-113347684D01*
X87783082Y-113348000D01*
X87603500Y-113348000D01*
X87536461Y-113328315D01*
X87490706Y-113275511D01*
X87479860Y-113225655D01*
X87479765Y-113225662D01*
X87479723Y-113225026D01*
X87479500Y-113224000D01*
X87479500Y-113221618D01*
X87479499Y-113221604D01*
X87469031Y-113142095D01*
X87465008Y-113111536D01*
X87417981Y-112998001D01*
X87408279Y-112974578D01*
X87408278Y-112974577D01*
X87408278Y-112974576D01*
X87318033Y-112856967D01*
X87200424Y-112766722D01*
X87200423Y-112766721D01*
X87200421Y-112766720D01*
X87150923Y-112746218D01*
X87096519Y-112702377D01*
X87074454Y-112636083D01*
X87091733Y-112568384D01*
X87142870Y-112520773D01*
X87157420Y-112514615D01*
X87271160Y-112474815D01*
X87424871Y-112378233D01*
X87553233Y-112249871D01*
X87649815Y-112096160D01*
X87649816Y-112096158D01*
X87709773Y-111924810D01*
X87724999Y-111789669D01*
X87725000Y-111789665D01*
X87725000Y-111534400D01*
X82788801Y-111534400D01*
X82788801Y-111789670D01*
X82804026Y-111924810D01*
X82804029Y-111924823D01*
X82863980Y-112096153D01*
X82863984Y-112096160D01*
X82960566Y-112249871D01*
X83088928Y-112378233D01*
X83242639Y-112474815D01*
X83242641Y-112474816D01*
X83348898Y-112511997D01*
X83405674Y-112552719D01*
X83431422Y-112617671D01*
X83417966Y-112686233D01*
X83369579Y-112736636D01*
X83355397Y-112743600D01*
X83299578Y-112766721D01*
X83299576Y-112766722D01*
X83234685Y-112816515D01*
X83181967Y-112856967D01*
X83091720Y-112974578D01*
X83034992Y-113111535D01*
X83032941Y-113119191D01*
X82996578Y-113178852D01*
X82933732Y-113209383D01*
X82913166Y-113211100D01*
X80668499Y-113211100D01*
X80601460Y-113191415D01*
X80555705Y-113138611D01*
X80544499Y-113087100D01*
X80544499Y-112974936D01*
X80544499Y-112974934D01*
X80529734Y-112900699D01*
X80500513Y-112856967D01*
X80473484Y-112816515D01*
X80423019Y-112782796D01*
X80389301Y-112760266D01*
X80389299Y-112760265D01*
X80389296Y-112760264D01*
X80315069Y-112745500D01*
X78764936Y-112745500D01*
X78690698Y-112760266D01*
X78606515Y-112816515D01*
X78550266Y-112900699D01*
X78550264Y-112900703D01*
X78535500Y-112974928D01*
X77421517Y-112974928D01*
X77690125Y-112706320D01*
X77690125Y-112706319D01*
X77655145Y-112680905D01*
X77479835Y-112591581D01*
X77292705Y-112530778D01*
X77098382Y-112500000D01*
X76901618Y-112500000D01*
X76707294Y-112530778D01*
X76520161Y-112591582D01*
X76344863Y-112680899D01*
X76344859Y-112680902D01*
X76309873Y-112706320D01*
X76309872Y-112706320D01*
X76870590Y-113267037D01*
X76807007Y-113284075D01*
X76692993Y-113349901D01*
X76599901Y-113442993D01*
X76534075Y-113557007D01*
X76517037Y-113620590D01*
X75956320Y-113059872D01*
X75956320Y-113059873D01*
X75930902Y-113094859D01*
X75930899Y-113094863D01*
X75841582Y-113270161D01*
X75780778Y-113457294D01*
X75750000Y-113651617D01*
X75250000Y-113651617D01*
X75250000Y-110779130D01*
X82788800Y-110779130D01*
X82788800Y-111034400D01*
X83756900Y-111034400D01*
X84256900Y-111034400D01*
X86256900Y-111034400D01*
X86756900Y-111034400D01*
X87724999Y-111034400D01*
X87724999Y-110779135D01*
X87724998Y-110779129D01*
X87709773Y-110643989D01*
X87709770Y-110643976D01*
X87649819Y-110472646D01*
X87649815Y-110472639D01*
X87553233Y-110318928D01*
X87424871Y-110190566D01*
X87271160Y-110093984D01*
X87271158Y-110093983D01*
X87099810Y-110034026D01*
X86964669Y-110018800D01*
X86756900Y-110018800D01*
X86756900Y-111034400D01*
X86256900Y-111034400D01*
X86256900Y-110018800D01*
X86049135Y-110018800D01*
X86049129Y-110018801D01*
X85913989Y-110034026D01*
X85913976Y-110034029D01*
X85742646Y-110093980D01*
X85742639Y-110093984D01*
X85588928Y-110190566D01*
X85460566Y-110318928D01*
X85361894Y-110475966D01*
X85309560Y-110522257D01*
X85240506Y-110532906D01*
X85176658Y-110504531D01*
X85151906Y-110475966D01*
X85053233Y-110318928D01*
X84924871Y-110190566D01*
X84771160Y-110093984D01*
X84771158Y-110093983D01*
X84599810Y-110034026D01*
X84464669Y-110018800D01*
X84256900Y-110018800D01*
X84256900Y-111034400D01*
X83756900Y-111034400D01*
X83756900Y-110018800D01*
X83549135Y-110018800D01*
X83549129Y-110018801D01*
X83413989Y-110034026D01*
X83413976Y-110034029D01*
X83242646Y-110093980D01*
X83242639Y-110093984D01*
X83088928Y-110190566D01*
X82960566Y-110318928D01*
X82863984Y-110472639D01*
X82863983Y-110472641D01*
X82804026Y-110643989D01*
X82788800Y-110779130D01*
X75250000Y-110779130D01*
X75250000Y-100081727D01*
X76760500Y-100081727D01*
X76760500Y-101458272D01*
X76766959Y-101518339D01*
X76766961Y-101518346D01*
X76817655Y-101654265D01*
X76817656Y-101654267D01*
X76817657Y-101654268D01*
X76904596Y-101770404D01*
X76967574Y-101817549D01*
X77020732Y-101857343D01*
X77020734Y-101857344D01*
X77047857Y-101867460D01*
X77156657Y-101908040D01*
X77173503Y-101909851D01*
X77216727Y-101914499D01*
X77216744Y-101914500D01*
X78813256Y-101914500D01*
X78813272Y-101914499D01*
X78850881Y-101910454D01*
X78873343Y-101908040D01*
X79009268Y-101857343D01*
X79125404Y-101770404D01*
X79212343Y-101654268D01*
X79263040Y-101518343D01*
X79265454Y-101495881D01*
X79269499Y-101458272D01*
X79269500Y-101458255D01*
X79269500Y-101278500D01*
X79289185Y-101211461D01*
X79341989Y-101165706D01*
X79393500Y-101154500D01*
X81371500Y-101154500D01*
X81438539Y-101174185D01*
X81484294Y-101226989D01*
X81495500Y-101278500D01*
X81495500Y-101531839D01*
X81510500Y-101626552D01*
X81529138Y-101663130D01*
X81568674Y-101740723D01*
X81568676Y-101740725D01*
X81568677Y-101740727D01*
X81609180Y-101781229D01*
X81642666Y-101842552D01*
X81645500Y-101868911D01*
X81645500Y-102671500D01*
X81625815Y-102738539D01*
X81573011Y-102784294D01*
X81521500Y-102795500D01*
X80928922Y-102795500D01*
X80867787Y-102802841D01*
X80843331Y-102805778D01*
X80707128Y-102859490D01*
X80707126Y-102859491D01*
X80590461Y-102947961D01*
X80501991Y-103064626D01*
X80501990Y-103064628D01*
X80448278Y-103200831D01*
X80448278Y-103200833D01*
X80438000Y-103286422D01*
X80438000Y-104148578D01*
X80444280Y-104200870D01*
X80448278Y-104234168D01*
X80501990Y-104370371D01*
X80501991Y-104370373D01*
X80501992Y-104370374D01*
X80590461Y-104487039D01*
X80697267Y-104568032D01*
X80707126Y-104575508D01*
X80707128Y-104575509D01*
X80756787Y-104595092D01*
X80843333Y-104629222D01*
X80928922Y-104639500D01*
X80928927Y-104639500D01*
X81961073Y-104639500D01*
X81961078Y-104639500D01*
X82046667Y-104629222D01*
X82182874Y-104575508D01*
X82299539Y-104487039D01*
X82354805Y-104414158D01*
X82410993Y-104372638D01*
X82480714Y-104368085D01*
X82541829Y-104401950D01*
X82566098Y-104440836D01*
X82567101Y-104440354D01*
X82570125Y-104446634D01*
X82663408Y-104595092D01*
X82663413Y-104595098D01*
X82787401Y-104719086D01*
X82787407Y-104719091D01*
X82935865Y-104812374D01*
X82935868Y-104812376D01*
X83101382Y-104870292D01*
X83231919Y-104884999D01*
X83231920Y-104885000D01*
X83500000Y-104885000D01*
X84000000Y-104885000D01*
X84268080Y-104885000D01*
X84268080Y-104884999D01*
X84398617Y-104870292D01*
X84564131Y-104812376D01*
X84564134Y-104812374D01*
X84712592Y-104719091D01*
X84712598Y-104719086D01*
X84836586Y-104595098D01*
X84836591Y-104595092D01*
X84929874Y-104446634D01*
X84929876Y-104446631D01*
X84987792Y-104281117D01*
X84996833Y-104200870D01*
X85553201Y-104200870D01*
X85568426Y-104336010D01*
X85568429Y-104336023D01*
X85628380Y-104507353D01*
X85628384Y-104507360D01*
X85724966Y-104661071D01*
X85853328Y-104789433D01*
X86007039Y-104886015D01*
X86007041Y-104886016D01*
X86178389Y-104945973D01*
X86313532Y-104961199D01*
X86568799Y-104961199D01*
X86568800Y-104961198D01*
X86568800Y-103993100D01*
X85553201Y-103993100D01*
X85553201Y-104200870D01*
X84996833Y-104200870D01*
X85002499Y-104150580D01*
X85002500Y-104150580D01*
X85002500Y-103967500D01*
X84000000Y-103967500D01*
X84000000Y-104885000D01*
X83500000Y-104885000D01*
X83500000Y-103467500D01*
X84000000Y-103467500D01*
X85002500Y-103467500D01*
X85002500Y-103285330D01*
X85553200Y-103285330D01*
X85553200Y-103493100D01*
X86568800Y-103493100D01*
X86568800Y-102525000D01*
X86313535Y-102525000D01*
X86313529Y-102525001D01*
X86178389Y-102540226D01*
X86178376Y-102540229D01*
X86007046Y-102600180D01*
X86007039Y-102600184D01*
X85853328Y-102696766D01*
X85724966Y-102825128D01*
X85628384Y-102978839D01*
X85628383Y-102978841D01*
X85568426Y-103150189D01*
X85553200Y-103285330D01*
X85002500Y-103285330D01*
X85002500Y-103284420D01*
X85002499Y-103284419D01*
X84987792Y-103153882D01*
X84929876Y-102988368D01*
X84929874Y-102988365D01*
X84836591Y-102839907D01*
X84836586Y-102839901D01*
X84712598Y-102715913D01*
X84712592Y-102715908D01*
X84564134Y-102622625D01*
X84564131Y-102622623D01*
X84398617Y-102564707D01*
X84268080Y-102550000D01*
X84000000Y-102550000D01*
X84000000Y-103467500D01*
X83500000Y-103467500D01*
X83500000Y-102550000D01*
X83231920Y-102550000D01*
X83101382Y-102564707D01*
X82935868Y-102622623D01*
X82935865Y-102622625D01*
X82787407Y-102715908D01*
X82787401Y-102715913D01*
X82666181Y-102837134D01*
X82604858Y-102870619D01*
X82535166Y-102865635D01*
X82479233Y-102823763D01*
X82454816Y-102758299D01*
X82454500Y-102749453D01*
X82454500Y-101868911D01*
X82474185Y-101801872D01*
X82490820Y-101781229D01*
X82531322Y-101740727D01*
X82531326Y-101740723D01*
X82589498Y-101626555D01*
X82589498Y-101626553D01*
X82589499Y-101626552D01*
X82599145Y-101565649D01*
X83150000Y-101565649D01*
X83152899Y-101602489D01*
X83152900Y-101602495D01*
X83198716Y-101760193D01*
X83198717Y-101760196D01*
X83282314Y-101901552D01*
X83282321Y-101901561D01*
X83398438Y-102017678D01*
X83398447Y-102017685D01*
X83539801Y-102101281D01*
X83697514Y-102147100D01*
X83697511Y-102147100D01*
X83699998Y-102147295D01*
X83700000Y-102147295D01*
X84200000Y-102147295D01*
X84200001Y-102147295D01*
X84202486Y-102147100D01*
X84360198Y-102101281D01*
X84501552Y-102017685D01*
X84501561Y-102017678D01*
X84617678Y-101901561D01*
X84617685Y-101901552D01*
X84701282Y-101760196D01*
X84701283Y-101760193D01*
X84747099Y-101602495D01*
X84747100Y-101602489D01*
X84749999Y-101565649D01*
X84750000Y-101565634D01*
X84750000Y-101000000D01*
X84200000Y-101000000D01*
X84200000Y-102147295D01*
X83700000Y-102147295D01*
X83700000Y-101000000D01*
X83150000Y-101000000D01*
X83150000Y-101565649D01*
X82599145Y-101565649D01*
X82604500Y-101531839D01*
X82604500Y-100915649D01*
X85795000Y-100915649D01*
X85797899Y-100952489D01*
X85797900Y-100952495D01*
X85843716Y-101110193D01*
X85843717Y-101110196D01*
X85927314Y-101251552D01*
X85927321Y-101251561D01*
X86043438Y-101367678D01*
X86043447Y-101367685D01*
X86184801Y-101451281D01*
X86342514Y-101497100D01*
X86342511Y-101497100D01*
X86344998Y-101497295D01*
X86345000Y-101497295D01*
X86345000Y-99750000D01*
X85795000Y-99750000D01*
X85795000Y-100915649D01*
X82604500Y-100915649D01*
X82604500Y-99968160D01*
X82589499Y-99873448D01*
X82589498Y-99873446D01*
X82589498Y-99873445D01*
X82586270Y-99867110D01*
X82573374Y-99798444D01*
X82599649Y-99733703D01*
X82656755Y-99693445D01*
X82716154Y-99688343D01*
X82723444Y-99689497D01*
X82723445Y-99689498D01*
X82744571Y-99692844D01*
X82818162Y-99704500D01*
X83043822Y-99704500D01*
X83110861Y-99724185D01*
X83156616Y-99776989D01*
X83166560Y-99846147D01*
X83162898Y-99863096D01*
X83152900Y-99897507D01*
X83152899Y-99897510D01*
X83150000Y-99934350D01*
X83150000Y-100500000D01*
X83700000Y-100500000D01*
X84200000Y-100500000D01*
X84750000Y-100500000D01*
X84750000Y-99934365D01*
X84749999Y-99934350D01*
X84747100Y-99897510D01*
X84747099Y-99897504D01*
X84701283Y-99739805D01*
X84701282Y-99739803D01*
X84617685Y-99598447D01*
X84617678Y-99598438D01*
X84501561Y-99482321D01*
X84501552Y-99482314D01*
X84360196Y-99398717D01*
X84360193Y-99398716D01*
X84202494Y-99352900D01*
X84202497Y-99352900D01*
X84200000Y-99352703D01*
X84200000Y-100500000D01*
X83700000Y-100500000D01*
X83700000Y-99377308D01*
X83625916Y-99342619D01*
X83601844Y-99321355D01*
X83576797Y-99301260D01*
X83575830Y-99298376D01*
X83573551Y-99296363D01*
X83564798Y-99265467D01*
X83554589Y-99235014D01*
X83554500Y-99230320D01*
X83554500Y-98084350D01*
X85795000Y-98084350D01*
X85795000Y-99250000D01*
X86345000Y-99250000D01*
X86345000Y-97502703D01*
X86342503Y-97502900D01*
X86184806Y-97548716D01*
X86184803Y-97548717D01*
X86043447Y-97632314D01*
X86043438Y-97632321D01*
X85927321Y-97748438D01*
X85927314Y-97748447D01*
X85843717Y-97889803D01*
X85843716Y-97889806D01*
X85797900Y-98047504D01*
X85797899Y-98047510D01*
X85795000Y-98084350D01*
X83554500Y-98084350D01*
X83554500Y-97768160D01*
X83539499Y-97673447D01*
X83529086Y-97653011D01*
X83481326Y-97559277D01*
X83481322Y-97559273D01*
X83481321Y-97559271D01*
X83440819Y-97518769D01*
X83407334Y-97457446D01*
X83404500Y-97431088D01*
X83404500Y-96578500D01*
X83424185Y-96511461D01*
X83476989Y-96465706D01*
X83528500Y-96454500D01*
X83766073Y-96454500D01*
X83766078Y-96454500D01*
X83851667Y-96444222D01*
X83987874Y-96390508D01*
X84104539Y-96302039D01*
X84193008Y-96185374D01*
X84246722Y-96049167D01*
X84257000Y-95963578D01*
X84257000Y-95101422D01*
X84246722Y-95015833D01*
X84217562Y-94941890D01*
X84193009Y-94879628D01*
X84193008Y-94879626D01*
X84161448Y-94838008D01*
X84104539Y-94762961D01*
X83987874Y-94674492D01*
X83987873Y-94674491D01*
X83987871Y-94674490D01*
X83851668Y-94620778D01*
X83837402Y-94619065D01*
X83766078Y-94610500D01*
X82733922Y-94610500D01*
X82672787Y-94617841D01*
X82648331Y-94620778D01*
X82512128Y-94674490D01*
X82512126Y-94674491D01*
X82395461Y-94762961D01*
X82306991Y-94879626D01*
X82306990Y-94879628D01*
X82253278Y-95015831D01*
X82253278Y-95015833D01*
X82243000Y-95101422D01*
X82243000Y-95963578D01*
X82249617Y-96018677D01*
X82253278Y-96049168D01*
X82306990Y-96185371D01*
X82306991Y-96185373D01*
X82306992Y-96185374D01*
X82395461Y-96302039D01*
X82512126Y-96390508D01*
X82516984Y-96392423D01*
X82572129Y-96435325D01*
X82595327Y-96501231D01*
X82595500Y-96507780D01*
X82595500Y-97431088D01*
X82575815Y-97498127D01*
X82559181Y-97518769D01*
X82518678Y-97559271D01*
X82518675Y-97559276D01*
X82460500Y-97673447D01*
X82445500Y-97768160D01*
X82445500Y-99331839D01*
X82460500Y-99426552D01*
X82460501Y-99426555D01*
X82463729Y-99432889D01*
X82476625Y-99501558D01*
X82450348Y-99566299D01*
X82393241Y-99606555D01*
X82333846Y-99611656D01*
X82231839Y-99595500D01*
X82231834Y-99595500D01*
X81868166Y-99595500D01*
X81868161Y-99595500D01*
X81773447Y-99610500D01*
X81697333Y-99649283D01*
X81659277Y-99668674D01*
X81659276Y-99668675D01*
X81659271Y-99668678D01*
X81568678Y-99759271D01*
X81568675Y-99759276D01*
X81568674Y-99759277D01*
X81559649Y-99776989D01*
X81510500Y-99873447D01*
X81495500Y-99968160D01*
X81495500Y-100221500D01*
X81475815Y-100288539D01*
X81423011Y-100334294D01*
X81371500Y-100345500D01*
X79393500Y-100345500D01*
X79326461Y-100325815D01*
X79280706Y-100273011D01*
X79269500Y-100221500D01*
X79269500Y-100081744D01*
X79269499Y-100081727D01*
X79263040Y-100021660D01*
X79263040Y-100021657D01*
X79212343Y-99885732D01*
X79125404Y-99769596D01*
X79019382Y-99690228D01*
X79009267Y-99682656D01*
X79009265Y-99682655D01*
X78873346Y-99631961D01*
X78873344Y-99631960D01*
X78873343Y-99631960D01*
X78873342Y-99631959D01*
X78873339Y-99631959D01*
X78813272Y-99625500D01*
X78813256Y-99625500D01*
X77216744Y-99625500D01*
X77216727Y-99625500D01*
X77156660Y-99631959D01*
X77156653Y-99631961D01*
X77020734Y-99682655D01*
X77020732Y-99682656D01*
X76904596Y-99769596D01*
X76817656Y-99885732D01*
X76817655Y-99885734D01*
X76766961Y-100021653D01*
X76766959Y-100021660D01*
X76760500Y-100081727D01*
X75250000Y-100081727D01*
X75250000Y-97541727D01*
X76760500Y-97541727D01*
X76760500Y-98918272D01*
X76766959Y-98978339D01*
X76766961Y-98978346D01*
X76817655Y-99114265D01*
X76817656Y-99114267D01*
X76817657Y-99114268D01*
X76904596Y-99230404D01*
X76999248Y-99301260D01*
X77020732Y-99317343D01*
X77020734Y-99317344D01*
X77066040Y-99334242D01*
X77156657Y-99368040D01*
X77173503Y-99369851D01*
X77216727Y-99374499D01*
X77216744Y-99374500D01*
X78813256Y-99374500D01*
X78813272Y-99374499D01*
X78850881Y-99370454D01*
X78873343Y-99368040D01*
X79009268Y-99317343D01*
X79125404Y-99230404D01*
X79212343Y-99114268D01*
X79263040Y-98978343D01*
X79265454Y-98955881D01*
X79269499Y-98918272D01*
X79269500Y-98918255D01*
X79269500Y-98858500D01*
X79289185Y-98791461D01*
X79341989Y-98745706D01*
X79393500Y-98734500D01*
X80336416Y-98734500D01*
X80336419Y-98734500D01*
X80464730Y-98700119D01*
X80506837Y-98675808D01*
X80579770Y-98633701D01*
X81348701Y-97864770D01*
X81415119Y-97749730D01*
X81421609Y-97725504D01*
X81421612Y-97725500D01*
X81421611Y-97725500D01*
X81449500Y-97621419D01*
X81449500Y-96565339D01*
X81469185Y-96498300D01*
X81521989Y-96452545D01*
X81543117Y-96445119D01*
X81546657Y-96444223D01*
X81546667Y-96444222D01*
X81682874Y-96390508D01*
X81799539Y-96302039D01*
X81888008Y-96185374D01*
X81941722Y-96049167D01*
X81952000Y-95963578D01*
X81952000Y-95101422D01*
X81941722Y-95015833D01*
X81912562Y-94941890D01*
X81888009Y-94879628D01*
X81888008Y-94879626D01*
X81856448Y-94838008D01*
X81799539Y-94762961D01*
X81682874Y-94674492D01*
X81682873Y-94674491D01*
X81682871Y-94674490D01*
X81546668Y-94620778D01*
X81516885Y-94617201D01*
X81463715Y-94610816D01*
X81399502Y-94583279D01*
X81360369Y-94525397D01*
X81354500Y-94487701D01*
X81354500Y-93131706D01*
X81374185Y-93064667D01*
X81426989Y-93018912D01*
X81431007Y-93017162D01*
X81443524Y-93011978D01*
X81561133Y-92921733D01*
X81651378Y-92804124D01*
X81708108Y-92667164D01*
X81715329Y-92612313D01*
X81743596Y-92548418D01*
X81801920Y-92509947D01*
X81838268Y-92504500D01*
X82717160Y-92504500D01*
X82784199Y-92524185D01*
X82829954Y-92576989D01*
X82837377Y-92598107D01*
X82838275Y-92601662D01*
X82891990Y-92737871D01*
X82891991Y-92737873D01*
X82891992Y-92737874D01*
X82980461Y-92854539D01*
X83069072Y-92921734D01*
X83097126Y-92943008D01*
X83097128Y-92943009D01*
X83136692Y-92958611D01*
X83233333Y-92996722D01*
X83318922Y-93007000D01*
X83318927Y-93007000D01*
X84181073Y-93007000D01*
X84181078Y-93007000D01*
X84266667Y-92996722D01*
X84382195Y-92951162D01*
X84451780Y-92944881D01*
X84513716Y-92977217D01*
X84515365Y-92978836D01*
X84944632Y-93408102D01*
X85346300Y-93809770D01*
X85440230Y-93903700D01*
X85555270Y-93970119D01*
X85683581Y-94004500D01*
X85916500Y-94004500D01*
X85983539Y-94024185D01*
X86029294Y-94076989D01*
X86040500Y-94128500D01*
X86040500Y-94881839D01*
X86055500Y-94976552D01*
X86070484Y-95005959D01*
X86113674Y-95090723D01*
X86113676Y-95090725D01*
X86113678Y-95090728D01*
X86204271Y-95181321D01*
X86204273Y-95181322D01*
X86204277Y-95181326D01*
X86318445Y-95239498D01*
X86318446Y-95239498D01*
X86318448Y-95239499D01*
X86318447Y-95239499D01*
X86413161Y-95254500D01*
X86413166Y-95254500D01*
X86776839Y-95254500D01*
X86871552Y-95239499D01*
X86871553Y-95239498D01*
X86871555Y-95239498D01*
X86985723Y-95181326D01*
X87076326Y-95090723D01*
X87119516Y-95005957D01*
X87167490Y-94955163D01*
X87235311Y-94938368D01*
X87301446Y-94960906D01*
X87340483Y-95005956D01*
X87383674Y-95090723D01*
X87383676Y-95090725D01*
X87383678Y-95090728D01*
X87474271Y-95181321D01*
X87474273Y-95181322D01*
X87474277Y-95181326D01*
X87588445Y-95239498D01*
X87588446Y-95239498D01*
X87588448Y-95239499D01*
X87588447Y-95239499D01*
X87683161Y-95254500D01*
X87683166Y-95254500D01*
X88046839Y-95254500D01*
X88141552Y-95239499D01*
X88141553Y-95239498D01*
X88141555Y-95239498D01*
X88255723Y-95181326D01*
X88346326Y-95090723D01*
X88389516Y-95005957D01*
X88395757Y-94999349D01*
X88398696Y-94990745D01*
X88419370Y-94974347D01*
X88437490Y-94955163D01*
X88446315Y-94952977D01*
X88453439Y-94947328D01*
X88479696Y-94944711D01*
X88505311Y-94938368D01*
X88513916Y-94941300D01*
X88522964Y-94940399D01*
X88546469Y-94952394D01*
X88571446Y-94960906D01*
X88578746Y-94968865D01*
X88585198Y-94972158D01*
X88600380Y-94992451D01*
X88607130Y-94999811D01*
X88608891Y-95002832D01*
X88653674Y-95090723D01*
X88669127Y-95106176D01*
X88677218Y-95120057D01*
X88681898Y-95139009D01*
X88691254Y-95156142D01*
X88690103Y-95172229D01*
X88693971Y-95187888D01*
X88687662Y-95206361D01*
X88686270Y-95225834D01*
X88675053Y-95243286D01*
X88671392Y-95254009D01*
X88664804Y-95259233D01*
X88657769Y-95270181D01*
X87616631Y-96311320D01*
X87541322Y-96386628D01*
X87541320Y-96386631D01*
X87488066Y-96478868D01*
X87460500Y-96581747D01*
X87460500Y-97646898D01*
X87440815Y-97713937D01*
X87388011Y-97759692D01*
X87318853Y-97769636D01*
X87255297Y-97740611D01*
X87248819Y-97734579D01*
X87146561Y-97632321D01*
X87146552Y-97632314D01*
X87005196Y-97548717D01*
X87005193Y-97548716D01*
X86847494Y-97502900D01*
X86847497Y-97502900D01*
X86845000Y-97502703D01*
X86845000Y-101497295D01*
X86845001Y-101497295D01*
X86847486Y-101497100D01*
X87005198Y-101451281D01*
X87146552Y-101367685D01*
X87146561Y-101367678D01*
X87248819Y-101265421D01*
X87310142Y-101231936D01*
X87379834Y-101236920D01*
X87435767Y-101278792D01*
X87460184Y-101344256D01*
X87460500Y-101353102D01*
X87460500Y-101418253D01*
X87488066Y-101521131D01*
X87541320Y-101613369D01*
X87541322Y-101613371D01*
X88562092Y-102634141D01*
X88595577Y-102695464D01*
X88590593Y-102765156D01*
X88548721Y-102821089D01*
X88521867Y-102836382D01*
X88508977Y-102841721D01*
X88391367Y-102931967D01*
X88301121Y-103049577D01*
X88280618Y-103099077D01*
X88236777Y-103153480D01*
X88170483Y-103175545D01*
X88102783Y-103158266D01*
X88055173Y-103107128D01*
X88049016Y-103092579D01*
X88009219Y-102978846D01*
X88009215Y-102978839D01*
X87912633Y-102825128D01*
X87784271Y-102696766D01*
X87630560Y-102600184D01*
X87630558Y-102600183D01*
X87459210Y-102540226D01*
X87324069Y-102525000D01*
X87068800Y-102525000D01*
X87068800Y-104961199D01*
X87324065Y-104961199D01*
X87324070Y-104961198D01*
X87459210Y-104945973D01*
X87459223Y-104945970D01*
X87630553Y-104886019D01*
X87630560Y-104886015D01*
X87784271Y-104789433D01*
X87912633Y-104661071D01*
X88009215Y-104507360D01*
X88009216Y-104507358D01*
X88046397Y-104401101D01*
X88087119Y-104344325D01*
X88152071Y-104318577D01*
X88220633Y-104332033D01*
X88271036Y-104380420D01*
X88278000Y-104394602D01*
X88297150Y-104440836D01*
X88301122Y-104450424D01*
X88391367Y-104568033D01*
X88508976Y-104658278D01*
X88645936Y-104715008D01*
X88756012Y-104729500D01*
X88756019Y-104729500D01*
X89743981Y-104729500D01*
X89743988Y-104729500D01*
X89854064Y-104715008D01*
X89991024Y-104658278D01*
X90108633Y-104568033D01*
X90198878Y-104450424D01*
X90255608Y-104313464D01*
X90270100Y-104203388D01*
X90270100Y-103296612D01*
X90255608Y-103186536D01*
X90198878Y-103049576D01*
X90108633Y-102931967D01*
X89991024Y-102841722D01*
X89991023Y-102841721D01*
X89991021Y-102841720D01*
X89854067Y-102784993D01*
X89854065Y-102784992D01*
X89854064Y-102784992D01*
X89792679Y-102776910D01*
X89753856Y-102771799D01*
X89689960Y-102743532D01*
X89651489Y-102685207D01*
X89650282Y-102681005D01*
X89626934Y-102593869D01*
X89573680Y-102501631D01*
X89498369Y-102426320D01*
X88342230Y-101270181D01*
X88337897Y-101262247D01*
X88330658Y-101256830D01*
X88321413Y-101232058D01*
X88308745Y-101208858D01*
X88309389Y-101199840D01*
X88306229Y-101191370D01*
X88311843Y-101165537D01*
X88313729Y-101139166D01*
X88319539Y-101130123D01*
X88321067Y-101123094D01*
X88342213Y-101094836D01*
X88344803Y-101092245D01*
X88406117Y-101058750D01*
X88475810Y-101063721D01*
X88520180Y-101092230D01*
X88609271Y-101181321D01*
X88609273Y-101181322D01*
X88609277Y-101181326D01*
X88723445Y-101239498D01*
X88723446Y-101239498D01*
X88723448Y-101239499D01*
X88723447Y-101239499D01*
X88818161Y-101254500D01*
X88818166Y-101254500D01*
X89181839Y-101254500D01*
X89276552Y-101239499D01*
X89276553Y-101239498D01*
X89276555Y-101239498D01*
X89390723Y-101181326D01*
X89481326Y-101090723D01*
X89539498Y-100976555D01*
X89539498Y-100976553D01*
X89539499Y-100976552D01*
X89554500Y-100881839D01*
X89554500Y-99602900D01*
X89559862Y-99584638D01*
X89560240Y-99565611D01*
X89569502Y-99551808D01*
X89574185Y-99535861D01*
X89588566Y-99523399D01*
X89599173Y-99507594D01*
X89614428Y-99500989D01*
X89615854Y-99499754D01*
X89615018Y-99499058D01*
X89741008Y-99499058D01*
X89744583Y-99502281D01*
X89759703Y-99509187D01*
X89769992Y-99525198D01*
X89784125Y-99537944D01*
X89791456Y-99558597D01*
X89797477Y-99567965D01*
X89798147Y-99570333D01*
X89800500Y-99578977D01*
X89800500Y-99579584D01*
X89841696Y-99733328D01*
X89843241Y-99736004D01*
X89846147Y-99746680D01*
X89845954Y-99756393D01*
X89850500Y-99779247D01*
X89850500Y-100881839D01*
X89865500Y-100976552D01*
X89865502Y-100976555D01*
X89923674Y-101090723D01*
X89923676Y-101090725D01*
X89923678Y-101090728D01*
X90014271Y-101181321D01*
X90014273Y-101181322D01*
X90014277Y-101181326D01*
X90128445Y-101239498D01*
X90128446Y-101239498D01*
X90128448Y-101239499D01*
X90128447Y-101239499D01*
X90223161Y-101254500D01*
X90223166Y-101254500D01*
X90586839Y-101254500D01*
X90681552Y-101239499D01*
X90681553Y-101239498D01*
X90681555Y-101239498D01*
X90795723Y-101181326D01*
X90886326Y-101090723D01*
X90944498Y-100976555D01*
X90944498Y-100976553D01*
X90944499Y-100976552D01*
X90959500Y-100881839D01*
X90959500Y-99779247D01*
X90967028Y-99741399D01*
X90966200Y-99741178D01*
X90968302Y-99733329D01*
X90968304Y-99733328D01*
X91009500Y-99579584D01*
X91009500Y-99420416D01*
X90968304Y-99266672D01*
X90968302Y-99266669D01*
X90966200Y-99258823D01*
X90967027Y-99258601D01*
X90959500Y-99220753D01*
X90959500Y-98118160D01*
X90944499Y-98023447D01*
X90933343Y-98001552D01*
X90886326Y-97909277D01*
X90886322Y-97909273D01*
X90886321Y-97909271D01*
X90795728Y-97818678D01*
X90795725Y-97818676D01*
X90795723Y-97818674D01*
X90692619Y-97766139D01*
X90681554Y-97760501D01*
X90681552Y-97760500D01*
X90586839Y-97745500D01*
X90586834Y-97745500D01*
X90223166Y-97745500D01*
X90223161Y-97745500D01*
X90128447Y-97760500D01*
X90052333Y-97799283D01*
X90014277Y-97818674D01*
X90014276Y-97818675D01*
X90014271Y-97818678D01*
X89923678Y-97909271D01*
X89923675Y-97909276D01*
X89923674Y-97909277D01*
X89910936Y-97934277D01*
X89865500Y-98023447D01*
X89850500Y-98118160D01*
X89850500Y-99220753D01*
X89846147Y-99253320D01*
X89843241Y-99263995D01*
X89841696Y-99266672D01*
X89800500Y-99420416D01*
X89800500Y-99421021D01*
X89798147Y-99429666D01*
X89784053Y-99452583D01*
X89773165Y-99477190D01*
X89766025Y-99481898D01*
X89761546Y-99489182D01*
X89741008Y-99499058D01*
X89615018Y-99499058D01*
X89608557Y-99493680D01*
X89585752Y-99479402D01*
X89582108Y-99471666D01*
X89575535Y-99466195D01*
X89567443Y-99440532D01*
X89555979Y-99416194D01*
X89554744Y-99400260D01*
X89554524Y-99399560D01*
X89554626Y-99398731D01*
X89554500Y-99397099D01*
X89554500Y-98143160D01*
X89539499Y-98048447D01*
X89539498Y-98048445D01*
X89515609Y-98001561D01*
X89490647Y-97952571D01*
X89477751Y-97883905D01*
X89504027Y-97819164D01*
X89513442Y-97808606D01*
X89622047Y-97700001D01*
X92652704Y-97700001D01*
X92652899Y-97702486D01*
X92698718Y-97860198D01*
X92782314Y-98001552D01*
X92782321Y-98001561D01*
X92898438Y-98117678D01*
X92898447Y-98117685D01*
X93039803Y-98201282D01*
X93039806Y-98201283D01*
X93197504Y-98247099D01*
X93197510Y-98247100D01*
X93234350Y-98249999D01*
X93234366Y-98250000D01*
X93800000Y-98250000D01*
X93800000Y-97700000D01*
X92652705Y-97700000D01*
X92652704Y-97700001D01*
X89622047Y-97700001D01*
X90122050Y-97199998D01*
X92652704Y-97199998D01*
X92652705Y-97200000D01*
X93800000Y-97200000D01*
X93800000Y-96650000D01*
X93234350Y-96650000D01*
X93197510Y-96652899D01*
X93197504Y-96652900D01*
X93039806Y-96698716D01*
X93039803Y-96698717D01*
X92898447Y-96782314D01*
X92898438Y-96782321D01*
X92782321Y-96898438D01*
X92782314Y-96898447D01*
X92698718Y-97039801D01*
X92652899Y-97197513D01*
X92652704Y-97199998D01*
X90122050Y-97199998D01*
X91331230Y-95990819D01*
X91392553Y-95957334D01*
X91418911Y-95954500D01*
X92931089Y-95954500D01*
X92998128Y-95974185D01*
X93018771Y-95990820D01*
X93059272Y-96031322D01*
X93059274Y-96031323D01*
X93059277Y-96031326D01*
X93173445Y-96089498D01*
X93173446Y-96089498D01*
X93173448Y-96089499D01*
X93173447Y-96089499D01*
X93268161Y-96104500D01*
X93268166Y-96104500D01*
X94831839Y-96104500D01*
X94926552Y-96089499D01*
X94926553Y-96089498D01*
X94926555Y-96089498D01*
X94932885Y-96086272D01*
X95001552Y-96073373D01*
X95066293Y-96099647D01*
X95106553Y-96156752D01*
X95111656Y-96216152D01*
X95095500Y-96318159D01*
X95095500Y-96543821D01*
X95075815Y-96610860D01*
X95023011Y-96656615D01*
X94953853Y-96666559D01*
X94936907Y-96662898D01*
X94902492Y-96652900D01*
X94902489Y-96652899D01*
X94865649Y-96650000D01*
X94300000Y-96650000D01*
X94300000Y-97200000D01*
X95447295Y-97200000D01*
X95447295Y-97199999D01*
X95446603Y-97191192D01*
X95448726Y-97191024D01*
X95455012Y-97131304D01*
X95498731Y-97076803D01*
X95564975Y-97054589D01*
X95569679Y-97054500D01*
X97031839Y-97054500D01*
X97126552Y-97039499D01*
X97126553Y-97039498D01*
X97126555Y-97039498D01*
X97240723Y-96981326D01*
X97281229Y-96940820D01*
X97342552Y-96907334D01*
X97368911Y-96904500D01*
X98455094Y-96904500D01*
X98522133Y-96924185D01*
X98553898Y-96953575D01*
X98630461Y-97054539D01*
X98679810Y-97091961D01*
X98747125Y-97143008D01*
X98768937Y-97151609D01*
X98816991Y-97170559D01*
X98872133Y-97213464D01*
X98895327Y-97279371D01*
X98895500Y-97285913D01*
X98895500Y-97739667D01*
X98875815Y-97806706D01*
X98859181Y-97827348D01*
X98227348Y-98459181D01*
X98166025Y-98492666D01*
X98139667Y-98495500D01*
X94902284Y-98495500D01*
X94835245Y-98475815D01*
X94789490Y-98423011D01*
X94779546Y-98353853D01*
X94808571Y-98290297D01*
X94867349Y-98252523D01*
X94892556Y-98247882D01*
X94902489Y-98247100D01*
X94902495Y-98247099D01*
X95060193Y-98201283D01*
X95060196Y-98201282D01*
X95201552Y-98117685D01*
X95201561Y-98117678D01*
X95317678Y-98001561D01*
X95317685Y-98001552D01*
X95401281Y-97860198D01*
X95447100Y-97702486D01*
X95447295Y-97700001D01*
X95447295Y-97700000D01*
X94300000Y-97700000D01*
X94300000Y-98250000D01*
X94333819Y-98283819D01*
X94367304Y-98345142D01*
X94362320Y-98414834D01*
X94320448Y-98470767D01*
X94254984Y-98495184D01*
X94246138Y-98495500D01*
X94133579Y-98495500D01*
X94099992Y-98504499D01*
X94099993Y-98504500D01*
X94005271Y-98529880D01*
X94005270Y-98529880D01*
X94005268Y-98529881D01*
X93890233Y-98596297D01*
X93890227Y-98596301D01*
X92796300Y-99690228D01*
X92796296Y-99690233D01*
X92771418Y-99733326D01*
X92771417Y-99733328D01*
X92729881Y-99805270D01*
X92695500Y-99933581D01*
X92695500Y-99933583D01*
X92695500Y-104939667D01*
X92675815Y-105006706D01*
X92659181Y-105027348D01*
X92027348Y-105659181D01*
X91966025Y-105692666D01*
X91939667Y-105695500D01*
X87733581Y-105695500D01*
X87643387Y-105719667D01*
X87605265Y-105729882D01*
X87563161Y-105754191D01*
X87490236Y-105796295D01*
X87490227Y-105796301D01*
X86596298Y-106690230D01*
X86588060Y-106704500D01*
X86562080Y-106749500D01*
X86529881Y-106805270D01*
X86495500Y-106933581D01*
X86495500Y-108866419D01*
X86529881Y-108994730D01*
X86554191Y-109036837D01*
X86596299Y-109109770D01*
X87182730Y-109696201D01*
X87277372Y-109750842D01*
X87297770Y-109762619D01*
X87426081Y-109797000D01*
X87783082Y-109797000D01*
X87850121Y-109816685D01*
X87895876Y-109869489D01*
X87899259Y-109877656D01*
X87902658Y-109886767D01*
X87931747Y-109925626D01*
X87989595Y-110002904D01*
X88047443Y-110046207D01*
X88105733Y-110089842D01*
X88241658Y-110140540D01*
X88301745Y-110147000D01*
X90858254Y-110146999D01*
X90918342Y-110140540D01*
X91054267Y-110089842D01*
X91170404Y-110002904D01*
X91257342Y-109886767D01*
X91308040Y-109750842D01*
X91312723Y-109707283D01*
X91314499Y-109690771D01*
X91314499Y-109690764D01*
X91314500Y-109690755D01*
X91314499Y-108894246D01*
X91308040Y-108834158D01*
X91281599Y-108763269D01*
X91257342Y-108698233D01*
X91219311Y-108647428D01*
X91805500Y-108647428D01*
X91805500Y-114497563D01*
X91820266Y-114571801D01*
X91876515Y-114655984D01*
X91910234Y-114678514D01*
X91960699Y-114712234D01*
X91960702Y-114712234D01*
X91960703Y-114712235D01*
X92034928Y-114726999D01*
X92034932Y-114727000D01*
X92034933Y-114727000D01*
X101445418Y-114727000D01*
X102754500Y-113417917D01*
X102754500Y-109750000D01*
X103514016Y-109750000D01*
X104555440Y-109750000D01*
X104524755Y-109803147D01*
X104490000Y-109932857D01*
X104490000Y-110067143D01*
X104524755Y-110196853D01*
X104555440Y-110250000D01*
X103514016Y-110250000D01*
X103520781Y-110292716D01*
X103581581Y-110479837D01*
X103670904Y-110655143D01*
X103786555Y-110814321D01*
X103925678Y-110953444D01*
X104084856Y-111069095D01*
X104260164Y-111158418D01*
X104447294Y-111219221D01*
X104641618Y-111250000D01*
X104750000Y-111250000D01*
X104750000Y-110444560D01*
X104803147Y-110475245D01*
X104932857Y-110510000D01*
X105067143Y-110510000D01*
X105196853Y-110475245D01*
X105250000Y-110444560D01*
X105250000Y-111250000D01*
X105358382Y-111250000D01*
X105552705Y-111219221D01*
X105739835Y-111158418D01*
X105915143Y-111069095D01*
X106074321Y-110953444D01*
X106213444Y-110814321D01*
X106329095Y-110655143D01*
X106418418Y-110479837D01*
X106479218Y-110292716D01*
X106485984Y-110250000D01*
X105444560Y-110250000D01*
X105475245Y-110196853D01*
X105510000Y-110067143D01*
X105510000Y-109932857D01*
X105475245Y-109803147D01*
X105444560Y-109750000D01*
X106485984Y-109750000D01*
X106479218Y-109707283D01*
X106418418Y-109520162D01*
X106329095Y-109344856D01*
X106213444Y-109185678D01*
X106074321Y-109046555D01*
X105915143Y-108930904D01*
X105739835Y-108841581D01*
X105552705Y-108780778D01*
X105358382Y-108750000D01*
X105250000Y-108750000D01*
X105250000Y-109555439D01*
X105196853Y-109524755D01*
X105067143Y-109490000D01*
X104932857Y-109490000D01*
X104803147Y-109524755D01*
X104750000Y-109555439D01*
X104750000Y-108750000D01*
X104641618Y-108750000D01*
X104447294Y-108780778D01*
X104260164Y-108841581D01*
X104084856Y-108930904D01*
X103925678Y-109046555D01*
X103786555Y-109185678D01*
X103670904Y-109344856D01*
X103581581Y-109520162D01*
X103520781Y-109707283D01*
X103514016Y-109750000D01*
X102754500Y-109750000D01*
X102754500Y-109727082D01*
X102688914Y-109661497D01*
X102679523Y-109639833D01*
X102678010Y-109627647D01*
X102672127Y-109616872D01*
X102673789Y-109593626D01*
X102670919Y-109570495D01*
X102676235Y-109559425D01*
X102677111Y-109547180D01*
X102696921Y-109516354D01*
X102701168Y-109507513D01*
X102703543Y-109506050D01*
X102705610Y-109502834D01*
X103823188Y-108385258D01*
X107569500Y-108385258D01*
X107569500Y-108614741D01*
X107589055Y-108763269D01*
X107599452Y-108842238D01*
X107613388Y-108894248D01*
X107658842Y-109063887D01*
X107746650Y-109275876D01*
X107746657Y-109275890D01*
X107861392Y-109474617D01*
X108001081Y-109656661D01*
X108001089Y-109656670D01*
X108163330Y-109818911D01*
X108163338Y-109818918D01*
X108345382Y-109958607D01*
X108345385Y-109958608D01*
X108345388Y-109958611D01*
X108544112Y-110073344D01*
X108544117Y-110073346D01*
X108544123Y-110073349D01*
X108593941Y-110093984D01*
X108756113Y-110161158D01*
X108977762Y-110220548D01*
X109205266Y-110250500D01*
X109205273Y-110250500D01*
X109434727Y-110250500D01*
X109434734Y-110250500D01*
X109662238Y-110220548D01*
X109883887Y-110161158D01*
X110095888Y-110073344D01*
X110294612Y-109958611D01*
X110476661Y-109818919D01*
X110476665Y-109818914D01*
X110476670Y-109818911D01*
X110638911Y-109656670D01*
X110638914Y-109656665D01*
X110638919Y-109656661D01*
X110778611Y-109474612D01*
X110893344Y-109275888D01*
X110981158Y-109063887D01*
X111040548Y-108842238D01*
X111070500Y-108614734D01*
X111070500Y-108385266D01*
X111040548Y-108157762D01*
X110981158Y-107936113D01*
X110931190Y-107815480D01*
X110893349Y-107724123D01*
X110893346Y-107724117D01*
X110893344Y-107724112D01*
X110778611Y-107525388D01*
X110778608Y-107525385D01*
X110778607Y-107525382D01*
X110638918Y-107343338D01*
X110638911Y-107343330D01*
X110476670Y-107181089D01*
X110476661Y-107181081D01*
X110294617Y-107041392D01*
X110095890Y-106926657D01*
X110095876Y-106926650D01*
X109883887Y-106838842D01*
X109662238Y-106779452D01*
X109624215Y-106774446D01*
X109434741Y-106749500D01*
X109434734Y-106749500D01*
X109205266Y-106749500D01*
X109205258Y-106749500D01*
X108988715Y-106778009D01*
X108977762Y-106779452D01*
X108884076Y-106804554D01*
X108756112Y-106838842D01*
X108544123Y-106926650D01*
X108544109Y-106926657D01*
X108345382Y-107041392D01*
X108163338Y-107181081D01*
X108001081Y-107343338D01*
X107861392Y-107525382D01*
X107746657Y-107724109D01*
X107746650Y-107724123D01*
X107658842Y-107936112D01*
X107599453Y-108157759D01*
X107599451Y-108157770D01*
X107569500Y-108385258D01*
X103823188Y-108385258D01*
X104167627Y-108040819D01*
X104228950Y-108007334D01*
X104255308Y-108004500D01*
X105808254Y-108004500D01*
X105808270Y-108004499D01*
X105849757Y-108000037D01*
X105868341Y-107998040D01*
X106004267Y-107947342D01*
X106120404Y-107860404D01*
X106207342Y-107744267D01*
X106258040Y-107608341D01*
X106260037Y-107589757D01*
X106264499Y-107548270D01*
X106264500Y-107548253D01*
X106264500Y-106451746D01*
X106264499Y-106451729D01*
X106258040Y-106391661D01*
X106258040Y-106391659D01*
X106237379Y-106336266D01*
X106207344Y-106255738D01*
X106207343Y-106255737D01*
X106207342Y-106255733D01*
X106149405Y-106178337D01*
X106120404Y-106139595D01*
X106043126Y-106081747D01*
X106004267Y-106052658D01*
X106004264Y-106052656D01*
X106004261Y-106052655D01*
X105868349Y-106001962D01*
X105868338Y-106001959D01*
X105808270Y-105995500D01*
X105808254Y-105995500D01*
X104191746Y-105995500D01*
X104191729Y-105995500D01*
X104131661Y-106001959D01*
X104131650Y-106001962D01*
X103995738Y-106052655D01*
X103995729Y-106052660D01*
X103878263Y-106140592D01*
X103828147Y-106162941D01*
X103750756Y-106178335D01*
X103750751Y-106178337D01*
X103595245Y-106242749D01*
X103595236Y-106242754D01*
X103455288Y-106336265D01*
X103455284Y-106336268D01*
X101409872Y-108381681D01*
X101348549Y-108415166D01*
X101322191Y-108418000D01*
X100828500Y-108418000D01*
X100761461Y-108398315D01*
X100715706Y-108345511D01*
X100704500Y-108294000D01*
X100704500Y-104237853D01*
X100724185Y-104170814D01*
X100776989Y-104125059D01*
X100782982Y-104122510D01*
X100872124Y-104087357D01*
X100994532Y-103994532D01*
X101087357Y-103872124D01*
X101143715Y-103729211D01*
X101154500Y-103639403D01*
X101154499Y-102710598D01*
X101143715Y-102620789D01*
X101087357Y-102477876D01*
X101087356Y-102477875D01*
X101087356Y-102477874D01*
X100994532Y-102355467D01*
X100872125Y-102262643D01*
X100729209Y-102206284D01*
X100639403Y-102195500D01*
X99760604Y-102195500D01*
X99670790Y-102206284D01*
X99527874Y-102262643D01*
X99405466Y-102355468D01*
X99358835Y-102416961D01*
X99302643Y-102458484D01*
X99232921Y-102463035D01*
X99171808Y-102429170D01*
X99142991Y-102382990D01*
X99127379Y-102338376D01*
X99127374Y-102338365D01*
X99034091Y-102189907D01*
X99034086Y-102189901D01*
X98910098Y-102065913D01*
X98910092Y-102065908D01*
X98761634Y-101972625D01*
X98755354Y-101969601D01*
X98756079Y-101968093D01*
X98706347Y-101932415D01*
X98680607Y-101867460D01*
X98694071Y-101798899D01*
X98729157Y-101757306D01*
X98802039Y-101702039D01*
X98890508Y-101585374D01*
X98891440Y-101583011D01*
X98892872Y-101581170D01*
X98894666Y-101577980D01*
X98895144Y-101578249D01*
X98904348Y-101566419D01*
X98913082Y-101547297D01*
X98925373Y-101539397D01*
X98934346Y-101527866D01*
X98954175Y-101520887D01*
X98971860Y-101509523D01*
X98996566Y-101505970D01*
X99000254Y-101504673D01*
X99006795Y-101504500D01*
X99237689Y-101504500D01*
X99304728Y-101524185D01*
X99336493Y-101553575D01*
X99405467Y-101644532D01*
X99527874Y-101737356D01*
X99527875Y-101737356D01*
X99527876Y-101737357D01*
X99670789Y-101793715D01*
X99760597Y-101804500D01*
X100639402Y-101804499D01*
X100729211Y-101793715D01*
X100872124Y-101737357D01*
X100994532Y-101644532D01*
X101087357Y-101522124D01*
X101143715Y-101379211D01*
X101154500Y-101289403D01*
X101154499Y-100360598D01*
X101143715Y-100270789D01*
X101087357Y-100127876D01*
X101087356Y-100127875D01*
X101087356Y-100127874D01*
X100994532Y-100005467D01*
X100872125Y-99912643D01*
X100729209Y-99856284D01*
X100639403Y-99845500D01*
X99760604Y-99845500D01*
X99670790Y-99856284D01*
X99527874Y-99912643D01*
X99405467Y-100005467D01*
X99312643Y-100127874D01*
X99256284Y-100270790D01*
X99245500Y-100360596D01*
X99245500Y-100371500D01*
X99242949Y-100380185D01*
X99244238Y-100389147D01*
X99233259Y-100413187D01*
X99225815Y-100438539D01*
X99218974Y-100444466D01*
X99215213Y-100452703D01*
X99192978Y-100466992D01*
X99173011Y-100484294D01*
X99162496Y-100486581D01*
X99156435Y-100490477D01*
X99121500Y-100495500D01*
X99078500Y-100495500D01*
X99011461Y-100475815D01*
X98965706Y-100423011D01*
X98954500Y-100371500D01*
X98954500Y-100331427D01*
X98954500Y-100331422D01*
X98944222Y-100245833D01*
X98890508Y-100109626D01*
X98802039Y-99992961D01*
X98685374Y-99904492D01*
X98685373Y-99904491D01*
X98685371Y-99904490D01*
X98549168Y-99850778D01*
X98534902Y-99849065D01*
X98463578Y-99840500D01*
X97601422Y-99840500D01*
X97540287Y-99847841D01*
X97515831Y-99850778D01*
X97379628Y-99904490D01*
X97379626Y-99904491D01*
X97262961Y-99992961D01*
X97174491Y-100109626D01*
X97174490Y-100109628D01*
X97120778Y-100245831D01*
X97120778Y-100245833D01*
X97110500Y-100331422D01*
X97110500Y-101363578D01*
X97117066Y-101418252D01*
X97120778Y-101449168D01*
X97174490Y-101585371D01*
X97174491Y-101585373D01*
X97226735Y-101654267D01*
X97262961Y-101702039D01*
X97335838Y-101757303D01*
X97377361Y-101813494D01*
X97381913Y-101883215D01*
X97348049Y-101944329D01*
X97309163Y-101968599D01*
X97309646Y-101969601D01*
X97303365Y-101972625D01*
X97154907Y-102065908D01*
X97154901Y-102065913D01*
X97030913Y-102189901D01*
X97030908Y-102189907D01*
X96937625Y-102338365D01*
X96937623Y-102338368D01*
X96879707Y-102503882D01*
X96865000Y-102634419D01*
X96865000Y-102902500D01*
X97908500Y-102902500D01*
X97975539Y-102922185D01*
X98021294Y-102974989D01*
X98032500Y-103026500D01*
X98032500Y-103152500D01*
X98158500Y-103152500D01*
X98225539Y-103172185D01*
X98271294Y-103224989D01*
X98282500Y-103276500D01*
X98282500Y-104405000D01*
X98465580Y-104405000D01*
X98465580Y-104404999D01*
X98596117Y-104390292D01*
X98761631Y-104332376D01*
X98761634Y-104332374D01*
X98910092Y-104239091D01*
X98910098Y-104239086D01*
X99034086Y-104115098D01*
X99034091Y-104115092D01*
X99127374Y-103966634D01*
X99127377Y-103966627D01*
X99132214Y-103952805D01*
X99172933Y-103896027D01*
X99237885Y-103870278D01*
X99306447Y-103883731D01*
X99348061Y-103918830D01*
X99405467Y-103994532D01*
X99527875Y-104087357D01*
X99555610Y-104098294D01*
X99616991Y-104122499D01*
X99672133Y-104165404D01*
X99695327Y-104231311D01*
X99695500Y-104237853D01*
X99695500Y-108294000D01*
X99675815Y-108361039D01*
X99623011Y-108406794D01*
X99571500Y-108418000D01*
X92034936Y-108418000D01*
X91960698Y-108432766D01*
X91876515Y-108489015D01*
X91820266Y-108573199D01*
X91820264Y-108573203D01*
X91805500Y-108647428D01*
X91219311Y-108647428D01*
X91170404Y-108582095D01*
X91093126Y-108524247D01*
X91054267Y-108495158D01*
X90918342Y-108444460D01*
X90918338Y-108444459D01*
X90858262Y-108438000D01*
X88301748Y-108438000D01*
X88301742Y-108438001D01*
X88241655Y-108444460D01*
X88105738Y-108495155D01*
X88105730Y-108495160D01*
X87989595Y-108582095D01*
X87902660Y-108698230D01*
X87902657Y-108698234D01*
X87899263Y-108707336D01*
X87885993Y-108725061D01*
X87876795Y-108745203D01*
X87865462Y-108752485D01*
X87857390Y-108763269D01*
X87836643Y-108771006D01*
X87818017Y-108782977D01*
X87796095Y-108786128D01*
X87791926Y-108787684D01*
X87783082Y-108788000D01*
X87752833Y-108788000D01*
X87685794Y-108768315D01*
X87665152Y-108751681D01*
X87540819Y-108627348D01*
X87507334Y-108566025D01*
X87504500Y-108539667D01*
X87504500Y-107260333D01*
X87524185Y-107193294D01*
X87540819Y-107172652D01*
X87972652Y-106740819D01*
X88033975Y-106707334D01*
X88060333Y-106704500D01*
X92266416Y-106704500D01*
X92266419Y-106704500D01*
X92394730Y-106670119D01*
X92436837Y-106645808D01*
X92509770Y-106603701D01*
X93603701Y-105509770D01*
X93670120Y-105394729D01*
X93704500Y-105266418D01*
X93704500Y-105133581D01*
X93704500Y-103670580D01*
X96865000Y-103670580D01*
X96879707Y-103801117D01*
X96937623Y-103966631D01*
X96937625Y-103966634D01*
X97030908Y-104115092D01*
X97030913Y-104115098D01*
X97154901Y-104239086D01*
X97154907Y-104239091D01*
X97303365Y-104332374D01*
X97303368Y-104332376D01*
X97468882Y-104390292D01*
X97599419Y-104404999D01*
X97599420Y-104405000D01*
X97782500Y-104405000D01*
X97782500Y-103402500D01*
X96865000Y-103402500D01*
X96865000Y-103670580D01*
X93704500Y-103670580D01*
X93704500Y-100260333D01*
X93724185Y-100193294D01*
X93740819Y-100172652D01*
X94372652Y-99540819D01*
X94433975Y-99507334D01*
X94460333Y-99504500D01*
X98466416Y-99504500D01*
X98466419Y-99504500D01*
X98594730Y-99470119D01*
X98636837Y-99445808D01*
X98709770Y-99403701D01*
X99803701Y-98309770D01*
X99870120Y-98194729D01*
X99904500Y-98066418D01*
X99904500Y-97933581D01*
X99904500Y-97285913D01*
X99924185Y-97218874D01*
X99976989Y-97173119D01*
X99982982Y-97170569D01*
X100052874Y-97143008D01*
X100169539Y-97054539D01*
X100258008Y-96937874D01*
X100311722Y-96801667D01*
X100322000Y-96716078D01*
X100322000Y-95683922D01*
X100311722Y-95598333D01*
X100258008Y-95462126D01*
X100169539Y-95345461D01*
X100074571Y-95273445D01*
X100052873Y-95256991D01*
X100052871Y-95256990D01*
X99916668Y-95203278D01*
X99902402Y-95201565D01*
X99831078Y-95193000D01*
X98968922Y-95193000D01*
X98907787Y-95200341D01*
X98883331Y-95203278D01*
X98747128Y-95256990D01*
X98747126Y-95256991D01*
X98630461Y-95345461D01*
X98541991Y-95462126D01*
X98541990Y-95462128D01*
X98488278Y-95598331D01*
X98486472Y-95613369D01*
X98478000Y-95683922D01*
X98478000Y-95683927D01*
X98478000Y-95971500D01*
X98458315Y-96038539D01*
X98405511Y-96084294D01*
X98354000Y-96095500D01*
X97368911Y-96095500D01*
X97301872Y-96075815D01*
X97281229Y-96059180D01*
X97240727Y-96018677D01*
X97240725Y-96018676D01*
X97240723Y-96018674D01*
X97126555Y-95960502D01*
X97126554Y-95960501D01*
X97126551Y-95960500D01*
X97126552Y-95960500D01*
X97031839Y-95945500D01*
X97031834Y-95945500D01*
X95468166Y-95945500D01*
X95468161Y-95945500D01*
X95373447Y-95960500D01*
X95373445Y-95960501D01*
X95367107Y-95963731D01*
X95298437Y-95976625D01*
X95233698Y-95950346D01*
X95193443Y-95893238D01*
X95188343Y-95833845D01*
X95204500Y-95731838D01*
X95204500Y-95368160D01*
X95189499Y-95273447D01*
X95182549Y-95259807D01*
X95131326Y-95159277D01*
X95131322Y-95159273D01*
X95131321Y-95159271D01*
X95040728Y-95068678D01*
X95040725Y-95068676D01*
X95040723Y-95068674D01*
X94926555Y-95010502D01*
X94926554Y-95010501D01*
X94926551Y-95010500D01*
X94926552Y-95010500D01*
X94831839Y-94995500D01*
X94831834Y-94995500D01*
X93268166Y-94995500D01*
X93268161Y-94995500D01*
X93173447Y-95010500D01*
X93097333Y-95049283D01*
X93059277Y-95068674D01*
X93059276Y-95068675D01*
X93059272Y-95068677D01*
X93018771Y-95109180D01*
X92957448Y-95142666D01*
X92931089Y-95145500D01*
X91146745Y-95145500D01*
X91081843Y-95162890D01*
X91011993Y-95161227D01*
X90954131Y-95122063D01*
X90926628Y-95057834D01*
X90938215Y-94988932D01*
X90939196Y-94986959D01*
X90944498Y-94976555D01*
X90944848Y-94974347D01*
X90959500Y-94881839D01*
X90959500Y-92118160D01*
X90944499Y-92023447D01*
X90940257Y-92015121D01*
X90886326Y-91909277D01*
X90886322Y-91909273D01*
X90886321Y-91909271D01*
X90845819Y-91868769D01*
X90831115Y-91841841D01*
X90814523Y-91816023D01*
X90813631Y-91809822D01*
X90812334Y-91807446D01*
X90809500Y-91781088D01*
X90809500Y-91563911D01*
X90829185Y-91496872D01*
X90845819Y-91476230D01*
X91834430Y-90487619D01*
X91895753Y-90454134D01*
X91922111Y-90451300D01*
X92196481Y-90451300D01*
X92196488Y-90451300D01*
X92306564Y-90436808D01*
X92443524Y-90380078D01*
X92561133Y-90289833D01*
X92651378Y-90172224D01*
X92708108Y-90035264D01*
X92722600Y-89925188D01*
X92722600Y-88937212D01*
X92708108Y-88827136D01*
X92651378Y-88690176D01*
X92561133Y-88572567D01*
X92443524Y-88482322D01*
X92443523Y-88482321D01*
X92443521Y-88482320D01*
X92394023Y-88461818D01*
X92339619Y-88417977D01*
X92317554Y-88351683D01*
X92334833Y-88283984D01*
X92385970Y-88236373D01*
X92400520Y-88230215D01*
X92514260Y-88190415D01*
X92667971Y-88093833D01*
X92796333Y-87965471D01*
X92892915Y-87811760D01*
X92892916Y-87811758D01*
X92952873Y-87640410D01*
X92968099Y-87505269D01*
X92968100Y-87505265D01*
X92968100Y-87250000D01*
X90531901Y-87250000D01*
X90531901Y-87505270D01*
X90547126Y-87640410D01*
X90547129Y-87640423D01*
X90607080Y-87811753D01*
X90607084Y-87811760D01*
X90703666Y-87965471D01*
X90832028Y-88093833D01*
X90985739Y-88190415D01*
X90985741Y-88190416D01*
X91091998Y-88227597D01*
X91148774Y-88268319D01*
X91174522Y-88333271D01*
X91161066Y-88401833D01*
X91112679Y-88452236D01*
X91098497Y-88459200D01*
X91042678Y-88482321D01*
X91042676Y-88482322D01*
X90925067Y-88572567D01*
X90834820Y-88690178D01*
X90778093Y-88827132D01*
X90778092Y-88827136D01*
X90763600Y-88937204D01*
X90763600Y-89925195D01*
X90775328Y-90014270D01*
X90777201Y-90028500D01*
X90778092Y-90035263D01*
X90778093Y-90035267D01*
X90834821Y-90172224D01*
X90842824Y-90182653D01*
X90868018Y-90247823D01*
X90853979Y-90316267D01*
X90832129Y-90345820D01*
X90156631Y-91021320D01*
X90081322Y-91096628D01*
X90081320Y-91096631D01*
X90028066Y-91188868D01*
X90000500Y-91291747D01*
X90000500Y-91781088D01*
X89980815Y-91848127D01*
X89979047Y-91850802D01*
X89972460Y-91860490D01*
X89923674Y-91909277D01*
X89876939Y-92000997D01*
X89872547Y-92007459D01*
X89851351Y-92024886D01*
X89832510Y-92044836D01*
X89824752Y-92046757D01*
X89818578Y-92051834D01*
X89791323Y-92055035D01*
X89764689Y-92061631D01*
X89757122Y-92059052D01*
X89749185Y-92059985D01*
X89724527Y-92047944D01*
X89698554Y-92039093D01*
X89692798Y-92032451D01*
X89686401Y-92029327D01*
X89677782Y-92015121D01*
X89659516Y-91994041D01*
X89646712Y-91968912D01*
X89616326Y-91909277D01*
X89616323Y-91909274D01*
X89616321Y-91909271D01*
X89575819Y-91868769D01*
X89542334Y-91807446D01*
X89539500Y-91781088D01*
X89539500Y-90535792D01*
X89559185Y-90468753D01*
X89611989Y-90422998D01*
X89648719Y-90412676D01*
X89656667Y-90411722D01*
X89792874Y-90358008D01*
X89909539Y-90269539D01*
X89998008Y-90152874D01*
X90051722Y-90016667D01*
X90062000Y-89931078D01*
X90062000Y-89068922D01*
X90051722Y-88983333D01*
X89998008Y-88847126D01*
X89909539Y-88730461D01*
X89792874Y-88641992D01*
X89792873Y-88641991D01*
X89792871Y-88641990D01*
X89656668Y-88588278D01*
X89642402Y-88586565D01*
X89571078Y-88578000D01*
X88538922Y-88578000D01*
X88477787Y-88585341D01*
X88453331Y-88588278D01*
X88317128Y-88641990D01*
X88317126Y-88641991D01*
X88200461Y-88730461D01*
X88111991Y-88847126D01*
X88111990Y-88847128D01*
X88058278Y-88983331D01*
X88056817Y-88995500D01*
X88048000Y-89068922D01*
X88048000Y-89068927D01*
X88048000Y-89926589D01*
X88041761Y-89947834D01*
X88040182Y-89969923D01*
X88032109Y-89980706D01*
X88028315Y-89993628D01*
X88011581Y-90008127D01*
X87998310Y-90025856D01*
X87985689Y-90030563D01*
X87975511Y-90039383D01*
X87953593Y-90042534D01*
X87932846Y-90050273D01*
X87919685Y-90047410D01*
X87906353Y-90049327D01*
X87886209Y-90040127D01*
X87864573Y-90035421D01*
X87846847Y-90022152D01*
X87842797Y-90020302D01*
X87836319Y-90014270D01*
X87793319Y-89971270D01*
X87759834Y-89909947D01*
X87757000Y-89883589D01*
X87757000Y-89068927D01*
X87757000Y-89068922D01*
X87746722Y-88983333D01*
X87693008Y-88847126D01*
X87604539Y-88730461D01*
X87487874Y-88641992D01*
X87487873Y-88641991D01*
X87487871Y-88641990D01*
X87351668Y-88588278D01*
X87337402Y-88586565D01*
X87266078Y-88578000D01*
X86233922Y-88578000D01*
X86172787Y-88585341D01*
X86148331Y-88588278D01*
X86012128Y-88641990D01*
X86012126Y-88641991D01*
X85895461Y-88730461D01*
X85806991Y-88847126D01*
X85806990Y-88847128D01*
X85753278Y-88983331D01*
X85752924Y-88986281D01*
X85751969Y-88988506D01*
X85751328Y-88991045D01*
X85750924Y-88990943D01*
X85725389Y-89050496D01*
X85667507Y-89089630D01*
X85629808Y-89095500D01*
X84746970Y-89095500D01*
X84679931Y-89075815D01*
X84634176Y-89023011D01*
X84631624Y-89017012D01*
X84608008Y-88957126D01*
X84608007Y-88957125D01*
X84608007Y-88957124D01*
X84575756Y-88914595D01*
X84519539Y-88840461D01*
X84402874Y-88751992D01*
X84402873Y-88751991D01*
X84402871Y-88751990D01*
X84266668Y-88698278D01*
X84252402Y-88696565D01*
X84181078Y-88688000D01*
X83318922Y-88688000D01*
X83257787Y-88695341D01*
X83233331Y-88698278D01*
X83097128Y-88751990D01*
X83097126Y-88751991D01*
X82980461Y-88840461D01*
X82891991Y-88957126D01*
X82891990Y-88957128D01*
X82838278Y-89093331D01*
X82838278Y-89093333D01*
X82828000Y-89178922D01*
X82828000Y-90211078D01*
X82834947Y-90268926D01*
X82838278Y-90296668D01*
X82891990Y-90432871D01*
X82891991Y-90432873D01*
X82908114Y-90454134D01*
X82980461Y-90549539D01*
X83097126Y-90638008D01*
X83097128Y-90638009D01*
X83120787Y-90647339D01*
X83233333Y-90691722D01*
X83318922Y-90702000D01*
X83318927Y-90702000D01*
X84181073Y-90702000D01*
X84181078Y-90702000D01*
X84266667Y-90691722D01*
X84402874Y-90638008D01*
X84519539Y-90549539D01*
X84608008Y-90432874D01*
X84661722Y-90296667D01*
X84672000Y-90211078D01*
X84672000Y-90028500D01*
X84691685Y-89961461D01*
X84744489Y-89915706D01*
X84796000Y-89904500D01*
X85629808Y-89904500D01*
X85696847Y-89924185D01*
X85742602Y-89976989D01*
X85752924Y-90013719D01*
X85753278Y-90016668D01*
X85806990Y-90152871D01*
X85806991Y-90152873D01*
X85806992Y-90152874D01*
X85895461Y-90269539D01*
X85957082Y-90316267D01*
X86012126Y-90358008D01*
X86012128Y-90358009D01*
X86033992Y-90366631D01*
X86148333Y-90411722D01*
X86233922Y-90422000D01*
X87048589Y-90422000D01*
X87115628Y-90441685D01*
X87136270Y-90458319D01*
X87424181Y-90746230D01*
X87457666Y-90807553D01*
X87460500Y-90833911D01*
X87460500Y-91781088D01*
X87440815Y-91848127D01*
X87439047Y-91850802D01*
X87432460Y-91860490D01*
X87383674Y-91909277D01*
X87336939Y-92000997D01*
X87332547Y-92007459D01*
X87311351Y-92024886D01*
X87292510Y-92044836D01*
X87284752Y-92046757D01*
X87278578Y-92051834D01*
X87251323Y-92055035D01*
X87224689Y-92061631D01*
X87217122Y-92059052D01*
X87209185Y-92059985D01*
X87184527Y-92047944D01*
X87158554Y-92039093D01*
X87152798Y-92032451D01*
X87146401Y-92029327D01*
X87137782Y-92015121D01*
X87119516Y-91994041D01*
X87106712Y-91968912D01*
X87076326Y-91909277D01*
X87076323Y-91909274D01*
X87076321Y-91909271D01*
X86985728Y-91818678D01*
X86985725Y-91818676D01*
X86985723Y-91818674D01*
X86871555Y-91760502D01*
X86871554Y-91760501D01*
X86871551Y-91760500D01*
X86871552Y-91760500D01*
X86776839Y-91745500D01*
X86776834Y-91745500D01*
X86413166Y-91745500D01*
X86413161Y-91745500D01*
X86318447Y-91760500D01*
X86242333Y-91799283D01*
X86204277Y-91818674D01*
X86204276Y-91818675D01*
X86204271Y-91818678D01*
X86113678Y-91909271D01*
X86113675Y-91909276D01*
X86113674Y-91909277D01*
X86094283Y-91947333D01*
X86055500Y-92023447D01*
X86040500Y-92118160D01*
X86040500Y-92777667D01*
X86020815Y-92844706D01*
X85968011Y-92890461D01*
X85898853Y-92900405D01*
X85835297Y-92871380D01*
X85828819Y-92865348D01*
X84708319Y-91744848D01*
X84674834Y-91683525D01*
X84672000Y-91657167D01*
X84672000Y-91483927D01*
X84672000Y-91483922D01*
X84661722Y-91398333D01*
X84608008Y-91262126D01*
X84519539Y-91145461D01*
X84431069Y-91078372D01*
X84402873Y-91056991D01*
X84402871Y-91056990D01*
X84266668Y-91003278D01*
X84252402Y-91001565D01*
X84181078Y-90993000D01*
X83318922Y-90993000D01*
X83257787Y-91000341D01*
X83233331Y-91003278D01*
X83097128Y-91056990D01*
X83097126Y-91056991D01*
X82980461Y-91145461D01*
X82891991Y-91262126D01*
X82891990Y-91262128D01*
X82838275Y-91398337D01*
X82837377Y-91401893D01*
X82835860Y-91404462D01*
X82835361Y-91405729D01*
X82835159Y-91405649D01*
X82801862Y-91462063D01*
X82739453Y-91493480D01*
X82717160Y-91495500D01*
X81806066Y-91495500D01*
X81739027Y-91475815D01*
X81693272Y-91423011D01*
X81691505Y-91418952D01*
X81651379Y-91322078D01*
X81651378Y-91322077D01*
X81651378Y-91322076D01*
X81561133Y-91204467D01*
X81443524Y-91114222D01*
X81443523Y-91114221D01*
X81443521Y-91114220D01*
X81394023Y-91093718D01*
X81339619Y-91049877D01*
X81317554Y-90983583D01*
X81334833Y-90915884D01*
X81385970Y-90868273D01*
X81400520Y-90862115D01*
X81514260Y-90822315D01*
X81667971Y-90725733D01*
X81796333Y-90597371D01*
X81892915Y-90443660D01*
X81892916Y-90443658D01*
X81952873Y-90272310D01*
X81968099Y-90137169D01*
X81968100Y-90137165D01*
X81968100Y-89881900D01*
X79531901Y-89881900D01*
X79531901Y-90137170D01*
X79547126Y-90272310D01*
X79547129Y-90272323D01*
X79607080Y-90443653D01*
X79607084Y-90443660D01*
X79703666Y-90597371D01*
X79832028Y-90725733D01*
X79985739Y-90822315D01*
X79985741Y-90822316D01*
X80091998Y-90859497D01*
X80148774Y-90900219D01*
X80174522Y-90965171D01*
X80161066Y-91033733D01*
X80112679Y-91084136D01*
X80098497Y-91091100D01*
X80042678Y-91114221D01*
X80042676Y-91114222D01*
X79945396Y-91188868D01*
X79925067Y-91204467D01*
X79834820Y-91322078D01*
X79778093Y-91459032D01*
X79778092Y-91459036D01*
X79763600Y-91569104D01*
X79763600Y-92557095D01*
X79778092Y-92667163D01*
X79778093Y-92667167D01*
X79834820Y-92804121D01*
X79834821Y-92804123D01*
X79834822Y-92804124D01*
X79925067Y-92921733D01*
X80042676Y-93011978D01*
X80042677Y-93011978D01*
X80042678Y-93011979D01*
X80059416Y-93018912D01*
X80179636Y-93068708D01*
X80237686Y-93076350D01*
X80301582Y-93104616D01*
X80340053Y-93162941D01*
X80345500Y-93199289D01*
X80345500Y-94535529D01*
X80325815Y-94602568D01*
X80273011Y-94648323D01*
X80266991Y-94650883D01*
X80207126Y-94674491D01*
X80090461Y-94762961D01*
X80001991Y-94879626D01*
X80001990Y-94879628D01*
X79948278Y-95015831D01*
X79948278Y-95015833D01*
X79938000Y-95101422D01*
X79938000Y-95963578D01*
X79944617Y-96018677D01*
X79948278Y-96049168D01*
X80001990Y-96185371D01*
X80001991Y-96185373D01*
X80001992Y-96185374D01*
X80090461Y-96302039D01*
X80202009Y-96386628D01*
X80207126Y-96390508D01*
X80207128Y-96390509D01*
X80211982Y-96392423D01*
X80343333Y-96444222D01*
X80343340Y-96444222D01*
X80346883Y-96445119D01*
X80349453Y-96446636D01*
X80350729Y-96447139D01*
X80350649Y-96447341D01*
X80407056Y-96480630D01*
X80438478Y-96543035D01*
X80440500Y-96565339D01*
X80440500Y-97294667D01*
X80420815Y-97361706D01*
X80404181Y-97382348D01*
X80097348Y-97689181D01*
X80036025Y-97722666D01*
X80009667Y-97725500D01*
X79393500Y-97725500D01*
X79326461Y-97705815D01*
X79280706Y-97653011D01*
X79269500Y-97601500D01*
X79269500Y-97541744D01*
X79269499Y-97541727D01*
X79263040Y-97481660D01*
X79263040Y-97481657D01*
X79212343Y-97345732D01*
X79125404Y-97229596D01*
X79009268Y-97142657D01*
X79009267Y-97142656D01*
X79009265Y-97142655D01*
X78873346Y-97091961D01*
X78873344Y-97091960D01*
X78873343Y-97091960D01*
X78873342Y-97091959D01*
X78873339Y-97091959D01*
X78813272Y-97085500D01*
X78813256Y-97085500D01*
X78643500Y-97085500D01*
X78576461Y-97065815D01*
X78530706Y-97013011D01*
X78519500Y-96961500D01*
X78519500Y-89126630D01*
X79531900Y-89126630D01*
X79531900Y-89381900D01*
X80500000Y-89381900D01*
X81000000Y-89381900D01*
X81968099Y-89381900D01*
X81968099Y-89126635D01*
X81968098Y-89126629D01*
X81952873Y-88991489D01*
X81952870Y-88991476D01*
X81892919Y-88820146D01*
X81892915Y-88820139D01*
X81796333Y-88666428D01*
X81667971Y-88538066D01*
X81514260Y-88441484D01*
X81514258Y-88441483D01*
X81342910Y-88381526D01*
X81207769Y-88366300D01*
X81000000Y-88366300D01*
X81000000Y-89381900D01*
X80500000Y-89381900D01*
X80500000Y-88366300D01*
X80292235Y-88366300D01*
X80292229Y-88366301D01*
X80157089Y-88381526D01*
X80157076Y-88381529D01*
X79985746Y-88441480D01*
X79985739Y-88441484D01*
X79832028Y-88538066D01*
X79703666Y-88666428D01*
X79607084Y-88820139D01*
X79607083Y-88820141D01*
X79547126Y-88991489D01*
X79531900Y-89126630D01*
X78519500Y-89126630D01*
X78519500Y-86494730D01*
X90531900Y-86494730D01*
X90531900Y-86750000D01*
X91500000Y-86750000D01*
X92000000Y-86750000D01*
X92968099Y-86750000D01*
X92968099Y-86494735D01*
X92968098Y-86494729D01*
X92952873Y-86359589D01*
X92952870Y-86359576D01*
X92892919Y-86188246D01*
X92892915Y-86188239D01*
X92796333Y-86034528D01*
X92667971Y-85906166D01*
X92514260Y-85809584D01*
X92514258Y-85809583D01*
X92342910Y-85749626D01*
X92207769Y-85734400D01*
X92000000Y-85734400D01*
X92000000Y-86750000D01*
X91500000Y-86750000D01*
X91500000Y-85734400D01*
X91292235Y-85734400D01*
X91292229Y-85734401D01*
X91157089Y-85749626D01*
X91157076Y-85749629D01*
X90985746Y-85809580D01*
X90985739Y-85809584D01*
X90832028Y-85906166D01*
X90703666Y-86034528D01*
X90607084Y-86188239D01*
X90607083Y-86188241D01*
X90547126Y-86359589D01*
X90531900Y-86494730D01*
X78519500Y-86494730D01*
X78519500Y-85045333D01*
X78539185Y-84978294D01*
X78555819Y-84957652D01*
X79722652Y-83790819D01*
X79783975Y-83757334D01*
X79810333Y-83754500D01*
X91621501Y-83754500D01*
X91688540Y-83774185D01*
X91734295Y-83826989D01*
X91745501Y-83878500D01*
X91745501Y-83948257D01*
X91751960Y-84008344D01*
X91802655Y-84144261D01*
X91802656Y-84144264D01*
X91802658Y-84144267D01*
X91831747Y-84183126D01*
X91889595Y-84260404D01*
X91947443Y-84303707D01*
X92005733Y-84347342D01*
X92141658Y-84398040D01*
X92201745Y-84404500D01*
X93171500Y-84404499D01*
X93238539Y-84424183D01*
X93284294Y-84476987D01*
X93295500Y-84528499D01*
X93295500Y-92866419D01*
X93329881Y-92994730D01*
X93339840Y-93011979D01*
X93350174Y-93029877D01*
X93350175Y-93029881D01*
X93350176Y-93029881D01*
X93396299Y-93109770D01*
X94585230Y-94298701D01*
X94658162Y-94340808D01*
X94700270Y-94365119D01*
X94828581Y-94399500D01*
X94828582Y-94399500D01*
X94961419Y-94399500D01*
X98367160Y-94399500D01*
X98434199Y-94419185D01*
X98479954Y-94471989D01*
X98487377Y-94493107D01*
X98488275Y-94496662D01*
X98541990Y-94632871D01*
X98541991Y-94632873D01*
X98563372Y-94661069D01*
X98630461Y-94749539D01*
X98747126Y-94838008D01*
X98747128Y-94838009D01*
X98815229Y-94864865D01*
X98883333Y-94891722D01*
X98968922Y-94902000D01*
X98968927Y-94902000D01*
X99831073Y-94902000D01*
X99831078Y-94902000D01*
X99916667Y-94891722D01*
X100052874Y-94838008D01*
X100169539Y-94749539D01*
X100258008Y-94632874D01*
X100311722Y-94496667D01*
X100322000Y-94411078D01*
X100322000Y-93378922D01*
X100311722Y-93293333D01*
X100258008Y-93157126D01*
X100169539Y-93040461D01*
X100052874Y-92951992D01*
X100052873Y-92951991D01*
X100052871Y-92951990D01*
X99927166Y-92902418D01*
X99927165Y-92902418D01*
X99916666Y-92898277D01*
X99865789Y-92892168D01*
X99831078Y-92888000D01*
X98968922Y-92888000D01*
X98907787Y-92895341D01*
X98883331Y-92898278D01*
X98747128Y-92951990D01*
X98747126Y-92951991D01*
X98630461Y-93040461D01*
X98541991Y-93157126D01*
X98541990Y-93157128D01*
X98488275Y-93293337D01*
X98487377Y-93296893D01*
X98485860Y-93299462D01*
X98485361Y-93300729D01*
X98485159Y-93300649D01*
X98451862Y-93357063D01*
X98389453Y-93388480D01*
X98367160Y-93390500D01*
X95155333Y-93390500D01*
X95088294Y-93370815D01*
X95067652Y-93354181D01*
X94463471Y-92750000D01*
X103514016Y-92750000D01*
X104555440Y-92750000D01*
X104524755Y-92803147D01*
X104490000Y-92932857D01*
X104490000Y-93067143D01*
X104524755Y-93196853D01*
X104555440Y-93250000D01*
X103514016Y-93250000D01*
X103520781Y-93292716D01*
X103581581Y-93479837D01*
X103670904Y-93655143D01*
X103786555Y-93814321D01*
X103925678Y-93953444D01*
X104084856Y-94069095D01*
X104260164Y-94158418D01*
X104447294Y-94219221D01*
X104641618Y-94250000D01*
X104750000Y-94250000D01*
X104750000Y-93444560D01*
X104803147Y-93475245D01*
X104932857Y-93510000D01*
X105067143Y-93510000D01*
X105196853Y-93475245D01*
X105250000Y-93444560D01*
X105250000Y-94250000D01*
X105358382Y-94250000D01*
X105552705Y-94219221D01*
X105739835Y-94158418D01*
X105915143Y-94069095D01*
X106074321Y-93953444D01*
X106213444Y-93814321D01*
X106329095Y-93655143D01*
X106418418Y-93479837D01*
X106479218Y-93292716D01*
X106485984Y-93250000D01*
X105444560Y-93250000D01*
X105475245Y-93196853D01*
X105510000Y-93067143D01*
X105510000Y-92932857D01*
X105475245Y-92803147D01*
X105444560Y-92750000D01*
X106485984Y-92750000D01*
X106479218Y-92707283D01*
X106418418Y-92520162D01*
X106329095Y-92344856D01*
X106213444Y-92185678D01*
X106074321Y-92046555D01*
X105915143Y-91930904D01*
X105739835Y-91841581D01*
X105552705Y-91780778D01*
X105358382Y-91750000D01*
X105250000Y-91750000D01*
X105250000Y-92555439D01*
X105196853Y-92524755D01*
X105067143Y-92490000D01*
X104932857Y-92490000D01*
X104803147Y-92524755D01*
X104750000Y-92555439D01*
X104750000Y-91750000D01*
X104641618Y-91750000D01*
X104447294Y-91780778D01*
X104260164Y-91841581D01*
X104084856Y-91930904D01*
X103925678Y-92046555D01*
X103786555Y-92185678D01*
X103670904Y-92344856D01*
X103581581Y-92520162D01*
X103520781Y-92707283D01*
X103514016Y-92750000D01*
X94463471Y-92750000D01*
X94340819Y-92627348D01*
X94307334Y-92566025D01*
X94304500Y-92539667D01*
X94304500Y-91385258D01*
X107569500Y-91385258D01*
X107569500Y-91614741D01*
X107586630Y-91744848D01*
X107599452Y-91842238D01*
X107617415Y-91909276D01*
X107658842Y-92063887D01*
X107746650Y-92275876D01*
X107746657Y-92275890D01*
X107861392Y-92474617D01*
X108001081Y-92656661D01*
X108001089Y-92656670D01*
X108163330Y-92818911D01*
X108163338Y-92818918D01*
X108345382Y-92958607D01*
X108345385Y-92958608D01*
X108345388Y-92958611D01*
X108544112Y-93073344D01*
X108544117Y-93073346D01*
X108544123Y-93073349D01*
X108567906Y-93083200D01*
X108756113Y-93161158D01*
X108977762Y-93220548D01*
X109205266Y-93250500D01*
X109205273Y-93250500D01*
X109434727Y-93250500D01*
X109434734Y-93250500D01*
X109662238Y-93220548D01*
X109883887Y-93161158D01*
X110095888Y-93073344D01*
X110294612Y-92958611D01*
X110476661Y-92818919D01*
X110476665Y-92818914D01*
X110476670Y-92818911D01*
X110638911Y-92656670D01*
X110638914Y-92656665D01*
X110638919Y-92656661D01*
X110778611Y-92474612D01*
X110893344Y-92275888D01*
X110981158Y-92063887D01*
X111040548Y-91842238D01*
X111070500Y-91614734D01*
X111070500Y-91385266D01*
X111040548Y-91157762D01*
X110981158Y-90936113D01*
X110927907Y-90807553D01*
X110893349Y-90724123D01*
X110893346Y-90724117D01*
X110893344Y-90724112D01*
X110778611Y-90525388D01*
X110778608Y-90525385D01*
X110778607Y-90525382D01*
X110638918Y-90343338D01*
X110638911Y-90343330D01*
X110476670Y-90181089D01*
X110476661Y-90181081D01*
X110294617Y-90041392D01*
X110272287Y-90028500D01*
X110156172Y-89961461D01*
X110095890Y-89926657D01*
X110095876Y-89926650D01*
X109883887Y-89838842D01*
X109662238Y-89779452D01*
X109624215Y-89774446D01*
X109434741Y-89749500D01*
X109434734Y-89749500D01*
X109205266Y-89749500D01*
X109205258Y-89749500D01*
X108988715Y-89778009D01*
X108977762Y-89779452D01*
X108884076Y-89804554D01*
X108756112Y-89838842D01*
X108544123Y-89926650D01*
X108544109Y-89926657D01*
X108345382Y-90041392D01*
X108163338Y-90181081D01*
X108001081Y-90343338D01*
X107861392Y-90525382D01*
X107746657Y-90724109D01*
X107746650Y-90724123D01*
X107658842Y-90936112D01*
X107599453Y-91157759D01*
X107599451Y-91157770D01*
X107569500Y-91385258D01*
X94304500Y-91385258D01*
X94304500Y-89226729D01*
X97170500Y-89226729D01*
X97170500Y-90248270D01*
X97176959Y-90308338D01*
X97176962Y-90308349D01*
X97227655Y-90444261D01*
X97227656Y-90444264D01*
X97227658Y-90444267D01*
X97238177Y-90458319D01*
X97314595Y-90560404D01*
X97336751Y-90576989D01*
X97430733Y-90647342D01*
X97430737Y-90647343D01*
X97430738Y-90647344D01*
X97566650Y-90698037D01*
X97566653Y-90698037D01*
X97566659Y-90698040D01*
X97579047Y-90699371D01*
X97626729Y-90704499D01*
X97626746Y-90704500D01*
X99873254Y-90704500D01*
X99873270Y-90704499D01*
X99914757Y-90700037D01*
X99933341Y-90698040D01*
X100069267Y-90647342D01*
X100185404Y-90560404D01*
X100190057Y-90554187D01*
X100245991Y-90512318D01*
X100289323Y-90504500D01*
X103619413Y-90504500D01*
X103686452Y-90524185D01*
X103732207Y-90576989D01*
X103738826Y-90601117D01*
X103740178Y-90600798D01*
X103741962Y-90608349D01*
X103792655Y-90744261D01*
X103792656Y-90744264D01*
X103792658Y-90744267D01*
X103821315Y-90782549D01*
X103879595Y-90860404D01*
X103932783Y-90900219D01*
X103995733Y-90947342D01*
X103995737Y-90947343D01*
X103995738Y-90947344D01*
X104131650Y-90998037D01*
X104131653Y-90998037D01*
X104131659Y-90998040D01*
X104144047Y-90999371D01*
X104191729Y-91004499D01*
X104191746Y-91004500D01*
X105808254Y-91004500D01*
X105808270Y-91004499D01*
X105849757Y-91000037D01*
X105868341Y-90998040D01*
X106004267Y-90947342D01*
X106120404Y-90860404D01*
X106207342Y-90744267D01*
X106258040Y-90608341D01*
X106261411Y-90576989D01*
X106264499Y-90548270D01*
X106264500Y-90548253D01*
X106264500Y-89451746D01*
X106264499Y-89451729D01*
X106258040Y-89391661D01*
X106258040Y-89391659D01*
X106207342Y-89255733D01*
X106163707Y-89197443D01*
X106120404Y-89139595D01*
X106043126Y-89081747D01*
X106004267Y-89052658D01*
X106004264Y-89052656D01*
X106004261Y-89052655D01*
X105868349Y-89001962D01*
X105868338Y-89001959D01*
X105808270Y-88995500D01*
X105808254Y-88995500D01*
X104191746Y-88995500D01*
X104191729Y-88995500D01*
X104131661Y-89001959D01*
X104131650Y-89001962D01*
X103995738Y-89052655D01*
X103995730Y-89052660D01*
X103879595Y-89139595D01*
X103792660Y-89255730D01*
X103792655Y-89255738D01*
X103741962Y-89391650D01*
X103740178Y-89399202D01*
X103737027Y-89398457D01*
X103715962Y-89449309D01*
X103658569Y-89489156D01*
X103619413Y-89495500D01*
X100453500Y-89495500D01*
X100386461Y-89475815D01*
X100340706Y-89423011D01*
X100329500Y-89371500D01*
X100329500Y-89226746D01*
X100329499Y-89226729D01*
X100323040Y-89166661D01*
X100323040Y-89166659D01*
X100280520Y-89052660D01*
X100272344Y-89030738D01*
X100272343Y-89030737D01*
X100272342Y-89030733D01*
X100217240Y-88957124D01*
X100185404Y-88914595D01*
X100095276Y-88847128D01*
X100069267Y-88827658D01*
X100069264Y-88827656D01*
X100069261Y-88827655D01*
X99933349Y-88776962D01*
X99933338Y-88776959D01*
X99873270Y-88770500D01*
X99873254Y-88770500D01*
X97626746Y-88770500D01*
X97626729Y-88770500D01*
X97566661Y-88776959D01*
X97566650Y-88776962D01*
X97430738Y-88827655D01*
X97430730Y-88827660D01*
X97314595Y-88914595D01*
X97227660Y-89030730D01*
X97227655Y-89030738D01*
X97176962Y-89166650D01*
X97176959Y-89166661D01*
X97170500Y-89226729D01*
X94304500Y-89226729D01*
X94304500Y-84528499D01*
X94324185Y-84461460D01*
X94376989Y-84415705D01*
X94428500Y-84404499D01*
X95298251Y-84404499D01*
X95298254Y-84404499D01*
X95358342Y-84398040D01*
X95494267Y-84347342D01*
X95610404Y-84260404D01*
X95697342Y-84144267D01*
X95748040Y-84008342D01*
X95750800Y-83982664D01*
X95754499Y-83948271D01*
X95754499Y-83948264D01*
X95754500Y-83948255D01*
X95754499Y-82551746D01*
X95754497Y-82551728D01*
X96745500Y-82551728D01*
X96745500Y-83948251D01*
X96745501Y-83948257D01*
X96751960Y-84008344D01*
X96802655Y-84144261D01*
X96802656Y-84144264D01*
X96802658Y-84144267D01*
X96831747Y-84183126D01*
X96889595Y-84260404D01*
X96947443Y-84303707D01*
X97005733Y-84347342D01*
X97141658Y-84398040D01*
X97201745Y-84404500D01*
X98121500Y-84404499D01*
X98188539Y-84424183D01*
X98234294Y-84476987D01*
X98245500Y-84528499D01*
X98245500Y-85671500D01*
X98225815Y-85738539D01*
X98173011Y-85784294D01*
X98121500Y-85795500D01*
X97626729Y-85795500D01*
X97566661Y-85801959D01*
X97566650Y-85801962D01*
X97430738Y-85852655D01*
X97430730Y-85852660D01*
X97314595Y-85939595D01*
X97227660Y-86055730D01*
X97227655Y-86055738D01*
X97176962Y-86191650D01*
X97176959Y-86191661D01*
X97170500Y-86251729D01*
X97170500Y-87273270D01*
X97176959Y-87333338D01*
X97176962Y-87333349D01*
X97227655Y-87469261D01*
X97227656Y-87469264D01*
X97227658Y-87469267D01*
X97254605Y-87505265D01*
X97314595Y-87585404D01*
X97372443Y-87628707D01*
X97430733Y-87672342D01*
X97430737Y-87672343D01*
X97430738Y-87672344D01*
X97566650Y-87723037D01*
X97566653Y-87723037D01*
X97566659Y-87723040D01*
X97579047Y-87724371D01*
X97626729Y-87729499D01*
X97626746Y-87729500D01*
X99873254Y-87729500D01*
X99873270Y-87729499D01*
X99914757Y-87725037D01*
X99933341Y-87723040D01*
X100069267Y-87672342D01*
X100185404Y-87585404D01*
X100272342Y-87469267D01*
X100323040Y-87333341D01*
X100325037Y-87314757D01*
X100329499Y-87273270D01*
X100329500Y-87273253D01*
X100329500Y-86251746D01*
X100329499Y-86251729D01*
X100323040Y-86191661D01*
X100323040Y-86191659D01*
X100321764Y-86188239D01*
X100272344Y-86055738D01*
X100272343Y-86055737D01*
X100272342Y-86055733D01*
X100228707Y-85997443D01*
X100185404Y-85939595D01*
X100108126Y-85881747D01*
X100069267Y-85852658D01*
X100069264Y-85852656D01*
X100069261Y-85852655D01*
X99933349Y-85801962D01*
X99933338Y-85801959D01*
X99873270Y-85795500D01*
X99873254Y-85795500D01*
X99378500Y-85795500D01*
X99311461Y-85775815D01*
X99265706Y-85723011D01*
X99254500Y-85671500D01*
X99254500Y-84528499D01*
X99274185Y-84461460D01*
X99326989Y-84415705D01*
X99378500Y-84404499D01*
X100298251Y-84404499D01*
X100298254Y-84404499D01*
X100358342Y-84398040D01*
X100494267Y-84347342D01*
X100610404Y-84260404D01*
X100697342Y-84144267D01*
X100748040Y-84008342D01*
X100750800Y-83982664D01*
X100754499Y-83948271D01*
X100754499Y-83948264D01*
X100754500Y-83948255D01*
X100754499Y-82551746D01*
X100748040Y-82491658D01*
X100697342Y-82355733D01*
X100653707Y-82297443D01*
X100610404Y-82239595D01*
X100533126Y-82181747D01*
X100494267Y-82152658D01*
X100358342Y-82101960D01*
X100358338Y-82101959D01*
X100298262Y-82095500D01*
X97201748Y-82095500D01*
X97201742Y-82095501D01*
X97141655Y-82101960D01*
X97005738Y-82152655D01*
X97005730Y-82152660D01*
X96889595Y-82239595D01*
X96802660Y-82355730D01*
X96802658Y-82355733D01*
X96751960Y-82491658D01*
X96751959Y-82491662D01*
X96745500Y-82551728D01*
X95754497Y-82551728D01*
X95748040Y-82491658D01*
X95697342Y-82355733D01*
X95653707Y-82297443D01*
X95610404Y-82239595D01*
X95533126Y-82181747D01*
X95494267Y-82152658D01*
X95358342Y-82101960D01*
X95358338Y-82101959D01*
X95298262Y-82095500D01*
X92201748Y-82095500D01*
X92201742Y-82095501D01*
X92141655Y-82101960D01*
X92005738Y-82152655D01*
X92005730Y-82152660D01*
X91889595Y-82239595D01*
X91802660Y-82355730D01*
X91802658Y-82355733D01*
X91751960Y-82491658D01*
X91751959Y-82491662D01*
X91745500Y-82551728D01*
X91745500Y-82621500D01*
X91725815Y-82688539D01*
X91673011Y-82734294D01*
X91621500Y-82745500D01*
X79483581Y-82745500D01*
X79393387Y-82769667D01*
X79355265Y-82779882D01*
X79313161Y-82804191D01*
X79240236Y-82846295D01*
X79240227Y-82846301D01*
X77611301Y-84475227D01*
X77611295Y-84475236D01*
X77569190Y-84548160D01*
X77569191Y-84548161D01*
X77544882Y-84590265D01*
X77544881Y-84590270D01*
X77510500Y-84718581D01*
X77510500Y-84718583D01*
X77510500Y-96961500D01*
X77490815Y-97028539D01*
X77438011Y-97074294D01*
X77386500Y-97085500D01*
X77216727Y-97085500D01*
X77156660Y-97091959D01*
X77156653Y-97091961D01*
X77020734Y-97142655D01*
X77020732Y-97142656D01*
X76904596Y-97229596D01*
X76817656Y-97345732D01*
X76817655Y-97345734D01*
X76766961Y-97481653D01*
X76766959Y-97481660D01*
X76760500Y-97541727D01*
X75250000Y-97541727D01*
X75250000Y-75124500D01*
X75269685Y-75057461D01*
X75322489Y-75011706D01*
X75374000Y-75000500D01*
X104776000Y-75000500D01*
X104843039Y-75020185D01*
G37*
%TD.AperFunction*%
%TD*%
M02*
