%TF.GenerationSoftware,KiCad,Pcbnew,9.0.2*%
%TF.CreationDate,2025-07-01T15:14:05+08:00*%
%TF.ProjectId,tsal_r_v3,7473616c-5f72-45f7-9633-2e6b69636164,rev?*%
%TF.SameCoordinates,Original*%
%TF.FileFunction,Paste,Top*%
%TF.FilePolarity,Positive*%
%FSLAX46Y46*%
G04 Gerber Fmt 4.6, Leading zero omitted, Abs format (unit mm)*
G04 Created by KiCad (PCBNEW 9.0.2) date 2025-07-01 15:14:05*
%MOMM*%
%LPD*%
G01*
G04 APERTURE LIST*
G04 Aperture macros list*
%AMRoundRect*
0 Rectangle with rounded corners*
0 $1 Rounding radius*
0 $2 $3 $4 $5 $6 $7 $8 $9 X,Y pos of 4 corners*
0 Add a 4 corners polygon primitive as box body*
4,1,4,$2,$3,$4,$5,$6,$7,$8,$9,$2,$3,0*
0 Add four circle primitives for the rounded corners*
1,1,$1+$1,$2,$3*
1,1,$1+$1,$4,$5*
1,1,$1+$1,$6,$7*
1,1,$1+$1,$8,$9*
0 Add four rect primitives between the rounded corners*
20,1,$1+$1,$2,$3,$4,$5,0*
20,1,$1+$1,$4,$5,$6,$7,0*
20,1,$1+$1,$6,$7,$8,$9,0*
20,1,$1+$1,$8,$9,$2,$3,0*%
G04 Aperture macros list end*
%ADD10RoundRect,0.305575X0.460025X0.412525X-0.460025X0.412525X-0.460025X-0.412525X0.460025X-0.412525X0*%
%ADD11RoundRect,0.308511X0.457089X0.416489X-0.457089X0.416489X-0.457089X-0.416489X0.457089X-0.416489X0*%
%ADD12RoundRect,0.278125X0.474375X0.389375X-0.474375X0.389375X-0.474375X-0.389375X0.474375X-0.389375X0*%
%ADD13RoundRect,0.278125X-0.389375X0.474375X-0.389375X-0.474375X0.389375X-0.474375X0.389375X0.474375X0*%
%ADD14RoundRect,0.150000X0.150000X-1.350000X0.150000X1.350000X-0.150000X1.350000X-0.150000X-1.350000X0*%
%ADD15RoundRect,0.150000X0.150000X-1.337500X0.150000X1.337500X-0.150000X1.337500X-0.150000X-1.337500X0*%
%ADD16RoundRect,0.305575X0.412525X-0.460025X0.412525X0.460025X-0.412525X0.460025X-0.412525X-0.460025X0*%
%ADD17RoundRect,0.308511X0.416489X-0.457089X0.416489X0.457089X-0.416489X0.457089X-0.416489X-0.457089X0*%
%ADD18RoundRect,0.251116X3.376384X-2.561384X3.376384X2.561384X-3.376384X2.561384X-3.376384X-2.561384X0*%
%ADD19RoundRect,0.305575X-0.460025X-0.412525X0.460025X-0.412525X0.460025X0.412525X-0.460025X0.412525X0*%
%ADD20RoundRect,0.308511X-0.457089X-0.416489X0.457089X-0.416489X0.457089X0.416489X-0.457089X0.416489X0*%
%ADD21RoundRect,0.305575X-0.412525X0.460025X-0.412525X-0.460025X0.412525X-0.460025X0.412525X0.460025X0*%
%ADD22RoundRect,0.308511X-0.416489X0.457089X-0.416489X-0.457089X0.416489X-0.457089X0.416489X0.457089X0*%
%ADD23RoundRect,0.150000X-1.350000X-0.150000X1.350000X-0.150000X1.350000X0.150000X-1.350000X0.150000X0*%
%ADD24RoundRect,0.150000X-1.337500X-0.150000X1.337500X-0.150000X1.337500X0.150000X-1.337500X0.150000X0*%
%ADD25RoundRect,0.250001X1.074999X-0.462499X1.074999X0.462499X-1.074999X0.462499X-1.074999X-0.462499X0*%
%ADD26RoundRect,0.150000X-0.750000X-0.150000X0.750000X-0.150000X0.750000X0.150000X-0.750000X0.150000X0*%
%ADD27RoundRect,0.278125X0.389375X-0.474375X0.389375X0.474375X-0.389375X0.474375X-0.389375X-0.474375X0*%
%ADD28RoundRect,0.278125X-0.474375X-0.389375X0.474375X-0.389375X0.474375X0.389375X-0.474375X0.389375X0*%
%ADD29RoundRect,0.375000X-0.625000X-0.375000X0.625000X-0.375000X0.625000X0.375000X-0.625000X0.375000X0*%
%ADD30RoundRect,0.500000X-0.500000X-1.400000X0.500000X-1.400000X0.500000X1.400000X-0.500000X1.400000X0*%
%ADD31RoundRect,0.250000X-1.500000X-0.650000X1.500000X-0.650000X1.500000X0.650000X-1.500000X0.650000X0*%
%ADD32RoundRect,0.150000X0.150000X-0.750000X0.150000X0.750000X-0.150000X0.750000X-0.150000X-0.750000X0*%
%ADD33RoundRect,0.249999X-0.750001X-0.640001X0.750001X-0.640001X0.750001X0.640001X-0.750001X0.640001X0*%
%ADD34RoundRect,0.304348X-0.395652X0.420652X-0.395652X-0.420652X0.395652X-0.420652X0.395652X0.420652X0*%
G04 APERTURE END LIST*
D10*
%TO.C,C3*%
X57000000Y-94730000D03*
D11*
X54568800Y-94723100D03*
%TD*%
D12*
%TO.C,R9*%
X29591250Y-119045000D03*
X27286250Y-119045000D03*
%TD*%
D13*
%TO.C,R11*%
X50532500Y-103195000D03*
X50532500Y-105500000D03*
%TD*%
%TO.C,R16*%
X83750000Y-89695000D03*
X83750000Y-92000000D03*
%TD*%
D14*
%TO.C,U2*%
X86595000Y-99500000D03*
X87865000Y-99500000D03*
D15*
X89000000Y-99512500D03*
D14*
X90405000Y-99500000D03*
X90405000Y-93500000D03*
X89135000Y-93500000D03*
X87865000Y-93500000D03*
X86595000Y-93500000D03*
%TD*%
D16*
%TO.C,C9*%
X55708700Y-113715600D03*
D17*
X55715600Y-111284400D03*
%TD*%
D18*
%TO.C,F1*%
X31600000Y-91800000D03*
X31600000Y-81250000D03*
%TD*%
D16*
%TO.C,C4*%
X58444600Y-113681200D03*
D17*
X58451500Y-111250000D03*
%TD*%
D19*
%TO.C,C8*%
X86818800Y-103743100D03*
D20*
X89250000Y-103750000D03*
%TD*%
D21*
%TO.C,C5*%
X88506900Y-111284400D03*
D22*
X88500000Y-113715600D03*
%TD*%
D23*
%TO.C,LM1*%
X54750000Y-97460000D03*
X54750000Y-98730000D03*
D24*
X54737500Y-99865000D03*
D23*
X54750000Y-101270000D03*
X60750000Y-101270000D03*
X60750000Y-100000000D03*
X60750000Y-98730000D03*
X60750000Y-97460000D03*
%TD*%
D21*
%TO.C,C2*%
X50506900Y-98088800D03*
D22*
X50500000Y-100520000D03*
%TD*%
D25*
%TO.C,F2*%
X98750000Y-89737500D03*
X98750000Y-86762500D03*
%TD*%
D21*
%TO.C,C6*%
X80750000Y-89631900D03*
D22*
X80743100Y-92063100D03*
%TD*%
D21*
%TO.C,C1*%
X44914100Y-108905000D03*
D22*
X44907200Y-111336200D03*
%TD*%
D26*
%TO.C,U1*%
X50164100Y-109300000D03*
X50164100Y-111200000D03*
X52364100Y-110250000D03*
%TD*%
D13*
%TO.C,R1*%
X47446600Y-108945000D03*
X47446600Y-111250000D03*
%TD*%
%TO.C,R12*%
X65032500Y-97097500D03*
X65032500Y-99402500D03*
%TD*%
%TO.C,R5*%
X29760000Y-99132500D03*
X29760000Y-101437500D03*
%TD*%
D27*
%TO.C,R10*%
X50467500Y-95402500D03*
X50467500Y-93097500D03*
%TD*%
D28*
%TO.C,R4*%
X53195000Y-105750000D03*
X55500000Y-105750000D03*
%TD*%
D26*
%TO.C,U5*%
X94050000Y-95550000D03*
X94050000Y-97450000D03*
X96250000Y-96500000D03*
%TD*%
D13*
%TO.C,R19*%
X105000000Y-98750000D03*
X105000000Y-101055000D03*
%TD*%
D12*
%TO.C,R15*%
X83250000Y-95532500D03*
X80945000Y-95532500D03*
%TD*%
D29*
%TO.C,Q2*%
X91700000Y-108950000D03*
X91700000Y-111250000D03*
D30*
X98000000Y-111250000D03*
D29*
X91700000Y-113550000D03*
%TD*%
D31*
%TO.C,D2*%
X93750000Y-83250000D03*
X98750000Y-83250000D03*
%TD*%
D12*
%TO.C,R17*%
X89055000Y-89500000D03*
X86750000Y-89500000D03*
%TD*%
D27*
%TO.C,R6*%
X29695000Y-106447500D03*
X29695000Y-104142500D03*
%TD*%
D13*
%TO.C,R7*%
X29737500Y-109142500D03*
X29737500Y-111447500D03*
%TD*%
D32*
%TO.C,U4*%
X82050000Y-100750000D03*
X83950000Y-100750000D03*
X83000000Y-98550000D03*
%TD*%
D33*
%TO.C,U7*%
X68485000Y-98230000D03*
X68485000Y-100770000D03*
X78015000Y-100770000D03*
X78015000Y-98230000D03*
%TD*%
D13*
%TO.C,R20*%
X99400000Y-93895000D03*
X99400000Y-96200000D03*
%TD*%
D27*
%TO.C,R8*%
X29672500Y-116350000D03*
X29672500Y-114045000D03*
%TD*%
D13*
%TO.C,R13*%
X68250000Y-92500000D03*
X68250000Y-94805000D03*
%TD*%
D12*
%TO.C,R3*%
X32100000Y-96532500D03*
X29795000Y-96532500D03*
%TD*%
D21*
%TO.C,C7*%
X91750000Y-87000000D03*
D22*
X91743100Y-89431200D03*
%TD*%
D28*
%TO.C,R14*%
X81445000Y-103717500D03*
X83750000Y-103717500D03*
%TD*%
D34*
%TO.C,D3*%
X107467500Y-98727500D03*
X107467500Y-101077500D03*
%TD*%
D21*
%TO.C,C10*%
X85513800Y-111284400D03*
D22*
X85506900Y-113715600D03*
%TD*%
D28*
%TO.C,R2*%
X50111600Y-113750000D03*
X52416600Y-113750000D03*
%TD*%
M02*
