%TF.GenerationSoftware,KiCad,Pcbnew,9.0.2*%
%TF.CreationDate,2025-07-25T15:12:23+08:00*%
%TF.ProjectId,tsal_r_v3,7473616c-5f72-45f7-9633-2e6b69636164,rev?*%
%TF.SameCoordinates,Original*%
%TF.FileFunction,Profile,NP*%
%FSLAX46Y46*%
G04 Gerber Fmt 4.6, Leading zero omitted, Abs format (unit mm)*
G04 Created by KiCad (PCBNEW 9.0.2) date 2025-07-25 15:12:23*
%MOMM*%
%LPD*%
G01*
G04 APERTURE LIST*
%TA.AperFunction,Profile*%
%ADD10C,0.050000*%
%TD*%
G04 APERTURE END LIST*
D10*
X37000000Y-106000000D02*
X41000000Y-102000000D01*
X72250000Y-80000000D02*
X74250000Y-80000000D01*
X74250000Y-97000000D01*
X72250000Y-97000000D01*
X72250000Y-80000000D01*
X41000000Y-95000000D02*
X39000000Y-95000000D01*
X35000000Y-110000000D02*
X37000000Y-110000000D01*
X35000000Y-113000000D02*
X36875000Y-113000000D01*
X36875000Y-120000000D01*
X35000000Y-120000000D01*
X35000000Y-113000000D01*
X41000000Y-102000000D02*
X41000000Y-95000000D01*
X39000000Y-80000000D02*
X41000000Y-80000000D01*
X41000000Y-92000000D01*
X39000000Y-92000000D01*
X39000000Y-80000000D01*
X72312500Y-102000000D02*
X74187500Y-102000000D01*
X74187500Y-120000000D01*
X72312500Y-120000000D01*
X72312500Y-102000000D01*
X39000000Y-95000000D02*
X39000000Y-101200000D01*
X39000000Y-101200000D02*
X35000000Y-105200000D01*
X37000000Y-110000000D02*
X37000000Y-106000000D01*
X15000000Y-75000000D02*
X115000000Y-75000000D01*
X115000000Y-125000000D01*
X15000000Y-125000000D01*
X15000000Y-75000000D01*
X35000000Y-105200000D02*
X35000000Y-110000000D01*
M02*
