M48
; DRILL file {KiCad 9.0.2} date 2025-07-25T15:12:28+0800
; FORMAT={-:-/ absolute / metric / decimal}
; #@! TF.CreationDate,2025-07-25T15:12:28+08:00
; #@! TF.GenerationSoftware,Kicad,Pcbnew,9.0.2
; #@! TF.FileFunction,Plated,1,2,PTH
FMAT,2
METRIC
; #@! TA.AperFunction,Plated,PTH,ViaDrill
T1C0.300
; #@! TA.AperFunction,Plated,PTH,ComponentDrill
T2C0.800
; #@! TA.AperFunction,Plated,PTH,ComponentDrill
T3C1.000
; #@! TA.AperFunction,Plated,PTH,ComponentDrill
T4C1.020
%
G90
G05
T1
X55.5Y-105.75
X57.0Y-94.73
X68.25Y-92.5
X77.4Y-82.4
X77.5Y-117.5
X78.015Y-98.23
X82.5Y-85.0
X82.5Y-117.5
X83.25Y-95.532
X87.5Y-77.5
X87.5Y-85.0
X87.5Y-117.5
X87.5Y-122.5
X90.405Y-99.5
X92.5Y-77.5
X92.5Y-117.5
X92.5Y-122.5
X95.0Y-105.0
X97.5Y-77.5
X97.5Y-117.5
X97.5Y-122.5
X102.5Y-77.5
X102.5Y-82.5
X102.5Y-117.5
X102.5Y-122.5
X110.0Y-100.0
T2
X47.5Y-93.25
X47.5Y-100.87
T3
X64.3Y-113.75
X69.38Y-113.75
X77.0Y-113.75
X79.54Y-113.75
T4
X25.0Y-90.0
X25.0Y-93.0
X25.0Y-107.0
X25.0Y-110.0
X105.0Y-90.0
X105.0Y-93.0
X105.0Y-107.0
X105.0Y-110.0
M30
