%TF.GenerationSoftware,KiCad,Pcbnew,9.0.2*%
%TF.CreationDate,2025-07-25T15:15:28+08:00*%
%TF.ProjectId,accum_pcb_up,61636375-6d5f-4706-9362-5f75702e6b69,rev?*%
%TF.SameCoordinates,Original*%
%TF.FileFunction,Legend,Top*%
%TF.FilePolarity,Positive*%
%FSLAX46Y46*%
G04 Gerber Fmt 4.6, Leading zero omitted, Abs format (unit mm)*
G04 Created by KiCad (PCBNEW 9.0.2) date 2025-07-25 15:15:28*
%MOMM*%
%LPD*%
G01*
G04 APERTURE LIST*
%ADD10C,0.200000*%
%ADD11C,0.150000*%
%ADD12C,0.120000*%
%ADD13C,0.000000*%
G04 APERTURE END LIST*
D10*
X501259054Y-183920600D02*
X502401912Y-183920600D01*
X405119720Y-183917600D02*
X406262578Y-183917600D01*
X405691149Y-184489028D02*
X405691149Y-183346171D01*
X415064345Y-208510814D02*
X416207203Y-208510814D01*
X416207203Y-208939385D02*
X415064345Y-208939385D01*
X214886068Y-183910100D02*
X216028926Y-183910100D01*
X215457497Y-184481528D02*
X215457497Y-183338671D01*
X481213387Y-183920600D02*
X482356245Y-183920600D01*
X481784816Y-184492028D02*
X481784816Y-183349171D01*
X148737330Y-208502314D02*
X149880188Y-208502314D01*
X149880188Y-208930885D02*
X148737330Y-208930885D01*
X491157649Y-208510814D02*
X492300507Y-208510814D01*
X492300507Y-208939385D02*
X491157649Y-208939385D01*
X453110997Y-208512314D02*
X454253855Y-208512314D01*
X454253855Y-208940885D02*
X453110997Y-208940885D01*
X463212039Y-183919100D02*
X464354897Y-183919100D01*
X120792039Y-183908100D02*
X121934897Y-183908100D01*
X234931735Y-183910100D02*
X236074593Y-183910100D01*
X349072024Y-183914600D02*
X350214882Y-183914600D01*
X196884720Y-183908600D02*
X198027578Y-183908600D01*
X387118372Y-183916100D02*
X388261230Y-183916100D01*
X377017330Y-208511314D02*
X378160188Y-208511314D01*
X378160188Y-208939885D02*
X377017330Y-208939885D01*
X367072705Y-183916100D02*
X368215563Y-183916100D01*
X367644134Y-184487528D02*
X367644134Y-183344671D01*
X110690997Y-208503314D02*
X111833855Y-208503314D01*
X111833855Y-208931885D02*
X110690997Y-208931885D01*
X491426028Y-186066279D02*
X489926028Y-186066279D01*
X489926028Y-186066279D02*
X491426028Y-185209136D01*
X491426028Y-185209136D02*
X489926028Y-185209136D01*
X491354600Y-183923421D02*
X491426028Y-184066278D01*
X491426028Y-184066278D02*
X491426028Y-184351993D01*
X491426028Y-184351993D02*
X491354600Y-184494850D01*
X491354600Y-184494850D02*
X491211742Y-184566278D01*
X491211742Y-184566278D02*
X490640314Y-184566278D01*
X490640314Y-184566278D02*
X490497457Y-184494850D01*
X490497457Y-184494850D02*
X490426028Y-184351993D01*
X490426028Y-184351993D02*
X490426028Y-184066278D01*
X490426028Y-184066278D02*
X490497457Y-183923421D01*
X490497457Y-183923421D02*
X490640314Y-183851993D01*
X490640314Y-183851993D02*
X490783171Y-183851993D01*
X490783171Y-183851993D02*
X490926028Y-184566278D01*
X490426028Y-182566279D02*
X491640314Y-182566279D01*
X491640314Y-182566279D02*
X491783171Y-182637707D01*
X491783171Y-182637707D02*
X491854600Y-182709136D01*
X491854600Y-182709136D02*
X491926028Y-182851993D01*
X491926028Y-182851993D02*
X491926028Y-183066279D01*
X491926028Y-183066279D02*
X491854600Y-183209136D01*
X491354600Y-182566279D02*
X491426028Y-182709136D01*
X491426028Y-182709136D02*
X491426028Y-182994850D01*
X491426028Y-182994850D02*
X491354600Y-183137707D01*
X491354600Y-183137707D02*
X491283171Y-183209136D01*
X491283171Y-183209136D02*
X491140314Y-183280564D01*
X491140314Y-183280564D02*
X490711742Y-183280564D01*
X490711742Y-183280564D02*
X490568885Y-183209136D01*
X490568885Y-183209136D02*
X490497457Y-183137707D01*
X490497457Y-183137707D02*
X490426028Y-182994850D01*
X490426028Y-182994850D02*
X490426028Y-182709136D01*
X490426028Y-182709136D02*
X490497457Y-182566279D01*
X491426028Y-181209136D02*
X490640314Y-181209136D01*
X490640314Y-181209136D02*
X490497457Y-181280564D01*
X490497457Y-181280564D02*
X490426028Y-181423421D01*
X490426028Y-181423421D02*
X490426028Y-181709136D01*
X490426028Y-181709136D02*
X490497457Y-181851993D01*
X491354600Y-181209136D02*
X491426028Y-181351993D01*
X491426028Y-181351993D02*
X491426028Y-181709136D01*
X491426028Y-181709136D02*
X491354600Y-181851993D01*
X491354600Y-181851993D02*
X491211742Y-181923421D01*
X491211742Y-181923421D02*
X491068885Y-181923421D01*
X491068885Y-181923421D02*
X490926028Y-181851993D01*
X490926028Y-181851993D02*
X490854600Y-181709136D01*
X490854600Y-181709136D02*
X490854600Y-181351993D01*
X490854600Y-181351993D02*
X490783171Y-181209136D01*
X490426028Y-180709135D02*
X490426028Y-180137707D01*
X489926028Y-180494850D02*
X491211742Y-180494850D01*
X491211742Y-180494850D02*
X491354600Y-180423421D01*
X491354600Y-180423421D02*
X491426028Y-180280564D01*
X491426028Y-180280564D02*
X491426028Y-180137707D01*
X491426028Y-179637707D02*
X490426028Y-179637707D01*
X489926028Y-179637707D02*
X489997457Y-179709135D01*
X489997457Y-179709135D02*
X490068885Y-179637707D01*
X490068885Y-179637707D02*
X489997457Y-179566278D01*
X489997457Y-179566278D02*
X489926028Y-179637707D01*
X489926028Y-179637707D02*
X490068885Y-179637707D01*
X490426028Y-179066278D02*
X491426028Y-178709135D01*
X491426028Y-178709135D02*
X490426028Y-178351992D01*
X491354600Y-177209135D02*
X491426028Y-177351992D01*
X491426028Y-177351992D02*
X491426028Y-177637707D01*
X491426028Y-177637707D02*
X491354600Y-177780564D01*
X491354600Y-177780564D02*
X491211742Y-177851992D01*
X491211742Y-177851992D02*
X490640314Y-177851992D01*
X490640314Y-177851992D02*
X490497457Y-177780564D01*
X490497457Y-177780564D02*
X490426028Y-177637707D01*
X490426028Y-177637707D02*
X490426028Y-177351992D01*
X490426028Y-177351992D02*
X490497457Y-177209135D01*
X490497457Y-177209135D02*
X490640314Y-177137707D01*
X490640314Y-177137707D02*
X490783171Y-177137707D01*
X490783171Y-177137707D02*
X490926028Y-177851992D01*
X489926028Y-175066278D02*
X489926028Y-174780564D01*
X489926028Y-174780564D02*
X489997457Y-174637707D01*
X489997457Y-174637707D02*
X490140314Y-174494850D01*
X490140314Y-174494850D02*
X490426028Y-174423421D01*
X490426028Y-174423421D02*
X490926028Y-174423421D01*
X490926028Y-174423421D02*
X491211742Y-174494850D01*
X491211742Y-174494850D02*
X491354600Y-174637707D01*
X491354600Y-174637707D02*
X491426028Y-174780564D01*
X491426028Y-174780564D02*
X491426028Y-175066278D01*
X491426028Y-175066278D02*
X491354600Y-175209136D01*
X491354600Y-175209136D02*
X491211742Y-175351993D01*
X491211742Y-175351993D02*
X490926028Y-175423421D01*
X490926028Y-175423421D02*
X490426028Y-175423421D01*
X490426028Y-175423421D02*
X490140314Y-175351993D01*
X490140314Y-175351993D02*
X489997457Y-175209136D01*
X489997457Y-175209136D02*
X489926028Y-175066278D01*
X490426028Y-173137707D02*
X491426028Y-173137707D01*
X490426028Y-173780564D02*
X491211742Y-173780564D01*
X491211742Y-173780564D02*
X491354600Y-173709135D01*
X491354600Y-173709135D02*
X491426028Y-173566278D01*
X491426028Y-173566278D02*
X491426028Y-173351992D01*
X491426028Y-173351992D02*
X491354600Y-173209135D01*
X491354600Y-173209135D02*
X491283171Y-173137707D01*
X490426028Y-172637706D02*
X490426028Y-172066278D01*
X489926028Y-172423421D02*
X491211742Y-172423421D01*
X491211742Y-172423421D02*
X491354600Y-172351992D01*
X491354600Y-172351992D02*
X491426028Y-172209135D01*
X491426028Y-172209135D02*
X491426028Y-172066278D01*
X272978387Y-183911600D02*
X274121245Y-183911600D01*
X290979735Y-183913100D02*
X292122593Y-183913100D01*
X291551164Y-184484528D02*
X291551164Y-183341671D01*
X224823120Y-208503314D02*
X225965978Y-208503314D01*
X225965978Y-208931885D02*
X224823120Y-208931885D01*
X138792705Y-183907100D02*
X139935563Y-183907100D01*
X139364134Y-184478528D02*
X139364134Y-183335671D01*
X338970982Y-208509814D02*
X340113840Y-208509814D01*
X340113840Y-208938385D02*
X338970982Y-208938385D01*
X112619028Y-185971279D02*
X111119028Y-185971279D01*
X111119028Y-185971279D02*
X111119028Y-185399850D01*
X111119028Y-185399850D02*
X111190457Y-185256993D01*
X111190457Y-185256993D02*
X111261885Y-185185564D01*
X111261885Y-185185564D02*
X111404742Y-185114136D01*
X111404742Y-185114136D02*
X111619028Y-185114136D01*
X111619028Y-185114136D02*
X111761885Y-185185564D01*
X111761885Y-185185564D02*
X111833314Y-185256993D01*
X111833314Y-185256993D02*
X111904742Y-185399850D01*
X111904742Y-185399850D02*
X111904742Y-185971279D01*
X112619028Y-184256993D02*
X112547600Y-184399850D01*
X112547600Y-184399850D02*
X112476171Y-184471279D01*
X112476171Y-184471279D02*
X112333314Y-184542707D01*
X112333314Y-184542707D02*
X111904742Y-184542707D01*
X111904742Y-184542707D02*
X111761885Y-184471279D01*
X111761885Y-184471279D02*
X111690457Y-184399850D01*
X111690457Y-184399850D02*
X111619028Y-184256993D01*
X111619028Y-184256993D02*
X111619028Y-184042707D01*
X111619028Y-184042707D02*
X111690457Y-183899850D01*
X111690457Y-183899850D02*
X111761885Y-183828422D01*
X111761885Y-183828422D02*
X111904742Y-183756993D01*
X111904742Y-183756993D02*
X112333314Y-183756993D01*
X112333314Y-183756993D02*
X112476171Y-183828422D01*
X112476171Y-183828422D02*
X112547600Y-183899850D01*
X112547600Y-183899850D02*
X112619028Y-184042707D01*
X112619028Y-184042707D02*
X112619028Y-184256993D01*
X112547600Y-183185564D02*
X112619028Y-183042707D01*
X112619028Y-183042707D02*
X112619028Y-182756993D01*
X112619028Y-182756993D02*
X112547600Y-182614136D01*
X112547600Y-182614136D02*
X112404742Y-182542707D01*
X112404742Y-182542707D02*
X112333314Y-182542707D01*
X112333314Y-182542707D02*
X112190457Y-182614136D01*
X112190457Y-182614136D02*
X112119028Y-182756993D01*
X112119028Y-182756993D02*
X112119028Y-182971279D01*
X112119028Y-182971279D02*
X112047600Y-183114136D01*
X112047600Y-183114136D02*
X111904742Y-183185564D01*
X111904742Y-183185564D02*
X111833314Y-183185564D01*
X111833314Y-183185564D02*
X111690457Y-183114136D01*
X111690457Y-183114136D02*
X111619028Y-182971279D01*
X111619028Y-182971279D02*
X111619028Y-182756993D01*
X111619028Y-182756993D02*
X111690457Y-182614136D01*
X112619028Y-181899850D02*
X111619028Y-181899850D01*
X111119028Y-181899850D02*
X111190457Y-181971278D01*
X111190457Y-181971278D02*
X111261885Y-181899850D01*
X111261885Y-181899850D02*
X111190457Y-181828421D01*
X111190457Y-181828421D02*
X111119028Y-181899850D01*
X111119028Y-181899850D02*
X111261885Y-181899850D01*
X111619028Y-181399849D02*
X111619028Y-180828421D01*
X111119028Y-181185564D02*
X112404742Y-181185564D01*
X112404742Y-181185564D02*
X112547600Y-181114135D01*
X112547600Y-181114135D02*
X112619028Y-180971278D01*
X112619028Y-180971278D02*
X112619028Y-180828421D01*
X112619028Y-180328421D02*
X111619028Y-180328421D01*
X111119028Y-180328421D02*
X111190457Y-180399849D01*
X111190457Y-180399849D02*
X111261885Y-180328421D01*
X111261885Y-180328421D02*
X111190457Y-180256992D01*
X111190457Y-180256992D02*
X111119028Y-180328421D01*
X111119028Y-180328421D02*
X111261885Y-180328421D01*
X111619028Y-179756992D02*
X112619028Y-179399849D01*
X112619028Y-179399849D02*
X111619028Y-179042706D01*
X112547600Y-177899849D02*
X112619028Y-178042706D01*
X112619028Y-178042706D02*
X112619028Y-178328421D01*
X112619028Y-178328421D02*
X112547600Y-178471278D01*
X112547600Y-178471278D02*
X112404742Y-178542706D01*
X112404742Y-178542706D02*
X111833314Y-178542706D01*
X111833314Y-178542706D02*
X111690457Y-178471278D01*
X111690457Y-178471278D02*
X111619028Y-178328421D01*
X111619028Y-178328421D02*
X111619028Y-178042706D01*
X111619028Y-178042706D02*
X111690457Y-177899849D01*
X111690457Y-177899849D02*
X111833314Y-177828421D01*
X111833314Y-177828421D02*
X111976171Y-177828421D01*
X111976171Y-177828421D02*
X112119028Y-178542706D01*
X111119028Y-175756992D02*
X111119028Y-175471278D01*
X111119028Y-175471278D02*
X111190457Y-175328421D01*
X111190457Y-175328421D02*
X111333314Y-175185564D01*
X111333314Y-175185564D02*
X111619028Y-175114135D01*
X111619028Y-175114135D02*
X112119028Y-175114135D01*
X112119028Y-175114135D02*
X112404742Y-175185564D01*
X112404742Y-175185564D02*
X112547600Y-175328421D01*
X112547600Y-175328421D02*
X112619028Y-175471278D01*
X112619028Y-175471278D02*
X112619028Y-175756992D01*
X112619028Y-175756992D02*
X112547600Y-175899850D01*
X112547600Y-175899850D02*
X112404742Y-176042707D01*
X112404742Y-176042707D02*
X112119028Y-176114135D01*
X112119028Y-176114135D02*
X111619028Y-176114135D01*
X111619028Y-176114135D02*
X111333314Y-176042707D01*
X111333314Y-176042707D02*
X111190457Y-175899850D01*
X111190457Y-175899850D02*
X111119028Y-175756992D01*
X111619028Y-173828421D02*
X112619028Y-173828421D01*
X111619028Y-174471278D02*
X112404742Y-174471278D01*
X112404742Y-174471278D02*
X112547600Y-174399849D01*
X112547600Y-174399849D02*
X112619028Y-174256992D01*
X112619028Y-174256992D02*
X112619028Y-174042706D01*
X112619028Y-174042706D02*
X112547600Y-173899849D01*
X112547600Y-173899849D02*
X112476171Y-173828421D01*
X111619028Y-173328420D02*
X111619028Y-172756992D01*
X111119028Y-173114135D02*
X112404742Y-173114135D01*
X112404742Y-173114135D02*
X112547600Y-173042706D01*
X112547600Y-173042706D02*
X112619028Y-172899849D01*
X112619028Y-172899849D02*
X112619028Y-172756992D01*
X300923997Y-208503314D02*
X302066855Y-208503314D01*
X302066855Y-208931885D02*
X300923997Y-208931885D01*
X176839053Y-183908600D02*
X177981911Y-183908600D01*
X177410482Y-184480028D02*
X177410482Y-183337171D01*
X186783678Y-208503814D02*
X187926536Y-208503814D01*
X187926536Y-208932385D02*
X186783678Y-208932385D01*
X100746372Y-183908100D02*
X101889230Y-183908100D01*
X101317801Y-184479528D02*
X101317801Y-183336671D01*
X262877345Y-208504814D02*
X264020203Y-208504814D01*
X264020203Y-208933385D02*
X262877345Y-208933385D01*
X252932720Y-183911600D02*
X254075578Y-183911600D01*
X253504149Y-184483028D02*
X253504149Y-183340171D01*
X443166372Y-183919100D02*
X444309230Y-183919100D01*
X443737801Y-184490528D02*
X443737801Y-183347671D01*
X329026357Y-183914600D02*
X330169215Y-183914600D01*
X329597786Y-184486028D02*
X329597786Y-183343171D01*
X425165387Y-183917600D02*
X426308245Y-183917600D01*
X158838372Y-183907100D02*
X159981230Y-183907100D01*
X311025402Y-183913100D02*
X312168260Y-183913100D01*
D11*
X452731476Y-220311009D02*
X452398143Y-220311009D01*
X452398143Y-220834819D02*
X452398143Y-219834819D01*
X452398143Y-219834819D02*
X452874333Y-219834819D01*
X453207667Y-219930057D02*
X453255286Y-219882438D01*
X453255286Y-219882438D02*
X453350524Y-219834819D01*
X453350524Y-219834819D02*
X453588619Y-219834819D01*
X453588619Y-219834819D02*
X453683857Y-219882438D01*
X453683857Y-219882438D02*
X453731476Y-219930057D01*
X453731476Y-219930057D02*
X453779095Y-220025295D01*
X453779095Y-220025295D02*
X453779095Y-220120533D01*
X453779095Y-220120533D02*
X453731476Y-220263390D01*
X453731476Y-220263390D02*
X453160048Y-220834819D01*
X453160048Y-220834819D02*
X453779095Y-220834819D01*
X454398143Y-219834819D02*
X454493381Y-219834819D01*
X454493381Y-219834819D02*
X454588619Y-219882438D01*
X454588619Y-219882438D02*
X454636238Y-219930057D01*
X454636238Y-219930057D02*
X454683857Y-220025295D01*
X454683857Y-220025295D02*
X454731476Y-220215771D01*
X454731476Y-220215771D02*
X454731476Y-220453866D01*
X454731476Y-220453866D02*
X454683857Y-220644342D01*
X454683857Y-220644342D02*
X454636238Y-220739580D01*
X454636238Y-220739580D02*
X454588619Y-220787200D01*
X454588619Y-220787200D02*
X454493381Y-220834819D01*
X454493381Y-220834819D02*
X454398143Y-220834819D01*
X454398143Y-220834819D02*
X454302905Y-220787200D01*
X454302905Y-220787200D02*
X454255286Y-220739580D01*
X454255286Y-220739580D02*
X454207667Y-220644342D01*
X454207667Y-220644342D02*
X454160048Y-220453866D01*
X454160048Y-220453866D02*
X454160048Y-220215771D01*
X454160048Y-220215771D02*
X454207667Y-220025295D01*
X454207667Y-220025295D02*
X454255286Y-219930057D01*
X454255286Y-219930057D02*
X454302905Y-219882438D01*
X454302905Y-219882438D02*
X454398143Y-219834819D01*
X262662476Y-167878009D02*
X262329143Y-167878009D01*
X262329143Y-168401819D02*
X262329143Y-167401819D01*
X262329143Y-167401819D02*
X262805333Y-167401819D01*
X263710095Y-168401819D02*
X263138667Y-168401819D01*
X263424381Y-168401819D02*
X263424381Y-167401819D01*
X263424381Y-167401819D02*
X263329143Y-167544676D01*
X263329143Y-167544676D02*
X263233905Y-167639914D01*
X263233905Y-167639914D02*
X263138667Y-167687533D01*
X264662476Y-168401819D02*
X264091048Y-168401819D01*
X264376762Y-168401819D02*
X264376762Y-167401819D01*
X264376762Y-167401819D02*
X264281524Y-167544676D01*
X264281524Y-167544676D02*
X264186286Y-167639914D01*
X264186286Y-167639914D02*
X264091048Y-167687533D01*
X474116476Y-194083154D02*
X473783143Y-194083154D01*
X473783143Y-194606964D02*
X473783143Y-193606964D01*
X473783143Y-193606964D02*
X474259333Y-193606964D01*
X474592667Y-193702202D02*
X474640286Y-193654583D01*
X474640286Y-193654583D02*
X474735524Y-193606964D01*
X474735524Y-193606964D02*
X474973619Y-193606964D01*
X474973619Y-193606964D02*
X475068857Y-193654583D01*
X475068857Y-193654583D02*
X475116476Y-193702202D01*
X475116476Y-193702202D02*
X475164095Y-193797440D01*
X475164095Y-193797440D02*
X475164095Y-193892678D01*
X475164095Y-193892678D02*
X475116476Y-194035535D01*
X475116476Y-194035535D02*
X474545048Y-194606964D01*
X474545048Y-194606964D02*
X475164095Y-194606964D01*
X475497429Y-193606964D02*
X476116476Y-193606964D01*
X476116476Y-193606964D02*
X475783143Y-193987916D01*
X475783143Y-193987916D02*
X475926000Y-193987916D01*
X475926000Y-193987916D02*
X476021238Y-194035535D01*
X476021238Y-194035535D02*
X476068857Y-194083154D01*
X476068857Y-194083154D02*
X476116476Y-194178392D01*
X476116476Y-194178392D02*
X476116476Y-194416487D01*
X476116476Y-194416487D02*
X476068857Y-194511725D01*
X476068857Y-194511725D02*
X476021238Y-194559345D01*
X476021238Y-194559345D02*
X475926000Y-194606964D01*
X475926000Y-194606964D02*
X475640286Y-194606964D01*
X475640286Y-194606964D02*
X475545048Y-194559345D01*
X475545048Y-194559345D02*
X475497429Y-194511725D01*
X169586666Y-194083154D02*
X169253333Y-194083154D01*
X169253333Y-194606964D02*
X169253333Y-193606964D01*
X169253333Y-193606964D02*
X169729523Y-193606964D01*
X170539047Y-193940297D02*
X170539047Y-194606964D01*
X170300952Y-193559345D02*
X170062857Y-194273630D01*
X170062857Y-194273630D02*
X170681904Y-194273630D01*
X376512476Y-167878009D02*
X376179143Y-167878009D01*
X376179143Y-168401819D02*
X376179143Y-167401819D01*
X376179143Y-167401819D02*
X376655333Y-167401819D01*
X377560095Y-168401819D02*
X376988667Y-168401819D01*
X377274381Y-168401819D02*
X377274381Y-167401819D01*
X377274381Y-167401819D02*
X377179143Y-167544676D01*
X377179143Y-167544676D02*
X377083905Y-167639914D01*
X377083905Y-167639914D02*
X376988667Y-167687533D01*
X377893429Y-167401819D02*
X378560095Y-167401819D01*
X378560095Y-167401819D02*
X378131524Y-168401819D01*
X82736666Y-172357463D02*
X82736666Y-173071748D01*
X82736666Y-173071748D02*
X82689047Y-173214605D01*
X82689047Y-173214605D02*
X82593809Y-173309844D01*
X82593809Y-173309844D02*
X82450952Y-173357463D01*
X82450952Y-173357463D02*
X82355714Y-173357463D01*
X83736666Y-173357463D02*
X83165238Y-173357463D01*
X83450952Y-173357463D02*
X83450952Y-172357463D01*
X83450952Y-172357463D02*
X83355714Y-172500320D01*
X83355714Y-172500320D02*
X83260476Y-172595558D01*
X83260476Y-172595558D02*
X83165238Y-172643177D01*
X149224666Y-167878009D02*
X148891333Y-167878009D01*
X148891333Y-168401819D02*
X148891333Y-167401819D01*
X148891333Y-167401819D02*
X149367523Y-167401819D01*
X150224666Y-167401819D02*
X149748476Y-167401819D01*
X149748476Y-167401819D02*
X149700857Y-167878009D01*
X149700857Y-167878009D02*
X149748476Y-167830390D01*
X149748476Y-167830390D02*
X149843714Y-167782771D01*
X149843714Y-167782771D02*
X150081809Y-167782771D01*
X150081809Y-167782771D02*
X150177047Y-167830390D01*
X150177047Y-167830390D02*
X150224666Y-167878009D01*
X150224666Y-167878009D02*
X150272285Y-167973247D01*
X150272285Y-167973247D02*
X150272285Y-168211342D01*
X150272285Y-168211342D02*
X150224666Y-168306580D01*
X150224666Y-168306580D02*
X150177047Y-168354200D01*
X150177047Y-168354200D02*
X150081809Y-168401819D01*
X150081809Y-168401819D02*
X149843714Y-168401819D01*
X149843714Y-168401819D02*
X149748476Y-168354200D01*
X149748476Y-168354200D02*
X149700857Y-168306580D01*
X521349095Y-217273819D02*
X521349095Y-216273819D01*
X521349095Y-216750009D02*
X521920523Y-216750009D01*
X521920523Y-217273819D02*
X521920523Y-216273819D01*
X522349095Y-216369057D02*
X522396714Y-216321438D01*
X522396714Y-216321438D02*
X522491952Y-216273819D01*
X522491952Y-216273819D02*
X522730047Y-216273819D01*
X522730047Y-216273819D02*
X522825285Y-216321438D01*
X522825285Y-216321438D02*
X522872904Y-216369057D01*
X522872904Y-216369057D02*
X522920523Y-216464295D01*
X522920523Y-216464295D02*
X522920523Y-216559533D01*
X522920523Y-216559533D02*
X522872904Y-216702390D01*
X522872904Y-216702390D02*
X522301476Y-217273819D01*
X522301476Y-217273819D02*
X522920523Y-217273819D01*
X262485476Y-220311009D02*
X262152143Y-220311009D01*
X262152143Y-220834819D02*
X262152143Y-219834819D01*
X262152143Y-219834819D02*
X262628333Y-219834819D01*
X263533095Y-220834819D02*
X262961667Y-220834819D01*
X263247381Y-220834819D02*
X263247381Y-219834819D01*
X263247381Y-219834819D02*
X263152143Y-219977676D01*
X263152143Y-219977676D02*
X263056905Y-220072914D01*
X263056905Y-220072914D02*
X262961667Y-220120533D01*
X264152143Y-219834819D02*
X264247381Y-219834819D01*
X264247381Y-219834819D02*
X264342619Y-219882438D01*
X264342619Y-219882438D02*
X264390238Y-219930057D01*
X264390238Y-219930057D02*
X264437857Y-220025295D01*
X264437857Y-220025295D02*
X264485476Y-220215771D01*
X264485476Y-220215771D02*
X264485476Y-220453866D01*
X264485476Y-220453866D02*
X264437857Y-220644342D01*
X264437857Y-220644342D02*
X264390238Y-220739580D01*
X264390238Y-220739580D02*
X264342619Y-220787200D01*
X264342619Y-220787200D02*
X264247381Y-220834819D01*
X264247381Y-220834819D02*
X264152143Y-220834819D01*
X264152143Y-220834819D02*
X264056905Y-220787200D01*
X264056905Y-220787200D02*
X264009286Y-220739580D01*
X264009286Y-220739580D02*
X263961667Y-220644342D01*
X263961667Y-220644342D02*
X263914048Y-220453866D01*
X263914048Y-220453866D02*
X263914048Y-220215771D01*
X263914048Y-220215771D02*
X263961667Y-220025295D01*
X263961667Y-220025295D02*
X264009286Y-219930057D01*
X264009286Y-219930057D02*
X264056905Y-219882438D01*
X264056905Y-219882438D02*
X264152143Y-219834819D01*
X414804476Y-167878009D02*
X414471143Y-167878009D01*
X414471143Y-168401819D02*
X414471143Y-167401819D01*
X414471143Y-167401819D02*
X414947333Y-167401819D01*
X415852095Y-168401819D02*
X415280667Y-168401819D01*
X415566381Y-168401819D02*
X415566381Y-167401819D01*
X415566381Y-167401819D02*
X415471143Y-167544676D01*
X415471143Y-167544676D02*
X415375905Y-167639914D01*
X415375905Y-167639914D02*
X415280667Y-167687533D01*
X416328286Y-168401819D02*
X416518762Y-168401819D01*
X416518762Y-168401819D02*
X416614000Y-168354200D01*
X416614000Y-168354200D02*
X416661619Y-168306580D01*
X416661619Y-168306580D02*
X416756857Y-168163723D01*
X416756857Y-168163723D02*
X416804476Y-167973247D01*
X416804476Y-167973247D02*
X416804476Y-167592295D01*
X416804476Y-167592295D02*
X416756857Y-167497057D01*
X416756857Y-167497057D02*
X416709238Y-167449438D01*
X416709238Y-167449438D02*
X416614000Y-167401819D01*
X416614000Y-167401819D02*
X416423524Y-167401819D01*
X416423524Y-167401819D02*
X416328286Y-167449438D01*
X416328286Y-167449438D02*
X416280667Y-167497057D01*
X416280667Y-167497057D02*
X416233048Y-167592295D01*
X416233048Y-167592295D02*
X416233048Y-167830390D01*
X416233048Y-167830390D02*
X416280667Y-167925628D01*
X416280667Y-167925628D02*
X416328286Y-167973247D01*
X416328286Y-167973247D02*
X416423524Y-168020866D01*
X416423524Y-168020866D02*
X416614000Y-168020866D01*
X416614000Y-168020866D02*
X416709238Y-167973247D01*
X416709238Y-167973247D02*
X416756857Y-167925628D01*
X416756857Y-167925628D02*
X416804476Y-167830390D01*
X300544476Y-167878009D02*
X300211143Y-167878009D01*
X300211143Y-168401819D02*
X300211143Y-167401819D01*
X300211143Y-167401819D02*
X300687333Y-167401819D01*
X301592095Y-168401819D02*
X301020667Y-168401819D01*
X301306381Y-168401819D02*
X301306381Y-167401819D01*
X301306381Y-167401819D02*
X301211143Y-167544676D01*
X301211143Y-167544676D02*
X301115905Y-167639914D01*
X301115905Y-167639914D02*
X301020667Y-167687533D01*
X301925429Y-167401819D02*
X302544476Y-167401819D01*
X302544476Y-167401819D02*
X302211143Y-167782771D01*
X302211143Y-167782771D02*
X302354000Y-167782771D01*
X302354000Y-167782771D02*
X302449238Y-167830390D01*
X302449238Y-167830390D02*
X302496857Y-167878009D01*
X302496857Y-167878009D02*
X302544476Y-167973247D01*
X302544476Y-167973247D02*
X302544476Y-168211342D01*
X302544476Y-168211342D02*
X302496857Y-168306580D01*
X302496857Y-168306580D02*
X302449238Y-168354200D01*
X302449238Y-168354200D02*
X302354000Y-168401819D01*
X302354000Y-168401819D02*
X302068286Y-168401819D01*
X302068286Y-168401819D02*
X301973048Y-168354200D01*
X301973048Y-168354200D02*
X301925429Y-168306580D01*
X521347095Y-172074819D02*
X521347095Y-171074819D01*
X521347095Y-171551009D02*
X521918523Y-171551009D01*
X521918523Y-172074819D02*
X521918523Y-171074819D01*
X522918523Y-172074819D02*
X522347095Y-172074819D01*
X522632809Y-172074819D02*
X522632809Y-171074819D01*
X522632809Y-171074819D02*
X522537571Y-171217676D01*
X522537571Y-171217676D02*
X522442333Y-171312914D01*
X522442333Y-171312914D02*
X522347095Y-171360533D01*
X229847666Y-194083154D02*
X229514333Y-194083154D01*
X229514333Y-194606964D02*
X229514333Y-193606964D01*
X229514333Y-193606964D02*
X229990523Y-193606964D01*
X230419095Y-194606964D02*
X230609571Y-194606964D01*
X230609571Y-194606964D02*
X230704809Y-194559345D01*
X230704809Y-194559345D02*
X230752428Y-194511725D01*
X230752428Y-194511725D02*
X230847666Y-194368868D01*
X230847666Y-194368868D02*
X230895285Y-194178392D01*
X230895285Y-194178392D02*
X230895285Y-193797440D01*
X230895285Y-193797440D02*
X230847666Y-193702202D01*
X230847666Y-193702202D02*
X230800047Y-193654583D01*
X230800047Y-193654583D02*
X230704809Y-193606964D01*
X230704809Y-193606964D02*
X230514333Y-193606964D01*
X230514333Y-193606964D02*
X230419095Y-193654583D01*
X230419095Y-193654583D02*
X230371476Y-193702202D01*
X230371476Y-193702202D02*
X230323857Y-193797440D01*
X230323857Y-193797440D02*
X230323857Y-194035535D01*
X230323857Y-194035535D02*
X230371476Y-194130773D01*
X230371476Y-194130773D02*
X230419095Y-194178392D01*
X230419095Y-194178392D02*
X230514333Y-194226011D01*
X230514333Y-194226011D02*
X230704809Y-194226011D01*
X230704809Y-194226011D02*
X230800047Y-194178392D01*
X230800047Y-194178392D02*
X230847666Y-194130773D01*
X230847666Y-194130773D02*
X230895285Y-194035535D01*
X414583676Y-220311009D02*
X414250343Y-220311009D01*
X414250343Y-220834819D02*
X414250343Y-219834819D01*
X414250343Y-219834819D02*
X414726533Y-219834819D01*
X415631295Y-220834819D02*
X415059867Y-220834819D01*
X415345581Y-220834819D02*
X415345581Y-219834819D01*
X415345581Y-219834819D02*
X415250343Y-219977676D01*
X415250343Y-219977676D02*
X415155105Y-220072914D01*
X415155105Y-220072914D02*
X415059867Y-220120533D01*
X416202724Y-220263390D02*
X416107486Y-220215771D01*
X416107486Y-220215771D02*
X416059867Y-220168152D01*
X416059867Y-220168152D02*
X416012248Y-220072914D01*
X416012248Y-220072914D02*
X416012248Y-220025295D01*
X416012248Y-220025295D02*
X416059867Y-219930057D01*
X416059867Y-219930057D02*
X416107486Y-219882438D01*
X416107486Y-219882438D02*
X416202724Y-219834819D01*
X416202724Y-219834819D02*
X416393200Y-219834819D01*
X416393200Y-219834819D02*
X416488438Y-219882438D01*
X416488438Y-219882438D02*
X416536057Y-219930057D01*
X416536057Y-219930057D02*
X416583676Y-220025295D01*
X416583676Y-220025295D02*
X416583676Y-220072914D01*
X416583676Y-220072914D02*
X416536057Y-220168152D01*
X416536057Y-220168152D02*
X416488438Y-220215771D01*
X416488438Y-220215771D02*
X416393200Y-220263390D01*
X416393200Y-220263390D02*
X416202724Y-220263390D01*
X416202724Y-220263390D02*
X416107486Y-220311009D01*
X416107486Y-220311009D02*
X416059867Y-220358628D01*
X416059867Y-220358628D02*
X416012248Y-220453866D01*
X416012248Y-220453866D02*
X416012248Y-220644342D01*
X416012248Y-220644342D02*
X416059867Y-220739580D01*
X416059867Y-220739580D02*
X416107486Y-220787200D01*
X416107486Y-220787200D02*
X416202724Y-220834819D01*
X416202724Y-220834819D02*
X416393200Y-220834819D01*
X416393200Y-220834819D02*
X416488438Y-220787200D01*
X416488438Y-220787200D02*
X416536057Y-220739580D01*
X416536057Y-220739580D02*
X416583676Y-220644342D01*
X416583676Y-220644342D02*
X416583676Y-220453866D01*
X416583676Y-220453866D02*
X416536057Y-220358628D01*
X416536057Y-220358628D02*
X416488438Y-220311009D01*
X416488438Y-220311009D02*
X416393200Y-220263390D01*
X147783666Y-194083154D02*
X147450333Y-194083154D01*
X147450333Y-194606964D02*
X147450333Y-193606964D01*
X147450333Y-193606964D02*
X147926523Y-193606964D01*
X148212238Y-193606964D02*
X148831285Y-193606964D01*
X148831285Y-193606964D02*
X148497952Y-193987916D01*
X148497952Y-193987916D02*
X148640809Y-193987916D01*
X148640809Y-193987916D02*
X148736047Y-194035535D01*
X148736047Y-194035535D02*
X148783666Y-194083154D01*
X148783666Y-194083154D02*
X148831285Y-194178392D01*
X148831285Y-194178392D02*
X148831285Y-194416487D01*
X148831285Y-194416487D02*
X148783666Y-194511725D01*
X148783666Y-194511725D02*
X148736047Y-194559345D01*
X148736047Y-194559345D02*
X148640809Y-194606964D01*
X148640809Y-194606964D02*
X148355095Y-194606964D01*
X148355095Y-194606964D02*
X148259857Y-194559345D01*
X148259857Y-194559345D02*
X148212238Y-194511725D01*
X191787666Y-194083154D02*
X191454333Y-194083154D01*
X191454333Y-194606964D02*
X191454333Y-193606964D01*
X191454333Y-193606964D02*
X191930523Y-193606964D01*
X192216238Y-193606964D02*
X192882904Y-193606964D01*
X192882904Y-193606964D02*
X192454333Y-194606964D01*
X492534476Y-220311009D02*
X492201143Y-220311009D01*
X492201143Y-220834819D02*
X492201143Y-219834819D01*
X492201143Y-219834819D02*
X492677333Y-219834819D01*
X493010667Y-219930057D02*
X493058286Y-219882438D01*
X493058286Y-219882438D02*
X493153524Y-219834819D01*
X493153524Y-219834819D02*
X493391619Y-219834819D01*
X493391619Y-219834819D02*
X493486857Y-219882438D01*
X493486857Y-219882438D02*
X493534476Y-219930057D01*
X493534476Y-219930057D02*
X493582095Y-220025295D01*
X493582095Y-220025295D02*
X493582095Y-220120533D01*
X493582095Y-220120533D02*
X493534476Y-220263390D01*
X493534476Y-220263390D02*
X492963048Y-220834819D01*
X492963048Y-220834819D02*
X493582095Y-220834819D01*
X493963048Y-219930057D02*
X494010667Y-219882438D01*
X494010667Y-219882438D02*
X494105905Y-219834819D01*
X494105905Y-219834819D02*
X494344000Y-219834819D01*
X494344000Y-219834819D02*
X494439238Y-219882438D01*
X494439238Y-219882438D02*
X494486857Y-219930057D01*
X494486857Y-219930057D02*
X494534476Y-220025295D01*
X494534476Y-220025295D02*
X494534476Y-220120533D01*
X494534476Y-220120533D02*
X494486857Y-220263390D01*
X494486857Y-220263390D02*
X493915429Y-220834819D01*
X493915429Y-220834819D02*
X494534476Y-220834819D01*
X452872476Y-167878009D02*
X452539143Y-167878009D01*
X452539143Y-168401819D02*
X452539143Y-167401819D01*
X452539143Y-167401819D02*
X453015333Y-167401819D01*
X453348667Y-167497057D02*
X453396286Y-167449438D01*
X453396286Y-167449438D02*
X453491524Y-167401819D01*
X453491524Y-167401819D02*
X453729619Y-167401819D01*
X453729619Y-167401819D02*
X453824857Y-167449438D01*
X453824857Y-167449438D02*
X453872476Y-167497057D01*
X453872476Y-167497057D02*
X453920095Y-167592295D01*
X453920095Y-167592295D02*
X453920095Y-167687533D01*
X453920095Y-167687533D02*
X453872476Y-167830390D01*
X453872476Y-167830390D02*
X453301048Y-168401819D01*
X453301048Y-168401819D02*
X453920095Y-168401819D01*
X454872476Y-168401819D02*
X454301048Y-168401819D01*
X454586762Y-168401819D02*
X454586762Y-167401819D01*
X454586762Y-167401819D02*
X454491524Y-167544676D01*
X454491524Y-167544676D02*
X454396286Y-167639914D01*
X454396286Y-167639914D02*
X454301048Y-167687533D01*
X285413476Y-194083154D02*
X285080143Y-194083154D01*
X285080143Y-194606964D02*
X285080143Y-193606964D01*
X285080143Y-193606964D02*
X285556333Y-193606964D01*
X286461095Y-194606964D02*
X285889667Y-194606964D01*
X286175381Y-194606964D02*
X286175381Y-193606964D01*
X286175381Y-193606964D02*
X286080143Y-193749821D01*
X286080143Y-193749821D02*
X285984905Y-193845059D01*
X285984905Y-193845059D02*
X285889667Y-193892678D01*
X286842048Y-193702202D02*
X286889667Y-193654583D01*
X286889667Y-193654583D02*
X286984905Y-193606964D01*
X286984905Y-193606964D02*
X287223000Y-193606964D01*
X287223000Y-193606964D02*
X287318238Y-193654583D01*
X287318238Y-193654583D02*
X287365857Y-193702202D01*
X287365857Y-193702202D02*
X287413476Y-193797440D01*
X287413476Y-193797440D02*
X287413476Y-193892678D01*
X287413476Y-193892678D02*
X287365857Y-194035535D01*
X287365857Y-194035535D02*
X286794429Y-194606964D01*
X286794429Y-194606964D02*
X287413476Y-194606964D01*
X84867095Y-217272819D02*
X84867095Y-216272819D01*
X84867095Y-216749009D02*
X85438523Y-216749009D01*
X85438523Y-217272819D02*
X85438523Y-216272819D01*
X86343285Y-216606152D02*
X86343285Y-217272819D01*
X86105190Y-216225200D02*
X85867095Y-216939485D01*
X85867095Y-216939485D02*
X86486142Y-216939485D01*
X377049476Y-220311009D02*
X376716143Y-220311009D01*
X376716143Y-220834819D02*
X376716143Y-219834819D01*
X376716143Y-219834819D02*
X377192333Y-219834819D01*
X378097095Y-220834819D02*
X377525667Y-220834819D01*
X377811381Y-220834819D02*
X377811381Y-219834819D01*
X377811381Y-219834819D02*
X377716143Y-219977676D01*
X377716143Y-219977676D02*
X377620905Y-220072914D01*
X377620905Y-220072914D02*
X377525667Y-220120533D01*
X378954238Y-219834819D02*
X378763762Y-219834819D01*
X378763762Y-219834819D02*
X378668524Y-219882438D01*
X378668524Y-219882438D02*
X378620905Y-219930057D01*
X378620905Y-219930057D02*
X378525667Y-220072914D01*
X378525667Y-220072914D02*
X378478048Y-220263390D01*
X378478048Y-220263390D02*
X378478048Y-220644342D01*
X378478048Y-220644342D02*
X378525667Y-220739580D01*
X378525667Y-220739580D02*
X378573286Y-220787200D01*
X378573286Y-220787200D02*
X378668524Y-220834819D01*
X378668524Y-220834819D02*
X378859000Y-220834819D01*
X378859000Y-220834819D02*
X378954238Y-220787200D01*
X378954238Y-220787200D02*
X379001857Y-220739580D01*
X379001857Y-220739580D02*
X379049476Y-220644342D01*
X379049476Y-220644342D02*
X379049476Y-220406247D01*
X379049476Y-220406247D02*
X379001857Y-220311009D01*
X379001857Y-220311009D02*
X378954238Y-220263390D01*
X378954238Y-220263390D02*
X378859000Y-220215771D01*
X378859000Y-220215771D02*
X378668524Y-220215771D01*
X378668524Y-220215771D02*
X378573286Y-220263390D01*
X378573286Y-220263390D02*
X378525667Y-220311009D01*
X378525667Y-220311009D02*
X378478048Y-220406247D01*
X343508476Y-194083154D02*
X343175143Y-194083154D01*
X343175143Y-194606964D02*
X343175143Y-193606964D01*
X343175143Y-193606964D02*
X343651333Y-193606964D01*
X344556095Y-194606964D02*
X343984667Y-194606964D01*
X344270381Y-194606964D02*
X344270381Y-193606964D01*
X344270381Y-193606964D02*
X344175143Y-193749821D01*
X344175143Y-193749821D02*
X344079905Y-193845059D01*
X344079905Y-193845059D02*
X343984667Y-193892678D01*
X345460857Y-193606964D02*
X344984667Y-193606964D01*
X344984667Y-193606964D02*
X344937048Y-194083154D01*
X344937048Y-194083154D02*
X344984667Y-194035535D01*
X344984667Y-194035535D02*
X345079905Y-193987916D01*
X345079905Y-193987916D02*
X345318000Y-193987916D01*
X345318000Y-193987916D02*
X345413238Y-194035535D01*
X345413238Y-194035535D02*
X345460857Y-194083154D01*
X345460857Y-194083154D02*
X345508476Y-194178392D01*
X345508476Y-194178392D02*
X345508476Y-194416487D01*
X345508476Y-194416487D02*
X345460857Y-194511725D01*
X345460857Y-194511725D02*
X345413238Y-194559345D01*
X345413238Y-194559345D02*
X345318000Y-194606964D01*
X345318000Y-194606964D02*
X345079905Y-194606964D01*
X345079905Y-194606964D02*
X344984667Y-194559345D01*
X344984667Y-194559345D02*
X344937048Y-194511725D01*
X103866666Y-194083154D02*
X103533333Y-194083154D01*
X103533333Y-194606964D02*
X103533333Y-193606964D01*
X103533333Y-193606964D02*
X104009523Y-193606964D01*
X104914285Y-194606964D02*
X104342857Y-194606964D01*
X104628571Y-194606964D02*
X104628571Y-193606964D01*
X104628571Y-193606964D02*
X104533333Y-193749821D01*
X104533333Y-193749821D02*
X104438095Y-193845059D01*
X104438095Y-193845059D02*
X104342857Y-193892678D01*
X224819666Y-220311009D02*
X224486333Y-220311009D01*
X224486333Y-220834819D02*
X224486333Y-219834819D01*
X224486333Y-219834819D02*
X224962523Y-219834819D01*
X225486333Y-220263390D02*
X225391095Y-220215771D01*
X225391095Y-220215771D02*
X225343476Y-220168152D01*
X225343476Y-220168152D02*
X225295857Y-220072914D01*
X225295857Y-220072914D02*
X225295857Y-220025295D01*
X225295857Y-220025295D02*
X225343476Y-219930057D01*
X225343476Y-219930057D02*
X225391095Y-219882438D01*
X225391095Y-219882438D02*
X225486333Y-219834819D01*
X225486333Y-219834819D02*
X225676809Y-219834819D01*
X225676809Y-219834819D02*
X225772047Y-219882438D01*
X225772047Y-219882438D02*
X225819666Y-219930057D01*
X225819666Y-219930057D02*
X225867285Y-220025295D01*
X225867285Y-220025295D02*
X225867285Y-220072914D01*
X225867285Y-220072914D02*
X225819666Y-220168152D01*
X225819666Y-220168152D02*
X225772047Y-220215771D01*
X225772047Y-220215771D02*
X225676809Y-220263390D01*
X225676809Y-220263390D02*
X225486333Y-220263390D01*
X225486333Y-220263390D02*
X225391095Y-220311009D01*
X225391095Y-220311009D02*
X225343476Y-220358628D01*
X225343476Y-220358628D02*
X225295857Y-220453866D01*
X225295857Y-220453866D02*
X225295857Y-220644342D01*
X225295857Y-220644342D02*
X225343476Y-220739580D01*
X225343476Y-220739580D02*
X225391095Y-220787200D01*
X225391095Y-220787200D02*
X225486333Y-220834819D01*
X225486333Y-220834819D02*
X225676809Y-220834819D01*
X225676809Y-220834819D02*
X225772047Y-220787200D01*
X225772047Y-220787200D02*
X225819666Y-220739580D01*
X225819666Y-220739580D02*
X225867285Y-220644342D01*
X225867285Y-220644342D02*
X225867285Y-220453866D01*
X225867285Y-220453866D02*
X225819666Y-220358628D01*
X225819666Y-220358628D02*
X225772047Y-220311009D01*
X225772047Y-220311009D02*
X225676809Y-220263390D01*
X186905894Y-220311009D02*
X186572561Y-220311009D01*
X186572561Y-220834819D02*
X186572561Y-219834819D01*
X186572561Y-219834819D02*
X187048751Y-219834819D01*
X187858275Y-219834819D02*
X187667799Y-219834819D01*
X187667799Y-219834819D02*
X187572561Y-219882438D01*
X187572561Y-219882438D02*
X187524942Y-219930057D01*
X187524942Y-219930057D02*
X187429704Y-220072914D01*
X187429704Y-220072914D02*
X187382085Y-220263390D01*
X187382085Y-220263390D02*
X187382085Y-220644342D01*
X187382085Y-220644342D02*
X187429704Y-220739580D01*
X187429704Y-220739580D02*
X187477323Y-220787200D01*
X187477323Y-220787200D02*
X187572561Y-220834819D01*
X187572561Y-220834819D02*
X187763037Y-220834819D01*
X187763037Y-220834819D02*
X187858275Y-220787200D01*
X187858275Y-220787200D02*
X187905894Y-220739580D01*
X187905894Y-220739580D02*
X187953513Y-220644342D01*
X187953513Y-220644342D02*
X187953513Y-220406247D01*
X187953513Y-220406247D02*
X187905894Y-220311009D01*
X187905894Y-220311009D02*
X187858275Y-220263390D01*
X187858275Y-220263390D02*
X187763037Y-220215771D01*
X187763037Y-220215771D02*
X187572561Y-220215771D01*
X187572561Y-220215771D02*
X187477323Y-220263390D01*
X187477323Y-220263390D02*
X187429704Y-220311009D01*
X187429704Y-220311009D02*
X187382085Y-220406247D01*
X323461476Y-194083154D02*
X323128143Y-194083154D01*
X323128143Y-194606964D02*
X323128143Y-193606964D01*
X323128143Y-193606964D02*
X323604333Y-193606964D01*
X324509095Y-194606964D02*
X323937667Y-194606964D01*
X324223381Y-194606964D02*
X324223381Y-193606964D01*
X324223381Y-193606964D02*
X324128143Y-193749821D01*
X324128143Y-193749821D02*
X324032905Y-193845059D01*
X324032905Y-193845059D02*
X323937667Y-193892678D01*
X325366238Y-193940297D02*
X325366238Y-194606964D01*
X325128143Y-193559345D02*
X324890048Y-194273630D01*
X324890048Y-194273630D02*
X325509095Y-194273630D01*
X127832666Y-194083154D02*
X127499333Y-194083154D01*
X127499333Y-194606964D02*
X127499333Y-193606964D01*
X127499333Y-193606964D02*
X127975523Y-193606964D01*
X128308857Y-193702202D02*
X128356476Y-193654583D01*
X128356476Y-193654583D02*
X128451714Y-193606964D01*
X128451714Y-193606964D02*
X128689809Y-193606964D01*
X128689809Y-193606964D02*
X128785047Y-193654583D01*
X128785047Y-193654583D02*
X128832666Y-193702202D01*
X128832666Y-193702202D02*
X128880285Y-193797440D01*
X128880285Y-193797440D02*
X128880285Y-193892678D01*
X128880285Y-193892678D02*
X128832666Y-194035535D01*
X128832666Y-194035535D02*
X128261238Y-194606964D01*
X128261238Y-194606964D02*
X128880285Y-194606964D01*
X84903095Y-172019819D02*
X84903095Y-171019819D01*
X84903095Y-171496009D02*
X85474523Y-171496009D01*
X85474523Y-172019819D02*
X85474523Y-171019819D01*
X85855476Y-171019819D02*
X86474523Y-171019819D01*
X86474523Y-171019819D02*
X86141190Y-171400771D01*
X86141190Y-171400771D02*
X86284047Y-171400771D01*
X86284047Y-171400771D02*
X86379285Y-171448390D01*
X86379285Y-171448390D02*
X86426904Y-171496009D01*
X86426904Y-171496009D02*
X86474523Y-171591247D01*
X86474523Y-171591247D02*
X86474523Y-171829342D01*
X86474523Y-171829342D02*
X86426904Y-171924580D01*
X86426904Y-171924580D02*
X86379285Y-171972200D01*
X86379285Y-171972200D02*
X86284047Y-172019819D01*
X86284047Y-172019819D02*
X85998333Y-172019819D01*
X85998333Y-172019819D02*
X85903095Y-171972200D01*
X85903095Y-171972200D02*
X85855476Y-171924580D01*
D12*
%TO.C,F20*%
X451551000Y-217890000D02*
X455531000Y-217890000D01*
X451551000Y-222870000D02*
X455531000Y-222870000D01*
%TO.C,F11*%
X265462000Y-165457000D02*
X261482000Y-165457000D01*
X265462000Y-170437000D02*
X261482000Y-170437000D01*
%TO.C,F23*%
X472936000Y-191662146D02*
X476916000Y-191662146D01*
X472936000Y-196642144D02*
X476916000Y-196642144D01*
%TO.C,F4*%
X171910000Y-191662145D02*
X167930000Y-191662145D01*
X171910000Y-196642145D02*
X167930000Y-196642145D01*
%TO.C,F17*%
X379312000Y-165457000D02*
X375332000Y-165457000D01*
X379312000Y-170437000D02*
X375332000Y-170437000D01*
%TO.C,J1*%
X83060000Y-173967144D02*
X83060000Y-214337144D01*
X83060000Y-214337144D02*
X83360000Y-214337144D01*
X83360000Y-173967144D02*
X83060000Y-173967144D01*
X84900000Y-173967144D02*
X90650000Y-173967144D01*
X90150000Y-175387144D02*
X90150000Y-212917144D01*
X90150000Y-212917144D02*
X90650000Y-212917144D01*
X90650000Y-173967144D02*
X90650000Y-175387144D01*
X90650000Y-175387144D02*
X90150000Y-175387144D01*
X90650000Y-212917144D02*
X90650000Y-214337144D01*
X90650000Y-214337144D02*
X84900000Y-214337144D01*
%TO.C,F5*%
X151548000Y-165457000D02*
X147568000Y-165457000D01*
X151548000Y-170437000D02*
X147568000Y-170437000D01*
%TO.C,F10*%
X261305000Y-217890000D02*
X265285000Y-217890000D01*
X261305000Y-222870000D02*
X265285000Y-222870000D01*
%TO.C,F19*%
X417604000Y-165457000D02*
X413624000Y-165457000D01*
X417604000Y-170437000D02*
X413624000Y-170437000D01*
%TO.C,F13*%
X303344000Y-165457000D02*
X299364000Y-165457000D01*
X303344000Y-170437000D02*
X299364000Y-170437000D01*
%TO.C,F9*%
X232171000Y-191662145D02*
X228191000Y-191662145D01*
X232171000Y-196642145D02*
X228191000Y-196642145D01*
%TO.C,F18*%
X413403200Y-217890000D02*
X417383200Y-217890000D01*
X413403200Y-222870000D02*
X417383200Y-222870000D01*
%TO.C,F3*%
X150107000Y-191662145D02*
X146127000Y-191662145D01*
X150107000Y-196642145D02*
X146127000Y-196642145D01*
%TO.C,F7*%
X194111000Y-191662145D02*
X190131000Y-191662145D01*
X194111000Y-196642145D02*
X190131000Y-196642145D01*
%TO.C,F22*%
X495334000Y-217890001D02*
X491354000Y-217890001D01*
X495334000Y-222869999D02*
X491354000Y-222869999D01*
%TO.C,F21*%
X455672000Y-165457000D02*
X451692000Y-165457000D01*
X455672000Y-170437000D02*
X451692000Y-170437000D01*
D13*
%TO.C,G\u002A\u002A\u002A*%
G36*
X382947920Y-194021688D02*
G01*
X382947920Y-194273378D01*
X382877777Y-194273378D01*
X382807634Y-194273378D01*
X382807634Y-194021688D01*
X382807634Y-193769999D01*
X382877777Y-193769999D01*
X382947920Y-193769999D01*
X382947920Y-194021688D01*
G37*
G36*
X378986906Y-193588452D02*
G01*
X378986906Y-193654469D01*
X378863125Y-193654469D01*
X378739343Y-193654469D01*
X378739343Y-193963923D01*
X378739343Y-194273378D01*
X378665175Y-194273378D01*
X378591006Y-194273378D01*
X378588843Y-193965986D01*
X378586679Y-193658595D01*
X378460834Y-193656317D01*
X378334990Y-193654039D01*
X378334990Y-193588237D01*
X378334990Y-193522435D01*
X378660948Y-193522435D01*
X378986906Y-193522435D01*
X378986906Y-193588452D01*
G37*
G36*
X385043956Y-193588452D02*
G01*
X385043956Y-193654469D01*
X384920175Y-193654469D01*
X384796393Y-193654469D01*
X384796393Y-193963923D01*
X384796393Y-194273378D01*
X384722225Y-194273378D01*
X384648056Y-194273378D01*
X384645893Y-193965986D01*
X384643729Y-193658595D01*
X384517884Y-193656317D01*
X384392040Y-193654039D01*
X384392040Y-193588237D01*
X384392040Y-193522435D01*
X384717998Y-193522435D01*
X385043956Y-193522435D01*
X385043956Y-193588452D01*
G37*
G36*
X382918026Y-193592076D02*
G01*
X382928480Y-193599761D01*
X382946268Y-193624441D01*
X382951833Y-193653802D01*
X382944814Y-193682188D01*
X382934636Y-193696177D01*
X382911380Y-193710479D01*
X382882005Y-193717266D01*
X382854221Y-193715233D01*
X382844769Y-193711372D01*
X382820319Y-193691196D01*
X382809078Y-193664217D01*
X382807634Y-193645239D01*
X382814579Y-193615816D01*
X382832883Y-193594361D01*
X382858754Y-193582301D01*
X382888400Y-193581064D01*
X382918026Y-193592076D01*
G37*
G36*
X375677810Y-193670973D02*
G01*
X375677810Y-193819511D01*
X375855230Y-193819511D01*
X376032650Y-193819511D01*
X376032650Y-193670973D01*
X376032650Y-193522435D01*
X376106919Y-193522435D01*
X376181188Y-193522435D01*
X376181188Y-193897906D01*
X376181188Y-194273378D01*
X376106919Y-194273378D01*
X376032650Y-194273378D01*
X376032650Y-194116587D01*
X376032650Y-193959797D01*
X375855230Y-193959797D01*
X375677810Y-193959797D01*
X375677810Y-194116587D01*
X375677810Y-194273378D01*
X375603541Y-194273378D01*
X375529272Y-194273378D01*
X375529272Y-193897906D01*
X375529272Y-193522435D01*
X375603541Y-193522435D01*
X375677810Y-193522435D01*
X375677810Y-193670973D01*
G37*
G36*
X379919395Y-193588306D02*
G01*
X379919395Y-193654176D01*
X379719281Y-193656385D01*
X379519168Y-193658595D01*
X379516806Y-193739053D01*
X379514444Y-193819511D01*
X379667407Y-193819511D01*
X379820370Y-193819511D01*
X379820370Y-193889654D01*
X379820370Y-193959797D01*
X379667706Y-193959797D01*
X379515042Y-193959797D01*
X379515042Y-194046444D01*
X379515042Y-194133092D01*
X379717218Y-194133092D01*
X379919395Y-194133092D01*
X379919395Y-194203235D01*
X379919395Y-194273378D01*
X379642949Y-194273378D01*
X379366504Y-194273378D01*
X379366504Y-193897906D01*
X379366504Y-193522435D01*
X379642949Y-193522435D01*
X379919395Y-193522435D01*
X379919395Y-193588306D01*
G37*
G36*
X376453508Y-193671762D02*
G01*
X376453508Y-193821089D01*
X376577987Y-193671762D01*
X376702467Y-193522435D01*
X376784777Y-193522435D01*
X376818797Y-193523069D01*
X376845087Y-193524780D01*
X376860389Y-193527280D01*
X376862835Y-193529317D01*
X376856587Y-193537255D01*
X376841164Y-193556094D01*
X376818003Y-193584099D01*
X376788545Y-193619535D01*
X376754229Y-193660665D01*
X376718419Y-193703459D01*
X376578256Y-193870718D01*
X376732500Y-194044174D01*
X376773868Y-194090755D01*
X376812759Y-194134660D01*
X376847492Y-194173980D01*
X376876382Y-194206808D01*
X376897747Y-194231233D01*
X376909904Y-194245348D01*
X376910260Y-194245773D01*
X376933776Y-194273916D01*
X376836267Y-194271584D01*
X376738759Y-194269251D01*
X376598197Y-194109772D01*
X376457634Y-193950293D01*
X376455397Y-194111835D01*
X376453159Y-194273378D01*
X376379065Y-194273378D01*
X376304970Y-194273378D01*
X376304970Y-193897906D01*
X376304970Y-193522435D01*
X376379239Y-193522435D01*
X376453508Y-193522435D01*
X376453508Y-193671762D01*
G37*
G36*
X370612318Y-199507133D02*
G01*
X371943729Y-199509342D01*
X371992582Y-199527948D01*
X372061998Y-199559786D01*
X372116724Y-199597267D01*
X372157940Y-199641494D01*
X372186823Y-199693568D01*
X372195460Y-199717724D01*
X372206541Y-199762390D01*
X372210471Y-199804685D01*
X372206658Y-199847484D01*
X372194510Y-199893660D01*
X372173433Y-199946090D01*
X372142836Y-200007646D01*
X372131268Y-200029135D01*
X372084015Y-200115698D01*
X370506606Y-200115785D01*
X368929197Y-200115873D01*
X368920429Y-200090721D01*
X368918491Y-200083389D01*
X368918314Y-200075093D01*
X368920653Y-200064306D01*
X368926265Y-200049503D01*
X368935908Y-200029158D01*
X368950338Y-200001745D01*
X368970312Y-199965737D01*
X368996587Y-199919610D01*
X369029920Y-199861837D01*
X369057844Y-199813672D01*
X369097631Y-199745340D01*
X369130316Y-199689838D01*
X369156913Y-199645626D01*
X369178436Y-199611164D01*
X369195901Y-199584910D01*
X369210322Y-199565325D01*
X369222713Y-199550869D01*
X369234089Y-199540000D01*
X369242468Y-199533349D01*
X369280907Y-199504924D01*
X370612318Y-199507133D01*
G37*
G36*
X374094957Y-199507133D02*
G01*
X375426120Y-199509342D01*
X375474973Y-199527948D01*
X375544389Y-199559786D01*
X375599115Y-199597267D01*
X375640331Y-199641494D01*
X375669214Y-199693568D01*
X375677852Y-199717724D01*
X375688932Y-199762390D01*
X375692862Y-199804685D01*
X375689049Y-199847484D01*
X375676901Y-199893660D01*
X375655824Y-199946090D01*
X375625227Y-200007646D01*
X375613660Y-200029135D01*
X375566406Y-200115698D01*
X373988564Y-200115785D01*
X372410721Y-200115873D01*
X372405353Y-200087258D01*
X372404440Y-200078201D01*
X372405585Y-200067760D01*
X372409600Y-200054280D01*
X372417296Y-200036109D01*
X372429484Y-200011594D01*
X372446975Y-199979082D01*
X372470581Y-199936920D01*
X372501111Y-199883455D01*
X372529873Y-199833505D01*
X372562519Y-199776948D01*
X372593125Y-199723978D01*
X372620550Y-199676566D01*
X372643655Y-199636682D01*
X372661299Y-199606294D01*
X372672341Y-199587371D01*
X372674809Y-199583195D01*
X372690461Y-199563612D01*
X372713501Y-199541883D01*
X372726825Y-199531473D01*
X372763794Y-199504924D01*
X374094957Y-199507133D01*
G37*
G36*
X383419843Y-199507133D02*
G01*
X384751007Y-199509342D01*
X384799860Y-199527948D01*
X384869275Y-199559786D01*
X384924002Y-199597267D01*
X384965217Y-199641494D01*
X384994100Y-199693568D01*
X385002738Y-199717724D01*
X385013818Y-199762390D01*
X385017749Y-199804685D01*
X385013936Y-199847484D01*
X385001787Y-199893660D01*
X384980710Y-199946090D01*
X384950113Y-200007646D01*
X384938546Y-200029135D01*
X384891292Y-200115698D01*
X383313450Y-200115785D01*
X381735608Y-200115873D01*
X381730239Y-200087258D01*
X381729326Y-200078201D01*
X381730471Y-200067760D01*
X381734486Y-200054280D01*
X381742182Y-200036109D01*
X381754370Y-200011594D01*
X381771861Y-199979082D01*
X381795467Y-199936920D01*
X381825998Y-199883455D01*
X381854759Y-199833505D01*
X381887405Y-199776948D01*
X381918011Y-199723978D01*
X381945437Y-199676566D01*
X381968541Y-199636682D01*
X381986185Y-199606294D01*
X381997227Y-199587371D01*
X381999695Y-199583195D01*
X382015348Y-199563612D01*
X382038387Y-199541883D01*
X382051711Y-199531473D01*
X382088680Y-199504924D01*
X383419843Y-199507133D01*
G37*
G36*
X381724431Y-199532036D02*
G01*
X381727722Y-199552706D01*
X381727956Y-199566140D01*
X381727861Y-199566515D01*
X381723194Y-199575751D01*
X381711533Y-199596898D01*
X381694201Y-199627612D01*
X381672523Y-199665548D01*
X381647820Y-199708363D01*
X381646334Y-199710927D01*
X381616302Y-199762802D01*
X381584242Y-199818317D01*
X381552973Y-199872581D01*
X381525318Y-199920698D01*
X381510419Y-199946704D01*
X381475326Y-200004422D01*
X381443515Y-200049308D01*
X381415967Y-200079983D01*
X381415071Y-200080801D01*
X381376345Y-200115873D01*
X380248016Y-200115873D01*
X379119688Y-200115873D01*
X379114320Y-200087258D01*
X379113406Y-200078201D01*
X379114552Y-200067760D01*
X379118567Y-200054280D01*
X379126263Y-200036109D01*
X379138451Y-200011594D01*
X379155942Y-199979082D01*
X379179548Y-199936920D01*
X379210078Y-199883455D01*
X379238840Y-199833505D01*
X379271486Y-199776948D01*
X379302092Y-199723978D01*
X379329517Y-199676566D01*
X379352622Y-199636682D01*
X379370265Y-199606294D01*
X379381308Y-199587371D01*
X379383775Y-199583195D01*
X379399455Y-199563571D01*
X379422488Y-199541850D01*
X379435588Y-199531619D01*
X379472353Y-199505216D01*
X380595561Y-199505216D01*
X381718768Y-199505216D01*
X381724431Y-199532036D01*
G37*
G36*
X383168689Y-193774886D02*
G01*
X383170709Y-193787071D01*
X383170727Y-193789904D01*
X383171256Y-193804330D01*
X383175192Y-193809638D01*
X383186061Y-193806080D01*
X383207390Y-193793911D01*
X383209453Y-193792692D01*
X383232921Y-193781616D01*
X383259567Y-193775871D01*
X383295739Y-193774134D01*
X383298635Y-193774128D01*
X383354640Y-193780172D01*
X383400931Y-193798902D01*
X383439355Y-193831228D01*
X383455059Y-193851144D01*
X383480181Y-193886902D01*
X383482668Y-194080140D01*
X383485155Y-194273378D01*
X383418714Y-194273378D01*
X383352274Y-194273378D01*
X383352261Y-194122777D01*
X383351798Y-194060088D01*
X383350017Y-194011620D01*
X383346306Y-193975102D01*
X383340056Y-193948265D01*
X383330657Y-193928840D01*
X383317499Y-193914557D01*
X383299971Y-193903148D01*
X383292151Y-193899149D01*
X383258722Y-193888747D01*
X383229074Y-193893358D01*
X383200405Y-193913577D01*
X383194227Y-193919882D01*
X383170727Y-193945038D01*
X383170727Y-194109208D01*
X383170727Y-194273378D01*
X383100584Y-194273378D01*
X383030441Y-194273378D01*
X383030441Y-194030446D01*
X383030441Y-193787514D01*
X383069639Y-193782445D01*
X383101291Y-193778259D01*
X383132235Y-193774027D01*
X383139782Y-193772962D01*
X383159962Y-193771049D01*
X383168689Y-193774886D01*
G37*
G36*
X380728955Y-193561334D02*
G01*
X380722629Y-193577287D01*
X380710931Y-193606778D01*
X380694576Y-193648002D01*
X380674279Y-193699157D01*
X380650755Y-193758439D01*
X380624721Y-193824047D01*
X380596891Y-193894175D01*
X380579854Y-193937104D01*
X380446401Y-194273378D01*
X380372275Y-194273378D01*
X380298150Y-194273378D01*
X380287017Y-194246558D01*
X380281682Y-194233492D01*
X380270856Y-194206796D01*
X380255217Y-194168148D01*
X380235442Y-194119226D01*
X380212209Y-194061708D01*
X380186198Y-193997271D01*
X380158084Y-193927594D01*
X380135295Y-193871087D01*
X379994706Y-193522435D01*
X380074643Y-193522462D01*
X380154580Y-193522488D01*
X380257121Y-193788592D01*
X380281355Y-193851256D01*
X380303872Y-193909051D01*
X380323954Y-193960162D01*
X380340878Y-194002774D01*
X380353926Y-194035071D01*
X380362377Y-194055237D01*
X380365355Y-194061429D01*
X380369684Y-194055797D01*
X380379167Y-194036597D01*
X380393011Y-194005660D01*
X380410427Y-193964816D01*
X380430623Y-193915893D01*
X380452807Y-193860721D01*
X380459920Y-193842748D01*
X380483526Y-193782880D01*
X380506039Y-193725787D01*
X380526498Y-193673912D01*
X380543940Y-193629694D01*
X380557403Y-193595575D01*
X380565922Y-193573995D01*
X380566731Y-193571948D01*
X380584669Y-193526561D01*
X380664635Y-193524200D01*
X380744601Y-193521838D01*
X380728955Y-193561334D01*
G37*
G36*
X388687775Y-199533921D02*
G01*
X388688655Y-199542545D01*
X388687604Y-199552525D01*
X388683848Y-199565407D01*
X388676610Y-199582738D01*
X388665117Y-199606063D01*
X388648594Y-199636928D01*
X388626265Y-199676879D01*
X388597355Y-199727462D01*
X388561090Y-199790222D01*
X388547773Y-199813184D01*
X388505228Y-199886055D01*
X388469790Y-199945683D01*
X388440660Y-199993315D01*
X388417037Y-200030195D01*
X388398121Y-200057567D01*
X388383113Y-200076676D01*
X388371211Y-200088768D01*
X388369951Y-200089808D01*
X388337517Y-200115873D01*
X386756008Y-200115873D01*
X385174499Y-200115873D01*
X385209322Y-200051919D01*
X385251623Y-199979893D01*
X385295022Y-199918624D01*
X385343671Y-199862648D01*
X385382418Y-199824306D01*
X385476136Y-199745909D01*
X385580932Y-199675629D01*
X385693405Y-199615183D01*
X385810150Y-199566288D01*
X385927764Y-199530661D01*
X385990557Y-199517523D01*
X386001777Y-199515876D01*
X386016173Y-199514379D01*
X386034512Y-199513024D01*
X386057562Y-199511806D01*
X386086090Y-199510717D01*
X386120863Y-199509751D01*
X386162648Y-199508900D01*
X386212212Y-199508158D01*
X386270323Y-199507518D01*
X386337748Y-199506973D01*
X386415253Y-199506517D01*
X386503607Y-199506142D01*
X386603576Y-199505841D01*
X386715927Y-199505608D01*
X386841429Y-199505437D01*
X386980847Y-199505319D01*
X387134949Y-199505249D01*
X387304502Y-199505219D01*
X387371759Y-199505216D01*
X388682390Y-199505216D01*
X388687775Y-199533921D01*
G37*
G36*
X379110740Y-199534255D02*
G01*
X379113095Y-199542271D01*
X379114049Y-199550355D01*
X379112845Y-199560063D01*
X379108729Y-199572951D01*
X379100944Y-199590573D01*
X379088737Y-199614485D01*
X379071351Y-199646243D01*
X379048032Y-199687400D01*
X379018024Y-199739514D01*
X378980572Y-199804139D01*
X378975155Y-199813474D01*
X378935370Y-199881794D01*
X378902686Y-199937253D01*
X378876102Y-199981373D01*
X378854621Y-200015673D01*
X378837244Y-200041673D01*
X378822972Y-200060895D01*
X378810805Y-200074857D01*
X378799746Y-200085081D01*
X378793631Y-200089764D01*
X378757275Y-200115873D01*
X377299318Y-200115873D01*
X375841360Y-200115873D01*
X375876183Y-200051919D01*
X375918485Y-199979893D01*
X375961883Y-199918624D01*
X376010532Y-199862648D01*
X376049280Y-199824306D01*
X376142997Y-199745909D01*
X376247794Y-199675629D01*
X376360266Y-199615183D01*
X376477011Y-199566288D01*
X376594626Y-199530661D01*
X376657418Y-199517523D01*
X376669168Y-199515794D01*
X376684142Y-199514230D01*
X376703152Y-199512823D01*
X376727008Y-199511566D01*
X376756518Y-199510450D01*
X376792493Y-199509468D01*
X376835743Y-199508612D01*
X376887078Y-199507873D01*
X376947307Y-199507245D01*
X377017241Y-199506718D01*
X377097689Y-199506285D01*
X377189460Y-199505939D01*
X377293366Y-199505670D01*
X377410216Y-199505472D01*
X377540819Y-199505336D01*
X377685986Y-199505254D01*
X377846527Y-199505219D01*
X377914573Y-199505216D01*
X379101156Y-199505216D01*
X379110740Y-199534255D01*
G37*
G36*
X377122126Y-193747305D02*
G01*
X377122451Y-193808390D01*
X377123265Y-193865598D01*
X377124493Y-193916388D01*
X377126059Y-193958218D01*
X377127886Y-193988544D01*
X377129830Y-194004545D01*
X377147918Y-194049427D01*
X377178398Y-194083991D01*
X377220255Y-194107542D01*
X377272473Y-194119385D01*
X377299570Y-194120710D01*
X377358154Y-194114786D01*
X377405356Y-194097040D01*
X377441073Y-194067521D01*
X377457644Y-194042881D01*
X377463140Y-194032022D01*
X377467468Y-194021261D01*
X377470766Y-194008567D01*
X377473176Y-193991912D01*
X377474836Y-193969265D01*
X377475886Y-193938596D01*
X377476465Y-193897875D01*
X377476713Y-193845072D01*
X377476769Y-193778157D01*
X377476770Y-193764575D01*
X377476770Y-193522435D01*
X377551039Y-193522435D01*
X377625308Y-193522435D01*
X377625308Y-193789908D01*
X377625308Y-194057381D01*
X377598489Y-194109183D01*
X377561372Y-194163465D01*
X377511935Y-194208719D01*
X377452997Y-194242491D01*
X377438704Y-194248261D01*
X377389042Y-194261559D01*
X377331092Y-194268901D01*
X377272125Y-194269832D01*
X377219415Y-194263896D01*
X377212702Y-194262434D01*
X377146163Y-194239527D01*
X377087200Y-194204705D01*
X377038271Y-194159861D01*
X377001835Y-194106890D01*
X376996479Y-194095957D01*
X376991242Y-194083999D01*
X376987045Y-194072078D01*
X376983752Y-194058242D01*
X376981225Y-194040542D01*
X376979327Y-194017026D01*
X376977924Y-193985745D01*
X376976876Y-193944749D01*
X376976049Y-193892086D01*
X376975305Y-193825806D01*
X376974937Y-193788566D01*
X376972356Y-193522435D01*
X377047143Y-193522435D01*
X377121929Y-193522435D01*
X377122126Y-193747305D01*
G37*
G36*
X382587146Y-193775832D02*
G01*
X382621574Y-193780280D01*
X382642592Y-193785927D01*
X382666980Y-193797657D01*
X382693160Y-193812928D01*
X382717048Y-193828987D01*
X382734559Y-193843082D01*
X382741610Y-193852461D01*
X382741617Y-193852649D01*
X382735493Y-193861112D01*
X382719450Y-193875953D01*
X382697342Y-193893666D01*
X382653066Y-193927094D01*
X382616884Y-193906411D01*
X382572242Y-193888826D01*
X382529600Y-193887206D01*
X382490761Y-193901012D01*
X382457529Y-193929706D01*
X382437784Y-193959864D01*
X382423843Y-194002272D01*
X382423754Y-194044641D01*
X382435895Y-194084095D01*
X382458647Y-194117760D01*
X382490388Y-194142761D01*
X382529498Y-194156222D01*
X382549346Y-194157749D01*
X382578729Y-194152824D01*
X382610847Y-194140226D01*
X382616884Y-194136966D01*
X382653066Y-194116282D01*
X382697342Y-194149711D01*
X382719740Y-194167671D01*
X382735663Y-194182443D01*
X382741617Y-194190727D01*
X382734555Y-194201678D01*
X382715992Y-194216177D01*
X382689864Y-194231936D01*
X382660109Y-194246665D01*
X382630663Y-194258076D01*
X382620910Y-194260927D01*
X382567098Y-194270956D01*
X382518097Y-194270536D01*
X382483611Y-194264399D01*
X382428343Y-194244640D01*
X382379777Y-194214169D01*
X382340802Y-194175448D01*
X382314305Y-194130933D01*
X382308836Y-194115544D01*
X382298519Y-194060875D01*
X382296994Y-194001344D01*
X382304292Y-193945135D01*
X382308144Y-193930350D01*
X382329655Y-193882053D01*
X382363554Y-193842151D01*
X382411377Y-193808962D01*
X382425876Y-193801424D01*
X382457184Y-193787098D01*
X382483154Y-193778884D01*
X382511110Y-193775142D01*
X382547301Y-193774232D01*
X382587146Y-193775832D01*
G37*
G36*
X381422593Y-193522751D02*
G01*
X381481321Y-193523907D01*
X381528091Y-193526219D01*
X381565173Y-193530002D01*
X381594835Y-193535571D01*
X381619346Y-193543240D01*
X381640976Y-193553324D01*
X381661320Y-193565691D01*
X381692797Y-193595810D01*
X381716574Y-193637660D01*
X381731050Y-193687638D01*
X381734860Y-193731324D01*
X381733458Y-193766031D01*
X381729809Y-193798984D01*
X381725440Y-193820153D01*
X381705915Y-193860956D01*
X381675017Y-193898131D01*
X381637719Y-193925789D01*
X381635036Y-193927196D01*
X381615507Y-193938031D01*
X381604068Y-193946063D01*
X381602826Y-193947857D01*
X381606738Y-193955987D01*
X381617648Y-193976184D01*
X381634313Y-194006215D01*
X381655493Y-194043846D01*
X381679946Y-194086843D01*
X381684133Y-194094165D01*
X381709762Y-194139026D01*
X381733089Y-194179995D01*
X381752670Y-194214530D01*
X381767067Y-194240090D01*
X381774837Y-194254133D01*
X381775196Y-194254810D01*
X381784953Y-194273378D01*
X381700079Y-194273245D01*
X381615204Y-194273112D01*
X381524916Y-194116454D01*
X381434627Y-193959797D01*
X381366062Y-193959797D01*
X381297498Y-193959797D01*
X381297498Y-194116587D01*
X381297498Y-194273378D01*
X381223229Y-194273378D01*
X381148960Y-194273378D01*
X381148960Y-193897906D01*
X381148960Y-193820647D01*
X381297498Y-193820647D01*
X381429325Y-193818016D01*
X381479250Y-193816863D01*
X381515386Y-193815465D01*
X381540443Y-193813459D01*
X381557137Y-193810481D01*
X381568179Y-193806168D01*
X381576284Y-193800156D01*
X381578486Y-193798029D01*
X381591058Y-193778310D01*
X381599494Y-193752333D01*
X381600209Y-193747944D01*
X381600946Y-193722219D01*
X381592964Y-193702690D01*
X381585145Y-193692663D01*
X381569441Y-193678500D01*
X381548675Y-193668161D01*
X381520330Y-193661130D01*
X381481888Y-193656896D01*
X381430832Y-193654947D01*
X381398586Y-193654666D01*
X381297498Y-193654469D01*
X381297498Y-193737558D01*
X381297498Y-193820647D01*
X381148960Y-193820647D01*
X381148960Y-193737558D01*
X381148960Y-193522435D01*
X381349639Y-193522435D01*
X381422593Y-193522751D01*
G37*
G36*
X384725749Y-200359542D02*
G01*
X384726905Y-200364015D01*
X384728112Y-200367637D01*
X384728898Y-200371279D01*
X384728791Y-200375810D01*
X384727318Y-200382099D01*
X384724007Y-200391018D01*
X384718386Y-200403435D01*
X384709983Y-200420221D01*
X384698326Y-200442245D01*
X384682942Y-200470377D01*
X384663360Y-200505487D01*
X384639107Y-200548444D01*
X384609711Y-200600120D01*
X384574700Y-200661382D01*
X384533602Y-200733102D01*
X384485944Y-200816149D01*
X384431255Y-200911393D01*
X384369062Y-201019704D01*
X384338398Y-201073118D01*
X384297871Y-201143739D01*
X384255934Y-201216852D01*
X384214227Y-201289593D01*
X384174394Y-201359097D01*
X384138077Y-201422499D01*
X384106916Y-201476933D01*
X384085371Y-201514606D01*
X384048661Y-201577598D01*
X384018254Y-201626946D01*
X383993323Y-201663891D01*
X383973044Y-201689675D01*
X383960780Y-201702095D01*
X383925795Y-201732794D01*
X383442359Y-201733040D01*
X383354539Y-201732994D01*
X383271673Y-201732772D01*
X383195226Y-201732393D01*
X383126664Y-201731870D01*
X383067453Y-201731220D01*
X383019057Y-201730459D01*
X382982942Y-201729602D01*
X382960573Y-201728665D01*
X382953422Y-201727785D01*
X382948675Y-201721149D01*
X382946564Y-201712227D01*
X382947647Y-201699857D01*
X382952480Y-201682880D01*
X382961618Y-201660135D01*
X382975618Y-201630460D01*
X382995037Y-201592696D01*
X383020430Y-201545682D01*
X383052355Y-201488257D01*
X383091367Y-201419260D01*
X383138023Y-201337531D01*
X383153060Y-201311286D01*
X383200852Y-201227910D01*
X383252343Y-201138058D01*
X383305691Y-201044943D01*
X383359055Y-200951782D01*
X383410593Y-200861790D01*
X383458464Y-200778181D01*
X383500826Y-200704171D01*
X383518216Y-200673780D01*
X383559795Y-200601311D01*
X383594273Y-200541784D01*
X383622592Y-200493728D01*
X383645696Y-200455675D01*
X383664528Y-200426156D01*
X383680030Y-200403700D01*
X383693147Y-200386839D01*
X383704822Y-200374103D01*
X383715997Y-200364022D01*
X383718171Y-200362263D01*
X383758109Y-200330428D01*
X384239198Y-200330428D01*
X384720287Y-200330428D01*
X384725749Y-200359542D01*
G37*
G36*
X382584827Y-200360270D02*
G01*
X382583004Y-200372808D01*
X382577014Y-200390566D01*
X382566079Y-200415104D01*
X382549419Y-200447986D01*
X382526254Y-200490773D01*
X382495806Y-200545026D01*
X382470542Y-200589266D01*
X382438270Y-200645500D01*
X382399757Y-200712600D01*
X382356982Y-200787123D01*
X382311922Y-200865622D01*
X382266555Y-200944652D01*
X382222857Y-201020769D01*
X382197541Y-201064866D01*
X382157052Y-201135401D01*
X382114712Y-201209187D01*
X382072281Y-201283153D01*
X382031521Y-201354229D01*
X381994192Y-201419344D01*
X381962055Y-201475427D01*
X381943141Y-201508455D01*
X381910118Y-201565557D01*
X381883512Y-201610041D01*
X381862001Y-201643863D01*
X381844257Y-201668980D01*
X381828957Y-201687350D01*
X381814776Y-201700928D01*
X381810434Y-201704443D01*
X381773412Y-201733287D01*
X381292504Y-201733287D01*
X381204993Y-201733183D01*
X381122497Y-201732886D01*
X381046477Y-201732413D01*
X380978396Y-201731784D01*
X380919713Y-201731016D01*
X380871890Y-201730129D01*
X380836388Y-201729142D01*
X380814668Y-201728072D01*
X380808125Y-201727097D01*
X380803783Y-201715106D01*
X380799303Y-201698511D01*
X380798312Y-201694723D01*
X380797648Y-201691039D01*
X380797802Y-201686558D01*
X380799267Y-201680378D01*
X380802537Y-201671595D01*
X380808103Y-201659310D01*
X380816460Y-201642619D01*
X380828100Y-201620621D01*
X380843516Y-201592414D01*
X380863200Y-201557096D01*
X380887646Y-201513765D01*
X380917346Y-201461519D01*
X380952793Y-201399456D01*
X380994480Y-201326675D01*
X381042900Y-201242273D01*
X381098546Y-201145348D01*
X381161346Y-201035983D01*
X381197183Y-200973562D01*
X381238669Y-200901292D01*
X381283238Y-200823641D01*
X381328326Y-200745077D01*
X381371370Y-200670067D01*
X381403874Y-200613417D01*
X381440462Y-200549846D01*
X381470102Y-200498978D01*
X381493926Y-200459124D01*
X381513065Y-200428596D01*
X381528651Y-200405706D01*
X381541816Y-200388764D01*
X381553691Y-200376082D01*
X381565407Y-200365972D01*
X381573917Y-200359664D01*
X381615151Y-200330428D01*
X382099989Y-200330428D01*
X382584827Y-200330428D01*
X382584827Y-200360270D01*
G37*
G36*
X385397165Y-193781575D02*
G01*
X385450331Y-193803393D01*
X385495681Y-193836325D01*
X385523655Y-193869257D01*
X385540892Y-193898697D01*
X385553088Y-193929990D01*
X385561750Y-193968086D01*
X385568121Y-194015499D01*
X385573712Y-194067075D01*
X385399608Y-194067075D01*
X385341750Y-194067151D01*
X385298333Y-194067501D01*
X385267295Y-194068307D01*
X385246573Y-194069751D01*
X385234104Y-194072017D01*
X385227826Y-194075285D01*
X385225675Y-194079740D01*
X385225503Y-194082466D01*
X385232472Y-194104504D01*
X385250416Y-194127259D01*
X385274889Y-194145565D01*
X385283284Y-194149603D01*
X385313692Y-194155944D01*
X385351841Y-194155370D01*
X385390842Y-194148603D01*
X385423808Y-194136369D01*
X385427194Y-194134472D01*
X385454692Y-194118248D01*
X385494267Y-194158427D01*
X385514910Y-194179884D01*
X385525425Y-194193376D01*
X385527433Y-194202531D01*
X385522555Y-194210974D01*
X385519370Y-194214599D01*
X385493138Y-194234036D01*
X385454901Y-194250257D01*
X385408989Y-194262408D01*
X385359733Y-194269632D01*
X385311463Y-194271075D01*
X385268508Y-194265881D01*
X385264572Y-194264938D01*
X385207328Y-194242675D01*
X385156990Y-194207804D01*
X385116762Y-194162949D01*
X385096364Y-194127086D01*
X385086239Y-194091700D01*
X385081480Y-194046738D01*
X385081967Y-193998192D01*
X385087579Y-193952052D01*
X385087764Y-193951395D01*
X385226725Y-193951395D01*
X385227378Y-193962724D01*
X385237491Y-193970055D01*
X385258950Y-193974208D01*
X385293641Y-193976005D01*
X385327908Y-193976302D01*
X385365795Y-193975679D01*
X385397319Y-193973990D01*
X385419000Y-193971498D01*
X385427252Y-193968742D01*
X385428417Y-193952828D01*
X385419096Y-193932344D01*
X385402212Y-193912342D01*
X385388688Y-193902067D01*
X385353910Y-193888924D01*
X385315983Y-193887403D01*
X385279606Y-193896499D01*
X385249479Y-193915205D01*
X385233646Y-193935244D01*
X385226725Y-193951395D01*
X385087764Y-193951395D01*
X385098196Y-193914308D01*
X385100760Y-193908598D01*
X385125051Y-193870873D01*
X385158531Y-193834636D01*
X385195845Y-193805086D01*
X385221982Y-193790908D01*
X385279869Y-193774522D01*
X385339304Y-193771681D01*
X385397165Y-193781575D01*
G37*
G36*
X386287994Y-193774886D02*
G01*
X386290009Y-193787001D01*
X386290025Y-193789625D01*
X386290025Y-193810703D01*
X386320971Y-193792414D01*
X386342142Y-193782197D01*
X386365873Y-193776578D01*
X386397897Y-193774456D01*
X386414883Y-193774341D01*
X386449657Y-193775277D01*
X386474334Y-193778832D01*
X386495288Y-193786561D01*
X386518035Y-193799483D01*
X386558219Y-193824409D01*
X386585547Y-193805935D01*
X386627425Y-193786081D01*
X386677975Y-193774952D01*
X386731728Y-193772764D01*
X386783217Y-193779729D01*
X386826972Y-193796064D01*
X386827649Y-193796442D01*
X386862095Y-193823753D01*
X386890885Y-193861497D01*
X386909124Y-193902696D01*
X386911574Y-193919376D01*
X386913725Y-193949575D01*
X386915455Y-193990308D01*
X386916643Y-194038592D01*
X386917170Y-194091440D01*
X386917186Y-194102092D01*
X386917186Y-194273378D01*
X386847515Y-194273378D01*
X386777844Y-194273378D01*
X386775309Y-194105055D01*
X386774206Y-194043561D01*
X386772551Y-193996411D01*
X386769689Y-193961447D01*
X386764963Y-193936510D01*
X386757718Y-193919440D01*
X386747300Y-193908078D01*
X386733052Y-193900265D01*
X386714320Y-193893842D01*
X386710879Y-193892804D01*
X386686030Y-193887973D01*
X386665249Y-193892158D01*
X386654598Y-193897141D01*
X386638212Y-193906901D01*
X386625737Y-193918529D01*
X386616649Y-193934280D01*
X386610424Y-193956405D01*
X386606536Y-193987156D01*
X386604462Y-194028786D01*
X386603678Y-194083546D01*
X386603606Y-194116178D01*
X386603606Y-194273378D01*
X386538567Y-194273378D01*
X386473528Y-194273378D01*
X386470246Y-194113794D01*
X386468669Y-194052023D01*
X386466374Y-194004521D01*
X386462720Y-193969055D01*
X386457064Y-193943389D01*
X386448766Y-193925290D01*
X386437183Y-193912522D01*
X386421673Y-193902852D01*
X386407867Y-193896617D01*
X386374122Y-193888641D01*
X386343768Y-193895609D01*
X386313848Y-193918201D01*
X386313724Y-193918325D01*
X386290025Y-193942024D01*
X386290025Y-194107701D01*
X386290025Y-194273378D01*
X386219882Y-194273378D01*
X386149739Y-194273378D01*
X386149739Y-194030446D01*
X386149739Y-193787514D01*
X386188937Y-193782445D01*
X386220589Y-193778259D01*
X386251534Y-193774027D01*
X386259080Y-193772962D01*
X386279264Y-193771057D01*
X386287994Y-193774886D01*
G37*
G36*
X382107337Y-193780412D02*
G01*
X382155688Y-193800938D01*
X382193365Y-193833618D01*
X382214663Y-193866659D01*
X382221030Y-193880437D01*
X382225888Y-193894170D01*
X382229486Y-193910350D01*
X382232070Y-193931468D01*
X382233890Y-193960016D01*
X382235192Y-193998484D01*
X382236225Y-194049363D01*
X382236862Y-194089768D01*
X382239611Y-194273378D01*
X382168782Y-194273378D01*
X382134612Y-194273184D01*
X382113696Y-194271982D01*
X382102781Y-194268844D01*
X382098617Y-194262839D01*
X382097953Y-194253127D01*
X382097953Y-194232876D01*
X382054629Y-194253046D01*
X382009869Y-194268416D01*
X381964321Y-194271783D01*
X381912732Y-194263446D01*
X381905410Y-194261545D01*
X381861695Y-194245211D01*
X381829745Y-194221460D01*
X381805359Y-194187047D01*
X381802940Y-194182436D01*
X381787990Y-194136198D01*
X381787585Y-194097580D01*
X381908460Y-194097580D01*
X381915708Y-194123385D01*
X381935324Y-194144953D01*
X381961122Y-194157228D01*
X381983446Y-194163163D01*
X382000116Y-194164956D01*
X382019903Y-194163051D01*
X382033518Y-194160882D01*
X382068161Y-194149379D01*
X382089460Y-194128299D01*
X382097796Y-194097233D01*
X382097953Y-194091388D01*
X382095735Y-194067891D01*
X382086254Y-194052759D01*
X382071133Y-194041738D01*
X382039448Y-194030059D01*
X382001250Y-194027609D01*
X381963492Y-194034069D01*
X381934631Y-194047968D01*
X381914471Y-194071216D01*
X381908460Y-194097580D01*
X381787585Y-194097580D01*
X381787485Y-194088075D01*
X381800217Y-194041405D01*
X381824974Y-193999528D01*
X381860547Y-193965781D01*
X381886940Y-193950661D01*
X381922779Y-193940301D01*
X381967205Y-193935884D01*
X382013361Y-193937540D01*
X382054388Y-193945397D01*
X382060502Y-193947410D01*
X382081532Y-193953759D01*
X382095136Y-193955743D01*
X382097110Y-193955138D01*
X382098500Y-193943574D01*
X382091494Y-193926037D01*
X382079267Y-193908325D01*
X382064992Y-193896235D01*
X382064807Y-193896140D01*
X382036388Y-193888187D01*
X381998045Y-193886172D01*
X381955218Y-193890009D01*
X381917090Y-193898468D01*
X381892838Y-193905136D01*
X381876143Y-193908718D01*
X381871478Y-193908783D01*
X381859727Y-193892217D01*
X381846240Y-193871261D01*
X381834172Y-193851087D01*
X381826679Y-193836866D01*
X381825633Y-193833643D01*
X381833099Y-193824866D01*
X381853086Y-193813966D01*
X381881977Y-193802276D01*
X381916155Y-193791130D01*
X381952002Y-193781862D01*
X381980485Y-193776543D01*
X382048779Y-193772220D01*
X382107337Y-193780412D01*
G37*
G36*
X385936317Y-193780412D02*
G01*
X385984668Y-193800938D01*
X386022345Y-193833618D01*
X386043643Y-193866659D01*
X386050010Y-193880437D01*
X386054868Y-193894170D01*
X386058465Y-193910350D01*
X386061050Y-193931468D01*
X386062869Y-193960016D01*
X386064172Y-193998484D01*
X386065205Y-194049363D01*
X386065842Y-194089768D01*
X386068591Y-194273378D01*
X385997762Y-194273378D01*
X385963592Y-194273184D01*
X385942675Y-194271982D01*
X385931761Y-194268844D01*
X385927597Y-194262839D01*
X385926932Y-194253127D01*
X385926932Y-194232876D01*
X385883609Y-194253046D01*
X385838849Y-194268416D01*
X385793301Y-194271783D01*
X385741712Y-194263446D01*
X385734390Y-194261545D01*
X385690674Y-194245211D01*
X385658725Y-194221460D01*
X385634339Y-194187047D01*
X385631919Y-194182436D01*
X385616969Y-194136198D01*
X385616565Y-194097580D01*
X385737440Y-194097580D01*
X385744688Y-194123385D01*
X385764304Y-194144953D01*
X385790101Y-194157228D01*
X385812426Y-194163163D01*
X385829096Y-194164956D01*
X385848882Y-194163051D01*
X385862498Y-194160882D01*
X385897141Y-194149379D01*
X385918440Y-194128299D01*
X385926776Y-194097233D01*
X385926932Y-194091388D01*
X385924715Y-194067891D01*
X385915234Y-194052759D01*
X385900113Y-194041738D01*
X385868428Y-194030059D01*
X385830230Y-194027609D01*
X385792472Y-194034069D01*
X385763611Y-194047968D01*
X385743450Y-194071216D01*
X385737440Y-194097580D01*
X385616565Y-194097580D01*
X385616465Y-194088075D01*
X385629197Y-194041405D01*
X385653954Y-193999528D01*
X385689527Y-193965781D01*
X385715920Y-193950661D01*
X385751759Y-193940301D01*
X385796185Y-193935884D01*
X385842341Y-193937540D01*
X385883368Y-193945397D01*
X385889482Y-193947410D01*
X385910512Y-193953759D01*
X385924115Y-193955743D01*
X385926090Y-193955138D01*
X385927480Y-193943574D01*
X385920474Y-193926037D01*
X385908247Y-193908325D01*
X385893972Y-193896235D01*
X385893787Y-193896140D01*
X385865368Y-193888187D01*
X385827025Y-193886172D01*
X385784198Y-193890009D01*
X385746070Y-193898468D01*
X385721818Y-193905136D01*
X385705123Y-193908718D01*
X385700458Y-193908783D01*
X385688707Y-193892217D01*
X385675220Y-193871261D01*
X385663152Y-193851087D01*
X385655659Y-193836866D01*
X385654613Y-193833643D01*
X385662079Y-193824866D01*
X385682066Y-193813966D01*
X385710957Y-193802276D01*
X385745134Y-193791130D01*
X385780981Y-193781862D01*
X385809465Y-193776543D01*
X385877759Y-193772220D01*
X385936317Y-193780412D01*
G37*
G36*
X378065535Y-193526826D02*
G01*
X378097229Y-193528029D01*
X378120564Y-193530781D01*
X378139608Y-193535696D01*
X378158434Y-193543387D01*
X378169947Y-193548912D01*
X378200140Y-193565447D01*
X378228741Y-193583807D01*
X378242602Y-193594299D01*
X378269871Y-193617335D01*
X378220186Y-193666314D01*
X378195716Y-193689950D01*
X378179720Y-193703404D01*
X378169198Y-193708357D01*
X378161149Y-193706490D01*
X378155784Y-193702381D01*
X378120270Y-193678087D01*
X378079303Y-193664363D01*
X378028494Y-193659801D01*
X378023092Y-193659792D01*
X377978662Y-193662937D01*
X377946216Y-193673052D01*
X377922085Y-193691870D01*
X377905880Y-193715099D01*
X377898092Y-193732695D01*
X377899966Y-193747516D01*
X377905996Y-193759684D01*
X377924018Y-193780998D01*
X377953413Y-193798504D01*
X377995990Y-193813052D01*
X378040930Y-193823166D01*
X378115450Y-193842230D01*
X378175302Y-193868332D01*
X378220945Y-193901912D01*
X378252839Y-193943411D01*
X378271442Y-193993269D01*
X378277225Y-194049435D01*
X378269463Y-194102951D01*
X378247231Y-194151309D01*
X378212112Y-194193189D01*
X378165686Y-194227272D01*
X378109536Y-194252241D01*
X378045242Y-194266776D01*
X378013157Y-194269605D01*
X377974644Y-194269935D01*
X377935169Y-194267952D01*
X377905880Y-194264471D01*
X377860467Y-194252356D01*
X377811827Y-194232756D01*
X377766701Y-194208769D01*
X377734200Y-194185590D01*
X377706931Y-194161974D01*
X377755662Y-194113938D01*
X377804393Y-194065901D01*
X377835716Y-194087158D01*
X377878789Y-194110345D01*
X377925351Y-194125234D01*
X377972487Y-194131976D01*
X378017283Y-194130724D01*
X378056825Y-194121631D01*
X378088199Y-194104848D01*
X378108490Y-194080530D01*
X378111682Y-194072718D01*
X378116997Y-194046962D01*
X378112448Y-194023150D01*
X378109478Y-194015566D01*
X378096801Y-193994969D01*
X378076468Y-193978620D01*
X378046060Y-193965358D01*
X378003160Y-193954019D01*
X377966901Y-193947037D01*
X377899681Y-193931270D01*
X377842989Y-193909631D01*
X377798687Y-193883021D01*
X377768641Y-193852339D01*
X377767625Y-193850834D01*
X377753924Y-193825760D01*
X377746096Y-193798188D01*
X377742212Y-193761259D01*
X377742150Y-193760162D01*
X377744264Y-193703945D01*
X377758294Y-193656182D01*
X377785416Y-193615000D01*
X377826808Y-193578529D01*
X377874638Y-193549544D01*
X377894025Y-193539884D01*
X377911378Y-193533387D01*
X377930676Y-193529431D01*
X377955900Y-193527392D01*
X377991032Y-193526647D01*
X378021409Y-193526561D01*
X378065535Y-193526826D01*
G37*
G36*
X376734080Y-200360754D02*
G01*
X376731838Y-200376579D01*
X376724489Y-200398077D01*
X376711096Y-200427281D01*
X376690722Y-200466224D01*
X376662431Y-200516941D01*
X376660915Y-200519607D01*
X376603096Y-200621163D01*
X376552896Y-200709363D01*
X376509793Y-200785206D01*
X376473265Y-200849691D01*
X376442791Y-200903818D01*
X376417847Y-200948587D01*
X376397912Y-200984997D01*
X376382463Y-201014048D01*
X376370979Y-201036740D01*
X376362937Y-201054071D01*
X376357815Y-201067043D01*
X376355092Y-201076654D01*
X376354244Y-201083904D01*
X376354751Y-201089792D01*
X376356089Y-201095319D01*
X376357497Y-201100509D01*
X376363031Y-201122558D01*
X377272598Y-201124657D01*
X378182164Y-201126756D01*
X378186691Y-201151513D01*
X378187449Y-201159757D01*
X378186268Y-201169467D01*
X378182368Y-201182180D01*
X378174967Y-201199435D01*
X378163286Y-201222768D01*
X378146541Y-201253717D01*
X378123954Y-201293820D01*
X378094742Y-201344614D01*
X378058125Y-201407636D01*
X378046279Y-201427958D01*
X378029879Y-201456074D01*
X378007952Y-201493662D01*
X377983285Y-201535939D01*
X377958671Y-201578125D01*
X377957196Y-201580652D01*
X377929700Y-201626254D01*
X377907179Y-201659744D01*
X377887522Y-201683916D01*
X377868616Y-201701563D01*
X377862092Y-201706496D01*
X377824787Y-201733287D01*
X376629580Y-201732631D01*
X376459582Y-201732512D01*
X376305348Y-201732349D01*
X376166134Y-201732133D01*
X376041200Y-201731858D01*
X375929804Y-201731516D01*
X375831205Y-201731101D01*
X375744660Y-201730606D01*
X375669428Y-201730023D01*
X375604768Y-201729346D01*
X375549939Y-201728568D01*
X375504198Y-201727681D01*
X375466804Y-201726679D01*
X375437015Y-201725555D01*
X375414090Y-201724301D01*
X375397288Y-201722912D01*
X375385867Y-201721379D01*
X375383351Y-201720884D01*
X375310077Y-201698335D01*
X375248676Y-201665464D01*
X375199774Y-201622918D01*
X375163991Y-201571339D01*
X375141952Y-201511375D01*
X375134972Y-201463795D01*
X375133913Y-201442948D01*
X375133963Y-201423251D01*
X375135670Y-201403521D01*
X375139580Y-201382574D01*
X375146243Y-201359229D01*
X375156205Y-201332302D01*
X375170015Y-201300612D01*
X375188219Y-201262975D01*
X375211366Y-201218208D01*
X375240003Y-201165130D01*
X375274678Y-201102557D01*
X375315938Y-201029306D01*
X375364331Y-200944195D01*
X375420405Y-200846042D01*
X375423679Y-200840317D01*
X375476303Y-200748379D01*
X375521461Y-200669676D01*
X375559846Y-200603094D01*
X375592150Y-200547522D01*
X375619068Y-200501848D01*
X375641292Y-200464959D01*
X375659514Y-200435744D01*
X375674429Y-200413089D01*
X375686728Y-200395884D01*
X375697105Y-200383015D01*
X375706253Y-200373370D01*
X375714865Y-200365837D01*
X375723170Y-200359632D01*
X375764404Y-200330428D01*
X376249242Y-200330428D01*
X376734080Y-200330428D01*
X376734080Y-200360754D01*
G37*
G36*
X383927858Y-193772955D02*
G01*
X383948806Y-193776253D01*
X383978305Y-193780152D01*
X383998792Y-193782555D01*
X384047032Y-193787888D01*
X384043450Y-194040948D01*
X384042282Y-194114964D01*
X384041019Y-194174427D01*
X384039540Y-194221289D01*
X384037726Y-194257502D01*
X384035457Y-194285017D01*
X384032613Y-194305786D01*
X384029075Y-194321761D01*
X384025536Y-194332748D01*
X384001692Y-194378271D01*
X383967269Y-194419397D01*
X383926762Y-194451255D01*
X383906327Y-194461889D01*
X383865482Y-194474409D01*
X383816104Y-194482161D01*
X383765657Y-194484435D01*
X383721606Y-194480518D01*
X383718204Y-194479836D01*
X383680165Y-194469174D01*
X383641998Y-194454167D01*
X383608974Y-194437213D01*
X383586365Y-194420712D01*
X383584886Y-194419186D01*
X383568311Y-194401285D01*
X383598664Y-194366302D01*
X383629017Y-194331319D01*
X383666003Y-194349633D01*
X383705277Y-194363520D01*
X383750090Y-194370786D01*
X383794397Y-194371070D01*
X383832153Y-194364010D01*
X383841885Y-194360131D01*
X383867594Y-194340272D01*
X383889006Y-194310072D01*
X383902446Y-194275680D01*
X383905165Y-194254268D01*
X383904724Y-194239861D01*
X383901071Y-194233951D01*
X383890708Y-194236247D01*
X383870138Y-194246458D01*
X383862096Y-194250684D01*
X383834218Y-194262247D01*
X383802853Y-194267962D01*
X383769005Y-194269251D01*
X383707427Y-194263690D01*
X383656568Y-194246580D01*
X383614763Y-194217285D01*
X383603686Y-194205967D01*
X383579699Y-194176721D01*
X383563372Y-194148681D01*
X383553325Y-194117497D01*
X383548178Y-194078824D01*
X383546575Y-194028967D01*
X383660332Y-194028967D01*
X383665313Y-194056816D01*
X383684304Y-194100517D01*
X383713171Y-194132492D01*
X383749500Y-194151632D01*
X383790877Y-194156828D01*
X383834888Y-194146971D01*
X383848353Y-194140858D01*
X383876767Y-194120483D01*
X383894752Y-194092414D01*
X383903304Y-194054255D01*
X383903688Y-194007982D01*
X383900616Y-193974724D01*
X383894882Y-193952497D01*
X383884834Y-193935861D01*
X383880162Y-193930533D01*
X383844709Y-193902428D01*
X383806753Y-193888679D01*
X383768684Y-193887881D01*
X383732894Y-193898629D01*
X383701772Y-193919517D01*
X383677711Y-193949139D01*
X383663100Y-193986091D01*
X383660332Y-194028967D01*
X383546575Y-194028967D01*
X383546554Y-194028313D01*
X383546542Y-194025814D01*
X383546885Y-193984224D01*
X383548770Y-193954465D01*
X383552902Y-193931884D01*
X383559984Y-193911830D01*
X383565597Y-193899773D01*
X383598347Y-193848257D01*
X383639366Y-193810703D01*
X383689455Y-193786626D01*
X383749418Y-193775542D01*
X383773263Y-193774641D01*
X383810145Y-193775623D01*
X383836510Y-193779755D01*
X383858223Y-193788180D01*
X383866571Y-193792801D01*
X383888756Y-193805537D01*
X383900228Y-193809682D01*
X383904520Y-193804978D01*
X383905165Y-193791167D01*
X383905165Y-193789973D01*
X383907241Y-193775052D01*
X383916891Y-193771423D01*
X383927858Y-193772955D01*
G37*
G36*
X380606637Y-200357247D02*
G01*
X380606825Y-200365540D01*
X380604611Y-200376529D01*
X380599300Y-200391591D01*
X380590196Y-200412106D01*
X380576603Y-200439449D01*
X380557825Y-200475000D01*
X380533167Y-200520136D01*
X380501932Y-200576235D01*
X380463425Y-200644674D01*
X380445150Y-200677016D01*
X380398065Y-200760241D01*
X380358432Y-200830304D01*
X380325622Y-200888432D01*
X380299003Y-200935851D01*
X380277945Y-200973791D01*
X380261820Y-201003477D01*
X380249997Y-201026139D01*
X380241846Y-201043002D01*
X380236736Y-201055294D01*
X380234038Y-201064243D01*
X380233123Y-201071076D01*
X380233359Y-201077021D01*
X380234117Y-201083304D01*
X380234528Y-201087356D01*
X380237101Y-201118504D01*
X380513130Y-201120681D01*
X380589710Y-201121311D01*
X380651398Y-201122020D01*
X380699807Y-201123035D01*
X380736547Y-201124582D01*
X380763231Y-201126888D01*
X380781470Y-201130181D01*
X380792876Y-201134686D01*
X380799062Y-201140631D01*
X380801638Y-201148243D01*
X380802217Y-201157748D01*
X380802245Y-201161369D01*
X380798248Y-201172626D01*
X380786841Y-201196302D01*
X380768992Y-201230599D01*
X380745671Y-201273719D01*
X380717845Y-201323863D01*
X380686485Y-201379230D01*
X380662265Y-201421311D01*
X380621085Y-201491965D01*
X380586876Y-201549618D01*
X380558682Y-201595748D01*
X380535548Y-201631829D01*
X380516519Y-201659338D01*
X380500639Y-201679750D01*
X380486953Y-201694542D01*
X380483008Y-201698215D01*
X380443856Y-201733287D01*
X379319767Y-201733287D01*
X379184915Y-201733242D01*
X379054633Y-201733112D01*
X378929871Y-201732901D01*
X378811579Y-201732615D01*
X378700709Y-201732259D01*
X378598210Y-201731838D01*
X378505033Y-201731357D01*
X378422129Y-201730822D01*
X378350448Y-201730238D01*
X378290941Y-201729609D01*
X378244558Y-201728943D01*
X378212249Y-201728242D01*
X378194966Y-201727513D01*
X378192206Y-201727097D01*
X378185462Y-201712576D01*
X378182810Y-201697810D01*
X378185044Y-201680402D01*
X378192958Y-201657956D01*
X378207345Y-201628077D01*
X378228998Y-201588369D01*
X378250821Y-201550110D01*
X378298823Y-201466831D01*
X378339411Y-201396654D01*
X378373362Y-201338352D01*
X378401451Y-201290697D01*
X378424453Y-201252461D01*
X378443143Y-201222417D01*
X378458297Y-201199336D01*
X378470690Y-201181993D01*
X378481097Y-201169158D01*
X378490294Y-201159605D01*
X378499057Y-201152105D01*
X378504977Y-201147685D01*
X378539864Y-201122630D01*
X378814890Y-201122630D01*
X379089915Y-201122630D01*
X379131247Y-201094129D01*
X379151443Y-201078535D01*
X379169319Y-201060161D01*
X379187524Y-201035616D01*
X379208706Y-201001510D01*
X379223101Y-200976537D01*
X379241435Y-200944182D01*
X379266090Y-200900633D01*
X379295270Y-200849066D01*
X379327178Y-200792657D01*
X379360017Y-200734582D01*
X379383228Y-200693520D01*
X379424958Y-200619670D01*
X379459419Y-200558777D01*
X379487510Y-200509460D01*
X379510128Y-200470332D01*
X379528171Y-200440010D01*
X379542534Y-200417109D01*
X379554117Y-200400246D01*
X379563816Y-200388036D01*
X379572528Y-200379095D01*
X379581151Y-200372038D01*
X379590582Y-200365481D01*
X379599905Y-200359267D01*
X379642729Y-200330428D01*
X380122588Y-200330428D01*
X380602447Y-200330428D01*
X380606637Y-200357247D01*
G37*
G36*
X375405490Y-200360016D02*
G01*
X375403725Y-200372505D01*
X375397903Y-200390011D01*
X375387236Y-200414117D01*
X375370933Y-200446405D01*
X375348206Y-200488460D01*
X375318265Y-200541865D01*
X375291205Y-200589266D01*
X375258933Y-200645500D01*
X375220420Y-200712600D01*
X375177645Y-200787123D01*
X375132585Y-200865622D01*
X375087217Y-200944652D01*
X375043520Y-201020769D01*
X375018203Y-201064866D01*
X374977715Y-201135401D01*
X374935375Y-201209187D01*
X374892944Y-201283153D01*
X374852184Y-201354229D01*
X374814854Y-201419344D01*
X374782718Y-201475427D01*
X374763804Y-201508455D01*
X374730780Y-201565557D01*
X374704175Y-201610041D01*
X374682663Y-201643863D01*
X374664920Y-201668980D01*
X374649620Y-201687350D01*
X374635438Y-201700928D01*
X374631097Y-201704443D01*
X374594074Y-201733287D01*
X373277154Y-201732631D01*
X373098628Y-201732520D01*
X372935901Y-201732369D01*
X372788266Y-201732172D01*
X372655017Y-201731923D01*
X372535449Y-201731616D01*
X372428854Y-201731244D01*
X372334528Y-201730803D01*
X372251765Y-201730285D01*
X372179858Y-201729685D01*
X372118101Y-201728996D01*
X372065789Y-201728213D01*
X372022216Y-201727329D01*
X371986674Y-201726339D01*
X371958460Y-201725236D01*
X371936866Y-201724014D01*
X371921187Y-201722667D01*
X371910716Y-201721190D01*
X371909212Y-201720884D01*
X371835937Y-201698335D01*
X371774537Y-201665464D01*
X371725635Y-201622918D01*
X371689852Y-201571339D01*
X371667813Y-201511375D01*
X371660833Y-201463795D01*
X371659896Y-201433821D01*
X371661693Y-201405098D01*
X371666983Y-201375694D01*
X371676527Y-201343676D01*
X371691084Y-201307111D01*
X371711416Y-201264065D01*
X371738283Y-201212606D01*
X371772444Y-201150801D01*
X371807848Y-201088605D01*
X372880079Y-201088605D01*
X372880088Y-201096088D01*
X372881576Y-201102391D01*
X372885749Y-201107612D01*
X372893813Y-201111854D01*
X372906973Y-201115218D01*
X372926435Y-201117804D01*
X372953404Y-201119715D01*
X372989086Y-201121050D01*
X373034686Y-201121911D01*
X373091411Y-201122399D01*
X373160465Y-201122616D01*
X373243055Y-201122661D01*
X373340385Y-201122637D01*
X373390723Y-201122630D01*
X373891085Y-201122630D01*
X373932579Y-201094052D01*
X373961186Y-201069202D01*
X373987803Y-201037029D01*
X374010091Y-201001541D01*
X374025710Y-200966746D01*
X374032324Y-200936655D01*
X374031492Y-200924482D01*
X374026076Y-200899823D01*
X373518880Y-200899823D01*
X373011684Y-200899823D01*
X372975236Y-200926643D01*
X372953065Y-200947584D01*
X372929800Y-200976936D01*
X372908254Y-201010161D01*
X372891236Y-201042722D01*
X372881558Y-201070081D01*
X372880344Y-201079839D01*
X372880079Y-201088605D01*
X371807848Y-201088605D01*
X371809703Y-201085347D01*
X371843721Y-201026088D01*
X371878311Y-200965823D01*
X371911679Y-200907683D01*
X371942026Y-200854797D01*
X371967558Y-200810295D01*
X371984838Y-200780168D01*
X372026008Y-200710805D01*
X372063308Y-200654009D01*
X372099112Y-200607068D01*
X372135792Y-200567273D01*
X372175722Y-200531911D01*
X372221276Y-200498271D01*
X372245981Y-200481846D01*
X372323409Y-200437492D01*
X372407275Y-200401027D01*
X372500905Y-200371183D01*
X372591520Y-200349894D01*
X372601499Y-200348045D01*
X372612988Y-200346356D01*
X372626760Y-200344819D01*
X372643587Y-200343424D01*
X372664240Y-200342161D01*
X372689494Y-200341022D01*
X372720120Y-200339997D01*
X372756890Y-200339078D01*
X372800577Y-200338255D01*
X372851954Y-200337519D01*
X372911792Y-200336860D01*
X372980864Y-200336270D01*
X373059944Y-200335739D01*
X373149802Y-200335259D01*
X373251212Y-200334819D01*
X373364945Y-200334412D01*
X373491775Y-200334027D01*
X373632474Y-200333656D01*
X373787814Y-200333288D01*
X373958567Y-200332916D01*
X374033576Y-200332760D01*
X375405490Y-200329919D01*
X375405490Y-200360016D01*
G37*
G36*
X370541875Y-200330448D02*
G01*
X370697293Y-200330509D01*
X370847443Y-200330608D01*
X370991525Y-200330743D01*
X371128740Y-200330912D01*
X371258288Y-200331113D01*
X371379369Y-200331344D01*
X371491183Y-200331603D01*
X371592930Y-200331888D01*
X371683810Y-200332196D01*
X371763023Y-200332526D01*
X371829769Y-200332876D01*
X371883249Y-200333243D01*
X371922662Y-200333627D01*
X371947209Y-200334023D01*
X371956089Y-200334431D01*
X371956107Y-200334451D01*
X371951824Y-200344655D01*
X371940201Y-200365642D01*
X371923080Y-200394482D01*
X371902302Y-200428244D01*
X371879708Y-200463996D01*
X371857140Y-200498806D01*
X371836438Y-200529744D01*
X371819444Y-200553879D01*
X371812753Y-200562679D01*
X371751622Y-200629200D01*
X371676982Y-200693485D01*
X371591820Y-200753859D01*
X371499123Y-200808650D01*
X371401875Y-200856181D01*
X371303064Y-200894779D01*
X371205676Y-200922771D01*
X371151526Y-200933405D01*
X371120123Y-200938871D01*
X371095321Y-200944029D01*
X371081400Y-200947963D01*
X371080053Y-200948705D01*
X371078262Y-200958823D01*
X371079386Y-200979903D01*
X371081883Y-200998849D01*
X371084880Y-201018666D01*
X371089759Y-201052299D01*
X371096161Y-201097212D01*
X371103727Y-201150868D01*
X371112098Y-201210732D01*
X371120914Y-201274269D01*
X371122766Y-201287673D01*
X371131888Y-201353532D01*
X371140871Y-201417936D01*
X371149303Y-201477976D01*
X371156774Y-201530744D01*
X371162875Y-201573331D01*
X371167195Y-201602828D01*
X371167579Y-201605379D01*
X371172366Y-201637960D01*
X371175844Y-201663345D01*
X371177526Y-201677897D01*
X371177539Y-201679974D01*
X371171121Y-201684993D01*
X371156122Y-201697449D01*
X371145050Y-201706793D01*
X371113818Y-201733287D01*
X370608663Y-201733230D01*
X370103508Y-201733174D01*
X370085854Y-201706411D01*
X370078456Y-201694058D01*
X370072035Y-201679902D01*
X370065951Y-201661465D01*
X370059563Y-201636266D01*
X370052232Y-201601825D01*
X370043316Y-201555663D01*
X370034196Y-201506353D01*
X370026494Y-201464507D01*
X370016815Y-201412265D01*
X370006242Y-201355449D01*
X369995855Y-201299881D01*
X369992791Y-201283546D01*
X369983057Y-201231573D01*
X369973143Y-201178428D01*
X369964006Y-201129249D01*
X369956601Y-201089172D01*
X369954411Y-201077244D01*
X369946425Y-201039781D01*
X369937005Y-201004758D01*
X369927807Y-200978109D01*
X369925035Y-200972029D01*
X369909248Y-200941084D01*
X369710871Y-200941084D01*
X369512493Y-200941084D01*
X369468618Y-200972029D01*
X369454401Y-200982666D01*
X369441513Y-200994247D01*
X369428591Y-201008737D01*
X369414267Y-201028100D01*
X369397177Y-201054297D01*
X369375954Y-201089293D01*
X369349233Y-201135052D01*
X369320807Y-201184521D01*
X369265774Y-201280624D01*
X369218285Y-201363454D01*
X369177695Y-201434065D01*
X369143359Y-201493512D01*
X369114630Y-201542851D01*
X369090863Y-201583137D01*
X369071413Y-201615424D01*
X369055634Y-201640768D01*
X369042880Y-201660224D01*
X369032505Y-201674847D01*
X369023865Y-201685691D01*
X369016314Y-201693813D01*
X369009205Y-201700267D01*
X369001894Y-201706108D01*
X369001428Y-201706467D01*
X368966603Y-201733287D01*
X368485265Y-201733287D01*
X368384066Y-201733271D01*
X368298103Y-201733198D01*
X368226105Y-201733025D01*
X368166805Y-201732711D01*
X368118933Y-201732215D01*
X368081219Y-201731496D01*
X368052395Y-201730512D01*
X368031192Y-201729221D01*
X368016341Y-201727583D01*
X368006572Y-201725556D01*
X368000616Y-201723099D01*
X367997206Y-201720170D01*
X367995384Y-201717325D01*
X367989708Y-201703968D01*
X367988321Y-201690129D01*
X367992131Y-201673015D01*
X368002047Y-201649833D01*
X368018977Y-201617790D01*
X368039570Y-201581486D01*
X368102255Y-201472547D01*
X368157672Y-201376237D01*
X368206785Y-201290884D01*
X368250557Y-201214810D01*
X368289951Y-201146342D01*
X368325932Y-201083805D01*
X368359463Y-201025523D01*
X368391508Y-200969823D01*
X368423031Y-200915029D01*
X368454994Y-200859466D01*
X368488362Y-200801460D01*
X368488743Y-200800798D01*
X368524892Y-200737946D01*
X368560518Y-200675988D01*
X368594255Y-200617298D01*
X368624736Y-200564255D01*
X368650597Y-200519234D01*
X368670472Y-200484611D01*
X368679465Y-200468928D01*
X368704052Y-200428050D01*
X368725019Y-200398537D01*
X368745361Y-200376632D01*
X368766640Y-200359588D01*
X368807874Y-200330428D01*
X370381991Y-200330428D01*
X370541875Y-200330448D01*
G37*
G36*
X386067218Y-200360754D02*
G01*
X386064977Y-200376579D01*
X386057628Y-200398077D01*
X386044235Y-200427281D01*
X386023861Y-200466224D01*
X385995570Y-200516941D01*
X385994054Y-200519607D01*
X385936234Y-200621163D01*
X385886034Y-200709363D01*
X385842931Y-200785206D01*
X385806403Y-200849692D01*
X385775928Y-200903819D01*
X385750984Y-200948589D01*
X385731049Y-200985000D01*
X385715600Y-201014052D01*
X385704116Y-201036745D01*
X385696075Y-201054078D01*
X385690954Y-201067052D01*
X385688231Y-201076665D01*
X385687385Y-201083918D01*
X385687892Y-201089810D01*
X385689232Y-201095341D01*
X385690645Y-201100545D01*
X385696188Y-201122630D01*
X386197275Y-201122630D01*
X386698362Y-201122630D01*
X386739856Y-201094052D01*
X386768464Y-201069202D01*
X386795081Y-201037029D01*
X386817368Y-201001541D01*
X386832988Y-200966746D01*
X386839602Y-200936655D01*
X386838769Y-200924482D01*
X386833353Y-200899823D01*
X386504807Y-200899823D01*
X386421130Y-200899847D01*
X386352474Y-200899784D01*
X386297359Y-200899435D01*
X386254303Y-200898599D01*
X386221825Y-200897077D01*
X386198443Y-200894667D01*
X386182676Y-200891170D01*
X386173041Y-200886386D01*
X386168058Y-200880115D01*
X386166245Y-200872155D01*
X386166120Y-200862308D01*
X386166244Y-200854078D01*
X386170232Y-200842201D01*
X386181524Y-200817996D01*
X386199108Y-200783389D01*
X386221971Y-200740308D01*
X386249102Y-200690680D01*
X386279490Y-200636434D01*
X386292088Y-200614298D01*
X386329020Y-200550006D01*
X386359116Y-200498464D01*
X386383502Y-200457965D01*
X386403301Y-200426800D01*
X386419637Y-200403261D01*
X386433633Y-200385640D01*
X386446414Y-200372228D01*
X386457872Y-200362293D01*
X386497810Y-200330428D01*
X387350244Y-200330428D01*
X388202679Y-200330428D01*
X388208117Y-200359419D01*
X388208793Y-200366217D01*
X388207996Y-200374409D01*
X388205135Y-200385123D01*
X388199620Y-200399485D01*
X388190858Y-200418623D01*
X388178260Y-200443662D01*
X388161234Y-200475729D01*
X388139189Y-200515951D01*
X388111534Y-200565454D01*
X388077677Y-200625366D01*
X388037028Y-200696813D01*
X387988996Y-200780921D01*
X387964640Y-200823507D01*
X387919469Y-200902356D01*
X387876110Y-200977830D01*
X387835363Y-201048555D01*
X387798027Y-201113152D01*
X387764899Y-201170246D01*
X387736778Y-201218461D01*
X387714463Y-201256419D01*
X387698753Y-201282744D01*
X387690602Y-201295831D01*
X387664867Y-201328859D01*
X387628864Y-201368061D01*
X387585930Y-201410265D01*
X387539398Y-201452298D01*
X387492604Y-201490987D01*
X387459093Y-201516078D01*
X387391557Y-201559955D01*
X387315252Y-201602925D01*
X387236310Y-201641828D01*
X387160864Y-201673509D01*
X387135867Y-201682494D01*
X387115119Y-201689598D01*
X387096094Y-201696008D01*
X387077885Y-201701759D01*
X387059583Y-201706886D01*
X387040281Y-201711424D01*
X387019071Y-201715408D01*
X386995046Y-201718874D01*
X386967298Y-201721856D01*
X386934919Y-201724391D01*
X386897002Y-201726512D01*
X386852638Y-201728255D01*
X386800920Y-201729656D01*
X386740940Y-201730749D01*
X386671791Y-201731570D01*
X386592565Y-201732153D01*
X386502354Y-201732534D01*
X386400251Y-201732748D01*
X386285347Y-201732831D01*
X386156735Y-201732817D01*
X386013508Y-201732741D01*
X385854757Y-201732639D01*
X385841267Y-201732631D01*
X385680194Y-201732504D01*
X385534842Y-201732324D01*
X385404428Y-201732085D01*
X385288170Y-201731776D01*
X385185285Y-201731390D01*
X385094989Y-201730920D01*
X385016500Y-201730356D01*
X384949035Y-201729690D01*
X384891811Y-201728915D01*
X384844045Y-201728022D01*
X384804955Y-201727003D01*
X384773757Y-201725850D01*
X384749669Y-201724554D01*
X384731907Y-201723108D01*
X384719689Y-201721503D01*
X384716489Y-201720884D01*
X384643215Y-201698335D01*
X384581815Y-201665464D01*
X384532912Y-201622918D01*
X384497130Y-201571339D01*
X384475091Y-201511375D01*
X384468110Y-201463795D01*
X384467051Y-201442948D01*
X384467101Y-201423251D01*
X384468808Y-201403521D01*
X384472719Y-201382574D01*
X384479382Y-201359229D01*
X384489344Y-201332302D01*
X384503153Y-201300612D01*
X384521358Y-201262975D01*
X384544504Y-201218208D01*
X384573141Y-201165130D01*
X384607816Y-201102557D01*
X384649076Y-201029306D01*
X384697469Y-200944195D01*
X384753543Y-200846042D01*
X384756818Y-200840317D01*
X384809441Y-200748379D01*
X384854599Y-200669676D01*
X384892984Y-200603094D01*
X384925289Y-200547522D01*
X384952207Y-200501848D01*
X384974430Y-200464959D01*
X384992653Y-200435744D01*
X385007567Y-200413089D01*
X385019867Y-200395884D01*
X385030244Y-200383015D01*
X385039391Y-200373370D01*
X385048003Y-200365837D01*
X385056308Y-200359632D01*
X385097542Y-200330428D01*
X385582380Y-200330428D01*
X386067218Y-200330428D01*
X386067218Y-200360754D01*
G37*
G36*
X376881849Y-194554169D02*
G01*
X377043748Y-194554226D01*
X377200441Y-194554332D01*
X377351158Y-194554485D01*
X377495131Y-194554682D01*
X377631590Y-194554921D01*
X377759765Y-194555199D01*
X377878888Y-194555515D01*
X377988189Y-194555865D01*
X378086899Y-194556248D01*
X378174248Y-194556661D01*
X378249468Y-194557101D01*
X378311789Y-194557567D01*
X378360441Y-194558055D01*
X378394656Y-194558564D01*
X378413664Y-194559090D01*
X378417511Y-194559461D01*
X378413422Y-194567148D01*
X378401496Y-194588196D01*
X378382241Y-194621729D01*
X378356169Y-194666870D01*
X378323789Y-194722742D01*
X378285611Y-194788470D01*
X378242144Y-194863176D01*
X378193899Y-194945985D01*
X378141385Y-195036019D01*
X378085113Y-195132403D01*
X378025591Y-195234259D01*
X377963331Y-195340712D01*
X377916195Y-195421247D01*
X377414879Y-196277521D01*
X376800097Y-196609209D01*
X376706903Y-196659501D01*
X376617934Y-196707538D01*
X376534251Y-196752743D01*
X376456921Y-196794540D01*
X376387006Y-196832355D01*
X376325570Y-196865610D01*
X376273679Y-196893730D01*
X376232396Y-196916139D01*
X376202785Y-196932261D01*
X376185910Y-196941521D01*
X376182251Y-196943605D01*
X376185372Y-196951212D01*
X376195489Y-196972010D01*
X376211886Y-197004599D01*
X376233842Y-197047581D01*
X376260638Y-197099557D01*
X376291557Y-197159127D01*
X376325878Y-197224894D01*
X376362884Y-197295457D01*
X376369986Y-197308962D01*
X376407539Y-197380513D01*
X376442643Y-197447735D01*
X376474561Y-197509196D01*
X376502561Y-197563466D01*
X376525907Y-197609114D01*
X376543864Y-197644709D01*
X376555698Y-197668820D01*
X376560675Y-197680017D01*
X376560786Y-197680533D01*
X376559234Y-197685091D01*
X376554319Y-197694964D01*
X376545648Y-197710807D01*
X376532832Y-197733271D01*
X376515479Y-197763009D01*
X376493197Y-197800672D01*
X376465595Y-197846914D01*
X376432283Y-197902386D01*
X376392870Y-197967740D01*
X376346963Y-198043630D01*
X376294173Y-198130707D01*
X376234107Y-198229624D01*
X376166375Y-198341033D01*
X376090586Y-198465586D01*
X376055502Y-198523215D01*
X375771627Y-198989459D01*
X374662218Y-198991552D01*
X373552808Y-198993645D01*
X373239269Y-198575781D01*
X373184296Y-198502478D01*
X373132183Y-198432913D01*
X373083789Y-198368239D01*
X373039971Y-198309605D01*
X373001589Y-198258161D01*
X372969499Y-198215058D01*
X372944561Y-198181447D01*
X372927633Y-198158478D01*
X372919572Y-198147301D01*
X372919075Y-198146541D01*
X372920266Y-198133583D01*
X372931265Y-198107825D01*
X372951912Y-198069618D01*
X372965443Y-198046555D01*
X372976004Y-198028765D01*
X372994375Y-197997649D01*
X373020022Y-197954119D01*
X373052408Y-197899087D01*
X373090998Y-197833465D01*
X373095631Y-197825583D01*
X374236800Y-197825583D01*
X374237151Y-197828004D01*
X374240909Y-197830101D01*
X374249152Y-197831895D01*
X374262955Y-197833412D01*
X374283395Y-197834672D01*
X374311548Y-197835699D01*
X374348492Y-197836517D01*
X374395302Y-197837147D01*
X374453055Y-197837613D01*
X374522828Y-197837937D01*
X374605696Y-197838143D01*
X374702737Y-197838252D01*
X374815027Y-197838289D01*
X374835211Y-197838290D01*
X374933361Y-197838237D01*
X375026550Y-197838086D01*
X375113488Y-197837843D01*
X375192882Y-197837518D01*
X375263440Y-197837120D01*
X375323869Y-197836655D01*
X375372879Y-197836134D01*
X375409175Y-197835564D01*
X375431467Y-197834954D01*
X375438498Y-197834354D01*
X375434388Y-197826618D01*
X375422603Y-197806127D01*
X375403966Y-197774254D01*
X375379299Y-197732376D01*
X375349422Y-197681868D01*
X375315158Y-197624103D01*
X375277327Y-197560458D01*
X375236752Y-197492307D01*
X375194255Y-197421025D01*
X375150656Y-197347987D01*
X375106777Y-197274569D01*
X375063439Y-197202144D01*
X375021465Y-197132088D01*
X374981676Y-197065776D01*
X374944893Y-197004583D01*
X374911938Y-196949884D01*
X374883633Y-196903054D01*
X374860799Y-196865468D01*
X374844257Y-196838500D01*
X374834830Y-196823526D01*
X374832931Y-196820871D01*
X374828260Y-196827507D01*
X374816042Y-196846991D01*
X374797094Y-196877946D01*
X374772234Y-196918992D01*
X374742280Y-196968751D01*
X374708050Y-197025844D01*
X374670361Y-197088894D01*
X374630032Y-197156522D01*
X374587881Y-197227348D01*
X374544725Y-197299996D01*
X374501382Y-197373086D01*
X374458671Y-197445240D01*
X374417408Y-197515079D01*
X374378413Y-197581226D01*
X374342502Y-197642300D01*
X374310494Y-197696925D01*
X374283207Y-197743722D01*
X374261458Y-197781311D01*
X374246066Y-197808315D01*
X374237848Y-197823356D01*
X374236800Y-197825583D01*
X373095631Y-197825583D01*
X373135255Y-197758165D01*
X373184645Y-197674100D01*
X373238631Y-197582180D01*
X373296677Y-197483319D01*
X373358249Y-197378428D01*
X373422809Y-197268419D01*
X373489822Y-197154204D01*
X373558753Y-197036696D01*
X373594384Y-196975944D01*
X373668644Y-196849327D01*
X373744173Y-196720554D01*
X373761959Y-196690231D01*
X374906796Y-196690231D01*
X374908568Y-196690332D01*
X374916860Y-196686086D01*
X374938797Y-196674484D01*
X374973494Y-196656000D01*
X375020069Y-196631107D01*
X375077638Y-196600281D01*
X375145316Y-196563995D01*
X375222220Y-196522724D01*
X375307467Y-196476942D01*
X375400173Y-196427122D01*
X375499454Y-196373740D01*
X375604427Y-196317269D01*
X375714207Y-196258185D01*
X375821809Y-196200246D01*
X375935174Y-196139143D01*
X376044436Y-196080156D01*
X376148720Y-196023762D01*
X376247155Y-195970437D01*
X376338867Y-195920657D01*
X376422984Y-195874897D01*
X376498633Y-195833635D01*
X376564940Y-195797345D01*
X376621034Y-195766505D01*
X376666041Y-195741590D01*
X376699089Y-195723076D01*
X376719304Y-195711439D01*
X376725828Y-195707183D01*
X376717754Y-195706345D01*
X376694247Y-195705541D01*
X376656376Y-195704778D01*
X376605213Y-195704063D01*
X376541828Y-195703404D01*
X376467292Y-195702808D01*
X376382675Y-195702284D01*
X376289047Y-195701839D01*
X376187480Y-195701479D01*
X376079043Y-195701213D01*
X375964808Y-195701049D01*
X375846978Y-195700993D01*
X375688586Y-195701063D01*
X375546497Y-195701274D01*
X375420513Y-195701629D01*
X375310433Y-195702128D01*
X375216057Y-195702775D01*
X375137186Y-195703571D01*
X375073620Y-195704518D01*
X375025159Y-195705617D01*
X374991604Y-195706872D01*
X374972754Y-195708283D01*
X374968128Y-195709529D01*
X374972404Y-195718406D01*
X374984497Y-195739371D01*
X375003307Y-195770622D01*
X375027736Y-195810359D01*
X375056682Y-195856782D01*
X375089045Y-195908090D01*
X375099437Y-195924451D01*
X375230746Y-196130836D01*
X375082281Y-196384222D01*
X375047127Y-196444180D01*
X375013966Y-196500662D01*
X374983883Y-196551826D01*
X374957964Y-196595830D01*
X374937293Y-196630830D01*
X374922955Y-196654984D01*
X374916581Y-196665576D01*
X374907946Y-196682087D01*
X374906796Y-196690231D01*
X373761959Y-196690231D01*
X373820166Y-196590998D01*
X373895818Y-196462030D01*
X373970325Y-196335021D01*
X374042883Y-196211342D01*
X374112686Y-196092365D01*
X374178931Y-195979460D01*
X374240813Y-195874000D01*
X374297528Y-195777354D01*
X374348270Y-195690896D01*
X374392236Y-195615995D01*
X374427118Y-195556581D01*
X374479177Y-195467892D01*
X374533850Y-195374689D01*
X374589660Y-195279495D01*
X374645129Y-195184832D01*
X374698781Y-195093221D01*
X374749138Y-195007185D01*
X374794723Y-194929245D01*
X374834059Y-194861924D01*
X374848725Y-194836799D01*
X375013515Y-194554378D01*
X376715513Y-194554164D01*
X376881849Y-194554169D01*
G37*
G36*
X361214611Y-190106085D02*
G01*
X361401923Y-190106156D01*
X361584213Y-190106273D01*
X361760814Y-190106432D01*
X361931058Y-190106632D01*
X362094278Y-190106872D01*
X362249806Y-190107149D01*
X362396975Y-190107460D01*
X362535117Y-190107805D01*
X362663565Y-190108181D01*
X362781651Y-190108586D01*
X362888708Y-190109019D01*
X362984069Y-190109476D01*
X363067065Y-190109957D01*
X363137030Y-190110459D01*
X363193295Y-190110980D01*
X363235194Y-190111519D01*
X363262058Y-190112072D01*
X363273221Y-190112639D01*
X363273510Y-190112756D01*
X363268920Y-190120611D01*
X363256339Y-190141592D01*
X363236357Y-190174723D01*
X363209565Y-190219034D01*
X363176552Y-190273549D01*
X363137908Y-190337295D01*
X363094225Y-190409300D01*
X363046091Y-190488590D01*
X362994097Y-190574192D01*
X362938833Y-190665132D01*
X362880890Y-190760437D01*
X362856984Y-190799744D01*
X362795194Y-190901342D01*
X362733780Y-191002338D01*
X362673557Y-191101389D01*
X362615340Y-191197154D01*
X362559945Y-191288294D01*
X362508185Y-191373466D01*
X362460877Y-191451329D01*
X362418834Y-191520543D01*
X362382873Y-191579766D01*
X362353808Y-191627658D01*
X362332453Y-191662876D01*
X362331367Y-191664670D01*
X362219525Y-191849302D01*
X361622855Y-192174954D01*
X361525051Y-192228331D01*
X361426975Y-192281855D01*
X361330242Y-192334642D01*
X361236468Y-192385812D01*
X361147268Y-192434483D01*
X361064257Y-192479774D01*
X360989052Y-192520803D01*
X360923266Y-192556689D01*
X360868517Y-192586550D01*
X360826420Y-192609505D01*
X360821759Y-192612046D01*
X360617332Y-192723488D01*
X360653486Y-192774310D01*
X360678285Y-192809245D01*
X360710300Y-192854465D01*
X360748859Y-192909015D01*
X360793291Y-192971939D01*
X360842922Y-193042283D01*
X360897083Y-193119092D01*
X360955100Y-193201410D01*
X361016303Y-193288281D01*
X361080019Y-193378752D01*
X361145576Y-193471867D01*
X361212303Y-193566671D01*
X361279527Y-193662208D01*
X361346578Y-193757523D01*
X361412782Y-193851663D01*
X361477470Y-193943670D01*
X361539967Y-194032590D01*
X361599604Y-194117469D01*
X361655707Y-194197350D01*
X361707606Y-194271279D01*
X361754628Y-194338301D01*
X361796101Y-194397460D01*
X361831354Y-194447802D01*
X361859716Y-194488371D01*
X361880513Y-194518212D01*
X361893074Y-194536370D01*
X361896783Y-194541932D01*
X361888746Y-194542543D01*
X361865493Y-194543123D01*
X361828314Y-194543665D01*
X361778498Y-194544160D01*
X361717333Y-194544600D01*
X361646109Y-194544977D01*
X361566115Y-194545283D01*
X361478638Y-194545511D01*
X361384970Y-194545651D01*
X361290519Y-194545697D01*
X360684254Y-194545697D01*
X360628287Y-194464761D01*
X360616415Y-194447550D01*
X360595845Y-194417674D01*
X360567222Y-194376075D01*
X360531193Y-194323693D01*
X360488405Y-194261467D01*
X360439502Y-194190338D01*
X360385133Y-194111245D01*
X360325942Y-194025130D01*
X360262576Y-193932931D01*
X360195682Y-193835590D01*
X360125905Y-193734046D01*
X360053892Y-193629239D01*
X360007049Y-193561060D01*
X359921714Y-193436896D01*
X359845206Y-193325688D01*
X359777048Y-193226763D01*
X359716759Y-193139447D01*
X359663861Y-193063068D01*
X359617875Y-192996952D01*
X359578320Y-192940426D01*
X359544718Y-192892816D01*
X359516589Y-192853450D01*
X359493454Y-192821655D01*
X359474834Y-192796756D01*
X359460249Y-192778081D01*
X359449221Y-192764957D01*
X359441269Y-192756710D01*
X359435915Y-192752668D01*
X359432679Y-192752156D01*
X359431730Y-192752978D01*
X359426300Y-192761786D01*
X359412917Y-192783889D01*
X359392102Y-192818419D01*
X359364377Y-192864508D01*
X359330262Y-192921287D01*
X359290277Y-192987890D01*
X359244945Y-193063447D01*
X359194785Y-193147091D01*
X359140318Y-193237954D01*
X359082065Y-193335167D01*
X359020547Y-193437862D01*
X358956285Y-193545172D01*
X358893235Y-193650490D01*
X358826966Y-193761098D01*
X358762977Y-193867706D01*
X358701781Y-193969465D01*
X358643896Y-194065524D01*
X358589838Y-194155033D01*
X358540124Y-194237142D01*
X358495268Y-194311002D01*
X358455788Y-194375762D01*
X358422200Y-194430571D01*
X358395020Y-194474581D01*
X358374764Y-194506942D01*
X358361948Y-194526802D01*
X358357115Y-194533319D01*
X358350955Y-194526890D01*
X358335780Y-194508344D01*
X358312443Y-194478791D01*
X358281797Y-194439343D01*
X358244697Y-194391111D01*
X358201996Y-194335205D01*
X358154547Y-194272737D01*
X358103204Y-194204816D01*
X358048822Y-194132556D01*
X358034226Y-194113110D01*
X357967978Y-194024651D01*
X357911179Y-193948468D01*
X357863242Y-193883736D01*
X357823583Y-193829628D01*
X357791614Y-193785318D01*
X357766750Y-193749978D01*
X357748405Y-193722784D01*
X357735993Y-193702907D01*
X357728928Y-193689523D01*
X357726625Y-193681804D01*
X357727035Y-193679874D01*
X357732201Y-193671153D01*
X357745175Y-193649119D01*
X357765415Y-193614695D01*
X357792379Y-193568805D01*
X357825524Y-193512371D01*
X357864308Y-193446317D01*
X357908190Y-193371567D01*
X357956628Y-193289043D01*
X358009079Y-193199668D01*
X358065001Y-193104367D01*
X358123853Y-193004062D01*
X358185092Y-192899676D01*
X358199776Y-192874645D01*
X358271041Y-192753161D01*
X358346586Y-192624386D01*
X358425166Y-192490437D01*
X358505540Y-192353435D01*
X358541331Y-192292428D01*
X359703920Y-192292428D01*
X359704921Y-192293030D01*
X359706653Y-192292882D01*
X359707012Y-192292871D01*
X359714828Y-192288961D01*
X359736234Y-192277545D01*
X359770371Y-192259093D01*
X359816380Y-192234077D01*
X359873402Y-192202965D01*
X359940579Y-192166230D01*
X360017052Y-192124341D01*
X360101962Y-192077768D01*
X360194451Y-192026983D01*
X360293658Y-191972456D01*
X360398727Y-191914657D01*
X360508797Y-191854057D01*
X360623010Y-191791126D01*
X360644686Y-191779177D01*
X361576489Y-191265483D01*
X361125346Y-191263349D01*
X361019996Y-191262946D01*
X360902851Y-191262666D01*
X360778202Y-191262508D01*
X360650340Y-191262471D01*
X360523559Y-191262557D01*
X360402148Y-191262765D01*
X360290400Y-191263095D01*
X360230346Y-191263349D01*
X359786489Y-191265483D01*
X359921163Y-191471786D01*
X359955048Y-191523822D01*
X359985832Y-191571342D01*
X360012399Y-191612606D01*
X360033636Y-191645873D01*
X360048428Y-191669404D01*
X360055661Y-191681460D01*
X360056200Y-191682632D01*
X360052227Y-191690495D01*
X360040737Y-191711042D01*
X360022610Y-191742747D01*
X359998728Y-191784087D01*
X359969973Y-191833537D01*
X359937227Y-191889574D01*
X359901371Y-191950674D01*
X359886713Y-191975582D01*
X359842250Y-192051077D01*
X359805455Y-192113568D01*
X359775636Y-192164282D01*
X359752098Y-192204444D01*
X359734148Y-192235278D01*
X359721091Y-192258011D01*
X359712234Y-192273867D01*
X359706882Y-192284071D01*
X359704342Y-192289850D01*
X359703920Y-192292428D01*
X358541331Y-192292428D01*
X358586463Y-192215498D01*
X358666694Y-192078744D01*
X358744987Y-191945293D01*
X358820102Y-191817264D01*
X358890794Y-191696776D01*
X358955819Y-191585948D01*
X359013936Y-191486898D01*
X359022489Y-191472322D01*
X359076381Y-191380280D01*
X359127722Y-191292216D01*
X359175911Y-191209181D01*
X359220351Y-191132224D01*
X359260440Y-191062396D01*
X359295582Y-191000747D01*
X359325176Y-190948326D01*
X359348623Y-190906184D01*
X359365324Y-190875371D01*
X359374680Y-190856936D01*
X359376519Y-190851871D01*
X359370690Y-190843755D01*
X359355319Y-190824058D01*
X359331348Y-190793945D01*
X359299717Y-190754584D01*
X359261370Y-190707139D01*
X359217247Y-190652776D01*
X359168290Y-190592662D01*
X359115442Y-190527961D01*
X359071092Y-190473801D01*
X358769629Y-190106061D01*
X361022945Y-190106061D01*
X361214611Y-190106085D01*
G37*
G36*
X370368770Y-190524856D02*
G01*
X370413717Y-190600163D01*
X370456279Y-190671463D01*
X370495679Y-190737455D01*
X370531139Y-190796837D01*
X370561882Y-190848308D01*
X370587132Y-190890566D01*
X370606110Y-190922310D01*
X370618039Y-190942239D01*
X370622003Y-190948829D01*
X370621450Y-190953095D01*
X370617461Y-190962747D01*
X370609738Y-190978286D01*
X370597983Y-191000213D01*
X370581897Y-191029029D01*
X370561182Y-191065236D01*
X370535539Y-191109335D01*
X370504671Y-191161826D01*
X370468278Y-191223212D01*
X370426062Y-191293993D01*
X370377726Y-191374670D01*
X370322970Y-191465745D01*
X370261496Y-191567719D01*
X370193006Y-191681092D01*
X370117202Y-191806367D01*
X370033785Y-191944044D01*
X369942456Y-192094624D01*
X369842918Y-192258609D01*
X369806439Y-192318680D01*
X369722919Y-192456171D01*
X369641593Y-192589988D01*
X369562883Y-192719439D01*
X369487212Y-192843833D01*
X369415001Y-192962479D01*
X369346672Y-193074685D01*
X369282647Y-193179758D01*
X369223348Y-193277009D01*
X369169197Y-193365744D01*
X369120615Y-193445272D01*
X369078025Y-193514903D01*
X369041849Y-193573943D01*
X369012507Y-193621702D01*
X368990423Y-193657487D01*
X368976018Y-193680609D01*
X368969714Y-193690373D01*
X368969559Y-193690574D01*
X368961092Y-193698331D01*
X368940703Y-193715874D01*
X368909224Y-193742515D01*
X368867485Y-193777562D01*
X368816317Y-193820327D01*
X368756552Y-193870119D01*
X368689020Y-193926249D01*
X368614553Y-193988027D01*
X368533981Y-194054763D01*
X368448136Y-194125767D01*
X368357848Y-194200349D01*
X368263950Y-194277821D01*
X368167271Y-194357491D01*
X368068642Y-194438671D01*
X368025719Y-194473969D01*
X367928437Y-194553949D01*
X366517646Y-194553949D01*
X366366395Y-194553923D01*
X366219657Y-194553844D01*
X366078276Y-194553717D01*
X365943098Y-194553544D01*
X365814967Y-194553327D01*
X365694728Y-194553070D01*
X365583227Y-194552776D01*
X365481308Y-194552446D01*
X365389817Y-194552084D01*
X365309598Y-194551693D01*
X365241495Y-194551275D01*
X365186355Y-194550834D01*
X365145023Y-194550372D01*
X365118342Y-194549891D01*
X365107158Y-194549395D01*
X365106854Y-194549298D01*
X365111031Y-194541242D01*
X365123516Y-194519078D01*
X365144244Y-194482921D01*
X365173148Y-194432885D01*
X365210160Y-194369084D01*
X365255216Y-194291632D01*
X365308248Y-194200642D01*
X365369189Y-194096230D01*
X365437974Y-193978508D01*
X365514535Y-193847591D01*
X365598806Y-193703594D01*
X365690722Y-193546629D01*
X365783460Y-193388339D01*
X366916298Y-193388339D01*
X366918521Y-193390509D01*
X366927665Y-193392372D01*
X366944736Y-193393948D01*
X366970738Y-193395257D01*
X367006676Y-193396320D01*
X367053555Y-193397156D01*
X367112380Y-193397785D01*
X367184155Y-193398229D01*
X367269886Y-193398506D01*
X367370576Y-193398637D01*
X367431087Y-193398654D01*
X367949873Y-193398654D01*
X368594692Y-192336194D01*
X369239511Y-191273735D01*
X368817416Y-191268724D01*
X368662762Y-191266987D01*
X368516428Y-191265543D01*
X368379086Y-191264389D01*
X368251413Y-191263527D01*
X368134082Y-191262956D01*
X368027767Y-191262677D01*
X367933142Y-191262687D01*
X367850883Y-191262989D01*
X367781662Y-191263580D01*
X367726155Y-191264462D01*
X367685035Y-191265633D01*
X367658978Y-191267094D01*
X367648656Y-191268844D01*
X367648505Y-191269104D01*
X367652748Y-191277792D01*
X367664750Y-191298621D01*
X367683424Y-191329797D01*
X367707682Y-191369528D01*
X367736434Y-191416022D01*
X367768594Y-191467487D01*
X367779548Y-191484907D01*
X367910591Y-191692962D01*
X367881211Y-191743290D01*
X367873142Y-191757061D01*
X367857284Y-191784079D01*
X367834213Y-191823362D01*
X367804506Y-191873931D01*
X367768737Y-191934805D01*
X367727485Y-192005004D01*
X367681324Y-192083547D01*
X367630831Y-192169454D01*
X367576582Y-192261744D01*
X367519154Y-192359436D01*
X367459123Y-192461551D01*
X367397064Y-192567108D01*
X367386062Y-192585821D01*
X367324287Y-192690923D01*
X367264840Y-192792123D01*
X367208260Y-192888503D01*
X367155084Y-192979145D01*
X367105848Y-193063131D01*
X367061091Y-193139544D01*
X367021349Y-193207465D01*
X366987161Y-193265977D01*
X366959062Y-193314162D01*
X366937591Y-193351101D01*
X366923284Y-193375877D01*
X366916680Y-193387573D01*
X366916298Y-193388339D01*
X365783460Y-193388339D01*
X365790214Y-193376811D01*
X365897217Y-193194254D01*
X365934618Y-193130460D01*
X365981437Y-193050580D01*
X366034688Y-192959675D01*
X366093558Y-192859135D01*
X366157236Y-192750350D01*
X366224908Y-192634708D01*
X366295763Y-192513600D01*
X366368988Y-192388415D01*
X366443771Y-192260542D01*
X366519299Y-192131371D01*
X366594762Y-192002291D01*
X366669345Y-191874693D01*
X366742237Y-191749964D01*
X366812626Y-191629495D01*
X366879698Y-191514675D01*
X366942643Y-191406894D01*
X367000647Y-191307541D01*
X367052899Y-191218005D01*
X367098586Y-191139677D01*
X367136895Y-191073945D01*
X367143092Y-191063306D01*
X367172318Y-191012931D01*
X367198752Y-190967006D01*
X367221261Y-190927530D01*
X367238712Y-190896501D01*
X367249972Y-190875916D01*
X367253874Y-190867975D01*
X367249645Y-190859143D01*
X367236270Y-190839641D01*
X367215136Y-190811167D01*
X367187628Y-190775417D01*
X367155135Y-190734089D01*
X367119041Y-190688879D01*
X367080734Y-190641485D01*
X367041601Y-190593603D01*
X367003027Y-190546931D01*
X366966399Y-190503165D01*
X366933103Y-190464002D01*
X366904527Y-190431140D01*
X366882056Y-190406275D01*
X366867078Y-190391104D01*
X366861067Y-190387201D01*
X366855541Y-190395376D01*
X366842242Y-190416441D01*
X366821929Y-190449159D01*
X366795359Y-190492293D01*
X366763292Y-190544606D01*
X366726485Y-190604860D01*
X366685696Y-190671817D01*
X366641686Y-190744240D01*
X366595211Y-190820893D01*
X366592220Y-190825832D01*
X366330987Y-191257231D01*
X365013365Y-191259319D01*
X364867265Y-191259580D01*
X364725707Y-191259890D01*
X364589565Y-191260245D01*
X364459714Y-191260640D01*
X364337028Y-191261071D01*
X364222380Y-191261532D01*
X364116647Y-191262021D01*
X364020701Y-191262531D01*
X363935418Y-191263059D01*
X363861670Y-191263600D01*
X363800334Y-191264149D01*
X363752283Y-191264702D01*
X363718391Y-191265254D01*
X363699533Y-191265801D01*
X363695743Y-191266168D01*
X363700184Y-191273941D01*
X363712760Y-191293676D01*
X363732350Y-191323674D01*
X363757833Y-191362232D01*
X363788087Y-191407651D01*
X363821992Y-191458229D01*
X363837117Y-191480698D01*
X363978490Y-191690467D01*
X364464277Y-191690467D01*
X364552116Y-191690569D01*
X364634847Y-191690863D01*
X364711030Y-191691330D01*
X364779226Y-191691953D01*
X364837994Y-191692713D01*
X364885895Y-191693591D01*
X364921488Y-191694569D01*
X364943335Y-191695630D01*
X364950054Y-191696656D01*
X364945834Y-191704476D01*
X364933603Y-191725304D01*
X364913996Y-191758091D01*
X364887652Y-191801788D01*
X364855208Y-191855345D01*
X364817300Y-191917714D01*
X364774566Y-191987846D01*
X364727643Y-192064691D01*
X364677168Y-192147202D01*
X364623779Y-192234329D01*
X364592923Y-192284619D01*
X364235801Y-192866392D01*
X363573797Y-192868505D01*
X363470875Y-192868874D01*
X363372854Y-192869305D01*
X363280968Y-192869789D01*
X363196449Y-192870314D01*
X363120533Y-192870870D01*
X363054451Y-192871448D01*
X362999438Y-192872037D01*
X362956727Y-192872626D01*
X362927551Y-192873207D01*
X362913144Y-192873767D01*
X362911793Y-192873987D01*
X362916061Y-192881476D01*
X362928214Y-192901334D01*
X362947279Y-192932003D01*
X362972280Y-192971928D01*
X363002243Y-193019553D01*
X363036193Y-193073322D01*
X363073156Y-193131678D01*
X363075862Y-193135943D01*
X363239931Y-193394528D01*
X364135949Y-193396627D01*
X365031967Y-193398727D01*
X364964772Y-193508031D01*
X364948598Y-193534455D01*
X364924830Y-193573446D01*
X364894413Y-193623449D01*
X364858292Y-193682907D01*
X364817411Y-193750262D01*
X364772715Y-193823960D01*
X364725148Y-193902444D01*
X364675655Y-193984156D01*
X364625180Y-194067541D01*
X364615476Y-194083579D01*
X364333376Y-194549823D01*
X363297642Y-194551918D01*
X362261908Y-194554013D01*
X361948507Y-194135186D01*
X361893635Y-194061818D01*
X361841648Y-193992235D01*
X361793400Y-193927582D01*
X361749742Y-193869006D01*
X361711526Y-193817650D01*
X361679604Y-193774661D01*
X361654827Y-193741182D01*
X361638048Y-193718359D01*
X361630118Y-193707337D01*
X361629637Y-193706594D01*
X361632485Y-193697461D01*
X361643085Y-193676032D01*
X361660469Y-193644023D01*
X361683669Y-193603149D01*
X361711715Y-193555127D01*
X361743641Y-193501672D01*
X361767034Y-193463156D01*
X361785123Y-193433508D01*
X361811297Y-193390514D01*
X361845091Y-193334945D01*
X361886036Y-193267569D01*
X361933667Y-193189156D01*
X361987515Y-193100476D01*
X362047114Y-193002298D01*
X362111996Y-192895393D01*
X362181696Y-192780529D01*
X362255745Y-192658477D01*
X362333677Y-192530006D01*
X362415025Y-192395885D01*
X362499322Y-192256884D01*
X362586101Y-192113773D01*
X362674894Y-191967322D01*
X362765235Y-191818299D01*
X362853976Y-191671899D01*
X363798051Y-190114313D01*
X366960905Y-190114313D01*
X370123760Y-190114313D01*
X370368770Y-190524856D01*
G37*
G36*
X374667890Y-191478083D02*
G01*
X374732792Y-191482669D01*
X374792492Y-191490139D01*
X374840220Y-191499862D01*
X374908874Y-191521366D01*
X374982618Y-191550238D01*
X375053815Y-191583339D01*
X375088544Y-191601885D01*
X375115510Y-191616752D01*
X375138202Y-191628629D01*
X375150999Y-191634639D01*
X375163242Y-191641328D01*
X375184396Y-191654645D01*
X375210407Y-191671838D01*
X375237221Y-191690153D01*
X375260783Y-191706838D01*
X375277040Y-191719139D01*
X375281708Y-191723402D01*
X375292613Y-191732036D01*
X375314393Y-191745915D01*
X375343193Y-191762842D01*
X375375158Y-191780620D01*
X375406434Y-191797050D01*
X375433164Y-191809934D01*
X375434626Y-191810584D01*
X375475823Y-191824771D01*
X375530613Y-191837498D01*
X375596116Y-191848388D01*
X375669455Y-191857064D01*
X375747753Y-191863147D01*
X375828133Y-191866261D01*
X375861419Y-191866593D01*
X375913591Y-191866877D01*
X375951331Y-191867725D01*
X375976705Y-191869310D01*
X375991781Y-191871805D01*
X375998625Y-191875385D01*
X375999642Y-191878219D01*
X375995304Y-191892422D01*
X375984075Y-191915360D01*
X375968630Y-191942318D01*
X375951647Y-191968583D01*
X375937884Y-191986983D01*
X375895130Y-192036166D01*
X375854902Y-192076296D01*
X375814112Y-192109275D01*
X375769670Y-192137005D01*
X375718487Y-192161388D01*
X375657474Y-192184326D01*
X375583542Y-192207721D01*
X375575573Y-192210084D01*
X375509271Y-192229756D01*
X375456483Y-192245725D01*
X375414851Y-192258806D01*
X375382018Y-192269819D01*
X375355624Y-192279579D01*
X375333313Y-192288905D01*
X375312725Y-192298615D01*
X375296908Y-192306687D01*
X375251540Y-192333864D01*
X375218123Y-192363455D01*
X375192320Y-192400250D01*
X375171194Y-192445535D01*
X375158261Y-192476877D01*
X375146227Y-192504709D01*
X375137584Y-192523269D01*
X375137245Y-192523930D01*
X375124091Y-192552240D01*
X375107645Y-192591977D01*
X375089524Y-192638809D01*
X375071343Y-192688405D01*
X375054718Y-192736434D01*
X375041266Y-192778564D01*
X375037791Y-192790460D01*
X375023985Y-192839272D01*
X375013909Y-192875006D01*
X375006794Y-192900463D01*
X375001871Y-192918445D01*
X374998373Y-192931751D01*
X374995529Y-192943185D01*
X374993168Y-192953040D01*
X374987491Y-192978273D01*
X374980705Y-193010285D01*
X374977244Y-193027309D01*
X374970854Y-193055814D01*
X374964286Y-193079699D01*
X374960890Y-193089200D01*
X374955000Y-193104868D01*
X374946149Y-193131097D01*
X374936099Y-193162635D01*
X374934568Y-193167595D01*
X374924855Y-193198023D01*
X374916373Y-193222511D01*
X374910693Y-193236568D01*
X374910028Y-193237738D01*
X374904926Y-193248943D01*
X374896168Y-193271560D01*
X374885370Y-193301359D01*
X374881649Y-193312007D01*
X374869648Y-193345358D01*
X374858205Y-193374950D01*
X374849379Y-193395502D01*
X374847800Y-193398654D01*
X374839598Y-193416737D01*
X374828539Y-193444550D01*
X374816976Y-193476164D01*
X374816667Y-193477049D01*
X374804356Y-193511909D01*
X374793870Y-193540174D01*
X374782293Y-193569492D01*
X374769465Y-193600830D01*
X374763052Y-193618223D01*
X374754371Y-193643961D01*
X374749675Y-193658595D01*
X374740746Y-193685753D01*
X374732596Y-193708545D01*
X374729462Y-193716360D01*
X374721816Y-193735509D01*
X374712983Y-193759803D01*
X374712313Y-193761747D01*
X374703788Y-193785968D01*
X374696421Y-193805950D01*
X374695963Y-193807133D01*
X374689122Y-193824752D01*
X374679404Y-193849844D01*
X374675178Y-193860772D01*
X374665162Y-193886642D01*
X374656717Y-193908386D01*
X374654366Y-193914411D01*
X374647757Y-193930069D01*
X374636637Y-193955261D01*
X374623411Y-193984533D01*
X374623402Y-193984554D01*
X374608560Y-194017349D01*
X374594276Y-194049418D01*
X374584774Y-194071201D01*
X374574253Y-194094726D01*
X374565251Y-194113102D01*
X374563316Y-194116587D01*
X374554871Y-194131969D01*
X374543568Y-194153830D01*
X374541550Y-194157848D01*
X374531711Y-194176706D01*
X374516067Y-194205756D01*
X374496894Y-194240799D01*
X374479431Y-194272330D01*
X374460806Y-194306337D01*
X374445587Y-194335226D01*
X374435368Y-194355894D01*
X374431741Y-194365166D01*
X374425432Y-194372199D01*
X374423489Y-194372403D01*
X374415559Y-194378751D01*
X374415237Y-194381173D01*
X374410870Y-194390668D01*
X374399039Y-194410851D01*
X374381650Y-194438825D01*
X374360607Y-194471689D01*
X374337815Y-194506545D01*
X374315179Y-194540495D01*
X374294603Y-194570638D01*
X374277994Y-194594078D01*
X374267254Y-194607914D01*
X374264650Y-194610339D01*
X374258975Y-194619838D01*
X374258446Y-194624780D01*
X374254758Y-194635326D01*
X374251974Y-194636470D01*
X374244025Y-194642918D01*
X374232564Y-194658865D01*
X374229902Y-194663290D01*
X374218430Y-194681855D01*
X374210099Y-194693320D01*
X374209158Y-194694235D01*
X374201608Y-194703083D01*
X374188903Y-194720266D01*
X374184003Y-194727244D01*
X374169981Y-194747231D01*
X374159400Y-194761868D01*
X374157489Y-194764378D01*
X374149940Y-194774138D01*
X374134859Y-194793764D01*
X374114738Y-194820010D01*
X374100470Y-194838647D01*
X374078135Y-194867474D01*
X374058841Y-194891716D01*
X374045214Y-194908105D01*
X374040735Y-194912916D01*
X374030595Y-194924131D01*
X374015312Y-194943242D01*
X374007044Y-194954177D01*
X373989167Y-194977447D01*
X373965632Y-195006974D01*
X373941475Y-195036444D01*
X373941027Y-195036981D01*
X373916039Y-195067132D01*
X373890653Y-195098088D01*
X373870597Y-195122859D01*
X373840883Y-195158355D01*
X373803748Y-195200214D01*
X373761480Y-195246089D01*
X373716364Y-195293633D01*
X373670689Y-195340500D01*
X373626742Y-195384341D01*
X373586810Y-195422811D01*
X373553180Y-195453563D01*
X373528140Y-195474249D01*
X373528135Y-195474253D01*
X373506569Y-195490710D01*
X373489528Y-195504430D01*
X373484606Y-195508747D01*
X373473391Y-195518468D01*
X373453767Y-195534783D01*
X373430241Y-195554008D01*
X373407321Y-195572465D01*
X373389514Y-195586472D01*
X373387935Y-195587679D01*
X373375871Y-195597243D01*
X373359767Y-195610373D01*
X373344258Y-195621861D01*
X373334565Y-195626723D01*
X373334503Y-195626724D01*
X373324879Y-195631606D01*
X373312622Y-195641165D01*
X373293217Y-195656657D01*
X373280121Y-195665785D01*
X373209185Y-195710564D01*
X373151982Y-195746243D01*
X373108489Y-195772838D01*
X373078680Y-195790364D01*
X373062529Y-195798836D01*
X373059827Y-195799697D01*
X373054466Y-195793531D01*
X373054241Y-195789703D01*
X373059333Y-195775966D01*
X373072104Y-195752750D01*
X373090163Y-195723651D01*
X373111119Y-195692267D01*
X373132583Y-195662194D01*
X373152164Y-195637031D01*
X373165588Y-195622143D01*
X373181137Y-195605090D01*
X373190551Y-195592085D01*
X373199034Y-195580679D01*
X373215937Y-195560355D01*
X373238518Y-195534352D01*
X373255815Y-195514973D01*
X373281663Y-195486255D01*
X373304783Y-195460438D01*
X373322016Y-195441053D01*
X373328521Y-195433628D01*
X373345633Y-195413755D01*
X373359927Y-195397136D01*
X373377666Y-195374792D01*
X373397533Y-195347178D01*
X373417101Y-195318028D01*
X373433940Y-195291076D01*
X373445625Y-195270056D01*
X373449739Y-195258983D01*
X373453626Y-195248330D01*
X373456652Y-195247127D01*
X373462499Y-195240017D01*
X373473388Y-195220645D01*
X373487922Y-195191943D01*
X373504705Y-195156844D01*
X373522340Y-195118281D01*
X373539429Y-195079188D01*
X373554576Y-195042498D01*
X373556863Y-195036698D01*
X373575880Y-194986867D01*
X373590946Y-194944952D01*
X373601312Y-194913155D01*
X373606229Y-194893680D01*
X373606530Y-194890506D01*
X373610912Y-194875663D01*
X373614782Y-194871656D01*
X373621374Y-194860181D01*
X373623034Y-194848063D01*
X373625872Y-194829857D01*
X373629891Y-194821730D01*
X373633181Y-194816406D01*
X373637302Y-194806039D01*
X373642918Y-194788413D01*
X373650696Y-194761311D01*
X373661301Y-194722519D01*
X373674392Y-194673605D01*
X373683090Y-194642301D01*
X373692513Y-194610251D01*
X373693327Y-194607588D01*
X373700215Y-194582361D01*
X373709368Y-194544794D01*
X373719912Y-194498752D01*
X373730974Y-194448097D01*
X373741679Y-194396695D01*
X373746529Y-194372403D01*
X373753967Y-194324457D01*
X373760478Y-194262003D01*
X373765956Y-194187019D01*
X373770290Y-194101481D01*
X373773375Y-194007365D01*
X373775100Y-193906648D01*
X373775438Y-193844268D01*
X373775129Y-193770682D01*
X373774108Y-193688304D01*
X373772458Y-193599691D01*
X373770264Y-193507402D01*
X373767608Y-193413996D01*
X373764575Y-193322031D01*
X373761249Y-193234065D01*
X373757712Y-193152658D01*
X373754050Y-193080366D01*
X373750344Y-193019750D01*
X373747088Y-192977796D01*
X373745076Y-192947060D01*
X373743230Y-192902808D01*
X373741619Y-192848026D01*
X373740316Y-192785701D01*
X373739393Y-192718821D01*
X373738921Y-192650372D01*
X373738885Y-192635333D01*
X373739072Y-192548458D01*
X373740048Y-192475827D01*
X373741990Y-192415193D01*
X373745076Y-192364307D01*
X373749485Y-192320920D01*
X373755393Y-192282785D01*
X373762980Y-192247653D01*
X373772238Y-192213890D01*
X373777744Y-192190005D01*
X373779824Y-192171058D01*
X373782950Y-192152716D01*
X373791439Y-192124074D01*
X373803956Y-192088361D01*
X373819169Y-192048807D01*
X373835743Y-192008642D01*
X373852344Y-191971096D01*
X373867639Y-191939398D01*
X373880294Y-191916778D01*
X373888974Y-191906467D01*
X373889124Y-191906397D01*
X373894823Y-191896898D01*
X373895353Y-191891956D01*
X373900036Y-191881423D01*
X373903606Y-191880265D01*
X373911618Y-191874031D01*
X373911858Y-191872076D01*
X373916740Y-191860725D01*
X373928671Y-191843846D01*
X373930425Y-191841716D01*
X373965651Y-191800750D01*
X373995843Y-191768636D01*
X374025615Y-191740833D01*
X374059579Y-191712802D01*
X374068648Y-191705707D01*
X374096716Y-191683848D01*
X374120478Y-191665231D01*
X374136456Y-191652585D01*
X374140506Y-191649299D01*
X374153833Y-191641767D01*
X374158062Y-191640954D01*
X374168994Y-191635278D01*
X374176639Y-191627716D01*
X374193555Y-191613241D01*
X374204469Y-191607105D01*
X374225913Y-191596244D01*
X374237504Y-191589398D01*
X374315131Y-191545840D01*
X374396043Y-191511356D01*
X374474935Y-191488115D01*
X374495096Y-191484067D01*
X374543730Y-191478540D01*
X374603099Y-191476626D01*
X374667890Y-191478083D01*
G37*
G36*
X381198466Y-194545967D02*
G01*
X381453418Y-194546049D01*
X381721855Y-194546210D01*
X382003546Y-194546450D01*
X382298259Y-194546770D01*
X382605761Y-194547168D01*
X382925820Y-194547646D01*
X383258204Y-194548203D01*
X383602681Y-194548839D01*
X383959019Y-194549554D01*
X384326986Y-194550348D01*
X384695935Y-194551197D01*
X387017471Y-194556693D01*
X387261663Y-194965864D01*
X387306533Y-195041044D01*
X387349018Y-195112216D01*
X387388340Y-195178076D01*
X387423718Y-195237322D01*
X387454375Y-195288647D01*
X387479532Y-195330750D01*
X387498410Y-195362326D01*
X387510230Y-195382072D01*
X387514076Y-195388466D01*
X387513523Y-195392731D01*
X387509534Y-195402383D01*
X387501811Y-195417922D01*
X387490056Y-195439849D01*
X387473970Y-195468665D01*
X387453255Y-195504872D01*
X387427612Y-195548971D01*
X387396743Y-195601462D01*
X387360351Y-195662848D01*
X387318135Y-195733629D01*
X387269799Y-195814306D01*
X387215043Y-195905381D01*
X387153569Y-196007355D01*
X387085079Y-196120729D01*
X387009275Y-196246003D01*
X386925858Y-196383680D01*
X386834529Y-196534260D01*
X386734991Y-196698245D01*
X386698512Y-196758316D01*
X386614991Y-196895807D01*
X386533666Y-197029624D01*
X386454956Y-197159075D01*
X386379285Y-197283470D01*
X386307074Y-197402115D01*
X386238745Y-197514321D01*
X386174720Y-197619395D01*
X386115421Y-197716645D01*
X386061270Y-197805380D01*
X386012688Y-197884908D01*
X385970098Y-197954539D01*
X385933921Y-198013579D01*
X385904580Y-198061338D01*
X385882496Y-198097124D01*
X385868091Y-198120245D01*
X385861787Y-198130009D01*
X385861631Y-198130210D01*
X385853165Y-198137967D01*
X385832776Y-198155511D01*
X385801297Y-198182151D01*
X385759558Y-198217199D01*
X385708390Y-198259963D01*
X385648625Y-198309755D01*
X385581093Y-198365885D01*
X385506626Y-198427663D01*
X385426054Y-198494399D01*
X385340209Y-198565403D01*
X385249921Y-198639985D01*
X385156022Y-198717457D01*
X385059343Y-198797127D01*
X384960715Y-198878307D01*
X384917792Y-198913605D01*
X384820510Y-198993585D01*
X383411782Y-198991660D01*
X383254378Y-198991422D01*
X383097760Y-198991140D01*
X382943070Y-198990819D01*
X382791449Y-198990463D01*
X382644040Y-198990075D01*
X382501983Y-198989660D01*
X382366422Y-198989221D01*
X382238497Y-198988763D01*
X382119351Y-198988290D01*
X382010125Y-198987806D01*
X381911962Y-198987315D01*
X381826003Y-198986821D01*
X381753390Y-198986328D01*
X381695264Y-198985839D01*
X381661252Y-198985471D01*
X381319450Y-198981207D01*
X380699881Y-198079586D01*
X380610314Y-197949285D01*
X380529601Y-197831966D01*
X380457287Y-197726986D01*
X380392913Y-197633699D01*
X380336024Y-197551463D01*
X380286160Y-197479634D01*
X380242867Y-197417567D01*
X380205685Y-197364618D01*
X380174159Y-197320144D01*
X380147831Y-197283501D01*
X380126244Y-197254044D01*
X380108941Y-197231129D01*
X380095465Y-197214114D01*
X380085358Y-197202353D01*
X380078163Y-197195203D01*
X380073424Y-197192019D01*
X380070684Y-197192159D01*
X380070262Y-197192631D01*
X380064831Y-197201437D01*
X380051448Y-197223538D01*
X380030634Y-197258066D01*
X380002909Y-197304153D01*
X379968794Y-197360930D01*
X379928809Y-197427531D01*
X379883477Y-197503087D01*
X379833317Y-197586729D01*
X379778850Y-197677590D01*
X379720597Y-197774802D01*
X379659080Y-197877497D01*
X379594818Y-197984807D01*
X379531766Y-198090127D01*
X379465498Y-198200734D01*
X379401508Y-198307343D01*
X379340313Y-198409101D01*
X379282428Y-198505160D01*
X379228370Y-198594669D01*
X379178655Y-198676778D01*
X379133800Y-198750638D01*
X379094320Y-198815398D01*
X379060732Y-198870208D01*
X379033551Y-198914218D01*
X379013295Y-198946578D01*
X379000479Y-198966438D01*
X378995647Y-198972955D01*
X378989487Y-198966526D01*
X378974312Y-198947980D01*
X378950974Y-198918427D01*
X378920329Y-198878979D01*
X378883228Y-198830747D01*
X378840527Y-198774841D01*
X378793078Y-198712373D01*
X378741736Y-198644453D01*
X378687353Y-198572192D01*
X378672758Y-198552746D01*
X378606510Y-198464287D01*
X378549710Y-198388104D01*
X378501774Y-198323372D01*
X378462114Y-198269264D01*
X378430146Y-198224954D01*
X378405282Y-198189614D01*
X378386937Y-198162420D01*
X378374525Y-198142544D01*
X378367460Y-198129159D01*
X378365156Y-198121440D01*
X378365566Y-198119510D01*
X378370733Y-198110789D01*
X378383707Y-198088755D01*
X378403947Y-198054331D01*
X378430910Y-198008441D01*
X378464055Y-197952007D01*
X378502840Y-197885953D01*
X378546722Y-197811203D01*
X378595159Y-197728679D01*
X378647610Y-197639304D01*
X378703533Y-197544003D01*
X378762385Y-197443698D01*
X378823624Y-197339312D01*
X378838308Y-197314281D01*
X378909563Y-197192813D01*
X378927051Y-197163002D01*
X381256088Y-197163002D01*
X381295360Y-197218643D01*
X381305753Y-197233381D01*
X381324920Y-197260579D01*
X381352135Y-197299204D01*
X381386668Y-197348221D01*
X381427792Y-197406597D01*
X381474779Y-197473298D01*
X381526900Y-197547291D01*
X381583428Y-197627543D01*
X381643634Y-197713018D01*
X381706790Y-197802685D01*
X381772168Y-197895508D01*
X381788498Y-197918695D01*
X381853321Y-198010601D01*
X381915480Y-198098480D01*
X381974320Y-198181414D01*
X382029181Y-198258490D01*
X382079406Y-198328789D01*
X382124337Y-198391398D01*
X382163318Y-198445401D01*
X382195688Y-198489881D01*
X382220792Y-198523923D01*
X382237971Y-198546611D01*
X382246568Y-198557029D01*
X382247434Y-198557602D01*
X382252248Y-198549831D01*
X382264801Y-198528814D01*
X382284503Y-198495551D01*
X382310767Y-198451045D01*
X382343002Y-198396297D01*
X382380620Y-198332310D01*
X382423031Y-198260085D01*
X382469648Y-198180625D01*
X382519880Y-198094931D01*
X382573139Y-198004006D01*
X382628836Y-197908851D01*
X382638737Y-197891929D01*
X382676153Y-197827975D01*
X383808370Y-197827975D01*
X383810593Y-197830145D01*
X383819738Y-197832008D01*
X383836809Y-197833584D01*
X383862811Y-197834894D01*
X383898749Y-197835956D01*
X383945628Y-197836792D01*
X384004453Y-197837422D01*
X384076228Y-197837865D01*
X384161958Y-197838142D01*
X384262649Y-197838273D01*
X384323160Y-197838290D01*
X384841946Y-197838290D01*
X385486765Y-196775830D01*
X386131584Y-195713371D01*
X385709489Y-195708360D01*
X385554835Y-195706624D01*
X385408500Y-195705179D01*
X385271159Y-195704025D01*
X385143486Y-195703163D01*
X385026155Y-195702593D01*
X384919840Y-195702313D01*
X384825215Y-195702323D01*
X384742956Y-195702625D01*
X384673735Y-195703216D01*
X384618228Y-195704098D01*
X384577108Y-195705269D01*
X384551050Y-195706730D01*
X384540729Y-195708481D01*
X384540578Y-195708740D01*
X384544820Y-195717429D01*
X384556823Y-195738257D01*
X384575497Y-195769433D01*
X384599755Y-195809164D01*
X384628507Y-195855658D01*
X384660666Y-195907123D01*
X384671621Y-195924543D01*
X384802664Y-196132599D01*
X384773284Y-196182926D01*
X384765215Y-196196697D01*
X384749357Y-196223715D01*
X384726286Y-196262998D01*
X384696578Y-196313567D01*
X384660810Y-196374441D01*
X384619557Y-196444640D01*
X384573396Y-196523183D01*
X384522904Y-196609090D01*
X384468655Y-196701380D01*
X384411227Y-196799072D01*
X384351196Y-196901187D01*
X384289137Y-197006744D01*
X384278135Y-197025457D01*
X384216359Y-197130559D01*
X384156913Y-197231759D01*
X384100333Y-197328139D01*
X384047156Y-197418781D01*
X383997921Y-197502767D01*
X383953164Y-197579180D01*
X383913422Y-197647101D01*
X383879233Y-197705613D01*
X383851135Y-197753798D01*
X383829664Y-197790737D01*
X383815357Y-197815513D01*
X383808753Y-197827209D01*
X383808370Y-197827975D01*
X382676153Y-197827975D01*
X382774740Y-197659461D01*
X382902636Y-197440837D01*
X383022658Y-197235657D01*
X383135039Y-197043522D01*
X383240011Y-196864034D01*
X383337807Y-196696794D01*
X383428660Y-196541402D01*
X383512803Y-196397460D01*
X383590467Y-196264568D01*
X383661887Y-196142328D01*
X383727294Y-196030341D01*
X383786921Y-195928207D01*
X383841000Y-195835528D01*
X383889766Y-195751905D01*
X383933450Y-195676938D01*
X383972284Y-195610230D01*
X384006502Y-195551380D01*
X384036337Y-195499990D01*
X384062020Y-195455661D01*
X384083785Y-195417994D01*
X384101865Y-195386590D01*
X384116491Y-195361050D01*
X384127897Y-195340974D01*
X384136316Y-195325965D01*
X384141979Y-195315624D01*
X384145121Y-195309550D01*
X384145947Y-195307611D01*
X384141457Y-195299677D01*
X384127901Y-195280703D01*
X384106660Y-195252422D01*
X384079119Y-195216569D01*
X384046658Y-195174879D01*
X384010662Y-195129087D01*
X383972512Y-195080925D01*
X383933591Y-195032129D01*
X383895283Y-194984433D01*
X383858970Y-194939572D01*
X383826034Y-194899279D01*
X383797859Y-194865289D01*
X383775826Y-194839337D01*
X383761319Y-194823157D01*
X383755913Y-194818380D01*
X383753555Y-194820841D01*
X383747983Y-194828734D01*
X383738850Y-194842625D01*
X383725809Y-194863082D01*
X383708511Y-194890671D01*
X383686611Y-194925960D01*
X383659761Y-194969515D01*
X383627613Y-195021905D01*
X383589821Y-195083696D01*
X383546037Y-195155455D01*
X383495914Y-195237749D01*
X383439104Y-195331146D01*
X383375262Y-195436212D01*
X383304038Y-195553516D01*
X383225087Y-195683623D01*
X383138061Y-195827101D01*
X383107566Y-195877390D01*
X382857994Y-196288972D01*
X382261356Y-196614607D01*
X382163558Y-196667981D01*
X382065490Y-196721500D01*
X381968768Y-196774281D01*
X381875006Y-196825445D01*
X381785820Y-196874108D01*
X381702825Y-196919390D01*
X381627636Y-196960410D01*
X381561869Y-196996286D01*
X381507138Y-197026138D01*
X381465059Y-197049083D01*
X381460403Y-197051621D01*
X381256088Y-197163002D01*
X378927051Y-197163002D01*
X378985092Y-197064065D01*
X379063650Y-196930154D01*
X379143997Y-196793198D01*
X379179862Y-196732064D01*
X380342452Y-196732064D01*
X380343453Y-196732666D01*
X380345184Y-196732519D01*
X380345544Y-196732507D01*
X380353360Y-196728597D01*
X380374765Y-196717181D01*
X380408902Y-196698729D01*
X380454911Y-196673713D01*
X380511934Y-196642601D01*
X380579111Y-196605866D01*
X380655584Y-196563977D01*
X380740494Y-196517404D01*
X380832982Y-196466619D01*
X380932190Y-196412092D01*
X381037258Y-196354293D01*
X381147328Y-196293693D01*
X381261541Y-196230762D01*
X381283218Y-196218813D01*
X382215021Y-195705119D01*
X381763878Y-195702985D01*
X381658528Y-195702583D01*
X381541382Y-195702302D01*
X381416733Y-195702144D01*
X381288872Y-195702107D01*
X381162090Y-195702193D01*
X381040679Y-195702401D01*
X380928931Y-195702731D01*
X380868878Y-195702985D01*
X380425020Y-195705119D01*
X380559694Y-195911422D01*
X380593580Y-195963458D01*
X380624363Y-196010978D01*
X380650931Y-196052242D01*
X380672167Y-196085509D01*
X380686959Y-196109041D01*
X380694192Y-196121096D01*
X380694731Y-196122268D01*
X380690759Y-196130132D01*
X380679269Y-196150678D01*
X380661142Y-196182383D01*
X380637260Y-196223723D01*
X380608505Y-196273173D01*
X380575758Y-196329210D01*
X380539902Y-196390310D01*
X380525245Y-196415218D01*
X380480781Y-196490713D01*
X380443987Y-196553204D01*
X380414167Y-196603918D01*
X380390630Y-196644080D01*
X380372679Y-196674914D01*
X380359623Y-196697647D01*
X380350765Y-196713503D01*
X380345414Y-196723708D01*
X380342874Y-196729486D01*
X380342452Y-196732064D01*
X379179862Y-196732064D01*
X379224889Y-196655314D01*
X379305084Y-196518620D01*
X379383341Y-196385233D01*
X379458415Y-196257272D01*
X379529066Y-196136853D01*
X379594051Y-196026095D01*
X379652127Y-195927116D01*
X379660723Y-195912465D01*
X379714625Y-195820531D01*
X379766062Y-195732666D01*
X379814428Y-195649910D01*
X379859118Y-195573307D01*
X379899527Y-195503899D01*
X379935048Y-195442730D01*
X379965076Y-195390840D01*
X379989005Y-195349273D01*
X380006230Y-195319072D01*
X380016145Y-195301279D01*
X380018420Y-195296710D01*
X380013374Y-195288135D01*
X379999439Y-195269314D01*
X379978421Y-195242422D01*
X379952125Y-195209637D01*
X379922356Y-195173134D01*
X379890920Y-195135090D01*
X379859621Y-195097680D01*
X379830266Y-195063082D01*
X379804660Y-195033472D01*
X379784607Y-195011025D01*
X379771914Y-194997919D01*
X379768504Y-194995437D01*
X379762811Y-195002343D01*
X379749646Y-195022156D01*
X379729838Y-195053517D01*
X379704216Y-195095070D01*
X379673609Y-195145455D01*
X379638848Y-195203317D01*
X379600760Y-195267297D01*
X379560176Y-195336037D01*
X379553028Y-195348201D01*
X379345873Y-195700964D01*
X379087995Y-195700978D01*
X379004992Y-195701242D01*
X378938294Y-195702026D01*
X378887710Y-195703337D01*
X378853047Y-195705183D01*
X378834115Y-195707568D01*
X378830116Y-195709621D01*
X378834372Y-195718534D01*
X378846411Y-195739558D01*
X378865137Y-195770887D01*
X378889457Y-195810720D01*
X378918277Y-195857252D01*
X378950501Y-195908680D01*
X378960968Y-195925267D01*
X379091820Y-196132284D01*
X378972838Y-196335433D01*
X378913002Y-196437551D01*
X378849490Y-196545855D01*
X378782763Y-196659566D01*
X378713279Y-196777904D01*
X378641498Y-196900091D01*
X378567879Y-197025347D01*
X378492882Y-197152893D01*
X378416967Y-197281950D01*
X378340591Y-197411738D01*
X378264216Y-197541478D01*
X378188300Y-197670391D01*
X378113303Y-197797698D01*
X378039684Y-197922620D01*
X377967902Y-198044377D01*
X377898418Y-198162190D01*
X377831690Y-198275280D01*
X377768177Y-198382868D01*
X377708340Y-198484174D01*
X377652638Y-198578419D01*
X377601529Y-198664825D01*
X377555474Y-198742611D01*
X377514932Y-198810999D01*
X377480362Y-198869209D01*
X377452224Y-198916462D01*
X377430977Y-198951979D01*
X377417080Y-198974981D01*
X377410993Y-198984689D01*
X377410753Y-198984966D01*
X377405427Y-198978540D01*
X377391242Y-198960259D01*
X377369222Y-198931484D01*
X377340390Y-198893578D01*
X377305772Y-198847903D01*
X377266392Y-198795820D01*
X377223275Y-198738691D01*
X377177444Y-198677879D01*
X377129924Y-198614746D01*
X377081740Y-198550652D01*
X377033915Y-198486961D01*
X376987475Y-198425034D01*
X376943444Y-198366233D01*
X376902845Y-198311920D01*
X376866704Y-198263458D01*
X376836045Y-198222207D01*
X376811893Y-198189530D01*
X376795271Y-198166789D01*
X376793310Y-198164069D01*
X376774145Y-198137391D01*
X377068004Y-197637121D01*
X377122490Y-197544323D01*
X377183770Y-197439889D01*
X377250310Y-197326430D01*
X377320581Y-197206563D01*
X377393049Y-197082899D01*
X377466184Y-196958054D01*
X377538453Y-196834641D01*
X377608326Y-196715273D01*
X377674270Y-196602566D01*
X377710486Y-196540641D01*
X377770152Y-196438648D01*
X377836745Y-196324894D01*
X377908822Y-196201841D01*
X377984939Y-196071953D01*
X378063651Y-195937691D01*
X378143515Y-195801518D01*
X378223087Y-195665896D01*
X378300922Y-195533289D01*
X378375577Y-195406158D01*
X378445607Y-195286965D01*
X378467033Y-195250513D01*
X378874957Y-194556596D01*
X379275457Y-194551156D01*
X379350469Y-194550288D01*
X379441753Y-194549499D01*
X379549076Y-194548790D01*
X379672207Y-194548160D01*
X379810913Y-194547609D01*
X379964963Y-194547137D01*
X380134123Y-194546744D01*
X380318163Y-194546430D01*
X380516849Y-194546196D01*
X380729950Y-194546040D01*
X380957233Y-194545964D01*
X381198466Y-194545967D01*
G37*
G36*
X372926590Y-186601238D02*
G01*
X372926953Y-186601512D01*
X372925737Y-186610274D01*
X372916130Y-186621555D01*
X372904423Y-186631903D01*
X372882908Y-186650904D01*
X372854155Y-186676291D01*
X372820731Y-186705797D01*
X372801586Y-186722695D01*
X372739541Y-186778553D01*
X372681062Y-186833308D01*
X372628724Y-186884465D01*
X372585100Y-186929526D01*
X372562637Y-186954366D01*
X372524359Y-186999123D01*
X372487470Y-187043690D01*
X372453493Y-187086086D01*
X372423951Y-187124333D01*
X372400368Y-187156448D01*
X372384266Y-187180454D01*
X372377170Y-187194368D01*
X372376965Y-187195739D01*
X372373720Y-187204875D01*
X372365060Y-187225200D01*
X372352603Y-187252971D01*
X372347146Y-187264834D01*
X372332327Y-187297116D01*
X372319323Y-187325947D01*
X372310395Y-187346297D01*
X372308907Y-187349856D01*
X372299554Y-187372403D01*
X372293356Y-187386990D01*
X372286328Y-187404728D01*
X372274934Y-187435183D01*
X372260208Y-187475479D01*
X372243184Y-187522735D01*
X372224894Y-187574074D01*
X372206370Y-187626617D01*
X372188647Y-187677486D01*
X372177863Y-187708823D01*
X372168399Y-187741799D01*
X372157735Y-187787827D01*
X372146467Y-187843554D01*
X372135190Y-187905626D01*
X372124501Y-187970689D01*
X372114995Y-188035389D01*
X372107268Y-188096372D01*
X372104558Y-188121428D01*
X372100581Y-188159142D01*
X372095431Y-188205825D01*
X372089934Y-188254067D01*
X372087104Y-188278218D01*
X372083345Y-188321090D01*
X372080406Y-188377387D01*
X372078290Y-188444050D01*
X372076998Y-188518020D01*
X372076534Y-188596239D01*
X372076899Y-188675648D01*
X372078096Y-188753188D01*
X372080128Y-188825801D01*
X372082997Y-188890426D01*
X372086576Y-188942513D01*
X372091064Y-188994414D01*
X372095802Y-189049134D01*
X372100249Y-189100418D01*
X372103862Y-189142009D01*
X372104095Y-189144690D01*
X372108172Y-189187229D01*
X372113624Y-189237789D01*
X372120137Y-189294013D01*
X372127397Y-189353541D01*
X372135090Y-189414014D01*
X372142901Y-189473072D01*
X372150517Y-189528357D01*
X372157623Y-189577509D01*
X372163905Y-189618170D01*
X372169048Y-189647980D01*
X372172740Y-189664580D01*
X372173633Y-189666837D01*
X372176546Y-189677097D01*
X372181345Y-189699763D01*
X372187241Y-189730955D01*
X372190816Y-189751220D01*
X372200835Y-189804542D01*
X372214138Y-189868182D01*
X372229503Y-189936581D01*
X372245702Y-190004182D01*
X372252664Y-190031792D01*
X372265198Y-190080460D01*
X372275439Y-190119721D01*
X372285118Y-190156176D01*
X372290499Y-190176204D01*
X372299403Y-190209404D01*
X372308034Y-190241848D01*
X372312480Y-190258725D01*
X372319729Y-190285544D01*
X372326473Y-190309127D01*
X372327452Y-190312364D01*
X372333552Y-190333294D01*
X372341175Y-190360797D01*
X372343685Y-190370129D01*
X372352197Y-190401918D01*
X372361704Y-190437197D01*
X372364771Y-190448524D01*
X372373764Y-190481969D01*
X372382928Y-190516472D01*
X372385673Y-190526919D01*
X372393141Y-190554532D01*
X372400108Y-190578807D01*
X372401910Y-190584684D01*
X372409361Y-190609020D01*
X372419739Y-190643913D01*
X372431535Y-190684177D01*
X372443242Y-190724628D01*
X372453349Y-190760080D01*
X372460349Y-190785350D01*
X372460752Y-190786860D01*
X372469535Y-190816827D01*
X372479320Y-190846060D01*
X372480312Y-190848751D01*
X372487523Y-190869797D01*
X372497506Y-190901193D01*
X372508519Y-190937412D01*
X372512791Y-190951903D01*
X372523119Y-190986500D01*
X372532493Y-191016518D01*
X372539465Y-191037375D01*
X372541486Y-191042676D01*
X372546962Y-191057654D01*
X372555726Y-191083880D01*
X372566275Y-191116807D01*
X372571467Y-191133449D01*
X372582150Y-191167332D01*
X372591578Y-191196047D01*
X372598338Y-191215336D01*
X372600266Y-191220096D01*
X372607162Y-191235514D01*
X372615980Y-191256872D01*
X372627877Y-191287067D01*
X372644010Y-191328997D01*
X372649689Y-191343878D01*
X372661882Y-191375788D01*
X372671869Y-191401569D01*
X372681222Y-191425086D01*
X372691516Y-191450206D01*
X372704324Y-191480796D01*
X372721219Y-191520722D01*
X372731972Y-191546055D01*
X372746802Y-191580512D01*
X372759668Y-191609543D01*
X372768988Y-191629628D01*
X372772782Y-191636828D01*
X372779382Y-191649601D01*
X372788099Y-191670259D01*
X372789528Y-191673962D01*
X372798934Y-191697303D01*
X372811997Y-191728024D01*
X372822717Y-191752357D01*
X372837534Y-191785630D01*
X372855124Y-191825485D01*
X372871709Y-191863362D01*
X372871883Y-191863761D01*
X372889822Y-191904809D01*
X372905894Y-191941184D01*
X372922772Y-191978882D01*
X372943128Y-192023901D01*
X372949802Y-192038607D01*
X372961005Y-192064479D01*
X372968725Y-192084607D01*
X372971117Y-192093547D01*
X372974567Y-192104936D01*
X372983423Y-192125569D01*
X372991077Y-192141508D01*
X372999490Y-192158865D01*
X373008812Y-192179308D01*
X373020057Y-192205221D01*
X373034238Y-192238986D01*
X373052366Y-192282986D01*
X373075456Y-192339603D01*
X373079102Y-192348572D01*
X373092066Y-192380901D01*
X373101719Y-192406384D01*
X373111181Y-192433375D01*
X373115297Y-192445535D01*
X373124636Y-192472591D01*
X373132881Y-192495344D01*
X373135971Y-192503300D01*
X373142180Y-192520651D01*
X373151659Y-192549718D01*
X373163147Y-192586347D01*
X373175382Y-192626383D01*
X373187105Y-192665672D01*
X373197053Y-192700061D01*
X373203967Y-192725394D01*
X373206102Y-192734359D01*
X373211827Y-192760508D01*
X373218338Y-192787997D01*
X373232587Y-192850599D01*
X373246455Y-192920900D01*
X373258937Y-192993072D01*
X373269030Y-193061288D01*
X373275728Y-193119721D01*
X373275949Y-193122208D01*
X373280196Y-193166825D01*
X373284977Y-193210901D01*
X373289644Y-193248754D01*
X373292863Y-193270746D01*
X373295067Y-193292579D01*
X373296912Y-193327806D01*
X373298396Y-193373990D01*
X373299521Y-193428698D01*
X373300285Y-193489494D01*
X373300690Y-193553943D01*
X373300736Y-193619609D01*
X373300422Y-193684058D01*
X373299749Y-193744855D01*
X373298717Y-193799564D01*
X373297326Y-193845751D01*
X373295576Y-193880979D01*
X373293468Y-193902815D01*
X373292823Y-193906159D01*
X373288847Y-193927937D01*
X373284291Y-193961241D01*
X373279776Y-194001137D01*
X373276650Y-194034066D01*
X373273998Y-194063603D01*
X373270678Y-194098265D01*
X373266535Y-194139498D01*
X373261417Y-194188746D01*
X373255171Y-194247452D01*
X373247642Y-194317061D01*
X373238678Y-194399018D01*
X373228125Y-194494766D01*
X373218373Y-194582832D01*
X373205658Y-194687093D01*
X373191664Y-194780056D01*
X373175467Y-194866924D01*
X373156145Y-194952898D01*
X373144403Y-194999563D01*
X373137569Y-195027365D01*
X373131781Y-195053202D01*
X373125690Y-195077076D01*
X373119772Y-195094463D01*
X373113616Y-195111474D01*
X373105189Y-195137483D01*
X373099445Y-195156353D01*
X373090733Y-195184541D01*
X373082755Y-195208296D01*
X373078980Y-195218244D01*
X373064871Y-195252069D01*
X373050175Y-195288458D01*
X373036230Y-195323944D01*
X373024377Y-195355060D01*
X373015957Y-195378339D01*
X373012309Y-195390314D01*
X373012255Y-195390889D01*
X373007537Y-195402862D01*
X373001358Y-195411519D01*
X372990980Y-195427958D01*
X372980288Y-195450777D01*
X372979245Y-195453430D01*
X372971672Y-195470905D01*
X372958218Y-195499704D01*
X372940108Y-195537376D01*
X372918570Y-195581465D01*
X372894831Y-195629521D01*
X372870116Y-195679089D01*
X372845654Y-195727718D01*
X372822669Y-195772953D01*
X372802389Y-195812342D01*
X372786041Y-195843433D01*
X372774851Y-195863771D01*
X372770851Y-195870161D01*
X372763916Y-195881534D01*
X372752366Y-195902661D01*
X372741356Y-195923800D01*
X372696386Y-196011545D01*
X372658491Y-196084593D01*
X372627580Y-196143111D01*
X372603562Y-196187268D01*
X372586346Y-196217234D01*
X372575841Y-196233178D01*
X372572953Y-196236005D01*
X372566892Y-196245473D01*
X372566764Y-196247250D01*
X372562008Y-196257463D01*
X372549103Y-196277714D01*
X372530093Y-196305065D01*
X372507024Y-196336573D01*
X372481939Y-196369298D01*
X372481719Y-196369578D01*
X372471039Y-196383545D01*
X372455330Y-196404486D01*
X372447544Y-196414964D01*
X372432545Y-196434828D01*
X372421573Y-196448644D01*
X372418615Y-196451935D01*
X372411367Y-196460474D01*
X372398045Y-196477627D01*
X372389435Y-196489070D01*
X372359189Y-196528755D01*
X372335765Y-196557262D01*
X372331409Y-196562196D01*
X372322475Y-196573431D01*
X372307343Y-196593626D01*
X372290327Y-196616977D01*
X372252942Y-196664909D01*
X372205119Y-196720037D01*
X372149609Y-196779636D01*
X372089163Y-196840979D01*
X372026531Y-196901341D01*
X371964463Y-196957995D01*
X371905710Y-197008215D01*
X371857362Y-197046087D01*
X371834033Y-197064538D01*
X371812930Y-197083087D01*
X371810265Y-197085660D01*
X371797357Y-197097134D01*
X371791160Y-197100166D01*
X371791065Y-197099779D01*
X371785959Y-197101275D01*
X371773560Y-197111451D01*
X371772498Y-197112444D01*
X371758018Y-197124110D01*
X371732678Y-197142609D01*
X371699523Y-197165886D01*
X371661601Y-197191887D01*
X371621957Y-197218559D01*
X371583640Y-197243847D01*
X371549695Y-197265696D01*
X371523169Y-197282054D01*
X371509661Y-197289643D01*
X371492550Y-197299339D01*
X371465988Y-197315532D01*
X371433991Y-197335646D01*
X371400576Y-197357105D01*
X371369757Y-197377335D01*
X371345551Y-197393760D01*
X371333073Y-197402888D01*
X371322405Y-197411120D01*
X371303055Y-197425739D01*
X371283582Y-197440317D01*
X371260232Y-197457930D01*
X371241551Y-197472380D01*
X371233018Y-197479323D01*
X371219171Y-197490090D01*
X371205028Y-197499953D01*
X371184607Y-197514379D01*
X371164820Y-197529404D01*
X371146727Y-197543152D01*
X371121039Y-197561973D01*
X371096686Y-197579400D01*
X371067808Y-197600246D01*
X371039952Y-197621070D01*
X371022417Y-197634756D01*
X371007167Y-197646625D01*
X370981529Y-197666064D01*
X370948434Y-197690897D01*
X370910815Y-197718950D01*
X370871601Y-197748045D01*
X370833726Y-197776008D01*
X370800120Y-197800661D01*
X370773713Y-197819830D01*
X370759334Y-197830038D01*
X370742436Y-197842312D01*
X370717602Y-197860983D01*
X370689846Y-197882213D01*
X370664180Y-197902164D01*
X370645615Y-197916997D01*
X370643731Y-197918562D01*
X370629458Y-197929723D01*
X370603097Y-197949503D01*
X370565984Y-197976914D01*
X370519454Y-198010973D01*
X370464841Y-198050692D01*
X370462520Y-198052375D01*
X370434390Y-198072831D01*
X370410967Y-198089969D01*
X370395746Y-198101228D01*
X370392377Y-198103792D01*
X370380753Y-198112995D01*
X370362829Y-198127186D01*
X370359324Y-198129962D01*
X370344504Y-198141379D01*
X370318822Y-198160835D01*
X370284671Y-198186538D01*
X370244447Y-198216698D01*
X370200544Y-198249523D01*
X370155357Y-198283224D01*
X370111281Y-198316008D01*
X370070710Y-198346086D01*
X370040795Y-198368168D01*
X370008845Y-198391793D01*
X369968581Y-198421728D01*
X369923377Y-198455447D01*
X369876608Y-198490424D01*
X369831649Y-198524135D01*
X369791874Y-198554055D01*
X369760658Y-198577658D01*
X369751495Y-198584634D01*
X369723284Y-198604323D01*
X369704235Y-198613548D01*
X369695480Y-198611814D01*
X369695029Y-198609312D01*
X369699611Y-198600387D01*
X369710848Y-198583779D01*
X369724975Y-198564605D01*
X369738230Y-198547984D01*
X369746594Y-198539210D01*
X369755144Y-198530075D01*
X369768675Y-198513067D01*
X369772840Y-198507503D01*
X369791332Y-198484049D01*
X369813482Y-198458057D01*
X369820514Y-198450248D01*
X369843670Y-198423550D01*
X369867103Y-198394365D01*
X369872619Y-198387055D01*
X369889755Y-198364898D01*
X369904994Y-198346865D01*
X369909967Y-198341669D01*
X369919901Y-198330657D01*
X369937593Y-198309615D01*
X369960605Y-198281490D01*
X369986497Y-198249231D01*
X369988453Y-198246769D01*
X370014187Y-198214527D01*
X370036898Y-198186363D01*
X370054252Y-198165152D01*
X370063914Y-198153771D01*
X370064311Y-198153344D01*
X370073162Y-198140863D01*
X370074626Y-198136039D01*
X370079570Y-198125940D01*
X370091515Y-198110375D01*
X370092009Y-198109809D01*
X370103858Y-198094956D01*
X370122732Y-198069805D01*
X370146271Y-198037636D01*
X370172114Y-198001726D01*
X370197900Y-197965354D01*
X370221268Y-197931799D01*
X370238661Y-197906148D01*
X370255049Y-197883063D01*
X370270832Y-197863248D01*
X370273732Y-197860012D01*
X370285133Y-197845951D01*
X370289181Y-197837852D01*
X370294180Y-197828820D01*
X370306799Y-197812516D01*
X370313805Y-197804337D01*
X370328799Y-197785219D01*
X370337602Y-197769925D01*
X370338562Y-197766084D01*
X370343100Y-197756484D01*
X370345646Y-197755769D01*
X370353599Y-197749184D01*
X370364827Y-197732789D01*
X370368153Y-197726886D01*
X370379455Y-197708594D01*
X370388439Y-197698622D01*
X370390083Y-197698004D01*
X370395746Y-197691294D01*
X370396458Y-197685626D01*
X370400914Y-197674644D01*
X370404710Y-197673248D01*
X370412031Y-197666564D01*
X370412962Y-197660869D01*
X370417418Y-197649888D01*
X370421214Y-197648491D01*
X370429201Y-197642189D01*
X370429467Y-197640075D01*
X370433576Y-197628587D01*
X370443995Y-197609062D01*
X370450540Y-197598276D01*
X370468013Y-197569988D01*
X370485308Y-197541077D01*
X370489143Y-197534487D01*
X370503398Y-197509789D01*
X370521065Y-197479217D01*
X370532023Y-197460274D01*
X370617479Y-197305577D01*
X370653211Y-197235886D01*
X370668889Y-197205102D01*
X370682108Y-197180254D01*
X370690988Y-197164827D01*
X370693342Y-197161617D01*
X370698848Y-197153010D01*
X370710013Y-197132687D01*
X370725191Y-197103729D01*
X370741915Y-197070843D01*
X370763380Y-197028136D01*
X370788977Y-196977311D01*
X370815379Y-196924972D01*
X370837576Y-196881045D01*
X370867287Y-196821742D01*
X370901595Y-196752330D01*
X370938135Y-196677667D01*
X370974542Y-196602607D01*
X371008449Y-196532007D01*
X371037491Y-196470722D01*
X371038562Y-196468439D01*
X371052891Y-196438100D01*
X371065126Y-196412582D01*
X371073116Y-196396358D01*
X371074257Y-196394170D01*
X371088095Y-196366989D01*
X371102242Y-196335749D01*
X371118017Y-196297279D01*
X371136740Y-196248410D01*
X371151507Y-196208498D01*
X371160036Y-196181849D01*
X371170187Y-196145020D01*
X371179990Y-196105346D01*
X371185985Y-196081185D01*
X371194316Y-196049445D01*
X371200436Y-196026951D01*
X371210422Y-195989650D01*
X371219846Y-195951387D01*
X371230080Y-195906434D01*
X371237977Y-195870161D01*
X371243571Y-195844693D01*
X371251144Y-195810880D01*
X371258295Y-195779388D01*
X371266808Y-195739776D01*
X371275214Y-195696799D01*
X371280308Y-195667984D01*
X371291238Y-195603953D01*
X371301165Y-195551786D01*
X371310956Y-195506952D01*
X371311903Y-195502942D01*
X371315986Y-195483150D01*
X371322058Y-195450325D01*
X371329544Y-195407740D01*
X371337869Y-195358667D01*
X371346459Y-195306376D01*
X371346699Y-195304892D01*
X371356795Y-195241721D01*
X371364768Y-195189976D01*
X371371276Y-195144813D01*
X371376978Y-195101389D01*
X371382533Y-195054860D01*
X371388600Y-195000384D01*
X371390479Y-194983059D01*
X371393195Y-194954668D01*
X371396767Y-194912459D01*
X371401006Y-194859083D01*
X371405721Y-194797194D01*
X371410722Y-194729443D01*
X371415819Y-194658484D01*
X371420822Y-194586968D01*
X371425541Y-194517548D01*
X371429787Y-194452877D01*
X371433369Y-194395607D01*
X371436098Y-194348391D01*
X371436576Y-194339394D01*
X371439208Y-194289116D01*
X371442468Y-194227227D01*
X371446100Y-194158596D01*
X371449845Y-194088094D01*
X371453445Y-194020589D01*
X371454269Y-194005184D01*
X371456531Y-193952474D01*
X371458491Y-193885750D01*
X371460151Y-193806945D01*
X371461514Y-193717989D01*
X371462579Y-193620813D01*
X371463348Y-193517347D01*
X371463824Y-193409523D01*
X371464007Y-193299271D01*
X371463898Y-193188522D01*
X371463500Y-193079207D01*
X371462813Y-192973256D01*
X371461838Y-192872601D01*
X371460578Y-192779172D01*
X371459034Y-192694900D01*
X371457207Y-192621716D01*
X371455098Y-192561551D01*
X371453199Y-192523930D01*
X371447739Y-192437078D01*
X371442793Y-192363862D01*
X371438115Y-192301432D01*
X371433459Y-192246938D01*
X371428577Y-192197529D01*
X371423225Y-192150356D01*
X371417155Y-192102568D01*
X371416121Y-192094820D01*
X371409692Y-192045497D01*
X371403139Y-191992752D01*
X371397333Y-191943738D01*
X371393947Y-191913274D01*
X371389349Y-191870958D01*
X371384437Y-191827369D01*
X371380080Y-191790176D01*
X371378990Y-191781240D01*
X371374610Y-191747946D01*
X371368491Y-191704355D01*
X371361052Y-191653183D01*
X371352711Y-191597149D01*
X371343886Y-191538968D01*
X371334997Y-191481359D01*
X371326461Y-191427037D01*
X371318698Y-191378720D01*
X371312125Y-191339125D01*
X371307162Y-191310969D01*
X371304627Y-191298491D01*
X371298295Y-191270430D01*
X371291271Y-191236475D01*
X371288100Y-191220096D01*
X371281076Y-191183868D01*
X371270784Y-191132657D01*
X371257147Y-191066091D01*
X371240091Y-190983799D01*
X371238604Y-190976659D01*
X371232675Y-190948746D01*
X371225343Y-190914946D01*
X371221669Y-190898264D01*
X371214487Y-190865467D01*
X371207553Y-190833185D01*
X371204752Y-190819869D01*
X371195435Y-190776633D01*
X371184263Y-190727103D01*
X371173428Y-190680981D01*
X371172089Y-190675457D01*
X371167344Y-190652680D01*
X371161593Y-190620427D01*
X371156060Y-190585576D01*
X371155928Y-190584684D01*
X371150255Y-190548711D01*
X371144183Y-190514063D01*
X371139064Y-190488413D01*
X371135079Y-190466863D01*
X371129913Y-190433441D01*
X371124227Y-190392672D01*
X371118682Y-190349087D01*
X371118566Y-190348127D01*
X371112929Y-190303044D01*
X371107092Y-190259228D01*
X371101755Y-190221771D01*
X371097719Y-190196338D01*
X371092992Y-190162850D01*
X371090081Y-190129410D01*
X371089635Y-190115445D01*
X371087856Y-190088400D01*
X371083234Y-190053706D01*
X371078027Y-190025169D01*
X371073307Y-189996101D01*
X371068327Y-189954142D01*
X371063361Y-189902898D01*
X371058680Y-189845974D01*
X371054558Y-189786975D01*
X371051266Y-189729507D01*
X371049077Y-189677174D01*
X371048265Y-189633582D01*
X371048266Y-189631565D01*
X371049182Y-189592225D01*
X371051603Y-189543305D01*
X371055182Y-189489128D01*
X371059575Y-189434019D01*
X371064436Y-189382302D01*
X371069419Y-189338300D01*
X371074178Y-189306338D01*
X371074315Y-189305606D01*
X371078832Y-189276737D01*
X371083683Y-189237965D01*
X371088080Y-189195849D01*
X371089688Y-189177699D01*
X371096719Y-189098732D01*
X371104097Y-189030943D01*
X371112611Y-188970162D01*
X371123048Y-188912222D01*
X371136198Y-188852953D01*
X371152848Y-188788188D01*
X371173787Y-188713758D01*
X371184099Y-188678446D01*
X371193262Y-188646633D01*
X371204246Y-188607547D01*
X371214257Y-188571168D01*
X371223446Y-188537601D01*
X371231929Y-188507087D01*
X371237992Y-188485787D01*
X371238364Y-188484521D01*
X371243852Y-188465302D01*
X371252160Y-188435505D01*
X371261798Y-188400487D01*
X371265336Y-188387523D01*
X371274615Y-188354966D01*
X371282871Y-188328713D01*
X371288835Y-188312686D01*
X371290472Y-188309816D01*
X371295237Y-188297657D01*
X371295938Y-188289890D01*
X371299590Y-188272369D01*
X371307887Y-188252068D01*
X371316908Y-188232386D01*
X371328920Y-188203551D01*
X371340904Y-188172896D01*
X371369053Y-188101510D01*
X371395887Y-188040529D01*
X371416920Y-187997647D01*
X371447328Y-187938489D01*
X371471127Y-187892494D01*
X371489161Y-187858099D01*
X371502273Y-187833740D01*
X371511308Y-187817854D01*
X371517107Y-187808879D01*
X371520516Y-187805250D01*
X371520808Y-187805097D01*
X371526967Y-187795691D01*
X371526997Y-187794942D01*
X371531157Y-187784624D01*
X371542015Y-187764976D01*
X371555880Y-187742388D01*
X371570794Y-187717822D01*
X371581226Y-187698250D01*
X371584762Y-187688589D01*
X371589561Y-187680245D01*
X371591271Y-187679940D01*
X371598616Y-187673425D01*
X371611255Y-187656456D01*
X371624463Y-187635912D01*
X371641159Y-187609597D01*
X371656736Y-187587082D01*
X371665404Y-187576078D01*
X371678954Y-187559893D01*
X371696599Y-187537394D01*
X371704246Y-187527269D01*
X371721936Y-187504167D01*
X371740822Y-187481124D01*
X371764623Y-187453705D01*
X371786939Y-187428713D01*
X371799333Y-187414845D01*
X371819472Y-187392220D01*
X371844158Y-187364434D01*
X371861208Y-187345218D01*
X371886560Y-187317447D01*
X371920398Y-187281553D01*
X371959427Y-187240970D01*
X372000349Y-187199133D01*
X372030807Y-187168493D01*
X372078252Y-187121446D01*
X372117560Y-187083257D01*
X372152021Y-187050876D01*
X372184926Y-187021253D01*
X372219564Y-186991339D01*
X372244931Y-186969990D01*
X372265404Y-186952831D01*
X372282066Y-186938795D01*
X372297313Y-186926732D01*
X372320651Y-186909162D01*
X372343956Y-186892118D01*
X372367478Y-186874847D01*
X372385293Y-186861182D01*
X372393469Y-186854151D01*
X372401740Y-186847763D01*
X372420843Y-186834625D01*
X372447680Y-186816837D01*
X372470687Y-186801917D01*
X372596153Y-186729123D01*
X372723554Y-186668950D01*
X372754756Y-186655778D01*
X372783425Y-186643669D01*
X372801949Y-186635837D01*
X372832006Y-186624255D01*
X372863659Y-186613861D01*
X372892747Y-186605799D01*
X372915111Y-186601210D01*
X372926590Y-186601238D01*
G37*
G36*
X369355182Y-194016359D02*
G01*
X369369357Y-194036224D01*
X369387416Y-194068917D01*
X369388860Y-194071781D01*
X369403062Y-194099460D01*
X369414684Y-194120961D01*
X369421592Y-194132363D01*
X369422227Y-194133092D01*
X369427610Y-194141670D01*
X369438763Y-194161928D01*
X369454037Y-194190799D01*
X369471091Y-194223865D01*
X369492533Y-194265570D01*
X369515082Y-194308866D01*
X369535550Y-194347654D01*
X369546615Y-194368277D01*
X369565836Y-194403839D01*
X369585867Y-194441113D01*
X369602053Y-194471428D01*
X369619795Y-194504579D01*
X369640138Y-194542214D01*
X369653285Y-194566328D01*
X369668601Y-194594588D01*
X369688640Y-194631994D01*
X369710476Y-194673068D01*
X369726010Y-194702487D01*
X369745910Y-194740204D01*
X369764801Y-194775824D01*
X369780332Y-194804929D01*
X369789017Y-194821023D01*
X369806714Y-194853740D01*
X369831811Y-194900628D01*
X369864066Y-194961231D01*
X369903236Y-195035091D01*
X369921558Y-195069706D01*
X369962196Y-195146404D01*
X369996105Y-195210140D01*
X370024179Y-195262586D01*
X370047318Y-195305415D01*
X370066418Y-195340302D01*
X370071943Y-195350278D01*
X370090218Y-195383796D01*
X370108853Y-195418962D01*
X370120210Y-195441051D01*
X370134152Y-195468036D01*
X370152689Y-195502950D01*
X370172373Y-195539313D01*
X370177321Y-195548329D01*
X370197114Y-195584772D01*
X370217012Y-195622234D01*
X370233366Y-195653827D01*
X370236339Y-195659732D01*
X370250051Y-195686109D01*
X370262210Y-195707653D01*
X370268606Y-195717497D01*
X370278022Y-195733383D01*
X370288344Y-195755858D01*
X370289500Y-195758758D01*
X370305540Y-195788175D01*
X370324147Y-195801809D01*
X370344702Y-195799402D01*
X370359850Y-195788102D01*
X370369047Y-195774757D01*
X370381314Y-195751853D01*
X370394195Y-195724709D01*
X370405233Y-195698642D01*
X370411972Y-195678971D01*
X370412962Y-195673109D01*
X370417206Y-195659230D01*
X370420263Y-195656194D01*
X370427146Y-195645498D01*
X370432248Y-195628888D01*
X370435477Y-195614001D01*
X370440373Y-195592924D01*
X370447492Y-195563350D01*
X370457391Y-195522975D01*
X370470628Y-195469491D01*
X370474616Y-195453430D01*
X370483574Y-195418450D01*
X370492929Y-195383589D01*
X370498841Y-195362656D01*
X370505429Y-195338157D01*
X370514057Y-195303255D01*
X370523326Y-195263688D01*
X370527974Y-195243001D01*
X370536617Y-195205202D01*
X370544969Y-195170931D01*
X370551821Y-195145061D01*
X370554663Y-195135723D01*
X370567034Y-195093383D01*
X370579607Y-195039077D01*
X370586016Y-195006774D01*
X370591351Y-194980457D01*
X370599459Y-194942897D01*
X370609260Y-194898898D01*
X370619674Y-194853267D01*
X370629621Y-194810808D01*
X370635860Y-194785008D01*
X370650491Y-194722978D01*
X370660591Y-194673705D01*
X370665069Y-194646786D01*
X370670744Y-194622097D01*
X370677954Y-194612778D01*
X370686416Y-194617796D01*
X370695846Y-194636118D01*
X370705962Y-194666709D01*
X370716480Y-194708536D01*
X370727116Y-194760566D01*
X370737589Y-194821764D01*
X370747613Y-194891099D01*
X370756908Y-194967535D01*
X370759471Y-194991311D01*
X370771620Y-195127958D01*
X370780472Y-195272055D01*
X370785942Y-195419309D01*
X370787944Y-195565427D01*
X370786393Y-195706113D01*
X370781205Y-195837074D01*
X370777419Y-195894918D01*
X370771229Y-195972810D01*
X370764683Y-196047018D01*
X370757999Y-196115601D01*
X370751394Y-196176614D01*
X370745086Y-196228117D01*
X370739291Y-196268166D01*
X370734227Y-196294819D01*
X370731702Y-196303397D01*
X370727903Y-196317663D01*
X370722927Y-196342583D01*
X370718391Y-196369414D01*
X370706335Y-196440897D01*
X370692754Y-196508261D01*
X370676115Y-196578633D01*
X370660725Y-196637608D01*
X370645548Y-196693328D01*
X370633741Y-196734850D01*
X370624718Y-196763998D01*
X370617893Y-196782597D01*
X370612681Y-196792471D01*
X370610250Y-196794869D01*
X370604104Y-196806008D01*
X370602761Y-196816555D01*
X370599450Y-196833006D01*
X370589784Y-196863388D01*
X370574164Y-196906573D01*
X370552990Y-196961434D01*
X370537296Y-197000700D01*
X370502127Y-197081524D01*
X370460660Y-197166704D01*
X370416251Y-197249698D01*
X370372257Y-197323968D01*
X370367637Y-197331246D01*
X370352800Y-197355082D01*
X370342361Y-197373081D01*
X370338693Y-197381008D01*
X370334139Y-197389802D01*
X370322756Y-197406301D01*
X370318063Y-197412573D01*
X370305119Y-197430961D01*
X370297944Y-197443910D01*
X370297433Y-197445988D01*
X370292898Y-197455581D01*
X370281149Y-197473897D01*
X370268550Y-197491701D01*
X370252990Y-197514359D01*
X370242504Y-197532424D01*
X370239668Y-197540256D01*
X370233933Y-197549025D01*
X370231416Y-197549466D01*
X370224095Y-197556150D01*
X370223164Y-197561844D01*
X370219414Y-197572836D01*
X370216239Y-197574222D01*
X370208806Y-197580986D01*
X370198178Y-197598034D01*
X370193546Y-197607136D01*
X370182733Y-197627073D01*
X370173925Y-197638822D01*
X370171588Y-197640144D01*
X370166001Y-197646905D01*
X370165399Y-197651930D01*
X370161416Y-197664263D01*
X370158724Y-197666371D01*
X370151510Y-197674476D01*
X370139157Y-197692989D01*
X370125109Y-197716571D01*
X370110329Y-197740719D01*
X370097824Y-197757806D01*
X370090524Y-197764021D01*
X370083249Y-197770443D01*
X370082878Y-197773288D01*
X370078388Y-197784126D01*
X370066534Y-197804191D01*
X370049742Y-197829422D01*
X370047148Y-197833116D01*
X370029516Y-197858734D01*
X370005778Y-197894159D01*
X369978670Y-197935260D01*
X369950929Y-197977909D01*
X369942530Y-197990954D01*
X369918439Y-198028220D01*
X369897330Y-198060410D01*
X369880862Y-198085024D01*
X369870698Y-198099568D01*
X369868411Y-198102357D01*
X369861992Y-198110504D01*
X369848523Y-198129497D01*
X369830046Y-198156408D01*
X369810887Y-198184879D01*
X369781269Y-198228793D01*
X369757303Y-198263028D01*
X369735883Y-198291892D01*
X369713899Y-198319693D01*
X369711408Y-198322753D01*
X369704115Y-198334533D01*
X369703281Y-198337784D01*
X369698438Y-198347471D01*
X369692966Y-198354350D01*
X369682469Y-198366389D01*
X369672085Y-198379342D01*
X369659368Y-198396494D01*
X369641874Y-198421129D01*
X369621000Y-198451009D01*
X369601112Y-198478692D01*
X369584393Y-198500340D01*
X369573218Y-198512958D01*
X369570288Y-198514963D01*
X369562844Y-198521654D01*
X369559283Y-198529404D01*
X369551069Y-198544002D01*
X369535871Y-198564244D01*
X369527781Y-198573702D01*
X369505763Y-198599116D01*
X369483876Y-198625531D01*
X369478786Y-198631913D01*
X369459528Y-198655387D01*
X369440219Y-198676209D01*
X369418395Y-198696405D01*
X369391597Y-198718003D01*
X369357362Y-198743030D01*
X369313227Y-198773514D01*
X369278058Y-198797220D01*
X369230381Y-198829256D01*
X369181356Y-198862340D01*
X369134990Y-198893758D01*
X369095291Y-198920797D01*
X369071994Y-198936780D01*
X369022403Y-198970841D01*
X368972267Y-199005013D01*
X368923489Y-199038027D01*
X368877971Y-199068611D01*
X368837614Y-199095494D01*
X368804322Y-199117408D01*
X368779997Y-199133080D01*
X368766540Y-199141240D01*
X368764554Y-199142123D01*
X368756255Y-199146936D01*
X368739483Y-199159358D01*
X368724192Y-199171558D01*
X368704857Y-199186321D01*
X368691765Y-199194249D01*
X368688145Y-199194252D01*
X368684654Y-199193208D01*
X368681956Y-199196478D01*
X368673356Y-199204159D01*
X368654901Y-199218180D01*
X368630120Y-199236085D01*
X368602542Y-199255419D01*
X368575695Y-199273727D01*
X368553108Y-199288554D01*
X368538310Y-199297444D01*
X368534735Y-199298914D01*
X368526199Y-199303293D01*
X368506787Y-199315225D01*
X368479213Y-199332897D01*
X368446190Y-199354498D01*
X368410428Y-199378217D01*
X368374642Y-199402243D01*
X368341542Y-199424764D01*
X368313841Y-199443970D01*
X368294252Y-199458048D01*
X368285487Y-199465189D01*
X368285293Y-199465490D01*
X368276175Y-199472182D01*
X368275554Y-199472208D01*
X368266754Y-199476583D01*
X368246595Y-199488733D01*
X368217394Y-199507196D01*
X368181470Y-199530507D01*
X368144845Y-199554729D01*
X368105022Y-199581141D01*
X368070050Y-199604052D01*
X368042186Y-199622006D01*
X368023687Y-199633547D01*
X368016881Y-199637250D01*
X368008821Y-199641690D01*
X367990149Y-199653746D01*
X367963740Y-199671518D01*
X367935786Y-199690795D01*
X367897215Y-199717108D01*
X367856231Y-199744158D01*
X367818945Y-199767946D01*
X367801169Y-199778826D01*
X367774016Y-199795638D01*
X367752971Y-199809802D01*
X367741616Y-199818870D01*
X367740653Y-199820180D01*
X367731344Y-199827013D01*
X367730580Y-199827049D01*
X367720019Y-199831312D01*
X367701073Y-199842209D01*
X367687944Y-199850663D01*
X367665652Y-199865530D01*
X367635783Y-199885397D01*
X367601815Y-199907958D01*
X367567225Y-199930904D01*
X367535492Y-199951928D01*
X367510095Y-199968724D01*
X367494511Y-199978984D01*
X367493394Y-199979713D01*
X367483068Y-199986497D01*
X367461109Y-200000965D01*
X367429657Y-200021703D01*
X367390854Y-200047302D01*
X367346838Y-200076349D01*
X367323240Y-200091925D01*
X367276849Y-200122420D01*
X367234022Y-200150329D01*
X367197032Y-200174191D01*
X367168151Y-200192543D01*
X367149652Y-200203924D01*
X367145126Y-200206483D01*
X367126711Y-200217854D01*
X367102709Y-200235058D01*
X367089424Y-200245424D01*
X367070307Y-200259763D01*
X367057516Y-200267231D01*
X367054226Y-200267026D01*
X367050736Y-200265983D01*
X367048037Y-200269254D01*
X367039668Y-200276045D01*
X367019347Y-200290389D01*
X366989039Y-200310966D01*
X366950709Y-200336453D01*
X366906319Y-200365529D01*
X366870212Y-200388909D01*
X366789502Y-200440917D01*
X366721169Y-200484928D01*
X366663720Y-200521890D01*
X366615658Y-200552748D01*
X366575490Y-200578448D01*
X366541721Y-200599935D01*
X366512857Y-200618156D01*
X366487403Y-200634057D01*
X366463863Y-200648583D01*
X366440744Y-200662681D01*
X366416551Y-200677295D01*
X366389790Y-200693373D01*
X366376750Y-200701194D01*
X366342822Y-200721983D01*
X366309045Y-200743412D01*
X366281943Y-200761328D01*
X366278654Y-200763597D01*
X366255497Y-200779221D01*
X366236449Y-200791214D01*
X366229142Y-200795254D01*
X366215168Y-200803032D01*
X366193755Y-200816173D01*
X366182139Y-200823625D01*
X366164060Y-200834981D01*
X366134692Y-200852935D01*
X366096972Y-200875715D01*
X366053835Y-200901549D01*
X366008845Y-200928290D01*
X365965651Y-200954115D01*
X365927317Y-200977509D01*
X365896133Y-200997036D01*
X365874391Y-201011258D01*
X365864381Y-201018740D01*
X365864112Y-201019063D01*
X365858551Y-201022732D01*
X365857797Y-201019479D01*
X365854359Y-201017204D01*
X365851481Y-201020662D01*
X365841358Y-201029693D01*
X365821597Y-201043098D01*
X365803937Y-201053671D01*
X365780019Y-201067302D01*
X365746682Y-201086357D01*
X365706202Y-201109529D01*
X365660856Y-201135511D01*
X365612921Y-201162998D01*
X365564673Y-201190681D01*
X365518390Y-201217256D01*
X365476347Y-201241415D01*
X365440822Y-201261852D01*
X365414092Y-201277260D01*
X365398434Y-201286332D01*
X365395678Y-201287956D01*
X365380607Y-201296691D01*
X365353894Y-201311814D01*
X365318357Y-201331758D01*
X365276816Y-201354956D01*
X365232089Y-201379840D01*
X365186994Y-201404844D01*
X365144350Y-201428401D01*
X365106975Y-201448942D01*
X365077688Y-201464901D01*
X365069720Y-201469195D01*
X365016263Y-201498112D01*
X364976262Y-201520342D01*
X364948439Y-201536631D01*
X364931515Y-201547726D01*
X364924385Y-201554112D01*
X364917202Y-201559480D01*
X364916133Y-201559140D01*
X364907822Y-201561605D01*
X364889983Y-201570371D01*
X364875795Y-201578225D01*
X364856594Y-201589154D01*
X364826086Y-201606387D01*
X364787372Y-201628181D01*
X364743554Y-201652787D01*
X364702501Y-201675793D01*
X364648701Y-201705993D01*
X364586255Y-201741178D01*
X364520844Y-201778141D01*
X364458148Y-201813672D01*
X364417803Y-201836609D01*
X364358064Y-201870581D01*
X364308853Y-201898423D01*
X364266390Y-201922235D01*
X364226898Y-201944117D01*
X364186599Y-201966171D01*
X364141712Y-201990496D01*
X364116601Y-202004041D01*
X364090441Y-202018343D01*
X364053923Y-202038588D01*
X364011031Y-202062553D01*
X363965749Y-202088016D01*
X363943307Y-202100700D01*
X363897119Y-202126763D01*
X363855509Y-202150000D01*
X363815222Y-202172175D01*
X363773001Y-202195054D01*
X363725591Y-202220403D01*
X363669737Y-202249987D01*
X363609096Y-202281935D01*
X363576918Y-202299090D01*
X363549901Y-202313920D01*
X363531623Y-202324437D01*
X363526123Y-202328020D01*
X363514356Y-202335131D01*
X363490040Y-202348111D01*
X363455556Y-202365794D01*
X363413286Y-202387018D01*
X363365610Y-202410616D01*
X363314910Y-202435424D01*
X363263567Y-202460277D01*
X363213963Y-202484012D01*
X363168478Y-202505462D01*
X363129495Y-202523463D01*
X363099393Y-202536851D01*
X363097465Y-202537678D01*
X363061330Y-202553355D01*
X363030553Y-202567175D01*
X363008453Y-202577616D01*
X362998440Y-202583082D01*
X362989177Y-202587488D01*
X362966243Y-202597243D01*
X362931328Y-202611661D01*
X362886123Y-202630055D01*
X362832318Y-202651738D01*
X362771602Y-202676024D01*
X362705666Y-202702226D01*
X362684860Y-202710461D01*
X362617087Y-202737293D01*
X362553505Y-202762531D01*
X362495893Y-202785463D01*
X362446031Y-202805379D01*
X362405698Y-202821568D01*
X362376675Y-202833318D01*
X362360740Y-202839918D01*
X362358901Y-202840730D01*
X362342329Y-202848188D01*
X362334145Y-202851550D01*
X362324248Y-202855358D01*
X362308928Y-202861641D01*
X362281219Y-202873025D01*
X362243270Y-202888340D01*
X362197134Y-202906781D01*
X362144863Y-202927544D01*
X362088513Y-202949822D01*
X362030137Y-202972812D01*
X361971788Y-202995707D01*
X361915519Y-203017703D01*
X361863384Y-203037995D01*
X361817438Y-203055777D01*
X361779733Y-203070244D01*
X361752323Y-203080591D01*
X361737261Y-203086014D01*
X361735052Y-203086633D01*
X361731741Y-203081917D01*
X361737879Y-203071478D01*
X361752052Y-203058876D01*
X361764749Y-203051274D01*
X361779037Y-203043713D01*
X361800547Y-203031161D01*
X361810136Y-203025314D01*
X361834270Y-203011137D01*
X361866348Y-202993260D01*
X361899595Y-202975455D01*
X361900909Y-202974768D01*
X361930072Y-202959185D01*
X361954524Y-202945453D01*
X361969677Y-202936165D01*
X361971052Y-202935173D01*
X361987606Y-202923917D01*
X362004060Y-202913948D01*
X362019991Y-202904595D01*
X362045727Y-202889204D01*
X362076991Y-202870341D01*
X362094834Y-202859511D01*
X362129930Y-202838372D01*
X362164424Y-202817953D01*
X362192820Y-202801493D01*
X362202111Y-202796260D01*
X362226348Y-202782537D01*
X362259031Y-202763650D01*
X362294444Y-202742913D01*
X362307545Y-202735167D01*
X362338814Y-202716650D01*
X362365928Y-202700644D01*
X362384906Y-202689499D01*
X362390234Y-202686405D01*
X362439355Y-202657693D01*
X362474143Y-202636120D01*
X362494417Y-202621800D01*
X362497714Y-202618865D01*
X362510361Y-202609614D01*
X362515627Y-202608010D01*
X362525235Y-202603905D01*
X362545389Y-202592861D01*
X362572703Y-202576785D01*
X362591370Y-202565361D01*
X362625062Y-202544648D01*
X362657177Y-202525234D01*
X362682670Y-202510158D01*
X362690752Y-202505534D01*
X362715729Y-202491262D01*
X362747887Y-202472494D01*
X362784499Y-202450868D01*
X362822834Y-202428022D01*
X362860163Y-202405595D01*
X362893758Y-202385226D01*
X362920889Y-202368553D01*
X362938827Y-202357215D01*
X362944801Y-202353003D01*
X362947231Y-202350448D01*
X362951712Y-202347000D01*
X362960497Y-202341255D01*
X362975839Y-202331808D01*
X362999988Y-202317255D01*
X363035199Y-202296191D01*
X363052079Y-202286109D01*
X363130673Y-202238995D01*
X363195420Y-202199784D01*
X363246797Y-202168179D01*
X363285278Y-202143885D01*
X363311342Y-202126604D01*
X363325463Y-202116040D01*
X363325900Y-202115651D01*
X363339988Y-202104625D01*
X363347958Y-202100964D01*
X363356905Y-202097055D01*
X363376168Y-202086234D01*
X363402195Y-202070532D01*
X363412926Y-202063829D01*
X363449907Y-202040681D01*
X363490355Y-202015608D01*
X363525733Y-201993903D01*
X363526842Y-201993228D01*
X363560485Y-201972638D01*
X363595403Y-201950975D01*
X363634774Y-201926245D01*
X363681773Y-201896452D01*
X363737004Y-201861246D01*
X363764799Y-201843906D01*
X363786903Y-201830886D01*
X363800007Y-201824100D01*
X363802098Y-201823597D01*
X363808920Y-201820098D01*
X363810350Y-201818288D01*
X363818864Y-201811312D01*
X363838497Y-201797411D01*
X363866441Y-201778517D01*
X363899887Y-201756559D01*
X363904418Y-201753629D01*
X363934317Y-201734176D01*
X363974894Y-201707559D01*
X364023926Y-201675255D01*
X364079190Y-201638739D01*
X364138464Y-201599488D01*
X364199525Y-201558977D01*
X364260150Y-201518683D01*
X364318116Y-201480082D01*
X364371200Y-201444649D01*
X364417181Y-201413861D01*
X364453835Y-201389193D01*
X364478939Y-201372121D01*
X364479025Y-201372062D01*
X364504257Y-201354810D01*
X364525427Y-201340510D01*
X364536720Y-201333059D01*
X364549738Y-201324135D01*
X364571296Y-201308734D01*
X364596239Y-201290549D01*
X364622320Y-201271827D01*
X364645274Y-201256175D01*
X364659619Y-201247280D01*
X364678285Y-201235279D01*
X364687416Y-201227792D01*
X364701836Y-201216162D01*
X364721797Y-201202302D01*
X364722917Y-201201580D01*
X364741948Y-201188948D01*
X364755259Y-201179370D01*
X364755925Y-201178829D01*
X364765754Y-201171504D01*
X364786055Y-201156907D01*
X364813770Y-201137223D01*
X364842787Y-201116779D01*
X364874353Y-201094248D01*
X364900955Y-201074567D01*
X364919629Y-201059972D01*
X364927245Y-201052989D01*
X364932799Y-201049294D01*
X364933560Y-201052487D01*
X364936926Y-201055122D01*
X364939876Y-201051658D01*
X364949998Y-201041920D01*
X364968667Y-201027689D01*
X364978947Y-201020610D01*
X365005960Y-201002383D01*
X365036732Y-200981271D01*
X365050178Y-200971927D01*
X365076225Y-200953773D01*
X365109131Y-200930911D01*
X365142174Y-200908010D01*
X365145077Y-200906001D01*
X365178274Y-200882977D01*
X365218155Y-200855233D01*
X365257887Y-200827524D01*
X365271897Y-200817732D01*
X365312284Y-200789691D01*
X365357996Y-200758270D01*
X365400879Y-200729065D01*
X365412183Y-200721432D01*
X365441896Y-200701236D01*
X365466232Y-200684350D01*
X365482084Y-200672947D01*
X365486452Y-200669415D01*
X365494458Y-200663359D01*
X365513664Y-200649956D01*
X365541503Y-200630967D01*
X365575409Y-200608152D01*
X365589603Y-200598676D01*
X365625294Y-200574662D01*
X365655996Y-200553554D01*
X365679104Y-200537176D01*
X365692015Y-200527353D01*
X365693703Y-200525723D01*
X365704418Y-200516375D01*
X365715650Y-200509165D01*
X365728366Y-200501157D01*
X365752094Y-200485500D01*
X365784269Y-200463930D01*
X365822327Y-200438184D01*
X365863703Y-200409998D01*
X365905833Y-200381110D01*
X365946154Y-200353255D01*
X365956822Y-200345841D01*
X365987243Y-200324692D01*
X366019920Y-200302010D01*
X366031091Y-200294266D01*
X366053957Y-200277460D01*
X366071991Y-200262500D01*
X366078278Y-200256159D01*
X366086479Y-200248855D01*
X366088593Y-200250295D01*
X366093662Y-200251598D01*
X366099171Y-200247841D01*
X366110916Y-200238600D01*
X366131514Y-200223227D01*
X366154873Y-200206231D01*
X366179210Y-200188625D01*
X366198679Y-200174351D01*
X366208726Y-200166763D01*
X366221132Y-200157855D01*
X366239947Y-200145350D01*
X366241734Y-200144200D01*
X366261274Y-200131106D01*
X366275475Y-200120628D01*
X366276098Y-200120106D01*
X366288772Y-200110383D01*
X366308611Y-200096158D01*
X366315865Y-200091116D01*
X366341142Y-200073089D01*
X366365248Y-200054969D01*
X366369125Y-200051919D01*
X366386819Y-200039547D01*
X366399737Y-200033477D01*
X366400877Y-200033352D01*
X366411344Y-200027915D01*
X366412063Y-200026559D01*
X366419450Y-200019163D01*
X366437401Y-200004242D01*
X366463182Y-199983853D01*
X366494061Y-199960055D01*
X366527305Y-199934902D01*
X366560181Y-199910453D01*
X366589955Y-199888765D01*
X366613895Y-199871895D01*
X366629267Y-199861900D01*
X366633280Y-199860057D01*
X366642924Y-199853961D01*
X366643123Y-199853526D01*
X366650871Y-199845161D01*
X366667524Y-199831164D01*
X366678718Y-199822581D01*
X366709289Y-199799713D01*
X366730306Y-199783515D01*
X366745561Y-199770952D01*
X366758847Y-199758984D01*
X366762846Y-199755218D01*
X366775855Y-199744456D01*
X366782074Y-199742397D01*
X366782160Y-199742840D01*
X366785788Y-199743151D01*
X366788349Y-199740094D01*
X366796360Y-199732515D01*
X366815226Y-199716297D01*
X366842924Y-199693129D01*
X366877434Y-199664696D01*
X366916733Y-199632688D01*
X366926445Y-199624829D01*
X366966782Y-199592177D01*
X367003047Y-199562722D01*
X367033163Y-199538157D01*
X367055054Y-199520178D01*
X367066644Y-199510479D01*
X367067625Y-199509607D01*
X367077823Y-199500419D01*
X367096826Y-199483540D01*
X367121036Y-199462165D01*
X367128377Y-199455704D01*
X367154988Y-199432240D01*
X367178949Y-199411004D01*
X367195861Y-199395901D01*
X367198172Y-199393813D01*
X367212261Y-199381162D01*
X367234901Y-199360976D01*
X367262277Y-199336652D01*
X367276923Y-199323670D01*
X367306443Y-199297409D01*
X367334321Y-199272407D01*
X367356191Y-199252590D01*
X367363024Y-199246302D01*
X367377850Y-199232507D01*
X367401991Y-199210021D01*
X367432695Y-199181411D01*
X367467206Y-199149242D01*
X367487015Y-199130773D01*
X367523998Y-199096307D01*
X367560196Y-199062605D01*
X367592364Y-199032687D01*
X367617255Y-199009573D01*
X367625605Y-199001838D01*
X367650046Y-198979028D01*
X367681099Y-198949767D01*
X367713480Y-198919044D01*
X367726168Y-198906938D01*
X367755133Y-198879454D01*
X367791949Y-198844822D01*
X367832319Y-198807069D01*
X367871947Y-198770220D01*
X367880257Y-198762526D01*
X367915985Y-198729383D01*
X367950395Y-198697300D01*
X367980282Y-198669276D01*
X368002441Y-198648310D01*
X368008113Y-198642871D01*
X368031963Y-198620217D01*
X368061669Y-198592512D01*
X368090813Y-198565742D01*
X368090905Y-198565658D01*
X368113344Y-198545070D01*
X368144058Y-198516644D01*
X368180479Y-198482780D01*
X368220043Y-198445877D01*
X368260183Y-198408334D01*
X368298333Y-198372552D01*
X368331929Y-198340929D01*
X368358404Y-198315866D01*
X368374529Y-198300408D01*
X368388618Y-198287079D01*
X368411849Y-198265514D01*
X368441135Y-198238565D01*
X368473390Y-198209081D01*
X368477312Y-198205509D01*
X368516264Y-198169731D01*
X368558875Y-198130076D01*
X368599492Y-198091830D01*
X368627351Y-198065223D01*
X368653266Y-198040230D01*
X368688350Y-198006394D01*
X368729893Y-197966329D01*
X368775184Y-197922648D01*
X368821515Y-197877965D01*
X368845539Y-197854794D01*
X368892618Y-197809314D01*
X368941260Y-197762195D01*
X368988442Y-197716372D01*
X369031145Y-197674780D01*
X369066346Y-197640356D01*
X369079062Y-197627861D01*
X369116725Y-197591332D01*
X369157459Y-197552751D01*
X369196377Y-197516698D01*
X369228593Y-197487749D01*
X369228792Y-197487575D01*
X369263904Y-197456797D01*
X369289199Y-197434410D01*
X369307256Y-197417904D01*
X369320653Y-197404773D01*
X369331968Y-197392508D01*
X369343779Y-197378601D01*
X369355863Y-197363945D01*
X369378237Y-197333205D01*
X369387792Y-197309121D01*
X369384944Y-197288482D01*
X369370107Y-197268081D01*
X369368462Y-197266410D01*
X369352781Y-197254909D01*
X369327229Y-197240267D01*
X369296473Y-197224706D01*
X369265178Y-197210450D01*
X369238010Y-197199721D01*
X369219635Y-197194740D01*
X369217748Y-197194625D01*
X369202018Y-197190922D01*
X369174268Y-197180626D01*
X369137013Y-197164953D01*
X369092772Y-197145123D01*
X369044061Y-197122353D01*
X368993399Y-197097860D01*
X368943302Y-197072864D01*
X368896288Y-197048580D01*
X368854874Y-197026229D01*
X368821577Y-197007026D01*
X368798915Y-196992191D01*
X368798162Y-196991628D01*
X368780181Y-196979042D01*
X368767921Y-196972220D01*
X368766259Y-196971818D01*
X368757496Y-196967333D01*
X368739773Y-196955846D01*
X368717294Y-196940305D01*
X368694266Y-196923660D01*
X368674892Y-196908861D01*
X368666492Y-196901844D01*
X368653471Y-196891291D01*
X368634976Y-196877409D01*
X368634300Y-196876919D01*
X368612460Y-196859824D01*
X368584434Y-196836027D01*
X368552516Y-196807691D01*
X368519001Y-196776983D01*
X368486183Y-196746066D01*
X368456357Y-196717107D01*
X368431818Y-196692270D01*
X368414860Y-196673719D01*
X368407777Y-196663622D01*
X368407699Y-196663111D01*
X368402650Y-196654080D01*
X368393258Y-196642974D01*
X368375486Y-196622426D01*
X368353677Y-196594733D01*
X368330958Y-196564175D01*
X368310458Y-196535029D01*
X368295302Y-196511575D01*
X368289816Y-196501448D01*
X368282242Y-196487177D01*
X368269646Y-196465690D01*
X368263744Y-196456061D01*
X368247695Y-196427988D01*
X368230900Y-196395259D01*
X368224568Y-196381792D01*
X368209600Y-196349751D01*
X368192109Y-196313784D01*
X368183025Y-196295698D01*
X368170901Y-196270954D01*
X368162603Y-196252114D01*
X368160136Y-196244348D01*
X368156970Y-196233929D01*
X368148722Y-196213268D01*
X368138652Y-196190156D01*
X368125774Y-196161252D01*
X368114554Y-196135503D01*
X368108806Y-196121851D01*
X368099547Y-196100377D01*
X368093156Y-196086891D01*
X368086939Y-196070266D01*
X368085867Y-196063382D01*
X368082696Y-196050066D01*
X368074981Y-196030027D01*
X368074169Y-196028198D01*
X368062484Y-195998850D01*
X368047307Y-195955287D01*
X368029240Y-195899280D01*
X368016860Y-195859116D01*
X368008085Y-195826016D01*
X367999458Y-195786768D01*
X367994572Y-195760091D01*
X367988668Y-195726351D01*
X367982386Y-195694538D01*
X367977997Y-195675279D01*
X367972682Y-195647706D01*
X367970342Y-195621972D01*
X367970337Y-195621047D01*
X367967726Y-195597770D01*
X367961196Y-195569133D01*
X367958481Y-195560114D01*
X367952327Y-195535000D01*
X367945497Y-195497049D01*
X367938415Y-195449891D01*
X367931506Y-195397156D01*
X367925194Y-195342474D01*
X367919905Y-195289477D01*
X367916064Y-195241794D01*
X367914094Y-195203055D01*
X367914140Y-195181193D01*
X367916375Y-195151256D01*
X367920239Y-195134193D01*
X367926858Y-195126378D01*
X367931657Y-195124786D01*
X367945356Y-195129506D01*
X367967526Y-195146275D01*
X367996857Y-195173851D01*
X368032041Y-195210989D01*
X368071766Y-195256445D01*
X368077615Y-195263401D01*
X368099120Y-195288907D01*
X368120350Y-195313601D01*
X368144683Y-195341355D01*
X368175494Y-195376045D01*
X368189018Y-195391197D01*
X368201650Y-195405419D01*
X368221804Y-195428198D01*
X368246094Y-195455705D01*
X368259161Y-195470522D01*
X368291280Y-195505867D01*
X368329719Y-195546449D01*
X368371744Y-195589547D01*
X368414619Y-195632438D01*
X368455611Y-195672400D01*
X368491985Y-195706710D01*
X368521006Y-195732646D01*
X368529767Y-195739924D01*
X368551081Y-195757206D01*
X368566825Y-195770266D01*
X368572741Y-195775475D01*
X368582578Y-195783686D01*
X368601077Y-195797769D01*
X368623369Y-195814144D01*
X368644587Y-195829233D01*
X368659421Y-195839184D01*
X368679965Y-195850906D01*
X368712298Y-195868053D01*
X368753259Y-195889061D01*
X368799687Y-195912365D01*
X368848421Y-195936402D01*
X368896299Y-195959605D01*
X368940160Y-195980412D01*
X368976842Y-195997256D01*
X368994150Y-196004836D01*
X369101490Y-196042424D01*
X369212607Y-196065151D01*
X369329913Y-196073483D01*
X369348440Y-196073519D01*
X369401723Y-196072948D01*
X369441437Y-196071809D01*
X369470515Y-196069737D01*
X369491891Y-196066365D01*
X369508500Y-196061329D01*
X369523274Y-196054262D01*
X369528933Y-196051017D01*
X369555575Y-196035279D01*
X369550180Y-195948594D01*
X369547182Y-195908385D01*
X369543502Y-195870685D01*
X369539704Y-195840860D01*
X369537588Y-195828901D01*
X369533046Y-195799331D01*
X369530424Y-195765452D01*
X369530188Y-195755343D01*
X369528645Y-195727579D01*
X369524741Y-195690683D01*
X369519250Y-195651727D01*
X369517967Y-195643940D01*
X369514830Y-195623976D01*
X369511239Y-195598142D01*
X369507068Y-195565306D01*
X369502193Y-195524338D01*
X369496487Y-195474106D01*
X369489826Y-195413478D01*
X369482083Y-195341323D01*
X369473133Y-195256510D01*
X369462851Y-195157907D01*
X369451110Y-195044382D01*
X369446919Y-195003689D01*
X369442740Y-194963331D01*
X369437747Y-194915495D01*
X369432874Y-194869115D01*
X369431835Y-194859277D01*
X369427541Y-194816977D01*
X369422613Y-194765828D01*
X369417774Y-194713430D01*
X369414980Y-194681857D01*
X369411247Y-194641161D01*
X369407528Y-194604823D01*
X369404266Y-194576960D01*
X369402022Y-194562201D01*
X369399300Y-194545264D01*
X369395578Y-194516625D01*
X369391447Y-194481008D01*
X369389101Y-194459050D01*
X369384340Y-194413121D01*
X369379149Y-194363263D01*
X369374443Y-194318254D01*
X369373196Y-194306386D01*
X369368866Y-194264747D01*
X369363811Y-194215468D01*
X369358932Y-194167332D01*
X369357567Y-194153722D01*
X369353376Y-194114460D01*
X369348994Y-194077728D01*
X369345098Y-194049044D01*
X369343491Y-194039148D01*
X369341496Y-194017279D01*
X369345644Y-194009864D01*
X369355182Y-194016359D01*
G37*
D12*
%TO.C,F12*%
X288213000Y-191662145D02*
X284233000Y-191662145D01*
X288213000Y-196642145D02*
X284233000Y-196642145D01*
%TO.C,F16*%
X375869000Y-217890000D02*
X379849000Y-217890000D01*
X375869000Y-222870000D02*
X379849000Y-222870000D01*
%TO.C,F15*%
X346308000Y-191662145D02*
X342328000Y-191662145D01*
X346308000Y-196642145D02*
X342328000Y-196642145D01*
%TO.C,F1*%
X106190000Y-191662145D02*
X102210000Y-191662145D01*
X106190000Y-196642145D02*
X102210000Y-196642145D01*
%TO.C,F8*%
X223163000Y-217890000D02*
X227143000Y-217890000D01*
X223163000Y-222870000D02*
X227143000Y-222870000D01*
%TO.C,F6*%
X185249228Y-217890000D02*
X189229228Y-217890000D01*
X185249228Y-222870000D02*
X189229228Y-222870000D01*
%TO.C,F14*%
X326261000Y-191662145D02*
X322281000Y-191662145D01*
X326261000Y-196642145D02*
X322281000Y-196642145D01*
%TO.C,F2*%
X130156000Y-191662145D02*
X126176000Y-191662145D01*
X130156000Y-196642145D02*
X126176000Y-196642145D01*
%TD*%
M02*
