%TF.GenerationSoftware,KiCad,Pcbnew,9.0.0*%
%TF.CreationDate,2025-07-11T04:59:07+08:00*%
%TF.ProjectId,tsal_g_v4.zip,7473616c-5f67-45f7-9634-2e7a69702e6b,rev?*%
%TF.SameCoordinates,Original*%
%TF.FileFunction,Copper,L2,Bot*%
%TF.FilePolarity,Positive*%
%FSLAX46Y46*%
G04 Gerber Fmt 4.6, Leading zero omitted, Abs format (unit mm)*
G04 Created by KiCad (PCBNEW 9.0.0) date 2025-07-11 04:59:07*
%MOMM*%
%LPD*%
G01*
G04 APERTURE LIST*
G04 Aperture macros list*
%AMRoundRect*
0 Rectangle with rounded corners*
0 $1 Rounding radius*
0 $2 $3 $4 $5 $6 $7 $8 $9 X,Y pos of 4 corners*
0 Add a 4 corners polygon primitive as box body*
4,1,4,$2,$3,$4,$5,$6,$7,$8,$9,$2,$3,0*
0 Add four circle primitives for the rounded corners*
1,1,$1+$1,$2,$3*
1,1,$1+$1,$4,$5*
1,1,$1+$1,$6,$7*
1,1,$1+$1,$8,$9*
0 Add four rect primitives between the rounded corners*
20,1,$1+$1,$2,$3,$4,$5,0*
20,1,$1+$1,$4,$5,$6,$7,0*
20,1,$1+$1,$6,$7,$8,$9,0*
20,1,$1+$1,$8,$9,$2,$3,0*%
G04 Aperture macros list end*
%TA.AperFunction,ComponentPad*%
%ADD10RoundRect,0.250001X0.499999X0.759999X-0.499999X0.759999X-0.499999X-0.759999X0.499999X-0.759999X0*%
%TD*%
%TA.AperFunction,ComponentPad*%
%ADD11O,1.500000X2.020000*%
%TD*%
%TA.AperFunction,ComponentPad*%
%ADD12R,1.600000X1.600000*%
%TD*%
%TA.AperFunction,ComponentPad*%
%ADD13O,1.600000X1.600000*%
%TD*%
%TA.AperFunction,ComponentPad*%
%ADD14RoundRect,0.250001X0.759999X-0.499999X0.759999X0.499999X-0.759999X0.499999X-0.759999X-0.499999X0*%
%TD*%
%TA.AperFunction,ComponentPad*%
%ADD15O,2.020000X1.500000*%
%TD*%
%TA.AperFunction,ComponentPad*%
%ADD16R,1.500000X1.500000*%
%TD*%
%TA.AperFunction,ComponentPad*%
%ADD17C,1.500000*%
%TD*%
%TA.AperFunction,SMDPad,CuDef*%
%ADD18RoundRect,0.305575X0.460025X0.412525X-0.460025X0.412525X-0.460025X-0.412525X0.460025X-0.412525X0*%
%TD*%
%TA.AperFunction,SMDPad,CuDef*%
%ADD19RoundRect,0.308511X0.457089X0.416489X-0.457089X0.416489X-0.457089X-0.416489X0.457089X-0.416489X0*%
%TD*%
%TA.AperFunction,ViaPad*%
%ADD20C,0.700000*%
%TD*%
%TA.AperFunction,ViaPad*%
%ADD21C,0.600000*%
%TD*%
%TA.AperFunction,ViaPad*%
%ADD22C,0.800000*%
%TD*%
%TA.AperFunction,ViaPad*%
%ADD23C,2.000000*%
%TD*%
%TA.AperFunction,Conductor*%
%ADD24C,0.500000*%
%TD*%
%TA.AperFunction,Conductor*%
%ADD25C,1.000000*%
%TD*%
%TA.AperFunction,Conductor*%
%ADD26C,0.250000*%
%TD*%
G04 APERTURE END LIST*
D10*
%TO.P,J7,1,Pin_1*%
%TO.N,GLV-*%
X145700000Y-107040000D03*
D11*
%TO.P,J7,2,Pin_2*%
%TO.N,GLV+*%
X142700000Y-107040000D03*
%TD*%
D10*
%TO.P,J8,1,Pin_1*%
%TO.N,Precharge Check*%
X153500000Y-57000000D03*
D11*
%TO.P,J8,2,Pin_2*%
%TO.N,AIRH Check*%
X150500000Y-57000000D03*
%TO.P,J8,3,Pin_3*%
%TO.N,AIRL Check*%
X147500000Y-57000000D03*
%TD*%
D12*
%TO.P,D1,1,K*%
%TO.N,/Vin*%
X84000000Y-73725000D03*
D13*
%TO.P,D1,2,A*%
%TO.N,GND*%
X84000000Y-81345000D03*
%TD*%
D14*
%TO.P,J2,1,Pin_1*%
%TO.N,/-HV*%
X66500000Y-90500000D03*
D15*
%TO.P,J2,2,Pin_2*%
X66500000Y-87500000D03*
%TD*%
D16*
%TO.P,U3,1,+Vin*%
%TO.N,VCC*%
X113000000Y-107500000D03*
D17*
%TO.P,U3,2,-Vin*%
%TO.N,GLV-*%
X110460000Y-107500000D03*
%TO.P,U3,4,-Vout*%
%TO.N,GND*%
X102840000Y-107500000D03*
%TO.P,U3,6,+Vout*%
%TO.N,+12V*%
X97760000Y-107500000D03*
%TD*%
D10*
%TO.P,J6,1,Pin_1*%
%TO.N,GLV-*%
X156800000Y-107000000D03*
D11*
%TO.P,J6,2,Pin_2*%
%TO.N,/GRN+*%
X153800000Y-107000000D03*
%TD*%
D10*
%TO.P,J3,1,Pin_1*%
%TO.N,Net-(J3-Pin_1)*%
X133978817Y-62973517D03*
D11*
%TO.P,J3,2,Pin_2*%
%TO.N,Net-(J3-Pin_2)*%
X130978817Y-62973517D03*
%TO.P,J3,3,Pin_3*%
%TO.N,Net-(J3-Pin_3)*%
X127978817Y-62973517D03*
%TO.P,J3,4,Pin_4*%
%TO.N,Net-(J3-Pin_4)*%
X124978817Y-62973517D03*
%TO.P,J3,5,Pin_5*%
%TO.N,Net-(J3-Pin_5)*%
X121978817Y-62973517D03*
%TO.P,J3,6,Pin_6*%
%TO.N,Net-(J3-Pin_6)*%
X118978817Y-62973517D03*
%TD*%
D14*
%TO.P,J1,1,Pin_1*%
%TO.N,Net-(J1-Pin_1)*%
X66500000Y-74000000D03*
D15*
%TO.P,J1,2,Pin_2*%
X66500000Y-71000000D03*
%TD*%
D18*
%TO.P,C17,1*%
%TO.N,GLV-*%
X152215600Y-85493100D03*
D19*
%TO.P,C17,2*%
%TO.N,VCC*%
X149784400Y-85500000D03*
%TD*%
D20*
%TO.N,+12V*%
X103032500Y-70847500D03*
X96950000Y-75800000D03*
D21*
%TO.N,GND*%
X89800000Y-82100000D03*
D22*
%TO.N,VCC*%
X136182500Y-81232500D03*
X118402500Y-82182500D03*
X165260000Y-101150000D03*
X137078817Y-73074117D03*
X162060000Y-94750000D03*
X146250600Y-79371900D03*
X155355600Y-94850000D03*
X125478817Y-73144117D03*
X147834417Y-63678517D03*
X125265600Y-82148948D03*
X112765000Y-76230000D03*
X150000000Y-85500000D03*
D21*
%TO.N,GLV-*%
X122500000Y-65500000D03*
X121000000Y-70500000D03*
X145000000Y-88500000D03*
X166000000Y-91000000D03*
X117000000Y-75500000D03*
X164000000Y-93000000D03*
X129000000Y-79000000D03*
X167691200Y-101156900D03*
X126600000Y-75000000D03*
X130000000Y-70500000D03*
X119500000Y-79000000D03*
X139500000Y-85500000D03*
X125200000Y-67800000D03*
X148000000Y-77000000D03*
X118500000Y-70500000D03*
X148000000Y-75000000D03*
X158700000Y-94800000D03*
X116000000Y-100000000D03*
X136000000Y-60000000D03*
X164000000Y-91000000D03*
X132500000Y-70500000D03*
X120500000Y-60000000D03*
X166000000Y-93000000D03*
X151000000Y-68000000D03*
X135000000Y-93200000D03*
X158000000Y-56000000D03*
X129500000Y-60000000D03*
X142500000Y-74800000D03*
X127400000Y-65400000D03*
X120800000Y-100000000D03*
X153600000Y-98000000D03*
X123000000Y-75000000D03*
X148300000Y-83600000D03*
X153000000Y-72400000D03*
X130000000Y-93200000D03*
X151000000Y-77000000D03*
X151000000Y-75000000D03*
X164000000Y-95000000D03*
X131000000Y-65500000D03*
X145000000Y-89900000D03*
X132500000Y-60000000D03*
X125400000Y-65400000D03*
X148600000Y-99000000D03*
X162000000Y-91000000D03*
X134000000Y-65500000D03*
X145000000Y-92000000D03*
X166000000Y-95000000D03*
X119500000Y-65500000D03*
X123500000Y-60000000D03*
X140500000Y-83000000D03*
X128700000Y-74900000D03*
X117000000Y-79000000D03*
X148600000Y-96800000D03*
X119500000Y-75500000D03*
X123000000Y-79000000D03*
X156500000Y-70500000D03*
X162000000Y-93000000D03*
X140000000Y-58000000D03*
D22*
%TO.N,GLV+*%
X167620000Y-84420000D03*
D21*
%TO.N,Out +*%
X144860966Y-76993827D03*
X147688817Y-68308517D03*
%TO.N,Out Precharge*%
X138618817Y-72078517D03*
X142448817Y-72118517D03*
D23*
%TO.N,/GRN+*%
X160100000Y-91900000D03*
D21*
%TO.N,TS RESET*%
X122627500Y-88882500D03*
X140700000Y-81500000D03*
%TO.N,AIRL Check*%
X147688817Y-69578517D03*
%TO.N,AIRH Check*%
X147688817Y-72123517D03*
%TO.N,Precharge Check*%
X147688817Y-73388517D03*
%TO.N,RESET*%
X141600000Y-99200000D03*
X141635000Y-95165000D03*
%TO.N,high aux*%
X144318817Y-67078517D03*
X144277375Y-75811075D03*
%TO.N,pre aux*%
X138818817Y-70878517D03*
X142448817Y-70848517D03*
%TO.N,low aux*%
X147688817Y-67038517D03*
X145193817Y-75778517D03*
%TO.N,Net-(U12-Pad2)*%
X145000000Y-87000000D03*
X139500000Y-87000000D03*
%TD*%
D24*
%TO.N,+12V*%
X96950000Y-72550000D02*
X96950000Y-75800000D01*
X103032500Y-70847500D02*
X103030000Y-70850000D01*
X98650000Y-70850000D02*
X96950000Y-72550000D01*
X103030000Y-70850000D02*
X98650000Y-70850000D01*
%TO.N,GND*%
X84500000Y-81400000D02*
X84445000Y-81345000D01*
X89000000Y-81400000D02*
X84500000Y-81400000D01*
X89800000Y-82100000D02*
X89700000Y-82100000D01*
X89700000Y-82100000D02*
X89000000Y-81400000D01*
X84445000Y-81345000D02*
X84000000Y-81345000D01*
%TO.N,VCC*%
X149935000Y-93885000D02*
X149935000Y-85849400D01*
X125265600Y-82148948D02*
X125475000Y-81939548D01*
X118402500Y-101197500D02*
X117400000Y-102200000D01*
X125475000Y-81939548D02*
X125475000Y-73147934D01*
X137078817Y-73074117D02*
X137078817Y-67321183D01*
X149171900Y-79371900D02*
X146250600Y-79371900D01*
X128917500Y-81232500D02*
X128001052Y-82148948D01*
X116182500Y-82182500D02*
X115425000Y-81425000D01*
X136182500Y-81232500D02*
X136182500Y-79942500D01*
X162060000Y-100435000D02*
X162775000Y-101150000D01*
X155355600Y-94850000D02*
X150900000Y-94850000D01*
X115425000Y-81425000D02*
X115425000Y-76900000D01*
X118436052Y-82148948D02*
X118402500Y-82182500D01*
X136182500Y-81232500D02*
X128917500Y-81232500D01*
X162775000Y-101150000D02*
X165260000Y-101150000D01*
X149935000Y-80135000D02*
X149171900Y-79371900D01*
X117400000Y-102200000D02*
X114200000Y-102200000D01*
X118402500Y-82182500D02*
X116182500Y-82182500D01*
X114755000Y-76230000D02*
X112765000Y-76230000D01*
X114200000Y-102200000D02*
X113000000Y-103400000D01*
X113000000Y-103400000D02*
X113000000Y-107500000D01*
X162060000Y-94750000D02*
X162060000Y-100435000D01*
X125265600Y-82148948D02*
X118436052Y-82148948D01*
X136753100Y-79371900D02*
X146250600Y-79371900D01*
X125478817Y-73144117D02*
X137008817Y-73144117D01*
X136182500Y-79942500D02*
X136753100Y-79371900D01*
X137008817Y-73144117D02*
X137078817Y-73074117D01*
X115425000Y-76900000D02*
X114755000Y-76230000D01*
X137078817Y-67321183D02*
X140721483Y-63678517D01*
X149935000Y-85849400D02*
X149935000Y-80135000D01*
X128001052Y-82148948D02*
X125265600Y-82148948D01*
X125475000Y-73147934D02*
X125478817Y-73144117D01*
X150900000Y-94850000D02*
X149935000Y-93885000D01*
X140721483Y-63678517D02*
X147834417Y-63678517D01*
X118402500Y-82182500D02*
X118402500Y-101197500D01*
D25*
%TO.N,GLV+*%
X158630000Y-84420000D02*
X167620000Y-84420000D01*
X142700000Y-107040000D02*
X142700000Y-102400000D01*
X144400000Y-100700000D02*
X155500000Y-100700000D01*
X142700000Y-102400000D02*
X144400000Y-100700000D01*
X157224000Y-98976000D02*
X157224000Y-85826000D01*
X155500000Y-100700000D02*
X157224000Y-98976000D01*
X157224000Y-85826000D02*
X158630000Y-84420000D01*
D26*
%TO.N,Out +*%
X145818817Y-75518219D02*
X145818817Y-68778517D01*
X144860966Y-76993827D02*
X145450276Y-76404517D01*
X145450276Y-76404517D02*
X145453115Y-76404517D01*
X146288817Y-68308517D02*
X147688817Y-68308517D01*
X145819817Y-76037815D02*
X145819817Y-75519219D01*
X145819817Y-75519219D02*
X145818817Y-75518219D01*
X145818817Y-68778517D02*
X146288817Y-68308517D01*
X145453115Y-76404517D02*
X145819817Y-76037815D01*
%TO.N,Out Precharge*%
X138618817Y-72078517D02*
X142408817Y-72078517D01*
X142408817Y-72078517D02*
X142448817Y-72118517D01*
D25*
%TO.N,/GRN+*%
X160000000Y-92000000D02*
X160000000Y-102200000D01*
X160000000Y-102200000D02*
X158700000Y-103500000D01*
X153800000Y-104700000D02*
X153800000Y-107000000D01*
X158700000Y-103500000D02*
X155000000Y-103500000D01*
X160100000Y-91900000D02*
X160000000Y-92000000D01*
X155000000Y-103500000D02*
X153800000Y-104700000D01*
D26*
%TO.N,TS RESET*%
X122627500Y-88882500D02*
X128117500Y-88882500D01*
X139850000Y-82350000D02*
X140700000Y-81500000D01*
X128117500Y-88882500D02*
X129000000Y-88000000D01*
X129000000Y-88000000D02*
X129000000Y-83275000D01*
X129925000Y-82350000D02*
X139850000Y-82350000D01*
X129000000Y-83275000D02*
X129925000Y-82350000D01*
%TO.N,AIRL Check*%
X147500000Y-59000000D02*
X147500000Y-57000000D01*
X148496483Y-69578517D02*
X148948000Y-69127000D01*
X147688817Y-69578517D02*
X148496483Y-69578517D01*
X148948000Y-69127000D02*
X148948000Y-60448000D01*
X148948000Y-60448000D02*
X147500000Y-59000000D01*
%TO.N,AIRH Check*%
X147688817Y-72123517D02*
X148876483Y-72123517D01*
X149399000Y-71601000D02*
X149399000Y-60101000D01*
X150400000Y-56825000D02*
X150400000Y-56300000D01*
X149399000Y-60101000D02*
X150500000Y-59000000D01*
X148876483Y-72123517D02*
X149399000Y-71601000D01*
X150500000Y-59000000D02*
X150500000Y-57000000D01*
%TO.N,Precharge Check*%
X153400000Y-56300000D02*
X153400000Y-57350000D01*
X153400000Y-57350000D02*
X152900000Y-57850000D01*
X149750000Y-72750000D02*
X150000000Y-72500000D01*
X150000000Y-72500000D02*
X150000000Y-61000000D01*
X153000000Y-59500000D02*
X153500000Y-59000000D01*
X149750000Y-72750000D02*
X149111483Y-73388517D01*
X153500000Y-59000000D02*
X153500000Y-57000000D01*
X149850000Y-72650000D02*
X149750000Y-72750000D01*
X149111483Y-73388517D02*
X147688817Y-73388517D01*
X150000000Y-61000000D02*
X151500000Y-59500000D01*
X151500000Y-59500000D02*
X153000000Y-59500000D01*
%TO.N,RESET*%
X141600000Y-99200000D02*
X141600000Y-95200000D01*
X141600000Y-95200000D02*
X141635000Y-95165000D01*
%TO.N,high aux*%
X144767817Y-67765327D02*
X144767817Y-67527517D01*
X144286259Y-75811075D02*
X144567817Y-75529517D01*
X144767817Y-75319219D02*
X144767817Y-67765327D01*
X144277375Y-75811075D02*
X144286259Y-75811075D01*
X144767817Y-67527517D02*
X144318817Y-67078517D01*
X144567817Y-75519219D02*
X144767817Y-75319219D01*
X144567817Y-75529517D02*
X144567817Y-75519219D01*
%TO.N,pre aux*%
X142418817Y-70878517D02*
X142448817Y-70848517D01*
X138818817Y-70878517D02*
X142418817Y-70878517D01*
%TO.N,low aux*%
X145218817Y-75753517D02*
X145218817Y-67578517D01*
X145758817Y-67038517D02*
X147688817Y-67038517D01*
X145218817Y-67578517D02*
X145758817Y-67038517D01*
X145193817Y-75778517D02*
X145218817Y-75753517D01*
%TO.N,Net-(U12-Pad2)*%
X145000000Y-87000000D02*
X139500000Y-87000000D01*
%TD*%
%TA.AperFunction,Conductor*%
%TO.N,GLV-*%
G36*
X170942539Y-53520185D02*
G01*
X170988294Y-53572989D01*
X170999500Y-53624500D01*
X170999500Y-112375500D01*
X170979815Y-112442539D01*
X170927011Y-112488294D01*
X170875500Y-112499500D01*
X111624000Y-112499500D01*
X111556961Y-112479815D01*
X111511206Y-112427011D01*
X111500000Y-112375500D01*
X111500000Y-108912781D01*
X138814500Y-108912781D01*
X138814500Y-109087218D01*
X138848527Y-109258283D01*
X138848529Y-109258291D01*
X138915278Y-109419439D01*
X138915283Y-109419448D01*
X139012186Y-109564473D01*
X139012189Y-109564477D01*
X139135522Y-109687810D01*
X139135526Y-109687813D01*
X139280551Y-109784716D01*
X139280557Y-109784719D01*
X139280558Y-109784720D01*
X139441709Y-109851471D01*
X139612781Y-109885499D01*
X139612785Y-109885500D01*
X139612786Y-109885500D01*
X139787215Y-109885500D01*
X139787216Y-109885499D01*
X139958291Y-109851471D01*
X140119442Y-109784720D01*
X140264474Y-109687813D01*
X140387813Y-109564474D01*
X140484720Y-109419442D01*
X140551471Y-109258291D01*
X140585500Y-109087214D01*
X140585500Y-108912786D01*
X140585499Y-108912781D01*
X147814500Y-108912781D01*
X147814500Y-109087218D01*
X147848527Y-109258283D01*
X147848529Y-109258291D01*
X147915278Y-109419439D01*
X147915283Y-109419448D01*
X148012186Y-109564473D01*
X148012189Y-109564477D01*
X148135522Y-109687810D01*
X148135526Y-109687813D01*
X148280551Y-109784716D01*
X148280557Y-109784719D01*
X148280558Y-109784720D01*
X148441709Y-109851471D01*
X148612781Y-109885499D01*
X148612785Y-109885500D01*
X148612786Y-109885500D01*
X148787215Y-109885500D01*
X148787216Y-109885499D01*
X148958291Y-109851471D01*
X149119442Y-109784720D01*
X149264474Y-109687813D01*
X149387813Y-109564474D01*
X149484720Y-109419442D01*
X149551471Y-109258291D01*
X149585500Y-109087214D01*
X149585500Y-108912786D01*
X149577543Y-108872785D01*
X149577542Y-108872781D01*
X149914500Y-108872781D01*
X149914500Y-109047218D01*
X149948527Y-109218283D01*
X149948529Y-109218291D01*
X150015278Y-109379439D01*
X150015283Y-109379448D01*
X150112186Y-109524473D01*
X150112189Y-109524477D01*
X150235522Y-109647810D01*
X150235526Y-109647813D01*
X150380551Y-109744716D01*
X150380557Y-109744719D01*
X150380558Y-109744720D01*
X150541709Y-109811471D01*
X150712781Y-109845499D01*
X150712785Y-109845500D01*
X150712786Y-109845500D01*
X150887215Y-109845500D01*
X150887216Y-109845499D01*
X151058291Y-109811471D01*
X151219442Y-109744720D01*
X151364474Y-109647813D01*
X151487813Y-109524474D01*
X151584720Y-109379442D01*
X151651471Y-109218291D01*
X151685500Y-109047214D01*
X151685500Y-108872786D01*
X151685499Y-108872781D01*
X158914500Y-108872781D01*
X158914500Y-109047218D01*
X158948527Y-109218283D01*
X158948529Y-109218291D01*
X159015278Y-109379439D01*
X159015283Y-109379448D01*
X159112186Y-109524473D01*
X159112189Y-109524477D01*
X159235522Y-109647810D01*
X159235526Y-109647813D01*
X159380551Y-109744716D01*
X159380557Y-109744719D01*
X159380558Y-109744720D01*
X159541709Y-109811471D01*
X159712781Y-109845499D01*
X159712785Y-109845500D01*
X159712786Y-109845500D01*
X159887215Y-109845500D01*
X159887216Y-109845499D01*
X160058291Y-109811471D01*
X160219442Y-109744720D01*
X160364474Y-109647813D01*
X160487813Y-109524474D01*
X160584720Y-109379442D01*
X160651471Y-109218291D01*
X160685500Y-109047214D01*
X160685500Y-108872786D01*
X160651471Y-108701709D01*
X160584720Y-108540558D01*
X160584719Y-108540557D01*
X160584716Y-108540551D01*
X160487813Y-108395526D01*
X160487810Y-108395522D01*
X160364477Y-108272189D01*
X160364473Y-108272186D01*
X160219448Y-108175283D01*
X160219439Y-108175278D01*
X160058291Y-108108529D01*
X160058283Y-108108527D01*
X159887218Y-108074500D01*
X159887214Y-108074500D01*
X159712786Y-108074500D01*
X159712781Y-108074500D01*
X159541716Y-108108527D01*
X159541708Y-108108529D01*
X159380560Y-108175278D01*
X159380551Y-108175283D01*
X159235526Y-108272186D01*
X159235522Y-108272189D01*
X159112189Y-108395522D01*
X159112186Y-108395526D01*
X159015283Y-108540551D01*
X159015278Y-108540560D01*
X158948529Y-108701708D01*
X158948527Y-108701716D01*
X158914500Y-108872781D01*
X151685499Y-108872781D01*
X151651471Y-108701709D01*
X151584720Y-108540558D01*
X151584719Y-108540557D01*
X151584716Y-108540551D01*
X151487813Y-108395526D01*
X151487810Y-108395522D01*
X151364477Y-108272189D01*
X151364473Y-108272186D01*
X151219448Y-108175283D01*
X151219439Y-108175278D01*
X151058291Y-108108529D01*
X151058283Y-108108527D01*
X150887218Y-108074500D01*
X150887214Y-108074500D01*
X150712786Y-108074500D01*
X150712781Y-108074500D01*
X150541716Y-108108527D01*
X150541708Y-108108529D01*
X150380560Y-108175278D01*
X150380551Y-108175283D01*
X150235526Y-108272186D01*
X150235522Y-108272189D01*
X150112189Y-108395522D01*
X150112186Y-108395526D01*
X150015283Y-108540551D01*
X150015278Y-108540560D01*
X149948529Y-108701708D01*
X149948527Y-108701716D01*
X149914500Y-108872781D01*
X149577542Y-108872781D01*
X149567085Y-108820205D01*
X149551471Y-108741709D01*
X149484720Y-108580558D01*
X149484719Y-108580557D01*
X149484716Y-108580551D01*
X149387813Y-108435526D01*
X149387810Y-108435522D01*
X149264477Y-108312189D01*
X149264473Y-108312186D01*
X149119448Y-108215283D01*
X149119439Y-108215278D01*
X148958291Y-108148529D01*
X148958283Y-108148527D01*
X148787218Y-108114500D01*
X148787214Y-108114500D01*
X148612786Y-108114500D01*
X148612781Y-108114500D01*
X148441716Y-108148527D01*
X148441708Y-108148529D01*
X148280560Y-108215278D01*
X148280551Y-108215283D01*
X148135526Y-108312186D01*
X148135522Y-108312189D01*
X148012189Y-108435522D01*
X148012186Y-108435526D01*
X147915283Y-108580551D01*
X147915278Y-108580560D01*
X147848529Y-108741708D01*
X147848527Y-108741716D01*
X147814500Y-108912781D01*
X140585499Y-108912781D01*
X140551471Y-108741709D01*
X140484720Y-108580558D01*
X140484719Y-108580557D01*
X140484716Y-108580551D01*
X140387813Y-108435526D01*
X140387810Y-108435522D01*
X140264477Y-108312189D01*
X140264473Y-108312186D01*
X140119448Y-108215283D01*
X140119439Y-108215278D01*
X139958291Y-108148529D01*
X139958283Y-108148527D01*
X139787218Y-108114500D01*
X139787214Y-108114500D01*
X139612786Y-108114500D01*
X139612781Y-108114500D01*
X139441716Y-108148527D01*
X139441708Y-108148529D01*
X139280560Y-108215278D01*
X139280551Y-108215283D01*
X139135526Y-108312186D01*
X139135522Y-108312189D01*
X139012189Y-108435522D01*
X139012186Y-108435526D01*
X138915283Y-108580551D01*
X138915278Y-108580560D01*
X138848529Y-108741708D01*
X138848527Y-108741716D01*
X138814500Y-108912781D01*
X111500000Y-108912781D01*
X111500000Y-106702135D01*
X111749500Y-106702135D01*
X111749500Y-108297870D01*
X111749501Y-108297876D01*
X111755908Y-108357483D01*
X111806202Y-108492328D01*
X111806206Y-108492335D01*
X111892452Y-108607544D01*
X111892455Y-108607547D01*
X112007664Y-108693793D01*
X112007671Y-108693797D01*
X112142517Y-108744091D01*
X112142516Y-108744091D01*
X112149444Y-108744835D01*
X112202127Y-108750500D01*
X113797872Y-108750499D01*
X113857483Y-108744091D01*
X113992331Y-108693796D01*
X114107546Y-108607546D01*
X114193796Y-108492331D01*
X114244091Y-108357483D01*
X114250500Y-108297873D01*
X114250499Y-106702128D01*
X114244091Y-106642517D01*
X114243740Y-106641577D01*
X114193797Y-106507671D01*
X114193793Y-106507664D01*
X114107547Y-106392455D01*
X114107544Y-106392452D01*
X113992335Y-106306206D01*
X113992328Y-106306202D01*
X113857482Y-106255908D01*
X113849938Y-106254126D01*
X113850474Y-106251853D01*
X113796688Y-106229571D01*
X113756843Y-106172177D01*
X113750500Y-106133024D01*
X113750500Y-103762229D01*
X113770185Y-103695190D01*
X113786819Y-103674548D01*
X114474548Y-102986819D01*
X114535871Y-102953334D01*
X114562229Y-102950500D01*
X117473920Y-102950500D01*
X117571462Y-102931096D01*
X117618913Y-102921658D01*
X117755495Y-102865084D01*
X117827385Y-102817049D01*
X117878416Y-102782952D01*
X118985451Y-101675916D01*
X119020901Y-101622861D01*
X119067584Y-101552995D01*
X119124158Y-101416413D01*
X119153000Y-101271418D01*
X119153000Y-99121153D01*
X140799500Y-99121153D01*
X140799500Y-99278846D01*
X140830261Y-99433489D01*
X140830264Y-99433501D01*
X140890602Y-99579172D01*
X140890609Y-99579185D01*
X140978210Y-99710288D01*
X140978213Y-99710292D01*
X141089707Y-99821786D01*
X141089711Y-99821789D01*
X141220814Y-99909390D01*
X141220827Y-99909397D01*
X141366498Y-99969735D01*
X141366503Y-99969737D01*
X141521153Y-100000499D01*
X141521156Y-100000500D01*
X141521158Y-100000500D01*
X141678844Y-100000500D01*
X141678845Y-100000499D01*
X141833497Y-99969737D01*
X141979179Y-99909394D01*
X142110289Y-99821789D01*
X142221789Y-99710289D01*
X142309394Y-99579179D01*
X142369737Y-99433497D01*
X142400500Y-99278842D01*
X142400500Y-99121158D01*
X142400500Y-99121155D01*
X142400499Y-99121153D01*
X142369738Y-98966510D01*
X142369737Y-98966503D01*
X142309394Y-98820821D01*
X142246397Y-98726539D01*
X142225520Y-98659863D01*
X142225500Y-98657650D01*
X142225500Y-95757783D01*
X142245185Y-95690744D01*
X142253647Y-95679118D01*
X142256789Y-95675289D01*
X142344390Y-95544185D01*
X142344390Y-95544184D01*
X142344394Y-95544179D01*
X142404737Y-95398497D01*
X142435500Y-95243842D01*
X142435500Y-95086158D01*
X142435500Y-95086155D01*
X142435499Y-95086153D01*
X142430820Y-95062631D01*
X142404737Y-94931503D01*
X142366294Y-94838693D01*
X142344397Y-94785827D01*
X142344390Y-94785814D01*
X142256789Y-94654711D01*
X142256786Y-94654707D01*
X142145292Y-94543213D01*
X142145288Y-94543210D01*
X142014185Y-94455609D01*
X142014172Y-94455602D01*
X141868501Y-94395264D01*
X141868489Y-94395261D01*
X141713845Y-94364500D01*
X141713842Y-94364500D01*
X141556158Y-94364500D01*
X141556155Y-94364500D01*
X141401510Y-94395261D01*
X141401498Y-94395264D01*
X141255827Y-94455602D01*
X141255814Y-94455609D01*
X141124711Y-94543210D01*
X141124707Y-94543213D01*
X141013213Y-94654707D01*
X141013210Y-94654711D01*
X140925609Y-94785814D01*
X140925602Y-94785827D01*
X140865264Y-94931498D01*
X140865261Y-94931510D01*
X140834500Y-95086153D01*
X140834500Y-95243846D01*
X140865261Y-95398489D01*
X140865264Y-95398501D01*
X140925603Y-95544174D01*
X140925604Y-95544175D01*
X140925606Y-95544179D01*
X140943968Y-95571659D01*
X140953602Y-95586077D01*
X140974480Y-95652754D01*
X140974500Y-95654968D01*
X140974500Y-98657650D01*
X140954815Y-98724689D01*
X140953602Y-98726541D01*
X140890609Y-98820815D01*
X140890602Y-98820828D01*
X140830264Y-98966498D01*
X140830261Y-98966510D01*
X140799500Y-99121153D01*
X119153000Y-99121153D01*
X119153000Y-83023448D01*
X119172685Y-82956409D01*
X119225489Y-82910654D01*
X119277000Y-82899448D01*
X124730330Y-82899448D01*
X124797369Y-82919133D01*
X124799222Y-82920347D01*
X124839047Y-82946958D01*
X124839050Y-82946959D01*
X124839053Y-82946961D01*
X125002934Y-83014842D01*
X125002936Y-83014842D01*
X125002941Y-83014844D01*
X125176904Y-83049447D01*
X125176907Y-83049448D01*
X125176909Y-83049448D01*
X125354293Y-83049448D01*
X125354294Y-83049447D01*
X125412282Y-83037912D01*
X125528258Y-83014844D01*
X125528261Y-83014842D01*
X125528266Y-83014842D01*
X125692147Y-82946961D01*
X125692150Y-82946958D01*
X125692152Y-82946958D01*
X125731978Y-82920347D01*
X125798655Y-82899468D01*
X125800870Y-82899448D01*
X128074972Y-82899448D01*
X128204305Y-82873721D01*
X128219965Y-82870606D01*
X128269918Y-82849914D01*
X128291922Y-82847548D01*
X128312921Y-82840556D01*
X128325981Y-82843887D01*
X128339385Y-82842446D01*
X128359176Y-82852353D01*
X128380624Y-82857823D01*
X128389811Y-82867688D01*
X128401864Y-82873721D01*
X128413157Y-82892754D01*
X128428243Y-82908952D01*
X128430638Y-82922216D01*
X128437517Y-82933809D01*
X128436727Y-82955928D01*
X128440661Y-82977709D01*
X128435182Y-82999186D01*
X128435024Y-83003634D01*
X128431938Y-83011908D01*
X128430732Y-83014821D01*
X128430724Y-83014842D01*
X128398538Y-83092545D01*
X128398535Y-83092555D01*
X128374500Y-83213389D01*
X128374500Y-87689547D01*
X128354815Y-87756586D01*
X128338181Y-87777228D01*
X127894729Y-88220681D01*
X127833406Y-88254166D01*
X127807048Y-88257000D01*
X123169850Y-88257000D01*
X123102811Y-88237315D01*
X123100959Y-88236102D01*
X123006684Y-88173109D01*
X123006672Y-88173102D01*
X122861001Y-88112764D01*
X122860989Y-88112761D01*
X122706345Y-88082000D01*
X122706342Y-88082000D01*
X122548658Y-88082000D01*
X122548655Y-88082000D01*
X122394010Y-88112761D01*
X122393998Y-88112764D01*
X122248327Y-88173102D01*
X122248314Y-88173109D01*
X122117211Y-88260710D01*
X122117207Y-88260713D01*
X122005713Y-88372207D01*
X122005710Y-88372211D01*
X121918109Y-88503314D01*
X121918102Y-88503327D01*
X121857764Y-88648998D01*
X121857761Y-88649010D01*
X121827000Y-88803653D01*
X121827000Y-88961346D01*
X121857761Y-89115989D01*
X121857764Y-89116001D01*
X121918102Y-89261672D01*
X121918109Y-89261685D01*
X122005710Y-89392788D01*
X122005713Y-89392792D01*
X122117207Y-89504286D01*
X122117211Y-89504289D01*
X122248314Y-89591890D01*
X122248327Y-89591897D01*
X122393998Y-89652235D01*
X122394003Y-89652237D01*
X122548653Y-89682999D01*
X122548656Y-89683000D01*
X122548658Y-89683000D01*
X122706344Y-89683000D01*
X122706345Y-89682999D01*
X122860997Y-89652237D01*
X123006679Y-89591894D01*
X123100959Y-89528898D01*
X123167636Y-89508020D01*
X123169850Y-89508000D01*
X128179107Y-89508000D01*
X128239529Y-89495981D01*
X128299952Y-89483963D01*
X128333292Y-89470152D01*
X128413786Y-89436812D01*
X128479669Y-89392789D01*
X128516233Y-89368358D01*
X128603358Y-89281233D01*
X128603358Y-89281231D01*
X128613566Y-89271024D01*
X128613567Y-89271021D01*
X129485857Y-88398734D01*
X129554311Y-88296286D01*
X129601463Y-88182452D01*
X129625500Y-88061607D01*
X129625500Y-87938394D01*
X129625500Y-86921153D01*
X138699500Y-86921153D01*
X138699500Y-87078846D01*
X138730261Y-87233489D01*
X138730264Y-87233501D01*
X138790602Y-87379172D01*
X138790609Y-87379185D01*
X138878210Y-87510288D01*
X138878213Y-87510292D01*
X138989707Y-87621786D01*
X138989711Y-87621789D01*
X139120814Y-87709390D01*
X139120827Y-87709397D01*
X139234753Y-87756586D01*
X139266503Y-87769737D01*
X139421153Y-87800499D01*
X139421156Y-87800500D01*
X139421158Y-87800500D01*
X139578844Y-87800500D01*
X139578845Y-87800499D01*
X139733497Y-87769737D01*
X139879179Y-87709394D01*
X139973459Y-87646398D01*
X140040136Y-87625520D01*
X140042350Y-87625500D01*
X144457650Y-87625500D01*
X144524689Y-87645185D01*
X144526541Y-87646398D01*
X144620821Y-87709394D01*
X144620823Y-87709395D01*
X144620827Y-87709397D01*
X144734753Y-87756586D01*
X144766503Y-87769737D01*
X144921153Y-87800499D01*
X144921156Y-87800500D01*
X144921158Y-87800500D01*
X145078844Y-87800500D01*
X145078845Y-87800499D01*
X145233497Y-87769737D01*
X145379179Y-87709394D01*
X145510289Y-87621789D01*
X145621789Y-87510289D01*
X145709394Y-87379179D01*
X145769737Y-87233497D01*
X145800500Y-87078842D01*
X145800500Y-86921158D01*
X145800500Y-86921155D01*
X145800499Y-86921153D01*
X145769738Y-86766510D01*
X145769737Y-86766503D01*
X145756808Y-86735289D01*
X145709397Y-86620827D01*
X145709390Y-86620814D01*
X145621789Y-86489711D01*
X145621786Y-86489707D01*
X145510292Y-86378213D01*
X145510288Y-86378210D01*
X145379185Y-86290609D01*
X145379172Y-86290602D01*
X145233501Y-86230264D01*
X145233489Y-86230261D01*
X145078845Y-86199500D01*
X145078842Y-86199500D01*
X144921158Y-86199500D01*
X144921155Y-86199500D01*
X144766510Y-86230261D01*
X144766498Y-86230264D01*
X144620827Y-86290602D01*
X144620815Y-86290609D01*
X144526541Y-86353602D01*
X144459864Y-86374480D01*
X144457650Y-86374500D01*
X140042350Y-86374500D01*
X139975311Y-86354815D01*
X139973459Y-86353602D01*
X139879184Y-86290609D01*
X139879172Y-86290602D01*
X139733501Y-86230264D01*
X139733489Y-86230261D01*
X139578845Y-86199500D01*
X139578842Y-86199500D01*
X139421158Y-86199500D01*
X139421155Y-86199500D01*
X139266510Y-86230261D01*
X139266498Y-86230264D01*
X139120827Y-86290602D01*
X139120814Y-86290609D01*
X138989711Y-86378210D01*
X138989707Y-86378213D01*
X138878213Y-86489707D01*
X138878210Y-86489711D01*
X138790609Y-86620814D01*
X138790602Y-86620827D01*
X138730264Y-86766498D01*
X138730261Y-86766510D01*
X138699500Y-86921153D01*
X129625500Y-86921153D01*
X129625500Y-83585452D01*
X129645185Y-83518413D01*
X129661819Y-83497771D01*
X130147772Y-83011819D01*
X130209095Y-82978334D01*
X130235453Y-82975500D01*
X139911607Y-82975500D01*
X139972029Y-82963481D01*
X140032452Y-82951463D01*
X140065792Y-82937652D01*
X140146286Y-82904312D01*
X140197509Y-82870084D01*
X140248733Y-82835858D01*
X140335858Y-82748733D01*
X140335858Y-82748731D01*
X140346066Y-82738524D01*
X140346068Y-82738521D01*
X140758797Y-82325791D01*
X140820118Y-82292308D01*
X140822128Y-82291889D01*
X140933497Y-82269737D01*
X141079179Y-82209394D01*
X141210289Y-82121789D01*
X141321789Y-82010289D01*
X141409394Y-81879179D01*
X141469737Y-81733497D01*
X141500500Y-81578842D01*
X141500500Y-81421158D01*
X141500500Y-81421155D01*
X141500499Y-81421153D01*
X141498741Y-81412315D01*
X141469737Y-81266503D01*
X141418914Y-81143804D01*
X141409397Y-81120827D01*
X141409390Y-81120814D01*
X141321789Y-80989711D01*
X141321786Y-80989707D01*
X141210292Y-80878213D01*
X141210288Y-80878210D01*
X141079185Y-80790609D01*
X141079172Y-80790602D01*
X140933501Y-80730264D01*
X140933489Y-80730261D01*
X140778845Y-80699500D01*
X140778842Y-80699500D01*
X140621158Y-80699500D01*
X140621155Y-80699500D01*
X140466510Y-80730261D01*
X140466498Y-80730264D01*
X140320827Y-80790602D01*
X140320814Y-80790609D01*
X140189711Y-80878210D01*
X140189707Y-80878213D01*
X140078213Y-80989707D01*
X140078210Y-80989711D01*
X139990609Y-81120814D01*
X139990602Y-81120827D01*
X139930264Y-81266498D01*
X139930261Y-81266508D01*
X139908141Y-81377714D01*
X139875756Y-81439625D01*
X139874206Y-81441203D01*
X139627227Y-81688182D01*
X139565907Y-81721666D01*
X139539548Y-81724500D01*
X137138980Y-81724500D01*
X137071941Y-81704815D01*
X137026186Y-81652011D01*
X137016242Y-81582853D01*
X137024416Y-81553053D01*
X137048394Y-81495166D01*
X137064419Y-81414606D01*
X137078963Y-81341487D01*
X137083000Y-81321191D01*
X137083000Y-81143809D01*
X137083000Y-81143806D01*
X137082999Y-81143804D01*
X137048396Y-80969841D01*
X137048393Y-80969832D01*
X136980513Y-80805953D01*
X136980511Y-80805951D01*
X136980511Y-80805949D01*
X136953898Y-80766120D01*
X136933020Y-80699442D01*
X136933000Y-80697229D01*
X136933000Y-80304729D01*
X136941644Y-80275288D01*
X136948168Y-80245302D01*
X136951922Y-80240286D01*
X136952685Y-80237690D01*
X136969319Y-80217048D01*
X137027648Y-80158719D01*
X137088971Y-80125234D01*
X137115329Y-80122400D01*
X145715330Y-80122400D01*
X145782369Y-80142085D01*
X145784222Y-80143299D01*
X145824047Y-80169910D01*
X145824050Y-80169911D01*
X145824053Y-80169913D01*
X145987934Y-80237794D01*
X145987936Y-80237794D01*
X145987941Y-80237796D01*
X146161904Y-80272399D01*
X146161907Y-80272400D01*
X146161909Y-80272400D01*
X146339293Y-80272400D01*
X146339294Y-80272399D01*
X146434976Y-80253367D01*
X146513258Y-80237796D01*
X146513261Y-80237794D01*
X146513266Y-80237794D01*
X146677147Y-80169913D01*
X146677150Y-80169910D01*
X146677152Y-80169910D01*
X146716978Y-80143299D01*
X146783655Y-80122420D01*
X146785870Y-80122400D01*
X148809670Y-80122400D01*
X148876709Y-80142085D01*
X148897351Y-80158719D01*
X149148181Y-80409548D01*
X149181666Y-80470871D01*
X149184500Y-80497229D01*
X149184500Y-84188390D01*
X149164815Y-84255429D01*
X149112011Y-84301184D01*
X149101455Y-84305431D01*
X148974076Y-84350003D01*
X148974072Y-84350004D01*
X148819709Y-84446998D01*
X148690798Y-84575909D01*
X148593806Y-84730270D01*
X148533592Y-84902350D01*
X148533591Y-84902355D01*
X148518300Y-85038072D01*
X148518300Y-85961922D01*
X148518301Y-85961926D01*
X148533592Y-86097647D01*
X148593805Y-86269728D01*
X148690798Y-86424090D01*
X148819709Y-86553001D01*
X148951825Y-86636016D01*
X148974073Y-86649995D01*
X149101454Y-86694567D01*
X149158230Y-86735289D01*
X149183978Y-86800241D01*
X149184500Y-86811609D01*
X149184500Y-93958918D01*
X149184500Y-93958920D01*
X149184499Y-93958920D01*
X149213340Y-94103907D01*
X149213343Y-94103917D01*
X149269913Y-94240490D01*
X149269914Y-94240491D01*
X149269916Y-94240495D01*
X149287659Y-94267049D01*
X149325341Y-94323446D01*
X149352051Y-94363420D01*
X149352052Y-94363421D01*
X150317049Y-95328416D01*
X150387122Y-95398489D01*
X150421585Y-95432952D01*
X150544498Y-95515080D01*
X150544511Y-95515087D01*
X150640779Y-95554962D01*
X150681087Y-95571658D01*
X150681091Y-95571658D01*
X150681092Y-95571659D01*
X150826079Y-95600500D01*
X150826082Y-95600500D01*
X150826083Y-95600500D01*
X150973917Y-95600500D01*
X154820330Y-95600500D01*
X154887369Y-95620185D01*
X154889222Y-95621399D01*
X154929047Y-95648010D01*
X154929050Y-95648011D01*
X154929053Y-95648013D01*
X155092934Y-95715894D01*
X155092936Y-95715894D01*
X155092941Y-95715896D01*
X155266904Y-95750499D01*
X155266907Y-95750500D01*
X155266909Y-95750500D01*
X155444293Y-95750500D01*
X155444294Y-95750499D01*
X155502282Y-95738964D01*
X155618258Y-95715896D01*
X155618261Y-95715894D01*
X155618266Y-95715894D01*
X155782147Y-95648013D01*
X155929635Y-95549464D01*
X155964019Y-95515080D01*
X156011819Y-95467281D01*
X156073142Y-95433796D01*
X156142834Y-95438780D01*
X156198767Y-95480652D01*
X156223184Y-95546116D01*
X156223500Y-95554962D01*
X156223500Y-98510218D01*
X156203815Y-98577257D01*
X156187181Y-98597899D01*
X155121899Y-99663181D01*
X155060576Y-99696666D01*
X155034218Y-99699500D01*
X144301455Y-99699500D01*
X144208773Y-99717936D01*
X144208771Y-99717936D01*
X144204812Y-99718724D01*
X144108164Y-99737949D01*
X144068663Y-99754311D01*
X144061137Y-99757428D01*
X144061127Y-99757431D01*
X143926092Y-99813364D01*
X143926079Y-99813371D01*
X143762219Y-99922859D01*
X143715344Y-99969735D01*
X143622861Y-100062218D01*
X143622858Y-100062221D01*
X142062221Y-101622858D01*
X142062218Y-101622861D01*
X142023028Y-101662051D01*
X141922859Y-101762219D01*
X141813371Y-101926080D01*
X141813364Y-101926093D01*
X141790586Y-101981087D01*
X141740729Y-102101454D01*
X141740727Y-102101460D01*
X141737949Y-102108164D01*
X141737946Y-102108175D01*
X141699500Y-102301454D01*
X141699500Y-105989301D01*
X141679815Y-106056340D01*
X141675818Y-106062186D01*
X141630478Y-106124591D01*
X141541117Y-106299970D01*
X141480290Y-106487173D01*
X141449500Y-106681577D01*
X141449500Y-107398422D01*
X141480290Y-107592826D01*
X141541117Y-107780029D01*
X141608711Y-107912689D01*
X141630476Y-107955405D01*
X141746172Y-108114646D01*
X141885354Y-108253828D01*
X142044595Y-108369524D01*
X142095627Y-108395526D01*
X142219970Y-108458882D01*
X142219972Y-108458882D01*
X142219975Y-108458884D01*
X142320317Y-108491487D01*
X142407173Y-108519709D01*
X142601578Y-108550500D01*
X142601583Y-108550500D01*
X142798422Y-108550500D01*
X142992826Y-108519709D01*
X143022710Y-108509999D01*
X143180025Y-108458884D01*
X143355405Y-108369524D01*
X143514646Y-108253828D01*
X143653828Y-108114646D01*
X143769524Y-107955405D01*
X143858884Y-107780025D01*
X143919709Y-107592826D01*
X143926492Y-107550000D01*
X143950500Y-107398422D01*
X143950500Y-106681577D01*
X143919709Y-106487173D01*
X143906712Y-106447173D01*
X143858884Y-106299975D01*
X143855316Y-106292972D01*
X143850316Y-106283158D01*
X143823238Y-106230014D01*
X144450000Y-106230014D01*
X144450000Y-106790000D01*
X145255440Y-106790000D01*
X145224755Y-106843147D01*
X145190000Y-106972857D01*
X145190000Y-107107143D01*
X145224755Y-107236853D01*
X145255440Y-107290000D01*
X144450000Y-107290000D01*
X144450000Y-107849985D01*
X144460493Y-107952689D01*
X144460494Y-107952696D01*
X144515641Y-108119118D01*
X144515643Y-108119123D01*
X144607684Y-108268344D01*
X144731655Y-108392315D01*
X144880876Y-108484356D01*
X144880881Y-108484358D01*
X145047303Y-108539505D01*
X145047310Y-108539506D01*
X145150014Y-108549999D01*
X145150027Y-108550000D01*
X145450000Y-108550000D01*
X145450000Y-107484560D01*
X145503147Y-107515245D01*
X145632857Y-107550000D01*
X145767143Y-107550000D01*
X145896853Y-107515245D01*
X145950000Y-107484560D01*
X145950000Y-108550000D01*
X146249973Y-108550000D01*
X146249985Y-108549999D01*
X146352689Y-108539506D01*
X146352696Y-108539505D01*
X146519118Y-108484358D01*
X146519123Y-108484356D01*
X146668344Y-108392315D01*
X146792315Y-108268344D01*
X146884356Y-108119123D01*
X146884358Y-108119118D01*
X146939505Y-107952696D01*
X146939506Y-107952689D01*
X146949999Y-107849985D01*
X146950000Y-107849972D01*
X146950000Y-107290000D01*
X146144560Y-107290000D01*
X146175245Y-107236853D01*
X146210000Y-107107143D01*
X146210000Y-106972857D01*
X146175245Y-106843147D01*
X146144560Y-106790000D01*
X146950000Y-106790000D01*
X146950000Y-106641577D01*
X152549500Y-106641577D01*
X152549500Y-107358422D01*
X152580290Y-107552826D01*
X152641117Y-107740029D01*
X152711780Y-107878712D01*
X152730476Y-107915405D01*
X152846172Y-108074646D01*
X152985354Y-108213828D01*
X153144595Y-108329524D01*
X153199466Y-108357482D01*
X153319970Y-108418882D01*
X153319972Y-108418882D01*
X153319975Y-108418884D01*
X153420317Y-108451487D01*
X153507173Y-108479709D01*
X153701578Y-108510500D01*
X153701583Y-108510500D01*
X153898422Y-108510500D01*
X154092826Y-108479709D01*
X154156918Y-108458884D01*
X154280025Y-108418884D01*
X154455405Y-108329524D01*
X154614646Y-108213828D01*
X154753828Y-108074646D01*
X154869524Y-107915405D01*
X154958884Y-107740025D01*
X155019709Y-107552826D01*
X155026492Y-107510000D01*
X155050500Y-107358422D01*
X155050500Y-106641577D01*
X155019709Y-106447173D01*
X155008085Y-106411399D01*
X154958884Y-106259975D01*
X154953547Y-106249500D01*
X154950316Y-106243158D01*
X154923237Y-106190014D01*
X155550000Y-106190014D01*
X155550000Y-106750000D01*
X156355440Y-106750000D01*
X156324755Y-106803147D01*
X156290000Y-106932857D01*
X156290000Y-107067143D01*
X156324755Y-107196853D01*
X156355440Y-107250000D01*
X155550000Y-107250000D01*
X155550000Y-107809985D01*
X155560493Y-107912689D01*
X155560494Y-107912696D01*
X155615641Y-108079118D01*
X155615643Y-108079123D01*
X155707684Y-108228344D01*
X155831655Y-108352315D01*
X155980876Y-108444356D01*
X155980881Y-108444358D01*
X156147303Y-108499505D01*
X156147310Y-108499506D01*
X156250014Y-108509999D01*
X156250027Y-108510000D01*
X156550000Y-108510000D01*
X156550000Y-107444560D01*
X156603147Y-107475245D01*
X156732857Y-107510000D01*
X156867143Y-107510000D01*
X156996853Y-107475245D01*
X157050000Y-107444560D01*
X157050000Y-108510000D01*
X157349973Y-108510000D01*
X157349985Y-108509999D01*
X157452689Y-108499506D01*
X157452696Y-108499505D01*
X157619118Y-108444358D01*
X157619123Y-108444356D01*
X157768344Y-108352315D01*
X157892315Y-108228344D01*
X157984356Y-108079123D01*
X157984358Y-108079118D01*
X158039505Y-107912696D01*
X158039506Y-107912688D01*
X158042978Y-107878711D01*
X164649500Y-107878711D01*
X164649500Y-108121288D01*
X164679914Y-108352315D01*
X164681162Y-108361789D01*
X164707178Y-108458882D01*
X164743947Y-108596104D01*
X164807900Y-108750499D01*
X164836776Y-108820212D01*
X164958064Y-109030289D01*
X164958066Y-109030292D01*
X164958067Y-109030293D01*
X165105733Y-109222736D01*
X165105739Y-109222743D01*
X165277256Y-109394260D01*
X165277262Y-109394265D01*
X165469711Y-109541936D01*
X165679788Y-109663224D01*
X165903900Y-109756054D01*
X166138211Y-109818838D01*
X166318586Y-109842584D01*
X166378711Y-109850500D01*
X166378712Y-109850500D01*
X166621289Y-109850500D01*
X166669388Y-109844167D01*
X166861789Y-109818838D01*
X167096100Y-109756054D01*
X167320212Y-109663224D01*
X167530289Y-109541936D01*
X167722738Y-109394265D01*
X167894265Y-109222738D01*
X168041936Y-109030289D01*
X168163224Y-108820212D01*
X168256054Y-108596100D01*
X168318838Y-108361789D01*
X168350500Y-108121288D01*
X168350500Y-107878712D01*
X168348306Y-107862050D01*
X168318838Y-107638214D01*
X168318838Y-107638211D01*
X168256054Y-107403900D01*
X168163224Y-107179788D01*
X168041936Y-106969711D01*
X167894265Y-106777262D01*
X167894260Y-106777256D01*
X167722743Y-106605739D01*
X167722736Y-106605733D01*
X167530293Y-106458067D01*
X167530292Y-106458066D01*
X167530289Y-106458064D01*
X167320212Y-106336776D01*
X167320205Y-106336773D01*
X167096104Y-106243947D01*
X166861785Y-106181161D01*
X166621289Y-106149500D01*
X166621288Y-106149500D01*
X166378712Y-106149500D01*
X166378711Y-106149500D01*
X166138214Y-106181161D01*
X165903895Y-106243947D01*
X165679794Y-106336773D01*
X165679785Y-106336777D01*
X165469706Y-106458067D01*
X165277263Y-106605733D01*
X165277256Y-106605739D01*
X165105739Y-106777256D01*
X165105733Y-106777263D01*
X164958067Y-106969706D01*
X164836777Y-107179785D01*
X164836773Y-107179794D01*
X164743947Y-107403895D01*
X164681161Y-107638214D01*
X164649500Y-107878711D01*
X158042978Y-107878711D01*
X158044680Y-107862051D01*
X158044680Y-107862050D01*
X158049999Y-107809985D01*
X158050000Y-107809972D01*
X158050000Y-107250000D01*
X157244560Y-107250000D01*
X157275245Y-107196853D01*
X157310000Y-107067143D01*
X157310000Y-106932857D01*
X157275245Y-106803147D01*
X157244560Y-106750000D01*
X158050000Y-106750000D01*
X158050000Y-106190027D01*
X158049999Y-106190014D01*
X158039506Y-106087310D01*
X158039505Y-106087303D01*
X157984358Y-105920881D01*
X157984356Y-105920876D01*
X157892315Y-105771655D01*
X157768344Y-105647684D01*
X157619123Y-105555643D01*
X157619118Y-105555641D01*
X157452696Y-105500494D01*
X157452689Y-105500493D01*
X157349985Y-105490000D01*
X157050000Y-105490000D01*
X157050000Y-106555439D01*
X156996853Y-106524755D01*
X156867143Y-106490000D01*
X156732857Y-106490000D01*
X156603147Y-106524755D01*
X156550000Y-106555439D01*
X156550000Y-105490000D01*
X156250014Y-105490000D01*
X156147310Y-105500493D01*
X156147303Y-105500494D01*
X155980881Y-105555641D01*
X155980876Y-105555643D01*
X155831655Y-105647684D01*
X155707684Y-105771655D01*
X155615643Y-105920876D01*
X155615641Y-105920881D01*
X155560494Y-106087303D01*
X155560493Y-106087310D01*
X155550000Y-106190014D01*
X154923237Y-106190014D01*
X154914149Y-106172177D01*
X154869524Y-106084595D01*
X154853243Y-106062186D01*
X154824182Y-106022186D01*
X154800702Y-105956380D01*
X154800500Y-105949301D01*
X154800500Y-105165782D01*
X154820185Y-105098743D01*
X154836819Y-105078101D01*
X155378102Y-104536819D01*
X155439425Y-104503334D01*
X155465783Y-104500500D01*
X158798542Y-104500500D01*
X158829566Y-104494328D01*
X158895188Y-104481275D01*
X158991836Y-104462051D01*
X159045165Y-104439961D01*
X159173914Y-104386632D01*
X159337782Y-104277139D01*
X159477139Y-104137782D01*
X159477139Y-104137780D01*
X159487347Y-104127573D01*
X159487348Y-104127570D01*
X160777140Y-102837781D01*
X160886632Y-102673914D01*
X160962052Y-102491835D01*
X160999918Y-102301461D01*
X160999924Y-102301462D01*
X160999924Y-102301434D01*
X161000500Y-102298541D01*
X161000500Y-95168650D01*
X161002105Y-95163183D01*
X161000994Y-95157596D01*
X161011840Y-95130029D01*
X161020185Y-95101611D01*
X161024489Y-95097881D01*
X161026576Y-95092578D01*
X161050607Y-95075249D01*
X161072989Y-95055856D01*
X161078627Y-95055045D01*
X161083249Y-95051713D01*
X161112826Y-95050127D01*
X161142147Y-95045912D01*
X161147329Y-95048278D01*
X161153018Y-95047974D01*
X161178757Y-95062631D01*
X161205703Y-95074937D01*
X161210078Y-95080467D01*
X161213734Y-95082549D01*
X161223420Y-95097329D01*
X161234376Y-95111177D01*
X161236942Y-95116083D01*
X161261987Y-95176547D01*
X161292293Y-95221903D01*
X161295376Y-95227796D01*
X161300946Y-95255800D01*
X161309480Y-95283055D01*
X161309500Y-95285269D01*
X161309500Y-100508918D01*
X161309500Y-100508920D01*
X161309499Y-100508920D01*
X161338340Y-100653907D01*
X161338343Y-100653917D01*
X161394914Y-100790492D01*
X161427812Y-100839727D01*
X161427813Y-100839730D01*
X161477046Y-100913414D01*
X161477052Y-100913421D01*
X161894338Y-101330706D01*
X162296584Y-101732952D01*
X162367673Y-101780451D01*
X162419505Y-101815084D01*
X162476080Y-101838518D01*
X162556088Y-101871659D01*
X162672241Y-101894763D01*
X162691468Y-101898587D01*
X162701081Y-101900500D01*
X162701082Y-101900500D01*
X162701083Y-101900500D01*
X162848918Y-101900500D01*
X164724730Y-101900500D01*
X164791769Y-101920185D01*
X164793622Y-101921399D01*
X164833447Y-101948010D01*
X164833450Y-101948011D01*
X164833453Y-101948013D01*
X164997334Y-102015894D01*
X164997336Y-102015894D01*
X164997341Y-102015896D01*
X165171304Y-102050499D01*
X165171307Y-102050500D01*
X165171309Y-102050500D01*
X165348693Y-102050500D01*
X165348694Y-102050499D01*
X165406682Y-102038964D01*
X165522658Y-102015896D01*
X165522661Y-102015894D01*
X165522666Y-102015894D01*
X165686547Y-101948013D01*
X165834035Y-101849464D01*
X165959464Y-101724035D01*
X166058013Y-101576547D01*
X166125894Y-101412666D01*
X166140790Y-101337782D01*
X166160499Y-101238695D01*
X166160500Y-101238693D01*
X166160500Y-101061306D01*
X166160499Y-101061304D01*
X166125896Y-100887341D01*
X166125893Y-100887332D01*
X166058016Y-100723459D01*
X166058009Y-100723446D01*
X165959464Y-100575965D01*
X165959461Y-100575961D01*
X165834038Y-100450538D01*
X165834034Y-100450535D01*
X165686553Y-100351990D01*
X165686540Y-100351983D01*
X165522667Y-100284106D01*
X165522658Y-100284103D01*
X165348694Y-100249500D01*
X165348691Y-100249500D01*
X165171309Y-100249500D01*
X165171306Y-100249500D01*
X164997341Y-100284103D01*
X164997332Y-100284106D01*
X164833452Y-100351987D01*
X164833447Y-100351989D01*
X164793622Y-100378601D01*
X164726945Y-100399480D01*
X164724730Y-100399500D01*
X163137230Y-100399500D01*
X163070191Y-100379815D01*
X163049549Y-100363181D01*
X162846819Y-100160451D01*
X162813334Y-100099128D01*
X162810500Y-100072770D01*
X162810500Y-95285269D01*
X162830185Y-95218230D01*
X162831398Y-95216378D01*
X162858013Y-95176547D01*
X162925894Y-95012666D01*
X162942039Y-94931503D01*
X162960499Y-94838695D01*
X162960500Y-94838693D01*
X162960500Y-94661306D01*
X162960499Y-94661304D01*
X162925896Y-94487341D01*
X162925893Y-94487332D01*
X162858016Y-94323459D01*
X162858009Y-94323446D01*
X162759464Y-94175965D01*
X162759461Y-94175961D01*
X162634038Y-94050538D01*
X162634034Y-94050535D01*
X162486553Y-93951990D01*
X162486540Y-93951983D01*
X162322667Y-93884106D01*
X162322658Y-93884103D01*
X162148694Y-93849500D01*
X162148691Y-93849500D01*
X161971309Y-93849500D01*
X161971306Y-93849500D01*
X161797341Y-93884103D01*
X161797332Y-93884106D01*
X161633459Y-93951983D01*
X161633446Y-93951990D01*
X161485965Y-94050535D01*
X161485961Y-94050538D01*
X161360538Y-94175961D01*
X161360535Y-94175965D01*
X161261990Y-94323446D01*
X161261983Y-94323459D01*
X161239061Y-94378801D01*
X161195221Y-94433205D01*
X161128927Y-94455270D01*
X161061227Y-94437991D01*
X161013616Y-94386854D01*
X161000500Y-94331349D01*
X161000500Y-93163648D01*
X161020185Y-93096609D01*
X161051612Y-93063332D01*
X161077510Y-93044517D01*
X161244517Y-92877510D01*
X161383343Y-92686433D01*
X161490568Y-92475992D01*
X161563553Y-92251368D01*
X161600500Y-92018097D01*
X161600500Y-91781902D01*
X161563553Y-91548631D01*
X161490566Y-91324003D01*
X161383342Y-91113566D01*
X161244517Y-90922490D01*
X161077510Y-90755483D01*
X160886433Y-90616657D01*
X160675996Y-90509433D01*
X160451368Y-90436446D01*
X160218097Y-90399500D01*
X160218092Y-90399500D01*
X159981908Y-90399500D01*
X159981903Y-90399500D01*
X159748631Y-90436446D01*
X159524003Y-90509433D01*
X159313566Y-90616657D01*
X159204550Y-90695862D01*
X159122490Y-90755483D01*
X159122488Y-90755485D01*
X159122487Y-90755485D01*
X158955485Y-90922487D01*
X158955485Y-90922488D01*
X158955483Y-90922490D01*
X158895862Y-91004550D01*
X158816657Y-91113566D01*
X158709433Y-91324003D01*
X158636446Y-91548631D01*
X158599500Y-91781902D01*
X158599500Y-92018097D01*
X158636446Y-92251368D01*
X158709433Y-92475996D01*
X158816657Y-92686433D01*
X158955483Y-92877510D01*
X158955485Y-92877512D01*
X158963181Y-92885208D01*
X158996666Y-92946531D01*
X158999500Y-92972889D01*
X158999500Y-101734217D01*
X158979815Y-101801256D01*
X158963181Y-101821898D01*
X158321899Y-102463181D01*
X158260576Y-102496666D01*
X158234218Y-102499500D01*
X154901455Y-102499500D01*
X154808925Y-102517905D01*
X154808912Y-102517908D01*
X154804812Y-102518724D01*
X154708164Y-102537949D01*
X154665807Y-102555494D01*
X154658415Y-102558555D01*
X154658407Y-102558558D01*
X154526092Y-102613364D01*
X154526079Y-102613371D01*
X154362218Y-102722860D01*
X154362214Y-102722863D01*
X153410531Y-103674548D01*
X153162220Y-103922859D01*
X153162218Y-103922861D01*
X153092538Y-103992540D01*
X153022859Y-104062219D01*
X152913371Y-104226079D01*
X152913366Y-104226089D01*
X152860039Y-104354829D01*
X152860038Y-104354834D01*
X152846869Y-104386631D01*
X152846868Y-104386634D01*
X152837950Y-104408160D01*
X152837947Y-104408169D01*
X152799500Y-104601456D01*
X152799500Y-105949301D01*
X152779815Y-106016340D01*
X152775818Y-106022186D01*
X152730478Y-106084591D01*
X152641117Y-106259970D01*
X152580290Y-106447173D01*
X152549500Y-106641577D01*
X146950000Y-106641577D01*
X146950000Y-106230027D01*
X146949999Y-106230014D01*
X146939506Y-106127310D01*
X146939505Y-106127303D01*
X146884358Y-105960881D01*
X146884356Y-105960876D01*
X146792315Y-105811655D01*
X146668344Y-105687684D01*
X146519123Y-105595643D01*
X146519118Y-105595641D01*
X146352696Y-105540494D01*
X146352689Y-105540493D01*
X146249985Y-105530000D01*
X145950000Y-105530000D01*
X145950000Y-106595439D01*
X145896853Y-106564755D01*
X145767143Y-106530000D01*
X145632857Y-106530000D01*
X145503147Y-106564755D01*
X145450000Y-106595439D01*
X145450000Y-105530000D01*
X145150014Y-105530000D01*
X145047310Y-105540493D01*
X145047303Y-105540494D01*
X144880881Y-105595641D01*
X144880876Y-105595643D01*
X144731655Y-105687684D01*
X144607684Y-105811655D01*
X144515643Y-105960876D01*
X144515641Y-105960881D01*
X144460494Y-106127303D01*
X144460493Y-106127310D01*
X144450000Y-106230014D01*
X143823238Y-106230014D01*
X143798346Y-106181162D01*
X143769524Y-106124595D01*
X143742430Y-106087303D01*
X143724182Y-106062186D01*
X143700702Y-105996380D01*
X143700500Y-105989301D01*
X143700500Y-102865782D01*
X143720185Y-102798743D01*
X143736819Y-102778101D01*
X144778101Y-101736819D01*
X144839424Y-101703334D01*
X144865782Y-101700500D01*
X155598543Y-101700500D01*
X155642410Y-101691773D01*
X155722132Y-101675916D01*
X155791836Y-101662051D01*
X155845165Y-101639961D01*
X155973914Y-101586632D01*
X156137782Y-101477139D01*
X156277139Y-101337782D01*
X156277140Y-101337779D01*
X156284206Y-101330714D01*
X156284209Y-101330710D01*
X157861778Y-99753141D01*
X157861782Y-99753139D01*
X158001139Y-99613782D01*
X158110632Y-99449914D01*
X158186051Y-99267835D01*
X158224500Y-99074541D01*
X158224500Y-86291782D01*
X158244185Y-86224743D01*
X158260819Y-86204101D01*
X159008102Y-85456819D01*
X159069425Y-85423334D01*
X159095783Y-85420500D01*
X167718543Y-85420500D01*
X167848582Y-85394632D01*
X167911835Y-85382051D01*
X168093914Y-85306632D01*
X168257782Y-85197139D01*
X168397139Y-85057782D01*
X168506632Y-84893914D01*
X168582051Y-84711835D01*
X168598139Y-84630958D01*
X168620500Y-84518543D01*
X168620500Y-84321456D01*
X168582052Y-84128170D01*
X168582051Y-84128169D01*
X168582051Y-84128165D01*
X168582049Y-84128160D01*
X168506635Y-83946092D01*
X168506628Y-83946079D01*
X168397139Y-83782218D01*
X168397136Y-83782214D01*
X168257785Y-83642863D01*
X168257781Y-83642860D01*
X168093920Y-83533371D01*
X168093907Y-83533364D01*
X167911839Y-83457950D01*
X167911829Y-83457947D01*
X167718543Y-83419500D01*
X167718541Y-83419500D01*
X158531459Y-83419500D01*
X158531455Y-83419500D01*
X158434812Y-83438724D01*
X158338167Y-83457947D01*
X158338161Y-83457949D01*
X158284834Y-83480037D01*
X158284834Y-83480038D01*
X158242023Y-83497771D01*
X158156089Y-83533366D01*
X158156079Y-83533371D01*
X158023458Y-83621987D01*
X158023457Y-83621988D01*
X157992215Y-83642862D01*
X157992214Y-83642863D01*
X156923250Y-84711829D01*
X156586220Y-85048859D01*
X156586218Y-85048861D01*
X156516538Y-85118540D01*
X156446859Y-85188219D01*
X156337371Y-85352079D01*
X156337364Y-85352092D01*
X156261950Y-85534160D01*
X156261947Y-85534170D01*
X156223500Y-85727456D01*
X156223500Y-94145038D01*
X156203815Y-94212077D01*
X156151011Y-94257832D01*
X156081853Y-94267776D01*
X156018297Y-94238751D01*
X156011819Y-94232719D01*
X155929638Y-94150538D01*
X155929634Y-94150535D01*
X155782153Y-94051990D01*
X155782140Y-94051983D01*
X155618267Y-93984106D01*
X155618258Y-93984103D01*
X155444294Y-93949500D01*
X155444291Y-93949500D01*
X155266909Y-93949500D01*
X155266906Y-93949500D01*
X155092941Y-93984103D01*
X155092932Y-93984106D01*
X154929052Y-94051987D01*
X154929047Y-94051989D01*
X154889222Y-94078601D01*
X154822545Y-94099480D01*
X154820330Y-94099500D01*
X151262229Y-94099500D01*
X151195190Y-94079815D01*
X151174548Y-94063181D01*
X150721819Y-93610451D01*
X150688334Y-93549128D01*
X150685500Y-93522770D01*
X150685500Y-86661490D01*
X150705185Y-86594451D01*
X150743529Y-86556496D01*
X150744347Y-86555981D01*
X150749091Y-86553001D01*
X150878001Y-86424091D01*
X150898980Y-86390704D01*
X150951314Y-86344412D01*
X151020367Y-86333763D01*
X151084216Y-86362138D01*
X151108967Y-86390702D01*
X151121764Y-86411069D01*
X151250128Y-86539433D01*
X151403839Y-86636015D01*
X151403841Y-86636016D01*
X151575189Y-86695973D01*
X151710332Y-86711199D01*
X151965599Y-86711199D01*
X152465600Y-86711199D01*
X152720865Y-86711199D01*
X152720870Y-86711198D01*
X152856010Y-86695973D01*
X152856023Y-86695970D01*
X153027353Y-86636019D01*
X153027360Y-86636015D01*
X153181071Y-86539433D01*
X153309433Y-86411071D01*
X153406015Y-86257360D01*
X153406016Y-86257358D01*
X153465973Y-86086010D01*
X153481199Y-85950869D01*
X153481200Y-85950865D01*
X153481200Y-85743100D01*
X152465600Y-85743100D01*
X152465600Y-86711199D01*
X151965599Y-86711199D01*
X151965600Y-86711198D01*
X151965600Y-85243100D01*
X152465600Y-85243100D01*
X153481199Y-85243100D01*
X153481199Y-85035335D01*
X153481198Y-85035329D01*
X153465973Y-84900189D01*
X153465970Y-84900176D01*
X153406019Y-84728846D01*
X153406015Y-84728839D01*
X153309433Y-84575128D01*
X153181071Y-84446766D01*
X153027360Y-84350184D01*
X153027358Y-84350183D01*
X152856010Y-84290226D01*
X152720869Y-84275000D01*
X152465600Y-84275000D01*
X152465600Y-85243100D01*
X151965600Y-85243100D01*
X151965600Y-84275000D01*
X151710335Y-84275000D01*
X151710329Y-84275001D01*
X151575189Y-84290226D01*
X151575176Y-84290229D01*
X151403846Y-84350180D01*
X151403839Y-84350184D01*
X151250128Y-84446766D01*
X151121766Y-84575128D01*
X151121765Y-84575130D01*
X151104630Y-84602399D01*
X151052294Y-84648689D01*
X150983240Y-84659335D01*
X150919393Y-84630958D01*
X150894644Y-84602395D01*
X150878004Y-84575913D01*
X150878002Y-84575910D01*
X150749093Y-84447001D01*
X150749088Y-84446997D01*
X150743520Y-84443498D01*
X150697233Y-84391160D01*
X150685500Y-84338509D01*
X150685500Y-80061079D01*
X150656659Y-79916092D01*
X150656658Y-79916091D01*
X150656658Y-79916087D01*
X150636980Y-79868579D01*
X150600087Y-79779511D01*
X150600080Y-79779498D01*
X150517952Y-79656585D01*
X150517951Y-79656584D01*
X150413416Y-79552049D01*
X150325447Y-79464080D01*
X149650321Y-78788952D01*
X149650314Y-78788946D01*
X149576629Y-78739712D01*
X149576629Y-78739713D01*
X149527391Y-78706813D01*
X149390817Y-78650243D01*
X149390807Y-78650240D01*
X149245820Y-78621400D01*
X149245818Y-78621400D01*
X146785870Y-78621400D01*
X146718831Y-78601715D01*
X146716978Y-78600501D01*
X146677152Y-78573889D01*
X146677147Y-78573887D01*
X146513267Y-78506006D01*
X146513258Y-78506003D01*
X146339294Y-78471400D01*
X146339291Y-78471400D01*
X146161909Y-78471400D01*
X146161906Y-78471400D01*
X145987941Y-78506003D01*
X145987932Y-78506006D01*
X145824052Y-78573887D01*
X145824047Y-78573889D01*
X145784222Y-78600501D01*
X145717545Y-78621380D01*
X145715330Y-78621400D01*
X136679180Y-78621400D01*
X136534192Y-78650240D01*
X136534182Y-78650243D01*
X136397611Y-78706812D01*
X136397598Y-78706819D01*
X136274684Y-78788948D01*
X136274680Y-78788951D01*
X135599550Y-79464080D01*
X135599544Y-79464088D01*
X135550312Y-79537768D01*
X135550313Y-79537769D01*
X135517421Y-79586996D01*
X135517414Y-79587008D01*
X135460842Y-79723586D01*
X135460840Y-79723592D01*
X135432000Y-79868579D01*
X135432000Y-80358000D01*
X135412315Y-80425039D01*
X135359511Y-80470794D01*
X135308000Y-80482000D01*
X128843580Y-80482000D01*
X128698592Y-80510840D01*
X128698582Y-80510843D01*
X128562011Y-80567412D01*
X128561998Y-80567419D01*
X128439084Y-80649548D01*
X128439080Y-80649551D01*
X127726503Y-81362129D01*
X127665180Y-81395614D01*
X127638822Y-81398448D01*
X126349500Y-81398448D01*
X126282461Y-81378763D01*
X126236706Y-81325959D01*
X126225500Y-81274448D01*
X126225500Y-74018617D01*
X126245185Y-73951578D01*
X126297989Y-73905823D01*
X126349500Y-73894617D01*
X136681895Y-73894617D01*
X136729347Y-73904056D01*
X136816151Y-73940011D01*
X136816153Y-73940011D01*
X136816158Y-73940013D01*
X136990121Y-73974616D01*
X136990124Y-73974617D01*
X136990126Y-73974617D01*
X137167510Y-73974617D01*
X137167511Y-73974616D01*
X137225499Y-73963081D01*
X137341475Y-73940013D01*
X137341478Y-73940011D01*
X137341483Y-73940011D01*
X137505364Y-73872130D01*
X137652852Y-73773581D01*
X137778281Y-73648152D01*
X137876830Y-73500664D01*
X137944711Y-73336783D01*
X137979317Y-73162808D01*
X137979317Y-72985426D01*
X137979317Y-72985423D01*
X137952507Y-72850644D01*
X137958734Y-72781052D01*
X138001597Y-72725875D01*
X138067486Y-72702630D01*
X138135483Y-72718698D01*
X138143015Y-72723350D01*
X138239631Y-72787907D01*
X138239644Y-72787914D01*
X138374321Y-72843698D01*
X138385320Y-72848254D01*
X138539970Y-72879016D01*
X138539973Y-72879017D01*
X138539975Y-72879017D01*
X138697661Y-72879017D01*
X138697662Y-72879016D01*
X138852314Y-72848254D01*
X138997996Y-72787911D01*
X139092276Y-72724915D01*
X139158953Y-72704037D01*
X139161167Y-72704017D01*
X141850876Y-72704017D01*
X141917915Y-72723702D01*
X141933780Y-72736486D01*
X141933818Y-72736441D01*
X141938528Y-72740306D01*
X142069631Y-72827907D01*
X142069644Y-72827914D01*
X142198891Y-72881449D01*
X142215320Y-72888254D01*
X142369970Y-72919016D01*
X142369973Y-72919017D01*
X142369975Y-72919017D01*
X142527661Y-72919017D01*
X142527662Y-72919016D01*
X142682314Y-72888254D01*
X142827996Y-72827911D01*
X142959106Y-72740306D01*
X143070606Y-72628806D01*
X143158211Y-72497696D01*
X143218554Y-72352014D01*
X143249317Y-72197359D01*
X143249317Y-72039675D01*
X143249317Y-72039672D01*
X143249316Y-72039670D01*
X143219550Y-71890027D01*
X143218554Y-71885020D01*
X143160285Y-71744344D01*
X143158214Y-71739344D01*
X143158207Y-71739331D01*
X143070606Y-71608228D01*
X143070603Y-71608224D01*
X143033577Y-71571198D01*
X143000092Y-71509875D01*
X143005076Y-71440183D01*
X143033577Y-71395836D01*
X143070603Y-71358809D01*
X143070606Y-71358806D01*
X143158211Y-71227696D01*
X143218554Y-71082014D01*
X143249317Y-70927359D01*
X143249317Y-70769675D01*
X143249317Y-70769672D01*
X143249316Y-70769670D01*
X143218554Y-70615020D01*
X143218552Y-70615015D01*
X143158214Y-70469344D01*
X143158207Y-70469331D01*
X143070606Y-70338228D01*
X143070603Y-70338224D01*
X142959109Y-70226730D01*
X142959105Y-70226727D01*
X142828002Y-70139126D01*
X142827989Y-70139119D01*
X142682318Y-70078781D01*
X142682306Y-70078778D01*
X142527662Y-70048017D01*
X142527659Y-70048017D01*
X142369975Y-70048017D01*
X142369972Y-70048017D01*
X142215327Y-70078778D01*
X142215315Y-70078781D01*
X142069644Y-70139119D01*
X142069631Y-70139126D01*
X141933463Y-70230112D01*
X141932356Y-70228455D01*
X141876469Y-70252185D01*
X141862126Y-70253017D01*
X139361167Y-70253017D01*
X139294128Y-70233332D01*
X139292276Y-70232119D01*
X139198001Y-70169126D01*
X139197989Y-70169119D01*
X139052318Y-70108781D01*
X139052306Y-70108778D01*
X138897662Y-70078017D01*
X138897659Y-70078017D01*
X138739975Y-70078017D01*
X138739972Y-70078017D01*
X138585327Y-70108778D01*
X138585315Y-70108781D01*
X138439644Y-70169119D01*
X138439631Y-70169126D01*
X138308528Y-70256727D01*
X138308524Y-70256730D01*
X138197030Y-70368224D01*
X138197027Y-70368228D01*
X138109426Y-70499331D01*
X138109419Y-70499344D01*
X138067878Y-70599636D01*
X138024037Y-70654040D01*
X137957743Y-70676105D01*
X137890044Y-70658826D01*
X137842433Y-70607689D01*
X137829317Y-70552184D01*
X137829317Y-67683412D01*
X137849002Y-67616373D01*
X137865636Y-67595731D01*
X140996031Y-64465336D01*
X141057354Y-64431851D01*
X141083712Y-64429017D01*
X147299147Y-64429017D01*
X147366186Y-64448702D01*
X147368039Y-64449916D01*
X147407864Y-64476527D01*
X147407867Y-64476528D01*
X147407870Y-64476530D01*
X147571751Y-64544411D01*
X147571753Y-64544411D01*
X147571758Y-64544413D01*
X147745721Y-64579016D01*
X147745724Y-64579017D01*
X147745726Y-64579017D01*
X147923110Y-64579017D01*
X147923111Y-64579016D01*
X147981099Y-64567481D01*
X148097075Y-64544413D01*
X148097078Y-64544411D01*
X148097083Y-64544411D01*
X148151048Y-64522057D01*
X148220517Y-64514589D01*
X148282996Y-64545864D01*
X148318648Y-64605953D01*
X148322500Y-64636619D01*
X148322500Y-66267189D01*
X148302815Y-66334228D01*
X148250011Y-66379983D01*
X148180853Y-66389927D01*
X148129609Y-66370291D01*
X148068002Y-66329126D01*
X148067989Y-66329119D01*
X147922318Y-66268781D01*
X147922306Y-66268778D01*
X147767662Y-66238017D01*
X147767659Y-66238017D01*
X147609975Y-66238017D01*
X147609972Y-66238017D01*
X147455327Y-66268778D01*
X147455315Y-66268781D01*
X147309644Y-66329119D01*
X147309632Y-66329126D01*
X147215358Y-66392119D01*
X147148681Y-66412997D01*
X147146467Y-66413017D01*
X145697206Y-66413017D01*
X145636788Y-66425035D01*
X145593560Y-66433633D01*
X145576363Y-66437054D01*
X145462533Y-66484204D01*
X145402669Y-66524205D01*
X145402668Y-66524206D01*
X145360082Y-66552660D01*
X145209228Y-66703514D01*
X145147905Y-66736998D01*
X145078213Y-66732014D01*
X145022280Y-66690142D01*
X145018459Y-66684744D01*
X144940606Y-66568228D01*
X144940604Y-66568225D01*
X144829109Y-66456730D01*
X144829105Y-66456727D01*
X144698002Y-66369126D01*
X144697989Y-66369119D01*
X144552318Y-66308781D01*
X144552306Y-66308778D01*
X144397662Y-66278017D01*
X144397659Y-66278017D01*
X144239975Y-66278017D01*
X144239972Y-66278017D01*
X144085327Y-66308778D01*
X144085315Y-66308781D01*
X143939644Y-66369119D01*
X143939631Y-66369126D01*
X143808528Y-66456727D01*
X143808524Y-66456730D01*
X143697030Y-66568224D01*
X143697027Y-66568228D01*
X143609426Y-66699331D01*
X143609419Y-66699344D01*
X143549081Y-66845015D01*
X143549078Y-66845027D01*
X143518317Y-66999670D01*
X143518317Y-67157363D01*
X143549078Y-67312006D01*
X143549081Y-67312018D01*
X143609419Y-67457689D01*
X143609426Y-67457702D01*
X143697027Y-67588805D01*
X143697030Y-67588809D01*
X143808524Y-67700303D01*
X143808528Y-67700306D01*
X143939631Y-67787907D01*
X143939638Y-67787911D01*
X144065771Y-67840156D01*
X144120172Y-67883995D01*
X144142238Y-67950289D01*
X144142317Y-67954716D01*
X144142317Y-74919993D01*
X144122632Y-74987032D01*
X144069828Y-75032787D01*
X144049631Y-75039309D01*
X144049710Y-75039569D01*
X144043873Y-75041339D01*
X143898202Y-75101677D01*
X143898189Y-75101684D01*
X143767086Y-75189285D01*
X143767082Y-75189288D01*
X143655588Y-75300782D01*
X143655585Y-75300786D01*
X143567984Y-75431889D01*
X143567977Y-75431902D01*
X143507639Y-75577573D01*
X143507636Y-75577585D01*
X143476875Y-75732228D01*
X143476875Y-75889921D01*
X143507636Y-76044564D01*
X143507639Y-76044576D01*
X143567977Y-76190247D01*
X143567984Y-76190260D01*
X143655585Y-76321363D01*
X143655588Y-76321367D01*
X143767082Y-76432861D01*
X143767086Y-76432864D01*
X143898189Y-76520465D01*
X143898202Y-76520472D01*
X144033201Y-76576390D01*
X144087605Y-76620231D01*
X144109670Y-76686525D01*
X144100312Y-76738399D01*
X144091230Y-76760326D01*
X144091227Y-76760337D01*
X144060466Y-76914980D01*
X144060466Y-77072673D01*
X144091227Y-77227316D01*
X144091230Y-77227328D01*
X144151568Y-77372999D01*
X144151575Y-77373012D01*
X144239176Y-77504115D01*
X144239179Y-77504119D01*
X144350673Y-77615613D01*
X144350677Y-77615616D01*
X144481780Y-77703217D01*
X144481793Y-77703224D01*
X144627464Y-77763562D01*
X144627469Y-77763564D01*
X144782119Y-77794326D01*
X144782122Y-77794327D01*
X144782124Y-77794327D01*
X144939810Y-77794327D01*
X144939811Y-77794326D01*
X145094463Y-77763564D01*
X145240145Y-77703221D01*
X145371255Y-77615616D01*
X145482755Y-77504116D01*
X145570360Y-77373006D01*
X145630703Y-77227324D01*
X145652824Y-77116109D01*
X145661588Y-77099354D01*
X145665608Y-77080876D01*
X145684347Y-77055843D01*
X145685206Y-77054202D01*
X145686701Y-77052680D01*
X145834654Y-76904727D01*
X145847256Y-76894388D01*
X145847136Y-76894242D01*
X145851847Y-76890376D01*
X145851848Y-76890375D01*
X145938973Y-76803250D01*
X145938973Y-76803248D01*
X145946034Y-76796188D01*
X145946040Y-76796181D01*
X146218546Y-76523675D01*
X146218550Y-76523673D01*
X146305675Y-76436548D01*
X146360177Y-76354980D01*
X146374129Y-76334100D01*
X146419696Y-76224090D01*
X146421280Y-76220267D01*
X146427251Y-76190247D01*
X146441287Y-76119685D01*
X146441287Y-76119682D01*
X146445317Y-76099422D01*
X146445317Y-75976208D01*
X146445317Y-75457613D01*
X146444914Y-75453521D01*
X146444317Y-75441368D01*
X146444317Y-69088970D01*
X146452962Y-69059527D01*
X146459486Y-69029541D01*
X146463239Y-69024526D01*
X146464002Y-69021931D01*
X146480637Y-69001287D01*
X146511591Y-68970334D01*
X146572915Y-68936850D01*
X146599271Y-68934017D01*
X146924717Y-68934017D01*
X146991756Y-68953702D01*
X147037511Y-69006506D01*
X147047455Y-69075664D01*
X147027819Y-69126908D01*
X146979426Y-69199331D01*
X146979419Y-69199344D01*
X146919081Y-69345015D01*
X146919078Y-69345027D01*
X146888317Y-69499670D01*
X146888317Y-69657363D01*
X146919078Y-69812006D01*
X146919081Y-69812018D01*
X146979419Y-69957689D01*
X146979426Y-69957702D01*
X147067027Y-70088805D01*
X147067030Y-70088809D01*
X147178524Y-70200303D01*
X147178528Y-70200306D01*
X147309631Y-70287907D01*
X147309644Y-70287914D01*
X147368429Y-70312263D01*
X147455320Y-70348254D01*
X147609970Y-70379016D01*
X147609973Y-70379017D01*
X147609975Y-70379017D01*
X147767661Y-70379017D01*
X147767662Y-70379016D01*
X147922314Y-70348254D01*
X148067996Y-70287911D01*
X148162276Y-70224915D01*
X148228953Y-70204037D01*
X148231167Y-70204017D01*
X148558090Y-70204017D01*
X148618512Y-70191998D01*
X148625319Y-70190644D01*
X148658635Y-70193628D01*
X148694891Y-70196869D01*
X148694900Y-70196876D01*
X148694910Y-70196877D01*
X148720734Y-70216941D01*
X148750072Y-70239728D01*
X148750075Y-70239738D01*
X148750084Y-70239745D01*
X148761320Y-70271605D01*
X148773322Y-70305616D01*
X148773500Y-70312263D01*
X148773500Y-71290546D01*
X148753815Y-71357585D01*
X148737182Y-71378227D01*
X148653712Y-71461698D01*
X148592389Y-71495183D01*
X148566030Y-71498017D01*
X148231167Y-71498017D01*
X148164128Y-71478332D01*
X148162276Y-71477119D01*
X148068001Y-71414126D01*
X148067989Y-71414119D01*
X147922318Y-71353781D01*
X147922306Y-71353778D01*
X147767662Y-71323017D01*
X147767659Y-71323017D01*
X147609975Y-71323017D01*
X147609972Y-71323017D01*
X147455327Y-71353778D01*
X147455315Y-71353781D01*
X147309644Y-71414119D01*
X147309631Y-71414126D01*
X147178528Y-71501727D01*
X147178524Y-71501730D01*
X147067030Y-71613224D01*
X147067027Y-71613228D01*
X146979426Y-71744331D01*
X146979419Y-71744344D01*
X146919081Y-71890015D01*
X146919078Y-71890027D01*
X146888317Y-72044670D01*
X146888317Y-72202363D01*
X146919078Y-72357006D01*
X146919081Y-72357018D01*
X146979419Y-72502689D01*
X146979426Y-72502702D01*
X147067027Y-72633805D01*
X147067030Y-72633809D01*
X147101557Y-72668336D01*
X147135042Y-72729659D01*
X147130058Y-72799351D01*
X147101557Y-72843698D01*
X147067030Y-72878224D01*
X147067027Y-72878228D01*
X146979426Y-73009331D01*
X146979419Y-73009344D01*
X146919081Y-73155015D01*
X146919078Y-73155027D01*
X146888317Y-73309670D01*
X146888317Y-73467363D01*
X146919078Y-73622006D01*
X146919081Y-73622018D01*
X146979419Y-73767689D01*
X146979426Y-73767702D01*
X147067027Y-73898805D01*
X147067030Y-73898809D01*
X147178524Y-74010303D01*
X147178528Y-74010306D01*
X147309631Y-74097907D01*
X147309644Y-74097914D01*
X147455315Y-74158252D01*
X147455320Y-74158254D01*
X147609970Y-74189016D01*
X147609973Y-74189017D01*
X147609975Y-74189017D01*
X147767661Y-74189017D01*
X147767662Y-74189016D01*
X147922314Y-74158254D01*
X148067996Y-74097911D01*
X148162276Y-74034915D01*
X148228953Y-74014037D01*
X148231167Y-74014017D01*
X149173090Y-74014017D01*
X149233512Y-74001998D01*
X149293935Y-73989980D01*
X149331024Y-73974617D01*
X149407769Y-73942829D01*
X149474209Y-73898434D01*
X149510216Y-73874375D01*
X149597341Y-73787250D01*
X149597341Y-73787248D01*
X149607549Y-73777041D01*
X149607550Y-73777038D01*
X150235857Y-73148734D01*
X150235858Y-73148732D01*
X150335857Y-73048734D01*
X150335857Y-73048732D01*
X150485857Y-72898734D01*
X150554311Y-72796286D01*
X150601463Y-72682452D01*
X150625500Y-72561607D01*
X150625500Y-72438394D01*
X150625500Y-61310452D01*
X150645185Y-61243413D01*
X150661819Y-61222771D01*
X151722772Y-60161819D01*
X151784095Y-60128334D01*
X151810453Y-60125500D01*
X153061607Y-60125500D01*
X153122029Y-60113481D01*
X153182452Y-60101463D01*
X153215792Y-60087652D01*
X153296286Y-60054312D01*
X153347509Y-60020084D01*
X153398733Y-59985858D01*
X153485858Y-59898733D01*
X153485859Y-59898731D01*
X153492925Y-59891665D01*
X153492928Y-59891661D01*
X153898729Y-59485860D01*
X153898733Y-59485858D01*
X153985858Y-59398733D01*
X154037256Y-59321809D01*
X154054312Y-59296285D01*
X154101463Y-59182451D01*
X154125500Y-59061607D01*
X154125500Y-58938393D01*
X154125500Y-58872781D01*
X155614500Y-58872781D01*
X155614500Y-59047218D01*
X155648527Y-59218283D01*
X155648529Y-59218291D01*
X155715278Y-59379439D01*
X155715283Y-59379448D01*
X155812186Y-59524473D01*
X155812189Y-59524477D01*
X155935522Y-59647810D01*
X155935526Y-59647813D01*
X156080551Y-59744716D01*
X156080557Y-59744719D01*
X156080558Y-59744720D01*
X156241709Y-59811471D01*
X156412781Y-59845499D01*
X156412785Y-59845500D01*
X156412786Y-59845500D01*
X156587215Y-59845500D01*
X156587216Y-59845499D01*
X156758291Y-59811471D01*
X156919442Y-59744720D01*
X157064474Y-59647813D01*
X157187813Y-59524474D01*
X157284720Y-59379442D01*
X157351471Y-59218291D01*
X157385500Y-59047214D01*
X157385500Y-58872786D01*
X157351471Y-58701709D01*
X157284720Y-58540558D01*
X157284719Y-58540557D01*
X157284716Y-58540551D01*
X157187813Y-58395526D01*
X157187810Y-58395522D01*
X157064477Y-58272189D01*
X157064473Y-58272186D01*
X156919448Y-58175283D01*
X156919439Y-58175278D01*
X156758291Y-58108529D01*
X156758283Y-58108527D01*
X156587218Y-58074500D01*
X156587214Y-58074500D01*
X156412786Y-58074500D01*
X156412781Y-58074500D01*
X156241716Y-58108527D01*
X156241708Y-58108529D01*
X156080560Y-58175278D01*
X156080551Y-58175283D01*
X155935526Y-58272186D01*
X155935522Y-58272189D01*
X155812189Y-58395522D01*
X155812186Y-58395526D01*
X155715283Y-58540551D01*
X155715278Y-58540560D01*
X155648529Y-58701708D01*
X155648527Y-58701716D01*
X155614500Y-58872781D01*
X154125500Y-58872781D01*
X154125500Y-58598585D01*
X154145185Y-58531546D01*
X154197989Y-58485791D01*
X154210489Y-58480881D01*
X154319334Y-58444814D01*
X154468655Y-58352711D01*
X154592711Y-58228655D01*
X154684814Y-58079334D01*
X154739999Y-57912797D01*
X154743481Y-57878711D01*
X164649500Y-57878711D01*
X164649500Y-58121288D01*
X164681161Y-58361785D01*
X164743947Y-58596104D01*
X164836773Y-58820205D01*
X164836777Y-58820214D01*
X164858974Y-58858661D01*
X164958064Y-59030289D01*
X164958066Y-59030292D01*
X164958067Y-59030293D01*
X165105733Y-59222736D01*
X165105739Y-59222743D01*
X165277256Y-59394260D01*
X165277262Y-59394265D01*
X165469711Y-59541936D01*
X165679788Y-59663224D01*
X165903900Y-59756054D01*
X166138211Y-59818838D01*
X166318586Y-59842584D01*
X166378711Y-59850500D01*
X166378712Y-59850500D01*
X166621289Y-59850500D01*
X166669388Y-59844167D01*
X166861789Y-59818838D01*
X167096100Y-59756054D01*
X167320212Y-59663224D01*
X167530289Y-59541936D01*
X167722738Y-59394265D01*
X167894265Y-59222738D01*
X168041936Y-59030289D01*
X168163224Y-58820212D01*
X168256054Y-58596100D01*
X168318838Y-58361789D01*
X168350500Y-58121288D01*
X168350500Y-57878712D01*
X168348306Y-57862050D01*
X168318838Y-57638214D01*
X168318838Y-57638211D01*
X168256054Y-57403900D01*
X168163224Y-57179788D01*
X168041936Y-56969711D01*
X167894265Y-56777262D01*
X167894260Y-56777256D01*
X167722743Y-56605739D01*
X167722736Y-56605733D01*
X167530293Y-56458067D01*
X167530292Y-56458066D01*
X167530289Y-56458064D01*
X167320212Y-56336776D01*
X167320205Y-56336773D01*
X167096104Y-56243947D01*
X166861785Y-56181161D01*
X166621289Y-56149500D01*
X166621288Y-56149500D01*
X166378712Y-56149500D01*
X166378711Y-56149500D01*
X166138214Y-56181161D01*
X165903895Y-56243947D01*
X165679794Y-56336773D01*
X165679785Y-56336777D01*
X165469706Y-56458067D01*
X165277263Y-56605733D01*
X165277256Y-56605739D01*
X165105739Y-56777256D01*
X165105733Y-56777263D01*
X164958067Y-56969706D01*
X164836777Y-57179785D01*
X164836773Y-57179794D01*
X164743947Y-57403895D01*
X164681161Y-57638214D01*
X164649500Y-57878711D01*
X154743481Y-57878711D01*
X154750500Y-57810008D01*
X154750500Y-56189992D01*
X154739999Y-56087203D01*
X154684814Y-55920666D01*
X154601856Y-55786172D01*
X154592713Y-55771348D01*
X154592710Y-55771344D01*
X154468655Y-55647289D01*
X154468651Y-55647286D01*
X154319337Y-55555187D01*
X154319335Y-55555186D01*
X154214025Y-55520290D01*
X154152797Y-55500001D01*
X154152795Y-55500000D01*
X154050015Y-55489500D01*
X154050008Y-55489500D01*
X152949992Y-55489500D01*
X152949984Y-55489500D01*
X152847204Y-55500000D01*
X152847203Y-55500001D01*
X152680664Y-55555186D01*
X152680662Y-55555187D01*
X152531348Y-55647286D01*
X152531344Y-55647289D01*
X152407289Y-55771344D01*
X152407286Y-55771348D01*
X152315187Y-55920662D01*
X152315186Y-55920664D01*
X152260001Y-56087203D01*
X152260000Y-56087204D01*
X152249500Y-56189984D01*
X152249500Y-57810015D01*
X152256519Y-57878712D01*
X152260001Y-57912797D01*
X152296864Y-58024044D01*
X152298537Y-58032451D01*
X152304101Y-58045885D01*
X152305519Y-58050164D01*
X152315184Y-58079331D01*
X152315187Y-58079336D01*
X152318401Y-58084547D01*
X152327421Y-58102186D01*
X152330048Y-58108527D01*
X152345688Y-58146286D01*
X152345690Y-58146290D01*
X152400724Y-58228651D01*
X152414143Y-58248733D01*
X152501267Y-58335857D01*
X152603714Y-58404312D01*
X152603717Y-58404313D01*
X152603724Y-58404317D01*
X152628465Y-58414564D01*
X152628561Y-58414603D01*
X152638080Y-58418546D01*
X152680666Y-58444814D01*
X152793574Y-58482228D01*
X152797522Y-58483846D01*
X152821600Y-58503100D01*
X152846949Y-58520651D01*
X152848643Y-58524726D01*
X152852089Y-58527482D01*
X152861932Y-58556690D01*
X152873772Y-58585167D01*
X152874202Y-58593097D01*
X152874403Y-58593693D01*
X152874264Y-58594244D01*
X152874500Y-58598585D01*
X152874500Y-58689548D01*
X152854815Y-58756587D01*
X152838181Y-58777229D01*
X152777229Y-58838181D01*
X152715906Y-58871666D01*
X152689548Y-58874500D01*
X151438389Y-58874500D01*
X151381773Y-58885761D01*
X151381761Y-58885764D01*
X151377971Y-58886518D01*
X151317548Y-58898537D01*
X151289277Y-58910247D01*
X151281232Y-58912377D01*
X151254280Y-58911654D01*
X151227480Y-58914535D01*
X151219882Y-58910731D01*
X151211388Y-58910504D01*
X151189106Y-58895325D01*
X151165001Y-58883258D01*
X151160665Y-58875950D01*
X151153644Y-58871167D01*
X151143106Y-58846353D01*
X151129351Y-58823168D01*
X151127709Y-58810096D01*
X151126333Y-58806856D01*
X151126892Y-58803590D01*
X151125500Y-58792506D01*
X151125500Y-58414432D01*
X151145185Y-58347393D01*
X151176611Y-58314116D01*
X151314646Y-58213828D01*
X151453828Y-58074646D01*
X151569524Y-57915405D01*
X151658884Y-57740025D01*
X151719709Y-57552826D01*
X151750500Y-57358422D01*
X151750500Y-56641577D01*
X151719709Y-56447173D01*
X151658882Y-56259970D01*
X151611743Y-56167455D01*
X151569524Y-56084595D01*
X151453828Y-55925354D01*
X151314646Y-55786172D01*
X151155405Y-55670476D01*
X151109892Y-55647286D01*
X150980029Y-55581117D01*
X150792826Y-55520290D01*
X150598422Y-55489500D01*
X150598417Y-55489500D01*
X150401583Y-55489500D01*
X150401578Y-55489500D01*
X150207173Y-55520290D01*
X150019970Y-55581117D01*
X149844594Y-55670476D01*
X149753741Y-55736485D01*
X149685354Y-55786172D01*
X149685352Y-55786174D01*
X149685351Y-55786174D01*
X149546174Y-55925351D01*
X149546174Y-55925352D01*
X149546172Y-55925354D01*
X149496485Y-55993741D01*
X149430476Y-56084594D01*
X149341117Y-56259970D01*
X149280290Y-56447173D01*
X149249500Y-56641577D01*
X149249500Y-57358422D01*
X149280290Y-57552826D01*
X149341117Y-57740029D01*
X149411780Y-57878712D01*
X149430476Y-57915405D01*
X149546172Y-58074646D01*
X149685354Y-58213828D01*
X149823387Y-58314115D01*
X149866051Y-58369444D01*
X149874500Y-58414432D01*
X149874500Y-58689547D01*
X149854815Y-58756586D01*
X149838181Y-58777228D01*
X149087680Y-59527728D01*
X149026357Y-59561213D01*
X148956665Y-59556229D01*
X148912318Y-59527728D01*
X148161819Y-58777229D01*
X148128334Y-58715906D01*
X148125500Y-58689548D01*
X148125500Y-58414432D01*
X148145185Y-58347393D01*
X148176611Y-58314116D01*
X148314646Y-58213828D01*
X148453828Y-58074646D01*
X148569524Y-57915405D01*
X148658884Y-57740025D01*
X148719709Y-57552826D01*
X148750500Y-57358422D01*
X148750500Y-56641577D01*
X148719709Y-56447173D01*
X148658882Y-56259970D01*
X148611743Y-56167455D01*
X148569524Y-56084595D01*
X148453828Y-55925354D01*
X148314646Y-55786172D01*
X148155405Y-55670476D01*
X148109892Y-55647286D01*
X147980029Y-55581117D01*
X147792826Y-55520290D01*
X147598422Y-55489500D01*
X147598417Y-55489500D01*
X147401583Y-55489500D01*
X147401578Y-55489500D01*
X147207173Y-55520290D01*
X147019970Y-55581117D01*
X146844594Y-55670476D01*
X146753741Y-55736485D01*
X146685354Y-55786172D01*
X146685352Y-55786174D01*
X146685351Y-55786174D01*
X146546174Y-55925351D01*
X146546174Y-55925352D01*
X146546172Y-55925354D01*
X146496485Y-55993741D01*
X146430476Y-56084594D01*
X146341117Y-56259970D01*
X146280290Y-56447173D01*
X146249500Y-56641577D01*
X146249500Y-57358422D01*
X146280290Y-57552826D01*
X146341117Y-57740029D01*
X146411780Y-57878712D01*
X146430476Y-57915405D01*
X146546172Y-58074646D01*
X146685354Y-58213828D01*
X146823387Y-58314115D01*
X146866051Y-58369444D01*
X146874500Y-58414432D01*
X146874500Y-59061611D01*
X146898535Y-59182444D01*
X146898540Y-59182461D01*
X146945685Y-59296280D01*
X146945687Y-59296283D01*
X146945688Y-59296286D01*
X146979915Y-59347509D01*
X147014142Y-59398733D01*
X147101267Y-59485858D01*
X147101270Y-59485860D01*
X147108554Y-59493144D01*
X148286181Y-60670771D01*
X148319666Y-60732094D01*
X148322500Y-60758452D01*
X148322500Y-62720414D01*
X148302815Y-62787453D01*
X148250011Y-62833208D01*
X148180853Y-62843152D01*
X148151049Y-62834976D01*
X148138078Y-62829603D01*
X148097083Y-62812623D01*
X148097079Y-62812622D01*
X148097075Y-62812620D01*
X147923111Y-62778017D01*
X147923108Y-62778017D01*
X147745726Y-62778017D01*
X147745723Y-62778017D01*
X147571758Y-62812620D01*
X147571749Y-62812623D01*
X147407869Y-62880504D01*
X147407864Y-62880506D01*
X147368039Y-62907118D01*
X147301362Y-62927997D01*
X147299147Y-62928017D01*
X140647559Y-62928017D01*
X140618725Y-62933751D01*
X140618726Y-62933752D01*
X140502576Y-62956856D01*
X140502566Y-62956859D01*
X140422564Y-62989996D01*
X140422565Y-62989997D01*
X140422563Y-62989998D01*
X140365988Y-63013433D01*
X140299675Y-63057742D01*
X140243065Y-63095566D01*
X138040737Y-65297894D01*
X137979414Y-65331379D01*
X137909722Y-65326395D01*
X137853789Y-65284523D01*
X137829372Y-65219059D01*
X137831439Y-65186022D01*
X137864316Y-65020734D01*
X137864317Y-65020732D01*
X137864317Y-64846302D01*
X137864316Y-64846298D01*
X137830289Y-64675233D01*
X137830288Y-64675226D01*
X137763537Y-64514075D01*
X137763536Y-64514074D01*
X137763533Y-64514068D01*
X137666630Y-64369043D01*
X137666627Y-64369039D01*
X137543294Y-64245706D01*
X137543290Y-64245703D01*
X137398265Y-64148800D01*
X137398256Y-64148795D01*
X137237108Y-64082046D01*
X137237100Y-64082044D01*
X137066035Y-64048017D01*
X137066031Y-64048017D01*
X136891603Y-64048017D01*
X136891598Y-64048017D01*
X136720533Y-64082044D01*
X136720525Y-64082046D01*
X136559377Y-64148795D01*
X136559368Y-64148800D01*
X136414343Y-64245703D01*
X136414339Y-64245706D01*
X136291006Y-64369039D01*
X136291003Y-64369043D01*
X136194100Y-64514068D01*
X136194095Y-64514077D01*
X136127346Y-64675225D01*
X136127344Y-64675233D01*
X136093317Y-64846298D01*
X136093317Y-65020735D01*
X136127344Y-65191800D01*
X136127346Y-65191808D01*
X136194095Y-65352956D01*
X136194100Y-65352965D01*
X136291003Y-65497990D01*
X136291006Y-65497994D01*
X136414339Y-65621327D01*
X136414343Y-65621330D01*
X136559368Y-65718233D01*
X136559374Y-65718236D01*
X136559375Y-65718237D01*
X136720526Y-65784988D01*
X136891598Y-65819016D01*
X136891602Y-65819017D01*
X136891603Y-65819017D01*
X137066032Y-65819017D01*
X137066032Y-65819016D01*
X137231321Y-65786139D01*
X137300912Y-65792366D01*
X137356090Y-65835229D01*
X137379334Y-65901119D01*
X137363266Y-65969116D01*
X137343193Y-65995437D01*
X136495867Y-66842763D01*
X136495861Y-66842771D01*
X136446629Y-66916451D01*
X136446630Y-66916452D01*
X136413738Y-66965679D01*
X136413731Y-66965691D01*
X136357159Y-67102269D01*
X136357157Y-67102275D01*
X136328317Y-67247262D01*
X136328317Y-72269617D01*
X136308632Y-72336656D01*
X136255828Y-72382411D01*
X136204317Y-72393617D01*
X126014087Y-72393617D01*
X125947048Y-72373932D01*
X125945195Y-72372718D01*
X125905369Y-72346106D01*
X125905364Y-72346104D01*
X125741484Y-72278223D01*
X125741475Y-72278220D01*
X125567511Y-72243617D01*
X125567508Y-72243617D01*
X125390126Y-72243617D01*
X125390123Y-72243617D01*
X125216158Y-72278220D01*
X125216149Y-72278223D01*
X125052276Y-72346100D01*
X125052263Y-72346107D01*
X124904782Y-72444652D01*
X124904778Y-72444655D01*
X124779355Y-72570078D01*
X124779352Y-72570082D01*
X124680807Y-72717563D01*
X124680800Y-72717576D01*
X124612923Y-72881449D01*
X124612920Y-72881458D01*
X124578317Y-73055421D01*
X124578317Y-73232812D01*
X124612920Y-73406775D01*
X124612923Y-73406784D01*
X124680801Y-73570659D01*
X124680802Y-73570661D01*
X124703602Y-73604783D01*
X124724480Y-73671461D01*
X124724500Y-73673674D01*
X124724500Y-81274448D01*
X124704815Y-81341487D01*
X124652011Y-81387242D01*
X124600500Y-81398448D01*
X118886227Y-81398448D01*
X118835157Y-81385655D01*
X118834676Y-81386818D01*
X118665167Y-81316606D01*
X118665158Y-81316603D01*
X118491194Y-81282000D01*
X118491191Y-81282000D01*
X118313809Y-81282000D01*
X118313806Y-81282000D01*
X118139841Y-81316603D01*
X118139832Y-81316606D01*
X117975952Y-81384487D01*
X117975947Y-81384489D01*
X117936122Y-81411101D01*
X117869445Y-81431980D01*
X117867230Y-81432000D01*
X116544730Y-81432000D01*
X116477691Y-81412315D01*
X116457049Y-81395681D01*
X116211819Y-81150451D01*
X116178334Y-81089128D01*
X116175500Y-81062770D01*
X116175500Y-76826079D01*
X116146659Y-76681092D01*
X116146658Y-76681091D01*
X116146658Y-76681087D01*
X116119138Y-76614648D01*
X116090087Y-76544511D01*
X116090080Y-76544498D01*
X116007952Y-76421585D01*
X116007951Y-76421584D01*
X115903416Y-76317049D01*
X115776614Y-76190247D01*
X115233421Y-75647052D01*
X115233420Y-75647051D01*
X115149718Y-75591124D01*
X115149717Y-75591123D01*
X115110500Y-75564919D01*
X115110488Y-75564912D01*
X114973917Y-75508343D01*
X114973907Y-75508340D01*
X114828920Y-75479500D01*
X114828918Y-75479500D01*
X113300270Y-75479500D01*
X113233231Y-75459815D01*
X113231378Y-75458601D01*
X113191552Y-75431989D01*
X113191547Y-75431987D01*
X113027667Y-75364106D01*
X113027658Y-75364103D01*
X112853694Y-75329500D01*
X112853691Y-75329500D01*
X112676309Y-75329500D01*
X112676306Y-75329500D01*
X112502341Y-75364103D01*
X112502332Y-75364106D01*
X112338459Y-75431983D01*
X112338446Y-75431990D01*
X112190965Y-75530535D01*
X112190961Y-75530538D01*
X112065538Y-75655961D01*
X112065535Y-75655965D01*
X111966990Y-75803446D01*
X111966983Y-75803459D01*
X111899106Y-75967332D01*
X111899103Y-75967341D01*
X111864500Y-76141304D01*
X111864500Y-76318695D01*
X111899103Y-76492658D01*
X111899106Y-76492667D01*
X111966983Y-76656540D01*
X111966990Y-76656553D01*
X112065535Y-76804034D01*
X112065538Y-76804038D01*
X112190961Y-76929461D01*
X112190965Y-76929464D01*
X112338446Y-77028009D01*
X112338459Y-77028016D01*
X112405641Y-77055843D01*
X112502334Y-77095894D01*
X112502336Y-77095894D01*
X112502341Y-77095896D01*
X112676304Y-77130499D01*
X112676307Y-77130500D01*
X112676309Y-77130500D01*
X112853693Y-77130500D01*
X112853694Y-77130499D01*
X112926014Y-77116114D01*
X113027658Y-77095896D01*
X113027661Y-77095894D01*
X113027666Y-77095894D01*
X113191547Y-77028013D01*
X113191550Y-77028010D01*
X113191552Y-77028010D01*
X113231378Y-77001399D01*
X113298055Y-76980520D01*
X113300270Y-76980500D01*
X114392770Y-76980500D01*
X114422210Y-76989144D01*
X114452197Y-76995668D01*
X114457212Y-76999422D01*
X114459809Y-77000185D01*
X114480446Y-77016814D01*
X114638182Y-77174549D01*
X114671666Y-77235871D01*
X114674500Y-77262229D01*
X114674500Y-81498918D01*
X114674500Y-81498920D01*
X114674499Y-81498920D01*
X114703340Y-81643907D01*
X114703343Y-81643917D01*
X114759912Y-81780488D01*
X114759920Y-81780503D01*
X114790991Y-81827002D01*
X114790992Y-81827005D01*
X114790993Y-81827005D01*
X114842049Y-81903417D01*
X115704086Y-82765454D01*
X115727554Y-82781134D01*
X115776791Y-82814032D01*
X115827005Y-82847584D01*
X115827007Y-82847585D01*
X115827011Y-82847587D01*
X115936055Y-82892754D01*
X115963587Y-82904158D01*
X115963591Y-82904158D01*
X115963592Y-82904159D01*
X116108579Y-82933000D01*
X116108582Y-82933000D01*
X116108583Y-82933000D01*
X116256418Y-82933000D01*
X117528000Y-82933000D01*
X117595039Y-82952685D01*
X117640794Y-83005489D01*
X117652000Y-83057000D01*
X117652000Y-100835270D01*
X117632315Y-100902309D01*
X117615681Y-100922951D01*
X117125451Y-101413181D01*
X117064128Y-101446666D01*
X117037770Y-101449500D01*
X114126080Y-101449500D01*
X113981092Y-101478340D01*
X113981082Y-101478343D01*
X113844511Y-101534912D01*
X113844498Y-101534919D01*
X113721584Y-101617048D01*
X113721580Y-101617051D01*
X112417052Y-102921578D01*
X112417049Y-102921581D01*
X112379927Y-102977138D01*
X112379928Y-102977139D01*
X112334914Y-103044508D01*
X112278343Y-103181082D01*
X112278340Y-103181092D01*
X112249500Y-103326079D01*
X112249500Y-106133023D01*
X112229815Y-106200062D01*
X112177011Y-106245817D01*
X112149865Y-106253266D01*
X112150068Y-106254124D01*
X112142520Y-106255907D01*
X112007671Y-106306202D01*
X112007664Y-106306206D01*
X111892455Y-106392452D01*
X111892452Y-106392455D01*
X111806206Y-106507664D01*
X111806202Y-106507671D01*
X111755908Y-106642517D01*
X111751142Y-106686853D01*
X111749501Y-106702123D01*
X111749500Y-106702135D01*
X111500000Y-106702135D01*
X111500000Y-64846298D01*
X115093317Y-64846298D01*
X115093317Y-65020735D01*
X115127344Y-65191800D01*
X115127346Y-65191808D01*
X115194095Y-65352956D01*
X115194100Y-65352965D01*
X115291003Y-65497990D01*
X115291006Y-65497994D01*
X115414339Y-65621327D01*
X115414343Y-65621330D01*
X115559368Y-65718233D01*
X115559374Y-65718236D01*
X115559375Y-65718237D01*
X115720526Y-65784988D01*
X115891598Y-65819016D01*
X115891602Y-65819017D01*
X115891603Y-65819017D01*
X116066032Y-65819017D01*
X116066033Y-65819016D01*
X116237108Y-65784988D01*
X116398259Y-65718237D01*
X116543291Y-65621330D01*
X116666630Y-65497991D01*
X116763537Y-65352959D01*
X116830288Y-65191808D01*
X116864317Y-65020731D01*
X116864317Y-64846303D01*
X116830288Y-64675226D01*
X116763537Y-64514075D01*
X116763536Y-64514074D01*
X116763533Y-64514068D01*
X116666630Y-64369043D01*
X116666627Y-64369039D01*
X116543294Y-64245706D01*
X116543290Y-64245703D01*
X116398265Y-64148800D01*
X116398256Y-64148795D01*
X116237108Y-64082046D01*
X116237100Y-64082044D01*
X116066035Y-64048017D01*
X116066031Y-64048017D01*
X115891603Y-64048017D01*
X115891598Y-64048017D01*
X115720533Y-64082044D01*
X115720525Y-64082046D01*
X115559377Y-64148795D01*
X115559368Y-64148800D01*
X115414343Y-64245703D01*
X115414339Y-64245706D01*
X115291006Y-64369039D01*
X115291003Y-64369043D01*
X115194100Y-64514068D01*
X115194095Y-64514077D01*
X115127346Y-64675225D01*
X115127344Y-64675233D01*
X115093317Y-64846298D01*
X111500000Y-64846298D01*
X111500000Y-62615094D01*
X117728317Y-62615094D01*
X117728317Y-63331939D01*
X117759107Y-63526343D01*
X117819934Y-63713546D01*
X117855594Y-63783532D01*
X117909293Y-63888922D01*
X118024989Y-64048163D01*
X118164171Y-64187345D01*
X118323412Y-64303041D01*
X118406272Y-64345260D01*
X118498787Y-64392399D01*
X118498789Y-64392399D01*
X118498792Y-64392401D01*
X118578590Y-64418329D01*
X118685990Y-64453226D01*
X118880395Y-64484017D01*
X118880400Y-64484017D01*
X119077239Y-64484017D01*
X119271643Y-64453226D01*
X119285566Y-64448702D01*
X119458842Y-64392401D01*
X119634222Y-64303041D01*
X119793463Y-64187345D01*
X119932645Y-64048163D01*
X120048341Y-63888922D01*
X120137701Y-63713542D01*
X120198526Y-63526343D01*
X120229317Y-63331939D01*
X120229317Y-62615094D01*
X120728317Y-62615094D01*
X120728317Y-63331939D01*
X120759107Y-63526343D01*
X120819934Y-63713546D01*
X120855594Y-63783532D01*
X120909293Y-63888922D01*
X121024989Y-64048163D01*
X121164171Y-64187345D01*
X121323412Y-64303041D01*
X121406272Y-64345260D01*
X121498787Y-64392399D01*
X121498789Y-64392399D01*
X121498792Y-64392401D01*
X121578590Y-64418329D01*
X121685990Y-64453226D01*
X121880395Y-64484017D01*
X121880400Y-64484017D01*
X122077239Y-64484017D01*
X122271643Y-64453226D01*
X122285566Y-64448702D01*
X122458842Y-64392401D01*
X122634222Y-64303041D01*
X122793463Y-64187345D01*
X122932645Y-64048163D01*
X123048341Y-63888922D01*
X123137701Y-63713542D01*
X123198526Y-63526343D01*
X123229317Y-63331939D01*
X123229317Y-62615094D01*
X123728317Y-62615094D01*
X123728317Y-63331939D01*
X123759107Y-63526343D01*
X123819934Y-63713546D01*
X123855594Y-63783532D01*
X123909293Y-63888922D01*
X124024989Y-64048163D01*
X124164171Y-64187345D01*
X124323412Y-64303041D01*
X124406272Y-64345260D01*
X124498787Y-64392399D01*
X124498789Y-64392399D01*
X124498792Y-64392401D01*
X124578590Y-64418329D01*
X124685990Y-64453226D01*
X124880395Y-64484017D01*
X124880400Y-64484017D01*
X125077239Y-64484017D01*
X125271643Y-64453226D01*
X125285566Y-64448702D01*
X125458842Y-64392401D01*
X125634222Y-64303041D01*
X125793463Y-64187345D01*
X125932645Y-64048163D01*
X126048341Y-63888922D01*
X126137701Y-63713542D01*
X126198526Y-63526343D01*
X126229317Y-63331939D01*
X126229317Y-62615094D01*
X126728317Y-62615094D01*
X126728317Y-63331939D01*
X126759107Y-63526343D01*
X126819934Y-63713546D01*
X126855594Y-63783532D01*
X126909293Y-63888922D01*
X127024989Y-64048163D01*
X127164171Y-64187345D01*
X127323412Y-64303041D01*
X127406272Y-64345260D01*
X127498787Y-64392399D01*
X127498789Y-64392399D01*
X127498792Y-64392401D01*
X127578590Y-64418329D01*
X127685990Y-64453226D01*
X127880395Y-64484017D01*
X127880400Y-64484017D01*
X128077239Y-64484017D01*
X128271643Y-64453226D01*
X128285566Y-64448702D01*
X128458842Y-64392401D01*
X128634222Y-64303041D01*
X128793463Y-64187345D01*
X128932645Y-64048163D01*
X129048341Y-63888922D01*
X129137701Y-63713542D01*
X129198526Y-63526343D01*
X129229317Y-63331939D01*
X129229317Y-62615094D01*
X129728317Y-62615094D01*
X129728317Y-63331939D01*
X129759107Y-63526343D01*
X129819934Y-63713546D01*
X129855594Y-63783532D01*
X129909293Y-63888922D01*
X130024989Y-64048163D01*
X130164171Y-64187345D01*
X130323412Y-64303041D01*
X130406272Y-64345260D01*
X130498787Y-64392399D01*
X130498789Y-64392399D01*
X130498792Y-64392401D01*
X130578590Y-64418329D01*
X130685990Y-64453226D01*
X130880395Y-64484017D01*
X130880400Y-64484017D01*
X131077239Y-64484017D01*
X131271643Y-64453226D01*
X131285566Y-64448702D01*
X131458842Y-64392401D01*
X131634222Y-64303041D01*
X131793463Y-64187345D01*
X131932645Y-64048163D01*
X132048341Y-63888922D01*
X132137701Y-63713542D01*
X132198526Y-63526343D01*
X132229317Y-63331939D01*
X132229317Y-62615094D01*
X132198526Y-62420690D01*
X132179711Y-62362785D01*
X132137701Y-62233492D01*
X132137698Y-62233488D01*
X132137698Y-62233485D01*
X132129119Y-62216648D01*
X132129118Y-62216647D01*
X132102039Y-62163501D01*
X132728317Y-62163501D01*
X132728317Y-63783532D01*
X132738817Y-63886312D01*
X132738818Y-63886314D01*
X132766410Y-63969582D01*
X132794003Y-64052852D01*
X132794004Y-64052854D01*
X132886103Y-64202168D01*
X132886106Y-64202172D01*
X133010161Y-64326227D01*
X133010165Y-64326230D01*
X133159479Y-64418329D01*
X133159481Y-64418330D01*
X133159483Y-64418331D01*
X133326020Y-64473516D01*
X133428809Y-64484017D01*
X133428814Y-64484017D01*
X134528820Y-64484017D01*
X134528825Y-64484017D01*
X134631614Y-64473516D01*
X134798151Y-64418331D01*
X134947472Y-64326228D01*
X135071528Y-64202172D01*
X135163631Y-64052851D01*
X135218816Y-63886314D01*
X135229317Y-63783525D01*
X135229317Y-62163509D01*
X135218816Y-62060720D01*
X135163631Y-61894183D01*
X135080673Y-61759689D01*
X135071530Y-61744865D01*
X135071527Y-61744861D01*
X134947472Y-61620806D01*
X134947468Y-61620803D01*
X134798154Y-61528704D01*
X134798152Y-61528703D01*
X134692842Y-61493807D01*
X134631614Y-61473518D01*
X134631612Y-61473517D01*
X134528832Y-61463017D01*
X134528825Y-61463017D01*
X133428809Y-61463017D01*
X133428801Y-61463017D01*
X133326021Y-61473517D01*
X133326020Y-61473518D01*
X133159481Y-61528703D01*
X133159479Y-61528704D01*
X133010165Y-61620803D01*
X133010161Y-61620806D01*
X132886106Y-61744861D01*
X132886103Y-61744865D01*
X132794004Y-61894179D01*
X132794003Y-61894181D01*
X132738818Y-62060720D01*
X132738817Y-62060721D01*
X132728317Y-62163501D01*
X132102039Y-62163501D01*
X132048341Y-62058112D01*
X131932645Y-61898871D01*
X131793463Y-61759689D01*
X131634222Y-61643993D01*
X131588709Y-61620803D01*
X131458846Y-61554634D01*
X131271643Y-61493807D01*
X131077239Y-61463017D01*
X131077234Y-61463017D01*
X130880400Y-61463017D01*
X130880395Y-61463017D01*
X130685990Y-61493807D01*
X130498787Y-61554634D01*
X130323411Y-61643993D01*
X130232558Y-61710002D01*
X130164171Y-61759689D01*
X130164169Y-61759691D01*
X130164168Y-61759691D01*
X130024991Y-61898868D01*
X130024991Y-61898869D01*
X130024989Y-61898871D01*
X129975302Y-61967258D01*
X129909293Y-62058111D01*
X129819934Y-62233487D01*
X129759107Y-62420690D01*
X129728317Y-62615094D01*
X129229317Y-62615094D01*
X129198526Y-62420690D01*
X129137699Y-62233487D01*
X129049670Y-62060721D01*
X129048341Y-62058112D01*
X128932645Y-61898871D01*
X128793463Y-61759689D01*
X128634222Y-61643993D01*
X128588709Y-61620803D01*
X128458846Y-61554634D01*
X128271643Y-61493807D01*
X128077239Y-61463017D01*
X128077234Y-61463017D01*
X127880400Y-61463017D01*
X127880395Y-61463017D01*
X127685990Y-61493807D01*
X127498787Y-61554634D01*
X127323411Y-61643993D01*
X127232558Y-61710002D01*
X127164171Y-61759689D01*
X127164169Y-61759691D01*
X127164168Y-61759691D01*
X127024991Y-61898868D01*
X127024991Y-61898869D01*
X127024989Y-61898871D01*
X126975302Y-61967258D01*
X126909293Y-62058111D01*
X126819934Y-62233487D01*
X126759107Y-62420690D01*
X126728317Y-62615094D01*
X126229317Y-62615094D01*
X126198526Y-62420690D01*
X126137699Y-62233487D01*
X126049670Y-62060721D01*
X126048341Y-62058112D01*
X125932645Y-61898871D01*
X125793463Y-61759689D01*
X125634222Y-61643993D01*
X125588709Y-61620803D01*
X125458846Y-61554634D01*
X125271643Y-61493807D01*
X125077239Y-61463017D01*
X125077234Y-61463017D01*
X124880400Y-61463017D01*
X124880395Y-61463017D01*
X124685990Y-61493807D01*
X124498787Y-61554634D01*
X124323411Y-61643993D01*
X124232558Y-61710002D01*
X124164171Y-61759689D01*
X124164169Y-61759691D01*
X124164168Y-61759691D01*
X124024991Y-61898868D01*
X124024991Y-61898869D01*
X124024989Y-61898871D01*
X123975302Y-61967258D01*
X123909293Y-62058111D01*
X123819934Y-62233487D01*
X123759107Y-62420690D01*
X123728317Y-62615094D01*
X123229317Y-62615094D01*
X123198526Y-62420690D01*
X123137699Y-62233487D01*
X123049670Y-62060721D01*
X123048341Y-62058112D01*
X122932645Y-61898871D01*
X122793463Y-61759689D01*
X122634222Y-61643993D01*
X122588709Y-61620803D01*
X122458846Y-61554634D01*
X122271643Y-61493807D01*
X122077239Y-61463017D01*
X122077234Y-61463017D01*
X121880400Y-61463017D01*
X121880395Y-61463017D01*
X121685990Y-61493807D01*
X121498787Y-61554634D01*
X121323411Y-61643993D01*
X121232558Y-61710002D01*
X121164171Y-61759689D01*
X121164169Y-61759691D01*
X121164168Y-61759691D01*
X121024991Y-61898868D01*
X121024991Y-61898869D01*
X121024989Y-61898871D01*
X120975302Y-61967258D01*
X120909293Y-62058111D01*
X120819934Y-62233487D01*
X120759107Y-62420690D01*
X120728317Y-62615094D01*
X120229317Y-62615094D01*
X120198526Y-62420690D01*
X120137699Y-62233487D01*
X120049670Y-62060721D01*
X120048341Y-62058112D01*
X119932645Y-61898871D01*
X119793463Y-61759689D01*
X119634222Y-61643993D01*
X119588709Y-61620803D01*
X119458846Y-61554634D01*
X119271643Y-61493807D01*
X119077239Y-61463017D01*
X119077234Y-61463017D01*
X118880400Y-61463017D01*
X118880395Y-61463017D01*
X118685990Y-61493807D01*
X118498787Y-61554634D01*
X118323411Y-61643993D01*
X118232558Y-61710002D01*
X118164171Y-61759689D01*
X118164169Y-61759691D01*
X118164168Y-61759691D01*
X118024991Y-61898868D01*
X118024991Y-61898869D01*
X118024989Y-61898871D01*
X117975302Y-61967258D01*
X117909293Y-62058111D01*
X117819934Y-62233487D01*
X117759107Y-62420690D01*
X117728317Y-62615094D01*
X111500000Y-62615094D01*
X111500000Y-58872781D01*
X143614500Y-58872781D01*
X143614500Y-59047218D01*
X143648527Y-59218283D01*
X143648529Y-59218291D01*
X143715278Y-59379439D01*
X143715283Y-59379448D01*
X143812186Y-59524473D01*
X143812189Y-59524477D01*
X143935522Y-59647810D01*
X143935526Y-59647813D01*
X144080551Y-59744716D01*
X144080557Y-59744719D01*
X144080558Y-59744720D01*
X144241709Y-59811471D01*
X144412781Y-59845499D01*
X144412785Y-59845500D01*
X144412786Y-59845500D01*
X144587215Y-59845500D01*
X144587216Y-59845499D01*
X144758291Y-59811471D01*
X144919442Y-59744720D01*
X145064474Y-59647813D01*
X145187813Y-59524474D01*
X145284720Y-59379442D01*
X145351471Y-59218291D01*
X145385500Y-59047214D01*
X145385500Y-58872786D01*
X145351471Y-58701709D01*
X145284720Y-58540558D01*
X145284719Y-58540557D01*
X145284716Y-58540551D01*
X145187813Y-58395526D01*
X145187810Y-58395522D01*
X145064477Y-58272189D01*
X145064473Y-58272186D01*
X144919448Y-58175283D01*
X144919439Y-58175278D01*
X144758291Y-58108529D01*
X144758283Y-58108527D01*
X144587218Y-58074500D01*
X144587214Y-58074500D01*
X144412786Y-58074500D01*
X144412781Y-58074500D01*
X144241716Y-58108527D01*
X144241708Y-58108529D01*
X144080560Y-58175278D01*
X144080551Y-58175283D01*
X143935526Y-58272186D01*
X143935522Y-58272189D01*
X143812189Y-58395522D01*
X143812186Y-58395526D01*
X143715283Y-58540551D01*
X143715278Y-58540560D01*
X143648529Y-58701708D01*
X143648527Y-58701716D01*
X143614500Y-58872781D01*
X111500000Y-58872781D01*
X111500000Y-53624500D01*
X111519685Y-53557461D01*
X111572489Y-53511706D01*
X111624000Y-53500500D01*
X170875500Y-53500500D01*
X170942539Y-53520185D01*
G37*
%TD.AperFunction*%
%TD*%
M02*
