%TF.GenerationSoftware,KiCad,Pcbnew,9.0.0*%
%TF.CreationDate,2025-07-11T04:59:04+08:00*%
%TF.ProjectId,tsal_g_v4.zip,7473616c-5f67-45f7-9634-2e7a69702e6b,rev?*%
%TF.SameCoordinates,Original*%
%TF.FileFunction,Plated,1,2,PTH,Drill*%
%TF.FilePolarity,Positive*%
%FSLAX46Y46*%
G04 Gerber Fmt 4.6, Leading zero omitted, Abs format (unit mm)*
G04 Created by KiCad (PCBNEW 9.0.0) date 2025-07-11 04:59:04*
%MOMM*%
%LPD*%
G01*
G04 APERTURE LIST*
%TA.AperFunction,ViaDrill*%
%ADD10C,0.300000*%
%TD*%
%TA.AperFunction,ViaDrill*%
%ADD11C,0.400000*%
%TD*%
%TA.AperFunction,ComponentDrill*%
%ADD12C,0.800000*%
%TD*%
%TA.AperFunction,ViaDrill*%
%ADD13C,1.000000*%
%TD*%
%TA.AperFunction,ComponentDrill*%
%ADD14C,1.000000*%
%TD*%
%TA.AperFunction,ComponentDrill*%
%ADD15C,1.020000*%
%TD*%
G04 APERTURE END LIST*
D10*
X89800000Y-82100000D03*
X96950000Y-75800000D03*
X103032500Y-70847500D03*
X116000000Y-100000000D03*
X117000000Y-75500000D03*
X117000000Y-79000000D03*
X118500000Y-70500000D03*
X119500000Y-65500000D03*
X119500000Y-75500000D03*
X119500000Y-79000000D03*
X120500000Y-60000000D03*
X120800000Y-100000000D03*
X121000000Y-70500000D03*
X122500000Y-65500000D03*
X122627500Y-88882500D03*
X123000000Y-75000000D03*
X123000000Y-79000000D03*
X123500000Y-60000000D03*
X125200000Y-67800000D03*
X125400000Y-65400000D03*
X126600000Y-75000000D03*
X127400000Y-65400000D03*
X128700000Y-74900000D03*
X129000000Y-79000000D03*
X129500000Y-60000000D03*
X130000000Y-70500000D03*
X130000000Y-93200000D03*
X131000000Y-65500000D03*
X132500000Y-60000000D03*
X132500000Y-70500000D03*
X134000000Y-65500000D03*
X135000000Y-93200000D03*
X136000000Y-60000000D03*
X138618817Y-72078517D03*
X138818817Y-70878517D03*
X139500000Y-85500000D03*
X139500000Y-87000000D03*
X140000000Y-58000000D03*
X140500000Y-83000000D03*
X140700000Y-81500000D03*
X141600000Y-99200000D03*
X141635000Y-95165000D03*
X142448817Y-70848517D03*
X142448817Y-72118517D03*
X142500000Y-74800000D03*
X144277375Y-75811075D03*
X144318817Y-67078517D03*
X144860966Y-76993827D03*
X145000000Y-87000000D03*
X145000000Y-88500000D03*
X145000000Y-89900000D03*
X145000000Y-92000000D03*
X145193817Y-75778517D03*
X147688817Y-67038517D03*
X147688817Y-68308517D03*
X147688817Y-69578517D03*
X147688817Y-72123517D03*
X147688817Y-73388517D03*
X148000000Y-75000000D03*
X148000000Y-77000000D03*
X148300000Y-83600000D03*
X148600000Y-96800000D03*
X148600000Y-99000000D03*
X151000000Y-68000000D03*
X151000000Y-75000000D03*
X151000000Y-77000000D03*
X153000000Y-72400000D03*
X153600000Y-98000000D03*
X156500000Y-70500000D03*
X158000000Y-56000000D03*
X158700000Y-94800000D03*
X162000000Y-91000000D03*
X162000000Y-93000000D03*
X164000000Y-91000000D03*
X164000000Y-93000000D03*
X164000000Y-95000000D03*
X166000000Y-91000000D03*
X166000000Y-93000000D03*
X166000000Y-95000000D03*
X167691200Y-101156900D03*
D11*
X112765000Y-76230000D03*
X118402500Y-82182500D03*
X125265600Y-82148948D03*
X125478817Y-73144117D03*
X136182500Y-81232500D03*
X137078817Y-73074117D03*
X146250600Y-79371900D03*
X147834417Y-63678517D03*
X150000000Y-85500000D03*
X155355600Y-94850000D03*
X162060000Y-94750000D03*
X165260000Y-101150000D03*
X167620000Y-84420000D03*
D12*
%TO.C,D1*%
X84000000Y-73725000D03*
X84000000Y-81345000D03*
%TD*%
D13*
X160100000Y-91900000D03*
D14*
%TO.C,U3*%
X97760000Y-107500000D03*
X102840000Y-107500000D03*
X110460000Y-107500000D03*
X113000000Y-107500000D03*
D15*
%TO.C,J1*%
X66500000Y-71000000D03*
X66500000Y-74000000D03*
%TO.C,J2*%
X66500000Y-87500000D03*
X66500000Y-90500000D03*
%TO.C,J3*%
X118978817Y-62973517D03*
X121978817Y-62973517D03*
X124978817Y-62973517D03*
X127978817Y-62973517D03*
X130978817Y-62973517D03*
X133978817Y-62973517D03*
%TO.C,J7*%
X142700000Y-107040000D03*
X145700000Y-107040000D03*
%TO.C,J8*%
X147500000Y-57000000D03*
X150500000Y-57000000D03*
X153500000Y-57000000D03*
%TO.C,J6*%
X153800000Y-107000000D03*
X156800000Y-107000000D03*
M02*
