%TF.GenerationSoftware,KiCad,Pcbnew,9.0.4*%
%TF.CreationDate,2025-09-16T19:42:10+08:00*%
%TF.ProjectId,accum_pcb_under,61636375-6d5f-4706-9362-5f756e646572,rev?*%
%TF.SameCoordinates,Original*%
%TF.FileFunction,Copper,L2,Inr*%
%TF.FilePolarity,Positive*%
%FSLAX46Y46*%
G04 Gerber Fmt 4.6, Leading zero omitted, Abs format (unit mm)*
G04 Created by KiCad (PCBNEW 9.0.4) date 2025-09-16 19:42:10*
%MOMM*%
%LPD*%
G01*
G04 APERTURE LIST*
G04 Aperture macros list*
%AMRoundRect*
0 Rectangle with rounded corners*
0 $1 Rounding radius*
0 $2 $3 $4 $5 $6 $7 $8 $9 X,Y pos of 4 corners*
0 Add a 4 corners polygon primitive as box body*
4,1,4,$2,$3,$4,$5,$6,$7,$8,$9,$2,$3,0*
0 Add four circle primitives for the rounded corners*
1,1,$1+$1,$2,$3*
1,1,$1+$1,$4,$5*
1,1,$1+$1,$6,$7*
1,1,$1+$1,$8,$9*
0 Add four rect primitives between the rounded corners*
20,1,$1+$1,$2,$3,$4,$5,0*
20,1,$1+$1,$4,$5,$6,$7,0*
20,1,$1+$1,$6,$7,$8,$9,0*
20,1,$1+$1,$8,$9,$2,$3,0*%
G04 Aperture macros list end*
%TA.AperFunction,ComponentPad*%
%ADD10C,4.200000*%
%TD*%
%TA.AperFunction,ComponentPad*%
%ADD11R,1.350000X1.350000*%
%TD*%
%TA.AperFunction,ComponentPad*%
%ADD12RoundRect,0.250001X0.499999X-0.499999X0.499999X0.499999X-0.499999X0.499999X-0.499999X-0.499999X0*%
%TD*%
%TA.AperFunction,ComponentPad*%
%ADD13C,1.500000*%
%TD*%
%TA.AperFunction,Conductor*%
%ADD14C,0.381000*%
%TD*%
G04 APERTURE END LIST*
D10*
%TO.N,N/C*%
%TO.C,*%
X507381782Y-225121090D03*
%TD*%
%TO.N,N/C*%
%TO.C,*%
X126914767Y-196175590D03*
%TD*%
%TO.N,N/C*%
%TO.C,*%
X203007448Y-196176090D03*
%TD*%
%TO.N,N/C*%
%TO.C,*%
X393241100Y-196183590D03*
%TD*%
D11*
%TO.N,/temp_5_1*%
%TO.C,J5_1*%
X517483115Y-240113590D03*
%TD*%
D10*
%TO.N,N/C*%
%TO.C,*%
X355195115Y-225120090D03*
%TD*%
D11*
%TO.N,/temp_7_1*%
%TO.C,J7_1*%
X344006115Y-239613590D03*
%TD*%
%TO.N,/temp_1_2*%
%TO.C,J1_2*%
X115712115Y-239613590D03*
%TD*%
D10*
%TO.N,N/C*%
%TO.C,*%
X182962144Y-225114090D03*
%TD*%
%TO.N,N/C*%
%TO.C,*%
X279101115Y-196179090D03*
%TD*%
%TO.N,N/C*%
%TO.C,*%
X259055811Y-225115090D03*
%TD*%
%TO.N,N/C*%
%TO.C,*%
X241054826Y-225113590D03*
%TD*%
D11*
%TO.N,/temp_8_1*%
%TO.C,J8_1*%
X496008115Y-239613590D03*
%TD*%
D10*
%TO.N,N/C*%
%TO.C,*%
X431288478Y-225121090D03*
%TD*%
%TO.N,N/C*%
%TO.C,*%
X507381782Y-196188090D03*
%TD*%
%TO.N,N/C*%
%TO.C,*%
X469335130Y-225122590D03*
%TD*%
%TO.N,N/C*%
%TO.C,*%
X335149085Y-196182090D03*
%TD*%
%TO.N,N/C*%
%TO.C,*%
X221008796Y-196177590D03*
%TD*%
D11*
%TO.N,/temp_8_2*%
%TO.C,J8_2*%
X498508115Y-239613590D03*
%TD*%
D10*
%TO.N,N/C*%
%TO.C,*%
X355194752Y-196182090D03*
%TD*%
%TO.N,N/C*%
%TO.C,*%
X144915796Y-225112590D03*
%TD*%
D11*
%TO.N,/temp_3_2*%
%TO.C,J3_2*%
X232244115Y-239613590D03*
%TD*%
%TO.N,/temp_1_1*%
%TO.C,J1_1*%
X118212115Y-239613590D03*
%TD*%
D10*
%TO.N,N/C*%
%TO.C,*%
X241054463Y-196177590D03*
%TD*%
D11*
%TO.N,/temp_2_1*%
%TO.C,J2_1*%
X156114115Y-239613590D03*
%TD*%
D10*
%TO.N,N/C*%
%TO.C,*%
X106869100Y-196175590D03*
%TD*%
%TO.N,N/C*%
%TO.C,*%
X487336115Y-196188090D03*
%TD*%
D11*
%TO.N,/temp_5_2*%
%TO.C,J5_2*%
X514983115Y-240113590D03*
%TD*%
D10*
%TO.N,N/C*%
%TO.C,*%
X221009159Y-225113590D03*
%TD*%
%TO.N,N/C*%
%TO.C,*%
X297102463Y-196180590D03*
%TD*%
%TO.N,N/C*%
%TO.C,*%
X411242448Y-196185090D03*
%TD*%
%TO.N,N/C*%
%TO.C,*%
X106869463Y-225113590D03*
%TD*%
%TO.N,N/C*%
%TO.C,*%
X373195433Y-196183590D03*
%TD*%
%TO.N,N/C*%
%TO.C,*%
X317148130Y-196180590D03*
%TD*%
%TO.N,N/C*%
%TO.C,*%
X297102463Y-225113590D03*
%TD*%
D11*
%TO.N,/temp_7_2*%
%TO.C,J7_2*%
X346506115Y-239613590D03*
%TD*%
D10*
%TO.N,N/C*%
%TO.C,*%
X126915130Y-225113590D03*
%TD*%
%TO.N,N/C*%
%TO.C,*%
X431288115Y-196185090D03*
%TD*%
%TO.N,N/C*%
%TO.C,*%
X393241463Y-225121590D03*
%TD*%
%TO.N,N/C*%
%TO.C,*%
X259055448Y-196179090D03*
%TD*%
%TO.N,N/C*%
%TO.C,*%
X335149448Y-225120090D03*
%TD*%
%TO.N,N/C*%
%TO.C,*%
X164961100Y-196174590D03*
%TD*%
D11*
%TO.N,/temp_4_1*%
%TO.C,J4_1*%
X420166115Y-239613590D03*
%TD*%
D10*
%TO.N,N/C*%
%TO.C,*%
X487336115Y-225121090D03*
%TD*%
%TO.N,N/C*%
%TO.C,*%
X449289463Y-225122590D03*
%TD*%
%TO.N,N/C*%
%TO.C,*%
X203007811Y-225114090D03*
%TD*%
%TO.N,N/C*%
%TO.C,*%
X144915433Y-196174590D03*
%TD*%
D11*
%TO.N,/temp_6_1*%
%TO.C,J6_1*%
X306039115Y-239613590D03*
%TD*%
%TO.N,/temp_6_2*%
%TO.C,J6_2*%
X308539115Y-239613590D03*
%TD*%
D10*
%TO.N,N/C*%
%TO.C,*%
X469334767Y-196186590D03*
%TD*%
D11*
%TO.N,/temp_4_2*%
%TO.C,J4_2*%
X422666115Y-239613590D03*
%TD*%
D10*
%TO.N,N/C*%
%TO.C,*%
X317148130Y-225113590D03*
%TD*%
D11*
%TO.N,/temp_3_1*%
%TO.C,J3_1*%
X229744115Y-239613590D03*
%TD*%
D12*
%TO.N,/temp_4_1*%
%TO.C,J9*%
X525212115Y-221154463D03*
D13*
%TO.N,/temp_4_2*%
X525212115Y-218154463D03*
%TO.N,/temp_6_2*%
X525212115Y-215154463D03*
%TO.N,/temp_6_1*%
X525212115Y-212154463D03*
%TO.N,/temp_3_2*%
X525212115Y-209154463D03*
%TO.N,/temp_3_1*%
X525212115Y-206154463D03*
%TO.N,/temp_1_2*%
X525212115Y-203154463D03*
%TO.N,/temp_1_1*%
X525212115Y-200154463D03*
%TO.N,/temp_5_1*%
X528212115Y-221154463D03*
%TO.N,/temp_5_2*%
X528212115Y-218154463D03*
%TO.N,/temp_8_2*%
X528212115Y-215154463D03*
%TO.N,/temp_8_1*%
X528212115Y-212154463D03*
%TO.N,/temp_7_2*%
X528212115Y-209154463D03*
%TO.N,/temp_7_1*%
X528212115Y-206154463D03*
%TO.N,/temp_2_2*%
X528212115Y-203154463D03*
%TO.N,/temp_2_1*%
X528212115Y-200154463D03*
%TD*%
D10*
%TO.N,N/C*%
%TO.C,*%
X411242811Y-225121090D03*
%TD*%
%TO.N,N/C*%
%TO.C,*%
X373195796Y-225121590D03*
%TD*%
%TO.N,N/C*%
%TO.C,*%
X449289100Y-196186590D03*
%TD*%
D11*
%TO.N,/temp_2_2*%
%TO.C,J2_2*%
X153614115Y-239613590D03*
%TD*%
D10*
%TO.N,N/C*%
%TO.C,*%
X182961781Y-196176090D03*
%TD*%
%TO.N,N/C*%
%TO.C,*%
X279101478Y-225115090D03*
%TD*%
%TO.N,N/C*%
%TO.C,*%
X164961463Y-225112590D03*
%TD*%
D14*
%TO.N,/temp_1_1*%
X516171115Y-179027590D02*
X525212115Y-188068590D01*
X118236115Y-238145590D02*
X117272115Y-237181590D01*
X117272115Y-237181590D02*
X117272115Y-183263590D01*
X118236115Y-239613590D02*
X118236115Y-238145590D01*
X117272115Y-183263590D02*
X121508115Y-179027590D01*
X525212115Y-188068590D02*
X525212115Y-200154463D01*
X121508115Y-179027590D02*
X516171115Y-179027590D01*
%TO.N,/temp_3_2*%
X231290115Y-183395590D02*
X233383115Y-181302590D01*
X232244115Y-239613590D02*
X231290115Y-238659590D01*
X233383115Y-181302590D02*
X515198115Y-181302590D01*
X231290115Y-238659590D02*
X231290115Y-183395590D01*
X515198115Y-181302590D02*
X522136115Y-188240590D01*
X522136115Y-188240590D02*
X522136115Y-206078463D01*
X522136115Y-206078463D02*
X525212115Y-209154463D01*
%TO.N,/temp_2_2*%
X153614115Y-239601590D02*
X153614115Y-239613590D01*
%TO.N,/temp_3_1*%
X233380115Y-180156590D02*
X515716115Y-180156590D01*
X523525115Y-187965590D02*
X523525115Y-204467463D01*
X515716115Y-180156590D02*
X523525115Y-187965590D01*
X230708115Y-182828590D02*
X233380115Y-180156590D01*
X523525115Y-204467463D02*
X525212115Y-206154463D01*
X229744115Y-239613590D02*
X230708115Y-238649590D01*
X230708115Y-238649590D02*
X230708115Y-182828590D01*
%TO.N,/temp_6_1*%
X521916115Y-210348590D02*
X523721988Y-212154463D01*
X308538043Y-210348590D02*
X521916115Y-210348590D01*
X306991115Y-238661590D02*
X306991115Y-211895518D01*
X306039115Y-239613590D02*
X306991115Y-238661590D01*
X306991115Y-211895518D02*
X308538043Y-210348590D01*
X523721988Y-212154463D02*
X525212115Y-212154463D01*
%TO.N,/temp_4_2*%
X422666115Y-239613590D02*
X425097115Y-242044590D01*
X522039115Y-221327463D02*
X525212115Y-218154463D01*
X520456115Y-242044590D02*
X522039115Y-240461590D01*
X425097115Y-242044590D02*
X520456115Y-242044590D01*
X522039115Y-240461590D02*
X522039115Y-221327463D01*
%TO.N,/temp_4_1*%
X420166115Y-239613590D02*
X423476115Y-242923590D01*
X423476115Y-242923590D02*
X521535115Y-242923590D01*
X523376115Y-222990463D02*
X525212115Y-221154463D01*
X523376115Y-241082590D02*
X523376115Y-222990463D01*
X521535115Y-242923590D02*
X523376115Y-241082590D01*
%TO.N,/temp_1_2*%
X526721115Y-187928590D02*
X526721115Y-201645463D01*
X121780608Y-177878097D02*
X516670622Y-177878097D01*
X526721115Y-201645463D02*
X525212115Y-203154463D01*
X116690115Y-237184590D02*
X116690115Y-182968590D01*
X516670622Y-177878097D02*
X526721115Y-187928590D01*
X115736115Y-238138590D02*
X116690115Y-237184590D01*
X115736115Y-239613590D02*
X115736115Y-238138590D01*
X116690115Y-182968590D02*
X121780608Y-177878097D01*
%TO.N,/temp_6_2*%
X308779115Y-210930590D02*
X519361115Y-210930590D01*
X307573115Y-212136590D02*
X308779115Y-210930590D01*
X307573115Y-238647590D02*
X307573115Y-212136590D01*
X523584988Y-215154463D02*
X525212115Y-215154463D01*
X519361115Y-210930590D02*
X523584988Y-215154463D01*
X308539115Y-239613590D02*
X307573115Y-238647590D01*
%TD*%
M02*
