%TF.GenerationSoftware,KiCad,Pcbnew,9.0.4*%
%TF.CreationDate,2025-09-16T19:42:10+08:00*%
%TF.ProjectId,accum_pcb_under,61636375-6d5f-4706-9362-5f756e646572,rev?*%
%TF.SameCoordinates,Original*%
%TF.FileFunction,Legend,Top*%
%TF.FilePolarity,Positive*%
%FSLAX46Y46*%
G04 Gerber Fmt 4.6, Leading zero omitted, Abs format (unit mm)*
G04 Created by KiCad (PCBNEW 9.0.4) date 2025-09-16 19:42:10*
%MOMM*%
%LPD*%
G01*
G04 APERTURE LIST*
%ADD10C,0.100000*%
%ADD11C,0.200000*%
%ADD12C,0.300000*%
%ADD13C,0.150000*%
%ADD14C,0.120000*%
G04 APERTURE END LIST*
D10*
X442732115Y-184702590D02*
X475732115Y-184702590D01*
X475732115Y-236702590D01*
X442732115Y-236702590D01*
X442732115Y-184702590D01*
X328583115Y-184702590D02*
X361583115Y-184702590D01*
X361583115Y-236702590D01*
X328583115Y-236702590D01*
X328583115Y-184702590D01*
X480806115Y-184702590D02*
X513806115Y-184702590D01*
X513806115Y-236702590D01*
X480806115Y-236702590D01*
X480806115Y-184702590D01*
X138338115Y-184702590D02*
X171338115Y-184702590D01*
X171338115Y-236702590D01*
X138338115Y-236702590D01*
X138338115Y-184702590D01*
X214458115Y-184702590D02*
X247458115Y-184702590D01*
X247458115Y-236702590D01*
X214458115Y-236702590D01*
X214458115Y-184702590D01*
X100537115Y-184702590D02*
X133537115Y-184702590D01*
X133537115Y-236702590D01*
X100537115Y-236702590D01*
X100537115Y-184702590D01*
X366612115Y-184702590D02*
X399612115Y-184702590D01*
X399612115Y-236702590D01*
X366612115Y-236702590D01*
X366612115Y-184702590D01*
X290578115Y-184702590D02*
X323578115Y-184702590D01*
X323578115Y-236702590D01*
X290578115Y-236702590D01*
X290578115Y-184702590D01*
X404664115Y-184702590D02*
X437664115Y-184702590D01*
X437664115Y-236702590D01*
X404664115Y-236702590D01*
X404664115Y-184702590D01*
X252652115Y-184702590D02*
X285652115Y-184702590D01*
X285652115Y-236702590D01*
X252652115Y-236702590D01*
X252652115Y-184702590D01*
X176367115Y-184702590D02*
X209367115Y-184702590D01*
X209367115Y-236702590D01*
X176367115Y-236702590D01*
X176367115Y-184702590D01*
D11*
X410280883Y-228947523D02*
X411804693Y-228947523D01*
X392604883Y-228880523D02*
X394128693Y-228880523D01*
X393366788Y-229642428D02*
X393366788Y-228118618D01*
X506616883Y-228932523D02*
X508140693Y-228932523D01*
X507378788Y-229694428D02*
X507378788Y-228170618D01*
X372415883Y-228895523D02*
X373939693Y-228895523D01*
X486427883Y-228947523D02*
X487951693Y-228947523D01*
D12*
X116432029Y-225105418D02*
X115289171Y-225533990D01*
X115289171Y-225533990D02*
X116432029Y-225962561D01*
X117146314Y-225533990D02*
X118289172Y-225533990D01*
X192524710Y-225105418D02*
X191381852Y-225533990D01*
X191381852Y-225533990D02*
X192524710Y-225962561D01*
X193238995Y-225533990D02*
X194381853Y-225533990D01*
D11*
X181996883Y-228791523D02*
X183520693Y-228791523D01*
X354499883Y-192521523D02*
X356023693Y-192521523D01*
X220122883Y-228947523D02*
X221646693Y-228947523D01*
D12*
X287641522Y-196175418D02*
X286498664Y-196603990D01*
X286498664Y-196603990D02*
X287641522Y-197032561D01*
X288355807Y-196603990D02*
X289498665Y-196603990D01*
D11*
X164216883Y-228984523D02*
X165740693Y-228984523D01*
X164978788Y-229746428D02*
X164978788Y-228222618D01*
D12*
X458852522Y-225105418D02*
X457709664Y-225533990D01*
X457709664Y-225533990D02*
X458852522Y-225962561D01*
X459566807Y-225533990D02*
X460709665Y-225533990D01*
D11*
X430469883Y-228932523D02*
X431993693Y-228932523D01*
X431231788Y-229694428D02*
X431231788Y-228170618D01*
X126337883Y-192354523D02*
X127861693Y-192354523D01*
X334237883Y-228999523D02*
X335761693Y-228999523D01*
D12*
X363734825Y-196175418D02*
X362591967Y-196603990D01*
X362591967Y-196603990D02*
X363734825Y-197032561D01*
X364449110Y-196603990D02*
X365591968Y-196603990D01*
X477875174Y-196175418D02*
X476732316Y-196603990D01*
X476732316Y-196603990D02*
X477875174Y-197032561D01*
X478589459Y-196603990D02*
X479732317Y-196603990D01*
D11*
X258266883Y-192371523D02*
X259790693Y-192371523D01*
X259028788Y-193133428D02*
X259028788Y-191609618D01*
X278405883Y-192417523D02*
X279929693Y-192417523D01*
D12*
X268618377Y-225105418D02*
X267475519Y-225533990D01*
X267475519Y-225533990D02*
X268618377Y-225962561D01*
X269332662Y-225533990D02*
X270475520Y-225533990D01*
D11*
X506689883Y-192469523D02*
X508213693Y-192469523D01*
X296112883Y-228999523D02*
X297636693Y-228999523D01*
X144150883Y-192475523D02*
X145674693Y-192475523D01*
X144912788Y-193237428D02*
X144912788Y-191713618D01*
X278332883Y-228880523D02*
X279856693Y-228880523D01*
X279094788Y-229642428D02*
X279094788Y-228118618D01*
X316301883Y-228984523D02*
X317825693Y-228984523D01*
X317063788Y-229746428D02*
X317063788Y-228222618D01*
X240311883Y-228932523D02*
X241835693Y-228932523D01*
X241073788Y-229694428D02*
X241073788Y-228170618D01*
D12*
X230571725Y-225105418D02*
X229428867Y-225533990D01*
X229428867Y-225533990D02*
X230571725Y-225962561D01*
X231286010Y-225533990D02*
X232428868Y-225533990D01*
D11*
X372538883Y-192371523D02*
X374062693Y-192371523D01*
X373300788Y-193133428D02*
X373300788Y-191609618D01*
D12*
X401781507Y-196175418D02*
X400638649Y-196603990D01*
X400638649Y-196603990D02*
X401781507Y-197032561D01*
X402495792Y-196603990D02*
X403638650Y-196603990D01*
D11*
X486550883Y-192423523D02*
X488074693Y-192423523D01*
X487312788Y-193185428D02*
X487312788Y-191661618D01*
X430542883Y-192469523D02*
X432066693Y-192469523D01*
X220245883Y-192423523D02*
X221769693Y-192423523D01*
X221007788Y-193185428D02*
X221007788Y-191661618D01*
X515816143Y-203365869D02*
X514316143Y-203365869D01*
X514316143Y-203365869D02*
X515816143Y-202508726D01*
X515816143Y-202508726D02*
X514316143Y-202508726D01*
X515744715Y-201223011D02*
X515816143Y-201365868D01*
X515816143Y-201365868D02*
X515816143Y-201651583D01*
X515816143Y-201651583D02*
X515744715Y-201794440D01*
X515744715Y-201794440D02*
X515601857Y-201865868D01*
X515601857Y-201865868D02*
X515030429Y-201865868D01*
X515030429Y-201865868D02*
X514887572Y-201794440D01*
X514887572Y-201794440D02*
X514816143Y-201651583D01*
X514816143Y-201651583D02*
X514816143Y-201365868D01*
X514816143Y-201365868D02*
X514887572Y-201223011D01*
X514887572Y-201223011D02*
X515030429Y-201151583D01*
X515030429Y-201151583D02*
X515173286Y-201151583D01*
X515173286Y-201151583D02*
X515316143Y-201865868D01*
X514816143Y-199865869D02*
X516030429Y-199865869D01*
X516030429Y-199865869D02*
X516173286Y-199937297D01*
X516173286Y-199937297D02*
X516244715Y-200008726D01*
X516244715Y-200008726D02*
X516316143Y-200151583D01*
X516316143Y-200151583D02*
X516316143Y-200365869D01*
X516316143Y-200365869D02*
X516244715Y-200508726D01*
X515744715Y-199865869D02*
X515816143Y-200008726D01*
X515816143Y-200008726D02*
X515816143Y-200294440D01*
X515816143Y-200294440D02*
X515744715Y-200437297D01*
X515744715Y-200437297D02*
X515673286Y-200508726D01*
X515673286Y-200508726D02*
X515530429Y-200580154D01*
X515530429Y-200580154D02*
X515101857Y-200580154D01*
X515101857Y-200580154D02*
X514959000Y-200508726D01*
X514959000Y-200508726D02*
X514887572Y-200437297D01*
X514887572Y-200437297D02*
X514816143Y-200294440D01*
X514816143Y-200294440D02*
X514816143Y-200008726D01*
X514816143Y-200008726D02*
X514887572Y-199865869D01*
X515816143Y-198508726D02*
X515030429Y-198508726D01*
X515030429Y-198508726D02*
X514887572Y-198580154D01*
X514887572Y-198580154D02*
X514816143Y-198723011D01*
X514816143Y-198723011D02*
X514816143Y-199008726D01*
X514816143Y-199008726D02*
X514887572Y-199151583D01*
X515744715Y-198508726D02*
X515816143Y-198651583D01*
X515816143Y-198651583D02*
X515816143Y-199008726D01*
X515816143Y-199008726D02*
X515744715Y-199151583D01*
X515744715Y-199151583D02*
X515601857Y-199223011D01*
X515601857Y-199223011D02*
X515459000Y-199223011D01*
X515459000Y-199223011D02*
X515316143Y-199151583D01*
X515316143Y-199151583D02*
X515244715Y-199008726D01*
X515244715Y-199008726D02*
X515244715Y-198651583D01*
X515244715Y-198651583D02*
X515173286Y-198508726D01*
X514816143Y-198008725D02*
X514816143Y-197437297D01*
X514316143Y-197794440D02*
X515601857Y-197794440D01*
X515601857Y-197794440D02*
X515744715Y-197723011D01*
X515744715Y-197723011D02*
X515816143Y-197580154D01*
X515816143Y-197580154D02*
X515816143Y-197437297D01*
X515816143Y-196937297D02*
X514816143Y-196937297D01*
X514316143Y-196937297D02*
X514387572Y-197008725D01*
X514387572Y-197008725D02*
X514459000Y-196937297D01*
X514459000Y-196937297D02*
X514387572Y-196865868D01*
X514387572Y-196865868D02*
X514316143Y-196937297D01*
X514316143Y-196937297D02*
X514459000Y-196937297D01*
X514816143Y-196365868D02*
X515816143Y-196008725D01*
X515816143Y-196008725D02*
X514816143Y-195651582D01*
X515744715Y-194508725D02*
X515816143Y-194651582D01*
X515816143Y-194651582D02*
X515816143Y-194937297D01*
X515816143Y-194937297D02*
X515744715Y-195080154D01*
X515744715Y-195080154D02*
X515601857Y-195151582D01*
X515601857Y-195151582D02*
X515030429Y-195151582D01*
X515030429Y-195151582D02*
X514887572Y-195080154D01*
X514887572Y-195080154D02*
X514816143Y-194937297D01*
X514816143Y-194937297D02*
X514816143Y-194651582D01*
X514816143Y-194651582D02*
X514887572Y-194508725D01*
X514887572Y-194508725D02*
X515030429Y-194437297D01*
X515030429Y-194437297D02*
X515173286Y-194437297D01*
X515173286Y-194437297D02*
X515316143Y-195151582D01*
X514316143Y-192365868D02*
X514316143Y-192080154D01*
X514316143Y-192080154D02*
X514387572Y-191937297D01*
X514387572Y-191937297D02*
X514530429Y-191794440D01*
X514530429Y-191794440D02*
X514816143Y-191723011D01*
X514816143Y-191723011D02*
X515316143Y-191723011D01*
X515316143Y-191723011D02*
X515601857Y-191794440D01*
X515601857Y-191794440D02*
X515744715Y-191937297D01*
X515744715Y-191937297D02*
X515816143Y-192080154D01*
X515816143Y-192080154D02*
X515816143Y-192365868D01*
X515816143Y-192365868D02*
X515744715Y-192508726D01*
X515744715Y-192508726D02*
X515601857Y-192651583D01*
X515601857Y-192651583D02*
X515316143Y-192723011D01*
X515316143Y-192723011D02*
X514816143Y-192723011D01*
X514816143Y-192723011D02*
X514530429Y-192651583D01*
X514530429Y-192651583D02*
X514387572Y-192508726D01*
X514387572Y-192508726D02*
X514316143Y-192365868D01*
X514816143Y-190437297D02*
X515816143Y-190437297D01*
X514816143Y-191080154D02*
X515601857Y-191080154D01*
X515601857Y-191080154D02*
X515744715Y-191008725D01*
X515744715Y-191008725D02*
X515816143Y-190865868D01*
X515816143Y-190865868D02*
X515816143Y-190651582D01*
X515816143Y-190651582D02*
X515744715Y-190508725D01*
X515744715Y-190508725D02*
X515673286Y-190437297D01*
X514816143Y-189937296D02*
X514816143Y-189365868D01*
X514316143Y-189723011D02*
X515601857Y-189723011D01*
X515601857Y-189723011D02*
X515744715Y-189651582D01*
X515744715Y-189651582D02*
X515816143Y-189508725D01*
X515816143Y-189508725D02*
X515816143Y-189365868D01*
X334360883Y-192475523D02*
X335884693Y-192475523D01*
X335122788Y-193237428D02*
X335122788Y-191713618D01*
X202185883Y-228776523D02*
X203709693Y-228776523D01*
X202947788Y-229538428D02*
X202947788Y-228014618D01*
X182119883Y-192267523D02*
X183643693Y-192267523D01*
X182881788Y-193029428D02*
X182881788Y-191505618D01*
X354426883Y-228984523D02*
X355950693Y-228984523D01*
X355188788Y-229746428D02*
X355188788Y-228222618D01*
X392677883Y-192417523D02*
X394201693Y-192417523D01*
X126264883Y-228817523D02*
X127788693Y-228817523D01*
X127026788Y-229579428D02*
X127026788Y-228055618D01*
X202258883Y-192313523D02*
X203782693Y-192313523D01*
D12*
X344712014Y-225105418D02*
X343569156Y-225533990D01*
X343569156Y-225533990D02*
X344712014Y-225962561D01*
X345426299Y-225533990D02*
X346569157Y-225533990D01*
X325688340Y-196175418D02*
X324545482Y-196603990D01*
X324545482Y-196603990D02*
X325688340Y-197032561D01*
X326402625Y-196603990D02*
X327545483Y-196603990D01*
D11*
X100120143Y-202439869D02*
X98620143Y-202439869D01*
X98620143Y-202439869D02*
X98620143Y-201868440D01*
X98620143Y-201868440D02*
X98691572Y-201725583D01*
X98691572Y-201725583D02*
X98763000Y-201654154D01*
X98763000Y-201654154D02*
X98905857Y-201582726D01*
X98905857Y-201582726D02*
X99120143Y-201582726D01*
X99120143Y-201582726D02*
X99263000Y-201654154D01*
X99263000Y-201654154D02*
X99334429Y-201725583D01*
X99334429Y-201725583D02*
X99405857Y-201868440D01*
X99405857Y-201868440D02*
X99405857Y-202439869D01*
X100120143Y-200725583D02*
X100048715Y-200868440D01*
X100048715Y-200868440D02*
X99977286Y-200939869D01*
X99977286Y-200939869D02*
X99834429Y-201011297D01*
X99834429Y-201011297D02*
X99405857Y-201011297D01*
X99405857Y-201011297D02*
X99263000Y-200939869D01*
X99263000Y-200939869D02*
X99191572Y-200868440D01*
X99191572Y-200868440D02*
X99120143Y-200725583D01*
X99120143Y-200725583D02*
X99120143Y-200511297D01*
X99120143Y-200511297D02*
X99191572Y-200368440D01*
X99191572Y-200368440D02*
X99263000Y-200297012D01*
X99263000Y-200297012D02*
X99405857Y-200225583D01*
X99405857Y-200225583D02*
X99834429Y-200225583D01*
X99834429Y-200225583D02*
X99977286Y-200297012D01*
X99977286Y-200297012D02*
X100048715Y-200368440D01*
X100048715Y-200368440D02*
X100120143Y-200511297D01*
X100120143Y-200511297D02*
X100120143Y-200725583D01*
X100048715Y-199654154D02*
X100120143Y-199511297D01*
X100120143Y-199511297D02*
X100120143Y-199225583D01*
X100120143Y-199225583D02*
X100048715Y-199082726D01*
X100048715Y-199082726D02*
X99905857Y-199011297D01*
X99905857Y-199011297D02*
X99834429Y-199011297D01*
X99834429Y-199011297D02*
X99691572Y-199082726D01*
X99691572Y-199082726D02*
X99620143Y-199225583D01*
X99620143Y-199225583D02*
X99620143Y-199439869D01*
X99620143Y-199439869D02*
X99548715Y-199582726D01*
X99548715Y-199582726D02*
X99405857Y-199654154D01*
X99405857Y-199654154D02*
X99334429Y-199654154D01*
X99334429Y-199654154D02*
X99191572Y-199582726D01*
X99191572Y-199582726D02*
X99120143Y-199439869D01*
X99120143Y-199439869D02*
X99120143Y-199225583D01*
X99120143Y-199225583D02*
X99191572Y-199082726D01*
X100120143Y-198368440D02*
X99120143Y-198368440D01*
X98620143Y-198368440D02*
X98691572Y-198439868D01*
X98691572Y-198439868D02*
X98763000Y-198368440D01*
X98763000Y-198368440D02*
X98691572Y-198297011D01*
X98691572Y-198297011D02*
X98620143Y-198368440D01*
X98620143Y-198368440D02*
X98763000Y-198368440D01*
X99120143Y-197868439D02*
X99120143Y-197297011D01*
X98620143Y-197654154D02*
X99905857Y-197654154D01*
X99905857Y-197654154D02*
X100048715Y-197582725D01*
X100048715Y-197582725D02*
X100120143Y-197439868D01*
X100120143Y-197439868D02*
X100120143Y-197297011D01*
X100120143Y-196797011D02*
X99120143Y-196797011D01*
X98620143Y-196797011D02*
X98691572Y-196868439D01*
X98691572Y-196868439D02*
X98763000Y-196797011D01*
X98763000Y-196797011D02*
X98691572Y-196725582D01*
X98691572Y-196725582D02*
X98620143Y-196797011D01*
X98620143Y-196797011D02*
X98763000Y-196797011D01*
X99120143Y-196225582D02*
X100120143Y-195868439D01*
X100120143Y-195868439D02*
X99120143Y-195511296D01*
X100048715Y-194368439D02*
X100120143Y-194511296D01*
X100120143Y-194511296D02*
X100120143Y-194797011D01*
X100120143Y-194797011D02*
X100048715Y-194939868D01*
X100048715Y-194939868D02*
X99905857Y-195011296D01*
X99905857Y-195011296D02*
X99334429Y-195011296D01*
X99334429Y-195011296D02*
X99191572Y-194939868D01*
X99191572Y-194939868D02*
X99120143Y-194797011D01*
X99120143Y-194797011D02*
X99120143Y-194511296D01*
X99120143Y-194511296D02*
X99191572Y-194368439D01*
X99191572Y-194368439D02*
X99334429Y-194297011D01*
X99334429Y-194297011D02*
X99477286Y-194297011D01*
X99477286Y-194297011D02*
X99620143Y-195011296D01*
X98620143Y-192225582D02*
X98620143Y-191939868D01*
X98620143Y-191939868D02*
X98691572Y-191797011D01*
X98691572Y-191797011D02*
X98834429Y-191654154D01*
X98834429Y-191654154D02*
X99120143Y-191582725D01*
X99120143Y-191582725D02*
X99620143Y-191582725D01*
X99620143Y-191582725D02*
X99905857Y-191654154D01*
X99905857Y-191654154D02*
X100048715Y-191797011D01*
X100048715Y-191797011D02*
X100120143Y-191939868D01*
X100120143Y-191939868D02*
X100120143Y-192225582D01*
X100120143Y-192225582D02*
X100048715Y-192368440D01*
X100048715Y-192368440D02*
X99905857Y-192511297D01*
X99905857Y-192511297D02*
X99620143Y-192582725D01*
X99620143Y-192582725D02*
X99120143Y-192582725D01*
X99120143Y-192582725D02*
X98834429Y-192511297D01*
X98834429Y-192511297D02*
X98691572Y-192368440D01*
X98691572Y-192368440D02*
X98620143Y-192225582D01*
X99120143Y-190297011D02*
X100120143Y-190297011D01*
X99120143Y-190939868D02*
X99905857Y-190939868D01*
X99905857Y-190939868D02*
X100048715Y-190868439D01*
X100048715Y-190868439D02*
X100120143Y-190725582D01*
X100120143Y-190725582D02*
X100120143Y-190511296D01*
X100120143Y-190511296D02*
X100048715Y-190368439D01*
X100048715Y-190368439D02*
X99977286Y-190297011D01*
X99120143Y-189797010D02*
X99120143Y-189225582D01*
X98620143Y-189582725D02*
X99905857Y-189582725D01*
X99905857Y-189582725D02*
X100048715Y-189511296D01*
X100048715Y-189511296D02*
X100120143Y-189368439D01*
X100120143Y-189368439D02*
X100120143Y-189225582D01*
X144027883Y-228999523D02*
X145551693Y-228999523D01*
X296235883Y-192475523D02*
X297759693Y-192475523D01*
X296997788Y-193237428D02*
X296997788Y-191713618D01*
D12*
X496899174Y-225105418D02*
X495756316Y-225533990D01*
X495756316Y-225533990D02*
X496899174Y-225962561D01*
X497613459Y-225533990D02*
X498756317Y-225533990D01*
D11*
X410403883Y-192423523D02*
X411927693Y-192423523D01*
X411165788Y-193185428D02*
X411165788Y-191661618D01*
D12*
X135454833Y-196175418D02*
X134311975Y-196603990D01*
X134311975Y-196603990D02*
X135454833Y-197032561D01*
X136169118Y-196603990D02*
X137311976Y-196603990D01*
X173501173Y-196175418D02*
X172358315Y-196603990D01*
X172358315Y-196603990D02*
X173501173Y-197032561D01*
X174215458Y-196603990D02*
X175358316Y-196603990D01*
D11*
X468646883Y-228776523D02*
X470170693Y-228776523D01*
X469408788Y-229538428D02*
X469408788Y-228014618D01*
X240384883Y-192469523D02*
X241908693Y-192469523D01*
X316374883Y-192521523D02*
X317898693Y-192521523D01*
D12*
X382758855Y-225105418D02*
X381615997Y-225533990D01*
X381615997Y-225533990D02*
X382758855Y-225962561D01*
X383473140Y-225533990D02*
X384615998Y-225533990D01*
X154478362Y-225105418D02*
X153335504Y-225533990D01*
X153335504Y-225533990D02*
X154478362Y-225962561D01*
X155192647Y-225533990D02*
X156335505Y-225533990D01*
X211547855Y-196175418D02*
X210404997Y-196603990D01*
X210404997Y-196603990D02*
X211547855Y-197032561D01*
X212262140Y-196603990D02*
X213404998Y-196603990D01*
X306665029Y-225105418D02*
X305522171Y-225533990D01*
X305522171Y-225533990D02*
X306665029Y-225962561D01*
X307379314Y-225533990D02*
X308522172Y-225533990D01*
D11*
X106198883Y-192308523D02*
X107722693Y-192308523D01*
X106960788Y-193070428D02*
X106960788Y-191546618D01*
X164289883Y-192521523D02*
X165813693Y-192521523D01*
X468719883Y-192313523D02*
X470243693Y-192313523D01*
X258143883Y-228895523D02*
X259667693Y-228895523D01*
X448457883Y-228791523D02*
X449981693Y-228791523D01*
X448580883Y-192267523D02*
X450104693Y-192267523D01*
X449342788Y-193029428D02*
X449342788Y-191505618D01*
D12*
X420805870Y-225105418D02*
X419663012Y-225533990D01*
X419663012Y-225533990D02*
X420805870Y-225962561D01*
X421520155Y-225533990D02*
X422663013Y-225533990D01*
X439828340Y-196175418D02*
X438685482Y-196603990D01*
X438685482Y-196603990D02*
X439828340Y-197032561D01*
X440542625Y-196603990D02*
X441685483Y-196603990D01*
X249594688Y-196175418D02*
X248451830Y-196603990D01*
X248451830Y-196603990D02*
X249594688Y-197032561D01*
X250308973Y-196603990D02*
X251451831Y-196603990D01*
D11*
X106075883Y-228832523D02*
X107599693Y-228832523D01*
D13*
X519560638Y-239554409D02*
X519560638Y-240268694D01*
X519560638Y-240268694D02*
X519513019Y-240411551D01*
X519513019Y-240411551D02*
X519417781Y-240506790D01*
X519417781Y-240506790D02*
X519274924Y-240554409D01*
X519274924Y-240554409D02*
X519179686Y-240554409D01*
X520513019Y-239554409D02*
X520036829Y-239554409D01*
X520036829Y-239554409D02*
X519989210Y-240030599D01*
X519989210Y-240030599D02*
X520036829Y-239982980D01*
X520036829Y-239982980D02*
X520132067Y-239935361D01*
X520132067Y-239935361D02*
X520370162Y-239935361D01*
X520370162Y-239935361D02*
X520465400Y-239982980D01*
X520465400Y-239982980D02*
X520513019Y-240030599D01*
X520513019Y-240030599D02*
X520560638Y-240125837D01*
X520560638Y-240125837D02*
X520560638Y-240363932D01*
X520560638Y-240363932D02*
X520513019Y-240459170D01*
X520513019Y-240459170D02*
X520465400Y-240506790D01*
X520465400Y-240506790D02*
X520370162Y-240554409D01*
X520370162Y-240554409D02*
X520132067Y-240554409D01*
X520132067Y-240554409D02*
X520036829Y-240506790D01*
X520036829Y-240506790D02*
X519989210Y-240459170D01*
X520751115Y-240649647D02*
X521513019Y-240649647D01*
X522274924Y-240554409D02*
X521703496Y-240554409D01*
X521989210Y-240554409D02*
X521989210Y-239554409D01*
X521989210Y-239554409D02*
X521893972Y-239697266D01*
X521893972Y-239697266D02*
X521798734Y-239792504D01*
X521798734Y-239792504D02*
X521703496Y-239840123D01*
X339153638Y-239069409D02*
X339153638Y-239783694D01*
X339153638Y-239783694D02*
X339106019Y-239926551D01*
X339106019Y-239926551D02*
X339010781Y-240021790D01*
X339010781Y-240021790D02*
X338867924Y-240069409D01*
X338867924Y-240069409D02*
X338772686Y-240069409D01*
X339534591Y-239069409D02*
X340201257Y-239069409D01*
X340201257Y-239069409D02*
X339772686Y-240069409D01*
X340344115Y-240164647D02*
X341106019Y-240164647D01*
X341867924Y-240069409D02*
X341296496Y-240069409D01*
X341582210Y-240069409D02*
X341582210Y-239069409D01*
X341582210Y-239069409D02*
X341486972Y-239212266D01*
X341486972Y-239212266D02*
X341391734Y-239307504D01*
X341391734Y-239307504D02*
X341296496Y-239355123D01*
X111312638Y-239042409D02*
X111312638Y-239756694D01*
X111312638Y-239756694D02*
X111265019Y-239899551D01*
X111265019Y-239899551D02*
X111169781Y-239994790D01*
X111169781Y-239994790D02*
X111026924Y-240042409D01*
X111026924Y-240042409D02*
X110931686Y-240042409D01*
X112312638Y-240042409D02*
X111741210Y-240042409D01*
X112026924Y-240042409D02*
X112026924Y-239042409D01*
X112026924Y-239042409D02*
X111931686Y-239185266D01*
X111931686Y-239185266D02*
X111836448Y-239280504D01*
X111836448Y-239280504D02*
X111741210Y-239328123D01*
X112503115Y-240137647D02*
X113265019Y-240137647D01*
X113455496Y-239137647D02*
X113503115Y-239090028D01*
X113503115Y-239090028D02*
X113598353Y-239042409D01*
X113598353Y-239042409D02*
X113836448Y-239042409D01*
X113836448Y-239042409D02*
X113931686Y-239090028D01*
X113931686Y-239090028D02*
X113979305Y-239137647D01*
X113979305Y-239137647D02*
X114026924Y-239232885D01*
X114026924Y-239232885D02*
X114026924Y-239328123D01*
X114026924Y-239328123D02*
X113979305Y-239470980D01*
X113979305Y-239470980D02*
X113407877Y-240042409D01*
X113407877Y-240042409D02*
X114026924Y-240042409D01*
X90531210Y-235677409D02*
X90531210Y-234677409D01*
X90531210Y-235153599D02*
X91102638Y-235153599D01*
X91102638Y-235677409D02*
X91102638Y-234677409D01*
X91483591Y-234677409D02*
X92102638Y-234677409D01*
X92102638Y-234677409D02*
X91769305Y-235058361D01*
X91769305Y-235058361D02*
X91912162Y-235058361D01*
X91912162Y-235058361D02*
X92007400Y-235105980D01*
X92007400Y-235105980D02*
X92055019Y-235153599D01*
X92055019Y-235153599D02*
X92102638Y-235248837D01*
X92102638Y-235248837D02*
X92102638Y-235486932D01*
X92102638Y-235486932D02*
X92055019Y-235582170D01*
X92055019Y-235582170D02*
X92007400Y-235629790D01*
X92007400Y-235629790D02*
X91912162Y-235677409D01*
X91912162Y-235677409D02*
X91626448Y-235677409D01*
X91626448Y-235677409D02*
X91531210Y-235629790D01*
X91531210Y-235629790D02*
X91483591Y-235582170D01*
X491479638Y-239068409D02*
X491479638Y-239782694D01*
X491479638Y-239782694D02*
X491432019Y-239925551D01*
X491432019Y-239925551D02*
X491336781Y-240020790D01*
X491336781Y-240020790D02*
X491193924Y-240068409D01*
X491193924Y-240068409D02*
X491098686Y-240068409D01*
X492098686Y-239496980D02*
X492003448Y-239449361D01*
X492003448Y-239449361D02*
X491955829Y-239401742D01*
X491955829Y-239401742D02*
X491908210Y-239306504D01*
X491908210Y-239306504D02*
X491908210Y-239258885D01*
X491908210Y-239258885D02*
X491955829Y-239163647D01*
X491955829Y-239163647D02*
X492003448Y-239116028D01*
X492003448Y-239116028D02*
X492098686Y-239068409D01*
X492098686Y-239068409D02*
X492289162Y-239068409D01*
X492289162Y-239068409D02*
X492384400Y-239116028D01*
X492384400Y-239116028D02*
X492432019Y-239163647D01*
X492432019Y-239163647D02*
X492479638Y-239258885D01*
X492479638Y-239258885D02*
X492479638Y-239306504D01*
X492479638Y-239306504D02*
X492432019Y-239401742D01*
X492432019Y-239401742D02*
X492384400Y-239449361D01*
X492384400Y-239449361D02*
X492289162Y-239496980D01*
X492289162Y-239496980D02*
X492098686Y-239496980D01*
X492098686Y-239496980D02*
X492003448Y-239544599D01*
X492003448Y-239544599D02*
X491955829Y-239592218D01*
X491955829Y-239592218D02*
X491908210Y-239687456D01*
X491908210Y-239687456D02*
X491908210Y-239877932D01*
X491908210Y-239877932D02*
X491955829Y-239973170D01*
X491955829Y-239973170D02*
X492003448Y-240020790D01*
X492003448Y-240020790D02*
X492098686Y-240068409D01*
X492098686Y-240068409D02*
X492289162Y-240068409D01*
X492289162Y-240068409D02*
X492384400Y-240020790D01*
X492384400Y-240020790D02*
X492432019Y-239973170D01*
X492432019Y-239973170D02*
X492479638Y-239877932D01*
X492479638Y-239877932D02*
X492479638Y-239687456D01*
X492479638Y-239687456D02*
X492432019Y-239592218D01*
X492432019Y-239592218D02*
X492384400Y-239544599D01*
X492384400Y-239544599D02*
X492289162Y-239496980D01*
X492670115Y-240163647D02*
X493432019Y-240163647D01*
X494193924Y-240068409D02*
X493622496Y-240068409D01*
X493908210Y-240068409D02*
X493908210Y-239068409D01*
X493908210Y-239068409D02*
X493812972Y-239211266D01*
X493812972Y-239211266D02*
X493717734Y-239306504D01*
X493717734Y-239306504D02*
X493622496Y-239354123D01*
X500950638Y-239067409D02*
X500950638Y-239781694D01*
X500950638Y-239781694D02*
X500903019Y-239924551D01*
X500903019Y-239924551D02*
X500807781Y-240019790D01*
X500807781Y-240019790D02*
X500664924Y-240067409D01*
X500664924Y-240067409D02*
X500569686Y-240067409D01*
X501569686Y-239495980D02*
X501474448Y-239448361D01*
X501474448Y-239448361D02*
X501426829Y-239400742D01*
X501426829Y-239400742D02*
X501379210Y-239305504D01*
X501379210Y-239305504D02*
X501379210Y-239257885D01*
X501379210Y-239257885D02*
X501426829Y-239162647D01*
X501426829Y-239162647D02*
X501474448Y-239115028D01*
X501474448Y-239115028D02*
X501569686Y-239067409D01*
X501569686Y-239067409D02*
X501760162Y-239067409D01*
X501760162Y-239067409D02*
X501855400Y-239115028D01*
X501855400Y-239115028D02*
X501903019Y-239162647D01*
X501903019Y-239162647D02*
X501950638Y-239257885D01*
X501950638Y-239257885D02*
X501950638Y-239305504D01*
X501950638Y-239305504D02*
X501903019Y-239400742D01*
X501903019Y-239400742D02*
X501855400Y-239448361D01*
X501855400Y-239448361D02*
X501760162Y-239495980D01*
X501760162Y-239495980D02*
X501569686Y-239495980D01*
X501569686Y-239495980D02*
X501474448Y-239543599D01*
X501474448Y-239543599D02*
X501426829Y-239591218D01*
X501426829Y-239591218D02*
X501379210Y-239686456D01*
X501379210Y-239686456D02*
X501379210Y-239876932D01*
X501379210Y-239876932D02*
X501426829Y-239972170D01*
X501426829Y-239972170D02*
X501474448Y-240019790D01*
X501474448Y-240019790D02*
X501569686Y-240067409D01*
X501569686Y-240067409D02*
X501760162Y-240067409D01*
X501760162Y-240067409D02*
X501855400Y-240019790D01*
X501855400Y-240019790D02*
X501903019Y-239972170D01*
X501903019Y-239972170D02*
X501950638Y-239876932D01*
X501950638Y-239876932D02*
X501950638Y-239686456D01*
X501950638Y-239686456D02*
X501903019Y-239591218D01*
X501903019Y-239591218D02*
X501855400Y-239543599D01*
X501855400Y-239543599D02*
X501760162Y-239495980D01*
X502141115Y-240162647D02*
X502903019Y-240162647D01*
X503093496Y-239162647D02*
X503141115Y-239115028D01*
X503141115Y-239115028D02*
X503236353Y-239067409D01*
X503236353Y-239067409D02*
X503474448Y-239067409D01*
X503474448Y-239067409D02*
X503569686Y-239115028D01*
X503569686Y-239115028D02*
X503617305Y-239162647D01*
X503617305Y-239162647D02*
X503664924Y-239257885D01*
X503664924Y-239257885D02*
X503664924Y-239353123D01*
X503664924Y-239353123D02*
X503617305Y-239495980D01*
X503617305Y-239495980D02*
X503045877Y-240067409D01*
X503045877Y-240067409D02*
X503664924Y-240067409D01*
X234659638Y-239067409D02*
X234659638Y-239781694D01*
X234659638Y-239781694D02*
X234612019Y-239924551D01*
X234612019Y-239924551D02*
X234516781Y-240019790D01*
X234516781Y-240019790D02*
X234373924Y-240067409D01*
X234373924Y-240067409D02*
X234278686Y-240067409D01*
X235040591Y-239067409D02*
X235659638Y-239067409D01*
X235659638Y-239067409D02*
X235326305Y-239448361D01*
X235326305Y-239448361D02*
X235469162Y-239448361D01*
X235469162Y-239448361D02*
X235564400Y-239495980D01*
X235564400Y-239495980D02*
X235612019Y-239543599D01*
X235612019Y-239543599D02*
X235659638Y-239638837D01*
X235659638Y-239638837D02*
X235659638Y-239876932D01*
X235659638Y-239876932D02*
X235612019Y-239972170D01*
X235612019Y-239972170D02*
X235564400Y-240019790D01*
X235564400Y-240019790D02*
X235469162Y-240067409D01*
X235469162Y-240067409D02*
X235183448Y-240067409D01*
X235183448Y-240067409D02*
X235088210Y-240019790D01*
X235088210Y-240019790D02*
X235040591Y-239972170D01*
X235850115Y-240162647D02*
X236612019Y-240162647D01*
X236802496Y-239162647D02*
X236850115Y-239115028D01*
X236850115Y-239115028D02*
X236945353Y-239067409D01*
X236945353Y-239067409D02*
X237183448Y-239067409D01*
X237183448Y-239067409D02*
X237278686Y-239115028D01*
X237278686Y-239115028D02*
X237326305Y-239162647D01*
X237326305Y-239162647D02*
X237373924Y-239257885D01*
X237373924Y-239257885D02*
X237373924Y-239353123D01*
X237373924Y-239353123D02*
X237326305Y-239495980D01*
X237326305Y-239495980D02*
X236754877Y-240067409D01*
X236754877Y-240067409D02*
X237373924Y-240067409D01*
X120254638Y-239071123D02*
X120254638Y-239785408D01*
X120254638Y-239785408D02*
X120207019Y-239928265D01*
X120207019Y-239928265D02*
X120111781Y-240023504D01*
X120111781Y-240023504D02*
X119968924Y-240071123D01*
X119968924Y-240071123D02*
X119873686Y-240071123D01*
X121254638Y-240071123D02*
X120683210Y-240071123D01*
X120968924Y-240071123D02*
X120968924Y-239071123D01*
X120968924Y-239071123D02*
X120873686Y-239213980D01*
X120873686Y-239213980D02*
X120778448Y-239309218D01*
X120778448Y-239309218D02*
X120683210Y-239356837D01*
X121445115Y-240166361D02*
X122207019Y-240166361D01*
X122968924Y-240071123D02*
X122397496Y-240071123D01*
X122683210Y-240071123D02*
X122683210Y-239071123D01*
X122683210Y-239071123D02*
X122587972Y-239213980D01*
X122587972Y-239213980D02*
X122492734Y-239309218D01*
X122492734Y-239309218D02*
X122397496Y-239356837D01*
X158573638Y-239075409D02*
X158573638Y-239789694D01*
X158573638Y-239789694D02*
X158526019Y-239932551D01*
X158526019Y-239932551D02*
X158430781Y-240027790D01*
X158430781Y-240027790D02*
X158287924Y-240075409D01*
X158287924Y-240075409D02*
X158192686Y-240075409D01*
X159002210Y-239170647D02*
X159049829Y-239123028D01*
X159049829Y-239123028D02*
X159145067Y-239075409D01*
X159145067Y-239075409D02*
X159383162Y-239075409D01*
X159383162Y-239075409D02*
X159478400Y-239123028D01*
X159478400Y-239123028D02*
X159526019Y-239170647D01*
X159526019Y-239170647D02*
X159573638Y-239265885D01*
X159573638Y-239265885D02*
X159573638Y-239361123D01*
X159573638Y-239361123D02*
X159526019Y-239503980D01*
X159526019Y-239503980D02*
X158954591Y-240075409D01*
X158954591Y-240075409D02*
X159573638Y-240075409D01*
X159764115Y-240170647D02*
X160526019Y-240170647D01*
X161287924Y-240075409D02*
X160716496Y-240075409D01*
X161002210Y-240075409D02*
X161002210Y-239075409D01*
X161002210Y-239075409D02*
X160906972Y-239218266D01*
X160906972Y-239218266D02*
X160811734Y-239313504D01*
X160811734Y-239313504D02*
X160716496Y-239361123D01*
X510519638Y-239569409D02*
X510519638Y-240283694D01*
X510519638Y-240283694D02*
X510472019Y-240426551D01*
X510472019Y-240426551D02*
X510376781Y-240521790D01*
X510376781Y-240521790D02*
X510233924Y-240569409D01*
X510233924Y-240569409D02*
X510138686Y-240569409D01*
X511472019Y-239569409D02*
X510995829Y-239569409D01*
X510995829Y-239569409D02*
X510948210Y-240045599D01*
X510948210Y-240045599D02*
X510995829Y-239997980D01*
X510995829Y-239997980D02*
X511091067Y-239950361D01*
X511091067Y-239950361D02*
X511329162Y-239950361D01*
X511329162Y-239950361D02*
X511424400Y-239997980D01*
X511424400Y-239997980D02*
X511472019Y-240045599D01*
X511472019Y-240045599D02*
X511519638Y-240140837D01*
X511519638Y-240140837D02*
X511519638Y-240378932D01*
X511519638Y-240378932D02*
X511472019Y-240474170D01*
X511472019Y-240474170D02*
X511424400Y-240521790D01*
X511424400Y-240521790D02*
X511329162Y-240569409D01*
X511329162Y-240569409D02*
X511091067Y-240569409D01*
X511091067Y-240569409D02*
X510995829Y-240521790D01*
X510995829Y-240521790D02*
X510948210Y-240474170D01*
X511710115Y-240664647D02*
X512472019Y-240664647D01*
X512662496Y-239664647D02*
X512710115Y-239617028D01*
X512710115Y-239617028D02*
X512805353Y-239569409D01*
X512805353Y-239569409D02*
X513043448Y-239569409D01*
X513043448Y-239569409D02*
X513138686Y-239617028D01*
X513138686Y-239617028D02*
X513186305Y-239664647D01*
X513186305Y-239664647D02*
X513233924Y-239759885D01*
X513233924Y-239759885D02*
X513233924Y-239855123D01*
X513233924Y-239855123D02*
X513186305Y-239997980D01*
X513186305Y-239997980D02*
X512614877Y-240569409D01*
X512614877Y-240569409D02*
X513233924Y-240569409D01*
X348945638Y-239066409D02*
X348945638Y-239780694D01*
X348945638Y-239780694D02*
X348898019Y-239923551D01*
X348898019Y-239923551D02*
X348802781Y-240018790D01*
X348802781Y-240018790D02*
X348659924Y-240066409D01*
X348659924Y-240066409D02*
X348564686Y-240066409D01*
X349326591Y-239066409D02*
X349993257Y-239066409D01*
X349993257Y-239066409D02*
X349564686Y-240066409D01*
X350136115Y-240161647D02*
X350898019Y-240161647D01*
X351088496Y-239161647D02*
X351136115Y-239114028D01*
X351136115Y-239114028D02*
X351231353Y-239066409D01*
X351231353Y-239066409D02*
X351469448Y-239066409D01*
X351469448Y-239066409D02*
X351564686Y-239114028D01*
X351564686Y-239114028D02*
X351612305Y-239161647D01*
X351612305Y-239161647D02*
X351659924Y-239256885D01*
X351659924Y-239256885D02*
X351659924Y-239352123D01*
X351659924Y-239352123D02*
X351612305Y-239494980D01*
X351612305Y-239494980D02*
X351040877Y-240066409D01*
X351040877Y-240066409D02*
X351659924Y-240066409D01*
X415330638Y-239072409D02*
X415330638Y-239786694D01*
X415330638Y-239786694D02*
X415283019Y-239929551D01*
X415283019Y-239929551D02*
X415187781Y-240024790D01*
X415187781Y-240024790D02*
X415044924Y-240072409D01*
X415044924Y-240072409D02*
X414949686Y-240072409D01*
X416235400Y-239405742D02*
X416235400Y-240072409D01*
X415997305Y-239024790D02*
X415759210Y-239739075D01*
X415759210Y-239739075D02*
X416378257Y-239739075D01*
X416521115Y-240167647D02*
X417283019Y-240167647D01*
X418044924Y-240072409D02*
X417473496Y-240072409D01*
X417759210Y-240072409D02*
X417759210Y-239072409D01*
X417759210Y-239072409D02*
X417663972Y-239215266D01*
X417663972Y-239215266D02*
X417568734Y-239310504D01*
X417568734Y-239310504D02*
X417473496Y-239358123D01*
X301186638Y-239067409D02*
X301186638Y-239781694D01*
X301186638Y-239781694D02*
X301139019Y-239924551D01*
X301139019Y-239924551D02*
X301043781Y-240019790D01*
X301043781Y-240019790D02*
X300900924Y-240067409D01*
X300900924Y-240067409D02*
X300805686Y-240067409D01*
X302091400Y-239067409D02*
X301900924Y-239067409D01*
X301900924Y-239067409D02*
X301805686Y-239115028D01*
X301805686Y-239115028D02*
X301758067Y-239162647D01*
X301758067Y-239162647D02*
X301662829Y-239305504D01*
X301662829Y-239305504D02*
X301615210Y-239495980D01*
X301615210Y-239495980D02*
X301615210Y-239876932D01*
X301615210Y-239876932D02*
X301662829Y-239972170D01*
X301662829Y-239972170D02*
X301710448Y-240019790D01*
X301710448Y-240019790D02*
X301805686Y-240067409D01*
X301805686Y-240067409D02*
X301996162Y-240067409D01*
X301996162Y-240067409D02*
X302091400Y-240019790D01*
X302091400Y-240019790D02*
X302139019Y-239972170D01*
X302139019Y-239972170D02*
X302186638Y-239876932D01*
X302186638Y-239876932D02*
X302186638Y-239638837D01*
X302186638Y-239638837D02*
X302139019Y-239543599D01*
X302139019Y-239543599D02*
X302091400Y-239495980D01*
X302091400Y-239495980D02*
X301996162Y-239448361D01*
X301996162Y-239448361D02*
X301805686Y-239448361D01*
X301805686Y-239448361D02*
X301710448Y-239495980D01*
X301710448Y-239495980D02*
X301662829Y-239543599D01*
X301662829Y-239543599D02*
X301615210Y-239638837D01*
X302377115Y-240162647D02*
X303139019Y-240162647D01*
X303900924Y-240067409D02*
X303329496Y-240067409D01*
X303615210Y-240067409D02*
X303615210Y-239067409D01*
X303615210Y-239067409D02*
X303519972Y-239210266D01*
X303519972Y-239210266D02*
X303424734Y-239305504D01*
X303424734Y-239305504D02*
X303329496Y-239353123D01*
X310958638Y-239068409D02*
X310958638Y-239782694D01*
X310958638Y-239782694D02*
X310911019Y-239925551D01*
X310911019Y-239925551D02*
X310815781Y-240020790D01*
X310815781Y-240020790D02*
X310672924Y-240068409D01*
X310672924Y-240068409D02*
X310577686Y-240068409D01*
X311863400Y-239068409D02*
X311672924Y-239068409D01*
X311672924Y-239068409D02*
X311577686Y-239116028D01*
X311577686Y-239116028D02*
X311530067Y-239163647D01*
X311530067Y-239163647D02*
X311434829Y-239306504D01*
X311434829Y-239306504D02*
X311387210Y-239496980D01*
X311387210Y-239496980D02*
X311387210Y-239877932D01*
X311387210Y-239877932D02*
X311434829Y-239973170D01*
X311434829Y-239973170D02*
X311482448Y-240020790D01*
X311482448Y-240020790D02*
X311577686Y-240068409D01*
X311577686Y-240068409D02*
X311768162Y-240068409D01*
X311768162Y-240068409D02*
X311863400Y-240020790D01*
X311863400Y-240020790D02*
X311911019Y-239973170D01*
X311911019Y-239973170D02*
X311958638Y-239877932D01*
X311958638Y-239877932D02*
X311958638Y-239639837D01*
X311958638Y-239639837D02*
X311911019Y-239544599D01*
X311911019Y-239544599D02*
X311863400Y-239496980D01*
X311863400Y-239496980D02*
X311768162Y-239449361D01*
X311768162Y-239449361D02*
X311577686Y-239449361D01*
X311577686Y-239449361D02*
X311482448Y-239496980D01*
X311482448Y-239496980D02*
X311434829Y-239544599D01*
X311434829Y-239544599D02*
X311387210Y-239639837D01*
X312149115Y-240163647D02*
X312911019Y-240163647D01*
X313101496Y-239163647D02*
X313149115Y-239116028D01*
X313149115Y-239116028D02*
X313244353Y-239068409D01*
X313244353Y-239068409D02*
X313482448Y-239068409D01*
X313482448Y-239068409D02*
X313577686Y-239116028D01*
X313577686Y-239116028D02*
X313625305Y-239163647D01*
X313625305Y-239163647D02*
X313672924Y-239258885D01*
X313672924Y-239258885D02*
X313672924Y-239354123D01*
X313672924Y-239354123D02*
X313625305Y-239496980D01*
X313625305Y-239496980D02*
X313053877Y-240068409D01*
X313053877Y-240068409D02*
X313672924Y-240068409D01*
X526970210Y-235634409D02*
X526970210Y-234634409D01*
X526970210Y-235110599D02*
X527541638Y-235110599D01*
X527541638Y-235634409D02*
X527541638Y-234634409D01*
X528541638Y-235634409D02*
X527970210Y-235634409D01*
X528255924Y-235634409D02*
X528255924Y-234634409D01*
X528255924Y-234634409D02*
X528160686Y-234777266D01*
X528160686Y-234777266D02*
X528065448Y-234872504D01*
X528065448Y-234872504D02*
X527970210Y-234920123D01*
X425078638Y-239063409D02*
X425078638Y-239777694D01*
X425078638Y-239777694D02*
X425031019Y-239920551D01*
X425031019Y-239920551D02*
X424935781Y-240015790D01*
X424935781Y-240015790D02*
X424792924Y-240063409D01*
X424792924Y-240063409D02*
X424697686Y-240063409D01*
X425983400Y-239396742D02*
X425983400Y-240063409D01*
X425745305Y-239015790D02*
X425507210Y-239730075D01*
X425507210Y-239730075D02*
X426126257Y-239730075D01*
X426269115Y-240158647D02*
X427031019Y-240158647D01*
X427221496Y-239158647D02*
X427269115Y-239111028D01*
X427269115Y-239111028D02*
X427364353Y-239063409D01*
X427364353Y-239063409D02*
X427602448Y-239063409D01*
X427602448Y-239063409D02*
X427697686Y-239111028D01*
X427697686Y-239111028D02*
X427745305Y-239158647D01*
X427745305Y-239158647D02*
X427792924Y-239253885D01*
X427792924Y-239253885D02*
X427792924Y-239349123D01*
X427792924Y-239349123D02*
X427745305Y-239491980D01*
X427745305Y-239491980D02*
X427173877Y-240063409D01*
X427173877Y-240063409D02*
X427792924Y-240063409D01*
X224884638Y-239077409D02*
X224884638Y-239791694D01*
X224884638Y-239791694D02*
X224837019Y-239934551D01*
X224837019Y-239934551D02*
X224741781Y-240029790D01*
X224741781Y-240029790D02*
X224598924Y-240077409D01*
X224598924Y-240077409D02*
X224503686Y-240077409D01*
X225265591Y-239077409D02*
X225884638Y-239077409D01*
X225884638Y-239077409D02*
X225551305Y-239458361D01*
X225551305Y-239458361D02*
X225694162Y-239458361D01*
X225694162Y-239458361D02*
X225789400Y-239505980D01*
X225789400Y-239505980D02*
X225837019Y-239553599D01*
X225837019Y-239553599D02*
X225884638Y-239648837D01*
X225884638Y-239648837D02*
X225884638Y-239886932D01*
X225884638Y-239886932D02*
X225837019Y-239982170D01*
X225837019Y-239982170D02*
X225789400Y-240029790D01*
X225789400Y-240029790D02*
X225694162Y-240077409D01*
X225694162Y-240077409D02*
X225408448Y-240077409D01*
X225408448Y-240077409D02*
X225313210Y-240029790D01*
X225313210Y-240029790D02*
X225265591Y-239982170D01*
X226075115Y-240172647D02*
X226837019Y-240172647D01*
X227598924Y-240077409D02*
X227027496Y-240077409D01*
X227313210Y-240077409D02*
X227313210Y-239077409D01*
X227313210Y-239077409D02*
X227217972Y-239220266D01*
X227217972Y-239220266D02*
X227122734Y-239315504D01*
X227122734Y-239315504D02*
X227027496Y-239363123D01*
X526968210Y-179703409D02*
X526968210Y-178703409D01*
X526968210Y-179179599D02*
X527539638Y-179179599D01*
X527539638Y-179703409D02*
X527539638Y-178703409D01*
X528444400Y-179036742D02*
X528444400Y-179703409D01*
X528206305Y-178655790D02*
X527968210Y-179370075D01*
X527968210Y-179370075D02*
X528587257Y-179370075D01*
X529972781Y-194777282D02*
X529972781Y-195491567D01*
X529972781Y-195491567D02*
X529925162Y-195634424D01*
X529925162Y-195634424D02*
X529829924Y-195729663D01*
X529829924Y-195729663D02*
X529687067Y-195777282D01*
X529687067Y-195777282D02*
X529591829Y-195777282D01*
X530496591Y-195777282D02*
X530687067Y-195777282D01*
X530687067Y-195777282D02*
X530782305Y-195729663D01*
X530782305Y-195729663D02*
X530829924Y-195682043D01*
X530829924Y-195682043D02*
X530925162Y-195539186D01*
X530925162Y-195539186D02*
X530972781Y-195348710D01*
X530972781Y-195348710D02*
X530972781Y-194967758D01*
X530972781Y-194967758D02*
X530925162Y-194872520D01*
X530925162Y-194872520D02*
X530877543Y-194824901D01*
X530877543Y-194824901D02*
X530782305Y-194777282D01*
X530782305Y-194777282D02*
X530591829Y-194777282D01*
X530591829Y-194777282D02*
X530496591Y-194824901D01*
X530496591Y-194824901D02*
X530448972Y-194872520D01*
X530448972Y-194872520D02*
X530401353Y-194967758D01*
X530401353Y-194967758D02*
X530401353Y-195205853D01*
X530401353Y-195205853D02*
X530448972Y-195301091D01*
X530448972Y-195301091D02*
X530496591Y-195348710D01*
X530496591Y-195348710D02*
X530591829Y-195396329D01*
X530591829Y-195396329D02*
X530782305Y-195396329D01*
X530782305Y-195396329D02*
X530877543Y-195348710D01*
X530877543Y-195348710D02*
X530925162Y-195301091D01*
X530925162Y-195301091D02*
X530972781Y-195205853D01*
X148812638Y-239079409D02*
X148812638Y-239793694D01*
X148812638Y-239793694D02*
X148765019Y-239936551D01*
X148765019Y-239936551D02*
X148669781Y-240031790D01*
X148669781Y-240031790D02*
X148526924Y-240079409D01*
X148526924Y-240079409D02*
X148431686Y-240079409D01*
X149241210Y-239174647D02*
X149288829Y-239127028D01*
X149288829Y-239127028D02*
X149384067Y-239079409D01*
X149384067Y-239079409D02*
X149622162Y-239079409D01*
X149622162Y-239079409D02*
X149717400Y-239127028D01*
X149717400Y-239127028D02*
X149765019Y-239174647D01*
X149765019Y-239174647D02*
X149812638Y-239269885D01*
X149812638Y-239269885D02*
X149812638Y-239365123D01*
X149812638Y-239365123D02*
X149765019Y-239507980D01*
X149765019Y-239507980D02*
X149193591Y-240079409D01*
X149193591Y-240079409D02*
X149812638Y-240079409D01*
X150003115Y-240174647D02*
X150765019Y-240174647D01*
X150955496Y-239174647D02*
X151003115Y-239127028D01*
X151003115Y-239127028D02*
X151098353Y-239079409D01*
X151098353Y-239079409D02*
X151336448Y-239079409D01*
X151336448Y-239079409D02*
X151431686Y-239127028D01*
X151431686Y-239127028D02*
X151479305Y-239174647D01*
X151479305Y-239174647D02*
X151526924Y-239269885D01*
X151526924Y-239269885D02*
X151526924Y-239365123D01*
X151526924Y-239365123D02*
X151479305Y-239507980D01*
X151479305Y-239507980D02*
X150907877Y-240079409D01*
X150907877Y-240079409D02*
X151526924Y-240079409D01*
X90473210Y-179755409D02*
X90473210Y-178755409D01*
X90473210Y-179231599D02*
X91044638Y-179231599D01*
X91044638Y-179755409D02*
X91044638Y-178755409D01*
X91473210Y-178850647D02*
X91520829Y-178803028D01*
X91520829Y-178803028D02*
X91616067Y-178755409D01*
X91616067Y-178755409D02*
X91854162Y-178755409D01*
X91854162Y-178755409D02*
X91949400Y-178803028D01*
X91949400Y-178803028D02*
X91997019Y-178850647D01*
X91997019Y-178850647D02*
X92044638Y-178945885D01*
X92044638Y-178945885D02*
X92044638Y-179041123D01*
X92044638Y-179041123D02*
X91997019Y-179183980D01*
X91997019Y-179183980D02*
X91425591Y-179755409D01*
X91425591Y-179755409D02*
X92044638Y-179755409D01*
D14*
%TO.C,J5_1*%
X516423115Y-239113590D02*
X516423115Y-239053590D01*
X518543115Y-239053590D02*
X516423115Y-239053590D01*
X518543115Y-239113590D02*
X516423115Y-239113590D01*
X518543115Y-239113590D02*
X518543115Y-239053590D01*
X518543115Y-240113590D02*
X518543115Y-241173590D01*
X518543115Y-241173590D02*
X517483115Y-241173590D01*
%TO.C,J7_1*%
X342946115Y-238553590D02*
X344006115Y-238553590D01*
X342946115Y-239613590D02*
X342946115Y-238553590D01*
X342946115Y-240613590D02*
X342946115Y-240673590D01*
X342946115Y-240613590D02*
X345066115Y-240613590D01*
X342946115Y-240673590D02*
X345066115Y-240673590D01*
X345066115Y-240613590D02*
X345066115Y-240673590D01*
%TO.C,J1_2*%
X114652115Y-238613590D02*
X114652115Y-238553590D01*
X116772115Y-238553590D02*
X114652115Y-238553590D01*
X116772115Y-238613590D02*
X114652115Y-238613590D01*
X116772115Y-238613590D02*
X116772115Y-238553590D01*
X116772115Y-239613590D02*
X116772115Y-240673590D01*
X116772115Y-240673590D02*
X115712115Y-240673590D01*
%TO.C,J8_1*%
X494948115Y-238553590D02*
X496008115Y-238553590D01*
X494948115Y-239613590D02*
X494948115Y-238553590D01*
X494948115Y-240613590D02*
X494948115Y-240673590D01*
X494948115Y-240613590D02*
X497068115Y-240613590D01*
X494948115Y-240673590D02*
X497068115Y-240673590D01*
X497068115Y-240613590D02*
X497068115Y-240673590D01*
%TO.C,J8_2*%
X497448115Y-238553590D02*
X498508115Y-238553590D01*
X497448115Y-239613590D02*
X497448115Y-238553590D01*
X497448115Y-240613590D02*
X497448115Y-240673590D01*
X497448115Y-240613590D02*
X499568115Y-240613590D01*
X497448115Y-240673590D02*
X499568115Y-240673590D01*
X499568115Y-240613590D02*
X499568115Y-240673590D01*
%TO.C,J3_2*%
X231184115Y-238553590D02*
X232244115Y-238553590D01*
X231184115Y-239613590D02*
X231184115Y-238553590D01*
X231184115Y-240613590D02*
X231184115Y-240673590D01*
X231184115Y-240613590D02*
X233304115Y-240613590D01*
X231184115Y-240673590D02*
X233304115Y-240673590D01*
X233304115Y-240613590D02*
X233304115Y-240673590D01*
%TO.C,J1_1*%
X117152115Y-238613590D02*
X117152115Y-238553590D01*
X119272115Y-238553590D02*
X117152115Y-238553590D01*
X119272115Y-238613590D02*
X117152115Y-238613590D01*
X119272115Y-238613590D02*
X119272115Y-238553590D01*
X119272115Y-239613590D02*
X119272115Y-240673590D01*
X119272115Y-240673590D02*
X118212115Y-240673590D01*
%TO.C,J2_1*%
X155054115Y-238613590D02*
X155054115Y-238553590D01*
X157174115Y-238553590D02*
X155054115Y-238553590D01*
X157174115Y-238613590D02*
X155054115Y-238613590D01*
X157174115Y-238613590D02*
X157174115Y-238553590D01*
X157174115Y-239613590D02*
X157174115Y-240673590D01*
X157174115Y-240673590D02*
X156114115Y-240673590D01*
%TO.C,J5_2*%
X513923115Y-239113590D02*
X513923115Y-239053590D01*
X516043115Y-239053590D02*
X513923115Y-239053590D01*
X516043115Y-239113590D02*
X513923115Y-239113590D01*
X516043115Y-239113590D02*
X516043115Y-239053590D01*
X516043115Y-240113590D02*
X516043115Y-241173590D01*
X516043115Y-241173590D02*
X514983115Y-241173590D01*
%TO.C,J7_2*%
X345446115Y-238553590D02*
X346506115Y-238553590D01*
X345446115Y-239613590D02*
X345446115Y-238553590D01*
X345446115Y-240613590D02*
X345446115Y-240673590D01*
X345446115Y-240613590D02*
X347566115Y-240613590D01*
X345446115Y-240673590D02*
X347566115Y-240673590D01*
X347566115Y-240613590D02*
X347566115Y-240673590D01*
%TO.C,J4_1*%
X419106115Y-238553590D02*
X420166115Y-238553590D01*
X419106115Y-239613590D02*
X419106115Y-238553590D01*
X419106115Y-240613590D02*
X419106115Y-240673590D01*
X419106115Y-240613590D02*
X421226115Y-240613590D01*
X419106115Y-240673590D02*
X421226115Y-240673590D01*
X421226115Y-240613590D02*
X421226115Y-240673590D01*
%TO.C,J6_1*%
X304979115Y-238553590D02*
X306039115Y-238553590D01*
X304979115Y-239613590D02*
X304979115Y-238553590D01*
X304979115Y-240613590D02*
X304979115Y-240673590D01*
X304979115Y-240613590D02*
X307099115Y-240613590D01*
X304979115Y-240673590D02*
X307099115Y-240673590D01*
X307099115Y-240613590D02*
X307099115Y-240673590D01*
%TO.C,J6_2*%
X307479115Y-238553590D02*
X308539115Y-238553590D01*
X307479115Y-239613590D02*
X307479115Y-238553590D01*
X307479115Y-240613590D02*
X307479115Y-240673590D01*
X307479115Y-240613590D02*
X309599115Y-240613590D01*
X307479115Y-240673590D02*
X309599115Y-240673590D01*
X309599115Y-240613590D02*
X309599115Y-240673590D01*
%TO.C,J4_2*%
X421606115Y-238553590D02*
X422666115Y-238553590D01*
X421606115Y-239613590D02*
X421606115Y-238553590D01*
X421606115Y-240613590D02*
X421606115Y-240673590D01*
X421606115Y-240613590D02*
X423726115Y-240613590D01*
X421606115Y-240673590D02*
X423726115Y-240673590D01*
X423726115Y-240613590D02*
X423726115Y-240673590D01*
%TO.C,J3_1*%
X228684115Y-238553590D02*
X229744115Y-238553590D01*
X228684115Y-239613590D02*
X228684115Y-238553590D01*
X228684115Y-240613590D02*
X228684115Y-240673590D01*
X228684115Y-240613590D02*
X230804115Y-240613590D01*
X228684115Y-240673590D02*
X230804115Y-240673590D01*
X230804115Y-240613590D02*
X230804115Y-240673590D01*
%TO.C,J9*%
X522632115Y-196469463D02*
X528382115Y-196469463D01*
X522632115Y-197889463D02*
X522632115Y-196469463D01*
X522632115Y-223419463D02*
X523132115Y-223419463D01*
X522632115Y-224839463D02*
X522632115Y-223419463D01*
X523132115Y-197889463D02*
X522632115Y-197889463D01*
X523132115Y-223419463D02*
X523132115Y-197889463D01*
X528382115Y-224839463D02*
X522632115Y-224839463D01*
X529922115Y-224839463D02*
X530222115Y-224839463D01*
X530222115Y-196469463D02*
X529922115Y-196469463D01*
X530222115Y-224839463D02*
X530222115Y-196469463D01*
%TO.C,J2_2*%
X152554115Y-238613590D02*
X152554115Y-238553590D01*
X154674115Y-238553590D02*
X152554115Y-238553590D01*
X154674115Y-238613590D02*
X152554115Y-238613590D01*
X154674115Y-238613590D02*
X154674115Y-238553590D01*
X154674115Y-239613590D02*
X154674115Y-240673590D01*
X154674115Y-240673590D02*
X153614115Y-240673590D01*
%TD*%
M02*
