%TF.GenerationSoftware,KiCad,Pcbnew,9.0.4*%
%TF.CreationDate,2025-09-16T19:42:10+08:00*%
%TF.ProjectId,accum_pcb_under,61636375-6d5f-4706-9362-5f756e646572,rev?*%
%TF.SameCoordinates,Original*%
%TF.FileFunction,Copper,L3,Inr*%
%TF.FilePolarity,Positive*%
%FSLAX46Y46*%
G04 Gerber Fmt 4.6, Leading zero omitted, Abs format (unit mm)*
G04 Created by KiCad (PCBNEW 9.0.4) date 2025-09-16 19:42:10*
%MOMM*%
%LPD*%
G01*
G04 APERTURE LIST*
G04 Aperture macros list*
%AMRoundRect*
0 Rectangle with rounded corners*
0 $1 Rounding radius*
0 $2 $3 $4 $5 $6 $7 $8 $9 X,Y pos of 4 corners*
0 Add a 4 corners polygon primitive as box body*
4,1,4,$2,$3,$4,$5,$6,$7,$8,$9,$2,$3,0*
0 Add four circle primitives for the rounded corners*
1,1,$1+$1,$2,$3*
1,1,$1+$1,$4,$5*
1,1,$1+$1,$6,$7*
1,1,$1+$1,$8,$9*
0 Add four rect primitives between the rounded corners*
20,1,$1+$1,$2,$3,$4,$5,0*
20,1,$1+$1,$4,$5,$6,$7,0*
20,1,$1+$1,$6,$7,$8,$9,0*
20,1,$1+$1,$8,$9,$2,$3,0*%
G04 Aperture macros list end*
%TA.AperFunction,ComponentPad*%
%ADD10C,4.200000*%
%TD*%
%TA.AperFunction,ComponentPad*%
%ADD11R,1.350000X1.350000*%
%TD*%
%TA.AperFunction,ComponentPad*%
%ADD12RoundRect,0.250001X0.499999X-0.499999X0.499999X0.499999X-0.499999X0.499999X-0.499999X-0.499999X0*%
%TD*%
%TA.AperFunction,ComponentPad*%
%ADD13C,1.500000*%
%TD*%
%TA.AperFunction,Conductor*%
%ADD14C,0.381000*%
%TD*%
G04 APERTURE END LIST*
D10*
%TO.N,N/C*%
%TO.C,*%
X507381782Y-225121090D03*
%TD*%
%TO.N,N/C*%
%TO.C,*%
X126914767Y-196175590D03*
%TD*%
%TO.N,N/C*%
%TO.C,*%
X203007448Y-196176090D03*
%TD*%
%TO.N,N/C*%
%TO.C,*%
X393241100Y-196183590D03*
%TD*%
D11*
%TO.N,/temp_5_1*%
%TO.C,J5_1*%
X517483115Y-240113590D03*
%TD*%
D10*
%TO.N,N/C*%
%TO.C,*%
X355195115Y-225120090D03*
%TD*%
D11*
%TO.N,/temp_7_1*%
%TO.C,J7_1*%
X344006115Y-239613590D03*
%TD*%
%TO.N,/temp_1_2*%
%TO.C,J1_2*%
X115712115Y-239613590D03*
%TD*%
D10*
%TO.N,N/C*%
%TO.C,*%
X182962144Y-225114090D03*
%TD*%
%TO.N,N/C*%
%TO.C,*%
X279101115Y-196179090D03*
%TD*%
%TO.N,N/C*%
%TO.C,*%
X259055811Y-225115090D03*
%TD*%
%TO.N,N/C*%
%TO.C,*%
X241054826Y-225113590D03*
%TD*%
D11*
%TO.N,/temp_8_1*%
%TO.C,J8_1*%
X496008115Y-239613590D03*
%TD*%
D10*
%TO.N,N/C*%
%TO.C,*%
X431288478Y-225121090D03*
%TD*%
%TO.N,N/C*%
%TO.C,*%
X507381782Y-196188090D03*
%TD*%
%TO.N,N/C*%
%TO.C,*%
X469335130Y-225122590D03*
%TD*%
%TO.N,N/C*%
%TO.C,*%
X335149085Y-196182090D03*
%TD*%
%TO.N,N/C*%
%TO.C,*%
X221008796Y-196177590D03*
%TD*%
D11*
%TO.N,/temp_8_2*%
%TO.C,J8_2*%
X498508115Y-239613590D03*
%TD*%
D10*
%TO.N,N/C*%
%TO.C,*%
X355194752Y-196182090D03*
%TD*%
%TO.N,N/C*%
%TO.C,*%
X144915796Y-225112590D03*
%TD*%
D11*
%TO.N,/temp_3_2*%
%TO.C,J3_2*%
X232244115Y-239613590D03*
%TD*%
%TO.N,/temp_1_1*%
%TO.C,J1_1*%
X118212115Y-239613590D03*
%TD*%
D10*
%TO.N,N/C*%
%TO.C,*%
X241054463Y-196177590D03*
%TD*%
D11*
%TO.N,/temp_2_1*%
%TO.C,J2_1*%
X156114115Y-239613590D03*
%TD*%
D10*
%TO.N,N/C*%
%TO.C,*%
X106869100Y-196175590D03*
%TD*%
%TO.N,N/C*%
%TO.C,*%
X487336115Y-196188090D03*
%TD*%
D11*
%TO.N,/temp_5_2*%
%TO.C,J5_2*%
X514983115Y-240113590D03*
%TD*%
D10*
%TO.N,N/C*%
%TO.C,*%
X221009159Y-225113590D03*
%TD*%
%TO.N,N/C*%
%TO.C,*%
X297102463Y-196180590D03*
%TD*%
%TO.N,N/C*%
%TO.C,*%
X411242448Y-196185090D03*
%TD*%
%TO.N,N/C*%
%TO.C,*%
X106869463Y-225113590D03*
%TD*%
%TO.N,N/C*%
%TO.C,*%
X373195433Y-196183590D03*
%TD*%
%TO.N,N/C*%
%TO.C,*%
X317148130Y-196180590D03*
%TD*%
%TO.N,N/C*%
%TO.C,*%
X297102463Y-225113590D03*
%TD*%
D11*
%TO.N,/temp_7_2*%
%TO.C,J7_2*%
X346506115Y-239613590D03*
%TD*%
D10*
%TO.N,N/C*%
%TO.C,*%
X126915130Y-225113590D03*
%TD*%
%TO.N,N/C*%
%TO.C,*%
X431288115Y-196185090D03*
%TD*%
%TO.N,N/C*%
%TO.C,*%
X393241463Y-225121590D03*
%TD*%
%TO.N,N/C*%
%TO.C,*%
X259055448Y-196179090D03*
%TD*%
%TO.N,N/C*%
%TO.C,*%
X335149448Y-225120090D03*
%TD*%
%TO.N,N/C*%
%TO.C,*%
X164961100Y-196174590D03*
%TD*%
D11*
%TO.N,/temp_4_1*%
%TO.C,J4_1*%
X420166115Y-239613590D03*
%TD*%
D10*
%TO.N,N/C*%
%TO.C,*%
X487336115Y-225121090D03*
%TD*%
%TO.N,N/C*%
%TO.C,*%
X449289463Y-225122590D03*
%TD*%
%TO.N,N/C*%
%TO.C,*%
X203007811Y-225114090D03*
%TD*%
%TO.N,N/C*%
%TO.C,*%
X144915433Y-196174590D03*
%TD*%
D11*
%TO.N,/temp_6_1*%
%TO.C,J6_1*%
X306039115Y-239613590D03*
%TD*%
%TO.N,/temp_6_2*%
%TO.C,J6_2*%
X308539115Y-239613590D03*
%TD*%
D10*
%TO.N,N/C*%
%TO.C,*%
X469334767Y-196186590D03*
%TD*%
D11*
%TO.N,/temp_4_2*%
%TO.C,J4_2*%
X422666115Y-239613590D03*
%TD*%
D10*
%TO.N,N/C*%
%TO.C,*%
X317148130Y-225113590D03*
%TD*%
D11*
%TO.N,/temp_3_1*%
%TO.C,J3_1*%
X229744115Y-239613590D03*
%TD*%
D12*
%TO.N,/temp_4_1*%
%TO.C,J9*%
X525212115Y-221154463D03*
D13*
%TO.N,/temp_4_2*%
X525212115Y-218154463D03*
%TO.N,/temp_6_2*%
X525212115Y-215154463D03*
%TO.N,/temp_6_1*%
X525212115Y-212154463D03*
%TO.N,/temp_3_2*%
X525212115Y-209154463D03*
%TO.N,/temp_3_1*%
X525212115Y-206154463D03*
%TO.N,/temp_1_2*%
X525212115Y-203154463D03*
%TO.N,/temp_1_1*%
X525212115Y-200154463D03*
%TO.N,/temp_5_1*%
X528212115Y-221154463D03*
%TO.N,/temp_5_2*%
X528212115Y-218154463D03*
%TO.N,/temp_8_2*%
X528212115Y-215154463D03*
%TO.N,/temp_8_1*%
X528212115Y-212154463D03*
%TO.N,/temp_7_2*%
X528212115Y-209154463D03*
%TO.N,/temp_7_1*%
X528212115Y-206154463D03*
%TO.N,/temp_2_2*%
X528212115Y-203154463D03*
%TO.N,/temp_2_1*%
X528212115Y-200154463D03*
%TD*%
D10*
%TO.N,N/C*%
%TO.C,*%
X411242811Y-225121090D03*
%TD*%
%TO.N,N/C*%
%TO.C,*%
X373195796Y-225121590D03*
%TD*%
%TO.N,N/C*%
%TO.C,*%
X449289100Y-196186590D03*
%TD*%
D11*
%TO.N,/temp_2_2*%
%TO.C,J2_2*%
X153614115Y-239613590D03*
%TD*%
D10*
%TO.N,N/C*%
%TO.C,*%
X182961781Y-196176090D03*
%TD*%
%TO.N,N/C*%
%TO.C,*%
X279101478Y-225115090D03*
%TD*%
%TO.N,N/C*%
%TO.C,*%
X164961463Y-225112590D03*
%TD*%
D14*
%TO.N,/temp_7_2*%
X526435988Y-210930590D02*
X528212115Y-209154463D01*
X345544115Y-238651590D02*
X345544115Y-212425590D01*
X346506115Y-239613590D02*
X345544115Y-238651590D01*
X347039115Y-210930590D02*
X526435988Y-210930590D01*
X345544115Y-212425590D02*
X347039115Y-210930590D01*
%TO.N,/temp_5_2*%
X526763115Y-219603463D02*
X526763115Y-230174590D01*
X526763115Y-230174590D02*
X518494115Y-238443590D01*
X528212115Y-218154463D02*
X526763115Y-219603463D01*
X518494115Y-238443590D02*
X516653115Y-238443590D01*
X516653115Y-238443590D02*
X514983115Y-240113590D01*
%TO.N,/temp_8_2*%
X517277187Y-242478590D02*
X529928115Y-229827662D01*
X498508115Y-239613590D02*
X498508115Y-241213590D01*
X498508115Y-241213590D02*
X499773115Y-242478590D01*
X529928115Y-229827662D02*
X529928115Y-216870463D01*
X529928115Y-216870463D02*
X528212115Y-215154463D01*
X499773115Y-242478590D02*
X517277187Y-242478590D01*
%TO.N,/temp_5_1*%
X528212115Y-230720590D02*
X518819115Y-240113590D01*
X518819115Y-240113590D02*
X517483115Y-240113590D01*
X528212115Y-221154463D02*
X528212115Y-230720590D01*
%TO.N,/temp_2_1*%
X156114115Y-239613590D02*
X156114115Y-238275590D01*
X515457115Y-180736590D02*
X528212115Y-193491590D01*
X155157115Y-237318590D02*
X155157115Y-183405590D01*
X155157115Y-183405590D02*
X157826115Y-180736590D01*
X528212115Y-193491590D02*
X528212115Y-200154463D01*
X157826115Y-180736590D02*
X515457115Y-180736590D01*
X156114115Y-238275590D02*
X155157115Y-237318590D01*
%TO.N,/temp_2_2*%
X516413115Y-178462590D02*
X529792115Y-191841590D01*
X153614115Y-239613590D02*
X153614115Y-238275590D01*
X529792115Y-191841590D02*
X529792115Y-201574463D01*
X154575115Y-183164518D02*
X159277043Y-178462590D01*
X529792115Y-201574463D02*
X528212115Y-203154463D01*
X154575115Y-237314590D02*
X154575115Y-183164518D01*
X159277043Y-178462590D02*
X516413115Y-178462590D01*
X153614115Y-238275590D02*
X154575115Y-237314590D01*
%TO.N,/temp_8_1*%
X496008115Y-241253590D02*
X498123115Y-243368590D01*
X496008115Y-239613590D02*
X496008115Y-241253590D01*
X531071115Y-215013463D02*
X528212115Y-212154463D01*
X531071115Y-229507734D02*
X531071115Y-215013463D01*
X517210259Y-243368590D02*
X531071115Y-229507734D01*
X498123115Y-243368590D02*
X517210259Y-243368590D01*
%TO.N,/temp_7_1*%
X344962115Y-238657590D02*
X344962115Y-212184518D01*
X346798043Y-210348590D02*
X521126115Y-210348590D01*
X344962115Y-212184518D02*
X346798043Y-210348590D01*
X344006115Y-239613590D02*
X344962115Y-238657590D01*
X523804115Y-207670590D02*
X526695988Y-207670590D01*
X521126115Y-210348590D02*
X523804115Y-207670590D01*
X526695988Y-207670590D02*
X528212115Y-206154463D01*
%TD*%
M02*
