%TF.GenerationSoftware,KiCad,Pcbnew,9.0.1*%
%TF.CreationDate,2025-11-10T14:14:14+08:00*%
%TF.ProjectId,IMD_TSMS_latch_logic,494d445f-5453-44d5-935f-6c617463685f,rev?*%
%TF.SameCoordinates,Original*%
%TF.FileFunction,Drillmap*%
%TF.FilePolarity,Positive*%
%FSLAX45Y45*%
G04 Gerber Fmt 4.5, Leading zero omitted, Abs format (unit mm)*
G04 Created by KiCad (PCBNEW 9.0.1) date 2025-11-10 14:14:14*
%MOMM*%
%LPD*%
G01*
G04 APERTURE LIST*
%ADD10C,0.050000*%
%ADD11C,0.200000*%
%ADD12C,0.127000*%
%ADD13C,0.430000*%
G04 APERTURE END LIST*
D10*
X9925000Y-8975000D02*
X11925000Y-8975000D01*
X11925000Y-9025000D01*
X9925000Y-9025000D01*
X9925000Y-8975000D01*
X8200000Y-8975000D02*
X9575000Y-8975000D01*
X9575000Y-9025000D01*
X8200000Y-9025000D01*
X8200000Y-8975000D01*
X12000000Y-11475000D02*
X12050000Y-11475000D01*
X12050000Y-13625000D01*
X12000000Y-13625000D01*
X12000000Y-11475000D01*
X8000000Y-7012000D02*
X18000000Y-7012000D01*
X18000000Y-13712000D01*
X8000000Y-13712000D01*
X8000000Y-7012000D01*
X12000000Y-9100000D02*
X12065040Y-9100000D01*
X12065040Y-11300000D01*
X12000000Y-11300000D01*
X12000000Y-9100000D01*
X12000000Y-8075000D02*
X12050000Y-8075000D01*
X12050000Y-8925000D01*
X12000000Y-8925000D01*
X12000000Y-8075000D01*
X12000000Y-7100000D02*
X12050000Y-7100000D01*
X12050000Y-7975000D01*
X12000000Y-7975000D01*
X12000000Y-7100000D01*
D11*
D12*
X9165500Y-7111500D02*
X9292500Y-7238500D01*
X9292500Y-7111500D02*
X9165500Y-7238500D01*
X9165500Y-8011500D02*
X9292500Y-8138500D01*
X9292500Y-8011500D02*
X9165500Y-8138500D01*
X9936500Y-7649000D02*
X10063500Y-7776000D01*
X10063500Y-7649000D02*
X9936500Y-7776000D01*
X10836500Y-7649000D02*
X10963500Y-7776000D01*
X10963500Y-7649000D02*
X10836500Y-7776000D01*
X11624000Y-11536500D02*
X11751000Y-11663500D01*
X11751000Y-11536500D02*
X11624000Y-11663500D01*
X11624000Y-12436500D02*
X11751000Y-12563500D01*
X11751000Y-12436500D02*
X11624000Y-12563500D01*
X11632500Y-10386500D02*
X11759500Y-10513500D01*
X11759500Y-10386500D02*
X11632500Y-10513500D01*
X11632500Y-11286500D02*
X11759500Y-11413500D01*
X11759500Y-11286500D02*
X11632500Y-11413500D01*
X12984060Y-11544020D02*
X13111060Y-11671020D01*
X13111060Y-11544020D02*
X12984060Y-11671020D01*
X12984060Y-12444020D02*
X13111060Y-12571020D01*
X13111060Y-12444020D02*
X12984060Y-12571020D01*
X12990500Y-9311500D02*
X13117500Y-9438500D01*
X13117500Y-9311500D02*
X12990500Y-9438500D01*
X12990500Y-10211500D02*
X13117500Y-10338500D01*
X13117500Y-10211500D02*
X12990500Y-10338500D01*
X12991000Y-8196500D02*
X13118000Y-8323500D01*
X13118000Y-8196500D02*
X12991000Y-8323500D01*
X12991000Y-9096500D02*
X13118000Y-9223500D01*
X13118000Y-9096500D02*
X12991000Y-9223500D01*
X12991000Y-10396500D02*
X13118000Y-10523500D01*
X13118000Y-10396500D02*
X12991000Y-10523500D01*
X12991000Y-11296500D02*
X13118000Y-11423500D01*
X13118000Y-11296500D02*
X12991000Y-11423500D01*
X17516260Y-11437060D02*
X17643260Y-11564060D01*
X17643260Y-11437060D02*
X17516260Y-11564060D01*
X17516260Y-12337060D02*
X17643260Y-12464060D01*
X17643260Y-12337060D02*
X17516260Y-12464060D01*
D13*
X8715000Y-7537000D02*
G75*
G02*
X8285000Y-7537000I-215000J0D01*
G01*
X8285000Y-7537000D02*
G75*
G02*
X8715000Y-7537000I215000J0D01*
G01*
X8715000Y-8500000D02*
G75*
G02*
X8285000Y-8500000I-215000J0D01*
G01*
X8285000Y-8500000D02*
G75*
G02*
X8715000Y-8500000I215000J0D01*
G01*
X8715000Y-9600000D02*
G75*
G02*
X8285000Y-9600000I-215000J0D01*
G01*
X8285000Y-9600000D02*
G75*
G02*
X8715000Y-9600000I215000J0D01*
G01*
X8715000Y-13200000D02*
G75*
G02*
X8285000Y-13200000I-215000J0D01*
G01*
X8285000Y-13200000D02*
G75*
G02*
X8715000Y-13200000I215000J0D01*
G01*
X11715000Y-7537000D02*
G75*
G02*
X11285000Y-7537000I-215000J0D01*
G01*
X11285000Y-7537000D02*
G75*
G02*
X11715000Y-7537000I215000J0D01*
G01*
X11715000Y-8500000D02*
G75*
G02*
X11285000Y-8500000I-215000J0D01*
G01*
X11285000Y-8500000D02*
G75*
G02*
X11715000Y-8500000I215000J0D01*
G01*
X11715000Y-9600000D02*
G75*
G02*
X11285000Y-9600000I-215000J0D01*
G01*
X11285000Y-9600000D02*
G75*
G02*
X11715000Y-9600000I215000J0D01*
G01*
X11715000Y-13200000D02*
G75*
G02*
X11285000Y-13200000I-215000J0D01*
G01*
X11285000Y-13200000D02*
G75*
G02*
X11715000Y-13200000I215000J0D01*
G01*
X12765250Y-7537000D02*
G75*
G02*
X12335250Y-7537000I-215000J0D01*
G01*
X12335250Y-7537000D02*
G75*
G02*
X12765250Y-7537000I215000J0D01*
G01*
X12765250Y-13212000D02*
G75*
G02*
X12335250Y-13212000I-215000J0D01*
G01*
X12335250Y-13212000D02*
G75*
G02*
X12765250Y-13212000I215000J0D01*
G01*
X17765250Y-7537000D02*
G75*
G02*
X17335250Y-7537000I-215000J0D01*
G01*
X17335250Y-7537000D02*
G75*
G02*
X17765250Y-7537000I215000J0D01*
G01*
X17765250Y-13212000D02*
G75*
G02*
X17335250Y-13212000I-215000J0D01*
G01*
X17335250Y-13212000D02*
G75*
G02*
X17765250Y-13212000I215000J0D01*
G01*
D11*
X8258277Y-14025984D02*
X8258277Y-13825984D01*
X8258277Y-13825984D02*
X8305896Y-13825984D01*
X8305896Y-13825984D02*
X8334467Y-13835508D01*
X8334467Y-13835508D02*
X8353515Y-13854555D01*
X8353515Y-13854555D02*
X8363039Y-13873603D01*
X8363039Y-13873603D02*
X8372562Y-13911698D01*
X8372562Y-13911698D02*
X8372562Y-13940269D01*
X8372562Y-13940269D02*
X8363039Y-13978365D01*
X8363039Y-13978365D02*
X8353515Y-13997412D01*
X8353515Y-13997412D02*
X8334467Y-14016460D01*
X8334467Y-14016460D02*
X8305896Y-14025984D01*
X8305896Y-14025984D02*
X8258277Y-14025984D01*
X8458277Y-14025984D02*
X8458277Y-13892650D01*
X8458277Y-13930746D02*
X8467801Y-13911698D01*
X8467801Y-13911698D02*
X8477324Y-13902174D01*
X8477324Y-13902174D02*
X8496372Y-13892650D01*
X8496372Y-13892650D02*
X8515420Y-13892650D01*
X8582086Y-14025984D02*
X8582086Y-13892650D01*
X8582086Y-13825984D02*
X8572563Y-13835508D01*
X8572563Y-13835508D02*
X8582086Y-13845031D01*
X8582086Y-13845031D02*
X8591610Y-13835508D01*
X8591610Y-13835508D02*
X8582086Y-13825984D01*
X8582086Y-13825984D02*
X8582086Y-13845031D01*
X8705896Y-14025984D02*
X8686848Y-14016460D01*
X8686848Y-14016460D02*
X8677324Y-13997412D01*
X8677324Y-13997412D02*
X8677324Y-13825984D01*
X8810658Y-14025984D02*
X8791610Y-14016460D01*
X8791610Y-14016460D02*
X8782086Y-13997412D01*
X8782086Y-13997412D02*
X8782086Y-13825984D01*
X9039229Y-14025984D02*
X9039229Y-13825984D01*
X9039229Y-13825984D02*
X9105896Y-13968841D01*
X9105896Y-13968841D02*
X9172563Y-13825984D01*
X9172563Y-13825984D02*
X9172563Y-14025984D01*
X9353515Y-14025984D02*
X9353515Y-13921222D01*
X9353515Y-13921222D02*
X9343991Y-13902174D01*
X9343991Y-13902174D02*
X9324944Y-13892650D01*
X9324944Y-13892650D02*
X9286848Y-13892650D01*
X9286848Y-13892650D02*
X9267801Y-13902174D01*
X9353515Y-14016460D02*
X9334467Y-14025984D01*
X9334467Y-14025984D02*
X9286848Y-14025984D01*
X9286848Y-14025984D02*
X9267801Y-14016460D01*
X9267801Y-14016460D02*
X9258277Y-13997412D01*
X9258277Y-13997412D02*
X9258277Y-13978365D01*
X9258277Y-13978365D02*
X9267801Y-13959317D01*
X9267801Y-13959317D02*
X9286848Y-13949793D01*
X9286848Y-13949793D02*
X9334467Y-13949793D01*
X9334467Y-13949793D02*
X9353515Y-13940269D01*
X9448753Y-13892650D02*
X9448753Y-14092650D01*
X9448753Y-13902174D02*
X9467801Y-13892650D01*
X9467801Y-13892650D02*
X9505896Y-13892650D01*
X9505896Y-13892650D02*
X9524944Y-13902174D01*
X9524944Y-13902174D02*
X9534467Y-13911698D01*
X9534467Y-13911698D02*
X9543991Y-13930746D01*
X9543991Y-13930746D02*
X9543991Y-13987888D01*
X9543991Y-13987888D02*
X9534467Y-14006936D01*
X9534467Y-14006936D02*
X9524944Y-14016460D01*
X9524944Y-14016460D02*
X9505896Y-14025984D01*
X9505896Y-14025984D02*
X9467801Y-14025984D01*
X9467801Y-14025984D02*
X9448753Y-14016460D01*
X9629705Y-14006936D02*
X9639229Y-14016460D01*
X9639229Y-14016460D02*
X9629705Y-14025984D01*
X9629705Y-14025984D02*
X9620182Y-14016460D01*
X9620182Y-14016460D02*
X9629705Y-14006936D01*
X9629705Y-14006936D02*
X9629705Y-14025984D01*
X9629705Y-13902174D02*
X9639229Y-13911698D01*
X9639229Y-13911698D02*
X9629705Y-13921222D01*
X9629705Y-13921222D02*
X9620182Y-13911698D01*
X9620182Y-13911698D02*
X9629705Y-13902174D01*
X9629705Y-13902174D02*
X9629705Y-13921222D01*
D12*
X7870500Y-14291000D02*
X7997500Y-14418000D01*
X7997500Y-14291000D02*
X7870500Y-14418000D01*
D11*
X8363039Y-14445984D02*
X8248753Y-14445984D01*
X8305896Y-14445984D02*
X8305896Y-14245984D01*
X8305896Y-14245984D02*
X8286848Y-14274555D01*
X8286848Y-14274555D02*
X8267801Y-14293603D01*
X8267801Y-14293603D02*
X8248753Y-14303127D01*
X8448753Y-14426936D02*
X8458277Y-14436460D01*
X8458277Y-14436460D02*
X8448753Y-14445984D01*
X8448753Y-14445984D02*
X8439229Y-14436460D01*
X8439229Y-14436460D02*
X8448753Y-14426936D01*
X8448753Y-14426936D02*
X8448753Y-14445984D01*
X8534467Y-14265031D02*
X8543991Y-14255508D01*
X8543991Y-14255508D02*
X8563039Y-14245984D01*
X8563039Y-14245984D02*
X8610658Y-14245984D01*
X8610658Y-14245984D02*
X8629705Y-14255508D01*
X8629705Y-14255508D02*
X8639229Y-14265031D01*
X8639229Y-14265031D02*
X8648753Y-14284079D01*
X8648753Y-14284079D02*
X8648753Y-14303127D01*
X8648753Y-14303127D02*
X8639229Y-14331698D01*
X8639229Y-14331698D02*
X8524944Y-14445984D01*
X8524944Y-14445984D02*
X8648753Y-14445984D01*
X8715420Y-14245984D02*
X8848753Y-14245984D01*
X8848753Y-14245984D02*
X8763039Y-14445984D01*
X8963039Y-14245984D02*
X8982086Y-14245984D01*
X8982086Y-14245984D02*
X9001134Y-14255508D01*
X9001134Y-14255508D02*
X9010658Y-14265031D01*
X9010658Y-14265031D02*
X9020182Y-14284079D01*
X9020182Y-14284079D02*
X9029705Y-14322174D01*
X9029705Y-14322174D02*
X9029705Y-14369793D01*
X9029705Y-14369793D02*
X9020182Y-14407888D01*
X9020182Y-14407888D02*
X9010658Y-14426936D01*
X9010658Y-14426936D02*
X9001134Y-14436460D01*
X9001134Y-14436460D02*
X8982086Y-14445984D01*
X8982086Y-14445984D02*
X8963039Y-14445984D01*
X8963039Y-14445984D02*
X8943991Y-14436460D01*
X8943991Y-14436460D02*
X8934467Y-14426936D01*
X8934467Y-14426936D02*
X8924944Y-14407888D01*
X8924944Y-14407888D02*
X8915420Y-14369793D01*
X8915420Y-14369793D02*
X8915420Y-14322174D01*
X8915420Y-14322174D02*
X8924944Y-14284079D01*
X8924944Y-14284079D02*
X8934467Y-14265031D01*
X8934467Y-14265031D02*
X8943991Y-14255508D01*
X8943991Y-14255508D02*
X8963039Y-14245984D01*
X9115420Y-14445984D02*
X9115420Y-14312650D01*
X9115420Y-14331698D02*
X9124944Y-14322174D01*
X9124944Y-14322174D02*
X9143991Y-14312650D01*
X9143991Y-14312650D02*
X9172563Y-14312650D01*
X9172563Y-14312650D02*
X9191610Y-14322174D01*
X9191610Y-14322174D02*
X9201134Y-14341222D01*
X9201134Y-14341222D02*
X9201134Y-14445984D01*
X9201134Y-14341222D02*
X9210658Y-14322174D01*
X9210658Y-14322174D02*
X9229705Y-14312650D01*
X9229705Y-14312650D02*
X9258277Y-14312650D01*
X9258277Y-14312650D02*
X9277325Y-14322174D01*
X9277325Y-14322174D02*
X9286848Y-14341222D01*
X9286848Y-14341222D02*
X9286848Y-14445984D01*
X9382086Y-14445984D02*
X9382086Y-14312650D01*
X9382086Y-14331698D02*
X9391610Y-14322174D01*
X9391610Y-14322174D02*
X9410658Y-14312650D01*
X9410658Y-14312650D02*
X9439229Y-14312650D01*
X9439229Y-14312650D02*
X9458277Y-14322174D01*
X9458277Y-14322174D02*
X9467801Y-14341222D01*
X9467801Y-14341222D02*
X9467801Y-14445984D01*
X9467801Y-14341222D02*
X9477325Y-14322174D01*
X9477325Y-14322174D02*
X9496372Y-14312650D01*
X9496372Y-14312650D02*
X9524944Y-14312650D01*
X9524944Y-14312650D02*
X9543991Y-14322174D01*
X9543991Y-14322174D02*
X9553515Y-14341222D01*
X9553515Y-14341222D02*
X9553515Y-14445984D01*
X9943991Y-14236460D02*
X9772563Y-14493603D01*
X10201134Y-14245984D02*
X10220182Y-14245984D01*
X10220182Y-14245984D02*
X10239229Y-14255508D01*
X10239229Y-14255508D02*
X10248753Y-14265031D01*
X10248753Y-14265031D02*
X10258277Y-14284079D01*
X10258277Y-14284079D02*
X10267801Y-14322174D01*
X10267801Y-14322174D02*
X10267801Y-14369793D01*
X10267801Y-14369793D02*
X10258277Y-14407888D01*
X10258277Y-14407888D02*
X10248753Y-14426936D01*
X10248753Y-14426936D02*
X10239229Y-14436460D01*
X10239229Y-14436460D02*
X10220182Y-14445984D01*
X10220182Y-14445984D02*
X10201134Y-14445984D01*
X10201134Y-14445984D02*
X10182087Y-14436460D01*
X10182087Y-14436460D02*
X10172563Y-14426936D01*
X10172563Y-14426936D02*
X10163039Y-14407888D01*
X10163039Y-14407888D02*
X10153515Y-14369793D01*
X10153515Y-14369793D02*
X10153515Y-14322174D01*
X10153515Y-14322174D02*
X10163039Y-14284079D01*
X10163039Y-14284079D02*
X10172563Y-14265031D01*
X10172563Y-14265031D02*
X10182087Y-14255508D01*
X10182087Y-14255508D02*
X10201134Y-14245984D01*
X10353515Y-14426936D02*
X10363039Y-14436460D01*
X10363039Y-14436460D02*
X10353515Y-14445984D01*
X10353515Y-14445984D02*
X10343991Y-14436460D01*
X10343991Y-14436460D02*
X10353515Y-14426936D01*
X10353515Y-14426936D02*
X10353515Y-14445984D01*
X10486848Y-14245984D02*
X10505896Y-14245984D01*
X10505896Y-14245984D02*
X10524944Y-14255508D01*
X10524944Y-14255508D02*
X10534468Y-14265031D01*
X10534468Y-14265031D02*
X10543991Y-14284079D01*
X10543991Y-14284079D02*
X10553515Y-14322174D01*
X10553515Y-14322174D02*
X10553515Y-14369793D01*
X10553515Y-14369793D02*
X10543991Y-14407888D01*
X10543991Y-14407888D02*
X10534468Y-14426936D01*
X10534468Y-14426936D02*
X10524944Y-14436460D01*
X10524944Y-14436460D02*
X10505896Y-14445984D01*
X10505896Y-14445984D02*
X10486848Y-14445984D01*
X10486848Y-14445984D02*
X10467801Y-14436460D01*
X10467801Y-14436460D02*
X10458277Y-14426936D01*
X10458277Y-14426936D02*
X10448753Y-14407888D01*
X10448753Y-14407888D02*
X10439229Y-14369793D01*
X10439229Y-14369793D02*
X10439229Y-14322174D01*
X10439229Y-14322174D02*
X10448753Y-14284079D01*
X10448753Y-14284079D02*
X10458277Y-14265031D01*
X10458277Y-14265031D02*
X10467801Y-14255508D01*
X10467801Y-14255508D02*
X10486848Y-14245984D01*
X10734468Y-14245984D02*
X10639229Y-14245984D01*
X10639229Y-14245984D02*
X10629706Y-14341222D01*
X10629706Y-14341222D02*
X10639229Y-14331698D01*
X10639229Y-14331698D02*
X10658277Y-14322174D01*
X10658277Y-14322174D02*
X10705896Y-14322174D01*
X10705896Y-14322174D02*
X10724944Y-14331698D01*
X10724944Y-14331698D02*
X10734468Y-14341222D01*
X10734468Y-14341222D02*
X10743991Y-14360269D01*
X10743991Y-14360269D02*
X10743991Y-14407888D01*
X10743991Y-14407888D02*
X10734468Y-14426936D01*
X10734468Y-14426936D02*
X10724944Y-14436460D01*
X10724944Y-14436460D02*
X10705896Y-14445984D01*
X10705896Y-14445984D02*
X10658277Y-14445984D01*
X10658277Y-14445984D02*
X10639229Y-14436460D01*
X10639229Y-14436460D02*
X10629706Y-14426936D01*
X10867801Y-14245984D02*
X10886849Y-14245984D01*
X10886849Y-14245984D02*
X10905896Y-14255508D01*
X10905896Y-14255508D02*
X10915420Y-14265031D01*
X10915420Y-14265031D02*
X10924944Y-14284079D01*
X10924944Y-14284079D02*
X10934468Y-14322174D01*
X10934468Y-14322174D02*
X10934468Y-14369793D01*
X10934468Y-14369793D02*
X10924944Y-14407888D01*
X10924944Y-14407888D02*
X10915420Y-14426936D01*
X10915420Y-14426936D02*
X10905896Y-14436460D01*
X10905896Y-14436460D02*
X10886849Y-14445984D01*
X10886849Y-14445984D02*
X10867801Y-14445984D01*
X10867801Y-14445984D02*
X10848753Y-14436460D01*
X10848753Y-14436460D02*
X10839229Y-14426936D01*
X10839229Y-14426936D02*
X10829706Y-14407888D01*
X10829706Y-14407888D02*
X10820182Y-14369793D01*
X10820182Y-14369793D02*
X10820182Y-14322174D01*
X10820182Y-14322174D02*
X10829706Y-14284079D01*
X10829706Y-14284079D02*
X10839229Y-14265031D01*
X10839229Y-14265031D02*
X10848753Y-14255508D01*
X10848753Y-14255508D02*
X10867801Y-14245984D01*
X11058277Y-14245984D02*
X11077325Y-14245984D01*
X11077325Y-14245984D02*
X11096372Y-14255508D01*
X11096372Y-14255508D02*
X11105896Y-14265031D01*
X11105896Y-14265031D02*
X11115420Y-14284079D01*
X11115420Y-14284079D02*
X11124944Y-14322174D01*
X11124944Y-14322174D02*
X11124944Y-14369793D01*
X11124944Y-14369793D02*
X11115420Y-14407888D01*
X11115420Y-14407888D02*
X11105896Y-14426936D01*
X11105896Y-14426936D02*
X11096372Y-14436460D01*
X11096372Y-14436460D02*
X11077325Y-14445984D01*
X11077325Y-14445984D02*
X11058277Y-14445984D01*
X11058277Y-14445984D02*
X11039229Y-14436460D01*
X11039229Y-14436460D02*
X11029706Y-14426936D01*
X11029706Y-14426936D02*
X11020182Y-14407888D01*
X11020182Y-14407888D02*
X11010658Y-14369793D01*
X11010658Y-14369793D02*
X11010658Y-14322174D01*
X11010658Y-14322174D02*
X11020182Y-14284079D01*
X11020182Y-14284079D02*
X11029706Y-14265031D01*
X11029706Y-14265031D02*
X11039229Y-14255508D01*
X11039229Y-14255508D02*
X11058277Y-14245984D01*
X11201134Y-14245984D02*
X11201134Y-14284079D01*
X11277325Y-14245984D02*
X11277325Y-14284079D01*
X11572563Y-14522174D02*
X11563039Y-14512650D01*
X11563039Y-14512650D02*
X11543991Y-14484079D01*
X11543991Y-14484079D02*
X11534468Y-14465031D01*
X11534468Y-14465031D02*
X11524944Y-14436460D01*
X11524944Y-14436460D02*
X11515420Y-14388841D01*
X11515420Y-14388841D02*
X11515420Y-14350746D01*
X11515420Y-14350746D02*
X11524944Y-14303127D01*
X11524944Y-14303127D02*
X11534468Y-14274555D01*
X11534468Y-14274555D02*
X11543991Y-14255508D01*
X11543991Y-14255508D02*
X11563039Y-14226936D01*
X11563039Y-14226936D02*
X11572563Y-14217412D01*
X11753515Y-14445984D02*
X11639229Y-14445984D01*
X11696372Y-14445984D02*
X11696372Y-14245984D01*
X11696372Y-14245984D02*
X11677325Y-14274555D01*
X11677325Y-14274555D02*
X11658277Y-14293603D01*
X11658277Y-14293603D02*
X11639229Y-14303127D01*
X11867801Y-14331698D02*
X11848753Y-14322174D01*
X11848753Y-14322174D02*
X11839229Y-14312650D01*
X11839229Y-14312650D02*
X11829706Y-14293603D01*
X11829706Y-14293603D02*
X11829706Y-14284079D01*
X11829706Y-14284079D02*
X11839229Y-14265031D01*
X11839229Y-14265031D02*
X11848753Y-14255508D01*
X11848753Y-14255508D02*
X11867801Y-14245984D01*
X11867801Y-14245984D02*
X11905896Y-14245984D01*
X11905896Y-14245984D02*
X11924944Y-14255508D01*
X11924944Y-14255508D02*
X11934468Y-14265031D01*
X11934468Y-14265031D02*
X11943991Y-14284079D01*
X11943991Y-14284079D02*
X11943991Y-14293603D01*
X11943991Y-14293603D02*
X11934468Y-14312650D01*
X11934468Y-14312650D02*
X11924944Y-14322174D01*
X11924944Y-14322174D02*
X11905896Y-14331698D01*
X11905896Y-14331698D02*
X11867801Y-14331698D01*
X11867801Y-14331698D02*
X11848753Y-14341222D01*
X11848753Y-14341222D02*
X11839229Y-14350746D01*
X11839229Y-14350746D02*
X11829706Y-14369793D01*
X11829706Y-14369793D02*
X11829706Y-14407888D01*
X11829706Y-14407888D02*
X11839229Y-14426936D01*
X11839229Y-14426936D02*
X11848753Y-14436460D01*
X11848753Y-14436460D02*
X11867801Y-14445984D01*
X11867801Y-14445984D02*
X11905896Y-14445984D01*
X11905896Y-14445984D02*
X11924944Y-14436460D01*
X11924944Y-14436460D02*
X11934468Y-14426936D01*
X11934468Y-14426936D02*
X11943991Y-14407888D01*
X11943991Y-14407888D02*
X11943991Y-14369793D01*
X11943991Y-14369793D02*
X11934468Y-14350746D01*
X11934468Y-14350746D02*
X11924944Y-14341222D01*
X11924944Y-14341222D02*
X11905896Y-14331698D01*
X12182087Y-14445984D02*
X12182087Y-14245984D01*
X12267801Y-14445984D02*
X12267801Y-14341222D01*
X12267801Y-14341222D02*
X12258277Y-14322174D01*
X12258277Y-14322174D02*
X12239230Y-14312650D01*
X12239230Y-14312650D02*
X12210658Y-14312650D01*
X12210658Y-14312650D02*
X12191610Y-14322174D01*
X12191610Y-14322174D02*
X12182087Y-14331698D01*
X12391610Y-14445984D02*
X12372563Y-14436460D01*
X12372563Y-14436460D02*
X12363039Y-14426936D01*
X12363039Y-14426936D02*
X12353515Y-14407888D01*
X12353515Y-14407888D02*
X12353515Y-14350746D01*
X12353515Y-14350746D02*
X12363039Y-14331698D01*
X12363039Y-14331698D02*
X12372563Y-14322174D01*
X12372563Y-14322174D02*
X12391610Y-14312650D01*
X12391610Y-14312650D02*
X12420182Y-14312650D01*
X12420182Y-14312650D02*
X12439230Y-14322174D01*
X12439230Y-14322174D02*
X12448753Y-14331698D01*
X12448753Y-14331698D02*
X12458277Y-14350746D01*
X12458277Y-14350746D02*
X12458277Y-14407888D01*
X12458277Y-14407888D02*
X12448753Y-14426936D01*
X12448753Y-14426936D02*
X12439230Y-14436460D01*
X12439230Y-14436460D02*
X12420182Y-14445984D01*
X12420182Y-14445984D02*
X12391610Y-14445984D01*
X12572563Y-14445984D02*
X12553515Y-14436460D01*
X12553515Y-14436460D02*
X12543991Y-14417412D01*
X12543991Y-14417412D02*
X12543991Y-14245984D01*
X12724944Y-14436460D02*
X12705896Y-14445984D01*
X12705896Y-14445984D02*
X12667801Y-14445984D01*
X12667801Y-14445984D02*
X12648753Y-14436460D01*
X12648753Y-14436460D02*
X12639230Y-14417412D01*
X12639230Y-14417412D02*
X12639230Y-14341222D01*
X12639230Y-14341222D02*
X12648753Y-14322174D01*
X12648753Y-14322174D02*
X12667801Y-14312650D01*
X12667801Y-14312650D02*
X12705896Y-14312650D01*
X12705896Y-14312650D02*
X12724944Y-14322174D01*
X12724944Y-14322174D02*
X12734468Y-14341222D01*
X12734468Y-14341222D02*
X12734468Y-14360269D01*
X12734468Y-14360269D02*
X12639230Y-14379317D01*
X12810658Y-14436460D02*
X12829706Y-14445984D01*
X12829706Y-14445984D02*
X12867801Y-14445984D01*
X12867801Y-14445984D02*
X12886849Y-14436460D01*
X12886849Y-14436460D02*
X12896372Y-14417412D01*
X12896372Y-14417412D02*
X12896372Y-14407888D01*
X12896372Y-14407888D02*
X12886849Y-14388841D01*
X12886849Y-14388841D02*
X12867801Y-14379317D01*
X12867801Y-14379317D02*
X12839230Y-14379317D01*
X12839230Y-14379317D02*
X12820182Y-14369793D01*
X12820182Y-14369793D02*
X12810658Y-14350746D01*
X12810658Y-14350746D02*
X12810658Y-14341222D01*
X12810658Y-14341222D02*
X12820182Y-14322174D01*
X12820182Y-14322174D02*
X12839230Y-14312650D01*
X12839230Y-14312650D02*
X12867801Y-14312650D01*
X12867801Y-14312650D02*
X12886849Y-14322174D01*
X12963039Y-14522174D02*
X12972563Y-14512650D01*
X12972563Y-14512650D02*
X12991611Y-14484079D01*
X12991611Y-14484079D02*
X13001134Y-14465031D01*
X13001134Y-14465031D02*
X13010658Y-14436460D01*
X13010658Y-14436460D02*
X13020182Y-14388841D01*
X13020182Y-14388841D02*
X13020182Y-14350746D01*
X13020182Y-14350746D02*
X13010658Y-14303127D01*
X13010658Y-14303127D02*
X13001134Y-14274555D01*
X13001134Y-14274555D02*
X12991611Y-14255508D01*
X12991611Y-14255508D02*
X12972563Y-14226936D01*
X12972563Y-14226936D02*
X12963039Y-14217412D01*
X13324944Y-14522174D02*
X13315420Y-14512650D01*
X13315420Y-14512650D02*
X13296372Y-14484079D01*
X13296372Y-14484079D02*
X13286849Y-14465031D01*
X13286849Y-14465031D02*
X13277325Y-14436460D01*
X13277325Y-14436460D02*
X13267801Y-14388841D01*
X13267801Y-14388841D02*
X13267801Y-14350746D01*
X13267801Y-14350746D02*
X13277325Y-14303127D01*
X13277325Y-14303127D02*
X13286849Y-14274555D01*
X13286849Y-14274555D02*
X13296372Y-14255508D01*
X13296372Y-14255508D02*
X13315420Y-14226936D01*
X13315420Y-14226936D02*
X13324944Y-14217412D01*
X13401134Y-14312650D02*
X13401134Y-14445984D01*
X13401134Y-14331698D02*
X13410658Y-14322174D01*
X13410658Y-14322174D02*
X13429706Y-14312650D01*
X13429706Y-14312650D02*
X13458277Y-14312650D01*
X13458277Y-14312650D02*
X13477325Y-14322174D01*
X13477325Y-14322174D02*
X13486849Y-14341222D01*
X13486849Y-14341222D02*
X13486849Y-14445984D01*
X13610658Y-14445984D02*
X13591611Y-14436460D01*
X13591611Y-14436460D02*
X13582087Y-14426936D01*
X13582087Y-14426936D02*
X13572563Y-14407888D01*
X13572563Y-14407888D02*
X13572563Y-14350746D01*
X13572563Y-14350746D02*
X13582087Y-14331698D01*
X13582087Y-14331698D02*
X13591611Y-14322174D01*
X13591611Y-14322174D02*
X13610658Y-14312650D01*
X13610658Y-14312650D02*
X13639230Y-14312650D01*
X13639230Y-14312650D02*
X13658277Y-14322174D01*
X13658277Y-14322174D02*
X13667801Y-14331698D01*
X13667801Y-14331698D02*
X13677325Y-14350746D01*
X13677325Y-14350746D02*
X13677325Y-14407888D01*
X13677325Y-14407888D02*
X13667801Y-14426936D01*
X13667801Y-14426936D02*
X13658277Y-14436460D01*
X13658277Y-14436460D02*
X13639230Y-14445984D01*
X13639230Y-14445984D02*
X13610658Y-14445984D01*
X13734468Y-14312650D02*
X13810658Y-14312650D01*
X13763039Y-14245984D02*
X13763039Y-14417412D01*
X13763039Y-14417412D02*
X13772563Y-14436460D01*
X13772563Y-14436460D02*
X13791611Y-14445984D01*
X13791611Y-14445984D02*
X13810658Y-14445984D01*
X14029706Y-14312650D02*
X14029706Y-14512650D01*
X14029706Y-14322174D02*
X14048753Y-14312650D01*
X14048753Y-14312650D02*
X14086849Y-14312650D01*
X14086849Y-14312650D02*
X14105896Y-14322174D01*
X14105896Y-14322174D02*
X14115420Y-14331698D01*
X14115420Y-14331698D02*
X14124944Y-14350746D01*
X14124944Y-14350746D02*
X14124944Y-14407888D01*
X14124944Y-14407888D02*
X14115420Y-14426936D01*
X14115420Y-14426936D02*
X14105896Y-14436460D01*
X14105896Y-14436460D02*
X14086849Y-14445984D01*
X14086849Y-14445984D02*
X14048753Y-14445984D01*
X14048753Y-14445984D02*
X14029706Y-14436460D01*
X14239230Y-14445984D02*
X14220182Y-14436460D01*
X14220182Y-14436460D02*
X14210658Y-14417412D01*
X14210658Y-14417412D02*
X14210658Y-14245984D01*
X14401134Y-14445984D02*
X14401134Y-14341222D01*
X14401134Y-14341222D02*
X14391611Y-14322174D01*
X14391611Y-14322174D02*
X14372563Y-14312650D01*
X14372563Y-14312650D02*
X14334468Y-14312650D01*
X14334468Y-14312650D02*
X14315420Y-14322174D01*
X14401134Y-14436460D02*
X14382087Y-14445984D01*
X14382087Y-14445984D02*
X14334468Y-14445984D01*
X14334468Y-14445984D02*
X14315420Y-14436460D01*
X14315420Y-14436460D02*
X14305896Y-14417412D01*
X14305896Y-14417412D02*
X14305896Y-14398365D01*
X14305896Y-14398365D02*
X14315420Y-14379317D01*
X14315420Y-14379317D02*
X14334468Y-14369793D01*
X14334468Y-14369793D02*
X14382087Y-14369793D01*
X14382087Y-14369793D02*
X14401134Y-14360269D01*
X14467801Y-14312650D02*
X14543992Y-14312650D01*
X14496373Y-14245984D02*
X14496373Y-14417412D01*
X14496373Y-14417412D02*
X14505896Y-14436460D01*
X14505896Y-14436460D02*
X14524944Y-14445984D01*
X14524944Y-14445984D02*
X14543992Y-14445984D01*
X14686849Y-14436460D02*
X14667801Y-14445984D01*
X14667801Y-14445984D02*
X14629706Y-14445984D01*
X14629706Y-14445984D02*
X14610658Y-14436460D01*
X14610658Y-14436460D02*
X14601134Y-14417412D01*
X14601134Y-14417412D02*
X14601134Y-14341222D01*
X14601134Y-14341222D02*
X14610658Y-14322174D01*
X14610658Y-14322174D02*
X14629706Y-14312650D01*
X14629706Y-14312650D02*
X14667801Y-14312650D01*
X14667801Y-14312650D02*
X14686849Y-14322174D01*
X14686849Y-14322174D02*
X14696373Y-14341222D01*
X14696373Y-14341222D02*
X14696373Y-14360269D01*
X14696373Y-14360269D02*
X14601134Y-14379317D01*
X14867801Y-14445984D02*
X14867801Y-14245984D01*
X14867801Y-14436460D02*
X14848754Y-14445984D01*
X14848754Y-14445984D02*
X14810658Y-14445984D01*
X14810658Y-14445984D02*
X14791611Y-14436460D01*
X14791611Y-14436460D02*
X14782087Y-14426936D01*
X14782087Y-14426936D02*
X14772563Y-14407888D01*
X14772563Y-14407888D02*
X14772563Y-14350746D01*
X14772563Y-14350746D02*
X14782087Y-14331698D01*
X14782087Y-14331698D02*
X14791611Y-14322174D01*
X14791611Y-14322174D02*
X14810658Y-14312650D01*
X14810658Y-14312650D02*
X14848754Y-14312650D01*
X14848754Y-14312650D02*
X14867801Y-14322174D01*
X14943992Y-14522174D02*
X14953515Y-14512650D01*
X14953515Y-14512650D02*
X14972563Y-14484079D01*
X14972563Y-14484079D02*
X14982087Y-14465031D01*
X14982087Y-14465031D02*
X14991611Y-14436460D01*
X14991611Y-14436460D02*
X15001134Y-14388841D01*
X15001134Y-14388841D02*
X15001134Y-14350746D01*
X15001134Y-14350746D02*
X14991611Y-14303127D01*
X14991611Y-14303127D02*
X14982087Y-14274555D01*
X14982087Y-14274555D02*
X14972563Y-14255508D01*
X14972563Y-14255508D02*
X14953515Y-14226936D01*
X14953515Y-14226936D02*
X14943992Y-14217412D01*
X7997500Y-14618500D02*
G75*
G02*
X7797500Y-14618500I-100000J0D01*
G01*
X7797500Y-14618500D02*
G75*
G02*
X7997500Y-14618500I100000J0D01*
G01*
X8343991Y-14576650D02*
X8343991Y-14709984D01*
X8296372Y-14500460D02*
X8248753Y-14643317D01*
X8248753Y-14643317D02*
X8372562Y-14643317D01*
X8448753Y-14690936D02*
X8458277Y-14700460D01*
X8458277Y-14700460D02*
X8448753Y-14709984D01*
X8448753Y-14709984D02*
X8439229Y-14700460D01*
X8439229Y-14700460D02*
X8448753Y-14690936D01*
X8448753Y-14690936D02*
X8448753Y-14709984D01*
X8524944Y-14509984D02*
X8648753Y-14509984D01*
X8648753Y-14509984D02*
X8582086Y-14586174D01*
X8582086Y-14586174D02*
X8610658Y-14586174D01*
X8610658Y-14586174D02*
X8629705Y-14595698D01*
X8629705Y-14595698D02*
X8639229Y-14605222D01*
X8639229Y-14605222D02*
X8648753Y-14624269D01*
X8648753Y-14624269D02*
X8648753Y-14671888D01*
X8648753Y-14671888D02*
X8639229Y-14690936D01*
X8639229Y-14690936D02*
X8629705Y-14700460D01*
X8629705Y-14700460D02*
X8610658Y-14709984D01*
X8610658Y-14709984D02*
X8553515Y-14709984D01*
X8553515Y-14709984D02*
X8534467Y-14700460D01*
X8534467Y-14700460D02*
X8524944Y-14690936D01*
X8772563Y-14509984D02*
X8791610Y-14509984D01*
X8791610Y-14509984D02*
X8810658Y-14519508D01*
X8810658Y-14519508D02*
X8820182Y-14529031D01*
X8820182Y-14529031D02*
X8829705Y-14548079D01*
X8829705Y-14548079D02*
X8839229Y-14586174D01*
X8839229Y-14586174D02*
X8839229Y-14633793D01*
X8839229Y-14633793D02*
X8829705Y-14671888D01*
X8829705Y-14671888D02*
X8820182Y-14690936D01*
X8820182Y-14690936D02*
X8810658Y-14700460D01*
X8810658Y-14700460D02*
X8791610Y-14709984D01*
X8791610Y-14709984D02*
X8772563Y-14709984D01*
X8772563Y-14709984D02*
X8753515Y-14700460D01*
X8753515Y-14700460D02*
X8743991Y-14690936D01*
X8743991Y-14690936D02*
X8734467Y-14671888D01*
X8734467Y-14671888D02*
X8724944Y-14633793D01*
X8724944Y-14633793D02*
X8724944Y-14586174D01*
X8724944Y-14586174D02*
X8734467Y-14548079D01*
X8734467Y-14548079D02*
X8743991Y-14529031D01*
X8743991Y-14529031D02*
X8753515Y-14519508D01*
X8753515Y-14519508D02*
X8772563Y-14509984D01*
X8963039Y-14509984D02*
X8982086Y-14509984D01*
X8982086Y-14509984D02*
X9001134Y-14519508D01*
X9001134Y-14519508D02*
X9010658Y-14529031D01*
X9010658Y-14529031D02*
X9020182Y-14548079D01*
X9020182Y-14548079D02*
X9029705Y-14586174D01*
X9029705Y-14586174D02*
X9029705Y-14633793D01*
X9029705Y-14633793D02*
X9020182Y-14671888D01*
X9020182Y-14671888D02*
X9010658Y-14690936D01*
X9010658Y-14690936D02*
X9001134Y-14700460D01*
X9001134Y-14700460D02*
X8982086Y-14709984D01*
X8982086Y-14709984D02*
X8963039Y-14709984D01*
X8963039Y-14709984D02*
X8943991Y-14700460D01*
X8943991Y-14700460D02*
X8934467Y-14690936D01*
X8934467Y-14690936D02*
X8924944Y-14671888D01*
X8924944Y-14671888D02*
X8915420Y-14633793D01*
X8915420Y-14633793D02*
X8915420Y-14586174D01*
X8915420Y-14586174D02*
X8924944Y-14548079D01*
X8924944Y-14548079D02*
X8934467Y-14529031D01*
X8934467Y-14529031D02*
X8943991Y-14519508D01*
X8943991Y-14519508D02*
X8963039Y-14509984D01*
X9115420Y-14709984D02*
X9115420Y-14576650D01*
X9115420Y-14595698D02*
X9124944Y-14586174D01*
X9124944Y-14586174D02*
X9143991Y-14576650D01*
X9143991Y-14576650D02*
X9172563Y-14576650D01*
X9172563Y-14576650D02*
X9191610Y-14586174D01*
X9191610Y-14586174D02*
X9201134Y-14605222D01*
X9201134Y-14605222D02*
X9201134Y-14709984D01*
X9201134Y-14605222D02*
X9210658Y-14586174D01*
X9210658Y-14586174D02*
X9229705Y-14576650D01*
X9229705Y-14576650D02*
X9258277Y-14576650D01*
X9258277Y-14576650D02*
X9277325Y-14586174D01*
X9277325Y-14586174D02*
X9286848Y-14605222D01*
X9286848Y-14605222D02*
X9286848Y-14709984D01*
X9382086Y-14709984D02*
X9382086Y-14576650D01*
X9382086Y-14595698D02*
X9391610Y-14586174D01*
X9391610Y-14586174D02*
X9410658Y-14576650D01*
X9410658Y-14576650D02*
X9439229Y-14576650D01*
X9439229Y-14576650D02*
X9458277Y-14586174D01*
X9458277Y-14586174D02*
X9467801Y-14605222D01*
X9467801Y-14605222D02*
X9467801Y-14709984D01*
X9467801Y-14605222D02*
X9477325Y-14586174D01*
X9477325Y-14586174D02*
X9496372Y-14576650D01*
X9496372Y-14576650D02*
X9524944Y-14576650D01*
X9524944Y-14576650D02*
X9543991Y-14586174D01*
X9543991Y-14586174D02*
X9553515Y-14605222D01*
X9553515Y-14605222D02*
X9553515Y-14709984D01*
X9943991Y-14500460D02*
X9772563Y-14757603D01*
X10201134Y-14509984D02*
X10220182Y-14509984D01*
X10220182Y-14509984D02*
X10239229Y-14519508D01*
X10239229Y-14519508D02*
X10248753Y-14529031D01*
X10248753Y-14529031D02*
X10258277Y-14548079D01*
X10258277Y-14548079D02*
X10267801Y-14586174D01*
X10267801Y-14586174D02*
X10267801Y-14633793D01*
X10267801Y-14633793D02*
X10258277Y-14671888D01*
X10258277Y-14671888D02*
X10248753Y-14690936D01*
X10248753Y-14690936D02*
X10239229Y-14700460D01*
X10239229Y-14700460D02*
X10220182Y-14709984D01*
X10220182Y-14709984D02*
X10201134Y-14709984D01*
X10201134Y-14709984D02*
X10182087Y-14700460D01*
X10182087Y-14700460D02*
X10172563Y-14690936D01*
X10172563Y-14690936D02*
X10163039Y-14671888D01*
X10163039Y-14671888D02*
X10153515Y-14633793D01*
X10153515Y-14633793D02*
X10153515Y-14586174D01*
X10153515Y-14586174D02*
X10163039Y-14548079D01*
X10163039Y-14548079D02*
X10172563Y-14529031D01*
X10172563Y-14529031D02*
X10182087Y-14519508D01*
X10182087Y-14519508D02*
X10201134Y-14509984D01*
X10353515Y-14690936D02*
X10363039Y-14700460D01*
X10363039Y-14700460D02*
X10353515Y-14709984D01*
X10353515Y-14709984D02*
X10343991Y-14700460D01*
X10343991Y-14700460D02*
X10353515Y-14690936D01*
X10353515Y-14690936D02*
X10353515Y-14709984D01*
X10553515Y-14709984D02*
X10439229Y-14709984D01*
X10496372Y-14709984D02*
X10496372Y-14509984D01*
X10496372Y-14509984D02*
X10477325Y-14538555D01*
X10477325Y-14538555D02*
X10458277Y-14557603D01*
X10458277Y-14557603D02*
X10439229Y-14567127D01*
X10724944Y-14509984D02*
X10686848Y-14509984D01*
X10686848Y-14509984D02*
X10667801Y-14519508D01*
X10667801Y-14519508D02*
X10658277Y-14529031D01*
X10658277Y-14529031D02*
X10639229Y-14557603D01*
X10639229Y-14557603D02*
X10629706Y-14595698D01*
X10629706Y-14595698D02*
X10629706Y-14671888D01*
X10629706Y-14671888D02*
X10639229Y-14690936D01*
X10639229Y-14690936D02*
X10648753Y-14700460D01*
X10648753Y-14700460D02*
X10667801Y-14709984D01*
X10667801Y-14709984D02*
X10705896Y-14709984D01*
X10705896Y-14709984D02*
X10724944Y-14700460D01*
X10724944Y-14700460D02*
X10734468Y-14690936D01*
X10734468Y-14690936D02*
X10743991Y-14671888D01*
X10743991Y-14671888D02*
X10743991Y-14624269D01*
X10743991Y-14624269D02*
X10734468Y-14605222D01*
X10734468Y-14605222D02*
X10724944Y-14595698D01*
X10724944Y-14595698D02*
X10705896Y-14586174D01*
X10705896Y-14586174D02*
X10667801Y-14586174D01*
X10667801Y-14586174D02*
X10648753Y-14595698D01*
X10648753Y-14595698D02*
X10639229Y-14605222D01*
X10639229Y-14605222D02*
X10629706Y-14624269D01*
X10839229Y-14709984D02*
X10877325Y-14709984D01*
X10877325Y-14709984D02*
X10896372Y-14700460D01*
X10896372Y-14700460D02*
X10905896Y-14690936D01*
X10905896Y-14690936D02*
X10924944Y-14662365D01*
X10924944Y-14662365D02*
X10934468Y-14624269D01*
X10934468Y-14624269D02*
X10934468Y-14548079D01*
X10934468Y-14548079D02*
X10924944Y-14529031D01*
X10924944Y-14529031D02*
X10915420Y-14519508D01*
X10915420Y-14519508D02*
X10896372Y-14509984D01*
X10896372Y-14509984D02*
X10858277Y-14509984D01*
X10858277Y-14509984D02*
X10839229Y-14519508D01*
X10839229Y-14519508D02*
X10829706Y-14529031D01*
X10829706Y-14529031D02*
X10820182Y-14548079D01*
X10820182Y-14548079D02*
X10820182Y-14595698D01*
X10820182Y-14595698D02*
X10829706Y-14614746D01*
X10829706Y-14614746D02*
X10839229Y-14624269D01*
X10839229Y-14624269D02*
X10858277Y-14633793D01*
X10858277Y-14633793D02*
X10896372Y-14633793D01*
X10896372Y-14633793D02*
X10915420Y-14624269D01*
X10915420Y-14624269D02*
X10924944Y-14614746D01*
X10924944Y-14614746D02*
X10934468Y-14595698D01*
X11001134Y-14509984D02*
X11124944Y-14509984D01*
X11124944Y-14509984D02*
X11058277Y-14586174D01*
X11058277Y-14586174D02*
X11086849Y-14586174D01*
X11086849Y-14586174D02*
X11105896Y-14595698D01*
X11105896Y-14595698D02*
X11115420Y-14605222D01*
X11115420Y-14605222D02*
X11124944Y-14624269D01*
X11124944Y-14624269D02*
X11124944Y-14671888D01*
X11124944Y-14671888D02*
X11115420Y-14690936D01*
X11115420Y-14690936D02*
X11105896Y-14700460D01*
X11105896Y-14700460D02*
X11086849Y-14709984D01*
X11086849Y-14709984D02*
X11029706Y-14709984D01*
X11029706Y-14709984D02*
X11010658Y-14700460D01*
X11010658Y-14700460D02*
X11001134Y-14690936D01*
X11201134Y-14509984D02*
X11201134Y-14548079D01*
X11277325Y-14509984D02*
X11277325Y-14548079D01*
X11572563Y-14786174D02*
X11563039Y-14776650D01*
X11563039Y-14776650D02*
X11543991Y-14748079D01*
X11543991Y-14748079D02*
X11534468Y-14729031D01*
X11534468Y-14729031D02*
X11524944Y-14700460D01*
X11524944Y-14700460D02*
X11515420Y-14652841D01*
X11515420Y-14652841D02*
X11515420Y-14614746D01*
X11515420Y-14614746D02*
X11524944Y-14567127D01*
X11524944Y-14567127D02*
X11534468Y-14538555D01*
X11534468Y-14538555D02*
X11543991Y-14519508D01*
X11543991Y-14519508D02*
X11563039Y-14490936D01*
X11563039Y-14490936D02*
X11572563Y-14481412D01*
X11753515Y-14709984D02*
X11639229Y-14709984D01*
X11696372Y-14709984D02*
X11696372Y-14509984D01*
X11696372Y-14509984D02*
X11677325Y-14538555D01*
X11677325Y-14538555D02*
X11658277Y-14557603D01*
X11658277Y-14557603D02*
X11639229Y-14567127D01*
X11829706Y-14529031D02*
X11839229Y-14519508D01*
X11839229Y-14519508D02*
X11858277Y-14509984D01*
X11858277Y-14509984D02*
X11905896Y-14509984D01*
X11905896Y-14509984D02*
X11924944Y-14519508D01*
X11924944Y-14519508D02*
X11934468Y-14529031D01*
X11934468Y-14529031D02*
X11943991Y-14548079D01*
X11943991Y-14548079D02*
X11943991Y-14567127D01*
X11943991Y-14567127D02*
X11934468Y-14595698D01*
X11934468Y-14595698D02*
X11820182Y-14709984D01*
X11820182Y-14709984D02*
X11943991Y-14709984D01*
X12182087Y-14709984D02*
X12182087Y-14509984D01*
X12267801Y-14709984D02*
X12267801Y-14605222D01*
X12267801Y-14605222D02*
X12258277Y-14586174D01*
X12258277Y-14586174D02*
X12239230Y-14576650D01*
X12239230Y-14576650D02*
X12210658Y-14576650D01*
X12210658Y-14576650D02*
X12191610Y-14586174D01*
X12191610Y-14586174D02*
X12182087Y-14595698D01*
X12391610Y-14709984D02*
X12372563Y-14700460D01*
X12372563Y-14700460D02*
X12363039Y-14690936D01*
X12363039Y-14690936D02*
X12353515Y-14671888D01*
X12353515Y-14671888D02*
X12353515Y-14614746D01*
X12353515Y-14614746D02*
X12363039Y-14595698D01*
X12363039Y-14595698D02*
X12372563Y-14586174D01*
X12372563Y-14586174D02*
X12391610Y-14576650D01*
X12391610Y-14576650D02*
X12420182Y-14576650D01*
X12420182Y-14576650D02*
X12439230Y-14586174D01*
X12439230Y-14586174D02*
X12448753Y-14595698D01*
X12448753Y-14595698D02*
X12458277Y-14614746D01*
X12458277Y-14614746D02*
X12458277Y-14671888D01*
X12458277Y-14671888D02*
X12448753Y-14690936D01*
X12448753Y-14690936D02*
X12439230Y-14700460D01*
X12439230Y-14700460D02*
X12420182Y-14709984D01*
X12420182Y-14709984D02*
X12391610Y-14709984D01*
X12572563Y-14709984D02*
X12553515Y-14700460D01*
X12553515Y-14700460D02*
X12543991Y-14681412D01*
X12543991Y-14681412D02*
X12543991Y-14509984D01*
X12724944Y-14700460D02*
X12705896Y-14709984D01*
X12705896Y-14709984D02*
X12667801Y-14709984D01*
X12667801Y-14709984D02*
X12648753Y-14700460D01*
X12648753Y-14700460D02*
X12639230Y-14681412D01*
X12639230Y-14681412D02*
X12639230Y-14605222D01*
X12639230Y-14605222D02*
X12648753Y-14586174D01*
X12648753Y-14586174D02*
X12667801Y-14576650D01*
X12667801Y-14576650D02*
X12705896Y-14576650D01*
X12705896Y-14576650D02*
X12724944Y-14586174D01*
X12724944Y-14586174D02*
X12734468Y-14605222D01*
X12734468Y-14605222D02*
X12734468Y-14624269D01*
X12734468Y-14624269D02*
X12639230Y-14643317D01*
X12810658Y-14700460D02*
X12829706Y-14709984D01*
X12829706Y-14709984D02*
X12867801Y-14709984D01*
X12867801Y-14709984D02*
X12886849Y-14700460D01*
X12886849Y-14700460D02*
X12896372Y-14681412D01*
X12896372Y-14681412D02*
X12896372Y-14671888D01*
X12896372Y-14671888D02*
X12886849Y-14652841D01*
X12886849Y-14652841D02*
X12867801Y-14643317D01*
X12867801Y-14643317D02*
X12839230Y-14643317D01*
X12839230Y-14643317D02*
X12820182Y-14633793D01*
X12820182Y-14633793D02*
X12810658Y-14614746D01*
X12810658Y-14614746D02*
X12810658Y-14605222D01*
X12810658Y-14605222D02*
X12820182Y-14586174D01*
X12820182Y-14586174D02*
X12839230Y-14576650D01*
X12839230Y-14576650D02*
X12867801Y-14576650D01*
X12867801Y-14576650D02*
X12886849Y-14586174D01*
X12963039Y-14786174D02*
X12972563Y-14776650D01*
X12972563Y-14776650D02*
X12991611Y-14748079D01*
X12991611Y-14748079D02*
X13001134Y-14729031D01*
X13001134Y-14729031D02*
X13010658Y-14700460D01*
X13010658Y-14700460D02*
X13020182Y-14652841D01*
X13020182Y-14652841D02*
X13020182Y-14614746D01*
X13020182Y-14614746D02*
X13010658Y-14567127D01*
X13010658Y-14567127D02*
X13001134Y-14538555D01*
X13001134Y-14538555D02*
X12991611Y-14519508D01*
X12991611Y-14519508D02*
X12972563Y-14490936D01*
X12972563Y-14490936D02*
X12963039Y-14481412D01*
X13324944Y-14786174D02*
X13315420Y-14776650D01*
X13315420Y-14776650D02*
X13296372Y-14748079D01*
X13296372Y-14748079D02*
X13286849Y-14729031D01*
X13286849Y-14729031D02*
X13277325Y-14700460D01*
X13277325Y-14700460D02*
X13267801Y-14652841D01*
X13267801Y-14652841D02*
X13267801Y-14614746D01*
X13267801Y-14614746D02*
X13277325Y-14567127D01*
X13277325Y-14567127D02*
X13286849Y-14538555D01*
X13286849Y-14538555D02*
X13296372Y-14519508D01*
X13296372Y-14519508D02*
X13315420Y-14490936D01*
X13315420Y-14490936D02*
X13324944Y-14481412D01*
X13401134Y-14576650D02*
X13401134Y-14709984D01*
X13401134Y-14595698D02*
X13410658Y-14586174D01*
X13410658Y-14586174D02*
X13429706Y-14576650D01*
X13429706Y-14576650D02*
X13458277Y-14576650D01*
X13458277Y-14576650D02*
X13477325Y-14586174D01*
X13477325Y-14586174D02*
X13486849Y-14605222D01*
X13486849Y-14605222D02*
X13486849Y-14709984D01*
X13610658Y-14709984D02*
X13591611Y-14700460D01*
X13591611Y-14700460D02*
X13582087Y-14690936D01*
X13582087Y-14690936D02*
X13572563Y-14671888D01*
X13572563Y-14671888D02*
X13572563Y-14614746D01*
X13572563Y-14614746D02*
X13582087Y-14595698D01*
X13582087Y-14595698D02*
X13591611Y-14586174D01*
X13591611Y-14586174D02*
X13610658Y-14576650D01*
X13610658Y-14576650D02*
X13639230Y-14576650D01*
X13639230Y-14576650D02*
X13658277Y-14586174D01*
X13658277Y-14586174D02*
X13667801Y-14595698D01*
X13667801Y-14595698D02*
X13677325Y-14614746D01*
X13677325Y-14614746D02*
X13677325Y-14671888D01*
X13677325Y-14671888D02*
X13667801Y-14690936D01*
X13667801Y-14690936D02*
X13658277Y-14700460D01*
X13658277Y-14700460D02*
X13639230Y-14709984D01*
X13639230Y-14709984D02*
X13610658Y-14709984D01*
X13734468Y-14576650D02*
X13810658Y-14576650D01*
X13763039Y-14509984D02*
X13763039Y-14681412D01*
X13763039Y-14681412D02*
X13772563Y-14700460D01*
X13772563Y-14700460D02*
X13791611Y-14709984D01*
X13791611Y-14709984D02*
X13810658Y-14709984D01*
X14029706Y-14576650D02*
X14029706Y-14776650D01*
X14029706Y-14586174D02*
X14048753Y-14576650D01*
X14048753Y-14576650D02*
X14086849Y-14576650D01*
X14086849Y-14576650D02*
X14105896Y-14586174D01*
X14105896Y-14586174D02*
X14115420Y-14595698D01*
X14115420Y-14595698D02*
X14124944Y-14614746D01*
X14124944Y-14614746D02*
X14124944Y-14671888D01*
X14124944Y-14671888D02*
X14115420Y-14690936D01*
X14115420Y-14690936D02*
X14105896Y-14700460D01*
X14105896Y-14700460D02*
X14086849Y-14709984D01*
X14086849Y-14709984D02*
X14048753Y-14709984D01*
X14048753Y-14709984D02*
X14029706Y-14700460D01*
X14239230Y-14709984D02*
X14220182Y-14700460D01*
X14220182Y-14700460D02*
X14210658Y-14681412D01*
X14210658Y-14681412D02*
X14210658Y-14509984D01*
X14401134Y-14709984D02*
X14401134Y-14605222D01*
X14401134Y-14605222D02*
X14391611Y-14586174D01*
X14391611Y-14586174D02*
X14372563Y-14576650D01*
X14372563Y-14576650D02*
X14334468Y-14576650D01*
X14334468Y-14576650D02*
X14315420Y-14586174D01*
X14401134Y-14700460D02*
X14382087Y-14709984D01*
X14382087Y-14709984D02*
X14334468Y-14709984D01*
X14334468Y-14709984D02*
X14315420Y-14700460D01*
X14315420Y-14700460D02*
X14305896Y-14681412D01*
X14305896Y-14681412D02*
X14305896Y-14662365D01*
X14305896Y-14662365D02*
X14315420Y-14643317D01*
X14315420Y-14643317D02*
X14334468Y-14633793D01*
X14334468Y-14633793D02*
X14382087Y-14633793D01*
X14382087Y-14633793D02*
X14401134Y-14624269D01*
X14467801Y-14576650D02*
X14543992Y-14576650D01*
X14496373Y-14509984D02*
X14496373Y-14681412D01*
X14496373Y-14681412D02*
X14505896Y-14700460D01*
X14505896Y-14700460D02*
X14524944Y-14709984D01*
X14524944Y-14709984D02*
X14543992Y-14709984D01*
X14686849Y-14700460D02*
X14667801Y-14709984D01*
X14667801Y-14709984D02*
X14629706Y-14709984D01*
X14629706Y-14709984D02*
X14610658Y-14700460D01*
X14610658Y-14700460D02*
X14601134Y-14681412D01*
X14601134Y-14681412D02*
X14601134Y-14605222D01*
X14601134Y-14605222D02*
X14610658Y-14586174D01*
X14610658Y-14586174D02*
X14629706Y-14576650D01*
X14629706Y-14576650D02*
X14667801Y-14576650D01*
X14667801Y-14576650D02*
X14686849Y-14586174D01*
X14686849Y-14586174D02*
X14696373Y-14605222D01*
X14696373Y-14605222D02*
X14696373Y-14624269D01*
X14696373Y-14624269D02*
X14601134Y-14643317D01*
X14867801Y-14709984D02*
X14867801Y-14509984D01*
X14867801Y-14700460D02*
X14848754Y-14709984D01*
X14848754Y-14709984D02*
X14810658Y-14709984D01*
X14810658Y-14709984D02*
X14791611Y-14700460D01*
X14791611Y-14700460D02*
X14782087Y-14690936D01*
X14782087Y-14690936D02*
X14772563Y-14671888D01*
X14772563Y-14671888D02*
X14772563Y-14614746D01*
X14772563Y-14614746D02*
X14782087Y-14595698D01*
X14782087Y-14595698D02*
X14791611Y-14586174D01*
X14791611Y-14586174D02*
X14810658Y-14576650D01*
X14810658Y-14576650D02*
X14848754Y-14576650D01*
X14848754Y-14576650D02*
X14867801Y-14586174D01*
X14943992Y-14786174D02*
X14953515Y-14776650D01*
X14953515Y-14776650D02*
X14972563Y-14748079D01*
X14972563Y-14748079D02*
X14982087Y-14729031D01*
X14982087Y-14729031D02*
X14991611Y-14700460D01*
X14991611Y-14700460D02*
X15001134Y-14652841D01*
X15001134Y-14652841D02*
X15001134Y-14614746D01*
X15001134Y-14614746D02*
X14991611Y-14567127D01*
X14991611Y-14567127D02*
X14982087Y-14538555D01*
X14982087Y-14538555D02*
X14972563Y-14519508D01*
X14972563Y-14519508D02*
X14953515Y-14490936D01*
X14953515Y-14490936D02*
X14943992Y-14481412D01*
M02*
