%TF.GenerationSoftware,KiCad,Pcbnew,9.0.1*%
%TF.CreationDate,2025-11-10T14:14:14+08:00*%
%TF.ProjectId,IMD_TSMS_latch_logic,494d445f-5453-44d5-935f-6c617463685f,rev?*%
%TF.SameCoordinates,Original*%
%TF.FileFunction,Drillmap*%
%TF.FilePolarity,Positive*%
%FSLAX45Y45*%
G04 Gerber Fmt 4.5, Leading zero omitted, Abs format (unit mm)*
G04 Created by KiCad (PCBNEW 9.0.1) date 2025-11-10 14:14:14*
%MOMM*%
%LPD*%
G01*
G04 APERTURE LIST*
%ADD10C,0.050000*%
%ADD11C,0.200000*%
%ADD12C,0.100000*%
%ADD13C,0.102000*%
%ADD14C,0.130000*%
G04 APERTURE END LIST*
D10*
X9925000Y-8975000D02*
X11925000Y-8975000D01*
X11925000Y-9025000D01*
X9925000Y-9025000D01*
X9925000Y-8975000D01*
X8200000Y-8975000D02*
X9575000Y-8975000D01*
X9575000Y-9025000D01*
X8200000Y-9025000D01*
X8200000Y-8975000D01*
X12000000Y-11475000D02*
X12050000Y-11475000D01*
X12050000Y-13625000D01*
X12000000Y-13625000D01*
X12000000Y-11475000D01*
X8000000Y-7012000D02*
X18000000Y-7012000D01*
X18000000Y-13712000D01*
X8000000Y-13712000D01*
X8000000Y-7012000D01*
X12000000Y-9100000D02*
X12065040Y-9100000D01*
X12065040Y-11300000D01*
X12000000Y-11300000D01*
X12000000Y-9100000D01*
X12000000Y-8075000D02*
X12050000Y-8075000D01*
X12050000Y-8925000D01*
X12000000Y-8925000D01*
X12000000Y-8075000D01*
X12000000Y-7100000D02*
X12050000Y-7100000D01*
X12050000Y-7975000D01*
X12000000Y-7975000D01*
X12000000Y-7100000D01*
D11*
D12*
X8935000Y-10385000D02*
X8965000Y-10415000D01*
X8965000Y-10385000D02*
X8935000Y-10415000D01*
X9211250Y-11001250D02*
X9241250Y-11031250D01*
X9241250Y-11001250D02*
X9211250Y-11031250D01*
X9560000Y-9585000D02*
X9590000Y-9615000D01*
X9590000Y-9585000D02*
X9560000Y-9615000D01*
X9560000Y-9810000D02*
X9590000Y-9840000D01*
X9590000Y-9810000D02*
X9560000Y-9840000D01*
X9765500Y-10320000D02*
X9795500Y-10350000D01*
X9795500Y-10320000D02*
X9765500Y-10350000D01*
X9904000Y-9348000D02*
X9934000Y-9378000D01*
X9934000Y-9348000D02*
X9904000Y-9378000D01*
X9995000Y-8423500D02*
X10025000Y-8453500D01*
X10025000Y-8423500D02*
X9995000Y-8453500D01*
X10256750Y-8453250D02*
X10286750Y-8483250D01*
X10286750Y-8453250D02*
X10256750Y-8483250D01*
X10385000Y-10510000D02*
X10415000Y-10540000D01*
X10415000Y-10510000D02*
X10385000Y-10540000D01*
X10530000Y-9665000D02*
X10560000Y-9695000D01*
X10560000Y-9665000D02*
X10530000Y-9695000D01*
X10535000Y-10110000D02*
X10565000Y-10140000D01*
X10565000Y-10110000D02*
X10535000Y-10140000D01*
X10660000Y-9610000D02*
X10690000Y-9640000D01*
X10690000Y-9610000D02*
X10660000Y-9640000D01*
X10909310Y-9856560D02*
X10939310Y-9886560D01*
X10939310Y-9856560D02*
X10909310Y-9886560D01*
X10910000Y-9613440D02*
X10940000Y-9643440D01*
X10940000Y-9613440D02*
X10910000Y-9643440D01*
X10910000Y-10906560D02*
X10940000Y-10936560D01*
X10940000Y-10906560D02*
X10910000Y-10936560D01*
X10910690Y-10663440D02*
X10940690Y-10693440D01*
X10940690Y-10663440D02*
X10910690Y-10693440D01*
X13797500Y-7735000D02*
X13827500Y-7765000D01*
X13827500Y-7735000D02*
X13797500Y-7765000D01*
X13797500Y-8049000D02*
X13827500Y-8079000D01*
X13827500Y-8049000D02*
X13797500Y-8079000D01*
X13859000Y-10693000D02*
X13889000Y-10723000D01*
X13889000Y-10693000D02*
X13859000Y-10723000D01*
X13859000Y-10947000D02*
X13889000Y-10977000D01*
X13889000Y-10947000D02*
X13859000Y-10977000D01*
X14057750Y-11291750D02*
X14087750Y-11321750D01*
X14087750Y-11291750D02*
X14057750Y-11321750D01*
X14073000Y-10395000D02*
X14103000Y-10425000D01*
X14103000Y-10395000D02*
X14073000Y-10425000D01*
X14075250Y-9313250D02*
X14105250Y-9343250D01*
X14105250Y-9313250D02*
X14075250Y-9343250D01*
X14075250Y-10131750D02*
X14105250Y-10161750D01*
X14105250Y-10131750D02*
X14075250Y-10161750D01*
X14235000Y-9510000D02*
X14265000Y-9540000D01*
X14265000Y-9510000D02*
X14235000Y-9540000D01*
X14335500Y-10320000D02*
X14365500Y-10350000D01*
X14365500Y-10320000D02*
X14335500Y-10350000D01*
X14335500Y-11595000D02*
X14365500Y-11625000D01*
X14365500Y-11595000D02*
X14335500Y-11625000D01*
X14612860Y-12184620D02*
X14642860Y-12214620D01*
X14642860Y-12184620D02*
X14612860Y-12214620D01*
X14812000Y-10693000D02*
X14842000Y-10723000D01*
X14842000Y-10693000D02*
X14812000Y-10723000D01*
X14960500Y-9870000D02*
X14990500Y-9900000D01*
X14990500Y-9870000D02*
X14960500Y-9900000D01*
X14963000Y-9664000D02*
X14993000Y-9694000D01*
X14993000Y-9664000D02*
X14963000Y-9694000D01*
X15203560Y-9320690D02*
X15233560Y-9350690D01*
X15233560Y-9320690D02*
X15203560Y-9350690D01*
X15388000Y-9664000D02*
X15418000Y-9694000D01*
X15418000Y-9664000D02*
X15388000Y-9694000D01*
X15460500Y-10981500D02*
X15490500Y-11011500D01*
X15490500Y-10981500D02*
X15460500Y-11011500D01*
X15460500Y-11235500D02*
X15490500Y-11265500D01*
X15490500Y-11235500D02*
X15460500Y-11265500D01*
X15559010Y-12348450D02*
X15589010Y-12378450D01*
X15589010Y-12348450D02*
X15559010Y-12378450D01*
X15593300Y-11638520D02*
X15623300Y-11668520D01*
X15623300Y-11638520D02*
X15593300Y-11668520D01*
X15865000Y-9985000D02*
X15895000Y-10015000D01*
X15895000Y-9985000D02*
X15865000Y-10015000D01*
X16050750Y-10648250D02*
X16080750Y-10678250D01*
X16080750Y-10648250D02*
X16050750Y-10678250D01*
X16182060Y-9320690D02*
X16212060Y-9350690D01*
X16212060Y-9320690D02*
X16182060Y-9350690D01*
X16201480Y-11676620D02*
X16231480Y-11706620D01*
X16231480Y-11676620D02*
X16201480Y-11706620D01*
X9440000Y-9550000D02*
G75*
G02*
X9360000Y-9550000I-40000J0D01*
G01*
X9360000Y-9550000D02*
G75*
G02*
X9440000Y-9550000I40000J0D01*
G01*
X9440000Y-9800000D02*
G75*
G02*
X9360000Y-9800000I-40000J0D01*
G01*
X9360000Y-9800000D02*
G75*
G02*
X9440000Y-9800000I40000J0D01*
G01*
X9395000Y-11545000D02*
X9395000Y-11645000D01*
X9345000Y-11595000D02*
X9445000Y-11595000D01*
X10595000Y-11545000D02*
X10595000Y-11645000D01*
X10545000Y-11595000D02*
X10645000Y-11595000D01*
X15070500Y-7690000D02*
X15070500Y-7790000D01*
X15020500Y-7740000D02*
X15120500Y-7740000D01*
X15070500Y-8890000D02*
X15070500Y-8990000D01*
X15020500Y-8940000D02*
X15120500Y-8940000D01*
D13*
X9461063Y-7511063D02*
X9461063Y-7438937D01*
X9388937Y-7438937D01*
X9388937Y-7511063D01*
X9461063Y-7511063D01*
X9461063Y-7811063D02*
X9461063Y-7738937D01*
X9388937Y-7738937D01*
X9388937Y-7811063D01*
X9461063Y-7811063D01*
X10336063Y-7944563D02*
X10336063Y-7872437D01*
X10263937Y-7872437D01*
X10263937Y-7944563D01*
X10336063Y-7944563D01*
X10636063Y-7944563D02*
X10636063Y-7872437D01*
X10563937Y-7872437D01*
X10563937Y-7944563D01*
X10636063Y-7944563D01*
X11527563Y-11936063D02*
X11527563Y-11863937D01*
X11455437Y-11863937D01*
X11455437Y-11936063D01*
X11527563Y-11936063D01*
X11527563Y-12236063D02*
X11527563Y-12163937D01*
X11455437Y-12163937D01*
X11455437Y-12236063D01*
X11527563Y-12236063D01*
X11536063Y-10786063D02*
X11536063Y-10713937D01*
X11463937Y-10713937D01*
X11463937Y-10786063D01*
X11536063Y-10786063D01*
X11536063Y-11086063D02*
X11536063Y-11013937D01*
X11463937Y-11013937D01*
X11463937Y-11086063D01*
X11536063Y-11086063D01*
X13279623Y-11943583D02*
X13279623Y-11871457D01*
X13207497Y-11871457D01*
X13207497Y-11943583D01*
X13279623Y-11943583D01*
X13279623Y-12243583D02*
X13279623Y-12171457D01*
X13207497Y-12171457D01*
X13207497Y-12243583D01*
X13279623Y-12243583D01*
X13286063Y-9711063D02*
X13286063Y-9638937D01*
X13213937Y-9638937D01*
X13213937Y-9711063D01*
X13286063Y-9711063D01*
X13286063Y-10011063D02*
X13286063Y-9938937D01*
X13213937Y-9938937D01*
X13213937Y-10011063D01*
X13286063Y-10011063D01*
X13286563Y-8596063D02*
X13286563Y-8523937D01*
X13214437Y-8523937D01*
X13214437Y-8596063D01*
X13286563Y-8596063D01*
X13286563Y-8896063D02*
X13286563Y-8823937D01*
X13214437Y-8823937D01*
X13214437Y-8896063D01*
X13286563Y-8896063D01*
X13286563Y-10796063D02*
X13286563Y-10723937D01*
X13214437Y-10723937D01*
X13214437Y-10796063D01*
X13286563Y-10796063D01*
X13286563Y-11096063D02*
X13286563Y-11023937D01*
X13214437Y-11023937D01*
X13214437Y-11096063D01*
X13286563Y-11096063D01*
X17419823Y-11836623D02*
X17419823Y-11764497D01*
X17347697Y-11764497D01*
X17347697Y-11836623D01*
X17419823Y-11836623D01*
X17419823Y-12136623D02*
X17419823Y-12064497D01*
X17347697Y-12064497D01*
X17347697Y-12136623D01*
X17419823Y-12136623D01*
D14*
X9395000Y-12880000D02*
X9460000Y-12815000D01*
X9395000Y-12750000D01*
X9330000Y-12815000D01*
X9395000Y-12880000D01*
X10000000Y-11465000D02*
X10065000Y-11400000D01*
X10000000Y-11335000D01*
X9935000Y-11400000D01*
X10000000Y-11465000D01*
X10600000Y-12885000D02*
X10665000Y-12820000D01*
X10600000Y-12755000D01*
X10535000Y-12820000D01*
X10600000Y-12885000D01*
X14875500Y-8400000D02*
X14940500Y-8335000D01*
X14875500Y-8270000D01*
X14810500Y-8335000D01*
X14875500Y-8400000D01*
X16290500Y-9005000D02*
X16355500Y-8940000D01*
X16290500Y-8875000D01*
X16225500Y-8940000D01*
X16290500Y-9005000D01*
X16295500Y-7800000D02*
X16360500Y-7735000D01*
X16295500Y-7670000D01*
X16230500Y-7735000D01*
X16295500Y-7800000D01*
D11*
X8258277Y-14025984D02*
X8258277Y-13825984D01*
X8258277Y-13825984D02*
X8305896Y-13825984D01*
X8305896Y-13825984D02*
X8334467Y-13835508D01*
X8334467Y-13835508D02*
X8353515Y-13854555D01*
X8353515Y-13854555D02*
X8363039Y-13873603D01*
X8363039Y-13873603D02*
X8372562Y-13911698D01*
X8372562Y-13911698D02*
X8372562Y-13940269D01*
X8372562Y-13940269D02*
X8363039Y-13978365D01*
X8363039Y-13978365D02*
X8353515Y-13997412D01*
X8353515Y-13997412D02*
X8334467Y-14016460D01*
X8334467Y-14016460D02*
X8305896Y-14025984D01*
X8305896Y-14025984D02*
X8258277Y-14025984D01*
X8458277Y-14025984D02*
X8458277Y-13892650D01*
X8458277Y-13930746D02*
X8467801Y-13911698D01*
X8467801Y-13911698D02*
X8477324Y-13902174D01*
X8477324Y-13902174D02*
X8496372Y-13892650D01*
X8496372Y-13892650D02*
X8515420Y-13892650D01*
X8582086Y-14025984D02*
X8582086Y-13892650D01*
X8582086Y-13825984D02*
X8572563Y-13835508D01*
X8572563Y-13835508D02*
X8582086Y-13845031D01*
X8582086Y-13845031D02*
X8591610Y-13835508D01*
X8591610Y-13835508D02*
X8582086Y-13825984D01*
X8582086Y-13825984D02*
X8582086Y-13845031D01*
X8705896Y-14025984D02*
X8686848Y-14016460D01*
X8686848Y-14016460D02*
X8677324Y-13997412D01*
X8677324Y-13997412D02*
X8677324Y-13825984D01*
X8810658Y-14025984D02*
X8791610Y-14016460D01*
X8791610Y-14016460D02*
X8782086Y-13997412D01*
X8782086Y-13997412D02*
X8782086Y-13825984D01*
X9039229Y-14025984D02*
X9039229Y-13825984D01*
X9039229Y-13825984D02*
X9105896Y-13968841D01*
X9105896Y-13968841D02*
X9172563Y-13825984D01*
X9172563Y-13825984D02*
X9172563Y-14025984D01*
X9353515Y-14025984D02*
X9353515Y-13921222D01*
X9353515Y-13921222D02*
X9343991Y-13902174D01*
X9343991Y-13902174D02*
X9324944Y-13892650D01*
X9324944Y-13892650D02*
X9286848Y-13892650D01*
X9286848Y-13892650D02*
X9267801Y-13902174D01*
X9353515Y-14016460D02*
X9334467Y-14025984D01*
X9334467Y-14025984D02*
X9286848Y-14025984D01*
X9286848Y-14025984D02*
X9267801Y-14016460D01*
X9267801Y-14016460D02*
X9258277Y-13997412D01*
X9258277Y-13997412D02*
X9258277Y-13978365D01*
X9258277Y-13978365D02*
X9267801Y-13959317D01*
X9267801Y-13959317D02*
X9286848Y-13949793D01*
X9286848Y-13949793D02*
X9334467Y-13949793D01*
X9334467Y-13949793D02*
X9353515Y-13940269D01*
X9448753Y-13892650D02*
X9448753Y-14092650D01*
X9448753Y-13902174D02*
X9467801Y-13892650D01*
X9467801Y-13892650D02*
X9505896Y-13892650D01*
X9505896Y-13892650D02*
X9524944Y-13902174D01*
X9524944Y-13902174D02*
X9534467Y-13911698D01*
X9534467Y-13911698D02*
X9543991Y-13930746D01*
X9543991Y-13930746D02*
X9543991Y-13987888D01*
X9543991Y-13987888D02*
X9534467Y-14006936D01*
X9534467Y-14006936D02*
X9524944Y-14016460D01*
X9524944Y-14016460D02*
X9505896Y-14025984D01*
X9505896Y-14025984D02*
X9467801Y-14025984D01*
X9467801Y-14025984D02*
X9448753Y-14016460D01*
X9629705Y-14006936D02*
X9639229Y-14016460D01*
X9639229Y-14016460D02*
X9629705Y-14025984D01*
X9629705Y-14025984D02*
X9620182Y-14016460D01*
X9620182Y-14016460D02*
X9629705Y-14006936D01*
X9629705Y-14006936D02*
X9629705Y-14025984D01*
X9629705Y-13902174D02*
X9639229Y-13911698D01*
X9639229Y-13911698D02*
X9629705Y-13921222D01*
X9629705Y-13921222D02*
X9620182Y-13911698D01*
X9620182Y-13911698D02*
X9629705Y-13902174D01*
X9629705Y-13902174D02*
X9629705Y-13921222D01*
D12*
X7967500Y-14339500D02*
X7997500Y-14369500D01*
X7997500Y-14339500D02*
X7967500Y-14369500D01*
D11*
X8296372Y-14245984D02*
X8315420Y-14245984D01*
X8315420Y-14245984D02*
X8334467Y-14255508D01*
X8334467Y-14255508D02*
X8343991Y-14265031D01*
X8343991Y-14265031D02*
X8353515Y-14284079D01*
X8353515Y-14284079D02*
X8363039Y-14322174D01*
X8363039Y-14322174D02*
X8363039Y-14369793D01*
X8363039Y-14369793D02*
X8353515Y-14407888D01*
X8353515Y-14407888D02*
X8343991Y-14426936D01*
X8343991Y-14426936D02*
X8334467Y-14436460D01*
X8334467Y-14436460D02*
X8315420Y-14445984D01*
X8315420Y-14445984D02*
X8296372Y-14445984D01*
X8296372Y-14445984D02*
X8277324Y-14436460D01*
X8277324Y-14436460D02*
X8267801Y-14426936D01*
X8267801Y-14426936D02*
X8258277Y-14407888D01*
X8258277Y-14407888D02*
X8248753Y-14369793D01*
X8248753Y-14369793D02*
X8248753Y-14322174D01*
X8248753Y-14322174D02*
X8258277Y-14284079D01*
X8258277Y-14284079D02*
X8267801Y-14265031D01*
X8267801Y-14265031D02*
X8277324Y-14255508D01*
X8277324Y-14255508D02*
X8296372Y-14245984D01*
X8448753Y-14426936D02*
X8458277Y-14436460D01*
X8458277Y-14436460D02*
X8448753Y-14445984D01*
X8448753Y-14445984D02*
X8439229Y-14436460D01*
X8439229Y-14436460D02*
X8448753Y-14426936D01*
X8448753Y-14426936D02*
X8448753Y-14445984D01*
X8524944Y-14245984D02*
X8648753Y-14245984D01*
X8648753Y-14245984D02*
X8582086Y-14322174D01*
X8582086Y-14322174D02*
X8610658Y-14322174D01*
X8610658Y-14322174D02*
X8629705Y-14331698D01*
X8629705Y-14331698D02*
X8639229Y-14341222D01*
X8639229Y-14341222D02*
X8648753Y-14360269D01*
X8648753Y-14360269D02*
X8648753Y-14407888D01*
X8648753Y-14407888D02*
X8639229Y-14426936D01*
X8639229Y-14426936D02*
X8629705Y-14436460D01*
X8629705Y-14436460D02*
X8610658Y-14445984D01*
X8610658Y-14445984D02*
X8553515Y-14445984D01*
X8553515Y-14445984D02*
X8534467Y-14436460D01*
X8534467Y-14436460D02*
X8524944Y-14426936D01*
X8772563Y-14245984D02*
X8791610Y-14245984D01*
X8791610Y-14245984D02*
X8810658Y-14255508D01*
X8810658Y-14255508D02*
X8820182Y-14265031D01*
X8820182Y-14265031D02*
X8829705Y-14284079D01*
X8829705Y-14284079D02*
X8839229Y-14322174D01*
X8839229Y-14322174D02*
X8839229Y-14369793D01*
X8839229Y-14369793D02*
X8829705Y-14407888D01*
X8829705Y-14407888D02*
X8820182Y-14426936D01*
X8820182Y-14426936D02*
X8810658Y-14436460D01*
X8810658Y-14436460D02*
X8791610Y-14445984D01*
X8791610Y-14445984D02*
X8772563Y-14445984D01*
X8772563Y-14445984D02*
X8753515Y-14436460D01*
X8753515Y-14436460D02*
X8743991Y-14426936D01*
X8743991Y-14426936D02*
X8734467Y-14407888D01*
X8734467Y-14407888D02*
X8724944Y-14369793D01*
X8724944Y-14369793D02*
X8724944Y-14322174D01*
X8724944Y-14322174D02*
X8734467Y-14284079D01*
X8734467Y-14284079D02*
X8743991Y-14265031D01*
X8743991Y-14265031D02*
X8753515Y-14255508D01*
X8753515Y-14255508D02*
X8772563Y-14245984D01*
X8963039Y-14245984D02*
X8982086Y-14245984D01*
X8982086Y-14245984D02*
X9001134Y-14255508D01*
X9001134Y-14255508D02*
X9010658Y-14265031D01*
X9010658Y-14265031D02*
X9020182Y-14284079D01*
X9020182Y-14284079D02*
X9029705Y-14322174D01*
X9029705Y-14322174D02*
X9029705Y-14369793D01*
X9029705Y-14369793D02*
X9020182Y-14407888D01*
X9020182Y-14407888D02*
X9010658Y-14426936D01*
X9010658Y-14426936D02*
X9001134Y-14436460D01*
X9001134Y-14436460D02*
X8982086Y-14445984D01*
X8982086Y-14445984D02*
X8963039Y-14445984D01*
X8963039Y-14445984D02*
X8943991Y-14436460D01*
X8943991Y-14436460D02*
X8934467Y-14426936D01*
X8934467Y-14426936D02*
X8924944Y-14407888D01*
X8924944Y-14407888D02*
X8915420Y-14369793D01*
X8915420Y-14369793D02*
X8915420Y-14322174D01*
X8915420Y-14322174D02*
X8924944Y-14284079D01*
X8924944Y-14284079D02*
X8934467Y-14265031D01*
X8934467Y-14265031D02*
X8943991Y-14255508D01*
X8943991Y-14255508D02*
X8963039Y-14245984D01*
X9115420Y-14445984D02*
X9115420Y-14312650D01*
X9115420Y-14331698D02*
X9124944Y-14322174D01*
X9124944Y-14322174D02*
X9143991Y-14312650D01*
X9143991Y-14312650D02*
X9172563Y-14312650D01*
X9172563Y-14312650D02*
X9191610Y-14322174D01*
X9191610Y-14322174D02*
X9201134Y-14341222D01*
X9201134Y-14341222D02*
X9201134Y-14445984D01*
X9201134Y-14341222D02*
X9210658Y-14322174D01*
X9210658Y-14322174D02*
X9229705Y-14312650D01*
X9229705Y-14312650D02*
X9258277Y-14312650D01*
X9258277Y-14312650D02*
X9277325Y-14322174D01*
X9277325Y-14322174D02*
X9286848Y-14341222D01*
X9286848Y-14341222D02*
X9286848Y-14445984D01*
X9382086Y-14445984D02*
X9382086Y-14312650D01*
X9382086Y-14331698D02*
X9391610Y-14322174D01*
X9391610Y-14322174D02*
X9410658Y-14312650D01*
X9410658Y-14312650D02*
X9439229Y-14312650D01*
X9439229Y-14312650D02*
X9458277Y-14322174D01*
X9458277Y-14322174D02*
X9467801Y-14341222D01*
X9467801Y-14341222D02*
X9467801Y-14445984D01*
X9467801Y-14341222D02*
X9477325Y-14322174D01*
X9477325Y-14322174D02*
X9496372Y-14312650D01*
X9496372Y-14312650D02*
X9524944Y-14312650D01*
X9524944Y-14312650D02*
X9543991Y-14322174D01*
X9543991Y-14322174D02*
X9553515Y-14341222D01*
X9553515Y-14341222D02*
X9553515Y-14445984D01*
X9943991Y-14236460D02*
X9772563Y-14493603D01*
X10201134Y-14245984D02*
X10220182Y-14245984D01*
X10220182Y-14245984D02*
X10239229Y-14255508D01*
X10239229Y-14255508D02*
X10248753Y-14265031D01*
X10248753Y-14265031D02*
X10258277Y-14284079D01*
X10258277Y-14284079D02*
X10267801Y-14322174D01*
X10267801Y-14322174D02*
X10267801Y-14369793D01*
X10267801Y-14369793D02*
X10258277Y-14407888D01*
X10258277Y-14407888D02*
X10248753Y-14426936D01*
X10248753Y-14426936D02*
X10239229Y-14436460D01*
X10239229Y-14436460D02*
X10220182Y-14445984D01*
X10220182Y-14445984D02*
X10201134Y-14445984D01*
X10201134Y-14445984D02*
X10182087Y-14436460D01*
X10182087Y-14436460D02*
X10172563Y-14426936D01*
X10172563Y-14426936D02*
X10163039Y-14407888D01*
X10163039Y-14407888D02*
X10153515Y-14369793D01*
X10153515Y-14369793D02*
X10153515Y-14322174D01*
X10153515Y-14322174D02*
X10163039Y-14284079D01*
X10163039Y-14284079D02*
X10172563Y-14265031D01*
X10172563Y-14265031D02*
X10182087Y-14255508D01*
X10182087Y-14255508D02*
X10201134Y-14245984D01*
X10353515Y-14426936D02*
X10363039Y-14436460D01*
X10363039Y-14436460D02*
X10353515Y-14445984D01*
X10353515Y-14445984D02*
X10343991Y-14436460D01*
X10343991Y-14436460D02*
X10353515Y-14426936D01*
X10353515Y-14426936D02*
X10353515Y-14445984D01*
X10486848Y-14245984D02*
X10505896Y-14245984D01*
X10505896Y-14245984D02*
X10524944Y-14255508D01*
X10524944Y-14255508D02*
X10534468Y-14265031D01*
X10534468Y-14265031D02*
X10543991Y-14284079D01*
X10543991Y-14284079D02*
X10553515Y-14322174D01*
X10553515Y-14322174D02*
X10553515Y-14369793D01*
X10553515Y-14369793D02*
X10543991Y-14407888D01*
X10543991Y-14407888D02*
X10534468Y-14426936D01*
X10534468Y-14426936D02*
X10524944Y-14436460D01*
X10524944Y-14436460D02*
X10505896Y-14445984D01*
X10505896Y-14445984D02*
X10486848Y-14445984D01*
X10486848Y-14445984D02*
X10467801Y-14436460D01*
X10467801Y-14436460D02*
X10458277Y-14426936D01*
X10458277Y-14426936D02*
X10448753Y-14407888D01*
X10448753Y-14407888D02*
X10439229Y-14369793D01*
X10439229Y-14369793D02*
X10439229Y-14322174D01*
X10439229Y-14322174D02*
X10448753Y-14284079D01*
X10448753Y-14284079D02*
X10458277Y-14265031D01*
X10458277Y-14265031D02*
X10467801Y-14255508D01*
X10467801Y-14255508D02*
X10486848Y-14245984D01*
X10743991Y-14445984D02*
X10629706Y-14445984D01*
X10686848Y-14445984D02*
X10686848Y-14245984D01*
X10686848Y-14245984D02*
X10667801Y-14274555D01*
X10667801Y-14274555D02*
X10648753Y-14293603D01*
X10648753Y-14293603D02*
X10629706Y-14303127D01*
X10934468Y-14445984D02*
X10820182Y-14445984D01*
X10877325Y-14445984D02*
X10877325Y-14245984D01*
X10877325Y-14245984D02*
X10858277Y-14274555D01*
X10858277Y-14274555D02*
X10839229Y-14293603D01*
X10839229Y-14293603D02*
X10820182Y-14303127D01*
X11048753Y-14331698D02*
X11029706Y-14322174D01*
X11029706Y-14322174D02*
X11020182Y-14312650D01*
X11020182Y-14312650D02*
X11010658Y-14293603D01*
X11010658Y-14293603D02*
X11010658Y-14284079D01*
X11010658Y-14284079D02*
X11020182Y-14265031D01*
X11020182Y-14265031D02*
X11029706Y-14255508D01*
X11029706Y-14255508D02*
X11048753Y-14245984D01*
X11048753Y-14245984D02*
X11086849Y-14245984D01*
X11086849Y-14245984D02*
X11105896Y-14255508D01*
X11105896Y-14255508D02*
X11115420Y-14265031D01*
X11115420Y-14265031D02*
X11124944Y-14284079D01*
X11124944Y-14284079D02*
X11124944Y-14293603D01*
X11124944Y-14293603D02*
X11115420Y-14312650D01*
X11115420Y-14312650D02*
X11105896Y-14322174D01*
X11105896Y-14322174D02*
X11086849Y-14331698D01*
X11086849Y-14331698D02*
X11048753Y-14331698D01*
X11048753Y-14331698D02*
X11029706Y-14341222D01*
X11029706Y-14341222D02*
X11020182Y-14350746D01*
X11020182Y-14350746D02*
X11010658Y-14369793D01*
X11010658Y-14369793D02*
X11010658Y-14407888D01*
X11010658Y-14407888D02*
X11020182Y-14426936D01*
X11020182Y-14426936D02*
X11029706Y-14436460D01*
X11029706Y-14436460D02*
X11048753Y-14445984D01*
X11048753Y-14445984D02*
X11086849Y-14445984D01*
X11086849Y-14445984D02*
X11105896Y-14436460D01*
X11105896Y-14436460D02*
X11115420Y-14426936D01*
X11115420Y-14426936D02*
X11124944Y-14407888D01*
X11124944Y-14407888D02*
X11124944Y-14369793D01*
X11124944Y-14369793D02*
X11115420Y-14350746D01*
X11115420Y-14350746D02*
X11105896Y-14341222D01*
X11105896Y-14341222D02*
X11086849Y-14331698D01*
X11201134Y-14245984D02*
X11201134Y-14284079D01*
X11277325Y-14245984D02*
X11277325Y-14284079D01*
X11572563Y-14522174D02*
X11563039Y-14512650D01*
X11563039Y-14512650D02*
X11543991Y-14484079D01*
X11543991Y-14484079D02*
X11534468Y-14465031D01*
X11534468Y-14465031D02*
X11524944Y-14436460D01*
X11524944Y-14436460D02*
X11515420Y-14388841D01*
X11515420Y-14388841D02*
X11515420Y-14350746D01*
X11515420Y-14350746D02*
X11524944Y-14303127D01*
X11524944Y-14303127D02*
X11534468Y-14274555D01*
X11534468Y-14274555D02*
X11543991Y-14255508D01*
X11543991Y-14255508D02*
X11563039Y-14226936D01*
X11563039Y-14226936D02*
X11572563Y-14217412D01*
X11734468Y-14312650D02*
X11734468Y-14445984D01*
X11686848Y-14236460D02*
X11639229Y-14379317D01*
X11639229Y-14379317D02*
X11763039Y-14379317D01*
X11943991Y-14445984D02*
X11829706Y-14445984D01*
X11886848Y-14445984D02*
X11886848Y-14245984D01*
X11886848Y-14245984D02*
X11867801Y-14274555D01*
X11867801Y-14274555D02*
X11848753Y-14293603D01*
X11848753Y-14293603D02*
X11829706Y-14303127D01*
X12182087Y-14445984D02*
X12182087Y-14245984D01*
X12267801Y-14445984D02*
X12267801Y-14341222D01*
X12267801Y-14341222D02*
X12258277Y-14322174D01*
X12258277Y-14322174D02*
X12239230Y-14312650D01*
X12239230Y-14312650D02*
X12210658Y-14312650D01*
X12210658Y-14312650D02*
X12191610Y-14322174D01*
X12191610Y-14322174D02*
X12182087Y-14331698D01*
X12391610Y-14445984D02*
X12372563Y-14436460D01*
X12372563Y-14436460D02*
X12363039Y-14426936D01*
X12363039Y-14426936D02*
X12353515Y-14407888D01*
X12353515Y-14407888D02*
X12353515Y-14350746D01*
X12353515Y-14350746D02*
X12363039Y-14331698D01*
X12363039Y-14331698D02*
X12372563Y-14322174D01*
X12372563Y-14322174D02*
X12391610Y-14312650D01*
X12391610Y-14312650D02*
X12420182Y-14312650D01*
X12420182Y-14312650D02*
X12439230Y-14322174D01*
X12439230Y-14322174D02*
X12448753Y-14331698D01*
X12448753Y-14331698D02*
X12458277Y-14350746D01*
X12458277Y-14350746D02*
X12458277Y-14407888D01*
X12458277Y-14407888D02*
X12448753Y-14426936D01*
X12448753Y-14426936D02*
X12439230Y-14436460D01*
X12439230Y-14436460D02*
X12420182Y-14445984D01*
X12420182Y-14445984D02*
X12391610Y-14445984D01*
X12572563Y-14445984D02*
X12553515Y-14436460D01*
X12553515Y-14436460D02*
X12543991Y-14417412D01*
X12543991Y-14417412D02*
X12543991Y-14245984D01*
X12724944Y-14436460D02*
X12705896Y-14445984D01*
X12705896Y-14445984D02*
X12667801Y-14445984D01*
X12667801Y-14445984D02*
X12648753Y-14436460D01*
X12648753Y-14436460D02*
X12639230Y-14417412D01*
X12639230Y-14417412D02*
X12639230Y-14341222D01*
X12639230Y-14341222D02*
X12648753Y-14322174D01*
X12648753Y-14322174D02*
X12667801Y-14312650D01*
X12667801Y-14312650D02*
X12705896Y-14312650D01*
X12705896Y-14312650D02*
X12724944Y-14322174D01*
X12724944Y-14322174D02*
X12734468Y-14341222D01*
X12734468Y-14341222D02*
X12734468Y-14360269D01*
X12734468Y-14360269D02*
X12639230Y-14379317D01*
X12810658Y-14436460D02*
X12829706Y-14445984D01*
X12829706Y-14445984D02*
X12867801Y-14445984D01*
X12867801Y-14445984D02*
X12886849Y-14436460D01*
X12886849Y-14436460D02*
X12896372Y-14417412D01*
X12896372Y-14417412D02*
X12896372Y-14407888D01*
X12896372Y-14407888D02*
X12886849Y-14388841D01*
X12886849Y-14388841D02*
X12867801Y-14379317D01*
X12867801Y-14379317D02*
X12839230Y-14379317D01*
X12839230Y-14379317D02*
X12820182Y-14369793D01*
X12820182Y-14369793D02*
X12810658Y-14350746D01*
X12810658Y-14350746D02*
X12810658Y-14341222D01*
X12810658Y-14341222D02*
X12820182Y-14322174D01*
X12820182Y-14322174D02*
X12839230Y-14312650D01*
X12839230Y-14312650D02*
X12867801Y-14312650D01*
X12867801Y-14312650D02*
X12886849Y-14322174D01*
X12963039Y-14522174D02*
X12972563Y-14512650D01*
X12972563Y-14512650D02*
X12991611Y-14484079D01*
X12991611Y-14484079D02*
X13001134Y-14465031D01*
X13001134Y-14465031D02*
X13010658Y-14436460D01*
X13010658Y-14436460D02*
X13020182Y-14388841D01*
X13020182Y-14388841D02*
X13020182Y-14350746D01*
X13020182Y-14350746D02*
X13010658Y-14303127D01*
X13010658Y-14303127D02*
X13001134Y-14274555D01*
X13001134Y-14274555D02*
X12991611Y-14255508D01*
X12991611Y-14255508D02*
X12972563Y-14226936D01*
X12972563Y-14226936D02*
X12963039Y-14217412D01*
D12*
X7997500Y-14618500D02*
G75*
G02*
X7917500Y-14618500I-40000J0D01*
G01*
X7917500Y-14618500D02*
G75*
G02*
X7997500Y-14618500I40000J0D01*
G01*
D11*
X8296372Y-14509984D02*
X8315420Y-14509984D01*
X8315420Y-14509984D02*
X8334467Y-14519508D01*
X8334467Y-14519508D02*
X8343991Y-14529031D01*
X8343991Y-14529031D02*
X8353515Y-14548079D01*
X8353515Y-14548079D02*
X8363039Y-14586174D01*
X8363039Y-14586174D02*
X8363039Y-14633793D01*
X8363039Y-14633793D02*
X8353515Y-14671888D01*
X8353515Y-14671888D02*
X8343991Y-14690936D01*
X8343991Y-14690936D02*
X8334467Y-14700460D01*
X8334467Y-14700460D02*
X8315420Y-14709984D01*
X8315420Y-14709984D02*
X8296372Y-14709984D01*
X8296372Y-14709984D02*
X8277324Y-14700460D01*
X8277324Y-14700460D02*
X8267801Y-14690936D01*
X8267801Y-14690936D02*
X8258277Y-14671888D01*
X8258277Y-14671888D02*
X8248753Y-14633793D01*
X8248753Y-14633793D02*
X8248753Y-14586174D01*
X8248753Y-14586174D02*
X8258277Y-14548079D01*
X8258277Y-14548079D02*
X8267801Y-14529031D01*
X8267801Y-14529031D02*
X8277324Y-14519508D01*
X8277324Y-14519508D02*
X8296372Y-14509984D01*
X8448753Y-14690936D02*
X8458277Y-14700460D01*
X8458277Y-14700460D02*
X8448753Y-14709984D01*
X8448753Y-14709984D02*
X8439229Y-14700460D01*
X8439229Y-14700460D02*
X8448753Y-14690936D01*
X8448753Y-14690936D02*
X8448753Y-14709984D01*
X8572563Y-14595698D02*
X8553515Y-14586174D01*
X8553515Y-14586174D02*
X8543991Y-14576650D01*
X8543991Y-14576650D02*
X8534467Y-14557603D01*
X8534467Y-14557603D02*
X8534467Y-14548079D01*
X8534467Y-14548079D02*
X8543991Y-14529031D01*
X8543991Y-14529031D02*
X8553515Y-14519508D01*
X8553515Y-14519508D02*
X8572563Y-14509984D01*
X8572563Y-14509984D02*
X8610658Y-14509984D01*
X8610658Y-14509984D02*
X8629705Y-14519508D01*
X8629705Y-14519508D02*
X8639229Y-14529031D01*
X8639229Y-14529031D02*
X8648753Y-14548079D01*
X8648753Y-14548079D02*
X8648753Y-14557603D01*
X8648753Y-14557603D02*
X8639229Y-14576650D01*
X8639229Y-14576650D02*
X8629705Y-14586174D01*
X8629705Y-14586174D02*
X8610658Y-14595698D01*
X8610658Y-14595698D02*
X8572563Y-14595698D01*
X8572563Y-14595698D02*
X8553515Y-14605222D01*
X8553515Y-14605222D02*
X8543991Y-14614746D01*
X8543991Y-14614746D02*
X8534467Y-14633793D01*
X8534467Y-14633793D02*
X8534467Y-14671888D01*
X8534467Y-14671888D02*
X8543991Y-14690936D01*
X8543991Y-14690936D02*
X8553515Y-14700460D01*
X8553515Y-14700460D02*
X8572563Y-14709984D01*
X8572563Y-14709984D02*
X8610658Y-14709984D01*
X8610658Y-14709984D02*
X8629705Y-14700460D01*
X8629705Y-14700460D02*
X8639229Y-14690936D01*
X8639229Y-14690936D02*
X8648753Y-14671888D01*
X8648753Y-14671888D02*
X8648753Y-14633793D01*
X8648753Y-14633793D02*
X8639229Y-14614746D01*
X8639229Y-14614746D02*
X8629705Y-14605222D01*
X8629705Y-14605222D02*
X8610658Y-14595698D01*
X8772563Y-14509984D02*
X8791610Y-14509984D01*
X8791610Y-14509984D02*
X8810658Y-14519508D01*
X8810658Y-14519508D02*
X8820182Y-14529031D01*
X8820182Y-14529031D02*
X8829705Y-14548079D01*
X8829705Y-14548079D02*
X8839229Y-14586174D01*
X8839229Y-14586174D02*
X8839229Y-14633793D01*
X8839229Y-14633793D02*
X8829705Y-14671888D01*
X8829705Y-14671888D02*
X8820182Y-14690936D01*
X8820182Y-14690936D02*
X8810658Y-14700460D01*
X8810658Y-14700460D02*
X8791610Y-14709984D01*
X8791610Y-14709984D02*
X8772563Y-14709984D01*
X8772563Y-14709984D02*
X8753515Y-14700460D01*
X8753515Y-14700460D02*
X8743991Y-14690936D01*
X8743991Y-14690936D02*
X8734467Y-14671888D01*
X8734467Y-14671888D02*
X8724944Y-14633793D01*
X8724944Y-14633793D02*
X8724944Y-14586174D01*
X8724944Y-14586174D02*
X8734467Y-14548079D01*
X8734467Y-14548079D02*
X8743991Y-14529031D01*
X8743991Y-14529031D02*
X8753515Y-14519508D01*
X8753515Y-14519508D02*
X8772563Y-14509984D01*
X8963039Y-14509984D02*
X8982086Y-14509984D01*
X8982086Y-14509984D02*
X9001134Y-14519508D01*
X9001134Y-14519508D02*
X9010658Y-14529031D01*
X9010658Y-14529031D02*
X9020182Y-14548079D01*
X9020182Y-14548079D02*
X9029705Y-14586174D01*
X9029705Y-14586174D02*
X9029705Y-14633793D01*
X9029705Y-14633793D02*
X9020182Y-14671888D01*
X9020182Y-14671888D02*
X9010658Y-14690936D01*
X9010658Y-14690936D02*
X9001134Y-14700460D01*
X9001134Y-14700460D02*
X8982086Y-14709984D01*
X8982086Y-14709984D02*
X8963039Y-14709984D01*
X8963039Y-14709984D02*
X8943991Y-14700460D01*
X8943991Y-14700460D02*
X8934467Y-14690936D01*
X8934467Y-14690936D02*
X8924944Y-14671888D01*
X8924944Y-14671888D02*
X8915420Y-14633793D01*
X8915420Y-14633793D02*
X8915420Y-14586174D01*
X8915420Y-14586174D02*
X8924944Y-14548079D01*
X8924944Y-14548079D02*
X8934467Y-14529031D01*
X8934467Y-14529031D02*
X8943991Y-14519508D01*
X8943991Y-14519508D02*
X8963039Y-14509984D01*
X9115420Y-14709984D02*
X9115420Y-14576650D01*
X9115420Y-14595698D02*
X9124944Y-14586174D01*
X9124944Y-14586174D02*
X9143991Y-14576650D01*
X9143991Y-14576650D02*
X9172563Y-14576650D01*
X9172563Y-14576650D02*
X9191610Y-14586174D01*
X9191610Y-14586174D02*
X9201134Y-14605222D01*
X9201134Y-14605222D02*
X9201134Y-14709984D01*
X9201134Y-14605222D02*
X9210658Y-14586174D01*
X9210658Y-14586174D02*
X9229705Y-14576650D01*
X9229705Y-14576650D02*
X9258277Y-14576650D01*
X9258277Y-14576650D02*
X9277325Y-14586174D01*
X9277325Y-14586174D02*
X9286848Y-14605222D01*
X9286848Y-14605222D02*
X9286848Y-14709984D01*
X9382086Y-14709984D02*
X9382086Y-14576650D01*
X9382086Y-14595698D02*
X9391610Y-14586174D01*
X9391610Y-14586174D02*
X9410658Y-14576650D01*
X9410658Y-14576650D02*
X9439229Y-14576650D01*
X9439229Y-14576650D02*
X9458277Y-14586174D01*
X9458277Y-14586174D02*
X9467801Y-14605222D01*
X9467801Y-14605222D02*
X9467801Y-14709984D01*
X9467801Y-14605222D02*
X9477325Y-14586174D01*
X9477325Y-14586174D02*
X9496372Y-14576650D01*
X9496372Y-14576650D02*
X9524944Y-14576650D01*
X9524944Y-14576650D02*
X9543991Y-14586174D01*
X9543991Y-14586174D02*
X9553515Y-14605222D01*
X9553515Y-14605222D02*
X9553515Y-14709984D01*
X9943991Y-14500460D02*
X9772563Y-14757603D01*
X10201134Y-14509984D02*
X10220182Y-14509984D01*
X10220182Y-14509984D02*
X10239229Y-14519508D01*
X10239229Y-14519508D02*
X10248753Y-14529031D01*
X10248753Y-14529031D02*
X10258277Y-14548079D01*
X10258277Y-14548079D02*
X10267801Y-14586174D01*
X10267801Y-14586174D02*
X10267801Y-14633793D01*
X10267801Y-14633793D02*
X10258277Y-14671888D01*
X10258277Y-14671888D02*
X10248753Y-14690936D01*
X10248753Y-14690936D02*
X10239229Y-14700460D01*
X10239229Y-14700460D02*
X10220182Y-14709984D01*
X10220182Y-14709984D02*
X10201134Y-14709984D01*
X10201134Y-14709984D02*
X10182087Y-14700460D01*
X10182087Y-14700460D02*
X10172563Y-14690936D01*
X10172563Y-14690936D02*
X10163039Y-14671888D01*
X10163039Y-14671888D02*
X10153515Y-14633793D01*
X10153515Y-14633793D02*
X10153515Y-14586174D01*
X10153515Y-14586174D02*
X10163039Y-14548079D01*
X10163039Y-14548079D02*
X10172563Y-14529031D01*
X10172563Y-14529031D02*
X10182087Y-14519508D01*
X10182087Y-14519508D02*
X10201134Y-14509984D01*
X10353515Y-14690936D02*
X10363039Y-14700460D01*
X10363039Y-14700460D02*
X10353515Y-14709984D01*
X10353515Y-14709984D02*
X10343991Y-14700460D01*
X10343991Y-14700460D02*
X10353515Y-14690936D01*
X10353515Y-14690936D02*
X10353515Y-14709984D01*
X10486848Y-14509984D02*
X10505896Y-14509984D01*
X10505896Y-14509984D02*
X10524944Y-14519508D01*
X10524944Y-14519508D02*
X10534468Y-14529031D01*
X10534468Y-14529031D02*
X10543991Y-14548079D01*
X10543991Y-14548079D02*
X10553515Y-14586174D01*
X10553515Y-14586174D02*
X10553515Y-14633793D01*
X10553515Y-14633793D02*
X10543991Y-14671888D01*
X10543991Y-14671888D02*
X10534468Y-14690936D01*
X10534468Y-14690936D02*
X10524944Y-14700460D01*
X10524944Y-14700460D02*
X10505896Y-14709984D01*
X10505896Y-14709984D02*
X10486848Y-14709984D01*
X10486848Y-14709984D02*
X10467801Y-14700460D01*
X10467801Y-14700460D02*
X10458277Y-14690936D01*
X10458277Y-14690936D02*
X10448753Y-14671888D01*
X10448753Y-14671888D02*
X10439229Y-14633793D01*
X10439229Y-14633793D02*
X10439229Y-14586174D01*
X10439229Y-14586174D02*
X10448753Y-14548079D01*
X10448753Y-14548079D02*
X10458277Y-14529031D01*
X10458277Y-14529031D02*
X10467801Y-14519508D01*
X10467801Y-14519508D02*
X10486848Y-14509984D01*
X10620182Y-14509984D02*
X10743991Y-14509984D01*
X10743991Y-14509984D02*
X10677325Y-14586174D01*
X10677325Y-14586174D02*
X10705896Y-14586174D01*
X10705896Y-14586174D02*
X10724944Y-14595698D01*
X10724944Y-14595698D02*
X10734468Y-14605222D01*
X10734468Y-14605222D02*
X10743991Y-14624269D01*
X10743991Y-14624269D02*
X10743991Y-14671888D01*
X10743991Y-14671888D02*
X10734468Y-14690936D01*
X10734468Y-14690936D02*
X10724944Y-14700460D01*
X10724944Y-14700460D02*
X10705896Y-14709984D01*
X10705896Y-14709984D02*
X10648753Y-14709984D01*
X10648753Y-14709984D02*
X10629706Y-14700460D01*
X10629706Y-14700460D02*
X10620182Y-14690936D01*
X10934468Y-14709984D02*
X10820182Y-14709984D01*
X10877325Y-14709984D02*
X10877325Y-14509984D01*
X10877325Y-14509984D02*
X10858277Y-14538555D01*
X10858277Y-14538555D02*
X10839229Y-14557603D01*
X10839229Y-14557603D02*
X10820182Y-14567127D01*
X11115420Y-14509984D02*
X11020182Y-14509984D01*
X11020182Y-14509984D02*
X11010658Y-14605222D01*
X11010658Y-14605222D02*
X11020182Y-14595698D01*
X11020182Y-14595698D02*
X11039229Y-14586174D01*
X11039229Y-14586174D02*
X11086849Y-14586174D01*
X11086849Y-14586174D02*
X11105896Y-14595698D01*
X11105896Y-14595698D02*
X11115420Y-14605222D01*
X11115420Y-14605222D02*
X11124944Y-14624269D01*
X11124944Y-14624269D02*
X11124944Y-14671888D01*
X11124944Y-14671888D02*
X11115420Y-14690936D01*
X11115420Y-14690936D02*
X11105896Y-14700460D01*
X11105896Y-14700460D02*
X11086849Y-14709984D01*
X11086849Y-14709984D02*
X11039229Y-14709984D01*
X11039229Y-14709984D02*
X11020182Y-14700460D01*
X11020182Y-14700460D02*
X11010658Y-14690936D01*
X11201134Y-14509984D02*
X11201134Y-14548079D01*
X11277325Y-14509984D02*
X11277325Y-14548079D01*
X11572563Y-14786174D02*
X11563039Y-14776650D01*
X11563039Y-14776650D02*
X11543991Y-14748079D01*
X11543991Y-14748079D02*
X11534468Y-14729031D01*
X11534468Y-14729031D02*
X11524944Y-14700460D01*
X11524944Y-14700460D02*
X11515420Y-14652841D01*
X11515420Y-14652841D02*
X11515420Y-14614746D01*
X11515420Y-14614746D02*
X11524944Y-14567127D01*
X11524944Y-14567127D02*
X11534468Y-14538555D01*
X11534468Y-14538555D02*
X11543991Y-14519508D01*
X11543991Y-14519508D02*
X11563039Y-14490936D01*
X11563039Y-14490936D02*
X11572563Y-14481412D01*
X11639229Y-14529031D02*
X11648753Y-14519508D01*
X11648753Y-14519508D02*
X11667801Y-14509984D01*
X11667801Y-14509984D02*
X11715420Y-14509984D01*
X11715420Y-14509984D02*
X11734468Y-14519508D01*
X11734468Y-14519508D02*
X11743991Y-14529031D01*
X11743991Y-14529031D02*
X11753515Y-14548079D01*
X11753515Y-14548079D02*
X11753515Y-14567127D01*
X11753515Y-14567127D02*
X11743991Y-14595698D01*
X11743991Y-14595698D02*
X11629706Y-14709984D01*
X11629706Y-14709984D02*
X11753515Y-14709984D01*
X11991610Y-14709984D02*
X11991610Y-14509984D01*
X12077325Y-14709984D02*
X12077325Y-14605222D01*
X12077325Y-14605222D02*
X12067801Y-14586174D01*
X12067801Y-14586174D02*
X12048753Y-14576650D01*
X12048753Y-14576650D02*
X12020182Y-14576650D01*
X12020182Y-14576650D02*
X12001134Y-14586174D01*
X12001134Y-14586174D02*
X11991610Y-14595698D01*
X12201134Y-14709984D02*
X12182087Y-14700460D01*
X12182087Y-14700460D02*
X12172563Y-14690936D01*
X12172563Y-14690936D02*
X12163039Y-14671888D01*
X12163039Y-14671888D02*
X12163039Y-14614746D01*
X12163039Y-14614746D02*
X12172563Y-14595698D01*
X12172563Y-14595698D02*
X12182087Y-14586174D01*
X12182087Y-14586174D02*
X12201134Y-14576650D01*
X12201134Y-14576650D02*
X12229706Y-14576650D01*
X12229706Y-14576650D02*
X12248753Y-14586174D01*
X12248753Y-14586174D02*
X12258277Y-14595698D01*
X12258277Y-14595698D02*
X12267801Y-14614746D01*
X12267801Y-14614746D02*
X12267801Y-14671888D01*
X12267801Y-14671888D02*
X12258277Y-14690936D01*
X12258277Y-14690936D02*
X12248753Y-14700460D01*
X12248753Y-14700460D02*
X12229706Y-14709984D01*
X12229706Y-14709984D02*
X12201134Y-14709984D01*
X12382087Y-14709984D02*
X12363039Y-14700460D01*
X12363039Y-14700460D02*
X12353515Y-14681412D01*
X12353515Y-14681412D02*
X12353515Y-14509984D01*
X12534468Y-14700460D02*
X12515420Y-14709984D01*
X12515420Y-14709984D02*
X12477325Y-14709984D01*
X12477325Y-14709984D02*
X12458277Y-14700460D01*
X12458277Y-14700460D02*
X12448753Y-14681412D01*
X12448753Y-14681412D02*
X12448753Y-14605222D01*
X12448753Y-14605222D02*
X12458277Y-14586174D01*
X12458277Y-14586174D02*
X12477325Y-14576650D01*
X12477325Y-14576650D02*
X12515420Y-14576650D01*
X12515420Y-14576650D02*
X12534468Y-14586174D01*
X12534468Y-14586174D02*
X12543991Y-14605222D01*
X12543991Y-14605222D02*
X12543991Y-14624269D01*
X12543991Y-14624269D02*
X12448753Y-14643317D01*
X12620182Y-14700460D02*
X12639230Y-14709984D01*
X12639230Y-14709984D02*
X12677325Y-14709984D01*
X12677325Y-14709984D02*
X12696372Y-14700460D01*
X12696372Y-14700460D02*
X12705896Y-14681412D01*
X12705896Y-14681412D02*
X12705896Y-14671888D01*
X12705896Y-14671888D02*
X12696372Y-14652841D01*
X12696372Y-14652841D02*
X12677325Y-14643317D01*
X12677325Y-14643317D02*
X12648753Y-14643317D01*
X12648753Y-14643317D02*
X12629706Y-14633793D01*
X12629706Y-14633793D02*
X12620182Y-14614746D01*
X12620182Y-14614746D02*
X12620182Y-14605222D01*
X12620182Y-14605222D02*
X12629706Y-14586174D01*
X12629706Y-14586174D02*
X12648753Y-14576650D01*
X12648753Y-14576650D02*
X12677325Y-14576650D01*
X12677325Y-14576650D02*
X12696372Y-14586174D01*
X12772563Y-14786174D02*
X12782087Y-14776650D01*
X12782087Y-14776650D02*
X12801134Y-14748079D01*
X12801134Y-14748079D02*
X12810658Y-14729031D01*
X12810658Y-14729031D02*
X12820182Y-14700460D01*
X12820182Y-14700460D02*
X12829706Y-14652841D01*
X12829706Y-14652841D02*
X12829706Y-14614746D01*
X12829706Y-14614746D02*
X12820182Y-14567127D01*
X12820182Y-14567127D02*
X12810658Y-14538555D01*
X12810658Y-14538555D02*
X12801134Y-14519508D01*
X12801134Y-14519508D02*
X12782087Y-14490936D01*
X12782087Y-14490936D02*
X12772563Y-14481412D01*
D12*
X7947500Y-14832500D02*
X7947500Y-14932500D01*
X7897500Y-14882500D02*
X7997500Y-14882500D01*
D11*
X8363039Y-14973984D02*
X8248753Y-14973984D01*
X8305896Y-14973984D02*
X8305896Y-14773984D01*
X8305896Y-14773984D02*
X8286848Y-14802555D01*
X8286848Y-14802555D02*
X8267801Y-14821603D01*
X8267801Y-14821603D02*
X8248753Y-14831127D01*
X8448753Y-14954936D02*
X8458277Y-14964460D01*
X8458277Y-14964460D02*
X8448753Y-14973984D01*
X8448753Y-14973984D02*
X8439229Y-14964460D01*
X8439229Y-14964460D02*
X8448753Y-14954936D01*
X8448753Y-14954936D02*
X8448753Y-14973984D01*
X8582086Y-14773984D02*
X8601134Y-14773984D01*
X8601134Y-14773984D02*
X8620182Y-14783508D01*
X8620182Y-14783508D02*
X8629705Y-14793031D01*
X8629705Y-14793031D02*
X8639229Y-14812079D01*
X8639229Y-14812079D02*
X8648753Y-14850174D01*
X8648753Y-14850174D02*
X8648753Y-14897793D01*
X8648753Y-14897793D02*
X8639229Y-14935888D01*
X8639229Y-14935888D02*
X8629705Y-14954936D01*
X8629705Y-14954936D02*
X8620182Y-14964460D01*
X8620182Y-14964460D02*
X8601134Y-14973984D01*
X8601134Y-14973984D02*
X8582086Y-14973984D01*
X8582086Y-14973984D02*
X8563039Y-14964460D01*
X8563039Y-14964460D02*
X8553515Y-14954936D01*
X8553515Y-14954936D02*
X8543991Y-14935888D01*
X8543991Y-14935888D02*
X8534467Y-14897793D01*
X8534467Y-14897793D02*
X8534467Y-14850174D01*
X8534467Y-14850174D02*
X8543991Y-14812079D01*
X8543991Y-14812079D02*
X8553515Y-14793031D01*
X8553515Y-14793031D02*
X8563039Y-14783508D01*
X8563039Y-14783508D02*
X8582086Y-14773984D01*
X8772563Y-14773984D02*
X8791610Y-14773984D01*
X8791610Y-14773984D02*
X8810658Y-14783508D01*
X8810658Y-14783508D02*
X8820182Y-14793031D01*
X8820182Y-14793031D02*
X8829705Y-14812079D01*
X8829705Y-14812079D02*
X8839229Y-14850174D01*
X8839229Y-14850174D02*
X8839229Y-14897793D01*
X8839229Y-14897793D02*
X8829705Y-14935888D01*
X8829705Y-14935888D02*
X8820182Y-14954936D01*
X8820182Y-14954936D02*
X8810658Y-14964460D01*
X8810658Y-14964460D02*
X8791610Y-14973984D01*
X8791610Y-14973984D02*
X8772563Y-14973984D01*
X8772563Y-14973984D02*
X8753515Y-14964460D01*
X8753515Y-14964460D02*
X8743991Y-14954936D01*
X8743991Y-14954936D02*
X8734467Y-14935888D01*
X8734467Y-14935888D02*
X8724944Y-14897793D01*
X8724944Y-14897793D02*
X8724944Y-14850174D01*
X8724944Y-14850174D02*
X8734467Y-14812079D01*
X8734467Y-14812079D02*
X8743991Y-14793031D01*
X8743991Y-14793031D02*
X8753515Y-14783508D01*
X8753515Y-14783508D02*
X8772563Y-14773984D01*
X8963039Y-14773984D02*
X8982086Y-14773984D01*
X8982086Y-14773984D02*
X9001134Y-14783508D01*
X9001134Y-14783508D02*
X9010658Y-14793031D01*
X9010658Y-14793031D02*
X9020182Y-14812079D01*
X9020182Y-14812079D02*
X9029705Y-14850174D01*
X9029705Y-14850174D02*
X9029705Y-14897793D01*
X9029705Y-14897793D02*
X9020182Y-14935888D01*
X9020182Y-14935888D02*
X9010658Y-14954936D01*
X9010658Y-14954936D02*
X9001134Y-14964460D01*
X9001134Y-14964460D02*
X8982086Y-14973984D01*
X8982086Y-14973984D02*
X8963039Y-14973984D01*
X8963039Y-14973984D02*
X8943991Y-14964460D01*
X8943991Y-14964460D02*
X8934467Y-14954936D01*
X8934467Y-14954936D02*
X8924944Y-14935888D01*
X8924944Y-14935888D02*
X8915420Y-14897793D01*
X8915420Y-14897793D02*
X8915420Y-14850174D01*
X8915420Y-14850174D02*
X8924944Y-14812079D01*
X8924944Y-14812079D02*
X8934467Y-14793031D01*
X8934467Y-14793031D02*
X8943991Y-14783508D01*
X8943991Y-14783508D02*
X8963039Y-14773984D01*
X9115420Y-14973984D02*
X9115420Y-14840650D01*
X9115420Y-14859698D02*
X9124944Y-14850174D01*
X9124944Y-14850174D02*
X9143991Y-14840650D01*
X9143991Y-14840650D02*
X9172563Y-14840650D01*
X9172563Y-14840650D02*
X9191610Y-14850174D01*
X9191610Y-14850174D02*
X9201134Y-14869222D01*
X9201134Y-14869222D02*
X9201134Y-14973984D01*
X9201134Y-14869222D02*
X9210658Y-14850174D01*
X9210658Y-14850174D02*
X9229705Y-14840650D01*
X9229705Y-14840650D02*
X9258277Y-14840650D01*
X9258277Y-14840650D02*
X9277325Y-14850174D01*
X9277325Y-14850174D02*
X9286848Y-14869222D01*
X9286848Y-14869222D02*
X9286848Y-14973984D01*
X9382086Y-14973984D02*
X9382086Y-14840650D01*
X9382086Y-14859698D02*
X9391610Y-14850174D01*
X9391610Y-14850174D02*
X9410658Y-14840650D01*
X9410658Y-14840650D02*
X9439229Y-14840650D01*
X9439229Y-14840650D02*
X9458277Y-14850174D01*
X9458277Y-14850174D02*
X9467801Y-14869222D01*
X9467801Y-14869222D02*
X9467801Y-14973984D01*
X9467801Y-14869222D02*
X9477325Y-14850174D01*
X9477325Y-14850174D02*
X9496372Y-14840650D01*
X9496372Y-14840650D02*
X9524944Y-14840650D01*
X9524944Y-14840650D02*
X9543991Y-14850174D01*
X9543991Y-14850174D02*
X9553515Y-14869222D01*
X9553515Y-14869222D02*
X9553515Y-14973984D01*
X9943991Y-14764460D02*
X9772563Y-15021603D01*
X10201134Y-14773984D02*
X10220182Y-14773984D01*
X10220182Y-14773984D02*
X10239229Y-14783508D01*
X10239229Y-14783508D02*
X10248753Y-14793031D01*
X10248753Y-14793031D02*
X10258277Y-14812079D01*
X10258277Y-14812079D02*
X10267801Y-14850174D01*
X10267801Y-14850174D02*
X10267801Y-14897793D01*
X10267801Y-14897793D02*
X10258277Y-14935888D01*
X10258277Y-14935888D02*
X10248753Y-14954936D01*
X10248753Y-14954936D02*
X10239229Y-14964460D01*
X10239229Y-14964460D02*
X10220182Y-14973984D01*
X10220182Y-14973984D02*
X10201134Y-14973984D01*
X10201134Y-14973984D02*
X10182087Y-14964460D01*
X10182087Y-14964460D02*
X10172563Y-14954936D01*
X10172563Y-14954936D02*
X10163039Y-14935888D01*
X10163039Y-14935888D02*
X10153515Y-14897793D01*
X10153515Y-14897793D02*
X10153515Y-14850174D01*
X10153515Y-14850174D02*
X10163039Y-14812079D01*
X10163039Y-14812079D02*
X10172563Y-14793031D01*
X10172563Y-14793031D02*
X10182087Y-14783508D01*
X10182087Y-14783508D02*
X10201134Y-14773984D01*
X10353515Y-14954936D02*
X10363039Y-14964460D01*
X10363039Y-14964460D02*
X10353515Y-14973984D01*
X10353515Y-14973984D02*
X10343991Y-14964460D01*
X10343991Y-14964460D02*
X10353515Y-14954936D01*
X10353515Y-14954936D02*
X10353515Y-14973984D01*
X10486848Y-14773984D02*
X10505896Y-14773984D01*
X10505896Y-14773984D02*
X10524944Y-14783508D01*
X10524944Y-14783508D02*
X10534468Y-14793031D01*
X10534468Y-14793031D02*
X10543991Y-14812079D01*
X10543991Y-14812079D02*
X10553515Y-14850174D01*
X10553515Y-14850174D02*
X10553515Y-14897793D01*
X10553515Y-14897793D02*
X10543991Y-14935888D01*
X10543991Y-14935888D02*
X10534468Y-14954936D01*
X10534468Y-14954936D02*
X10524944Y-14964460D01*
X10524944Y-14964460D02*
X10505896Y-14973984D01*
X10505896Y-14973984D02*
X10486848Y-14973984D01*
X10486848Y-14973984D02*
X10467801Y-14964460D01*
X10467801Y-14964460D02*
X10458277Y-14954936D01*
X10458277Y-14954936D02*
X10448753Y-14935888D01*
X10448753Y-14935888D02*
X10439229Y-14897793D01*
X10439229Y-14897793D02*
X10439229Y-14850174D01*
X10439229Y-14850174D02*
X10448753Y-14812079D01*
X10448753Y-14812079D02*
X10458277Y-14793031D01*
X10458277Y-14793031D02*
X10467801Y-14783508D01*
X10467801Y-14783508D02*
X10486848Y-14773984D01*
X10620182Y-14773984D02*
X10743991Y-14773984D01*
X10743991Y-14773984D02*
X10677325Y-14850174D01*
X10677325Y-14850174D02*
X10705896Y-14850174D01*
X10705896Y-14850174D02*
X10724944Y-14859698D01*
X10724944Y-14859698D02*
X10734468Y-14869222D01*
X10734468Y-14869222D02*
X10743991Y-14888269D01*
X10743991Y-14888269D02*
X10743991Y-14935888D01*
X10743991Y-14935888D02*
X10734468Y-14954936D01*
X10734468Y-14954936D02*
X10724944Y-14964460D01*
X10724944Y-14964460D02*
X10705896Y-14973984D01*
X10705896Y-14973984D02*
X10648753Y-14973984D01*
X10648753Y-14973984D02*
X10629706Y-14964460D01*
X10629706Y-14964460D02*
X10620182Y-14954936D01*
X10839229Y-14973984D02*
X10877325Y-14973984D01*
X10877325Y-14973984D02*
X10896372Y-14964460D01*
X10896372Y-14964460D02*
X10905896Y-14954936D01*
X10905896Y-14954936D02*
X10924944Y-14926365D01*
X10924944Y-14926365D02*
X10934468Y-14888269D01*
X10934468Y-14888269D02*
X10934468Y-14812079D01*
X10934468Y-14812079D02*
X10924944Y-14793031D01*
X10924944Y-14793031D02*
X10915420Y-14783508D01*
X10915420Y-14783508D02*
X10896372Y-14773984D01*
X10896372Y-14773984D02*
X10858277Y-14773984D01*
X10858277Y-14773984D02*
X10839229Y-14783508D01*
X10839229Y-14783508D02*
X10829706Y-14793031D01*
X10829706Y-14793031D02*
X10820182Y-14812079D01*
X10820182Y-14812079D02*
X10820182Y-14859698D01*
X10820182Y-14859698D02*
X10829706Y-14878746D01*
X10829706Y-14878746D02*
X10839229Y-14888269D01*
X10839229Y-14888269D02*
X10858277Y-14897793D01*
X10858277Y-14897793D02*
X10896372Y-14897793D01*
X10896372Y-14897793D02*
X10915420Y-14888269D01*
X10915420Y-14888269D02*
X10924944Y-14878746D01*
X10924944Y-14878746D02*
X10934468Y-14859698D01*
X11105896Y-14840650D02*
X11105896Y-14973984D01*
X11058277Y-14764460D02*
X11010658Y-14907317D01*
X11010658Y-14907317D02*
X11134468Y-14907317D01*
X11201134Y-14773984D02*
X11201134Y-14812079D01*
X11277325Y-14773984D02*
X11277325Y-14812079D01*
X11572563Y-15050174D02*
X11563039Y-15040650D01*
X11563039Y-15040650D02*
X11543991Y-15012079D01*
X11543991Y-15012079D02*
X11534468Y-14993031D01*
X11534468Y-14993031D02*
X11524944Y-14964460D01*
X11524944Y-14964460D02*
X11515420Y-14916841D01*
X11515420Y-14916841D02*
X11515420Y-14878746D01*
X11515420Y-14878746D02*
X11524944Y-14831127D01*
X11524944Y-14831127D02*
X11534468Y-14802555D01*
X11534468Y-14802555D02*
X11543991Y-14783508D01*
X11543991Y-14783508D02*
X11563039Y-14754936D01*
X11563039Y-14754936D02*
X11572563Y-14745412D01*
X11734468Y-14840650D02*
X11734468Y-14973984D01*
X11686848Y-14764460D02*
X11639229Y-14907317D01*
X11639229Y-14907317D02*
X11763039Y-14907317D01*
X11991610Y-14973984D02*
X11991610Y-14773984D01*
X12077325Y-14973984D02*
X12077325Y-14869222D01*
X12077325Y-14869222D02*
X12067801Y-14850174D01*
X12067801Y-14850174D02*
X12048753Y-14840650D01*
X12048753Y-14840650D02*
X12020182Y-14840650D01*
X12020182Y-14840650D02*
X12001134Y-14850174D01*
X12001134Y-14850174D02*
X11991610Y-14859698D01*
X12201134Y-14973984D02*
X12182087Y-14964460D01*
X12182087Y-14964460D02*
X12172563Y-14954936D01*
X12172563Y-14954936D02*
X12163039Y-14935888D01*
X12163039Y-14935888D02*
X12163039Y-14878746D01*
X12163039Y-14878746D02*
X12172563Y-14859698D01*
X12172563Y-14859698D02*
X12182087Y-14850174D01*
X12182087Y-14850174D02*
X12201134Y-14840650D01*
X12201134Y-14840650D02*
X12229706Y-14840650D01*
X12229706Y-14840650D02*
X12248753Y-14850174D01*
X12248753Y-14850174D02*
X12258277Y-14859698D01*
X12258277Y-14859698D02*
X12267801Y-14878746D01*
X12267801Y-14878746D02*
X12267801Y-14935888D01*
X12267801Y-14935888D02*
X12258277Y-14954936D01*
X12258277Y-14954936D02*
X12248753Y-14964460D01*
X12248753Y-14964460D02*
X12229706Y-14973984D01*
X12229706Y-14973984D02*
X12201134Y-14973984D01*
X12382087Y-14973984D02*
X12363039Y-14964460D01*
X12363039Y-14964460D02*
X12353515Y-14945412D01*
X12353515Y-14945412D02*
X12353515Y-14773984D01*
X12534468Y-14964460D02*
X12515420Y-14973984D01*
X12515420Y-14973984D02*
X12477325Y-14973984D01*
X12477325Y-14973984D02*
X12458277Y-14964460D01*
X12458277Y-14964460D02*
X12448753Y-14945412D01*
X12448753Y-14945412D02*
X12448753Y-14869222D01*
X12448753Y-14869222D02*
X12458277Y-14850174D01*
X12458277Y-14850174D02*
X12477325Y-14840650D01*
X12477325Y-14840650D02*
X12515420Y-14840650D01*
X12515420Y-14840650D02*
X12534468Y-14850174D01*
X12534468Y-14850174D02*
X12543991Y-14869222D01*
X12543991Y-14869222D02*
X12543991Y-14888269D01*
X12543991Y-14888269D02*
X12448753Y-14907317D01*
X12620182Y-14964460D02*
X12639230Y-14973984D01*
X12639230Y-14973984D02*
X12677325Y-14973984D01*
X12677325Y-14973984D02*
X12696372Y-14964460D01*
X12696372Y-14964460D02*
X12705896Y-14945412D01*
X12705896Y-14945412D02*
X12705896Y-14935888D01*
X12705896Y-14935888D02*
X12696372Y-14916841D01*
X12696372Y-14916841D02*
X12677325Y-14907317D01*
X12677325Y-14907317D02*
X12648753Y-14907317D01*
X12648753Y-14907317D02*
X12629706Y-14897793D01*
X12629706Y-14897793D02*
X12620182Y-14878746D01*
X12620182Y-14878746D02*
X12620182Y-14869222D01*
X12620182Y-14869222D02*
X12629706Y-14850174D01*
X12629706Y-14850174D02*
X12648753Y-14840650D01*
X12648753Y-14840650D02*
X12677325Y-14840650D01*
X12677325Y-14840650D02*
X12696372Y-14850174D01*
X12772563Y-15050174D02*
X12782087Y-15040650D01*
X12782087Y-15040650D02*
X12801134Y-15012079D01*
X12801134Y-15012079D02*
X12810658Y-14993031D01*
X12810658Y-14993031D02*
X12820182Y-14964460D01*
X12820182Y-14964460D02*
X12829706Y-14916841D01*
X12829706Y-14916841D02*
X12829706Y-14878746D01*
X12829706Y-14878746D02*
X12820182Y-14831127D01*
X12820182Y-14831127D02*
X12810658Y-14802555D01*
X12810658Y-14802555D02*
X12801134Y-14783508D01*
X12801134Y-14783508D02*
X12782087Y-14754936D01*
X12782087Y-14754936D02*
X12772563Y-14745412D01*
D13*
X7982563Y-15182563D02*
X7982563Y-15110437D01*
X7910437Y-15110437D01*
X7910437Y-15182563D01*
X7982563Y-15182563D01*
D11*
X8363039Y-15237984D02*
X8248753Y-15237984D01*
X8305896Y-15237984D02*
X8305896Y-15037984D01*
X8305896Y-15037984D02*
X8286848Y-15066555D01*
X8286848Y-15066555D02*
X8267801Y-15085603D01*
X8267801Y-15085603D02*
X8248753Y-15095127D01*
X8448753Y-15218936D02*
X8458277Y-15228460D01*
X8458277Y-15228460D02*
X8448753Y-15237984D01*
X8448753Y-15237984D02*
X8439229Y-15228460D01*
X8439229Y-15228460D02*
X8448753Y-15218936D01*
X8448753Y-15218936D02*
X8448753Y-15237984D01*
X8582086Y-15037984D02*
X8601134Y-15037984D01*
X8601134Y-15037984D02*
X8620182Y-15047508D01*
X8620182Y-15047508D02*
X8629705Y-15057031D01*
X8629705Y-15057031D02*
X8639229Y-15076079D01*
X8639229Y-15076079D02*
X8648753Y-15114174D01*
X8648753Y-15114174D02*
X8648753Y-15161793D01*
X8648753Y-15161793D02*
X8639229Y-15199888D01*
X8639229Y-15199888D02*
X8629705Y-15218936D01*
X8629705Y-15218936D02*
X8620182Y-15228460D01*
X8620182Y-15228460D02*
X8601134Y-15237984D01*
X8601134Y-15237984D02*
X8582086Y-15237984D01*
X8582086Y-15237984D02*
X8563039Y-15228460D01*
X8563039Y-15228460D02*
X8553515Y-15218936D01*
X8553515Y-15218936D02*
X8543991Y-15199888D01*
X8543991Y-15199888D02*
X8534467Y-15161793D01*
X8534467Y-15161793D02*
X8534467Y-15114174D01*
X8534467Y-15114174D02*
X8543991Y-15076079D01*
X8543991Y-15076079D02*
X8553515Y-15057031D01*
X8553515Y-15057031D02*
X8563039Y-15047508D01*
X8563039Y-15047508D02*
X8582086Y-15037984D01*
X8724944Y-15057031D02*
X8734467Y-15047508D01*
X8734467Y-15047508D02*
X8753515Y-15037984D01*
X8753515Y-15037984D02*
X8801134Y-15037984D01*
X8801134Y-15037984D02*
X8820182Y-15047508D01*
X8820182Y-15047508D02*
X8829705Y-15057031D01*
X8829705Y-15057031D02*
X8839229Y-15076079D01*
X8839229Y-15076079D02*
X8839229Y-15095127D01*
X8839229Y-15095127D02*
X8829705Y-15123698D01*
X8829705Y-15123698D02*
X8715420Y-15237984D01*
X8715420Y-15237984D02*
X8839229Y-15237984D01*
X8963039Y-15037984D02*
X8982086Y-15037984D01*
X8982086Y-15037984D02*
X9001134Y-15047508D01*
X9001134Y-15047508D02*
X9010658Y-15057031D01*
X9010658Y-15057031D02*
X9020182Y-15076079D01*
X9020182Y-15076079D02*
X9029705Y-15114174D01*
X9029705Y-15114174D02*
X9029705Y-15161793D01*
X9029705Y-15161793D02*
X9020182Y-15199888D01*
X9020182Y-15199888D02*
X9010658Y-15218936D01*
X9010658Y-15218936D02*
X9001134Y-15228460D01*
X9001134Y-15228460D02*
X8982086Y-15237984D01*
X8982086Y-15237984D02*
X8963039Y-15237984D01*
X8963039Y-15237984D02*
X8943991Y-15228460D01*
X8943991Y-15228460D02*
X8934467Y-15218936D01*
X8934467Y-15218936D02*
X8924944Y-15199888D01*
X8924944Y-15199888D02*
X8915420Y-15161793D01*
X8915420Y-15161793D02*
X8915420Y-15114174D01*
X8915420Y-15114174D02*
X8924944Y-15076079D01*
X8924944Y-15076079D02*
X8934467Y-15057031D01*
X8934467Y-15057031D02*
X8943991Y-15047508D01*
X8943991Y-15047508D02*
X8963039Y-15037984D01*
X9115420Y-15237984D02*
X9115420Y-15104650D01*
X9115420Y-15123698D02*
X9124944Y-15114174D01*
X9124944Y-15114174D02*
X9143991Y-15104650D01*
X9143991Y-15104650D02*
X9172563Y-15104650D01*
X9172563Y-15104650D02*
X9191610Y-15114174D01*
X9191610Y-15114174D02*
X9201134Y-15133222D01*
X9201134Y-15133222D02*
X9201134Y-15237984D01*
X9201134Y-15133222D02*
X9210658Y-15114174D01*
X9210658Y-15114174D02*
X9229705Y-15104650D01*
X9229705Y-15104650D02*
X9258277Y-15104650D01*
X9258277Y-15104650D02*
X9277325Y-15114174D01*
X9277325Y-15114174D02*
X9286848Y-15133222D01*
X9286848Y-15133222D02*
X9286848Y-15237984D01*
X9382086Y-15237984D02*
X9382086Y-15104650D01*
X9382086Y-15123698D02*
X9391610Y-15114174D01*
X9391610Y-15114174D02*
X9410658Y-15104650D01*
X9410658Y-15104650D02*
X9439229Y-15104650D01*
X9439229Y-15104650D02*
X9458277Y-15114174D01*
X9458277Y-15114174D02*
X9467801Y-15133222D01*
X9467801Y-15133222D02*
X9467801Y-15237984D01*
X9467801Y-15133222D02*
X9477325Y-15114174D01*
X9477325Y-15114174D02*
X9496372Y-15104650D01*
X9496372Y-15104650D02*
X9524944Y-15104650D01*
X9524944Y-15104650D02*
X9543991Y-15114174D01*
X9543991Y-15114174D02*
X9553515Y-15133222D01*
X9553515Y-15133222D02*
X9553515Y-15237984D01*
X9943991Y-15028460D02*
X9772563Y-15285603D01*
X10201134Y-15037984D02*
X10220182Y-15037984D01*
X10220182Y-15037984D02*
X10239229Y-15047508D01*
X10239229Y-15047508D02*
X10248753Y-15057031D01*
X10248753Y-15057031D02*
X10258277Y-15076079D01*
X10258277Y-15076079D02*
X10267801Y-15114174D01*
X10267801Y-15114174D02*
X10267801Y-15161793D01*
X10267801Y-15161793D02*
X10258277Y-15199888D01*
X10258277Y-15199888D02*
X10248753Y-15218936D01*
X10248753Y-15218936D02*
X10239229Y-15228460D01*
X10239229Y-15228460D02*
X10220182Y-15237984D01*
X10220182Y-15237984D02*
X10201134Y-15237984D01*
X10201134Y-15237984D02*
X10182087Y-15228460D01*
X10182087Y-15228460D02*
X10172563Y-15218936D01*
X10172563Y-15218936D02*
X10163039Y-15199888D01*
X10163039Y-15199888D02*
X10153515Y-15161793D01*
X10153515Y-15161793D02*
X10153515Y-15114174D01*
X10153515Y-15114174D02*
X10163039Y-15076079D01*
X10163039Y-15076079D02*
X10172563Y-15057031D01*
X10172563Y-15057031D02*
X10182087Y-15047508D01*
X10182087Y-15047508D02*
X10201134Y-15037984D01*
X10353515Y-15218936D02*
X10363039Y-15228460D01*
X10363039Y-15228460D02*
X10353515Y-15237984D01*
X10353515Y-15237984D02*
X10343991Y-15228460D01*
X10343991Y-15228460D02*
X10353515Y-15218936D01*
X10353515Y-15218936D02*
X10353515Y-15237984D01*
X10486848Y-15037984D02*
X10505896Y-15037984D01*
X10505896Y-15037984D02*
X10524944Y-15047508D01*
X10524944Y-15047508D02*
X10534468Y-15057031D01*
X10534468Y-15057031D02*
X10543991Y-15076079D01*
X10543991Y-15076079D02*
X10553515Y-15114174D01*
X10553515Y-15114174D02*
X10553515Y-15161793D01*
X10553515Y-15161793D02*
X10543991Y-15199888D01*
X10543991Y-15199888D02*
X10534468Y-15218936D01*
X10534468Y-15218936D02*
X10524944Y-15228460D01*
X10524944Y-15228460D02*
X10505896Y-15237984D01*
X10505896Y-15237984D02*
X10486848Y-15237984D01*
X10486848Y-15237984D02*
X10467801Y-15228460D01*
X10467801Y-15228460D02*
X10458277Y-15218936D01*
X10458277Y-15218936D02*
X10448753Y-15199888D01*
X10448753Y-15199888D02*
X10439229Y-15161793D01*
X10439229Y-15161793D02*
X10439229Y-15114174D01*
X10439229Y-15114174D02*
X10448753Y-15076079D01*
X10448753Y-15076079D02*
X10458277Y-15057031D01*
X10458277Y-15057031D02*
X10467801Y-15047508D01*
X10467801Y-15047508D02*
X10486848Y-15037984D01*
X10724944Y-15104650D02*
X10724944Y-15237984D01*
X10677325Y-15028460D02*
X10629706Y-15171317D01*
X10629706Y-15171317D02*
X10753515Y-15171317D01*
X10867801Y-15037984D02*
X10886849Y-15037984D01*
X10886849Y-15037984D02*
X10905896Y-15047508D01*
X10905896Y-15047508D02*
X10915420Y-15057031D01*
X10915420Y-15057031D02*
X10924944Y-15076079D01*
X10924944Y-15076079D02*
X10934468Y-15114174D01*
X10934468Y-15114174D02*
X10934468Y-15161793D01*
X10934468Y-15161793D02*
X10924944Y-15199888D01*
X10924944Y-15199888D02*
X10915420Y-15218936D01*
X10915420Y-15218936D02*
X10905896Y-15228460D01*
X10905896Y-15228460D02*
X10886849Y-15237984D01*
X10886849Y-15237984D02*
X10867801Y-15237984D01*
X10867801Y-15237984D02*
X10848753Y-15228460D01*
X10848753Y-15228460D02*
X10839229Y-15218936D01*
X10839229Y-15218936D02*
X10829706Y-15199888D01*
X10829706Y-15199888D02*
X10820182Y-15161793D01*
X10820182Y-15161793D02*
X10820182Y-15114174D01*
X10820182Y-15114174D02*
X10829706Y-15076079D01*
X10829706Y-15076079D02*
X10839229Y-15057031D01*
X10839229Y-15057031D02*
X10848753Y-15047508D01*
X10848753Y-15047508D02*
X10867801Y-15037984D01*
X11010658Y-15057031D02*
X11020182Y-15047508D01*
X11020182Y-15047508D02*
X11039229Y-15037984D01*
X11039229Y-15037984D02*
X11086849Y-15037984D01*
X11086849Y-15037984D02*
X11105896Y-15047508D01*
X11105896Y-15047508D02*
X11115420Y-15057031D01*
X11115420Y-15057031D02*
X11124944Y-15076079D01*
X11124944Y-15076079D02*
X11124944Y-15095127D01*
X11124944Y-15095127D02*
X11115420Y-15123698D01*
X11115420Y-15123698D02*
X11001134Y-15237984D01*
X11001134Y-15237984D02*
X11124944Y-15237984D01*
X11201134Y-15037984D02*
X11201134Y-15076079D01*
X11277325Y-15037984D02*
X11277325Y-15076079D01*
X11572563Y-15314174D02*
X11563039Y-15304650D01*
X11563039Y-15304650D02*
X11543991Y-15276079D01*
X11543991Y-15276079D02*
X11534468Y-15257031D01*
X11534468Y-15257031D02*
X11524944Y-15228460D01*
X11524944Y-15228460D02*
X11515420Y-15180841D01*
X11515420Y-15180841D02*
X11515420Y-15142746D01*
X11515420Y-15142746D02*
X11524944Y-15095127D01*
X11524944Y-15095127D02*
X11534468Y-15066555D01*
X11534468Y-15066555D02*
X11543991Y-15047508D01*
X11543991Y-15047508D02*
X11563039Y-15018936D01*
X11563039Y-15018936D02*
X11572563Y-15009412D01*
X11753515Y-15237984D02*
X11639229Y-15237984D01*
X11696372Y-15237984D02*
X11696372Y-15037984D01*
X11696372Y-15037984D02*
X11677325Y-15066555D01*
X11677325Y-15066555D02*
X11658277Y-15085603D01*
X11658277Y-15085603D02*
X11639229Y-15095127D01*
X11867801Y-15123698D02*
X11848753Y-15114174D01*
X11848753Y-15114174D02*
X11839229Y-15104650D01*
X11839229Y-15104650D02*
X11829706Y-15085603D01*
X11829706Y-15085603D02*
X11829706Y-15076079D01*
X11829706Y-15076079D02*
X11839229Y-15057031D01*
X11839229Y-15057031D02*
X11848753Y-15047508D01*
X11848753Y-15047508D02*
X11867801Y-15037984D01*
X11867801Y-15037984D02*
X11905896Y-15037984D01*
X11905896Y-15037984D02*
X11924944Y-15047508D01*
X11924944Y-15047508D02*
X11934468Y-15057031D01*
X11934468Y-15057031D02*
X11943991Y-15076079D01*
X11943991Y-15076079D02*
X11943991Y-15085603D01*
X11943991Y-15085603D02*
X11934468Y-15104650D01*
X11934468Y-15104650D02*
X11924944Y-15114174D01*
X11924944Y-15114174D02*
X11905896Y-15123698D01*
X11905896Y-15123698D02*
X11867801Y-15123698D01*
X11867801Y-15123698D02*
X11848753Y-15133222D01*
X11848753Y-15133222D02*
X11839229Y-15142746D01*
X11839229Y-15142746D02*
X11829706Y-15161793D01*
X11829706Y-15161793D02*
X11829706Y-15199888D01*
X11829706Y-15199888D02*
X11839229Y-15218936D01*
X11839229Y-15218936D02*
X11848753Y-15228460D01*
X11848753Y-15228460D02*
X11867801Y-15237984D01*
X11867801Y-15237984D02*
X11905896Y-15237984D01*
X11905896Y-15237984D02*
X11924944Y-15228460D01*
X11924944Y-15228460D02*
X11934468Y-15218936D01*
X11934468Y-15218936D02*
X11943991Y-15199888D01*
X11943991Y-15199888D02*
X11943991Y-15161793D01*
X11943991Y-15161793D02*
X11934468Y-15142746D01*
X11934468Y-15142746D02*
X11924944Y-15133222D01*
X11924944Y-15133222D02*
X11905896Y-15123698D01*
X12182087Y-15237984D02*
X12182087Y-15037984D01*
X12267801Y-15237984D02*
X12267801Y-15133222D01*
X12267801Y-15133222D02*
X12258277Y-15114174D01*
X12258277Y-15114174D02*
X12239230Y-15104650D01*
X12239230Y-15104650D02*
X12210658Y-15104650D01*
X12210658Y-15104650D02*
X12191610Y-15114174D01*
X12191610Y-15114174D02*
X12182087Y-15123698D01*
X12391610Y-15237984D02*
X12372563Y-15228460D01*
X12372563Y-15228460D02*
X12363039Y-15218936D01*
X12363039Y-15218936D02*
X12353515Y-15199888D01*
X12353515Y-15199888D02*
X12353515Y-15142746D01*
X12353515Y-15142746D02*
X12363039Y-15123698D01*
X12363039Y-15123698D02*
X12372563Y-15114174D01*
X12372563Y-15114174D02*
X12391610Y-15104650D01*
X12391610Y-15104650D02*
X12420182Y-15104650D01*
X12420182Y-15104650D02*
X12439230Y-15114174D01*
X12439230Y-15114174D02*
X12448753Y-15123698D01*
X12448753Y-15123698D02*
X12458277Y-15142746D01*
X12458277Y-15142746D02*
X12458277Y-15199888D01*
X12458277Y-15199888D02*
X12448753Y-15218936D01*
X12448753Y-15218936D02*
X12439230Y-15228460D01*
X12439230Y-15228460D02*
X12420182Y-15237984D01*
X12420182Y-15237984D02*
X12391610Y-15237984D01*
X12572563Y-15237984D02*
X12553515Y-15228460D01*
X12553515Y-15228460D02*
X12543991Y-15209412D01*
X12543991Y-15209412D02*
X12543991Y-15037984D01*
X12724944Y-15228460D02*
X12705896Y-15237984D01*
X12705896Y-15237984D02*
X12667801Y-15237984D01*
X12667801Y-15237984D02*
X12648753Y-15228460D01*
X12648753Y-15228460D02*
X12639230Y-15209412D01*
X12639230Y-15209412D02*
X12639230Y-15133222D01*
X12639230Y-15133222D02*
X12648753Y-15114174D01*
X12648753Y-15114174D02*
X12667801Y-15104650D01*
X12667801Y-15104650D02*
X12705896Y-15104650D01*
X12705896Y-15104650D02*
X12724944Y-15114174D01*
X12724944Y-15114174D02*
X12734468Y-15133222D01*
X12734468Y-15133222D02*
X12734468Y-15152269D01*
X12734468Y-15152269D02*
X12639230Y-15171317D01*
X12810658Y-15228460D02*
X12829706Y-15237984D01*
X12829706Y-15237984D02*
X12867801Y-15237984D01*
X12867801Y-15237984D02*
X12886849Y-15228460D01*
X12886849Y-15228460D02*
X12896372Y-15209412D01*
X12896372Y-15209412D02*
X12896372Y-15199888D01*
X12896372Y-15199888D02*
X12886849Y-15180841D01*
X12886849Y-15180841D02*
X12867801Y-15171317D01*
X12867801Y-15171317D02*
X12839230Y-15171317D01*
X12839230Y-15171317D02*
X12820182Y-15161793D01*
X12820182Y-15161793D02*
X12810658Y-15142746D01*
X12810658Y-15142746D02*
X12810658Y-15133222D01*
X12810658Y-15133222D02*
X12820182Y-15114174D01*
X12820182Y-15114174D02*
X12839230Y-15104650D01*
X12839230Y-15104650D02*
X12867801Y-15104650D01*
X12867801Y-15104650D02*
X12886849Y-15114174D01*
X12963039Y-15314174D02*
X12972563Y-15304650D01*
X12972563Y-15304650D02*
X12991611Y-15276079D01*
X12991611Y-15276079D02*
X13001134Y-15257031D01*
X13001134Y-15257031D02*
X13010658Y-15228460D01*
X13010658Y-15228460D02*
X13020182Y-15180841D01*
X13020182Y-15180841D02*
X13020182Y-15142746D01*
X13020182Y-15142746D02*
X13010658Y-15095127D01*
X13010658Y-15095127D02*
X13001134Y-15066555D01*
X13001134Y-15066555D02*
X12991611Y-15047508D01*
X12991611Y-15047508D02*
X12972563Y-15018936D01*
X12972563Y-15018936D02*
X12963039Y-15009412D01*
D14*
X7932500Y-15475500D02*
X7997500Y-15410500D01*
X7932500Y-15345500D01*
X7867500Y-15410500D01*
X7932500Y-15475500D01*
D11*
X8363039Y-15501984D02*
X8248753Y-15501984D01*
X8305896Y-15501984D02*
X8305896Y-15301984D01*
X8305896Y-15301984D02*
X8286848Y-15330555D01*
X8286848Y-15330555D02*
X8267801Y-15349603D01*
X8267801Y-15349603D02*
X8248753Y-15359127D01*
X8448753Y-15482936D02*
X8458277Y-15492460D01*
X8458277Y-15492460D02*
X8448753Y-15501984D01*
X8448753Y-15501984D02*
X8439229Y-15492460D01*
X8439229Y-15492460D02*
X8448753Y-15482936D01*
X8448753Y-15482936D02*
X8448753Y-15501984D01*
X8524944Y-15301984D02*
X8648753Y-15301984D01*
X8648753Y-15301984D02*
X8582086Y-15378174D01*
X8582086Y-15378174D02*
X8610658Y-15378174D01*
X8610658Y-15378174D02*
X8629705Y-15387698D01*
X8629705Y-15387698D02*
X8639229Y-15397222D01*
X8639229Y-15397222D02*
X8648753Y-15416269D01*
X8648753Y-15416269D02*
X8648753Y-15463888D01*
X8648753Y-15463888D02*
X8639229Y-15482936D01*
X8639229Y-15482936D02*
X8629705Y-15492460D01*
X8629705Y-15492460D02*
X8610658Y-15501984D01*
X8610658Y-15501984D02*
X8553515Y-15501984D01*
X8553515Y-15501984D02*
X8534467Y-15492460D01*
X8534467Y-15492460D02*
X8524944Y-15482936D01*
X8772563Y-15301984D02*
X8791610Y-15301984D01*
X8791610Y-15301984D02*
X8810658Y-15311508D01*
X8810658Y-15311508D02*
X8820182Y-15321031D01*
X8820182Y-15321031D02*
X8829705Y-15340079D01*
X8829705Y-15340079D02*
X8839229Y-15378174D01*
X8839229Y-15378174D02*
X8839229Y-15425793D01*
X8839229Y-15425793D02*
X8829705Y-15463888D01*
X8829705Y-15463888D02*
X8820182Y-15482936D01*
X8820182Y-15482936D02*
X8810658Y-15492460D01*
X8810658Y-15492460D02*
X8791610Y-15501984D01*
X8791610Y-15501984D02*
X8772563Y-15501984D01*
X8772563Y-15501984D02*
X8753515Y-15492460D01*
X8753515Y-15492460D02*
X8743991Y-15482936D01*
X8743991Y-15482936D02*
X8734467Y-15463888D01*
X8734467Y-15463888D02*
X8724944Y-15425793D01*
X8724944Y-15425793D02*
X8724944Y-15378174D01*
X8724944Y-15378174D02*
X8734467Y-15340079D01*
X8734467Y-15340079D02*
X8743991Y-15321031D01*
X8743991Y-15321031D02*
X8753515Y-15311508D01*
X8753515Y-15311508D02*
X8772563Y-15301984D01*
X8963039Y-15301984D02*
X8982086Y-15301984D01*
X8982086Y-15301984D02*
X9001134Y-15311508D01*
X9001134Y-15311508D02*
X9010658Y-15321031D01*
X9010658Y-15321031D02*
X9020182Y-15340079D01*
X9020182Y-15340079D02*
X9029705Y-15378174D01*
X9029705Y-15378174D02*
X9029705Y-15425793D01*
X9029705Y-15425793D02*
X9020182Y-15463888D01*
X9020182Y-15463888D02*
X9010658Y-15482936D01*
X9010658Y-15482936D02*
X9001134Y-15492460D01*
X9001134Y-15492460D02*
X8982086Y-15501984D01*
X8982086Y-15501984D02*
X8963039Y-15501984D01*
X8963039Y-15501984D02*
X8943991Y-15492460D01*
X8943991Y-15492460D02*
X8934467Y-15482936D01*
X8934467Y-15482936D02*
X8924944Y-15463888D01*
X8924944Y-15463888D02*
X8915420Y-15425793D01*
X8915420Y-15425793D02*
X8915420Y-15378174D01*
X8915420Y-15378174D02*
X8924944Y-15340079D01*
X8924944Y-15340079D02*
X8934467Y-15321031D01*
X8934467Y-15321031D02*
X8943991Y-15311508D01*
X8943991Y-15311508D02*
X8963039Y-15301984D01*
X9115420Y-15501984D02*
X9115420Y-15368650D01*
X9115420Y-15387698D02*
X9124944Y-15378174D01*
X9124944Y-15378174D02*
X9143991Y-15368650D01*
X9143991Y-15368650D02*
X9172563Y-15368650D01*
X9172563Y-15368650D02*
X9191610Y-15378174D01*
X9191610Y-15378174D02*
X9201134Y-15397222D01*
X9201134Y-15397222D02*
X9201134Y-15501984D01*
X9201134Y-15397222D02*
X9210658Y-15378174D01*
X9210658Y-15378174D02*
X9229705Y-15368650D01*
X9229705Y-15368650D02*
X9258277Y-15368650D01*
X9258277Y-15368650D02*
X9277325Y-15378174D01*
X9277325Y-15378174D02*
X9286848Y-15397222D01*
X9286848Y-15397222D02*
X9286848Y-15501984D01*
X9382086Y-15501984D02*
X9382086Y-15368650D01*
X9382086Y-15387698D02*
X9391610Y-15378174D01*
X9391610Y-15378174D02*
X9410658Y-15368650D01*
X9410658Y-15368650D02*
X9439229Y-15368650D01*
X9439229Y-15368650D02*
X9458277Y-15378174D01*
X9458277Y-15378174D02*
X9467801Y-15397222D01*
X9467801Y-15397222D02*
X9467801Y-15501984D01*
X9467801Y-15397222D02*
X9477325Y-15378174D01*
X9477325Y-15378174D02*
X9496372Y-15368650D01*
X9496372Y-15368650D02*
X9524944Y-15368650D01*
X9524944Y-15368650D02*
X9543991Y-15378174D01*
X9543991Y-15378174D02*
X9553515Y-15397222D01*
X9553515Y-15397222D02*
X9553515Y-15501984D01*
X9943991Y-15292460D02*
X9772563Y-15549603D01*
X10201134Y-15301984D02*
X10220182Y-15301984D01*
X10220182Y-15301984D02*
X10239229Y-15311508D01*
X10239229Y-15311508D02*
X10248753Y-15321031D01*
X10248753Y-15321031D02*
X10258277Y-15340079D01*
X10258277Y-15340079D02*
X10267801Y-15378174D01*
X10267801Y-15378174D02*
X10267801Y-15425793D01*
X10267801Y-15425793D02*
X10258277Y-15463888D01*
X10258277Y-15463888D02*
X10248753Y-15482936D01*
X10248753Y-15482936D02*
X10239229Y-15492460D01*
X10239229Y-15492460D02*
X10220182Y-15501984D01*
X10220182Y-15501984D02*
X10201134Y-15501984D01*
X10201134Y-15501984D02*
X10182087Y-15492460D01*
X10182087Y-15492460D02*
X10172563Y-15482936D01*
X10172563Y-15482936D02*
X10163039Y-15463888D01*
X10163039Y-15463888D02*
X10153515Y-15425793D01*
X10153515Y-15425793D02*
X10153515Y-15378174D01*
X10153515Y-15378174D02*
X10163039Y-15340079D01*
X10163039Y-15340079D02*
X10172563Y-15321031D01*
X10172563Y-15321031D02*
X10182087Y-15311508D01*
X10182087Y-15311508D02*
X10201134Y-15301984D01*
X10353515Y-15482936D02*
X10363039Y-15492460D01*
X10363039Y-15492460D02*
X10353515Y-15501984D01*
X10353515Y-15501984D02*
X10343991Y-15492460D01*
X10343991Y-15492460D02*
X10353515Y-15482936D01*
X10353515Y-15482936D02*
X10353515Y-15501984D01*
X10486848Y-15301984D02*
X10505896Y-15301984D01*
X10505896Y-15301984D02*
X10524944Y-15311508D01*
X10524944Y-15311508D02*
X10534468Y-15321031D01*
X10534468Y-15321031D02*
X10543991Y-15340079D01*
X10543991Y-15340079D02*
X10553515Y-15378174D01*
X10553515Y-15378174D02*
X10553515Y-15425793D01*
X10553515Y-15425793D02*
X10543991Y-15463888D01*
X10543991Y-15463888D02*
X10534468Y-15482936D01*
X10534468Y-15482936D02*
X10524944Y-15492460D01*
X10524944Y-15492460D02*
X10505896Y-15501984D01*
X10505896Y-15501984D02*
X10486848Y-15501984D01*
X10486848Y-15501984D02*
X10467801Y-15492460D01*
X10467801Y-15492460D02*
X10458277Y-15482936D01*
X10458277Y-15482936D02*
X10448753Y-15463888D01*
X10448753Y-15463888D02*
X10439229Y-15425793D01*
X10439229Y-15425793D02*
X10439229Y-15378174D01*
X10439229Y-15378174D02*
X10448753Y-15340079D01*
X10448753Y-15340079D02*
X10458277Y-15321031D01*
X10458277Y-15321031D02*
X10467801Y-15311508D01*
X10467801Y-15311508D02*
X10486848Y-15301984D01*
X10734468Y-15301984D02*
X10639229Y-15301984D01*
X10639229Y-15301984D02*
X10629706Y-15397222D01*
X10629706Y-15397222D02*
X10639229Y-15387698D01*
X10639229Y-15387698D02*
X10658277Y-15378174D01*
X10658277Y-15378174D02*
X10705896Y-15378174D01*
X10705896Y-15378174D02*
X10724944Y-15387698D01*
X10724944Y-15387698D02*
X10734468Y-15397222D01*
X10734468Y-15397222D02*
X10743991Y-15416269D01*
X10743991Y-15416269D02*
X10743991Y-15463888D01*
X10743991Y-15463888D02*
X10734468Y-15482936D01*
X10734468Y-15482936D02*
X10724944Y-15492460D01*
X10724944Y-15492460D02*
X10705896Y-15501984D01*
X10705896Y-15501984D02*
X10658277Y-15501984D01*
X10658277Y-15501984D02*
X10639229Y-15492460D01*
X10639229Y-15492460D02*
X10629706Y-15482936D01*
X10934468Y-15501984D02*
X10820182Y-15501984D01*
X10877325Y-15501984D02*
X10877325Y-15301984D01*
X10877325Y-15301984D02*
X10858277Y-15330555D01*
X10858277Y-15330555D02*
X10839229Y-15349603D01*
X10839229Y-15349603D02*
X10820182Y-15359127D01*
X11010658Y-15321031D02*
X11020182Y-15311508D01*
X11020182Y-15311508D02*
X11039229Y-15301984D01*
X11039229Y-15301984D02*
X11086849Y-15301984D01*
X11086849Y-15301984D02*
X11105896Y-15311508D01*
X11105896Y-15311508D02*
X11115420Y-15321031D01*
X11115420Y-15321031D02*
X11124944Y-15340079D01*
X11124944Y-15340079D02*
X11124944Y-15359127D01*
X11124944Y-15359127D02*
X11115420Y-15387698D01*
X11115420Y-15387698D02*
X11001134Y-15501984D01*
X11001134Y-15501984D02*
X11124944Y-15501984D01*
X11201134Y-15301984D02*
X11201134Y-15340079D01*
X11277325Y-15301984D02*
X11277325Y-15340079D01*
X11572563Y-15578174D02*
X11563039Y-15568650D01*
X11563039Y-15568650D02*
X11543991Y-15540079D01*
X11543991Y-15540079D02*
X11534468Y-15521031D01*
X11534468Y-15521031D02*
X11524944Y-15492460D01*
X11524944Y-15492460D02*
X11515420Y-15444841D01*
X11515420Y-15444841D02*
X11515420Y-15406746D01*
X11515420Y-15406746D02*
X11524944Y-15359127D01*
X11524944Y-15359127D02*
X11534468Y-15330555D01*
X11534468Y-15330555D02*
X11543991Y-15311508D01*
X11543991Y-15311508D02*
X11563039Y-15282936D01*
X11563039Y-15282936D02*
X11572563Y-15273412D01*
X11734468Y-15301984D02*
X11696372Y-15301984D01*
X11696372Y-15301984D02*
X11677325Y-15311508D01*
X11677325Y-15311508D02*
X11667801Y-15321031D01*
X11667801Y-15321031D02*
X11648753Y-15349603D01*
X11648753Y-15349603D02*
X11639229Y-15387698D01*
X11639229Y-15387698D02*
X11639229Y-15463888D01*
X11639229Y-15463888D02*
X11648753Y-15482936D01*
X11648753Y-15482936D02*
X11658277Y-15492460D01*
X11658277Y-15492460D02*
X11677325Y-15501984D01*
X11677325Y-15501984D02*
X11715420Y-15501984D01*
X11715420Y-15501984D02*
X11734468Y-15492460D01*
X11734468Y-15492460D02*
X11743991Y-15482936D01*
X11743991Y-15482936D02*
X11753515Y-15463888D01*
X11753515Y-15463888D02*
X11753515Y-15416269D01*
X11753515Y-15416269D02*
X11743991Y-15397222D01*
X11743991Y-15397222D02*
X11734468Y-15387698D01*
X11734468Y-15387698D02*
X11715420Y-15378174D01*
X11715420Y-15378174D02*
X11677325Y-15378174D01*
X11677325Y-15378174D02*
X11658277Y-15387698D01*
X11658277Y-15387698D02*
X11648753Y-15397222D01*
X11648753Y-15397222D02*
X11639229Y-15416269D01*
X11991610Y-15501984D02*
X11991610Y-15301984D01*
X12077325Y-15501984D02*
X12077325Y-15397222D01*
X12077325Y-15397222D02*
X12067801Y-15378174D01*
X12067801Y-15378174D02*
X12048753Y-15368650D01*
X12048753Y-15368650D02*
X12020182Y-15368650D01*
X12020182Y-15368650D02*
X12001134Y-15378174D01*
X12001134Y-15378174D02*
X11991610Y-15387698D01*
X12201134Y-15501984D02*
X12182087Y-15492460D01*
X12182087Y-15492460D02*
X12172563Y-15482936D01*
X12172563Y-15482936D02*
X12163039Y-15463888D01*
X12163039Y-15463888D02*
X12163039Y-15406746D01*
X12163039Y-15406746D02*
X12172563Y-15387698D01*
X12172563Y-15387698D02*
X12182087Y-15378174D01*
X12182087Y-15378174D02*
X12201134Y-15368650D01*
X12201134Y-15368650D02*
X12229706Y-15368650D01*
X12229706Y-15368650D02*
X12248753Y-15378174D01*
X12248753Y-15378174D02*
X12258277Y-15387698D01*
X12258277Y-15387698D02*
X12267801Y-15406746D01*
X12267801Y-15406746D02*
X12267801Y-15463888D01*
X12267801Y-15463888D02*
X12258277Y-15482936D01*
X12258277Y-15482936D02*
X12248753Y-15492460D01*
X12248753Y-15492460D02*
X12229706Y-15501984D01*
X12229706Y-15501984D02*
X12201134Y-15501984D01*
X12382087Y-15501984D02*
X12363039Y-15492460D01*
X12363039Y-15492460D02*
X12353515Y-15473412D01*
X12353515Y-15473412D02*
X12353515Y-15301984D01*
X12534468Y-15492460D02*
X12515420Y-15501984D01*
X12515420Y-15501984D02*
X12477325Y-15501984D01*
X12477325Y-15501984D02*
X12458277Y-15492460D01*
X12458277Y-15492460D02*
X12448753Y-15473412D01*
X12448753Y-15473412D02*
X12448753Y-15397222D01*
X12448753Y-15397222D02*
X12458277Y-15378174D01*
X12458277Y-15378174D02*
X12477325Y-15368650D01*
X12477325Y-15368650D02*
X12515420Y-15368650D01*
X12515420Y-15368650D02*
X12534468Y-15378174D01*
X12534468Y-15378174D02*
X12543991Y-15397222D01*
X12543991Y-15397222D02*
X12543991Y-15416269D01*
X12543991Y-15416269D02*
X12448753Y-15435317D01*
X12620182Y-15492460D02*
X12639230Y-15501984D01*
X12639230Y-15501984D02*
X12677325Y-15501984D01*
X12677325Y-15501984D02*
X12696372Y-15492460D01*
X12696372Y-15492460D02*
X12705896Y-15473412D01*
X12705896Y-15473412D02*
X12705896Y-15463888D01*
X12705896Y-15463888D02*
X12696372Y-15444841D01*
X12696372Y-15444841D02*
X12677325Y-15435317D01*
X12677325Y-15435317D02*
X12648753Y-15435317D01*
X12648753Y-15435317D02*
X12629706Y-15425793D01*
X12629706Y-15425793D02*
X12620182Y-15406746D01*
X12620182Y-15406746D02*
X12620182Y-15397222D01*
X12620182Y-15397222D02*
X12629706Y-15378174D01*
X12629706Y-15378174D02*
X12648753Y-15368650D01*
X12648753Y-15368650D02*
X12677325Y-15368650D01*
X12677325Y-15368650D02*
X12696372Y-15378174D01*
X12772563Y-15578174D02*
X12782087Y-15568650D01*
X12782087Y-15568650D02*
X12801134Y-15540079D01*
X12801134Y-15540079D02*
X12810658Y-15521031D01*
X12810658Y-15521031D02*
X12820182Y-15492460D01*
X12820182Y-15492460D02*
X12829706Y-15444841D01*
X12829706Y-15444841D02*
X12829706Y-15406746D01*
X12829706Y-15406746D02*
X12820182Y-15359127D01*
X12820182Y-15359127D02*
X12810658Y-15330555D01*
X12810658Y-15330555D02*
X12801134Y-15311508D01*
X12801134Y-15311508D02*
X12782087Y-15282936D01*
X12782087Y-15282936D02*
X12772563Y-15273412D01*
M02*
