%TF.GenerationSoftware,KiCad,Pcbnew,9.0.2*%
%TF.CreationDate,2025-08-14T17:52:04+08:00*%
%TF.ProjectId,SSRU_v3.1,53535255-5f76-4332-9e31-2e6b69636164,rev?*%
%TF.SameCoordinates,Original*%
%TF.FileFunction,Paste,Top*%
%TF.FilePolarity,Positive*%
%FSLAX46Y46*%
G04 Gerber Fmt 4.6, Leading zero omitted, Abs format (unit mm)*
G04 Created by KiCad (PCBNEW 9.0.2) date 2025-08-14 17:52:04*
%MOMM*%
%LPD*%
G01*
G04 APERTURE LIST*
G04 Aperture macros list*
%AMRoundRect*
0 Rectangle with rounded corners*
0 $1 Rounding radius*
0 $2 $3 $4 $5 $6 $7 $8 $9 X,Y pos of 4 corners*
0 Add a 4 corners polygon primitive as box body*
4,1,4,$2,$3,$4,$5,$6,$7,$8,$9,$2,$3,0*
0 Add four circle primitives for the rounded corners*
1,1,$1+$1,$2,$3*
1,1,$1+$1,$4,$5*
1,1,$1+$1,$6,$7*
1,1,$1+$1,$8,$9*
0 Add four rect primitives between the rounded corners*
20,1,$1+$1,$2,$3,$4,$5,0*
20,1,$1+$1,$4,$5,$6,$7,0*
20,1,$1+$1,$6,$7,$8,$9,0*
20,1,$1+$1,$8,$9,$2,$3,0*%
%AMRotRect*
0 Rectangle, with rotation*
0 The origin of the aperture is its center*
0 $1 length*
0 $2 width*
0 $3 Rotation angle, in degrees counterclockwise*
0 Add horizontal line*
21,1,$1,$2,0,0,$3*%
G04 Aperture macros list end*
%ADD10RoundRect,0.150000X1.350000X0.150000X-1.350000X0.150000X-1.350000X-0.150000X1.350000X-0.150000X0*%
%ADD11RoundRect,0.150000X1.337500X0.150000X-1.337500X0.150000X-1.337500X-0.150000X1.337500X-0.150000X0*%
%ADD12RoundRect,0.150000X0.150000X-1.350000X0.150000X1.350000X-0.150000X1.350000X-0.150000X-1.350000X0*%
%ADD13RoundRect,0.150000X0.150000X-1.337500X0.150000X1.337500X-0.150000X1.337500X-0.150000X-1.337500X0*%
%ADD14RoundRect,0.150000X-1.350000X-0.150000X1.350000X-0.150000X1.350000X0.150000X-1.350000X0.150000X0*%
%ADD15RoundRect,0.150000X-1.337500X-0.150000X1.337500X-0.150000X1.337500X0.150000X-1.337500X0.150000X0*%
%ADD16RoundRect,0.390352X-0.722148X-0.934648X0.722148X-0.934648X0.722148X0.934648X-0.722148X0.934648X0*%
%ADD17RoundRect,0.100000X-0.100000X0.687500X-0.100000X-0.687500X0.100000X-0.687500X0.100000X0.687500X0*%
%ADD18RoundRect,0.100000X-0.099999X0.687500X-0.099999X-0.687500X0.099999X-0.687500X0.099999X0.687500X0*%
%ADD19RoundRect,0.305575X0.412525X-0.460025X0.412525X0.460025X-0.412525X0.460025X-0.412525X-0.460025X0*%
%ADD20RoundRect,0.308511X0.416489X-0.457089X0.416489X0.457089X-0.416489X0.457089X-0.416489X-0.457089X0*%
%ADD21RoundRect,0.305575X0.460025X0.412525X-0.460025X0.412525X-0.460025X-0.412525X0.460025X-0.412525X0*%
%ADD22RoundRect,0.308511X0.457089X0.416489X-0.457089X0.416489X-0.457089X-0.416489X0.457089X-0.416489X0*%
%ADD23RoundRect,0.278125X0.389375X-0.474375X0.389375X0.474375X-0.389375X0.474375X-0.389375X-0.474375X0*%
%ADD24RoundRect,0.375000X1.300000X0.375000X-1.300000X0.375000X-1.300000X-0.375000X1.300000X-0.375000X0*%
%ADD25RoundRect,0.837500X0.837500X1.062500X-0.837500X1.062500X-0.837500X-1.062500X0.837500X-1.062500X0*%
%ADD26RoundRect,0.387500X1.287500X0.387500X-1.287500X0.387500X-1.287500X-0.387500X1.287500X-0.387500X0*%
%ADD27RoundRect,0.250001X-1.044999X0.872499X-1.044999X-0.872499X1.044999X-0.872499X1.044999X0.872499X0*%
%ADD28RoundRect,0.305575X-0.460025X-0.412525X0.460025X-0.412525X0.460025X0.412525X-0.460025X0.412525X0*%
%ADD29RoundRect,0.308511X-0.457089X-0.416489X0.457089X-0.416489X0.457089X0.416489X-0.457089X0.416489X0*%
%ADD30RoundRect,0.293478X-0.406522X0.381522X-0.406522X-0.381522X0.406522X-0.381522X0.406522X0.381522X0*%
%ADD31RoundRect,0.305575X-0.412525X0.460025X-0.412525X-0.460025X0.412525X-0.460025X0.412525X0.460025X0*%
%ADD32RoundRect,0.308511X-0.416489X0.457089X-0.416489X-0.457089X0.416489X-0.457089X0.416489X0.457089X0*%
%ADD33RoundRect,0.293478X0.381522X0.406522X-0.381522X0.406522X-0.381522X-0.406522X0.381522X-0.406522X0*%
%ADD34R,5.500000X2.500000*%
%ADD35RoundRect,0.278125X-0.389375X0.474375X-0.389375X-0.474375X0.389375X-0.474375X0.389375X0.474375X0*%
%ADD36RotRect,5.500000X2.500000X315.000000*%
%ADD37RoundRect,0.390352X0.934648X-0.722148X0.934648X0.722148X-0.934648X0.722148X-0.934648X-0.722148X0*%
%ADD38RoundRect,0.336539X0.713461X0.538461X-0.713461X0.538461X-0.713461X-0.538461X0.713461X-0.538461X0*%
%ADD39RoundRect,0.250000X-0.650000X1.500000X-0.650000X-1.500000X0.650000X-1.500000X0.650000X1.500000X0*%
%ADD40RoundRect,0.250000X1.500000X0.650000X-1.500000X0.650000X-1.500000X-0.650000X1.500000X-0.650000X0*%
%ADD41RotRect,2.000000X0.550000X225.000000*%
%ADD42RotRect,2.000000X0.550000X315.000000*%
%ADD43RotRect,2.000000X0.525000X315.000000*%
%ADD44RotRect,2.000000X0.575000X315.000000*%
%ADD45RotRect,2.000000X0.525000X225.000000*%
%ADD46RoundRect,0.278125X0.474375X0.389375X-0.474375X0.389375X-0.474375X-0.389375X0.474375X-0.389375X0*%
%ADD47RoundRect,0.278125X-0.474375X-0.389375X0.474375X-0.389375X0.474375X0.389375X-0.474375X0.389375X0*%
%ADD48RoundRect,0.336539X-0.713461X-0.538461X0.713461X-0.538461X0.713461X0.538461X-0.713461X0.538461X0*%
%ADD49RoundRect,0.249999X0.450001X1.850001X-0.450001X1.850001X-0.450001X-1.850001X0.450001X-1.850001X0*%
%ADD50RoundRect,0.250000X2.325000X0.300000X-2.325000X0.300000X-2.325000X-0.300000X2.325000X-0.300000X0*%
%ADD51RoundRect,0.250000X2.025000X2.375000X-2.025000X2.375000X-2.025000X-2.375000X2.025000X-2.375000X0*%
%ADD52RoundRect,0.266483X2.158517X2.433517X-2.158517X2.433517X-2.158517X-2.433517X2.158517X-2.433517X0*%
%ADD53RoundRect,0.266483X2.158517X2.358517X-2.158517X2.358517X-2.158517X-2.358517X2.158517X-2.358517X0*%
%ADD54RoundRect,0.250001X-0.872499X-1.044999X0.872499X-1.044999X0.872499X1.044999X-0.872499X1.044999X0*%
%ADD55RoundRect,0.162500X-1.052500X-0.162500X1.052500X-0.162500X1.052500X0.162500X-1.052500X0.162500X0*%
%ADD56RoundRect,0.305575X0.616986X-0.033588X-0.033588X0.616986X-0.616986X0.033588X0.033588X-0.616986X0*%
%ADD57RoundRect,0.308511X0.617713X-0.028709X-0.028709X0.617713X-0.617713X0.028709X0.028709X-0.617713X0*%
%ADD58RoundRect,0.162500X-0.927500X-0.162500X0.927500X-0.162500X0.927500X0.162500X-0.927500X0.162500X0*%
%ADD59R,3.600000X3.800000*%
G04 APERTURE END LIST*
D10*
%TO.C,U10*%
X158000000Y-93905000D03*
X158000000Y-92635000D03*
D11*
X158012500Y-91500000D03*
D10*
X158000000Y-90095000D03*
X152000000Y-90095000D03*
X152000000Y-91365000D03*
X152000000Y-92635000D03*
X152000000Y-93905000D03*
%TD*%
D12*
%TO.C,U13*%
X185095000Y-116500000D03*
X186365000Y-116500000D03*
D13*
X187500000Y-116512500D03*
D12*
X188905000Y-116500000D03*
X188905000Y-110500000D03*
X187635000Y-110500000D03*
X186365000Y-110500000D03*
X185095000Y-110500000D03*
%TD*%
D14*
%TO.C,U14*%
X152000000Y-126095000D03*
X152000000Y-127365000D03*
D15*
X151987500Y-128500000D03*
D14*
X152000000Y-129905000D03*
X158000000Y-129905000D03*
X158000000Y-128635000D03*
X158000000Y-127365000D03*
X158000000Y-126095000D03*
%TD*%
D16*
%TO.C,F2*%
X157112500Y-68000000D03*
X160887500Y-68000000D03*
%TD*%
D17*
%TO.C,U1*%
X167077500Y-89087500D03*
X166427500Y-89087500D03*
X165777500Y-89087500D03*
D18*
X165127499Y-89087500D03*
D17*
X164477500Y-89087500D03*
X163827500Y-89087500D03*
X163177500Y-89087500D03*
X162527500Y-89087500D03*
X161877500Y-89087500D03*
X161227500Y-89087500D03*
X161227500Y-94912500D03*
X161877500Y-94912500D03*
X162527500Y-94912500D03*
X163177500Y-94912500D03*
X163827500Y-94912500D03*
X164477500Y-94912500D03*
X165127500Y-94912500D03*
D18*
X165777499Y-94912500D03*
X166427499Y-94912500D03*
X167077499Y-94912500D03*
%TD*%
D19*
%TO.C,C25*%
X145493100Y-126215600D03*
D20*
X145500000Y-123784400D03*
%TD*%
D21*
%TO.C,C3*%
X194215600Y-99006900D03*
D22*
X191784400Y-99000000D03*
%TD*%
D19*
%TO.C,C9*%
X168393100Y-74531200D03*
D20*
X168400000Y-72100000D03*
%TD*%
D23*
%TO.C,R44*%
X125967500Y-133152500D03*
X125967500Y-130847500D03*
%TD*%
D24*
%TO.C,U5*%
X161725000Y-76600000D03*
D25*
X154075000Y-74300000D03*
D26*
X161725000Y-72025000D03*
D24*
X161725000Y-74300000D03*
%TD*%
D27*
%TO.C,C33*%
X120250000Y-130792500D03*
X120250000Y-137207500D03*
%TD*%
D23*
%TO.C,R28*%
X161967500Y-130152500D03*
X161967500Y-127847500D03*
%TD*%
D28*
%TO.C,C14*%
X126784400Y-102993100D03*
D29*
X129215600Y-103000000D03*
%TD*%
D30*
%TO.C,D4*%
X135467500Y-84125000D03*
X135467500Y-86375000D03*
%TD*%
D21*
%TO.C,C40*%
X153215600Y-88006900D03*
D22*
X150784400Y-88000000D03*
%TD*%
D19*
%TO.C,C19*%
X144743100Y-119215600D03*
D20*
X144750000Y-116784400D03*
%TD*%
D21*
%TO.C,C30*%
X147215600Y-114741900D03*
D22*
X144784400Y-114735000D03*
%TD*%
D19*
%TO.C,C22*%
X164993100Y-127215600D03*
D20*
X165000000Y-124784400D03*
%TD*%
D31*
%TO.C,C12*%
X153006900Y-66284400D03*
D32*
X153000000Y-68715600D03*
%TD*%
D33*
%TO.C,D3*%
X179277500Y-75032500D03*
X177027500Y-75032500D03*
%TD*%
D23*
%TO.C,R7*%
X124967500Y-118152500D03*
X124967500Y-115847500D03*
%TD*%
D21*
%TO.C,C6*%
X127215600Y-78606900D03*
D22*
X124784400Y-78600000D03*
%TD*%
D34*
%TO.C,Y3*%
X167406719Y-100991762D03*
X158593282Y-101000000D03*
%TD*%
%TO.C,Y4*%
X167256719Y-84491762D03*
X158443282Y-84500000D03*
%TD*%
D28*
%TO.C,C21*%
X156584400Y-123993100D03*
D29*
X159015600Y-124000000D03*
%TD*%
D35*
%TO.C,R39*%
X137782500Y-84097500D03*
X137782500Y-86402500D03*
%TD*%
D36*
%TO.C,Y1*%
X183508760Y-83543087D03*
X189746626Y-89769303D03*
%TD*%
D37*
%TO.C,F1*%
X141500000Y-84275000D03*
X141500000Y-80500000D03*
%TD*%
D19*
%TO.C,C10*%
X145393100Y-82431200D03*
D20*
X145400000Y-80000000D03*
%TD*%
D10*
%TO.C,U12*%
X158000000Y-109905000D03*
X158000000Y-108635000D03*
D11*
X158012500Y-107500000D03*
D10*
X158000000Y-106095000D03*
X152000000Y-106095000D03*
X152000000Y-107365000D03*
X152000000Y-108635000D03*
X152000000Y-109905000D03*
%TD*%
D35*
%TO.C,R23*%
X124032500Y-130847500D03*
X124032500Y-133152500D03*
%TD*%
D21*
%TO.C,C2*%
X194215600Y-95006900D03*
D22*
X191784400Y-95000000D03*
%TD*%
D38*
%TO.C,R24*%
X160950000Y-134000000D03*
X157050000Y-134000000D03*
%TD*%
D39*
%TO.C,D6*%
X194000000Y-104250000D03*
X194000000Y-109250000D03*
%TD*%
D40*
%TO.C,D5*%
X124500000Y-125000000D03*
X119500000Y-125000000D03*
%TD*%
D19*
%TO.C,C8*%
X165493100Y-74531200D03*
D20*
X165500000Y-72100000D03*
%TD*%
D41*
%TO.C,U2*%
X186126524Y-94833274D03*
X185560839Y-94267588D03*
X184995153Y-93701903D03*
X184429468Y-93136218D03*
X183863782Y-92570532D03*
X183298097Y-92004847D03*
X182732412Y-91439161D03*
X182166726Y-90873476D03*
D42*
X179833274Y-90873476D03*
D43*
X179276427Y-91430322D03*
D44*
X178693064Y-92013686D03*
D42*
X178136218Y-92570532D03*
X177570532Y-93136218D03*
X177004847Y-93701903D03*
X176439161Y-94267588D03*
X175873476Y-94833274D03*
D41*
X175873476Y-97166726D03*
X176439161Y-97732412D03*
X177004847Y-98298097D03*
D45*
X177579371Y-98872621D03*
D41*
X178136218Y-99429468D03*
X178701903Y-99995153D03*
X179267588Y-100560839D03*
X179833274Y-101126524D03*
D42*
X182166726Y-101126524D03*
X182732412Y-100560839D03*
X183298097Y-99995153D03*
X183863782Y-99429468D03*
X184429468Y-98863782D03*
X184995153Y-98298097D03*
X185560839Y-97732412D03*
X186126524Y-97166726D03*
%TD*%
D46*
%TO.C,R3*%
X142152500Y-121767500D03*
X139847500Y-121767500D03*
%TD*%
D47*
%TO.C,R38*%
X172000000Y-75000000D03*
X174305000Y-75000000D03*
%TD*%
D35*
%TO.C,R17*%
X148185000Y-90847500D03*
X148185000Y-93152500D03*
%TD*%
D48*
%TO.C,R25*%
X149604317Y-134000000D03*
X153504317Y-134000000D03*
%TD*%
D35*
%TO.C,R8*%
X125032500Y-110847500D03*
X125032500Y-113152500D03*
%TD*%
D49*
%TO.C,L2*%
X132850000Y-126000000D03*
X129150000Y-126000000D03*
%TD*%
D50*
%TO.C,U4*%
X125925000Y-74400000D03*
X125925000Y-72700000D03*
X125925000Y-71000000D03*
D51*
X118925000Y-73775000D03*
X118925000Y-68225000D03*
D52*
X113925000Y-73700000D03*
D53*
X113925000Y-68225000D03*
D50*
X125925000Y-69300000D03*
X125925000Y-67600000D03*
%TD*%
D37*
%TO.C,F3*%
X194000000Y-118387500D03*
X194000000Y-114612500D03*
%TD*%
D54*
%TO.C,C32*%
X133792500Y-136250000D03*
X140207500Y-136250000D03*
%TD*%
D55*
%TO.C,U9*%
X129065000Y-131050000D03*
X129065000Y-132000000D03*
X129065000Y-132950000D03*
X132635000Y-132950000D03*
X132635000Y-132000000D03*
X132635000Y-131050000D03*
%TD*%
D28*
%TO.C,C35*%
X116034400Y-128243100D03*
D29*
X118465600Y-128250000D03*
%TD*%
D17*
%TO.C,U7*%
X167077500Y-105087500D03*
X166427500Y-105087500D03*
X165777500Y-105087500D03*
D18*
X165127499Y-105087500D03*
D17*
X164477500Y-105087500D03*
X163827500Y-105087500D03*
X163177500Y-105087500D03*
X162527500Y-105087500D03*
X161877500Y-105087500D03*
X161227500Y-105087500D03*
X161227500Y-110912500D03*
X161877500Y-110912500D03*
X162527500Y-110912500D03*
X163177500Y-110912500D03*
X163827500Y-110912500D03*
X164477500Y-110912500D03*
X165127500Y-110912500D03*
D18*
X165777499Y-110912500D03*
X166427499Y-110912500D03*
X167077499Y-110912500D03*
%TD*%
D23*
%TO.C,R29*%
X164967500Y-132652500D03*
X164967500Y-130347500D03*
%TD*%
%TO.C,R33*%
X148521817Y-129152500D03*
X148521817Y-126847500D03*
%TD*%
D21*
%TO.C,C34*%
X138965600Y-132506900D03*
D22*
X136534400Y-132500000D03*
%TD*%
D56*
%TO.C,C28*%
X180104680Y-105114438D03*
D57*
X178390441Y-103390441D03*
%TD*%
D58*
%TO.C,U8*%
X138840000Y-114785000D03*
X138840000Y-115735000D03*
X138840000Y-116685000D03*
X142160000Y-116685000D03*
X142160000Y-114785000D03*
%TD*%
D35*
%TO.C,R22*%
X148185000Y-106847500D03*
X148185000Y-109152500D03*
%TD*%
D40*
%TO.C,D2*%
X136500000Y-79750000D03*
X131500000Y-79750000D03*
%TD*%
D27*
%TO.C,C20*%
X149100000Y-76092500D03*
X149100000Y-82507500D03*
%TD*%
D21*
%TO.C,C1*%
X194215600Y-97006900D03*
D22*
X191784400Y-97000000D03*
%TD*%
D28*
%TO.C,C13*%
X132784400Y-102993100D03*
D29*
X135215600Y-103000000D03*
%TD*%
D59*
%TO.C,L1*%
X136500000Y-75700000D03*
X136500000Y-66300000D03*
%TD*%
D23*
%TO.C,R32*%
X145467500Y-132152500D03*
X145467500Y-129847500D03*
%TD*%
D14*
%TO.C,U11*%
X128000000Y-105095000D03*
X128000000Y-106365000D03*
D15*
X127987500Y-107500000D03*
D14*
X128000000Y-108905000D03*
X134000000Y-108905000D03*
X134000000Y-107635000D03*
X134000000Y-106365000D03*
X134000000Y-105095000D03*
%TD*%
M02*
