%TF.GenerationSoftware,KiCad,Pcbnew,9.0.2*%
%TF.CreationDate,2025-08-14T17:52:04+08:00*%
%TF.ProjectId,SSRU_v3.1,53535255-5f76-4332-9e31-2e6b69636164,rev?*%
%TF.SameCoordinates,Original*%
%TF.FileFunction,Legend,Bot*%
%TF.FilePolarity,Positive*%
%FSLAX46Y46*%
G04 Gerber Fmt 4.6, Leading zero omitted, Abs format (unit mm)*
G04 Created by KiCad (PCBNEW 9.0.2) date 2025-08-14 17:52:04*
%MOMM*%
%LPD*%
G01*
G04 APERTURE LIST*
%ADD10C,0.150000*%
%ADD11C,0.120000*%
G04 APERTURE END LIST*
D10*
X175983333Y-100404819D02*
X175983333Y-101119104D01*
X175983333Y-101119104D02*
X176030952Y-101261961D01*
X176030952Y-101261961D02*
X176126190Y-101357200D01*
X176126190Y-101357200D02*
X176269047Y-101404819D01*
X176269047Y-101404819D02*
X176364285Y-101404819D01*
X175507142Y-101404819D02*
X175507142Y-100404819D01*
X175507142Y-100404819D02*
X175126190Y-100404819D01*
X175126190Y-100404819D02*
X175030952Y-100452438D01*
X175030952Y-100452438D02*
X174983333Y-100500057D01*
X174983333Y-100500057D02*
X174935714Y-100595295D01*
X174935714Y-100595295D02*
X174935714Y-100738152D01*
X174935714Y-100738152D02*
X174983333Y-100833390D01*
X174983333Y-100833390D02*
X175030952Y-100881009D01*
X175030952Y-100881009D02*
X175126190Y-100928628D01*
X175126190Y-100928628D02*
X175507142Y-100928628D01*
X173983333Y-101404819D02*
X174554761Y-101404819D01*
X174269047Y-101404819D02*
X174269047Y-100404819D01*
X174269047Y-100404819D02*
X174364285Y-100547676D01*
X174364285Y-100547676D02*
X174459523Y-100642914D01*
X174459523Y-100642914D02*
X174554761Y-100690533D01*
X168642857Y-97428528D02*
X168690476Y-97476148D01*
X168690476Y-97476148D02*
X168833333Y-97523767D01*
X168833333Y-97523767D02*
X168928571Y-97523767D01*
X168928571Y-97523767D02*
X169071428Y-97476148D01*
X169071428Y-97476148D02*
X169166666Y-97380909D01*
X169166666Y-97380909D02*
X169214285Y-97285671D01*
X169214285Y-97285671D02*
X169261904Y-97095195D01*
X169261904Y-97095195D02*
X169261904Y-96952338D01*
X169261904Y-96952338D02*
X169214285Y-96761862D01*
X169214285Y-96761862D02*
X169166666Y-96666624D01*
X169166666Y-96666624D02*
X169071428Y-96571386D01*
X169071428Y-96571386D02*
X168928571Y-96523767D01*
X168928571Y-96523767D02*
X168833333Y-96523767D01*
X168833333Y-96523767D02*
X168690476Y-96571386D01*
X168690476Y-96571386D02*
X168642857Y-96619005D01*
X167785714Y-96857100D02*
X167785714Y-97523767D01*
X168023809Y-96476148D02*
X168261904Y-97190433D01*
X168261904Y-97190433D02*
X167642857Y-97190433D01*
X166738095Y-97523767D02*
X167309523Y-97523767D01*
X167023809Y-97523767D02*
X167023809Y-96523767D01*
X167023809Y-96523767D02*
X167119047Y-96666624D01*
X167119047Y-96666624D02*
X167214285Y-96761862D01*
X167214285Y-96761862D02*
X167309523Y-96809481D01*
X138511904Y-94454819D02*
X138511904Y-95264342D01*
X138511904Y-95264342D02*
X138464285Y-95359580D01*
X138464285Y-95359580D02*
X138416666Y-95407200D01*
X138416666Y-95407200D02*
X138321428Y-95454819D01*
X138321428Y-95454819D02*
X138130952Y-95454819D01*
X138130952Y-95454819D02*
X138035714Y-95407200D01*
X138035714Y-95407200D02*
X137988095Y-95359580D01*
X137988095Y-95359580D02*
X137940476Y-95264342D01*
X137940476Y-95264342D02*
X137940476Y-94454819D01*
X137559523Y-94454819D02*
X136940476Y-94454819D01*
X136940476Y-94454819D02*
X137273809Y-94835771D01*
X137273809Y-94835771D02*
X137130952Y-94835771D01*
X137130952Y-94835771D02*
X137035714Y-94883390D01*
X137035714Y-94883390D02*
X136988095Y-94931009D01*
X136988095Y-94931009D02*
X136940476Y-95026247D01*
X136940476Y-95026247D02*
X136940476Y-95264342D01*
X136940476Y-95264342D02*
X136988095Y-95359580D01*
X136988095Y-95359580D02*
X137035714Y-95407200D01*
X137035714Y-95407200D02*
X137130952Y-95454819D01*
X137130952Y-95454819D02*
X137416666Y-95454819D01*
X137416666Y-95454819D02*
X137511904Y-95407200D01*
X137511904Y-95407200D02*
X137559523Y-95359580D01*
X172929580Y-99333333D02*
X172977200Y-99285714D01*
X172977200Y-99285714D02*
X173024819Y-99142857D01*
X173024819Y-99142857D02*
X173024819Y-99047619D01*
X173024819Y-99047619D02*
X172977200Y-98904762D01*
X172977200Y-98904762D02*
X172881961Y-98809524D01*
X172881961Y-98809524D02*
X172786723Y-98761905D01*
X172786723Y-98761905D02*
X172596247Y-98714286D01*
X172596247Y-98714286D02*
X172453390Y-98714286D01*
X172453390Y-98714286D02*
X172262914Y-98761905D01*
X172262914Y-98761905D02*
X172167676Y-98809524D01*
X172167676Y-98809524D02*
X172072438Y-98904762D01*
X172072438Y-98904762D02*
X172024819Y-99047619D01*
X172024819Y-99047619D02*
X172024819Y-99142857D01*
X172024819Y-99142857D02*
X172072438Y-99285714D01*
X172072438Y-99285714D02*
X172120057Y-99333333D01*
X172358152Y-100190476D02*
X173024819Y-100190476D01*
X171977200Y-99952381D02*
X172691485Y-99714286D01*
X172691485Y-99714286D02*
X172691485Y-100333333D01*
X105804819Y-99357142D02*
X105328628Y-99023809D01*
X105804819Y-98785714D02*
X104804819Y-98785714D01*
X104804819Y-98785714D02*
X104804819Y-99166666D01*
X104804819Y-99166666D02*
X104852438Y-99261904D01*
X104852438Y-99261904D02*
X104900057Y-99309523D01*
X104900057Y-99309523D02*
X104995295Y-99357142D01*
X104995295Y-99357142D02*
X105138152Y-99357142D01*
X105138152Y-99357142D02*
X105233390Y-99309523D01*
X105233390Y-99309523D02*
X105281009Y-99261904D01*
X105281009Y-99261904D02*
X105328628Y-99166666D01*
X105328628Y-99166666D02*
X105328628Y-98785714D01*
X105138152Y-100214285D02*
X105804819Y-100214285D01*
X104757200Y-99976190D02*
X105471485Y-99738095D01*
X105471485Y-99738095D02*
X105471485Y-100357142D01*
X104804819Y-100928571D02*
X104804819Y-101023809D01*
X104804819Y-101023809D02*
X104852438Y-101119047D01*
X104852438Y-101119047D02*
X104900057Y-101166666D01*
X104900057Y-101166666D02*
X104995295Y-101214285D01*
X104995295Y-101214285D02*
X105185771Y-101261904D01*
X105185771Y-101261904D02*
X105423866Y-101261904D01*
X105423866Y-101261904D02*
X105614342Y-101214285D01*
X105614342Y-101214285D02*
X105709580Y-101166666D01*
X105709580Y-101166666D02*
X105757200Y-101119047D01*
X105757200Y-101119047D02*
X105804819Y-101023809D01*
X105804819Y-101023809D02*
X105804819Y-100928571D01*
X105804819Y-100928571D02*
X105757200Y-100833333D01*
X105757200Y-100833333D02*
X105709580Y-100785714D01*
X105709580Y-100785714D02*
X105614342Y-100738095D01*
X105614342Y-100738095D02*
X105423866Y-100690476D01*
X105423866Y-100690476D02*
X105185771Y-100690476D01*
X105185771Y-100690476D02*
X104995295Y-100738095D01*
X104995295Y-100738095D02*
X104900057Y-100785714D01*
X104900057Y-100785714D02*
X104852438Y-100833333D01*
X104852438Y-100833333D02*
X104804819Y-100928571D01*
X168542857Y-80729580D02*
X168590476Y-80777200D01*
X168590476Y-80777200D02*
X168733333Y-80824819D01*
X168733333Y-80824819D02*
X168828571Y-80824819D01*
X168828571Y-80824819D02*
X168971428Y-80777200D01*
X168971428Y-80777200D02*
X169066666Y-80681961D01*
X169066666Y-80681961D02*
X169114285Y-80586723D01*
X169114285Y-80586723D02*
X169161904Y-80396247D01*
X169161904Y-80396247D02*
X169161904Y-80253390D01*
X169161904Y-80253390D02*
X169114285Y-80062914D01*
X169114285Y-80062914D02*
X169066666Y-79967676D01*
X169066666Y-79967676D02*
X168971428Y-79872438D01*
X168971428Y-79872438D02*
X168828571Y-79824819D01*
X168828571Y-79824819D02*
X168733333Y-79824819D01*
X168733333Y-79824819D02*
X168590476Y-79872438D01*
X168590476Y-79872438D02*
X168542857Y-79920057D01*
X168161904Y-79920057D02*
X168114285Y-79872438D01*
X168114285Y-79872438D02*
X168019047Y-79824819D01*
X168019047Y-79824819D02*
X167780952Y-79824819D01*
X167780952Y-79824819D02*
X167685714Y-79872438D01*
X167685714Y-79872438D02*
X167638095Y-79920057D01*
X167638095Y-79920057D02*
X167590476Y-80015295D01*
X167590476Y-80015295D02*
X167590476Y-80110533D01*
X167590476Y-80110533D02*
X167638095Y-80253390D01*
X167638095Y-80253390D02*
X168209523Y-80824819D01*
X168209523Y-80824819D02*
X167590476Y-80824819D01*
X166733333Y-79824819D02*
X166923809Y-79824819D01*
X166923809Y-79824819D02*
X167019047Y-79872438D01*
X167019047Y-79872438D02*
X167066666Y-79920057D01*
X167066666Y-79920057D02*
X167161904Y-80062914D01*
X167161904Y-80062914D02*
X167209523Y-80253390D01*
X167209523Y-80253390D02*
X167209523Y-80634342D01*
X167209523Y-80634342D02*
X167161904Y-80729580D01*
X167161904Y-80729580D02*
X167114285Y-80777200D01*
X167114285Y-80777200D02*
X167019047Y-80824819D01*
X167019047Y-80824819D02*
X166828571Y-80824819D01*
X166828571Y-80824819D02*
X166733333Y-80777200D01*
X166733333Y-80777200D02*
X166685714Y-80729580D01*
X166685714Y-80729580D02*
X166638095Y-80634342D01*
X166638095Y-80634342D02*
X166638095Y-80396247D01*
X166638095Y-80396247D02*
X166685714Y-80301009D01*
X166685714Y-80301009D02*
X166733333Y-80253390D01*
X166733333Y-80253390D02*
X166828571Y-80205771D01*
X166828571Y-80205771D02*
X167019047Y-80205771D01*
X167019047Y-80205771D02*
X167114285Y-80253390D01*
X167114285Y-80253390D02*
X167161904Y-80301009D01*
X167161904Y-80301009D02*
X167209523Y-80396247D01*
X166142857Y-89679580D02*
X166190476Y-89727200D01*
X166190476Y-89727200D02*
X166333333Y-89774819D01*
X166333333Y-89774819D02*
X166428571Y-89774819D01*
X166428571Y-89774819D02*
X166571428Y-89727200D01*
X166571428Y-89727200D02*
X166666666Y-89631961D01*
X166666666Y-89631961D02*
X166714285Y-89536723D01*
X166714285Y-89536723D02*
X166761904Y-89346247D01*
X166761904Y-89346247D02*
X166761904Y-89203390D01*
X166761904Y-89203390D02*
X166714285Y-89012914D01*
X166714285Y-89012914D02*
X166666666Y-88917676D01*
X166666666Y-88917676D02*
X166571428Y-88822438D01*
X166571428Y-88822438D02*
X166428571Y-88774819D01*
X166428571Y-88774819D02*
X166333333Y-88774819D01*
X166333333Y-88774819D02*
X166190476Y-88822438D01*
X166190476Y-88822438D02*
X166142857Y-88870057D01*
X165809523Y-88774819D02*
X165190476Y-88774819D01*
X165190476Y-88774819D02*
X165523809Y-89155771D01*
X165523809Y-89155771D02*
X165380952Y-89155771D01*
X165380952Y-89155771D02*
X165285714Y-89203390D01*
X165285714Y-89203390D02*
X165238095Y-89251009D01*
X165238095Y-89251009D02*
X165190476Y-89346247D01*
X165190476Y-89346247D02*
X165190476Y-89584342D01*
X165190476Y-89584342D02*
X165238095Y-89679580D01*
X165238095Y-89679580D02*
X165285714Y-89727200D01*
X165285714Y-89727200D02*
X165380952Y-89774819D01*
X165380952Y-89774819D02*
X165666666Y-89774819D01*
X165666666Y-89774819D02*
X165761904Y-89727200D01*
X165761904Y-89727200D02*
X165809523Y-89679580D01*
X164714285Y-89774819D02*
X164523809Y-89774819D01*
X164523809Y-89774819D02*
X164428571Y-89727200D01*
X164428571Y-89727200D02*
X164380952Y-89679580D01*
X164380952Y-89679580D02*
X164285714Y-89536723D01*
X164285714Y-89536723D02*
X164238095Y-89346247D01*
X164238095Y-89346247D02*
X164238095Y-88965295D01*
X164238095Y-88965295D02*
X164285714Y-88870057D01*
X164285714Y-88870057D02*
X164333333Y-88822438D01*
X164333333Y-88822438D02*
X164428571Y-88774819D01*
X164428571Y-88774819D02*
X164619047Y-88774819D01*
X164619047Y-88774819D02*
X164714285Y-88822438D01*
X164714285Y-88822438D02*
X164761904Y-88870057D01*
X164761904Y-88870057D02*
X164809523Y-88965295D01*
X164809523Y-88965295D02*
X164809523Y-89203390D01*
X164809523Y-89203390D02*
X164761904Y-89298628D01*
X164761904Y-89298628D02*
X164714285Y-89346247D01*
X164714285Y-89346247D02*
X164619047Y-89393866D01*
X164619047Y-89393866D02*
X164428571Y-89393866D01*
X164428571Y-89393866D02*
X164333333Y-89346247D01*
X164333333Y-89346247D02*
X164285714Y-89298628D01*
X164285714Y-89298628D02*
X164238095Y-89203390D01*
X184152808Y-83037210D02*
X184152808Y-83104554D01*
X184152808Y-83104554D02*
X184220152Y-83239241D01*
X184220152Y-83239241D02*
X184287495Y-83306584D01*
X184287495Y-83306584D02*
X184422182Y-83373928D01*
X184422182Y-83373928D02*
X184556869Y-83373928D01*
X184556869Y-83373928D02*
X184657884Y-83340256D01*
X184657884Y-83340256D02*
X184826243Y-83239241D01*
X184826243Y-83239241D02*
X184927258Y-83138226D01*
X184927258Y-83138226D02*
X185028274Y-82969867D01*
X185028274Y-82969867D02*
X185061945Y-82868852D01*
X185061945Y-82868852D02*
X185061945Y-82734165D01*
X185061945Y-82734165D02*
X184994602Y-82599478D01*
X184994602Y-82599478D02*
X184927258Y-82532134D01*
X184927258Y-82532134D02*
X184792571Y-82464791D01*
X184792571Y-82464791D02*
X184725228Y-82464791D01*
X183412030Y-82431119D02*
X183816091Y-82835180D01*
X183614060Y-82633149D02*
X184321167Y-81926043D01*
X184321167Y-81926043D02*
X184287495Y-82094401D01*
X184287495Y-82094401D02*
X184287495Y-82229088D01*
X184287495Y-82229088D02*
X184321167Y-82330104D01*
X183883434Y-81488310D02*
X183412029Y-81016905D01*
X183412029Y-81016905D02*
X183007968Y-82027058D01*
X153832080Y-107357142D02*
X153879700Y-107309523D01*
X153879700Y-107309523D02*
X153927319Y-107166666D01*
X153927319Y-107166666D02*
X153927319Y-107071428D01*
X153927319Y-107071428D02*
X153879700Y-106928571D01*
X153879700Y-106928571D02*
X153784461Y-106833333D01*
X153784461Y-106833333D02*
X153689223Y-106785714D01*
X153689223Y-106785714D02*
X153498747Y-106738095D01*
X153498747Y-106738095D02*
X153355890Y-106738095D01*
X153355890Y-106738095D02*
X153165414Y-106785714D01*
X153165414Y-106785714D02*
X153070176Y-106833333D01*
X153070176Y-106833333D02*
X152974938Y-106928571D01*
X152974938Y-106928571D02*
X152927319Y-107071428D01*
X152927319Y-107071428D02*
X152927319Y-107166666D01*
X152927319Y-107166666D02*
X152974938Y-107309523D01*
X152974938Y-107309523D02*
X153022557Y-107357142D01*
X153260652Y-108214285D02*
X153927319Y-108214285D01*
X152879700Y-107976190D02*
X153593985Y-107738095D01*
X153593985Y-107738095D02*
X153593985Y-108357142D01*
X153260652Y-109166666D02*
X153927319Y-109166666D01*
X152879700Y-108928571D02*
X153593985Y-108690476D01*
X153593985Y-108690476D02*
X153593985Y-109309523D01*
X163492857Y-84155871D02*
X163826190Y-83679680D01*
X164064285Y-84155871D02*
X164064285Y-83155871D01*
X164064285Y-83155871D02*
X163683333Y-83155871D01*
X163683333Y-83155871D02*
X163588095Y-83203490D01*
X163588095Y-83203490D02*
X163540476Y-83251109D01*
X163540476Y-83251109D02*
X163492857Y-83346347D01*
X163492857Y-83346347D02*
X163492857Y-83489204D01*
X163492857Y-83489204D02*
X163540476Y-83584442D01*
X163540476Y-83584442D02*
X163588095Y-83632061D01*
X163588095Y-83632061D02*
X163683333Y-83679680D01*
X163683333Y-83679680D02*
X164064285Y-83679680D01*
X162540476Y-84155871D02*
X163111904Y-84155871D01*
X162826190Y-84155871D02*
X162826190Y-83155871D01*
X162826190Y-83155871D02*
X162921428Y-83298728D01*
X162921428Y-83298728D02*
X163016666Y-83393966D01*
X163016666Y-83393966D02*
X163111904Y-83441585D01*
X161635714Y-83155871D02*
X162111904Y-83155871D01*
X162111904Y-83155871D02*
X162159523Y-83632061D01*
X162159523Y-83632061D02*
X162111904Y-83584442D01*
X162111904Y-83584442D02*
X162016666Y-83536823D01*
X162016666Y-83536823D02*
X161778571Y-83536823D01*
X161778571Y-83536823D02*
X161683333Y-83584442D01*
X161683333Y-83584442D02*
X161635714Y-83632061D01*
X161635714Y-83632061D02*
X161588095Y-83727299D01*
X161588095Y-83727299D02*
X161588095Y-83965394D01*
X161588095Y-83965394D02*
X161635714Y-84060632D01*
X161635714Y-84060632D02*
X161683333Y-84108252D01*
X161683333Y-84108252D02*
X161778571Y-84155871D01*
X161778571Y-84155871D02*
X162016666Y-84155871D01*
X162016666Y-84155871D02*
X162111904Y-84108252D01*
X162111904Y-84108252D02*
X162159523Y-84060632D01*
X130892857Y-101859580D02*
X130940476Y-101907200D01*
X130940476Y-101907200D02*
X131083333Y-101954819D01*
X131083333Y-101954819D02*
X131178571Y-101954819D01*
X131178571Y-101954819D02*
X131321428Y-101907200D01*
X131321428Y-101907200D02*
X131416666Y-101811961D01*
X131416666Y-101811961D02*
X131464285Y-101716723D01*
X131464285Y-101716723D02*
X131511904Y-101526247D01*
X131511904Y-101526247D02*
X131511904Y-101383390D01*
X131511904Y-101383390D02*
X131464285Y-101192914D01*
X131464285Y-101192914D02*
X131416666Y-101097676D01*
X131416666Y-101097676D02*
X131321428Y-101002438D01*
X131321428Y-101002438D02*
X131178571Y-100954819D01*
X131178571Y-100954819D02*
X131083333Y-100954819D01*
X131083333Y-100954819D02*
X130940476Y-101002438D01*
X130940476Y-101002438D02*
X130892857Y-101050057D01*
X130559523Y-100954819D02*
X129940476Y-100954819D01*
X129940476Y-100954819D02*
X130273809Y-101335771D01*
X130273809Y-101335771D02*
X130130952Y-101335771D01*
X130130952Y-101335771D02*
X130035714Y-101383390D01*
X130035714Y-101383390D02*
X129988095Y-101431009D01*
X129988095Y-101431009D02*
X129940476Y-101526247D01*
X129940476Y-101526247D02*
X129940476Y-101764342D01*
X129940476Y-101764342D02*
X129988095Y-101859580D01*
X129988095Y-101859580D02*
X130035714Y-101907200D01*
X130035714Y-101907200D02*
X130130952Y-101954819D01*
X130130952Y-101954819D02*
X130416666Y-101954819D01*
X130416666Y-101954819D02*
X130511904Y-101907200D01*
X130511904Y-101907200D02*
X130559523Y-101859580D01*
X128988095Y-101954819D02*
X129559523Y-101954819D01*
X129273809Y-101954819D02*
X129273809Y-100954819D01*
X129273809Y-100954819D02*
X129369047Y-101097676D01*
X129369047Y-101097676D02*
X129464285Y-101192914D01*
X129464285Y-101192914D02*
X129559523Y-101240533D01*
X193051527Y-87184173D02*
X193051527Y-87251517D01*
X193051527Y-87251517D02*
X193118871Y-87386204D01*
X193118871Y-87386204D02*
X193186214Y-87453547D01*
X193186214Y-87453547D02*
X193320901Y-87520891D01*
X193320901Y-87520891D02*
X193455588Y-87520891D01*
X193455588Y-87520891D02*
X193556603Y-87487219D01*
X193556603Y-87487219D02*
X193724962Y-87386204D01*
X193724962Y-87386204D02*
X193825977Y-87285189D01*
X193825977Y-87285189D02*
X193926993Y-87116830D01*
X193926993Y-87116830D02*
X193960664Y-87015815D01*
X193960664Y-87015815D02*
X193960664Y-86881128D01*
X193960664Y-86881128D02*
X193893321Y-86746441D01*
X193893321Y-86746441D02*
X193825977Y-86679097D01*
X193825977Y-86679097D02*
X193691290Y-86611754D01*
X193691290Y-86611754D02*
X193623947Y-86611754D01*
X193051527Y-85904647D02*
X193388245Y-86241364D01*
X193388245Y-86241364D02*
X193085199Y-86611754D01*
X193085199Y-86611754D02*
X193085199Y-86544410D01*
X193085199Y-86544410D02*
X193051527Y-86443395D01*
X193051527Y-86443395D02*
X192883168Y-86275036D01*
X192883168Y-86275036D02*
X192782153Y-86241364D01*
X192782153Y-86241364D02*
X192714810Y-86241364D01*
X192714810Y-86241364D02*
X192613794Y-86275036D01*
X192613794Y-86275036D02*
X192445436Y-86443395D01*
X192445436Y-86443395D02*
X192411764Y-86544410D01*
X192411764Y-86544410D02*
X192411764Y-86611754D01*
X192411764Y-86611754D02*
X192445436Y-86712769D01*
X192445436Y-86712769D02*
X192613794Y-86881128D01*
X192613794Y-86881128D02*
X192714810Y-86914799D01*
X192714810Y-86914799D02*
X192782153Y-86914799D01*
X158642857Y-100788528D02*
X158690476Y-100836148D01*
X158690476Y-100836148D02*
X158833333Y-100883767D01*
X158833333Y-100883767D02*
X158928571Y-100883767D01*
X158928571Y-100883767D02*
X159071428Y-100836148D01*
X159071428Y-100836148D02*
X159166666Y-100740909D01*
X159166666Y-100740909D02*
X159214285Y-100645671D01*
X159214285Y-100645671D02*
X159261904Y-100455195D01*
X159261904Y-100455195D02*
X159261904Y-100312338D01*
X159261904Y-100312338D02*
X159214285Y-100121862D01*
X159214285Y-100121862D02*
X159166666Y-100026624D01*
X159166666Y-100026624D02*
X159071428Y-99931386D01*
X159071428Y-99931386D02*
X158928571Y-99883767D01*
X158928571Y-99883767D02*
X158833333Y-99883767D01*
X158833333Y-99883767D02*
X158690476Y-99931386D01*
X158690476Y-99931386D02*
X158642857Y-99979005D01*
X157785714Y-100217100D02*
X157785714Y-100883767D01*
X158023809Y-99836148D02*
X158261904Y-100550433D01*
X158261904Y-100550433D02*
X157642857Y-100550433D01*
X157309523Y-99979005D02*
X157261904Y-99931386D01*
X157261904Y-99931386D02*
X157166666Y-99883767D01*
X157166666Y-99883767D02*
X156928571Y-99883767D01*
X156928571Y-99883767D02*
X156833333Y-99931386D01*
X156833333Y-99931386D02*
X156785714Y-99979005D01*
X156785714Y-99979005D02*
X156738095Y-100074243D01*
X156738095Y-100074243D02*
X156738095Y-100169481D01*
X156738095Y-100169481D02*
X156785714Y-100312338D01*
X156785714Y-100312338D02*
X157357142Y-100883767D01*
X157357142Y-100883767D02*
X156738095Y-100883767D01*
X166142857Y-95104819D02*
X166476190Y-94628628D01*
X166714285Y-95104819D02*
X166714285Y-94104819D01*
X166714285Y-94104819D02*
X166333333Y-94104819D01*
X166333333Y-94104819D02*
X166238095Y-94152438D01*
X166238095Y-94152438D02*
X166190476Y-94200057D01*
X166190476Y-94200057D02*
X166142857Y-94295295D01*
X166142857Y-94295295D02*
X166142857Y-94438152D01*
X166142857Y-94438152D02*
X166190476Y-94533390D01*
X166190476Y-94533390D02*
X166238095Y-94581009D01*
X166238095Y-94581009D02*
X166333333Y-94628628D01*
X166333333Y-94628628D02*
X166714285Y-94628628D01*
X165190476Y-95104819D02*
X165761904Y-95104819D01*
X165476190Y-95104819D02*
X165476190Y-94104819D01*
X165476190Y-94104819D02*
X165571428Y-94247676D01*
X165571428Y-94247676D02*
X165666666Y-94342914D01*
X165666666Y-94342914D02*
X165761904Y-94390533D01*
X164333333Y-94104819D02*
X164523809Y-94104819D01*
X164523809Y-94104819D02*
X164619047Y-94152438D01*
X164619047Y-94152438D02*
X164666666Y-94200057D01*
X164666666Y-94200057D02*
X164761904Y-94342914D01*
X164761904Y-94342914D02*
X164809523Y-94533390D01*
X164809523Y-94533390D02*
X164809523Y-94914342D01*
X164809523Y-94914342D02*
X164761904Y-95009580D01*
X164761904Y-95009580D02*
X164714285Y-95057200D01*
X164714285Y-95057200D02*
X164619047Y-95104819D01*
X164619047Y-95104819D02*
X164428571Y-95104819D01*
X164428571Y-95104819D02*
X164333333Y-95057200D01*
X164333333Y-95057200D02*
X164285714Y-95009580D01*
X164285714Y-95009580D02*
X164238095Y-94914342D01*
X164238095Y-94914342D02*
X164238095Y-94676247D01*
X164238095Y-94676247D02*
X164285714Y-94581009D01*
X164285714Y-94581009D02*
X164333333Y-94533390D01*
X164333333Y-94533390D02*
X164428571Y-94485771D01*
X164428571Y-94485771D02*
X164619047Y-94485771D01*
X164619047Y-94485771D02*
X164714285Y-94533390D01*
X164714285Y-94533390D02*
X164761904Y-94581009D01*
X164761904Y-94581009D02*
X164809523Y-94676247D01*
X128142857Y-95359580D02*
X128190476Y-95407200D01*
X128190476Y-95407200D02*
X128333333Y-95454819D01*
X128333333Y-95454819D02*
X128428571Y-95454819D01*
X128428571Y-95454819D02*
X128571428Y-95407200D01*
X128571428Y-95407200D02*
X128666666Y-95311961D01*
X128666666Y-95311961D02*
X128714285Y-95216723D01*
X128714285Y-95216723D02*
X128761904Y-95026247D01*
X128761904Y-95026247D02*
X128761904Y-94883390D01*
X128761904Y-94883390D02*
X128714285Y-94692914D01*
X128714285Y-94692914D02*
X128666666Y-94597676D01*
X128666666Y-94597676D02*
X128571428Y-94502438D01*
X128571428Y-94502438D02*
X128428571Y-94454819D01*
X128428571Y-94454819D02*
X128333333Y-94454819D01*
X128333333Y-94454819D02*
X128190476Y-94502438D01*
X128190476Y-94502438D02*
X128142857Y-94550057D01*
X127809523Y-94454819D02*
X127190476Y-94454819D01*
X127190476Y-94454819D02*
X127523809Y-94835771D01*
X127523809Y-94835771D02*
X127380952Y-94835771D01*
X127380952Y-94835771D02*
X127285714Y-94883390D01*
X127285714Y-94883390D02*
X127238095Y-94931009D01*
X127238095Y-94931009D02*
X127190476Y-95026247D01*
X127190476Y-95026247D02*
X127190476Y-95264342D01*
X127190476Y-95264342D02*
X127238095Y-95359580D01*
X127238095Y-95359580D02*
X127285714Y-95407200D01*
X127285714Y-95407200D02*
X127380952Y-95454819D01*
X127380952Y-95454819D02*
X127666666Y-95454819D01*
X127666666Y-95454819D02*
X127761904Y-95407200D01*
X127761904Y-95407200D02*
X127809523Y-95359580D01*
X126333333Y-94454819D02*
X126523809Y-94454819D01*
X126523809Y-94454819D02*
X126619047Y-94502438D01*
X126619047Y-94502438D02*
X126666666Y-94550057D01*
X126666666Y-94550057D02*
X126761904Y-94692914D01*
X126761904Y-94692914D02*
X126809523Y-94883390D01*
X126809523Y-94883390D02*
X126809523Y-95264342D01*
X126809523Y-95264342D02*
X126761904Y-95359580D01*
X126761904Y-95359580D02*
X126714285Y-95407200D01*
X126714285Y-95407200D02*
X126619047Y-95454819D01*
X126619047Y-95454819D02*
X126428571Y-95454819D01*
X126428571Y-95454819D02*
X126333333Y-95407200D01*
X126333333Y-95407200D02*
X126285714Y-95359580D01*
X126285714Y-95359580D02*
X126238095Y-95264342D01*
X126238095Y-95264342D02*
X126238095Y-95026247D01*
X126238095Y-95026247D02*
X126285714Y-94931009D01*
X126285714Y-94931009D02*
X126333333Y-94883390D01*
X126333333Y-94883390D02*
X126428571Y-94835771D01*
X126428571Y-94835771D02*
X126619047Y-94835771D01*
X126619047Y-94835771D02*
X126714285Y-94883390D01*
X126714285Y-94883390D02*
X126761904Y-94931009D01*
X126761904Y-94931009D02*
X126809523Y-95026247D01*
X158392857Y-84089580D02*
X158440476Y-84137200D01*
X158440476Y-84137200D02*
X158583333Y-84184819D01*
X158583333Y-84184819D02*
X158678571Y-84184819D01*
X158678571Y-84184819D02*
X158821428Y-84137200D01*
X158821428Y-84137200D02*
X158916666Y-84041961D01*
X158916666Y-84041961D02*
X158964285Y-83946723D01*
X158964285Y-83946723D02*
X159011904Y-83756247D01*
X159011904Y-83756247D02*
X159011904Y-83613390D01*
X159011904Y-83613390D02*
X158964285Y-83422914D01*
X158964285Y-83422914D02*
X158916666Y-83327676D01*
X158916666Y-83327676D02*
X158821428Y-83232438D01*
X158821428Y-83232438D02*
X158678571Y-83184819D01*
X158678571Y-83184819D02*
X158583333Y-83184819D01*
X158583333Y-83184819D02*
X158440476Y-83232438D01*
X158440476Y-83232438D02*
X158392857Y-83280057D01*
X158011904Y-83280057D02*
X157964285Y-83232438D01*
X157964285Y-83232438D02*
X157869047Y-83184819D01*
X157869047Y-83184819D02*
X157630952Y-83184819D01*
X157630952Y-83184819D02*
X157535714Y-83232438D01*
X157535714Y-83232438D02*
X157488095Y-83280057D01*
X157488095Y-83280057D02*
X157440476Y-83375295D01*
X157440476Y-83375295D02*
X157440476Y-83470533D01*
X157440476Y-83470533D02*
X157488095Y-83613390D01*
X157488095Y-83613390D02*
X158059523Y-84184819D01*
X158059523Y-84184819D02*
X157440476Y-84184819D01*
X157107142Y-83184819D02*
X156440476Y-83184819D01*
X156440476Y-83184819D02*
X156869047Y-84184819D01*
X150916666Y-111704819D02*
X151249999Y-111228628D01*
X151488094Y-111704819D02*
X151488094Y-110704819D01*
X151488094Y-110704819D02*
X151107142Y-110704819D01*
X151107142Y-110704819D02*
X151011904Y-110752438D01*
X151011904Y-110752438D02*
X150964285Y-110800057D01*
X150964285Y-110800057D02*
X150916666Y-110895295D01*
X150916666Y-110895295D02*
X150916666Y-111038152D01*
X150916666Y-111038152D02*
X150964285Y-111133390D01*
X150964285Y-111133390D02*
X151011904Y-111181009D01*
X151011904Y-111181009D02*
X151107142Y-111228628D01*
X151107142Y-111228628D02*
X151488094Y-111228628D01*
X150059523Y-110704819D02*
X150249999Y-110704819D01*
X150249999Y-110704819D02*
X150345237Y-110752438D01*
X150345237Y-110752438D02*
X150392856Y-110800057D01*
X150392856Y-110800057D02*
X150488094Y-110942914D01*
X150488094Y-110942914D02*
X150535713Y-111133390D01*
X150535713Y-111133390D02*
X150535713Y-111514342D01*
X150535713Y-111514342D02*
X150488094Y-111609580D01*
X150488094Y-111609580D02*
X150440475Y-111657200D01*
X150440475Y-111657200D02*
X150345237Y-111704819D01*
X150345237Y-111704819D02*
X150154761Y-111704819D01*
X150154761Y-111704819D02*
X150059523Y-111657200D01*
X150059523Y-111657200D02*
X150011904Y-111609580D01*
X150011904Y-111609580D02*
X149964285Y-111514342D01*
X149964285Y-111514342D02*
X149964285Y-111276247D01*
X149964285Y-111276247D02*
X150011904Y-111181009D01*
X150011904Y-111181009D02*
X150059523Y-111133390D01*
X150059523Y-111133390D02*
X150154761Y-111085771D01*
X150154761Y-111085771D02*
X150345237Y-111085771D01*
X150345237Y-111085771D02*
X150440475Y-111133390D01*
X150440475Y-111133390D02*
X150488094Y-111181009D01*
X150488094Y-111181009D02*
X150535713Y-111276247D01*
X187229519Y-86228859D02*
X187801938Y-86127844D01*
X187633580Y-86632920D02*
X188340686Y-85925813D01*
X188340686Y-85925813D02*
X188071312Y-85656439D01*
X188071312Y-85656439D02*
X187970297Y-85622767D01*
X187970297Y-85622767D02*
X187902954Y-85622767D01*
X187902954Y-85622767D02*
X187801938Y-85656439D01*
X187801938Y-85656439D02*
X187700923Y-85757454D01*
X187700923Y-85757454D02*
X187667251Y-85858470D01*
X187667251Y-85858470D02*
X187667251Y-85925813D01*
X187667251Y-85925813D02*
X187700923Y-86026828D01*
X187700923Y-86026828D02*
X187970297Y-86296202D01*
X187094832Y-85151363D02*
X186623427Y-85622767D01*
X187532564Y-85050348D02*
X187195847Y-85723783D01*
X187195847Y-85723783D02*
X186758114Y-85286050D01*
X166142857Y-105679580D02*
X166190476Y-105727200D01*
X166190476Y-105727200D02*
X166333333Y-105774819D01*
X166333333Y-105774819D02*
X166428571Y-105774819D01*
X166428571Y-105774819D02*
X166571428Y-105727200D01*
X166571428Y-105727200D02*
X166666666Y-105631961D01*
X166666666Y-105631961D02*
X166714285Y-105536723D01*
X166714285Y-105536723D02*
X166761904Y-105346247D01*
X166761904Y-105346247D02*
X166761904Y-105203390D01*
X166761904Y-105203390D02*
X166714285Y-105012914D01*
X166714285Y-105012914D02*
X166666666Y-104917676D01*
X166666666Y-104917676D02*
X166571428Y-104822438D01*
X166571428Y-104822438D02*
X166428571Y-104774819D01*
X166428571Y-104774819D02*
X166333333Y-104774819D01*
X166333333Y-104774819D02*
X166190476Y-104822438D01*
X166190476Y-104822438D02*
X166142857Y-104870057D01*
X165285714Y-105108152D02*
X165285714Y-105774819D01*
X165523809Y-104727200D02*
X165761904Y-105441485D01*
X165761904Y-105441485D02*
X165142857Y-105441485D01*
X164857142Y-104774819D02*
X164238095Y-104774819D01*
X164238095Y-104774819D02*
X164571428Y-105155771D01*
X164571428Y-105155771D02*
X164428571Y-105155771D01*
X164428571Y-105155771D02*
X164333333Y-105203390D01*
X164333333Y-105203390D02*
X164285714Y-105251009D01*
X164285714Y-105251009D02*
X164238095Y-105346247D01*
X164238095Y-105346247D02*
X164238095Y-105584342D01*
X164238095Y-105584342D02*
X164285714Y-105679580D01*
X164285714Y-105679580D02*
X164333333Y-105727200D01*
X164333333Y-105727200D02*
X164428571Y-105774819D01*
X164428571Y-105774819D02*
X164714285Y-105774819D01*
X164714285Y-105774819D02*
X164809523Y-105727200D01*
X164809523Y-105727200D02*
X164857142Y-105679580D01*
X166142857Y-111104819D02*
X166476190Y-110628628D01*
X166714285Y-111104819D02*
X166714285Y-110104819D01*
X166714285Y-110104819D02*
X166333333Y-110104819D01*
X166333333Y-110104819D02*
X166238095Y-110152438D01*
X166238095Y-110152438D02*
X166190476Y-110200057D01*
X166190476Y-110200057D02*
X166142857Y-110295295D01*
X166142857Y-110295295D02*
X166142857Y-110438152D01*
X166142857Y-110438152D02*
X166190476Y-110533390D01*
X166190476Y-110533390D02*
X166238095Y-110581009D01*
X166238095Y-110581009D02*
X166333333Y-110628628D01*
X166333333Y-110628628D02*
X166714285Y-110628628D01*
X165761904Y-110200057D02*
X165714285Y-110152438D01*
X165714285Y-110152438D02*
X165619047Y-110104819D01*
X165619047Y-110104819D02*
X165380952Y-110104819D01*
X165380952Y-110104819D02*
X165285714Y-110152438D01*
X165285714Y-110152438D02*
X165238095Y-110200057D01*
X165238095Y-110200057D02*
X165190476Y-110295295D01*
X165190476Y-110295295D02*
X165190476Y-110390533D01*
X165190476Y-110390533D02*
X165238095Y-110533390D01*
X165238095Y-110533390D02*
X165809523Y-111104819D01*
X165809523Y-111104819D02*
X165190476Y-111104819D01*
X164238095Y-111104819D02*
X164809523Y-111104819D01*
X164523809Y-111104819D02*
X164523809Y-110104819D01*
X164523809Y-110104819D02*
X164619047Y-110247676D01*
X164619047Y-110247676D02*
X164714285Y-110342914D01*
X164714285Y-110342914D02*
X164809523Y-110390533D01*
X180166666Y-134424819D02*
X180499999Y-133948628D01*
X180738094Y-134424819D02*
X180738094Y-133424819D01*
X180738094Y-133424819D02*
X180357142Y-133424819D01*
X180357142Y-133424819D02*
X180261904Y-133472438D01*
X180261904Y-133472438D02*
X180214285Y-133520057D01*
X180214285Y-133520057D02*
X180166666Y-133615295D01*
X180166666Y-133615295D02*
X180166666Y-133758152D01*
X180166666Y-133758152D02*
X180214285Y-133853390D01*
X180214285Y-133853390D02*
X180261904Y-133901009D01*
X180261904Y-133901009D02*
X180357142Y-133948628D01*
X180357142Y-133948628D02*
X180738094Y-133948628D01*
X179690475Y-134424819D02*
X179499999Y-134424819D01*
X179499999Y-134424819D02*
X179404761Y-134377200D01*
X179404761Y-134377200D02*
X179357142Y-134329580D01*
X179357142Y-134329580D02*
X179261904Y-134186723D01*
X179261904Y-134186723D02*
X179214285Y-133996247D01*
X179214285Y-133996247D02*
X179214285Y-133615295D01*
X179214285Y-133615295D02*
X179261904Y-133520057D01*
X179261904Y-133520057D02*
X179309523Y-133472438D01*
X179309523Y-133472438D02*
X179404761Y-133424819D01*
X179404761Y-133424819D02*
X179595237Y-133424819D01*
X179595237Y-133424819D02*
X179690475Y-133472438D01*
X179690475Y-133472438D02*
X179738094Y-133520057D01*
X179738094Y-133520057D02*
X179785713Y-133615295D01*
X179785713Y-133615295D02*
X179785713Y-133853390D01*
X179785713Y-133853390D02*
X179738094Y-133948628D01*
X179738094Y-133948628D02*
X179690475Y-133996247D01*
X179690475Y-133996247D02*
X179595237Y-134043866D01*
X179595237Y-134043866D02*
X179404761Y-134043866D01*
X179404761Y-134043866D02*
X179309523Y-133996247D01*
X179309523Y-133996247D02*
X179261904Y-133948628D01*
X179261904Y-133948628D02*
X179214285Y-133853390D01*
X191454819Y-79107142D02*
X190978628Y-78773809D01*
X191454819Y-78535714D02*
X190454819Y-78535714D01*
X190454819Y-78535714D02*
X190454819Y-78916666D01*
X190454819Y-78916666D02*
X190502438Y-79011904D01*
X190502438Y-79011904D02*
X190550057Y-79059523D01*
X190550057Y-79059523D02*
X190645295Y-79107142D01*
X190645295Y-79107142D02*
X190788152Y-79107142D01*
X190788152Y-79107142D02*
X190883390Y-79059523D01*
X190883390Y-79059523D02*
X190931009Y-79011904D01*
X190931009Y-79011904D02*
X190978628Y-78916666D01*
X190978628Y-78916666D02*
X190978628Y-78535714D01*
X191454819Y-80059523D02*
X191454819Y-79488095D01*
X191454819Y-79773809D02*
X190454819Y-79773809D01*
X190454819Y-79773809D02*
X190597676Y-79678571D01*
X190597676Y-79678571D02*
X190692914Y-79583333D01*
X190692914Y-79583333D02*
X190740533Y-79488095D01*
X190454819Y-80678571D02*
X190454819Y-80773809D01*
X190454819Y-80773809D02*
X190502438Y-80869047D01*
X190502438Y-80869047D02*
X190550057Y-80916666D01*
X190550057Y-80916666D02*
X190645295Y-80964285D01*
X190645295Y-80964285D02*
X190835771Y-81011904D01*
X190835771Y-81011904D02*
X191073866Y-81011904D01*
X191073866Y-81011904D02*
X191264342Y-80964285D01*
X191264342Y-80964285D02*
X191359580Y-80916666D01*
X191359580Y-80916666D02*
X191407200Y-80869047D01*
X191407200Y-80869047D02*
X191454819Y-80773809D01*
X191454819Y-80773809D02*
X191454819Y-80678571D01*
X191454819Y-80678571D02*
X191407200Y-80583333D01*
X191407200Y-80583333D02*
X191359580Y-80535714D01*
X191359580Y-80535714D02*
X191264342Y-80488095D01*
X191264342Y-80488095D02*
X191073866Y-80440476D01*
X191073866Y-80440476D02*
X190835771Y-80440476D01*
X190835771Y-80440476D02*
X190645295Y-80488095D01*
X190645295Y-80488095D02*
X190550057Y-80535714D01*
X190550057Y-80535714D02*
X190502438Y-80583333D01*
X190502438Y-80583333D02*
X190454819Y-80678571D01*
X187039580Y-111357142D02*
X187087200Y-111309523D01*
X187087200Y-111309523D02*
X187134819Y-111166666D01*
X187134819Y-111166666D02*
X187134819Y-111071428D01*
X187134819Y-111071428D02*
X187087200Y-110928571D01*
X187087200Y-110928571D02*
X186991961Y-110833333D01*
X186991961Y-110833333D02*
X186896723Y-110785714D01*
X186896723Y-110785714D02*
X186706247Y-110738095D01*
X186706247Y-110738095D02*
X186563390Y-110738095D01*
X186563390Y-110738095D02*
X186372914Y-110785714D01*
X186372914Y-110785714D02*
X186277676Y-110833333D01*
X186277676Y-110833333D02*
X186182438Y-110928571D01*
X186182438Y-110928571D02*
X186134819Y-111071428D01*
X186134819Y-111071428D02*
X186134819Y-111166666D01*
X186134819Y-111166666D02*
X186182438Y-111309523D01*
X186182438Y-111309523D02*
X186230057Y-111357142D01*
X187134819Y-112309523D02*
X187134819Y-111738095D01*
X187134819Y-112023809D02*
X186134819Y-112023809D01*
X186134819Y-112023809D02*
X186277676Y-111928571D01*
X186277676Y-111928571D02*
X186372914Y-111833333D01*
X186372914Y-111833333D02*
X186420533Y-111738095D01*
X186134819Y-113166666D02*
X186134819Y-112976190D01*
X186134819Y-112976190D02*
X186182438Y-112880952D01*
X186182438Y-112880952D02*
X186230057Y-112833333D01*
X186230057Y-112833333D02*
X186372914Y-112738095D01*
X186372914Y-112738095D02*
X186563390Y-112690476D01*
X186563390Y-112690476D02*
X186944342Y-112690476D01*
X186944342Y-112690476D02*
X187039580Y-112738095D01*
X187039580Y-112738095D02*
X187087200Y-112785714D01*
X187087200Y-112785714D02*
X187134819Y-112880952D01*
X187134819Y-112880952D02*
X187134819Y-113071428D01*
X187134819Y-113071428D02*
X187087200Y-113166666D01*
X187087200Y-113166666D02*
X187039580Y-113214285D01*
X187039580Y-113214285D02*
X186944342Y-113261904D01*
X186944342Y-113261904D02*
X186706247Y-113261904D01*
X186706247Y-113261904D02*
X186611009Y-113214285D01*
X186611009Y-113214285D02*
X186563390Y-113166666D01*
X186563390Y-113166666D02*
X186515771Y-113071428D01*
X186515771Y-113071428D02*
X186515771Y-112880952D01*
X186515771Y-112880952D02*
X186563390Y-112785714D01*
X186563390Y-112785714D02*
X186611009Y-112738095D01*
X186611009Y-112738095D02*
X186706247Y-112690476D01*
X189389580Y-79107142D02*
X189437200Y-79059523D01*
X189437200Y-79059523D02*
X189484819Y-78916666D01*
X189484819Y-78916666D02*
X189484819Y-78821428D01*
X189484819Y-78821428D02*
X189437200Y-78678571D01*
X189437200Y-78678571D02*
X189341961Y-78583333D01*
X189341961Y-78583333D02*
X189246723Y-78535714D01*
X189246723Y-78535714D02*
X189056247Y-78488095D01*
X189056247Y-78488095D02*
X188913390Y-78488095D01*
X188913390Y-78488095D02*
X188722914Y-78535714D01*
X188722914Y-78535714D02*
X188627676Y-78583333D01*
X188627676Y-78583333D02*
X188532438Y-78678571D01*
X188532438Y-78678571D02*
X188484819Y-78821428D01*
X188484819Y-78821428D02*
X188484819Y-78916666D01*
X188484819Y-78916666D02*
X188532438Y-79059523D01*
X188532438Y-79059523D02*
X188580057Y-79107142D01*
X188580057Y-79488095D02*
X188532438Y-79535714D01*
X188532438Y-79535714D02*
X188484819Y-79630952D01*
X188484819Y-79630952D02*
X188484819Y-79869047D01*
X188484819Y-79869047D02*
X188532438Y-79964285D01*
X188532438Y-79964285D02*
X188580057Y-80011904D01*
X188580057Y-80011904D02*
X188675295Y-80059523D01*
X188675295Y-80059523D02*
X188770533Y-80059523D01*
X188770533Y-80059523D02*
X188913390Y-80011904D01*
X188913390Y-80011904D02*
X189484819Y-79440476D01*
X189484819Y-79440476D02*
X189484819Y-80059523D01*
X189484819Y-80535714D02*
X189484819Y-80726190D01*
X189484819Y-80726190D02*
X189437200Y-80821428D01*
X189437200Y-80821428D02*
X189389580Y-80869047D01*
X189389580Y-80869047D02*
X189246723Y-80964285D01*
X189246723Y-80964285D02*
X189056247Y-81011904D01*
X189056247Y-81011904D02*
X188675295Y-81011904D01*
X188675295Y-81011904D02*
X188580057Y-80964285D01*
X188580057Y-80964285D02*
X188532438Y-80916666D01*
X188532438Y-80916666D02*
X188484819Y-80821428D01*
X188484819Y-80821428D02*
X188484819Y-80630952D01*
X188484819Y-80630952D02*
X188532438Y-80535714D01*
X188532438Y-80535714D02*
X188580057Y-80488095D01*
X188580057Y-80488095D02*
X188675295Y-80440476D01*
X188675295Y-80440476D02*
X188913390Y-80440476D01*
X188913390Y-80440476D02*
X189008628Y-80488095D01*
X189008628Y-80488095D02*
X189056247Y-80535714D01*
X189056247Y-80535714D02*
X189103866Y-80630952D01*
X189103866Y-80630952D02*
X189103866Y-80821428D01*
X189103866Y-80821428D02*
X189056247Y-80916666D01*
X189056247Y-80916666D02*
X189008628Y-80964285D01*
X189008628Y-80964285D02*
X188913390Y-81011904D01*
X180642857Y-132359580D02*
X180690476Y-132407200D01*
X180690476Y-132407200D02*
X180833333Y-132454819D01*
X180833333Y-132454819D02*
X180928571Y-132454819D01*
X180928571Y-132454819D02*
X181071428Y-132407200D01*
X181071428Y-132407200D02*
X181166666Y-132311961D01*
X181166666Y-132311961D02*
X181214285Y-132216723D01*
X181214285Y-132216723D02*
X181261904Y-132026247D01*
X181261904Y-132026247D02*
X181261904Y-131883390D01*
X181261904Y-131883390D02*
X181214285Y-131692914D01*
X181214285Y-131692914D02*
X181166666Y-131597676D01*
X181166666Y-131597676D02*
X181071428Y-131502438D01*
X181071428Y-131502438D02*
X180928571Y-131454819D01*
X180928571Y-131454819D02*
X180833333Y-131454819D01*
X180833333Y-131454819D02*
X180690476Y-131502438D01*
X180690476Y-131502438D02*
X180642857Y-131550057D01*
X180261904Y-131550057D02*
X180214285Y-131502438D01*
X180214285Y-131502438D02*
X180119047Y-131454819D01*
X180119047Y-131454819D02*
X179880952Y-131454819D01*
X179880952Y-131454819D02*
X179785714Y-131502438D01*
X179785714Y-131502438D02*
X179738095Y-131550057D01*
X179738095Y-131550057D02*
X179690476Y-131645295D01*
X179690476Y-131645295D02*
X179690476Y-131740533D01*
X179690476Y-131740533D02*
X179738095Y-131883390D01*
X179738095Y-131883390D02*
X180309523Y-132454819D01*
X180309523Y-132454819D02*
X179690476Y-132454819D01*
X178833333Y-131788152D02*
X178833333Y-132454819D01*
X179071428Y-131407200D02*
X179309523Y-132121485D01*
X179309523Y-132121485D02*
X178690476Y-132121485D01*
X153642857Y-111704819D02*
X153976190Y-111228628D01*
X154214285Y-111704819D02*
X154214285Y-110704819D01*
X154214285Y-110704819D02*
X153833333Y-110704819D01*
X153833333Y-110704819D02*
X153738095Y-110752438D01*
X153738095Y-110752438D02*
X153690476Y-110800057D01*
X153690476Y-110800057D02*
X153642857Y-110895295D01*
X153642857Y-110895295D02*
X153642857Y-111038152D01*
X153642857Y-111038152D02*
X153690476Y-111133390D01*
X153690476Y-111133390D02*
X153738095Y-111181009D01*
X153738095Y-111181009D02*
X153833333Y-111228628D01*
X153833333Y-111228628D02*
X154214285Y-111228628D01*
X153309523Y-110704819D02*
X152690476Y-110704819D01*
X152690476Y-110704819D02*
X153023809Y-111085771D01*
X153023809Y-111085771D02*
X152880952Y-111085771D01*
X152880952Y-111085771D02*
X152785714Y-111133390D01*
X152785714Y-111133390D02*
X152738095Y-111181009D01*
X152738095Y-111181009D02*
X152690476Y-111276247D01*
X152690476Y-111276247D02*
X152690476Y-111514342D01*
X152690476Y-111514342D02*
X152738095Y-111609580D01*
X152738095Y-111609580D02*
X152785714Y-111657200D01*
X152785714Y-111657200D02*
X152880952Y-111704819D01*
X152880952Y-111704819D02*
X153166666Y-111704819D01*
X153166666Y-111704819D02*
X153261904Y-111657200D01*
X153261904Y-111657200D02*
X153309523Y-111609580D01*
X152357142Y-110704819D02*
X151690476Y-110704819D01*
X151690476Y-110704819D02*
X152119047Y-111704819D01*
X178642857Y-129439580D02*
X178690476Y-129487200D01*
X178690476Y-129487200D02*
X178833333Y-129534819D01*
X178833333Y-129534819D02*
X178928571Y-129534819D01*
X178928571Y-129534819D02*
X179071428Y-129487200D01*
X179071428Y-129487200D02*
X179166666Y-129391961D01*
X179166666Y-129391961D02*
X179214285Y-129296723D01*
X179214285Y-129296723D02*
X179261904Y-129106247D01*
X179261904Y-129106247D02*
X179261904Y-128963390D01*
X179261904Y-128963390D02*
X179214285Y-128772914D01*
X179214285Y-128772914D02*
X179166666Y-128677676D01*
X179166666Y-128677676D02*
X179071428Y-128582438D01*
X179071428Y-128582438D02*
X178928571Y-128534819D01*
X178928571Y-128534819D02*
X178833333Y-128534819D01*
X178833333Y-128534819D02*
X178690476Y-128582438D01*
X178690476Y-128582438D02*
X178642857Y-128630057D01*
X177690476Y-129534819D02*
X178261904Y-129534819D01*
X177976190Y-129534819D02*
X177976190Y-128534819D01*
X177976190Y-128534819D02*
X178071428Y-128677676D01*
X178071428Y-128677676D02*
X178166666Y-128772914D01*
X178166666Y-128772914D02*
X178261904Y-128820533D01*
X177119047Y-128963390D02*
X177214285Y-128915771D01*
X177214285Y-128915771D02*
X177261904Y-128868152D01*
X177261904Y-128868152D02*
X177309523Y-128772914D01*
X177309523Y-128772914D02*
X177309523Y-128725295D01*
X177309523Y-128725295D02*
X177261904Y-128630057D01*
X177261904Y-128630057D02*
X177214285Y-128582438D01*
X177214285Y-128582438D02*
X177119047Y-128534819D01*
X177119047Y-128534819D02*
X176928571Y-128534819D01*
X176928571Y-128534819D02*
X176833333Y-128582438D01*
X176833333Y-128582438D02*
X176785714Y-128630057D01*
X176785714Y-128630057D02*
X176738095Y-128725295D01*
X176738095Y-128725295D02*
X176738095Y-128772914D01*
X176738095Y-128772914D02*
X176785714Y-128868152D01*
X176785714Y-128868152D02*
X176833333Y-128915771D01*
X176833333Y-128915771D02*
X176928571Y-128963390D01*
X176928571Y-128963390D02*
X177119047Y-128963390D01*
X177119047Y-128963390D02*
X177214285Y-129011009D01*
X177214285Y-129011009D02*
X177261904Y-129058628D01*
X177261904Y-129058628D02*
X177309523Y-129153866D01*
X177309523Y-129153866D02*
X177309523Y-129344342D01*
X177309523Y-129344342D02*
X177261904Y-129439580D01*
X177261904Y-129439580D02*
X177214285Y-129487200D01*
X177214285Y-129487200D02*
X177119047Y-129534819D01*
X177119047Y-129534819D02*
X176928571Y-129534819D01*
X176928571Y-129534819D02*
X176833333Y-129487200D01*
X176833333Y-129487200D02*
X176785714Y-129439580D01*
X176785714Y-129439580D02*
X176738095Y-129344342D01*
X176738095Y-129344342D02*
X176738095Y-129153866D01*
X176738095Y-129153866D02*
X176785714Y-129058628D01*
X176785714Y-129058628D02*
X176833333Y-129011009D01*
X176833333Y-129011009D02*
X176928571Y-128963390D01*
X138642857Y-101359580D02*
X138690476Y-101407200D01*
X138690476Y-101407200D02*
X138833333Y-101454819D01*
X138833333Y-101454819D02*
X138928571Y-101454819D01*
X138928571Y-101454819D02*
X139071428Y-101407200D01*
X139071428Y-101407200D02*
X139166666Y-101311961D01*
X139166666Y-101311961D02*
X139214285Y-101216723D01*
X139214285Y-101216723D02*
X139261904Y-101026247D01*
X139261904Y-101026247D02*
X139261904Y-100883390D01*
X139261904Y-100883390D02*
X139214285Y-100692914D01*
X139214285Y-100692914D02*
X139166666Y-100597676D01*
X139166666Y-100597676D02*
X139071428Y-100502438D01*
X139071428Y-100502438D02*
X138928571Y-100454819D01*
X138928571Y-100454819D02*
X138833333Y-100454819D01*
X138833333Y-100454819D02*
X138690476Y-100502438D01*
X138690476Y-100502438D02*
X138642857Y-100550057D01*
X138261904Y-100550057D02*
X138214285Y-100502438D01*
X138214285Y-100502438D02*
X138119047Y-100454819D01*
X138119047Y-100454819D02*
X137880952Y-100454819D01*
X137880952Y-100454819D02*
X137785714Y-100502438D01*
X137785714Y-100502438D02*
X137738095Y-100550057D01*
X137738095Y-100550057D02*
X137690476Y-100645295D01*
X137690476Y-100645295D02*
X137690476Y-100740533D01*
X137690476Y-100740533D02*
X137738095Y-100883390D01*
X137738095Y-100883390D02*
X138309523Y-101454819D01*
X138309523Y-101454819D02*
X137690476Y-101454819D01*
X137357142Y-100454819D02*
X136738095Y-100454819D01*
X136738095Y-100454819D02*
X137071428Y-100835771D01*
X137071428Y-100835771D02*
X136928571Y-100835771D01*
X136928571Y-100835771D02*
X136833333Y-100883390D01*
X136833333Y-100883390D02*
X136785714Y-100931009D01*
X136785714Y-100931009D02*
X136738095Y-101026247D01*
X136738095Y-101026247D02*
X136738095Y-101264342D01*
X136738095Y-101264342D02*
X136785714Y-101359580D01*
X136785714Y-101359580D02*
X136833333Y-101407200D01*
X136833333Y-101407200D02*
X136928571Y-101454819D01*
X136928571Y-101454819D02*
X137214285Y-101454819D01*
X137214285Y-101454819D02*
X137309523Y-101407200D01*
X137309523Y-101407200D02*
X137357142Y-101359580D01*
X178166666Y-124204819D02*
X178499999Y-123728628D01*
X178738094Y-124204819D02*
X178738094Y-123204819D01*
X178738094Y-123204819D02*
X178357142Y-123204819D01*
X178357142Y-123204819D02*
X178261904Y-123252438D01*
X178261904Y-123252438D02*
X178214285Y-123300057D01*
X178214285Y-123300057D02*
X178166666Y-123395295D01*
X178166666Y-123395295D02*
X178166666Y-123538152D01*
X178166666Y-123538152D02*
X178214285Y-123633390D01*
X178214285Y-123633390D02*
X178261904Y-123681009D01*
X178261904Y-123681009D02*
X178357142Y-123728628D01*
X178357142Y-123728628D02*
X178738094Y-123728628D01*
X177261904Y-123204819D02*
X177738094Y-123204819D01*
X177738094Y-123204819D02*
X177785713Y-123681009D01*
X177785713Y-123681009D02*
X177738094Y-123633390D01*
X177738094Y-123633390D02*
X177642856Y-123585771D01*
X177642856Y-123585771D02*
X177404761Y-123585771D01*
X177404761Y-123585771D02*
X177309523Y-123633390D01*
X177309523Y-123633390D02*
X177261904Y-123681009D01*
X177261904Y-123681009D02*
X177214285Y-123776247D01*
X177214285Y-123776247D02*
X177214285Y-124014342D01*
X177214285Y-124014342D02*
X177261904Y-124109580D01*
X177261904Y-124109580D02*
X177309523Y-124157200D01*
X177309523Y-124157200D02*
X177404761Y-124204819D01*
X177404761Y-124204819D02*
X177642856Y-124204819D01*
X177642856Y-124204819D02*
X177738094Y-124157200D01*
X177738094Y-124157200D02*
X177785713Y-124109580D01*
X163642857Y-100854819D02*
X163976190Y-100378628D01*
X164214285Y-100854819D02*
X164214285Y-99854819D01*
X164214285Y-99854819D02*
X163833333Y-99854819D01*
X163833333Y-99854819D02*
X163738095Y-99902438D01*
X163738095Y-99902438D02*
X163690476Y-99950057D01*
X163690476Y-99950057D02*
X163642857Y-100045295D01*
X163642857Y-100045295D02*
X163642857Y-100188152D01*
X163642857Y-100188152D02*
X163690476Y-100283390D01*
X163690476Y-100283390D02*
X163738095Y-100331009D01*
X163738095Y-100331009D02*
X163833333Y-100378628D01*
X163833333Y-100378628D02*
X164214285Y-100378628D01*
X162690476Y-100854819D02*
X163261904Y-100854819D01*
X162976190Y-100854819D02*
X162976190Y-99854819D01*
X162976190Y-99854819D02*
X163071428Y-99997676D01*
X163071428Y-99997676D02*
X163166666Y-100092914D01*
X163166666Y-100092914D02*
X163261904Y-100140533D01*
X162119047Y-100283390D02*
X162214285Y-100235771D01*
X162214285Y-100235771D02*
X162261904Y-100188152D01*
X162261904Y-100188152D02*
X162309523Y-100092914D01*
X162309523Y-100092914D02*
X162309523Y-100045295D01*
X162309523Y-100045295D02*
X162261904Y-99950057D01*
X162261904Y-99950057D02*
X162214285Y-99902438D01*
X162214285Y-99902438D02*
X162119047Y-99854819D01*
X162119047Y-99854819D02*
X161928571Y-99854819D01*
X161928571Y-99854819D02*
X161833333Y-99902438D01*
X161833333Y-99902438D02*
X161785714Y-99950057D01*
X161785714Y-99950057D02*
X161738095Y-100045295D01*
X161738095Y-100045295D02*
X161738095Y-100092914D01*
X161738095Y-100092914D02*
X161785714Y-100188152D01*
X161785714Y-100188152D02*
X161833333Y-100235771D01*
X161833333Y-100235771D02*
X161928571Y-100283390D01*
X161928571Y-100283390D02*
X162119047Y-100283390D01*
X162119047Y-100283390D02*
X162214285Y-100331009D01*
X162214285Y-100331009D02*
X162261904Y-100378628D01*
X162261904Y-100378628D02*
X162309523Y-100473866D01*
X162309523Y-100473866D02*
X162309523Y-100664342D01*
X162309523Y-100664342D02*
X162261904Y-100759580D01*
X162261904Y-100759580D02*
X162214285Y-100807200D01*
X162214285Y-100807200D02*
X162119047Y-100854819D01*
X162119047Y-100854819D02*
X161928571Y-100854819D01*
X161928571Y-100854819D02*
X161833333Y-100807200D01*
X161833333Y-100807200D02*
X161785714Y-100759580D01*
X161785714Y-100759580D02*
X161738095Y-100664342D01*
X161738095Y-100664342D02*
X161738095Y-100473866D01*
X161738095Y-100473866D02*
X161785714Y-100378628D01*
X161785714Y-100378628D02*
X161833333Y-100331009D01*
X161833333Y-100331009D02*
X161928571Y-100283390D01*
X128166666Y-101954819D02*
X128499999Y-101478628D01*
X128738094Y-101954819D02*
X128738094Y-100954819D01*
X128738094Y-100954819D02*
X128357142Y-100954819D01*
X128357142Y-100954819D02*
X128261904Y-101002438D01*
X128261904Y-101002438D02*
X128214285Y-101050057D01*
X128214285Y-101050057D02*
X128166666Y-101145295D01*
X128166666Y-101145295D02*
X128166666Y-101288152D01*
X128166666Y-101288152D02*
X128214285Y-101383390D01*
X128214285Y-101383390D02*
X128261904Y-101431009D01*
X128261904Y-101431009D02*
X128357142Y-101478628D01*
X128357142Y-101478628D02*
X128738094Y-101478628D01*
X127214285Y-101954819D02*
X127785713Y-101954819D01*
X127499999Y-101954819D02*
X127499999Y-100954819D01*
X127499999Y-100954819D02*
X127595237Y-101097676D01*
X127595237Y-101097676D02*
X127690475Y-101192914D01*
X127690475Y-101192914D02*
X127785713Y-101240533D01*
X130166666Y-95454819D02*
X130499999Y-94978628D01*
X130738094Y-95454819D02*
X130738094Y-94454819D01*
X130738094Y-94454819D02*
X130357142Y-94454819D01*
X130357142Y-94454819D02*
X130261904Y-94502438D01*
X130261904Y-94502438D02*
X130214285Y-94550057D01*
X130214285Y-94550057D02*
X130166666Y-94645295D01*
X130166666Y-94645295D02*
X130166666Y-94788152D01*
X130166666Y-94788152D02*
X130214285Y-94883390D01*
X130214285Y-94883390D02*
X130261904Y-94931009D01*
X130261904Y-94931009D02*
X130357142Y-94978628D01*
X130357142Y-94978628D02*
X130738094Y-94978628D01*
X129785713Y-94550057D02*
X129738094Y-94502438D01*
X129738094Y-94502438D02*
X129642856Y-94454819D01*
X129642856Y-94454819D02*
X129404761Y-94454819D01*
X129404761Y-94454819D02*
X129309523Y-94502438D01*
X129309523Y-94502438D02*
X129261904Y-94550057D01*
X129261904Y-94550057D02*
X129214285Y-94645295D01*
X129214285Y-94645295D02*
X129214285Y-94740533D01*
X129214285Y-94740533D02*
X129261904Y-94883390D01*
X129261904Y-94883390D02*
X129833332Y-95454819D01*
X129833332Y-95454819D02*
X129214285Y-95454819D01*
X191039580Y-111357142D02*
X191087200Y-111309523D01*
X191087200Y-111309523D02*
X191134819Y-111166666D01*
X191134819Y-111166666D02*
X191134819Y-111071428D01*
X191134819Y-111071428D02*
X191087200Y-110928571D01*
X191087200Y-110928571D02*
X190991961Y-110833333D01*
X190991961Y-110833333D02*
X190896723Y-110785714D01*
X190896723Y-110785714D02*
X190706247Y-110738095D01*
X190706247Y-110738095D02*
X190563390Y-110738095D01*
X190563390Y-110738095D02*
X190372914Y-110785714D01*
X190372914Y-110785714D02*
X190277676Y-110833333D01*
X190277676Y-110833333D02*
X190182438Y-110928571D01*
X190182438Y-110928571D02*
X190134819Y-111071428D01*
X190134819Y-111071428D02*
X190134819Y-111166666D01*
X190134819Y-111166666D02*
X190182438Y-111309523D01*
X190182438Y-111309523D02*
X190230057Y-111357142D01*
X191134819Y-112309523D02*
X191134819Y-111738095D01*
X191134819Y-112023809D02*
X190134819Y-112023809D01*
X190134819Y-112023809D02*
X190277676Y-111928571D01*
X190277676Y-111928571D02*
X190372914Y-111833333D01*
X190372914Y-111833333D02*
X190420533Y-111738095D01*
X190134819Y-113214285D02*
X190134819Y-112738095D01*
X190134819Y-112738095D02*
X190611009Y-112690476D01*
X190611009Y-112690476D02*
X190563390Y-112738095D01*
X190563390Y-112738095D02*
X190515771Y-112833333D01*
X190515771Y-112833333D02*
X190515771Y-113071428D01*
X190515771Y-113071428D02*
X190563390Y-113166666D01*
X190563390Y-113166666D02*
X190611009Y-113214285D01*
X190611009Y-113214285D02*
X190706247Y-113261904D01*
X190706247Y-113261904D02*
X190944342Y-113261904D01*
X190944342Y-113261904D02*
X191039580Y-113214285D01*
X191039580Y-113214285D02*
X191087200Y-113166666D01*
X191087200Y-113166666D02*
X191134819Y-113071428D01*
X191134819Y-113071428D02*
X191134819Y-112833333D01*
X191134819Y-112833333D02*
X191087200Y-112738095D01*
X191087200Y-112738095D02*
X191039580Y-112690476D01*
D11*
%TO.C,JP1*%
X176550000Y-101750000D02*
X173750000Y-101750000D01*
X176550000Y-103750000D02*
X176550000Y-101750000D01*
X173750000Y-101750000D02*
X173750000Y-103750000D01*
X173750000Y-103750000D02*
X176550000Y-103750000D01*
%TO.C,C41*%
X168261252Y-98013948D02*
X167738748Y-98013948D01*
X168261252Y-99483948D02*
X167738748Y-99483948D01*
%TO.C,U3*%
X131590000Y-95000000D02*
X131590000Y-93050000D01*
X131590000Y-95000000D02*
X131590000Y-96950000D01*
X136710000Y-95000000D02*
X136710000Y-93050000D01*
X136710000Y-95000000D02*
X136710000Y-96950000D01*
X136945000Y-97940000D02*
X136615000Y-97700000D01*
X136945000Y-97460000D01*
X136945000Y-97940000D01*
G36*
X136945000Y-97940000D02*
G01*
X136615000Y-97700000D01*
X136945000Y-97460000D01*
X136945000Y-97940000D01*
G37*
%TO.C,C4*%
X173515000Y-99238748D02*
X173515000Y-99761252D01*
X174985000Y-99238748D02*
X174985000Y-99761252D01*
%TO.C,R40*%
X106265000Y-99772936D02*
X106265000Y-100227064D01*
X107735000Y-99772936D02*
X107735000Y-100227064D01*
%TO.C,C26*%
X168161252Y-81315000D02*
X167638748Y-81315000D01*
X168161252Y-82785000D02*
X167638748Y-82785000D01*
%TO.C,C39*%
X165761252Y-90265000D02*
X165238748Y-90265000D01*
X165761252Y-91735000D02*
X165238748Y-91735000D01*
%TO.C,C17*%
X184435984Y-81475431D02*
X184805451Y-81844898D01*
X185475431Y-80435984D02*
X185844898Y-80805451D01*
%TO.C,C44*%
X154417500Y-107738748D02*
X154417500Y-108261252D01*
X155887500Y-107738748D02*
X155887500Y-108261252D01*
%TO.C,R15*%
X162622936Y-81316052D02*
X163077064Y-81316052D01*
X162622936Y-82786052D02*
X163077064Y-82786052D01*
%TO.C,C31*%
X129415000Y-98261252D02*
X129415000Y-97738748D01*
X130885000Y-98261252D02*
X130885000Y-97738748D01*
%TO.C,C5*%
X191665010Y-88704457D02*
X191295543Y-88334990D01*
X192704457Y-87665010D02*
X192334990Y-87295543D01*
%TO.C,C42*%
X157738748Y-98013948D02*
X158261252Y-98013948D01*
X157738748Y-99483948D02*
X158261252Y-99483948D01*
%TO.C,R16*%
X165272936Y-92265000D02*
X165727064Y-92265000D01*
X165272936Y-93735000D02*
X165727064Y-93735000D01*
%TO.C,C36*%
X127415000Y-91738748D02*
X127415000Y-92261252D01*
X128885000Y-91738748D02*
X128885000Y-92261252D01*
%TO.C,C27*%
X157488748Y-81315000D02*
X158011252Y-81315000D01*
X157488748Y-82785000D02*
X158011252Y-82785000D01*
%TO.C,R6*%
X149982500Y-114379564D02*
X149982500Y-113925436D01*
X151452500Y-114379564D02*
X151452500Y-113925436D01*
%TO.C,R4*%
X187919718Y-84981842D02*
X188240835Y-85302959D01*
X188959165Y-83942395D02*
X189280282Y-84263512D01*
%TO.C,C43*%
X165761252Y-106265000D02*
X165238748Y-106265000D01*
X165761252Y-107735000D02*
X165238748Y-107735000D01*
%TO.C,R21*%
X165272936Y-108265000D02*
X165727064Y-108265000D01*
X165272936Y-109735000D02*
X165727064Y-109735000D01*
%TO.C,R9*%
X183772936Y-133265000D02*
X184227064Y-133265000D01*
X183772936Y-134735000D02*
X184227064Y-134735000D01*
%TO.C,R10*%
X190265000Y-76227064D02*
X190265000Y-75772936D01*
X191735000Y-76227064D02*
X191735000Y-75772936D01*
%TO.C,C16*%
X184265000Y-112261252D02*
X184265000Y-111738748D01*
X185735000Y-112261252D02*
X185735000Y-111738748D01*
%TO.C,C29*%
X188265000Y-76261252D02*
X188265000Y-75738748D01*
X189735000Y-76261252D02*
X189735000Y-75738748D01*
%TO.C,C24*%
X183738748Y-131265000D02*
X184261252Y-131265000D01*
X183738748Y-132735000D02*
X184261252Y-132735000D01*
%TO.C,R37*%
X152182500Y-113925436D02*
X152182500Y-114379564D01*
X153652500Y-113925436D02*
X153652500Y-114379564D01*
%TO.C,C18*%
X177738748Y-126665000D02*
X178261252Y-126665000D01*
X177738748Y-128135000D02*
X178261252Y-128135000D01*
%TO.C,C23*%
X134411252Y-100265000D02*
X133888748Y-100265000D01*
X134411252Y-101735000D02*
X133888748Y-101735000D01*
%TO.C,R5*%
X178227064Y-124665000D02*
X177772936Y-124665000D01*
X178227064Y-126135000D02*
X177772936Y-126135000D01*
%TO.C,R18*%
X162772936Y-98015000D02*
X163227064Y-98015000D01*
X162772936Y-99485000D02*
X163227064Y-99485000D01*
%TO.C,R1*%
X127415000Y-98227064D02*
X127415000Y-97772936D01*
X128885000Y-98227064D02*
X128885000Y-97772936D01*
%TO.C,R2*%
X129415000Y-91772936D02*
X129415000Y-92227064D01*
X130885000Y-91772936D02*
X130885000Y-92227064D01*
%TO.C,C15*%
X188265000Y-112261252D02*
X188265000Y-111738748D01*
X189735000Y-112261252D02*
X189735000Y-111738748D01*
%TD*%
M02*
