M48
; DRILL file {KiCad 9.0.2} date 2025-08-14T17:52:07+0800
; FORMAT={-:-/ absolute / metric / decimal}
; #@! TF.CreationDate,2025-08-14T17:52:07+08:00
; #@! TF.GenerationSoftware,Kicad,Pcbnew,9.0.2
; #@! TF.FileFunction,Plated,1,2,PTH
FMAT,2
METRIC
; #@! TA.AperFunction,Plated,PTH,ViaDrill
T1C0.300
; #@! TA.AperFunction,Plated,PTH,ViaDrill
T2C0.400
; #@! TA.AperFunction,Plated,PTH,ViaDrill
T3C0.500
; #@! TA.AperFunction,Plated,PTH,ComponentDrill
T4C0.800
; #@! TA.AperFunction,Plated,PTH,ComponentDrill
T5C0.950
; #@! TA.AperFunction,Plated,PTH,ComponentDrill
T6C1.000
; #@! TA.AperFunction,Plated,PTH,ComponentDrill
T7C1.100
; #@! TA.AperFunction,Plated,PTH,ComponentDrill
T8C1.200
; #@! TA.AperFunction,Plated,PTH,ComponentDrill
T9C1.300
; #@! TA.AperFunction,Plated,PTH,ComponentDrill
T10C1.600
; #@! TA.AperFunction,Plated,PTH,ComponentDrill
T11C3.200
%
G90
G05
T1
X111.0Y-115.25
X116.034Y-128.243
X116.25Y-99.75
X120.25Y-137.207
X120.5Y-98.0
X122.5Y-127.5
X122.5Y-128.5
X123.25Y-115.75
X123.5Y-127.5
X123.5Y-128.5
X124.0Y-98.0
X124.5Y-127.5
X124.5Y-128.5
X124.5Y-135.0
X124.968Y-118.152
X125.032Y-110.847
X125.5Y-127.5
X125.5Y-128.5
X125.75Y-100.5
X125.925Y-67.6
X125.925Y-71.0
X125.968Y-130.847
X126.0Y-135.0
X126.25Y-114.0
X126.25Y-116.5
X126.5Y-91.25
X126.5Y-127.5
X126.5Y-128.5
X127.216Y-78.607
X127.5Y-135.0
X128.0Y-108.905
X128.183Y-99.152
X129.0Y-135.0
X129.216Y-103.0
X130.157Y-99.216
X130.5Y-135.0
X131.25Y-92.0
X131.5Y-79.75
X131.5Y-129.5
X133.0Y-129.5
X134.5Y-129.5
X135.468Y-84.125
X136.055Y-92.0
X136.75Y-101.25
X137.25Y-112.75
X138.84Y-116.685
X138.966Y-132.507
X140.207Y-136.25
X142.153Y-121.767
X143.0Y-110.0
X143.5Y-100.5
X144.75Y-121.0
X145.393Y-82.431
X145.468Y-132.153
X145.5Y-123.784
X146.25Y-94.424
X146.25Y-100.5
X147.216Y-114.742
X148.0Y-120.0
X149.1Y-82.507
X149.25Y-113.0
X149.604Y-134.0
X150.75Y-115.305
X152.0Y-93.905
X152.0Y-109.905
X152.0Y-129.905
X152.885Y-115.305
X153.007Y-66.284
X155.146Y-106.784
X155.153Y-109.216
X156.534Y-82.057
X156.784Y-98.756
X157.0Y-91.5
X158.0Y-91.5
X158.0Y-108.635
X159.0Y-91.5
X160.95Y-134.0
X161.725Y-76.6
X161.75Y-113.5
X162.0Y-108.5
X164.347Y-93.032
X164.347Y-109.032
X164.968Y-132.653
X165.0Y-124.784
X166.653Y-93.032
X166.653Y-109.032
X169.116Y-82.043
X169.216Y-98.742
X170.0Y-91.0
X170.402Y-95.0
X170.5Y-95.8
X170.549Y-105.299
X171.1Y-91.2
X171.1Y-98.8
X171.7Y-99.6
X172.0Y-92.4
X172.0Y-104.75
X172.4Y-98.8
X172.925Y-93.0
X173.0Y-96.9
X173.6Y-94.2
X173.75Y-105.5
X175.25Y-96.0
X175.75Y-118.125
X175.77Y-97.27
X175.873Y-94.833
X176.0Y-116.875
X176.784Y-127.407
X177.0Y-102.0
X177.0Y-104.75
X177.138Y-117.5
X177.573Y-98.866
X178.011Y-117.511
X178.136Y-92.571
X179.125Y-117.375
X179.268Y-100.561
X179.278Y-75.032
X179.5Y-102.5
X179.833Y-90.873
X179.833Y-101.127
X180.105Y-105.114
X180.25Y-120.25
X180.303Y-95.0
X180.5Y-93.0
X180.575Y-97.518
X181.0Y-89.75
X181.0Y-103.5
X181.425Y-97.518
X182.0Y-95.0
X182.5Y-88.0
X182.75Y-114.0
X182.784Y-132.007
X182.847Y-134.032
X184.276Y-80.286
X184.426Y-98.824
X185.0Y-110.784
X185.25Y-103.0
X185.5Y-91.0
X185.522Y-94.272
X186.5Y-91.0
X187.0Y-86.5
X187.5Y-91.0
X187.5Y-95.25
X187.5Y-96.75
X187.5Y-116.512
X188.5Y-92.0
X189.0Y-110.784
X189.007Y-113.216
X189.5Y-93.0
X190.75Y-93.5
X191.5Y-92.75
X192.25Y-92.0
X192.864Y-88.855
X193.0Y-91.25
X193.5Y-87.5
X193.75Y-90.5
X194.216Y-95.007
X194.216Y-97.007
X194.216Y-99.007
T2
X112.0Y-66.0
X112.0Y-67.0
X112.0Y-68.0
X112.0Y-69.0
X112.0Y-70.0
X112.0Y-71.0
X112.0Y-72.0
X112.0Y-73.0
X112.0Y-74.0
X112.0Y-75.0
X112.0Y-76.0
X113.0Y-66.0
X113.0Y-67.0
X113.0Y-68.0
X113.0Y-69.0
X113.0Y-70.0
X113.0Y-71.0
X113.0Y-72.0
X113.0Y-73.0
X113.0Y-74.0
X113.0Y-75.0
X113.0Y-76.0
X114.0Y-66.0
X114.0Y-67.0
X114.0Y-75.0
X114.0Y-76.0
X115.0Y-66.0
X115.0Y-67.0
X115.0Y-75.0
X115.0Y-76.0
X116.0Y-66.0
X116.0Y-67.0
X116.0Y-75.0
X116.0Y-76.0
X117.0Y-66.0
X117.0Y-67.0
X117.0Y-75.0
X117.0Y-76.0
X118.0Y-66.0
X118.0Y-67.0
X118.0Y-75.0
X118.0Y-76.0
X119.0Y-66.0
X119.0Y-67.0
X119.0Y-75.0
X119.0Y-76.0
X120.0Y-66.0
X120.0Y-67.0
X120.0Y-75.0
X120.0Y-76.0
X144.784Y-114.735
X153.0Y-118.0
X153.0Y-124.0
X153.216Y-88.007
X156.584Y-124.0
X165.493Y-74.531
X168.393Y-74.531
T3
X115.5Y-125.0
X122.5Y-95.5
X135.216Y-103.0
X141.5Y-87.5
X155.0Y-97.0
T5
X186.25Y-123.975
X188.75Y-123.975
X191.25Y-123.975
X193.75Y-123.975
T6
X124.55Y-84.6
X127.92Y-119.735
X127.96Y-113.46
X127.96Y-116.0
X130.46Y-119.735
X130.5Y-113.46
X130.5Y-116.0
X133.0Y-119.735
X133.04Y-113.46
X133.04Y-116.0
X147.5Y-68.75
X160.263Y-84.5
X160.413Y-101.0
X165.343Y-84.5
X165.493Y-101.0
X184.868Y-84.89
X188.46Y-88.482
T7
X175.75Y-123.25
X175.75Y-129.75
X180.25Y-123.25
X180.25Y-129.75
T8
X173.25Y-110.29
X173.25Y-112.83
X175.79Y-107.75
X175.79Y-110.29
X175.79Y-112.83
T9
X173.25Y-107.75
T10
X109.975Y-88.02
X109.975Y-92.17
X109.975Y-95.5
X109.975Y-98.83
X109.975Y-102.135
X109.975Y-105.49
X109.975Y-108.82
X109.975Y-112.97
X114.175Y-88.02
X114.175Y-92.17
X114.175Y-95.5
X114.175Y-98.83
X114.175Y-102.135
X114.175Y-105.49
X114.175Y-108.82
X114.175Y-112.97
X118.375Y-88.02
X118.375Y-92.17
X118.375Y-95.5
X118.375Y-98.83
X118.375Y-102.135
X118.375Y-105.49
X118.375Y-108.82
X118.375Y-112.97
T11
X189.968Y-70.598
X189.968Y-132.098
T4
G00X126.95Y-84.6
M15
G01X128.15Y-84.6
M16
G05
G00X147.5Y-66.35
M15
G01X147.5Y-65.15
M16
G05
M30
