%TF.GenerationSoftware,KiCad,Pcbnew,9.0.2*%
%TF.CreationDate,2025-06-13T16:07:32+08:00*%
%TF.ProjectId,DSCHG_TSMP,44534348-475f-4545-934d-502e6b696361,rev?*%
%TF.SameCoordinates,Original*%
%TF.FileFunction,Copper,L1,Top*%
%TF.FilePolarity,Positive*%
%FSLAX46Y46*%
G04 Gerber Fmt 4.6, Leading zero omitted, Abs format (unit mm)*
G04 Created by KiCad (PCBNEW 9.0.2) date 2025-06-13 16:07:32*
%MOMM*%
%LPD*%
G01*
G04 APERTURE LIST*
G04 Aperture macros list*
%AMRoundRect*
0 Rectangle with rounded corners*
0 $1 Rounding radius*
0 $2 $3 $4 $5 $6 $7 $8 $9 X,Y pos of 4 corners*
0 Add a 4 corners polygon primitive as box body*
4,1,4,$2,$3,$4,$5,$6,$7,$8,$9,$2,$3,0*
0 Add four circle primitives for the rounded corners*
1,1,$1+$1,$2,$3*
1,1,$1+$1,$4,$5*
1,1,$1+$1,$6,$7*
1,1,$1+$1,$8,$9*
0 Add four rect primitives between the rounded corners*
20,1,$1+$1,$2,$3,$4,$5,0*
20,1,$1+$1,$4,$5,$6,$7,0*
20,1,$1+$1,$6,$7,$8,$9,0*
20,1,$1+$1,$8,$9,$2,$3,0*%
G04 Aperture macros list end*
%TA.AperFunction,ComponentPad*%
%ADD10R,2.000000X2.000000*%
%TD*%
%TA.AperFunction,ComponentPad*%
%ADD11C,2.000000*%
%TD*%
%TA.AperFunction,ComponentPad*%
%ADD12RoundRect,0.250001X0.499999X0.759999X-0.499999X0.759999X-0.499999X-0.759999X0.499999X-0.759999X0*%
%TD*%
%TA.AperFunction,ComponentPad*%
%ADD13O,1.500000X2.020000*%
%TD*%
%TA.AperFunction,ComponentPad*%
%ADD14RoundRect,0.250001X-0.759999X0.499999X-0.759999X-0.499999X0.759999X-0.499999X0.759999X0.499999X0*%
%TD*%
%TA.AperFunction,ComponentPad*%
%ADD15O,2.020000X1.500000*%
%TD*%
%TA.AperFunction,ComponentPad*%
%ADD16RoundRect,0.250001X-0.499999X-0.759999X0.499999X-0.759999X0.499999X0.759999X-0.499999X0.759999X0*%
%TD*%
%TA.AperFunction,ComponentPad*%
%ADD17RoundRect,0.250001X0.759999X-0.499999X0.759999X0.499999X-0.759999X0.499999X-0.759999X-0.499999X0*%
%TD*%
%TA.AperFunction,Conductor*%
%ADD18C,2.000000*%
%TD*%
G04 APERTURE END LIST*
D10*
%TO.P,R1,1*%
%TO.N,Net-(J13-Pin_1)*%
X180960000Y-90050000D03*
D11*
%TO.P,R1,2*%
%TO.N,Net-(J1-Pin_1)*%
X186040000Y-90050000D03*
%TD*%
D12*
%TO.P,J14,1,Pin_1*%
%TO.N,Net-(J10-Pin_1)*%
X174000000Y-112880000D03*
D13*
%TO.P,J14,2,Pin_2*%
X171000000Y-112880000D03*
%TD*%
D14*
%TO.P,J12,1,Pin_1*%
%TO.N,Net-(J12-Pin_1)*%
X244415000Y-92500000D03*
D15*
%TO.P,J12,2,Pin_2*%
X244415000Y-95500000D03*
%TD*%
D16*
%TO.P,J3,1,Pin_1*%
%TO.N,Net-(J3-Pin_1)*%
X207000000Y-77040000D03*
D13*
%TO.P,J3,2,Pin_2*%
X210000000Y-77040000D03*
%TD*%
D12*
%TO.P,J8,1,Pin_1*%
%TO.N,Net-(J8-Pin_1)*%
X234000000Y-113000000D03*
D13*
%TO.P,J8,2,Pin_2*%
X231000000Y-113000000D03*
%TD*%
D17*
%TO.P,J7,1,Pin_1*%
%TO.N,Net-(J10-Pin_1)*%
X158000000Y-102040000D03*
D15*
%TO.P,J7,2,Pin_2*%
X158000000Y-99040000D03*
%TD*%
D17*
%TO.P,J6,1,Pin_1*%
%TO.N,Net-(J13-Pin_1)*%
X158000000Y-90040000D03*
D15*
%TO.P,J6,2,Pin_2*%
X158000000Y-87040000D03*
%TD*%
D16*
%TO.P,J1,1,Pin_1*%
%TO.N,Net-(J1-Pin_1)*%
X195000000Y-77000000D03*
D13*
%TO.P,J1,2,Pin_2*%
X198000000Y-77000000D03*
%TD*%
D16*
%TO.P,J13,1,Pin_1*%
%TO.N,Net-(J13-Pin_1)*%
X171000000Y-77000000D03*
D13*
%TO.P,J13,2,Pin_2*%
X174000000Y-77000000D03*
%TD*%
D12*
%TO.P,J11,1,Pin_1*%
%TO.N,Net-(J11-Pin_1)*%
X198000000Y-112880000D03*
D13*
%TO.P,J11,2,Pin_2*%
X195000000Y-112880000D03*
%TD*%
D12*
%TO.P,J10,1,Pin_1*%
%TO.N,Net-(J10-Pin_1)*%
X186000000Y-112880000D03*
D13*
%TO.P,J10,2,Pin_2*%
X183000000Y-112880000D03*
%TD*%
D16*
%TO.P,J2,1,Pin_1*%
%TO.N,Net-(J13-Pin_1)*%
X183000000Y-77000000D03*
D13*
%TO.P,J2,2,Pin_2*%
X186000000Y-77000000D03*
%TD*%
D16*
%TO.P,J9,1,Pin_1*%
%TO.N,Net-(J8-Pin_1)*%
X231000000Y-77085000D03*
D13*
%TO.P,J9,2,Pin_2*%
%TO.N,Net-(J12-Pin_1)*%
X234000000Y-77085000D03*
%TD*%
D12*
%TO.P,J5,1,Pin_1*%
%TO.N,Net-(J11-Pin_1)*%
X210000000Y-112890000D03*
D13*
%TO.P,J5,2,Pin_2*%
X207000000Y-112890000D03*
%TD*%
D10*
%TO.P,R2,1*%
%TO.N,Net-(J10-Pin_1)*%
X180920000Y-99040000D03*
D11*
%TO.P,R2,2*%
%TO.N,Net-(J3-Pin_1)*%
X186000000Y-99040000D03*
%TD*%
D18*
%TO.N,Net-(J10-Pin_1)*%
X158000000Y-104040000D02*
X166840000Y-112880000D01*
X158000000Y-104040000D02*
X158000000Y-102040000D01*
X180920000Y-99040000D02*
X158000000Y-99040000D01*
X158000000Y-102040000D02*
X158000000Y-99040000D01*
X171000000Y-112880000D02*
X166840000Y-112880000D01*
X183000000Y-112880000D02*
X174000000Y-112880000D01*
X186000000Y-112880000D02*
X183000000Y-112880000D01*
X171000000Y-112880000D02*
X174000000Y-112880000D01*
%TO.N,Net-(J1-Pin_1)*%
X186000000Y-89950000D02*
X186040000Y-89990000D01*
X198000000Y-77000000D02*
X195000000Y-77000000D01*
X195000000Y-87000000D02*
X191950000Y-90050000D01*
X195000000Y-77000000D02*
X195000000Y-87000000D01*
X191950000Y-90050000D02*
X186040000Y-90050000D01*
%TO.N,Net-(J13-Pin_1)*%
X158000000Y-90040000D02*
X158000000Y-87040000D01*
X174000000Y-77000000D02*
X171000000Y-77000000D01*
X158000000Y-86040000D02*
X167040000Y-77000000D01*
X186000000Y-77000000D02*
X183000000Y-77000000D01*
X183000000Y-77000000D02*
X174000000Y-77000000D01*
X180960000Y-90050000D02*
X158010000Y-90050000D01*
X158010000Y-90050000D02*
X158000000Y-90040000D01*
X171000000Y-77000000D02*
X167040000Y-77000000D01*
X158000000Y-86040000D02*
X158000000Y-87040000D01*
%TO.N,Net-(J11-Pin_1)*%
X195000000Y-112880000D02*
X198000000Y-112880000D01*
X206990000Y-112880000D02*
X207000000Y-112890000D01*
X198000000Y-112880000D02*
X206990000Y-112880000D01*
X207000000Y-112890000D02*
X210000000Y-112890000D01*
%TO.N,Net-(J3-Pin_1)*%
X210000000Y-77040000D02*
X207000000Y-77040000D01*
X203000000Y-99040000D02*
X207000000Y-95040000D01*
X207000000Y-95040000D02*
X207000000Y-77040000D01*
X186000000Y-99040000D02*
X203000000Y-99040000D01*
%TO.N,Net-(J8-Pin_1)*%
X231000000Y-113000000D02*
X234000000Y-113000000D01*
X231000000Y-113000000D02*
X231000000Y-77085000D01*
%TO.N,Net-(J12-Pin_1)*%
X234000000Y-77085000D02*
X235085000Y-77085000D01*
X244415000Y-86415000D02*
X244415000Y-92500000D01*
X244415000Y-95500000D02*
X244415000Y-92500000D01*
X235085000Y-77085000D02*
X244415000Y-86415000D01*
%TD*%
M02*
