M48
; DRILL file {KiCad 9.0.2} date 2025-06-13T16:08:19+0800
; FORMAT={-:-/ absolute / metric / decimal}
; #@! TF.CreationDate,2025-06-13T16:08:19+08:00
; #@! TF.GenerationSoftware,Kicad,Pcbnew,9.0.2
; #@! TF.FileFunction,Plated,1,2,PTH
FMAT,2
METRIC
; #@! TA.AperFunction,Plated,PTH,ComponentDrill
T1C1.020
; #@! TA.AperFunction,Plated,PTH,ComponentDrill
T2C1.100
%
G90
G05
T1
X158.0Y-87.04
X158.0Y-90.04
X158.0Y-99.04
X158.0Y-102.04
X171.0Y-77.0
X171.0Y-112.88
X174.0Y-77.0
X174.0Y-112.88
X183.0Y-77.0
X183.0Y-112.88
X186.0Y-77.0
X186.0Y-112.88
X195.0Y-77.0
X195.0Y-112.88
X198.0Y-77.0
X198.0Y-112.88
X207.0Y-77.04
X207.0Y-112.89
X210.0Y-77.04
X210.0Y-112.89
X231.0Y-77.085
X231.0Y-113.0
X234.0Y-77.085
X234.0Y-113.0
X244.415Y-92.5
X244.415Y-95.5
T2
X180.92Y-99.04
X180.96Y-90.05
X186.0Y-99.04
X186.04Y-90.05
M30
