M48
; DRILL file {KiCad 9.0.2} date 2025-06-13T16:08:19+0800
; FORMAT={-:-/ absolute / metric / decimal}
; #@! TF.CreationDate,2025-06-13T16:08:19+08:00
; #@! TF.GenerationSoftware,Kicad,Pcbnew,9.0.2
; #@! TF.FileFunction,NonPlated,1,2,NPTH
FMAT,2
METRIC
; #@! TA.AperFunction,NonPlated,NPTH,ComponentDrill
T1C1.270
; #@! TA.AperFunction,NonPlated,NPTH,ComponentDrill
T2C4.300
%
G90
G05
T1
X156.04Y-84.04
X156.04Y-93.04
X156.04Y-96.04
X156.04Y-105.04
X168.0Y-75.04
X168.0Y-114.84
X177.0Y-75.04
X177.0Y-114.84
X180.0Y-75.04
X180.0Y-114.84
X189.0Y-75.04
X189.0Y-114.84
X192.0Y-75.04
X192.0Y-114.84
X201.0Y-75.04
X201.0Y-114.84
X204.0Y-75.08
X204.0Y-114.85
X213.0Y-75.08
X213.0Y-114.85
X228.0Y-75.125
X228.0Y-114.96
X237.0Y-75.125
X237.0Y-114.96
X246.375Y-89.5
X246.375Y-98.5
T2
X155.0Y-75.0
X155.0Y-115.0
X245.0Y-75.0
X245.0Y-115.0
M30
