%TF.GenerationSoftware,KiCad,Pcbnew,9.0.2*%
%TF.CreationDate,2025-06-13T16:07:32+08:00*%
%TF.ProjectId,DSCHG_TSMP,44534348-475f-4545-934d-502e6b696361,rev?*%
%TF.SameCoordinates,Original*%
%TF.FileFunction,Soldermask,Bot*%
%TF.FilePolarity,Negative*%
%FSLAX46Y46*%
G04 Gerber Fmt 4.6, Leading zero omitted, Abs format (unit mm)*
G04 Created by KiCad (PCBNEW 9.0.2) date 2025-06-13 16:07:32*
%MOMM*%
%LPD*%
G01*
G04 APERTURE LIST*
G04 Aperture macros list*
%AMRoundRect*
0 Rectangle with rounded corners*
0 $1 Rounding radius*
0 $2 $3 $4 $5 $6 $7 $8 $9 X,Y pos of 4 corners*
0 Add a 4 corners polygon primitive as box body*
4,1,4,$2,$3,$4,$5,$6,$7,$8,$9,$2,$3,0*
0 Add four circle primitives for the rounded corners*
1,1,$1+$1,$2,$3*
1,1,$1+$1,$4,$5*
1,1,$1+$1,$6,$7*
1,1,$1+$1,$8,$9*
0 Add four rect primitives between the rounded corners*
20,1,$1+$1,$2,$3,$4,$5,0*
20,1,$1+$1,$4,$5,$6,$7,0*
20,1,$1+$1,$6,$7,$8,$9,0*
20,1,$1+$1,$8,$9,$2,$3,0*%
G04 Aperture macros list end*
%ADD10R,2.000000X2.000000*%
%ADD11C,2.000000*%
%ADD12C,1.270000*%
%ADD13RoundRect,0.250001X0.499999X0.759999X-0.499999X0.759999X-0.499999X-0.759999X0.499999X-0.759999X0*%
%ADD14O,1.500000X2.020000*%
%ADD15RoundRect,0.250001X-0.759999X0.499999X-0.759999X-0.499999X0.759999X-0.499999X0.759999X0.499999X0*%
%ADD16O,2.020000X1.500000*%
%ADD17C,4.300000*%
%ADD18RoundRect,0.250001X-0.499999X-0.759999X0.499999X-0.759999X0.499999X0.759999X-0.499999X0.759999X0*%
%ADD19RoundRect,0.250001X0.759999X-0.499999X0.759999X0.499999X-0.759999X0.499999X-0.759999X-0.499999X0*%
G04 APERTURE END LIST*
D10*
%TO.C,R1*%
X180960000Y-90050000D03*
D11*
X186040000Y-90050000D03*
%TD*%
D12*
%TO.C,J14*%
X177000000Y-114840000D03*
X168000000Y-114840000D03*
D13*
X174000000Y-112880000D03*
D14*
X171000000Y-112880000D03*
%TD*%
D12*
%TO.C,J12*%
X246375000Y-89500000D03*
X246375000Y-98500000D03*
D15*
X244415000Y-92500000D03*
D16*
X244415000Y-95500000D03*
%TD*%
D17*
%TO.C,H1*%
X155000000Y-115000000D03*
%TD*%
D12*
%TO.C,J3*%
X204000000Y-75080000D03*
X213000000Y-75080000D03*
D18*
X207000000Y-77040000D03*
D14*
X210000000Y-77040000D03*
%TD*%
D12*
%TO.C,J8*%
X237000000Y-114960000D03*
X228000000Y-114960000D03*
D13*
X234000000Y-113000000D03*
D14*
X231000000Y-113000000D03*
%TD*%
D12*
%TO.C,J7*%
X156040000Y-105040000D03*
X156040000Y-96040000D03*
D19*
X158000000Y-102040000D03*
D16*
X158000000Y-99040000D03*
%TD*%
D12*
%TO.C,J6*%
X156040000Y-93040000D03*
X156040000Y-84040000D03*
D19*
X158000000Y-90040000D03*
D16*
X158000000Y-87040000D03*
%TD*%
D12*
%TO.C,J1*%
X192000000Y-75040000D03*
X201000000Y-75040000D03*
D18*
X195000000Y-77000000D03*
D14*
X198000000Y-77000000D03*
%TD*%
D12*
%TO.C,J13*%
X168000000Y-75040000D03*
X177000000Y-75040000D03*
D18*
X171000000Y-77000000D03*
D14*
X174000000Y-77000000D03*
%TD*%
D17*
%TO.C,H3*%
X245000000Y-75000000D03*
%TD*%
D12*
%TO.C,J11*%
X201000000Y-114840000D03*
X192000000Y-114840000D03*
D13*
X198000000Y-112880000D03*
D14*
X195000000Y-112880000D03*
%TD*%
D12*
%TO.C,J10*%
X189000000Y-114840000D03*
X180000000Y-114840000D03*
D13*
X186000000Y-112880000D03*
D14*
X183000000Y-112880000D03*
%TD*%
D12*
%TO.C,J2*%
X180000000Y-75040000D03*
X189000000Y-75040000D03*
D18*
X183000000Y-77000000D03*
D14*
X186000000Y-77000000D03*
%TD*%
D17*
%TO.C,H4*%
X245000000Y-115000000D03*
%TD*%
D12*
%TO.C,J9*%
X228000000Y-75125000D03*
X237000000Y-75125000D03*
D18*
X231000000Y-77085000D03*
D14*
X234000000Y-77085000D03*
%TD*%
D17*
%TO.C,H2*%
X155000000Y-75000000D03*
%TD*%
D12*
%TO.C,J5*%
X213000000Y-114850000D03*
X204000000Y-114850000D03*
D13*
X210000000Y-112890000D03*
D14*
X207000000Y-112890000D03*
%TD*%
D10*
%TO.C,R2*%
X180920000Y-99040000D03*
D11*
X186000000Y-99040000D03*
%TD*%
M02*
