%TF.GenerationSoftware,KiCad,Pcbnew,9.0.2*%
%TF.CreationDate,2025-09-30T17:54:07+08:00*%
%TF.ProjectId,IMD_TSMS_latch_logic,494d445f-5453-44d5-935f-6c617463685f,rev?*%
%TF.SameCoordinates,Original*%
%TF.FileFunction,Paste,Top*%
%TF.FilePolarity,Positive*%
%FSLAX46Y46*%
G04 Gerber Fmt 4.6, Leading zero omitted, Abs format (unit mm)*
G04 Created by KiCad (PCBNEW 9.0.2) date 2025-09-30 17:54:07*
%MOMM*%
%LPD*%
G01*
G04 APERTURE LIST*
G04 Aperture macros list*
%AMRoundRect*
0 Rectangle with rounded corners*
0 $1 Rounding radius*
0 $2 $3 $4 $5 $6 $7 $8 $9 X,Y pos of 4 corners*
0 Add a 4 corners polygon primitive as box body*
4,1,4,$2,$3,$4,$5,$6,$7,$8,$9,$2,$3,0*
0 Add four circle primitives for the rounded corners*
1,1,$1+$1,$2,$3*
1,1,$1+$1,$4,$5*
1,1,$1+$1,$6,$7*
1,1,$1+$1,$8,$9*
0 Add four rect primitives between the rounded corners*
20,1,$1+$1,$2,$3,$4,$5,0*
20,1,$1+$1,$4,$5,$6,$7,0*
20,1,$1+$1,$6,$7,$8,$9,0*
20,1,$1+$1,$8,$9,$2,$3,0*%
G04 Aperture macros list end*
%ADD10RoundRect,0.278125X0.474375X0.389375X-0.474375X0.389375X-0.474375X-0.389375X0.474375X-0.389375X0*%
%ADD11RoundRect,0.150000X0.750000X0.150000X-0.750000X0.150000X-0.750000X-0.150000X0.750000X-0.150000X0*%
%ADD12RoundRect,0.278125X-0.474375X-0.389375X0.474375X-0.389375X0.474375X0.389375X-0.474375X0.389375X0*%
%ADD13RoundRect,0.293478X0.381522X0.406522X-0.381522X0.406522X-0.381522X-0.406522X0.381522X-0.406522X0*%
%ADD14RoundRect,0.090000X-0.210000X1.040000X-0.210000X-1.040000X0.210000X-1.040000X0.210000X1.040000X0*%
%ADD15RoundRect,0.091500X-0.213500X1.038500X-0.213500X-1.038500X0.213500X-1.038500X0.213500X1.038500X0*%
%ADD16RoundRect,0.305575X0.460025X0.412525X-0.460025X0.412525X-0.460025X-0.412525X0.460025X-0.412525X0*%
%ADD17RoundRect,0.308511X0.457089X0.416489X-0.457089X0.416489X-0.457089X-0.416489X0.457089X-0.416489X0*%
%ADD18RoundRect,0.278125X0.389375X-0.474375X0.389375X0.474375X-0.389375X0.474375X-0.389375X-0.474375X0*%
%ADD19RoundRect,0.150000X-1.350000X-0.150000X1.350000X-0.150000X1.350000X0.150000X-1.350000X0.150000X0*%
%ADD20RoundRect,0.150000X-1.337500X-0.150000X1.337500X-0.150000X1.337500X0.150000X-1.337500X0.150000X0*%
%ADD21RoundRect,0.249999X-0.750001X-0.640001X0.750001X-0.640001X0.750001X0.640001X-0.750001X0.640001X0*%
%ADD22RoundRect,0.150000X-0.150000X0.750000X-0.150000X-0.750000X0.150000X-0.750000X0.150000X0.750000X0*%
%ADD23RoundRect,0.278125X-0.389375X0.474375X-0.389375X-0.474375X0.389375X-0.474375X0.389375X0.474375X0*%
%ADD24RoundRect,0.305575X-0.460025X-0.412525X0.460025X-0.412525X0.460025X0.412525X-0.460025X0.412525X0*%
%ADD25RoundRect,0.308511X-0.457089X-0.416489X0.457089X-0.416489X0.457089X0.416489X-0.457089X0.416489X0*%
%ADD26RoundRect,0.150000X-0.150000X1.000000X-0.150000X-1.000000X0.150000X-1.000000X0.150000X1.000000X0*%
%ADD27RoundRect,0.151250X-0.151250X0.998750X-0.151250X-0.998750X0.151250X-0.998750X0.151250X0.998750X0*%
%ADD28RoundRect,0.148750X-0.148750X1.001250X-0.148750X-1.001250X0.148750X-1.001250X0.148750X1.001250X0*%
%ADD29RoundRect,0.090000X-1.040000X-0.210000X1.040000X-0.210000X1.040000X0.210000X-1.040000X0.210000X0*%
%ADD30RoundRect,0.091500X-1.038500X-0.213500X1.038500X-0.213500X1.038500X0.213500X-1.038500X0.213500X0*%
%ADD31RoundRect,0.250000X-1.500000X-0.650000X1.500000X-0.650000X1.500000X0.650000X-1.500000X0.650000X0*%
%ADD32RoundRect,0.305575X-0.412525X0.460025X-0.412525X-0.460025X0.412525X-0.460025X0.412525X0.460025X0*%
%ADD33RoundRect,0.308511X-0.416489X0.457089X-0.416489X-0.457089X0.416489X-0.457089X0.416489X0.457089X0*%
%ADD34RoundRect,0.305575X0.412525X-0.460025X0.412525X0.460025X-0.412525X0.460025X-0.412525X-0.460025X0*%
%ADD35RoundRect,0.308511X0.416489X-0.457089X0.416489X0.457089X-0.416489X0.457089X-0.416489X-0.457089X0*%
%ADD36RoundRect,0.150000X-1.000000X-0.150000X1.000000X-0.150000X1.000000X0.150000X-1.000000X0.150000X0*%
%ADD37RoundRect,0.151250X-0.998750X-0.151250X0.998750X-0.151250X0.998750X0.151250X-0.998750X0.151250X0*%
%ADD38RoundRect,0.148750X-1.001250X-0.148750X1.001250X-0.148750X1.001250X0.148750X-1.001250X0.148750X0*%
G04 APERTURE END LIST*
D10*
%TO.C,R5*%
X167157500Y-116882500D03*
X164852500Y-116882500D03*
%TD*%
%TO.C,R17*%
X145152500Y-83850000D03*
X142847500Y-83850000D03*
%TD*%
D11*
%TO.C,Q5*%
X145605000Y-119300000D03*
X145605000Y-117400000D03*
X143405000Y-118350000D03*
%TD*%
D12*
%TO.C,R10*%
X138597500Y-101467500D03*
X140902500Y-101467500D03*
%TD*%
D13*
%TO.C,D6*%
X140375000Y-77500000D03*
X138125000Y-77500000D03*
%TD*%
D11*
%TO.C,Q2*%
X100100000Y-86285000D03*
X100100000Y-84385000D03*
X97900000Y-85335000D03*
%TD*%
D12*
%TO.C,R12*%
X138352500Y-115317500D03*
X140657500Y-115317500D03*
%TD*%
D10*
%TO.C,R19*%
X145152500Y-77533552D03*
X142847500Y-77533552D03*
%TD*%
D11*
%TO.C,Q6*%
X140850000Y-97200000D03*
X140850000Y-95300000D03*
X138650000Y-96250000D03*
%TD*%
D14*
%TO.C,U4*%
X106810000Y-93630000D03*
X105540000Y-93630000D03*
X104270000Y-93630000D03*
X103000000Y-93630000D03*
X101730000Y-93630000D03*
X100460000Y-93630000D03*
X99190000Y-93630000D03*
X99190000Y-98870000D03*
D15*
X100455000Y-98870000D03*
D14*
X101730000Y-98870000D03*
X103000000Y-98870000D03*
X104270000Y-98870000D03*
X105540000Y-98870000D03*
X106810000Y-98870000D03*
%TD*%
D16*
%TO.C,C6*%
X161970600Y-93356900D03*
D17*
X159539400Y-93350000D03*
%TD*%
D12*
%TO.C,R1*%
X164852500Y-119317500D03*
X167157500Y-119317500D03*
%TD*%
D10*
%TO.C,R23*%
X150907500Y-116882500D03*
X148602500Y-116882500D03*
%TD*%
D18*
%TO.C,R20*%
X105217500Y-86987500D03*
X105217500Y-84682500D03*
%TD*%
D19*
%TO.C,U6*%
X154755000Y-108695000D03*
X154755000Y-109965000D03*
D20*
X154742500Y-111100000D03*
D19*
X154755000Y-112505000D03*
X160755000Y-112505000D03*
X160755000Y-111235000D03*
X160755000Y-109965000D03*
X160755000Y-108695000D03*
%TD*%
D18*
%TO.C,R22*%
X145217500Y-90402500D03*
X145217500Y-88097500D03*
%TD*%
D10*
%TO.C,R3*%
X140902500Y-93282500D03*
X138597500Y-93282500D03*
%TD*%
D21*
%TO.C,U5*%
X138740000Y-107080000D03*
X138740000Y-109620000D03*
X148270000Y-109620000D03*
X148270000Y-107080000D03*
%TD*%
D12*
%TO.C,R26*%
X92262500Y-102912500D03*
X94567500Y-102912500D03*
%TD*%
D16*
%TO.C,C5*%
X152070600Y-93471900D03*
D17*
X149639400Y-93465000D03*
%TD*%
D10*
%TO.C,R7*%
X150907500Y-119382500D03*
X148602500Y-119382500D03*
%TD*%
%TO.C,R21*%
X94902500Y-84367500D03*
X92597500Y-84367500D03*
%TD*%
D22*
%TO.C,Q3*%
X92397500Y-105497500D03*
X90497500Y-105497500D03*
X91447500Y-107697500D03*
%TD*%
D23*
%TO.C,R27*%
X94730000Y-105445000D03*
X94730000Y-107750000D03*
%TD*%
D24*
%TO.C,C2*%
X148636900Y-124343100D03*
D25*
X151068100Y-124350000D03*
%TD*%
D24*
%TO.C,C1*%
X164789400Y-121843100D03*
D25*
X167220600Y-121850000D03*
%TD*%
D24*
%TO.C,C9*%
X161789400Y-114593100D03*
D25*
X164220600Y-114600000D03*
%TD*%
D26*
%TO.C,U3*%
X106695000Y-103350000D03*
X105425000Y-103350000D03*
X104155000Y-103350000D03*
X102885000Y-103350000D03*
X101615000Y-103350000D03*
D27*
X100347500Y-103350000D03*
D26*
X99075000Y-103350000D03*
X97805000Y-103350000D03*
X97805000Y-108650000D03*
X99075000Y-108650000D03*
X100345000Y-108650000D03*
X101615000Y-108650000D03*
X102885000Y-108650000D03*
D28*
X104152500Y-108650000D03*
D26*
X105425000Y-108650000D03*
X106695000Y-108650000D03*
%TD*%
D12*
%TO.C,R24*%
X148692500Y-121952500D03*
X150997500Y-121952500D03*
%TD*%
D29*
%TO.C,U1*%
X146605000Y-95655000D03*
X146605000Y-96925000D03*
X146605000Y-98195000D03*
X146605000Y-99465000D03*
X146605000Y-100735000D03*
X146605000Y-102005000D03*
X146605000Y-103275000D03*
X151845000Y-103275000D03*
D30*
X151845000Y-102010000D03*
D29*
X151845000Y-100735000D03*
X151845000Y-99465000D03*
X151845000Y-98195000D03*
X151845000Y-96925000D03*
X151845000Y-95655000D03*
%TD*%
D10*
%TO.C,R25*%
X141000000Y-99250000D03*
X138695000Y-99250000D03*
%TD*%
D13*
%TO.C,D7*%
X94875000Y-86835000D03*
X92625000Y-86835000D03*
%TD*%
D12*
%TO.C,R9*%
X148597500Y-114685000D03*
X150902500Y-114685000D03*
%TD*%
D19*
%TO.C,IC1*%
X154755000Y-116695000D03*
X154755000Y-117965000D03*
D20*
X154742500Y-119100000D03*
D19*
X154755000Y-120505000D03*
X160755000Y-120505000D03*
X160755000Y-119235000D03*
X160755000Y-117965000D03*
X160755000Y-116695000D03*
%TD*%
D12*
%TO.C,R2*%
X153597500Y-106717500D03*
X155902500Y-106717500D03*
%TD*%
D10*
%TO.C,R8*%
X140657500Y-117632500D03*
X138352500Y-117632500D03*
%TD*%
D13*
%TO.C,D5*%
X140375000Y-80640000D03*
X138125000Y-80640000D03*
%TD*%
%TO.C,D3*%
X140727500Y-113067500D03*
X138477500Y-113067500D03*
%TD*%
D31*
%TO.C,D1*%
X155755000Y-123600000D03*
X160755000Y-123600000D03*
%TD*%
D32*
%TO.C,C10*%
X164261900Y-109384400D03*
D33*
X164255000Y-111815600D03*
%TD*%
D10*
%TO.C,R14*%
X160657500Y-106632500D03*
X158352500Y-106632500D03*
%TD*%
%TO.C,R18*%
X145152500Y-80673552D03*
X142847500Y-80673552D03*
%TD*%
D12*
%TO.C,R28*%
X92262500Y-110162500D03*
X94567500Y-110162500D03*
%TD*%
D34*
%TO.C,C4*%
X109243100Y-98715600D03*
D35*
X109250000Y-96284400D03*
%TD*%
D32*
%TO.C,C7*%
X109256900Y-106784400D03*
D33*
X109250000Y-109215600D03*
%TD*%
D13*
%TO.C,D2*%
X140880000Y-104100000D03*
X138630000Y-104100000D03*
%TD*%
D18*
%TO.C,R4*%
X102717500Y-86987500D03*
X102717500Y-84682500D03*
%TD*%
D13*
%TO.C,D4*%
X140375000Y-83850000D03*
X138125000Y-83850000D03*
%TD*%
D36*
%TO.C,U2*%
X156205000Y-95520000D03*
X156205000Y-96790000D03*
X156205000Y-98060000D03*
X156205000Y-99330000D03*
X156205000Y-100600000D03*
D37*
X156205000Y-101867500D03*
D36*
X156205000Y-103140000D03*
X156205000Y-104410000D03*
X161505000Y-104410000D03*
X161505000Y-103140000D03*
X161505000Y-101870000D03*
X161505000Y-100600000D03*
X161505000Y-99330000D03*
D38*
X161505000Y-98062500D03*
D36*
X161505000Y-96790000D03*
X161505000Y-95520000D03*
%TD*%
M02*
