%TF.GenerationSoftware,KiCad,Pcbnew,9.0.2*%
%TF.CreationDate,2025-09-30T17:54:07+08:00*%
%TF.ProjectId,IMD_TSMS_latch_logic,494d445f-5453-44d5-935f-6c617463685f,rev?*%
%TF.SameCoordinates,Original*%
%TF.FileFunction,Legend,Bot*%
%TF.FilePolarity,Positive*%
%FSLAX46Y46*%
G04 Gerber Fmt 4.6, Leading zero omitted, Abs format (unit mm)*
G04 Created by KiCad (PCBNEW 9.0.2) date 2025-09-30 17:54:07*
%MOMM*%
%LPD*%
G01*
G04 APERTURE LIST*
%ADD10C,0.150000*%
%ADD11C,0.120000*%
G04 APERTURE END LIST*
D10*
X101142857Y-95454819D02*
X101476190Y-94978628D01*
X101714285Y-95454819D02*
X101714285Y-94454819D01*
X101714285Y-94454819D02*
X101333333Y-94454819D01*
X101333333Y-94454819D02*
X101238095Y-94502438D01*
X101238095Y-94502438D02*
X101190476Y-94550057D01*
X101190476Y-94550057D02*
X101142857Y-94645295D01*
X101142857Y-94645295D02*
X101142857Y-94788152D01*
X101142857Y-94788152D02*
X101190476Y-94883390D01*
X101190476Y-94883390D02*
X101238095Y-94931009D01*
X101238095Y-94931009D02*
X101333333Y-94978628D01*
X101333333Y-94978628D02*
X101714285Y-94978628D01*
X100809523Y-94454819D02*
X100190476Y-94454819D01*
X100190476Y-94454819D02*
X100523809Y-94835771D01*
X100523809Y-94835771D02*
X100380952Y-94835771D01*
X100380952Y-94835771D02*
X100285714Y-94883390D01*
X100285714Y-94883390D02*
X100238095Y-94931009D01*
X100238095Y-94931009D02*
X100190476Y-95026247D01*
X100190476Y-95026247D02*
X100190476Y-95264342D01*
X100190476Y-95264342D02*
X100238095Y-95359580D01*
X100238095Y-95359580D02*
X100285714Y-95407200D01*
X100285714Y-95407200D02*
X100380952Y-95454819D01*
X100380952Y-95454819D02*
X100666666Y-95454819D01*
X100666666Y-95454819D02*
X100761904Y-95407200D01*
X100761904Y-95407200D02*
X100809523Y-95359580D01*
X99285714Y-94454819D02*
X99761904Y-94454819D01*
X99761904Y-94454819D02*
X99809523Y-94931009D01*
X99809523Y-94931009D02*
X99761904Y-94883390D01*
X99761904Y-94883390D02*
X99666666Y-94835771D01*
X99666666Y-94835771D02*
X99428571Y-94835771D01*
X99428571Y-94835771D02*
X99333333Y-94883390D01*
X99333333Y-94883390D02*
X99285714Y-94931009D01*
X99285714Y-94931009D02*
X99238095Y-95026247D01*
X99238095Y-95026247D02*
X99238095Y-95264342D01*
X99238095Y-95264342D02*
X99285714Y-95359580D01*
X99285714Y-95359580D02*
X99333333Y-95407200D01*
X99333333Y-95407200D02*
X99428571Y-95454819D01*
X99428571Y-95454819D02*
X99666666Y-95454819D01*
X99666666Y-95454819D02*
X99761904Y-95407200D01*
X99761904Y-95407200D02*
X99809523Y-95359580D01*
X100892857Y-99954819D02*
X101226190Y-99478628D01*
X101464285Y-99954819D02*
X101464285Y-98954819D01*
X101464285Y-98954819D02*
X101083333Y-98954819D01*
X101083333Y-98954819D02*
X100988095Y-99002438D01*
X100988095Y-99002438D02*
X100940476Y-99050057D01*
X100940476Y-99050057D02*
X100892857Y-99145295D01*
X100892857Y-99145295D02*
X100892857Y-99288152D01*
X100892857Y-99288152D02*
X100940476Y-99383390D01*
X100940476Y-99383390D02*
X100988095Y-99431009D01*
X100988095Y-99431009D02*
X101083333Y-99478628D01*
X101083333Y-99478628D02*
X101464285Y-99478628D01*
X100559523Y-98954819D02*
X99940476Y-98954819D01*
X99940476Y-98954819D02*
X100273809Y-99335771D01*
X100273809Y-99335771D02*
X100130952Y-99335771D01*
X100130952Y-99335771D02*
X100035714Y-99383390D01*
X100035714Y-99383390D02*
X99988095Y-99431009D01*
X99988095Y-99431009D02*
X99940476Y-99526247D01*
X99940476Y-99526247D02*
X99940476Y-99764342D01*
X99940476Y-99764342D02*
X99988095Y-99859580D01*
X99988095Y-99859580D02*
X100035714Y-99907200D01*
X100035714Y-99907200D02*
X100130952Y-99954819D01*
X100130952Y-99954819D02*
X100416666Y-99954819D01*
X100416666Y-99954819D02*
X100511904Y-99907200D01*
X100511904Y-99907200D02*
X100559523Y-99859580D01*
X99559523Y-99050057D02*
X99511904Y-99002438D01*
X99511904Y-99002438D02*
X99416666Y-98954819D01*
X99416666Y-98954819D02*
X99178571Y-98954819D01*
X99178571Y-98954819D02*
X99083333Y-99002438D01*
X99083333Y-99002438D02*
X99035714Y-99050057D01*
X99035714Y-99050057D02*
X98988095Y-99145295D01*
X98988095Y-99145295D02*
X98988095Y-99240533D01*
X98988095Y-99240533D02*
X99035714Y-99383390D01*
X99035714Y-99383390D02*
X99607142Y-99954819D01*
X99607142Y-99954819D02*
X98988095Y-99954819D01*
X161421666Y-115709580D02*
X161469285Y-115757200D01*
X161469285Y-115757200D02*
X161612142Y-115804819D01*
X161612142Y-115804819D02*
X161707380Y-115804819D01*
X161707380Y-115804819D02*
X161850237Y-115757200D01*
X161850237Y-115757200D02*
X161945475Y-115661961D01*
X161945475Y-115661961D02*
X161993094Y-115566723D01*
X161993094Y-115566723D02*
X162040713Y-115376247D01*
X162040713Y-115376247D02*
X162040713Y-115233390D01*
X162040713Y-115233390D02*
X161993094Y-115042914D01*
X161993094Y-115042914D02*
X161945475Y-114947676D01*
X161945475Y-114947676D02*
X161850237Y-114852438D01*
X161850237Y-114852438D02*
X161707380Y-114804819D01*
X161707380Y-114804819D02*
X161612142Y-114804819D01*
X161612142Y-114804819D02*
X161469285Y-114852438D01*
X161469285Y-114852438D02*
X161421666Y-114900057D01*
X161088332Y-114804819D02*
X160469285Y-114804819D01*
X160469285Y-114804819D02*
X160802618Y-115185771D01*
X160802618Y-115185771D02*
X160659761Y-115185771D01*
X160659761Y-115185771D02*
X160564523Y-115233390D01*
X160564523Y-115233390D02*
X160516904Y-115281009D01*
X160516904Y-115281009D02*
X160469285Y-115376247D01*
X160469285Y-115376247D02*
X160469285Y-115614342D01*
X160469285Y-115614342D02*
X160516904Y-115709580D01*
X160516904Y-115709580D02*
X160564523Y-115757200D01*
X160564523Y-115757200D02*
X160659761Y-115804819D01*
X160659761Y-115804819D02*
X160945475Y-115804819D01*
X160945475Y-115804819D02*
X161040713Y-115757200D01*
X161040713Y-115757200D02*
X161088332Y-115709580D01*
X144397857Y-104554819D02*
X144731190Y-104078628D01*
X144969285Y-104554819D02*
X144969285Y-103554819D01*
X144969285Y-103554819D02*
X144588333Y-103554819D01*
X144588333Y-103554819D02*
X144493095Y-103602438D01*
X144493095Y-103602438D02*
X144445476Y-103650057D01*
X144445476Y-103650057D02*
X144397857Y-103745295D01*
X144397857Y-103745295D02*
X144397857Y-103888152D01*
X144397857Y-103888152D02*
X144445476Y-103983390D01*
X144445476Y-103983390D02*
X144493095Y-104031009D01*
X144493095Y-104031009D02*
X144588333Y-104078628D01*
X144588333Y-104078628D02*
X144969285Y-104078628D01*
X143445476Y-104554819D02*
X144016904Y-104554819D01*
X143731190Y-104554819D02*
X143731190Y-103554819D01*
X143731190Y-103554819D02*
X143826428Y-103697676D01*
X143826428Y-103697676D02*
X143921666Y-103792914D01*
X143921666Y-103792914D02*
X144016904Y-103840533D01*
X142540714Y-103554819D02*
X143016904Y-103554819D01*
X143016904Y-103554819D02*
X143064523Y-104031009D01*
X143064523Y-104031009D02*
X143016904Y-103983390D01*
X143016904Y-103983390D02*
X142921666Y-103935771D01*
X142921666Y-103935771D02*
X142683571Y-103935771D01*
X142683571Y-103935771D02*
X142588333Y-103983390D01*
X142588333Y-103983390D02*
X142540714Y-104031009D01*
X142540714Y-104031009D02*
X142493095Y-104126247D01*
X142493095Y-104126247D02*
X142493095Y-104364342D01*
X142493095Y-104364342D02*
X142540714Y-104459580D01*
X142540714Y-104459580D02*
X142588333Y-104507200D01*
X142588333Y-104507200D02*
X142683571Y-104554819D01*
X142683571Y-104554819D02*
X142921666Y-104554819D01*
X142921666Y-104554819D02*
X143016904Y-104507200D01*
X143016904Y-104507200D02*
X143064523Y-104459580D01*
X144397857Y-113554819D02*
X144731190Y-113078628D01*
X144969285Y-113554819D02*
X144969285Y-112554819D01*
X144969285Y-112554819D02*
X144588333Y-112554819D01*
X144588333Y-112554819D02*
X144493095Y-112602438D01*
X144493095Y-112602438D02*
X144445476Y-112650057D01*
X144445476Y-112650057D02*
X144397857Y-112745295D01*
X144397857Y-112745295D02*
X144397857Y-112888152D01*
X144397857Y-112888152D02*
X144445476Y-112983390D01*
X144445476Y-112983390D02*
X144493095Y-113031009D01*
X144493095Y-113031009D02*
X144588333Y-113078628D01*
X144588333Y-113078628D02*
X144969285Y-113078628D01*
X143445476Y-113554819D02*
X144016904Y-113554819D01*
X143731190Y-113554819D02*
X143731190Y-112554819D01*
X143731190Y-112554819D02*
X143826428Y-112697676D01*
X143826428Y-112697676D02*
X143921666Y-112792914D01*
X143921666Y-112792914D02*
X144016904Y-112840533D01*
X142588333Y-112554819D02*
X142778809Y-112554819D01*
X142778809Y-112554819D02*
X142874047Y-112602438D01*
X142874047Y-112602438D02*
X142921666Y-112650057D01*
X142921666Y-112650057D02*
X143016904Y-112792914D01*
X143016904Y-112792914D02*
X143064523Y-112983390D01*
X143064523Y-112983390D02*
X143064523Y-113364342D01*
X143064523Y-113364342D02*
X143016904Y-113459580D01*
X143016904Y-113459580D02*
X142969285Y-113507200D01*
X142969285Y-113507200D02*
X142874047Y-113554819D01*
X142874047Y-113554819D02*
X142683571Y-113554819D01*
X142683571Y-113554819D02*
X142588333Y-113507200D01*
X142588333Y-113507200D02*
X142540714Y-113459580D01*
X142540714Y-113459580D02*
X142493095Y-113364342D01*
X142493095Y-113364342D02*
X142493095Y-113126247D01*
X142493095Y-113126247D02*
X142540714Y-113031009D01*
X142540714Y-113031009D02*
X142588333Y-112983390D01*
X142588333Y-112983390D02*
X142683571Y-112935771D01*
X142683571Y-112935771D02*
X142874047Y-112935771D01*
X142874047Y-112935771D02*
X142969285Y-112983390D01*
X142969285Y-112983390D02*
X143016904Y-113031009D01*
X143016904Y-113031009D02*
X143064523Y-113126247D01*
X161421666Y-118054819D02*
X161754999Y-117578628D01*
X161993094Y-118054819D02*
X161993094Y-117054819D01*
X161993094Y-117054819D02*
X161612142Y-117054819D01*
X161612142Y-117054819D02*
X161516904Y-117102438D01*
X161516904Y-117102438D02*
X161469285Y-117150057D01*
X161469285Y-117150057D02*
X161421666Y-117245295D01*
X161421666Y-117245295D02*
X161421666Y-117388152D01*
X161421666Y-117388152D02*
X161469285Y-117483390D01*
X161469285Y-117483390D02*
X161516904Y-117531009D01*
X161516904Y-117531009D02*
X161612142Y-117578628D01*
X161612142Y-117578628D02*
X161993094Y-117578628D01*
X160564523Y-117054819D02*
X160754999Y-117054819D01*
X160754999Y-117054819D02*
X160850237Y-117102438D01*
X160850237Y-117102438D02*
X160897856Y-117150057D01*
X160897856Y-117150057D02*
X160993094Y-117292914D01*
X160993094Y-117292914D02*
X161040713Y-117483390D01*
X161040713Y-117483390D02*
X161040713Y-117864342D01*
X161040713Y-117864342D02*
X160993094Y-117959580D01*
X160993094Y-117959580D02*
X160945475Y-118007200D01*
X160945475Y-118007200D02*
X160850237Y-118054819D01*
X160850237Y-118054819D02*
X160659761Y-118054819D01*
X160659761Y-118054819D02*
X160564523Y-118007200D01*
X160564523Y-118007200D02*
X160516904Y-117959580D01*
X160516904Y-117959580D02*
X160469285Y-117864342D01*
X160469285Y-117864342D02*
X160469285Y-117626247D01*
X160469285Y-117626247D02*
X160516904Y-117531009D01*
X160516904Y-117531009D02*
X160564523Y-117483390D01*
X160564523Y-117483390D02*
X160659761Y-117435771D01*
X160659761Y-117435771D02*
X160850237Y-117435771D01*
X160850237Y-117435771D02*
X160945475Y-117483390D01*
X160945475Y-117483390D02*
X160993094Y-117531009D01*
X160993094Y-117531009D02*
X161040713Y-117626247D01*
X144397857Y-110054819D02*
X144731190Y-109578628D01*
X144969285Y-110054819D02*
X144969285Y-109054819D01*
X144969285Y-109054819D02*
X144588333Y-109054819D01*
X144588333Y-109054819D02*
X144493095Y-109102438D01*
X144493095Y-109102438D02*
X144445476Y-109150057D01*
X144445476Y-109150057D02*
X144397857Y-109245295D01*
X144397857Y-109245295D02*
X144397857Y-109388152D01*
X144397857Y-109388152D02*
X144445476Y-109483390D01*
X144445476Y-109483390D02*
X144493095Y-109531009D01*
X144493095Y-109531009D02*
X144588333Y-109578628D01*
X144588333Y-109578628D02*
X144969285Y-109578628D01*
X143445476Y-110054819D02*
X144016904Y-110054819D01*
X143731190Y-110054819D02*
X143731190Y-109054819D01*
X143731190Y-109054819D02*
X143826428Y-109197676D01*
X143826428Y-109197676D02*
X143921666Y-109292914D01*
X143921666Y-109292914D02*
X144016904Y-109340533D01*
X143112142Y-109054819D02*
X142493095Y-109054819D01*
X142493095Y-109054819D02*
X142826428Y-109435771D01*
X142826428Y-109435771D02*
X142683571Y-109435771D01*
X142683571Y-109435771D02*
X142588333Y-109483390D01*
X142588333Y-109483390D02*
X142540714Y-109531009D01*
X142540714Y-109531009D02*
X142493095Y-109626247D01*
X142493095Y-109626247D02*
X142493095Y-109864342D01*
X142493095Y-109864342D02*
X142540714Y-109959580D01*
X142540714Y-109959580D02*
X142588333Y-110007200D01*
X142588333Y-110007200D02*
X142683571Y-110054819D01*
X142683571Y-110054819D02*
X142969285Y-110054819D01*
X142969285Y-110054819D02*
X143064523Y-110007200D01*
X143064523Y-110007200D02*
X143112142Y-109959580D01*
X144397857Y-107554819D02*
X144731190Y-107078628D01*
X144969285Y-107554819D02*
X144969285Y-106554819D01*
X144969285Y-106554819D02*
X144588333Y-106554819D01*
X144588333Y-106554819D02*
X144493095Y-106602438D01*
X144493095Y-106602438D02*
X144445476Y-106650057D01*
X144445476Y-106650057D02*
X144397857Y-106745295D01*
X144397857Y-106745295D02*
X144397857Y-106888152D01*
X144397857Y-106888152D02*
X144445476Y-106983390D01*
X144445476Y-106983390D02*
X144493095Y-107031009D01*
X144493095Y-107031009D02*
X144588333Y-107078628D01*
X144588333Y-107078628D02*
X144969285Y-107078628D01*
X143445476Y-107554819D02*
X144016904Y-107554819D01*
X143731190Y-107554819D02*
X143731190Y-106554819D01*
X143731190Y-106554819D02*
X143826428Y-106697676D01*
X143826428Y-106697676D02*
X143921666Y-106792914D01*
X143921666Y-106792914D02*
X144016904Y-106840533D01*
X142493095Y-107554819D02*
X143064523Y-107554819D01*
X142778809Y-107554819D02*
X142778809Y-106554819D01*
X142778809Y-106554819D02*
X142874047Y-106697676D01*
X142874047Y-106697676D02*
X142969285Y-106792914D01*
X142969285Y-106792914D02*
X143064523Y-106840533D01*
D11*
%TO.C,R35*%
X97985000Y-94977064D02*
X97985000Y-94522936D01*
X96515000Y-94977064D02*
X96515000Y-94522936D01*
%TO.C,R32*%
X97985000Y-99272936D02*
X97985000Y-99727064D01*
X96515000Y-99272936D02*
X96515000Y-99727064D01*
%TO.C,C3*%
X157493748Y-114615000D02*
X158016252Y-114615000D01*
X157493748Y-116085000D02*
X158016252Y-116085000D01*
%TO.C,R15*%
X139625436Y-103332500D02*
X140079564Y-103332500D01*
X139625436Y-104802500D02*
X140079564Y-104802500D01*
%TO.C,R16*%
X139375436Y-112332500D02*
X139829564Y-112332500D01*
X139375436Y-113802500D02*
X139829564Y-113802500D01*
%TO.C,R6*%
X157982064Y-116865000D02*
X157527936Y-116865000D01*
X157982064Y-118335000D02*
X157527936Y-118335000D01*
%TO.C,R13*%
X139777936Y-108865000D02*
X140232064Y-108865000D01*
X139777936Y-110335000D02*
X140232064Y-110335000D01*
%TO.C,R11*%
X139777936Y-106365000D02*
X140232064Y-106365000D01*
X139777936Y-107835000D02*
X140232064Y-107835000D01*
%TD*%
M02*
