%TF.GenerationSoftware,KiCad,Pcbnew,9.0.2*%
%TF.CreationDate,2025-09-30T17:54:07+08:00*%
%TF.ProjectId,IMD_TSMS_latch_logic,494d445f-5453-44d5-935f-6c617463685f,rev?*%
%TF.SameCoordinates,Original*%
%TF.FileFunction,Legend,Top*%
%TF.FilePolarity,Positive*%
%FSLAX46Y46*%
G04 Gerber Fmt 4.6, Leading zero omitted, Abs format (unit mm)*
G04 Created by KiCad (PCBNEW 9.0.2) date 2025-09-30 17:54:07*
%MOMM*%
%LPD*%
G01*
G04 APERTURE LIST*
%ADD10C,0.179857*%
%ADD11C,0.150000*%
%ADD12C,0.120000*%
%ADD13C,0.127000*%
%ADD14C,0.200000*%
G04 APERTURE END LIST*
D10*
X137089928Y-106070143D02*
G75*
G02*
X136910072Y-106070143I-89928J0D01*
G01*
X136910072Y-106070143D02*
G75*
G02*
X137089928Y-106070143I89928J0D01*
G01*
X154407085Y-95300000D02*
G75*
G02*
X154227229Y-95300000I-89928J0D01*
G01*
X154227229Y-95300000D02*
G75*
G02*
X154407085Y-95300000I89928J0D01*
G01*
D11*
X165838333Y-123789819D02*
X165505000Y-123313628D01*
X165266905Y-123789819D02*
X165266905Y-122789819D01*
X165266905Y-122789819D02*
X165647857Y-122789819D01*
X165647857Y-122789819D02*
X165743095Y-122837438D01*
X165743095Y-122837438D02*
X165790714Y-122885057D01*
X165790714Y-122885057D02*
X165838333Y-122980295D01*
X165838333Y-122980295D02*
X165838333Y-123123152D01*
X165838333Y-123123152D02*
X165790714Y-123218390D01*
X165790714Y-123218390D02*
X165743095Y-123266009D01*
X165743095Y-123266009D02*
X165647857Y-123313628D01*
X165647857Y-123313628D02*
X165266905Y-123313628D01*
X166743095Y-122789819D02*
X166266905Y-122789819D01*
X166266905Y-122789819D02*
X166219286Y-123266009D01*
X166219286Y-123266009D02*
X166266905Y-123218390D01*
X166266905Y-123218390D02*
X166362143Y-123170771D01*
X166362143Y-123170771D02*
X166600238Y-123170771D01*
X166600238Y-123170771D02*
X166695476Y-123218390D01*
X166695476Y-123218390D02*
X166743095Y-123266009D01*
X166743095Y-123266009D02*
X166790714Y-123361247D01*
X166790714Y-123361247D02*
X166790714Y-123599342D01*
X166790714Y-123599342D02*
X166743095Y-123694580D01*
X166743095Y-123694580D02*
X166695476Y-123742200D01*
X166695476Y-123742200D02*
X166600238Y-123789819D01*
X166600238Y-123789819D02*
X166362143Y-123789819D01*
X166362143Y-123789819D02*
X166266905Y-123742200D01*
X166266905Y-123742200D02*
X166219286Y-123694580D01*
X143357142Y-75454819D02*
X143023809Y-74978628D01*
X142785714Y-75454819D02*
X142785714Y-74454819D01*
X142785714Y-74454819D02*
X143166666Y-74454819D01*
X143166666Y-74454819D02*
X143261904Y-74502438D01*
X143261904Y-74502438D02*
X143309523Y-74550057D01*
X143309523Y-74550057D02*
X143357142Y-74645295D01*
X143357142Y-74645295D02*
X143357142Y-74788152D01*
X143357142Y-74788152D02*
X143309523Y-74883390D01*
X143309523Y-74883390D02*
X143261904Y-74931009D01*
X143261904Y-74931009D02*
X143166666Y-74978628D01*
X143166666Y-74978628D02*
X142785714Y-74978628D01*
X144309523Y-75454819D02*
X143738095Y-75454819D01*
X144023809Y-75454819D02*
X144023809Y-74454819D01*
X144023809Y-74454819D02*
X143928571Y-74597676D01*
X143928571Y-74597676D02*
X143833333Y-74692914D01*
X143833333Y-74692914D02*
X143738095Y-74740533D01*
X144642857Y-74454819D02*
X145309523Y-74454819D01*
X145309523Y-74454819D02*
X144880952Y-75454819D01*
X143404761Y-121800057D02*
X143309523Y-121752438D01*
X143309523Y-121752438D02*
X143214285Y-121657200D01*
X143214285Y-121657200D02*
X143071428Y-121514342D01*
X143071428Y-121514342D02*
X142976190Y-121466723D01*
X142976190Y-121466723D02*
X142880952Y-121466723D01*
X142928571Y-121704819D02*
X142833333Y-121657200D01*
X142833333Y-121657200D02*
X142738095Y-121561961D01*
X142738095Y-121561961D02*
X142690476Y-121371485D01*
X142690476Y-121371485D02*
X142690476Y-121038152D01*
X142690476Y-121038152D02*
X142738095Y-120847676D01*
X142738095Y-120847676D02*
X142833333Y-120752438D01*
X142833333Y-120752438D02*
X142928571Y-120704819D01*
X142928571Y-120704819D02*
X143119047Y-120704819D01*
X143119047Y-120704819D02*
X143214285Y-120752438D01*
X143214285Y-120752438D02*
X143309523Y-120847676D01*
X143309523Y-120847676D02*
X143357142Y-121038152D01*
X143357142Y-121038152D02*
X143357142Y-121371485D01*
X143357142Y-121371485D02*
X143309523Y-121561961D01*
X143309523Y-121561961D02*
X143214285Y-121657200D01*
X143214285Y-121657200D02*
X143119047Y-121704819D01*
X143119047Y-121704819D02*
X142928571Y-121704819D01*
X144261904Y-120704819D02*
X143785714Y-120704819D01*
X143785714Y-120704819D02*
X143738095Y-121181009D01*
X143738095Y-121181009D02*
X143785714Y-121133390D01*
X143785714Y-121133390D02*
X143880952Y-121085771D01*
X143880952Y-121085771D02*
X144119047Y-121085771D01*
X144119047Y-121085771D02*
X144214285Y-121133390D01*
X144214285Y-121133390D02*
X144261904Y-121181009D01*
X144261904Y-121181009D02*
X144309523Y-121276247D01*
X144309523Y-121276247D02*
X144309523Y-121514342D01*
X144309523Y-121514342D02*
X144261904Y-121609580D01*
X144261904Y-121609580D02*
X144214285Y-121657200D01*
X144214285Y-121657200D02*
X144119047Y-121704819D01*
X144119047Y-121704819D02*
X143880952Y-121704819D01*
X143880952Y-121704819D02*
X143785714Y-121657200D01*
X143785714Y-121657200D02*
X143738095Y-121609580D01*
X145261905Y-86954819D02*
X145261905Y-85954819D01*
X145833333Y-86954819D02*
X145404762Y-86383390D01*
X145833333Y-85954819D02*
X145261905Y-86526247D01*
X146785714Y-86954819D02*
X146214286Y-86954819D01*
X146500000Y-86954819D02*
X146500000Y-85954819D01*
X146500000Y-85954819D02*
X146404762Y-86097676D01*
X146404762Y-86097676D02*
X146309524Y-86192914D01*
X146309524Y-86192914D02*
X146214286Y-86240533D01*
X139107142Y-100304819D02*
X138773809Y-99828628D01*
X138535714Y-100304819D02*
X138535714Y-99304819D01*
X138535714Y-99304819D02*
X138916666Y-99304819D01*
X138916666Y-99304819D02*
X139011904Y-99352438D01*
X139011904Y-99352438D02*
X139059523Y-99400057D01*
X139059523Y-99400057D02*
X139107142Y-99495295D01*
X139107142Y-99495295D02*
X139107142Y-99638152D01*
X139107142Y-99638152D02*
X139059523Y-99733390D01*
X139059523Y-99733390D02*
X139011904Y-99781009D01*
X139011904Y-99781009D02*
X138916666Y-99828628D01*
X138916666Y-99828628D02*
X138535714Y-99828628D01*
X140059523Y-100304819D02*
X139488095Y-100304819D01*
X139773809Y-100304819D02*
X139773809Y-99304819D01*
X139773809Y-99304819D02*
X139678571Y-99447676D01*
X139678571Y-99447676D02*
X139583333Y-99542914D01*
X139583333Y-99542914D02*
X139488095Y-99590533D01*
X140678571Y-99304819D02*
X140773809Y-99304819D01*
X140773809Y-99304819D02*
X140869047Y-99352438D01*
X140869047Y-99352438D02*
X140916666Y-99400057D01*
X140916666Y-99400057D02*
X140964285Y-99495295D01*
X140964285Y-99495295D02*
X141011904Y-99685771D01*
X141011904Y-99685771D02*
X141011904Y-99923866D01*
X141011904Y-99923866D02*
X140964285Y-100114342D01*
X140964285Y-100114342D02*
X140916666Y-100209580D01*
X140916666Y-100209580D02*
X140869047Y-100257200D01*
X140869047Y-100257200D02*
X140773809Y-100304819D01*
X140773809Y-100304819D02*
X140678571Y-100304819D01*
X140678571Y-100304819D02*
X140583333Y-100257200D01*
X140583333Y-100257200D02*
X140535714Y-100209580D01*
X140535714Y-100209580D02*
X140488095Y-100114342D01*
X140488095Y-100114342D02*
X140440476Y-99923866D01*
X140440476Y-99923866D02*
X140440476Y-99685771D01*
X140440476Y-99685771D02*
X140488095Y-99495295D01*
X140488095Y-99495295D02*
X140535714Y-99400057D01*
X140535714Y-99400057D02*
X140583333Y-99352438D01*
X140583333Y-99352438D02*
X140678571Y-99304819D01*
X138909524Y-72362295D02*
X138909524Y-71562295D01*
X138909524Y-71562295D02*
X139100000Y-71562295D01*
X139100000Y-71562295D02*
X139214286Y-71600390D01*
X139214286Y-71600390D02*
X139290476Y-71676580D01*
X139290476Y-71676580D02*
X139328571Y-71752771D01*
X139328571Y-71752771D02*
X139366667Y-71905152D01*
X139366667Y-71905152D02*
X139366667Y-72019438D01*
X139366667Y-72019438D02*
X139328571Y-72171819D01*
X139328571Y-72171819D02*
X139290476Y-72248009D01*
X139290476Y-72248009D02*
X139214286Y-72324200D01*
X139214286Y-72324200D02*
X139100000Y-72362295D01*
X139100000Y-72362295D02*
X138909524Y-72362295D01*
X140052381Y-71562295D02*
X139900000Y-71562295D01*
X139900000Y-71562295D02*
X139823809Y-71600390D01*
X139823809Y-71600390D02*
X139785714Y-71638485D01*
X139785714Y-71638485D02*
X139709524Y-71752771D01*
X139709524Y-71752771D02*
X139671428Y-71905152D01*
X139671428Y-71905152D02*
X139671428Y-72209914D01*
X139671428Y-72209914D02*
X139709524Y-72286104D01*
X139709524Y-72286104D02*
X139747619Y-72324200D01*
X139747619Y-72324200D02*
X139823809Y-72362295D01*
X139823809Y-72362295D02*
X139976190Y-72362295D01*
X139976190Y-72362295D02*
X140052381Y-72324200D01*
X140052381Y-72324200D02*
X140090476Y-72286104D01*
X140090476Y-72286104D02*
X140128571Y-72209914D01*
X140128571Y-72209914D02*
X140128571Y-72019438D01*
X140128571Y-72019438D02*
X140090476Y-71943247D01*
X140090476Y-71943247D02*
X140052381Y-71905152D01*
X140052381Y-71905152D02*
X139976190Y-71867057D01*
X139976190Y-71867057D02*
X139823809Y-71867057D01*
X139823809Y-71867057D02*
X139747619Y-71905152D01*
X139747619Y-71905152D02*
X139709524Y-71943247D01*
X139709524Y-71943247D02*
X139671428Y-72019438D01*
X98904761Y-89425057D02*
X98809523Y-89377438D01*
X98809523Y-89377438D02*
X98714285Y-89282200D01*
X98714285Y-89282200D02*
X98571428Y-89139342D01*
X98571428Y-89139342D02*
X98476190Y-89091723D01*
X98476190Y-89091723D02*
X98380952Y-89091723D01*
X98428571Y-89329819D02*
X98333333Y-89282200D01*
X98333333Y-89282200D02*
X98238095Y-89186961D01*
X98238095Y-89186961D02*
X98190476Y-88996485D01*
X98190476Y-88996485D02*
X98190476Y-88663152D01*
X98190476Y-88663152D02*
X98238095Y-88472676D01*
X98238095Y-88472676D02*
X98333333Y-88377438D01*
X98333333Y-88377438D02*
X98428571Y-88329819D01*
X98428571Y-88329819D02*
X98619047Y-88329819D01*
X98619047Y-88329819D02*
X98714285Y-88377438D01*
X98714285Y-88377438D02*
X98809523Y-88472676D01*
X98809523Y-88472676D02*
X98857142Y-88663152D01*
X98857142Y-88663152D02*
X98857142Y-88996485D01*
X98857142Y-88996485D02*
X98809523Y-89186961D01*
X98809523Y-89186961D02*
X98714285Y-89282200D01*
X98714285Y-89282200D02*
X98619047Y-89329819D01*
X98619047Y-89329819D02*
X98428571Y-89329819D01*
X99238095Y-88425057D02*
X99285714Y-88377438D01*
X99285714Y-88377438D02*
X99380952Y-88329819D01*
X99380952Y-88329819D02*
X99619047Y-88329819D01*
X99619047Y-88329819D02*
X99714285Y-88377438D01*
X99714285Y-88377438D02*
X99761904Y-88425057D01*
X99761904Y-88425057D02*
X99809523Y-88520295D01*
X99809523Y-88520295D02*
X99809523Y-88615533D01*
X99809523Y-88615533D02*
X99761904Y-88758390D01*
X99761904Y-88758390D02*
X99190476Y-89329819D01*
X99190476Y-89329819D02*
X99809523Y-89329819D01*
X139186706Y-120189819D02*
X138853373Y-119713628D01*
X138615278Y-120189819D02*
X138615278Y-119189819D01*
X138615278Y-119189819D02*
X138996230Y-119189819D01*
X138996230Y-119189819D02*
X139091468Y-119237438D01*
X139091468Y-119237438D02*
X139139087Y-119285057D01*
X139139087Y-119285057D02*
X139186706Y-119380295D01*
X139186706Y-119380295D02*
X139186706Y-119523152D01*
X139186706Y-119523152D02*
X139139087Y-119618390D01*
X139139087Y-119618390D02*
X139091468Y-119666009D01*
X139091468Y-119666009D02*
X138996230Y-119713628D01*
X138996230Y-119713628D02*
X138615278Y-119713628D01*
X140139087Y-120189819D02*
X139567659Y-120189819D01*
X139853373Y-120189819D02*
X139853373Y-119189819D01*
X139853373Y-119189819D02*
X139758135Y-119332676D01*
X139758135Y-119332676D02*
X139662897Y-119427914D01*
X139662897Y-119427914D02*
X139567659Y-119475533D01*
X140520040Y-119285057D02*
X140567659Y-119237438D01*
X140567659Y-119237438D02*
X140662897Y-119189819D01*
X140662897Y-119189819D02*
X140900992Y-119189819D01*
X140900992Y-119189819D02*
X140996230Y-119237438D01*
X140996230Y-119237438D02*
X141043849Y-119285057D01*
X141043849Y-119285057D02*
X141091468Y-119380295D01*
X141091468Y-119380295D02*
X141091468Y-119475533D01*
X141091468Y-119475533D02*
X141043849Y-119618390D01*
X141043849Y-119618390D02*
X140472421Y-120189819D01*
X140472421Y-120189819D02*
X141091468Y-120189819D01*
X143357142Y-72454819D02*
X143023809Y-71978628D01*
X142785714Y-72454819D02*
X142785714Y-71454819D01*
X142785714Y-71454819D02*
X143166666Y-71454819D01*
X143166666Y-71454819D02*
X143261904Y-71502438D01*
X143261904Y-71502438D02*
X143309523Y-71550057D01*
X143309523Y-71550057D02*
X143357142Y-71645295D01*
X143357142Y-71645295D02*
X143357142Y-71788152D01*
X143357142Y-71788152D02*
X143309523Y-71883390D01*
X143309523Y-71883390D02*
X143261904Y-71931009D01*
X143261904Y-71931009D02*
X143166666Y-71978628D01*
X143166666Y-71978628D02*
X142785714Y-71978628D01*
X144309523Y-72454819D02*
X143738095Y-72454819D01*
X144023809Y-72454819D02*
X144023809Y-71454819D01*
X144023809Y-71454819D02*
X143928571Y-71597676D01*
X143928571Y-71597676D02*
X143833333Y-71692914D01*
X143833333Y-71692914D02*
X143738095Y-71740533D01*
X144785714Y-72454819D02*
X144976190Y-72454819D01*
X144976190Y-72454819D02*
X145071428Y-72407200D01*
X145071428Y-72407200D02*
X145119047Y-72359580D01*
X145119047Y-72359580D02*
X145214285Y-72216723D01*
X145214285Y-72216723D02*
X145261904Y-72026247D01*
X145261904Y-72026247D02*
X145261904Y-71645295D01*
X145261904Y-71645295D02*
X145214285Y-71550057D01*
X145214285Y-71550057D02*
X145166666Y-71502438D01*
X145166666Y-71502438D02*
X145071428Y-71454819D01*
X145071428Y-71454819D02*
X144880952Y-71454819D01*
X144880952Y-71454819D02*
X144785714Y-71502438D01*
X144785714Y-71502438D02*
X144738095Y-71550057D01*
X144738095Y-71550057D02*
X144690476Y-71645295D01*
X144690476Y-71645295D02*
X144690476Y-71883390D01*
X144690476Y-71883390D02*
X144738095Y-71978628D01*
X144738095Y-71978628D02*
X144785714Y-72026247D01*
X144785714Y-72026247D02*
X144880952Y-72073866D01*
X144880952Y-72073866D02*
X145071428Y-72073866D01*
X145071428Y-72073866D02*
X145166666Y-72026247D01*
X145166666Y-72026247D02*
X145214285Y-71978628D01*
X145214285Y-71978628D02*
X145261904Y-71883390D01*
X140154761Y-98800057D02*
X140059523Y-98752438D01*
X140059523Y-98752438D02*
X139964285Y-98657200D01*
X139964285Y-98657200D02*
X139821428Y-98514342D01*
X139821428Y-98514342D02*
X139726190Y-98466723D01*
X139726190Y-98466723D02*
X139630952Y-98466723D01*
X139678571Y-98704819D02*
X139583333Y-98657200D01*
X139583333Y-98657200D02*
X139488095Y-98561961D01*
X139488095Y-98561961D02*
X139440476Y-98371485D01*
X139440476Y-98371485D02*
X139440476Y-98038152D01*
X139440476Y-98038152D02*
X139488095Y-97847676D01*
X139488095Y-97847676D02*
X139583333Y-97752438D01*
X139583333Y-97752438D02*
X139678571Y-97704819D01*
X139678571Y-97704819D02*
X139869047Y-97704819D01*
X139869047Y-97704819D02*
X139964285Y-97752438D01*
X139964285Y-97752438D02*
X140059523Y-97847676D01*
X140059523Y-97847676D02*
X140107142Y-98038152D01*
X140107142Y-98038152D02*
X140107142Y-98371485D01*
X140107142Y-98371485D02*
X140059523Y-98561961D01*
X140059523Y-98561961D02*
X139964285Y-98657200D01*
X139964285Y-98657200D02*
X139869047Y-98704819D01*
X139869047Y-98704819D02*
X139678571Y-98704819D01*
X140964285Y-97704819D02*
X140773809Y-97704819D01*
X140773809Y-97704819D02*
X140678571Y-97752438D01*
X140678571Y-97752438D02*
X140630952Y-97800057D01*
X140630952Y-97800057D02*
X140535714Y-97942914D01*
X140535714Y-97942914D02*
X140488095Y-98133390D01*
X140488095Y-98133390D02*
X140488095Y-98514342D01*
X140488095Y-98514342D02*
X140535714Y-98609580D01*
X140535714Y-98609580D02*
X140583333Y-98657200D01*
X140583333Y-98657200D02*
X140678571Y-98704819D01*
X140678571Y-98704819D02*
X140869047Y-98704819D01*
X140869047Y-98704819D02*
X140964285Y-98657200D01*
X140964285Y-98657200D02*
X141011904Y-98609580D01*
X141011904Y-98609580D02*
X141059523Y-98514342D01*
X141059523Y-98514342D02*
X141059523Y-98276247D01*
X141059523Y-98276247D02*
X141011904Y-98181009D01*
X141011904Y-98181009D02*
X140964285Y-98133390D01*
X140964285Y-98133390D02*
X140869047Y-98085771D01*
X140869047Y-98085771D02*
X140678571Y-98085771D01*
X140678571Y-98085771D02*
X140583333Y-98133390D01*
X140583333Y-98133390D02*
X140535714Y-98181009D01*
X140535714Y-98181009D02*
X140488095Y-98276247D01*
X107988095Y-92454819D02*
X107988095Y-93264342D01*
X107988095Y-93264342D02*
X108035714Y-93359580D01*
X108035714Y-93359580D02*
X108083333Y-93407200D01*
X108083333Y-93407200D02*
X108178571Y-93454819D01*
X108178571Y-93454819D02*
X108369047Y-93454819D01*
X108369047Y-93454819D02*
X108464285Y-93407200D01*
X108464285Y-93407200D02*
X108511904Y-93359580D01*
X108511904Y-93359580D02*
X108559523Y-93264342D01*
X108559523Y-93264342D02*
X108559523Y-92454819D01*
X109464285Y-92788152D02*
X109464285Y-93454819D01*
X109226190Y-92407200D02*
X108988095Y-93121485D01*
X108988095Y-93121485D02*
X109607142Y-93121485D01*
X157338333Y-93209580D02*
X157290714Y-93257200D01*
X157290714Y-93257200D02*
X157147857Y-93304819D01*
X157147857Y-93304819D02*
X157052619Y-93304819D01*
X157052619Y-93304819D02*
X156909762Y-93257200D01*
X156909762Y-93257200D02*
X156814524Y-93161961D01*
X156814524Y-93161961D02*
X156766905Y-93066723D01*
X156766905Y-93066723D02*
X156719286Y-92876247D01*
X156719286Y-92876247D02*
X156719286Y-92733390D01*
X156719286Y-92733390D02*
X156766905Y-92542914D01*
X156766905Y-92542914D02*
X156814524Y-92447676D01*
X156814524Y-92447676D02*
X156909762Y-92352438D01*
X156909762Y-92352438D02*
X157052619Y-92304819D01*
X157052619Y-92304819D02*
X157147857Y-92304819D01*
X157147857Y-92304819D02*
X157290714Y-92352438D01*
X157290714Y-92352438D02*
X157338333Y-92400057D01*
X158195476Y-92304819D02*
X158005000Y-92304819D01*
X158005000Y-92304819D02*
X157909762Y-92352438D01*
X157909762Y-92352438D02*
X157862143Y-92400057D01*
X157862143Y-92400057D02*
X157766905Y-92542914D01*
X157766905Y-92542914D02*
X157719286Y-92733390D01*
X157719286Y-92733390D02*
X157719286Y-93114342D01*
X157719286Y-93114342D02*
X157766905Y-93209580D01*
X157766905Y-93209580D02*
X157814524Y-93257200D01*
X157814524Y-93257200D02*
X157909762Y-93304819D01*
X157909762Y-93304819D02*
X158100238Y-93304819D01*
X158100238Y-93304819D02*
X158195476Y-93257200D01*
X158195476Y-93257200D02*
X158243095Y-93209580D01*
X158243095Y-93209580D02*
X158290714Y-93114342D01*
X158290714Y-93114342D02*
X158290714Y-92876247D01*
X158290714Y-92876247D02*
X158243095Y-92781009D01*
X158243095Y-92781009D02*
X158195476Y-92733390D01*
X158195476Y-92733390D02*
X158100238Y-92685771D01*
X158100238Y-92685771D02*
X157909762Y-92685771D01*
X157909762Y-92685771D02*
X157814524Y-92733390D01*
X157814524Y-92733390D02*
X157766905Y-92781009D01*
X157766905Y-92781009D02*
X157719286Y-92876247D01*
X165838333Y-125304819D02*
X165505000Y-124828628D01*
X165266905Y-125304819D02*
X165266905Y-124304819D01*
X165266905Y-124304819D02*
X165647857Y-124304819D01*
X165647857Y-124304819D02*
X165743095Y-124352438D01*
X165743095Y-124352438D02*
X165790714Y-124400057D01*
X165790714Y-124400057D02*
X165838333Y-124495295D01*
X165838333Y-124495295D02*
X165838333Y-124638152D01*
X165838333Y-124638152D02*
X165790714Y-124733390D01*
X165790714Y-124733390D02*
X165743095Y-124781009D01*
X165743095Y-124781009D02*
X165647857Y-124828628D01*
X165647857Y-124828628D02*
X165266905Y-124828628D01*
X166790714Y-125304819D02*
X166219286Y-125304819D01*
X166505000Y-125304819D02*
X166505000Y-124304819D01*
X166505000Y-124304819D02*
X166409762Y-124447676D01*
X166409762Y-124447676D02*
X166314524Y-124542914D01*
X166314524Y-124542914D02*
X166219286Y-124590533D01*
X118124819Y-109333333D02*
X118839104Y-109333333D01*
X118839104Y-109333333D02*
X118981961Y-109380952D01*
X118981961Y-109380952D02*
X119077200Y-109476190D01*
X119077200Y-109476190D02*
X119124819Y-109619047D01*
X119124819Y-109619047D02*
X119124819Y-109714285D01*
X118553390Y-108714285D02*
X118505771Y-108809523D01*
X118505771Y-108809523D02*
X118458152Y-108857142D01*
X118458152Y-108857142D02*
X118362914Y-108904761D01*
X118362914Y-108904761D02*
X118315295Y-108904761D01*
X118315295Y-108904761D02*
X118220057Y-108857142D01*
X118220057Y-108857142D02*
X118172438Y-108809523D01*
X118172438Y-108809523D02*
X118124819Y-108714285D01*
X118124819Y-108714285D02*
X118124819Y-108523809D01*
X118124819Y-108523809D02*
X118172438Y-108428571D01*
X118172438Y-108428571D02*
X118220057Y-108380952D01*
X118220057Y-108380952D02*
X118315295Y-108333333D01*
X118315295Y-108333333D02*
X118362914Y-108333333D01*
X118362914Y-108333333D02*
X118458152Y-108380952D01*
X118458152Y-108380952D02*
X118505771Y-108428571D01*
X118505771Y-108428571D02*
X118553390Y-108523809D01*
X118553390Y-108523809D02*
X118553390Y-108714285D01*
X118553390Y-108714285D02*
X118601009Y-108809523D01*
X118601009Y-108809523D02*
X118648628Y-108857142D01*
X118648628Y-108857142D02*
X118743866Y-108904761D01*
X118743866Y-108904761D02*
X118934342Y-108904761D01*
X118934342Y-108904761D02*
X119029580Y-108857142D01*
X119029580Y-108857142D02*
X119077200Y-108809523D01*
X119077200Y-108809523D02*
X119124819Y-108714285D01*
X119124819Y-108714285D02*
X119124819Y-108523809D01*
X119124819Y-108523809D02*
X119077200Y-108428571D01*
X119077200Y-108428571D02*
X119029580Y-108380952D01*
X119029580Y-108380952D02*
X118934342Y-108333333D01*
X118934342Y-108333333D02*
X118743866Y-108333333D01*
X118743866Y-108333333D02*
X118648628Y-108380952D01*
X118648628Y-108380952D02*
X118601009Y-108428571D01*
X118601009Y-108428571D02*
X118553390Y-108523809D01*
X149112142Y-118954819D02*
X148778809Y-118478628D01*
X148540714Y-118954819D02*
X148540714Y-117954819D01*
X148540714Y-117954819D02*
X148921666Y-117954819D01*
X148921666Y-117954819D02*
X149016904Y-118002438D01*
X149016904Y-118002438D02*
X149064523Y-118050057D01*
X149064523Y-118050057D02*
X149112142Y-118145295D01*
X149112142Y-118145295D02*
X149112142Y-118288152D01*
X149112142Y-118288152D02*
X149064523Y-118383390D01*
X149064523Y-118383390D02*
X149016904Y-118431009D01*
X149016904Y-118431009D02*
X148921666Y-118478628D01*
X148921666Y-118478628D02*
X148540714Y-118478628D01*
X149493095Y-118050057D02*
X149540714Y-118002438D01*
X149540714Y-118002438D02*
X149635952Y-117954819D01*
X149635952Y-117954819D02*
X149874047Y-117954819D01*
X149874047Y-117954819D02*
X149969285Y-118002438D01*
X149969285Y-118002438D02*
X150016904Y-118050057D01*
X150016904Y-118050057D02*
X150064523Y-118145295D01*
X150064523Y-118145295D02*
X150064523Y-118240533D01*
X150064523Y-118240533D02*
X150016904Y-118383390D01*
X150016904Y-118383390D02*
X149445476Y-118954819D01*
X149445476Y-118954819D02*
X150064523Y-118954819D01*
X150397857Y-117954819D02*
X151016904Y-117954819D01*
X151016904Y-117954819D02*
X150683571Y-118335771D01*
X150683571Y-118335771D02*
X150826428Y-118335771D01*
X150826428Y-118335771D02*
X150921666Y-118383390D01*
X150921666Y-118383390D02*
X150969285Y-118431009D01*
X150969285Y-118431009D02*
X151016904Y-118526247D01*
X151016904Y-118526247D02*
X151016904Y-118764342D01*
X151016904Y-118764342D02*
X150969285Y-118859580D01*
X150969285Y-118859580D02*
X150921666Y-118907200D01*
X150921666Y-118907200D02*
X150826428Y-118954819D01*
X150826428Y-118954819D02*
X150540714Y-118954819D01*
X150540714Y-118954819D02*
X150445476Y-118907200D01*
X150445476Y-118907200D02*
X150397857Y-118859580D01*
X104607142Y-89329819D02*
X104273809Y-88853628D01*
X104035714Y-89329819D02*
X104035714Y-88329819D01*
X104035714Y-88329819D02*
X104416666Y-88329819D01*
X104416666Y-88329819D02*
X104511904Y-88377438D01*
X104511904Y-88377438D02*
X104559523Y-88425057D01*
X104559523Y-88425057D02*
X104607142Y-88520295D01*
X104607142Y-88520295D02*
X104607142Y-88663152D01*
X104607142Y-88663152D02*
X104559523Y-88758390D01*
X104559523Y-88758390D02*
X104511904Y-88806009D01*
X104511904Y-88806009D02*
X104416666Y-88853628D01*
X104416666Y-88853628D02*
X104035714Y-88853628D01*
X104988095Y-88425057D02*
X105035714Y-88377438D01*
X105035714Y-88377438D02*
X105130952Y-88329819D01*
X105130952Y-88329819D02*
X105369047Y-88329819D01*
X105369047Y-88329819D02*
X105464285Y-88377438D01*
X105464285Y-88377438D02*
X105511904Y-88425057D01*
X105511904Y-88425057D02*
X105559523Y-88520295D01*
X105559523Y-88520295D02*
X105559523Y-88615533D01*
X105559523Y-88615533D02*
X105511904Y-88758390D01*
X105511904Y-88758390D02*
X104940476Y-89329819D01*
X104940476Y-89329819D02*
X105559523Y-89329819D01*
X106178571Y-88329819D02*
X106273809Y-88329819D01*
X106273809Y-88329819D02*
X106369047Y-88377438D01*
X106369047Y-88377438D02*
X106416666Y-88425057D01*
X106416666Y-88425057D02*
X106464285Y-88520295D01*
X106464285Y-88520295D02*
X106511904Y-88710771D01*
X106511904Y-88710771D02*
X106511904Y-88948866D01*
X106511904Y-88948866D02*
X106464285Y-89139342D01*
X106464285Y-89139342D02*
X106416666Y-89234580D01*
X106416666Y-89234580D02*
X106369047Y-89282200D01*
X106369047Y-89282200D02*
X106273809Y-89329819D01*
X106273809Y-89329819D02*
X106178571Y-89329819D01*
X106178571Y-89329819D02*
X106083333Y-89282200D01*
X106083333Y-89282200D02*
X106035714Y-89234580D01*
X106035714Y-89234580D02*
X105988095Y-89139342D01*
X105988095Y-89139342D02*
X105940476Y-88948866D01*
X105940476Y-88948866D02*
X105940476Y-88710771D01*
X105940476Y-88710771D02*
X105988095Y-88520295D01*
X105988095Y-88520295D02*
X106035714Y-88425057D01*
X106035714Y-88425057D02*
X106083333Y-88377438D01*
X106083333Y-88377438D02*
X106178571Y-88329819D01*
X128284819Y-98583333D02*
X128999104Y-98583333D01*
X128999104Y-98583333D02*
X129141961Y-98630952D01*
X129141961Y-98630952D02*
X129237200Y-98726190D01*
X129237200Y-98726190D02*
X129284819Y-98869047D01*
X129284819Y-98869047D02*
X129284819Y-98964285D01*
X128284819Y-98202380D02*
X128284819Y-97535714D01*
X128284819Y-97535714D02*
X129284819Y-97964285D01*
X163493095Y-106789819D02*
X163493095Y-107599342D01*
X163493095Y-107599342D02*
X163540714Y-107694580D01*
X163540714Y-107694580D02*
X163588333Y-107742200D01*
X163588333Y-107742200D02*
X163683571Y-107789819D01*
X163683571Y-107789819D02*
X163874047Y-107789819D01*
X163874047Y-107789819D02*
X163969285Y-107742200D01*
X163969285Y-107742200D02*
X164016904Y-107694580D01*
X164016904Y-107694580D02*
X164064523Y-107599342D01*
X164064523Y-107599342D02*
X164064523Y-106789819D01*
X164969285Y-106789819D02*
X164778809Y-106789819D01*
X164778809Y-106789819D02*
X164683571Y-106837438D01*
X164683571Y-106837438D02*
X164635952Y-106885057D01*
X164635952Y-106885057D02*
X164540714Y-107027914D01*
X164540714Y-107027914D02*
X164493095Y-107218390D01*
X164493095Y-107218390D02*
X164493095Y-107599342D01*
X164493095Y-107599342D02*
X164540714Y-107694580D01*
X164540714Y-107694580D02*
X164588333Y-107742200D01*
X164588333Y-107742200D02*
X164683571Y-107789819D01*
X164683571Y-107789819D02*
X164874047Y-107789819D01*
X164874047Y-107789819D02*
X164969285Y-107742200D01*
X164969285Y-107742200D02*
X165016904Y-107694580D01*
X165016904Y-107694580D02*
X165064523Y-107599342D01*
X165064523Y-107599342D02*
X165064523Y-107361247D01*
X165064523Y-107361247D02*
X165016904Y-107266009D01*
X165016904Y-107266009D02*
X164969285Y-107218390D01*
X164969285Y-107218390D02*
X164874047Y-107170771D01*
X164874047Y-107170771D02*
X164683571Y-107170771D01*
X164683571Y-107170771D02*
X164588333Y-107218390D01*
X164588333Y-107218390D02*
X164540714Y-107266009D01*
X164540714Y-107266009D02*
X164493095Y-107361247D01*
X88333333Y-97109580D02*
X88285714Y-97157200D01*
X88285714Y-97157200D02*
X88142857Y-97204819D01*
X88142857Y-97204819D02*
X88047619Y-97204819D01*
X88047619Y-97204819D02*
X87904762Y-97157200D01*
X87904762Y-97157200D02*
X87809524Y-97061961D01*
X87809524Y-97061961D02*
X87761905Y-96966723D01*
X87761905Y-96966723D02*
X87714286Y-96776247D01*
X87714286Y-96776247D02*
X87714286Y-96633390D01*
X87714286Y-96633390D02*
X87761905Y-96442914D01*
X87761905Y-96442914D02*
X87809524Y-96347676D01*
X87809524Y-96347676D02*
X87904762Y-96252438D01*
X87904762Y-96252438D02*
X88047619Y-96204819D01*
X88047619Y-96204819D02*
X88142857Y-96204819D01*
X88142857Y-96204819D02*
X88285714Y-96252438D01*
X88285714Y-96252438D02*
X88333333Y-96300057D01*
X88904762Y-96633390D02*
X88809524Y-96585771D01*
X88809524Y-96585771D02*
X88761905Y-96538152D01*
X88761905Y-96538152D02*
X88714286Y-96442914D01*
X88714286Y-96442914D02*
X88714286Y-96395295D01*
X88714286Y-96395295D02*
X88761905Y-96300057D01*
X88761905Y-96300057D02*
X88809524Y-96252438D01*
X88809524Y-96252438D02*
X88904762Y-96204819D01*
X88904762Y-96204819D02*
X89095238Y-96204819D01*
X89095238Y-96204819D02*
X89190476Y-96252438D01*
X89190476Y-96252438D02*
X89238095Y-96300057D01*
X89238095Y-96300057D02*
X89285714Y-96395295D01*
X89285714Y-96395295D02*
X89285714Y-96442914D01*
X89285714Y-96442914D02*
X89238095Y-96538152D01*
X89238095Y-96538152D02*
X89190476Y-96585771D01*
X89190476Y-96585771D02*
X89095238Y-96633390D01*
X89095238Y-96633390D02*
X88904762Y-96633390D01*
X88904762Y-96633390D02*
X88809524Y-96681009D01*
X88809524Y-96681009D02*
X88761905Y-96728628D01*
X88761905Y-96728628D02*
X88714286Y-96823866D01*
X88714286Y-96823866D02*
X88714286Y-97014342D01*
X88714286Y-97014342D02*
X88761905Y-97109580D01*
X88761905Y-97109580D02*
X88809524Y-97157200D01*
X88809524Y-97157200D02*
X88904762Y-97204819D01*
X88904762Y-97204819D02*
X89095238Y-97204819D01*
X89095238Y-97204819D02*
X89190476Y-97157200D01*
X89190476Y-97157200D02*
X89238095Y-97109580D01*
X89238095Y-97109580D02*
X89285714Y-97014342D01*
X89285714Y-97014342D02*
X89285714Y-96823866D01*
X89285714Y-96823866D02*
X89238095Y-96728628D01*
X89238095Y-96728628D02*
X89190476Y-96681009D01*
X89190476Y-96681009D02*
X89095238Y-96633390D01*
X144054819Y-89892857D02*
X143578628Y-90226190D01*
X144054819Y-90464285D02*
X143054819Y-90464285D01*
X143054819Y-90464285D02*
X143054819Y-90083333D01*
X143054819Y-90083333D02*
X143102438Y-89988095D01*
X143102438Y-89988095D02*
X143150057Y-89940476D01*
X143150057Y-89940476D02*
X143245295Y-89892857D01*
X143245295Y-89892857D02*
X143388152Y-89892857D01*
X143388152Y-89892857D02*
X143483390Y-89940476D01*
X143483390Y-89940476D02*
X143531009Y-89988095D01*
X143531009Y-89988095D02*
X143578628Y-90083333D01*
X143578628Y-90083333D02*
X143578628Y-90464285D01*
X143150057Y-89511904D02*
X143102438Y-89464285D01*
X143102438Y-89464285D02*
X143054819Y-89369047D01*
X143054819Y-89369047D02*
X143054819Y-89130952D01*
X143054819Y-89130952D02*
X143102438Y-89035714D01*
X143102438Y-89035714D02*
X143150057Y-88988095D01*
X143150057Y-88988095D02*
X143245295Y-88940476D01*
X143245295Y-88940476D02*
X143340533Y-88940476D01*
X143340533Y-88940476D02*
X143483390Y-88988095D01*
X143483390Y-88988095D02*
X144054819Y-89559523D01*
X144054819Y-89559523D02*
X144054819Y-88940476D01*
X143150057Y-88559523D02*
X143102438Y-88511904D01*
X143102438Y-88511904D02*
X143054819Y-88416666D01*
X143054819Y-88416666D02*
X143054819Y-88178571D01*
X143054819Y-88178571D02*
X143102438Y-88083333D01*
X143102438Y-88083333D02*
X143150057Y-88035714D01*
X143150057Y-88035714D02*
X143245295Y-87988095D01*
X143245295Y-87988095D02*
X143340533Y-87988095D01*
X143340533Y-87988095D02*
X143483390Y-88035714D01*
X143483390Y-88035714D02*
X144054819Y-88607142D01*
X144054819Y-88607142D02*
X144054819Y-87988095D01*
X139583333Y-95354819D02*
X139250000Y-94878628D01*
X139011905Y-95354819D02*
X139011905Y-94354819D01*
X139011905Y-94354819D02*
X139392857Y-94354819D01*
X139392857Y-94354819D02*
X139488095Y-94402438D01*
X139488095Y-94402438D02*
X139535714Y-94450057D01*
X139535714Y-94450057D02*
X139583333Y-94545295D01*
X139583333Y-94545295D02*
X139583333Y-94688152D01*
X139583333Y-94688152D02*
X139535714Y-94783390D01*
X139535714Y-94783390D02*
X139488095Y-94831009D01*
X139488095Y-94831009D02*
X139392857Y-94878628D01*
X139392857Y-94878628D02*
X139011905Y-94878628D01*
X139916667Y-94354819D02*
X140535714Y-94354819D01*
X140535714Y-94354819D02*
X140202381Y-94735771D01*
X140202381Y-94735771D02*
X140345238Y-94735771D01*
X140345238Y-94735771D02*
X140440476Y-94783390D01*
X140440476Y-94783390D02*
X140488095Y-94831009D01*
X140488095Y-94831009D02*
X140535714Y-94926247D01*
X140535714Y-94926247D02*
X140535714Y-95164342D01*
X140535714Y-95164342D02*
X140488095Y-95259580D01*
X140488095Y-95259580D02*
X140440476Y-95307200D01*
X140440476Y-95307200D02*
X140345238Y-95354819D01*
X140345238Y-95354819D02*
X140059524Y-95354819D01*
X140059524Y-95354819D02*
X139964286Y-95307200D01*
X139964286Y-95307200D02*
X139916667Y-95259580D01*
X129174700Y-121965832D02*
X129222319Y-121822975D01*
X129222319Y-121822975D02*
X129222319Y-121584880D01*
X129222319Y-121584880D02*
X129174700Y-121489642D01*
X129174700Y-121489642D02*
X129127080Y-121442023D01*
X129127080Y-121442023D02*
X129031842Y-121394404D01*
X129031842Y-121394404D02*
X128936604Y-121394404D01*
X128936604Y-121394404D02*
X128841366Y-121442023D01*
X128841366Y-121442023D02*
X128793747Y-121489642D01*
X128793747Y-121489642D02*
X128746128Y-121584880D01*
X128746128Y-121584880D02*
X128698509Y-121775356D01*
X128698509Y-121775356D02*
X128650890Y-121870594D01*
X128650890Y-121870594D02*
X128603271Y-121918213D01*
X128603271Y-121918213D02*
X128508033Y-121965832D01*
X128508033Y-121965832D02*
X128412795Y-121965832D01*
X128412795Y-121965832D02*
X128317557Y-121918213D01*
X128317557Y-121918213D02*
X128269938Y-121870594D01*
X128269938Y-121870594D02*
X128222319Y-121775356D01*
X128222319Y-121775356D02*
X128222319Y-121537261D01*
X128222319Y-121537261D02*
X128269938Y-121394404D01*
X128222319Y-121061070D02*
X129222319Y-120822975D01*
X129222319Y-120822975D02*
X128508033Y-120632499D01*
X128508033Y-120632499D02*
X129222319Y-120442023D01*
X129222319Y-120442023D02*
X128222319Y-120203928D01*
X129222319Y-119299166D02*
X129222319Y-119870594D01*
X129222319Y-119584880D02*
X128222319Y-119584880D01*
X128222319Y-119584880D02*
X128365176Y-119680118D01*
X128365176Y-119680118D02*
X128460414Y-119775356D01*
X128460414Y-119775356D02*
X128508033Y-119870594D01*
X104166666Y-74869819D02*
X104166666Y-75584104D01*
X104166666Y-75584104D02*
X104119047Y-75726961D01*
X104119047Y-75726961D02*
X104023809Y-75822200D01*
X104023809Y-75822200D02*
X103880952Y-75869819D01*
X103880952Y-75869819D02*
X103785714Y-75869819D01*
X105071428Y-74869819D02*
X104880952Y-74869819D01*
X104880952Y-74869819D02*
X104785714Y-74917438D01*
X104785714Y-74917438D02*
X104738095Y-74965057D01*
X104738095Y-74965057D02*
X104642857Y-75107914D01*
X104642857Y-75107914D02*
X104595238Y-75298390D01*
X104595238Y-75298390D02*
X104595238Y-75679342D01*
X104595238Y-75679342D02*
X104642857Y-75774580D01*
X104642857Y-75774580D02*
X104690476Y-75822200D01*
X104690476Y-75822200D02*
X104785714Y-75869819D01*
X104785714Y-75869819D02*
X104976190Y-75869819D01*
X104976190Y-75869819D02*
X105071428Y-75822200D01*
X105071428Y-75822200D02*
X105119047Y-75774580D01*
X105119047Y-75774580D02*
X105166666Y-75679342D01*
X105166666Y-75679342D02*
X105166666Y-75441247D01*
X105166666Y-75441247D02*
X105119047Y-75346009D01*
X105119047Y-75346009D02*
X105071428Y-75298390D01*
X105071428Y-75298390D02*
X104976190Y-75250771D01*
X104976190Y-75250771D02*
X104785714Y-75250771D01*
X104785714Y-75250771D02*
X104690476Y-75298390D01*
X104690476Y-75298390D02*
X104642857Y-75346009D01*
X104642857Y-75346009D02*
X104595238Y-75441247D01*
X147493095Y-104304819D02*
X147493095Y-105114342D01*
X147493095Y-105114342D02*
X147540714Y-105209580D01*
X147540714Y-105209580D02*
X147588333Y-105257200D01*
X147588333Y-105257200D02*
X147683571Y-105304819D01*
X147683571Y-105304819D02*
X147874047Y-105304819D01*
X147874047Y-105304819D02*
X147969285Y-105257200D01*
X147969285Y-105257200D02*
X148016904Y-105209580D01*
X148016904Y-105209580D02*
X148064523Y-105114342D01*
X148064523Y-105114342D02*
X148064523Y-104304819D01*
X149016904Y-104304819D02*
X148540714Y-104304819D01*
X148540714Y-104304819D02*
X148493095Y-104781009D01*
X148493095Y-104781009D02*
X148540714Y-104733390D01*
X148540714Y-104733390D02*
X148635952Y-104685771D01*
X148635952Y-104685771D02*
X148874047Y-104685771D01*
X148874047Y-104685771D02*
X148969285Y-104733390D01*
X148969285Y-104733390D02*
X149016904Y-104781009D01*
X149016904Y-104781009D02*
X149064523Y-104876247D01*
X149064523Y-104876247D02*
X149064523Y-105114342D01*
X149064523Y-105114342D02*
X149016904Y-105209580D01*
X149016904Y-105209580D02*
X148969285Y-105257200D01*
X148969285Y-105257200D02*
X148874047Y-105304819D01*
X148874047Y-105304819D02*
X148635952Y-105304819D01*
X148635952Y-105304819D02*
X148540714Y-105257200D01*
X148540714Y-105257200D02*
X148493095Y-105209580D01*
X128289819Y-87433333D02*
X129004104Y-87433333D01*
X129004104Y-87433333D02*
X129146961Y-87480952D01*
X129146961Y-87480952D02*
X129242200Y-87576190D01*
X129242200Y-87576190D02*
X129289819Y-87719047D01*
X129289819Y-87719047D02*
X129289819Y-87814285D01*
X128289819Y-87052380D02*
X128289819Y-86433333D01*
X128289819Y-86433333D02*
X128670771Y-86766666D01*
X128670771Y-86766666D02*
X128670771Y-86623809D01*
X128670771Y-86623809D02*
X128718390Y-86528571D01*
X128718390Y-86528571D02*
X128766009Y-86480952D01*
X128766009Y-86480952D02*
X128861247Y-86433333D01*
X128861247Y-86433333D02*
X129099342Y-86433333D01*
X129099342Y-86433333D02*
X129194580Y-86480952D01*
X129194580Y-86480952D02*
X129242200Y-86528571D01*
X129242200Y-86528571D02*
X129289819Y-86623809D01*
X129289819Y-86623809D02*
X129289819Y-86909523D01*
X129289819Y-86909523D02*
X129242200Y-87004761D01*
X129242200Y-87004761D02*
X129194580Y-87052380D01*
X92772142Y-101749819D02*
X92438809Y-101273628D01*
X92200714Y-101749819D02*
X92200714Y-100749819D01*
X92200714Y-100749819D02*
X92581666Y-100749819D01*
X92581666Y-100749819D02*
X92676904Y-100797438D01*
X92676904Y-100797438D02*
X92724523Y-100845057D01*
X92724523Y-100845057D02*
X92772142Y-100940295D01*
X92772142Y-100940295D02*
X92772142Y-101083152D01*
X92772142Y-101083152D02*
X92724523Y-101178390D01*
X92724523Y-101178390D02*
X92676904Y-101226009D01*
X92676904Y-101226009D02*
X92581666Y-101273628D01*
X92581666Y-101273628D02*
X92200714Y-101273628D01*
X93153095Y-100845057D02*
X93200714Y-100797438D01*
X93200714Y-100797438D02*
X93295952Y-100749819D01*
X93295952Y-100749819D02*
X93534047Y-100749819D01*
X93534047Y-100749819D02*
X93629285Y-100797438D01*
X93629285Y-100797438D02*
X93676904Y-100845057D01*
X93676904Y-100845057D02*
X93724523Y-100940295D01*
X93724523Y-100940295D02*
X93724523Y-101035533D01*
X93724523Y-101035533D02*
X93676904Y-101178390D01*
X93676904Y-101178390D02*
X93105476Y-101749819D01*
X93105476Y-101749819D02*
X93724523Y-101749819D01*
X94581666Y-100749819D02*
X94391190Y-100749819D01*
X94391190Y-100749819D02*
X94295952Y-100797438D01*
X94295952Y-100797438D02*
X94248333Y-100845057D01*
X94248333Y-100845057D02*
X94153095Y-100987914D01*
X94153095Y-100987914D02*
X94105476Y-101178390D01*
X94105476Y-101178390D02*
X94105476Y-101559342D01*
X94105476Y-101559342D02*
X94153095Y-101654580D01*
X94153095Y-101654580D02*
X94200714Y-101702200D01*
X94200714Y-101702200D02*
X94295952Y-101749819D01*
X94295952Y-101749819D02*
X94486428Y-101749819D01*
X94486428Y-101749819D02*
X94581666Y-101702200D01*
X94581666Y-101702200D02*
X94629285Y-101654580D01*
X94629285Y-101654580D02*
X94676904Y-101559342D01*
X94676904Y-101559342D02*
X94676904Y-101321247D01*
X94676904Y-101321247D02*
X94629285Y-101226009D01*
X94629285Y-101226009D02*
X94581666Y-101178390D01*
X94581666Y-101178390D02*
X94486428Y-101130771D01*
X94486428Y-101130771D02*
X94295952Y-101130771D01*
X94295952Y-101130771D02*
X94200714Y-101178390D01*
X94200714Y-101178390D02*
X94153095Y-101226009D01*
X94153095Y-101226009D02*
X94105476Y-101321247D01*
X118039819Y-120833333D02*
X118754104Y-120833333D01*
X118754104Y-120833333D02*
X118896961Y-120880952D01*
X118896961Y-120880952D02*
X118992200Y-120976190D01*
X118992200Y-120976190D02*
X119039819Y-121119047D01*
X119039819Y-121119047D02*
X119039819Y-121214285D01*
X119039819Y-120309523D02*
X119039819Y-120119047D01*
X119039819Y-120119047D02*
X118992200Y-120023809D01*
X118992200Y-120023809D02*
X118944580Y-119976190D01*
X118944580Y-119976190D02*
X118801723Y-119880952D01*
X118801723Y-119880952D02*
X118611247Y-119833333D01*
X118611247Y-119833333D02*
X118230295Y-119833333D01*
X118230295Y-119833333D02*
X118135057Y-119880952D01*
X118135057Y-119880952D02*
X118087438Y-119928571D01*
X118087438Y-119928571D02*
X118039819Y-120023809D01*
X118039819Y-120023809D02*
X118039819Y-120214285D01*
X118039819Y-120214285D02*
X118087438Y-120309523D01*
X118087438Y-120309523D02*
X118135057Y-120357142D01*
X118135057Y-120357142D02*
X118230295Y-120404761D01*
X118230295Y-120404761D02*
X118468390Y-120404761D01*
X118468390Y-120404761D02*
X118563628Y-120357142D01*
X118563628Y-120357142D02*
X118611247Y-120309523D01*
X118611247Y-120309523D02*
X118658866Y-120214285D01*
X118658866Y-120214285D02*
X118658866Y-120023809D01*
X118658866Y-120023809D02*
X118611247Y-119928571D01*
X118611247Y-119928571D02*
X118563628Y-119880952D01*
X118563628Y-119880952D02*
X118468390Y-119833333D01*
X147338333Y-93209580D02*
X147290714Y-93257200D01*
X147290714Y-93257200D02*
X147147857Y-93304819D01*
X147147857Y-93304819D02*
X147052619Y-93304819D01*
X147052619Y-93304819D02*
X146909762Y-93257200D01*
X146909762Y-93257200D02*
X146814524Y-93161961D01*
X146814524Y-93161961D02*
X146766905Y-93066723D01*
X146766905Y-93066723D02*
X146719286Y-92876247D01*
X146719286Y-92876247D02*
X146719286Y-92733390D01*
X146719286Y-92733390D02*
X146766905Y-92542914D01*
X146766905Y-92542914D02*
X146814524Y-92447676D01*
X146814524Y-92447676D02*
X146909762Y-92352438D01*
X146909762Y-92352438D02*
X147052619Y-92304819D01*
X147052619Y-92304819D02*
X147147857Y-92304819D01*
X147147857Y-92304819D02*
X147290714Y-92352438D01*
X147290714Y-92352438D02*
X147338333Y-92400057D01*
X148243095Y-92304819D02*
X147766905Y-92304819D01*
X147766905Y-92304819D02*
X147719286Y-92781009D01*
X147719286Y-92781009D02*
X147766905Y-92733390D01*
X147766905Y-92733390D02*
X147862143Y-92685771D01*
X147862143Y-92685771D02*
X148100238Y-92685771D01*
X148100238Y-92685771D02*
X148195476Y-92733390D01*
X148195476Y-92733390D02*
X148243095Y-92781009D01*
X148243095Y-92781009D02*
X148290714Y-92876247D01*
X148290714Y-92876247D02*
X148290714Y-93114342D01*
X148290714Y-93114342D02*
X148243095Y-93209580D01*
X148243095Y-93209580D02*
X148195476Y-93257200D01*
X148195476Y-93257200D02*
X148100238Y-93304819D01*
X148100238Y-93304819D02*
X147862143Y-93304819D01*
X147862143Y-93304819D02*
X147766905Y-93257200D01*
X147766905Y-93257200D02*
X147719286Y-93209580D01*
X145588333Y-123054819D02*
X145255000Y-122578628D01*
X145016905Y-123054819D02*
X145016905Y-122054819D01*
X145016905Y-122054819D02*
X145397857Y-122054819D01*
X145397857Y-122054819D02*
X145493095Y-122102438D01*
X145493095Y-122102438D02*
X145540714Y-122150057D01*
X145540714Y-122150057D02*
X145588333Y-122245295D01*
X145588333Y-122245295D02*
X145588333Y-122388152D01*
X145588333Y-122388152D02*
X145540714Y-122483390D01*
X145540714Y-122483390D02*
X145493095Y-122531009D01*
X145493095Y-122531009D02*
X145397857Y-122578628D01*
X145397857Y-122578628D02*
X145016905Y-122578628D01*
X145921667Y-122054819D02*
X146588333Y-122054819D01*
X146588333Y-122054819D02*
X146159762Y-123054819D01*
X89357142Y-84829819D02*
X89023809Y-84353628D01*
X88785714Y-84829819D02*
X88785714Y-83829819D01*
X88785714Y-83829819D02*
X89166666Y-83829819D01*
X89166666Y-83829819D02*
X89261904Y-83877438D01*
X89261904Y-83877438D02*
X89309523Y-83925057D01*
X89309523Y-83925057D02*
X89357142Y-84020295D01*
X89357142Y-84020295D02*
X89357142Y-84163152D01*
X89357142Y-84163152D02*
X89309523Y-84258390D01*
X89309523Y-84258390D02*
X89261904Y-84306009D01*
X89261904Y-84306009D02*
X89166666Y-84353628D01*
X89166666Y-84353628D02*
X88785714Y-84353628D01*
X89738095Y-83925057D02*
X89785714Y-83877438D01*
X89785714Y-83877438D02*
X89880952Y-83829819D01*
X89880952Y-83829819D02*
X90119047Y-83829819D01*
X90119047Y-83829819D02*
X90214285Y-83877438D01*
X90214285Y-83877438D02*
X90261904Y-83925057D01*
X90261904Y-83925057D02*
X90309523Y-84020295D01*
X90309523Y-84020295D02*
X90309523Y-84115533D01*
X90309523Y-84115533D02*
X90261904Y-84258390D01*
X90261904Y-84258390D02*
X89690476Y-84829819D01*
X89690476Y-84829819D02*
X90309523Y-84829819D01*
X91261904Y-84829819D02*
X90690476Y-84829819D01*
X90976190Y-84829819D02*
X90976190Y-83829819D01*
X90976190Y-83829819D02*
X90880952Y-83972676D01*
X90880952Y-83972676D02*
X90785714Y-84067914D01*
X90785714Y-84067914D02*
X90690476Y-84115533D01*
X86904761Y-110300057D02*
X86809523Y-110252438D01*
X86809523Y-110252438D02*
X86714285Y-110157200D01*
X86714285Y-110157200D02*
X86571428Y-110014342D01*
X86571428Y-110014342D02*
X86476190Y-109966723D01*
X86476190Y-109966723D02*
X86380952Y-109966723D01*
X86428571Y-110204819D02*
X86333333Y-110157200D01*
X86333333Y-110157200D02*
X86238095Y-110061961D01*
X86238095Y-110061961D02*
X86190476Y-109871485D01*
X86190476Y-109871485D02*
X86190476Y-109538152D01*
X86190476Y-109538152D02*
X86238095Y-109347676D01*
X86238095Y-109347676D02*
X86333333Y-109252438D01*
X86333333Y-109252438D02*
X86428571Y-109204819D01*
X86428571Y-109204819D02*
X86619047Y-109204819D01*
X86619047Y-109204819D02*
X86714285Y-109252438D01*
X86714285Y-109252438D02*
X86809523Y-109347676D01*
X86809523Y-109347676D02*
X86857142Y-109538152D01*
X86857142Y-109538152D02*
X86857142Y-109871485D01*
X86857142Y-109871485D02*
X86809523Y-110061961D01*
X86809523Y-110061961D02*
X86714285Y-110157200D01*
X86714285Y-110157200D02*
X86619047Y-110204819D01*
X86619047Y-110204819D02*
X86428571Y-110204819D01*
X87190476Y-109204819D02*
X87809523Y-109204819D01*
X87809523Y-109204819D02*
X87476190Y-109585771D01*
X87476190Y-109585771D02*
X87619047Y-109585771D01*
X87619047Y-109585771D02*
X87714285Y-109633390D01*
X87714285Y-109633390D02*
X87761904Y-109681009D01*
X87761904Y-109681009D02*
X87809523Y-109776247D01*
X87809523Y-109776247D02*
X87809523Y-110014342D01*
X87809523Y-110014342D02*
X87761904Y-110109580D01*
X87761904Y-110109580D02*
X87714285Y-110157200D01*
X87714285Y-110157200D02*
X87619047Y-110204819D01*
X87619047Y-110204819D02*
X87333333Y-110204819D01*
X87333333Y-110204819D02*
X87238095Y-110157200D01*
X87238095Y-110157200D02*
X87190476Y-110109580D01*
X88857142Y-110204819D02*
X88523809Y-109728628D01*
X88285714Y-110204819D02*
X88285714Y-109204819D01*
X88285714Y-109204819D02*
X88666666Y-109204819D01*
X88666666Y-109204819D02*
X88761904Y-109252438D01*
X88761904Y-109252438D02*
X88809523Y-109300057D01*
X88809523Y-109300057D02*
X88857142Y-109395295D01*
X88857142Y-109395295D02*
X88857142Y-109538152D01*
X88857142Y-109538152D02*
X88809523Y-109633390D01*
X88809523Y-109633390D02*
X88761904Y-109681009D01*
X88761904Y-109681009D02*
X88666666Y-109728628D01*
X88666666Y-109728628D02*
X88285714Y-109728628D01*
X89238095Y-109300057D02*
X89285714Y-109252438D01*
X89285714Y-109252438D02*
X89380952Y-109204819D01*
X89380952Y-109204819D02*
X89619047Y-109204819D01*
X89619047Y-109204819D02*
X89714285Y-109252438D01*
X89714285Y-109252438D02*
X89761904Y-109300057D01*
X89761904Y-109300057D02*
X89809523Y-109395295D01*
X89809523Y-109395295D02*
X89809523Y-109490533D01*
X89809523Y-109490533D02*
X89761904Y-109633390D01*
X89761904Y-109633390D02*
X89190476Y-110204819D01*
X89190476Y-110204819D02*
X89809523Y-110204819D01*
X90142857Y-109204819D02*
X90809523Y-109204819D01*
X90809523Y-109204819D02*
X90380952Y-110204819D01*
X145583333Y-125359580D02*
X145535714Y-125407200D01*
X145535714Y-125407200D02*
X145392857Y-125454819D01*
X145392857Y-125454819D02*
X145297619Y-125454819D01*
X145297619Y-125454819D02*
X145154762Y-125407200D01*
X145154762Y-125407200D02*
X145059524Y-125311961D01*
X145059524Y-125311961D02*
X145011905Y-125216723D01*
X145011905Y-125216723D02*
X144964286Y-125026247D01*
X144964286Y-125026247D02*
X144964286Y-124883390D01*
X144964286Y-124883390D02*
X145011905Y-124692914D01*
X145011905Y-124692914D02*
X145059524Y-124597676D01*
X145059524Y-124597676D02*
X145154762Y-124502438D01*
X145154762Y-124502438D02*
X145297619Y-124454819D01*
X145297619Y-124454819D02*
X145392857Y-124454819D01*
X145392857Y-124454819D02*
X145535714Y-124502438D01*
X145535714Y-124502438D02*
X145583333Y-124550057D01*
X145964286Y-124550057D02*
X146011905Y-124502438D01*
X146011905Y-124502438D02*
X146107143Y-124454819D01*
X146107143Y-124454819D02*
X146345238Y-124454819D01*
X146345238Y-124454819D02*
X146440476Y-124502438D01*
X146440476Y-124502438D02*
X146488095Y-124550057D01*
X146488095Y-124550057D02*
X146535714Y-124645295D01*
X146535714Y-124645295D02*
X146535714Y-124740533D01*
X146535714Y-124740533D02*
X146488095Y-124883390D01*
X146488095Y-124883390D02*
X145916667Y-125454819D01*
X145916667Y-125454819D02*
X146535714Y-125454819D01*
X165838333Y-126679580D02*
X165790714Y-126727200D01*
X165790714Y-126727200D02*
X165647857Y-126774819D01*
X165647857Y-126774819D02*
X165552619Y-126774819D01*
X165552619Y-126774819D02*
X165409762Y-126727200D01*
X165409762Y-126727200D02*
X165314524Y-126631961D01*
X165314524Y-126631961D02*
X165266905Y-126536723D01*
X165266905Y-126536723D02*
X165219286Y-126346247D01*
X165219286Y-126346247D02*
X165219286Y-126203390D01*
X165219286Y-126203390D02*
X165266905Y-126012914D01*
X165266905Y-126012914D02*
X165314524Y-125917676D01*
X165314524Y-125917676D02*
X165409762Y-125822438D01*
X165409762Y-125822438D02*
X165552619Y-125774819D01*
X165552619Y-125774819D02*
X165647857Y-125774819D01*
X165647857Y-125774819D02*
X165790714Y-125822438D01*
X165790714Y-125822438D02*
X165838333Y-125870057D01*
X166790714Y-126774819D02*
X166219286Y-126774819D01*
X166505000Y-126774819D02*
X166505000Y-125774819D01*
X166505000Y-125774819D02*
X166409762Y-125917676D01*
X166409762Y-125917676D02*
X166314524Y-126012914D01*
X166314524Y-126012914D02*
X166219286Y-126060533D01*
X166338333Y-114959580D02*
X166290714Y-115007200D01*
X166290714Y-115007200D02*
X166147857Y-115054819D01*
X166147857Y-115054819D02*
X166052619Y-115054819D01*
X166052619Y-115054819D02*
X165909762Y-115007200D01*
X165909762Y-115007200D02*
X165814524Y-114911961D01*
X165814524Y-114911961D02*
X165766905Y-114816723D01*
X165766905Y-114816723D02*
X165719286Y-114626247D01*
X165719286Y-114626247D02*
X165719286Y-114483390D01*
X165719286Y-114483390D02*
X165766905Y-114292914D01*
X165766905Y-114292914D02*
X165814524Y-114197676D01*
X165814524Y-114197676D02*
X165909762Y-114102438D01*
X165909762Y-114102438D02*
X166052619Y-114054819D01*
X166052619Y-114054819D02*
X166147857Y-114054819D01*
X166147857Y-114054819D02*
X166290714Y-114102438D01*
X166290714Y-114102438D02*
X166338333Y-114150057D01*
X166814524Y-115054819D02*
X167005000Y-115054819D01*
X167005000Y-115054819D02*
X167100238Y-115007200D01*
X167100238Y-115007200D02*
X167147857Y-114959580D01*
X167147857Y-114959580D02*
X167243095Y-114816723D01*
X167243095Y-114816723D02*
X167290714Y-114626247D01*
X167290714Y-114626247D02*
X167290714Y-114245295D01*
X167290714Y-114245295D02*
X167243095Y-114150057D01*
X167243095Y-114150057D02*
X167195476Y-114102438D01*
X167195476Y-114102438D02*
X167100238Y-114054819D01*
X167100238Y-114054819D02*
X166909762Y-114054819D01*
X166909762Y-114054819D02*
X166814524Y-114102438D01*
X166814524Y-114102438D02*
X166766905Y-114150057D01*
X166766905Y-114150057D02*
X166719286Y-114245295D01*
X166719286Y-114245295D02*
X166719286Y-114483390D01*
X166719286Y-114483390D02*
X166766905Y-114578628D01*
X166766905Y-114578628D02*
X166814524Y-114626247D01*
X166814524Y-114626247D02*
X166909762Y-114673866D01*
X166909762Y-114673866D02*
X167100238Y-114673866D01*
X167100238Y-114673866D02*
X167195476Y-114626247D01*
X167195476Y-114626247D02*
X167243095Y-114578628D01*
X167243095Y-114578628D02*
X167290714Y-114483390D01*
X107988095Y-102704819D02*
X107988095Y-103514342D01*
X107988095Y-103514342D02*
X108035714Y-103609580D01*
X108035714Y-103609580D02*
X108083333Y-103657200D01*
X108083333Y-103657200D02*
X108178571Y-103704819D01*
X108178571Y-103704819D02*
X108369047Y-103704819D01*
X108369047Y-103704819D02*
X108464285Y-103657200D01*
X108464285Y-103657200D02*
X108511904Y-103609580D01*
X108511904Y-103609580D02*
X108559523Y-103514342D01*
X108559523Y-103514342D02*
X108559523Y-102704819D01*
X108940476Y-102704819D02*
X109559523Y-102704819D01*
X109559523Y-102704819D02*
X109226190Y-103085771D01*
X109226190Y-103085771D02*
X109369047Y-103085771D01*
X109369047Y-103085771D02*
X109464285Y-103133390D01*
X109464285Y-103133390D02*
X109511904Y-103181009D01*
X109511904Y-103181009D02*
X109559523Y-103276247D01*
X109559523Y-103276247D02*
X109559523Y-103514342D01*
X109559523Y-103514342D02*
X109511904Y-103609580D01*
X109511904Y-103609580D02*
X109464285Y-103657200D01*
X109464285Y-103657200D02*
X109369047Y-103704819D01*
X109369047Y-103704819D02*
X109083333Y-103704819D01*
X109083333Y-103704819D02*
X108988095Y-103657200D01*
X108988095Y-103657200D02*
X108940476Y-103609580D01*
X145607142Y-124204819D02*
X145273809Y-123728628D01*
X145035714Y-124204819D02*
X145035714Y-123204819D01*
X145035714Y-123204819D02*
X145416666Y-123204819D01*
X145416666Y-123204819D02*
X145511904Y-123252438D01*
X145511904Y-123252438D02*
X145559523Y-123300057D01*
X145559523Y-123300057D02*
X145607142Y-123395295D01*
X145607142Y-123395295D02*
X145607142Y-123538152D01*
X145607142Y-123538152D02*
X145559523Y-123633390D01*
X145559523Y-123633390D02*
X145511904Y-123681009D01*
X145511904Y-123681009D02*
X145416666Y-123728628D01*
X145416666Y-123728628D02*
X145035714Y-123728628D01*
X145988095Y-123300057D02*
X146035714Y-123252438D01*
X146035714Y-123252438D02*
X146130952Y-123204819D01*
X146130952Y-123204819D02*
X146369047Y-123204819D01*
X146369047Y-123204819D02*
X146464285Y-123252438D01*
X146464285Y-123252438D02*
X146511904Y-123300057D01*
X146511904Y-123300057D02*
X146559523Y-123395295D01*
X146559523Y-123395295D02*
X146559523Y-123490533D01*
X146559523Y-123490533D02*
X146511904Y-123633390D01*
X146511904Y-123633390D02*
X145940476Y-124204819D01*
X145940476Y-124204819D02*
X146559523Y-124204819D01*
X147416666Y-123538152D02*
X147416666Y-124204819D01*
X147178571Y-123157200D02*
X146940476Y-123871485D01*
X146940476Y-123871485D02*
X147559523Y-123871485D01*
X175919819Y-120683333D02*
X176634104Y-120683333D01*
X176634104Y-120683333D02*
X176776961Y-120730952D01*
X176776961Y-120730952D02*
X176872200Y-120826190D01*
X176872200Y-120826190D02*
X176919819Y-120969047D01*
X176919819Y-120969047D02*
X176919819Y-121064285D01*
X176253152Y-119778571D02*
X176919819Y-119778571D01*
X175872200Y-120016666D02*
X176586485Y-120254761D01*
X176586485Y-120254761D02*
X176586485Y-119635714D01*
X146743095Y-93554819D02*
X146743095Y-94364342D01*
X146743095Y-94364342D02*
X146790714Y-94459580D01*
X146790714Y-94459580D02*
X146838333Y-94507200D01*
X146838333Y-94507200D02*
X146933571Y-94554819D01*
X146933571Y-94554819D02*
X147124047Y-94554819D01*
X147124047Y-94554819D02*
X147219285Y-94507200D01*
X147219285Y-94507200D02*
X147266904Y-94459580D01*
X147266904Y-94459580D02*
X147314523Y-94364342D01*
X147314523Y-94364342D02*
X147314523Y-93554819D01*
X148314523Y-94554819D02*
X147743095Y-94554819D01*
X148028809Y-94554819D02*
X148028809Y-93554819D01*
X148028809Y-93554819D02*
X147933571Y-93697676D01*
X147933571Y-93697676D02*
X147838333Y-93792914D01*
X147838333Y-93792914D02*
X147743095Y-93840533D01*
X139204642Y-101322319D02*
X138871309Y-100846128D01*
X138633214Y-101322319D02*
X138633214Y-100322319D01*
X138633214Y-100322319D02*
X139014166Y-100322319D01*
X139014166Y-100322319D02*
X139109404Y-100369938D01*
X139109404Y-100369938D02*
X139157023Y-100417557D01*
X139157023Y-100417557D02*
X139204642Y-100512795D01*
X139204642Y-100512795D02*
X139204642Y-100655652D01*
X139204642Y-100655652D02*
X139157023Y-100750890D01*
X139157023Y-100750890D02*
X139109404Y-100798509D01*
X139109404Y-100798509D02*
X139014166Y-100846128D01*
X139014166Y-100846128D02*
X138633214Y-100846128D01*
X139585595Y-100417557D02*
X139633214Y-100369938D01*
X139633214Y-100369938D02*
X139728452Y-100322319D01*
X139728452Y-100322319D02*
X139966547Y-100322319D01*
X139966547Y-100322319D02*
X140061785Y-100369938D01*
X140061785Y-100369938D02*
X140109404Y-100417557D01*
X140109404Y-100417557D02*
X140157023Y-100512795D01*
X140157023Y-100512795D02*
X140157023Y-100608033D01*
X140157023Y-100608033D02*
X140109404Y-100750890D01*
X140109404Y-100750890D02*
X139537976Y-101322319D01*
X139537976Y-101322319D02*
X140157023Y-101322319D01*
X141061785Y-100322319D02*
X140585595Y-100322319D01*
X140585595Y-100322319D02*
X140537976Y-100798509D01*
X140537976Y-100798509D02*
X140585595Y-100750890D01*
X140585595Y-100750890D02*
X140680833Y-100703271D01*
X140680833Y-100703271D02*
X140918928Y-100703271D01*
X140918928Y-100703271D02*
X141014166Y-100750890D01*
X141014166Y-100750890D02*
X141061785Y-100798509D01*
X141061785Y-100798509D02*
X141109404Y-100893747D01*
X141109404Y-100893747D02*
X141109404Y-101131842D01*
X141109404Y-101131842D02*
X141061785Y-101227080D01*
X141061785Y-101227080D02*
X141014166Y-101274700D01*
X141014166Y-101274700D02*
X140918928Y-101322319D01*
X140918928Y-101322319D02*
X140680833Y-101322319D01*
X140680833Y-101322319D02*
X140585595Y-101274700D01*
X140585595Y-101274700D02*
X140537976Y-101227080D01*
X89909524Y-87237295D02*
X89909524Y-86437295D01*
X89909524Y-86437295D02*
X90100000Y-86437295D01*
X90100000Y-86437295D02*
X90214286Y-86475390D01*
X90214286Y-86475390D02*
X90290476Y-86551580D01*
X90290476Y-86551580D02*
X90328571Y-86627771D01*
X90328571Y-86627771D02*
X90366667Y-86780152D01*
X90366667Y-86780152D02*
X90366667Y-86894438D01*
X90366667Y-86894438D02*
X90328571Y-87046819D01*
X90328571Y-87046819D02*
X90290476Y-87123009D01*
X90290476Y-87123009D02*
X90214286Y-87199200D01*
X90214286Y-87199200D02*
X90100000Y-87237295D01*
X90100000Y-87237295D02*
X89909524Y-87237295D01*
X90633333Y-86437295D02*
X91166667Y-86437295D01*
X91166667Y-86437295D02*
X90823809Y-87237295D01*
X103011905Y-112204819D02*
X103011905Y-111204819D01*
X103583333Y-112204819D02*
X103154762Y-111633390D01*
X103583333Y-111204819D02*
X103011905Y-111776247D01*
X103964286Y-111300057D02*
X104011905Y-111252438D01*
X104011905Y-111252438D02*
X104107143Y-111204819D01*
X104107143Y-111204819D02*
X104345238Y-111204819D01*
X104345238Y-111204819D02*
X104440476Y-111252438D01*
X104440476Y-111252438D02*
X104488095Y-111300057D01*
X104488095Y-111300057D02*
X104535714Y-111395295D01*
X104535714Y-111395295D02*
X104535714Y-111490533D01*
X104535714Y-111490533D02*
X104488095Y-111633390D01*
X104488095Y-111633390D02*
X103916667Y-112204819D01*
X103916667Y-112204819D02*
X104535714Y-112204819D01*
X145583333Y-119672319D02*
X145250000Y-119196128D01*
X145011905Y-119672319D02*
X145011905Y-118672319D01*
X145011905Y-118672319D02*
X145392857Y-118672319D01*
X145392857Y-118672319D02*
X145488095Y-118719938D01*
X145488095Y-118719938D02*
X145535714Y-118767557D01*
X145535714Y-118767557D02*
X145583333Y-118862795D01*
X145583333Y-118862795D02*
X145583333Y-119005652D01*
X145583333Y-119005652D02*
X145535714Y-119100890D01*
X145535714Y-119100890D02*
X145488095Y-119148509D01*
X145488095Y-119148509D02*
X145392857Y-119196128D01*
X145392857Y-119196128D02*
X145011905Y-119196128D01*
X146059524Y-119672319D02*
X146250000Y-119672319D01*
X146250000Y-119672319D02*
X146345238Y-119624700D01*
X146345238Y-119624700D02*
X146392857Y-119577080D01*
X146392857Y-119577080D02*
X146488095Y-119434223D01*
X146488095Y-119434223D02*
X146535714Y-119243747D01*
X146535714Y-119243747D02*
X146535714Y-118862795D01*
X146535714Y-118862795D02*
X146488095Y-118767557D01*
X146488095Y-118767557D02*
X146440476Y-118719938D01*
X146440476Y-118719938D02*
X146345238Y-118672319D01*
X146345238Y-118672319D02*
X146154762Y-118672319D01*
X146154762Y-118672319D02*
X146059524Y-118719938D01*
X146059524Y-118719938D02*
X146011905Y-118767557D01*
X146011905Y-118767557D02*
X145964286Y-118862795D01*
X145964286Y-118862795D02*
X145964286Y-119100890D01*
X145964286Y-119100890D02*
X146011905Y-119196128D01*
X146011905Y-119196128D02*
X146059524Y-119243747D01*
X146059524Y-119243747D02*
X146154762Y-119291366D01*
X146154762Y-119291366D02*
X146345238Y-119291366D01*
X146345238Y-119291366D02*
X146440476Y-119243747D01*
X146440476Y-119243747D02*
X146488095Y-119196128D01*
X146488095Y-119196128D02*
X146535714Y-119100890D01*
X156778810Y-115654819D02*
X156778810Y-114654819D01*
X157826428Y-115559580D02*
X157778809Y-115607200D01*
X157778809Y-115607200D02*
X157635952Y-115654819D01*
X157635952Y-115654819D02*
X157540714Y-115654819D01*
X157540714Y-115654819D02*
X157397857Y-115607200D01*
X157397857Y-115607200D02*
X157302619Y-115511961D01*
X157302619Y-115511961D02*
X157255000Y-115416723D01*
X157255000Y-115416723D02*
X157207381Y-115226247D01*
X157207381Y-115226247D02*
X157207381Y-115083390D01*
X157207381Y-115083390D02*
X157255000Y-114892914D01*
X157255000Y-114892914D02*
X157302619Y-114797676D01*
X157302619Y-114797676D02*
X157397857Y-114702438D01*
X157397857Y-114702438D02*
X157540714Y-114654819D01*
X157540714Y-114654819D02*
X157635952Y-114654819D01*
X157635952Y-114654819D02*
X157778809Y-114702438D01*
X157778809Y-114702438D02*
X157826428Y-114750057D01*
X158778809Y-115654819D02*
X158207381Y-115654819D01*
X158493095Y-115654819D02*
X158493095Y-114654819D01*
X158493095Y-114654819D02*
X158397857Y-114797676D01*
X158397857Y-114797676D02*
X158302619Y-114892914D01*
X158302619Y-114892914D02*
X158207381Y-114940533D01*
X154583333Y-105554819D02*
X154250000Y-105078628D01*
X154011905Y-105554819D02*
X154011905Y-104554819D01*
X154011905Y-104554819D02*
X154392857Y-104554819D01*
X154392857Y-104554819D02*
X154488095Y-104602438D01*
X154488095Y-104602438D02*
X154535714Y-104650057D01*
X154535714Y-104650057D02*
X154583333Y-104745295D01*
X154583333Y-104745295D02*
X154583333Y-104888152D01*
X154583333Y-104888152D02*
X154535714Y-104983390D01*
X154535714Y-104983390D02*
X154488095Y-105031009D01*
X154488095Y-105031009D02*
X154392857Y-105078628D01*
X154392857Y-105078628D02*
X154011905Y-105078628D01*
X154964286Y-104650057D02*
X155011905Y-104602438D01*
X155011905Y-104602438D02*
X155107143Y-104554819D01*
X155107143Y-104554819D02*
X155345238Y-104554819D01*
X155345238Y-104554819D02*
X155440476Y-104602438D01*
X155440476Y-104602438D02*
X155488095Y-104650057D01*
X155488095Y-104650057D02*
X155535714Y-104745295D01*
X155535714Y-104745295D02*
X155535714Y-104840533D01*
X155535714Y-104840533D02*
X155488095Y-104983390D01*
X155488095Y-104983390D02*
X154916667Y-105554819D01*
X154916667Y-105554819D02*
X155535714Y-105554819D01*
X139088333Y-121439819D02*
X138755000Y-120963628D01*
X138516905Y-121439819D02*
X138516905Y-120439819D01*
X138516905Y-120439819D02*
X138897857Y-120439819D01*
X138897857Y-120439819D02*
X138993095Y-120487438D01*
X138993095Y-120487438D02*
X139040714Y-120535057D01*
X139040714Y-120535057D02*
X139088333Y-120630295D01*
X139088333Y-120630295D02*
X139088333Y-120773152D01*
X139088333Y-120773152D02*
X139040714Y-120868390D01*
X139040714Y-120868390D02*
X138993095Y-120916009D01*
X138993095Y-120916009D02*
X138897857Y-120963628D01*
X138897857Y-120963628D02*
X138516905Y-120963628D01*
X139659762Y-120868390D02*
X139564524Y-120820771D01*
X139564524Y-120820771D02*
X139516905Y-120773152D01*
X139516905Y-120773152D02*
X139469286Y-120677914D01*
X139469286Y-120677914D02*
X139469286Y-120630295D01*
X139469286Y-120630295D02*
X139516905Y-120535057D01*
X139516905Y-120535057D02*
X139564524Y-120487438D01*
X139564524Y-120487438D02*
X139659762Y-120439819D01*
X139659762Y-120439819D02*
X139850238Y-120439819D01*
X139850238Y-120439819D02*
X139945476Y-120487438D01*
X139945476Y-120487438D02*
X139993095Y-120535057D01*
X139993095Y-120535057D02*
X140040714Y-120630295D01*
X140040714Y-120630295D02*
X140040714Y-120677914D01*
X140040714Y-120677914D02*
X139993095Y-120773152D01*
X139993095Y-120773152D02*
X139945476Y-120820771D01*
X139945476Y-120820771D02*
X139850238Y-120868390D01*
X139850238Y-120868390D02*
X139659762Y-120868390D01*
X139659762Y-120868390D02*
X139564524Y-120916009D01*
X139564524Y-120916009D02*
X139516905Y-120963628D01*
X139516905Y-120963628D02*
X139469286Y-121058866D01*
X139469286Y-121058866D02*
X139469286Y-121249342D01*
X139469286Y-121249342D02*
X139516905Y-121344580D01*
X139516905Y-121344580D02*
X139564524Y-121392200D01*
X139564524Y-121392200D02*
X139659762Y-121439819D01*
X139659762Y-121439819D02*
X139850238Y-121439819D01*
X139850238Y-121439819D02*
X139945476Y-121392200D01*
X139945476Y-121392200D02*
X139993095Y-121344580D01*
X139993095Y-121344580D02*
X140040714Y-121249342D01*
X140040714Y-121249342D02*
X140040714Y-121058866D01*
X140040714Y-121058866D02*
X139993095Y-120963628D01*
X139993095Y-120963628D02*
X139945476Y-120916009D01*
X139945476Y-120916009D02*
X139850238Y-120868390D01*
X128289819Y-109433333D02*
X129004104Y-109433333D01*
X129004104Y-109433333D02*
X129146961Y-109480952D01*
X129146961Y-109480952D02*
X129242200Y-109576190D01*
X129242200Y-109576190D02*
X129289819Y-109719047D01*
X129289819Y-109719047D02*
X129289819Y-109814285D01*
X129289819Y-108433333D02*
X129289819Y-109004761D01*
X129289819Y-108719047D02*
X128289819Y-108719047D01*
X128289819Y-108719047D02*
X128432676Y-108814285D01*
X128432676Y-108814285D02*
X128527914Y-108909523D01*
X128527914Y-108909523D02*
X128575533Y-109004761D01*
X138909524Y-74002295D02*
X138909524Y-73202295D01*
X138909524Y-73202295D02*
X139100000Y-73202295D01*
X139100000Y-73202295D02*
X139214286Y-73240390D01*
X139214286Y-73240390D02*
X139290476Y-73316580D01*
X139290476Y-73316580D02*
X139328571Y-73392771D01*
X139328571Y-73392771D02*
X139366667Y-73545152D01*
X139366667Y-73545152D02*
X139366667Y-73659438D01*
X139366667Y-73659438D02*
X139328571Y-73811819D01*
X139328571Y-73811819D02*
X139290476Y-73888009D01*
X139290476Y-73888009D02*
X139214286Y-73964200D01*
X139214286Y-73964200D02*
X139100000Y-74002295D01*
X139100000Y-74002295D02*
X138909524Y-74002295D01*
X140090476Y-73202295D02*
X139709524Y-73202295D01*
X139709524Y-73202295D02*
X139671428Y-73583247D01*
X139671428Y-73583247D02*
X139709524Y-73545152D01*
X139709524Y-73545152D02*
X139785714Y-73507057D01*
X139785714Y-73507057D02*
X139976190Y-73507057D01*
X139976190Y-73507057D02*
X140052381Y-73545152D01*
X140052381Y-73545152D02*
X140090476Y-73583247D01*
X140090476Y-73583247D02*
X140128571Y-73659438D01*
X140128571Y-73659438D02*
X140128571Y-73849914D01*
X140128571Y-73849914D02*
X140090476Y-73926104D01*
X140090476Y-73926104D02*
X140052381Y-73964200D01*
X140052381Y-73964200D02*
X139976190Y-74002295D01*
X139976190Y-74002295D02*
X139785714Y-74002295D01*
X139785714Y-74002295D02*
X139709524Y-73964200D01*
X139709524Y-73964200D02*
X139671428Y-73926104D01*
X142164524Y-113462295D02*
X142164524Y-112662295D01*
X142164524Y-112662295D02*
X142355000Y-112662295D01*
X142355000Y-112662295D02*
X142469286Y-112700390D01*
X142469286Y-112700390D02*
X142545476Y-112776580D01*
X142545476Y-112776580D02*
X142583571Y-112852771D01*
X142583571Y-112852771D02*
X142621667Y-113005152D01*
X142621667Y-113005152D02*
X142621667Y-113119438D01*
X142621667Y-113119438D02*
X142583571Y-113271819D01*
X142583571Y-113271819D02*
X142545476Y-113348009D01*
X142545476Y-113348009D02*
X142469286Y-113424200D01*
X142469286Y-113424200D02*
X142355000Y-113462295D01*
X142355000Y-113462295D02*
X142164524Y-113462295D01*
X142888333Y-112662295D02*
X143383571Y-112662295D01*
X143383571Y-112662295D02*
X143116905Y-112967057D01*
X143116905Y-112967057D02*
X143231190Y-112967057D01*
X143231190Y-112967057D02*
X143307381Y-113005152D01*
X143307381Y-113005152D02*
X143345476Y-113043247D01*
X143345476Y-113043247D02*
X143383571Y-113119438D01*
X143383571Y-113119438D02*
X143383571Y-113309914D01*
X143383571Y-113309914D02*
X143345476Y-113386104D01*
X143345476Y-113386104D02*
X143307381Y-113424200D01*
X143307381Y-113424200D02*
X143231190Y-113462295D01*
X143231190Y-113462295D02*
X143002619Y-113462295D01*
X143002619Y-113462295D02*
X142926428Y-113424200D01*
X142926428Y-113424200D02*
X142888333Y-113386104D01*
X163266905Y-126804819D02*
X163266905Y-125804819D01*
X163266905Y-125804819D02*
X163505000Y-125804819D01*
X163505000Y-125804819D02*
X163647857Y-125852438D01*
X163647857Y-125852438D02*
X163743095Y-125947676D01*
X163743095Y-125947676D02*
X163790714Y-126042914D01*
X163790714Y-126042914D02*
X163838333Y-126233390D01*
X163838333Y-126233390D02*
X163838333Y-126376247D01*
X163838333Y-126376247D02*
X163790714Y-126566723D01*
X163790714Y-126566723D02*
X163743095Y-126661961D01*
X163743095Y-126661961D02*
X163647857Y-126757200D01*
X163647857Y-126757200D02*
X163505000Y-126804819D01*
X163505000Y-126804819D02*
X163266905Y-126804819D01*
X164790714Y-126804819D02*
X164219286Y-126804819D01*
X164505000Y-126804819D02*
X164505000Y-125804819D01*
X164505000Y-125804819D02*
X164409762Y-125947676D01*
X164409762Y-125947676D02*
X164314524Y-126042914D01*
X164314524Y-126042914D02*
X164219286Y-126090533D01*
X166112142Y-110959580D02*
X166064523Y-111007200D01*
X166064523Y-111007200D02*
X165921666Y-111054819D01*
X165921666Y-111054819D02*
X165826428Y-111054819D01*
X165826428Y-111054819D02*
X165683571Y-111007200D01*
X165683571Y-111007200D02*
X165588333Y-110911961D01*
X165588333Y-110911961D02*
X165540714Y-110816723D01*
X165540714Y-110816723D02*
X165493095Y-110626247D01*
X165493095Y-110626247D02*
X165493095Y-110483390D01*
X165493095Y-110483390D02*
X165540714Y-110292914D01*
X165540714Y-110292914D02*
X165588333Y-110197676D01*
X165588333Y-110197676D02*
X165683571Y-110102438D01*
X165683571Y-110102438D02*
X165826428Y-110054819D01*
X165826428Y-110054819D02*
X165921666Y-110054819D01*
X165921666Y-110054819D02*
X166064523Y-110102438D01*
X166064523Y-110102438D02*
X166112142Y-110150057D01*
X167064523Y-111054819D02*
X166493095Y-111054819D01*
X166778809Y-111054819D02*
X166778809Y-110054819D01*
X166778809Y-110054819D02*
X166683571Y-110197676D01*
X166683571Y-110197676D02*
X166588333Y-110292914D01*
X166588333Y-110292914D02*
X166493095Y-110340533D01*
X167683571Y-110054819D02*
X167778809Y-110054819D01*
X167778809Y-110054819D02*
X167874047Y-110102438D01*
X167874047Y-110102438D02*
X167921666Y-110150057D01*
X167921666Y-110150057D02*
X167969285Y-110245295D01*
X167969285Y-110245295D02*
X168016904Y-110435771D01*
X168016904Y-110435771D02*
X168016904Y-110673866D01*
X168016904Y-110673866D02*
X167969285Y-110864342D01*
X167969285Y-110864342D02*
X167921666Y-110959580D01*
X167921666Y-110959580D02*
X167874047Y-111007200D01*
X167874047Y-111007200D02*
X167778809Y-111054819D01*
X167778809Y-111054819D02*
X167683571Y-111054819D01*
X167683571Y-111054819D02*
X167588333Y-111007200D01*
X167588333Y-111007200D02*
X167540714Y-110959580D01*
X167540714Y-110959580D02*
X167493095Y-110864342D01*
X167493095Y-110864342D02*
X167445476Y-110673866D01*
X167445476Y-110673866D02*
X167445476Y-110435771D01*
X167445476Y-110435771D02*
X167493095Y-110245295D01*
X167493095Y-110245295D02*
X167540714Y-110150057D01*
X167540714Y-110150057D02*
X167588333Y-110102438D01*
X167588333Y-110102438D02*
X167683571Y-110054819D01*
X164112142Y-106304819D02*
X163778809Y-105828628D01*
X163540714Y-106304819D02*
X163540714Y-105304819D01*
X163540714Y-105304819D02*
X163921666Y-105304819D01*
X163921666Y-105304819D02*
X164016904Y-105352438D01*
X164016904Y-105352438D02*
X164064523Y-105400057D01*
X164064523Y-105400057D02*
X164112142Y-105495295D01*
X164112142Y-105495295D02*
X164112142Y-105638152D01*
X164112142Y-105638152D02*
X164064523Y-105733390D01*
X164064523Y-105733390D02*
X164016904Y-105781009D01*
X164016904Y-105781009D02*
X163921666Y-105828628D01*
X163921666Y-105828628D02*
X163540714Y-105828628D01*
X165064523Y-106304819D02*
X164493095Y-106304819D01*
X164778809Y-106304819D02*
X164778809Y-105304819D01*
X164778809Y-105304819D02*
X164683571Y-105447676D01*
X164683571Y-105447676D02*
X164588333Y-105542914D01*
X164588333Y-105542914D02*
X164493095Y-105590533D01*
X165921666Y-105638152D02*
X165921666Y-106304819D01*
X165683571Y-105257200D02*
X165445476Y-105971485D01*
X165445476Y-105971485D02*
X166064523Y-105971485D01*
X143357142Y-73954819D02*
X143023809Y-73478628D01*
X142785714Y-73954819D02*
X142785714Y-72954819D01*
X142785714Y-72954819D02*
X143166666Y-72954819D01*
X143166666Y-72954819D02*
X143261904Y-73002438D01*
X143261904Y-73002438D02*
X143309523Y-73050057D01*
X143309523Y-73050057D02*
X143357142Y-73145295D01*
X143357142Y-73145295D02*
X143357142Y-73288152D01*
X143357142Y-73288152D02*
X143309523Y-73383390D01*
X143309523Y-73383390D02*
X143261904Y-73431009D01*
X143261904Y-73431009D02*
X143166666Y-73478628D01*
X143166666Y-73478628D02*
X142785714Y-73478628D01*
X144309523Y-73954819D02*
X143738095Y-73954819D01*
X144023809Y-73954819D02*
X144023809Y-72954819D01*
X144023809Y-72954819D02*
X143928571Y-73097676D01*
X143928571Y-73097676D02*
X143833333Y-73192914D01*
X143833333Y-73192914D02*
X143738095Y-73240533D01*
X144880952Y-73383390D02*
X144785714Y-73335771D01*
X144785714Y-73335771D02*
X144738095Y-73288152D01*
X144738095Y-73288152D02*
X144690476Y-73192914D01*
X144690476Y-73192914D02*
X144690476Y-73145295D01*
X144690476Y-73145295D02*
X144738095Y-73050057D01*
X144738095Y-73050057D02*
X144785714Y-73002438D01*
X144785714Y-73002438D02*
X144880952Y-72954819D01*
X144880952Y-72954819D02*
X145071428Y-72954819D01*
X145071428Y-72954819D02*
X145166666Y-73002438D01*
X145166666Y-73002438D02*
X145214285Y-73050057D01*
X145214285Y-73050057D02*
X145261904Y-73145295D01*
X145261904Y-73145295D02*
X145261904Y-73192914D01*
X145261904Y-73192914D02*
X145214285Y-73288152D01*
X145214285Y-73288152D02*
X145166666Y-73335771D01*
X145166666Y-73335771D02*
X145071428Y-73383390D01*
X145071428Y-73383390D02*
X144880952Y-73383390D01*
X144880952Y-73383390D02*
X144785714Y-73431009D01*
X144785714Y-73431009D02*
X144738095Y-73478628D01*
X144738095Y-73478628D02*
X144690476Y-73573866D01*
X144690476Y-73573866D02*
X144690476Y-73764342D01*
X144690476Y-73764342D02*
X144738095Y-73859580D01*
X144738095Y-73859580D02*
X144785714Y-73907200D01*
X144785714Y-73907200D02*
X144880952Y-73954819D01*
X144880952Y-73954819D02*
X145071428Y-73954819D01*
X145071428Y-73954819D02*
X145166666Y-73907200D01*
X145166666Y-73907200D02*
X145214285Y-73859580D01*
X145214285Y-73859580D02*
X145261904Y-73764342D01*
X145261904Y-73764342D02*
X145261904Y-73573866D01*
X145261904Y-73573866D02*
X145214285Y-73478628D01*
X145214285Y-73478628D02*
X145166666Y-73431009D01*
X145166666Y-73431009D02*
X145071428Y-73383390D01*
X88607142Y-111704819D02*
X88273809Y-111228628D01*
X88035714Y-111704819D02*
X88035714Y-110704819D01*
X88035714Y-110704819D02*
X88416666Y-110704819D01*
X88416666Y-110704819D02*
X88511904Y-110752438D01*
X88511904Y-110752438D02*
X88559523Y-110800057D01*
X88559523Y-110800057D02*
X88607142Y-110895295D01*
X88607142Y-110895295D02*
X88607142Y-111038152D01*
X88607142Y-111038152D02*
X88559523Y-111133390D01*
X88559523Y-111133390D02*
X88511904Y-111181009D01*
X88511904Y-111181009D02*
X88416666Y-111228628D01*
X88416666Y-111228628D02*
X88035714Y-111228628D01*
X88988095Y-110800057D02*
X89035714Y-110752438D01*
X89035714Y-110752438D02*
X89130952Y-110704819D01*
X89130952Y-110704819D02*
X89369047Y-110704819D01*
X89369047Y-110704819D02*
X89464285Y-110752438D01*
X89464285Y-110752438D02*
X89511904Y-110800057D01*
X89511904Y-110800057D02*
X89559523Y-110895295D01*
X89559523Y-110895295D02*
X89559523Y-110990533D01*
X89559523Y-110990533D02*
X89511904Y-111133390D01*
X89511904Y-111133390D02*
X88940476Y-111704819D01*
X88940476Y-111704819D02*
X89559523Y-111704819D01*
X90130952Y-111133390D02*
X90035714Y-111085771D01*
X90035714Y-111085771D02*
X89988095Y-111038152D01*
X89988095Y-111038152D02*
X89940476Y-110942914D01*
X89940476Y-110942914D02*
X89940476Y-110895295D01*
X89940476Y-110895295D02*
X89988095Y-110800057D01*
X89988095Y-110800057D02*
X90035714Y-110752438D01*
X90035714Y-110752438D02*
X90130952Y-110704819D01*
X90130952Y-110704819D02*
X90321428Y-110704819D01*
X90321428Y-110704819D02*
X90416666Y-110752438D01*
X90416666Y-110752438D02*
X90464285Y-110800057D01*
X90464285Y-110800057D02*
X90511904Y-110895295D01*
X90511904Y-110895295D02*
X90511904Y-110942914D01*
X90511904Y-110942914D02*
X90464285Y-111038152D01*
X90464285Y-111038152D02*
X90416666Y-111085771D01*
X90416666Y-111085771D02*
X90321428Y-111133390D01*
X90321428Y-111133390D02*
X90130952Y-111133390D01*
X90130952Y-111133390D02*
X90035714Y-111181009D01*
X90035714Y-111181009D02*
X89988095Y-111228628D01*
X89988095Y-111228628D02*
X89940476Y-111323866D01*
X89940476Y-111323866D02*
X89940476Y-111514342D01*
X89940476Y-111514342D02*
X89988095Y-111609580D01*
X89988095Y-111609580D02*
X90035714Y-111657200D01*
X90035714Y-111657200D02*
X90130952Y-111704819D01*
X90130952Y-111704819D02*
X90321428Y-111704819D01*
X90321428Y-111704819D02*
X90416666Y-111657200D01*
X90416666Y-111657200D02*
X90464285Y-111609580D01*
X90464285Y-111609580D02*
X90511904Y-111514342D01*
X90511904Y-111514342D02*
X90511904Y-111323866D01*
X90511904Y-111323866D02*
X90464285Y-111228628D01*
X90464285Y-111228628D02*
X90416666Y-111181009D01*
X90416666Y-111181009D02*
X90321428Y-111133390D01*
X108583333Y-94859580D02*
X108535714Y-94907200D01*
X108535714Y-94907200D02*
X108392857Y-94954819D01*
X108392857Y-94954819D02*
X108297619Y-94954819D01*
X108297619Y-94954819D02*
X108154762Y-94907200D01*
X108154762Y-94907200D02*
X108059524Y-94811961D01*
X108059524Y-94811961D02*
X108011905Y-94716723D01*
X108011905Y-94716723D02*
X107964286Y-94526247D01*
X107964286Y-94526247D02*
X107964286Y-94383390D01*
X107964286Y-94383390D02*
X108011905Y-94192914D01*
X108011905Y-94192914D02*
X108059524Y-94097676D01*
X108059524Y-94097676D02*
X108154762Y-94002438D01*
X108154762Y-94002438D02*
X108297619Y-93954819D01*
X108297619Y-93954819D02*
X108392857Y-93954819D01*
X108392857Y-93954819D02*
X108535714Y-94002438D01*
X108535714Y-94002438D02*
X108583333Y-94050057D01*
X109440476Y-94288152D02*
X109440476Y-94954819D01*
X109202381Y-93907200D02*
X108964286Y-94621485D01*
X108964286Y-94621485D02*
X109583333Y-94621485D01*
X108583333Y-105109580D02*
X108535714Y-105157200D01*
X108535714Y-105157200D02*
X108392857Y-105204819D01*
X108392857Y-105204819D02*
X108297619Y-105204819D01*
X108297619Y-105204819D02*
X108154762Y-105157200D01*
X108154762Y-105157200D02*
X108059524Y-105061961D01*
X108059524Y-105061961D02*
X108011905Y-104966723D01*
X108011905Y-104966723D02*
X107964286Y-104776247D01*
X107964286Y-104776247D02*
X107964286Y-104633390D01*
X107964286Y-104633390D02*
X108011905Y-104442914D01*
X108011905Y-104442914D02*
X108059524Y-104347676D01*
X108059524Y-104347676D02*
X108154762Y-104252438D01*
X108154762Y-104252438D02*
X108297619Y-104204819D01*
X108297619Y-104204819D02*
X108392857Y-104204819D01*
X108392857Y-104204819D02*
X108535714Y-104252438D01*
X108535714Y-104252438D02*
X108583333Y-104300057D01*
X108916667Y-104204819D02*
X109583333Y-104204819D01*
X109583333Y-104204819D02*
X109154762Y-105204819D01*
X90034819Y-76583333D02*
X90749104Y-76583333D01*
X90749104Y-76583333D02*
X90891961Y-76630952D01*
X90891961Y-76630952D02*
X90987200Y-76726190D01*
X90987200Y-76726190D02*
X91034819Y-76869047D01*
X91034819Y-76869047D02*
X91034819Y-76964285D01*
X90034819Y-75630952D02*
X90034819Y-76107142D01*
X90034819Y-76107142D02*
X90511009Y-76154761D01*
X90511009Y-76154761D02*
X90463390Y-76107142D01*
X90463390Y-76107142D02*
X90415771Y-76011904D01*
X90415771Y-76011904D02*
X90415771Y-75773809D01*
X90415771Y-75773809D02*
X90463390Y-75678571D01*
X90463390Y-75678571D02*
X90511009Y-75630952D01*
X90511009Y-75630952D02*
X90606247Y-75583333D01*
X90606247Y-75583333D02*
X90844342Y-75583333D01*
X90844342Y-75583333D02*
X90939580Y-75630952D01*
X90939580Y-75630952D02*
X90987200Y-75678571D01*
X90987200Y-75678571D02*
X91034819Y-75773809D01*
X91034819Y-75773809D02*
X91034819Y-76011904D01*
X91034819Y-76011904D02*
X90987200Y-76107142D01*
X90987200Y-76107142D02*
X90939580Y-76154761D01*
X142164524Y-104462295D02*
X142164524Y-103662295D01*
X142164524Y-103662295D02*
X142355000Y-103662295D01*
X142355000Y-103662295D02*
X142469286Y-103700390D01*
X142469286Y-103700390D02*
X142545476Y-103776580D01*
X142545476Y-103776580D02*
X142583571Y-103852771D01*
X142583571Y-103852771D02*
X142621667Y-104005152D01*
X142621667Y-104005152D02*
X142621667Y-104119438D01*
X142621667Y-104119438D02*
X142583571Y-104271819D01*
X142583571Y-104271819D02*
X142545476Y-104348009D01*
X142545476Y-104348009D02*
X142469286Y-104424200D01*
X142469286Y-104424200D02*
X142355000Y-104462295D01*
X142355000Y-104462295D02*
X142164524Y-104462295D01*
X142926428Y-103738485D02*
X142964524Y-103700390D01*
X142964524Y-103700390D02*
X143040714Y-103662295D01*
X143040714Y-103662295D02*
X143231190Y-103662295D01*
X143231190Y-103662295D02*
X143307381Y-103700390D01*
X143307381Y-103700390D02*
X143345476Y-103738485D01*
X143345476Y-103738485D02*
X143383571Y-103814676D01*
X143383571Y-103814676D02*
X143383571Y-103890866D01*
X143383571Y-103890866D02*
X143345476Y-104005152D01*
X143345476Y-104005152D02*
X142888333Y-104462295D01*
X142888333Y-104462295D02*
X143383571Y-104462295D01*
X102583333Y-89329819D02*
X102250000Y-88853628D01*
X102011905Y-89329819D02*
X102011905Y-88329819D01*
X102011905Y-88329819D02*
X102392857Y-88329819D01*
X102392857Y-88329819D02*
X102488095Y-88377438D01*
X102488095Y-88377438D02*
X102535714Y-88425057D01*
X102535714Y-88425057D02*
X102583333Y-88520295D01*
X102583333Y-88520295D02*
X102583333Y-88663152D01*
X102583333Y-88663152D02*
X102535714Y-88758390D01*
X102535714Y-88758390D02*
X102488095Y-88806009D01*
X102488095Y-88806009D02*
X102392857Y-88853628D01*
X102392857Y-88853628D02*
X102011905Y-88853628D01*
X103440476Y-88663152D02*
X103440476Y-89329819D01*
X103202381Y-88282200D02*
X102964286Y-88996485D01*
X102964286Y-88996485D02*
X103583333Y-88996485D01*
X138909524Y-75362295D02*
X138909524Y-74562295D01*
X138909524Y-74562295D02*
X139100000Y-74562295D01*
X139100000Y-74562295D02*
X139214286Y-74600390D01*
X139214286Y-74600390D02*
X139290476Y-74676580D01*
X139290476Y-74676580D02*
X139328571Y-74752771D01*
X139328571Y-74752771D02*
X139366667Y-74905152D01*
X139366667Y-74905152D02*
X139366667Y-75019438D01*
X139366667Y-75019438D02*
X139328571Y-75171819D01*
X139328571Y-75171819D02*
X139290476Y-75248009D01*
X139290476Y-75248009D02*
X139214286Y-75324200D01*
X139214286Y-75324200D02*
X139100000Y-75362295D01*
X139100000Y-75362295D02*
X138909524Y-75362295D01*
X140052381Y-74828961D02*
X140052381Y-75362295D01*
X139861905Y-74524200D02*
X139671428Y-75095628D01*
X139671428Y-75095628D02*
X140166667Y-75095628D01*
X156743095Y-93519819D02*
X156743095Y-94329342D01*
X156743095Y-94329342D02*
X156790714Y-94424580D01*
X156790714Y-94424580D02*
X156838333Y-94472200D01*
X156838333Y-94472200D02*
X156933571Y-94519819D01*
X156933571Y-94519819D02*
X157124047Y-94519819D01*
X157124047Y-94519819D02*
X157219285Y-94472200D01*
X157219285Y-94472200D02*
X157266904Y-94424580D01*
X157266904Y-94424580D02*
X157314523Y-94329342D01*
X157314523Y-94329342D02*
X157314523Y-93519819D01*
X157743095Y-93615057D02*
X157790714Y-93567438D01*
X157790714Y-93567438D02*
X157885952Y-93519819D01*
X157885952Y-93519819D02*
X158124047Y-93519819D01*
X158124047Y-93519819D02*
X158219285Y-93567438D01*
X158219285Y-93567438D02*
X158266904Y-93615057D01*
X158266904Y-93615057D02*
X158314523Y-93710295D01*
X158314523Y-93710295D02*
X158314523Y-93805533D01*
X158314523Y-93805533D02*
X158266904Y-93948390D01*
X158266904Y-93948390D02*
X157695476Y-94519819D01*
X157695476Y-94519819D02*
X158314523Y-94519819D01*
D12*
%TO.C,R5*%
X166232064Y-116115000D02*
X165777936Y-116115000D01*
X166232064Y-117585000D02*
X165777936Y-117585000D01*
%TO.C,R17*%
X144227064Y-83082500D02*
X143772936Y-83082500D01*
X144227064Y-84552500D02*
X143772936Y-84552500D01*
%TO.C,Q5*%
X144505000Y-116790000D02*
X143855000Y-116790000D01*
X144505000Y-116790000D02*
X145155000Y-116790000D01*
X144505000Y-119910000D02*
X143855000Y-119910000D01*
X144505000Y-119910000D02*
X146180000Y-119910000D01*
%TO.C,K1*%
X147355000Y-75550000D02*
X147355000Y-82150000D01*
X147355000Y-75550000D02*
X167155000Y-75550000D01*
X147355000Y-84550000D02*
X147355000Y-91150000D01*
X151405000Y-83400000D02*
X150605000Y-83400000D01*
X151405000Y-83400000D02*
X151405000Y-87000000D01*
X152305000Y-89400000D02*
X154805000Y-89400000D01*
X152805000Y-81600000D02*
X156805000Y-81600000D01*
X152805000Y-85200000D02*
X152805000Y-81600000D01*
X154805000Y-77400000D02*
X152305000Y-77400000D01*
X154805000Y-77400000D02*
X154805000Y-81600000D01*
X154805000Y-85200000D02*
X154805000Y-89400000D01*
X156805000Y-81600000D02*
X156805000Y-85200000D01*
X156805000Y-85200000D02*
X152805000Y-81600000D01*
X156805000Y-85200000D02*
X152805000Y-85200000D01*
X158205000Y-83400000D02*
X158205000Y-87000000D01*
X158205000Y-83400000D02*
X159705000Y-83400000D01*
X158205000Y-87000000D02*
X151405000Y-87000000D01*
X159705000Y-83400000D02*
X164305000Y-80900000D01*
X162905000Y-79150000D02*
X162905000Y-81650000D01*
X162905000Y-87550000D02*
X162905000Y-85100000D01*
X167155000Y-75550000D02*
X167155000Y-91150000D01*
X167155000Y-91150000D02*
X147355000Y-91150000D01*
%TO.C,R10*%
X139522936Y-100765000D02*
X139977064Y-100765000D01*
X139522936Y-102235000D02*
X139977064Y-102235000D01*
%TO.C,D6*%
X138250000Y-78460000D02*
X141350000Y-78460000D01*
X141350000Y-76540000D02*
X138250000Y-76540000D01*
X141350000Y-78460000D02*
X141350000Y-76540000D01*
%TO.C,Q2*%
X99000000Y-83775000D02*
X98350000Y-83775000D01*
X99000000Y-83775000D02*
X99650000Y-83775000D01*
X99000000Y-86895000D02*
X98350000Y-86895000D01*
X99000000Y-86895000D02*
X100675000Y-86895000D01*
%TO.C,R12*%
X139277936Y-114615000D02*
X139732064Y-114615000D01*
X139277936Y-116085000D02*
X139732064Y-116085000D01*
%TO.C,R19*%
X144227064Y-76766052D02*
X143772936Y-76766052D01*
X144227064Y-78236052D02*
X143772936Y-78236052D01*
%TO.C,Q6*%
X139750000Y-94690000D02*
X139100000Y-94690000D01*
X139750000Y-94690000D02*
X140400000Y-94690000D01*
X139750000Y-97810000D02*
X139100000Y-97810000D01*
X139750000Y-97810000D02*
X141425000Y-97810000D01*
D13*
%TO.C,U4*%
X98675000Y-95080000D02*
X98675000Y-97420000D01*
X107325000Y-95080000D02*
X107325000Y-97420000D01*
D14*
X107200000Y-92200000D02*
G75*
G02*
X107000000Y-92200000I-100000J0D01*
G01*
X107000000Y-92200000D02*
G75*
G02*
X107200000Y-92200000I100000J0D01*
G01*
D12*
%TO.C,C6*%
X161016252Y-92615000D02*
X160493748Y-92615000D01*
X161016252Y-94085000D02*
X160493748Y-94085000D01*
%TO.C,R1*%
X165777936Y-118615000D02*
X166232064Y-118615000D01*
X165777936Y-120085000D02*
X166232064Y-120085000D01*
%TO.C,J8*%
X112990000Y-104065000D02*
X112990000Y-113935000D01*
X112990000Y-113935000D02*
X116065000Y-113935000D01*
X116065000Y-104065000D02*
X112990000Y-104065000D01*
X117080000Y-105485000D02*
X117080000Y-112515000D01*
X117080000Y-112515000D02*
X117580000Y-112515000D01*
X117580000Y-105485000D02*
X117080000Y-105485000D01*
X117580000Y-105505000D02*
X117580000Y-105485000D01*
X117580000Y-112515000D02*
X117580000Y-112495000D01*
%TO.C,R23*%
X149982064Y-116115000D02*
X149527936Y-116115000D01*
X149982064Y-117585000D02*
X149527936Y-117585000D01*
%TO.C,R20*%
X104515000Y-86062064D02*
X104515000Y-85607936D01*
X105985000Y-86062064D02*
X105985000Y-85607936D01*
%TO.C,J7*%
X129920000Y-94735000D02*
X129920000Y-94755000D01*
X129920000Y-101745000D02*
X129920000Y-101765000D01*
X129920000Y-101765000D02*
X130420000Y-101765000D01*
X130420000Y-94735000D02*
X129920000Y-94735000D01*
X130420000Y-101765000D02*
X130420000Y-94735000D01*
X131435000Y-103185000D02*
X134510000Y-103185000D01*
X134510000Y-93315000D02*
X131435000Y-93315000D01*
X134510000Y-103185000D02*
X134510000Y-93315000D01*
%TO.C,U6*%
X157755000Y-108040000D02*
X155805000Y-108040000D01*
X157755000Y-108040000D02*
X159705000Y-108040000D01*
X157755000Y-113160000D02*
X155805000Y-113160000D01*
X157755000Y-113160000D02*
X159705000Y-113160000D01*
X155055000Y-108135000D02*
X154815000Y-107805000D01*
X155295000Y-107805000D01*
X155055000Y-108135000D01*
G36*
X155055000Y-108135000D02*
G01*
X154815000Y-107805000D01*
X155295000Y-107805000D01*
X155055000Y-108135000D01*
G37*
%TO.C,C8*%
X90770000Y-96670000D02*
X97230000Y-96670000D01*
X90770000Y-96710000D02*
X97230000Y-96710000D01*
X90770000Y-96750000D02*
X97230000Y-96750000D01*
X90772000Y-96630000D02*
X97228000Y-96630000D01*
X90773000Y-96590000D02*
X97227000Y-96590000D01*
X90776000Y-96550000D02*
X97224000Y-96550000D01*
X90778000Y-96510000D02*
X92960000Y-96510000D01*
X90782000Y-96470000D02*
X92960000Y-96470000D01*
X90785000Y-96430000D02*
X92960000Y-96430000D01*
X90789000Y-96390000D02*
X92960000Y-96390000D01*
X90794000Y-96350000D02*
X92960000Y-96350000D01*
X90799000Y-96310000D02*
X92960000Y-96310000D01*
X90805000Y-96270000D02*
X92960000Y-96270000D01*
X90811000Y-96230000D02*
X92960000Y-96230000D01*
X90818000Y-96190000D02*
X92960000Y-96190000D01*
X90825000Y-96150000D02*
X92960000Y-96150000D01*
X90833000Y-96110000D02*
X92960000Y-96110000D01*
X90841000Y-96070000D02*
X92960000Y-96070000D01*
X90850000Y-96029000D02*
X92960000Y-96029000D01*
X90859000Y-95989000D02*
X92960000Y-95989000D01*
X90869000Y-95949000D02*
X92960000Y-95949000D01*
X90879000Y-95909000D02*
X92960000Y-95909000D01*
X90890000Y-95869000D02*
X92960000Y-95869000D01*
X90902000Y-95829000D02*
X92960000Y-95829000D01*
X90914000Y-95789000D02*
X92960000Y-95789000D01*
X90926000Y-95749000D02*
X92960000Y-95749000D01*
X90939000Y-95709000D02*
X92960000Y-95709000D01*
X90953000Y-95669000D02*
X92960000Y-95669000D01*
X90967000Y-95629000D02*
X92960000Y-95629000D01*
X90982000Y-95589000D02*
X92960000Y-95589000D01*
X90998000Y-95549000D02*
X92960000Y-95549000D01*
X91000000Y-100500000D02*
X91630000Y-100500000D01*
X91014000Y-95509000D02*
X92960000Y-95509000D01*
X91030000Y-95469000D02*
X92960000Y-95469000D01*
X91048000Y-95429000D02*
X92960000Y-95429000D01*
X91066000Y-95389000D02*
X92960000Y-95389000D01*
X91084000Y-95349000D02*
X92960000Y-95349000D01*
X91104000Y-95309000D02*
X92960000Y-95309000D01*
X91124000Y-95269000D02*
X92960000Y-95269000D01*
X91144000Y-95229000D02*
X92960000Y-95229000D01*
X91166000Y-95189000D02*
X92960000Y-95189000D01*
X91188000Y-95149000D02*
X92960000Y-95149000D01*
X91210000Y-95109000D02*
X92960000Y-95109000D01*
X91234000Y-95069000D02*
X92960000Y-95069000D01*
X91258000Y-95029000D02*
X92960000Y-95029000D01*
X91284000Y-94989000D02*
X92960000Y-94989000D01*
X91310000Y-94949000D02*
X92960000Y-94949000D01*
X91315000Y-100815000D02*
X91315000Y-100185000D01*
X91336000Y-94909000D02*
X92960000Y-94909000D01*
X91364000Y-94869000D02*
X92960000Y-94869000D01*
X91393000Y-94829000D02*
X92960000Y-94829000D01*
X91422000Y-94789000D02*
X92960000Y-94789000D01*
X91452000Y-94749000D02*
X92960000Y-94749000D01*
X91484000Y-94709000D02*
X92960000Y-94709000D01*
X91516000Y-94669000D02*
X92960000Y-94669000D01*
X91550000Y-94629000D02*
X92960000Y-94629000D01*
X91584000Y-94589000D02*
X92960000Y-94589000D01*
X91620000Y-94549000D02*
X92960000Y-94549000D01*
X91657000Y-94509000D02*
X92960000Y-94509000D01*
X91695000Y-94469000D02*
X92960000Y-94469000D01*
X95040000Y-94469000D02*
X96305000Y-94469000D01*
X95040000Y-94509000D02*
X96343000Y-94509000D01*
X95040000Y-94549000D02*
X96380000Y-94549000D01*
X95040000Y-94589000D02*
X96416000Y-94589000D01*
X95040000Y-94629000D02*
X96450000Y-94629000D01*
X95040000Y-94669000D02*
X96484000Y-94669000D01*
X95040000Y-94709000D02*
X96516000Y-94709000D01*
X95040000Y-94749000D02*
X96548000Y-94749000D01*
X95040000Y-94789000D02*
X96578000Y-94789000D01*
X95040000Y-94829000D02*
X96607000Y-94829000D01*
X95040000Y-94869000D02*
X96636000Y-94869000D01*
X95040000Y-94909000D02*
X96664000Y-94909000D01*
X95040000Y-94949000D02*
X96690000Y-94949000D01*
X95040000Y-94989000D02*
X96716000Y-94989000D01*
X95040000Y-95029000D02*
X96742000Y-95029000D01*
X95040000Y-95069000D02*
X96766000Y-95069000D01*
X95040000Y-95109000D02*
X96790000Y-95109000D01*
X95040000Y-95149000D02*
X96812000Y-95149000D01*
X95040000Y-95189000D02*
X96834000Y-95189000D01*
X95040000Y-95229000D02*
X96856000Y-95229000D01*
X95040000Y-95269000D02*
X96876000Y-95269000D01*
X95040000Y-95309000D02*
X96896000Y-95309000D01*
X95040000Y-95349000D02*
X96916000Y-95349000D01*
X95040000Y-95389000D02*
X96934000Y-95389000D01*
X95040000Y-95429000D02*
X96952000Y-95429000D01*
X95040000Y-95469000D02*
X96970000Y-95469000D01*
X95040000Y-95509000D02*
X96986000Y-95509000D01*
X95040000Y-95549000D02*
X97002000Y-95549000D01*
X95040000Y-95589000D02*
X97018000Y-95589000D01*
X95040000Y-95629000D02*
X97033000Y-95629000D01*
X95040000Y-95669000D02*
X97047000Y-95669000D01*
X95040000Y-95709000D02*
X97061000Y-95709000D01*
X95040000Y-95749000D02*
X97074000Y-95749000D01*
X95040000Y-95789000D02*
X97086000Y-95789000D01*
X95040000Y-95829000D02*
X97098000Y-95829000D01*
X95040000Y-95869000D02*
X97110000Y-95869000D01*
X95040000Y-95909000D02*
X97121000Y-95909000D01*
X95040000Y-95949000D02*
X97131000Y-95949000D01*
X95040000Y-95989000D02*
X97141000Y-95989000D01*
X95040000Y-96029000D02*
X97150000Y-96029000D01*
X95040000Y-96070000D02*
X97159000Y-96070000D01*
X95040000Y-96110000D02*
X97167000Y-96110000D01*
X95040000Y-96150000D02*
X97175000Y-96150000D01*
X95040000Y-96190000D02*
X97182000Y-96190000D01*
X95040000Y-96230000D02*
X97189000Y-96230000D01*
X95040000Y-96270000D02*
X97195000Y-96270000D01*
X95040000Y-96310000D02*
X97201000Y-96310000D01*
X95040000Y-96350000D02*
X97206000Y-96350000D01*
X95040000Y-96390000D02*
X97211000Y-96390000D01*
X95040000Y-96430000D02*
X97215000Y-96430000D01*
X95040000Y-96470000D02*
X97218000Y-96470000D01*
X95040000Y-96510000D02*
X97222000Y-96510000D01*
X97750000Y-96750000D02*
G75*
G02*
X90250000Y-96750000I-3750000J0D01*
G01*
X90250000Y-96750000D02*
G75*
G02*
X97750000Y-96750000I3750000J0D01*
G01*
%TO.C,R22*%
X144515000Y-89477064D02*
X144515000Y-89022936D01*
X145985000Y-89477064D02*
X145985000Y-89022936D01*
%TO.C,R3*%
X139977064Y-92515000D02*
X139522936Y-92515000D01*
X139977064Y-93985000D02*
X139522936Y-93985000D01*
%TO.C,SW1*%
X129857500Y-117117500D02*
X129857500Y-117137500D01*
X129857500Y-124127500D02*
X129857500Y-124147500D01*
X129857500Y-124147500D02*
X130357500Y-124147500D01*
X130357500Y-117117500D02*
X129857500Y-117117500D01*
X130357500Y-124147500D02*
X130357500Y-117117500D01*
X131372500Y-125567500D02*
X134447500Y-125567500D01*
X134447500Y-115697500D02*
X131372500Y-115697500D01*
X134447500Y-125567500D02*
X134447500Y-115697500D01*
%TO.C,J6*%
X99565000Y-78020000D02*
X99565000Y-81095000D01*
X99565000Y-81095000D02*
X109435000Y-81095000D01*
X100985000Y-76505000D02*
X100985000Y-77005000D01*
X100985000Y-77005000D02*
X108015000Y-77005000D01*
X101005000Y-76505000D02*
X100985000Y-76505000D01*
X108015000Y-76505000D02*
X107995000Y-76505000D01*
X108015000Y-77005000D02*
X108015000Y-76505000D01*
X109435000Y-81095000D02*
X109435000Y-78020000D01*
%TO.C,U5*%
X140270000Y-105750000D02*
X140270000Y-110950000D01*
X140270000Y-110950000D02*
X146740000Y-110950000D01*
X142505000Y-105750000D02*
X140270000Y-105750000D01*
X146740000Y-105750000D02*
X144505000Y-105750000D01*
X146740000Y-110950000D02*
X146740000Y-105750000D01*
X144505000Y-105750000D02*
G75*
G02*
X142505000Y-105750000I-1000000J0D01*
G01*
%TO.C,J3*%
X129925000Y-83585000D02*
X129925000Y-83605000D01*
X129925000Y-90595000D02*
X129925000Y-90615000D01*
X129925000Y-90615000D02*
X130425000Y-90615000D01*
X130425000Y-83585000D02*
X129925000Y-83585000D01*
X130425000Y-90615000D02*
X130425000Y-83585000D01*
X131440000Y-92035000D02*
X134515000Y-92035000D01*
X134515000Y-82165000D02*
X131440000Y-82165000D01*
X134515000Y-92035000D02*
X134515000Y-82165000D01*
%TO.C,R26*%
X93187936Y-102210000D02*
X93642064Y-102210000D01*
X93187936Y-103680000D02*
X93642064Y-103680000D01*
%TO.C,J9*%
X112905000Y-115565000D02*
X112905000Y-125435000D01*
X112905000Y-125435000D02*
X115980000Y-125435000D01*
X115980000Y-115565000D02*
X112905000Y-115565000D01*
X116995000Y-116985000D02*
X116995000Y-124015000D01*
X116995000Y-124015000D02*
X117495000Y-124015000D01*
X117495000Y-116985000D02*
X116995000Y-116985000D01*
X117495000Y-117005000D02*
X117495000Y-116985000D01*
X117495000Y-124015000D02*
X117495000Y-123995000D01*
%TO.C,C5*%
X151116252Y-92730000D02*
X150593748Y-92730000D01*
X151116252Y-94200000D02*
X150593748Y-94200000D01*
%TO.C,R7*%
X149982064Y-118615000D02*
X149527936Y-118615000D01*
X149982064Y-120085000D02*
X149527936Y-120085000D01*
%TO.C,R21*%
X93977064Y-83600000D02*
X93522936Y-83600000D01*
X93977064Y-85070000D02*
X93522936Y-85070000D01*
%TO.C,Q3*%
X89887500Y-106597500D02*
X89887500Y-105947500D01*
X89887500Y-106597500D02*
X89887500Y-107247500D01*
X93007500Y-106597500D02*
X93007500Y-104922500D01*
X93007500Y-106597500D02*
X93007500Y-107247500D01*
%TO.C,R27*%
X93962500Y-106370436D02*
X93962500Y-106824564D01*
X95432500Y-106370436D02*
X95432500Y-106824564D01*
%TO.C,C2*%
X149591248Y-123615000D02*
X150113752Y-123615000D01*
X149591248Y-125085000D02*
X150113752Y-125085000D01*
%TO.C,C1*%
X165743748Y-121115000D02*
X166266252Y-121115000D01*
X165743748Y-122585000D02*
X166266252Y-122585000D01*
%TO.C,C9*%
X162743748Y-113865000D02*
X163266252Y-113865000D01*
X162743748Y-115335000D02*
X163266252Y-115335000D01*
%TO.C,U3*%
X97190000Y-106000000D02*
X97190000Y-104050000D01*
X97190000Y-106000000D02*
X97190000Y-107950000D01*
X107310000Y-106000000D02*
X107310000Y-102550000D01*
X107310000Y-106000000D02*
X107310000Y-107950000D01*
%TO.C,R24*%
X149617936Y-121250000D02*
X150072064Y-121250000D01*
X149617936Y-122720000D02*
X150072064Y-122720000D01*
%TO.C,J4*%
X170785000Y-115415000D02*
X170785000Y-125285000D01*
X170785000Y-125285000D02*
X173860000Y-125285000D01*
X173860000Y-115415000D02*
X170785000Y-115415000D01*
X174875000Y-116835000D02*
X174875000Y-123865000D01*
X174875000Y-123865000D02*
X175375000Y-123865000D01*
X175375000Y-116835000D02*
X174875000Y-116835000D01*
X175375000Y-116855000D02*
X175375000Y-116835000D01*
X175375000Y-123865000D02*
X175375000Y-123845000D01*
D13*
%TO.C,U1*%
X148055000Y-95140000D02*
X150395000Y-95140000D01*
X148055000Y-103790000D02*
X150395000Y-103790000D01*
D14*
X145275000Y-95365000D02*
G75*
G02*
X145075000Y-95365000I-100000J0D01*
G01*
X145075000Y-95365000D02*
G75*
G02*
X145275000Y-95365000I100000J0D01*
G01*
D12*
%TO.C,R25*%
X140074564Y-98482500D02*
X139620436Y-98482500D01*
X140074564Y-99952500D02*
X139620436Y-99952500D01*
%TO.C,D7*%
X92750000Y-87795000D02*
X95850000Y-87795000D01*
X95850000Y-85875000D02*
X92750000Y-85875000D01*
X95850000Y-87795000D02*
X95850000Y-85875000D01*
%TO.C,K2*%
X92200000Y-132400000D02*
X92200000Y-112600000D01*
X93950000Y-117550000D02*
X93950000Y-120050000D01*
X95800000Y-128150000D02*
X98250000Y-128150000D01*
X96350000Y-123450000D02*
X96350000Y-116650000D01*
X98150000Y-118050000D02*
X101750000Y-118050000D01*
X98150000Y-120050000D02*
X93950000Y-120050000D01*
X98150000Y-122050000D02*
X98150000Y-118050000D01*
X98150000Y-122050000D02*
X101750000Y-118050000D01*
X98800000Y-112600000D02*
X92200000Y-112600000D01*
X99950000Y-116650000D02*
X96350000Y-116650000D01*
X99950000Y-116650000D02*
X99950000Y-115850000D01*
X99950000Y-123450000D02*
X96350000Y-123450000D01*
X99950000Y-123450000D02*
X99950000Y-124950000D01*
X99950000Y-124950000D02*
X102450000Y-129550000D01*
X101750000Y-118050000D02*
X101750000Y-122050000D01*
X101750000Y-122050000D02*
X98150000Y-122050000D01*
X104200000Y-128150000D02*
X101700000Y-128150000D01*
X105950000Y-120050000D02*
X101750000Y-120050000D01*
X105950000Y-120050000D02*
X105950000Y-117550000D01*
X107800000Y-112600000D02*
X101200000Y-112600000D01*
X107800000Y-112600000D02*
X107800000Y-132400000D01*
X107800000Y-132400000D02*
X92200000Y-132400000D01*
%TO.C,R9*%
X149522936Y-113982500D02*
X149977064Y-113982500D01*
X149522936Y-115452500D02*
X149977064Y-115452500D01*
%TO.C,IC1*%
X157755000Y-116040000D02*
X155805000Y-116040000D01*
X157755000Y-116040000D02*
X159705000Y-116040000D01*
X157755000Y-121160000D02*
X155805000Y-121160000D01*
X157755000Y-121160000D02*
X159705000Y-121160000D01*
X155055000Y-116135000D02*
X154815000Y-115805000D01*
X155295000Y-115805000D01*
X155055000Y-116135000D01*
G36*
X155055000Y-116135000D02*
G01*
X154815000Y-115805000D01*
X155295000Y-115805000D01*
X155055000Y-116135000D01*
G37*
%TO.C,R2*%
X154522936Y-106015000D02*
X154977064Y-106015000D01*
X154522936Y-107485000D02*
X154977064Y-107485000D01*
%TO.C,R8*%
X139732064Y-116865000D02*
X139277936Y-116865000D01*
X139732064Y-118335000D02*
X139277936Y-118335000D01*
%TO.C,J1*%
X129925000Y-105585000D02*
X129925000Y-105605000D01*
X129925000Y-112595000D02*
X129925000Y-112615000D01*
X129925000Y-112615000D02*
X130425000Y-112615000D01*
X130425000Y-105585000D02*
X129925000Y-105585000D01*
X130425000Y-112615000D02*
X130425000Y-105585000D01*
X131440000Y-114035000D02*
X134515000Y-114035000D01*
X134515000Y-104165000D02*
X131440000Y-104165000D01*
X134515000Y-114035000D02*
X134515000Y-104165000D01*
%TO.C,D5*%
X138250000Y-81600000D02*
X141350000Y-81600000D01*
X141350000Y-79680000D02*
X138250000Y-79680000D01*
X141350000Y-81600000D02*
X141350000Y-79680000D01*
%TO.C,D3*%
X138602500Y-114027500D02*
X141702500Y-114027500D01*
X141702500Y-112107500D02*
X138602500Y-112107500D01*
X141702500Y-114027500D02*
X141702500Y-112107500D01*
%TO.C,D1*%
X153745000Y-121950000D02*
X153745000Y-125250000D01*
X153745000Y-121950000D02*
X160755000Y-121950000D01*
X153745000Y-125250000D02*
X160755000Y-125250000D01*
%TO.C,C10*%
X163520000Y-110338748D02*
X163520000Y-110861252D01*
X164990000Y-110338748D02*
X164990000Y-110861252D01*
%TO.C,R14*%
X159732064Y-105865000D02*
X159277936Y-105865000D01*
X159732064Y-107335000D02*
X159277936Y-107335000D01*
%TO.C,R18*%
X144227064Y-79906052D02*
X143772936Y-79906052D01*
X144227064Y-81376052D02*
X143772936Y-81376052D01*
%TO.C,R28*%
X93187936Y-109460000D02*
X93642064Y-109460000D01*
X93187936Y-110930000D02*
X93642064Y-110930000D01*
%TO.C,C4*%
X108515000Y-97761252D02*
X108515000Y-97238748D01*
X109985000Y-97761252D02*
X109985000Y-97238748D01*
%TO.C,C7*%
X108515000Y-107738748D02*
X108515000Y-108261252D01*
X109985000Y-107738748D02*
X109985000Y-108261252D01*
%TO.C,J5*%
X93185000Y-81185000D02*
X96260000Y-81185000D01*
X96260000Y-81185000D02*
X96260000Y-71315000D01*
X91670000Y-79765000D02*
X92170000Y-79765000D01*
X92170000Y-79765000D02*
X92170000Y-72735000D01*
X91670000Y-79745000D02*
X91670000Y-79765000D01*
X91670000Y-72735000D02*
X91670000Y-72755000D01*
X92170000Y-72735000D02*
X91670000Y-72735000D01*
X96260000Y-71315000D02*
X93185000Y-71315000D01*
%TO.C,D2*%
X138755000Y-105060000D02*
X141855000Y-105060000D01*
X141855000Y-103140000D02*
X138755000Y-103140000D01*
X141855000Y-105060000D02*
X141855000Y-103140000D01*
%TO.C,R4*%
X102015000Y-86062064D02*
X102015000Y-85607936D01*
X103485000Y-86062064D02*
X103485000Y-85607936D01*
%TO.C,D4*%
X138250000Y-84810000D02*
X141350000Y-84810000D01*
X141350000Y-82890000D02*
X138250000Y-82890000D01*
X141350000Y-84810000D02*
X141350000Y-82890000D01*
%TO.C,U2*%
X158855000Y-94905000D02*
X155405000Y-94905000D01*
X158855000Y-94905000D02*
X160805000Y-94905000D01*
X158855000Y-105025000D02*
X156905000Y-105025000D01*
X158855000Y-105025000D02*
X160805000Y-105025000D01*
%TD*%
M02*
