G04 #@! TF.GenerationSoftware,KiCad,Pcbnew,9.0.1*
G04 #@! TF.CreationDate,2025-11-10T14:07:32+08:00*
G04 #@! TF.ProjectId,IMD_TSMS_latch_logic,494d445f-5453-44d5-935f-6c617463685f,rev?*
G04 #@! TF.SameCoordinates,Original*
G04 #@! TF.FileFunction,Soldermask,Bot*
G04 #@! TF.FilePolarity,Negative*
%FSLAX46Y46*%
G04 Gerber Fmt 4.6, Leading zero omitted, Abs format (unit mm)*
G04 Created by KiCad (PCBNEW 9.0.1) date 2025-11-10 14:07:32*
%MOMM*%
%LPD*%
G01*
G04 APERTURE LIST*
G04 Aperture macros list*
%AMRoundRect*
0 Rectangle with rounded corners*
0 $1 Rounding radius*
0 $2 $3 $4 $5 $6 $7 $8 $9 X,Y pos of 4 corners*
0 Add a 4 corners polygon primitive as box body*
4,1,4,$2,$3,$4,$5,$6,$7,$8,$9,$2,$3,0*
0 Add four circle primitives for the rounded corners*
1,1,$1+$1,$2,$3*
1,1,$1+$1,$4,$5*
1,1,$1+$1,$6,$7*
1,1,$1+$1,$8,$9*
0 Add four rect primitives between the rounded corners*
20,1,$1+$1,$2,$3,$4,$5,0*
20,1,$1+$1,$4,$5,$6,$7,0*
20,1,$1+$1,$6,$7,$8,$9,0*
20,1,$1+$1,$8,$9,$2,$3,0*%
G04 Aperture macros list end*
%ADD10O,2.020000X1.500000*%
%ADD11RoundRect,0.250001X0.759999X-0.499999X0.759999X0.499999X-0.759999X0.499999X-0.759999X-0.499999X0*%
%ADD12C,1.270000*%
%ADD13RoundRect,0.250000X0.337500X0.475000X-0.337500X0.475000X-0.337500X-0.475000X0.337500X-0.475000X0*%
%ADD14RoundRect,0.250000X0.450000X-0.350000X0.450000X0.350000X-0.450000X0.350000X-0.450000X-0.350000X0*%
%ADD15RoundRect,0.250000X-0.450000X0.350000X-0.450000X-0.350000X0.450000X-0.350000X0.450000X0.350000X0*%
%ADD16RoundRect,0.250000X-0.350000X-0.450000X0.350000X-0.450000X0.350000X0.450000X-0.350000X0.450000X0*%
%ADD17R,1.600000X1.600000*%
%ADD18C,1.600000*%
%ADD19C,4.300000*%
%ADD20C,3.000000*%
%ADD21C,2.500000*%
%ADD22RoundRect,0.250001X-0.759999X0.499999X-0.759999X-0.499999X0.759999X-0.499999X0.759999X0.499999X0*%
%ADD23RoundRect,0.250001X-0.499999X-0.759999X0.499999X-0.759999X0.499999X0.759999X-0.499999X0.759999X0*%
%ADD24O,1.500000X2.020000*%
G04 APERTURE END LIST*
D10*
X132435600Y-119075200D03*
D11*
X132435600Y-122075200D03*
D12*
X130475600Y-116075200D03*
X130475600Y-125075200D03*
D13*
X160502600Y-116179600D03*
X158427600Y-116179600D03*
D14*
X97250000Y-95750000D03*
X97250000Y-93750000D03*
D15*
X97250000Y-98500000D03*
X97250000Y-100500000D03*
D16*
X138602500Y-113067500D03*
X140602500Y-113067500D03*
X138852500Y-104067500D03*
X140852500Y-104067500D03*
X139005000Y-109600000D03*
X141005000Y-109600000D03*
X139005000Y-107100000D03*
X141005000Y-107100000D03*
X152416000Y-124002800D03*
X154416000Y-124002800D03*
D17*
X94000000Y-98000000D03*
D18*
X94000000Y-95500000D03*
D19*
X115000000Y-85000000D03*
D20*
X148755000Y-83350000D03*
D21*
X150705000Y-89400000D03*
D20*
X162905000Y-89400000D03*
X162955000Y-77350000D03*
D21*
X150705000Y-77400000D03*
D19*
X175502500Y-132120000D03*
D12*
X116960000Y-104500000D03*
X116960000Y-113500000D03*
D22*
X115000000Y-107500000D03*
D10*
X115000000Y-110500000D03*
D12*
X130540000Y-102750000D03*
X130540000Y-93750000D03*
D11*
X132500000Y-99750000D03*
D10*
X132500000Y-96750000D03*
D19*
X85000000Y-85000000D03*
D12*
X100000000Y-77125000D03*
X109000000Y-77125000D03*
D23*
X103000000Y-79085000D03*
D24*
X106000000Y-79085000D03*
D19*
X115000000Y-75370000D03*
D12*
X130545000Y-91600000D03*
X130545000Y-82600000D03*
D11*
X132505000Y-88600000D03*
D10*
X132505000Y-85600000D03*
D12*
X116875000Y-116000000D03*
X116875000Y-125000000D03*
D22*
X114915000Y-119000000D03*
D10*
X114915000Y-122000000D03*
D19*
X125502500Y-75370000D03*
X175502500Y-75370000D03*
X85000000Y-132000000D03*
D12*
X175797600Y-115005600D03*
X175797600Y-124005600D03*
D22*
X173837600Y-118005600D03*
D10*
X173837600Y-121005600D03*
D19*
X125502500Y-132120000D03*
D20*
X100000000Y-114000000D03*
D21*
X93950000Y-115950000D03*
D20*
X93950000Y-128150000D03*
X106000000Y-128200000D03*
D21*
X105950000Y-115950000D03*
D19*
X85000000Y-96000000D03*
X115000000Y-132000000D03*
D12*
X130545000Y-113600000D03*
X130545000Y-104600000D03*
D11*
X132505000Y-110600000D03*
D10*
X132505000Y-107600000D03*
D12*
X92290000Y-80750000D03*
X92290000Y-71750000D03*
D11*
X94250000Y-77750000D03*
D10*
X94250000Y-74750000D03*
D19*
X115000000Y-96000000D03*
X85000000Y-75370000D03*
M02*
