M48
; DRILL file {KiCad 9.0.2} date 2025-09-30T17:54:09+0800
; FORMAT={-:-/ absolute / metric / decimal}
; #@! TF.CreationDate,2025-09-30T17:54:09+08:00
; #@! TF.GenerationSoftware,Kicad,Pcbnew,9.0.2
; #@! TF.FileFunction,Plated,1,2,PTH
FMAT,2
METRIC
; #@! TA.AperFunction,Plated,PTH,ViaDrill
T1C0.300
; #@! TA.AperFunction,Plated,PTH,ComponentDrill
T2C0.800
; #@! TA.AperFunction,Plated,PTH,ComponentDrill
T3C1.000
; #@! TA.AperFunction,Plated,PTH,ComponentDrill
T4C1.020
; #@! TA.AperFunction,Plated,PTH,ComponentDrill
T5C1.300
%
G90
G05
T1
X89.5Y-104.0
X92.263Y-110.162
X95.75Y-96.0
X95.75Y-98.25
X97.805Y-103.35
X99.19Y-93.63
X100.1Y-84.385
X102.718Y-84.682
X104.0Y-105.25
X105.45Y-96.8
X105.5Y-101.25
X106.75Y-96.25
X109.243Y-98.716
X109.25Y-96.284
X109.25Y-109.216
X109.257Y-106.784
X138.125Y-77.5
X138.125Y-80.64
X138.74Y-107.08
X138.74Y-109.62
X140.727Y-113.067
X140.88Y-104.1
X140.903Y-93.282
X140.903Y-101.468
X142.5Y-95.25
X143.505Y-103.35
X143.505Y-116.1
X145.605Y-117.4
X148.27Y-107.08
X149.755Y-98.85
X149.78Y-96.79
X151.0Y-122.0
X152.186Y-93.357
X154.03Y-96.79
X154.755Y-109.965
X154.755Y-112.505
X156.602Y-117.567
X158.8Y-100.0
X158.907Y-117.567
X160.657Y-106.632
X160.755Y-123.6
X161.789Y-114.593
X161.971Y-93.357
X167.157Y-116.882
X167.221Y-121.85
T3
X93.95Y-115.95
X94.0Y-98.0
X105.95Y-115.95
X150.705Y-77.4
X150.705Y-89.4
T4
X94.25Y-74.75
X94.25Y-77.75
X103.0Y-79.085
X106.0Y-79.085
X114.915Y-119.0
X114.915Y-122.0
X115.0Y-107.5
X115.0Y-110.5
X132.438Y-119.132
X132.438Y-122.132
X132.5Y-96.75
X132.5Y-99.75
X132.505Y-85.6
X132.505Y-88.6
X132.505Y-107.6
X132.505Y-110.6
X172.795Y-118.85
X172.795Y-121.85
T5
X93.95Y-128.15
X100.0Y-114.0
X106.0Y-128.2
X148.755Y-83.35
X162.905Y-89.4
X162.955Y-77.35
T2
G00X94.0Y-95.6
M15
G01X94.0Y-94.4
M16
G05
M30
