M48
; DRILL file {KiCad 9.0.2} date 2025-09-30T17:54:09+0800
; FORMAT={-:-/ absolute / metric / decimal}
; #@! TF.CreationDate,2025-09-30T17:54:09+08:00
; #@! TF.GenerationSoftware,Kicad,Pcbnew,9.0.2
; #@! TF.FileFunction,NonPlated,1,2,NPTH
FMAT,2
METRIC
; #@! TA.AperFunction,NonPlated,NPTH,ComponentDrill
T1C1.270
; #@! TA.AperFunction,NonPlated,NPTH,ComponentDrill
T2C4.300
%
G90
G05
T1
X92.29Y-71.75
X92.29Y-80.75
X100.0Y-77.125
X109.0Y-77.125
X116.875Y-116.0
X116.875Y-125.0
X116.96Y-104.5
X116.96Y-113.5
X130.477Y-116.132
X130.477Y-125.132
X130.54Y-93.75
X130.54Y-102.75
X130.545Y-82.6
X130.545Y-91.6
X130.545Y-104.6
X130.545Y-113.6
X174.755Y-115.85
X174.755Y-124.85
T2
X85.0Y-75.37
X85.0Y-85.0
X85.0Y-96.0
X85.0Y-132.0
X115.0Y-75.37
X115.0Y-85.0
X115.0Y-96.0
X115.0Y-132.0
X125.502Y-75.37
X125.502Y-132.12
X175.502Y-75.37
X175.502Y-132.12
M30
