G04 #@! TF.GenerationSoftware,KiCad,Pcbnew,9.0.1*
G04 #@! TF.CreationDate,2025-11-10T14:07:32+08:00*
G04 #@! TF.ProjectId,IMD_TSMS_latch_logic,494d445f-5453-44d5-935f-6c617463685f,rev?*
G04 #@! TF.SameCoordinates,Original*
G04 #@! TF.FileFunction,Copper,L2,Bot*
G04 #@! TF.FilePolarity,Positive*
%FSLAX46Y46*%
G04 Gerber Fmt 4.6, Leading zero omitted, Abs format (unit mm)*
G04 Created by KiCad (PCBNEW 9.0.1) date 2025-11-10 14:07:32*
%MOMM*%
%LPD*%
G01*
G04 APERTURE LIST*
G04 Aperture macros list*
%AMRoundRect*
0 Rectangle with rounded corners*
0 $1 Rounding radius*
0 $2 $3 $4 $5 $6 $7 $8 $9 X,Y pos of 4 corners*
0 Add a 4 corners polygon primitive as box body*
4,1,4,$2,$3,$4,$5,$6,$7,$8,$9,$2,$3,0*
0 Add four circle primitives for the rounded corners*
1,1,$1+$1,$2,$3*
1,1,$1+$1,$4,$5*
1,1,$1+$1,$6,$7*
1,1,$1+$1,$8,$9*
0 Add four rect primitives between the rounded corners*
20,1,$1+$1,$2,$3,$4,$5,0*
20,1,$1+$1,$4,$5,$6,$7,0*
20,1,$1+$1,$6,$7,$8,$9,0*
20,1,$1+$1,$8,$9,$2,$3,0*%
G04 Aperture macros list end*
G04 #@! TA.AperFunction,ComponentPad*
%ADD10O,2.020000X1.500000*%
G04 #@! TD*
G04 #@! TA.AperFunction,ComponentPad*
%ADD11RoundRect,0.250001X0.759999X-0.499999X0.759999X0.499999X-0.759999X0.499999X-0.759999X-0.499999X0*%
G04 #@! TD*
G04 #@! TA.AperFunction,SMDPad,CuDef*
%ADD12RoundRect,0.250000X0.337500X0.475000X-0.337500X0.475000X-0.337500X-0.475000X0.337500X-0.475000X0*%
G04 #@! TD*
G04 #@! TA.AperFunction,SMDPad,CuDef*
%ADD13RoundRect,0.250000X0.450000X-0.350000X0.450000X0.350000X-0.450000X0.350000X-0.450000X-0.350000X0*%
G04 #@! TD*
G04 #@! TA.AperFunction,SMDPad,CuDef*
%ADD14RoundRect,0.250000X-0.450000X0.350000X-0.450000X-0.350000X0.450000X-0.350000X0.450000X0.350000X0*%
G04 #@! TD*
G04 #@! TA.AperFunction,SMDPad,CuDef*
%ADD15RoundRect,0.250000X-0.350000X-0.450000X0.350000X-0.450000X0.350000X0.450000X-0.350000X0.450000X0*%
G04 #@! TD*
G04 #@! TA.AperFunction,ComponentPad*
%ADD16R,1.600000X1.600000*%
G04 #@! TD*
G04 #@! TA.AperFunction,ComponentPad*
%ADD17C,1.600000*%
G04 #@! TD*
G04 #@! TA.AperFunction,ComponentPad*
%ADD18C,3.000000*%
G04 #@! TD*
G04 #@! TA.AperFunction,ComponentPad*
%ADD19C,2.500000*%
G04 #@! TD*
G04 #@! TA.AperFunction,ComponentPad*
%ADD20RoundRect,0.250001X-0.759999X0.499999X-0.759999X-0.499999X0.759999X-0.499999X0.759999X0.499999X0*%
G04 #@! TD*
G04 #@! TA.AperFunction,ComponentPad*
%ADD21RoundRect,0.250001X-0.499999X-0.759999X0.499999X-0.759999X0.499999X0.759999X-0.499999X0.759999X0*%
G04 #@! TD*
G04 #@! TA.AperFunction,ComponentPad*
%ADD22O,1.500000X2.020000*%
G04 #@! TD*
G04 #@! TA.AperFunction,ViaPad*
%ADD23C,0.600000*%
G04 #@! TD*
G04 #@! TA.AperFunction,Conductor*
%ADD24C,0.500000*%
G04 #@! TD*
G04 #@! TA.AperFunction,Conductor*
%ADD25C,0.250000*%
G04 #@! TD*
G04 #@! TA.AperFunction,Conductor*
%ADD26C,1.000000*%
G04 #@! TD*
G04 #@! TA.AperFunction,Conductor*
%ADD27C,2.000000*%
G04 #@! TD*
G04 APERTURE END LIST*
D10*
X132435600Y-119075200D03*
D11*
X132435600Y-122075200D03*
D12*
X160502600Y-116179600D03*
X158427600Y-116179600D03*
D13*
X97250000Y-95750000D03*
X97250000Y-93750000D03*
D14*
X97250000Y-98500000D03*
X97250000Y-100500000D03*
D15*
X138602500Y-113067500D03*
X140602500Y-113067500D03*
X138852500Y-104067500D03*
X140852500Y-104067500D03*
X139005000Y-109600000D03*
X141005000Y-109600000D03*
X139005000Y-107100000D03*
X141005000Y-107100000D03*
X152416000Y-124002800D03*
X154416000Y-124002800D03*
D16*
X94000000Y-98000000D03*
D17*
X94000000Y-95500000D03*
D18*
X148755000Y-83350000D03*
D19*
X150705000Y-89400000D03*
D18*
X162905000Y-89400000D03*
X162955000Y-77350000D03*
D19*
X150705000Y-77400000D03*
D20*
X115000000Y-107500000D03*
D10*
X115000000Y-110500000D03*
D11*
X132500000Y-99750000D03*
D10*
X132500000Y-96750000D03*
D21*
X103000000Y-79085000D03*
D22*
X106000000Y-79085000D03*
D11*
X132505000Y-88600000D03*
D10*
X132505000Y-85600000D03*
D20*
X114915000Y-119000000D03*
D10*
X114915000Y-122000000D03*
D20*
X173837600Y-118005600D03*
D10*
X173837600Y-121005600D03*
D18*
X100000000Y-114000000D03*
D19*
X93950000Y-115950000D03*
D18*
X93950000Y-128150000D03*
X106000000Y-128200000D03*
D19*
X105950000Y-115950000D03*
D11*
X132505000Y-110600000D03*
D10*
X132505000Y-107600000D03*
D11*
X94250000Y-77750000D03*
D10*
X94250000Y-74750000D03*
D23*
X156083000Y-116535200D03*
X162164800Y-116916200D03*
X155740100Y-123634500D03*
X146278600Y-121996200D03*
X100100000Y-84385000D03*
X102717500Y-84682500D03*
X92262500Y-110162500D03*
X154755000Y-112505000D03*
X140902500Y-101467500D03*
X104000000Y-105250000D03*
X89500000Y-104000000D03*
X109250000Y-96284400D03*
X95750000Y-98250000D03*
X158800000Y-100000000D03*
X99190000Y-93630000D03*
X149755000Y-98850000D03*
X95750000Y-96000000D03*
X140902500Y-93282500D03*
X105450000Y-96800000D03*
X109250000Y-109215600D03*
X97805000Y-103350000D03*
X154755000Y-109965000D03*
X109256900Y-106784400D03*
X152185600Y-93356900D03*
X109243100Y-98715600D03*
X160657500Y-106632500D03*
X161970600Y-93356900D03*
X142500000Y-95250000D03*
X148270000Y-107080000D03*
X143505000Y-103350000D03*
X143505000Y-116100000D03*
X154030000Y-96790000D03*
X149780000Y-96790000D03*
X138125000Y-80640000D03*
X138125000Y-77500000D03*
X138740000Y-107080000D03*
X106750000Y-96250000D03*
X105500000Y-101250000D03*
X138740000Y-109620000D03*
X140880000Y-104100000D03*
X140727500Y-113067500D03*
D24*
X152273000Y-123859800D02*
X152416000Y-124002800D01*
X152273000Y-120727000D02*
X152273000Y-123859800D01*
X155054300Y-124320300D02*
X155740100Y-123634500D01*
D25*
X155740100Y-123532900D02*
X155740100Y-123634500D01*
D24*
X154673300Y-124320300D02*
X155054300Y-124320300D01*
X167740200Y-118007000D02*
X173795400Y-118007000D01*
X164084000Y-114350800D02*
X167740200Y-118007000D01*
X164084000Y-114249200D02*
X164084000Y-114350800D01*
X160680400Y-114249200D02*
X164084000Y-114249200D01*
X158427600Y-116179600D02*
X156438600Y-116179600D01*
X156438600Y-116179600D02*
X156083000Y-116535200D01*
X161428200Y-116179600D02*
X162164800Y-116916200D01*
X160502600Y-116179600D02*
X161428200Y-116179600D01*
X160502600Y-114427000D02*
X160502600Y-116179600D01*
X160680400Y-114249200D02*
X160502600Y-114427000D01*
X154127200Y-114249200D02*
X160680400Y-114249200D01*
X152273000Y-120727000D02*
X152273000Y-116103400D01*
X151000000Y-122000000D02*
X152273000Y-120727000D01*
X149814800Y-122000000D02*
X151000000Y-122000000D01*
X146278600Y-121996200D02*
X149811000Y-121996200D01*
X146525000Y-107080000D02*
X148270000Y-107080000D01*
X145605000Y-108000000D02*
X146525000Y-107080000D01*
X145605000Y-121355000D02*
X145605000Y-108000000D01*
X146274800Y-122000000D02*
X146250000Y-122000000D01*
X152273000Y-116103400D02*
X154127200Y-114249200D01*
X146278600Y-121996200D02*
X146274800Y-122000000D01*
X149811000Y-121996200D02*
X149814800Y-122000000D01*
X146250000Y-122000000D02*
X145605000Y-121355000D01*
X109256900Y-98729400D02*
X109243100Y-98715600D01*
X109256900Y-106784400D02*
X95284400Y-106784400D01*
X148270000Y-107080000D02*
X149985000Y-107080000D01*
X152185600Y-93356900D02*
X161970600Y-93356900D01*
X161970600Y-100384400D02*
X161970600Y-93356900D01*
X160657500Y-101697500D02*
X161970600Y-100384400D01*
X160657500Y-106632500D02*
X160657500Y-101697500D01*
X149985000Y-107080000D02*
X152870000Y-109965000D01*
X142500000Y-95250000D02*
X144393100Y-93356900D01*
X109256900Y-106784400D02*
X109256900Y-98729400D01*
X93750000Y-100750000D02*
X93750000Y-98250000D01*
D26*
X109972500Y-107500000D02*
X109256900Y-106784400D01*
D24*
X97217500Y-100652500D02*
X93847500Y-100652500D01*
X93750000Y-98250000D02*
X94000000Y-98000000D01*
X93847500Y-100652500D02*
X93750000Y-100750000D01*
X160657500Y-109447500D02*
X160657500Y-106632500D01*
X154755000Y-109965000D02*
X160140000Y-109965000D01*
D26*
X109972500Y-107500000D02*
X115000000Y-107500000D01*
D24*
X152870000Y-109965000D02*
X154755000Y-109965000D01*
X93750000Y-105250000D02*
X93750000Y-100750000D01*
X160140000Y-109965000D02*
X160657500Y-109447500D01*
X95284400Y-106784400D02*
X93750000Y-105250000D01*
X144393100Y-93356900D02*
X152185600Y-93356900D01*
X94000000Y-95000000D02*
X93750000Y-95000000D01*
X95402500Y-93597500D02*
X94000000Y-95000000D01*
X97282500Y-93597500D02*
X95402500Y-93597500D01*
X143505000Y-116100000D02*
X143505000Y-103350000D01*
X97282500Y-95902500D02*
X97282500Y-98282500D01*
X97282500Y-98282500D02*
X97217500Y-98347500D01*
X149780000Y-96790000D02*
X154030000Y-96790000D01*
D27*
X137400000Y-83350000D02*
X138000000Y-83350000D01*
X135750000Y-85000000D02*
X137400000Y-83350000D01*
X135750000Y-87750000D02*
X135750000Y-85000000D01*
D24*
X138000000Y-83350000D02*
X138125000Y-83225000D01*
D27*
X132505000Y-88600000D02*
X134900000Y-88600000D01*
X138000000Y-83350000D02*
X148755000Y-83350000D01*
X134900000Y-88600000D02*
X135750000Y-87750000D01*
D24*
X138125000Y-83225000D02*
X138125000Y-80640000D01*
D27*
X132505000Y-75495000D02*
X134000000Y-74000000D01*
D24*
X138125000Y-74125000D02*
X138125000Y-77500000D01*
D27*
X159605000Y-74000000D02*
X162955000Y-77350000D01*
X138000000Y-74000000D02*
X159605000Y-74000000D01*
D24*
X138000000Y-74000000D02*
X138125000Y-74125000D01*
D27*
X132505000Y-85600000D02*
X132505000Y-75495000D01*
X134000000Y-74000000D02*
X138000000Y-74000000D01*
D24*
X137500000Y-96750000D02*
X132500000Y-96750000D01*
X150705000Y-89400000D02*
X139350000Y-89400000D01*
X138500000Y-90250000D02*
X138500000Y-95750000D01*
X139350000Y-89400000D02*
X138500000Y-90250000D01*
X138500000Y-95750000D02*
X137500000Y-96750000D01*
D25*
X138792500Y-107132500D02*
X138740000Y-107080000D01*
X138852500Y-107132500D02*
X138792500Y-107132500D01*
D27*
X100000000Y-117500000D02*
X101500000Y-119000000D01*
X101500000Y-119000000D02*
X114915000Y-119000000D01*
X100000000Y-114000000D02*
X100000000Y-117500000D01*
D24*
X106750000Y-100000000D02*
X105500000Y-101250000D01*
X106750000Y-96250000D02*
X106750000Y-100000000D01*
D25*
X138752500Y-109632500D02*
X138740000Y-109620000D01*
X138852500Y-109632500D02*
X138752500Y-109632500D01*
X141005000Y-104100000D02*
X140880000Y-104100000D01*
X140755000Y-113100000D02*
X140755000Y-113095000D01*
X140755000Y-113095000D02*
X140727500Y-113067500D01*
D27*
X106000000Y-123500000D02*
X106000000Y-128200000D01*
X114915000Y-122000000D02*
X107500000Y-122000000D01*
X107500000Y-122000000D02*
X106000000Y-123500000D01*
G04 #@! TA.AperFunction,Conductor*
G36*
X96069965Y-94367685D02*
G01*
X96110299Y-94413862D01*
X96111395Y-94413187D01*
X96115185Y-94419331D01*
X96115186Y-94419334D01*
X96207288Y-94568656D01*
X96207289Y-94568657D01*
X96300951Y-94662319D01*
X96334436Y-94723642D01*
X96329452Y-94793334D01*
X96300951Y-94837681D01*
X96207289Y-94931342D01*
X96115187Y-95080663D01*
X96115186Y-95080666D01*
X96060001Y-95247203D01*
X96060001Y-95247204D01*
X96060000Y-95247204D01*
X96049500Y-95349983D01*
X96049500Y-96150001D01*
X96049501Y-96150019D01*
X96060000Y-96252796D01*
X96060001Y-96252799D01*
X96091289Y-96347219D01*
X96115186Y-96419334D01*
X96207288Y-96568656D01*
X96331344Y-96692712D01*
X96473097Y-96780145D01*
X96519821Y-96832091D01*
X96532000Y-96885683D01*
X96532000Y-97364316D01*
X96512315Y-97431355D01*
X96473098Y-97469853D01*
X96425212Y-97499390D01*
X96331342Y-97557289D01*
X96207289Y-97681342D01*
X96115187Y-97830663D01*
X96115186Y-97830666D01*
X96060001Y-97997203D01*
X96060001Y-97997204D01*
X96060000Y-97997204D01*
X96049500Y-98099983D01*
X96049500Y-98900001D01*
X96049501Y-98900019D01*
X96060000Y-99002796D01*
X96060001Y-99002799D01*
X96076809Y-99053520D01*
X96115186Y-99169334D01*
X96192136Y-99294091D01*
X96207289Y-99318657D01*
X96300951Y-99412319D01*
X96334436Y-99473642D01*
X96329452Y-99543334D01*
X96300951Y-99587681D01*
X96207289Y-99681342D01*
X96207288Y-99681344D01*
X96115899Y-99829511D01*
X96111395Y-99836813D01*
X96110273Y-99836121D01*
X96069140Y-99882842D01*
X96002926Y-99902000D01*
X94624500Y-99902000D01*
X94557461Y-99882315D01*
X94511706Y-99829511D01*
X94500500Y-99778000D01*
X94500500Y-99424499D01*
X94520185Y-99357460D01*
X94572989Y-99311705D01*
X94624500Y-99300499D01*
X94847871Y-99300499D01*
X94847872Y-99300499D01*
X94907483Y-99294091D01*
X95042331Y-99243796D01*
X95157546Y-99157546D01*
X95243796Y-99042331D01*
X95294091Y-98907483D01*
X95300500Y-98847873D01*
X95300499Y-97152128D01*
X95294091Y-97092517D01*
X95275557Y-97042826D01*
X95243797Y-96957671D01*
X95243793Y-96957664D01*
X95157547Y-96842455D01*
X95157544Y-96842452D01*
X95042335Y-96756206D01*
X95042328Y-96756202D01*
X94907479Y-96705907D01*
X94901959Y-96704603D01*
X94841244Y-96670029D01*
X94808859Y-96608118D01*
X94815086Y-96538527D01*
X94844984Y-96496621D01*
X94843774Y-96495411D01*
X94882012Y-96457173D01*
X94991966Y-96347219D01*
X94991968Y-96347215D01*
X94991971Y-96347213D01*
X95048090Y-96269970D01*
X95112287Y-96181610D01*
X95205220Y-95999219D01*
X95268477Y-95804534D01*
X95300500Y-95602352D01*
X95300500Y-95397648D01*
X95292952Y-95349991D01*
X95268477Y-95195465D01*
X95253801Y-95150300D01*
X95205220Y-95000781D01*
X95205217Y-95000775D01*
X95205216Y-95000772D01*
X95197302Y-94985240D01*
X95184404Y-94916572D01*
X95210679Y-94851831D01*
X95220095Y-94841271D01*
X95677048Y-94384319D01*
X95703975Y-94369615D01*
X95729794Y-94353023D01*
X95735994Y-94352131D01*
X95738371Y-94350834D01*
X95764729Y-94348000D01*
X96002926Y-94348000D01*
X96069965Y-94367685D01*
G37*
G04 #@! TD.AperFunction*
G04 #@! TA.AperFunction,Conductor*
G36*
X119493441Y-70640185D02*
G01*
X119539196Y-70692989D01*
X119549140Y-70762147D01*
X119536335Y-70799140D01*
X119536720Y-70799300D01*
X119534044Y-70805759D01*
X119533787Y-70806504D01*
X119533608Y-70806812D01*
X119499500Y-70934108D01*
X119499500Y-79815891D01*
X119533608Y-79943187D01*
X119565137Y-79997795D01*
X119599500Y-80057314D01*
X119599502Y-80057316D01*
X119692687Y-80150501D01*
X119694158Y-80151630D01*
X119695083Y-80152897D01*
X119698433Y-80156247D01*
X119697910Y-80156769D01*
X119735356Y-80208060D01*
X119739506Y-80277807D01*
X119705289Y-80338725D01*
X119694158Y-80348370D01*
X119692687Y-80349498D01*
X119599502Y-80442683D01*
X119599500Y-80442686D01*
X119533608Y-80556812D01*
X119499500Y-80684108D01*
X119499500Y-89137097D01*
X119479815Y-89204136D01*
X119427011Y-89249891D01*
X119357853Y-89259835D01*
X119343410Y-89256873D01*
X119327713Y-89252667D01*
X119315892Y-89249500D01*
X99315892Y-89249500D01*
X99184108Y-89249500D01*
X99056812Y-89283608D01*
X98942686Y-89349500D01*
X98942683Y-89349502D01*
X98849502Y-89442683D01*
X98849500Y-89442686D01*
X98783608Y-89556812D01*
X98783473Y-89557316D01*
X98749500Y-89684108D01*
X98749500Y-90315892D01*
X98761117Y-90359248D01*
X98783608Y-90443187D01*
X98816121Y-90499500D01*
X98849500Y-90557314D01*
X98942686Y-90650500D01*
X99056814Y-90716392D01*
X99184108Y-90750500D01*
X99184110Y-90750500D01*
X119315890Y-90750500D01*
X119315892Y-90750500D01*
X119359251Y-90738882D01*
X119429097Y-90740543D01*
X119486961Y-90779705D01*
X119514466Y-90843933D01*
X119511118Y-90890749D01*
X119499500Y-90934108D01*
X119499500Y-113065891D01*
X119533608Y-113193187D01*
X119561622Y-113241708D01*
X119599500Y-113307314D01*
X119692686Y-113400500D01*
X119806814Y-113466392D01*
X119934108Y-113500500D01*
X119934110Y-113500500D01*
X120716290Y-113500500D01*
X120716292Y-113500500D01*
X120843586Y-113466392D01*
X120957714Y-113400500D01*
X121050900Y-113307314D01*
X121116792Y-113193186D01*
X121150900Y-113065892D01*
X121150900Y-112567513D01*
X137502500Y-112567513D01*
X137502500Y-112817500D01*
X138352500Y-112817500D01*
X138352500Y-111867500D01*
X138852500Y-111867500D01*
X138852500Y-114267499D01*
X139002472Y-114267499D01*
X139002486Y-114267498D01*
X139105197Y-114257005D01*
X139271619Y-114201858D01*
X139271624Y-114201856D01*
X139420842Y-114109817D01*
X139514464Y-114016195D01*
X139575787Y-113982710D01*
X139645479Y-113987694D01*
X139689827Y-114016195D01*
X139783844Y-114110212D01*
X139933166Y-114202314D01*
X140099703Y-114257499D01*
X140202491Y-114268000D01*
X141002508Y-114267999D01*
X141002516Y-114267998D01*
X141002519Y-114267998D01*
X141058802Y-114262248D01*
X141105297Y-114257499D01*
X141271834Y-114202314D01*
X141421156Y-114110212D01*
X141545212Y-113986156D01*
X141637314Y-113836834D01*
X141692499Y-113670297D01*
X141703000Y-113567509D01*
X141702999Y-112567492D01*
X141692499Y-112464703D01*
X141637314Y-112298166D01*
X141545212Y-112148844D01*
X141421156Y-112024788D01*
X141271834Y-111932686D01*
X141105297Y-111877501D01*
X141105295Y-111877500D01*
X141002510Y-111867000D01*
X140202498Y-111867000D01*
X140202480Y-111867001D01*
X140099703Y-111877500D01*
X140099700Y-111877501D01*
X139933168Y-111932685D01*
X139933163Y-111932687D01*
X139783845Y-112024787D01*
X139689827Y-112118805D01*
X139628503Y-112152289D01*
X139558812Y-112147305D01*
X139514465Y-112118804D01*
X139420845Y-112025184D01*
X139271624Y-111933143D01*
X139271619Y-111933141D01*
X139105197Y-111877994D01*
X139105190Y-111877993D01*
X139002486Y-111867500D01*
X138852500Y-111867500D01*
X138352500Y-111867500D01*
X138202527Y-111867500D01*
X138202512Y-111867501D01*
X138099802Y-111877994D01*
X137933380Y-111933141D01*
X137933375Y-111933143D01*
X137784154Y-112025184D01*
X137660184Y-112149154D01*
X137568143Y-112298375D01*
X137568141Y-112298380D01*
X137512994Y-112464802D01*
X137512993Y-112464809D01*
X137502500Y-112567513D01*
X121150900Y-112567513D01*
X121150900Y-110049984D01*
X130994500Y-110049984D01*
X130994500Y-111150015D01*
X131005000Y-111252795D01*
X131005001Y-111252796D01*
X131060186Y-111419335D01*
X131060187Y-111419337D01*
X131152286Y-111568651D01*
X131152289Y-111568655D01*
X131276344Y-111692710D01*
X131276348Y-111692713D01*
X131425662Y-111784812D01*
X131425664Y-111784813D01*
X131425666Y-111784814D01*
X131592203Y-111839999D01*
X131694992Y-111850500D01*
X131694997Y-111850500D01*
X133315003Y-111850500D01*
X133315008Y-111850500D01*
X133417797Y-111839999D01*
X133584334Y-111784814D01*
X133733655Y-111692711D01*
X133857711Y-111568655D01*
X133949814Y-111419334D01*
X134004999Y-111252797D01*
X134015500Y-111150008D01*
X134015500Y-110049992D01*
X134004999Y-109947203D01*
X133949814Y-109780666D01*
X133902838Y-109704507D01*
X133857713Y-109631348D01*
X133857710Y-109631344D01*
X133733655Y-109507289D01*
X133733651Y-109507286D01*
X133584337Y-109415187D01*
X133584335Y-109415186D01*
X133501065Y-109387593D01*
X133417797Y-109360001D01*
X133417795Y-109360000D01*
X133315015Y-109349500D01*
X133315008Y-109349500D01*
X131694992Y-109349500D01*
X131694984Y-109349500D01*
X131592204Y-109360000D01*
X131592203Y-109360001D01*
X131425664Y-109415186D01*
X131425662Y-109415187D01*
X131276348Y-109507286D01*
X131276344Y-109507289D01*
X131152289Y-109631344D01*
X131152286Y-109631348D01*
X131060187Y-109780662D01*
X131060186Y-109780664D01*
X131005001Y-109947203D01*
X131005000Y-109947204D01*
X130994500Y-110049984D01*
X121150900Y-110049984D01*
X121150900Y-107501577D01*
X130994500Y-107501577D01*
X130994500Y-107698422D01*
X131025290Y-107892826D01*
X131086117Y-108080029D01*
X131166413Y-108237617D01*
X131175476Y-108255405D01*
X131291172Y-108414646D01*
X131430354Y-108553828D01*
X131589595Y-108669524D01*
X131619600Y-108684812D01*
X131764970Y-108758882D01*
X131764972Y-108758882D01*
X131764975Y-108758884D01*
X131865317Y-108791487D01*
X131952173Y-108819709D01*
X132146578Y-108850500D01*
X132146583Y-108850500D01*
X132863422Y-108850500D01*
X133057826Y-108819709D01*
X133245025Y-108758884D01*
X133420405Y-108669524D01*
X133579646Y-108553828D01*
X133718828Y-108414646D01*
X133834524Y-108255405D01*
X133923884Y-108080025D01*
X133984709Y-107892826D01*
X133986661Y-107880499D01*
X134015500Y-107698422D01*
X134015500Y-107501577D01*
X133984709Y-107307173D01*
X133923882Y-107119970D01*
X133837276Y-106949997D01*
X133834524Y-106944595D01*
X133718828Y-106785354D01*
X133579646Y-106646172D01*
X133516073Y-106599983D01*
X137904500Y-106599983D01*
X137904500Y-107600001D01*
X137904501Y-107600019D01*
X137915000Y-107702796D01*
X137915001Y-107702799D01*
X137970185Y-107869331D01*
X137970187Y-107869336D01*
X137977073Y-107880500D01*
X138062288Y-108018656D01*
X138186344Y-108142712D01*
X138335666Y-108234814D01*
X138335667Y-108234814D01*
X138335670Y-108234816D01*
X138341677Y-108237617D01*
X138394117Y-108283788D01*
X138413271Y-108350981D01*
X138393057Y-108417862D01*
X138341677Y-108462383D01*
X138335670Y-108465183D01*
X138186342Y-108557289D01*
X138062289Y-108681342D01*
X137970187Y-108830663D01*
X137970185Y-108830668D01*
X137942349Y-108914670D01*
X137915001Y-108997203D01*
X137915001Y-108997204D01*
X137915000Y-108997204D01*
X137904500Y-109099983D01*
X137904500Y-110100001D01*
X137904501Y-110100019D01*
X137915000Y-110202796D01*
X137915001Y-110202799D01*
X137970115Y-110369119D01*
X137970186Y-110369334D01*
X138062288Y-110518656D01*
X138186344Y-110642712D01*
X138335666Y-110734814D01*
X138502203Y-110789999D01*
X138604991Y-110800500D01*
X139405008Y-110800499D01*
X139405016Y-110800498D01*
X139405019Y-110800498D01*
X139481199Y-110792716D01*
X139507797Y-110789999D01*
X139674334Y-110734814D01*
X139823656Y-110642712D01*
X139917675Y-110548692D01*
X139978994Y-110515210D01*
X140048686Y-110520194D01*
X140093034Y-110548695D01*
X140186654Y-110642315D01*
X140335875Y-110734356D01*
X140335880Y-110734358D01*
X140502302Y-110789505D01*
X140502309Y-110789506D01*
X140605019Y-110799999D01*
X140754999Y-110799999D01*
X141255000Y-110799999D01*
X141404972Y-110799999D01*
X141404986Y-110799998D01*
X141507697Y-110789505D01*
X141674119Y-110734358D01*
X141674124Y-110734356D01*
X141823345Y-110642315D01*
X141947315Y-110518345D01*
X142039356Y-110369124D01*
X142039358Y-110369119D01*
X142094505Y-110202697D01*
X142094506Y-110202690D01*
X142104999Y-110099986D01*
X142105000Y-110099973D01*
X142105000Y-109850000D01*
X141255000Y-109850000D01*
X141255000Y-110799999D01*
X140754999Y-110799999D01*
X140755000Y-110799998D01*
X140755000Y-109350000D01*
X141255000Y-109350000D01*
X142104999Y-109350000D01*
X142104999Y-109100028D01*
X142104998Y-109100013D01*
X142094505Y-108997302D01*
X142039358Y-108830880D01*
X142039356Y-108830875D01*
X141947315Y-108681654D01*
X141823345Y-108557684D01*
X141674124Y-108465643D01*
X141667579Y-108462592D01*
X141668894Y-108459771D01*
X141622915Y-108427947D01*
X141596083Y-108363435D01*
X141608388Y-108294657D01*
X141655924Y-108243451D01*
X141667855Y-108238001D01*
X141667579Y-108237408D01*
X141674124Y-108234356D01*
X141823345Y-108142315D01*
X141947315Y-108018345D01*
X142039356Y-107869124D01*
X142039358Y-107869119D01*
X142094505Y-107702697D01*
X142094506Y-107702690D01*
X142104999Y-107599986D01*
X142105000Y-107599973D01*
X142105000Y-107350000D01*
X141255000Y-107350000D01*
X141255000Y-109350000D01*
X140755000Y-109350000D01*
X140755000Y-106850000D01*
X141255000Y-106850000D01*
X142104999Y-106850000D01*
X142104999Y-106600028D01*
X142104998Y-106600013D01*
X142094505Y-106497302D01*
X142039358Y-106330880D01*
X142039356Y-106330875D01*
X141947315Y-106181654D01*
X141823345Y-106057684D01*
X141674124Y-105965643D01*
X141674119Y-105965641D01*
X141507697Y-105910494D01*
X141507690Y-105910493D01*
X141404986Y-105900000D01*
X141255000Y-105900000D01*
X141255000Y-106850000D01*
X140755000Y-106850000D01*
X140755000Y-105900000D01*
X140605027Y-105900000D01*
X140605012Y-105900001D01*
X140502302Y-105910494D01*
X140335880Y-105965641D01*
X140335875Y-105965643D01*
X140186657Y-106057682D01*
X140093034Y-106151305D01*
X140031710Y-106184789D01*
X139962019Y-106179805D01*
X139917672Y-106151304D01*
X139823657Y-106057289D01*
X139823656Y-106057288D01*
X139674334Y-105965186D01*
X139507797Y-105910001D01*
X139507795Y-105910000D01*
X139405010Y-105899500D01*
X138604998Y-105899500D01*
X138604980Y-105899501D01*
X138502203Y-105910000D01*
X138502200Y-105910001D01*
X138335668Y-105965185D01*
X138335663Y-105965187D01*
X138186342Y-106057289D01*
X138062289Y-106181342D01*
X137970187Y-106330663D01*
X137970185Y-106330668D01*
X137970115Y-106330880D01*
X137915001Y-106497203D01*
X137915001Y-106497204D01*
X137915000Y-106497204D01*
X137904500Y-106599983D01*
X133516073Y-106599983D01*
X133420405Y-106530476D01*
X133359611Y-106499500D01*
X133245029Y-106441117D01*
X133057826Y-106380290D01*
X132863422Y-106349500D01*
X132863417Y-106349500D01*
X132146583Y-106349500D01*
X132146578Y-106349500D01*
X131952173Y-106380290D01*
X131764970Y-106441117D01*
X131589594Y-106530476D01*
X131498741Y-106596485D01*
X131430354Y-106646172D01*
X131430352Y-106646174D01*
X131430351Y-106646174D01*
X131291174Y-106785351D01*
X131291174Y-106785352D01*
X131291172Y-106785354D01*
X131246236Y-106847203D01*
X131175476Y-106944594D01*
X131086117Y-107119970D01*
X131025290Y-107307173D01*
X130994500Y-107501577D01*
X121150900Y-107501577D01*
X121150900Y-102662781D01*
X129654500Y-102662781D01*
X129654500Y-102837218D01*
X129688527Y-103008283D01*
X129688529Y-103008291D01*
X129755278Y-103169439D01*
X129755283Y-103169448D01*
X129852186Y-103314473D01*
X129852189Y-103314477D01*
X129975522Y-103437810D01*
X129975526Y-103437813D01*
X130120551Y-103534716D01*
X130120564Y-103534723D01*
X130185147Y-103561474D01*
X130239551Y-103605315D01*
X130261616Y-103671609D01*
X130244337Y-103739308D01*
X130193200Y-103786919D01*
X130185149Y-103790596D01*
X130125558Y-103815280D01*
X130125551Y-103815283D01*
X129980526Y-103912186D01*
X129980522Y-103912189D01*
X129857189Y-104035522D01*
X129857186Y-104035526D01*
X129760283Y-104180551D01*
X129760278Y-104180560D01*
X129693529Y-104341708D01*
X129693527Y-104341716D01*
X129659500Y-104512781D01*
X129659500Y-104687218D01*
X129693527Y-104858283D01*
X129693529Y-104858291D01*
X129760278Y-105019439D01*
X129760283Y-105019448D01*
X129857186Y-105164473D01*
X129857189Y-105164477D01*
X129980522Y-105287810D01*
X129980526Y-105287813D01*
X130125551Y-105384716D01*
X130125560Y-105384721D01*
X130127441Y-105385500D01*
X130286709Y-105451471D01*
X130457781Y-105485499D01*
X130457785Y-105485500D01*
X130457786Y-105485500D01*
X130632215Y-105485500D01*
X130632216Y-105485499D01*
X130803291Y-105451471D01*
X130964442Y-105384720D01*
X131109474Y-105287813D01*
X131232813Y-105164474D01*
X131329720Y-105019442D01*
X131396471Y-104858291D01*
X131430500Y-104687214D01*
X131430500Y-104567486D01*
X137752501Y-104567486D01*
X137762994Y-104670197D01*
X137818141Y-104836619D01*
X137818143Y-104836624D01*
X137910184Y-104985845D01*
X138034154Y-105109815D01*
X138183375Y-105201856D01*
X138183380Y-105201858D01*
X138349802Y-105257005D01*
X138349809Y-105257006D01*
X138452519Y-105267499D01*
X138602499Y-105267499D01*
X138602500Y-105267498D01*
X138602500Y-104317500D01*
X137752501Y-104317500D01*
X137752501Y-104567486D01*
X131430500Y-104567486D01*
X131430500Y-104512786D01*
X131396471Y-104341709D01*
X131360987Y-104256043D01*
X131329721Y-104180560D01*
X131329716Y-104180551D01*
X131232813Y-104035526D01*
X131232810Y-104035522D01*
X131109477Y-103912189D01*
X131109473Y-103912186D01*
X130964448Y-103815283D01*
X130964438Y-103815278D01*
X130899851Y-103788525D01*
X130888672Y-103779516D01*
X130875117Y-103774786D01*
X130862010Y-103758031D01*
X130845448Y-103744684D01*
X130840914Y-103731061D01*
X130832068Y-103719753D01*
X130830100Y-103698572D01*
X130823383Y-103678389D01*
X130826933Y-103664477D01*
X130825606Y-103650183D01*
X130835400Y-103631303D01*
X130840662Y-103610690D01*
X130851780Y-103599731D01*
X130857782Y-103588163D01*
X130876501Y-103575365D01*
X130884469Y-103567513D01*
X137752500Y-103567513D01*
X137752500Y-103817500D01*
X138602500Y-103817500D01*
X138602500Y-102867500D01*
X139102500Y-102867500D01*
X139102500Y-105267499D01*
X139252472Y-105267499D01*
X139252486Y-105267498D01*
X139355197Y-105257005D01*
X139521619Y-105201858D01*
X139521624Y-105201856D01*
X139670842Y-105109817D01*
X139764464Y-105016195D01*
X139825787Y-104982710D01*
X139895479Y-104987694D01*
X139939827Y-105016195D01*
X140033844Y-105110212D01*
X140183166Y-105202314D01*
X140349703Y-105257499D01*
X140452491Y-105268000D01*
X141252508Y-105267999D01*
X141252516Y-105267998D01*
X141252519Y-105267998D01*
X141308802Y-105262248D01*
X141355297Y-105257499D01*
X141521834Y-105202314D01*
X141671156Y-105110212D01*
X141795212Y-104986156D01*
X141887314Y-104836834D01*
X141942499Y-104670297D01*
X141953000Y-104567509D01*
X141952999Y-103567492D01*
X141942499Y-103464703D01*
X141887314Y-103298166D01*
X141870652Y-103271153D01*
X142704500Y-103271153D01*
X142704500Y-103428846D01*
X142735261Y-103583489D01*
X142735263Y-103583497D01*
X142745061Y-103607151D01*
X142754500Y-103654604D01*
X142754500Y-115795396D01*
X142745062Y-115842844D01*
X142735263Y-115866503D01*
X142735262Y-115866506D01*
X142735260Y-115866511D01*
X142704500Y-116021153D01*
X142704500Y-116178846D01*
X142735261Y-116333489D01*
X142735264Y-116333501D01*
X142795602Y-116479172D01*
X142795609Y-116479185D01*
X142883210Y-116610288D01*
X142883213Y-116610292D01*
X142994707Y-116721786D01*
X142994711Y-116721789D01*
X143125814Y-116809390D01*
X143125827Y-116809397D01*
X143247802Y-116859920D01*
X143271503Y-116869737D01*
X143426153Y-116900499D01*
X143426156Y-116900500D01*
X143426158Y-116900500D01*
X143583844Y-116900500D01*
X143583845Y-116900499D01*
X143738497Y-116869737D01*
X143884179Y-116809394D01*
X144015289Y-116721789D01*
X144126789Y-116610289D01*
X144214394Y-116479179D01*
X144274737Y-116333497D01*
X144305500Y-116178842D01*
X144305500Y-116021158D01*
X144305500Y-116021155D01*
X144305499Y-116021153D01*
X144274739Y-115866511D01*
X144274738Y-115866508D01*
X144274737Y-115866503D01*
X144264937Y-115842844D01*
X144255500Y-115795396D01*
X144255500Y-103654604D01*
X144264939Y-103607151D01*
X144274737Y-103583497D01*
X144305500Y-103428842D01*
X144305500Y-103271158D01*
X144305500Y-103271155D01*
X144305499Y-103271153D01*
X144285267Y-103169442D01*
X144274737Y-103116503D01*
X144236748Y-103024788D01*
X144214397Y-102970827D01*
X144214390Y-102970814D01*
X144126789Y-102839711D01*
X144126786Y-102839707D01*
X144015292Y-102728213D01*
X144015288Y-102728210D01*
X143884185Y-102640609D01*
X143884172Y-102640602D01*
X143738501Y-102580264D01*
X143738489Y-102580261D01*
X143583845Y-102549500D01*
X143583842Y-102549500D01*
X143426158Y-102549500D01*
X143426155Y-102549500D01*
X143271510Y-102580261D01*
X143271498Y-102580264D01*
X143125827Y-102640602D01*
X143125814Y-102640609D01*
X142994711Y-102728210D01*
X142994707Y-102728213D01*
X142883213Y-102839707D01*
X142883210Y-102839711D01*
X142795609Y-102970814D01*
X142795602Y-102970827D01*
X142735264Y-103116498D01*
X142735261Y-103116510D01*
X142704500Y-103271153D01*
X141870652Y-103271153D01*
X141795212Y-103148844D01*
X141671156Y-103024788D01*
X141521834Y-102932686D01*
X141355297Y-102877501D01*
X141355295Y-102877500D01*
X141252510Y-102867000D01*
X140452498Y-102867000D01*
X140452480Y-102867001D01*
X140349703Y-102877500D01*
X140349700Y-102877501D01*
X140183168Y-102932685D01*
X140183163Y-102932687D01*
X140033845Y-103024787D01*
X139939827Y-103118805D01*
X139878503Y-103152289D01*
X139808812Y-103147305D01*
X139764465Y-103118804D01*
X139670845Y-103025184D01*
X139521624Y-102933143D01*
X139521619Y-102933141D01*
X139355197Y-102877994D01*
X139355190Y-102877993D01*
X139252486Y-102867500D01*
X139102500Y-102867500D01*
X138602500Y-102867500D01*
X138452527Y-102867500D01*
X138452512Y-102867501D01*
X138349802Y-102877994D01*
X138183380Y-102933141D01*
X138183375Y-102933143D01*
X138034154Y-103025184D01*
X137910184Y-103149154D01*
X137818143Y-103298375D01*
X137818141Y-103298380D01*
X137762994Y-103464802D01*
X137762993Y-103464809D01*
X137752500Y-103567513D01*
X130884469Y-103567513D01*
X130885581Y-103566417D01*
X130892485Y-103562454D01*
X130959442Y-103534720D01*
X131104474Y-103437813D01*
X131227813Y-103314474D01*
X131324720Y-103169442D01*
X131391471Y-103008291D01*
X131425500Y-102837214D01*
X131425500Y-102662786D01*
X131391471Y-102491709D01*
X131324720Y-102330558D01*
X131324719Y-102330557D01*
X131324716Y-102330551D01*
X131227813Y-102185526D01*
X131227810Y-102185522D01*
X131104477Y-102062189D01*
X131104473Y-102062186D01*
X130959448Y-101965283D01*
X130959439Y-101965278D01*
X130798291Y-101898529D01*
X130798283Y-101898527D01*
X130627218Y-101864500D01*
X130627214Y-101864500D01*
X130452786Y-101864500D01*
X130452781Y-101864500D01*
X130281716Y-101898527D01*
X130281708Y-101898529D01*
X130120560Y-101965278D01*
X130120551Y-101965283D01*
X129975526Y-102062186D01*
X129975522Y-102062189D01*
X129852189Y-102185522D01*
X129852186Y-102185526D01*
X129755283Y-102330551D01*
X129755278Y-102330560D01*
X129688529Y-102491708D01*
X129688527Y-102491716D01*
X129654500Y-102662781D01*
X121150900Y-102662781D01*
X121150900Y-99199984D01*
X130989500Y-99199984D01*
X130989500Y-100300015D01*
X131000000Y-100402795D01*
X131000001Y-100402796D01*
X131055186Y-100569335D01*
X131055187Y-100569337D01*
X131147286Y-100718651D01*
X131147289Y-100718655D01*
X131271344Y-100842710D01*
X131271348Y-100842713D01*
X131420662Y-100934812D01*
X131420664Y-100934813D01*
X131420666Y-100934814D01*
X131587203Y-100989999D01*
X131689992Y-101000500D01*
X131689997Y-101000500D01*
X133310003Y-101000500D01*
X133310008Y-101000500D01*
X133412797Y-100989999D01*
X133579334Y-100934814D01*
X133728655Y-100842711D01*
X133852711Y-100718655D01*
X133944814Y-100569334D01*
X133999999Y-100402797D01*
X134010500Y-100300008D01*
X134010500Y-99199992D01*
X133999999Y-99097203D01*
X133944814Y-98930666D01*
X133930514Y-98907483D01*
X133852713Y-98781348D01*
X133852710Y-98781344D01*
X133728655Y-98657289D01*
X133728651Y-98657286D01*
X133579337Y-98565187D01*
X133579335Y-98565186D01*
X133496065Y-98537593D01*
X133412797Y-98510001D01*
X133412795Y-98510000D01*
X133310015Y-98499500D01*
X133310008Y-98499500D01*
X131689992Y-98499500D01*
X131689984Y-98499500D01*
X131587204Y-98510000D01*
X131587203Y-98510001D01*
X131420664Y-98565186D01*
X131420662Y-98565187D01*
X131271348Y-98657286D01*
X131271344Y-98657289D01*
X131147289Y-98781344D01*
X131147286Y-98781348D01*
X131055187Y-98930662D01*
X131055186Y-98930664D01*
X131000001Y-99097203D01*
X131000000Y-99097204D01*
X130989500Y-99199984D01*
X121150900Y-99199984D01*
X121150900Y-96651577D01*
X130989500Y-96651577D01*
X130989500Y-96848422D01*
X131020290Y-97042826D01*
X131081117Y-97230029D01*
X131163284Y-97391289D01*
X131170476Y-97405405D01*
X131286172Y-97564646D01*
X131425354Y-97703828D01*
X131584595Y-97819524D01*
X131667455Y-97861743D01*
X131759970Y-97908882D01*
X131759972Y-97908882D01*
X131759975Y-97908884D01*
X131860317Y-97941487D01*
X131947173Y-97969709D01*
X132141578Y-98000500D01*
X132141583Y-98000500D01*
X132858422Y-98000500D01*
X133052826Y-97969709D01*
X133080128Y-97960838D01*
X133240025Y-97908884D01*
X133415405Y-97819524D01*
X133574646Y-97703828D01*
X133713828Y-97564646D01*
X133723297Y-97551612D01*
X133778628Y-97508948D01*
X133823614Y-97500500D01*
X137573920Y-97500500D01*
X137671462Y-97481096D01*
X137718913Y-97471658D01*
X137855495Y-97415084D01*
X137928259Y-97366465D01*
X137978416Y-97332952D01*
X138526554Y-96784814D01*
X138600215Y-96711153D01*
X148979500Y-96711153D01*
X148979500Y-96868846D01*
X149010261Y-97023489D01*
X149010264Y-97023501D01*
X149070602Y-97169172D01*
X149070609Y-97169185D01*
X149158210Y-97300288D01*
X149158213Y-97300292D01*
X149269707Y-97411786D01*
X149269711Y-97411789D01*
X149400814Y-97499390D01*
X149400827Y-97499397D01*
X149540593Y-97557289D01*
X149546503Y-97559737D01*
X149701153Y-97590499D01*
X149701156Y-97590500D01*
X149701158Y-97590500D01*
X149858844Y-97590500D01*
X149858845Y-97590499D01*
X149935152Y-97575320D01*
X150013488Y-97559739D01*
X150013489Y-97559738D01*
X150013497Y-97559737D01*
X150037155Y-97549937D01*
X150084604Y-97540500D01*
X153725396Y-97540500D01*
X153772844Y-97549937D01*
X153796503Y-97559737D01*
X153796508Y-97559738D01*
X153796511Y-97559739D01*
X153951153Y-97590499D01*
X153951156Y-97590500D01*
X153951158Y-97590500D01*
X154108844Y-97590500D01*
X154108845Y-97590499D01*
X154263497Y-97559737D01*
X154383706Y-97509945D01*
X154409172Y-97499397D01*
X154409172Y-97499396D01*
X154409179Y-97499394D01*
X154540289Y-97411789D01*
X154651789Y-97300289D01*
X154739394Y-97169179D01*
X154799737Y-97023497D01*
X154830500Y-96868842D01*
X154830500Y-96711158D01*
X154830500Y-96711155D01*
X154830499Y-96711153D01*
X154829456Y-96705909D01*
X154799737Y-96556503D01*
X154779295Y-96507151D01*
X154739397Y-96410827D01*
X154739390Y-96410814D01*
X154651789Y-96279711D01*
X154651786Y-96279707D01*
X154540292Y-96168213D01*
X154540288Y-96168210D01*
X154409185Y-96080609D01*
X154409172Y-96080602D01*
X154263501Y-96020264D01*
X154263489Y-96020261D01*
X154108845Y-95989500D01*
X154108842Y-95989500D01*
X153951158Y-95989500D01*
X153951155Y-95989500D01*
X153796511Y-96020260D01*
X153796506Y-96020262D01*
X153796504Y-96020262D01*
X153796503Y-96020263D01*
X153772844Y-96030062D01*
X153725396Y-96039500D01*
X150084604Y-96039500D01*
X150037155Y-96030062D01*
X150013497Y-96020263D01*
X150013493Y-96020262D01*
X150013488Y-96020260D01*
X149858845Y-95989500D01*
X149858842Y-95989500D01*
X149701158Y-95989500D01*
X149701155Y-95989500D01*
X149546510Y-96020261D01*
X149546498Y-96020264D01*
X149400827Y-96080602D01*
X149400814Y-96080609D01*
X149269711Y-96168210D01*
X149269707Y-96168213D01*
X149158213Y-96279707D01*
X149158210Y-96279711D01*
X149070609Y-96410814D01*
X149070602Y-96410827D01*
X149010264Y-96556498D01*
X149010261Y-96556510D01*
X148979500Y-96711153D01*
X138600215Y-96711153D01*
X138693983Y-96617385D01*
X138982525Y-96328842D01*
X139082952Y-96228415D01*
X139110205Y-96187627D01*
X139165084Y-96105495D01*
X139201946Y-96016503D01*
X139221659Y-95968912D01*
X139250500Y-95823917D01*
X139250500Y-95676082D01*
X139250500Y-95171153D01*
X141699500Y-95171153D01*
X141699500Y-95328846D01*
X141730261Y-95483489D01*
X141730264Y-95483501D01*
X141790602Y-95629172D01*
X141790609Y-95629185D01*
X141878210Y-95760288D01*
X141878213Y-95760292D01*
X141989707Y-95871786D01*
X141989711Y-95871789D01*
X142120814Y-95959390D01*
X142120827Y-95959397D01*
X142216977Y-95999223D01*
X142266503Y-96019737D01*
X142365858Y-96039500D01*
X142421153Y-96050499D01*
X142421156Y-96050500D01*
X142421158Y-96050500D01*
X142578844Y-96050500D01*
X142578845Y-96050499D01*
X142733497Y-96019737D01*
X142879179Y-95959394D01*
X143010289Y-95871789D01*
X143121789Y-95760289D01*
X143209394Y-95629179D01*
X143219191Y-95605524D01*
X143246069Y-95565297D01*
X144667649Y-94143719D01*
X144728972Y-94110234D01*
X144755330Y-94107400D01*
X151880996Y-94107400D01*
X151928444Y-94116837D01*
X151952103Y-94126637D01*
X151952108Y-94126638D01*
X151952111Y-94126639D01*
X152106753Y-94157399D01*
X152106756Y-94157400D01*
X152106758Y-94157400D01*
X152264444Y-94157400D01*
X152264445Y-94157399D01*
X152340752Y-94142220D01*
X152419088Y-94126639D01*
X152419089Y-94126638D01*
X152419097Y-94126637D01*
X152442755Y-94116837D01*
X152490204Y-94107400D01*
X161096100Y-94107400D01*
X161163139Y-94127085D01*
X161208894Y-94179889D01*
X161220100Y-94231400D01*
X161220100Y-100022169D01*
X161200415Y-100089208D01*
X161183781Y-100109850D01*
X160074550Y-101219080D01*
X160074544Y-101219088D01*
X160025312Y-101292768D01*
X160025313Y-101292769D01*
X159992421Y-101341996D01*
X159992414Y-101342008D01*
X159935842Y-101478586D01*
X159935840Y-101478592D01*
X159907000Y-101623579D01*
X159907000Y-106327896D01*
X159897562Y-106375344D01*
X159895514Y-106380291D01*
X159887762Y-106399006D01*
X159887760Y-106399011D01*
X159857000Y-106553653D01*
X159857000Y-106711346D01*
X159887761Y-106865989D01*
X159887763Y-106865997D01*
X159897561Y-106889651D01*
X159907000Y-106937104D01*
X159907000Y-109085270D01*
X159898355Y-109114710D01*
X159891832Y-109144697D01*
X159888077Y-109149712D01*
X159887315Y-109152309D01*
X159870681Y-109172951D01*
X159865451Y-109178181D01*
X159804128Y-109211666D01*
X159777770Y-109214500D01*
X155059604Y-109214500D01*
X155012155Y-109205062D01*
X154988497Y-109195263D01*
X154988493Y-109195262D01*
X154988488Y-109195260D01*
X154833845Y-109164500D01*
X154833842Y-109164500D01*
X154676158Y-109164500D01*
X154676155Y-109164500D01*
X154521511Y-109195260D01*
X154521506Y-109195262D01*
X154521504Y-109195262D01*
X154521503Y-109195263D01*
X154497844Y-109205062D01*
X154450396Y-109214500D01*
X153232229Y-109214500D01*
X153165190Y-109194815D01*
X153144548Y-109178181D01*
X150463421Y-106497052D01*
X150463414Y-106497046D01*
X150389729Y-106447812D01*
X150389729Y-106447813D01*
X150340491Y-106414913D01*
X150203917Y-106358343D01*
X150203907Y-106358340D01*
X150058920Y-106329500D01*
X150058918Y-106329500D01*
X148574604Y-106329500D01*
X148527155Y-106320062D01*
X148503497Y-106310263D01*
X148503493Y-106310262D01*
X148503488Y-106310260D01*
X148348845Y-106279500D01*
X148348842Y-106279500D01*
X148191158Y-106279500D01*
X148191155Y-106279500D01*
X148036511Y-106310260D01*
X148036506Y-106310262D01*
X148036504Y-106310262D01*
X148036503Y-106310263D01*
X148012844Y-106320062D01*
X147965396Y-106329500D01*
X146451080Y-106329500D01*
X146306092Y-106358340D01*
X146306082Y-106358343D01*
X146169511Y-106414912D01*
X146169498Y-106414919D01*
X146046584Y-106497048D01*
X146046580Y-106497051D01*
X145022048Y-107521583D01*
X145000825Y-107553346D01*
X144979743Y-107584900D01*
X144969641Y-107600019D01*
X144939916Y-107644504D01*
X144939912Y-107644511D01*
X144883343Y-107781082D01*
X144883340Y-107781092D01*
X144854500Y-107926079D01*
X144854500Y-107926082D01*
X144854500Y-121428918D01*
X144854500Y-121428920D01*
X144854499Y-121428920D01*
X144883340Y-121573907D01*
X144883343Y-121573917D01*
X144939914Y-121710492D01*
X144972812Y-121759727D01*
X144972813Y-121759730D01*
X145022046Y-121833414D01*
X145022052Y-121833421D01*
X145571030Y-122382398D01*
X145586451Y-122401188D01*
X145656810Y-122506489D01*
X145768307Y-122617986D01*
X145768311Y-122617989D01*
X145899414Y-122705590D01*
X145899427Y-122705597D01*
X146008609Y-122750821D01*
X146045103Y-122765937D01*
X146148143Y-122786433D01*
X146199753Y-122796699D01*
X146199756Y-122796700D01*
X146199758Y-122796700D01*
X146357444Y-122796700D01*
X146357445Y-122796699D01*
X146433922Y-122781487D01*
X146512088Y-122765939D01*
X146512089Y-122765938D01*
X146512097Y-122765937D01*
X146535755Y-122756137D01*
X146583204Y-122746700D01*
X149709566Y-122746700D01*
X149733756Y-122749082D01*
X149740882Y-122750500D01*
X149740883Y-122750500D01*
X149740884Y-122750500D01*
X151073920Y-122750500D01*
X151187050Y-122727996D01*
X151218913Y-122721658D01*
X151351048Y-122666925D01*
X151383675Y-122663418D01*
X151416147Y-122658749D01*
X151418234Y-122659702D01*
X151420517Y-122659457D01*
X151449860Y-122674145D01*
X151479703Y-122687774D01*
X151480943Y-122689704D01*
X151482996Y-122690732D01*
X151499736Y-122718947D01*
X151517477Y-122746552D01*
X151517912Y-122749581D01*
X151518648Y-122750821D01*
X151522500Y-122781487D01*
X151522500Y-122983570D01*
X151502815Y-123050609D01*
X151486181Y-123071251D01*
X151473289Y-123084142D01*
X151381187Y-123233463D01*
X151381185Y-123233468D01*
X151372389Y-123260013D01*
X151326001Y-123400003D01*
X151326001Y-123400004D01*
X151326000Y-123400004D01*
X151315500Y-123502783D01*
X151315500Y-124502801D01*
X151315501Y-124502819D01*
X151326000Y-124605596D01*
X151326001Y-124605599D01*
X151342623Y-124655760D01*
X151381186Y-124772134D01*
X151473288Y-124921456D01*
X151597344Y-125045512D01*
X151746666Y-125137614D01*
X151913203Y-125192799D01*
X152015991Y-125203300D01*
X152816008Y-125203299D01*
X152816016Y-125203298D01*
X152816019Y-125203298D01*
X152872302Y-125197548D01*
X152918797Y-125192799D01*
X153085334Y-125137614D01*
X153234656Y-125045512D01*
X153328319Y-124951849D01*
X153389642Y-124918364D01*
X153459334Y-124923348D01*
X153503681Y-124951849D01*
X153597344Y-125045512D01*
X153746666Y-125137614D01*
X153913203Y-125192799D01*
X154015991Y-125203300D01*
X154816008Y-125203299D01*
X154816016Y-125203298D01*
X154816019Y-125203298D01*
X154872302Y-125197548D01*
X154918797Y-125192799D01*
X155085334Y-125137614D01*
X155205801Y-125063308D01*
X155246705Y-125047230D01*
X155273213Y-125041958D01*
X155409795Y-124985384D01*
X155459029Y-124952486D01*
X155459983Y-124951849D01*
X155505469Y-124921457D01*
X155532716Y-124903252D01*
X156055397Y-124380569D01*
X156095622Y-124353692D01*
X156119279Y-124343894D01*
X156250389Y-124256289D01*
X156361889Y-124144789D01*
X156449494Y-124013679D01*
X156488967Y-123918381D01*
X174912100Y-123918381D01*
X174912100Y-124092818D01*
X174946127Y-124263883D01*
X174946129Y-124263891D01*
X175012878Y-124425039D01*
X175012883Y-124425048D01*
X175109786Y-124570073D01*
X175109789Y-124570077D01*
X175233122Y-124693410D01*
X175233126Y-124693413D01*
X175378151Y-124790316D01*
X175378157Y-124790319D01*
X175378158Y-124790320D01*
X175539309Y-124857071D01*
X175710381Y-124891099D01*
X175710385Y-124891100D01*
X175710386Y-124891100D01*
X175884815Y-124891100D01*
X175884816Y-124891099D01*
X176055891Y-124857071D01*
X176217042Y-124790320D01*
X176362074Y-124693413D01*
X176485413Y-124570074D01*
X176582320Y-124425042D01*
X176649071Y-124263891D01*
X176683100Y-124092814D01*
X176683100Y-123918386D01*
X176649071Y-123747309D01*
X176582320Y-123586158D01*
X176582319Y-123586157D01*
X176582316Y-123586151D01*
X176485413Y-123441126D01*
X176485410Y-123441122D01*
X176362077Y-123317789D01*
X176362073Y-123317786D01*
X176217048Y-123220883D01*
X176217039Y-123220878D01*
X176055891Y-123154129D01*
X176055883Y-123154127D01*
X175884818Y-123120100D01*
X175884814Y-123120100D01*
X175710386Y-123120100D01*
X175710381Y-123120100D01*
X175539316Y-123154127D01*
X175539308Y-123154129D01*
X175378160Y-123220878D01*
X175378151Y-123220883D01*
X175233126Y-123317786D01*
X175233122Y-123317789D01*
X175109789Y-123441122D01*
X175109786Y-123441126D01*
X175012883Y-123586151D01*
X175012878Y-123586160D01*
X174946129Y-123747308D01*
X174946127Y-123747316D01*
X174912100Y-123918381D01*
X156488967Y-123918381D01*
X156509837Y-123867997D01*
X156540600Y-123713342D01*
X156540600Y-123555658D01*
X156540600Y-123555655D01*
X156540599Y-123555653D01*
X156509838Y-123401010D01*
X156509837Y-123401003D01*
X156478646Y-123325700D01*
X156449497Y-123255327D01*
X156449490Y-123255314D01*
X156361889Y-123124211D01*
X156361886Y-123124207D01*
X156250392Y-123012713D01*
X156250388Y-123012710D01*
X156119285Y-122925109D01*
X156119272Y-122925102D01*
X155973601Y-122864764D01*
X155973589Y-122864761D01*
X155818945Y-122834000D01*
X155818942Y-122834000D01*
X155661258Y-122834000D01*
X155661255Y-122834000D01*
X155506610Y-122864761D01*
X155506598Y-122864764D01*
X155360928Y-122925102D01*
X155360912Y-122925111D01*
X155339298Y-122939553D01*
X155272620Y-122960430D01*
X155205313Y-122941989D01*
X155085340Y-122867989D01*
X155085335Y-122867987D01*
X155085334Y-122867986D01*
X154918797Y-122812801D01*
X154918795Y-122812800D01*
X154816010Y-122802300D01*
X154015998Y-122802300D01*
X154015980Y-122802301D01*
X153913203Y-122812800D01*
X153913200Y-122812801D01*
X153746668Y-122867985D01*
X153746663Y-122867987D01*
X153597342Y-122960089D01*
X153503681Y-123053751D01*
X153442358Y-123087236D01*
X153372666Y-123082252D01*
X153328319Y-123053751D01*
X153234657Y-122960089D01*
X153234656Y-122960088D01*
X153085334Y-122867986D01*
X153082403Y-122866178D01*
X153035679Y-122814230D01*
X153023500Y-122760639D01*
X153023500Y-120755600D01*
X172351616Y-120755600D01*
X173393040Y-120755600D01*
X173362355Y-120808747D01*
X173327600Y-120938457D01*
X173327600Y-121072743D01*
X173362355Y-121202453D01*
X173393040Y-121255600D01*
X172351616Y-121255600D01*
X172358381Y-121298316D01*
X172419181Y-121485437D01*
X172508504Y-121660743D01*
X172624155Y-121819921D01*
X172763278Y-121959044D01*
X172922456Y-122074695D01*
X173097764Y-122164018D01*
X173284894Y-122224821D01*
X173479218Y-122255600D01*
X173587600Y-122255600D01*
X173587600Y-121450160D01*
X173640747Y-121480845D01*
X173770457Y-121515600D01*
X173904743Y-121515600D01*
X174034453Y-121480845D01*
X174087600Y-121450160D01*
X174087600Y-122255600D01*
X174195982Y-122255600D01*
X174390305Y-122224821D01*
X174577435Y-122164018D01*
X174752743Y-122074695D01*
X174911921Y-121959044D01*
X175051044Y-121819921D01*
X175166695Y-121660743D01*
X175256018Y-121485437D01*
X175316818Y-121298316D01*
X175323584Y-121255600D01*
X174282160Y-121255600D01*
X174312845Y-121202453D01*
X174347600Y-121072743D01*
X174347600Y-120938457D01*
X174312845Y-120808747D01*
X174282160Y-120755600D01*
X175323584Y-120755600D01*
X175316818Y-120712883D01*
X175256018Y-120525762D01*
X175166695Y-120350456D01*
X175051044Y-120191278D01*
X174911921Y-120052155D01*
X174752743Y-119936504D01*
X174577435Y-119847181D01*
X174390305Y-119786378D01*
X174195982Y-119755600D01*
X174087600Y-119755600D01*
X174087600Y-120561039D01*
X174034453Y-120530355D01*
X173904743Y-120495600D01*
X173770457Y-120495600D01*
X173640747Y-120530355D01*
X173587600Y-120561039D01*
X173587600Y-119755600D01*
X173479218Y-119755600D01*
X173284894Y-119786378D01*
X173097764Y-119847181D01*
X172922456Y-119936504D01*
X172763278Y-120052155D01*
X172624155Y-120191278D01*
X172508504Y-120350456D01*
X172419181Y-120525762D01*
X172358381Y-120712883D01*
X172351616Y-120755600D01*
X153023500Y-120755600D01*
X153023500Y-116704586D01*
X157340101Y-116704586D01*
X157350594Y-116807297D01*
X157405741Y-116973719D01*
X157405743Y-116973724D01*
X157497784Y-117122945D01*
X157621754Y-117246915D01*
X157770975Y-117338956D01*
X157770980Y-117338958D01*
X157937402Y-117394105D01*
X157937409Y-117394106D01*
X158040119Y-117404599D01*
X158177599Y-117404599D01*
X158177600Y-117404598D01*
X158177600Y-116429600D01*
X157340101Y-116429600D01*
X157340101Y-116704586D01*
X153023500Y-116704586D01*
X153023500Y-116465630D01*
X153032144Y-116436189D01*
X153038668Y-116406203D01*
X153042422Y-116401187D01*
X153043185Y-116398591D01*
X153059819Y-116377949D01*
X154401749Y-115036019D01*
X154463072Y-115002534D01*
X154489430Y-114999700D01*
X157434977Y-114999700D01*
X157502016Y-115019385D01*
X157547771Y-115072189D01*
X157557715Y-115141347D01*
X157528690Y-115204903D01*
X157522658Y-115211381D01*
X157497784Y-115236254D01*
X157405743Y-115385475D01*
X157405741Y-115385480D01*
X157350594Y-115551902D01*
X157350593Y-115551909D01*
X157340100Y-115654613D01*
X157340100Y-115929600D01*
X158303600Y-115929600D01*
X158370639Y-115949285D01*
X158416394Y-116002089D01*
X158427600Y-116053600D01*
X158427600Y-116179600D01*
X158553600Y-116179600D01*
X158620639Y-116199285D01*
X158666394Y-116252089D01*
X158677600Y-116303600D01*
X158677600Y-117404599D01*
X158815072Y-117404599D01*
X158815086Y-117404598D01*
X158917797Y-117394105D01*
X159084219Y-117338958D01*
X159084224Y-117338956D01*
X159233445Y-117246915D01*
X159357418Y-117122942D01*
X159359265Y-117119948D01*
X159361069Y-117118324D01*
X159361898Y-117117277D01*
X159362076Y-117117418D01*
X159411210Y-117073221D01*
X159480173Y-117061996D01*
X159544256Y-117089836D01*
X159570343Y-117119941D01*
X159572388Y-117123256D01*
X159696444Y-117247312D01*
X159845766Y-117339414D01*
X160012303Y-117394599D01*
X160115091Y-117405100D01*
X160890108Y-117405099D01*
X160890116Y-117405098D01*
X160890119Y-117405098D01*
X160946402Y-117399348D01*
X160992897Y-117394599D01*
X161159434Y-117339414D01*
X161288093Y-117260056D01*
X161355484Y-117241616D01*
X161422148Y-117262538D01*
X161456291Y-117296704D01*
X161543010Y-117426488D01*
X161543013Y-117426492D01*
X161654507Y-117537986D01*
X161654511Y-117537989D01*
X161785614Y-117625590D01*
X161785627Y-117625597D01*
X161894150Y-117670548D01*
X161931303Y-117685937D01*
X162085742Y-117716657D01*
X162085953Y-117716699D01*
X162085956Y-117716700D01*
X162085958Y-117716700D01*
X162243644Y-117716700D01*
X162243645Y-117716699D01*
X162398297Y-117685937D01*
X162543979Y-117625594D01*
X162675089Y-117537989D01*
X162786589Y-117426489D01*
X162874194Y-117295379D01*
X162934537Y-117149697D01*
X162965300Y-116995042D01*
X162965300Y-116837358D01*
X162965300Y-116837355D01*
X162965299Y-116837353D01*
X162954830Y-116784721D01*
X162934537Y-116682703D01*
X162904544Y-116610292D01*
X162874197Y-116537027D01*
X162874190Y-116537014D01*
X162786589Y-116405911D01*
X162786586Y-116405907D01*
X162675092Y-116294413D01*
X162675088Y-116294410D01*
X162543985Y-116206809D01*
X162543975Y-116206804D01*
X162520323Y-116197007D01*
X162480095Y-116170127D01*
X161906621Y-115596652D01*
X161906614Y-115596646D01*
X161832929Y-115547412D01*
X161832929Y-115547413D01*
X161783691Y-115514513D01*
X161647115Y-115457942D01*
X161647110Y-115457941D01*
X161611405Y-115450838D01*
X161549494Y-115418451D01*
X161533040Y-115398918D01*
X161526009Y-115388573D01*
X161524914Y-115385266D01*
X161432812Y-115235944D01*
X161399958Y-115203090D01*
X161393371Y-115193397D01*
X161386115Y-115170846D01*
X161374764Y-115150058D01*
X161375611Y-115138201D01*
X161371971Y-115126886D01*
X161378058Y-115103995D01*
X161379748Y-115080366D01*
X161386872Y-115070848D01*
X161389927Y-115059363D01*
X161407423Y-115043396D01*
X161421620Y-115024433D01*
X161432756Y-115020279D01*
X161441538Y-115012266D01*
X161464891Y-115008293D01*
X161487084Y-115000016D01*
X161495930Y-114999700D01*
X163620170Y-114999700D01*
X163687209Y-115019385D01*
X163707851Y-115036019D01*
X165492619Y-116820786D01*
X167261785Y-118589952D01*
X167285629Y-118605883D01*
X167298542Y-118614512D01*
X167298545Y-118614513D01*
X167302573Y-118617205D01*
X167384705Y-118672084D01*
X167441280Y-118695518D01*
X167521288Y-118728659D01*
X167637441Y-118751763D01*
X167656668Y-118755587D01*
X167666281Y-118757500D01*
X167666282Y-118757500D01*
X167666283Y-118757500D01*
X167814118Y-118757500D01*
X172282344Y-118757500D01*
X172349383Y-118777185D01*
X172386870Y-118820097D01*
X172388994Y-118818787D01*
X172484886Y-118974251D01*
X172484889Y-118974255D01*
X172608944Y-119098310D01*
X172608948Y-119098313D01*
X172758262Y-119190412D01*
X172758264Y-119190413D01*
X172758266Y-119190414D01*
X172924803Y-119245599D01*
X173027592Y-119256100D01*
X173027597Y-119256100D01*
X174647603Y-119256100D01*
X174647608Y-119256100D01*
X174750397Y-119245599D01*
X174916934Y-119190414D01*
X175066255Y-119098311D01*
X175190311Y-118974255D01*
X175282414Y-118824934D01*
X175337599Y-118658397D01*
X175348100Y-118555608D01*
X175348100Y-117455592D01*
X175337599Y-117352803D01*
X175282414Y-117186266D01*
X175281274Y-117184418D01*
X175190313Y-117036948D01*
X175190310Y-117036944D01*
X175066255Y-116912889D01*
X175066251Y-116912886D01*
X174916937Y-116820787D01*
X174916935Y-116820786D01*
X174808082Y-116784716D01*
X174750397Y-116765601D01*
X174750395Y-116765600D01*
X174647615Y-116755100D01*
X174647608Y-116755100D01*
X173027592Y-116755100D01*
X173027584Y-116755100D01*
X172924804Y-116765600D01*
X172924803Y-116765601D01*
X172758264Y-116820786D01*
X172758262Y-116820787D01*
X172608948Y-116912886D01*
X172608944Y-116912889D01*
X172484889Y-117036944D01*
X172484886Y-117036948D01*
X172388994Y-117192413D01*
X172387577Y-117191539D01*
X172347254Y-117237340D01*
X172281039Y-117256500D01*
X168102429Y-117256500D01*
X168035390Y-117236815D01*
X168014748Y-117220181D01*
X165794543Y-114999975D01*
X165712949Y-114918381D01*
X174912100Y-114918381D01*
X174912100Y-115092818D01*
X174946127Y-115263883D01*
X174946129Y-115263891D01*
X175012878Y-115425039D01*
X175012883Y-115425048D01*
X175109786Y-115570073D01*
X175109789Y-115570077D01*
X175233122Y-115693410D01*
X175233126Y-115693413D01*
X175378151Y-115790316D01*
X175378160Y-115790321D01*
X175414666Y-115805442D01*
X175539309Y-115857071D01*
X175677115Y-115884482D01*
X175710381Y-115891099D01*
X175710385Y-115891100D01*
X175710386Y-115891100D01*
X175884815Y-115891100D01*
X175884816Y-115891099D01*
X176055891Y-115857071D01*
X176217042Y-115790320D01*
X176362074Y-115693413D01*
X176485413Y-115570074D01*
X176582320Y-115425042D01*
X176649071Y-115263891D01*
X176683100Y-115092814D01*
X176683100Y-114918386D01*
X176649071Y-114747309D01*
X176582320Y-114586158D01*
X176582319Y-114586157D01*
X176582316Y-114586151D01*
X176485413Y-114441126D01*
X176485410Y-114441122D01*
X176362077Y-114317789D01*
X176362073Y-114317786D01*
X176217048Y-114220883D01*
X176217039Y-114220878D01*
X176055891Y-114154129D01*
X176055883Y-114154127D01*
X175884818Y-114120100D01*
X175884814Y-114120100D01*
X175710386Y-114120100D01*
X175710381Y-114120100D01*
X175539316Y-114154127D01*
X175539308Y-114154129D01*
X175378160Y-114220878D01*
X175378151Y-114220883D01*
X175233126Y-114317786D01*
X175233122Y-114317789D01*
X175109789Y-114441122D01*
X175109786Y-114441126D01*
X175012883Y-114586151D01*
X175012878Y-114586160D01*
X174946129Y-114747308D01*
X174946127Y-114747316D01*
X174912100Y-114918381D01*
X165712949Y-114918381D01*
X164809524Y-114014956D01*
X164782644Y-113974727D01*
X164749087Y-113893712D01*
X164749086Y-113893711D01*
X164749084Y-113893705D01*
X164732491Y-113868872D01*
X164666954Y-113770788D01*
X164666948Y-113770780D01*
X164562419Y-113666251D01*
X164562415Y-113666248D01*
X164439501Y-113584119D01*
X164439488Y-113584112D01*
X164302917Y-113527543D01*
X164302907Y-113527540D01*
X164157920Y-113498700D01*
X164157918Y-113498700D01*
X160754318Y-113498700D01*
X154053282Y-113498700D01*
X154053280Y-113498700D01*
X153908292Y-113527540D01*
X153908286Y-113527542D01*
X153771708Y-113584114D01*
X153771699Y-113584119D01*
X153767068Y-113587213D01*
X153767069Y-113587214D01*
X153648779Y-113666251D01*
X151690049Y-115624981D01*
X151644325Y-115693412D01*
X151644326Y-115693413D01*
X151607914Y-115747908D01*
X151551343Y-115884482D01*
X151551340Y-115884492D01*
X151522500Y-116029479D01*
X151522500Y-120364770D01*
X151502815Y-120431809D01*
X151486181Y-120452451D01*
X150725451Y-121213181D01*
X150664128Y-121246666D01*
X150637770Y-121249500D01*
X149916234Y-121249500D01*
X149892043Y-121247117D01*
X149884918Y-121245700D01*
X149884916Y-121245700D01*
X146608430Y-121245700D01*
X146578989Y-121237055D01*
X146549003Y-121230532D01*
X146543987Y-121226777D01*
X146541391Y-121226015D01*
X146520749Y-121209381D01*
X146391819Y-121080451D01*
X146358334Y-121019128D01*
X146355500Y-120992770D01*
X146355500Y-108362229D01*
X146375185Y-108295190D01*
X146391819Y-108274548D01*
X146799548Y-107866819D01*
X146860871Y-107833334D01*
X146887229Y-107830500D01*
X147965396Y-107830500D01*
X148012844Y-107839937D01*
X148036503Y-107849737D01*
X148036508Y-107849738D01*
X148036511Y-107849739D01*
X148191153Y-107880499D01*
X148191156Y-107880500D01*
X148191158Y-107880500D01*
X148348844Y-107880500D01*
X148348845Y-107880499D01*
X148425152Y-107865320D01*
X148503488Y-107849739D01*
X148503489Y-107849738D01*
X148503497Y-107849737D01*
X148527155Y-107839937D01*
X148574604Y-107830500D01*
X149622770Y-107830500D01*
X149689809Y-107850185D01*
X149710451Y-107866819D01*
X151008133Y-109164500D01*
X152287049Y-110443416D01*
X152358843Y-110515210D01*
X152391585Y-110547952D01*
X152514498Y-110630080D01*
X152514511Y-110630087D01*
X152651082Y-110686656D01*
X152651087Y-110686658D01*
X152651091Y-110686658D01*
X152651092Y-110686659D01*
X152796079Y-110715500D01*
X152796082Y-110715500D01*
X152796083Y-110715500D01*
X152943917Y-110715500D01*
X154450396Y-110715500D01*
X154497844Y-110724937D01*
X154521503Y-110734737D01*
X154521508Y-110734738D01*
X154521511Y-110734739D01*
X154676153Y-110765499D01*
X154676156Y-110765500D01*
X154676158Y-110765500D01*
X154833844Y-110765500D01*
X154833845Y-110765499D01*
X154911765Y-110750000D01*
X154988488Y-110734739D01*
X154988489Y-110734738D01*
X154988497Y-110734737D01*
X155012155Y-110724937D01*
X155059604Y-110715500D01*
X160213920Y-110715500D01*
X160311462Y-110696096D01*
X160358913Y-110686658D01*
X160495495Y-110630084D01*
X160560291Y-110586789D01*
X160560294Y-110586786D01*
X160560296Y-110586786D01*
X160617304Y-110548695D01*
X160618416Y-110547952D01*
X161240452Y-109925915D01*
X161267705Y-109885127D01*
X161322584Y-109802995D01*
X161363379Y-109704507D01*
X161379159Y-109666412D01*
X161408000Y-109521417D01*
X161408000Y-109373582D01*
X161408000Y-106937104D01*
X161417439Y-106889651D01*
X161427237Y-106865997D01*
X161458000Y-106711342D01*
X161458000Y-106553658D01*
X161458000Y-106553655D01*
X161457999Y-106553653D01*
X161427239Y-106399011D01*
X161427238Y-106399008D01*
X161427237Y-106399003D01*
X161417437Y-106375344D01*
X161408000Y-106327896D01*
X161408000Y-102059730D01*
X161427685Y-101992691D01*
X161444319Y-101972049D01*
X162553548Y-100862820D01*
X162553552Y-100862816D01*
X162621916Y-100760500D01*
X162635684Y-100739895D01*
X162692258Y-100603313D01*
X162717102Y-100478416D01*
X162721100Y-100458320D01*
X162721100Y-93661504D01*
X162730539Y-93614051D01*
X162736566Y-93599500D01*
X162740337Y-93590397D01*
X162771100Y-93435742D01*
X162771100Y-93278058D01*
X162771100Y-93278055D01*
X162771099Y-93278053D01*
X162740337Y-93123403D01*
X162714981Y-93062187D01*
X162679997Y-92977727D01*
X162679990Y-92977714D01*
X162592389Y-92846611D01*
X162592386Y-92846607D01*
X162480892Y-92735113D01*
X162480888Y-92735110D01*
X162349785Y-92647509D01*
X162349772Y-92647502D01*
X162204101Y-92587164D01*
X162204089Y-92587161D01*
X162049445Y-92556400D01*
X162049442Y-92556400D01*
X161891758Y-92556400D01*
X161891755Y-92556400D01*
X161737111Y-92587160D01*
X161737106Y-92587162D01*
X161737104Y-92587162D01*
X161737103Y-92587163D01*
X161713444Y-92596962D01*
X161665996Y-92606400D01*
X152490204Y-92606400D01*
X152442755Y-92596962D01*
X152419097Y-92587163D01*
X152419093Y-92587162D01*
X152419088Y-92587160D01*
X152264445Y-92556400D01*
X152264442Y-92556400D01*
X152106758Y-92556400D01*
X152106755Y-92556400D01*
X151952111Y-92587160D01*
X151952106Y-92587162D01*
X151952104Y-92587162D01*
X151952103Y-92587163D01*
X151928444Y-92596962D01*
X151880996Y-92606400D01*
X144319176Y-92606400D01*
X144290342Y-92612134D01*
X144290343Y-92612135D01*
X144174193Y-92635239D01*
X144174189Y-92635240D01*
X144114413Y-92660001D01*
X144037603Y-92691816D01*
X143988369Y-92724713D01*
X143914688Y-92773944D01*
X143914680Y-92773950D01*
X142184703Y-94503927D01*
X142144480Y-94530805D01*
X142120819Y-94540606D01*
X142120818Y-94540607D01*
X141989715Y-94628207D01*
X141989707Y-94628213D01*
X141878213Y-94739707D01*
X141878210Y-94739711D01*
X141790609Y-94870814D01*
X141790602Y-94870827D01*
X141730264Y-95016498D01*
X141730261Y-95016510D01*
X141699500Y-95171153D01*
X139250500Y-95171153D01*
X139250500Y-90612229D01*
X139270185Y-90545190D01*
X139286819Y-90524548D01*
X139624548Y-90186819D01*
X139685871Y-90153334D01*
X139712229Y-90150500D01*
X149045407Y-90150500D01*
X149112446Y-90170185D01*
X149152793Y-90212499D01*
X149195633Y-90286700D01*
X149246392Y-90374617D01*
X149386081Y-90556661D01*
X149386089Y-90556670D01*
X149548330Y-90718911D01*
X149548338Y-90718918D01*
X149730382Y-90858607D01*
X149730385Y-90858608D01*
X149730388Y-90858611D01*
X149929112Y-90973344D01*
X149929117Y-90973346D01*
X149929123Y-90973349D01*
X150020480Y-91011190D01*
X150141113Y-91061158D01*
X150362762Y-91120548D01*
X150590266Y-91150500D01*
X150590273Y-91150500D01*
X150819727Y-91150500D01*
X150819734Y-91150500D01*
X151047238Y-91120548D01*
X151268887Y-91061158D01*
X151480888Y-90973344D01*
X151679612Y-90858611D01*
X151861661Y-90718919D01*
X151861665Y-90718914D01*
X151861670Y-90718911D01*
X152023911Y-90556670D01*
X152023914Y-90556665D01*
X152023919Y-90556661D01*
X152163611Y-90374612D01*
X152278344Y-90175888D01*
X152366158Y-89963887D01*
X152425548Y-89742238D01*
X152455500Y-89514734D01*
X152455500Y-89285266D01*
X152453342Y-89268872D01*
X160904500Y-89268872D01*
X160904500Y-89531127D01*
X160928892Y-89716391D01*
X160938730Y-89791116D01*
X161003030Y-90031087D01*
X161006602Y-90044418D01*
X161006605Y-90044428D01*
X161106953Y-90286690D01*
X161106958Y-90286700D01*
X161238075Y-90513803D01*
X161397718Y-90721851D01*
X161397726Y-90721860D01*
X161583140Y-90907274D01*
X161583148Y-90907281D01*
X161583149Y-90907282D01*
X161589544Y-90912189D01*
X161791196Y-91066924D01*
X162018299Y-91198041D01*
X162018309Y-91198046D01*
X162260571Y-91298394D01*
X162260581Y-91298398D01*
X162513884Y-91366270D01*
X162773880Y-91400500D01*
X162773887Y-91400500D01*
X163036113Y-91400500D01*
X163036120Y-91400500D01*
X163296116Y-91366270D01*
X163549419Y-91298398D01*
X163791697Y-91198043D01*
X164018803Y-91066924D01*
X164226851Y-90907282D01*
X164226855Y-90907277D01*
X164226860Y-90907274D01*
X164412274Y-90721860D01*
X164412277Y-90721855D01*
X164412282Y-90721851D01*
X164571924Y-90513803D01*
X164703043Y-90286697D01*
X164803398Y-90044419D01*
X164871270Y-89791116D01*
X164905500Y-89531120D01*
X164905500Y-89268880D01*
X164871270Y-89008884D01*
X164803398Y-88755581D01*
X164794838Y-88734916D01*
X164703046Y-88513309D01*
X164703041Y-88513299D01*
X164571924Y-88286196D01*
X164412281Y-88078148D01*
X164412274Y-88078140D01*
X164226860Y-87892726D01*
X164226851Y-87892718D01*
X164018803Y-87733075D01*
X163791700Y-87601958D01*
X163791690Y-87601953D01*
X163549428Y-87501605D01*
X163549421Y-87501603D01*
X163549419Y-87501602D01*
X163296116Y-87433730D01*
X163238339Y-87426123D01*
X163036127Y-87399500D01*
X163036120Y-87399500D01*
X162773880Y-87399500D01*
X162773872Y-87399500D01*
X162542772Y-87429926D01*
X162513884Y-87433730D01*
X162260581Y-87501602D01*
X162260571Y-87501605D01*
X162018309Y-87601953D01*
X162018299Y-87601958D01*
X161791196Y-87733075D01*
X161583148Y-87892718D01*
X161397718Y-88078148D01*
X161238075Y-88286196D01*
X161106958Y-88513299D01*
X161106953Y-88513309D01*
X161006605Y-88755571D01*
X161006603Y-88755576D01*
X161006602Y-88755581D01*
X160985024Y-88836112D01*
X160938730Y-89008885D01*
X160904500Y-89268872D01*
X152453342Y-89268872D01*
X152425548Y-89057762D01*
X152366158Y-88836113D01*
X152309582Y-88699526D01*
X152278349Y-88624123D01*
X152278346Y-88624117D01*
X152278344Y-88624112D01*
X152163611Y-88425388D01*
X152163608Y-88425385D01*
X152163607Y-88425382D01*
X152023918Y-88243338D01*
X152023911Y-88243330D01*
X151861670Y-88081089D01*
X151861661Y-88081081D01*
X151679617Y-87941392D01*
X151480890Y-87826657D01*
X151480876Y-87826650D01*
X151268887Y-87738842D01*
X151247364Y-87733075D01*
X151047238Y-87679452D01*
X151009215Y-87674446D01*
X150819741Y-87649500D01*
X150819734Y-87649500D01*
X150590266Y-87649500D01*
X150590258Y-87649500D01*
X150373715Y-87678009D01*
X150362762Y-87679452D01*
X150269076Y-87704554D01*
X150141112Y-87738842D01*
X149929123Y-87826650D01*
X149929109Y-87826657D01*
X149730382Y-87941392D01*
X149548338Y-88081081D01*
X149386081Y-88243338D01*
X149246392Y-88425382D01*
X149152794Y-88587500D01*
X149102227Y-88635716D01*
X149045407Y-88649500D01*
X139276076Y-88649500D01*
X139247242Y-88655234D01*
X139247243Y-88655235D01*
X139131092Y-88678339D01*
X139131086Y-88678341D01*
X139079943Y-88699526D01*
X138994508Y-88734914D01*
X138963578Y-88755581D01*
X138871582Y-88817049D01*
X138871579Y-88817052D01*
X137917052Y-89771578D01*
X137917049Y-89771581D01*
X137887442Y-89815891D01*
X137887443Y-89815892D01*
X137834914Y-89894508D01*
X137778343Y-90031082D01*
X137778340Y-90031092D01*
X137749500Y-90176079D01*
X137749500Y-95387770D01*
X137729815Y-95454809D01*
X137713181Y-95475451D01*
X137225451Y-95963181D01*
X137164128Y-95996666D01*
X137137770Y-95999500D01*
X133823614Y-95999500D01*
X133756575Y-95979815D01*
X133723297Y-95948387D01*
X133713828Y-95935354D01*
X133574648Y-95796174D01*
X133574646Y-95796172D01*
X133415405Y-95680476D01*
X133406781Y-95676082D01*
X133240029Y-95591117D01*
X133052826Y-95530290D01*
X132858422Y-95499500D01*
X132858417Y-95499500D01*
X132141583Y-95499500D01*
X132141578Y-95499500D01*
X131947173Y-95530290D01*
X131759970Y-95591117D01*
X131584594Y-95680476D01*
X131503071Y-95739707D01*
X131425354Y-95796172D01*
X131425352Y-95796174D01*
X131425351Y-95796174D01*
X131286174Y-95935351D01*
X131286174Y-95935352D01*
X131286172Y-95935354D01*
X131241626Y-95996666D01*
X131170476Y-96094594D01*
X131081117Y-96269970D01*
X131020290Y-96457173D01*
X130989500Y-96651577D01*
X121150900Y-96651577D01*
X121150900Y-93662781D01*
X129654500Y-93662781D01*
X129654500Y-93837218D01*
X129688527Y-94008283D01*
X129688529Y-94008291D01*
X129755278Y-94169439D01*
X129755283Y-94169448D01*
X129852186Y-94314473D01*
X129852189Y-94314477D01*
X129975522Y-94437810D01*
X129975526Y-94437813D01*
X130120551Y-94534716D01*
X130120557Y-94534719D01*
X130120558Y-94534720D01*
X130281709Y-94601471D01*
X130452781Y-94635499D01*
X130452785Y-94635500D01*
X130452786Y-94635500D01*
X130627215Y-94635500D01*
X130627216Y-94635499D01*
X130798291Y-94601471D01*
X130959442Y-94534720D01*
X131104474Y-94437813D01*
X131227813Y-94314474D01*
X131324720Y-94169442D01*
X131391471Y-94008291D01*
X131425500Y-93837214D01*
X131425500Y-93662786D01*
X131391471Y-93491709D01*
X131324720Y-93330558D01*
X131324719Y-93330557D01*
X131324716Y-93330551D01*
X131227813Y-93185526D01*
X131227810Y-93185522D01*
X131104477Y-93062189D01*
X131104473Y-93062186D01*
X130959448Y-92965283D01*
X130959439Y-92965278D01*
X130798291Y-92898529D01*
X130798283Y-92898527D01*
X130627218Y-92864500D01*
X130627214Y-92864500D01*
X130452786Y-92864500D01*
X130452781Y-92864500D01*
X130281716Y-92898527D01*
X130281708Y-92898529D01*
X130120560Y-92965278D01*
X130120551Y-92965283D01*
X129975526Y-93062186D01*
X129975522Y-93062189D01*
X129852189Y-93185522D01*
X129852186Y-93185526D01*
X129755283Y-93330551D01*
X129755278Y-93330560D01*
X129688529Y-93491708D01*
X129688527Y-93491716D01*
X129654500Y-93662781D01*
X121150900Y-93662781D01*
X121150900Y-91512781D01*
X129659500Y-91512781D01*
X129659500Y-91687218D01*
X129693527Y-91858283D01*
X129693529Y-91858291D01*
X129760278Y-92019439D01*
X129760283Y-92019448D01*
X129857186Y-92164473D01*
X129857189Y-92164477D01*
X129980522Y-92287810D01*
X129980526Y-92287813D01*
X130125551Y-92384716D01*
X130125557Y-92384719D01*
X130125558Y-92384720D01*
X130286709Y-92451471D01*
X130457781Y-92485499D01*
X130457785Y-92485500D01*
X130457786Y-92485500D01*
X130632215Y-92485500D01*
X130632216Y-92485499D01*
X130803291Y-92451471D01*
X130964442Y-92384720D01*
X131109474Y-92287813D01*
X131232813Y-92164474D01*
X131329720Y-92019442D01*
X131396471Y-91858291D01*
X131430500Y-91687214D01*
X131430500Y-91512786D01*
X131396471Y-91341709D01*
X131329720Y-91180558D01*
X131329719Y-91180557D01*
X131329716Y-91180551D01*
X131232813Y-91035526D01*
X131232810Y-91035522D01*
X131109477Y-90912189D01*
X131109473Y-90912186D01*
X130964448Y-90815283D01*
X130964439Y-90815278D01*
X130803291Y-90748529D01*
X130803283Y-90748527D01*
X130632218Y-90714500D01*
X130632214Y-90714500D01*
X130457786Y-90714500D01*
X130457781Y-90714500D01*
X130286716Y-90748527D01*
X130286708Y-90748529D01*
X130125560Y-90815278D01*
X130125551Y-90815283D01*
X129980526Y-90912186D01*
X129980522Y-90912189D01*
X129857189Y-91035522D01*
X129857186Y-91035526D01*
X129760283Y-91180551D01*
X129760278Y-91180560D01*
X129693529Y-91341708D01*
X129693527Y-91341716D01*
X129659500Y-91512781D01*
X121150900Y-91512781D01*
X121150900Y-90934108D01*
X121116792Y-90806814D01*
X121050900Y-90692686D01*
X120957714Y-90599500D01*
X120890800Y-90560867D01*
X120843587Y-90533608D01*
X120753445Y-90509455D01*
X120716292Y-90499500D01*
X120065892Y-90499500D01*
X119934108Y-90499500D01*
X119890749Y-90511118D01*
X119820899Y-90509455D01*
X119763037Y-90470292D01*
X119735533Y-90406063D01*
X119738881Y-90359252D01*
X119750500Y-90315892D01*
X119750500Y-89862902D01*
X119770185Y-89795863D01*
X119822989Y-89750108D01*
X119892147Y-89740164D01*
X119906585Y-89743125D01*
X119934108Y-89750500D01*
X119934110Y-89750500D01*
X120565890Y-89750500D01*
X120565892Y-89750500D01*
X120693186Y-89716392D01*
X120807314Y-89650500D01*
X120900500Y-89557314D01*
X120966392Y-89443186D01*
X121000500Y-89315892D01*
X121000500Y-82512781D01*
X129659500Y-82512781D01*
X129659500Y-82687218D01*
X129693527Y-82858283D01*
X129693529Y-82858291D01*
X129760278Y-83019439D01*
X129760283Y-83019448D01*
X129857186Y-83164473D01*
X129857189Y-83164477D01*
X129980522Y-83287810D01*
X129980526Y-83287813D01*
X130125551Y-83384716D01*
X130125560Y-83384721D01*
X130162066Y-83399842D01*
X130286709Y-83451471D01*
X130457781Y-83485499D01*
X130457785Y-83485500D01*
X130457786Y-83485500D01*
X130632215Y-83485500D01*
X130632216Y-83485499D01*
X130803291Y-83451471D01*
X130833049Y-83439144D01*
X130902515Y-83431676D01*
X130964995Y-83462950D01*
X131000648Y-83523039D01*
X131004500Y-83553706D01*
X131004500Y-85428687D01*
X131002973Y-85448086D01*
X130994500Y-85501578D01*
X130994500Y-85698422D01*
X131025290Y-85892824D01*
X131035706Y-85924881D01*
X131040245Y-85943784D01*
X131041235Y-85950033D01*
X131041447Y-85951368D01*
X131114432Y-86175992D01*
X131221657Y-86386433D01*
X131360483Y-86577510D01*
X131527490Y-86744517D01*
X131718567Y-86883343D01*
X131864801Y-86957853D01*
X131926941Y-86989515D01*
X131977737Y-87037490D01*
X131994532Y-87105311D01*
X131971995Y-87171446D01*
X131926941Y-87210485D01*
X131718568Y-87316656D01*
X131718563Y-87316659D01*
X131696855Y-87332430D01*
X131636578Y-87355467D01*
X131592208Y-87360000D01*
X131592201Y-87360001D01*
X131425664Y-87415186D01*
X131425662Y-87415187D01*
X131276348Y-87507286D01*
X131276344Y-87507289D01*
X131152289Y-87631344D01*
X131152286Y-87631348D01*
X131060187Y-87780662D01*
X131060186Y-87780664D01*
X131005001Y-87947203D01*
X131005000Y-87947204D01*
X130994500Y-88049984D01*
X130994500Y-89150015D01*
X131005000Y-89252795D01*
X131005001Y-89252797D01*
X131014349Y-89281006D01*
X131060186Y-89419335D01*
X131060187Y-89419337D01*
X131152286Y-89568651D01*
X131152289Y-89568655D01*
X131276344Y-89692710D01*
X131276348Y-89692713D01*
X131425662Y-89784812D01*
X131425663Y-89784812D01*
X131425666Y-89784814D01*
X131519450Y-89815891D01*
X131592202Y-89839999D01*
X131600230Y-89840819D01*
X131636574Y-89844531D01*
X131696858Y-89867570D01*
X131718567Y-89883343D01*
X131740474Y-89894505D01*
X131929003Y-89990566D01*
X131929005Y-89990566D01*
X131929008Y-89990568D01*
X132049412Y-90029689D01*
X132153631Y-90063553D01*
X132386903Y-90100500D01*
X132386908Y-90100500D01*
X135018097Y-90100500D01*
X135251368Y-90063553D01*
X135475992Y-89990568D01*
X135686434Y-89883343D01*
X135877510Y-89744517D01*
X136894518Y-88727510D01*
X137033343Y-88536433D01*
X137140568Y-88325992D01*
X137213553Y-88101368D01*
X137216766Y-88081081D01*
X137221690Y-88049993D01*
X137221690Y-88049992D01*
X137250500Y-87868097D01*
X137250500Y-85672889D01*
X137270185Y-85605850D01*
X137286819Y-85585208D01*
X137985208Y-84886819D01*
X138046531Y-84853334D01*
X138072889Y-84850500D01*
X147382219Y-84850500D01*
X147449258Y-84870185D01*
X147457700Y-84876120D01*
X147465242Y-84881908D01*
X147641196Y-85016924D01*
X147868299Y-85148041D01*
X147868309Y-85148046D01*
X148110571Y-85248394D01*
X148110581Y-85248398D01*
X148363884Y-85316270D01*
X148623880Y-85350500D01*
X148623887Y-85350500D01*
X148886113Y-85350500D01*
X148886120Y-85350500D01*
X149146116Y-85316270D01*
X149399419Y-85248398D01*
X149641697Y-85148043D01*
X149868803Y-85016924D01*
X150076851Y-84857282D01*
X150076855Y-84857277D01*
X150076860Y-84857274D01*
X150262274Y-84671860D01*
X150262277Y-84671855D01*
X150262282Y-84671851D01*
X150421924Y-84463803D01*
X150553043Y-84236697D01*
X150653398Y-83994419D01*
X150721270Y-83741116D01*
X150755500Y-83481120D01*
X150755500Y-83218880D01*
X150721270Y-82958884D01*
X150653398Y-82705581D01*
X150653394Y-82705571D01*
X150553046Y-82463309D01*
X150553041Y-82463299D01*
X150421924Y-82236196D01*
X150291830Y-82066657D01*
X150262282Y-82028149D01*
X150262281Y-82028148D01*
X150262274Y-82028140D01*
X150076860Y-81842726D01*
X150076851Y-81842718D01*
X149868803Y-81683075D01*
X149641700Y-81551958D01*
X149641690Y-81551953D01*
X149399428Y-81451605D01*
X149399421Y-81451603D01*
X149399419Y-81451602D01*
X149146116Y-81383730D01*
X149088339Y-81376123D01*
X148886127Y-81349500D01*
X148886120Y-81349500D01*
X148623880Y-81349500D01*
X148623872Y-81349500D01*
X148392772Y-81379926D01*
X148363884Y-81383730D01*
X148162054Y-81437810D01*
X148110581Y-81451602D01*
X148110571Y-81451605D01*
X147868309Y-81551953D01*
X147868299Y-81551958D01*
X147641196Y-81683075D01*
X147518779Y-81777011D01*
X147457704Y-81823875D01*
X147392537Y-81849070D01*
X147382219Y-81849500D01*
X138999500Y-81849500D01*
X138932461Y-81829815D01*
X138886706Y-81777011D01*
X138875500Y-81725500D01*
X138875500Y-80944604D01*
X138884939Y-80897151D01*
X138894737Y-80873497D01*
X138925500Y-80718842D01*
X138925500Y-80561158D01*
X138925500Y-80561155D01*
X138925499Y-80561153D01*
X138911687Y-80491716D01*
X138894737Y-80406503D01*
X138870135Y-80347107D01*
X138834397Y-80260827D01*
X138834390Y-80260814D01*
X138746789Y-80129711D01*
X138746786Y-80129707D01*
X138635292Y-80018213D01*
X138635288Y-80018210D01*
X138504185Y-79930609D01*
X138504172Y-79930602D01*
X138358501Y-79870264D01*
X138358489Y-79870261D01*
X138203845Y-79839500D01*
X138203842Y-79839500D01*
X138046158Y-79839500D01*
X138046155Y-79839500D01*
X137891510Y-79870261D01*
X137891498Y-79870264D01*
X137745827Y-79930602D01*
X137745814Y-79930609D01*
X137614711Y-80018210D01*
X137614707Y-80018213D01*
X137503213Y-80129707D01*
X137503210Y-80129711D01*
X137415609Y-80260814D01*
X137415602Y-80260827D01*
X137355264Y-80406498D01*
X137355261Y-80406510D01*
X137324500Y-80561153D01*
X137324500Y-80718846D01*
X137355261Y-80873489D01*
X137355263Y-80873497D01*
X137365061Y-80897151D01*
X137374500Y-80944604D01*
X137374500Y-81728928D01*
X137354815Y-81795967D01*
X137302011Y-81841722D01*
X137269898Y-81851401D01*
X137048631Y-81886446D01*
X136824003Y-81959433D01*
X136613565Y-82066657D01*
X136422488Y-82205484D01*
X134605484Y-84022488D01*
X134466657Y-84213565D01*
X134408600Y-84327510D01*
X134359433Y-84424003D01*
X134286446Y-84648631D01*
X134251973Y-84866288D01*
X134222044Y-84929423D01*
X134162732Y-84966354D01*
X134092870Y-84965356D01*
X134034637Y-84926746D01*
X134006523Y-84862782D01*
X134005500Y-84846890D01*
X134005500Y-76167889D01*
X134025185Y-76100850D01*
X134041819Y-76080208D01*
X134585208Y-75536819D01*
X134646531Y-75503334D01*
X134672889Y-75500500D01*
X137250500Y-75500500D01*
X137317539Y-75520185D01*
X137363294Y-75572989D01*
X137374500Y-75624500D01*
X137374500Y-77195396D01*
X137365062Y-77242844D01*
X137355263Y-77266503D01*
X137355262Y-77266506D01*
X137355260Y-77266511D01*
X137324500Y-77421153D01*
X137324500Y-77578846D01*
X137355261Y-77733489D01*
X137355264Y-77733501D01*
X137415602Y-77879172D01*
X137415609Y-77879185D01*
X137503210Y-78010288D01*
X137503213Y-78010292D01*
X137614707Y-78121786D01*
X137614711Y-78121789D01*
X137745814Y-78209390D01*
X137745827Y-78209397D01*
X137891498Y-78269735D01*
X137891503Y-78269737D01*
X138043654Y-78300002D01*
X138046153Y-78300499D01*
X138046156Y-78300500D01*
X138046158Y-78300500D01*
X138203844Y-78300500D01*
X138203845Y-78300499D01*
X138358497Y-78269737D01*
X138504179Y-78209394D01*
X138635289Y-78121789D01*
X138746789Y-78010289D01*
X138834394Y-77879179D01*
X138843853Y-77856344D01*
X138885633Y-77755476D01*
X138894737Y-77733497D01*
X138925500Y-77578842D01*
X138925500Y-77421158D01*
X138925500Y-77421155D01*
X138925499Y-77421153D01*
X138903483Y-77310471D01*
X138903482Y-77310469D01*
X138894737Y-77266503D01*
X138882238Y-77236327D01*
X138880297Y-77229553D01*
X138880360Y-77219833D01*
X138875500Y-77195396D01*
X138875500Y-75624500D01*
X138895185Y-75557461D01*
X138947989Y-75511706D01*
X138999500Y-75500500D01*
X150094438Y-75500500D01*
X150161477Y-75520185D01*
X150207232Y-75572989D01*
X150217176Y-75642147D01*
X150188151Y-75705703D01*
X150141891Y-75739061D01*
X149929340Y-75827102D01*
X149929330Y-75827106D01*
X149730673Y-75941801D01*
X149730659Y-75941810D01*
X149656934Y-75998380D01*
X150575590Y-76917037D01*
X150512007Y-76934075D01*
X150397993Y-76999901D01*
X150304901Y-77092993D01*
X150239075Y-77207007D01*
X150222037Y-77270590D01*
X149303380Y-76351934D01*
X149246810Y-76425659D01*
X149246801Y-76425673D01*
X149132106Y-76624330D01*
X149132102Y-76624340D01*
X149044318Y-76836269D01*
X148984942Y-77057862D01*
X148955001Y-77285289D01*
X148955000Y-77285305D01*
X148955000Y-77514694D01*
X148955001Y-77514710D01*
X148984942Y-77742137D01*
X149044318Y-77963730D01*
X149132102Y-78175659D01*
X149132106Y-78175669D01*
X149246799Y-78374324D01*
X149246805Y-78374331D01*
X149303381Y-78448064D01*
X150222037Y-77529408D01*
X150239075Y-77592993D01*
X150304901Y-77707007D01*
X150397993Y-77800099D01*
X150512007Y-77865925D01*
X150575590Y-77882962D01*
X149656934Y-78801617D01*
X149656934Y-78801618D01*
X149730666Y-78858194D01*
X149929330Y-78972893D01*
X149929340Y-78972897D01*
X150141269Y-79060681D01*
X150362862Y-79120057D01*
X150590289Y-79149998D01*
X150590306Y-79150000D01*
X150819694Y-79150000D01*
X150819710Y-79149998D01*
X151047137Y-79120057D01*
X151268730Y-79060681D01*
X151480659Y-78972897D01*
X151480668Y-78972893D01*
X151679327Y-78858197D01*
X151679334Y-78858192D01*
X151753064Y-78801617D01*
X150834409Y-77882962D01*
X150897993Y-77865925D01*
X151012007Y-77800099D01*
X151105099Y-77707007D01*
X151170925Y-77592993D01*
X151187962Y-77529409D01*
X152106617Y-78448064D01*
X152163192Y-78374334D01*
X152163197Y-78374327D01*
X152277893Y-78175668D01*
X152277897Y-78175659D01*
X152365681Y-77963730D01*
X152425057Y-77742137D01*
X152454998Y-77514710D01*
X152455000Y-77514694D01*
X152455000Y-77285305D01*
X152454998Y-77285289D01*
X152425057Y-77057862D01*
X152365681Y-76836269D01*
X152277897Y-76624340D01*
X152277893Y-76624330D01*
X152163194Y-76425666D01*
X152106618Y-76351934D01*
X152106617Y-76351934D01*
X151187962Y-77270589D01*
X151170925Y-77207007D01*
X151105099Y-77092993D01*
X151012007Y-76999901D01*
X150897993Y-76934075D01*
X150834407Y-76917037D01*
X151753064Y-75998381D01*
X151753064Y-75998380D01*
X151679331Y-75941805D01*
X151679324Y-75941799D01*
X151480669Y-75827106D01*
X151480659Y-75827102D01*
X151268109Y-75739061D01*
X151213706Y-75695220D01*
X151191641Y-75628926D01*
X151208920Y-75561227D01*
X151260057Y-75513616D01*
X151315562Y-75500500D01*
X158932111Y-75500500D01*
X158999150Y-75520185D01*
X159019792Y-75536819D01*
X160923281Y-77440308D01*
X160956766Y-77501631D01*
X160958539Y-77511803D01*
X160970848Y-77605291D01*
X160988730Y-77741116D01*
X161048379Y-77963730D01*
X161056602Y-77994418D01*
X161056605Y-77994428D01*
X161156953Y-78236690D01*
X161156958Y-78236700D01*
X161288075Y-78463803D01*
X161447718Y-78671851D01*
X161447726Y-78671860D01*
X161633140Y-78857274D01*
X161633148Y-78857281D01*
X161633149Y-78857282D01*
X161681554Y-78894424D01*
X161841196Y-79016924D01*
X162068299Y-79148041D01*
X162068309Y-79148046D01*
X162310571Y-79248394D01*
X162310581Y-79248398D01*
X162563884Y-79316270D01*
X162823880Y-79350500D01*
X162823887Y-79350500D01*
X163086113Y-79350500D01*
X163086120Y-79350500D01*
X163346116Y-79316270D01*
X163599419Y-79248398D01*
X163776340Y-79175114D01*
X163841690Y-79148046D01*
X163841691Y-79148045D01*
X163841697Y-79148043D01*
X164068803Y-79016924D01*
X164276851Y-78857282D01*
X164276855Y-78857277D01*
X164276860Y-78857274D01*
X164462274Y-78671860D01*
X164462277Y-78671855D01*
X164462282Y-78671851D01*
X164621924Y-78463803D01*
X164753043Y-78236697D01*
X164853398Y-77994419D01*
X164921270Y-77741116D01*
X164955500Y-77481120D01*
X164955500Y-77218880D01*
X164921270Y-76958884D01*
X164853398Y-76705581D01*
X164853389Y-76705560D01*
X164753046Y-76463309D01*
X164753041Y-76463299D01*
X164621924Y-76236196D01*
X164462281Y-76028148D01*
X164462274Y-76028140D01*
X164276860Y-75842726D01*
X164276851Y-75842718D01*
X164068803Y-75683075D01*
X163841700Y-75551958D01*
X163841690Y-75551953D01*
X163599428Y-75451605D01*
X163599421Y-75451603D01*
X163599419Y-75451602D01*
X163346116Y-75383730D01*
X163275699Y-75374459D01*
X163125249Y-75354651D01*
X163116803Y-75353539D01*
X163052906Y-75325272D01*
X163045308Y-75318281D01*
X162962213Y-75235186D01*
X173102000Y-75235186D01*
X173102000Y-75504813D01*
X173132186Y-75772719D01*
X173132188Y-75772731D01*
X173192184Y-76035594D01*
X173192187Y-76035602D01*
X173281234Y-76290082D01*
X173398214Y-76532994D01*
X173398216Y-76532997D01*
X173541662Y-76761289D01*
X173625731Y-76866708D01*
X173699238Y-76958884D01*
X173709766Y-76972085D01*
X173900415Y-77162734D01*
X174111211Y-77330838D01*
X174339503Y-77474284D01*
X174582421Y-77591267D01*
X174722224Y-77640186D01*
X174836897Y-77680312D01*
X174836905Y-77680315D01*
X174836908Y-77680315D01*
X174836909Y-77680316D01*
X175099768Y-77740312D01*
X175367687Y-77770499D01*
X175367688Y-77770500D01*
X175367691Y-77770500D01*
X175637312Y-77770500D01*
X175637312Y-77770499D01*
X175905232Y-77740312D01*
X176168091Y-77680316D01*
X176422579Y-77591267D01*
X176665497Y-77474284D01*
X176893789Y-77330838D01*
X177104585Y-77162734D01*
X177295234Y-76972085D01*
X177463338Y-76761289D01*
X177606784Y-76532997D01*
X177723767Y-76290079D01*
X177812816Y-76035591D01*
X177872812Y-75772732D01*
X177903000Y-75504809D01*
X177903000Y-75235191D01*
X177872812Y-74967268D01*
X177812816Y-74704409D01*
X177723767Y-74449921D01*
X177637200Y-74270162D01*
X177606785Y-74207005D01*
X177536317Y-74094856D01*
X177463338Y-73978711D01*
X177295234Y-73767915D01*
X177104585Y-73577266D01*
X176893789Y-73409162D01*
X176665497Y-73265716D01*
X176665494Y-73265714D01*
X176422582Y-73148734D01*
X176168102Y-73059687D01*
X176168094Y-73059684D01*
X175970946Y-73014687D01*
X175905232Y-72999688D01*
X175905228Y-72999687D01*
X175905219Y-72999686D01*
X175637313Y-72969500D01*
X175637309Y-72969500D01*
X175367691Y-72969500D01*
X175367686Y-72969500D01*
X175099780Y-72999686D01*
X175099768Y-72999688D01*
X174836905Y-73059684D01*
X174836897Y-73059687D01*
X174582417Y-73148734D01*
X174339505Y-73265714D01*
X174111212Y-73409161D01*
X173900415Y-73577265D01*
X173709765Y-73767915D01*
X173541661Y-73978712D01*
X173398214Y-74207005D01*
X173281234Y-74449917D01*
X173192187Y-74704397D01*
X173192184Y-74704405D01*
X173132188Y-74967268D01*
X173132186Y-74967280D01*
X173102000Y-75235186D01*
X162962213Y-75235186D01*
X160582511Y-72855484D01*
X160391434Y-72716657D01*
X160180996Y-72609433D01*
X159956368Y-72536446D01*
X159723097Y-72499500D01*
X159723092Y-72499500D01*
X138118092Y-72499500D01*
X133881908Y-72499500D01*
X133881903Y-72499500D01*
X133648631Y-72536446D01*
X133424003Y-72609433D01*
X133213565Y-72716657D01*
X133022488Y-72855484D01*
X131360484Y-74517488D01*
X131221657Y-74708565D01*
X131179128Y-74792033D01*
X131136600Y-74875500D01*
X131136599Y-74875500D01*
X131114431Y-74919008D01*
X131114431Y-74919009D01*
X131041447Y-75143627D01*
X131041447Y-75143630D01*
X131004500Y-75376902D01*
X131004500Y-81646293D01*
X130984815Y-81713332D01*
X130932011Y-81759087D01*
X130862853Y-81769031D01*
X130833049Y-81760855D01*
X130824028Y-81757118D01*
X130803291Y-81748529D01*
X130803287Y-81748528D01*
X130803283Y-81748527D01*
X130632218Y-81714500D01*
X130632214Y-81714500D01*
X130457786Y-81714500D01*
X130457781Y-81714500D01*
X130286716Y-81748527D01*
X130286708Y-81748529D01*
X130125560Y-81815278D01*
X130125551Y-81815283D01*
X129980526Y-81912186D01*
X129980522Y-81912189D01*
X129857189Y-82035522D01*
X129857186Y-82035526D01*
X129760283Y-82180551D01*
X129760278Y-82180560D01*
X129693529Y-82341708D01*
X129693527Y-82341716D01*
X129659500Y-82512781D01*
X121000500Y-82512781D01*
X121000500Y-80684108D01*
X120966392Y-80556814D01*
X120900500Y-80442686D01*
X120807314Y-80349500D01*
X120807311Y-80349498D01*
X120805847Y-80348375D01*
X120804921Y-80347107D01*
X120801567Y-80343753D01*
X120802090Y-80343229D01*
X120764645Y-80291947D01*
X120760491Y-80222201D01*
X120794704Y-80161281D01*
X120805847Y-80151625D01*
X120807306Y-80150504D01*
X120807314Y-80150500D01*
X120900500Y-80057314D01*
X120966392Y-79943186D01*
X121000500Y-79815892D01*
X121000500Y-75235186D01*
X123102000Y-75235186D01*
X123102000Y-75504813D01*
X123132186Y-75772719D01*
X123132188Y-75772731D01*
X123192184Y-76035594D01*
X123192187Y-76035602D01*
X123281234Y-76290082D01*
X123398214Y-76532994D01*
X123398216Y-76532997D01*
X123541662Y-76761289D01*
X123625731Y-76866708D01*
X123699238Y-76958884D01*
X123709766Y-76972085D01*
X123900415Y-77162734D01*
X124111211Y-77330838D01*
X124339503Y-77474284D01*
X124582421Y-77591267D01*
X124722224Y-77640186D01*
X124836897Y-77680312D01*
X124836905Y-77680315D01*
X124836908Y-77680315D01*
X124836909Y-77680316D01*
X125099768Y-77740312D01*
X125367687Y-77770499D01*
X125367688Y-77770500D01*
X125367691Y-77770500D01*
X125637312Y-77770500D01*
X125637312Y-77770499D01*
X125905232Y-77740312D01*
X126168091Y-77680316D01*
X126422579Y-77591267D01*
X126665497Y-77474284D01*
X126893789Y-77330838D01*
X127104585Y-77162734D01*
X127295234Y-76972085D01*
X127463338Y-76761289D01*
X127606784Y-76532997D01*
X127723767Y-76290079D01*
X127812816Y-76035591D01*
X127872812Y-75772732D01*
X127903000Y-75504809D01*
X127903000Y-75235191D01*
X127872812Y-74967268D01*
X127812816Y-74704409D01*
X127723767Y-74449921D01*
X127637200Y-74270162D01*
X127606785Y-74207005D01*
X127536317Y-74094856D01*
X127463338Y-73978711D01*
X127295234Y-73767915D01*
X127104585Y-73577266D01*
X126893789Y-73409162D01*
X126665497Y-73265716D01*
X126665494Y-73265714D01*
X126422582Y-73148734D01*
X126168102Y-73059687D01*
X126168094Y-73059684D01*
X125970946Y-73014687D01*
X125905232Y-72999688D01*
X125905228Y-72999687D01*
X125905219Y-72999686D01*
X125637313Y-72969500D01*
X125637309Y-72969500D01*
X125367691Y-72969500D01*
X125367686Y-72969500D01*
X125099780Y-72999686D01*
X125099768Y-72999688D01*
X124836905Y-73059684D01*
X124836897Y-73059687D01*
X124582417Y-73148734D01*
X124339505Y-73265714D01*
X124111212Y-73409161D01*
X123900415Y-73577265D01*
X123709765Y-73767915D01*
X123541661Y-73978712D01*
X123398214Y-74207005D01*
X123281234Y-74449917D01*
X123192187Y-74704397D01*
X123192184Y-74704405D01*
X123132188Y-74967268D01*
X123132186Y-74967280D01*
X123102000Y-75235186D01*
X121000500Y-75235186D01*
X121000500Y-70934108D01*
X120966392Y-70806814D01*
X120966212Y-70806503D01*
X120966141Y-70806208D01*
X120963280Y-70799300D01*
X120964356Y-70798854D01*
X120949738Y-70738604D01*
X120972588Y-70672576D01*
X121027508Y-70629384D01*
X121073598Y-70620500D01*
X179375500Y-70620500D01*
X179442539Y-70640185D01*
X179488294Y-70692989D01*
X179499500Y-70744500D01*
X179499500Y-136495500D01*
X179479815Y-136562539D01*
X179427011Y-136608294D01*
X179375500Y-136619500D01*
X121078940Y-136619500D01*
X121011901Y-136599815D01*
X120966146Y-136547011D01*
X120956202Y-136477853D01*
X120964376Y-136448054D01*
X120966387Y-136443193D01*
X120966392Y-136443186D01*
X121000500Y-136315892D01*
X121000500Y-131985186D01*
X123102000Y-131985186D01*
X123102000Y-132254813D01*
X123132186Y-132522719D01*
X123132188Y-132522731D01*
X123192184Y-132785594D01*
X123192187Y-132785602D01*
X123281234Y-133040082D01*
X123398214Y-133282994D01*
X123398216Y-133282997D01*
X123541662Y-133511289D01*
X123709766Y-133722085D01*
X123900415Y-133912734D01*
X124111211Y-134080838D01*
X124339503Y-134224284D01*
X124582421Y-134341267D01*
X124751697Y-134400499D01*
X124836897Y-134430312D01*
X124836905Y-134430315D01*
X124836908Y-134430315D01*
X124836909Y-134430316D01*
X125099768Y-134490312D01*
X125367687Y-134520499D01*
X125367688Y-134520500D01*
X125367691Y-134520500D01*
X125637312Y-134520500D01*
X125637312Y-134520499D01*
X125905232Y-134490312D01*
X126168091Y-134430316D01*
X126422579Y-134341267D01*
X126665497Y-134224284D01*
X126893789Y-134080838D01*
X127104585Y-133912734D01*
X127295234Y-133722085D01*
X127463338Y-133511289D01*
X127606784Y-133282997D01*
X127723767Y-133040079D01*
X127812816Y-132785591D01*
X127872812Y-132522732D01*
X127903000Y-132254809D01*
X127903000Y-131985191D01*
X127902999Y-131985186D01*
X173102000Y-131985186D01*
X173102000Y-132254813D01*
X173132186Y-132522719D01*
X173132188Y-132522731D01*
X173192184Y-132785594D01*
X173192187Y-132785602D01*
X173281234Y-133040082D01*
X173398214Y-133282994D01*
X173398216Y-133282997D01*
X173541662Y-133511289D01*
X173709766Y-133722085D01*
X173900415Y-133912734D01*
X174111211Y-134080838D01*
X174339503Y-134224284D01*
X174582421Y-134341267D01*
X174751697Y-134400499D01*
X174836897Y-134430312D01*
X174836905Y-134430315D01*
X174836908Y-134430315D01*
X174836909Y-134430316D01*
X175099768Y-134490312D01*
X175367687Y-134520499D01*
X175367688Y-134520500D01*
X175367691Y-134520500D01*
X175637312Y-134520500D01*
X175637312Y-134520499D01*
X175905232Y-134490312D01*
X176168091Y-134430316D01*
X176422579Y-134341267D01*
X176665497Y-134224284D01*
X176893789Y-134080838D01*
X177104585Y-133912734D01*
X177295234Y-133722085D01*
X177463338Y-133511289D01*
X177606784Y-133282997D01*
X177723767Y-133040079D01*
X177812816Y-132785591D01*
X177872812Y-132522732D01*
X177903000Y-132254809D01*
X177903000Y-131985191D01*
X177872812Y-131717268D01*
X177812816Y-131454409D01*
X177723767Y-131199921D01*
X177606784Y-130957003D01*
X177463338Y-130728711D01*
X177295234Y-130517915D01*
X177104585Y-130327266D01*
X176893789Y-130159162D01*
X176665497Y-130015716D01*
X176665494Y-130015714D01*
X176422582Y-129898734D01*
X176168102Y-129809687D01*
X176168094Y-129809684D01*
X175970946Y-129764687D01*
X175905232Y-129749688D01*
X175905228Y-129749687D01*
X175905219Y-129749686D01*
X175637313Y-129719500D01*
X175637309Y-129719500D01*
X175367691Y-129719500D01*
X175367686Y-129719500D01*
X175099780Y-129749686D01*
X175099768Y-129749688D01*
X174836905Y-129809684D01*
X174836897Y-129809687D01*
X174582417Y-129898734D01*
X174339505Y-130015714D01*
X174111212Y-130159161D01*
X173900415Y-130327265D01*
X173709765Y-130517915D01*
X173541661Y-130728712D01*
X173398214Y-130957005D01*
X173281234Y-131199917D01*
X173192187Y-131454397D01*
X173192184Y-131454405D01*
X173132188Y-131717268D01*
X173132186Y-131717280D01*
X173102000Y-131985186D01*
X127902999Y-131985186D01*
X127872812Y-131717268D01*
X127812816Y-131454409D01*
X127723767Y-131199921D01*
X127606784Y-130957003D01*
X127463338Y-130728711D01*
X127295234Y-130517915D01*
X127104585Y-130327266D01*
X126893789Y-130159162D01*
X126665497Y-130015716D01*
X126665494Y-130015714D01*
X126422582Y-129898734D01*
X126168102Y-129809687D01*
X126168094Y-129809684D01*
X125970946Y-129764687D01*
X125905232Y-129749688D01*
X125905228Y-129749687D01*
X125905219Y-129749686D01*
X125637313Y-129719500D01*
X125637309Y-129719500D01*
X125367691Y-129719500D01*
X125367686Y-129719500D01*
X125099780Y-129749686D01*
X125099768Y-129749688D01*
X124836905Y-129809684D01*
X124836897Y-129809687D01*
X124582417Y-129898734D01*
X124339505Y-130015714D01*
X124111212Y-130159161D01*
X123900415Y-130327265D01*
X123709765Y-130517915D01*
X123541661Y-130728712D01*
X123398214Y-130957005D01*
X123281234Y-131199917D01*
X123192187Y-131454397D01*
X123192184Y-131454405D01*
X123132188Y-131717268D01*
X123132186Y-131717280D01*
X123102000Y-131985186D01*
X121000500Y-131985186D01*
X121000500Y-124987981D01*
X129590100Y-124987981D01*
X129590100Y-125162418D01*
X129624127Y-125333483D01*
X129624129Y-125333491D01*
X129690878Y-125494639D01*
X129690883Y-125494648D01*
X129787786Y-125639673D01*
X129787789Y-125639677D01*
X129911122Y-125763010D01*
X129911126Y-125763013D01*
X130056151Y-125859916D01*
X130056157Y-125859919D01*
X130056158Y-125859920D01*
X130217309Y-125926671D01*
X130388381Y-125960699D01*
X130388385Y-125960700D01*
X130388386Y-125960700D01*
X130562815Y-125960700D01*
X130562816Y-125960699D01*
X130733891Y-125926671D01*
X130895042Y-125859920D01*
X131040074Y-125763013D01*
X131163413Y-125639674D01*
X131260320Y-125494642D01*
X131327071Y-125333491D01*
X131361100Y-125162414D01*
X131361100Y-124987986D01*
X131327071Y-124816909D01*
X131260320Y-124655758D01*
X131260319Y-124655757D01*
X131260316Y-124655751D01*
X131163413Y-124510726D01*
X131163410Y-124510722D01*
X131040077Y-124387389D01*
X131040073Y-124387386D01*
X130895048Y-124290483D01*
X130895039Y-124290478D01*
X130733891Y-124223729D01*
X130733883Y-124223727D01*
X130562818Y-124189700D01*
X130562814Y-124189700D01*
X130388386Y-124189700D01*
X130388381Y-124189700D01*
X130217316Y-124223727D01*
X130217308Y-124223729D01*
X130056160Y-124290478D01*
X130056151Y-124290483D01*
X129911126Y-124387386D01*
X129911122Y-124387389D01*
X129787789Y-124510722D01*
X129787786Y-124510726D01*
X129690883Y-124655751D01*
X129690878Y-124655760D01*
X129624129Y-124816908D01*
X129624127Y-124816916D01*
X129590100Y-124987981D01*
X121000500Y-124987981D01*
X121000500Y-121525184D01*
X130925100Y-121525184D01*
X130925100Y-122625215D01*
X130935600Y-122727995D01*
X130935601Y-122727997D01*
X130948174Y-122765939D01*
X130990786Y-122894535D01*
X130990787Y-122894537D01*
X131082886Y-123043851D01*
X131082889Y-123043855D01*
X131206944Y-123167910D01*
X131206948Y-123167913D01*
X131356262Y-123260012D01*
X131356264Y-123260013D01*
X131356266Y-123260014D01*
X131522803Y-123315199D01*
X131625592Y-123325700D01*
X131625597Y-123325700D01*
X133245603Y-123325700D01*
X133245608Y-123325700D01*
X133348397Y-123315199D01*
X133514934Y-123260014D01*
X133664255Y-123167911D01*
X133788311Y-123043855D01*
X133880414Y-122894534D01*
X133935599Y-122727997D01*
X133946100Y-122625208D01*
X133946100Y-121525192D01*
X133935599Y-121422403D01*
X133880414Y-121255866D01*
X133876487Y-121249500D01*
X133788313Y-121106548D01*
X133788310Y-121106544D01*
X133664255Y-120982489D01*
X133664251Y-120982486D01*
X133514937Y-120890387D01*
X133514935Y-120890386D01*
X133409604Y-120855483D01*
X133348397Y-120835201D01*
X133348395Y-120835200D01*
X133245615Y-120824700D01*
X133245608Y-120824700D01*
X131625592Y-120824700D01*
X131625584Y-120824700D01*
X131522804Y-120835200D01*
X131522803Y-120835201D01*
X131356264Y-120890386D01*
X131356262Y-120890387D01*
X131206948Y-120982486D01*
X131206944Y-120982489D01*
X131082889Y-121106544D01*
X131082886Y-121106548D01*
X130990787Y-121255862D01*
X130990786Y-121255864D01*
X130935601Y-121422403D01*
X130935600Y-121422404D01*
X130925100Y-121525184D01*
X121000500Y-121525184D01*
X121000500Y-118976777D01*
X130925100Y-118976777D01*
X130925100Y-119173622D01*
X130955890Y-119368026D01*
X131016717Y-119555229D01*
X131066431Y-119652797D01*
X131106076Y-119730605D01*
X131221772Y-119889846D01*
X131360954Y-120029028D01*
X131520195Y-120144724D01*
X131598873Y-120184812D01*
X131695570Y-120234082D01*
X131695572Y-120234082D01*
X131695575Y-120234084D01*
X131795917Y-120266687D01*
X131882773Y-120294909D01*
X132077178Y-120325700D01*
X132077183Y-120325700D01*
X132794022Y-120325700D01*
X132988426Y-120294909D01*
X133024022Y-120283343D01*
X133175625Y-120234084D01*
X133351005Y-120144724D01*
X133510246Y-120029028D01*
X133649428Y-119889846D01*
X133765124Y-119730605D01*
X133854484Y-119555225D01*
X133915309Y-119368026D01*
X133946100Y-119173622D01*
X133946100Y-118976777D01*
X133915309Y-118782373D01*
X133875026Y-118658396D01*
X133854484Y-118595175D01*
X133854482Y-118595172D01*
X133854482Y-118595170D01*
X133807343Y-118502655D01*
X133765124Y-118419795D01*
X133649428Y-118260554D01*
X133510246Y-118121372D01*
X133351005Y-118005676D01*
X133175629Y-117916317D01*
X132988426Y-117855490D01*
X132794022Y-117824700D01*
X132794017Y-117824700D01*
X132077183Y-117824700D01*
X132077178Y-117824700D01*
X131882773Y-117855490D01*
X131695570Y-117916317D01*
X131520194Y-118005676D01*
X131429341Y-118071685D01*
X131360954Y-118121372D01*
X131360952Y-118121374D01*
X131360951Y-118121374D01*
X131221774Y-118260551D01*
X131221774Y-118260552D01*
X131221772Y-118260554D01*
X131202969Y-118286434D01*
X131106076Y-118419794D01*
X131016717Y-118595170D01*
X130955890Y-118782373D01*
X130925100Y-118976777D01*
X121000500Y-118976777D01*
X121000500Y-115987981D01*
X129590100Y-115987981D01*
X129590100Y-116162418D01*
X129624127Y-116333483D01*
X129624129Y-116333491D01*
X129690878Y-116494639D01*
X129690883Y-116494648D01*
X129787786Y-116639673D01*
X129787789Y-116639677D01*
X129911122Y-116763010D01*
X129911126Y-116763013D01*
X130056151Y-116859916D01*
X130056157Y-116859919D01*
X130056158Y-116859920D01*
X130217309Y-116926671D01*
X130388381Y-116960699D01*
X130388385Y-116960700D01*
X130388386Y-116960700D01*
X130562815Y-116960700D01*
X130562816Y-116960699D01*
X130733891Y-116926671D01*
X130895042Y-116859920D01*
X131040074Y-116763013D01*
X131163413Y-116639674D01*
X131260320Y-116494642D01*
X131327071Y-116333491D01*
X131361100Y-116162414D01*
X131361100Y-115987986D01*
X131327071Y-115816909D01*
X131260320Y-115655758D01*
X131260319Y-115655757D01*
X131260316Y-115655751D01*
X131163413Y-115510726D01*
X131163410Y-115510722D01*
X131040077Y-115387389D01*
X131040073Y-115387386D01*
X130895048Y-115290483D01*
X130895039Y-115290478D01*
X130733891Y-115223729D01*
X130733883Y-115223727D01*
X130562818Y-115189700D01*
X130562814Y-115189700D01*
X130388386Y-115189700D01*
X130388381Y-115189700D01*
X130217316Y-115223727D01*
X130217308Y-115223729D01*
X130056160Y-115290478D01*
X130056151Y-115290483D01*
X129911126Y-115387386D01*
X129911122Y-115387389D01*
X129787789Y-115510722D01*
X129787786Y-115510726D01*
X129690883Y-115655751D01*
X129690878Y-115655760D01*
X129624129Y-115816908D01*
X129624127Y-115816916D01*
X129590100Y-115987981D01*
X121000500Y-115987981D01*
X121000500Y-114684108D01*
X120966392Y-114556814D01*
X120900500Y-114442686D01*
X120807314Y-114349500D01*
X120750250Y-114316554D01*
X120693187Y-114283608D01*
X120629539Y-114266554D01*
X120565892Y-114249500D01*
X120065892Y-114249500D01*
X119934108Y-114249500D01*
X119806812Y-114283608D01*
X119692686Y-114349500D01*
X119692683Y-114349502D01*
X119599502Y-114442683D01*
X119599500Y-114442686D01*
X119533608Y-114556812D01*
X119499500Y-114684108D01*
X119499500Y-136315891D01*
X119533609Y-136443188D01*
X119535624Y-136448054D01*
X119543089Y-136517524D01*
X119511810Y-136580001D01*
X119451719Y-136615650D01*
X119421060Y-136619500D01*
X80624500Y-136619500D01*
X80557461Y-136599815D01*
X80511706Y-136547011D01*
X80500500Y-136495500D01*
X80500500Y-131865186D01*
X82599500Y-131865186D01*
X82599500Y-132134813D01*
X82629686Y-132402719D01*
X82629688Y-132402731D01*
X82689684Y-132665594D01*
X82689687Y-132665602D01*
X82778734Y-132920082D01*
X82895714Y-133162994D01*
X82895716Y-133162997D01*
X83039162Y-133391289D01*
X83207266Y-133602085D01*
X83397915Y-133792734D01*
X83608711Y-133960838D01*
X83837003Y-134104284D01*
X84079921Y-134221267D01*
X84271049Y-134288145D01*
X84334397Y-134310312D01*
X84334405Y-134310315D01*
X84334408Y-134310315D01*
X84334409Y-134310316D01*
X84597268Y-134370312D01*
X84865187Y-134400499D01*
X84865188Y-134400500D01*
X84865191Y-134400500D01*
X85134812Y-134400500D01*
X85134812Y-134400499D01*
X85402732Y-134370312D01*
X85665591Y-134310316D01*
X85920079Y-134221267D01*
X86162997Y-134104284D01*
X86391289Y-133960838D01*
X86602085Y-133792734D01*
X86792734Y-133602085D01*
X86960838Y-133391289D01*
X87104284Y-133162997D01*
X87221267Y-132920079D01*
X87310316Y-132665591D01*
X87370312Y-132402732D01*
X87400500Y-132134809D01*
X87400500Y-131865191D01*
X87400499Y-131865186D01*
X112599500Y-131865186D01*
X112599500Y-132134813D01*
X112629686Y-132402719D01*
X112629688Y-132402731D01*
X112689684Y-132665594D01*
X112689687Y-132665602D01*
X112778734Y-132920082D01*
X112895714Y-133162994D01*
X112895716Y-133162997D01*
X113039162Y-133391289D01*
X113207266Y-133602085D01*
X113397915Y-133792734D01*
X113608711Y-133960838D01*
X113837003Y-134104284D01*
X114079921Y-134221267D01*
X114271049Y-134288145D01*
X114334397Y-134310312D01*
X114334405Y-134310315D01*
X114334408Y-134310315D01*
X114334409Y-134310316D01*
X114597268Y-134370312D01*
X114865187Y-134400499D01*
X114865188Y-134400500D01*
X114865191Y-134400500D01*
X115134812Y-134400500D01*
X115134812Y-134400499D01*
X115402732Y-134370312D01*
X115665591Y-134310316D01*
X115920079Y-134221267D01*
X116162997Y-134104284D01*
X116391289Y-133960838D01*
X116602085Y-133792734D01*
X116792734Y-133602085D01*
X116960838Y-133391289D01*
X117104284Y-133162997D01*
X117221267Y-132920079D01*
X117310316Y-132665591D01*
X117370312Y-132402732D01*
X117400500Y-132134809D01*
X117400500Y-131865191D01*
X117370312Y-131597268D01*
X117310316Y-131334409D01*
X117221267Y-131079921D01*
X117104284Y-130837003D01*
X116960838Y-130608711D01*
X116792734Y-130397915D01*
X116602085Y-130207266D01*
X116593599Y-130200499D01*
X116487978Y-130116269D01*
X116391289Y-130039162D01*
X116162997Y-129895716D01*
X116162994Y-129895714D01*
X115920082Y-129778734D01*
X115665602Y-129689687D01*
X115665594Y-129689684D01*
X115468446Y-129644687D01*
X115402732Y-129629688D01*
X115402728Y-129629687D01*
X115402719Y-129629686D01*
X115134813Y-129599500D01*
X115134809Y-129599500D01*
X114865191Y-129599500D01*
X114865186Y-129599500D01*
X114597280Y-129629686D01*
X114597268Y-129629688D01*
X114334405Y-129689684D01*
X114334397Y-129689687D01*
X114079917Y-129778734D01*
X113837005Y-129895714D01*
X113608712Y-130039161D01*
X113397915Y-130207265D01*
X113207265Y-130397915D01*
X113039161Y-130608712D01*
X112895714Y-130837005D01*
X112778734Y-131079917D01*
X112689687Y-131334397D01*
X112689684Y-131334405D01*
X112629688Y-131597268D01*
X112629686Y-131597280D01*
X112599500Y-131865186D01*
X87400499Y-131865186D01*
X87370312Y-131597268D01*
X87310316Y-131334409D01*
X87221267Y-131079921D01*
X87104284Y-130837003D01*
X86960838Y-130608711D01*
X86792734Y-130397915D01*
X86602085Y-130207266D01*
X86593599Y-130200499D01*
X86487978Y-130116269D01*
X86391289Y-130039162D01*
X86162997Y-129895716D01*
X86162994Y-129895714D01*
X85920082Y-129778734D01*
X85665602Y-129689687D01*
X85665594Y-129689684D01*
X85468446Y-129644687D01*
X85402732Y-129629688D01*
X85402728Y-129629687D01*
X85402719Y-129629686D01*
X85134813Y-129599500D01*
X85134809Y-129599500D01*
X84865191Y-129599500D01*
X84865186Y-129599500D01*
X84597280Y-129629686D01*
X84597268Y-129629688D01*
X84334405Y-129689684D01*
X84334397Y-129689687D01*
X84079917Y-129778734D01*
X83837005Y-129895714D01*
X83608712Y-130039161D01*
X83397915Y-130207265D01*
X83207265Y-130397915D01*
X83039161Y-130608712D01*
X82895714Y-130837005D01*
X82778734Y-131079917D01*
X82689687Y-131334397D01*
X82689684Y-131334405D01*
X82629688Y-131597268D01*
X82629686Y-131597280D01*
X82599500Y-131865186D01*
X80500500Y-131865186D01*
X80500500Y-128018872D01*
X91949500Y-128018872D01*
X91949500Y-128281127D01*
X91976123Y-128483339D01*
X91983730Y-128541116D01*
X92051602Y-128794418D01*
X92051605Y-128794428D01*
X92151953Y-129036690D01*
X92151958Y-129036700D01*
X92283075Y-129263803D01*
X92442718Y-129471851D01*
X92442726Y-129471860D01*
X92628140Y-129657274D01*
X92628148Y-129657281D01*
X92836196Y-129816924D01*
X93063299Y-129948041D01*
X93063309Y-129948046D01*
X93283281Y-130039161D01*
X93305581Y-130048398D01*
X93558884Y-130116270D01*
X93818880Y-130150500D01*
X93818887Y-130150500D01*
X94081113Y-130150500D01*
X94081120Y-130150500D01*
X94341116Y-130116270D01*
X94594419Y-130048398D01*
X94836697Y-129948043D01*
X95063803Y-129816924D01*
X95271851Y-129657282D01*
X95271855Y-129657277D01*
X95271860Y-129657274D01*
X95457274Y-129471860D01*
X95457277Y-129471855D01*
X95457282Y-129471851D01*
X95616924Y-129263803D01*
X95748043Y-129036697D01*
X95848398Y-128794419D01*
X95916270Y-128541116D01*
X95950500Y-128281120D01*
X95950500Y-128018880D01*
X95916270Y-127758884D01*
X95848398Y-127505581D01*
X95848394Y-127505571D01*
X95748046Y-127263309D01*
X95748041Y-127263299D01*
X95616924Y-127036196D01*
X95457281Y-126828148D01*
X95457274Y-126828140D01*
X95271860Y-126642726D01*
X95271851Y-126642718D01*
X95063803Y-126483075D01*
X94836700Y-126351958D01*
X94836690Y-126351953D01*
X94594428Y-126251605D01*
X94594421Y-126251603D01*
X94594419Y-126251602D01*
X94341116Y-126183730D01*
X94283339Y-126176123D01*
X94081127Y-126149500D01*
X94081120Y-126149500D01*
X93818880Y-126149500D01*
X93818872Y-126149500D01*
X93587772Y-126179926D01*
X93558884Y-126183730D01*
X93305581Y-126251602D01*
X93305571Y-126251605D01*
X93063309Y-126351953D01*
X93063299Y-126351958D01*
X92836196Y-126483075D01*
X92628148Y-126642718D01*
X92442718Y-126828148D01*
X92283075Y-127036196D01*
X92151958Y-127263299D01*
X92151953Y-127263309D01*
X92051605Y-127505571D01*
X92051602Y-127505581D01*
X91983730Y-127758885D01*
X91949500Y-128018872D01*
X80500500Y-128018872D01*
X80500500Y-115835258D01*
X92199500Y-115835258D01*
X92199500Y-116064741D01*
X92216914Y-116197007D01*
X92229452Y-116292238D01*
X92266258Y-116429600D01*
X92288842Y-116513887D01*
X92376650Y-116725876D01*
X92376657Y-116725890D01*
X92410623Y-116784721D01*
X92491228Y-116924334D01*
X92491392Y-116924617D01*
X92631081Y-117106661D01*
X92631089Y-117106670D01*
X92793330Y-117268911D01*
X92793338Y-117268918D01*
X92975382Y-117408607D01*
X92975385Y-117408608D01*
X92975388Y-117408611D01*
X93174112Y-117523344D01*
X93174117Y-117523346D01*
X93174123Y-117523349D01*
X93265480Y-117561190D01*
X93386113Y-117611158D01*
X93607762Y-117670548D01*
X93835266Y-117700500D01*
X93835273Y-117700500D01*
X94064727Y-117700500D01*
X94064734Y-117700500D01*
X94292238Y-117670548D01*
X94513887Y-117611158D01*
X94725888Y-117523344D01*
X94924612Y-117408611D01*
X95106661Y-117268919D01*
X95106665Y-117268914D01*
X95106670Y-117268911D01*
X95268911Y-117106670D01*
X95268914Y-117106665D01*
X95268919Y-117106661D01*
X95408611Y-116924612D01*
X95523344Y-116725888D01*
X95611158Y-116513887D01*
X95670548Y-116292238D01*
X95700500Y-116064734D01*
X95700500Y-115835266D01*
X95670548Y-115607762D01*
X95611158Y-115386113D01*
X95560532Y-115263891D01*
X95523349Y-115174123D01*
X95523346Y-115174117D01*
X95523344Y-115174112D01*
X95408611Y-114975388D01*
X95408608Y-114975385D01*
X95408607Y-114975382D01*
X95268918Y-114793338D01*
X95268911Y-114793330D01*
X95106670Y-114631089D01*
X95106661Y-114631081D01*
X94924617Y-114491392D01*
X94855473Y-114451472D01*
X94750927Y-114391112D01*
X94725890Y-114376657D01*
X94725876Y-114376650D01*
X94513887Y-114288842D01*
X94494353Y-114283608D01*
X94292238Y-114229452D01*
X94254215Y-114224446D01*
X94064741Y-114199500D01*
X94064734Y-114199500D01*
X93835266Y-114199500D01*
X93835258Y-114199500D01*
X93618715Y-114228009D01*
X93607762Y-114229452D01*
X93532941Y-114249500D01*
X93386112Y-114288842D01*
X93174123Y-114376650D01*
X93174109Y-114376657D01*
X92975382Y-114491392D01*
X92793338Y-114631081D01*
X92631081Y-114793338D01*
X92491392Y-114975382D01*
X92376657Y-115174109D01*
X92376650Y-115174123D01*
X92288842Y-115386112D01*
X92275603Y-115435522D01*
X92232431Y-115596646D01*
X92229453Y-115607759D01*
X92229451Y-115607770D01*
X92199500Y-115835258D01*
X80500500Y-115835258D01*
X80500500Y-113868872D01*
X97999500Y-113868872D01*
X97999500Y-114131127D01*
X98024076Y-114317786D01*
X98033730Y-114391116D01*
X98101602Y-114644418D01*
X98101605Y-114644428D01*
X98201953Y-114886690D01*
X98201958Y-114886700D01*
X98333075Y-115113803D01*
X98410945Y-115215283D01*
X98468648Y-115290483D01*
X98473875Y-115297294D01*
X98499070Y-115362463D01*
X98499500Y-115372781D01*
X98499500Y-117618097D01*
X98536446Y-117851368D01*
X98609433Y-118075996D01*
X98716657Y-118286434D01*
X98855483Y-118477510D01*
X100522490Y-120144517D01*
X100645765Y-120234082D01*
X100713567Y-120283344D01*
X100755131Y-120304521D01*
X100796697Y-120325700D01*
X100924003Y-120390566D01*
X100924005Y-120390566D01*
X100924008Y-120390568D01*
X101002686Y-120416132D01*
X101148631Y-120463553D01*
X101381903Y-120500500D01*
X101381908Y-120500500D01*
X106629448Y-120500500D01*
X106696487Y-120520185D01*
X106742242Y-120572989D01*
X106752186Y-120642147D01*
X106723161Y-120705703D01*
X106702336Y-120724816D01*
X106522490Y-120855483D01*
X106522488Y-120855485D01*
X106522487Y-120855485D01*
X104855484Y-122522488D01*
X104716657Y-122713565D01*
X104629817Y-122884000D01*
X104609433Y-122924003D01*
X104536446Y-123148631D01*
X104499500Y-123381902D01*
X104499500Y-126827218D01*
X104479815Y-126894257D01*
X104473882Y-126902695D01*
X104417697Y-126975916D01*
X104333072Y-127086201D01*
X104201958Y-127313299D01*
X104201953Y-127313309D01*
X104101605Y-127555571D01*
X104101602Y-127555581D01*
X104047128Y-127758884D01*
X104033730Y-127808885D01*
X103999500Y-128068872D01*
X103999500Y-128331127D01*
X104026123Y-128533339D01*
X104033730Y-128591116D01*
X104088205Y-128794419D01*
X104101602Y-128844418D01*
X104101605Y-128844428D01*
X104201953Y-129086690D01*
X104201958Y-129086700D01*
X104333075Y-129313803D01*
X104492718Y-129521851D01*
X104492726Y-129521860D01*
X104678140Y-129707274D01*
X104678148Y-129707281D01*
X104886196Y-129866924D01*
X105113299Y-129998041D01*
X105113309Y-129998046D01*
X105355571Y-130098394D01*
X105355581Y-130098398D01*
X105608884Y-130166270D01*
X105868880Y-130200500D01*
X105868887Y-130200500D01*
X106131113Y-130200500D01*
X106131120Y-130200500D01*
X106391116Y-130166270D01*
X106644419Y-130098398D01*
X106886697Y-129998043D01*
X107113803Y-129866924D01*
X107321851Y-129707282D01*
X107321855Y-129707277D01*
X107321860Y-129707274D01*
X107507274Y-129521860D01*
X107507277Y-129521855D01*
X107507282Y-129521851D01*
X107666924Y-129313803D01*
X107798043Y-129086697D01*
X107898398Y-128844419D01*
X107966270Y-128591116D01*
X108000500Y-128331120D01*
X108000500Y-128068880D01*
X107966270Y-127808884D01*
X107898398Y-127555581D01*
X107898394Y-127555571D01*
X107798046Y-127313309D01*
X107798041Y-127313299D01*
X107666927Y-127086201D01*
X107628557Y-127036197D01*
X107526123Y-126902703D01*
X107500930Y-126837536D01*
X107500500Y-126827218D01*
X107500500Y-124912781D01*
X115989500Y-124912781D01*
X115989500Y-125087218D01*
X116023527Y-125258283D01*
X116023529Y-125258291D01*
X116090278Y-125419439D01*
X116090283Y-125419448D01*
X116187186Y-125564473D01*
X116187189Y-125564477D01*
X116310522Y-125687810D01*
X116310526Y-125687813D01*
X116455551Y-125784716D01*
X116455557Y-125784719D01*
X116455558Y-125784720D01*
X116616709Y-125851471D01*
X116787781Y-125885499D01*
X116787785Y-125885500D01*
X116787786Y-125885500D01*
X116962215Y-125885500D01*
X116962216Y-125885499D01*
X117133291Y-125851471D01*
X117294442Y-125784720D01*
X117439474Y-125687813D01*
X117562813Y-125564474D01*
X117659720Y-125419442D01*
X117726471Y-125258291D01*
X117760500Y-125087214D01*
X117760500Y-124912786D01*
X117726471Y-124741709D01*
X117659720Y-124580558D01*
X117659719Y-124580557D01*
X117659716Y-124580551D01*
X117562813Y-124435526D01*
X117562810Y-124435522D01*
X117439477Y-124312189D01*
X117439473Y-124312186D01*
X117294448Y-124215283D01*
X117294439Y-124215278D01*
X117133291Y-124148529D01*
X117133283Y-124148527D01*
X116962218Y-124114500D01*
X116962214Y-124114500D01*
X116787786Y-124114500D01*
X116787781Y-124114500D01*
X116616716Y-124148527D01*
X116616708Y-124148529D01*
X116455560Y-124215278D01*
X116455551Y-124215283D01*
X116310526Y-124312186D01*
X116310522Y-124312189D01*
X116187189Y-124435522D01*
X116187186Y-124435526D01*
X116090283Y-124580551D01*
X116090278Y-124580560D01*
X116023529Y-124741708D01*
X116023527Y-124741716D01*
X115989500Y-124912781D01*
X107500500Y-124912781D01*
X107500500Y-124172889D01*
X107520185Y-124105850D01*
X107536819Y-124085208D01*
X108085208Y-123536819D01*
X108146531Y-123503334D01*
X108172889Y-123500500D01*
X115033097Y-123500500D01*
X115266368Y-123463553D01*
X115490992Y-123390568D01*
X115701433Y-123283343D01*
X115892510Y-123144517D01*
X116059517Y-122977510D01*
X116198343Y-122786433D01*
X116305568Y-122575992D01*
X116378553Y-122351368D01*
X116379751Y-122343799D01*
X116384295Y-122324875D01*
X116394709Y-122292826D01*
X116415110Y-122164018D01*
X116425500Y-122098422D01*
X116425500Y-121901577D01*
X116395235Y-121710495D01*
X116394709Y-121707174D01*
X116384293Y-121675117D01*
X116379752Y-121656203D01*
X116378553Y-121648632D01*
X116305568Y-121424008D01*
X116305566Y-121424005D01*
X116305566Y-121424003D01*
X116219760Y-121255600D01*
X116198343Y-121213567D01*
X116059517Y-121022490D01*
X115892510Y-120855483D01*
X115701433Y-120716657D01*
X115493057Y-120610484D01*
X115442262Y-120562511D01*
X115425467Y-120494690D01*
X115448004Y-120428555D01*
X115493057Y-120389515D01*
X115701433Y-120283343D01*
X115723139Y-120267571D01*
X115783424Y-120244531D01*
X115827797Y-120239999D01*
X115994334Y-120184814D01*
X116143655Y-120092711D01*
X116267711Y-119968655D01*
X116359814Y-119819334D01*
X116414999Y-119652797D01*
X116425500Y-119550008D01*
X116425500Y-118449992D01*
X116414999Y-118347203D01*
X116359814Y-118180666D01*
X116295252Y-118075996D01*
X116267713Y-118031348D01*
X116267710Y-118031344D01*
X116143655Y-117907289D01*
X116143651Y-117907286D01*
X115994337Y-117815187D01*
X115994335Y-117815186D01*
X115827798Y-117760001D01*
X115827791Y-117760000D01*
X115783421Y-117755467D01*
X115723141Y-117732428D01*
X115701435Y-117716658D01*
X115490996Y-117609433D01*
X115266368Y-117536446D01*
X115033097Y-117499500D01*
X115033092Y-117499500D01*
X107120766Y-117499500D01*
X107053727Y-117479815D01*
X107007972Y-117427011D01*
X106997031Y-117367391D01*
X106998064Y-117351617D01*
X106079409Y-116432962D01*
X106142993Y-116415925D01*
X106257007Y-116350099D01*
X106350099Y-116257007D01*
X106415925Y-116142993D01*
X106432962Y-116079409D01*
X107351617Y-116998064D01*
X107408192Y-116924334D01*
X107408197Y-116924327D01*
X107522893Y-116725668D01*
X107522901Y-116725653D01*
X107610681Y-116513730D01*
X107670057Y-116292137D01*
X107699998Y-116064710D01*
X107700000Y-116064694D01*
X107700000Y-115912781D01*
X115989500Y-115912781D01*
X115989500Y-116087218D01*
X116023527Y-116258283D01*
X116023529Y-116258291D01*
X116090278Y-116419439D01*
X116090283Y-116419448D01*
X116187186Y-116564473D01*
X116187189Y-116564477D01*
X116310522Y-116687810D01*
X116310526Y-116687813D01*
X116455551Y-116784716D01*
X116455557Y-116784719D01*
X116455558Y-116784720D01*
X116616709Y-116851471D01*
X116752459Y-116878473D01*
X116787781Y-116885499D01*
X116787785Y-116885500D01*
X116787786Y-116885500D01*
X116962215Y-116885500D01*
X116962216Y-116885499D01*
X117133291Y-116851471D01*
X117294442Y-116784720D01*
X117439474Y-116687813D01*
X117562813Y-116564474D01*
X117659720Y-116419442D01*
X117726471Y-116258291D01*
X117760500Y-116087214D01*
X117760500Y-115912786D01*
X117726471Y-115741709D01*
X117659720Y-115580558D01*
X117659719Y-115580557D01*
X117659716Y-115580551D01*
X117562813Y-115435526D01*
X117562810Y-115435522D01*
X117439477Y-115312189D01*
X117439473Y-115312186D01*
X117294448Y-115215283D01*
X117294439Y-115215278D01*
X117133291Y-115148529D01*
X117133283Y-115148527D01*
X116962218Y-115114500D01*
X116962214Y-115114500D01*
X116787786Y-115114500D01*
X116787781Y-115114500D01*
X116616716Y-115148527D01*
X116616708Y-115148529D01*
X116455560Y-115215278D01*
X116455551Y-115215283D01*
X116310526Y-115312186D01*
X116310522Y-115312189D01*
X116187189Y-115435522D01*
X116187186Y-115435526D01*
X116090283Y-115580551D01*
X116090278Y-115580560D01*
X116023529Y-115741708D01*
X116023527Y-115741716D01*
X115989500Y-115912781D01*
X107700000Y-115912781D01*
X107700000Y-115835305D01*
X107699998Y-115835289D01*
X107670057Y-115607862D01*
X107610681Y-115386269D01*
X107522897Y-115174340D01*
X107522893Y-115174330D01*
X107408194Y-114975666D01*
X107351618Y-114901934D01*
X107351617Y-114901934D01*
X106432962Y-115820589D01*
X106415925Y-115757007D01*
X106350099Y-115642993D01*
X106257007Y-115549901D01*
X106142993Y-115484075D01*
X106079407Y-115467037D01*
X106998064Y-114548381D01*
X106998064Y-114548380D01*
X106924331Y-114491805D01*
X106924324Y-114491799D01*
X106725669Y-114377106D01*
X106725659Y-114377102D01*
X106513730Y-114289318D01*
X106292137Y-114229942D01*
X106064710Y-114200001D01*
X106064694Y-114200000D01*
X105835306Y-114200000D01*
X105835289Y-114200001D01*
X105607862Y-114229942D01*
X105386269Y-114289318D01*
X105174340Y-114377102D01*
X105174330Y-114377106D01*
X104975673Y-114491801D01*
X104975659Y-114491810D01*
X104901934Y-114548380D01*
X105820590Y-115467037D01*
X105757007Y-115484075D01*
X105642993Y-115549901D01*
X105549901Y-115642993D01*
X105484075Y-115757007D01*
X105467037Y-115820590D01*
X104548380Y-114901934D01*
X104491810Y-114975659D01*
X104491801Y-114975673D01*
X104377106Y-115174330D01*
X104377102Y-115174340D01*
X104289318Y-115386269D01*
X104229942Y-115607862D01*
X104200001Y-115835289D01*
X104200000Y-115835305D01*
X104200000Y-116064694D01*
X104200001Y-116064710D01*
X104229942Y-116292137D01*
X104289318Y-116513730D01*
X104377099Y-116725653D01*
X104377106Y-116725669D01*
X104491799Y-116924324D01*
X104491805Y-116924331D01*
X104548381Y-116998064D01*
X105467037Y-116079408D01*
X105484075Y-116142993D01*
X105549901Y-116257007D01*
X105642993Y-116350099D01*
X105757007Y-116415925D01*
X105820590Y-116432962D01*
X104901934Y-117351617D01*
X104902968Y-117367391D01*
X104887709Y-117435574D01*
X104838011Y-117484684D01*
X104779233Y-117499500D01*
X102172889Y-117499500D01*
X102105850Y-117479815D01*
X102085208Y-117463181D01*
X101536819Y-116914792D01*
X101503334Y-116853469D01*
X101500500Y-116827111D01*
X101500500Y-115372781D01*
X101520185Y-115305742D01*
X101526125Y-115297294D01*
X101531352Y-115290483D01*
X101666924Y-115113803D01*
X101798043Y-114886697D01*
X101898398Y-114644419D01*
X101966270Y-114391116D01*
X102000500Y-114131120D01*
X102000500Y-113868880D01*
X101966270Y-113608884D01*
X101913725Y-113412781D01*
X116074500Y-113412781D01*
X116074500Y-113587215D01*
X116108527Y-113758283D01*
X116108529Y-113758291D01*
X116175278Y-113919439D01*
X116175283Y-113919448D01*
X116272186Y-114064473D01*
X116272189Y-114064477D01*
X116395522Y-114187810D01*
X116395526Y-114187813D01*
X116540551Y-114284716D01*
X116540560Y-114284721D01*
X116577066Y-114299842D01*
X116701709Y-114351471D01*
X116868845Y-114384716D01*
X116872781Y-114385499D01*
X116872785Y-114385500D01*
X116872786Y-114385500D01*
X117047215Y-114385500D01*
X117047216Y-114385499D01*
X117218291Y-114351471D01*
X117379442Y-114284720D01*
X117524474Y-114187813D01*
X117647813Y-114064474D01*
X117744720Y-113919442D01*
X117811471Y-113758291D01*
X117836934Y-113630276D01*
X117845500Y-113587215D01*
X117845500Y-113512781D01*
X129659500Y-113512781D01*
X129659500Y-113687218D01*
X129693527Y-113858283D01*
X129693529Y-113858291D01*
X129760278Y-114019439D01*
X129760283Y-114019448D01*
X129857186Y-114164473D01*
X129857189Y-114164477D01*
X129980522Y-114287810D01*
X129980526Y-114287813D01*
X130125551Y-114384716D01*
X130125560Y-114384721D01*
X130140994Y-114391114D01*
X130286709Y-114451471D01*
X130457781Y-114485499D01*
X130457785Y-114485500D01*
X130457786Y-114485500D01*
X130632215Y-114485500D01*
X130632216Y-114485499D01*
X130803291Y-114451471D01*
X130964442Y-114384720D01*
X131109474Y-114287813D01*
X131232813Y-114164474D01*
X131329720Y-114019442D01*
X131396471Y-113858291D01*
X131430500Y-113687214D01*
X131430500Y-113567486D01*
X137502501Y-113567486D01*
X137512994Y-113670197D01*
X137568141Y-113836619D01*
X137568143Y-113836624D01*
X137660184Y-113985845D01*
X137784154Y-114109815D01*
X137933375Y-114201856D01*
X137933380Y-114201858D01*
X138099802Y-114257005D01*
X138099809Y-114257006D01*
X138202519Y-114267499D01*
X138352499Y-114267499D01*
X138352500Y-114267498D01*
X138352500Y-113317500D01*
X137502501Y-113317500D01*
X137502501Y-113567486D01*
X131430500Y-113567486D01*
X131430500Y-113512786D01*
X131396471Y-113341709D01*
X131360987Y-113256043D01*
X131329721Y-113180560D01*
X131329716Y-113180551D01*
X131232813Y-113035526D01*
X131232810Y-113035522D01*
X131109477Y-112912189D01*
X131109473Y-112912186D01*
X130964448Y-112815283D01*
X130964439Y-112815278D01*
X130803291Y-112748529D01*
X130803283Y-112748527D01*
X130632218Y-112714500D01*
X130632214Y-112714500D01*
X130457786Y-112714500D01*
X130457781Y-112714500D01*
X130286716Y-112748527D01*
X130286708Y-112748529D01*
X130125560Y-112815278D01*
X130125551Y-112815283D01*
X129980526Y-112912186D01*
X129980522Y-112912189D01*
X129857189Y-113035522D01*
X129857186Y-113035526D01*
X129760283Y-113180551D01*
X129760278Y-113180560D01*
X129693529Y-113341708D01*
X129693527Y-113341716D01*
X129659500Y-113512781D01*
X117845500Y-113512781D01*
X117845500Y-113412785D01*
X117845499Y-113412781D01*
X117831362Y-113341708D01*
X117811471Y-113241709D01*
X117744720Y-113080558D01*
X117744719Y-113080557D01*
X117744716Y-113080551D01*
X117647813Y-112935526D01*
X117647810Y-112935522D01*
X117524477Y-112812189D01*
X117524473Y-112812186D01*
X117379448Y-112715283D01*
X117379439Y-112715278D01*
X117218291Y-112648529D01*
X117218283Y-112648527D01*
X117047218Y-112614500D01*
X117047214Y-112614500D01*
X116872786Y-112614500D01*
X116872781Y-112614500D01*
X116701716Y-112648527D01*
X116701708Y-112648529D01*
X116540560Y-112715278D01*
X116540551Y-112715283D01*
X116395526Y-112812186D01*
X116395522Y-112812189D01*
X116272189Y-112935522D01*
X116272186Y-112935526D01*
X116175283Y-113080551D01*
X116175278Y-113080560D01*
X116108529Y-113241708D01*
X116108527Y-113241716D01*
X116074500Y-113412781D01*
X101913725Y-113412781D01*
X101898398Y-113355581D01*
X101892652Y-113341708D01*
X101798046Y-113113309D01*
X101798041Y-113113299D01*
X101666924Y-112886196D01*
X101507281Y-112678148D01*
X101507274Y-112678140D01*
X101321860Y-112492726D01*
X101321851Y-112492718D01*
X101113803Y-112333075D01*
X100886700Y-112201958D01*
X100886690Y-112201953D01*
X100644428Y-112101605D01*
X100644421Y-112101603D01*
X100644419Y-112101602D01*
X100391116Y-112033730D01*
X100333339Y-112026123D01*
X100131127Y-111999500D01*
X100131120Y-111999500D01*
X99868880Y-111999500D01*
X99868872Y-111999500D01*
X99637772Y-112029926D01*
X99608884Y-112033730D01*
X99355581Y-112101602D01*
X99355571Y-112101605D01*
X99113309Y-112201953D01*
X99113299Y-112201958D01*
X98886196Y-112333075D01*
X98678148Y-112492718D01*
X98492718Y-112678148D01*
X98333075Y-112886196D01*
X98201958Y-113113299D01*
X98201953Y-113113309D01*
X98101605Y-113355571D01*
X98101603Y-113355578D01*
X98101602Y-113355581D01*
X98039537Y-113587214D01*
X98033730Y-113608885D01*
X97999500Y-113868872D01*
X80500500Y-113868872D01*
X80500500Y-110250000D01*
X113514016Y-110250000D01*
X114555440Y-110250000D01*
X114524755Y-110303147D01*
X114490000Y-110432857D01*
X114490000Y-110567143D01*
X114524755Y-110696853D01*
X114555440Y-110750000D01*
X113514016Y-110750000D01*
X113520781Y-110792716D01*
X113581581Y-110979837D01*
X113670904Y-111155143D01*
X113786555Y-111314321D01*
X113925678Y-111453444D01*
X114084856Y-111569095D01*
X114260164Y-111658418D01*
X114447294Y-111719221D01*
X114641618Y-111750000D01*
X114750000Y-111750000D01*
X114750000Y-110944560D01*
X114803147Y-110975245D01*
X114932857Y-111010000D01*
X115067143Y-111010000D01*
X115196853Y-110975245D01*
X115250000Y-110944560D01*
X115250000Y-111750000D01*
X115358382Y-111750000D01*
X115552705Y-111719221D01*
X115739835Y-111658418D01*
X115915143Y-111569095D01*
X116074321Y-111453444D01*
X116213444Y-111314321D01*
X116329095Y-111155143D01*
X116418418Y-110979837D01*
X116479218Y-110792716D01*
X116485984Y-110750000D01*
X115444560Y-110750000D01*
X115475245Y-110696853D01*
X115510000Y-110567143D01*
X115510000Y-110432857D01*
X115475245Y-110303147D01*
X115444560Y-110250000D01*
X116485984Y-110250000D01*
X116479218Y-110207283D01*
X116418418Y-110020162D01*
X116329095Y-109844856D01*
X116213444Y-109685678D01*
X116074321Y-109546555D01*
X115915143Y-109430904D01*
X115739835Y-109341581D01*
X115552705Y-109280778D01*
X115358382Y-109250000D01*
X115250000Y-109250000D01*
X115250000Y-110055439D01*
X115196853Y-110024755D01*
X115067143Y-109990000D01*
X114932857Y-109990000D01*
X114803147Y-110024755D01*
X114750000Y-110055439D01*
X114750000Y-109250000D01*
X114641618Y-109250000D01*
X114447294Y-109280778D01*
X114260164Y-109341581D01*
X114084856Y-109430904D01*
X113925678Y-109546555D01*
X113786555Y-109685678D01*
X113670904Y-109844856D01*
X113581581Y-110020162D01*
X113520781Y-110207283D01*
X113514016Y-110250000D01*
X80500500Y-110250000D01*
X80500500Y-95865186D01*
X82599500Y-95865186D01*
X82599500Y-96134813D01*
X82629686Y-96402719D01*
X82629688Y-96402731D01*
X82689684Y-96665594D01*
X82689687Y-96665602D01*
X82778734Y-96920082D01*
X82895714Y-97162994D01*
X82895716Y-97162997D01*
X83039162Y-97391289D01*
X83207266Y-97602085D01*
X83397915Y-97792734D01*
X83608711Y-97960838D01*
X83837003Y-98104284D01*
X84079921Y-98221267D01*
X84271049Y-98288145D01*
X84334397Y-98310312D01*
X84334405Y-98310315D01*
X84334408Y-98310315D01*
X84334409Y-98310316D01*
X84597268Y-98370312D01*
X84865187Y-98400499D01*
X84865188Y-98400500D01*
X84865191Y-98400500D01*
X85134812Y-98400500D01*
X85134812Y-98400499D01*
X85402732Y-98370312D01*
X85665591Y-98310316D01*
X85920079Y-98221267D01*
X86162997Y-98104284D01*
X86391289Y-97960838D01*
X86602085Y-97792734D01*
X86792734Y-97602085D01*
X86960838Y-97391289D01*
X87104284Y-97162997D01*
X87221267Y-96920079D01*
X87310316Y-96665591D01*
X87370312Y-96402732D01*
X87400500Y-96134809D01*
X87400500Y-95865191D01*
X87370312Y-95597268D01*
X87347997Y-95499500D01*
X87329936Y-95420368D01*
X87324750Y-95397648D01*
X92699500Y-95397648D01*
X92699500Y-95602351D01*
X92731522Y-95804534D01*
X92794781Y-95999223D01*
X92848928Y-96105491D01*
X92882387Y-96171158D01*
X92887715Y-96181613D01*
X93008028Y-96347213D01*
X93156226Y-96495411D01*
X93154778Y-96496858D01*
X93188259Y-96548183D01*
X93188734Y-96618051D01*
X93151361Y-96677085D01*
X93098043Y-96704602D01*
X93092522Y-96705906D01*
X92957671Y-96756202D01*
X92957664Y-96756206D01*
X92842455Y-96842452D01*
X92842452Y-96842455D01*
X92756206Y-96957664D01*
X92756202Y-96957671D01*
X92705908Y-97092517D01*
X92699501Y-97152116D01*
X92699501Y-97152123D01*
X92699500Y-97152135D01*
X92699500Y-98847870D01*
X92699501Y-98847876D01*
X92705908Y-98907483D01*
X92756202Y-99042328D01*
X92756206Y-99042335D01*
X92797281Y-99097203D01*
X92842454Y-99157546D01*
X92949811Y-99237914D01*
X92991682Y-99293847D01*
X92999500Y-99337180D01*
X92999500Y-100676082D01*
X92999500Y-105323918D01*
X92999500Y-105323920D01*
X92999499Y-105323920D01*
X93028340Y-105468907D01*
X93028343Y-105468917D01*
X93084914Y-105605492D01*
X93117812Y-105654727D01*
X93117813Y-105654730D01*
X93167046Y-105728414D01*
X93167052Y-105728421D01*
X94805980Y-107367348D01*
X94805984Y-107367351D01*
X94928898Y-107449480D01*
X94928911Y-107449487D01*
X95054669Y-107501577D01*
X95065487Y-107506058D01*
X95065491Y-107506058D01*
X95065492Y-107506059D01*
X95210479Y-107534900D01*
X95210482Y-107534900D01*
X95358317Y-107534900D01*
X108541118Y-107534900D01*
X108608157Y-107554585D01*
X108628799Y-107571219D01*
X109192235Y-108134655D01*
X109192264Y-108134686D01*
X109334714Y-108277136D01*
X109334718Y-108277139D01*
X109498579Y-108386628D01*
X109498592Y-108386635D01*
X109627333Y-108439961D01*
X109680546Y-108462002D01*
X109680664Y-108462051D01*
X109713865Y-108468655D01*
X109753888Y-108476616D01*
X109873956Y-108500500D01*
X109873959Y-108500500D01*
X109873960Y-108500500D01*
X110071040Y-108500500D01*
X113627772Y-108500500D01*
X113694811Y-108520185D01*
X113715453Y-108536819D01*
X113771344Y-108592710D01*
X113771348Y-108592713D01*
X113920662Y-108684812D01*
X113920664Y-108684813D01*
X113920666Y-108684814D01*
X114087203Y-108739999D01*
X114189992Y-108750500D01*
X114189997Y-108750500D01*
X115810003Y-108750500D01*
X115810008Y-108750500D01*
X115912797Y-108739999D01*
X116079334Y-108684814D01*
X116228655Y-108592711D01*
X116352711Y-108468655D01*
X116444814Y-108319334D01*
X116499999Y-108152797D01*
X116510500Y-108050008D01*
X116510500Y-106949992D01*
X116499999Y-106847203D01*
X116444814Y-106680666D01*
X116395066Y-106600013D01*
X116352713Y-106531348D01*
X116352710Y-106531344D01*
X116228655Y-106407289D01*
X116228651Y-106407286D01*
X116079337Y-106315187D01*
X116079335Y-106315186D01*
X115971641Y-106279500D01*
X115912797Y-106260001D01*
X115912795Y-106260000D01*
X115810015Y-106249500D01*
X115810008Y-106249500D01*
X114189992Y-106249500D01*
X114189984Y-106249500D01*
X114087204Y-106260000D01*
X114087203Y-106260001D01*
X113920664Y-106315186D01*
X113920662Y-106315187D01*
X113771348Y-106407286D01*
X113771344Y-106407289D01*
X113715453Y-106463181D01*
X113654130Y-106496666D01*
X113627772Y-106499500D01*
X110438282Y-106499500D01*
X110371243Y-106479815D01*
X110350601Y-106463181D01*
X110043719Y-106156299D01*
X110010234Y-106094976D01*
X110007400Y-106068618D01*
X110007400Y-104412781D01*
X116074500Y-104412781D01*
X116074500Y-104587218D01*
X116108527Y-104758283D01*
X116108529Y-104758291D01*
X116175278Y-104919439D01*
X116175283Y-104919448D01*
X116272186Y-105064473D01*
X116272189Y-105064477D01*
X116395522Y-105187810D01*
X116395526Y-105187813D01*
X116540551Y-105284716D01*
X116540557Y-105284719D01*
X116540558Y-105284720D01*
X116701709Y-105351471D01*
X116868845Y-105384716D01*
X116872781Y-105385499D01*
X116872785Y-105385500D01*
X116872786Y-105385500D01*
X117047215Y-105385500D01*
X117047216Y-105385499D01*
X117218291Y-105351471D01*
X117379442Y-105284720D01*
X117524474Y-105187813D01*
X117647813Y-105064474D01*
X117744720Y-104919442D01*
X117811471Y-104758291D01*
X117845500Y-104587214D01*
X117845500Y-104412786D01*
X117811471Y-104241709D01*
X117744720Y-104080558D01*
X117744719Y-104080557D01*
X117744716Y-104080551D01*
X117647813Y-103935526D01*
X117647810Y-103935522D01*
X117524477Y-103812189D01*
X117524473Y-103812186D01*
X117379448Y-103715283D01*
X117379439Y-103715278D01*
X117218291Y-103648529D01*
X117218283Y-103648527D01*
X117047218Y-103614500D01*
X117047214Y-103614500D01*
X116872786Y-103614500D01*
X116872781Y-103614500D01*
X116701716Y-103648527D01*
X116701708Y-103648529D01*
X116540560Y-103715278D01*
X116540551Y-103715283D01*
X116395526Y-103812186D01*
X116395522Y-103812189D01*
X116272189Y-103935522D01*
X116272186Y-103935526D01*
X116175283Y-104080551D01*
X116175278Y-104080560D01*
X116108529Y-104241708D01*
X116108527Y-104241716D01*
X116074500Y-104412781D01*
X110007400Y-104412781D01*
X110007400Y-98985413D01*
X110011894Y-98955120D01*
X110011649Y-98955072D01*
X110012644Y-98950068D01*
X110012742Y-98949410D01*
X110012834Y-98949104D01*
X110012837Y-98949097D01*
X110043600Y-98794442D01*
X110043600Y-98636758D01*
X110043600Y-98636755D01*
X110043599Y-98636753D01*
X110012837Y-98482103D01*
X110012835Y-98482098D01*
X109952497Y-98336427D01*
X109952490Y-98336414D01*
X109864889Y-98205311D01*
X109864886Y-98205307D01*
X109753392Y-98093813D01*
X109753388Y-98093810D01*
X109622285Y-98006209D01*
X109622272Y-98006202D01*
X109476601Y-97945864D01*
X109476589Y-97945861D01*
X109321945Y-97915100D01*
X109321942Y-97915100D01*
X109164258Y-97915100D01*
X109164255Y-97915100D01*
X109009610Y-97945861D01*
X109009598Y-97945864D01*
X108863927Y-98006202D01*
X108863914Y-98006209D01*
X108732811Y-98093810D01*
X108732807Y-98093813D01*
X108621313Y-98205307D01*
X108621310Y-98205311D01*
X108533709Y-98336414D01*
X108533702Y-98336427D01*
X108473364Y-98482098D01*
X108473361Y-98482110D01*
X108442600Y-98636753D01*
X108442600Y-98794446D01*
X108473361Y-98949089D01*
X108473363Y-98949097D01*
X108495606Y-99002797D01*
X108496961Y-99006067D01*
X108506400Y-99053520D01*
X108506400Y-105909900D01*
X108486715Y-105976939D01*
X108433911Y-106022694D01*
X108382400Y-106033900D01*
X95646629Y-106033900D01*
X95579590Y-106014215D01*
X95558948Y-105997581D01*
X94536819Y-104975451D01*
X94503334Y-104914128D01*
X94500500Y-104887770D01*
X94500500Y-101527000D01*
X94520185Y-101459961D01*
X94572989Y-101414206D01*
X94624500Y-101403000D01*
X96240270Y-101403000D01*
X96307309Y-101422685D01*
X96327951Y-101439319D01*
X96331344Y-101442712D01*
X96480666Y-101534814D01*
X96647203Y-101589999D01*
X96749991Y-101600500D01*
X97750008Y-101600499D01*
X97750016Y-101600498D01*
X97750019Y-101600498D01*
X97806302Y-101594748D01*
X97852797Y-101589999D01*
X98019334Y-101534814D01*
X98168656Y-101442712D01*
X98292712Y-101318656D01*
X98383692Y-101171153D01*
X104699500Y-101171153D01*
X104699500Y-101328846D01*
X104730261Y-101483489D01*
X104730264Y-101483501D01*
X104790602Y-101629172D01*
X104790609Y-101629185D01*
X104878210Y-101760288D01*
X104878213Y-101760292D01*
X104989707Y-101871786D01*
X104989711Y-101871789D01*
X105120814Y-101959390D01*
X105120827Y-101959397D01*
X105266498Y-102019735D01*
X105266503Y-102019737D01*
X105421153Y-102050499D01*
X105421156Y-102050500D01*
X105421158Y-102050500D01*
X105578844Y-102050500D01*
X105578845Y-102050499D01*
X105733497Y-102019737D01*
X105879179Y-101959394D01*
X106010289Y-101871789D01*
X106121789Y-101760289D01*
X106209394Y-101629179D01*
X106219191Y-101605524D01*
X106246069Y-101565297D01*
X107332952Y-100478416D01*
X107383478Y-100402797D01*
X107389017Y-100394507D01*
X107389018Y-100394505D01*
X107415084Y-100355495D01*
X107471658Y-100218913D01*
X107493353Y-100109850D01*
X107500500Y-100073920D01*
X107500500Y-96554604D01*
X107509939Y-96507151D01*
X107519737Y-96483497D01*
X107550500Y-96328842D01*
X107550500Y-96171158D01*
X107550500Y-96171155D01*
X107550499Y-96171153D01*
X107537438Y-96105491D01*
X107519737Y-96016503D01*
X107512694Y-95999500D01*
X107475277Y-95909164D01*
X107459795Y-95871789D01*
X107459394Y-95870821D01*
X107459392Y-95870818D01*
X107459390Y-95870814D01*
X107455629Y-95865186D01*
X112599500Y-95865186D01*
X112599500Y-96134813D01*
X112629686Y-96402719D01*
X112629688Y-96402731D01*
X112689684Y-96665594D01*
X112689687Y-96665602D01*
X112778734Y-96920082D01*
X112895714Y-97162994D01*
X112895716Y-97162997D01*
X113039162Y-97391289D01*
X113207266Y-97602085D01*
X113397915Y-97792734D01*
X113608711Y-97960838D01*
X113837003Y-98104284D01*
X114079921Y-98221267D01*
X114271049Y-98288145D01*
X114334397Y-98310312D01*
X114334405Y-98310315D01*
X114334408Y-98310315D01*
X114334409Y-98310316D01*
X114597268Y-98370312D01*
X114865187Y-98400499D01*
X114865188Y-98400500D01*
X114865191Y-98400500D01*
X115134812Y-98400500D01*
X115134812Y-98400499D01*
X115402732Y-98370312D01*
X115665591Y-98310316D01*
X115920079Y-98221267D01*
X116162997Y-98104284D01*
X116391289Y-97960838D01*
X116602085Y-97792734D01*
X116792734Y-97602085D01*
X116960838Y-97391289D01*
X117104284Y-97162997D01*
X117221267Y-96920079D01*
X117310316Y-96665591D01*
X117370312Y-96402732D01*
X117400500Y-96134809D01*
X117400500Y-95865191D01*
X117370312Y-95597268D01*
X117310316Y-95334409D01*
X117308369Y-95328846D01*
X117261698Y-95195466D01*
X117221267Y-95079921D01*
X117120570Y-94870821D01*
X117104285Y-94837005D01*
X117104284Y-94837003D01*
X116960838Y-94608711D01*
X116792734Y-94397915D01*
X116602085Y-94207266D01*
X116391289Y-94039162D01*
X116162997Y-93895716D01*
X116162994Y-93895714D01*
X115920082Y-93778734D01*
X115665602Y-93689687D01*
X115665594Y-93689684D01*
X115468446Y-93644687D01*
X115402732Y-93629688D01*
X115402728Y-93629687D01*
X115402719Y-93629686D01*
X115134813Y-93599500D01*
X115134809Y-93599500D01*
X114865191Y-93599500D01*
X114865186Y-93599500D01*
X114597280Y-93629686D01*
X114597268Y-93629688D01*
X114334405Y-93689684D01*
X114334397Y-93689687D01*
X114079917Y-93778734D01*
X113837005Y-93895714D01*
X113608712Y-94039161D01*
X113397915Y-94207265D01*
X113207265Y-94397915D01*
X113039161Y-94608712D01*
X112895714Y-94837005D01*
X112778734Y-95079917D01*
X112689687Y-95334397D01*
X112689684Y-95334405D01*
X112629688Y-95597268D01*
X112629686Y-95597280D01*
X112599500Y-95865186D01*
X107455629Y-95865186D01*
X107371789Y-95739711D01*
X107371786Y-95739707D01*
X107260292Y-95628213D01*
X107260288Y-95628210D01*
X107129185Y-95540609D01*
X107129172Y-95540602D01*
X106983501Y-95480264D01*
X106983489Y-95480261D01*
X106828845Y-95449500D01*
X106828842Y-95449500D01*
X106671158Y-95449500D01*
X106671155Y-95449500D01*
X106516510Y-95480261D01*
X106516498Y-95480264D01*
X106370827Y-95540602D01*
X106370814Y-95540609D01*
X106239711Y-95628210D01*
X106239707Y-95628213D01*
X106128213Y-95739707D01*
X106128210Y-95739711D01*
X106040609Y-95870814D01*
X106040602Y-95870827D01*
X105980264Y-96016498D01*
X105980261Y-96016510D01*
X105949500Y-96171153D01*
X105949500Y-96328846D01*
X105980261Y-96483489D01*
X105980263Y-96483497D01*
X105990061Y-96507151D01*
X105999500Y-96554604D01*
X105999500Y-99637769D01*
X105979815Y-99704808D01*
X105963181Y-99725450D01*
X105184703Y-100503927D01*
X105144480Y-100530805D01*
X105120819Y-100540606D01*
X105120818Y-100540607D01*
X104989715Y-100628207D01*
X104989707Y-100628213D01*
X104878213Y-100739707D01*
X104878210Y-100739711D01*
X104790609Y-100870814D01*
X104790602Y-100870827D01*
X104730264Y-101016498D01*
X104730261Y-101016510D01*
X104699500Y-101171153D01*
X98383692Y-101171153D01*
X98384814Y-101169334D01*
X98439999Y-101002797D01*
X98450500Y-100900009D01*
X98450499Y-100099992D01*
X98449397Y-100089208D01*
X98439999Y-99997203D01*
X98439998Y-99997200D01*
X98384814Y-99830666D01*
X98292712Y-99681344D01*
X98199049Y-99587681D01*
X98165564Y-99526358D01*
X98170548Y-99456666D01*
X98199049Y-99412319D01*
X98292712Y-99318656D01*
X98384814Y-99169334D01*
X98439999Y-99002797D01*
X98450500Y-98900009D01*
X98450499Y-98099992D01*
X98439999Y-97997203D01*
X98384814Y-97830666D01*
X98292712Y-97681344D01*
X98168656Y-97557288D01*
X98168655Y-97557287D01*
X98091902Y-97509945D01*
X98045178Y-97457997D01*
X98033000Y-97404407D01*
X98033000Y-96845591D01*
X98052685Y-96778552D01*
X98091903Y-96740052D01*
X98168656Y-96692712D01*
X98292712Y-96568656D01*
X98384814Y-96419334D01*
X98439999Y-96252797D01*
X98450500Y-96150009D01*
X98450499Y-95349992D01*
X98439999Y-95247203D01*
X98384814Y-95080666D01*
X98292712Y-94931344D01*
X98199049Y-94837681D01*
X98165564Y-94776358D01*
X98170548Y-94706666D01*
X98199049Y-94662319D01*
X98233161Y-94628207D01*
X98292712Y-94568656D01*
X98384814Y-94419334D01*
X98439999Y-94252797D01*
X98450500Y-94150009D01*
X98450499Y-93349992D01*
X98439999Y-93247203D01*
X98384814Y-93080666D01*
X98292712Y-92931344D01*
X98168656Y-92807288D01*
X98019334Y-92715186D01*
X97852797Y-92660001D01*
X97852795Y-92660000D01*
X97750010Y-92649500D01*
X96749998Y-92649500D01*
X96749980Y-92649501D01*
X96647203Y-92660000D01*
X96647200Y-92660001D01*
X96480668Y-92715185D01*
X96480663Y-92715187D01*
X96331342Y-92807289D01*
X96327951Y-92810681D01*
X96266628Y-92844166D01*
X96240270Y-92847000D01*
X95328582Y-92847000D01*
X95305336Y-92851624D01*
X95305335Y-92851624D01*
X95183595Y-92875839D01*
X95183592Y-92875840D01*
X95183588Y-92875841D01*
X95103580Y-92908981D01*
X95103578Y-92908981D01*
X95047006Y-92932415D01*
X94979201Y-92977721D01*
X94924082Y-93014549D01*
X94924079Y-93014552D01*
X93733762Y-94204868D01*
X93722359Y-94211855D01*
X93716071Y-94219546D01*
X93684398Y-94235118D01*
X93590351Y-94265675D01*
X93576231Y-94269360D01*
X93531089Y-94278341D01*
X93531082Y-94278343D01*
X93394511Y-94334912D01*
X93394498Y-94334919D01*
X93271583Y-94417049D01*
X93271575Y-94417055D01*
X93261400Y-94427231D01*
X93246611Y-94439861D01*
X93152781Y-94508034D01*
X93152779Y-94508036D01*
X93152778Y-94508036D01*
X93008028Y-94652786D01*
X92887715Y-94818386D01*
X92794781Y-95000776D01*
X92731522Y-95195465D01*
X92699500Y-95397648D01*
X87324750Y-95397648D01*
X87313872Y-95349991D01*
X87310316Y-95334409D01*
X87308369Y-95328846D01*
X87261698Y-95195466D01*
X87221267Y-95079921D01*
X87120570Y-94870821D01*
X87104285Y-94837005D01*
X87104284Y-94837003D01*
X86960838Y-94608711D01*
X86792734Y-94397915D01*
X86602085Y-94207266D01*
X86391289Y-94039162D01*
X86162997Y-93895716D01*
X86162994Y-93895714D01*
X85920082Y-93778734D01*
X85665602Y-93689687D01*
X85665594Y-93689684D01*
X85468446Y-93644687D01*
X85402732Y-93629688D01*
X85402728Y-93629687D01*
X85402719Y-93629686D01*
X85134813Y-93599500D01*
X85134809Y-93599500D01*
X84865191Y-93599500D01*
X84865186Y-93599500D01*
X84597280Y-93629686D01*
X84597268Y-93629688D01*
X84334405Y-93689684D01*
X84334397Y-93689687D01*
X84079917Y-93778734D01*
X83837005Y-93895714D01*
X83608712Y-94039161D01*
X83397915Y-94207265D01*
X83207265Y-94397915D01*
X83039161Y-94608712D01*
X82895714Y-94837005D01*
X82778734Y-95079917D01*
X82689687Y-95334397D01*
X82689684Y-95334405D01*
X82629688Y-95597268D01*
X82629686Y-95597280D01*
X82599500Y-95865186D01*
X80500500Y-95865186D01*
X80500500Y-89684108D01*
X81499500Y-89684108D01*
X81499500Y-90315892D01*
X81511117Y-90359248D01*
X81533608Y-90443187D01*
X81566121Y-90499500D01*
X81599500Y-90557314D01*
X81692686Y-90650500D01*
X81806814Y-90716392D01*
X81934108Y-90750500D01*
X81934110Y-90750500D01*
X95815890Y-90750500D01*
X95815892Y-90750500D01*
X95943186Y-90716392D01*
X96057314Y-90650500D01*
X96150500Y-90557314D01*
X96216392Y-90443186D01*
X96250500Y-90315892D01*
X96250500Y-89684108D01*
X96216392Y-89556814D01*
X96150500Y-89442686D01*
X96057314Y-89349500D01*
X95999100Y-89315890D01*
X95943187Y-89283608D01*
X95854463Y-89259835D01*
X95815892Y-89249500D01*
X82065892Y-89249500D01*
X81934108Y-89249500D01*
X81806812Y-89283608D01*
X81692686Y-89349500D01*
X81692683Y-89349502D01*
X81599502Y-89442683D01*
X81599500Y-89442686D01*
X81533608Y-89556812D01*
X81533473Y-89557316D01*
X81499500Y-89684108D01*
X80500500Y-89684108D01*
X80500500Y-84865186D01*
X82599500Y-84865186D01*
X82599500Y-85134813D01*
X82629686Y-85402719D01*
X82629688Y-85402731D01*
X82689684Y-85665594D01*
X82689687Y-85665602D01*
X82778734Y-85920082D01*
X82895714Y-86162994D01*
X82903884Y-86175996D01*
X83039162Y-86391289D01*
X83207266Y-86602085D01*
X83397915Y-86792734D01*
X83608711Y-86960838D01*
X83837003Y-87104284D01*
X84079921Y-87221267D01*
X84271049Y-87288145D01*
X84334397Y-87310312D01*
X84334405Y-87310315D01*
X84334408Y-87310315D01*
X84334409Y-87310316D01*
X84597268Y-87370312D01*
X84865187Y-87400499D01*
X84865188Y-87400500D01*
X84865191Y-87400500D01*
X85134812Y-87400500D01*
X85134812Y-87400499D01*
X85402732Y-87370312D01*
X85665591Y-87310316D01*
X85920079Y-87221267D01*
X86162997Y-87104284D01*
X86391289Y-86960838D01*
X86602085Y-86792734D01*
X86792734Y-86602085D01*
X86960838Y-86391289D01*
X87104284Y-86162997D01*
X87221267Y-85920079D01*
X87310316Y-85665591D01*
X87370312Y-85402732D01*
X87400500Y-85134809D01*
X87400500Y-84865191D01*
X87400499Y-84865186D01*
X112599500Y-84865186D01*
X112599500Y-85134813D01*
X112629686Y-85402719D01*
X112629688Y-85402731D01*
X112689684Y-85665594D01*
X112689687Y-85665602D01*
X112778734Y-85920082D01*
X112895714Y-86162994D01*
X112903884Y-86175996D01*
X113039162Y-86391289D01*
X113207266Y-86602085D01*
X113397915Y-86792734D01*
X113608711Y-86960838D01*
X113837003Y-87104284D01*
X114079921Y-87221267D01*
X114271049Y-87288145D01*
X114334397Y-87310312D01*
X114334405Y-87310315D01*
X114334408Y-87310315D01*
X114334409Y-87310316D01*
X114597268Y-87370312D01*
X114865187Y-87400499D01*
X114865188Y-87400500D01*
X114865191Y-87400500D01*
X115134812Y-87400500D01*
X115134812Y-87400499D01*
X115402732Y-87370312D01*
X115665591Y-87310316D01*
X115920079Y-87221267D01*
X116162997Y-87104284D01*
X116391289Y-86960838D01*
X116602085Y-86792734D01*
X116792734Y-86602085D01*
X116960838Y-86391289D01*
X117104284Y-86162997D01*
X117221267Y-85920079D01*
X117310316Y-85665591D01*
X117370312Y-85402732D01*
X117400500Y-85134809D01*
X117400500Y-84865191D01*
X117370312Y-84597268D01*
X117310316Y-84334409D01*
X117221267Y-84079921D01*
X117104284Y-83837003D01*
X116960838Y-83608711D01*
X116792734Y-83397915D01*
X116602085Y-83207266D01*
X116391289Y-83039162D01*
X116162997Y-82895716D01*
X116162994Y-82895714D01*
X115920082Y-82778734D01*
X115665602Y-82689687D01*
X115665594Y-82689684D01*
X115468446Y-82644687D01*
X115402732Y-82629688D01*
X115402728Y-82629687D01*
X115402719Y-82629686D01*
X115134813Y-82599500D01*
X115134809Y-82599500D01*
X114865191Y-82599500D01*
X114865186Y-82599500D01*
X114597280Y-82629686D01*
X114597268Y-82629688D01*
X114334405Y-82689684D01*
X114334397Y-82689687D01*
X114079917Y-82778734D01*
X113837005Y-82895714D01*
X113608712Y-83039161D01*
X113397915Y-83207265D01*
X113207265Y-83397915D01*
X113039161Y-83608712D01*
X112895714Y-83837005D01*
X112778734Y-84079917D01*
X112689687Y-84334397D01*
X112689684Y-84334405D01*
X112629688Y-84597268D01*
X112629686Y-84597280D01*
X112599500Y-84865186D01*
X87400499Y-84865186D01*
X87370312Y-84597268D01*
X87310316Y-84334409D01*
X87221267Y-84079921D01*
X87104284Y-83837003D01*
X86960838Y-83608711D01*
X86792734Y-83397915D01*
X86602085Y-83207266D01*
X86391289Y-83039162D01*
X86162997Y-82895716D01*
X86162994Y-82895714D01*
X85920082Y-82778734D01*
X85665602Y-82689687D01*
X85665594Y-82689684D01*
X85468446Y-82644687D01*
X85402732Y-82629688D01*
X85402728Y-82629687D01*
X85402719Y-82629686D01*
X85134813Y-82599500D01*
X85134809Y-82599500D01*
X84865191Y-82599500D01*
X84865186Y-82599500D01*
X84597280Y-82629686D01*
X84597268Y-82629688D01*
X84334405Y-82689684D01*
X84334397Y-82689687D01*
X84079917Y-82778734D01*
X83837005Y-82895714D01*
X83608712Y-83039161D01*
X83397915Y-83207265D01*
X83207265Y-83397915D01*
X83039161Y-83608712D01*
X82895714Y-83837005D01*
X82778734Y-84079917D01*
X82689687Y-84334397D01*
X82689684Y-84334405D01*
X82629688Y-84597268D01*
X82629686Y-84597280D01*
X82599500Y-84865186D01*
X80500500Y-84865186D01*
X80500500Y-80662781D01*
X91404500Y-80662781D01*
X91404500Y-80837218D01*
X91438527Y-81008283D01*
X91438529Y-81008291D01*
X91505278Y-81169439D01*
X91505283Y-81169448D01*
X91602186Y-81314473D01*
X91602189Y-81314477D01*
X91725522Y-81437810D01*
X91725526Y-81437813D01*
X91870551Y-81534716D01*
X91870557Y-81534719D01*
X91870558Y-81534720D01*
X92031709Y-81601471D01*
X92202781Y-81635499D01*
X92202785Y-81635500D01*
X92202786Y-81635500D01*
X92377215Y-81635500D01*
X92377216Y-81635499D01*
X92548291Y-81601471D01*
X92709442Y-81534720D01*
X92854474Y-81437813D01*
X92977813Y-81314474D01*
X93074720Y-81169442D01*
X93141471Y-81008291D01*
X93175500Y-80837214D01*
X93175500Y-80662786D01*
X93141471Y-80491709D01*
X93074720Y-80330558D01*
X93074719Y-80330557D01*
X93074716Y-80330551D01*
X92977813Y-80185526D01*
X92977810Y-80185522D01*
X92854477Y-80062189D01*
X92854473Y-80062186D01*
X92709448Y-79965283D01*
X92709439Y-79965278D01*
X92548291Y-79898529D01*
X92548283Y-79898527D01*
X92377218Y-79864500D01*
X92377214Y-79864500D01*
X92202786Y-79864500D01*
X92202781Y-79864500D01*
X92031716Y-79898527D01*
X92031708Y-79898529D01*
X91870560Y-79965278D01*
X91870551Y-79965283D01*
X91725526Y-80062186D01*
X91725522Y-80062189D01*
X91602189Y-80185522D01*
X91602186Y-80185526D01*
X91505283Y-80330551D01*
X91505278Y-80330560D01*
X91438529Y-80491708D01*
X91438527Y-80491716D01*
X91404500Y-80662781D01*
X80500500Y-80662781D01*
X80500500Y-75235186D01*
X82599500Y-75235186D01*
X82599500Y-75504813D01*
X82629686Y-75772719D01*
X82629688Y-75772731D01*
X82689684Y-76035594D01*
X82689687Y-76035602D01*
X82778734Y-76290082D01*
X82895714Y-76532994D01*
X82895716Y-76532997D01*
X83039162Y-76761289D01*
X83123231Y-76866708D01*
X83196738Y-76958884D01*
X83207266Y-76972085D01*
X83397915Y-77162734D01*
X83608711Y-77330838D01*
X83837003Y-77474284D01*
X84079921Y-77591267D01*
X84219724Y-77640186D01*
X84334397Y-77680312D01*
X84334405Y-77680315D01*
X84334408Y-77680315D01*
X84334409Y-77680316D01*
X84597268Y-77740312D01*
X84865187Y-77770499D01*
X84865188Y-77770500D01*
X84865191Y-77770500D01*
X85134812Y-77770500D01*
X85134812Y-77770499D01*
X85402732Y-77740312D01*
X85665591Y-77680316D01*
X85920079Y-77591267D01*
X86162997Y-77474284D01*
X86391289Y-77330838D01*
X86555375Y-77199984D01*
X92739500Y-77199984D01*
X92739500Y-78300015D01*
X92750000Y-78402795D01*
X92750001Y-78402797D01*
X92777593Y-78486065D01*
X92805186Y-78569335D01*
X92805187Y-78569337D01*
X92897286Y-78718651D01*
X92897289Y-78718655D01*
X93021344Y-78842710D01*
X93021348Y-78842713D01*
X93170662Y-78934812D01*
X93170664Y-78934813D01*
X93170666Y-78934814D01*
X93337203Y-78989999D01*
X93439992Y-79000500D01*
X93439997Y-79000500D01*
X95060003Y-79000500D01*
X95060008Y-79000500D01*
X95162797Y-78989999D01*
X95329334Y-78934814D01*
X95478655Y-78842711D01*
X95602711Y-78718655D01*
X95694814Y-78569334D01*
X95749999Y-78402797D01*
X95760500Y-78300008D01*
X95760500Y-78274984D01*
X101749500Y-78274984D01*
X101749500Y-79895015D01*
X101760000Y-79997795D01*
X101760001Y-79997797D01*
X101787593Y-80081065D01*
X101815186Y-80164335D01*
X101815187Y-80164337D01*
X101907286Y-80313651D01*
X101907289Y-80313655D01*
X102031344Y-80437710D01*
X102031348Y-80437713D01*
X102180662Y-80529812D01*
X102180664Y-80529813D01*
X102180666Y-80529814D01*
X102347203Y-80584999D01*
X102449992Y-80595500D01*
X102449997Y-80595500D01*
X103550003Y-80595500D01*
X103550008Y-80595500D01*
X103652797Y-80584999D01*
X103819334Y-80529814D01*
X103968655Y-80437711D01*
X104092711Y-80313655D01*
X104184814Y-80164334D01*
X104239999Y-79997797D01*
X104250500Y-79895008D01*
X104250500Y-78726577D01*
X104749500Y-78726577D01*
X104749500Y-79443422D01*
X104780290Y-79637826D01*
X104841117Y-79825029D01*
X104929146Y-79997795D01*
X104930476Y-80000405D01*
X105046172Y-80159646D01*
X105185354Y-80298828D01*
X105344595Y-80414524D01*
X105427455Y-80456743D01*
X105519970Y-80503882D01*
X105519972Y-80503882D01*
X105519975Y-80503884D01*
X105599773Y-80529812D01*
X105707173Y-80564709D01*
X105901578Y-80595500D01*
X105901583Y-80595500D01*
X106098422Y-80595500D01*
X106292826Y-80564709D01*
X106317130Y-80556812D01*
X106480025Y-80503884D01*
X106655405Y-80414524D01*
X106814646Y-80298828D01*
X106953828Y-80159646D01*
X107069524Y-80000405D01*
X107158884Y-79825025D01*
X107219709Y-79637826D01*
X107250500Y-79443422D01*
X107250500Y-78726577D01*
X107219709Y-78532173D01*
X107191487Y-78445317D01*
X107158884Y-78344975D01*
X107158882Y-78344972D01*
X107158882Y-78344970D01*
X107089800Y-78209390D01*
X107069524Y-78169595D01*
X106953828Y-78010354D01*
X106814646Y-77871172D01*
X106655405Y-77755476D01*
X106625642Y-77740311D01*
X106480029Y-77666117D01*
X106292826Y-77605290D01*
X106098422Y-77574500D01*
X106098417Y-77574500D01*
X105901583Y-77574500D01*
X105901578Y-77574500D01*
X105707173Y-77605290D01*
X105519970Y-77666117D01*
X105344594Y-77755476D01*
X105323916Y-77770500D01*
X105185354Y-77871172D01*
X105185352Y-77871174D01*
X105185351Y-77871174D01*
X105046174Y-78010351D01*
X105046174Y-78010352D01*
X105046172Y-78010354D01*
X105046067Y-78010499D01*
X104930476Y-78169594D01*
X104841117Y-78344970D01*
X104780290Y-78532173D01*
X104749500Y-78726577D01*
X104250500Y-78726577D01*
X104250500Y-78274992D01*
X104239999Y-78172203D01*
X104184814Y-78005666D01*
X104177882Y-77994428D01*
X104092713Y-77856348D01*
X104092710Y-77856344D01*
X103968655Y-77732289D01*
X103968651Y-77732286D01*
X103819337Y-77640187D01*
X103819335Y-77640186D01*
X103676915Y-77592993D01*
X103652797Y-77585001D01*
X103652795Y-77585000D01*
X103550015Y-77574500D01*
X103550008Y-77574500D01*
X102449992Y-77574500D01*
X102449984Y-77574500D01*
X102347204Y-77585000D01*
X102347203Y-77585001D01*
X102180664Y-77640186D01*
X102180662Y-77640187D01*
X102031348Y-77732286D01*
X102031344Y-77732289D01*
X101907289Y-77856344D01*
X101907286Y-77856348D01*
X101815187Y-78005662D01*
X101815186Y-78005664D01*
X101760001Y-78172203D01*
X101760000Y-78172204D01*
X101749500Y-78274984D01*
X95760500Y-78274984D01*
X95760500Y-77199992D01*
X95749999Y-77097203D01*
X95730308Y-77037781D01*
X99114500Y-77037781D01*
X99114500Y-77212218D01*
X99148527Y-77383283D01*
X99148529Y-77383291D01*
X99215278Y-77544439D01*
X99215283Y-77544448D01*
X99312186Y-77689473D01*
X99312189Y-77689477D01*
X99435522Y-77812810D01*
X99435526Y-77812813D01*
X99580551Y-77909716D01*
X99580557Y-77909719D01*
X99580558Y-77909720D01*
X99741709Y-77976471D01*
X99888474Y-78005664D01*
X99912781Y-78010499D01*
X99912785Y-78010500D01*
X99912786Y-78010500D01*
X100087215Y-78010500D01*
X100087216Y-78010499D01*
X100258291Y-77976471D01*
X100419442Y-77909720D01*
X100564474Y-77812813D01*
X100687813Y-77689474D01*
X100784720Y-77544442D01*
X100851471Y-77383291D01*
X100885500Y-77212214D01*
X100885500Y-77037786D01*
X100885499Y-77037781D01*
X108114500Y-77037781D01*
X108114500Y-77212218D01*
X108148527Y-77383283D01*
X108148529Y-77383291D01*
X108215278Y-77544439D01*
X108215283Y-77544448D01*
X108312186Y-77689473D01*
X108312189Y-77689477D01*
X108435522Y-77812810D01*
X108435526Y-77812813D01*
X108580551Y-77909716D01*
X108580557Y-77909719D01*
X108580558Y-77909720D01*
X108741709Y-77976471D01*
X108888474Y-78005664D01*
X108912781Y-78010499D01*
X108912785Y-78010500D01*
X108912786Y-78010500D01*
X109087215Y-78010500D01*
X109087216Y-78010499D01*
X109258291Y-77976471D01*
X109419442Y-77909720D01*
X109564474Y-77812813D01*
X109687813Y-77689474D01*
X109784720Y-77544442D01*
X109851471Y-77383291D01*
X109885500Y-77212214D01*
X109885500Y-77037786D01*
X109851471Y-76866709D01*
X109784730Y-76705581D01*
X109784721Y-76705560D01*
X109784716Y-76705551D01*
X109687813Y-76560526D01*
X109687810Y-76560522D01*
X109564477Y-76437189D01*
X109564473Y-76437186D01*
X109419448Y-76340283D01*
X109419439Y-76340278D01*
X109258291Y-76273529D01*
X109258283Y-76273527D01*
X109087218Y-76239500D01*
X109087214Y-76239500D01*
X108912786Y-76239500D01*
X108912781Y-76239500D01*
X108741716Y-76273527D01*
X108741708Y-76273529D01*
X108580560Y-76340278D01*
X108580551Y-76340283D01*
X108435526Y-76437186D01*
X108435522Y-76437189D01*
X108312189Y-76560522D01*
X108312186Y-76560526D01*
X108215283Y-76705551D01*
X108215278Y-76705560D01*
X108148529Y-76866708D01*
X108148527Y-76866716D01*
X108114500Y-77037781D01*
X100885499Y-77037781D01*
X100851471Y-76866709D01*
X100784730Y-76705581D01*
X100784721Y-76705560D01*
X100784716Y-76705551D01*
X100687813Y-76560526D01*
X100687810Y-76560522D01*
X100564477Y-76437189D01*
X100564473Y-76437186D01*
X100419448Y-76340283D01*
X100419439Y-76340278D01*
X100258291Y-76273529D01*
X100258283Y-76273527D01*
X100087218Y-76239500D01*
X100087214Y-76239500D01*
X99912786Y-76239500D01*
X99912781Y-76239500D01*
X99741716Y-76273527D01*
X99741708Y-76273529D01*
X99580560Y-76340278D01*
X99580551Y-76340283D01*
X99435526Y-76437186D01*
X99435522Y-76437189D01*
X99312189Y-76560522D01*
X99312186Y-76560526D01*
X99215283Y-76705551D01*
X99215278Y-76705560D01*
X99148529Y-76866708D01*
X99148527Y-76866716D01*
X99114500Y-77037781D01*
X95730308Y-77037781D01*
X95708539Y-76972085D01*
X95694814Y-76930666D01*
X95602711Y-76781345D01*
X95478655Y-76657289D01*
X95478651Y-76657286D01*
X95329337Y-76565187D01*
X95329335Y-76565186D01*
X95232185Y-76532994D01*
X95162797Y-76510001D01*
X95162795Y-76510000D01*
X95060015Y-76499500D01*
X95060008Y-76499500D01*
X93439992Y-76499500D01*
X93439984Y-76499500D01*
X93337204Y-76510000D01*
X93337203Y-76510001D01*
X93170664Y-76565186D01*
X93170662Y-76565187D01*
X93021348Y-76657286D01*
X93021344Y-76657289D01*
X92897289Y-76781344D01*
X92897286Y-76781348D01*
X92805187Y-76930662D01*
X92805186Y-76930664D01*
X92750001Y-77097203D01*
X92750000Y-77097204D01*
X92739500Y-77199984D01*
X86555375Y-77199984D01*
X86602085Y-77162734D01*
X86792734Y-76972085D01*
X86960838Y-76761289D01*
X87104284Y-76532997D01*
X87221267Y-76290079D01*
X87310316Y-76035591D01*
X87370312Y-75772732D01*
X87400500Y-75504809D01*
X87400500Y-75235191D01*
X87378813Y-75042716D01*
X87371389Y-74976820D01*
X87370313Y-74967277D01*
X87370312Y-74967268D01*
X87310316Y-74704409D01*
X87238790Y-74500000D01*
X92764016Y-74500000D01*
X93805440Y-74500000D01*
X93774755Y-74553147D01*
X93740000Y-74682857D01*
X93740000Y-74817143D01*
X93774755Y-74946853D01*
X93805440Y-75000000D01*
X92764016Y-75000000D01*
X92770781Y-75042716D01*
X92831581Y-75229837D01*
X92920904Y-75405143D01*
X93036555Y-75564321D01*
X93175678Y-75703444D01*
X93334856Y-75819095D01*
X93510164Y-75908418D01*
X93697294Y-75969221D01*
X93891618Y-76000000D01*
X94000000Y-76000000D01*
X94000000Y-75194560D01*
X94053147Y-75225245D01*
X94182857Y-75260000D01*
X94317143Y-75260000D01*
X94446853Y-75225245D01*
X94500000Y-75194560D01*
X94500000Y-76000000D01*
X94608382Y-76000000D01*
X94802705Y-75969221D01*
X94989835Y-75908418D01*
X95165143Y-75819095D01*
X95324321Y-75703444D01*
X95463444Y-75564321D01*
X95579095Y-75405143D01*
X95665692Y-75235186D01*
X112599500Y-75235186D01*
X112599500Y-75504813D01*
X112629686Y-75772719D01*
X112629688Y-75772731D01*
X112689684Y-76035594D01*
X112689687Y-76035602D01*
X112778734Y-76290082D01*
X112895714Y-76532994D01*
X112895716Y-76532997D01*
X113039162Y-76761289D01*
X113123231Y-76866708D01*
X113196738Y-76958884D01*
X113207266Y-76972085D01*
X113397915Y-77162734D01*
X113608711Y-77330838D01*
X113837003Y-77474284D01*
X114079921Y-77591267D01*
X114219724Y-77640186D01*
X114334397Y-77680312D01*
X114334405Y-77680315D01*
X114334408Y-77680315D01*
X114334409Y-77680316D01*
X114597268Y-77740312D01*
X114865187Y-77770499D01*
X114865188Y-77770500D01*
X114865191Y-77770500D01*
X115134812Y-77770500D01*
X115134812Y-77770499D01*
X115402732Y-77740312D01*
X115665591Y-77680316D01*
X115920079Y-77591267D01*
X116162997Y-77474284D01*
X116391289Y-77330838D01*
X116602085Y-77162734D01*
X116792734Y-76972085D01*
X116960838Y-76761289D01*
X117104284Y-76532997D01*
X117221267Y-76290079D01*
X117310316Y-76035591D01*
X117370312Y-75772732D01*
X117400500Y-75504809D01*
X117400500Y-75235191D01*
X117370312Y-74967268D01*
X117310316Y-74704409D01*
X117221267Y-74449921D01*
X117134700Y-74270162D01*
X117104285Y-74207005D01*
X117033817Y-74094856D01*
X116960838Y-73978711D01*
X116792734Y-73767915D01*
X116602085Y-73577266D01*
X116391289Y-73409162D01*
X116162997Y-73265716D01*
X116162994Y-73265714D01*
X115920082Y-73148734D01*
X115665602Y-73059687D01*
X115665594Y-73059684D01*
X115468446Y-73014687D01*
X115402732Y-72999688D01*
X115402728Y-72999687D01*
X115402719Y-72999686D01*
X115134813Y-72969500D01*
X115134809Y-72969500D01*
X114865191Y-72969500D01*
X114865186Y-72969500D01*
X114597280Y-72999686D01*
X114597268Y-72999688D01*
X114334405Y-73059684D01*
X114334397Y-73059687D01*
X114079917Y-73148734D01*
X113837005Y-73265714D01*
X113608712Y-73409161D01*
X113397915Y-73577265D01*
X113207265Y-73767915D01*
X113039161Y-73978712D01*
X112895714Y-74207005D01*
X112778734Y-74449917D01*
X112689687Y-74704397D01*
X112689684Y-74704405D01*
X112629688Y-74967268D01*
X112629686Y-74967280D01*
X112599500Y-75235186D01*
X95665692Y-75235186D01*
X95668417Y-75229838D01*
X95680260Y-75193392D01*
X95680260Y-75193391D01*
X95729218Y-75042716D01*
X95735984Y-75000000D01*
X94694560Y-75000000D01*
X94725245Y-74946853D01*
X94760000Y-74817143D01*
X94760000Y-74682857D01*
X94725245Y-74553147D01*
X94694560Y-74500000D01*
X95735984Y-74500000D01*
X95729218Y-74457283D01*
X95668418Y-74270162D01*
X95579095Y-74094856D01*
X95463444Y-73935678D01*
X95324321Y-73796555D01*
X95165143Y-73680904D01*
X94989835Y-73591581D01*
X94802705Y-73530778D01*
X94608382Y-73500000D01*
X94500000Y-73500000D01*
X94500000Y-74305439D01*
X94446853Y-74274755D01*
X94317143Y-74240000D01*
X94182857Y-74240000D01*
X94053147Y-74274755D01*
X94000000Y-74305439D01*
X94000000Y-73500000D01*
X93891618Y-73500000D01*
X93697294Y-73530778D01*
X93510164Y-73591581D01*
X93334856Y-73680904D01*
X93175678Y-73796555D01*
X93036555Y-73935678D01*
X92920904Y-74094856D01*
X92831581Y-74270162D01*
X92770781Y-74457283D01*
X92764016Y-74500000D01*
X87238790Y-74500000D01*
X87221267Y-74449921D01*
X87134700Y-74270162D01*
X87104285Y-74207005D01*
X87033817Y-74094856D01*
X86960838Y-73978711D01*
X86792734Y-73767915D01*
X86602085Y-73577266D01*
X86391289Y-73409162D01*
X86162997Y-73265716D01*
X86162994Y-73265714D01*
X85920082Y-73148734D01*
X85665602Y-73059687D01*
X85665594Y-73059684D01*
X85468446Y-73014687D01*
X85402732Y-72999688D01*
X85402728Y-72999687D01*
X85402719Y-72999686D01*
X85134813Y-72969500D01*
X85134809Y-72969500D01*
X84865191Y-72969500D01*
X84865186Y-72969500D01*
X84597280Y-72999686D01*
X84597268Y-72999688D01*
X84334405Y-73059684D01*
X84334397Y-73059687D01*
X84079917Y-73148734D01*
X83837005Y-73265714D01*
X83608712Y-73409161D01*
X83397915Y-73577265D01*
X83207265Y-73767915D01*
X83039161Y-73978712D01*
X82895714Y-74207005D01*
X82778734Y-74449917D01*
X82689687Y-74704397D01*
X82689684Y-74704405D01*
X82629688Y-74967268D01*
X82629686Y-74967280D01*
X82599500Y-75235186D01*
X80500500Y-75235186D01*
X80500500Y-71662781D01*
X91404500Y-71662781D01*
X91404500Y-71837218D01*
X91438527Y-72008283D01*
X91438529Y-72008291D01*
X91505278Y-72169439D01*
X91505283Y-72169448D01*
X91602186Y-72314473D01*
X91602189Y-72314477D01*
X91725522Y-72437810D01*
X91725526Y-72437813D01*
X91870551Y-72534716D01*
X91870557Y-72534719D01*
X91870558Y-72534720D01*
X92031709Y-72601471D01*
X92202781Y-72635499D01*
X92202785Y-72635500D01*
X92202786Y-72635500D01*
X92377215Y-72635500D01*
X92377216Y-72635499D01*
X92548291Y-72601471D01*
X92709442Y-72534720D01*
X92854474Y-72437813D01*
X92977813Y-72314474D01*
X93074720Y-72169442D01*
X93141471Y-72008291D01*
X93175500Y-71837214D01*
X93175500Y-71662786D01*
X93141471Y-71491709D01*
X93074720Y-71330558D01*
X93074719Y-71330557D01*
X93074716Y-71330551D01*
X92977813Y-71185526D01*
X92977810Y-71185522D01*
X92854477Y-71062189D01*
X92854473Y-71062186D01*
X92709448Y-70965283D01*
X92709439Y-70965278D01*
X92548291Y-70898529D01*
X92548283Y-70898527D01*
X92397326Y-70868500D01*
X92397324Y-70868500D01*
X92377214Y-70864500D01*
X92202786Y-70864500D01*
X92182676Y-70868500D01*
X92182674Y-70868500D01*
X92031716Y-70898527D01*
X92031708Y-70898529D01*
X91870560Y-70965278D01*
X91870551Y-70965283D01*
X91725526Y-71062186D01*
X91725522Y-71062189D01*
X91602189Y-71185522D01*
X91602186Y-71185526D01*
X91505283Y-71330551D01*
X91505278Y-71330560D01*
X91438529Y-71491708D01*
X91438527Y-71491716D01*
X91404500Y-71662781D01*
X80500500Y-71662781D01*
X80500500Y-70744500D01*
X80520185Y-70677461D01*
X80572989Y-70631706D01*
X80624500Y-70620500D01*
X119426402Y-70620500D01*
X119493441Y-70640185D01*
G37*
G04 #@! TD.AperFunction*
M02*
