G04 #@! TF.GenerationSoftware,KiCad,Pcbnew,9.0.1*
G04 #@! TF.CreationDate,2025-11-10T14:07:32+08:00*
G04 #@! TF.ProjectId,IMD_TSMS_latch_logic,494d445f-5453-44d5-935f-6c617463685f,rev?*
G04 #@! TF.SameCoordinates,Original*
G04 #@! TF.FileFunction,Legend,Top*
G04 #@! TF.FilePolarity,Positive*
%FSLAX46Y46*%
G04 Gerber Fmt 4.6, Leading zero omitted, Abs format (unit mm)*
G04 Created by KiCad (PCBNEW 9.0.1) date 2025-11-10 14:07:32*
%MOMM*%
%LPD*%
G01*
G04 APERTURE LIST*
G04 Aperture macros list*
%AMRoundRect*
0 Rectangle with rounded corners*
0 $1 Rounding radius*
0 $2 $3 $4 $5 $6 $7 $8 $9 X,Y pos of 4 corners*
0 Add a 4 corners polygon primitive as box body*
4,1,4,$2,$3,$4,$5,$6,$7,$8,$9,$2,$3,0*
0 Add four circle primitives for the rounded corners*
1,1,$1+$1,$2,$3*
1,1,$1+$1,$4,$5*
1,1,$1+$1,$6,$7*
1,1,$1+$1,$8,$9*
0 Add four rect primitives between the rounded corners*
20,1,$1+$1,$2,$3,$4,$5,0*
20,1,$1+$1,$4,$5,$6,$7,0*
20,1,$1+$1,$6,$7,$8,$9,0*
20,1,$1+$1,$8,$9,$2,$3,0*%
G04 Aperture macros list end*
%ADD10C,0.179857*%
%ADD11C,0.150000*%
%ADD12C,0.120000*%
%ADD13C,0.127000*%
%ADD14C,0.200000*%
%ADD15RoundRect,0.150000X-0.587500X-0.150000X0.587500X-0.150000X0.587500X0.150000X-0.587500X0.150000X0*%
%ADD16O,2.020000X1.500000*%
%ADD17RoundRect,0.250001X0.759999X-0.499999X0.759999X0.499999X-0.759999X0.499999X-0.759999X-0.499999X0*%
%ADD18C,1.270000*%
%ADD19RoundRect,0.250000X0.450000X-0.350000X0.450000X0.350000X-0.450000X0.350000X-0.450000X-0.350000X0*%
%ADD20RoundRect,0.250000X-0.450000X0.350000X-0.450000X-0.350000X0.450000X-0.350000X0.450000X0.350000X0*%
%ADD21RoundRect,0.150000X-0.825000X-0.150000X0.825000X-0.150000X0.825000X0.150000X-0.825000X0.150000X0*%
%ADD22RoundRect,0.250000X-0.337500X-0.475000X0.337500X-0.475000X0.337500X0.475000X-0.337500X0.475000X0*%
%ADD23RoundRect,0.102000X-1.125000X-1.590000X1.125000X-1.590000X1.125000X1.590000X-1.125000X1.590000X0*%
%ADD24RoundRect,0.120600X-0.281400X1.111400X-0.281400X-1.111400X0.281400X-1.111400X0.281400X1.111400X0*%
%ADD25RoundRect,0.122100X-0.284900X1.109900X-0.284900X-1.109900X0.284900X-1.109900X0.284900X1.109900X0*%
%ADD26RoundRect,0.150000X-0.150000X0.825000X-0.150000X-0.825000X0.150000X-0.825000X0.150000X0.825000X0*%
%ADD27RoundRect,0.120600X-1.111400X-0.281400X1.111400X-0.281400X1.111400X0.281400X-1.111400X0.281400X0*%
%ADD28RoundRect,0.122100X-1.109900X-0.284900X1.109900X-0.284900X1.109900X0.284900X-1.109900X0.284900X0*%
%ADD29RoundRect,0.250000X0.350000X0.450000X-0.350000X0.450000X-0.350000X-0.450000X0.350000X-0.450000X0*%
%ADD30RoundRect,0.250000X-0.350000X-0.450000X0.350000X-0.450000X0.350000X0.450000X-0.350000X0.450000X0*%
%ADD31RoundRect,0.150000X0.587500X0.150000X-0.587500X0.150000X-0.587500X-0.150000X0.587500X-0.150000X0*%
%ADD32RoundRect,0.150000X-0.150000X0.587500X-0.150000X-0.587500X0.150000X-0.587500X0.150000X0.587500X0*%
%ADD33RoundRect,0.250000X0.325000X0.450000X-0.325000X0.450000X-0.325000X-0.450000X0.325000X-0.450000X0*%
%ADD34R,1.600000X1.600000*%
%ADD35C,1.600000*%
%ADD36RoundRect,0.250000X-0.475000X0.337500X-0.475000X-0.337500X0.475000X-0.337500X0.475000X0.337500X0*%
%ADD37RoundRect,0.250000X0.337500X0.475000X-0.337500X0.475000X-0.337500X-0.475000X0.337500X-0.475000X0*%
%ADD38RoundRect,0.250000X0.475000X-0.337500X0.475000X0.337500X-0.475000X0.337500X-0.475000X-0.337500X0*%
%ADD39C,4.300000*%
%ADD40C,3.000000*%
%ADD41C,2.500000*%
%ADD42RoundRect,0.250001X-0.759999X0.499999X-0.759999X-0.499999X0.759999X-0.499999X0.759999X0.499999X0*%
%ADD43RoundRect,0.250001X-0.499999X-0.759999X0.499999X-0.759999X0.499999X0.759999X-0.499999X0.759999X0*%
%ADD44O,1.500000X2.020000*%
%ADD45RoundRect,0.249999X-0.750001X-0.640001X0.750001X-0.640001X0.750001X0.640001X-0.750001X0.640001X0*%
G04 APERTURE END LIST*
D10*
X137089928Y-106070143D02*
G75*
G02*
X136910072Y-106070143I-89928J0D01*
G01*
X136910072Y-106070143D02*
G75*
G02*
X137089928Y-106070143I89928J0D01*
G01*
X154407085Y-95300000D02*
G75*
G02*
X154227229Y-95300000I-89928J0D01*
G01*
X154227229Y-95300000D02*
G75*
G02*
X154407085Y-95300000I89928J0D01*
G01*
D11*
X138741161Y-124729557D02*
X138645923Y-124681938D01*
X138645923Y-124681938D02*
X138550685Y-124586700D01*
X138550685Y-124586700D02*
X138407828Y-124443842D01*
X138407828Y-124443842D02*
X138312590Y-124396223D01*
X138312590Y-124396223D02*
X138217352Y-124396223D01*
X138264971Y-124634319D02*
X138169733Y-124586700D01*
X138169733Y-124586700D02*
X138074495Y-124491461D01*
X138074495Y-124491461D02*
X138026876Y-124300985D01*
X138026876Y-124300985D02*
X138026876Y-123967652D01*
X138026876Y-123967652D02*
X138074495Y-123777176D01*
X138074495Y-123777176D02*
X138169733Y-123681938D01*
X138169733Y-123681938D02*
X138264971Y-123634319D01*
X138264971Y-123634319D02*
X138455447Y-123634319D01*
X138455447Y-123634319D02*
X138550685Y-123681938D01*
X138550685Y-123681938D02*
X138645923Y-123777176D01*
X138645923Y-123777176D02*
X138693542Y-123967652D01*
X138693542Y-123967652D02*
X138693542Y-124300985D01*
X138693542Y-124300985D02*
X138645923Y-124491461D01*
X138645923Y-124491461D02*
X138550685Y-124586700D01*
X138550685Y-124586700D02*
X138455447Y-124634319D01*
X138455447Y-124634319D02*
X138264971Y-124634319D01*
X139645923Y-124634319D02*
X139074495Y-124634319D01*
X139360209Y-124634319D02*
X139360209Y-123634319D01*
X139360209Y-123634319D02*
X139264971Y-123777176D01*
X139264971Y-123777176D02*
X139169733Y-123872414D01*
X139169733Y-123872414D02*
X139074495Y-123920033D01*
X129172800Y-121908532D02*
X129220419Y-121765675D01*
X129220419Y-121765675D02*
X129220419Y-121527580D01*
X129220419Y-121527580D02*
X129172800Y-121432342D01*
X129172800Y-121432342D02*
X129125180Y-121384723D01*
X129125180Y-121384723D02*
X129029942Y-121337104D01*
X129029942Y-121337104D02*
X128934704Y-121337104D01*
X128934704Y-121337104D02*
X128839466Y-121384723D01*
X128839466Y-121384723D02*
X128791847Y-121432342D01*
X128791847Y-121432342D02*
X128744228Y-121527580D01*
X128744228Y-121527580D02*
X128696609Y-121718056D01*
X128696609Y-121718056D02*
X128648990Y-121813294D01*
X128648990Y-121813294D02*
X128601371Y-121860913D01*
X128601371Y-121860913D02*
X128506133Y-121908532D01*
X128506133Y-121908532D02*
X128410895Y-121908532D01*
X128410895Y-121908532D02*
X128315657Y-121860913D01*
X128315657Y-121860913D02*
X128268038Y-121813294D01*
X128268038Y-121813294D02*
X128220419Y-121718056D01*
X128220419Y-121718056D02*
X128220419Y-121479961D01*
X128220419Y-121479961D02*
X128268038Y-121337104D01*
X128220419Y-121003770D02*
X129220419Y-120765675D01*
X129220419Y-120765675D02*
X128506133Y-120575199D01*
X128506133Y-120575199D02*
X129220419Y-120384723D01*
X129220419Y-120384723D02*
X128220419Y-120146628D01*
X129220419Y-119241866D02*
X129220419Y-119813294D01*
X129220419Y-119527580D02*
X128220419Y-119527580D01*
X128220419Y-119527580D02*
X128363276Y-119622818D01*
X128363276Y-119622818D02*
X128458514Y-119718056D01*
X128458514Y-119718056D02*
X128506133Y-119813294D01*
X133399419Y-129277857D02*
X132923228Y-129611190D01*
X133399419Y-129849285D02*
X132399419Y-129849285D01*
X132399419Y-129849285D02*
X132399419Y-129468333D01*
X132399419Y-129468333D02*
X132447038Y-129373095D01*
X132447038Y-129373095D02*
X132494657Y-129325476D01*
X132494657Y-129325476D02*
X132589895Y-129277857D01*
X132589895Y-129277857D02*
X132732752Y-129277857D01*
X132732752Y-129277857D02*
X132827990Y-129325476D01*
X132827990Y-129325476D02*
X132875609Y-129373095D01*
X132875609Y-129373095D02*
X132923228Y-129468333D01*
X132923228Y-129468333D02*
X132923228Y-129849285D01*
X132494657Y-128896904D02*
X132447038Y-128849285D01*
X132447038Y-128849285D02*
X132399419Y-128754047D01*
X132399419Y-128754047D02*
X132399419Y-128515952D01*
X132399419Y-128515952D02*
X132447038Y-128420714D01*
X132447038Y-128420714D02*
X132494657Y-128373095D01*
X132494657Y-128373095D02*
X132589895Y-128325476D01*
X132589895Y-128325476D02*
X132685133Y-128325476D01*
X132685133Y-128325476D02*
X132827990Y-128373095D01*
X132827990Y-128373095D02*
X133399419Y-128944523D01*
X133399419Y-128944523D02*
X133399419Y-128325476D01*
X132732752Y-127468333D02*
X133399419Y-127468333D01*
X132351800Y-127706428D02*
X133066085Y-127944523D01*
X133066085Y-127944523D02*
X133066085Y-127325476D01*
X165833219Y-118082866D02*
X165357028Y-118416199D01*
X165833219Y-118654294D02*
X164833219Y-118654294D01*
X164833219Y-118654294D02*
X164833219Y-118273342D01*
X164833219Y-118273342D02*
X164880838Y-118178104D01*
X164880838Y-118178104D02*
X164928457Y-118130485D01*
X164928457Y-118130485D02*
X165023695Y-118082866D01*
X165023695Y-118082866D02*
X165166552Y-118082866D01*
X165166552Y-118082866D02*
X165261790Y-118130485D01*
X165261790Y-118130485D02*
X165309409Y-118178104D01*
X165309409Y-118178104D02*
X165357028Y-118273342D01*
X165357028Y-118273342D02*
X165357028Y-118654294D01*
X164833219Y-117178104D02*
X164833219Y-117654294D01*
X164833219Y-117654294D02*
X165309409Y-117701913D01*
X165309409Y-117701913D02*
X165261790Y-117654294D01*
X165261790Y-117654294D02*
X165214171Y-117559056D01*
X165214171Y-117559056D02*
X165214171Y-117320961D01*
X165214171Y-117320961D02*
X165261790Y-117225723D01*
X165261790Y-117225723D02*
X165309409Y-117178104D01*
X165309409Y-117178104D02*
X165404647Y-117130485D01*
X165404647Y-117130485D02*
X165642742Y-117130485D01*
X165642742Y-117130485D02*
X165737980Y-117178104D01*
X165737980Y-117178104D02*
X165785600Y-117225723D01*
X165785600Y-117225723D02*
X165833219Y-117320961D01*
X165833219Y-117320961D02*
X165833219Y-117559056D01*
X165833219Y-117559056D02*
X165785600Y-117654294D01*
X165785600Y-117654294D02*
X165737980Y-117701913D01*
X145209419Y-128954066D02*
X144733228Y-129287399D01*
X145209419Y-129525494D02*
X144209419Y-129525494D01*
X144209419Y-129525494D02*
X144209419Y-129144542D01*
X144209419Y-129144542D02*
X144257038Y-129049304D01*
X144257038Y-129049304D02*
X144304657Y-129001685D01*
X144304657Y-129001685D02*
X144399895Y-128954066D01*
X144399895Y-128954066D02*
X144542752Y-128954066D01*
X144542752Y-128954066D02*
X144637990Y-129001685D01*
X144637990Y-129001685D02*
X144685609Y-129049304D01*
X144685609Y-129049304D02*
X144733228Y-129144542D01*
X144733228Y-129144542D02*
X144733228Y-129525494D01*
X145209419Y-128001685D02*
X145209419Y-128573113D01*
X145209419Y-128287399D02*
X144209419Y-128287399D01*
X144209419Y-128287399D02*
X144352276Y-128382637D01*
X144352276Y-128382637D02*
X144447514Y-128477875D01*
X144447514Y-128477875D02*
X144495133Y-128573113D01*
X157545210Y-117044419D02*
X157545210Y-116044419D01*
X158592828Y-116949180D02*
X158545209Y-116996800D01*
X158545209Y-116996800D02*
X158402352Y-117044419D01*
X158402352Y-117044419D02*
X158307114Y-117044419D01*
X158307114Y-117044419D02*
X158164257Y-116996800D01*
X158164257Y-116996800D02*
X158069019Y-116901561D01*
X158069019Y-116901561D02*
X158021400Y-116806323D01*
X158021400Y-116806323D02*
X157973781Y-116615847D01*
X157973781Y-116615847D02*
X157973781Y-116472990D01*
X157973781Y-116472990D02*
X158021400Y-116282514D01*
X158021400Y-116282514D02*
X158069019Y-116187276D01*
X158069019Y-116187276D02*
X158164257Y-116092038D01*
X158164257Y-116092038D02*
X158307114Y-116044419D01*
X158307114Y-116044419D02*
X158402352Y-116044419D01*
X158402352Y-116044419D02*
X158545209Y-116092038D01*
X158545209Y-116092038D02*
X158592828Y-116139657D01*
X159545209Y-117044419D02*
X158973781Y-117044419D01*
X159259495Y-117044419D02*
X159259495Y-116044419D01*
X159259495Y-116044419D02*
X159164257Y-116187276D01*
X159164257Y-116187276D02*
X159069019Y-116282514D01*
X159069019Y-116282514D02*
X158973781Y-116330133D01*
X163953042Y-107416980D02*
X163905423Y-107464600D01*
X163905423Y-107464600D02*
X163762566Y-107512219D01*
X163762566Y-107512219D02*
X163667328Y-107512219D01*
X163667328Y-107512219D02*
X163524471Y-107464600D01*
X163524471Y-107464600D02*
X163429233Y-107369361D01*
X163429233Y-107369361D02*
X163381614Y-107274123D01*
X163381614Y-107274123D02*
X163333995Y-107083647D01*
X163333995Y-107083647D02*
X163333995Y-106940790D01*
X163333995Y-106940790D02*
X163381614Y-106750314D01*
X163381614Y-106750314D02*
X163429233Y-106655076D01*
X163429233Y-106655076D02*
X163524471Y-106559838D01*
X163524471Y-106559838D02*
X163667328Y-106512219D01*
X163667328Y-106512219D02*
X163762566Y-106512219D01*
X163762566Y-106512219D02*
X163905423Y-106559838D01*
X163905423Y-106559838D02*
X163953042Y-106607457D01*
X164905423Y-107512219D02*
X164333995Y-107512219D01*
X164619709Y-107512219D02*
X164619709Y-106512219D01*
X164619709Y-106512219D02*
X164524471Y-106655076D01*
X164524471Y-106655076D02*
X164429233Y-106750314D01*
X164429233Y-106750314D02*
X164333995Y-106797933D01*
X165524471Y-106512219D02*
X165619709Y-106512219D01*
X165619709Y-106512219D02*
X165714947Y-106559838D01*
X165714947Y-106559838D02*
X165762566Y-106607457D01*
X165762566Y-106607457D02*
X165810185Y-106702695D01*
X165810185Y-106702695D02*
X165857804Y-106893171D01*
X165857804Y-106893171D02*
X165857804Y-107131266D01*
X165857804Y-107131266D02*
X165810185Y-107321742D01*
X165810185Y-107321742D02*
X165762566Y-107416980D01*
X165762566Y-107416980D02*
X165714947Y-107464600D01*
X165714947Y-107464600D02*
X165619709Y-107512219D01*
X165619709Y-107512219D02*
X165524471Y-107512219D01*
X165524471Y-107512219D02*
X165429233Y-107464600D01*
X165429233Y-107464600D02*
X165381614Y-107416980D01*
X165381614Y-107416980D02*
X165333995Y-107321742D01*
X165333995Y-107321742D02*
X165286376Y-107131266D01*
X165286376Y-107131266D02*
X165286376Y-106893171D01*
X165286376Y-106893171D02*
X165333995Y-106702695D01*
X165333995Y-106702695D02*
X165381614Y-106607457D01*
X165381614Y-106607457D02*
X165429233Y-106559838D01*
X165429233Y-106559838D02*
X165524471Y-106512219D01*
X164476133Y-123219380D02*
X164428514Y-123267000D01*
X164428514Y-123267000D02*
X164285657Y-123314619D01*
X164285657Y-123314619D02*
X164190419Y-123314619D01*
X164190419Y-123314619D02*
X164047562Y-123267000D01*
X164047562Y-123267000D02*
X163952324Y-123171761D01*
X163952324Y-123171761D02*
X163904705Y-123076523D01*
X163904705Y-123076523D02*
X163857086Y-122886047D01*
X163857086Y-122886047D02*
X163857086Y-122743190D01*
X163857086Y-122743190D02*
X163904705Y-122552714D01*
X163904705Y-122552714D02*
X163952324Y-122457476D01*
X163952324Y-122457476D02*
X164047562Y-122362238D01*
X164047562Y-122362238D02*
X164190419Y-122314619D01*
X164190419Y-122314619D02*
X164285657Y-122314619D01*
X164285657Y-122314619D02*
X164428514Y-122362238D01*
X164428514Y-122362238D02*
X164476133Y-122409857D01*
X164809467Y-122314619D02*
X165428514Y-122314619D01*
X165428514Y-122314619D02*
X165095181Y-122695571D01*
X165095181Y-122695571D02*
X165238038Y-122695571D01*
X165238038Y-122695571D02*
X165333276Y-122743190D01*
X165333276Y-122743190D02*
X165380895Y-122790809D01*
X165380895Y-122790809D02*
X165428514Y-122886047D01*
X165428514Y-122886047D02*
X165428514Y-123124142D01*
X165428514Y-123124142D02*
X165380895Y-123219380D01*
X165380895Y-123219380D02*
X165333276Y-123267000D01*
X165333276Y-123267000D02*
X165238038Y-123314619D01*
X165238038Y-123314619D02*
X164952324Y-123314619D01*
X164952324Y-123314619D02*
X164857086Y-123267000D01*
X164857086Y-123267000D02*
X164809467Y-123219380D01*
X145346033Y-124130180D02*
X145298414Y-124177800D01*
X145298414Y-124177800D02*
X145155557Y-124225419D01*
X145155557Y-124225419D02*
X145060319Y-124225419D01*
X145060319Y-124225419D02*
X144917462Y-124177800D01*
X144917462Y-124177800D02*
X144822224Y-124082561D01*
X144822224Y-124082561D02*
X144774605Y-123987323D01*
X144774605Y-123987323D02*
X144726986Y-123796847D01*
X144726986Y-123796847D02*
X144726986Y-123653990D01*
X144726986Y-123653990D02*
X144774605Y-123463514D01*
X144774605Y-123463514D02*
X144822224Y-123368276D01*
X144822224Y-123368276D02*
X144917462Y-123273038D01*
X144917462Y-123273038D02*
X145060319Y-123225419D01*
X145060319Y-123225419D02*
X145155557Y-123225419D01*
X145155557Y-123225419D02*
X145298414Y-123273038D01*
X145298414Y-123273038D02*
X145346033Y-123320657D01*
X145726986Y-123320657D02*
X145774605Y-123273038D01*
X145774605Y-123273038D02*
X145869843Y-123225419D01*
X145869843Y-123225419D02*
X146107938Y-123225419D01*
X146107938Y-123225419D02*
X146203176Y-123273038D01*
X146203176Y-123273038D02*
X146250795Y-123320657D01*
X146250795Y-123320657D02*
X146298414Y-123415895D01*
X146298414Y-123415895D02*
X146298414Y-123511133D01*
X146298414Y-123511133D02*
X146250795Y-123653990D01*
X146250795Y-123653990D02*
X145679367Y-124225419D01*
X145679367Y-124225419D02*
X146298414Y-124225419D01*
X161863833Y-123342780D02*
X161816214Y-123390400D01*
X161816214Y-123390400D02*
X161673357Y-123438019D01*
X161673357Y-123438019D02*
X161578119Y-123438019D01*
X161578119Y-123438019D02*
X161435262Y-123390400D01*
X161435262Y-123390400D02*
X161340024Y-123295161D01*
X161340024Y-123295161D02*
X161292405Y-123199923D01*
X161292405Y-123199923D02*
X161244786Y-123009447D01*
X161244786Y-123009447D02*
X161244786Y-122866590D01*
X161244786Y-122866590D02*
X161292405Y-122676114D01*
X161292405Y-122676114D02*
X161340024Y-122580876D01*
X161340024Y-122580876D02*
X161435262Y-122485638D01*
X161435262Y-122485638D02*
X161578119Y-122438019D01*
X161578119Y-122438019D02*
X161673357Y-122438019D01*
X161673357Y-122438019D02*
X161816214Y-122485638D01*
X161816214Y-122485638D02*
X161863833Y-122533257D01*
X162816214Y-123438019D02*
X162244786Y-123438019D01*
X162530500Y-123438019D02*
X162530500Y-122438019D01*
X162530500Y-122438019D02*
X162435262Y-122580876D01*
X162435262Y-122580876D02*
X162340024Y-122676114D01*
X162340024Y-122676114D02*
X162244786Y-122723733D01*
X159951867Y-133177066D02*
X159951867Y-131777066D01*
X159951867Y-131777066D02*
X160285200Y-131777066D01*
X160285200Y-131777066D02*
X160485200Y-131843733D01*
X160485200Y-131843733D02*
X160618534Y-131977066D01*
X160618534Y-131977066D02*
X160685200Y-132110400D01*
X160685200Y-132110400D02*
X160751867Y-132377066D01*
X160751867Y-132377066D02*
X160751867Y-132577066D01*
X160751867Y-132577066D02*
X160685200Y-132843733D01*
X160685200Y-132843733D02*
X160618534Y-132977066D01*
X160618534Y-132977066D02*
X160485200Y-133110400D01*
X160485200Y-133110400D02*
X160285200Y-133177066D01*
X160285200Y-133177066D02*
X159951867Y-133177066D01*
X162085200Y-133177066D02*
X161285200Y-133177066D01*
X161685200Y-133177066D02*
X161685200Y-131777066D01*
X161685200Y-131777066D02*
X161551867Y-131977066D01*
X161551867Y-131977066D02*
X161418534Y-132110400D01*
X161418534Y-132110400D02*
X161285200Y-132177066D01*
X156993095Y-106654819D02*
X156993095Y-107464342D01*
X156993095Y-107464342D02*
X157040714Y-107559580D01*
X157040714Y-107559580D02*
X157088333Y-107607200D01*
X157088333Y-107607200D02*
X157183571Y-107654819D01*
X157183571Y-107654819D02*
X157374047Y-107654819D01*
X157374047Y-107654819D02*
X157469285Y-107607200D01*
X157469285Y-107607200D02*
X157516904Y-107559580D01*
X157516904Y-107559580D02*
X157564523Y-107464342D01*
X157564523Y-107464342D02*
X157564523Y-106654819D01*
X158469285Y-106654819D02*
X158278809Y-106654819D01*
X158278809Y-106654819D02*
X158183571Y-106702438D01*
X158183571Y-106702438D02*
X158135952Y-106750057D01*
X158135952Y-106750057D02*
X158040714Y-106892914D01*
X158040714Y-106892914D02*
X157993095Y-107083390D01*
X157993095Y-107083390D02*
X157993095Y-107464342D01*
X157993095Y-107464342D02*
X158040714Y-107559580D01*
X158040714Y-107559580D02*
X158088333Y-107607200D01*
X158088333Y-107607200D02*
X158183571Y-107654819D01*
X158183571Y-107654819D02*
X158374047Y-107654819D01*
X158374047Y-107654819D02*
X158469285Y-107607200D01*
X158469285Y-107607200D02*
X158516904Y-107559580D01*
X158516904Y-107559580D02*
X158564523Y-107464342D01*
X158564523Y-107464342D02*
X158564523Y-107226247D01*
X158564523Y-107226247D02*
X158516904Y-107131009D01*
X158516904Y-107131009D02*
X158469285Y-107083390D01*
X158469285Y-107083390D02*
X158374047Y-107035771D01*
X158374047Y-107035771D02*
X158183571Y-107035771D01*
X158183571Y-107035771D02*
X158088333Y-107083390D01*
X158088333Y-107083390D02*
X158040714Y-107131009D01*
X158040714Y-107131009D02*
X157993095Y-107226247D01*
X107889819Y-96586904D02*
X108699342Y-96586904D01*
X108699342Y-96586904D02*
X108794580Y-96539285D01*
X108794580Y-96539285D02*
X108842200Y-96491666D01*
X108842200Y-96491666D02*
X108889819Y-96396428D01*
X108889819Y-96396428D02*
X108889819Y-96205952D01*
X108889819Y-96205952D02*
X108842200Y-96110714D01*
X108842200Y-96110714D02*
X108794580Y-96063095D01*
X108794580Y-96063095D02*
X108699342Y-96015476D01*
X108699342Y-96015476D02*
X107889819Y-96015476D01*
X108223152Y-95110714D02*
X108889819Y-95110714D01*
X107842200Y-95348809D02*
X108556485Y-95586904D01*
X108556485Y-95586904D02*
X108556485Y-94967857D01*
X107604819Y-106761904D02*
X108414342Y-106761904D01*
X108414342Y-106761904D02*
X108509580Y-106714285D01*
X108509580Y-106714285D02*
X108557200Y-106666666D01*
X108557200Y-106666666D02*
X108604819Y-106571428D01*
X108604819Y-106571428D02*
X108604819Y-106380952D01*
X108604819Y-106380952D02*
X108557200Y-106285714D01*
X108557200Y-106285714D02*
X108509580Y-106238095D01*
X108509580Y-106238095D02*
X108414342Y-106190476D01*
X108414342Y-106190476D02*
X107604819Y-106190476D01*
X107604819Y-105809523D02*
X107604819Y-105190476D01*
X107604819Y-105190476D02*
X107985771Y-105523809D01*
X107985771Y-105523809D02*
X107985771Y-105380952D01*
X107985771Y-105380952D02*
X108033390Y-105285714D01*
X108033390Y-105285714D02*
X108081009Y-105238095D01*
X108081009Y-105238095D02*
X108176247Y-105190476D01*
X108176247Y-105190476D02*
X108414342Y-105190476D01*
X108414342Y-105190476D02*
X108509580Y-105238095D01*
X108509580Y-105238095D02*
X108557200Y-105285714D01*
X108557200Y-105285714D02*
X108604819Y-105380952D01*
X108604819Y-105380952D02*
X108604819Y-105666666D01*
X108604819Y-105666666D02*
X108557200Y-105761904D01*
X108557200Y-105761904D02*
X108509580Y-105809523D01*
X158093095Y-93519819D02*
X158093095Y-94329342D01*
X158093095Y-94329342D02*
X158140714Y-94424580D01*
X158140714Y-94424580D02*
X158188333Y-94472200D01*
X158188333Y-94472200D02*
X158283571Y-94519819D01*
X158283571Y-94519819D02*
X158474047Y-94519819D01*
X158474047Y-94519819D02*
X158569285Y-94472200D01*
X158569285Y-94472200D02*
X158616904Y-94424580D01*
X158616904Y-94424580D02*
X158664523Y-94329342D01*
X158664523Y-94329342D02*
X158664523Y-93519819D01*
X159093095Y-93615057D02*
X159140714Y-93567438D01*
X159140714Y-93567438D02*
X159235952Y-93519819D01*
X159235952Y-93519819D02*
X159474047Y-93519819D01*
X159474047Y-93519819D02*
X159569285Y-93567438D01*
X159569285Y-93567438D02*
X159616904Y-93615057D01*
X159616904Y-93615057D02*
X159664523Y-93710295D01*
X159664523Y-93710295D02*
X159664523Y-93805533D01*
X159664523Y-93805533D02*
X159616904Y-93948390D01*
X159616904Y-93948390D02*
X159045476Y-94519819D01*
X159045476Y-94519819D02*
X159664523Y-94519819D01*
X148038095Y-93484819D02*
X148038095Y-94294342D01*
X148038095Y-94294342D02*
X148085714Y-94389580D01*
X148085714Y-94389580D02*
X148133333Y-94437200D01*
X148133333Y-94437200D02*
X148228571Y-94484819D01*
X148228571Y-94484819D02*
X148419047Y-94484819D01*
X148419047Y-94484819D02*
X148514285Y-94437200D01*
X148514285Y-94437200D02*
X148561904Y-94389580D01*
X148561904Y-94389580D02*
X148609523Y-94294342D01*
X148609523Y-94294342D02*
X148609523Y-93484819D01*
X149609523Y-94484819D02*
X149038095Y-94484819D01*
X149323809Y-94484819D02*
X149323809Y-93484819D01*
X149323809Y-93484819D02*
X149228571Y-93627676D01*
X149228571Y-93627676D02*
X149133333Y-93722914D01*
X149133333Y-93722914D02*
X149038095Y-93770533D01*
X150198342Y-126438819D02*
X149865009Y-125962628D01*
X149626914Y-126438819D02*
X149626914Y-125438819D01*
X149626914Y-125438819D02*
X150007866Y-125438819D01*
X150007866Y-125438819D02*
X150103104Y-125486438D01*
X150103104Y-125486438D02*
X150150723Y-125534057D01*
X150150723Y-125534057D02*
X150198342Y-125629295D01*
X150198342Y-125629295D02*
X150198342Y-125772152D01*
X150198342Y-125772152D02*
X150150723Y-125867390D01*
X150150723Y-125867390D02*
X150103104Y-125915009D01*
X150103104Y-125915009D02*
X150007866Y-125962628D01*
X150007866Y-125962628D02*
X149626914Y-125962628D01*
X150531676Y-125438819D02*
X151150723Y-125438819D01*
X151150723Y-125438819D02*
X150817390Y-125819771D01*
X150817390Y-125819771D02*
X150960247Y-125819771D01*
X150960247Y-125819771D02*
X151055485Y-125867390D01*
X151055485Y-125867390D02*
X151103104Y-125915009D01*
X151103104Y-125915009D02*
X151150723Y-126010247D01*
X151150723Y-126010247D02*
X151150723Y-126248342D01*
X151150723Y-126248342D02*
X151103104Y-126343580D01*
X151103104Y-126343580D02*
X151055485Y-126391200D01*
X151055485Y-126391200D02*
X150960247Y-126438819D01*
X150960247Y-126438819D02*
X150674533Y-126438819D01*
X150674533Y-126438819D02*
X150579295Y-126391200D01*
X150579295Y-126391200D02*
X150531676Y-126343580D01*
X151484057Y-125438819D02*
X152103104Y-125438819D01*
X152103104Y-125438819D02*
X151769771Y-125819771D01*
X151769771Y-125819771D02*
X151912628Y-125819771D01*
X151912628Y-125819771D02*
X152007866Y-125867390D01*
X152007866Y-125867390D02*
X152055485Y-125915009D01*
X152055485Y-125915009D02*
X152103104Y-126010247D01*
X152103104Y-126010247D02*
X152103104Y-126248342D01*
X152103104Y-126248342D02*
X152055485Y-126343580D01*
X152055485Y-126343580D02*
X152007866Y-126391200D01*
X152007866Y-126391200D02*
X151912628Y-126438819D01*
X151912628Y-126438819D02*
X151626914Y-126438819D01*
X151626914Y-126438819D02*
X151531676Y-126391200D01*
X151531676Y-126391200D02*
X151484057Y-126343580D01*
X151027019Y-118990857D02*
X150550828Y-119324190D01*
X151027019Y-119562285D02*
X150027019Y-119562285D01*
X150027019Y-119562285D02*
X150027019Y-119181333D01*
X150027019Y-119181333D02*
X150074638Y-119086095D01*
X150074638Y-119086095D02*
X150122257Y-119038476D01*
X150122257Y-119038476D02*
X150217495Y-118990857D01*
X150217495Y-118990857D02*
X150360352Y-118990857D01*
X150360352Y-118990857D02*
X150455590Y-119038476D01*
X150455590Y-119038476D02*
X150503209Y-119086095D01*
X150503209Y-119086095D02*
X150550828Y-119181333D01*
X150550828Y-119181333D02*
X150550828Y-119562285D01*
X150027019Y-118657523D02*
X150027019Y-118038476D01*
X150027019Y-118038476D02*
X150407971Y-118371809D01*
X150407971Y-118371809D02*
X150407971Y-118228952D01*
X150407971Y-118228952D02*
X150455590Y-118133714D01*
X150455590Y-118133714D02*
X150503209Y-118086095D01*
X150503209Y-118086095D02*
X150598447Y-118038476D01*
X150598447Y-118038476D02*
X150836542Y-118038476D01*
X150836542Y-118038476D02*
X150931780Y-118086095D01*
X150931780Y-118086095D02*
X150979400Y-118133714D01*
X150979400Y-118133714D02*
X151027019Y-118228952D01*
X151027019Y-118228952D02*
X151027019Y-118514666D01*
X151027019Y-118514666D02*
X150979400Y-118609904D01*
X150979400Y-118609904D02*
X150931780Y-118657523D01*
X151027019Y-117086095D02*
X151027019Y-117657523D01*
X151027019Y-117371809D02*
X150027019Y-117371809D01*
X150027019Y-117371809D02*
X150169876Y-117467047D01*
X150169876Y-117467047D02*
X150265114Y-117562285D01*
X150265114Y-117562285D02*
X150312733Y-117657523D01*
X141196219Y-124747257D02*
X140720028Y-125080590D01*
X141196219Y-125318685D02*
X140196219Y-125318685D01*
X140196219Y-125318685D02*
X140196219Y-124937733D01*
X140196219Y-124937733D02*
X140243838Y-124842495D01*
X140243838Y-124842495D02*
X140291457Y-124794876D01*
X140291457Y-124794876D02*
X140386695Y-124747257D01*
X140386695Y-124747257D02*
X140529552Y-124747257D01*
X140529552Y-124747257D02*
X140624790Y-124794876D01*
X140624790Y-124794876D02*
X140672409Y-124842495D01*
X140672409Y-124842495D02*
X140720028Y-124937733D01*
X140720028Y-124937733D02*
X140720028Y-125318685D01*
X140196219Y-124413923D02*
X140196219Y-123794876D01*
X140196219Y-123794876D02*
X140577171Y-124128209D01*
X140577171Y-124128209D02*
X140577171Y-123985352D01*
X140577171Y-123985352D02*
X140624790Y-123890114D01*
X140624790Y-123890114D02*
X140672409Y-123842495D01*
X140672409Y-123842495D02*
X140767647Y-123794876D01*
X140767647Y-123794876D02*
X141005742Y-123794876D01*
X141005742Y-123794876D02*
X141100980Y-123842495D01*
X141100980Y-123842495D02*
X141148600Y-123890114D01*
X141148600Y-123890114D02*
X141196219Y-123985352D01*
X141196219Y-123985352D02*
X141196219Y-124271066D01*
X141196219Y-124271066D02*
X141148600Y-124366304D01*
X141148600Y-124366304D02*
X141100980Y-124413923D01*
X140196219Y-123175828D02*
X140196219Y-123080590D01*
X140196219Y-123080590D02*
X140243838Y-122985352D01*
X140243838Y-122985352D02*
X140291457Y-122937733D01*
X140291457Y-122937733D02*
X140386695Y-122890114D01*
X140386695Y-122890114D02*
X140577171Y-122842495D01*
X140577171Y-122842495D02*
X140815266Y-122842495D01*
X140815266Y-122842495D02*
X141005742Y-122890114D01*
X141005742Y-122890114D02*
X141100980Y-122937733D01*
X141100980Y-122937733D02*
X141148600Y-122985352D01*
X141148600Y-122985352D02*
X141196219Y-123080590D01*
X141196219Y-123080590D02*
X141196219Y-123175828D01*
X141196219Y-123175828D02*
X141148600Y-123271066D01*
X141148600Y-123271066D02*
X141100980Y-123318685D01*
X141100980Y-123318685D02*
X141005742Y-123366304D01*
X141005742Y-123366304D02*
X140815266Y-123413923D01*
X140815266Y-123413923D02*
X140577171Y-123413923D01*
X140577171Y-123413923D02*
X140386695Y-123366304D01*
X140386695Y-123366304D02*
X140291457Y-123318685D01*
X140291457Y-123318685D02*
X140243838Y-123271066D01*
X140243838Y-123271066D02*
X140196219Y-123175828D01*
X135577342Y-118006019D02*
X135244009Y-117529828D01*
X135005914Y-118006019D02*
X135005914Y-117006019D01*
X135005914Y-117006019D02*
X135386866Y-117006019D01*
X135386866Y-117006019D02*
X135482104Y-117053638D01*
X135482104Y-117053638D02*
X135529723Y-117101257D01*
X135529723Y-117101257D02*
X135577342Y-117196495D01*
X135577342Y-117196495D02*
X135577342Y-117339352D01*
X135577342Y-117339352D02*
X135529723Y-117434590D01*
X135529723Y-117434590D02*
X135482104Y-117482209D01*
X135482104Y-117482209D02*
X135386866Y-117529828D01*
X135386866Y-117529828D02*
X135005914Y-117529828D01*
X135958295Y-117101257D02*
X136005914Y-117053638D01*
X136005914Y-117053638D02*
X136101152Y-117006019D01*
X136101152Y-117006019D02*
X136339247Y-117006019D01*
X136339247Y-117006019D02*
X136434485Y-117053638D01*
X136434485Y-117053638D02*
X136482104Y-117101257D01*
X136482104Y-117101257D02*
X136529723Y-117196495D01*
X136529723Y-117196495D02*
X136529723Y-117291733D01*
X136529723Y-117291733D02*
X136482104Y-117434590D01*
X136482104Y-117434590D02*
X135910676Y-118006019D01*
X135910676Y-118006019D02*
X136529723Y-118006019D01*
X137005914Y-118006019D02*
X137196390Y-118006019D01*
X137196390Y-118006019D02*
X137291628Y-117958400D01*
X137291628Y-117958400D02*
X137339247Y-117910780D01*
X137339247Y-117910780D02*
X137434485Y-117767923D01*
X137434485Y-117767923D02*
X137482104Y-117577447D01*
X137482104Y-117577447D02*
X137482104Y-117196495D01*
X137482104Y-117196495D02*
X137434485Y-117101257D01*
X137434485Y-117101257D02*
X137386866Y-117053638D01*
X137386866Y-117053638D02*
X137291628Y-117006019D01*
X137291628Y-117006019D02*
X137101152Y-117006019D01*
X137101152Y-117006019D02*
X137005914Y-117053638D01*
X137005914Y-117053638D02*
X136958295Y-117101257D01*
X136958295Y-117101257D02*
X136910676Y-117196495D01*
X136910676Y-117196495D02*
X136910676Y-117434590D01*
X136910676Y-117434590D02*
X136958295Y-117529828D01*
X136958295Y-117529828D02*
X137005914Y-117577447D01*
X137005914Y-117577447D02*
X137101152Y-117625066D01*
X137101152Y-117625066D02*
X137291628Y-117625066D01*
X137291628Y-117625066D02*
X137386866Y-117577447D01*
X137386866Y-117577447D02*
X137434485Y-117529828D01*
X137434485Y-117529828D02*
X137482104Y-117434590D01*
X92772142Y-108999819D02*
X92438809Y-108523628D01*
X92200714Y-108999819D02*
X92200714Y-107999819D01*
X92200714Y-107999819D02*
X92581666Y-107999819D01*
X92581666Y-107999819D02*
X92676904Y-108047438D01*
X92676904Y-108047438D02*
X92724523Y-108095057D01*
X92724523Y-108095057D02*
X92772142Y-108190295D01*
X92772142Y-108190295D02*
X92772142Y-108333152D01*
X92772142Y-108333152D02*
X92724523Y-108428390D01*
X92724523Y-108428390D02*
X92676904Y-108476009D01*
X92676904Y-108476009D02*
X92581666Y-108523628D01*
X92581666Y-108523628D02*
X92200714Y-108523628D01*
X93153095Y-108095057D02*
X93200714Y-108047438D01*
X93200714Y-108047438D02*
X93295952Y-107999819D01*
X93295952Y-107999819D02*
X93534047Y-107999819D01*
X93534047Y-107999819D02*
X93629285Y-108047438D01*
X93629285Y-108047438D02*
X93676904Y-108095057D01*
X93676904Y-108095057D02*
X93724523Y-108190295D01*
X93724523Y-108190295D02*
X93724523Y-108285533D01*
X93724523Y-108285533D02*
X93676904Y-108428390D01*
X93676904Y-108428390D02*
X93105476Y-108999819D01*
X93105476Y-108999819D02*
X93724523Y-108999819D01*
X94295952Y-108428390D02*
X94200714Y-108380771D01*
X94200714Y-108380771D02*
X94153095Y-108333152D01*
X94153095Y-108333152D02*
X94105476Y-108237914D01*
X94105476Y-108237914D02*
X94105476Y-108190295D01*
X94105476Y-108190295D02*
X94153095Y-108095057D01*
X94153095Y-108095057D02*
X94200714Y-108047438D01*
X94200714Y-108047438D02*
X94295952Y-107999819D01*
X94295952Y-107999819D02*
X94486428Y-107999819D01*
X94486428Y-107999819D02*
X94581666Y-108047438D01*
X94581666Y-108047438D02*
X94629285Y-108095057D01*
X94629285Y-108095057D02*
X94676904Y-108190295D01*
X94676904Y-108190295D02*
X94676904Y-108237914D01*
X94676904Y-108237914D02*
X94629285Y-108333152D01*
X94629285Y-108333152D02*
X94581666Y-108380771D01*
X94581666Y-108380771D02*
X94486428Y-108428390D01*
X94486428Y-108428390D02*
X94295952Y-108428390D01*
X94295952Y-108428390D02*
X94200714Y-108476009D01*
X94200714Y-108476009D02*
X94153095Y-108523628D01*
X94153095Y-108523628D02*
X94105476Y-108618866D01*
X94105476Y-108618866D02*
X94105476Y-108809342D01*
X94105476Y-108809342D02*
X94153095Y-108904580D01*
X94153095Y-108904580D02*
X94200714Y-108952200D01*
X94200714Y-108952200D02*
X94295952Y-108999819D01*
X94295952Y-108999819D02*
X94486428Y-108999819D01*
X94486428Y-108999819D02*
X94581666Y-108952200D01*
X94581666Y-108952200D02*
X94629285Y-108904580D01*
X94629285Y-108904580D02*
X94676904Y-108809342D01*
X94676904Y-108809342D02*
X94676904Y-108618866D01*
X94676904Y-108618866D02*
X94629285Y-108523628D01*
X94629285Y-108523628D02*
X94581666Y-108476009D01*
X94581666Y-108476009D02*
X94486428Y-108428390D01*
X96802319Y-107240357D02*
X96326128Y-107573690D01*
X96802319Y-107811785D02*
X95802319Y-107811785D01*
X95802319Y-107811785D02*
X95802319Y-107430833D01*
X95802319Y-107430833D02*
X95849938Y-107335595D01*
X95849938Y-107335595D02*
X95897557Y-107287976D01*
X95897557Y-107287976D02*
X95992795Y-107240357D01*
X95992795Y-107240357D02*
X96135652Y-107240357D01*
X96135652Y-107240357D02*
X96230890Y-107287976D01*
X96230890Y-107287976D02*
X96278509Y-107335595D01*
X96278509Y-107335595D02*
X96326128Y-107430833D01*
X96326128Y-107430833D02*
X96326128Y-107811785D01*
X95897557Y-106859404D02*
X95849938Y-106811785D01*
X95849938Y-106811785D02*
X95802319Y-106716547D01*
X95802319Y-106716547D02*
X95802319Y-106478452D01*
X95802319Y-106478452D02*
X95849938Y-106383214D01*
X95849938Y-106383214D02*
X95897557Y-106335595D01*
X95897557Y-106335595D02*
X95992795Y-106287976D01*
X95992795Y-106287976D02*
X96088033Y-106287976D01*
X96088033Y-106287976D02*
X96230890Y-106335595D01*
X96230890Y-106335595D02*
X96802319Y-106907023D01*
X96802319Y-106907023D02*
X96802319Y-106287976D01*
X95802319Y-105954642D02*
X95802319Y-105287976D01*
X95802319Y-105287976D02*
X96802319Y-105716547D01*
X92772142Y-101749819D02*
X92438809Y-101273628D01*
X92200714Y-101749819D02*
X92200714Y-100749819D01*
X92200714Y-100749819D02*
X92581666Y-100749819D01*
X92581666Y-100749819D02*
X92676904Y-100797438D01*
X92676904Y-100797438D02*
X92724523Y-100845057D01*
X92724523Y-100845057D02*
X92772142Y-100940295D01*
X92772142Y-100940295D02*
X92772142Y-101083152D01*
X92772142Y-101083152D02*
X92724523Y-101178390D01*
X92724523Y-101178390D02*
X92676904Y-101226009D01*
X92676904Y-101226009D02*
X92581666Y-101273628D01*
X92581666Y-101273628D02*
X92200714Y-101273628D01*
X93153095Y-100845057D02*
X93200714Y-100797438D01*
X93200714Y-100797438D02*
X93295952Y-100749819D01*
X93295952Y-100749819D02*
X93534047Y-100749819D01*
X93534047Y-100749819D02*
X93629285Y-100797438D01*
X93629285Y-100797438D02*
X93676904Y-100845057D01*
X93676904Y-100845057D02*
X93724523Y-100940295D01*
X93724523Y-100940295D02*
X93724523Y-101035533D01*
X93724523Y-101035533D02*
X93676904Y-101178390D01*
X93676904Y-101178390D02*
X93105476Y-101749819D01*
X93105476Y-101749819D02*
X93724523Y-101749819D01*
X94581666Y-100749819D02*
X94391190Y-100749819D01*
X94391190Y-100749819D02*
X94295952Y-100797438D01*
X94295952Y-100797438D02*
X94248333Y-100845057D01*
X94248333Y-100845057D02*
X94153095Y-100987914D01*
X94153095Y-100987914D02*
X94105476Y-101178390D01*
X94105476Y-101178390D02*
X94105476Y-101559342D01*
X94105476Y-101559342D02*
X94153095Y-101654580D01*
X94153095Y-101654580D02*
X94200714Y-101702200D01*
X94200714Y-101702200D02*
X94295952Y-101749819D01*
X94295952Y-101749819D02*
X94486428Y-101749819D01*
X94486428Y-101749819D02*
X94581666Y-101702200D01*
X94581666Y-101702200D02*
X94629285Y-101654580D01*
X94629285Y-101654580D02*
X94676904Y-101559342D01*
X94676904Y-101559342D02*
X94676904Y-101321247D01*
X94676904Y-101321247D02*
X94629285Y-101226009D01*
X94629285Y-101226009D02*
X94581666Y-101178390D01*
X94581666Y-101178390D02*
X94486428Y-101130771D01*
X94486428Y-101130771D02*
X94295952Y-101130771D01*
X94295952Y-101130771D02*
X94200714Y-101178390D01*
X94200714Y-101178390D02*
X94153095Y-101226009D01*
X94153095Y-101226009D02*
X94105476Y-101321247D01*
X139204642Y-101322319D02*
X138871309Y-100846128D01*
X138633214Y-101322319D02*
X138633214Y-100322319D01*
X138633214Y-100322319D02*
X139014166Y-100322319D01*
X139014166Y-100322319D02*
X139109404Y-100369938D01*
X139109404Y-100369938D02*
X139157023Y-100417557D01*
X139157023Y-100417557D02*
X139204642Y-100512795D01*
X139204642Y-100512795D02*
X139204642Y-100655652D01*
X139204642Y-100655652D02*
X139157023Y-100750890D01*
X139157023Y-100750890D02*
X139109404Y-100798509D01*
X139109404Y-100798509D02*
X139014166Y-100846128D01*
X139014166Y-100846128D02*
X138633214Y-100846128D01*
X139585595Y-100417557D02*
X139633214Y-100369938D01*
X139633214Y-100369938D02*
X139728452Y-100322319D01*
X139728452Y-100322319D02*
X139966547Y-100322319D01*
X139966547Y-100322319D02*
X140061785Y-100369938D01*
X140061785Y-100369938D02*
X140109404Y-100417557D01*
X140109404Y-100417557D02*
X140157023Y-100512795D01*
X140157023Y-100512795D02*
X140157023Y-100608033D01*
X140157023Y-100608033D02*
X140109404Y-100750890D01*
X140109404Y-100750890D02*
X139537976Y-101322319D01*
X139537976Y-101322319D02*
X140157023Y-101322319D01*
X141061785Y-100322319D02*
X140585595Y-100322319D01*
X140585595Y-100322319D02*
X140537976Y-100798509D01*
X140537976Y-100798509D02*
X140585595Y-100750890D01*
X140585595Y-100750890D02*
X140680833Y-100703271D01*
X140680833Y-100703271D02*
X140918928Y-100703271D01*
X140918928Y-100703271D02*
X141014166Y-100750890D01*
X141014166Y-100750890D02*
X141061785Y-100798509D01*
X141061785Y-100798509D02*
X141109404Y-100893747D01*
X141109404Y-100893747D02*
X141109404Y-101131842D01*
X141109404Y-101131842D02*
X141061785Y-101227080D01*
X141061785Y-101227080D02*
X141014166Y-101274700D01*
X141014166Y-101274700D02*
X140918928Y-101322319D01*
X140918928Y-101322319D02*
X140680833Y-101322319D01*
X140680833Y-101322319D02*
X140585595Y-101274700D01*
X140585595Y-101274700D02*
X140537976Y-101227080D01*
X144054819Y-89892857D02*
X143578628Y-90226190D01*
X144054819Y-90464285D02*
X143054819Y-90464285D01*
X143054819Y-90464285D02*
X143054819Y-90083333D01*
X143054819Y-90083333D02*
X143102438Y-89988095D01*
X143102438Y-89988095D02*
X143150057Y-89940476D01*
X143150057Y-89940476D02*
X143245295Y-89892857D01*
X143245295Y-89892857D02*
X143388152Y-89892857D01*
X143388152Y-89892857D02*
X143483390Y-89940476D01*
X143483390Y-89940476D02*
X143531009Y-89988095D01*
X143531009Y-89988095D02*
X143578628Y-90083333D01*
X143578628Y-90083333D02*
X143578628Y-90464285D01*
X143150057Y-89511904D02*
X143102438Y-89464285D01*
X143102438Y-89464285D02*
X143054819Y-89369047D01*
X143054819Y-89369047D02*
X143054819Y-89130952D01*
X143054819Y-89130952D02*
X143102438Y-89035714D01*
X143102438Y-89035714D02*
X143150057Y-88988095D01*
X143150057Y-88988095D02*
X143245295Y-88940476D01*
X143245295Y-88940476D02*
X143340533Y-88940476D01*
X143340533Y-88940476D02*
X143483390Y-88988095D01*
X143483390Y-88988095D02*
X144054819Y-89559523D01*
X144054819Y-89559523D02*
X144054819Y-88940476D01*
X143150057Y-88559523D02*
X143102438Y-88511904D01*
X143102438Y-88511904D02*
X143054819Y-88416666D01*
X143054819Y-88416666D02*
X143054819Y-88178571D01*
X143054819Y-88178571D02*
X143102438Y-88083333D01*
X143102438Y-88083333D02*
X143150057Y-88035714D01*
X143150057Y-88035714D02*
X143245295Y-87988095D01*
X143245295Y-87988095D02*
X143340533Y-87988095D01*
X143340533Y-87988095D02*
X143483390Y-88035714D01*
X143483390Y-88035714D02*
X144054819Y-88607142D01*
X144054819Y-88607142D02*
X144054819Y-87988095D01*
X93107142Y-86439819D02*
X92773809Y-85963628D01*
X92535714Y-86439819D02*
X92535714Y-85439819D01*
X92535714Y-85439819D02*
X92916666Y-85439819D01*
X92916666Y-85439819D02*
X93011904Y-85487438D01*
X93011904Y-85487438D02*
X93059523Y-85535057D01*
X93059523Y-85535057D02*
X93107142Y-85630295D01*
X93107142Y-85630295D02*
X93107142Y-85773152D01*
X93107142Y-85773152D02*
X93059523Y-85868390D01*
X93059523Y-85868390D02*
X93011904Y-85916009D01*
X93011904Y-85916009D02*
X92916666Y-85963628D01*
X92916666Y-85963628D02*
X92535714Y-85963628D01*
X93488095Y-85535057D02*
X93535714Y-85487438D01*
X93535714Y-85487438D02*
X93630952Y-85439819D01*
X93630952Y-85439819D02*
X93869047Y-85439819D01*
X93869047Y-85439819D02*
X93964285Y-85487438D01*
X93964285Y-85487438D02*
X94011904Y-85535057D01*
X94011904Y-85535057D02*
X94059523Y-85630295D01*
X94059523Y-85630295D02*
X94059523Y-85725533D01*
X94059523Y-85725533D02*
X94011904Y-85868390D01*
X94011904Y-85868390D02*
X93440476Y-86439819D01*
X93440476Y-86439819D02*
X94059523Y-86439819D01*
X95011904Y-86439819D02*
X94440476Y-86439819D01*
X94726190Y-86439819D02*
X94726190Y-85439819D01*
X94726190Y-85439819D02*
X94630952Y-85582676D01*
X94630952Y-85582676D02*
X94535714Y-85677914D01*
X94535714Y-85677914D02*
X94440476Y-85725533D01*
X104054819Y-86477857D02*
X103578628Y-86811190D01*
X104054819Y-87049285D02*
X103054819Y-87049285D01*
X103054819Y-87049285D02*
X103054819Y-86668333D01*
X103054819Y-86668333D02*
X103102438Y-86573095D01*
X103102438Y-86573095D02*
X103150057Y-86525476D01*
X103150057Y-86525476D02*
X103245295Y-86477857D01*
X103245295Y-86477857D02*
X103388152Y-86477857D01*
X103388152Y-86477857D02*
X103483390Y-86525476D01*
X103483390Y-86525476D02*
X103531009Y-86573095D01*
X103531009Y-86573095D02*
X103578628Y-86668333D01*
X103578628Y-86668333D02*
X103578628Y-87049285D01*
X103150057Y-86096904D02*
X103102438Y-86049285D01*
X103102438Y-86049285D02*
X103054819Y-85954047D01*
X103054819Y-85954047D02*
X103054819Y-85715952D01*
X103054819Y-85715952D02*
X103102438Y-85620714D01*
X103102438Y-85620714D02*
X103150057Y-85573095D01*
X103150057Y-85573095D02*
X103245295Y-85525476D01*
X103245295Y-85525476D02*
X103340533Y-85525476D01*
X103340533Y-85525476D02*
X103483390Y-85573095D01*
X103483390Y-85573095D02*
X104054819Y-86144523D01*
X104054819Y-86144523D02*
X104054819Y-85525476D01*
X103054819Y-84906428D02*
X103054819Y-84811190D01*
X103054819Y-84811190D02*
X103102438Y-84715952D01*
X103102438Y-84715952D02*
X103150057Y-84668333D01*
X103150057Y-84668333D02*
X103245295Y-84620714D01*
X103245295Y-84620714D02*
X103435771Y-84573095D01*
X103435771Y-84573095D02*
X103673866Y-84573095D01*
X103673866Y-84573095D02*
X103864342Y-84620714D01*
X103864342Y-84620714D02*
X103959580Y-84668333D01*
X103959580Y-84668333D02*
X104007200Y-84715952D01*
X104007200Y-84715952D02*
X104054819Y-84811190D01*
X104054819Y-84811190D02*
X104054819Y-84906428D01*
X104054819Y-84906428D02*
X104007200Y-85001666D01*
X104007200Y-85001666D02*
X103959580Y-85049285D01*
X103959580Y-85049285D02*
X103864342Y-85096904D01*
X103864342Y-85096904D02*
X103673866Y-85144523D01*
X103673866Y-85144523D02*
X103435771Y-85144523D01*
X103435771Y-85144523D02*
X103245295Y-85096904D01*
X103245295Y-85096904D02*
X103150057Y-85049285D01*
X103150057Y-85049285D02*
X103102438Y-85001666D01*
X103102438Y-85001666D02*
X103054819Y-84906428D01*
X143357142Y-79605871D02*
X143023809Y-79129680D01*
X142785714Y-79605871D02*
X142785714Y-78605871D01*
X142785714Y-78605871D02*
X143166666Y-78605871D01*
X143166666Y-78605871D02*
X143261904Y-78653490D01*
X143261904Y-78653490D02*
X143309523Y-78701109D01*
X143309523Y-78701109D02*
X143357142Y-78796347D01*
X143357142Y-78796347D02*
X143357142Y-78939204D01*
X143357142Y-78939204D02*
X143309523Y-79034442D01*
X143309523Y-79034442D02*
X143261904Y-79082061D01*
X143261904Y-79082061D02*
X143166666Y-79129680D01*
X143166666Y-79129680D02*
X142785714Y-79129680D01*
X144309523Y-79605871D02*
X143738095Y-79605871D01*
X144023809Y-79605871D02*
X144023809Y-78605871D01*
X144023809Y-78605871D02*
X143928571Y-78748728D01*
X143928571Y-78748728D02*
X143833333Y-78843966D01*
X143833333Y-78843966D02*
X143738095Y-78891585D01*
X144785714Y-79605871D02*
X144976190Y-79605871D01*
X144976190Y-79605871D02*
X145071428Y-79558252D01*
X145071428Y-79558252D02*
X145119047Y-79510632D01*
X145119047Y-79510632D02*
X145214285Y-79367775D01*
X145214285Y-79367775D02*
X145261904Y-79177299D01*
X145261904Y-79177299D02*
X145261904Y-78796347D01*
X145261904Y-78796347D02*
X145214285Y-78701109D01*
X145214285Y-78701109D02*
X145166666Y-78653490D01*
X145166666Y-78653490D02*
X145071428Y-78605871D01*
X145071428Y-78605871D02*
X144880952Y-78605871D01*
X144880952Y-78605871D02*
X144785714Y-78653490D01*
X144785714Y-78653490D02*
X144738095Y-78701109D01*
X144738095Y-78701109D02*
X144690476Y-78796347D01*
X144690476Y-78796347D02*
X144690476Y-79034442D01*
X144690476Y-79034442D02*
X144738095Y-79129680D01*
X144738095Y-79129680D02*
X144785714Y-79177299D01*
X144785714Y-79177299D02*
X144880952Y-79224918D01*
X144880952Y-79224918D02*
X145071428Y-79224918D01*
X145071428Y-79224918D02*
X145166666Y-79177299D01*
X145166666Y-79177299D02*
X145214285Y-79129680D01*
X145214285Y-79129680D02*
X145261904Y-79034442D01*
X143357142Y-82745871D02*
X143023809Y-82269680D01*
X142785714Y-82745871D02*
X142785714Y-81745871D01*
X142785714Y-81745871D02*
X143166666Y-81745871D01*
X143166666Y-81745871D02*
X143261904Y-81793490D01*
X143261904Y-81793490D02*
X143309523Y-81841109D01*
X143309523Y-81841109D02*
X143357142Y-81936347D01*
X143357142Y-81936347D02*
X143357142Y-82079204D01*
X143357142Y-82079204D02*
X143309523Y-82174442D01*
X143309523Y-82174442D02*
X143261904Y-82222061D01*
X143261904Y-82222061D02*
X143166666Y-82269680D01*
X143166666Y-82269680D02*
X142785714Y-82269680D01*
X144309523Y-82745871D02*
X143738095Y-82745871D01*
X144023809Y-82745871D02*
X144023809Y-81745871D01*
X144023809Y-81745871D02*
X143928571Y-81888728D01*
X143928571Y-81888728D02*
X143833333Y-81983966D01*
X143833333Y-81983966D02*
X143738095Y-82031585D01*
X144880952Y-82174442D02*
X144785714Y-82126823D01*
X144785714Y-82126823D02*
X144738095Y-82079204D01*
X144738095Y-82079204D02*
X144690476Y-81983966D01*
X144690476Y-81983966D02*
X144690476Y-81936347D01*
X144690476Y-81936347D02*
X144738095Y-81841109D01*
X144738095Y-81841109D02*
X144785714Y-81793490D01*
X144785714Y-81793490D02*
X144880952Y-81745871D01*
X144880952Y-81745871D02*
X145071428Y-81745871D01*
X145071428Y-81745871D02*
X145166666Y-81793490D01*
X145166666Y-81793490D02*
X145214285Y-81841109D01*
X145214285Y-81841109D02*
X145261904Y-81936347D01*
X145261904Y-81936347D02*
X145261904Y-81983966D01*
X145261904Y-81983966D02*
X145214285Y-82079204D01*
X145214285Y-82079204D02*
X145166666Y-82126823D01*
X145166666Y-82126823D02*
X145071428Y-82174442D01*
X145071428Y-82174442D02*
X144880952Y-82174442D01*
X144880952Y-82174442D02*
X144785714Y-82222061D01*
X144785714Y-82222061D02*
X144738095Y-82269680D01*
X144738095Y-82269680D02*
X144690476Y-82364918D01*
X144690476Y-82364918D02*
X144690476Y-82555394D01*
X144690476Y-82555394D02*
X144738095Y-82650632D01*
X144738095Y-82650632D02*
X144785714Y-82698252D01*
X144785714Y-82698252D02*
X144880952Y-82745871D01*
X144880952Y-82745871D02*
X145071428Y-82745871D01*
X145071428Y-82745871D02*
X145166666Y-82698252D01*
X145166666Y-82698252D02*
X145214285Y-82650632D01*
X145214285Y-82650632D02*
X145261904Y-82555394D01*
X145261904Y-82555394D02*
X145261904Y-82364918D01*
X145261904Y-82364918D02*
X145214285Y-82269680D01*
X145214285Y-82269680D02*
X145166666Y-82222061D01*
X145166666Y-82222061D02*
X145071428Y-82174442D01*
X143357142Y-85922319D02*
X143023809Y-85446128D01*
X142785714Y-85922319D02*
X142785714Y-84922319D01*
X142785714Y-84922319D02*
X143166666Y-84922319D01*
X143166666Y-84922319D02*
X143261904Y-84969938D01*
X143261904Y-84969938D02*
X143309523Y-85017557D01*
X143309523Y-85017557D02*
X143357142Y-85112795D01*
X143357142Y-85112795D02*
X143357142Y-85255652D01*
X143357142Y-85255652D02*
X143309523Y-85350890D01*
X143309523Y-85350890D02*
X143261904Y-85398509D01*
X143261904Y-85398509D02*
X143166666Y-85446128D01*
X143166666Y-85446128D02*
X142785714Y-85446128D01*
X144309523Y-85922319D02*
X143738095Y-85922319D01*
X144023809Y-85922319D02*
X144023809Y-84922319D01*
X144023809Y-84922319D02*
X143928571Y-85065176D01*
X143928571Y-85065176D02*
X143833333Y-85160414D01*
X143833333Y-85160414D02*
X143738095Y-85208033D01*
X144642857Y-84922319D02*
X145309523Y-84922319D01*
X145309523Y-84922319D02*
X144880952Y-85922319D01*
X162583019Y-107221257D02*
X162106828Y-107554590D01*
X162583019Y-107792685D02*
X161583019Y-107792685D01*
X161583019Y-107792685D02*
X161583019Y-107411733D01*
X161583019Y-107411733D02*
X161630638Y-107316495D01*
X161630638Y-107316495D02*
X161678257Y-107268876D01*
X161678257Y-107268876D02*
X161773495Y-107221257D01*
X161773495Y-107221257D02*
X161916352Y-107221257D01*
X161916352Y-107221257D02*
X162011590Y-107268876D01*
X162011590Y-107268876D02*
X162059209Y-107316495D01*
X162059209Y-107316495D02*
X162106828Y-107411733D01*
X162106828Y-107411733D02*
X162106828Y-107792685D01*
X162583019Y-106268876D02*
X162583019Y-106840304D01*
X162583019Y-106554590D02*
X161583019Y-106554590D01*
X161583019Y-106554590D02*
X161725876Y-106649828D01*
X161725876Y-106649828D02*
X161821114Y-106745066D01*
X161821114Y-106745066D02*
X161868733Y-106840304D01*
X161916352Y-105411733D02*
X162583019Y-105411733D01*
X161535400Y-105649828D02*
X162249685Y-105887923D01*
X162249685Y-105887923D02*
X162249685Y-105268876D01*
X135577342Y-115796219D02*
X135244009Y-115320028D01*
X135005914Y-115796219D02*
X135005914Y-114796219D01*
X135005914Y-114796219D02*
X135386866Y-114796219D01*
X135386866Y-114796219D02*
X135482104Y-114843838D01*
X135482104Y-114843838D02*
X135529723Y-114891457D01*
X135529723Y-114891457D02*
X135577342Y-114986695D01*
X135577342Y-114986695D02*
X135577342Y-115129552D01*
X135577342Y-115129552D02*
X135529723Y-115224790D01*
X135529723Y-115224790D02*
X135482104Y-115272409D01*
X135482104Y-115272409D02*
X135386866Y-115320028D01*
X135386866Y-115320028D02*
X135005914Y-115320028D01*
X136529723Y-115796219D02*
X135958295Y-115796219D01*
X136244009Y-115796219D02*
X136244009Y-114796219D01*
X136244009Y-114796219D02*
X136148771Y-114939076D01*
X136148771Y-114939076D02*
X136053533Y-115034314D01*
X136053533Y-115034314D02*
X135958295Y-115081933D01*
X136910676Y-114891457D02*
X136958295Y-114843838D01*
X136958295Y-114843838D02*
X137053533Y-114796219D01*
X137053533Y-114796219D02*
X137291628Y-114796219D01*
X137291628Y-114796219D02*
X137386866Y-114843838D01*
X137386866Y-114843838D02*
X137434485Y-114891457D01*
X137434485Y-114891457D02*
X137482104Y-114986695D01*
X137482104Y-114986695D02*
X137482104Y-115081933D01*
X137482104Y-115081933D02*
X137434485Y-115224790D01*
X137434485Y-115224790D02*
X136863057Y-115796219D01*
X136863057Y-115796219D02*
X137482104Y-115796219D01*
X139107142Y-100304819D02*
X138773809Y-99828628D01*
X138535714Y-100304819D02*
X138535714Y-99304819D01*
X138535714Y-99304819D02*
X138916666Y-99304819D01*
X138916666Y-99304819D02*
X139011904Y-99352438D01*
X139011904Y-99352438D02*
X139059523Y-99400057D01*
X139059523Y-99400057D02*
X139107142Y-99495295D01*
X139107142Y-99495295D02*
X139107142Y-99638152D01*
X139107142Y-99638152D02*
X139059523Y-99733390D01*
X139059523Y-99733390D02*
X139011904Y-99781009D01*
X139011904Y-99781009D02*
X138916666Y-99828628D01*
X138916666Y-99828628D02*
X138535714Y-99828628D01*
X140059523Y-100304819D02*
X139488095Y-100304819D01*
X139773809Y-100304819D02*
X139773809Y-99304819D01*
X139773809Y-99304819D02*
X139678571Y-99447676D01*
X139678571Y-99447676D02*
X139583333Y-99542914D01*
X139583333Y-99542914D02*
X139488095Y-99590533D01*
X140678571Y-99304819D02*
X140773809Y-99304819D01*
X140773809Y-99304819D02*
X140869047Y-99352438D01*
X140869047Y-99352438D02*
X140916666Y-99400057D01*
X140916666Y-99400057D02*
X140964285Y-99495295D01*
X140964285Y-99495295D02*
X141011904Y-99685771D01*
X141011904Y-99685771D02*
X141011904Y-99923866D01*
X141011904Y-99923866D02*
X140964285Y-100114342D01*
X140964285Y-100114342D02*
X140916666Y-100209580D01*
X140916666Y-100209580D02*
X140869047Y-100257200D01*
X140869047Y-100257200D02*
X140773809Y-100304819D01*
X140773809Y-100304819D02*
X140678571Y-100304819D01*
X140678571Y-100304819D02*
X140583333Y-100257200D01*
X140583333Y-100257200D02*
X140535714Y-100209580D01*
X140535714Y-100209580D02*
X140488095Y-100114342D01*
X140488095Y-100114342D02*
X140440476Y-99923866D01*
X140440476Y-99923866D02*
X140440476Y-99685771D01*
X140440476Y-99685771D02*
X140488095Y-99495295D01*
X140488095Y-99495295D02*
X140535714Y-99400057D01*
X140535714Y-99400057D02*
X140583333Y-99352438D01*
X140583333Y-99352438D02*
X140678571Y-99304819D01*
X101554819Y-86001666D02*
X101078628Y-86334999D01*
X101554819Y-86573094D02*
X100554819Y-86573094D01*
X100554819Y-86573094D02*
X100554819Y-86192142D01*
X100554819Y-86192142D02*
X100602438Y-86096904D01*
X100602438Y-86096904D02*
X100650057Y-86049285D01*
X100650057Y-86049285D02*
X100745295Y-86001666D01*
X100745295Y-86001666D02*
X100888152Y-86001666D01*
X100888152Y-86001666D02*
X100983390Y-86049285D01*
X100983390Y-86049285D02*
X101031009Y-86096904D01*
X101031009Y-86096904D02*
X101078628Y-86192142D01*
X101078628Y-86192142D02*
X101078628Y-86573094D01*
X100888152Y-85144523D02*
X101554819Y-85144523D01*
X100507200Y-85382618D02*
X101221485Y-85620713D01*
X101221485Y-85620713D02*
X101221485Y-85001666D01*
X139583333Y-95354819D02*
X139250000Y-94878628D01*
X139011905Y-95354819D02*
X139011905Y-94354819D01*
X139011905Y-94354819D02*
X139392857Y-94354819D01*
X139392857Y-94354819D02*
X139488095Y-94402438D01*
X139488095Y-94402438D02*
X139535714Y-94450057D01*
X139535714Y-94450057D02*
X139583333Y-94545295D01*
X139583333Y-94545295D02*
X139583333Y-94688152D01*
X139583333Y-94688152D02*
X139535714Y-94783390D01*
X139535714Y-94783390D02*
X139488095Y-94831009D01*
X139488095Y-94831009D02*
X139392857Y-94878628D01*
X139392857Y-94878628D02*
X139011905Y-94878628D01*
X139916667Y-94354819D02*
X140535714Y-94354819D01*
X140535714Y-94354819D02*
X140202381Y-94735771D01*
X140202381Y-94735771D02*
X140345238Y-94735771D01*
X140345238Y-94735771D02*
X140440476Y-94783390D01*
X140440476Y-94783390D02*
X140488095Y-94831009D01*
X140488095Y-94831009D02*
X140535714Y-94926247D01*
X140535714Y-94926247D02*
X140535714Y-95164342D01*
X140535714Y-95164342D02*
X140488095Y-95259580D01*
X140488095Y-95259580D02*
X140440476Y-95307200D01*
X140440476Y-95307200D02*
X140345238Y-95354819D01*
X140345238Y-95354819D02*
X140059524Y-95354819D01*
X140059524Y-95354819D02*
X139964286Y-95307200D01*
X139964286Y-95307200D02*
X139916667Y-95259580D01*
X154583333Y-105554819D02*
X154250000Y-105078628D01*
X154011905Y-105554819D02*
X154011905Y-104554819D01*
X154011905Y-104554819D02*
X154392857Y-104554819D01*
X154392857Y-104554819D02*
X154488095Y-104602438D01*
X154488095Y-104602438D02*
X154535714Y-104650057D01*
X154535714Y-104650057D02*
X154583333Y-104745295D01*
X154583333Y-104745295D02*
X154583333Y-104888152D01*
X154583333Y-104888152D02*
X154535714Y-104983390D01*
X154535714Y-104983390D02*
X154488095Y-105031009D01*
X154488095Y-105031009D02*
X154392857Y-105078628D01*
X154392857Y-105078628D02*
X154011905Y-105078628D01*
X154964286Y-104650057D02*
X155011905Y-104602438D01*
X155011905Y-104602438D02*
X155107143Y-104554819D01*
X155107143Y-104554819D02*
X155345238Y-104554819D01*
X155345238Y-104554819D02*
X155440476Y-104602438D01*
X155440476Y-104602438D02*
X155488095Y-104650057D01*
X155488095Y-104650057D02*
X155535714Y-104745295D01*
X155535714Y-104745295D02*
X155535714Y-104840533D01*
X155535714Y-104840533D02*
X155488095Y-104983390D01*
X155488095Y-104983390D02*
X154916667Y-105554819D01*
X154916667Y-105554819D02*
X155535714Y-105554819D01*
X139654761Y-99200057D02*
X139559523Y-99152438D01*
X139559523Y-99152438D02*
X139464285Y-99057200D01*
X139464285Y-99057200D02*
X139321428Y-98914342D01*
X139321428Y-98914342D02*
X139226190Y-98866723D01*
X139226190Y-98866723D02*
X139130952Y-98866723D01*
X139178571Y-99104819D02*
X139083333Y-99057200D01*
X139083333Y-99057200D02*
X138988095Y-98961961D01*
X138988095Y-98961961D02*
X138940476Y-98771485D01*
X138940476Y-98771485D02*
X138940476Y-98438152D01*
X138940476Y-98438152D02*
X138988095Y-98247676D01*
X138988095Y-98247676D02*
X139083333Y-98152438D01*
X139083333Y-98152438D02*
X139178571Y-98104819D01*
X139178571Y-98104819D02*
X139369047Y-98104819D01*
X139369047Y-98104819D02*
X139464285Y-98152438D01*
X139464285Y-98152438D02*
X139559523Y-98247676D01*
X139559523Y-98247676D02*
X139607142Y-98438152D01*
X139607142Y-98438152D02*
X139607142Y-98771485D01*
X139607142Y-98771485D02*
X139559523Y-98961961D01*
X139559523Y-98961961D02*
X139464285Y-99057200D01*
X139464285Y-99057200D02*
X139369047Y-99104819D01*
X139369047Y-99104819D02*
X139178571Y-99104819D01*
X140464285Y-98104819D02*
X140273809Y-98104819D01*
X140273809Y-98104819D02*
X140178571Y-98152438D01*
X140178571Y-98152438D02*
X140130952Y-98200057D01*
X140130952Y-98200057D02*
X140035714Y-98342914D01*
X140035714Y-98342914D02*
X139988095Y-98533390D01*
X139988095Y-98533390D02*
X139988095Y-98914342D01*
X139988095Y-98914342D02*
X140035714Y-99009580D01*
X140035714Y-99009580D02*
X140083333Y-99057200D01*
X140083333Y-99057200D02*
X140178571Y-99104819D01*
X140178571Y-99104819D02*
X140369047Y-99104819D01*
X140369047Y-99104819D02*
X140464285Y-99057200D01*
X140464285Y-99057200D02*
X140511904Y-99009580D01*
X140511904Y-99009580D02*
X140559523Y-98914342D01*
X140559523Y-98914342D02*
X140559523Y-98676247D01*
X140559523Y-98676247D02*
X140511904Y-98581009D01*
X140511904Y-98581009D02*
X140464285Y-98533390D01*
X140464285Y-98533390D02*
X140369047Y-98485771D01*
X140369047Y-98485771D02*
X140178571Y-98485771D01*
X140178571Y-98485771D02*
X140083333Y-98533390D01*
X140083333Y-98533390D02*
X140035714Y-98581009D01*
X140035714Y-98581009D02*
X139988095Y-98676247D01*
X157029161Y-125175457D02*
X156933923Y-125127838D01*
X156933923Y-125127838D02*
X156838685Y-125032600D01*
X156838685Y-125032600D02*
X156695828Y-124889742D01*
X156695828Y-124889742D02*
X156600590Y-124842123D01*
X156600590Y-124842123D02*
X156505352Y-124842123D01*
X156552971Y-125080219D02*
X156457733Y-125032600D01*
X156457733Y-125032600D02*
X156362495Y-124937361D01*
X156362495Y-124937361D02*
X156314876Y-124746885D01*
X156314876Y-124746885D02*
X156314876Y-124413552D01*
X156314876Y-124413552D02*
X156362495Y-124223076D01*
X156362495Y-124223076D02*
X156457733Y-124127838D01*
X156457733Y-124127838D02*
X156552971Y-124080219D01*
X156552971Y-124080219D02*
X156743447Y-124080219D01*
X156743447Y-124080219D02*
X156838685Y-124127838D01*
X156838685Y-124127838D02*
X156933923Y-124223076D01*
X156933923Y-124223076D02*
X156981542Y-124413552D01*
X156981542Y-124413552D02*
X156981542Y-124746885D01*
X156981542Y-124746885D02*
X156933923Y-124937361D01*
X156933923Y-124937361D02*
X156838685Y-125032600D01*
X156838685Y-125032600D02*
X156743447Y-125080219D01*
X156743447Y-125080219D02*
X156552971Y-125080219D01*
X157838685Y-124413552D02*
X157838685Y-125080219D01*
X157600590Y-124032600D02*
X157362495Y-124746885D01*
X157362495Y-124746885D02*
X157981542Y-124746885D01*
X89348457Y-106572038D02*
X89300838Y-106667276D01*
X89300838Y-106667276D02*
X89205600Y-106762514D01*
X89205600Y-106762514D02*
X89062742Y-106905371D01*
X89062742Y-106905371D02*
X89015123Y-107000609D01*
X89015123Y-107000609D02*
X89015123Y-107095847D01*
X89253219Y-107048228D02*
X89205600Y-107143466D01*
X89205600Y-107143466D02*
X89110361Y-107238704D01*
X89110361Y-107238704D02*
X88919885Y-107286323D01*
X88919885Y-107286323D02*
X88586552Y-107286323D01*
X88586552Y-107286323D02*
X88396076Y-107238704D01*
X88396076Y-107238704D02*
X88300838Y-107143466D01*
X88300838Y-107143466D02*
X88253219Y-107048228D01*
X88253219Y-107048228D02*
X88253219Y-106857752D01*
X88253219Y-106857752D02*
X88300838Y-106762514D01*
X88300838Y-106762514D02*
X88396076Y-106667276D01*
X88396076Y-106667276D02*
X88586552Y-106619657D01*
X88586552Y-106619657D02*
X88919885Y-106619657D01*
X88919885Y-106619657D02*
X89110361Y-106667276D01*
X89110361Y-106667276D02*
X89205600Y-106762514D01*
X89205600Y-106762514D02*
X89253219Y-106857752D01*
X89253219Y-106857752D02*
X89253219Y-107048228D01*
X88253219Y-106286323D02*
X88253219Y-105667276D01*
X88253219Y-105667276D02*
X88634171Y-106000609D01*
X88634171Y-106000609D02*
X88634171Y-105857752D01*
X88634171Y-105857752D02*
X88681790Y-105762514D01*
X88681790Y-105762514D02*
X88729409Y-105714895D01*
X88729409Y-105714895D02*
X88824647Y-105667276D01*
X88824647Y-105667276D02*
X89062742Y-105667276D01*
X89062742Y-105667276D02*
X89157980Y-105714895D01*
X89157980Y-105714895D02*
X89205600Y-105762514D01*
X89205600Y-105762514D02*
X89253219Y-105857752D01*
X89253219Y-105857752D02*
X89253219Y-106143466D01*
X89253219Y-106143466D02*
X89205600Y-106238704D01*
X89205600Y-106238704D02*
X89157980Y-106286323D01*
X98904761Y-88285057D02*
X98809523Y-88237438D01*
X98809523Y-88237438D02*
X98714285Y-88142200D01*
X98714285Y-88142200D02*
X98571428Y-87999342D01*
X98571428Y-87999342D02*
X98476190Y-87951723D01*
X98476190Y-87951723D02*
X98380952Y-87951723D01*
X98428571Y-88189819D02*
X98333333Y-88142200D01*
X98333333Y-88142200D02*
X98238095Y-88046961D01*
X98238095Y-88046961D02*
X98190476Y-87856485D01*
X98190476Y-87856485D02*
X98190476Y-87523152D01*
X98190476Y-87523152D02*
X98238095Y-87332676D01*
X98238095Y-87332676D02*
X98333333Y-87237438D01*
X98333333Y-87237438D02*
X98428571Y-87189819D01*
X98428571Y-87189819D02*
X98619047Y-87189819D01*
X98619047Y-87189819D02*
X98714285Y-87237438D01*
X98714285Y-87237438D02*
X98809523Y-87332676D01*
X98809523Y-87332676D02*
X98857142Y-87523152D01*
X98857142Y-87523152D02*
X98857142Y-87856485D01*
X98857142Y-87856485D02*
X98809523Y-88046961D01*
X98809523Y-88046961D02*
X98714285Y-88142200D01*
X98714285Y-88142200D02*
X98619047Y-88189819D01*
X98619047Y-88189819D02*
X98428571Y-88189819D01*
X99238095Y-87285057D02*
X99285714Y-87237438D01*
X99285714Y-87237438D02*
X99380952Y-87189819D01*
X99380952Y-87189819D02*
X99619047Y-87189819D01*
X99619047Y-87189819D02*
X99714285Y-87237438D01*
X99714285Y-87237438D02*
X99761904Y-87285057D01*
X99761904Y-87285057D02*
X99809523Y-87380295D01*
X99809523Y-87380295D02*
X99809523Y-87475533D01*
X99809523Y-87475533D02*
X99761904Y-87618390D01*
X99761904Y-87618390D02*
X99190476Y-88189819D01*
X99190476Y-88189819D02*
X99809523Y-88189819D01*
X93011905Y-88939819D02*
X93011905Y-87939819D01*
X93011905Y-87939819D02*
X93250000Y-87939819D01*
X93250000Y-87939819D02*
X93392857Y-87987438D01*
X93392857Y-87987438D02*
X93488095Y-88082676D01*
X93488095Y-88082676D02*
X93535714Y-88177914D01*
X93535714Y-88177914D02*
X93583333Y-88368390D01*
X93583333Y-88368390D02*
X93583333Y-88511247D01*
X93583333Y-88511247D02*
X93535714Y-88701723D01*
X93535714Y-88701723D02*
X93488095Y-88796961D01*
X93488095Y-88796961D02*
X93392857Y-88892200D01*
X93392857Y-88892200D02*
X93250000Y-88939819D01*
X93250000Y-88939819D02*
X93011905Y-88939819D01*
X93916667Y-87939819D02*
X94583333Y-87939819D01*
X94583333Y-87939819D02*
X94154762Y-88939819D01*
X138511905Y-79604819D02*
X138511905Y-78604819D01*
X138511905Y-78604819D02*
X138750000Y-78604819D01*
X138750000Y-78604819D02*
X138892857Y-78652438D01*
X138892857Y-78652438D02*
X138988095Y-78747676D01*
X138988095Y-78747676D02*
X139035714Y-78842914D01*
X139035714Y-78842914D02*
X139083333Y-79033390D01*
X139083333Y-79033390D02*
X139083333Y-79176247D01*
X139083333Y-79176247D02*
X139035714Y-79366723D01*
X139035714Y-79366723D02*
X138988095Y-79461961D01*
X138988095Y-79461961D02*
X138892857Y-79557200D01*
X138892857Y-79557200D02*
X138750000Y-79604819D01*
X138750000Y-79604819D02*
X138511905Y-79604819D01*
X139940476Y-78604819D02*
X139750000Y-78604819D01*
X139750000Y-78604819D02*
X139654762Y-78652438D01*
X139654762Y-78652438D02*
X139607143Y-78700057D01*
X139607143Y-78700057D02*
X139511905Y-78842914D01*
X139511905Y-78842914D02*
X139464286Y-79033390D01*
X139464286Y-79033390D02*
X139464286Y-79414342D01*
X139464286Y-79414342D02*
X139511905Y-79509580D01*
X139511905Y-79509580D02*
X139559524Y-79557200D01*
X139559524Y-79557200D02*
X139654762Y-79604819D01*
X139654762Y-79604819D02*
X139845238Y-79604819D01*
X139845238Y-79604819D02*
X139940476Y-79557200D01*
X139940476Y-79557200D02*
X139988095Y-79509580D01*
X139988095Y-79509580D02*
X140035714Y-79414342D01*
X140035714Y-79414342D02*
X140035714Y-79176247D01*
X140035714Y-79176247D02*
X139988095Y-79081009D01*
X139988095Y-79081009D02*
X139940476Y-79033390D01*
X139940476Y-79033390D02*
X139845238Y-78985771D01*
X139845238Y-78985771D02*
X139654762Y-78985771D01*
X139654762Y-78985771D02*
X139559524Y-79033390D01*
X139559524Y-79033390D02*
X139511905Y-79081009D01*
X139511905Y-79081009D02*
X139464286Y-79176247D01*
X138511905Y-82744819D02*
X138511905Y-81744819D01*
X138511905Y-81744819D02*
X138750000Y-81744819D01*
X138750000Y-81744819D02*
X138892857Y-81792438D01*
X138892857Y-81792438D02*
X138988095Y-81887676D01*
X138988095Y-81887676D02*
X139035714Y-81982914D01*
X139035714Y-81982914D02*
X139083333Y-82173390D01*
X139083333Y-82173390D02*
X139083333Y-82316247D01*
X139083333Y-82316247D02*
X139035714Y-82506723D01*
X139035714Y-82506723D02*
X138988095Y-82601961D01*
X138988095Y-82601961D02*
X138892857Y-82697200D01*
X138892857Y-82697200D02*
X138750000Y-82744819D01*
X138750000Y-82744819D02*
X138511905Y-82744819D01*
X139988095Y-81744819D02*
X139511905Y-81744819D01*
X139511905Y-81744819D02*
X139464286Y-82221009D01*
X139464286Y-82221009D02*
X139511905Y-82173390D01*
X139511905Y-82173390D02*
X139607143Y-82125771D01*
X139607143Y-82125771D02*
X139845238Y-82125771D01*
X139845238Y-82125771D02*
X139940476Y-82173390D01*
X139940476Y-82173390D02*
X139988095Y-82221009D01*
X139988095Y-82221009D02*
X140035714Y-82316247D01*
X140035714Y-82316247D02*
X140035714Y-82554342D01*
X140035714Y-82554342D02*
X139988095Y-82649580D01*
X139988095Y-82649580D02*
X139940476Y-82697200D01*
X139940476Y-82697200D02*
X139845238Y-82744819D01*
X139845238Y-82744819D02*
X139607143Y-82744819D01*
X139607143Y-82744819D02*
X139511905Y-82697200D01*
X139511905Y-82697200D02*
X139464286Y-82649580D01*
X138511905Y-85954819D02*
X138511905Y-84954819D01*
X138511905Y-84954819D02*
X138750000Y-84954819D01*
X138750000Y-84954819D02*
X138892857Y-85002438D01*
X138892857Y-85002438D02*
X138988095Y-85097676D01*
X138988095Y-85097676D02*
X139035714Y-85192914D01*
X139035714Y-85192914D02*
X139083333Y-85383390D01*
X139083333Y-85383390D02*
X139083333Y-85526247D01*
X139083333Y-85526247D02*
X139035714Y-85716723D01*
X139035714Y-85716723D02*
X138988095Y-85811961D01*
X138988095Y-85811961D02*
X138892857Y-85907200D01*
X138892857Y-85907200D02*
X138750000Y-85954819D01*
X138750000Y-85954819D02*
X138511905Y-85954819D01*
X139940476Y-85288152D02*
X139940476Y-85954819D01*
X139702381Y-84907200D02*
X139464286Y-85621485D01*
X139464286Y-85621485D02*
X140083333Y-85621485D01*
X135634505Y-113535619D02*
X135634505Y-112535619D01*
X135634505Y-112535619D02*
X135872600Y-112535619D01*
X135872600Y-112535619D02*
X136015457Y-112583238D01*
X136015457Y-112583238D02*
X136110695Y-112678476D01*
X136110695Y-112678476D02*
X136158314Y-112773714D01*
X136158314Y-112773714D02*
X136205933Y-112964190D01*
X136205933Y-112964190D02*
X136205933Y-113107047D01*
X136205933Y-113107047D02*
X136158314Y-113297523D01*
X136158314Y-113297523D02*
X136110695Y-113392761D01*
X136110695Y-113392761D02*
X136015457Y-113488000D01*
X136015457Y-113488000D02*
X135872600Y-113535619D01*
X135872600Y-113535619D02*
X135634505Y-113535619D01*
X136539267Y-112535619D02*
X137158314Y-112535619D01*
X137158314Y-112535619D02*
X136824981Y-112916571D01*
X136824981Y-112916571D02*
X136967838Y-112916571D01*
X136967838Y-112916571D02*
X137063076Y-112964190D01*
X137063076Y-112964190D02*
X137110695Y-113011809D01*
X137110695Y-113011809D02*
X137158314Y-113107047D01*
X137158314Y-113107047D02*
X137158314Y-113345142D01*
X137158314Y-113345142D02*
X137110695Y-113440380D01*
X137110695Y-113440380D02*
X137063076Y-113488000D01*
X137063076Y-113488000D02*
X136967838Y-113535619D01*
X136967838Y-113535619D02*
X136682124Y-113535619D01*
X136682124Y-113535619D02*
X136586886Y-113488000D01*
X136586886Y-113488000D02*
X136539267Y-113440380D01*
X139016905Y-106204819D02*
X139016905Y-105204819D01*
X139016905Y-105204819D02*
X139255000Y-105204819D01*
X139255000Y-105204819D02*
X139397857Y-105252438D01*
X139397857Y-105252438D02*
X139493095Y-105347676D01*
X139493095Y-105347676D02*
X139540714Y-105442914D01*
X139540714Y-105442914D02*
X139588333Y-105633390D01*
X139588333Y-105633390D02*
X139588333Y-105776247D01*
X139588333Y-105776247D02*
X139540714Y-105966723D01*
X139540714Y-105966723D02*
X139493095Y-106061961D01*
X139493095Y-106061961D02*
X139397857Y-106157200D01*
X139397857Y-106157200D02*
X139255000Y-106204819D01*
X139255000Y-106204819D02*
X139016905Y-106204819D01*
X139969286Y-105300057D02*
X140016905Y-105252438D01*
X140016905Y-105252438D02*
X140112143Y-105204819D01*
X140112143Y-105204819D02*
X140350238Y-105204819D01*
X140350238Y-105204819D02*
X140445476Y-105252438D01*
X140445476Y-105252438D02*
X140493095Y-105300057D01*
X140493095Y-105300057D02*
X140540714Y-105395295D01*
X140540714Y-105395295D02*
X140540714Y-105490533D01*
X140540714Y-105490533D02*
X140493095Y-105633390D01*
X140493095Y-105633390D02*
X139921667Y-106204819D01*
X139921667Y-106204819D02*
X140540714Y-106204819D01*
X89959580Y-96916666D02*
X90007200Y-96964285D01*
X90007200Y-96964285D02*
X90054819Y-97107142D01*
X90054819Y-97107142D02*
X90054819Y-97202380D01*
X90054819Y-97202380D02*
X90007200Y-97345237D01*
X90007200Y-97345237D02*
X89911961Y-97440475D01*
X89911961Y-97440475D02*
X89816723Y-97488094D01*
X89816723Y-97488094D02*
X89626247Y-97535713D01*
X89626247Y-97535713D02*
X89483390Y-97535713D01*
X89483390Y-97535713D02*
X89292914Y-97488094D01*
X89292914Y-97488094D02*
X89197676Y-97440475D01*
X89197676Y-97440475D02*
X89102438Y-97345237D01*
X89102438Y-97345237D02*
X89054819Y-97202380D01*
X89054819Y-97202380D02*
X89054819Y-97107142D01*
X89054819Y-97107142D02*
X89102438Y-96964285D01*
X89102438Y-96964285D02*
X89150057Y-96916666D01*
X89483390Y-96345237D02*
X89435771Y-96440475D01*
X89435771Y-96440475D02*
X89388152Y-96488094D01*
X89388152Y-96488094D02*
X89292914Y-96535713D01*
X89292914Y-96535713D02*
X89245295Y-96535713D01*
X89245295Y-96535713D02*
X89150057Y-96488094D01*
X89150057Y-96488094D02*
X89102438Y-96440475D01*
X89102438Y-96440475D02*
X89054819Y-96345237D01*
X89054819Y-96345237D02*
X89054819Y-96154761D01*
X89054819Y-96154761D02*
X89102438Y-96059523D01*
X89102438Y-96059523D02*
X89150057Y-96011904D01*
X89150057Y-96011904D02*
X89245295Y-95964285D01*
X89245295Y-95964285D02*
X89292914Y-95964285D01*
X89292914Y-95964285D02*
X89388152Y-96011904D01*
X89388152Y-96011904D02*
X89435771Y-96059523D01*
X89435771Y-96059523D02*
X89483390Y-96154761D01*
X89483390Y-96154761D02*
X89483390Y-96345237D01*
X89483390Y-96345237D02*
X89531009Y-96440475D01*
X89531009Y-96440475D02*
X89578628Y-96488094D01*
X89578628Y-96488094D02*
X89673866Y-96535713D01*
X89673866Y-96535713D02*
X89864342Y-96535713D01*
X89864342Y-96535713D02*
X89959580Y-96488094D01*
X89959580Y-96488094D02*
X90007200Y-96440475D01*
X90007200Y-96440475D02*
X90054819Y-96345237D01*
X90054819Y-96345237D02*
X90054819Y-96154761D01*
X90054819Y-96154761D02*
X90007200Y-96059523D01*
X90007200Y-96059523D02*
X89959580Y-96011904D01*
X89959580Y-96011904D02*
X89864342Y-95964285D01*
X89864342Y-95964285D02*
X89673866Y-95964285D01*
X89673866Y-95964285D02*
X89578628Y-96011904D01*
X89578628Y-96011904D02*
X89531009Y-96059523D01*
X89531009Y-96059523D02*
X89483390Y-96154761D01*
X111289580Y-108166666D02*
X111337200Y-108214285D01*
X111337200Y-108214285D02*
X111384819Y-108357142D01*
X111384819Y-108357142D02*
X111384819Y-108452380D01*
X111384819Y-108452380D02*
X111337200Y-108595237D01*
X111337200Y-108595237D02*
X111241961Y-108690475D01*
X111241961Y-108690475D02*
X111146723Y-108738094D01*
X111146723Y-108738094D02*
X110956247Y-108785713D01*
X110956247Y-108785713D02*
X110813390Y-108785713D01*
X110813390Y-108785713D02*
X110622914Y-108738094D01*
X110622914Y-108738094D02*
X110527676Y-108690475D01*
X110527676Y-108690475D02*
X110432438Y-108595237D01*
X110432438Y-108595237D02*
X110384819Y-108452380D01*
X110384819Y-108452380D02*
X110384819Y-108357142D01*
X110384819Y-108357142D02*
X110432438Y-108214285D01*
X110432438Y-108214285D02*
X110480057Y-108166666D01*
X110384819Y-107833332D02*
X110384819Y-107166666D01*
X110384819Y-107166666D02*
X111384819Y-107595237D01*
X160588333Y-95389580D02*
X160540714Y-95437200D01*
X160540714Y-95437200D02*
X160397857Y-95484819D01*
X160397857Y-95484819D02*
X160302619Y-95484819D01*
X160302619Y-95484819D02*
X160159762Y-95437200D01*
X160159762Y-95437200D02*
X160064524Y-95341961D01*
X160064524Y-95341961D02*
X160016905Y-95246723D01*
X160016905Y-95246723D02*
X159969286Y-95056247D01*
X159969286Y-95056247D02*
X159969286Y-94913390D01*
X159969286Y-94913390D02*
X160016905Y-94722914D01*
X160016905Y-94722914D02*
X160064524Y-94627676D01*
X160064524Y-94627676D02*
X160159762Y-94532438D01*
X160159762Y-94532438D02*
X160302619Y-94484819D01*
X160302619Y-94484819D02*
X160397857Y-94484819D01*
X160397857Y-94484819D02*
X160540714Y-94532438D01*
X160540714Y-94532438D02*
X160588333Y-94580057D01*
X161445476Y-94484819D02*
X161255000Y-94484819D01*
X161255000Y-94484819D02*
X161159762Y-94532438D01*
X161159762Y-94532438D02*
X161112143Y-94580057D01*
X161112143Y-94580057D02*
X161016905Y-94722914D01*
X161016905Y-94722914D02*
X160969286Y-94913390D01*
X160969286Y-94913390D02*
X160969286Y-95294342D01*
X160969286Y-95294342D02*
X161016905Y-95389580D01*
X161016905Y-95389580D02*
X161064524Y-95437200D01*
X161064524Y-95437200D02*
X161159762Y-95484819D01*
X161159762Y-95484819D02*
X161350238Y-95484819D01*
X161350238Y-95484819D02*
X161445476Y-95437200D01*
X161445476Y-95437200D02*
X161493095Y-95389580D01*
X161493095Y-95389580D02*
X161540714Y-95294342D01*
X161540714Y-95294342D02*
X161540714Y-95056247D01*
X161540714Y-95056247D02*
X161493095Y-94961009D01*
X161493095Y-94961009D02*
X161445476Y-94913390D01*
X161445476Y-94913390D02*
X161350238Y-94865771D01*
X161350238Y-94865771D02*
X161159762Y-94865771D01*
X161159762Y-94865771D02*
X161064524Y-94913390D01*
X161064524Y-94913390D02*
X161016905Y-94961009D01*
X161016905Y-94961009D02*
X160969286Y-95056247D01*
X150688333Y-95504580D02*
X150640714Y-95552200D01*
X150640714Y-95552200D02*
X150497857Y-95599819D01*
X150497857Y-95599819D02*
X150402619Y-95599819D01*
X150402619Y-95599819D02*
X150259762Y-95552200D01*
X150259762Y-95552200D02*
X150164524Y-95456961D01*
X150164524Y-95456961D02*
X150116905Y-95361723D01*
X150116905Y-95361723D02*
X150069286Y-95171247D01*
X150069286Y-95171247D02*
X150069286Y-95028390D01*
X150069286Y-95028390D02*
X150116905Y-94837914D01*
X150116905Y-94837914D02*
X150164524Y-94742676D01*
X150164524Y-94742676D02*
X150259762Y-94647438D01*
X150259762Y-94647438D02*
X150402619Y-94599819D01*
X150402619Y-94599819D02*
X150497857Y-94599819D01*
X150497857Y-94599819D02*
X150640714Y-94647438D01*
X150640714Y-94647438D02*
X150688333Y-94695057D01*
X151593095Y-94599819D02*
X151116905Y-94599819D01*
X151116905Y-94599819D02*
X151069286Y-95076009D01*
X151069286Y-95076009D02*
X151116905Y-95028390D01*
X151116905Y-95028390D02*
X151212143Y-94980771D01*
X151212143Y-94980771D02*
X151450238Y-94980771D01*
X151450238Y-94980771D02*
X151545476Y-95028390D01*
X151545476Y-95028390D02*
X151593095Y-95076009D01*
X151593095Y-95076009D02*
X151640714Y-95171247D01*
X151640714Y-95171247D02*
X151640714Y-95409342D01*
X151640714Y-95409342D02*
X151593095Y-95504580D01*
X151593095Y-95504580D02*
X151545476Y-95552200D01*
X151545476Y-95552200D02*
X151450238Y-95599819D01*
X151450238Y-95599819D02*
X151212143Y-95599819D01*
X151212143Y-95599819D02*
X151116905Y-95552200D01*
X151116905Y-95552200D02*
X151069286Y-95504580D01*
X107929580Y-97666666D02*
X107977200Y-97714285D01*
X107977200Y-97714285D02*
X108024819Y-97857142D01*
X108024819Y-97857142D02*
X108024819Y-97952380D01*
X108024819Y-97952380D02*
X107977200Y-98095237D01*
X107977200Y-98095237D02*
X107881961Y-98190475D01*
X107881961Y-98190475D02*
X107786723Y-98238094D01*
X107786723Y-98238094D02*
X107596247Y-98285713D01*
X107596247Y-98285713D02*
X107453390Y-98285713D01*
X107453390Y-98285713D02*
X107262914Y-98238094D01*
X107262914Y-98238094D02*
X107167676Y-98190475D01*
X107167676Y-98190475D02*
X107072438Y-98095237D01*
X107072438Y-98095237D02*
X107024819Y-97952380D01*
X107024819Y-97952380D02*
X107024819Y-97857142D01*
X107024819Y-97857142D02*
X107072438Y-97714285D01*
X107072438Y-97714285D02*
X107120057Y-97666666D01*
X107358152Y-96809523D02*
X108024819Y-96809523D01*
X106977200Y-97047618D02*
X107691485Y-97285713D01*
X107691485Y-97285713D02*
X107691485Y-96666666D01*
X145261905Y-86954819D02*
X145261905Y-85954819D01*
X145833333Y-86954819D02*
X145404762Y-86383390D01*
X145833333Y-85954819D02*
X145261905Y-86526247D01*
X146785714Y-86954819D02*
X146214286Y-86954819D01*
X146500000Y-86954819D02*
X146500000Y-85954819D01*
X146500000Y-85954819D02*
X146404762Y-86097676D01*
X146404762Y-86097676D02*
X146309524Y-86192914D01*
X146309524Y-86192914D02*
X146214286Y-86240533D01*
X118124819Y-109333333D02*
X118839104Y-109333333D01*
X118839104Y-109333333D02*
X118981961Y-109380952D01*
X118981961Y-109380952D02*
X119077200Y-109476190D01*
X119077200Y-109476190D02*
X119124819Y-109619047D01*
X119124819Y-109619047D02*
X119124819Y-109714285D01*
X118553390Y-108714285D02*
X118505771Y-108809523D01*
X118505771Y-108809523D02*
X118458152Y-108857142D01*
X118458152Y-108857142D02*
X118362914Y-108904761D01*
X118362914Y-108904761D02*
X118315295Y-108904761D01*
X118315295Y-108904761D02*
X118220057Y-108857142D01*
X118220057Y-108857142D02*
X118172438Y-108809523D01*
X118172438Y-108809523D02*
X118124819Y-108714285D01*
X118124819Y-108714285D02*
X118124819Y-108523809D01*
X118124819Y-108523809D02*
X118172438Y-108428571D01*
X118172438Y-108428571D02*
X118220057Y-108380952D01*
X118220057Y-108380952D02*
X118315295Y-108333333D01*
X118315295Y-108333333D02*
X118362914Y-108333333D01*
X118362914Y-108333333D02*
X118458152Y-108380952D01*
X118458152Y-108380952D02*
X118505771Y-108428571D01*
X118505771Y-108428571D02*
X118553390Y-108523809D01*
X118553390Y-108523809D02*
X118553390Y-108714285D01*
X118553390Y-108714285D02*
X118601009Y-108809523D01*
X118601009Y-108809523D02*
X118648628Y-108857142D01*
X118648628Y-108857142D02*
X118743866Y-108904761D01*
X118743866Y-108904761D02*
X118934342Y-108904761D01*
X118934342Y-108904761D02*
X119029580Y-108857142D01*
X119029580Y-108857142D02*
X119077200Y-108809523D01*
X119077200Y-108809523D02*
X119124819Y-108714285D01*
X119124819Y-108714285D02*
X119124819Y-108523809D01*
X119124819Y-108523809D02*
X119077200Y-108428571D01*
X119077200Y-108428571D02*
X119029580Y-108380952D01*
X119029580Y-108380952D02*
X118934342Y-108333333D01*
X118934342Y-108333333D02*
X118743866Y-108333333D01*
X118743866Y-108333333D02*
X118648628Y-108380952D01*
X118648628Y-108380952D02*
X118601009Y-108428571D01*
X118601009Y-108428571D02*
X118553390Y-108523809D01*
X128284819Y-98583333D02*
X128999104Y-98583333D01*
X128999104Y-98583333D02*
X129141961Y-98630952D01*
X129141961Y-98630952D02*
X129237200Y-98726190D01*
X129237200Y-98726190D02*
X129284819Y-98869047D01*
X129284819Y-98869047D02*
X129284819Y-98964285D01*
X128284819Y-98202380D02*
X128284819Y-97535714D01*
X128284819Y-97535714D02*
X129284819Y-97964285D01*
X104166666Y-74869819D02*
X104166666Y-75584104D01*
X104166666Y-75584104D02*
X104119047Y-75726961D01*
X104119047Y-75726961D02*
X104023809Y-75822200D01*
X104023809Y-75822200D02*
X103880952Y-75869819D01*
X103880952Y-75869819D02*
X103785714Y-75869819D01*
X105071428Y-74869819D02*
X104880952Y-74869819D01*
X104880952Y-74869819D02*
X104785714Y-74917438D01*
X104785714Y-74917438D02*
X104738095Y-74965057D01*
X104738095Y-74965057D02*
X104642857Y-75107914D01*
X104642857Y-75107914D02*
X104595238Y-75298390D01*
X104595238Y-75298390D02*
X104595238Y-75679342D01*
X104595238Y-75679342D02*
X104642857Y-75774580D01*
X104642857Y-75774580D02*
X104690476Y-75822200D01*
X104690476Y-75822200D02*
X104785714Y-75869819D01*
X104785714Y-75869819D02*
X104976190Y-75869819D01*
X104976190Y-75869819D02*
X105071428Y-75822200D01*
X105071428Y-75822200D02*
X105119047Y-75774580D01*
X105119047Y-75774580D02*
X105166666Y-75679342D01*
X105166666Y-75679342D02*
X105166666Y-75441247D01*
X105166666Y-75441247D02*
X105119047Y-75346009D01*
X105119047Y-75346009D02*
X105071428Y-75298390D01*
X105071428Y-75298390D02*
X104976190Y-75250771D01*
X104976190Y-75250771D02*
X104785714Y-75250771D01*
X104785714Y-75250771D02*
X104690476Y-75298390D01*
X104690476Y-75298390D02*
X104642857Y-75346009D01*
X104642857Y-75346009D02*
X104595238Y-75441247D01*
X147493095Y-104304819D02*
X147493095Y-105114342D01*
X147493095Y-105114342D02*
X147540714Y-105209580D01*
X147540714Y-105209580D02*
X147588333Y-105257200D01*
X147588333Y-105257200D02*
X147683571Y-105304819D01*
X147683571Y-105304819D02*
X147874047Y-105304819D01*
X147874047Y-105304819D02*
X147969285Y-105257200D01*
X147969285Y-105257200D02*
X148016904Y-105209580D01*
X148016904Y-105209580D02*
X148064523Y-105114342D01*
X148064523Y-105114342D02*
X148064523Y-104304819D01*
X149016904Y-104304819D02*
X148540714Y-104304819D01*
X148540714Y-104304819D02*
X148493095Y-104781009D01*
X148493095Y-104781009D02*
X148540714Y-104733390D01*
X148540714Y-104733390D02*
X148635952Y-104685771D01*
X148635952Y-104685771D02*
X148874047Y-104685771D01*
X148874047Y-104685771D02*
X148969285Y-104733390D01*
X148969285Y-104733390D02*
X149016904Y-104781009D01*
X149016904Y-104781009D02*
X149064523Y-104876247D01*
X149064523Y-104876247D02*
X149064523Y-105114342D01*
X149064523Y-105114342D02*
X149016904Y-105209580D01*
X149016904Y-105209580D02*
X148969285Y-105257200D01*
X148969285Y-105257200D02*
X148874047Y-105304819D01*
X148874047Y-105304819D02*
X148635952Y-105304819D01*
X148635952Y-105304819D02*
X148540714Y-105257200D01*
X148540714Y-105257200D02*
X148493095Y-105209580D01*
X128289819Y-87433333D02*
X129004104Y-87433333D01*
X129004104Y-87433333D02*
X129146961Y-87480952D01*
X129146961Y-87480952D02*
X129242200Y-87576190D01*
X129242200Y-87576190D02*
X129289819Y-87719047D01*
X129289819Y-87719047D02*
X129289819Y-87814285D01*
X128289819Y-87052380D02*
X128289819Y-86433333D01*
X128289819Y-86433333D02*
X128670771Y-86766666D01*
X128670771Y-86766666D02*
X128670771Y-86623809D01*
X128670771Y-86623809D02*
X128718390Y-86528571D01*
X128718390Y-86528571D02*
X128766009Y-86480952D01*
X128766009Y-86480952D02*
X128861247Y-86433333D01*
X128861247Y-86433333D02*
X129099342Y-86433333D01*
X129099342Y-86433333D02*
X129194580Y-86480952D01*
X129194580Y-86480952D02*
X129242200Y-86528571D01*
X129242200Y-86528571D02*
X129289819Y-86623809D01*
X129289819Y-86623809D02*
X129289819Y-86909523D01*
X129289819Y-86909523D02*
X129242200Y-87004761D01*
X129242200Y-87004761D02*
X129194580Y-87052380D01*
X118039819Y-120833333D02*
X118754104Y-120833333D01*
X118754104Y-120833333D02*
X118896961Y-120880952D01*
X118896961Y-120880952D02*
X118992200Y-120976190D01*
X118992200Y-120976190D02*
X119039819Y-121119047D01*
X119039819Y-121119047D02*
X119039819Y-121214285D01*
X119039819Y-120309523D02*
X119039819Y-120119047D01*
X119039819Y-120119047D02*
X118992200Y-120023809D01*
X118992200Y-120023809D02*
X118944580Y-119976190D01*
X118944580Y-119976190D02*
X118801723Y-119880952D01*
X118801723Y-119880952D02*
X118611247Y-119833333D01*
X118611247Y-119833333D02*
X118230295Y-119833333D01*
X118230295Y-119833333D02*
X118135057Y-119880952D01*
X118135057Y-119880952D02*
X118087438Y-119928571D01*
X118087438Y-119928571D02*
X118039819Y-120023809D01*
X118039819Y-120023809D02*
X118039819Y-120214285D01*
X118039819Y-120214285D02*
X118087438Y-120309523D01*
X118087438Y-120309523D02*
X118135057Y-120357142D01*
X118135057Y-120357142D02*
X118230295Y-120404761D01*
X118230295Y-120404761D02*
X118468390Y-120404761D01*
X118468390Y-120404761D02*
X118563628Y-120357142D01*
X118563628Y-120357142D02*
X118611247Y-120309523D01*
X118611247Y-120309523D02*
X118658866Y-120214285D01*
X118658866Y-120214285D02*
X118658866Y-120023809D01*
X118658866Y-120023809D02*
X118611247Y-119928571D01*
X118611247Y-119928571D02*
X118563628Y-119880952D01*
X118563628Y-119880952D02*
X118468390Y-119833333D01*
X176962419Y-119838933D02*
X177676704Y-119838933D01*
X177676704Y-119838933D02*
X177819561Y-119886552D01*
X177819561Y-119886552D02*
X177914800Y-119981790D01*
X177914800Y-119981790D02*
X177962419Y-120124647D01*
X177962419Y-120124647D02*
X177962419Y-120219885D01*
X177295752Y-118934171D02*
X177962419Y-118934171D01*
X176914800Y-119172266D02*
X177629085Y-119410361D01*
X177629085Y-119410361D02*
X177629085Y-118791314D01*
X103011905Y-112204819D02*
X103011905Y-111204819D01*
X103583333Y-112204819D02*
X103154762Y-111633390D01*
X103583333Y-111204819D02*
X103011905Y-111776247D01*
X103964286Y-111300057D02*
X104011905Y-111252438D01*
X104011905Y-111252438D02*
X104107143Y-111204819D01*
X104107143Y-111204819D02*
X104345238Y-111204819D01*
X104345238Y-111204819D02*
X104440476Y-111252438D01*
X104440476Y-111252438D02*
X104488095Y-111300057D01*
X104488095Y-111300057D02*
X104535714Y-111395295D01*
X104535714Y-111395295D02*
X104535714Y-111490533D01*
X104535714Y-111490533D02*
X104488095Y-111633390D01*
X104488095Y-111633390D02*
X103916667Y-112204819D01*
X103916667Y-112204819D02*
X104535714Y-112204819D01*
X128289819Y-109433333D02*
X129004104Y-109433333D01*
X129004104Y-109433333D02*
X129146961Y-109480952D01*
X129146961Y-109480952D02*
X129242200Y-109576190D01*
X129242200Y-109576190D02*
X129289819Y-109719047D01*
X129289819Y-109719047D02*
X129289819Y-109814285D01*
X129289819Y-108433333D02*
X129289819Y-109004761D01*
X129289819Y-108719047D02*
X128289819Y-108719047D01*
X128289819Y-108719047D02*
X128432676Y-108814285D01*
X128432676Y-108814285D02*
X128527914Y-108909523D01*
X128527914Y-108909523D02*
X128575533Y-109004761D01*
X90034819Y-76583333D02*
X90749104Y-76583333D01*
X90749104Y-76583333D02*
X90891961Y-76630952D01*
X90891961Y-76630952D02*
X90987200Y-76726190D01*
X90987200Y-76726190D02*
X91034819Y-76869047D01*
X91034819Y-76869047D02*
X91034819Y-76964285D01*
X90034819Y-75630952D02*
X90034819Y-76107142D01*
X90034819Y-76107142D02*
X90511009Y-76154761D01*
X90511009Y-76154761D02*
X90463390Y-76107142D01*
X90463390Y-76107142D02*
X90415771Y-76011904D01*
X90415771Y-76011904D02*
X90415771Y-75773809D01*
X90415771Y-75773809D02*
X90463390Y-75678571D01*
X90463390Y-75678571D02*
X90511009Y-75630952D01*
X90511009Y-75630952D02*
X90606247Y-75583333D01*
X90606247Y-75583333D02*
X90844342Y-75583333D01*
X90844342Y-75583333D02*
X90939580Y-75630952D01*
X90939580Y-75630952D02*
X90987200Y-75678571D01*
X90987200Y-75678571D02*
X91034819Y-75773809D01*
X91034819Y-75773809D02*
X91034819Y-76011904D01*
X91034819Y-76011904D02*
X90987200Y-76107142D01*
X90987200Y-76107142D02*
X90939580Y-76154761D01*
D12*
X137673900Y-125069500D02*
X137433900Y-124739500D01*
X137913900Y-124739500D01*
X137673900Y-125069500D01*
G36*
X137673900Y-125069500D02*
G01*
X137433900Y-124739500D01*
X137913900Y-124739500D01*
X137673900Y-125069500D01*
G37*
X138836400Y-128139500D02*
X139486400Y-128139500D01*
X138836400Y-128139500D02*
X138186400Y-128139500D01*
X138836400Y-125019500D02*
X139486400Y-125019500D01*
X138836400Y-125019500D02*
X138186400Y-125019500D01*
X134445600Y-115640199D02*
X131370600Y-115640200D01*
X130355599Y-117060200D02*
X129855600Y-117060200D01*
X129855600Y-117060200D02*
X129855600Y-117080200D01*
X129855600Y-124070201D02*
X129855600Y-124090200D01*
X130355600Y-124090200D02*
X130355599Y-117060200D01*
X129855600Y-124090200D02*
X130355600Y-124090200D01*
X134445600Y-125510200D02*
X134445600Y-115640199D01*
X131370600Y-125510200D02*
X134445600Y-125510200D01*
X135329600Y-128862064D02*
X135329600Y-128407936D01*
X133859600Y-128862064D02*
X133859600Y-128407936D01*
X164463400Y-117689136D02*
X164463400Y-118143264D01*
X162993400Y-117689136D02*
X162993400Y-118143264D01*
X147302400Y-128560336D02*
X147302400Y-129014464D01*
X145832400Y-128560336D02*
X145832400Y-129014464D01*
X158521400Y-117429600D02*
X156571400Y-117429600D01*
X158521400Y-117429600D02*
X160471400Y-117429600D01*
X158521400Y-122549600D02*
X156571400Y-122549600D01*
X158521400Y-122549600D02*
X160471400Y-122549600D01*
X155821400Y-117524600D02*
X155581400Y-117194600D01*
X156061400Y-117194600D01*
X155821400Y-117524600D01*
G36*
X155821400Y-117524600D02*
G01*
X155581400Y-117194600D01*
X156061400Y-117194600D01*
X155821400Y-117524600D01*
G37*
X164334648Y-108002400D02*
X164857152Y-108002400D01*
X164334648Y-109472400D02*
X164857152Y-109472400D01*
X164410848Y-120245200D02*
X164933352Y-120245200D01*
X164410848Y-121715200D02*
X164933352Y-121715200D01*
X145251448Y-124715600D02*
X145773952Y-124715600D01*
X145251448Y-126185600D02*
X145773952Y-126185600D01*
X161769248Y-123928200D02*
X162291752Y-123928200D01*
X161769248Y-125398200D02*
X162291752Y-125398200D01*
D13*
X150842099Y-129460200D02*
X150842099Y-130500200D01*
X150842099Y-134320200D02*
X150842099Y-135360200D01*
X150842099Y-135360200D02*
X157717101Y-135360200D01*
X157717101Y-129460200D02*
X150842099Y-129460200D01*
X157717101Y-130500200D02*
X157717101Y-129460200D01*
X157717101Y-135360200D02*
X157717101Y-134320200D01*
D14*
X149179599Y-132410200D02*
G75*
G02*
X148979601Y-132410200I-99999J0D01*
G01*
X148979601Y-132410200D02*
G75*
G02*
X149179599Y-132410200I99999J0D01*
G01*
D12*
X157755000Y-108040000D02*
X155805000Y-108040000D01*
X157755000Y-108040000D02*
X159705000Y-108040000D01*
X157755000Y-113160000D02*
X155805000Y-113160000D01*
X157755000Y-113160000D02*
X159705000Y-113160000D01*
X155055000Y-108135000D02*
X154815000Y-107805000D01*
X155295000Y-107805000D01*
X155055000Y-108135000D01*
G36*
X155055000Y-108135000D02*
G01*
X154815000Y-107805000D01*
X155295000Y-107805000D01*
X155055000Y-108135000D01*
G37*
D13*
X107325000Y-95080000D02*
X107325000Y-97420000D01*
X98675000Y-95080000D02*
X98675000Y-97420000D01*
D14*
X107200000Y-92200000D02*
G75*
G02*
X107000000Y-92200000I-100000J0D01*
G01*
X107000000Y-92200000D02*
G75*
G02*
X107200000Y-92200000I100000J0D01*
G01*
D12*
X107310000Y-106000000D02*
X107310000Y-104050000D01*
X107310000Y-106000000D02*
X107310000Y-107950000D01*
X97190000Y-106000000D02*
X97190000Y-104050000D01*
X97190000Y-106000000D02*
X97190000Y-107950000D01*
X107585000Y-103540000D02*
X107255000Y-103300000D01*
X107585000Y-103060000D01*
X107585000Y-103540000D01*
G36*
X107585000Y-103540000D02*
G01*
X107255000Y-103300000D01*
X107585000Y-103060000D01*
X107585000Y-103540000D01*
G37*
X158855000Y-94905000D02*
X156905000Y-94905000D01*
X158855000Y-94905000D02*
X160805000Y-94905000D01*
X158855000Y-105025000D02*
X156905000Y-105025000D01*
X158855000Y-105025000D02*
X160805000Y-105025000D01*
X156155000Y-94960000D02*
X155915000Y-94630000D01*
X156395000Y-94630000D01*
X156155000Y-94960000D01*
G36*
X156155000Y-94960000D02*
G01*
X155915000Y-94630000D01*
X156395000Y-94630000D01*
X156155000Y-94960000D01*
G37*
D13*
X148055000Y-95140000D02*
X150395000Y-95140000D01*
X148055000Y-103790000D02*
X150395000Y-103790000D01*
D14*
X145275000Y-95365000D02*
G75*
G02*
X145075000Y-95365000I-100000J0D01*
G01*
X145075000Y-95365000D02*
G75*
G02*
X145275000Y-95365000I100000J0D01*
G01*
D12*
X151068264Y-128471600D02*
X150614136Y-128471600D01*
X151068264Y-127001600D02*
X150614136Y-127001600D01*
X151487200Y-118575064D02*
X151487200Y-118120936D01*
X152957200Y-118575064D02*
X152957200Y-118120936D01*
X141657400Y-124620264D02*
X141657400Y-124166136D01*
X143127400Y-124620264D02*
X143127400Y-124166136D01*
X139269736Y-116892400D02*
X139723864Y-116892400D01*
X139269736Y-118362400D02*
X139723864Y-118362400D01*
X93187936Y-109460000D02*
X93642064Y-109460000D01*
X93187936Y-110930000D02*
X93642064Y-110930000D01*
X95432500Y-106370436D02*
X95432500Y-106824564D01*
X93962500Y-106370436D02*
X93962500Y-106824564D01*
X93187936Y-102210000D02*
X93642064Y-102210000D01*
X93187936Y-103680000D02*
X93642064Y-103680000D01*
X140074564Y-99952500D02*
X139620436Y-99952500D01*
X140074564Y-98482500D02*
X139620436Y-98482500D01*
X144515000Y-89477064D02*
X144515000Y-89022936D01*
X145985000Y-89477064D02*
X145985000Y-89022936D01*
X93977064Y-85070000D02*
X93522936Y-85070000D01*
X93977064Y-83600000D02*
X93522936Y-83600000D01*
X104515000Y-86062064D02*
X104515000Y-85607936D01*
X105985000Y-86062064D02*
X105985000Y-85607936D01*
X144227064Y-78236052D02*
X143772936Y-78236052D01*
X144227064Y-76766052D02*
X143772936Y-76766052D01*
X144227064Y-81376052D02*
X143772936Y-81376052D01*
X144227064Y-79906052D02*
X143772936Y-79906052D01*
X144227064Y-84552500D02*
X143772936Y-84552500D01*
X144227064Y-83082500D02*
X143772936Y-83082500D01*
X159732064Y-107335000D02*
X159277936Y-107335000D01*
X159732064Y-105865000D02*
X159277936Y-105865000D01*
X139277936Y-114615000D02*
X139732064Y-114615000D01*
X139277936Y-116085000D02*
X139732064Y-116085000D01*
X139522936Y-100765000D02*
X139977064Y-100765000D01*
X139522936Y-102235000D02*
X139977064Y-102235000D01*
X102015000Y-86062064D02*
X102015000Y-85607936D01*
X103485000Y-86062064D02*
X103485000Y-85607936D01*
X139977064Y-93985000D02*
X139522936Y-93985000D01*
X139977064Y-92515000D02*
X139522936Y-92515000D01*
X154522936Y-106015000D02*
X154977064Y-106015000D01*
X154522936Y-107485000D02*
X154977064Y-107485000D01*
X139750000Y-97810000D02*
X140400000Y-97810000D01*
X139750000Y-97810000D02*
X139100000Y-97810000D01*
X139750000Y-94690000D02*
X140400000Y-94690000D01*
X139750000Y-94690000D02*
X139100000Y-94690000D01*
X141152500Y-98090000D02*
X140672500Y-98090000D01*
X140912500Y-97760000D01*
X141152500Y-98090000D01*
G36*
X141152500Y-98090000D02*
G01*
X140672500Y-98090000D01*
X140912500Y-97760000D01*
X141152500Y-98090000D01*
G37*
X157124400Y-125465400D02*
X156474400Y-125465400D01*
X157124400Y-125465400D02*
X157774400Y-125465400D01*
X157124400Y-128585400D02*
X156474400Y-128585400D01*
X157124400Y-128585400D02*
X157774400Y-128585400D01*
X155961900Y-125515400D02*
X155721900Y-125185400D01*
X156201900Y-125185400D01*
X155961900Y-125515400D01*
G36*
X155961900Y-125515400D02*
G01*
X155721900Y-125185400D01*
X156201900Y-125185400D01*
X155961900Y-125515400D01*
G37*
X93007500Y-106597500D02*
X93007500Y-105947500D01*
X93007500Y-106597500D02*
X93007500Y-107247500D01*
X89887500Y-106597500D02*
X89887500Y-105947500D01*
X89887500Y-106597500D02*
X89887500Y-107247500D01*
X93287500Y-105675000D02*
X92957500Y-105435000D01*
X93287500Y-105195000D01*
X93287500Y-105675000D01*
G36*
X93287500Y-105675000D02*
G01*
X92957500Y-105435000D01*
X93287500Y-105195000D01*
X93287500Y-105675000D01*
G37*
X99000000Y-86895000D02*
X99650000Y-86895000D01*
X99000000Y-86895000D02*
X98350000Y-86895000D01*
X99000000Y-83775000D02*
X99650000Y-83775000D01*
X99000000Y-83775000D02*
X98350000Y-83775000D01*
X100402500Y-87175000D02*
X99922500Y-87175000D01*
X100162500Y-86845000D01*
X100402500Y-87175000D01*
G36*
X100402500Y-87175000D02*
G01*
X99922500Y-87175000D01*
X100162500Y-86845000D01*
X100402500Y-87175000D01*
G37*
X95610000Y-87795000D02*
X95610000Y-85875000D01*
X95610000Y-85875000D02*
X92750000Y-85875000D01*
X92750000Y-87795000D02*
X95610000Y-87795000D01*
X141110000Y-78460000D02*
X141110000Y-76540000D01*
X141110000Y-76540000D02*
X138250000Y-76540000D01*
X138250000Y-78460000D02*
X141110000Y-78460000D01*
X141110000Y-81600000D02*
X141110000Y-79680000D01*
X141110000Y-79680000D02*
X138250000Y-79680000D01*
X138250000Y-81600000D02*
X141110000Y-81600000D01*
X141110000Y-84810000D02*
X141110000Y-82890000D01*
X141110000Y-82890000D02*
X138250000Y-82890000D01*
X138250000Y-84810000D02*
X141110000Y-84810000D01*
X141462500Y-114027500D02*
X141462500Y-112107500D01*
X141462500Y-112107500D02*
X138602500Y-112107500D01*
X138602500Y-114027500D02*
X141462500Y-114027500D01*
X141615000Y-105060000D02*
X141615000Y-103140000D01*
X141615000Y-103140000D02*
X138755000Y-103140000D01*
X138755000Y-105060000D02*
X141615000Y-105060000D01*
X92161000Y-100250241D02*
X92161000Y-99620241D01*
X91846000Y-99935241D02*
X92476000Y-99935241D01*
X90770000Y-96750000D02*
X97230000Y-96750000D01*
X90770000Y-96710000D02*
X97230000Y-96710000D01*
X90771000Y-96670000D02*
X97229000Y-96670000D01*
X90772000Y-96630000D02*
X97228000Y-96630000D01*
X90774000Y-96590000D02*
X97226000Y-96590000D01*
X90776000Y-96550000D02*
X97224000Y-96550000D01*
X90779000Y-96510000D02*
X92960000Y-96510000D01*
X95040000Y-96510000D02*
X97221000Y-96510000D01*
X90782000Y-96470000D02*
X92960000Y-96470000D01*
X95040000Y-96470000D02*
X97218000Y-96470000D01*
X90786000Y-96430000D02*
X92960000Y-96430000D01*
X95040000Y-96430000D02*
X97214000Y-96430000D01*
X90790000Y-96390000D02*
X92960000Y-96390000D01*
X95040000Y-96390000D02*
X97210000Y-96390000D01*
X90795000Y-96350000D02*
X92960000Y-96350000D01*
X95040000Y-96350000D02*
X97205000Y-96350000D01*
X90800000Y-96310000D02*
X92960000Y-96310000D01*
X95040000Y-96310000D02*
X97200000Y-96310000D01*
X90805000Y-96270000D02*
X92960000Y-96270000D01*
X95040000Y-96270000D02*
X97195000Y-96270000D01*
X90812000Y-96230000D02*
X92960000Y-96230000D01*
X95040000Y-96230000D02*
X97188000Y-96230000D01*
X90818000Y-96190000D02*
X92960000Y-96190000D01*
X95040000Y-96190000D02*
X97182000Y-96190000D01*
X90826000Y-96150000D02*
X92960000Y-96150000D01*
X95040000Y-96150000D02*
X97174000Y-96150000D01*
X90833000Y-96110000D02*
X92960000Y-96110000D01*
X95040000Y-96110000D02*
X97167000Y-96110000D01*
X90841000Y-96070000D02*
X92960000Y-96070000D01*
X95040000Y-96070000D02*
X97159000Y-96070000D01*
X90850000Y-96030000D02*
X92960000Y-96030000D01*
X95040000Y-96030000D02*
X97150000Y-96030000D01*
X90860000Y-95990000D02*
X92960000Y-95990000D01*
X95040000Y-95990000D02*
X97140000Y-95990000D01*
X90869000Y-95950000D02*
X92960000Y-95950000D01*
X95040000Y-95950000D02*
X97131000Y-95950000D01*
X90880000Y-95910000D02*
X92960000Y-95910000D01*
X95040000Y-95910000D02*
X97120000Y-95910000D01*
X90891000Y-95870000D02*
X92960000Y-95870000D01*
X95040000Y-95870000D02*
X97109000Y-95870000D01*
X90902000Y-95830000D02*
X92960000Y-95830000D01*
X95040000Y-95830000D02*
X97098000Y-95830000D01*
X90914000Y-95790000D02*
X92960000Y-95790000D01*
X95040000Y-95790000D02*
X97086000Y-95790000D01*
X90927000Y-95750000D02*
X92960000Y-95750000D01*
X95040000Y-95750000D02*
X97073000Y-95750000D01*
X90940000Y-95710000D02*
X92960000Y-95710000D01*
X95040000Y-95710000D02*
X97060000Y-95710000D01*
X90953000Y-95670000D02*
X92960000Y-95670000D01*
X95040000Y-95670000D02*
X97047000Y-95670000D01*
X90968000Y-95630000D02*
X92960000Y-95630000D01*
X95040000Y-95630000D02*
X97032000Y-95630000D01*
X90983000Y-95590000D02*
X92960000Y-95590000D01*
X95040000Y-95590000D02*
X97017000Y-95590000D01*
X90998000Y-95550000D02*
X92960000Y-95550000D01*
X95040000Y-95550000D02*
X97002000Y-95550000D01*
X91014000Y-95510000D02*
X92960000Y-95510000D01*
X95040000Y-95510000D02*
X96986000Y-95510000D01*
X91031000Y-95470000D02*
X92960000Y-95470000D01*
X95040000Y-95470000D02*
X96969000Y-95470000D01*
X91048000Y-95430000D02*
X92960000Y-95430000D01*
X95040000Y-95430000D02*
X96952000Y-95430000D01*
X91066000Y-95390000D02*
X92960000Y-95390000D01*
X95040000Y-95390000D02*
X96934000Y-95390000D01*
X91085000Y-95350000D02*
X92960000Y-95350000D01*
X95040000Y-95350000D02*
X96915000Y-95350000D01*
X91104000Y-95310000D02*
X92960000Y-95310000D01*
X95040000Y-95310000D02*
X96896000Y-95310000D01*
X91124000Y-95270000D02*
X92960000Y-95270000D01*
X95040000Y-95270000D02*
X96876000Y-95270000D01*
X91145000Y-95230000D02*
X92960000Y-95230000D01*
X95040000Y-95230000D02*
X96855000Y-95230000D01*
X91166000Y-95190000D02*
X92960000Y-95190000D01*
X95040000Y-95190000D02*
X96834000Y-95190000D01*
X91188000Y-95150000D02*
X92960000Y-95150000D01*
X95040000Y-95150000D02*
X96812000Y-95150000D01*
X91211000Y-95110000D02*
X92960000Y-95110000D01*
X95040000Y-95110000D02*
X96789000Y-95110000D01*
X91235000Y-95070000D02*
X92960000Y-95070000D01*
X95040000Y-95070000D02*
X96765000Y-95070000D01*
X91259000Y-95030000D02*
X92960000Y-95030000D01*
X95040000Y-95030000D02*
X96741000Y-95030000D01*
X91284000Y-94990000D02*
X92960000Y-94990000D01*
X95040000Y-94990000D02*
X96716000Y-94990000D01*
X91310000Y-94950000D02*
X92960000Y-94950000D01*
X95040000Y-94950000D02*
X96690000Y-94950000D01*
X91337000Y-94910000D02*
X92960000Y-94910000D01*
X95040000Y-94910000D02*
X96663000Y-94910000D01*
X91364000Y-94870000D02*
X92960000Y-94870000D01*
X95040000Y-94870000D02*
X96636000Y-94870000D01*
X91393000Y-94830000D02*
X92960000Y-94830000D01*
X95040000Y-94830000D02*
X96607000Y-94830000D01*
X91423000Y-94790000D02*
X92960000Y-94790000D01*
X95040000Y-94790000D02*
X96577000Y-94790000D01*
X91453000Y-94750000D02*
X92960000Y-94750000D01*
X95040000Y-94750000D02*
X96547000Y-94750000D01*
X91484000Y-94710000D02*
X92960000Y-94710000D01*
X95040000Y-94710000D02*
X96516000Y-94710000D01*
X91517000Y-94670000D02*
X92960000Y-94670000D01*
X95040000Y-94670000D02*
X96483000Y-94670000D01*
X91550000Y-94630000D02*
X92960000Y-94630000D01*
X95040000Y-94630000D02*
X96450000Y-94630000D01*
X91585000Y-94590000D02*
X92960000Y-94590000D01*
X95040000Y-94590000D02*
X96415000Y-94590000D01*
X91621000Y-94550000D02*
X92960000Y-94550000D01*
X95040000Y-94550000D02*
X96379000Y-94550000D01*
X91658000Y-94510000D02*
X92960000Y-94510000D01*
X95040000Y-94510000D02*
X96342000Y-94510000D01*
X91696000Y-94470000D02*
X92960000Y-94470000D01*
X95040000Y-94470000D02*
X96304000Y-94470000D01*
X91736000Y-94430000D02*
X96264000Y-94430000D01*
X91777000Y-94390000D02*
X96223000Y-94390000D01*
X91819000Y-94350000D02*
X96181000Y-94350000D01*
X91863000Y-94310000D02*
X96137000Y-94310000D01*
X91909000Y-94270000D02*
X96091000Y-94270000D01*
X91956000Y-94230000D02*
X96044000Y-94230000D01*
X92005000Y-94190000D02*
X95995000Y-94190000D01*
X92057000Y-94150000D02*
X95943000Y-94150000D01*
X92110000Y-94110000D02*
X95890000Y-94110000D01*
X92166000Y-94070000D02*
X95834000Y-94070000D01*
X92225000Y-94030000D02*
X95775000Y-94030000D01*
X92286000Y-93990000D02*
X95714000Y-93990000D01*
X92351000Y-93950000D02*
X95649000Y-93950000D01*
X92419000Y-93910000D02*
X95581000Y-93910000D01*
X92491000Y-93870000D02*
X95509000Y-93870000D01*
X92568000Y-93830000D02*
X95432000Y-93830000D01*
X92650000Y-93790000D02*
X95350000Y-93790000D01*
X92739000Y-93750000D02*
X95261000Y-93750000D01*
X92835000Y-93710000D02*
X95165000Y-93710000D01*
X92942000Y-93670000D02*
X95058000Y-93670000D01*
X93061000Y-93630000D02*
X94939000Y-93630000D01*
X93199000Y-93590000D02*
X94801000Y-93590000D01*
X93367000Y-93550000D02*
X94633000Y-93550000D01*
X93598000Y-93510000D02*
X94402000Y-93510000D01*
X97270000Y-96750000D02*
G75*
G02*
X90730000Y-96750000I-3270000J0D01*
G01*
X90730000Y-96750000D02*
G75*
G02*
X97270000Y-96750000I3270000J0D01*
G01*
X109985000Y-107738748D02*
X109985000Y-108261252D01*
X108515000Y-107738748D02*
X108515000Y-108261252D01*
X161016252Y-94085000D02*
X160493748Y-94085000D01*
X161016252Y-92615000D02*
X160493748Y-92615000D01*
X151116252Y-94200000D02*
X150593748Y-94200000D01*
X151116252Y-92730000D02*
X150593748Y-92730000D01*
X108515000Y-97761252D02*
X108515000Y-97238748D01*
X109985000Y-97761252D02*
X109985000Y-97238748D01*
X147355000Y-75550000D02*
X147355000Y-82150000D01*
X147355000Y-75550000D02*
X167155000Y-75550000D01*
X147355000Y-84550000D02*
X147355000Y-91150000D01*
X151405000Y-83400000D02*
X150605000Y-83400000D01*
X151405000Y-83400000D02*
X151405000Y-87000000D01*
X152305000Y-89400000D02*
X154805000Y-89400000D01*
X152805000Y-81600000D02*
X156805000Y-81600000D01*
X152805000Y-85200000D02*
X152805000Y-81600000D01*
X154805000Y-77400000D02*
X152305000Y-77400000D01*
X154805000Y-77400000D02*
X154805000Y-81600000D01*
X154805000Y-85200000D02*
X154805000Y-89400000D01*
X156805000Y-81600000D02*
X156805000Y-85200000D01*
X156805000Y-85200000D02*
X152805000Y-81600000D01*
X156805000Y-85200000D02*
X152805000Y-85200000D01*
X158205000Y-83400000D02*
X158205000Y-87000000D01*
X158205000Y-83400000D02*
X159705000Y-83400000D01*
X158205000Y-87000000D02*
X151405000Y-87000000D01*
X159705000Y-83400000D02*
X164305000Y-80900000D01*
X162905000Y-79150000D02*
X162905000Y-81650000D01*
X162905000Y-87550000D02*
X162905000Y-85100000D01*
X167155000Y-75550000D02*
X167155000Y-91150000D01*
X167155000Y-91150000D02*
X147355000Y-91150000D01*
X112990000Y-104065000D02*
X112990000Y-113935000D01*
X112990000Y-113935000D02*
X116065000Y-113935000D01*
X116065000Y-104065000D02*
X112990000Y-104065000D01*
X117080000Y-105485000D02*
X117080000Y-112515000D01*
X117080000Y-112515000D02*
X117580000Y-112515000D01*
X117580000Y-105485000D02*
X117080000Y-105485000D01*
X117580000Y-105505000D02*
X117580000Y-105485000D01*
X117580000Y-112515000D02*
X117580000Y-112495000D01*
X129920000Y-94735000D02*
X129920000Y-94755000D01*
X129920000Y-101745000D02*
X129920000Y-101765000D01*
X129920000Y-101765000D02*
X130420000Y-101765000D01*
X130420000Y-94735000D02*
X129920000Y-94735000D01*
X130420000Y-101765000D02*
X130420000Y-94735000D01*
X131435000Y-103185000D02*
X134510000Y-103185000D01*
X134510000Y-93315000D02*
X131435000Y-93315000D01*
X134510000Y-103185000D02*
X134510000Y-93315000D01*
X99565000Y-78020000D02*
X99565000Y-81095000D01*
X99565000Y-81095000D02*
X109435000Y-81095000D01*
X100985000Y-76505000D02*
X100985000Y-77005000D01*
X100985000Y-77005000D02*
X108015000Y-77005000D01*
X101005000Y-76505000D02*
X100985000Y-76505000D01*
X108015000Y-76505000D02*
X107995000Y-76505000D01*
X108015000Y-77005000D02*
X108015000Y-76505000D01*
X109435000Y-81095000D02*
X109435000Y-78020000D01*
X140270000Y-105750000D02*
X140270000Y-110950000D01*
X140270000Y-110950000D02*
X146740000Y-110950000D01*
X142505000Y-105750000D02*
X140270000Y-105750000D01*
X146740000Y-105750000D02*
X144505000Y-105750000D01*
X146740000Y-110950000D02*
X146740000Y-105750000D01*
X144505000Y-105750000D02*
G75*
G02*
X142505000Y-105750000I-1000000J0D01*
G01*
X129925000Y-83585000D02*
X129925000Y-83605000D01*
X129925000Y-90595000D02*
X129925000Y-90615000D01*
X129925000Y-90615000D02*
X130425000Y-90615000D01*
X130425000Y-83585000D02*
X129925000Y-83585000D01*
X130425000Y-90615000D02*
X130425000Y-83585000D01*
X131440000Y-92035000D02*
X134515000Y-92035000D01*
X134515000Y-82165000D02*
X131440000Y-82165000D01*
X134515000Y-92035000D02*
X134515000Y-82165000D01*
X112905000Y-115565000D02*
X112905000Y-125435000D01*
X112905000Y-125435000D02*
X115980000Y-125435000D01*
X115980000Y-115565000D02*
X112905000Y-115565000D01*
X116995000Y-116985000D02*
X116995000Y-124015000D01*
X116995000Y-124015000D02*
X117495000Y-124015000D01*
X117495000Y-116985000D02*
X116995000Y-116985000D01*
X117495000Y-117005000D02*
X117495000Y-116985000D01*
X117495000Y-124015000D02*
X117495000Y-123995000D01*
X171827600Y-114570600D02*
X171827600Y-124440601D01*
X171827600Y-124440601D02*
X174902600Y-124440600D01*
X174902600Y-114570600D02*
X171827600Y-114570600D01*
X175917600Y-115990600D02*
X175917601Y-123020600D01*
X175917601Y-123020600D02*
X176417600Y-123020600D01*
X176417600Y-115990600D02*
X175917600Y-115990600D01*
X176417600Y-116010599D02*
X176417600Y-115990600D01*
X176417600Y-123020600D02*
X176417600Y-123000600D01*
X92200000Y-132400000D02*
X92200000Y-112600000D01*
X93950000Y-117550000D02*
X93950000Y-120050000D01*
X95800000Y-128150000D02*
X98250000Y-128150000D01*
X96350000Y-123450000D02*
X96350000Y-116650000D01*
X98150000Y-118050000D02*
X101750000Y-118050000D01*
X98150000Y-120050000D02*
X93950000Y-120050000D01*
X98150000Y-122050000D02*
X98150000Y-118050000D01*
X98150000Y-122050000D02*
X101750000Y-118050000D01*
X98800000Y-112600000D02*
X92200000Y-112600000D01*
X99950000Y-116650000D02*
X96350000Y-116650000D01*
X99950000Y-116650000D02*
X99950000Y-115850000D01*
X99950000Y-123450000D02*
X96350000Y-123450000D01*
X99950000Y-123450000D02*
X99950000Y-124950000D01*
X99950000Y-124950000D02*
X102450000Y-129550000D01*
X101750000Y-118050000D02*
X101750000Y-122050000D01*
X101750000Y-122050000D02*
X98150000Y-122050000D01*
X104200000Y-128150000D02*
X101700000Y-128150000D01*
X105950000Y-120050000D02*
X101750000Y-120050000D01*
X105950000Y-120050000D02*
X105950000Y-117550000D01*
X107800000Y-112600000D02*
X101200000Y-112600000D01*
X107800000Y-112600000D02*
X107800000Y-132400000D01*
X107800000Y-132400000D02*
X92200000Y-132400000D01*
X129925000Y-105585000D02*
X129925000Y-105605000D01*
X129925000Y-112595000D02*
X129925000Y-112615000D01*
X129925000Y-112615000D02*
X130425000Y-112615000D01*
X130425000Y-105585000D02*
X129925000Y-105585000D01*
X130425000Y-112615000D02*
X130425000Y-105585000D01*
X131440000Y-114035000D02*
X134515000Y-114035000D01*
X134515000Y-104165000D02*
X131440000Y-104165000D01*
X134515000Y-114035000D02*
X134515000Y-104165000D01*
X91670000Y-72735000D02*
X91670000Y-72755000D01*
X91670000Y-79745000D02*
X91670000Y-79765000D01*
X91670000Y-79765000D02*
X92170000Y-79765000D01*
X92170000Y-72735000D02*
X91670000Y-72735000D01*
X92170000Y-79765000D02*
X92170000Y-72735000D01*
X93185000Y-81185000D02*
X96260000Y-81185000D01*
X96260000Y-71315000D02*
X93185000Y-71315000D01*
X96260000Y-81185000D02*
X96260000Y-71315000D01*
%LPC*%
D15*
X139773900Y-126579500D03*
X137898900Y-127529500D03*
X137898900Y-125629500D03*
D16*
X132435600Y-119075200D03*
D17*
X132435600Y-122075200D03*
D18*
X130475600Y-116075200D03*
X130475600Y-125075200D03*
D19*
X134594600Y-127635000D03*
X134594600Y-129635000D03*
D20*
X163728400Y-116916200D03*
X163728400Y-118916200D03*
X146567400Y-127787400D03*
X146567400Y-129787400D03*
D21*
X156046400Y-118084600D03*
X156046400Y-119354600D03*
X156046400Y-120624600D03*
X156046400Y-121894600D03*
X160996400Y-121894600D03*
X160996400Y-120624600D03*
X160996400Y-119354600D03*
X160996400Y-118084600D03*
D22*
X163558400Y-108737400D03*
X165633400Y-108737400D03*
X163634600Y-120980200D03*
X165709600Y-120980200D03*
X144475200Y-125450600D03*
X146550200Y-125450600D03*
X160993000Y-124663200D03*
X163068000Y-124663200D03*
D23*
X157734600Y-132410200D03*
X150824600Y-132410200D03*
D21*
X155280000Y-108695000D03*
X155280000Y-109965000D03*
X155280000Y-111235000D03*
X155280000Y-112505000D03*
X160230000Y-112505000D03*
X160230000Y-111235000D03*
X160230000Y-109965000D03*
X160230000Y-108695000D03*
D24*
X106810000Y-93630000D03*
X105540000Y-93630000D03*
X104270000Y-93630000D03*
X103000000Y-93630000D03*
X101730000Y-93630000D03*
X100460000Y-93630000D03*
X99190000Y-93630000D03*
X99190000Y-98870000D03*
D25*
X100455000Y-98870000D03*
D24*
X101730000Y-98870000D03*
X103000000Y-98870000D03*
X104270000Y-98870000D03*
X105540000Y-98870000D03*
X106810000Y-98870000D03*
D26*
X106695000Y-103525000D03*
X105425000Y-103525000D03*
X104155000Y-103525000D03*
X102885000Y-103525000D03*
X101615000Y-103525000D03*
X100345000Y-103525000D03*
X99075000Y-103525000D03*
X97805000Y-103525000D03*
X97805000Y-108475000D03*
X99075000Y-108475000D03*
X100345000Y-108475000D03*
X101615000Y-108475000D03*
X102885000Y-108475000D03*
X104155000Y-108475000D03*
X105425000Y-108475000D03*
X106695000Y-108475000D03*
D21*
X156380000Y-95520000D03*
X156380000Y-96790000D03*
X156380000Y-98060000D03*
X156380000Y-99330000D03*
X156380000Y-100600000D03*
X156380000Y-101870000D03*
X156380000Y-103140000D03*
X156380000Y-104410000D03*
X161330000Y-104410000D03*
X161330000Y-103140000D03*
X161330000Y-101870000D03*
X161330000Y-100600000D03*
X161330000Y-99330000D03*
X161330000Y-98060000D03*
X161330000Y-96790000D03*
X161330000Y-95520000D03*
D27*
X146605000Y-95655000D03*
X146605000Y-96925000D03*
X146605000Y-98195000D03*
X146605000Y-99465000D03*
X146605000Y-100735000D03*
X146605000Y-102005000D03*
X146605000Y-103275000D03*
X151845000Y-103275000D03*
D28*
X151845000Y-102010000D03*
D27*
X151845000Y-100735000D03*
X151845000Y-99465000D03*
X151845000Y-98195000D03*
X151845000Y-96925000D03*
X151845000Y-95655000D03*
D29*
X151841200Y-127736600D03*
X149841200Y-127736600D03*
D19*
X152222200Y-119348000D03*
X152222200Y-117348000D03*
X142392400Y-125393200D03*
X142392400Y-123393200D03*
D30*
X138496800Y-117627400D03*
X140496800Y-117627400D03*
X92415000Y-110195000D03*
X94415000Y-110195000D03*
D20*
X94697500Y-105597500D03*
X94697500Y-107597500D03*
D30*
X92415000Y-102945000D03*
X94415000Y-102945000D03*
D29*
X140847500Y-99217500D03*
X138847500Y-99217500D03*
D19*
X145250000Y-90250000D03*
X145250000Y-88250000D03*
D29*
X94750000Y-84335000D03*
X92750000Y-84335000D03*
D19*
X105250000Y-86835000D03*
X105250000Y-84835000D03*
D29*
X145000000Y-77501052D03*
X143000000Y-77501052D03*
X145000000Y-80641052D03*
X143000000Y-80641052D03*
X145000000Y-83817500D03*
X143000000Y-83817500D03*
X160505000Y-106600000D03*
X158505000Y-106600000D03*
D30*
X138505000Y-115350000D03*
X140505000Y-115350000D03*
X138750000Y-101500000D03*
X140750000Y-101500000D03*
D19*
X102750000Y-86835000D03*
X102750000Y-84835000D03*
D29*
X140750000Y-93250000D03*
X138750000Y-93250000D03*
D30*
X153750000Y-106750000D03*
X155750000Y-106750000D03*
D31*
X140687500Y-97200000D03*
X140687500Y-95300000D03*
X138812500Y-96250000D03*
D15*
X156186900Y-126075400D03*
X156186900Y-127975400D03*
X158061900Y-127025400D03*
D32*
X92397500Y-105660000D03*
X90497500Y-105660000D03*
X91447500Y-107535000D03*
D31*
X99937500Y-86285000D03*
X99937500Y-84385000D03*
X98062500Y-85335000D03*
D33*
X94775000Y-86835000D03*
X92725000Y-86835000D03*
X140275000Y-77500000D03*
X138225000Y-77500000D03*
X140275000Y-80640000D03*
X138225000Y-80640000D03*
X140275000Y-83850000D03*
X138225000Y-83850000D03*
X140627500Y-113067500D03*
X138577500Y-113067500D03*
X140780000Y-104100000D03*
X138730000Y-104100000D03*
D34*
X94000000Y-98000000D03*
D35*
X94000000Y-95500000D03*
D36*
X109250000Y-106962500D03*
X109250000Y-109037500D03*
D37*
X161792500Y-93350000D03*
X159717500Y-93350000D03*
X151892500Y-93465000D03*
X149817500Y-93465000D03*
D38*
X109250000Y-98537500D03*
X109250000Y-96462500D03*
D39*
X115000000Y-85000000D03*
D40*
X148755000Y-83350000D03*
D41*
X150705000Y-89400000D03*
D40*
X162905000Y-89400000D03*
X162955000Y-77350000D03*
D41*
X150705000Y-77400000D03*
D39*
X175502500Y-132120000D03*
D18*
X116960000Y-104500000D03*
X116960000Y-113500000D03*
D42*
X115000000Y-107500000D03*
D16*
X115000000Y-110500000D03*
D18*
X130540000Y-102750000D03*
X130540000Y-93750000D03*
D17*
X132500000Y-99750000D03*
D16*
X132500000Y-96750000D03*
D39*
X85000000Y-85000000D03*
D18*
X100000000Y-77125000D03*
X109000000Y-77125000D03*
D43*
X103000000Y-79085000D03*
D44*
X106000000Y-79085000D03*
D45*
X138740000Y-107080000D03*
X138740000Y-109620000D03*
X148270000Y-109620000D03*
X148270000Y-107080000D03*
D39*
X115000000Y-75370000D03*
D18*
X130545000Y-91600000D03*
X130545000Y-82600000D03*
D17*
X132505000Y-88600000D03*
D16*
X132505000Y-85600000D03*
D18*
X116875000Y-116000000D03*
X116875000Y-125000000D03*
D42*
X114915000Y-119000000D03*
D16*
X114915000Y-122000000D03*
D39*
X125502500Y-75370000D03*
X175502500Y-75370000D03*
X85000000Y-132000000D03*
D18*
X175797600Y-115005600D03*
X175797600Y-124005600D03*
D42*
X173837600Y-118005600D03*
D16*
X173837600Y-121005600D03*
D39*
X125502500Y-132120000D03*
D40*
X100000000Y-114000000D03*
D41*
X93950000Y-115950000D03*
D40*
X93950000Y-128150000D03*
X106000000Y-128200000D03*
D41*
X105950000Y-115950000D03*
D39*
X85000000Y-96000000D03*
X115000000Y-132000000D03*
D18*
X130545000Y-113600000D03*
X130545000Y-104600000D03*
D17*
X132505000Y-110600000D03*
D16*
X132505000Y-107600000D03*
D18*
X92290000Y-80750000D03*
X92290000Y-71750000D03*
D17*
X94250000Y-77750000D03*
D16*
X94250000Y-74750000D03*
D39*
X115000000Y-96000000D03*
X85000000Y-75370000D03*
%LPD*%
M02*
