%TF.GenerationSoftware,KiCad,Pcbnew,9.0.2*%
%TF.CreationDate,2025-09-30T17:54:06+08:00*%
%TF.ProjectId,IMD_TSMS_latch_logic,494d445f-5453-44d5-935f-6c617463685f,rev?*%
%TF.SameCoordinates,Original*%
%TF.FileFunction,Copper,L2,Bot*%
%TF.FilePolarity,Positive*%
%FSLAX46Y46*%
G04 Gerber Fmt 4.6, Leading zero omitted, Abs format (unit mm)*
G04 Created by KiCad (PCBNEW 9.0.2) date 2025-09-30 17:54:06*
%MOMM*%
%LPD*%
G01*
G04 APERTURE LIST*
G04 Aperture macros list*
%AMRoundRect*
0 Rectangle with rounded corners*
0 $1 Rounding radius*
0 $2 $3 $4 $5 $6 $7 $8 $9 X,Y pos of 4 corners*
0 Add a 4 corners polygon primitive as box body*
4,1,4,$2,$3,$4,$5,$6,$7,$8,$9,$2,$3,0*
0 Add four circle primitives for the rounded corners*
1,1,$1+$1,$2,$3*
1,1,$1+$1,$4,$5*
1,1,$1+$1,$6,$7*
1,1,$1+$1,$8,$9*
0 Add four rect primitives between the rounded corners*
20,1,$1+$1,$2,$3,$4,$5,0*
20,1,$1+$1,$4,$5,$6,$7,0*
20,1,$1+$1,$6,$7,$8,$9,0*
20,1,$1+$1,$8,$9,$2,$3,0*%
G04 Aperture macros list end*
%TA.AperFunction,ComponentPad*%
%ADD10C,3.000000*%
%TD*%
%TA.AperFunction,ComponentPad*%
%ADD11C,2.500000*%
%TD*%
%TA.AperFunction,ComponentPad*%
%ADD12RoundRect,0.250001X-0.759999X0.499999X-0.759999X-0.499999X0.759999X-0.499999X0.759999X0.499999X0*%
%TD*%
%TA.AperFunction,ComponentPad*%
%ADD13O,2.020000X1.500000*%
%TD*%
%TA.AperFunction,ComponentPad*%
%ADD14RoundRect,0.250001X0.759999X-0.499999X0.759999X0.499999X-0.759999X0.499999X-0.759999X-0.499999X0*%
%TD*%
%TA.AperFunction,ComponentPad*%
%ADD15R,1.600000X2.000000*%
%TD*%
%TA.AperFunction,ComponentPad*%
%ADD16O,1.600000X3.000000*%
%TD*%
%TA.AperFunction,ComponentPad*%
%ADD17RoundRect,0.250001X-0.499999X-0.759999X0.499999X-0.759999X0.499999X0.759999X-0.499999X0.759999X0*%
%TD*%
%TA.AperFunction,ComponentPad*%
%ADD18O,1.500000X2.020000*%
%TD*%
%TA.AperFunction,SMDPad,CuDef*%
%ADD19RoundRect,0.278125X0.389375X-0.474375X0.389375X0.474375X-0.389375X0.474375X-0.389375X-0.474375X0*%
%TD*%
%TA.AperFunction,SMDPad,CuDef*%
%ADD20RoundRect,0.278125X-0.389375X0.474375X-0.389375X-0.474375X0.389375X-0.474375X0.389375X0.474375X0*%
%TD*%
%TA.AperFunction,SMDPad,CuDef*%
%ADD21RoundRect,0.305575X-0.460025X-0.412525X0.460025X-0.412525X0.460025X0.412525X-0.460025X0.412525X0*%
%TD*%
%TA.AperFunction,SMDPad,CuDef*%
%ADD22RoundRect,0.308511X-0.457089X-0.416489X0.457089X-0.416489X0.457089X0.416489X-0.457089X0.416489X0*%
%TD*%
%TA.AperFunction,SMDPad,CuDef*%
%ADD23RoundRect,0.278125X-0.474375X-0.389375X0.474375X-0.389375X0.474375X0.389375X-0.474375X0.389375X0*%
%TD*%
%TA.AperFunction,SMDPad,CuDef*%
%ADD24RoundRect,0.278125X0.474375X0.389375X-0.474375X0.389375X-0.474375X-0.389375X0.474375X-0.389375X0*%
%TD*%
%TA.AperFunction,ViaPad*%
%ADD25C,0.600000*%
%TD*%
%TA.AperFunction,Conductor*%
%ADD26C,1.000000*%
%TD*%
%TA.AperFunction,Conductor*%
%ADD27C,0.500000*%
%TD*%
%TA.AperFunction,Conductor*%
%ADD28C,2.000000*%
%TD*%
%TA.AperFunction,Conductor*%
%ADD29C,0.250000*%
%TD*%
G04 APERTURE END LIST*
D10*
%TO.P,K1,1*%
%TO.N,/SDC_IN*%
X148755000Y-83350000D03*
D11*
%TO.P,K1,2*%
%TO.N,IMD_RELAY*%
X150705000Y-89400000D03*
D10*
%TO.P,K1,3*%
%TO.N,unconnected-(K1-Pad3)*%
X162905000Y-89400000D03*
%TO.P,K1,4*%
%TO.N,/SDC_OUT*%
X162955000Y-77350000D03*
D11*
%TO.P,K1,5*%
%TO.N,GND*%
X150705000Y-77400000D03*
%TD*%
D12*
%TO.P,J8,1,Pin_1*%
%TO.N,+12V*%
X115000000Y-107500000D03*
D13*
%TO.P,J8,2,Pin_2*%
%TO.N,GND*%
X115000000Y-110500000D03*
%TD*%
D14*
%TO.P,J7,1,Pin_1*%
%TO.N,IMD_LED*%
X132500000Y-99750000D03*
D13*
%TO.P,J7,2,Pin_2*%
%TO.N,IMD_RELAY*%
X132500000Y-96750000D03*
%TD*%
D15*
%TO.P,C8,1*%
%TO.N,+12V*%
X94000000Y-98000000D03*
D16*
%TO.P,C8,2*%
%TO.N,/TSMS_reset*%
X94000000Y-95000000D03*
%TD*%
D14*
%TO.P,SW1,1,1*%
%TO.N,GND*%
X132437500Y-122132500D03*
D13*
%TO.P,SW1,2,2*%
%TO.N,Net-(C2-Pad1)*%
X132437500Y-119132500D03*
%TD*%
D17*
%TO.P,J6,1,Pin_1*%
%TO.N,IMD_RELAY*%
X103000000Y-79085000D03*
D18*
%TO.P,J6,2,Pin_2*%
%TO.N,IMD_LED*%
X106000000Y-79085000D03*
%TD*%
D14*
%TO.P,J3,1,Pin_1*%
%TO.N,/SDC_IN*%
X132505000Y-88600000D03*
D13*
%TO.P,J3,2,Pin_2*%
%TO.N,/SDC_OUT*%
X132505000Y-85600000D03*
%TD*%
D12*
%TO.P,J9,1,Pin_1*%
%TO.N,/TSMS_input*%
X114915000Y-119000000D03*
D13*
%TO.P,J9,2,Pin_2*%
%TO.N,/TSMS_output*%
X114915000Y-122000000D03*
%TD*%
D19*
%TO.P,R35,1*%
%TO.N,Net-(R32-Pad1)*%
X97282500Y-95902500D03*
%TO.P,R35,2*%
%TO.N,/TSMS_reset*%
X97282500Y-93597500D03*
%TD*%
D12*
%TO.P,J4,1,Pin_1*%
%TO.N,+12V*%
X172795000Y-118850000D03*
D13*
%TO.P,J4,2,Pin_2*%
%TO.N,GND*%
X172795000Y-121850000D03*
%TD*%
D10*
%TO.P,K2,1*%
%TO.N,/TSMS_input*%
X100000000Y-114000000D03*
D11*
%TO.P,K2,2*%
%TO.N,Net-(Q3-D)*%
X93950000Y-115950000D03*
D10*
%TO.P,K2,3*%
%TO.N,unconnected-(K2-Pad3)*%
X93950000Y-128150000D03*
%TO.P,K2,4*%
%TO.N,/TSMS_output*%
X106000000Y-128200000D03*
D11*
%TO.P,K2,5*%
%TO.N,GND*%
X105950000Y-115950000D03*
%TD*%
D14*
%TO.P,J1,1,Pin_1*%
%TO.N,/IMD_MHs*%
X132505000Y-110600000D03*
D13*
%TO.P,J1,2,Pin_2*%
%TO.N,/IMD_OKHs*%
X132505000Y-107600000D03*
%TD*%
D20*
%TO.P,R32,1*%
%TO.N,Net-(R32-Pad1)*%
X97217500Y-98347500D03*
%TO.P,R32,2*%
%TO.N,+12V*%
X97217500Y-100652500D03*
%TD*%
D14*
%TO.P,J5,1,Pin_1*%
%TO.N,+12V*%
X94250000Y-77750000D03*
D13*
%TO.P,J5,2,Pin_2*%
%TO.N,GND*%
X94250000Y-74750000D03*
%TD*%
D21*
%TO.P,C3,1*%
%TO.N,/TRIG*%
X156539400Y-115356900D03*
D22*
%TO.P,C3,2*%
%TO.N,GND*%
X158970600Y-115350000D03*
%TD*%
D23*
%TO.P,R15,1*%
%TO.N,GND*%
X138700000Y-104100000D03*
%TO.P,R15,2*%
%TO.N,Net-(D2-K)*%
X141005000Y-104100000D03*
%TD*%
%TO.P,R16,1*%
%TO.N,GND*%
X138450000Y-113100000D03*
%TO.P,R16,2*%
%TO.N,Net-(D3-K)*%
X140755000Y-113100000D03*
%TD*%
D24*
%TO.P,R6,1*%
%TO.N,/DISCH*%
X158907500Y-117567500D03*
%TO.P,R6,2*%
%TO.N,/TRIG*%
X156602500Y-117567500D03*
%TD*%
D23*
%TO.P,R13,1*%
%TO.N,Net-(R13-Pad1)*%
X138852500Y-109632500D03*
%TO.P,R13,2*%
%TO.N,GND*%
X141157500Y-109632500D03*
%TD*%
%TO.P,R11,1*%
%TO.N,/IMD_OKHs*%
X138852500Y-107132500D03*
%TO.P,R11,2*%
%TO.N,GND*%
X141157500Y-107132500D03*
%TD*%
D25*
%TO.N,GND*%
X95750000Y-98250000D03*
X95750000Y-96000000D03*
X100100000Y-84385000D03*
X102717500Y-84682500D03*
X92262500Y-110162500D03*
X167220600Y-121850000D03*
X154755000Y-112505000D03*
X140902500Y-101467500D03*
X104000000Y-105250000D03*
X89500000Y-104000000D03*
X109250000Y-96284400D03*
X158800000Y-100000000D03*
X160755000Y-123600000D03*
X99190000Y-93630000D03*
X149755000Y-98850000D03*
X140902500Y-93282500D03*
X105450000Y-96800000D03*
X109250000Y-109215600D03*
X97805000Y-103350000D03*
%TO.N,/TRIG*%
X156602500Y-117567500D03*
%TO.N,+12V*%
X154755000Y-109965000D03*
X109256900Y-106784400D03*
X152185600Y-93356900D03*
X109243100Y-98715600D03*
X145605000Y-117400000D03*
X151000000Y-122000000D03*
X160657500Y-106632500D03*
X161789400Y-114593100D03*
X167157500Y-116882500D03*
X161970600Y-93356900D03*
X142500000Y-95250000D03*
X148270000Y-107080000D03*
%TO.N,/DISCH*%
X158907500Y-117567500D03*
%TO.N,/IMD_reset*%
X143505000Y-103350000D03*
X143505000Y-116100000D03*
%TO.N,Net-(U1-Pad1)*%
X154030000Y-96790000D03*
X149780000Y-96790000D03*
%TO.N,/SDC_IN*%
X138125000Y-80640000D03*
%TO.N,/SDC_OUT*%
X138125000Y-77500000D03*
%TO.N,/IMD_OKHs*%
X138740000Y-107080000D03*
%TO.N,Net-(U3-Pad2)*%
X106750000Y-96250000D03*
X105500000Y-101250000D03*
%TO.N,Net-(R13-Pad1)*%
X138740000Y-109620000D03*
%TO.N,Net-(D2-K)*%
X140880000Y-104100000D03*
%TO.N,Net-(D3-K)*%
X140727500Y-113067500D03*
%TD*%
D26*
%TO.N,+12V*%
X109972500Y-107500000D02*
X115000000Y-107500000D01*
D27*
X93750000Y-98250000D02*
X94000000Y-98000000D01*
X93750000Y-100750000D02*
X93750000Y-98250000D01*
%TO.N,/TSMS_reset*%
X94000000Y-95000000D02*
X93750000Y-95000000D01*
X95402500Y-93597500D02*
X94000000Y-95000000D01*
X97282500Y-93597500D02*
X95402500Y-93597500D01*
%TO.N,+12V*%
X93847500Y-100652500D02*
X93750000Y-100750000D01*
X97217500Y-100652500D02*
X93847500Y-100652500D01*
X93750000Y-105250000D02*
X93750000Y-100750000D01*
%TO.N,Net-(R32-Pad1)*%
X97282500Y-95902500D02*
X97282500Y-98282500D01*
X97282500Y-98282500D02*
X97217500Y-98347500D01*
D26*
%TO.N,+12V*%
X109972500Y-107500000D02*
X109256900Y-106784400D01*
D28*
%TO.N,/TSMS_output*%
X106000000Y-123500000D02*
X106000000Y-128200000D01*
X107500000Y-122000000D02*
X106000000Y-123500000D01*
X114915000Y-122000000D02*
X107500000Y-122000000D01*
%TO.N,/TSMS_input*%
X101500000Y-119000000D02*
X114915000Y-119000000D01*
X100000000Y-117500000D02*
X101500000Y-119000000D01*
X100000000Y-114000000D02*
X100000000Y-117500000D01*
D27*
%TO.N,/TRIG*%
X156539400Y-115356900D02*
X156539400Y-117504400D01*
X156539400Y-117504400D02*
X156602500Y-117567500D01*
%TO.N,+12V*%
X167157500Y-115252500D02*
X167157500Y-116882500D01*
X145605000Y-117400000D02*
X145605000Y-108000000D01*
X109256900Y-98729400D02*
X109243100Y-98715600D01*
X109256900Y-106784400D02*
X95284400Y-106784400D01*
X148270000Y-107080000D02*
X149985000Y-107080000D01*
X152185600Y-93356900D02*
X161970600Y-93356900D01*
X161970600Y-100384400D02*
X161970600Y-93356900D01*
X145605000Y-108000000D02*
X146525000Y-107080000D01*
X160657500Y-101697500D02*
X161970600Y-100384400D01*
X160657500Y-106632500D02*
X160657500Y-101697500D01*
X149985000Y-107080000D02*
X152870000Y-109965000D01*
X142500000Y-95250000D02*
X144393100Y-93356900D01*
X109256900Y-106784400D02*
X109256900Y-98729400D01*
X161000000Y-122000000D02*
X161789400Y-121210600D01*
X146525000Y-107080000D02*
X148270000Y-107080000D01*
X161789400Y-114593100D02*
X166498100Y-114593100D01*
X167755000Y-118850000D02*
X167157500Y-118252500D01*
X151000000Y-122000000D02*
X161000000Y-122000000D01*
X160657500Y-109447500D02*
X160657500Y-106632500D01*
X154755000Y-109965000D02*
X160140000Y-109965000D01*
X151000000Y-122000000D02*
X146250000Y-122000000D01*
X152870000Y-109965000D02*
X154755000Y-109965000D01*
X145605000Y-121355000D02*
X145605000Y-117400000D01*
X160140000Y-109965000D02*
X160657500Y-109447500D01*
X161789400Y-121210600D02*
X161789400Y-114593100D01*
X172795000Y-118850000D02*
X167755000Y-118850000D01*
X95284400Y-106784400D02*
X93750000Y-105250000D01*
X144393100Y-93356900D02*
X152185600Y-93356900D01*
X146250000Y-122000000D02*
X145605000Y-121355000D01*
X167157500Y-118252500D02*
X167157500Y-116882500D01*
X166498100Y-114593100D02*
X167157500Y-115252500D01*
%TO.N,/IMD_reset*%
X143505000Y-116100000D02*
X143505000Y-103350000D01*
%TO.N,Net-(U1-Pad1)*%
X149780000Y-96790000D02*
X154030000Y-96790000D01*
D28*
%TO.N,/SDC_IN*%
X137400000Y-83350000D02*
X138000000Y-83350000D01*
X135750000Y-85000000D02*
X137400000Y-83350000D01*
X135750000Y-87750000D02*
X135750000Y-85000000D01*
D27*
X138000000Y-83350000D02*
X138125000Y-83225000D01*
D28*
X132505000Y-88600000D02*
X134900000Y-88600000D01*
X138000000Y-83350000D02*
X148755000Y-83350000D01*
X134900000Y-88600000D02*
X135750000Y-87750000D01*
D27*
X138125000Y-83225000D02*
X138125000Y-80640000D01*
D28*
%TO.N,/SDC_OUT*%
X132505000Y-75495000D02*
X134000000Y-74000000D01*
D27*
X138125000Y-74125000D02*
X138125000Y-77500000D01*
D28*
X159605000Y-74000000D02*
X162955000Y-77350000D01*
X138000000Y-74000000D02*
X159605000Y-74000000D01*
D27*
X138000000Y-74000000D02*
X138125000Y-74125000D01*
D28*
X132505000Y-85600000D02*
X132505000Y-75495000D01*
X134000000Y-74000000D02*
X138000000Y-74000000D01*
D27*
%TO.N,IMD_RELAY*%
X137500000Y-96750000D02*
X132500000Y-96750000D01*
X150705000Y-89400000D02*
X139350000Y-89400000D01*
X138500000Y-90250000D02*
X138500000Y-95750000D01*
X139350000Y-89400000D02*
X138500000Y-90250000D01*
X138500000Y-95750000D02*
X137500000Y-96750000D01*
D29*
%TO.N,/IMD_OKHs*%
X138792500Y-107132500D02*
X138740000Y-107080000D01*
X138852500Y-107132500D02*
X138792500Y-107132500D01*
D27*
%TO.N,Net-(U3-Pad2)*%
X106750000Y-100000000D02*
X105500000Y-101250000D01*
X106750000Y-96250000D02*
X106750000Y-100000000D01*
D29*
%TO.N,Net-(R13-Pad1)*%
X138752500Y-109632500D02*
X138740000Y-109620000D01*
X138852500Y-109632500D02*
X138752500Y-109632500D01*
%TO.N,Net-(D2-K)*%
X141005000Y-104100000D02*
X140880000Y-104100000D01*
%TO.N,Net-(D3-K)*%
X140755000Y-113100000D02*
X140755000Y-113095000D01*
X140755000Y-113095000D02*
X140727500Y-113067500D01*
%TD*%
%TA.AperFunction,Conductor*%
%TO.N,GND*%
G36*
X96145559Y-94367685D02*
G01*
X96183514Y-94406028D01*
X96280519Y-94560412D01*
X96382426Y-94662319D01*
X96415911Y-94723642D01*
X96410927Y-94793334D01*
X96382426Y-94837681D01*
X96280519Y-94939587D01*
X96187168Y-95088156D01*
X96187167Y-95088158D01*
X96129217Y-95253771D01*
X96129216Y-95253776D01*
X96114500Y-95384389D01*
X96114500Y-96420610D01*
X96129216Y-96551223D01*
X96129217Y-96551228D01*
X96129217Y-96551230D01*
X96129218Y-96551232D01*
X96131065Y-96556510D01*
X96187167Y-96716841D01*
X96187168Y-96716843D01*
X96187169Y-96716845D01*
X96280519Y-96865412D01*
X96404588Y-96989481D01*
X96420666Y-96999583D01*
X96466958Y-97051915D01*
X96477609Y-97120968D01*
X96449236Y-97184817D01*
X96420670Y-97209571D01*
X96339589Y-97260517D01*
X96215519Y-97384587D01*
X96122168Y-97533156D01*
X96122167Y-97533158D01*
X96064217Y-97698771D01*
X96064216Y-97698776D01*
X96049500Y-97829389D01*
X96049500Y-98865610D01*
X96064216Y-98996223D01*
X96064217Y-98996228D01*
X96064217Y-98996230D01*
X96064218Y-98996232D01*
X96082285Y-99047864D01*
X96122167Y-99161841D01*
X96122168Y-99161843D01*
X96215519Y-99310412D01*
X96317426Y-99412319D01*
X96350911Y-99473642D01*
X96345927Y-99543334D01*
X96317426Y-99587681D01*
X96215519Y-99689587D01*
X96118514Y-99843972D01*
X96066180Y-99890263D01*
X96013520Y-99902000D01*
X94624500Y-99902000D01*
X94615814Y-99899449D01*
X94606853Y-99900738D01*
X94582812Y-99889759D01*
X94557461Y-99882315D01*
X94551533Y-99875474D01*
X94543297Y-99871713D01*
X94529007Y-99849478D01*
X94511706Y-99829511D01*
X94509418Y-99818996D01*
X94505523Y-99812935D01*
X94500500Y-99778000D01*
X94500500Y-99624499D01*
X94520185Y-99557460D01*
X94572989Y-99511705D01*
X94624500Y-99500499D01*
X94847871Y-99500499D01*
X94847872Y-99500499D01*
X94907483Y-99494091D01*
X95042331Y-99443796D01*
X95157546Y-99357546D01*
X95243796Y-99242331D01*
X95294091Y-99107483D01*
X95300500Y-99047873D01*
X95300499Y-96952128D01*
X95294091Y-96892517D01*
X95285262Y-96868846D01*
X95243797Y-96757671D01*
X95243793Y-96757664D01*
X95157547Y-96642455D01*
X95103337Y-96601873D01*
X95061467Y-96545939D01*
X95056483Y-96476247D01*
X95077330Y-96429723D01*
X95112287Y-96381610D01*
X95205220Y-96199219D01*
X95268477Y-96004534D01*
X95300500Y-95802352D01*
X95300500Y-94812229D01*
X95320185Y-94745190D01*
X95336819Y-94724548D01*
X95677048Y-94384319D01*
X95738371Y-94350834D01*
X95764729Y-94348000D01*
X96078520Y-94348000D01*
X96145559Y-94367685D01*
G37*
%TD.AperFunction*%
%TA.AperFunction,Conductor*%
G36*
X119493441Y-70640185D02*
G01*
X119539196Y-70692989D01*
X119549140Y-70762147D01*
X119536335Y-70799140D01*
X119536720Y-70799300D01*
X119534044Y-70805759D01*
X119533787Y-70806504D01*
X119533608Y-70806812D01*
X119499500Y-70934108D01*
X119499500Y-79815891D01*
X119533608Y-79943187D01*
X119565137Y-79997795D01*
X119599500Y-80057314D01*
X119599502Y-80057316D01*
X119692687Y-80150501D01*
X119694158Y-80151630D01*
X119695083Y-80152897D01*
X119698433Y-80156247D01*
X119697910Y-80156769D01*
X119735356Y-80208060D01*
X119739506Y-80277807D01*
X119705289Y-80338725D01*
X119694158Y-80348370D01*
X119692687Y-80349498D01*
X119599502Y-80442683D01*
X119599500Y-80442686D01*
X119533608Y-80556812D01*
X119499500Y-80684108D01*
X119499500Y-89137097D01*
X119479815Y-89204136D01*
X119427011Y-89249891D01*
X119357853Y-89259835D01*
X119343410Y-89256873D01*
X119327713Y-89252667D01*
X119315892Y-89249500D01*
X99315892Y-89249500D01*
X99184108Y-89249500D01*
X99056812Y-89283608D01*
X98942686Y-89349500D01*
X98942683Y-89349502D01*
X98849502Y-89442683D01*
X98849500Y-89442686D01*
X98783608Y-89556812D01*
X98783473Y-89557316D01*
X98749500Y-89684108D01*
X98749500Y-90315892D01*
X98761117Y-90359248D01*
X98783608Y-90443187D01*
X98816121Y-90499500D01*
X98849500Y-90557314D01*
X98942686Y-90650500D01*
X99056814Y-90716392D01*
X99184108Y-90750500D01*
X99184110Y-90750500D01*
X119315890Y-90750500D01*
X119315892Y-90750500D01*
X119359251Y-90738882D01*
X119429097Y-90740543D01*
X119486961Y-90779705D01*
X119514466Y-90843933D01*
X119511118Y-90890749D01*
X119499500Y-90934108D01*
X119499500Y-113065891D01*
X119533608Y-113193187D01*
X119561622Y-113241708D01*
X119599500Y-113307314D01*
X119692686Y-113400500D01*
X119806814Y-113466392D01*
X119934108Y-113500500D01*
X119934110Y-113500500D01*
X120716290Y-113500500D01*
X120716292Y-113500500D01*
X120843586Y-113466392D01*
X120957714Y-113400500D01*
X121050900Y-113307314D01*
X121116792Y-113193186D01*
X121150900Y-113065892D01*
X121150900Y-112666919D01*
X137197500Y-112666919D01*
X137197500Y-112850000D01*
X138200000Y-112850000D01*
X138200000Y-111932500D01*
X138700000Y-111932500D01*
X138700000Y-114267500D01*
X138968080Y-114267500D01*
X138968080Y-114267499D01*
X139098617Y-114252792D01*
X139264131Y-114194876D01*
X139264134Y-114194874D01*
X139412592Y-114101591D01*
X139412598Y-114101586D01*
X139514465Y-113999720D01*
X139575788Y-113966235D01*
X139645480Y-113971219D01*
X139689827Y-113999720D01*
X139792088Y-114101981D01*
X139940655Y-114195331D01*
X140106268Y-114253282D01*
X140106274Y-114253282D01*
X140106276Y-114253283D01*
X140147841Y-114257966D01*
X140236890Y-114267999D01*
X140236893Y-114268000D01*
X140236896Y-114268000D01*
X141273107Y-114268000D01*
X141273108Y-114267999D01*
X141403732Y-114253282D01*
X141569345Y-114195331D01*
X141717912Y-114101981D01*
X141841981Y-113977912D01*
X141935331Y-113829345D01*
X141993282Y-113663732D01*
X142008000Y-113533104D01*
X142008000Y-112666896D01*
X141993282Y-112536268D01*
X141935331Y-112370655D01*
X141841981Y-112222088D01*
X141717912Y-112098019D01*
X141569345Y-112004669D01*
X141569344Y-112004668D01*
X141569343Y-112004668D01*
X141569341Y-112004667D01*
X141469919Y-111969878D01*
X141403732Y-111946718D01*
X141403730Y-111946717D01*
X141403728Y-111946717D01*
X141403723Y-111946716D01*
X141273110Y-111932000D01*
X141273104Y-111932000D01*
X140236896Y-111932000D01*
X140236889Y-111932000D01*
X140106276Y-111946716D01*
X140106271Y-111946717D01*
X139940658Y-112004667D01*
X139940656Y-112004668D01*
X139792087Y-112098019D01*
X139689827Y-112200280D01*
X139628504Y-112233765D01*
X139558812Y-112228781D01*
X139514465Y-112200280D01*
X139412598Y-112098413D01*
X139412592Y-112098408D01*
X139264134Y-112005125D01*
X139264131Y-112005123D01*
X139098617Y-111947207D01*
X138968080Y-111932500D01*
X138700000Y-111932500D01*
X138200000Y-111932500D01*
X137931920Y-111932500D01*
X137801382Y-111947207D01*
X137635868Y-112005123D01*
X137635865Y-112005125D01*
X137487407Y-112098408D01*
X137487401Y-112098413D01*
X137363413Y-112222401D01*
X137363408Y-112222407D01*
X137270125Y-112370865D01*
X137270123Y-112370868D01*
X137212207Y-112536382D01*
X137197500Y-112666919D01*
X121150900Y-112666919D01*
X121150900Y-110049984D01*
X130994500Y-110049984D01*
X130994500Y-111150015D01*
X131005000Y-111252795D01*
X131005001Y-111252796D01*
X131060186Y-111419335D01*
X131060187Y-111419337D01*
X131152286Y-111568651D01*
X131152289Y-111568655D01*
X131276344Y-111692710D01*
X131276348Y-111692713D01*
X131425662Y-111784812D01*
X131425664Y-111784813D01*
X131425666Y-111784814D01*
X131592203Y-111839999D01*
X131694992Y-111850500D01*
X131694997Y-111850500D01*
X133315003Y-111850500D01*
X133315008Y-111850500D01*
X133417797Y-111839999D01*
X133584334Y-111784814D01*
X133733655Y-111692711D01*
X133857711Y-111568655D01*
X133949814Y-111419334D01*
X134004999Y-111252797D01*
X134015500Y-111150008D01*
X134015500Y-110049992D01*
X134004999Y-109947203D01*
X133949814Y-109780666D01*
X133902838Y-109704507D01*
X133857713Y-109631348D01*
X133857710Y-109631344D01*
X133733655Y-109507289D01*
X133733651Y-109507286D01*
X133584337Y-109415187D01*
X133584335Y-109415186D01*
X133485694Y-109382500D01*
X133417797Y-109360001D01*
X133417795Y-109360000D01*
X133315015Y-109349500D01*
X133315008Y-109349500D01*
X131694992Y-109349500D01*
X131694984Y-109349500D01*
X131592204Y-109360000D01*
X131592203Y-109360001D01*
X131425664Y-109415186D01*
X131425662Y-109415187D01*
X131276348Y-109507286D01*
X131276344Y-109507289D01*
X131152289Y-109631344D01*
X131152286Y-109631348D01*
X131060187Y-109780662D01*
X131060186Y-109780664D01*
X131005001Y-109947203D01*
X131005000Y-109947204D01*
X130994500Y-110049984D01*
X121150900Y-110049984D01*
X121150900Y-107501577D01*
X130994500Y-107501577D01*
X130994500Y-107698422D01*
X131025290Y-107892826D01*
X131086117Y-108080029D01*
X131161195Y-108227377D01*
X131175476Y-108255405D01*
X131291172Y-108414646D01*
X131430354Y-108553828D01*
X131589595Y-108669524D01*
X131619600Y-108684812D01*
X131764970Y-108758882D01*
X131764972Y-108758882D01*
X131764975Y-108758884D01*
X131865317Y-108791487D01*
X131952173Y-108819709D01*
X132146578Y-108850500D01*
X132146583Y-108850500D01*
X132863422Y-108850500D01*
X133057826Y-108819709D01*
X133245025Y-108758884D01*
X133420405Y-108669524D01*
X133579646Y-108553828D01*
X133718828Y-108414646D01*
X133834524Y-108255405D01*
X133923884Y-108080025D01*
X133984709Y-107892826D01*
X133989616Y-107861843D01*
X134015500Y-107698422D01*
X134015500Y-107501577D01*
X133984709Y-107307173D01*
X133923882Y-107119970D01*
X133837276Y-106949997D01*
X133834524Y-106944595D01*
X133718828Y-106785354D01*
X133632863Y-106699389D01*
X137599500Y-106699389D01*
X137599500Y-107565610D01*
X137614216Y-107696223D01*
X137614217Y-107696228D01*
X137614217Y-107696230D01*
X137614218Y-107696232D01*
X137637378Y-107762419D01*
X137672167Y-107861841D01*
X137672168Y-107861843D01*
X137672169Y-107861845D01*
X137765519Y-108010412D01*
X137889588Y-108134481D01*
X138038155Y-108227831D01*
X138145688Y-108265458D01*
X138202463Y-108306180D01*
X138228210Y-108371133D01*
X138214754Y-108439694D01*
X138166367Y-108490097D01*
X138145690Y-108499540D01*
X138104597Y-108513919D01*
X138038156Y-108537168D01*
X137889587Y-108630519D01*
X137765519Y-108754587D01*
X137672168Y-108903156D01*
X137672167Y-108903158D01*
X137614217Y-109068771D01*
X137614216Y-109068776D01*
X137599500Y-109199389D01*
X137599500Y-110065610D01*
X137614216Y-110196223D01*
X137614217Y-110196228D01*
X137672167Y-110361841D01*
X137672168Y-110361843D01*
X137672169Y-110361845D01*
X137765519Y-110510412D01*
X137889588Y-110634481D01*
X138038155Y-110727831D01*
X138203768Y-110785782D01*
X138203774Y-110785782D01*
X138203776Y-110785783D01*
X138245341Y-110790466D01*
X138334390Y-110800499D01*
X138334393Y-110800500D01*
X138334396Y-110800500D01*
X139370607Y-110800500D01*
X139370608Y-110800499D01*
X139501232Y-110785782D01*
X139666845Y-110727831D01*
X139815412Y-110634481D01*
X139917673Y-110532220D01*
X139978996Y-110498735D01*
X140048688Y-110503719D01*
X140093035Y-110532220D01*
X140194901Y-110634086D01*
X140194907Y-110634091D01*
X140343365Y-110727374D01*
X140343368Y-110727376D01*
X140508882Y-110785292D01*
X140639419Y-110799999D01*
X140639420Y-110800000D01*
X140907500Y-110800000D01*
X141407500Y-110800000D01*
X141675580Y-110800000D01*
X141675580Y-110799999D01*
X141806117Y-110785292D01*
X141971631Y-110727376D01*
X141971634Y-110727374D01*
X142120092Y-110634091D01*
X142120098Y-110634086D01*
X142244086Y-110510098D01*
X142244091Y-110510092D01*
X142337374Y-110361634D01*
X142337376Y-110361631D01*
X142395292Y-110196117D01*
X142409999Y-110065580D01*
X142410000Y-110065580D01*
X142410000Y-109882500D01*
X141407500Y-109882500D01*
X141407500Y-110800000D01*
X140907500Y-110800000D01*
X140907500Y-108460692D01*
X140879196Y-108408858D01*
X140884180Y-108339166D01*
X140906583Y-108304307D01*
X141407500Y-108304307D01*
X141435804Y-108356142D01*
X141430820Y-108425834D01*
X141407500Y-108462119D01*
X141407500Y-109382500D01*
X142410000Y-109382500D01*
X142410000Y-109199420D01*
X142409999Y-109199419D01*
X142395292Y-109068882D01*
X142337376Y-108903368D01*
X142337374Y-108903365D01*
X142244091Y-108754907D01*
X142244086Y-108754901D01*
X142120098Y-108630913D01*
X142120092Y-108630908D01*
X141971634Y-108537625D01*
X141971628Y-108537622D01*
X141862800Y-108499542D01*
X141806023Y-108458820D01*
X141780276Y-108393867D01*
X141793732Y-108325306D01*
X141842119Y-108274903D01*
X141862800Y-108265458D01*
X141971628Y-108227377D01*
X141971634Y-108227374D01*
X142120092Y-108134091D01*
X142120098Y-108134086D01*
X142244086Y-108010098D01*
X142244091Y-108010092D01*
X142337374Y-107861634D01*
X142337376Y-107861631D01*
X142395292Y-107696117D01*
X142409999Y-107565580D01*
X142410000Y-107565580D01*
X142410000Y-107382500D01*
X141407500Y-107382500D01*
X141407500Y-108304307D01*
X140906583Y-108304307D01*
X140907500Y-108302880D01*
X140907500Y-106882500D01*
X141407500Y-106882500D01*
X142410000Y-106882500D01*
X142410000Y-106699420D01*
X142409999Y-106699419D01*
X142395292Y-106568882D01*
X142337376Y-106403368D01*
X142337374Y-106403365D01*
X142244091Y-106254907D01*
X142244086Y-106254901D01*
X142120098Y-106130913D01*
X142120092Y-106130908D01*
X141971634Y-106037625D01*
X141971631Y-106037623D01*
X141806117Y-105979707D01*
X141675580Y-105965000D01*
X141407500Y-105965000D01*
X141407500Y-106882500D01*
X140907500Y-106882500D01*
X140907500Y-105965000D01*
X140639420Y-105965000D01*
X140508882Y-105979707D01*
X140343368Y-106037623D01*
X140343365Y-106037625D01*
X140194907Y-106130908D01*
X140194901Y-106130913D01*
X140093035Y-106232780D01*
X140031712Y-106266265D01*
X139962020Y-106261281D01*
X139917673Y-106232780D01*
X139815412Y-106130519D01*
X139716896Y-106068618D01*
X139666845Y-106037169D01*
X139666844Y-106037168D01*
X139666843Y-106037168D01*
X139666841Y-106037167D01*
X139553710Y-105997581D01*
X139501232Y-105979218D01*
X139501230Y-105979217D01*
X139501228Y-105979217D01*
X139501223Y-105979216D01*
X139370610Y-105964500D01*
X139370604Y-105964500D01*
X138334396Y-105964500D01*
X138334389Y-105964500D01*
X138203776Y-105979216D01*
X138203771Y-105979217D01*
X138038158Y-106037167D01*
X138038156Y-106037168D01*
X137889587Y-106130519D01*
X137765519Y-106254587D01*
X137672168Y-106403156D01*
X137672167Y-106403158D01*
X137614217Y-106568771D01*
X137614216Y-106568776D01*
X137599500Y-106699389D01*
X133632863Y-106699389D01*
X133579646Y-106646172D01*
X133420405Y-106530476D01*
X133359611Y-106499500D01*
X133245029Y-106441117D01*
X133057826Y-106380290D01*
X132863422Y-106349500D01*
X132863417Y-106349500D01*
X132146583Y-106349500D01*
X132146578Y-106349500D01*
X131952173Y-106380290D01*
X131764970Y-106441117D01*
X131589594Y-106530476D01*
X131536734Y-106568882D01*
X131430354Y-106646172D01*
X131430352Y-106646174D01*
X131430351Y-106646174D01*
X131291174Y-106785351D01*
X131291174Y-106785352D01*
X131291172Y-106785354D01*
X131246236Y-106847203D01*
X131175476Y-106944594D01*
X131086117Y-107119970D01*
X131025290Y-107307173D01*
X130994500Y-107501577D01*
X121150900Y-107501577D01*
X121150900Y-102662781D01*
X129654500Y-102662781D01*
X129654500Y-102837218D01*
X129688527Y-103008283D01*
X129688529Y-103008291D01*
X129755278Y-103169439D01*
X129755283Y-103169448D01*
X129852186Y-103314473D01*
X129852189Y-103314477D01*
X129975522Y-103437810D01*
X129975526Y-103437813D01*
X130120551Y-103534716D01*
X130120564Y-103534723D01*
X130185147Y-103561474D01*
X130239551Y-103605315D01*
X130261616Y-103671609D01*
X130244337Y-103739308D01*
X130193200Y-103786919D01*
X130185149Y-103790596D01*
X130125558Y-103815280D01*
X130125551Y-103815283D01*
X129980526Y-103912186D01*
X129980522Y-103912189D01*
X129857189Y-104035522D01*
X129857186Y-104035526D01*
X129760283Y-104180551D01*
X129760278Y-104180560D01*
X129693529Y-104341708D01*
X129693527Y-104341716D01*
X129659500Y-104512781D01*
X129659500Y-104687218D01*
X129693527Y-104858283D01*
X129693529Y-104858291D01*
X129760278Y-105019439D01*
X129760283Y-105019448D01*
X129857186Y-105164473D01*
X129857189Y-105164477D01*
X129980522Y-105287810D01*
X129980526Y-105287813D01*
X130125551Y-105384716D01*
X130125560Y-105384721D01*
X130127441Y-105385500D01*
X130286709Y-105451471D01*
X130457781Y-105485499D01*
X130457785Y-105485500D01*
X130457786Y-105485500D01*
X130632215Y-105485500D01*
X130632216Y-105485499D01*
X130803291Y-105451471D01*
X130964442Y-105384720D01*
X131109474Y-105287813D01*
X131232813Y-105164474D01*
X131329720Y-105019442D01*
X131396471Y-104858291D01*
X131430500Y-104687214D01*
X131430500Y-104533080D01*
X137447500Y-104533080D01*
X137462207Y-104663617D01*
X137520123Y-104829131D01*
X137520125Y-104829134D01*
X137613408Y-104977592D01*
X137613413Y-104977598D01*
X137737401Y-105101586D01*
X137737407Y-105101591D01*
X137885865Y-105194874D01*
X137885868Y-105194876D01*
X138051382Y-105252792D01*
X138181919Y-105267499D01*
X138181920Y-105267500D01*
X138450000Y-105267500D01*
X138450000Y-104350000D01*
X137447500Y-104350000D01*
X137447500Y-104533080D01*
X131430500Y-104533080D01*
X131430500Y-104512786D01*
X131396471Y-104341709D01*
X131363095Y-104261133D01*
X131329721Y-104180560D01*
X131329716Y-104180551D01*
X131232813Y-104035526D01*
X131232810Y-104035522D01*
X131109477Y-103912189D01*
X131109473Y-103912186D01*
X130964448Y-103815283D01*
X130964438Y-103815278D01*
X130899851Y-103788525D01*
X130882609Y-103774630D01*
X130862807Y-103764718D01*
X130855934Y-103753134D01*
X130845448Y-103744684D01*
X130838455Y-103723675D01*
X130827155Y-103704629D01*
X130827636Y-103691167D01*
X130823383Y-103678389D01*
X130826310Y-103666919D01*
X137447500Y-103666919D01*
X137447500Y-103850000D01*
X138450000Y-103850000D01*
X138450000Y-102932500D01*
X138950000Y-102932500D01*
X138950000Y-105267500D01*
X139218080Y-105267500D01*
X139218080Y-105267499D01*
X139348617Y-105252792D01*
X139514131Y-105194876D01*
X139514134Y-105194874D01*
X139662592Y-105101591D01*
X139662598Y-105101586D01*
X139764465Y-104999720D01*
X139825788Y-104966235D01*
X139895480Y-104971219D01*
X139939827Y-104999720D01*
X140042088Y-105101981D01*
X140190655Y-105195331D01*
X140356268Y-105253282D01*
X140356274Y-105253282D01*
X140356276Y-105253283D01*
X140397841Y-105257966D01*
X140486890Y-105267999D01*
X140486893Y-105268000D01*
X140486896Y-105268000D01*
X141523107Y-105268000D01*
X141523108Y-105267999D01*
X141653732Y-105253282D01*
X141819345Y-105195331D01*
X141967912Y-105101981D01*
X142091981Y-104977912D01*
X142185331Y-104829345D01*
X142243282Y-104663732D01*
X142258000Y-104533104D01*
X142258000Y-103666896D01*
X142243282Y-103536268D01*
X142185331Y-103370655D01*
X142185330Y-103370653D01*
X142185329Y-103370651D01*
X142160439Y-103331039D01*
X142160438Y-103331038D01*
X142122813Y-103271158D01*
X142122810Y-103271153D01*
X142704500Y-103271153D01*
X142704500Y-103428846D01*
X142735261Y-103583489D01*
X142735263Y-103583497D01*
X142745061Y-103607151D01*
X142754500Y-103654604D01*
X142754500Y-115795396D01*
X142745062Y-115842844D01*
X142735263Y-115866503D01*
X142735262Y-115866506D01*
X142735260Y-115866511D01*
X142704500Y-116021153D01*
X142704500Y-116178846D01*
X142735261Y-116333489D01*
X142735264Y-116333501D01*
X142795602Y-116479172D01*
X142795609Y-116479185D01*
X142883210Y-116610288D01*
X142883213Y-116610292D01*
X142994707Y-116721786D01*
X142994711Y-116721789D01*
X143125814Y-116809390D01*
X143125827Y-116809397D01*
X143227407Y-116851472D01*
X143271503Y-116869737D01*
X143426153Y-116900499D01*
X143426156Y-116900500D01*
X143426158Y-116900500D01*
X143583844Y-116900500D01*
X143583845Y-116900499D01*
X143738497Y-116869737D01*
X143884179Y-116809394D01*
X144015289Y-116721789D01*
X144126789Y-116610289D01*
X144214394Y-116479179D01*
X144274737Y-116333497D01*
X144305500Y-116178842D01*
X144305500Y-116021158D01*
X144305500Y-116021155D01*
X144305499Y-116021153D01*
X144274739Y-115866511D01*
X144274738Y-115866508D01*
X144274737Y-115866503D01*
X144264937Y-115842844D01*
X144255500Y-115795396D01*
X144255500Y-103654604D01*
X144264939Y-103607151D01*
X144274737Y-103583497D01*
X144305500Y-103428842D01*
X144305500Y-103271158D01*
X144305500Y-103271155D01*
X144305499Y-103271153D01*
X144295803Y-103222407D01*
X144274737Y-103116503D01*
X144267081Y-103098019D01*
X144214397Y-102970827D01*
X144214390Y-102970814D01*
X144126789Y-102839711D01*
X144126786Y-102839707D01*
X144015292Y-102728213D01*
X144015288Y-102728210D01*
X143884185Y-102640609D01*
X143884172Y-102640602D01*
X143738501Y-102580264D01*
X143738489Y-102580261D01*
X143583845Y-102549500D01*
X143583842Y-102549500D01*
X143426158Y-102549500D01*
X143426155Y-102549500D01*
X143271510Y-102580261D01*
X143271498Y-102580264D01*
X143125827Y-102640602D01*
X143125814Y-102640609D01*
X142994711Y-102728210D01*
X142994707Y-102728213D01*
X142883213Y-102839707D01*
X142883210Y-102839711D01*
X142795609Y-102970814D01*
X142795602Y-102970827D01*
X142735264Y-103116498D01*
X142735261Y-103116510D01*
X142704500Y-103271153D01*
X142122810Y-103271153D01*
X142091981Y-103222088D01*
X141967912Y-103098019D01*
X141819345Y-103004669D01*
X141819344Y-103004668D01*
X141819343Y-103004668D01*
X141819341Y-103004667D01*
X141719919Y-102969878D01*
X141653732Y-102946718D01*
X141653730Y-102946717D01*
X141653728Y-102946717D01*
X141653723Y-102946716D01*
X141523110Y-102932000D01*
X141523104Y-102932000D01*
X140486896Y-102932000D01*
X140486889Y-102932000D01*
X140356276Y-102946716D01*
X140356271Y-102946717D01*
X140190658Y-103004667D01*
X140190656Y-103004668D01*
X140042087Y-103098019D01*
X139939827Y-103200280D01*
X139878504Y-103233765D01*
X139808812Y-103228781D01*
X139764465Y-103200280D01*
X139662598Y-103098413D01*
X139662592Y-103098408D01*
X139514134Y-103005125D01*
X139514131Y-103005123D01*
X139348617Y-102947207D01*
X139218080Y-102932500D01*
X138950000Y-102932500D01*
X138450000Y-102932500D01*
X138181920Y-102932500D01*
X138051382Y-102947207D01*
X137885868Y-103005123D01*
X137885865Y-103005125D01*
X137737407Y-103098408D01*
X137737401Y-103098413D01*
X137613413Y-103222401D01*
X137613408Y-103222407D01*
X137520125Y-103370865D01*
X137520123Y-103370868D01*
X137462207Y-103536382D01*
X137447500Y-103666919D01*
X130826310Y-103666919D01*
X130828859Y-103656933D01*
X130829650Y-103634803D01*
X130837331Y-103623740D01*
X130840662Y-103610690D01*
X130856869Y-103595600D01*
X130869499Y-103577411D01*
X130888543Y-103566112D01*
X130891800Y-103563080D01*
X130899838Y-103559408D01*
X130955430Y-103536382D01*
X130959435Y-103534723D01*
X130959435Y-103534722D01*
X130959442Y-103534720D01*
X131104474Y-103437813D01*
X131227813Y-103314474D01*
X131324720Y-103169442D01*
X131391471Y-103008291D01*
X131425500Y-102837214D01*
X131425500Y-102662786D01*
X131391471Y-102491709D01*
X131324720Y-102330558D01*
X131324719Y-102330557D01*
X131324716Y-102330551D01*
X131227813Y-102185526D01*
X131227810Y-102185522D01*
X131104477Y-102062189D01*
X131104473Y-102062186D01*
X130959448Y-101965283D01*
X130959439Y-101965278D01*
X130798291Y-101898529D01*
X130798283Y-101898527D01*
X130627218Y-101864500D01*
X130627214Y-101864500D01*
X130452786Y-101864500D01*
X130452781Y-101864500D01*
X130281716Y-101898527D01*
X130281708Y-101898529D01*
X130120560Y-101965278D01*
X130120551Y-101965283D01*
X129975526Y-102062186D01*
X129975522Y-102062189D01*
X129852189Y-102185522D01*
X129852186Y-102185526D01*
X129755283Y-102330551D01*
X129755278Y-102330560D01*
X129688529Y-102491708D01*
X129688527Y-102491716D01*
X129654500Y-102662781D01*
X121150900Y-102662781D01*
X121150900Y-99199984D01*
X130989500Y-99199984D01*
X130989500Y-100300015D01*
X131000000Y-100402795D01*
X131000001Y-100402796D01*
X131055186Y-100569335D01*
X131055187Y-100569337D01*
X131147286Y-100718651D01*
X131147289Y-100718655D01*
X131271344Y-100842710D01*
X131271348Y-100842713D01*
X131420662Y-100934812D01*
X131420664Y-100934813D01*
X131420666Y-100934814D01*
X131587203Y-100989999D01*
X131689992Y-101000500D01*
X131689997Y-101000500D01*
X133310003Y-101000500D01*
X133310008Y-101000500D01*
X133412797Y-100989999D01*
X133579334Y-100934814D01*
X133728655Y-100842711D01*
X133852711Y-100718655D01*
X133944814Y-100569334D01*
X133999999Y-100402797D01*
X134010500Y-100300008D01*
X134010500Y-99199992D01*
X133999999Y-99097203D01*
X133944814Y-98930666D01*
X133904684Y-98865606D01*
X133852713Y-98781348D01*
X133852710Y-98781344D01*
X133728655Y-98657289D01*
X133728651Y-98657286D01*
X133579337Y-98565187D01*
X133579335Y-98565186D01*
X133496065Y-98537593D01*
X133412797Y-98510001D01*
X133412795Y-98510000D01*
X133310015Y-98499500D01*
X133310008Y-98499500D01*
X131689992Y-98499500D01*
X131689984Y-98499500D01*
X131587204Y-98510000D01*
X131587203Y-98510001D01*
X131420664Y-98565186D01*
X131420662Y-98565187D01*
X131271348Y-98657286D01*
X131271344Y-98657289D01*
X131147289Y-98781344D01*
X131147286Y-98781348D01*
X131055187Y-98930662D01*
X131055186Y-98930664D01*
X131000001Y-99097203D01*
X131000000Y-99097204D01*
X130989500Y-99199984D01*
X121150900Y-99199984D01*
X121150900Y-96651577D01*
X130989500Y-96651577D01*
X130989500Y-96848422D01*
X131020290Y-97042826D01*
X131081117Y-97230029D01*
X131163284Y-97391289D01*
X131170476Y-97405405D01*
X131286172Y-97564646D01*
X131425354Y-97703828D01*
X131584595Y-97819524D01*
X131667455Y-97861743D01*
X131759970Y-97908882D01*
X131759972Y-97908882D01*
X131759975Y-97908884D01*
X131860317Y-97941487D01*
X131947173Y-97969709D01*
X132141578Y-98000500D01*
X132141583Y-98000500D01*
X132858422Y-98000500D01*
X133052826Y-97969709D01*
X133080128Y-97960838D01*
X133240025Y-97908884D01*
X133415405Y-97819524D01*
X133574646Y-97703828D01*
X133713828Y-97564646D01*
X133723297Y-97551612D01*
X133778628Y-97508948D01*
X133823614Y-97500500D01*
X137573920Y-97500500D01*
X137671462Y-97481096D01*
X137718913Y-97471658D01*
X137855495Y-97415084D01*
X137934615Y-97362218D01*
X137978416Y-97332952D01*
X138600214Y-96711153D01*
X148979500Y-96711153D01*
X148979500Y-96868846D01*
X149010261Y-97023489D01*
X149010264Y-97023501D01*
X149070602Y-97169172D01*
X149070609Y-97169185D01*
X149158210Y-97300288D01*
X149158213Y-97300292D01*
X149269707Y-97411786D01*
X149269711Y-97411789D01*
X149400814Y-97499390D01*
X149400827Y-97499397D01*
X149546498Y-97559735D01*
X149546503Y-97559737D01*
X149701153Y-97590499D01*
X149701156Y-97590500D01*
X149701158Y-97590500D01*
X149858844Y-97590500D01*
X149858845Y-97590499D01*
X149935152Y-97575320D01*
X150013488Y-97559739D01*
X150013489Y-97559738D01*
X150013497Y-97559737D01*
X150037155Y-97549937D01*
X150084604Y-97540500D01*
X153725396Y-97540500D01*
X153772844Y-97549937D01*
X153796503Y-97559737D01*
X153796508Y-97559738D01*
X153796511Y-97559739D01*
X153951153Y-97590499D01*
X153951156Y-97590500D01*
X153951158Y-97590500D01*
X154108844Y-97590500D01*
X154108845Y-97590499D01*
X154263497Y-97559737D01*
X154376166Y-97513067D01*
X154409172Y-97499397D01*
X154409172Y-97499396D01*
X154409179Y-97499394D01*
X154540289Y-97411789D01*
X154651789Y-97300289D01*
X154739394Y-97169179D01*
X154799737Y-97023497D01*
X154830500Y-96868842D01*
X154830500Y-96711158D01*
X154830500Y-96711155D01*
X154830499Y-96711153D01*
X154818650Y-96651583D01*
X154799737Y-96556503D01*
X154795361Y-96545939D01*
X154739397Y-96410827D01*
X154739390Y-96410814D01*
X154651789Y-96279711D01*
X154651786Y-96279707D01*
X154540292Y-96168213D01*
X154540288Y-96168210D01*
X154409185Y-96080609D01*
X154409172Y-96080602D01*
X154263501Y-96020264D01*
X154263489Y-96020261D01*
X154108845Y-95989500D01*
X154108842Y-95989500D01*
X153951158Y-95989500D01*
X153951155Y-95989500D01*
X153796511Y-96020260D01*
X153796506Y-96020262D01*
X153796504Y-96020262D01*
X153796503Y-96020263D01*
X153772844Y-96030062D01*
X153725396Y-96039500D01*
X150084604Y-96039500D01*
X150037155Y-96030062D01*
X150013497Y-96020263D01*
X150013493Y-96020262D01*
X150013488Y-96020260D01*
X149858845Y-95989500D01*
X149858842Y-95989500D01*
X149701158Y-95989500D01*
X149701155Y-95989500D01*
X149546510Y-96020261D01*
X149546498Y-96020264D01*
X149400827Y-96080602D01*
X149400814Y-96080609D01*
X149269711Y-96168210D01*
X149269707Y-96168213D01*
X149158213Y-96279707D01*
X149158210Y-96279711D01*
X149070609Y-96410814D01*
X149070602Y-96410827D01*
X149010264Y-96556498D01*
X149010261Y-96556510D01*
X148979500Y-96711153D01*
X138600214Y-96711153D01*
X139082952Y-96228415D01*
X139110205Y-96187627D01*
X139165084Y-96105495D01*
X139201946Y-96016503D01*
X139221659Y-95968912D01*
X139250500Y-95823917D01*
X139250500Y-95676082D01*
X139250500Y-95171153D01*
X141699500Y-95171153D01*
X141699500Y-95328846D01*
X141730261Y-95483489D01*
X141730264Y-95483501D01*
X141790602Y-95629172D01*
X141790609Y-95629185D01*
X141878210Y-95760288D01*
X141878213Y-95760292D01*
X141989707Y-95871786D01*
X141989711Y-95871789D01*
X142120814Y-95959390D01*
X142120827Y-95959397D01*
X142210804Y-95996666D01*
X142266503Y-96019737D01*
X142365858Y-96039500D01*
X142421153Y-96050499D01*
X142421156Y-96050500D01*
X142421158Y-96050500D01*
X142578844Y-96050500D01*
X142578845Y-96050499D01*
X142733497Y-96019737D01*
X142879179Y-95959394D01*
X143010289Y-95871789D01*
X143121789Y-95760289D01*
X143209394Y-95629179D01*
X143219191Y-95605524D01*
X143246069Y-95565297D01*
X144667649Y-94143719D01*
X144728972Y-94110234D01*
X144755330Y-94107400D01*
X151880996Y-94107400D01*
X151928444Y-94116837D01*
X151952103Y-94126637D01*
X151952108Y-94126638D01*
X151952111Y-94126639D01*
X152106753Y-94157399D01*
X152106756Y-94157400D01*
X152106758Y-94157400D01*
X152264444Y-94157400D01*
X152264445Y-94157399D01*
X152340752Y-94142220D01*
X152419088Y-94126639D01*
X152419089Y-94126638D01*
X152419097Y-94126637D01*
X152442755Y-94116837D01*
X152490204Y-94107400D01*
X161096100Y-94107400D01*
X161163139Y-94127085D01*
X161208894Y-94179889D01*
X161220100Y-94231400D01*
X161220100Y-100022169D01*
X161200415Y-100089208D01*
X161183781Y-100109850D01*
X160074550Y-101219080D01*
X160074544Y-101219088D01*
X160025312Y-101292768D01*
X160025313Y-101292769D01*
X159992421Y-101341996D01*
X159992414Y-101342008D01*
X159935842Y-101478586D01*
X159935840Y-101478592D01*
X159907000Y-101623579D01*
X159907000Y-106327896D01*
X159897562Y-106375344D01*
X159895514Y-106380291D01*
X159887762Y-106399006D01*
X159887760Y-106399011D01*
X159857000Y-106553653D01*
X159857000Y-106711346D01*
X159887761Y-106865989D01*
X159887763Y-106865997D01*
X159897561Y-106889651D01*
X159907000Y-106937104D01*
X159907000Y-109085270D01*
X159898355Y-109114710D01*
X159891832Y-109144697D01*
X159888077Y-109149712D01*
X159887315Y-109152309D01*
X159870681Y-109172951D01*
X159865451Y-109178181D01*
X159804128Y-109211666D01*
X159777770Y-109214500D01*
X155059604Y-109214500D01*
X155012155Y-109205062D01*
X154988497Y-109195263D01*
X154988493Y-109195262D01*
X154988488Y-109195260D01*
X154833845Y-109164500D01*
X154833842Y-109164500D01*
X154676158Y-109164500D01*
X154676155Y-109164500D01*
X154521511Y-109195260D01*
X154521506Y-109195262D01*
X154521504Y-109195262D01*
X154521503Y-109195263D01*
X154497844Y-109205062D01*
X154450396Y-109214500D01*
X153232229Y-109214500D01*
X153165190Y-109194815D01*
X153144548Y-109178181D01*
X150463421Y-106497052D01*
X150463414Y-106497046D01*
X150389729Y-106447812D01*
X150389729Y-106447813D01*
X150340491Y-106414913D01*
X150203917Y-106358343D01*
X150203907Y-106358340D01*
X150058920Y-106329500D01*
X150058918Y-106329500D01*
X148574604Y-106329500D01*
X148527155Y-106320062D01*
X148503497Y-106310263D01*
X148503493Y-106310262D01*
X148503488Y-106310260D01*
X148348845Y-106279500D01*
X148348842Y-106279500D01*
X148191158Y-106279500D01*
X148191155Y-106279500D01*
X148036511Y-106310260D01*
X148036506Y-106310262D01*
X148036504Y-106310262D01*
X148036503Y-106310263D01*
X148012844Y-106320062D01*
X147965396Y-106329500D01*
X146451080Y-106329500D01*
X146306092Y-106358340D01*
X146306082Y-106358343D01*
X146169511Y-106414912D01*
X146169498Y-106414919D01*
X146046584Y-106497048D01*
X146046580Y-106497051D01*
X145022048Y-107521583D01*
X145000825Y-107553346D01*
X144979743Y-107584900D01*
X144959829Y-107614702D01*
X144939916Y-107644504D01*
X144939912Y-107644511D01*
X144883343Y-107781082D01*
X144883340Y-107781092D01*
X144854500Y-107926079D01*
X144854500Y-117095396D01*
X144845062Y-117142844D01*
X144835263Y-117166503D01*
X144835262Y-117166506D01*
X144835260Y-117166511D01*
X144804500Y-117321153D01*
X144804500Y-117478846D01*
X144835261Y-117633489D01*
X144835263Y-117633497D01*
X144845061Y-117657151D01*
X144854500Y-117704604D01*
X144854500Y-121428918D01*
X144854500Y-121428920D01*
X144854499Y-121428920D01*
X144883340Y-121573907D01*
X144883343Y-121573917D01*
X144939914Y-121710492D01*
X144972812Y-121759727D01*
X144972813Y-121759730D01*
X145022046Y-121833414D01*
X145022052Y-121833421D01*
X145771578Y-122582947D01*
X145771584Y-122582952D01*
X145829709Y-122621789D01*
X145894505Y-122665084D01*
X145951080Y-122688518D01*
X146031088Y-122721659D01*
X146147241Y-122744763D01*
X146166468Y-122748587D01*
X146176081Y-122750500D01*
X146176082Y-122750500D01*
X146176083Y-122750500D01*
X146323918Y-122750500D01*
X150695396Y-122750500D01*
X150742844Y-122759937D01*
X150766503Y-122769737D01*
X150766508Y-122769738D01*
X150766511Y-122769739D01*
X150921153Y-122800499D01*
X150921156Y-122800500D01*
X150921158Y-122800500D01*
X151078844Y-122800500D01*
X151078845Y-122800499D01*
X151155815Y-122785189D01*
X151233488Y-122769739D01*
X151233489Y-122769738D01*
X151233497Y-122769737D01*
X151257155Y-122759937D01*
X151304604Y-122750500D01*
X161073920Y-122750500D01*
X161171462Y-122731096D01*
X161218913Y-122721658D01*
X161355495Y-122665084D01*
X161420291Y-122621789D01*
X161420294Y-122621786D01*
X161420296Y-122621786D01*
X161449547Y-122602240D01*
X161478416Y-122582952D01*
X161918652Y-122142716D01*
X162086113Y-121975255D01*
X162372348Y-121689019D01*
X162372347Y-121689019D01*
X162372351Y-121689016D01*
X162419667Y-121618201D01*
X162431829Y-121600000D01*
X171309016Y-121600000D01*
X172350440Y-121600000D01*
X172319755Y-121653147D01*
X172285000Y-121782857D01*
X172285000Y-121917143D01*
X172319755Y-122046853D01*
X172350440Y-122100000D01*
X171309016Y-122100000D01*
X171315781Y-122142716D01*
X171376581Y-122329837D01*
X171465904Y-122505143D01*
X171581555Y-122664321D01*
X171720678Y-122803444D01*
X171879856Y-122919095D01*
X172055164Y-123008418D01*
X172242294Y-123069221D01*
X172436618Y-123100000D01*
X172545000Y-123100000D01*
X172545000Y-122294560D01*
X172598147Y-122325245D01*
X172727857Y-122360000D01*
X172862143Y-122360000D01*
X172991853Y-122325245D01*
X173045000Y-122294560D01*
X173045000Y-123100000D01*
X173153382Y-123100000D01*
X173347705Y-123069221D01*
X173534835Y-123008418D01*
X173710143Y-122919095D01*
X173869321Y-122803444D01*
X174008444Y-122664321D01*
X174124095Y-122505143D01*
X174213418Y-122329837D01*
X174274218Y-122142716D01*
X174280984Y-122100000D01*
X173239560Y-122100000D01*
X173270245Y-122046853D01*
X173305000Y-121917143D01*
X173305000Y-121782857D01*
X173270245Y-121653147D01*
X173239560Y-121600000D01*
X174280984Y-121600000D01*
X174274218Y-121557283D01*
X174213418Y-121370162D01*
X174124095Y-121194856D01*
X174008444Y-121035678D01*
X173869321Y-120896555D01*
X173710143Y-120780904D01*
X173534835Y-120691581D01*
X173347705Y-120630778D01*
X173153382Y-120600000D01*
X173045000Y-120600000D01*
X173045000Y-121405439D01*
X172991853Y-121374755D01*
X172862143Y-121340000D01*
X172727857Y-121340000D01*
X172598147Y-121374755D01*
X172545000Y-121405439D01*
X172545000Y-120600000D01*
X172436618Y-120600000D01*
X172242294Y-120630778D01*
X172055164Y-120691581D01*
X171879856Y-120780904D01*
X171720678Y-120896555D01*
X171581555Y-121035678D01*
X171465904Y-121194856D01*
X171376581Y-121370162D01*
X171315781Y-121557283D01*
X171309016Y-121600000D01*
X162431829Y-121600000D01*
X162453096Y-121568173D01*
X162453096Y-121568172D01*
X162453097Y-121568171D01*
X162453332Y-121567818D01*
X162454484Y-121566095D01*
X162511058Y-121429513D01*
X162539900Y-121284518D01*
X162539900Y-121136683D01*
X162539900Y-115467600D01*
X162559585Y-115400561D01*
X162612389Y-115354806D01*
X162663900Y-115343600D01*
X166135870Y-115343600D01*
X166165310Y-115352244D01*
X166195297Y-115358768D01*
X166200312Y-115362522D01*
X166202909Y-115363285D01*
X166223546Y-115379914D01*
X166370682Y-115527049D01*
X166404166Y-115588370D01*
X166407000Y-115614729D01*
X166407000Y-116577896D01*
X166397562Y-116625344D01*
X166393679Y-116634721D01*
X166387762Y-116649006D01*
X166387760Y-116649011D01*
X166357000Y-116803653D01*
X166357000Y-116961346D01*
X166387761Y-117115989D01*
X166387763Y-117115997D01*
X166397561Y-117139651D01*
X166407000Y-117187104D01*
X166407000Y-118326418D01*
X166407000Y-118326420D01*
X166406999Y-118326420D01*
X166435840Y-118471407D01*
X166435843Y-118471417D01*
X166476463Y-118569481D01*
X166492416Y-118607995D01*
X166516819Y-118644517D01*
X166516818Y-118644517D01*
X166574546Y-118730914D01*
X166574552Y-118730921D01*
X167172049Y-119328416D01*
X167276584Y-119432951D01*
X167276587Y-119432953D01*
X167276588Y-119432954D01*
X167399503Y-119515083D01*
X167399506Y-119515085D01*
X167449665Y-119535861D01*
X167456080Y-119538518D01*
X167536088Y-119571659D01*
X167652241Y-119594763D01*
X167675380Y-119599365D01*
X167681081Y-119600500D01*
X167681082Y-119600500D01*
X167681083Y-119600500D01*
X167828918Y-119600500D01*
X171239092Y-119600500D01*
X171306131Y-119620185D01*
X171344635Y-119664271D01*
X171346394Y-119663187D01*
X171442286Y-119818651D01*
X171442289Y-119818655D01*
X171566344Y-119942710D01*
X171566348Y-119942713D01*
X171715662Y-120034812D01*
X171715664Y-120034813D01*
X171715666Y-120034814D01*
X171882203Y-120089999D01*
X171984992Y-120100500D01*
X171984997Y-120100500D01*
X173605003Y-120100500D01*
X173605008Y-120100500D01*
X173707797Y-120089999D01*
X173874334Y-120034814D01*
X174023655Y-119942711D01*
X174147711Y-119818655D01*
X174239814Y-119669334D01*
X174294999Y-119502797D01*
X174305500Y-119400008D01*
X174305500Y-118299992D01*
X174294999Y-118197203D01*
X174239814Y-118030666D01*
X174221271Y-118000604D01*
X174147713Y-117881348D01*
X174147710Y-117881344D01*
X174023655Y-117757289D01*
X174023651Y-117757286D01*
X173874337Y-117665187D01*
X173874335Y-117665186D01*
X173778679Y-117633489D01*
X173707797Y-117610001D01*
X173707795Y-117610000D01*
X173605015Y-117599500D01*
X173605008Y-117599500D01*
X171984992Y-117599500D01*
X171984984Y-117599500D01*
X171882204Y-117610000D01*
X171882203Y-117610001D01*
X171715664Y-117665186D01*
X171715662Y-117665187D01*
X171566348Y-117757286D01*
X171566344Y-117757289D01*
X171442289Y-117881344D01*
X171442286Y-117881348D01*
X171346394Y-118036813D01*
X171344600Y-118035706D01*
X171305313Y-118080337D01*
X171239092Y-118099500D01*
X168117230Y-118099500D01*
X168087792Y-118090855D01*
X168057802Y-118084332D01*
X168052785Y-118080576D01*
X168050191Y-118079815D01*
X168029548Y-118063181D01*
X167944318Y-117977950D01*
X167910834Y-117916626D01*
X167908000Y-117890269D01*
X167908000Y-117187104D01*
X167917439Y-117139651D01*
X167919617Y-117134393D01*
X167927237Y-117115997D01*
X167958000Y-116961342D01*
X167958000Y-116803658D01*
X167958000Y-116803655D01*
X167957999Y-116803653D01*
X167927239Y-116649011D01*
X167927238Y-116649008D01*
X167927237Y-116649003D01*
X167917437Y-116625344D01*
X167908000Y-116577896D01*
X167908000Y-115762781D01*
X173869500Y-115762781D01*
X173869500Y-115937218D01*
X173903527Y-116108283D01*
X173903529Y-116108291D01*
X173970278Y-116269439D01*
X173970283Y-116269448D01*
X174067186Y-116414473D01*
X174067189Y-116414477D01*
X174190522Y-116537810D01*
X174190526Y-116537813D01*
X174335551Y-116634716D01*
X174335557Y-116634719D01*
X174335558Y-116634720D01*
X174496709Y-116701471D01*
X174619463Y-116725888D01*
X174667781Y-116735499D01*
X174667785Y-116735500D01*
X174667786Y-116735500D01*
X174842215Y-116735500D01*
X174842216Y-116735499D01*
X175013291Y-116701471D01*
X175174442Y-116634720D01*
X175319474Y-116537813D01*
X175442813Y-116414474D01*
X175539720Y-116269442D01*
X175606471Y-116108291D01*
X175640500Y-115937214D01*
X175640500Y-115762786D01*
X175606471Y-115591709D01*
X175545573Y-115444689D01*
X175539721Y-115430560D01*
X175539716Y-115430551D01*
X175442813Y-115285526D01*
X175442810Y-115285522D01*
X175319477Y-115162189D01*
X175319473Y-115162186D01*
X175174448Y-115065283D01*
X175174439Y-115065278D01*
X175013291Y-114998529D01*
X175013283Y-114998527D01*
X174842218Y-114964500D01*
X174842214Y-114964500D01*
X174667786Y-114964500D01*
X174667781Y-114964500D01*
X174496716Y-114998527D01*
X174496708Y-114998529D01*
X174335560Y-115065278D01*
X174335551Y-115065283D01*
X174190526Y-115162186D01*
X174190522Y-115162189D01*
X174067189Y-115285522D01*
X174067186Y-115285526D01*
X173970283Y-115430551D01*
X173970278Y-115430560D01*
X173903529Y-115591708D01*
X173903527Y-115591716D01*
X173869500Y-115762781D01*
X167908000Y-115762781D01*
X167908000Y-115178579D01*
X167879159Y-115033592D01*
X167879158Y-115033591D01*
X167879158Y-115033587D01*
X167864636Y-114998527D01*
X167822587Y-114897011D01*
X167822580Y-114896998D01*
X167740452Y-114774085D01*
X167718831Y-114752464D01*
X167635916Y-114669549D01*
X167471955Y-114505588D01*
X166976521Y-114010152D01*
X166976514Y-114010146D01*
X166902829Y-113960912D01*
X166902829Y-113960913D01*
X166853591Y-113928013D01*
X166717017Y-113871443D01*
X166717007Y-113871440D01*
X166572020Y-113842600D01*
X166572018Y-113842600D01*
X162094004Y-113842600D01*
X162046555Y-113833162D01*
X162022897Y-113823363D01*
X162022893Y-113823362D01*
X162022888Y-113823360D01*
X161868245Y-113792600D01*
X161868242Y-113792600D01*
X161710558Y-113792600D01*
X161710555Y-113792600D01*
X161555910Y-113823361D01*
X161555898Y-113823364D01*
X161410227Y-113883702D01*
X161410214Y-113883709D01*
X161279111Y-113971310D01*
X161279107Y-113971313D01*
X161167613Y-114082807D01*
X161167610Y-114082811D01*
X161080009Y-114213914D01*
X161080002Y-114213927D01*
X161019664Y-114359598D01*
X161019661Y-114359610D01*
X160988900Y-114514253D01*
X160988900Y-114671946D01*
X161019661Y-114826589D01*
X161019663Y-114826597D01*
X161029461Y-114850251D01*
X161038900Y-114897704D01*
X161038900Y-120848370D01*
X161019215Y-120915409D01*
X161002581Y-120936051D01*
X160725451Y-121213181D01*
X160664128Y-121246666D01*
X160637770Y-121249500D01*
X151304604Y-121249500D01*
X151257155Y-121240062D01*
X151233497Y-121230263D01*
X151233493Y-121230262D01*
X151233488Y-121230260D01*
X151078845Y-121199500D01*
X151078842Y-121199500D01*
X150921158Y-121199500D01*
X150921155Y-121199500D01*
X150766511Y-121230260D01*
X150766506Y-121230262D01*
X150766504Y-121230262D01*
X150766503Y-121230263D01*
X150742844Y-121240062D01*
X150695396Y-121249500D01*
X146612230Y-121249500D01*
X146582789Y-121240855D01*
X146552803Y-121234332D01*
X146547787Y-121230577D01*
X146545191Y-121229815D01*
X146524549Y-121213181D01*
X146391819Y-121080451D01*
X146358334Y-121019128D01*
X146355500Y-120992770D01*
X146355500Y-117704604D01*
X146364939Y-117657151D01*
X146374737Y-117633497D01*
X146405500Y-117478842D01*
X146405500Y-117321158D01*
X146405500Y-117321155D01*
X146405499Y-117321153D01*
X146374739Y-117166511D01*
X146374738Y-117166508D01*
X146374737Y-117166503D01*
X146364937Y-117142844D01*
X146355500Y-117095396D01*
X146355500Y-114899096D01*
X155273300Y-114899096D01*
X155273300Y-115814698D01*
X155273301Y-115814702D01*
X155288535Y-115949924D01*
X155288538Y-115949936D01*
X155348529Y-116121378D01*
X155445172Y-116275185D01*
X155573617Y-116403630D01*
X155581892Y-116408829D01*
X155628184Y-116461163D01*
X155638833Y-116530217D01*
X155610458Y-116594065D01*
X155603603Y-116601504D01*
X155515518Y-116689589D01*
X155422168Y-116838156D01*
X155422167Y-116838158D01*
X155364217Y-117003771D01*
X155364216Y-117003776D01*
X155349500Y-117134389D01*
X155349500Y-118000610D01*
X155364216Y-118131223D01*
X155364217Y-118131228D01*
X155364217Y-118131230D01*
X155364218Y-118131232D01*
X155381515Y-118180664D01*
X155422167Y-118296841D01*
X155422168Y-118296843D01*
X155422169Y-118296845D01*
X155515519Y-118445412D01*
X155639588Y-118569481D01*
X155788155Y-118662831D01*
X155953768Y-118720782D01*
X155953774Y-118720782D01*
X155953776Y-118720783D01*
X155995341Y-118725466D01*
X156084390Y-118735499D01*
X156084393Y-118735500D01*
X156084396Y-118735500D01*
X157120607Y-118735500D01*
X157120608Y-118735499D01*
X157251232Y-118720782D01*
X157416845Y-118662831D01*
X157565412Y-118569481D01*
X157667319Y-118467574D01*
X157728642Y-118434089D01*
X157798334Y-118439073D01*
X157842681Y-118467574D01*
X157944588Y-118569481D01*
X158093155Y-118662831D01*
X158258768Y-118720782D01*
X158258774Y-118720782D01*
X158258776Y-118720783D01*
X158300341Y-118725466D01*
X158389390Y-118735499D01*
X158389393Y-118735500D01*
X158389396Y-118735500D01*
X159425607Y-118735500D01*
X159425608Y-118735499D01*
X159556232Y-118720782D01*
X159721845Y-118662831D01*
X159870412Y-118569481D01*
X159994481Y-118445412D01*
X160087831Y-118296845D01*
X160145782Y-118131232D01*
X160160500Y-118000604D01*
X160160500Y-117134396D01*
X160145782Y-117003768D01*
X160087831Y-116838155D01*
X159994481Y-116689588D01*
X159905228Y-116600335D01*
X159871743Y-116539012D01*
X159876727Y-116469320D01*
X159918599Y-116413387D01*
X159926938Y-116407660D01*
X159934973Y-116402611D01*
X160063808Y-116273776D01*
X160160742Y-116119508D01*
X160220916Y-115947540D01*
X160220918Y-115947532D01*
X160236199Y-115811901D01*
X160236200Y-115811897D01*
X160236200Y-115600000D01*
X159094600Y-115600000D01*
X159027561Y-115580315D01*
X158981806Y-115527511D01*
X158970600Y-115476000D01*
X158970600Y-115350000D01*
X158844600Y-115350000D01*
X158777561Y-115330315D01*
X158731806Y-115277511D01*
X158720600Y-115226000D01*
X158720600Y-115100000D01*
X159220600Y-115100000D01*
X160236199Y-115100000D01*
X160236199Y-114888105D01*
X160236198Y-114888097D01*
X160220918Y-114752464D01*
X160160742Y-114580491D01*
X160063808Y-114426223D01*
X159934976Y-114297391D01*
X159780708Y-114200457D01*
X159608740Y-114140283D01*
X159608732Y-114140281D01*
X159473101Y-114125000D01*
X159220600Y-114125000D01*
X159220600Y-115100000D01*
X158720600Y-115100000D01*
X158720600Y-114125000D01*
X158468103Y-114125000D01*
X158468097Y-114125001D01*
X158332464Y-114140281D01*
X158160491Y-114200457D01*
X158006223Y-114297391D01*
X157877390Y-114426224D01*
X157877389Y-114426226D01*
X157856609Y-114459297D01*
X157804274Y-114505588D01*
X157735221Y-114516235D01*
X157671372Y-114487860D01*
X157646623Y-114459297D01*
X157633628Y-114438615D01*
X157505185Y-114310172D01*
X157464672Y-114284716D01*
X157351380Y-114213530D01*
X157179923Y-114153535D01*
X157044701Y-114138300D01*
X156034101Y-114138300D01*
X156034097Y-114138301D01*
X155898875Y-114153535D01*
X155898863Y-114153538D01*
X155727421Y-114213529D01*
X155573614Y-114310172D01*
X155445172Y-114438614D01*
X155348530Y-114592419D01*
X155288535Y-114763876D01*
X155273300Y-114899096D01*
X146355500Y-114899096D01*
X146355500Y-108362229D01*
X146375185Y-108295190D01*
X146391819Y-108274548D01*
X146799548Y-107866819D01*
X146860871Y-107833334D01*
X146887229Y-107830500D01*
X147965396Y-107830500D01*
X148012844Y-107839937D01*
X148036503Y-107849737D01*
X148036508Y-107849738D01*
X148036511Y-107849739D01*
X148191153Y-107880499D01*
X148191156Y-107880500D01*
X148191158Y-107880500D01*
X148348844Y-107880500D01*
X148348845Y-107880499D01*
X148425152Y-107865320D01*
X148503488Y-107849739D01*
X148503489Y-107849738D01*
X148503497Y-107849737D01*
X148527155Y-107839937D01*
X148574604Y-107830500D01*
X149622770Y-107830500D01*
X149689809Y-107850185D01*
X149710451Y-107866819D01*
X151008133Y-109164500D01*
X152287049Y-110443416D01*
X152342368Y-110498735D01*
X152391585Y-110547952D01*
X152514498Y-110630080D01*
X152514511Y-110630087D01*
X152651082Y-110686656D01*
X152651087Y-110686658D01*
X152651091Y-110686658D01*
X152651092Y-110686659D01*
X152796079Y-110715500D01*
X152796082Y-110715500D01*
X152796083Y-110715500D01*
X152943917Y-110715500D01*
X154450396Y-110715500D01*
X154497844Y-110724937D01*
X154521503Y-110734737D01*
X154521508Y-110734738D01*
X154521511Y-110734739D01*
X154676153Y-110765499D01*
X154676156Y-110765500D01*
X154676158Y-110765500D01*
X154833844Y-110765500D01*
X154833845Y-110765499D01*
X154911765Y-110750000D01*
X154988488Y-110734739D01*
X154988489Y-110734738D01*
X154988497Y-110734737D01*
X155012155Y-110724937D01*
X155059604Y-110715500D01*
X160213920Y-110715500D01*
X160311462Y-110696096D01*
X160358913Y-110686658D01*
X160495495Y-110630084D01*
X160560291Y-110586789D01*
X160560294Y-110586786D01*
X160560296Y-110586786D01*
X160589694Y-110567143D01*
X160618416Y-110547952D01*
X161240452Y-109925915D01*
X161267705Y-109885127D01*
X161322584Y-109802995D01*
X161363379Y-109704507D01*
X161379159Y-109666412D01*
X161408000Y-109521417D01*
X161408000Y-109373582D01*
X161408000Y-106937104D01*
X161417439Y-106889651D01*
X161420401Y-106882500D01*
X161427237Y-106865997D01*
X161458000Y-106711342D01*
X161458000Y-106553658D01*
X161458000Y-106553655D01*
X161457999Y-106553653D01*
X161427239Y-106399011D01*
X161427238Y-106399008D01*
X161427237Y-106399003D01*
X161417437Y-106375344D01*
X161408000Y-106327896D01*
X161408000Y-102059730D01*
X161427685Y-101992691D01*
X161444319Y-101972049D01*
X162553548Y-100862820D01*
X162553552Y-100862816D01*
X162621916Y-100760500D01*
X162635684Y-100739895D01*
X162692258Y-100603313D01*
X162717102Y-100478416D01*
X162721100Y-100458320D01*
X162721100Y-93661504D01*
X162730539Y-93614051D01*
X162736566Y-93599500D01*
X162740337Y-93590397D01*
X162771100Y-93435742D01*
X162771100Y-93278058D01*
X162771100Y-93278055D01*
X162771099Y-93278053D01*
X162758930Y-93216878D01*
X162740337Y-93123403D01*
X162728482Y-93094782D01*
X162679997Y-92977727D01*
X162679990Y-92977714D01*
X162592389Y-92846611D01*
X162592386Y-92846607D01*
X162480892Y-92735113D01*
X162480888Y-92735110D01*
X162349785Y-92647509D01*
X162349772Y-92647502D01*
X162204101Y-92587164D01*
X162204089Y-92587161D01*
X162049445Y-92556400D01*
X162049442Y-92556400D01*
X161891758Y-92556400D01*
X161891755Y-92556400D01*
X161737111Y-92587160D01*
X161737106Y-92587162D01*
X161737104Y-92587162D01*
X161737103Y-92587163D01*
X161713444Y-92596962D01*
X161665996Y-92606400D01*
X152490204Y-92606400D01*
X152442755Y-92596962D01*
X152419097Y-92587163D01*
X152419093Y-92587162D01*
X152419088Y-92587160D01*
X152264445Y-92556400D01*
X152264442Y-92556400D01*
X152106758Y-92556400D01*
X152106755Y-92556400D01*
X151952111Y-92587160D01*
X151952106Y-92587162D01*
X151952104Y-92587162D01*
X151952103Y-92587163D01*
X151928444Y-92596962D01*
X151880996Y-92606400D01*
X144319176Y-92606400D01*
X144290342Y-92612134D01*
X144290343Y-92612135D01*
X144174193Y-92635239D01*
X144174183Y-92635242D01*
X144094181Y-92668379D01*
X144094182Y-92668380D01*
X144037602Y-92691817D01*
X143988369Y-92724713D01*
X143914688Y-92773944D01*
X143914680Y-92773950D01*
X142184703Y-94503927D01*
X142144480Y-94530805D01*
X142120819Y-94540606D01*
X142120818Y-94540607D01*
X141989715Y-94628207D01*
X141989707Y-94628213D01*
X141878213Y-94739707D01*
X141878210Y-94739711D01*
X141790609Y-94870814D01*
X141790602Y-94870827D01*
X141730264Y-95016498D01*
X141730261Y-95016510D01*
X141699500Y-95171153D01*
X139250500Y-95171153D01*
X139250500Y-90612229D01*
X139270185Y-90545190D01*
X139286819Y-90524548D01*
X139624548Y-90186819D01*
X139685871Y-90153334D01*
X139712229Y-90150500D01*
X149045407Y-90150500D01*
X149112446Y-90170185D01*
X149152793Y-90212499D01*
X149195633Y-90286700D01*
X149246392Y-90374617D01*
X149386081Y-90556661D01*
X149386089Y-90556670D01*
X149548330Y-90718911D01*
X149548338Y-90718918D01*
X149730382Y-90858607D01*
X149730385Y-90858608D01*
X149730388Y-90858611D01*
X149929112Y-90973344D01*
X149929117Y-90973346D01*
X149929123Y-90973349D01*
X150020480Y-91011190D01*
X150141113Y-91061158D01*
X150362762Y-91120548D01*
X150590266Y-91150500D01*
X150590273Y-91150500D01*
X150819727Y-91150500D01*
X150819734Y-91150500D01*
X151047238Y-91120548D01*
X151268887Y-91061158D01*
X151480888Y-90973344D01*
X151679612Y-90858611D01*
X151861661Y-90718919D01*
X151861665Y-90718914D01*
X151861670Y-90718911D01*
X152023911Y-90556670D01*
X152023914Y-90556665D01*
X152023919Y-90556661D01*
X152163611Y-90374612D01*
X152278344Y-90175888D01*
X152366158Y-89963887D01*
X152425548Y-89742238D01*
X152455500Y-89514734D01*
X152455500Y-89285266D01*
X152453342Y-89268872D01*
X160904500Y-89268872D01*
X160904500Y-89531127D01*
X160928892Y-89716391D01*
X160938730Y-89791116D01*
X161003030Y-90031087D01*
X161006602Y-90044418D01*
X161006605Y-90044428D01*
X161106953Y-90286690D01*
X161106958Y-90286700D01*
X161238075Y-90513803D01*
X161397718Y-90721851D01*
X161397726Y-90721860D01*
X161583140Y-90907274D01*
X161583148Y-90907281D01*
X161583149Y-90907282D01*
X161589544Y-90912189D01*
X161791196Y-91066924D01*
X162018299Y-91198041D01*
X162018309Y-91198046D01*
X162260571Y-91298394D01*
X162260581Y-91298398D01*
X162513884Y-91366270D01*
X162773880Y-91400500D01*
X162773887Y-91400500D01*
X163036113Y-91400500D01*
X163036120Y-91400500D01*
X163296116Y-91366270D01*
X163549419Y-91298398D01*
X163791697Y-91198043D01*
X164018803Y-91066924D01*
X164226851Y-90907282D01*
X164226855Y-90907277D01*
X164226860Y-90907274D01*
X164412274Y-90721860D01*
X164412277Y-90721855D01*
X164412282Y-90721851D01*
X164571924Y-90513803D01*
X164703043Y-90286697D01*
X164803398Y-90044419D01*
X164871270Y-89791116D01*
X164905500Y-89531120D01*
X164905500Y-89268880D01*
X164871270Y-89008884D01*
X164803398Y-88755581D01*
X164794838Y-88734916D01*
X164703046Y-88513309D01*
X164703041Y-88513299D01*
X164571924Y-88286196D01*
X164412281Y-88078148D01*
X164412274Y-88078140D01*
X164226860Y-87892726D01*
X164226851Y-87892718D01*
X164018803Y-87733075D01*
X163791700Y-87601958D01*
X163791690Y-87601953D01*
X163549428Y-87501605D01*
X163549421Y-87501603D01*
X163549419Y-87501602D01*
X163296116Y-87433730D01*
X163238339Y-87426123D01*
X163036127Y-87399500D01*
X163036120Y-87399500D01*
X162773880Y-87399500D01*
X162773872Y-87399500D01*
X162542772Y-87429926D01*
X162513884Y-87433730D01*
X162260581Y-87501602D01*
X162260571Y-87501605D01*
X162018309Y-87601953D01*
X162018299Y-87601958D01*
X161791196Y-87733075D01*
X161583148Y-87892718D01*
X161397718Y-88078148D01*
X161238075Y-88286196D01*
X161106958Y-88513299D01*
X161106953Y-88513309D01*
X161006605Y-88755571D01*
X161006603Y-88755576D01*
X161006602Y-88755581D01*
X160985024Y-88836112D01*
X160938730Y-89008885D01*
X160904500Y-89268872D01*
X152453342Y-89268872D01*
X152425548Y-89057762D01*
X152366158Y-88836113D01*
X152309582Y-88699526D01*
X152278349Y-88624123D01*
X152278346Y-88624117D01*
X152278344Y-88624112D01*
X152163611Y-88425388D01*
X152163608Y-88425385D01*
X152163607Y-88425382D01*
X152023918Y-88243338D01*
X152023911Y-88243330D01*
X151861670Y-88081089D01*
X151861661Y-88081081D01*
X151679617Y-87941392D01*
X151480890Y-87826657D01*
X151480876Y-87826650D01*
X151268887Y-87738842D01*
X151247364Y-87733075D01*
X151047238Y-87679452D01*
X151009215Y-87674446D01*
X150819741Y-87649500D01*
X150819734Y-87649500D01*
X150590266Y-87649500D01*
X150590258Y-87649500D01*
X150373715Y-87678009D01*
X150362762Y-87679452D01*
X150269076Y-87704554D01*
X150141112Y-87738842D01*
X149929123Y-87826650D01*
X149929109Y-87826657D01*
X149730382Y-87941392D01*
X149548338Y-88081081D01*
X149386081Y-88243338D01*
X149246392Y-88425382D01*
X149152794Y-88587500D01*
X149102227Y-88635716D01*
X149045407Y-88649500D01*
X139276076Y-88649500D01*
X139247242Y-88655234D01*
X139247243Y-88655235D01*
X139131092Y-88678339D01*
X139131086Y-88678341D01*
X139079943Y-88699526D01*
X138994508Y-88734914D01*
X138963578Y-88755581D01*
X138871582Y-88817049D01*
X138871579Y-88817052D01*
X137917052Y-89771578D01*
X137917049Y-89771581D01*
X137887442Y-89815891D01*
X137887443Y-89815892D01*
X137834914Y-89894508D01*
X137778343Y-90031082D01*
X137778340Y-90031092D01*
X137749500Y-90176079D01*
X137749500Y-95387770D01*
X137729815Y-95454809D01*
X137713181Y-95475451D01*
X137225451Y-95963181D01*
X137164128Y-95996666D01*
X137137770Y-95999500D01*
X133823614Y-95999500D01*
X133756575Y-95979815D01*
X133723297Y-95948387D01*
X133713828Y-95935354D01*
X133574648Y-95796174D01*
X133574646Y-95796172D01*
X133415405Y-95680476D01*
X133406781Y-95676082D01*
X133240029Y-95591117D01*
X133052826Y-95530290D01*
X132858422Y-95499500D01*
X132858417Y-95499500D01*
X132141583Y-95499500D01*
X132141578Y-95499500D01*
X131947173Y-95530290D01*
X131759970Y-95591117D01*
X131584594Y-95680476D01*
X131503071Y-95739707D01*
X131425354Y-95796172D01*
X131425352Y-95796174D01*
X131425351Y-95796174D01*
X131286174Y-95935351D01*
X131286174Y-95935352D01*
X131286172Y-95935354D01*
X131241626Y-95996666D01*
X131170476Y-96094594D01*
X131081117Y-96269970D01*
X131020290Y-96457173D01*
X130989500Y-96651577D01*
X121150900Y-96651577D01*
X121150900Y-93662781D01*
X129654500Y-93662781D01*
X129654500Y-93837218D01*
X129688527Y-94008283D01*
X129688529Y-94008291D01*
X129755278Y-94169439D01*
X129755283Y-94169448D01*
X129852186Y-94314473D01*
X129852189Y-94314477D01*
X129975522Y-94437810D01*
X129975526Y-94437813D01*
X130120551Y-94534716D01*
X130120557Y-94534719D01*
X130120558Y-94534720D01*
X130281709Y-94601471D01*
X130452781Y-94635499D01*
X130452785Y-94635500D01*
X130452786Y-94635500D01*
X130627215Y-94635500D01*
X130627216Y-94635499D01*
X130798291Y-94601471D01*
X130959442Y-94534720D01*
X131104474Y-94437813D01*
X131227813Y-94314474D01*
X131324720Y-94169442D01*
X131391471Y-94008291D01*
X131425500Y-93837214D01*
X131425500Y-93662786D01*
X131391471Y-93491709D01*
X131324720Y-93330558D01*
X131324719Y-93330557D01*
X131324716Y-93330551D01*
X131227813Y-93185526D01*
X131227810Y-93185522D01*
X131104477Y-93062189D01*
X131104473Y-93062186D01*
X130959448Y-92965283D01*
X130959439Y-92965278D01*
X130798291Y-92898529D01*
X130798283Y-92898527D01*
X130627218Y-92864500D01*
X130627214Y-92864500D01*
X130452786Y-92864500D01*
X130452781Y-92864500D01*
X130281716Y-92898527D01*
X130281708Y-92898529D01*
X130120560Y-92965278D01*
X130120551Y-92965283D01*
X129975526Y-93062186D01*
X129975522Y-93062189D01*
X129852189Y-93185522D01*
X129852186Y-93185526D01*
X129755283Y-93330551D01*
X129755278Y-93330560D01*
X129688529Y-93491708D01*
X129688527Y-93491716D01*
X129654500Y-93662781D01*
X121150900Y-93662781D01*
X121150900Y-91512781D01*
X129659500Y-91512781D01*
X129659500Y-91687218D01*
X129693527Y-91858283D01*
X129693529Y-91858291D01*
X129760278Y-92019439D01*
X129760283Y-92019448D01*
X129857186Y-92164473D01*
X129857189Y-92164477D01*
X129980522Y-92287810D01*
X129980526Y-92287813D01*
X130125551Y-92384716D01*
X130125557Y-92384719D01*
X130125558Y-92384720D01*
X130286709Y-92451471D01*
X130457781Y-92485499D01*
X130457785Y-92485500D01*
X130457786Y-92485500D01*
X130632215Y-92485500D01*
X130632216Y-92485499D01*
X130803291Y-92451471D01*
X130964442Y-92384720D01*
X131109474Y-92287813D01*
X131232813Y-92164474D01*
X131329720Y-92019442D01*
X131396471Y-91858291D01*
X131430500Y-91687214D01*
X131430500Y-91512786D01*
X131396471Y-91341709D01*
X131329720Y-91180558D01*
X131329719Y-91180557D01*
X131329716Y-91180551D01*
X131232813Y-91035526D01*
X131232810Y-91035522D01*
X131109477Y-90912189D01*
X131109473Y-90912186D01*
X130964448Y-90815283D01*
X130964439Y-90815278D01*
X130803291Y-90748529D01*
X130803283Y-90748527D01*
X130632218Y-90714500D01*
X130632214Y-90714500D01*
X130457786Y-90714500D01*
X130457781Y-90714500D01*
X130286716Y-90748527D01*
X130286708Y-90748529D01*
X130125560Y-90815278D01*
X130125551Y-90815283D01*
X129980526Y-90912186D01*
X129980522Y-90912189D01*
X129857189Y-91035522D01*
X129857186Y-91035526D01*
X129760283Y-91180551D01*
X129760278Y-91180560D01*
X129693529Y-91341708D01*
X129693527Y-91341716D01*
X129659500Y-91512781D01*
X121150900Y-91512781D01*
X121150900Y-90934108D01*
X121116792Y-90806814D01*
X121050900Y-90692686D01*
X120957714Y-90599500D01*
X120890800Y-90560867D01*
X120843587Y-90533608D01*
X120753445Y-90509455D01*
X120716292Y-90499500D01*
X120065892Y-90499500D01*
X119934108Y-90499500D01*
X119890749Y-90511118D01*
X119820899Y-90509455D01*
X119763037Y-90470292D01*
X119735533Y-90406063D01*
X119738881Y-90359252D01*
X119750500Y-90315892D01*
X119750500Y-89862902D01*
X119770185Y-89795863D01*
X119822989Y-89750108D01*
X119892147Y-89740164D01*
X119906585Y-89743125D01*
X119934108Y-89750500D01*
X119934110Y-89750500D01*
X120565890Y-89750500D01*
X120565892Y-89750500D01*
X120693186Y-89716392D01*
X120807314Y-89650500D01*
X120900500Y-89557314D01*
X120966392Y-89443186D01*
X121000500Y-89315892D01*
X121000500Y-82512781D01*
X129659500Y-82512781D01*
X129659500Y-82687218D01*
X129693527Y-82858283D01*
X129693529Y-82858291D01*
X129760278Y-83019439D01*
X129760283Y-83019448D01*
X129857186Y-83164473D01*
X129857189Y-83164477D01*
X129980522Y-83287810D01*
X129980526Y-83287813D01*
X130125551Y-83384716D01*
X130125560Y-83384721D01*
X130162066Y-83399842D01*
X130286709Y-83451471D01*
X130457781Y-83485499D01*
X130457785Y-83485500D01*
X130457786Y-83485500D01*
X130632215Y-83485500D01*
X130632216Y-83485499D01*
X130803291Y-83451471D01*
X130833049Y-83439144D01*
X130902515Y-83431676D01*
X130964995Y-83462950D01*
X131000648Y-83523039D01*
X131004500Y-83553706D01*
X131004500Y-85428687D01*
X131002973Y-85448086D01*
X130994500Y-85501578D01*
X130994500Y-85698422D01*
X131025290Y-85892824D01*
X131035706Y-85924881D01*
X131040245Y-85943784D01*
X131041235Y-85950033D01*
X131041447Y-85951368D01*
X131114432Y-86175992D01*
X131221657Y-86386433D01*
X131360483Y-86577510D01*
X131527490Y-86744517D01*
X131718567Y-86883343D01*
X131864801Y-86957853D01*
X131926941Y-86989515D01*
X131977737Y-87037490D01*
X131994532Y-87105311D01*
X131971995Y-87171446D01*
X131926941Y-87210485D01*
X131718568Y-87316656D01*
X131718563Y-87316659D01*
X131696855Y-87332430D01*
X131636578Y-87355467D01*
X131592208Y-87360000D01*
X131592201Y-87360001D01*
X131425664Y-87415186D01*
X131425662Y-87415187D01*
X131276348Y-87507286D01*
X131276344Y-87507289D01*
X131152289Y-87631344D01*
X131152286Y-87631348D01*
X131060187Y-87780662D01*
X131060186Y-87780664D01*
X131005001Y-87947203D01*
X131005000Y-87947204D01*
X130994500Y-88049984D01*
X130994500Y-89150015D01*
X131005000Y-89252795D01*
X131005001Y-89252797D01*
X131014349Y-89281006D01*
X131060186Y-89419335D01*
X131060187Y-89419337D01*
X131152286Y-89568651D01*
X131152289Y-89568655D01*
X131276344Y-89692710D01*
X131276348Y-89692713D01*
X131425662Y-89784812D01*
X131425663Y-89784812D01*
X131425666Y-89784814D01*
X131519450Y-89815891D01*
X131592202Y-89839999D01*
X131600230Y-89840819D01*
X131636574Y-89844531D01*
X131696858Y-89867570D01*
X131718567Y-89883343D01*
X131740474Y-89894505D01*
X131929003Y-89990566D01*
X131929005Y-89990566D01*
X131929008Y-89990568D01*
X132049412Y-90029689D01*
X132153631Y-90063553D01*
X132386903Y-90100500D01*
X132386908Y-90100500D01*
X135018097Y-90100500D01*
X135251368Y-90063553D01*
X135475992Y-89990568D01*
X135686434Y-89883343D01*
X135877510Y-89744517D01*
X136894518Y-88727510D01*
X137033343Y-88536433D01*
X137140568Y-88325992D01*
X137213553Y-88101368D01*
X137216766Y-88081081D01*
X137221690Y-88049993D01*
X137221690Y-88049992D01*
X137250500Y-87868097D01*
X137250500Y-85672889D01*
X137270185Y-85605850D01*
X137286819Y-85585208D01*
X137985208Y-84886819D01*
X138046531Y-84853334D01*
X138072889Y-84850500D01*
X147382219Y-84850500D01*
X147449258Y-84870185D01*
X147457700Y-84876120D01*
X147465242Y-84881908D01*
X147641196Y-85016924D01*
X147868299Y-85148041D01*
X147868309Y-85148046D01*
X148110571Y-85248394D01*
X148110581Y-85248398D01*
X148363884Y-85316270D01*
X148623880Y-85350500D01*
X148623887Y-85350500D01*
X148886113Y-85350500D01*
X148886120Y-85350500D01*
X149146116Y-85316270D01*
X149399419Y-85248398D01*
X149641697Y-85148043D01*
X149868803Y-85016924D01*
X150076851Y-84857282D01*
X150076855Y-84857277D01*
X150076860Y-84857274D01*
X150262274Y-84671860D01*
X150262277Y-84671855D01*
X150262282Y-84671851D01*
X150421924Y-84463803D01*
X150553043Y-84236697D01*
X150653398Y-83994419D01*
X150721270Y-83741116D01*
X150755500Y-83481120D01*
X150755500Y-83218880D01*
X150721270Y-82958884D01*
X150653398Y-82705581D01*
X150653394Y-82705571D01*
X150553046Y-82463309D01*
X150553041Y-82463299D01*
X150421924Y-82236196D01*
X150291830Y-82066657D01*
X150262282Y-82028149D01*
X150262281Y-82028148D01*
X150262274Y-82028140D01*
X150076860Y-81842726D01*
X150076851Y-81842718D01*
X149868803Y-81683075D01*
X149641700Y-81551958D01*
X149641690Y-81551953D01*
X149399428Y-81451605D01*
X149399421Y-81451603D01*
X149399419Y-81451602D01*
X149146116Y-81383730D01*
X149088339Y-81376123D01*
X148886127Y-81349500D01*
X148886120Y-81349500D01*
X148623880Y-81349500D01*
X148623872Y-81349500D01*
X148392772Y-81379926D01*
X148363884Y-81383730D01*
X148162054Y-81437810D01*
X148110581Y-81451602D01*
X148110571Y-81451605D01*
X147868309Y-81551953D01*
X147868299Y-81551958D01*
X147641196Y-81683075D01*
X147518779Y-81777011D01*
X147457704Y-81823875D01*
X147392537Y-81849070D01*
X147382219Y-81849500D01*
X138999500Y-81849500D01*
X138932461Y-81829815D01*
X138886706Y-81777011D01*
X138875500Y-81725500D01*
X138875500Y-80944604D01*
X138884939Y-80897151D01*
X138894737Y-80873497D01*
X138925500Y-80718842D01*
X138925500Y-80561158D01*
X138925500Y-80561155D01*
X138925499Y-80561153D01*
X138911687Y-80491716D01*
X138894737Y-80406503D01*
X138870135Y-80347107D01*
X138834397Y-80260827D01*
X138834390Y-80260814D01*
X138746789Y-80129711D01*
X138746786Y-80129707D01*
X138635292Y-80018213D01*
X138635288Y-80018210D01*
X138504185Y-79930609D01*
X138504172Y-79930602D01*
X138358501Y-79870264D01*
X138358489Y-79870261D01*
X138203845Y-79839500D01*
X138203842Y-79839500D01*
X138046158Y-79839500D01*
X138046155Y-79839500D01*
X137891510Y-79870261D01*
X137891498Y-79870264D01*
X137745827Y-79930602D01*
X137745814Y-79930609D01*
X137614711Y-80018210D01*
X137614707Y-80018213D01*
X137503213Y-80129707D01*
X137503210Y-80129711D01*
X137415609Y-80260814D01*
X137415602Y-80260827D01*
X137355264Y-80406498D01*
X137355261Y-80406510D01*
X137324500Y-80561153D01*
X137324500Y-80718846D01*
X137355261Y-80873489D01*
X137355263Y-80873497D01*
X137365061Y-80897151D01*
X137374500Y-80944604D01*
X137374500Y-81728928D01*
X137354815Y-81795967D01*
X137302011Y-81841722D01*
X137269898Y-81851401D01*
X137048631Y-81886446D01*
X136824003Y-81959433D01*
X136613565Y-82066657D01*
X136422488Y-82205484D01*
X134605484Y-84022488D01*
X134466657Y-84213565D01*
X134408600Y-84327510D01*
X134359433Y-84424003D01*
X134286446Y-84648631D01*
X134251973Y-84866288D01*
X134222044Y-84929423D01*
X134162732Y-84966354D01*
X134092870Y-84965356D01*
X134034637Y-84926746D01*
X134006523Y-84862782D01*
X134005500Y-84846890D01*
X134005500Y-76167889D01*
X134025185Y-76100850D01*
X134041819Y-76080208D01*
X134585208Y-75536819D01*
X134646531Y-75503334D01*
X134672889Y-75500500D01*
X137250500Y-75500500D01*
X137317539Y-75520185D01*
X137363294Y-75572989D01*
X137374500Y-75624500D01*
X137374500Y-77195396D01*
X137365062Y-77242844D01*
X137355263Y-77266503D01*
X137355262Y-77266506D01*
X137355260Y-77266511D01*
X137324500Y-77421153D01*
X137324500Y-77578846D01*
X137355261Y-77733489D01*
X137355264Y-77733501D01*
X137415602Y-77879172D01*
X137415609Y-77879185D01*
X137503210Y-78010288D01*
X137503213Y-78010292D01*
X137614707Y-78121786D01*
X137614711Y-78121789D01*
X137745814Y-78209390D01*
X137745827Y-78209397D01*
X137891498Y-78269735D01*
X137891503Y-78269737D01*
X138043654Y-78300002D01*
X138046153Y-78300499D01*
X138046156Y-78300500D01*
X138046158Y-78300500D01*
X138203844Y-78300500D01*
X138203845Y-78300499D01*
X138358497Y-78269737D01*
X138504179Y-78209394D01*
X138635289Y-78121789D01*
X138746789Y-78010289D01*
X138834394Y-77879179D01*
X138843853Y-77856344D01*
X138885633Y-77755476D01*
X138894737Y-77733497D01*
X138925500Y-77578842D01*
X138925500Y-77421158D01*
X138925500Y-77421155D01*
X138925499Y-77421153D01*
X138903483Y-77310471D01*
X138903482Y-77310469D01*
X138894737Y-77266503D01*
X138882238Y-77236327D01*
X138880297Y-77229553D01*
X138880360Y-77219833D01*
X138875500Y-77195396D01*
X138875500Y-75624500D01*
X138895185Y-75557461D01*
X138947989Y-75511706D01*
X138999500Y-75500500D01*
X150094438Y-75500500D01*
X150161477Y-75520185D01*
X150207232Y-75572989D01*
X150217176Y-75642147D01*
X150188151Y-75705703D01*
X150141891Y-75739061D01*
X149929340Y-75827102D01*
X149929330Y-75827106D01*
X149730673Y-75941801D01*
X149730659Y-75941810D01*
X149656934Y-75998380D01*
X150575590Y-76917037D01*
X150512007Y-76934075D01*
X150397993Y-76999901D01*
X150304901Y-77092993D01*
X150239075Y-77207007D01*
X150222037Y-77270590D01*
X149303380Y-76351934D01*
X149246810Y-76425659D01*
X149246801Y-76425673D01*
X149132106Y-76624330D01*
X149132102Y-76624340D01*
X149044318Y-76836269D01*
X148984942Y-77057862D01*
X148955001Y-77285289D01*
X148955000Y-77285305D01*
X148955000Y-77514694D01*
X148955001Y-77514710D01*
X148984942Y-77742137D01*
X149044318Y-77963730D01*
X149132102Y-78175659D01*
X149132106Y-78175669D01*
X149246799Y-78374324D01*
X149246805Y-78374331D01*
X149303381Y-78448064D01*
X150222037Y-77529408D01*
X150239075Y-77592993D01*
X150304901Y-77707007D01*
X150397993Y-77800099D01*
X150512007Y-77865925D01*
X150575590Y-77882962D01*
X149656934Y-78801617D01*
X149656934Y-78801618D01*
X149730666Y-78858194D01*
X149929330Y-78972893D01*
X149929340Y-78972897D01*
X150141269Y-79060681D01*
X150362862Y-79120057D01*
X150590289Y-79149998D01*
X150590306Y-79150000D01*
X150819694Y-79150000D01*
X150819710Y-79149998D01*
X151047137Y-79120057D01*
X151268730Y-79060681D01*
X151480659Y-78972897D01*
X151480668Y-78972893D01*
X151679327Y-78858197D01*
X151679334Y-78858192D01*
X151753064Y-78801617D01*
X150834409Y-77882962D01*
X150897993Y-77865925D01*
X151012007Y-77800099D01*
X151105099Y-77707007D01*
X151170925Y-77592993D01*
X151187962Y-77529409D01*
X152106617Y-78448064D01*
X152163192Y-78374334D01*
X152163197Y-78374327D01*
X152277893Y-78175668D01*
X152277897Y-78175659D01*
X152365681Y-77963730D01*
X152425057Y-77742137D01*
X152454998Y-77514710D01*
X152455000Y-77514694D01*
X152455000Y-77285305D01*
X152454998Y-77285289D01*
X152425057Y-77057862D01*
X152365681Y-76836269D01*
X152277897Y-76624340D01*
X152277893Y-76624330D01*
X152163194Y-76425666D01*
X152106618Y-76351934D01*
X152106617Y-76351934D01*
X151187962Y-77270589D01*
X151170925Y-77207007D01*
X151105099Y-77092993D01*
X151012007Y-76999901D01*
X150897993Y-76934075D01*
X150834407Y-76917037D01*
X151753064Y-75998381D01*
X151753064Y-75998380D01*
X151679331Y-75941805D01*
X151679324Y-75941799D01*
X151480669Y-75827106D01*
X151480659Y-75827102D01*
X151268109Y-75739061D01*
X151213706Y-75695220D01*
X151191641Y-75628926D01*
X151208920Y-75561227D01*
X151260057Y-75513616D01*
X151315562Y-75500500D01*
X158932111Y-75500500D01*
X158999150Y-75520185D01*
X159019792Y-75536819D01*
X160923281Y-77440308D01*
X160956766Y-77501631D01*
X160958539Y-77511803D01*
X160970848Y-77605291D01*
X160988730Y-77741116D01*
X161048379Y-77963730D01*
X161056602Y-77994418D01*
X161056605Y-77994428D01*
X161156953Y-78236690D01*
X161156958Y-78236700D01*
X161288075Y-78463803D01*
X161447718Y-78671851D01*
X161447726Y-78671860D01*
X161633140Y-78857274D01*
X161633148Y-78857281D01*
X161633149Y-78857282D01*
X161681554Y-78894424D01*
X161841196Y-79016924D01*
X162068299Y-79148041D01*
X162068309Y-79148046D01*
X162310571Y-79248394D01*
X162310581Y-79248398D01*
X162563884Y-79316270D01*
X162823880Y-79350500D01*
X162823887Y-79350500D01*
X163086113Y-79350500D01*
X163086120Y-79350500D01*
X163346116Y-79316270D01*
X163599419Y-79248398D01*
X163776340Y-79175114D01*
X163841690Y-79148046D01*
X163841691Y-79148045D01*
X163841697Y-79148043D01*
X164068803Y-79016924D01*
X164276851Y-78857282D01*
X164276855Y-78857277D01*
X164276860Y-78857274D01*
X164462274Y-78671860D01*
X164462277Y-78671855D01*
X164462282Y-78671851D01*
X164621924Y-78463803D01*
X164753043Y-78236697D01*
X164853398Y-77994419D01*
X164921270Y-77741116D01*
X164955500Y-77481120D01*
X164955500Y-77218880D01*
X164921270Y-76958884D01*
X164853398Y-76705581D01*
X164853389Y-76705560D01*
X164753046Y-76463309D01*
X164753041Y-76463299D01*
X164621924Y-76236196D01*
X164462281Y-76028148D01*
X164462274Y-76028140D01*
X164276860Y-75842726D01*
X164276851Y-75842718D01*
X164068803Y-75683075D01*
X163841700Y-75551958D01*
X163841690Y-75551953D01*
X163599428Y-75451605D01*
X163599421Y-75451603D01*
X163599419Y-75451602D01*
X163346116Y-75383730D01*
X163275699Y-75374459D01*
X163125249Y-75354651D01*
X163116803Y-75353539D01*
X163052906Y-75325272D01*
X163045308Y-75318281D01*
X162962213Y-75235186D01*
X173102000Y-75235186D01*
X173102000Y-75504813D01*
X173132186Y-75772719D01*
X173132188Y-75772731D01*
X173192184Y-76035594D01*
X173192187Y-76035602D01*
X173281234Y-76290082D01*
X173398214Y-76532994D01*
X173398216Y-76532997D01*
X173541662Y-76761289D01*
X173625731Y-76866708D01*
X173699238Y-76958884D01*
X173709766Y-76972085D01*
X173900415Y-77162734D01*
X174111211Y-77330838D01*
X174339503Y-77474284D01*
X174582421Y-77591267D01*
X174722224Y-77640186D01*
X174836897Y-77680312D01*
X174836905Y-77680315D01*
X174836908Y-77680315D01*
X174836909Y-77680316D01*
X175099768Y-77740312D01*
X175367687Y-77770499D01*
X175367688Y-77770500D01*
X175367691Y-77770500D01*
X175637312Y-77770500D01*
X175637312Y-77770499D01*
X175905232Y-77740312D01*
X176168091Y-77680316D01*
X176422579Y-77591267D01*
X176665497Y-77474284D01*
X176893789Y-77330838D01*
X177104585Y-77162734D01*
X177295234Y-76972085D01*
X177463338Y-76761289D01*
X177606784Y-76532997D01*
X177723767Y-76290079D01*
X177812816Y-76035591D01*
X177872812Y-75772732D01*
X177903000Y-75504809D01*
X177903000Y-75235191D01*
X177872812Y-74967268D01*
X177812816Y-74704409D01*
X177723767Y-74449921D01*
X177637200Y-74270162D01*
X177606785Y-74207005D01*
X177536317Y-74094856D01*
X177463338Y-73978711D01*
X177295234Y-73767915D01*
X177104585Y-73577266D01*
X176893789Y-73409162D01*
X176665497Y-73265716D01*
X176665494Y-73265714D01*
X176422582Y-73148734D01*
X176168102Y-73059687D01*
X176168094Y-73059684D01*
X175970946Y-73014687D01*
X175905232Y-72999688D01*
X175905228Y-72999687D01*
X175905219Y-72999686D01*
X175637313Y-72969500D01*
X175637309Y-72969500D01*
X175367691Y-72969500D01*
X175367686Y-72969500D01*
X175099780Y-72999686D01*
X175099768Y-72999688D01*
X174836905Y-73059684D01*
X174836897Y-73059687D01*
X174582417Y-73148734D01*
X174339505Y-73265714D01*
X174111212Y-73409161D01*
X173900415Y-73577265D01*
X173709765Y-73767915D01*
X173541661Y-73978712D01*
X173398214Y-74207005D01*
X173281234Y-74449917D01*
X173192187Y-74704397D01*
X173192184Y-74704405D01*
X173132188Y-74967268D01*
X173132186Y-74967280D01*
X173102000Y-75235186D01*
X162962213Y-75235186D01*
X160582511Y-72855484D01*
X160391434Y-72716657D01*
X160180996Y-72609433D01*
X159956368Y-72536446D01*
X159723097Y-72499500D01*
X159723092Y-72499500D01*
X138118092Y-72499500D01*
X133881908Y-72499500D01*
X133881903Y-72499500D01*
X133648631Y-72536446D01*
X133424003Y-72609433D01*
X133213565Y-72716657D01*
X133022488Y-72855484D01*
X131360484Y-74517488D01*
X131221657Y-74708565D01*
X131179128Y-74792033D01*
X131136600Y-74875500D01*
X131136599Y-74875500D01*
X131114431Y-74919008D01*
X131114431Y-74919009D01*
X131041447Y-75143627D01*
X131041447Y-75143630D01*
X131004500Y-75376902D01*
X131004500Y-81646293D01*
X130984815Y-81713332D01*
X130932011Y-81759087D01*
X130862853Y-81769031D01*
X130833049Y-81760855D01*
X130824028Y-81757118D01*
X130803291Y-81748529D01*
X130803287Y-81748528D01*
X130803283Y-81748527D01*
X130632218Y-81714500D01*
X130632214Y-81714500D01*
X130457786Y-81714500D01*
X130457781Y-81714500D01*
X130286716Y-81748527D01*
X130286708Y-81748529D01*
X130125560Y-81815278D01*
X130125551Y-81815283D01*
X129980526Y-81912186D01*
X129980522Y-81912189D01*
X129857189Y-82035522D01*
X129857186Y-82035526D01*
X129760283Y-82180551D01*
X129760278Y-82180560D01*
X129693529Y-82341708D01*
X129693527Y-82341716D01*
X129659500Y-82512781D01*
X121000500Y-82512781D01*
X121000500Y-80684108D01*
X120966392Y-80556814D01*
X120900500Y-80442686D01*
X120807314Y-80349500D01*
X120807311Y-80349498D01*
X120805847Y-80348375D01*
X120804921Y-80347107D01*
X120801567Y-80343753D01*
X120802090Y-80343229D01*
X120764645Y-80291947D01*
X120760491Y-80222201D01*
X120794704Y-80161281D01*
X120805847Y-80151625D01*
X120807306Y-80150504D01*
X120807314Y-80150500D01*
X120900500Y-80057314D01*
X120966392Y-79943186D01*
X121000500Y-79815892D01*
X121000500Y-75235186D01*
X123102000Y-75235186D01*
X123102000Y-75504813D01*
X123132186Y-75772719D01*
X123132188Y-75772731D01*
X123192184Y-76035594D01*
X123192187Y-76035602D01*
X123281234Y-76290082D01*
X123398214Y-76532994D01*
X123398216Y-76532997D01*
X123541662Y-76761289D01*
X123625731Y-76866708D01*
X123699238Y-76958884D01*
X123709766Y-76972085D01*
X123900415Y-77162734D01*
X124111211Y-77330838D01*
X124339503Y-77474284D01*
X124582421Y-77591267D01*
X124722224Y-77640186D01*
X124836897Y-77680312D01*
X124836905Y-77680315D01*
X124836908Y-77680315D01*
X124836909Y-77680316D01*
X125099768Y-77740312D01*
X125367687Y-77770499D01*
X125367688Y-77770500D01*
X125367691Y-77770500D01*
X125637312Y-77770500D01*
X125637312Y-77770499D01*
X125905232Y-77740312D01*
X126168091Y-77680316D01*
X126422579Y-77591267D01*
X126665497Y-77474284D01*
X126893789Y-77330838D01*
X127104585Y-77162734D01*
X127295234Y-76972085D01*
X127463338Y-76761289D01*
X127606784Y-76532997D01*
X127723767Y-76290079D01*
X127812816Y-76035591D01*
X127872812Y-75772732D01*
X127903000Y-75504809D01*
X127903000Y-75235191D01*
X127872812Y-74967268D01*
X127812816Y-74704409D01*
X127723767Y-74449921D01*
X127637200Y-74270162D01*
X127606785Y-74207005D01*
X127536317Y-74094856D01*
X127463338Y-73978711D01*
X127295234Y-73767915D01*
X127104585Y-73577266D01*
X126893789Y-73409162D01*
X126665497Y-73265716D01*
X126665494Y-73265714D01*
X126422582Y-73148734D01*
X126168102Y-73059687D01*
X126168094Y-73059684D01*
X125970946Y-73014687D01*
X125905232Y-72999688D01*
X125905228Y-72999687D01*
X125905219Y-72999686D01*
X125637313Y-72969500D01*
X125637309Y-72969500D01*
X125367691Y-72969500D01*
X125367686Y-72969500D01*
X125099780Y-72999686D01*
X125099768Y-72999688D01*
X124836905Y-73059684D01*
X124836897Y-73059687D01*
X124582417Y-73148734D01*
X124339505Y-73265714D01*
X124111212Y-73409161D01*
X123900415Y-73577265D01*
X123709765Y-73767915D01*
X123541661Y-73978712D01*
X123398214Y-74207005D01*
X123281234Y-74449917D01*
X123192187Y-74704397D01*
X123192184Y-74704405D01*
X123132188Y-74967268D01*
X123132186Y-74967280D01*
X123102000Y-75235186D01*
X121000500Y-75235186D01*
X121000500Y-70934108D01*
X120966392Y-70806814D01*
X120966212Y-70806503D01*
X120966141Y-70806208D01*
X120963280Y-70799300D01*
X120964356Y-70798854D01*
X120949738Y-70738604D01*
X120972588Y-70672576D01*
X121027508Y-70629384D01*
X121073598Y-70620500D01*
X179375500Y-70620500D01*
X179442539Y-70640185D01*
X179488294Y-70692989D01*
X179499500Y-70744500D01*
X179499500Y-136495500D01*
X179479815Y-136562539D01*
X179427011Y-136608294D01*
X179375500Y-136619500D01*
X121078940Y-136619500D01*
X121011901Y-136599815D01*
X120966146Y-136547011D01*
X120956202Y-136477853D01*
X120964376Y-136448054D01*
X120966387Y-136443193D01*
X120966392Y-136443186D01*
X121000500Y-136315892D01*
X121000500Y-131985186D01*
X123102000Y-131985186D01*
X123102000Y-132254813D01*
X123132186Y-132522719D01*
X123132188Y-132522731D01*
X123192184Y-132785594D01*
X123192187Y-132785602D01*
X123281234Y-133040082D01*
X123398214Y-133282994D01*
X123398216Y-133282997D01*
X123541662Y-133511289D01*
X123709766Y-133722085D01*
X123900415Y-133912734D01*
X124111211Y-134080838D01*
X124339503Y-134224284D01*
X124582421Y-134341267D01*
X124751697Y-134400499D01*
X124836897Y-134430312D01*
X124836905Y-134430315D01*
X124836908Y-134430315D01*
X124836909Y-134430316D01*
X125099768Y-134490312D01*
X125367687Y-134520499D01*
X125367688Y-134520500D01*
X125367691Y-134520500D01*
X125637312Y-134520500D01*
X125637312Y-134520499D01*
X125905232Y-134490312D01*
X126168091Y-134430316D01*
X126422579Y-134341267D01*
X126665497Y-134224284D01*
X126893789Y-134080838D01*
X127104585Y-133912734D01*
X127295234Y-133722085D01*
X127463338Y-133511289D01*
X127606784Y-133282997D01*
X127723767Y-133040079D01*
X127812816Y-132785591D01*
X127872812Y-132522732D01*
X127903000Y-132254809D01*
X127903000Y-131985191D01*
X127902999Y-131985186D01*
X173102000Y-131985186D01*
X173102000Y-132254813D01*
X173132186Y-132522719D01*
X173132188Y-132522731D01*
X173192184Y-132785594D01*
X173192187Y-132785602D01*
X173281234Y-133040082D01*
X173398214Y-133282994D01*
X173398216Y-133282997D01*
X173541662Y-133511289D01*
X173709766Y-133722085D01*
X173900415Y-133912734D01*
X174111211Y-134080838D01*
X174339503Y-134224284D01*
X174582421Y-134341267D01*
X174751697Y-134400499D01*
X174836897Y-134430312D01*
X174836905Y-134430315D01*
X174836908Y-134430315D01*
X174836909Y-134430316D01*
X175099768Y-134490312D01*
X175367687Y-134520499D01*
X175367688Y-134520500D01*
X175367691Y-134520500D01*
X175637312Y-134520500D01*
X175637312Y-134520499D01*
X175905232Y-134490312D01*
X176168091Y-134430316D01*
X176422579Y-134341267D01*
X176665497Y-134224284D01*
X176893789Y-134080838D01*
X177104585Y-133912734D01*
X177295234Y-133722085D01*
X177463338Y-133511289D01*
X177606784Y-133282997D01*
X177723767Y-133040079D01*
X177812816Y-132785591D01*
X177872812Y-132522732D01*
X177903000Y-132254809D01*
X177903000Y-131985191D01*
X177872812Y-131717268D01*
X177812816Y-131454409D01*
X177723767Y-131199921D01*
X177606784Y-130957003D01*
X177463338Y-130728711D01*
X177295234Y-130517915D01*
X177104585Y-130327266D01*
X176893789Y-130159162D01*
X176665497Y-130015716D01*
X176665494Y-130015714D01*
X176422582Y-129898734D01*
X176168102Y-129809687D01*
X176168094Y-129809684D01*
X175970946Y-129764687D01*
X175905232Y-129749688D01*
X175905228Y-129749687D01*
X175905219Y-129749686D01*
X175637313Y-129719500D01*
X175637309Y-129719500D01*
X175367691Y-129719500D01*
X175367686Y-129719500D01*
X175099780Y-129749686D01*
X175099768Y-129749688D01*
X174836905Y-129809684D01*
X174836897Y-129809687D01*
X174582417Y-129898734D01*
X174339505Y-130015714D01*
X174111212Y-130159161D01*
X173900415Y-130327265D01*
X173709765Y-130517915D01*
X173541661Y-130728712D01*
X173398214Y-130957005D01*
X173281234Y-131199917D01*
X173192187Y-131454397D01*
X173192184Y-131454405D01*
X173132188Y-131717268D01*
X173132186Y-131717280D01*
X173102000Y-131985186D01*
X127902999Y-131985186D01*
X127872812Y-131717268D01*
X127812816Y-131454409D01*
X127723767Y-131199921D01*
X127606784Y-130957003D01*
X127463338Y-130728711D01*
X127295234Y-130517915D01*
X127104585Y-130327266D01*
X126893789Y-130159162D01*
X126665497Y-130015716D01*
X126665494Y-130015714D01*
X126422582Y-129898734D01*
X126168102Y-129809687D01*
X126168094Y-129809684D01*
X125970946Y-129764687D01*
X125905232Y-129749688D01*
X125905228Y-129749687D01*
X125905219Y-129749686D01*
X125637313Y-129719500D01*
X125637309Y-129719500D01*
X125367691Y-129719500D01*
X125367686Y-129719500D01*
X125099780Y-129749686D01*
X125099768Y-129749688D01*
X124836905Y-129809684D01*
X124836897Y-129809687D01*
X124582417Y-129898734D01*
X124339505Y-130015714D01*
X124111212Y-130159161D01*
X123900415Y-130327265D01*
X123709765Y-130517915D01*
X123541661Y-130728712D01*
X123398214Y-130957005D01*
X123281234Y-131199917D01*
X123192187Y-131454397D01*
X123192184Y-131454405D01*
X123132188Y-131717268D01*
X123132186Y-131717280D01*
X123102000Y-131985186D01*
X121000500Y-131985186D01*
X121000500Y-125045281D01*
X129592000Y-125045281D01*
X129592000Y-125219718D01*
X129626027Y-125390783D01*
X129626029Y-125390791D01*
X129692778Y-125551939D01*
X129692783Y-125551948D01*
X129789686Y-125696973D01*
X129789689Y-125696977D01*
X129913022Y-125820310D01*
X129913026Y-125820313D01*
X130058051Y-125917216D01*
X130058057Y-125917219D01*
X130058058Y-125917220D01*
X130219209Y-125983971D01*
X130390281Y-126017999D01*
X130390285Y-126018000D01*
X130390286Y-126018000D01*
X130564715Y-126018000D01*
X130564716Y-126017999D01*
X130735791Y-125983971D01*
X130896942Y-125917220D01*
X131041974Y-125820313D01*
X131165313Y-125696974D01*
X131262220Y-125551942D01*
X131328971Y-125390791D01*
X131363000Y-125219714D01*
X131363000Y-125045286D01*
X131328971Y-124874209D01*
X131282816Y-124762781D01*
X173869500Y-124762781D01*
X173869500Y-124937218D01*
X173903527Y-125108283D01*
X173903529Y-125108291D01*
X173970278Y-125269439D01*
X173970283Y-125269448D01*
X174067186Y-125414473D01*
X174067189Y-125414477D01*
X174190522Y-125537810D01*
X174190526Y-125537813D01*
X174335551Y-125634716D01*
X174335557Y-125634719D01*
X174335558Y-125634720D01*
X174496709Y-125701471D01*
X174667781Y-125735499D01*
X174667785Y-125735500D01*
X174667786Y-125735500D01*
X174842215Y-125735500D01*
X174842216Y-125735499D01*
X175013291Y-125701471D01*
X175174442Y-125634720D01*
X175319474Y-125537813D01*
X175442813Y-125414474D01*
X175539720Y-125269442D01*
X175606471Y-125108291D01*
X175640500Y-124937214D01*
X175640500Y-124762786D01*
X175606471Y-124591709D01*
X175545573Y-124444689D01*
X175539721Y-124430560D01*
X175539716Y-124430551D01*
X175442813Y-124285526D01*
X175442810Y-124285522D01*
X175319477Y-124162189D01*
X175319473Y-124162186D01*
X175174448Y-124065283D01*
X175174439Y-124065278D01*
X175013291Y-123998529D01*
X175013283Y-123998527D01*
X174842218Y-123964500D01*
X174842214Y-123964500D01*
X174667786Y-123964500D01*
X174667781Y-123964500D01*
X174496716Y-123998527D01*
X174496708Y-123998529D01*
X174335560Y-124065278D01*
X174335551Y-124065283D01*
X174190526Y-124162186D01*
X174190522Y-124162189D01*
X174067189Y-124285522D01*
X174067186Y-124285526D01*
X173970283Y-124430551D01*
X173970278Y-124430560D01*
X173903529Y-124591708D01*
X173903527Y-124591716D01*
X173869500Y-124762781D01*
X131282816Y-124762781D01*
X131274087Y-124741708D01*
X131262223Y-124713064D01*
X131262216Y-124713051D01*
X131165313Y-124568026D01*
X131165310Y-124568022D01*
X131041977Y-124444689D01*
X131041973Y-124444686D01*
X130896948Y-124347783D01*
X130896939Y-124347778D01*
X130735791Y-124281029D01*
X130735783Y-124281027D01*
X130564718Y-124247000D01*
X130564714Y-124247000D01*
X130390286Y-124247000D01*
X130390281Y-124247000D01*
X130219216Y-124281027D01*
X130219208Y-124281029D01*
X130058060Y-124347778D01*
X130058051Y-124347783D01*
X129913026Y-124444686D01*
X129913022Y-124444689D01*
X129789689Y-124568022D01*
X129789686Y-124568026D01*
X129692783Y-124713051D01*
X129692778Y-124713060D01*
X129626029Y-124874208D01*
X129626027Y-124874216D01*
X129592000Y-125045281D01*
X121000500Y-125045281D01*
X121000500Y-121582514D01*
X130927500Y-121582514D01*
X130927500Y-121882500D01*
X131992940Y-121882500D01*
X131962255Y-121935647D01*
X131927500Y-122065357D01*
X131927500Y-122199643D01*
X131962255Y-122329353D01*
X131992940Y-122382500D01*
X130927500Y-122382500D01*
X130927500Y-122682485D01*
X130937993Y-122785189D01*
X130937994Y-122785196D01*
X130993141Y-122951618D01*
X130993143Y-122951623D01*
X131085184Y-123100844D01*
X131209155Y-123224815D01*
X131358376Y-123316856D01*
X131358381Y-123316858D01*
X131524803Y-123372005D01*
X131524810Y-123372006D01*
X131627514Y-123382499D01*
X131627527Y-123382500D01*
X132187500Y-123382500D01*
X132187500Y-122577060D01*
X132240647Y-122607745D01*
X132370357Y-122642500D01*
X132504643Y-122642500D01*
X132634353Y-122607745D01*
X132687500Y-122577060D01*
X132687500Y-123382500D01*
X133247473Y-123382500D01*
X133247485Y-123382499D01*
X133350189Y-123372006D01*
X133350196Y-123372005D01*
X133516618Y-123316858D01*
X133516623Y-123316856D01*
X133665844Y-123224815D01*
X133789815Y-123100844D01*
X133881856Y-122951623D01*
X133881858Y-122951618D01*
X133937005Y-122785196D01*
X133937006Y-122785189D01*
X133947499Y-122682485D01*
X133947500Y-122682472D01*
X133947500Y-122382500D01*
X132882060Y-122382500D01*
X132912745Y-122329353D01*
X132947500Y-122199643D01*
X132947500Y-122065357D01*
X132912745Y-121935647D01*
X132882060Y-121882500D01*
X133947500Y-121882500D01*
X133947500Y-121582527D01*
X133947499Y-121582514D01*
X133937006Y-121479810D01*
X133937005Y-121479803D01*
X133881858Y-121313381D01*
X133881856Y-121313376D01*
X133789815Y-121164155D01*
X133665844Y-121040184D01*
X133516623Y-120948143D01*
X133516618Y-120948141D01*
X133350196Y-120892994D01*
X133350189Y-120892993D01*
X133247485Y-120882500D01*
X132687500Y-120882500D01*
X132687500Y-121687939D01*
X132634353Y-121657255D01*
X132504643Y-121622500D01*
X132370357Y-121622500D01*
X132240647Y-121657255D01*
X132187500Y-121687939D01*
X132187500Y-120882500D01*
X131627514Y-120882500D01*
X131524810Y-120892993D01*
X131524803Y-120892994D01*
X131358381Y-120948141D01*
X131358376Y-120948143D01*
X131209155Y-121040184D01*
X131085184Y-121164155D01*
X130993143Y-121313376D01*
X130993141Y-121313381D01*
X130937994Y-121479803D01*
X130937993Y-121479810D01*
X130927500Y-121582514D01*
X121000500Y-121582514D01*
X121000500Y-119034077D01*
X130927000Y-119034077D01*
X130927000Y-119230922D01*
X130957790Y-119425326D01*
X131018617Y-119612529D01*
X131107976Y-119787905D01*
X131223672Y-119947146D01*
X131362854Y-120086328D01*
X131522095Y-120202024D01*
X131596624Y-120239998D01*
X131697470Y-120291382D01*
X131697472Y-120291382D01*
X131697475Y-120291384D01*
X131797817Y-120323987D01*
X131884673Y-120352209D01*
X132079078Y-120383000D01*
X132079083Y-120383000D01*
X132795922Y-120383000D01*
X132990326Y-120352209D01*
X133177525Y-120291384D01*
X133352905Y-120202024D01*
X133512146Y-120086328D01*
X133651328Y-119947146D01*
X133767024Y-119787905D01*
X133856384Y-119612525D01*
X133917209Y-119425326D01*
X133932558Y-119328416D01*
X133948000Y-119230922D01*
X133948000Y-119034077D01*
X133917209Y-118839673D01*
X133881871Y-118730916D01*
X133856384Y-118652475D01*
X133856382Y-118652472D01*
X133856382Y-118652470D01*
X133809243Y-118559955D01*
X133767024Y-118477095D01*
X133651328Y-118317854D01*
X133512146Y-118178672D01*
X133352905Y-118062976D01*
X133301557Y-118036813D01*
X133177529Y-117973617D01*
X132990326Y-117912790D01*
X132795922Y-117882000D01*
X132795917Y-117882000D01*
X132079083Y-117882000D01*
X132079078Y-117882000D01*
X131884673Y-117912790D01*
X131697470Y-117973617D01*
X131522094Y-118062976D01*
X131471824Y-118099500D01*
X131362854Y-118178672D01*
X131362852Y-118178674D01*
X131362851Y-118178674D01*
X131223674Y-118317851D01*
X131223674Y-118317852D01*
X131223672Y-118317854D01*
X131206755Y-118341138D01*
X131107976Y-118477094D01*
X131018617Y-118652470D01*
X130957790Y-118839673D01*
X130927000Y-119034077D01*
X121000500Y-119034077D01*
X121000500Y-116045281D01*
X129592000Y-116045281D01*
X129592000Y-116219718D01*
X129626027Y-116390783D01*
X129626029Y-116390791D01*
X129692778Y-116551939D01*
X129692783Y-116551948D01*
X129789686Y-116696973D01*
X129789689Y-116696977D01*
X129913022Y-116820310D01*
X129913026Y-116820313D01*
X130058051Y-116917216D01*
X130058060Y-116917221D01*
X130075904Y-116924612D01*
X130219209Y-116983971D01*
X130390281Y-117017999D01*
X130390285Y-117018000D01*
X130390286Y-117018000D01*
X130564715Y-117018000D01*
X130564716Y-117017999D01*
X130735791Y-116983971D01*
X130896942Y-116917220D01*
X131041974Y-116820313D01*
X131165313Y-116696974D01*
X131262220Y-116551942D01*
X131328971Y-116390791D01*
X131363000Y-116219714D01*
X131363000Y-116045286D01*
X131328971Y-115874209D01*
X131262220Y-115713058D01*
X131262219Y-115713057D01*
X131262216Y-115713051D01*
X131165313Y-115568026D01*
X131165310Y-115568022D01*
X131041977Y-115444689D01*
X131041973Y-115444686D01*
X130896948Y-115347783D01*
X130896939Y-115347778D01*
X130735791Y-115281029D01*
X130735783Y-115281027D01*
X130564718Y-115247000D01*
X130564714Y-115247000D01*
X130390286Y-115247000D01*
X130390281Y-115247000D01*
X130219216Y-115281027D01*
X130219208Y-115281029D01*
X130058060Y-115347778D01*
X130058051Y-115347783D01*
X129913026Y-115444686D01*
X129913022Y-115444689D01*
X129789689Y-115568022D01*
X129789686Y-115568026D01*
X129692783Y-115713051D01*
X129692778Y-115713060D01*
X129626029Y-115874208D01*
X129626027Y-115874216D01*
X129592000Y-116045281D01*
X121000500Y-116045281D01*
X121000500Y-114684108D01*
X120966392Y-114556814D01*
X120900500Y-114442686D01*
X120807314Y-114349500D01*
X120717059Y-114297391D01*
X120693187Y-114283608D01*
X120580010Y-114253283D01*
X120565892Y-114249500D01*
X120065892Y-114249500D01*
X119934108Y-114249500D01*
X119806812Y-114283608D01*
X119692686Y-114349500D01*
X119692683Y-114349502D01*
X119599502Y-114442683D01*
X119599500Y-114442686D01*
X119533608Y-114556812D01*
X119499500Y-114684108D01*
X119499500Y-136315891D01*
X119533609Y-136443188D01*
X119535624Y-136448054D01*
X119543089Y-136517524D01*
X119511810Y-136580001D01*
X119451719Y-136615650D01*
X119421060Y-136619500D01*
X80624500Y-136619500D01*
X80557461Y-136599815D01*
X80511706Y-136547011D01*
X80500500Y-136495500D01*
X80500500Y-131865186D01*
X82599500Y-131865186D01*
X82599500Y-132134813D01*
X82629686Y-132402719D01*
X82629688Y-132402731D01*
X82689684Y-132665594D01*
X82689687Y-132665602D01*
X82778734Y-132920082D01*
X82895714Y-133162994D01*
X82895716Y-133162997D01*
X83039162Y-133391289D01*
X83207266Y-133602085D01*
X83397915Y-133792734D01*
X83608711Y-133960838D01*
X83837003Y-134104284D01*
X84079921Y-134221267D01*
X84271049Y-134288145D01*
X84334397Y-134310312D01*
X84334405Y-134310315D01*
X84334408Y-134310315D01*
X84334409Y-134310316D01*
X84597268Y-134370312D01*
X84865187Y-134400499D01*
X84865188Y-134400500D01*
X84865191Y-134400500D01*
X85134812Y-134400500D01*
X85134812Y-134400499D01*
X85402732Y-134370312D01*
X85665591Y-134310316D01*
X85920079Y-134221267D01*
X86162997Y-134104284D01*
X86391289Y-133960838D01*
X86602085Y-133792734D01*
X86792734Y-133602085D01*
X86960838Y-133391289D01*
X87104284Y-133162997D01*
X87221267Y-132920079D01*
X87310316Y-132665591D01*
X87370312Y-132402732D01*
X87400500Y-132134809D01*
X87400500Y-131865191D01*
X87400499Y-131865186D01*
X112599500Y-131865186D01*
X112599500Y-132134813D01*
X112629686Y-132402719D01*
X112629688Y-132402731D01*
X112689684Y-132665594D01*
X112689687Y-132665602D01*
X112778734Y-132920082D01*
X112895714Y-133162994D01*
X112895716Y-133162997D01*
X113039162Y-133391289D01*
X113207266Y-133602085D01*
X113397915Y-133792734D01*
X113608711Y-133960838D01*
X113837003Y-134104284D01*
X114079921Y-134221267D01*
X114271049Y-134288145D01*
X114334397Y-134310312D01*
X114334405Y-134310315D01*
X114334408Y-134310315D01*
X114334409Y-134310316D01*
X114597268Y-134370312D01*
X114865187Y-134400499D01*
X114865188Y-134400500D01*
X114865191Y-134400500D01*
X115134812Y-134400500D01*
X115134812Y-134400499D01*
X115402732Y-134370312D01*
X115665591Y-134310316D01*
X115920079Y-134221267D01*
X116162997Y-134104284D01*
X116391289Y-133960838D01*
X116602085Y-133792734D01*
X116792734Y-133602085D01*
X116960838Y-133391289D01*
X117104284Y-133162997D01*
X117221267Y-132920079D01*
X117310316Y-132665591D01*
X117370312Y-132402732D01*
X117400500Y-132134809D01*
X117400500Y-131865191D01*
X117370312Y-131597268D01*
X117310316Y-131334409D01*
X117221267Y-131079921D01*
X117104284Y-130837003D01*
X116960838Y-130608711D01*
X116792734Y-130397915D01*
X116602085Y-130207266D01*
X116593599Y-130200499D01*
X116487978Y-130116269D01*
X116391289Y-130039162D01*
X116162997Y-129895716D01*
X116162994Y-129895714D01*
X115920082Y-129778734D01*
X115665602Y-129689687D01*
X115665594Y-129689684D01*
X115468446Y-129644687D01*
X115402732Y-129629688D01*
X115402728Y-129629687D01*
X115402719Y-129629686D01*
X115134813Y-129599500D01*
X115134809Y-129599500D01*
X114865191Y-129599500D01*
X114865186Y-129599500D01*
X114597280Y-129629686D01*
X114597268Y-129629688D01*
X114334405Y-129689684D01*
X114334397Y-129689687D01*
X114079917Y-129778734D01*
X113837005Y-129895714D01*
X113608712Y-130039161D01*
X113397915Y-130207265D01*
X113207265Y-130397915D01*
X113039161Y-130608712D01*
X112895714Y-130837005D01*
X112778734Y-131079917D01*
X112689687Y-131334397D01*
X112689684Y-131334405D01*
X112629688Y-131597268D01*
X112629686Y-131597280D01*
X112599500Y-131865186D01*
X87400499Y-131865186D01*
X87370312Y-131597268D01*
X87310316Y-131334409D01*
X87221267Y-131079921D01*
X87104284Y-130837003D01*
X86960838Y-130608711D01*
X86792734Y-130397915D01*
X86602085Y-130207266D01*
X86593599Y-130200499D01*
X86487978Y-130116269D01*
X86391289Y-130039162D01*
X86162997Y-129895716D01*
X86162994Y-129895714D01*
X85920082Y-129778734D01*
X85665602Y-129689687D01*
X85665594Y-129689684D01*
X85468446Y-129644687D01*
X85402732Y-129629688D01*
X85402728Y-129629687D01*
X85402719Y-129629686D01*
X85134813Y-129599500D01*
X85134809Y-129599500D01*
X84865191Y-129599500D01*
X84865186Y-129599500D01*
X84597280Y-129629686D01*
X84597268Y-129629688D01*
X84334405Y-129689684D01*
X84334397Y-129689687D01*
X84079917Y-129778734D01*
X83837005Y-129895714D01*
X83608712Y-130039161D01*
X83397915Y-130207265D01*
X83207265Y-130397915D01*
X83039161Y-130608712D01*
X82895714Y-130837005D01*
X82778734Y-131079917D01*
X82689687Y-131334397D01*
X82689684Y-131334405D01*
X82629688Y-131597268D01*
X82629686Y-131597280D01*
X82599500Y-131865186D01*
X80500500Y-131865186D01*
X80500500Y-128018872D01*
X91949500Y-128018872D01*
X91949500Y-128281127D01*
X91976123Y-128483339D01*
X91983730Y-128541116D01*
X92051602Y-128794418D01*
X92051605Y-128794428D01*
X92151953Y-129036690D01*
X92151958Y-129036700D01*
X92283075Y-129263803D01*
X92442718Y-129471851D01*
X92442726Y-129471860D01*
X92628140Y-129657274D01*
X92628148Y-129657281D01*
X92836196Y-129816924D01*
X93063299Y-129948041D01*
X93063309Y-129948046D01*
X93283281Y-130039161D01*
X93305581Y-130048398D01*
X93558884Y-130116270D01*
X93818880Y-130150500D01*
X93818887Y-130150500D01*
X94081113Y-130150500D01*
X94081120Y-130150500D01*
X94341116Y-130116270D01*
X94594419Y-130048398D01*
X94836697Y-129948043D01*
X95063803Y-129816924D01*
X95271851Y-129657282D01*
X95271855Y-129657277D01*
X95271860Y-129657274D01*
X95457274Y-129471860D01*
X95457277Y-129471855D01*
X95457282Y-129471851D01*
X95616924Y-129263803D01*
X95748043Y-129036697D01*
X95848398Y-128794419D01*
X95916270Y-128541116D01*
X95950500Y-128281120D01*
X95950500Y-128018880D01*
X95916270Y-127758884D01*
X95848398Y-127505581D01*
X95848394Y-127505571D01*
X95748046Y-127263309D01*
X95748041Y-127263299D01*
X95616924Y-127036196D01*
X95457281Y-126828148D01*
X95457274Y-126828140D01*
X95271860Y-126642726D01*
X95271851Y-126642718D01*
X95063803Y-126483075D01*
X94836700Y-126351958D01*
X94836690Y-126351953D01*
X94594428Y-126251605D01*
X94594421Y-126251603D01*
X94594419Y-126251602D01*
X94341116Y-126183730D01*
X94283339Y-126176123D01*
X94081127Y-126149500D01*
X94081120Y-126149500D01*
X93818880Y-126149500D01*
X93818872Y-126149500D01*
X93587772Y-126179926D01*
X93558884Y-126183730D01*
X93305581Y-126251602D01*
X93305571Y-126251605D01*
X93063309Y-126351953D01*
X93063299Y-126351958D01*
X92836196Y-126483075D01*
X92628148Y-126642718D01*
X92442718Y-126828148D01*
X92283075Y-127036196D01*
X92151958Y-127263299D01*
X92151953Y-127263309D01*
X92051605Y-127505571D01*
X92051602Y-127505581D01*
X91983730Y-127758885D01*
X91949500Y-128018872D01*
X80500500Y-128018872D01*
X80500500Y-115835258D01*
X92199500Y-115835258D01*
X92199500Y-116064741D01*
X92219904Y-116219714D01*
X92229452Y-116292238D01*
X92277664Y-116472169D01*
X92288842Y-116513887D01*
X92376650Y-116725876D01*
X92376657Y-116725890D01*
X92421555Y-116803655D01*
X92491228Y-116924334D01*
X92491392Y-116924617D01*
X92631081Y-117106661D01*
X92631089Y-117106670D01*
X92793330Y-117268911D01*
X92793338Y-117268918D01*
X92975382Y-117408607D01*
X92975385Y-117408608D01*
X92975388Y-117408611D01*
X93174112Y-117523344D01*
X93174117Y-117523346D01*
X93174123Y-117523349D01*
X93205745Y-117536447D01*
X93386113Y-117611158D01*
X93607762Y-117670548D01*
X93835266Y-117700500D01*
X93835273Y-117700500D01*
X94064727Y-117700500D01*
X94064734Y-117700500D01*
X94292238Y-117670548D01*
X94513887Y-117611158D01*
X94725888Y-117523344D01*
X94924612Y-117408611D01*
X95106661Y-117268919D01*
X95106665Y-117268914D01*
X95106670Y-117268911D01*
X95268911Y-117106670D01*
X95268914Y-117106665D01*
X95268919Y-117106661D01*
X95408611Y-116924612D01*
X95523344Y-116725888D01*
X95611158Y-116513887D01*
X95670548Y-116292238D01*
X95700500Y-116064734D01*
X95700500Y-115835266D01*
X95670548Y-115607762D01*
X95611158Y-115386113D01*
X95540398Y-115215283D01*
X95523349Y-115174123D01*
X95523346Y-115174117D01*
X95523344Y-115174112D01*
X95408611Y-114975388D01*
X95408608Y-114975385D01*
X95408607Y-114975382D01*
X95268918Y-114793338D01*
X95268911Y-114793330D01*
X95106670Y-114631089D01*
X95106661Y-114631081D01*
X94924617Y-114491392D01*
X94918499Y-114487860D01*
X94750923Y-114391110D01*
X94725890Y-114376657D01*
X94725876Y-114376650D01*
X94513887Y-114288842D01*
X94494353Y-114283608D01*
X94292238Y-114229452D01*
X94254215Y-114224446D01*
X94064741Y-114199500D01*
X94064734Y-114199500D01*
X93835266Y-114199500D01*
X93835258Y-114199500D01*
X93618715Y-114228009D01*
X93607762Y-114229452D01*
X93514076Y-114254554D01*
X93386112Y-114288842D01*
X93174123Y-114376650D01*
X93174109Y-114376657D01*
X92975382Y-114491392D01*
X92793338Y-114631081D01*
X92631081Y-114793338D01*
X92491392Y-114975382D01*
X92376657Y-115174109D01*
X92376650Y-115174123D01*
X92288842Y-115386112D01*
X92273147Y-115444687D01*
X92233752Y-115591716D01*
X92229453Y-115607759D01*
X92229451Y-115607770D01*
X92199500Y-115835258D01*
X80500500Y-115835258D01*
X80500500Y-113868872D01*
X97999500Y-113868872D01*
X97999500Y-114131127D01*
X98033729Y-114391110D01*
X98033730Y-114391116D01*
X98101602Y-114644418D01*
X98101605Y-114644428D01*
X98201953Y-114886690D01*
X98201958Y-114886700D01*
X98333075Y-115113803D01*
X98410945Y-115215283D01*
X98461392Y-115281027D01*
X98473875Y-115297294D01*
X98499070Y-115362463D01*
X98499500Y-115372781D01*
X98499500Y-117618097D01*
X98536446Y-117851368D01*
X98609433Y-118075996D01*
X98671192Y-118197204D01*
X98716657Y-118286434D01*
X98855483Y-118477510D01*
X100522490Y-120144517D01*
X100713566Y-120283343D01*
X100848724Y-120352209D01*
X100924003Y-120390566D01*
X100924005Y-120390566D01*
X100924008Y-120390568D01*
X101040920Y-120428555D01*
X101148631Y-120463553D01*
X101381903Y-120500500D01*
X101381908Y-120500500D01*
X106629448Y-120500500D01*
X106696487Y-120520185D01*
X106742242Y-120572989D01*
X106752186Y-120642147D01*
X106723161Y-120705703D01*
X106702336Y-120724816D01*
X106522490Y-120855483D01*
X106522488Y-120855485D01*
X106522487Y-120855485D01*
X104855484Y-122522488D01*
X104716657Y-122713565D01*
X104623961Y-122895493D01*
X104609433Y-122924003D01*
X104536446Y-123148631D01*
X104499500Y-123381902D01*
X104499500Y-126827218D01*
X104479815Y-126894257D01*
X104473882Y-126902695D01*
X104417697Y-126975916D01*
X104333072Y-127086201D01*
X104201958Y-127313299D01*
X104201953Y-127313309D01*
X104101605Y-127555571D01*
X104101602Y-127555581D01*
X104047128Y-127758884D01*
X104033730Y-127808885D01*
X103999500Y-128068872D01*
X103999500Y-128331127D01*
X104026123Y-128533339D01*
X104033730Y-128591116D01*
X104088205Y-128794419D01*
X104101602Y-128844418D01*
X104101605Y-128844428D01*
X104201953Y-129086690D01*
X104201958Y-129086700D01*
X104333075Y-129313803D01*
X104492718Y-129521851D01*
X104492726Y-129521860D01*
X104678140Y-129707274D01*
X104678148Y-129707281D01*
X104886196Y-129866924D01*
X105113299Y-129998041D01*
X105113309Y-129998046D01*
X105355571Y-130098394D01*
X105355581Y-130098398D01*
X105608884Y-130166270D01*
X105868880Y-130200500D01*
X105868887Y-130200500D01*
X106131113Y-130200500D01*
X106131120Y-130200500D01*
X106391116Y-130166270D01*
X106644419Y-130098398D01*
X106886697Y-129998043D01*
X107113803Y-129866924D01*
X107321851Y-129707282D01*
X107321855Y-129707277D01*
X107321860Y-129707274D01*
X107507274Y-129521860D01*
X107507277Y-129521855D01*
X107507282Y-129521851D01*
X107666924Y-129313803D01*
X107798043Y-129086697D01*
X107898398Y-128844419D01*
X107966270Y-128591116D01*
X108000500Y-128331120D01*
X108000500Y-128068880D01*
X107966270Y-127808884D01*
X107898398Y-127555581D01*
X107898394Y-127555571D01*
X107798046Y-127313309D01*
X107798041Y-127313299D01*
X107666927Y-127086201D01*
X107628557Y-127036197D01*
X107526123Y-126902703D01*
X107500930Y-126837536D01*
X107500500Y-126827218D01*
X107500500Y-124912781D01*
X115989500Y-124912781D01*
X115989500Y-125087218D01*
X116023527Y-125258283D01*
X116023529Y-125258291D01*
X116090278Y-125419439D01*
X116090283Y-125419448D01*
X116187186Y-125564473D01*
X116187189Y-125564477D01*
X116310522Y-125687810D01*
X116310526Y-125687813D01*
X116455551Y-125784716D01*
X116455557Y-125784719D01*
X116455558Y-125784720D01*
X116616709Y-125851471D01*
X116787781Y-125885499D01*
X116787785Y-125885500D01*
X116787786Y-125885500D01*
X116962215Y-125885500D01*
X116962216Y-125885499D01*
X117133291Y-125851471D01*
X117294442Y-125784720D01*
X117439474Y-125687813D01*
X117562813Y-125564474D01*
X117659720Y-125419442D01*
X117726471Y-125258291D01*
X117760500Y-125087214D01*
X117760500Y-124912786D01*
X117726471Y-124741709D01*
X117664339Y-124591709D01*
X117659721Y-124580560D01*
X117659716Y-124580551D01*
X117562813Y-124435526D01*
X117562810Y-124435522D01*
X117439477Y-124312189D01*
X117439473Y-124312186D01*
X117294448Y-124215283D01*
X117294439Y-124215278D01*
X117133291Y-124148529D01*
X117133283Y-124148527D01*
X116962218Y-124114500D01*
X116962214Y-124114500D01*
X116787786Y-124114500D01*
X116787781Y-124114500D01*
X116616716Y-124148527D01*
X116616708Y-124148529D01*
X116455560Y-124215278D01*
X116455551Y-124215283D01*
X116310526Y-124312186D01*
X116310522Y-124312189D01*
X116187189Y-124435522D01*
X116187186Y-124435526D01*
X116090283Y-124580551D01*
X116090278Y-124580560D01*
X116023529Y-124741708D01*
X116023527Y-124741716D01*
X115989500Y-124912781D01*
X107500500Y-124912781D01*
X107500500Y-124172889D01*
X107520185Y-124105850D01*
X107536819Y-124085208D01*
X108085208Y-123536819D01*
X108146531Y-123503334D01*
X108172889Y-123500500D01*
X115033097Y-123500500D01*
X115266368Y-123463553D01*
X115490992Y-123390568D01*
X115701433Y-123283343D01*
X115892510Y-123144517D01*
X116059517Y-122977510D01*
X116198343Y-122786433D01*
X116305568Y-122575992D01*
X116378553Y-122351368D01*
X116379751Y-122343799D01*
X116384295Y-122324875D01*
X116394709Y-122292826D01*
X116418484Y-122142716D01*
X116425500Y-122098422D01*
X116425500Y-121901577D01*
X116395235Y-121710495D01*
X116394709Y-121707174D01*
X116384293Y-121675117D01*
X116379752Y-121656203D01*
X116379268Y-121653147D01*
X116378553Y-121648632D01*
X116305568Y-121424008D01*
X116305566Y-121424005D01*
X116305566Y-121424003D01*
X116234494Y-121284518D01*
X116198343Y-121213567D01*
X116059517Y-121022490D01*
X115892510Y-120855483D01*
X115701433Y-120716657D01*
X115493057Y-120610484D01*
X115442262Y-120562511D01*
X115425467Y-120494690D01*
X115448004Y-120428555D01*
X115493057Y-120389515D01*
X115701433Y-120283343D01*
X115723139Y-120267571D01*
X115783424Y-120244531D01*
X115827797Y-120239999D01*
X115994334Y-120184814D01*
X116143655Y-120092711D01*
X116267711Y-119968655D01*
X116359814Y-119819334D01*
X116414999Y-119652797D01*
X116425500Y-119550008D01*
X116425500Y-118449992D01*
X116414999Y-118347203D01*
X116359814Y-118180666D01*
X116358585Y-118178674D01*
X116267713Y-118031348D01*
X116267710Y-118031344D01*
X116143655Y-117907289D01*
X116143651Y-117907286D01*
X115994337Y-117815187D01*
X115994335Y-117815186D01*
X115827798Y-117760001D01*
X115827791Y-117760000D01*
X115783421Y-117755467D01*
X115723141Y-117732428D01*
X115701435Y-117716658D01*
X115490996Y-117609433D01*
X115266368Y-117536446D01*
X115033097Y-117499500D01*
X115033092Y-117499500D01*
X107120766Y-117499500D01*
X107053727Y-117479815D01*
X107007972Y-117427011D01*
X106997031Y-117367391D01*
X106998064Y-117351617D01*
X106079409Y-116432962D01*
X106142993Y-116415925D01*
X106257007Y-116350099D01*
X106350099Y-116257007D01*
X106415925Y-116142993D01*
X106432962Y-116079409D01*
X107351617Y-116998064D01*
X107408192Y-116924334D01*
X107408197Y-116924327D01*
X107522893Y-116725668D01*
X107522901Y-116725653D01*
X107610681Y-116513730D01*
X107670057Y-116292137D01*
X107699998Y-116064710D01*
X107700000Y-116064694D01*
X107700000Y-115912781D01*
X115989500Y-115912781D01*
X115989500Y-116087218D01*
X116023527Y-116258283D01*
X116023529Y-116258291D01*
X116090278Y-116419439D01*
X116090283Y-116419448D01*
X116187186Y-116564473D01*
X116187189Y-116564477D01*
X116310522Y-116687810D01*
X116310526Y-116687813D01*
X116455551Y-116784716D01*
X116455557Y-116784719D01*
X116455558Y-116784720D01*
X116616709Y-116851471D01*
X116752459Y-116878473D01*
X116787781Y-116885499D01*
X116787785Y-116885500D01*
X116787786Y-116885500D01*
X116962215Y-116885500D01*
X116962216Y-116885499D01*
X117133291Y-116851471D01*
X117294442Y-116784720D01*
X117439474Y-116687813D01*
X117562813Y-116564474D01*
X117659720Y-116419442D01*
X117726471Y-116258291D01*
X117760500Y-116087214D01*
X117760500Y-115912786D01*
X117726471Y-115741709D01*
X117664339Y-115591709D01*
X117659721Y-115580560D01*
X117659716Y-115580551D01*
X117562813Y-115435526D01*
X117562810Y-115435522D01*
X117439477Y-115312189D01*
X117439473Y-115312186D01*
X117294448Y-115215283D01*
X117294439Y-115215278D01*
X117133291Y-115148529D01*
X117133283Y-115148527D01*
X116962218Y-115114500D01*
X116962214Y-115114500D01*
X116787786Y-115114500D01*
X116787781Y-115114500D01*
X116616716Y-115148527D01*
X116616708Y-115148529D01*
X116455560Y-115215278D01*
X116455551Y-115215283D01*
X116310526Y-115312186D01*
X116310522Y-115312189D01*
X116187189Y-115435522D01*
X116187186Y-115435526D01*
X116090283Y-115580551D01*
X116090278Y-115580560D01*
X116023529Y-115741708D01*
X116023527Y-115741716D01*
X115989500Y-115912781D01*
X107700000Y-115912781D01*
X107700000Y-115835305D01*
X107699998Y-115835289D01*
X107670057Y-115607862D01*
X107610681Y-115386269D01*
X107522897Y-115174340D01*
X107522893Y-115174330D01*
X107408194Y-114975666D01*
X107351618Y-114901934D01*
X107351617Y-114901934D01*
X106432962Y-115820589D01*
X106415925Y-115757007D01*
X106350099Y-115642993D01*
X106257007Y-115549901D01*
X106142993Y-115484075D01*
X106079407Y-115467037D01*
X106998064Y-114548381D01*
X106998064Y-114548380D01*
X106924331Y-114491805D01*
X106924324Y-114491799D01*
X106725669Y-114377106D01*
X106725659Y-114377102D01*
X106513730Y-114289318D01*
X106292137Y-114229942D01*
X106064710Y-114200001D01*
X106064694Y-114200000D01*
X105835306Y-114200000D01*
X105835289Y-114200001D01*
X105607862Y-114229942D01*
X105386269Y-114289318D01*
X105174340Y-114377102D01*
X105174330Y-114377106D01*
X104975673Y-114491801D01*
X104975659Y-114491810D01*
X104901934Y-114548380D01*
X105820590Y-115467037D01*
X105757007Y-115484075D01*
X105642993Y-115549901D01*
X105549901Y-115642993D01*
X105484075Y-115757007D01*
X105467037Y-115820590D01*
X104548380Y-114901934D01*
X104491810Y-114975659D01*
X104491801Y-114975673D01*
X104377106Y-115174330D01*
X104377102Y-115174340D01*
X104289318Y-115386269D01*
X104229942Y-115607862D01*
X104200001Y-115835289D01*
X104200000Y-115835305D01*
X104200000Y-116064694D01*
X104200001Y-116064710D01*
X104229942Y-116292137D01*
X104289318Y-116513730D01*
X104377099Y-116725653D01*
X104377106Y-116725669D01*
X104491799Y-116924324D01*
X104491805Y-116924331D01*
X104548381Y-116998064D01*
X105467037Y-116079408D01*
X105484075Y-116142993D01*
X105549901Y-116257007D01*
X105642993Y-116350099D01*
X105757007Y-116415925D01*
X105820590Y-116432962D01*
X104901934Y-117351617D01*
X104902968Y-117367391D01*
X104887709Y-117435574D01*
X104838011Y-117484684D01*
X104779233Y-117499500D01*
X102172889Y-117499500D01*
X102105850Y-117479815D01*
X102085208Y-117463181D01*
X101536819Y-116914792D01*
X101503334Y-116853469D01*
X101500500Y-116827111D01*
X101500500Y-115372781D01*
X101520185Y-115305742D01*
X101526125Y-115297294D01*
X101538608Y-115281027D01*
X101666924Y-115113803D01*
X101798043Y-114886697D01*
X101898398Y-114644419D01*
X101966270Y-114391116D01*
X101967010Y-114385500D01*
X101996109Y-114164473D01*
X102000500Y-114131120D01*
X102000500Y-113868880D01*
X101966270Y-113608884D01*
X101913725Y-113412781D01*
X116074500Y-113412781D01*
X116074500Y-113587218D01*
X116108527Y-113758283D01*
X116108529Y-113758291D01*
X116175278Y-113919439D01*
X116175283Y-113919448D01*
X116272186Y-114064473D01*
X116272189Y-114064477D01*
X116395522Y-114187810D01*
X116395526Y-114187813D01*
X116540551Y-114284716D01*
X116540560Y-114284721D01*
X116571148Y-114297391D01*
X116701709Y-114351471D01*
X116868845Y-114384716D01*
X116872781Y-114385499D01*
X116872785Y-114385500D01*
X116872786Y-114385500D01*
X117047215Y-114385500D01*
X117047216Y-114385499D01*
X117218291Y-114351471D01*
X117379442Y-114284720D01*
X117524474Y-114187813D01*
X117647813Y-114064474D01*
X117744720Y-113919442D01*
X117811471Y-113758291D01*
X117845500Y-113587214D01*
X117845500Y-113512781D01*
X129659500Y-113512781D01*
X129659500Y-113687218D01*
X129693527Y-113858283D01*
X129693529Y-113858291D01*
X129760278Y-114019439D01*
X129760283Y-114019448D01*
X129857186Y-114164473D01*
X129857189Y-114164477D01*
X129980522Y-114287810D01*
X129980526Y-114287813D01*
X130125551Y-114384716D01*
X130125560Y-114384721D01*
X130127441Y-114385500D01*
X130286709Y-114451471D01*
X130457781Y-114485499D01*
X130457785Y-114485500D01*
X130457786Y-114485500D01*
X130632215Y-114485500D01*
X130632216Y-114485499D01*
X130803291Y-114451471D01*
X130964442Y-114384720D01*
X131109474Y-114287813D01*
X131232813Y-114164474D01*
X131329720Y-114019442D01*
X131396471Y-113858291D01*
X131430500Y-113687214D01*
X131430500Y-113533080D01*
X137197500Y-113533080D01*
X137212207Y-113663617D01*
X137270123Y-113829131D01*
X137270125Y-113829134D01*
X137363408Y-113977592D01*
X137363413Y-113977598D01*
X137487401Y-114101586D01*
X137487407Y-114101591D01*
X137635865Y-114194874D01*
X137635868Y-114194876D01*
X137801382Y-114252792D01*
X137931919Y-114267499D01*
X137931920Y-114267500D01*
X138200000Y-114267500D01*
X138200000Y-113350000D01*
X137197500Y-113350000D01*
X137197500Y-113533080D01*
X131430500Y-113533080D01*
X131430500Y-113512786D01*
X131396471Y-113341709D01*
X131363095Y-113261133D01*
X131329721Y-113180560D01*
X131329716Y-113180551D01*
X131232813Y-113035526D01*
X131232810Y-113035522D01*
X131109477Y-112912189D01*
X131109473Y-112912186D01*
X130964448Y-112815283D01*
X130964439Y-112815278D01*
X130874455Y-112778006D01*
X130874453Y-112778005D01*
X130803295Y-112748530D01*
X130803283Y-112748527D01*
X130632218Y-112714500D01*
X130632214Y-112714500D01*
X130457786Y-112714500D01*
X130457781Y-112714500D01*
X130286716Y-112748527D01*
X130286708Y-112748529D01*
X130125560Y-112815278D01*
X130125551Y-112815283D01*
X129980526Y-112912186D01*
X129980522Y-112912189D01*
X129857189Y-113035522D01*
X129857186Y-113035526D01*
X129760283Y-113180551D01*
X129760278Y-113180560D01*
X129693529Y-113341708D01*
X129693527Y-113341716D01*
X129659500Y-113512781D01*
X117845500Y-113512781D01*
X117845500Y-113412786D01*
X117811471Y-113241709D01*
X117744720Y-113080558D01*
X117744719Y-113080557D01*
X117744716Y-113080551D01*
X117647813Y-112935526D01*
X117647810Y-112935522D01*
X117524477Y-112812189D01*
X117524473Y-112812186D01*
X117379448Y-112715283D01*
X117379439Y-112715278D01*
X117218291Y-112648529D01*
X117218283Y-112648527D01*
X117047218Y-112614500D01*
X117047214Y-112614500D01*
X116872786Y-112614500D01*
X116872781Y-112614500D01*
X116701716Y-112648527D01*
X116701708Y-112648529D01*
X116540560Y-112715278D01*
X116540551Y-112715283D01*
X116395526Y-112812186D01*
X116395522Y-112812189D01*
X116272189Y-112935522D01*
X116272186Y-112935526D01*
X116175283Y-113080551D01*
X116175278Y-113080560D01*
X116108529Y-113241708D01*
X116108527Y-113241716D01*
X116074500Y-113412781D01*
X101913725Y-113412781D01*
X101898398Y-113355581D01*
X101878405Y-113307313D01*
X101798046Y-113113309D01*
X101798041Y-113113299D01*
X101666924Y-112886196D01*
X101507281Y-112678148D01*
X101507274Y-112678140D01*
X101321860Y-112492726D01*
X101321851Y-112492718D01*
X101113803Y-112333075D01*
X100886700Y-112201958D01*
X100886690Y-112201953D01*
X100644428Y-112101605D01*
X100644421Y-112101603D01*
X100644419Y-112101602D01*
X100391116Y-112033730D01*
X100333339Y-112026123D01*
X100131127Y-111999500D01*
X100131120Y-111999500D01*
X99868880Y-111999500D01*
X99868872Y-111999500D01*
X99637772Y-112029926D01*
X99608884Y-112033730D01*
X99368953Y-112098019D01*
X99355581Y-112101602D01*
X99355571Y-112101605D01*
X99113309Y-112201953D01*
X99113299Y-112201958D01*
X98886196Y-112333075D01*
X98678148Y-112492718D01*
X98492718Y-112678148D01*
X98333075Y-112886196D01*
X98201958Y-113113299D01*
X98201953Y-113113309D01*
X98101605Y-113355571D01*
X98101603Y-113355578D01*
X98101602Y-113355581D01*
X98039536Y-113587218D01*
X98033730Y-113608885D01*
X97999500Y-113868872D01*
X80500500Y-113868872D01*
X80500500Y-110250000D01*
X113514016Y-110250000D01*
X114555440Y-110250000D01*
X114524755Y-110303147D01*
X114490000Y-110432857D01*
X114490000Y-110567143D01*
X114524755Y-110696853D01*
X114555440Y-110750000D01*
X113514016Y-110750000D01*
X113520781Y-110792716D01*
X113581581Y-110979837D01*
X113670904Y-111155143D01*
X113786555Y-111314321D01*
X113925678Y-111453444D01*
X114084856Y-111569095D01*
X114260164Y-111658418D01*
X114447294Y-111719221D01*
X114641618Y-111750000D01*
X114750000Y-111750000D01*
X114750000Y-110944560D01*
X114803147Y-110975245D01*
X114932857Y-111010000D01*
X115067143Y-111010000D01*
X115196853Y-110975245D01*
X115250000Y-110944560D01*
X115250000Y-111750000D01*
X115358382Y-111750000D01*
X115552705Y-111719221D01*
X115739835Y-111658418D01*
X115915143Y-111569095D01*
X116074321Y-111453444D01*
X116213444Y-111314321D01*
X116329095Y-111155143D01*
X116418418Y-110979837D01*
X116479218Y-110792716D01*
X116485984Y-110750000D01*
X115444560Y-110750000D01*
X115475245Y-110696853D01*
X115510000Y-110567143D01*
X115510000Y-110432857D01*
X115475245Y-110303147D01*
X115444560Y-110250000D01*
X116485984Y-110250000D01*
X116479218Y-110207283D01*
X116418418Y-110020162D01*
X116329095Y-109844856D01*
X116213444Y-109685678D01*
X116074321Y-109546555D01*
X115915143Y-109430904D01*
X115739835Y-109341581D01*
X115552705Y-109280778D01*
X115358382Y-109250000D01*
X115250000Y-109250000D01*
X115250000Y-110055439D01*
X115196853Y-110024755D01*
X115067143Y-109990000D01*
X114932857Y-109990000D01*
X114803147Y-110024755D01*
X114750000Y-110055439D01*
X114750000Y-109250000D01*
X114641618Y-109250000D01*
X114447294Y-109280778D01*
X114260164Y-109341581D01*
X114084856Y-109430904D01*
X113925678Y-109546555D01*
X113786555Y-109685678D01*
X113670904Y-109844856D01*
X113581581Y-110020162D01*
X113520781Y-110207283D01*
X113514016Y-110250000D01*
X80500500Y-110250000D01*
X80500500Y-95865186D01*
X82599500Y-95865186D01*
X82599500Y-96134813D01*
X82629686Y-96402719D01*
X82629688Y-96402731D01*
X82689684Y-96665594D01*
X82689687Y-96665602D01*
X82778734Y-96920082D01*
X82895714Y-97162994D01*
X82932352Y-97221303D01*
X83039162Y-97391289D01*
X83207266Y-97602085D01*
X83397915Y-97792734D01*
X83608711Y-97960838D01*
X83837003Y-98104284D01*
X84079921Y-98221267D01*
X84271049Y-98288145D01*
X84334397Y-98310312D01*
X84334405Y-98310315D01*
X84334408Y-98310315D01*
X84334409Y-98310316D01*
X84597268Y-98370312D01*
X84865187Y-98400499D01*
X84865188Y-98400500D01*
X84865191Y-98400500D01*
X85134812Y-98400500D01*
X85134812Y-98400499D01*
X85402732Y-98370312D01*
X85665591Y-98310316D01*
X85920079Y-98221267D01*
X86162997Y-98104284D01*
X86391289Y-97960838D01*
X86602085Y-97792734D01*
X86792734Y-97602085D01*
X86960838Y-97391289D01*
X87104284Y-97162997D01*
X87221267Y-96920079D01*
X87310316Y-96665591D01*
X87370312Y-96402732D01*
X87400500Y-96134809D01*
X87400500Y-95865191D01*
X87370312Y-95597268D01*
X87310316Y-95334409D01*
X87308369Y-95328846D01*
X87224149Y-95088158D01*
X87221267Y-95079921D01*
X87120570Y-94870821D01*
X87104285Y-94837005D01*
X87104284Y-94837003D01*
X86960838Y-94608711D01*
X86792734Y-94397915D01*
X86602085Y-94207266D01*
X86590024Y-94197648D01*
X92699500Y-94197648D01*
X92699500Y-95802351D01*
X92731522Y-96004534D01*
X92794781Y-96199223D01*
X92887712Y-96381609D01*
X92922669Y-96429723D01*
X92946148Y-96495530D01*
X92930322Y-96563583D01*
X92896661Y-96601874D01*
X92842455Y-96642452D01*
X92842452Y-96642455D01*
X92756206Y-96757664D01*
X92756202Y-96757671D01*
X92705908Y-96892517D01*
X92702945Y-96920082D01*
X92699501Y-96952123D01*
X92699500Y-96952135D01*
X92699500Y-99047870D01*
X92699501Y-99047876D01*
X92705908Y-99107483D01*
X92756202Y-99242328D01*
X92756206Y-99242335D01*
X92807169Y-99310412D01*
X92842454Y-99357546D01*
X92949811Y-99437914D01*
X92991682Y-99493847D01*
X92999500Y-99537180D01*
X92999500Y-100676082D01*
X92999500Y-105323918D01*
X92999500Y-105323920D01*
X92999499Y-105323920D01*
X93028340Y-105468907D01*
X93028343Y-105468917D01*
X93084914Y-105605492D01*
X93117812Y-105654727D01*
X93117813Y-105654730D01*
X93167046Y-105728414D01*
X93167052Y-105728421D01*
X94805980Y-107367348D01*
X94805984Y-107367351D01*
X94928898Y-107449480D01*
X94928911Y-107449487D01*
X95054669Y-107501577D01*
X95065487Y-107506058D01*
X95065491Y-107506058D01*
X95065492Y-107506059D01*
X95210479Y-107534900D01*
X95210482Y-107534900D01*
X95358317Y-107534900D01*
X108541118Y-107534900D01*
X108608157Y-107554585D01*
X108628799Y-107571219D01*
X109192235Y-108134655D01*
X109192264Y-108134686D01*
X109334714Y-108277136D01*
X109334718Y-108277139D01*
X109498579Y-108386628D01*
X109498592Y-108386635D01*
X109627333Y-108439961D01*
X109677383Y-108460692D01*
X109680664Y-108462051D01*
X109713865Y-108468655D01*
X109753888Y-108476616D01*
X109873956Y-108500500D01*
X109873959Y-108500500D01*
X109873960Y-108500500D01*
X110071040Y-108500500D01*
X113627772Y-108500500D01*
X113694811Y-108520185D01*
X113715453Y-108536819D01*
X113771344Y-108592710D01*
X113771348Y-108592713D01*
X113920662Y-108684812D01*
X113920664Y-108684813D01*
X113920666Y-108684814D01*
X114087203Y-108739999D01*
X114189992Y-108750500D01*
X114189997Y-108750500D01*
X115810003Y-108750500D01*
X115810008Y-108750500D01*
X115912797Y-108739999D01*
X116079334Y-108684814D01*
X116228655Y-108592711D01*
X116352711Y-108468655D01*
X116444814Y-108319334D01*
X116499999Y-108152797D01*
X116510500Y-108050008D01*
X116510500Y-106949992D01*
X116499999Y-106847203D01*
X116444814Y-106680666D01*
X116375864Y-106568882D01*
X116352713Y-106531348D01*
X116352710Y-106531344D01*
X116228655Y-106407289D01*
X116228651Y-106407286D01*
X116079337Y-106315187D01*
X116079335Y-106315186D01*
X115931700Y-106266265D01*
X115912797Y-106260001D01*
X115912795Y-106260000D01*
X115810015Y-106249500D01*
X115810008Y-106249500D01*
X114189992Y-106249500D01*
X114189984Y-106249500D01*
X114087204Y-106260000D01*
X114087203Y-106260001D01*
X113920664Y-106315186D01*
X113920662Y-106315187D01*
X113771348Y-106407286D01*
X113771344Y-106407289D01*
X113715453Y-106463181D01*
X113654130Y-106496666D01*
X113627772Y-106499500D01*
X110438282Y-106499500D01*
X110371243Y-106479815D01*
X110350601Y-106463181D01*
X110043719Y-106156299D01*
X110010234Y-106094976D01*
X110007400Y-106068618D01*
X110007400Y-104412781D01*
X116074500Y-104412781D01*
X116074500Y-104587218D01*
X116108527Y-104758283D01*
X116108529Y-104758291D01*
X116175278Y-104919439D01*
X116175283Y-104919448D01*
X116272186Y-105064473D01*
X116272189Y-105064477D01*
X116395522Y-105187810D01*
X116395526Y-105187813D01*
X116540551Y-105284716D01*
X116540557Y-105284719D01*
X116540558Y-105284720D01*
X116701709Y-105351471D01*
X116868845Y-105384716D01*
X116872781Y-105385499D01*
X116872785Y-105385500D01*
X116872786Y-105385500D01*
X117047215Y-105385500D01*
X117047216Y-105385499D01*
X117218291Y-105351471D01*
X117379442Y-105284720D01*
X117524474Y-105187813D01*
X117647813Y-105064474D01*
X117744720Y-104919442D01*
X117811471Y-104758291D01*
X117845500Y-104587214D01*
X117845500Y-104412786D01*
X117811471Y-104241709D01*
X117744720Y-104080558D01*
X117744719Y-104080557D01*
X117744716Y-104080551D01*
X117647813Y-103935526D01*
X117647810Y-103935522D01*
X117524477Y-103812189D01*
X117524473Y-103812186D01*
X117379448Y-103715283D01*
X117379439Y-103715278D01*
X117218291Y-103648529D01*
X117218283Y-103648527D01*
X117047218Y-103614500D01*
X117047214Y-103614500D01*
X116872786Y-103614500D01*
X116872781Y-103614500D01*
X116701716Y-103648527D01*
X116701708Y-103648529D01*
X116540560Y-103715278D01*
X116540551Y-103715283D01*
X116395526Y-103812186D01*
X116395522Y-103812189D01*
X116272189Y-103935522D01*
X116272186Y-103935526D01*
X116175283Y-104080551D01*
X116175278Y-104080560D01*
X116108529Y-104241708D01*
X116108527Y-104241716D01*
X116074500Y-104412781D01*
X110007400Y-104412781D01*
X110007400Y-98985413D01*
X110011894Y-98955120D01*
X110011649Y-98955072D01*
X110012644Y-98950068D01*
X110012742Y-98949410D01*
X110012834Y-98949104D01*
X110012837Y-98949097D01*
X110043600Y-98794442D01*
X110043600Y-98636758D01*
X110043600Y-98636755D01*
X110043599Y-98636753D01*
X110012837Y-98482103D01*
X110012835Y-98482098D01*
X109952497Y-98336427D01*
X109952490Y-98336414D01*
X109864889Y-98205311D01*
X109864886Y-98205307D01*
X109753392Y-98093813D01*
X109753388Y-98093810D01*
X109622285Y-98006209D01*
X109622272Y-98006202D01*
X109476601Y-97945864D01*
X109476589Y-97945861D01*
X109321945Y-97915100D01*
X109321942Y-97915100D01*
X109164258Y-97915100D01*
X109164255Y-97915100D01*
X109009610Y-97945861D01*
X109009598Y-97945864D01*
X108863927Y-98006202D01*
X108863914Y-98006209D01*
X108732811Y-98093810D01*
X108732807Y-98093813D01*
X108621313Y-98205307D01*
X108621310Y-98205311D01*
X108533709Y-98336414D01*
X108533702Y-98336427D01*
X108473364Y-98482098D01*
X108473361Y-98482110D01*
X108442600Y-98636753D01*
X108442600Y-98794446D01*
X108473361Y-98949089D01*
X108473363Y-98949097D01*
X108492885Y-98996228D01*
X108496961Y-99006067D01*
X108506400Y-99053520D01*
X108506400Y-105909900D01*
X108486715Y-105976939D01*
X108433911Y-106022694D01*
X108382400Y-106033900D01*
X95646629Y-106033900D01*
X95579590Y-106014215D01*
X95558948Y-105997581D01*
X94536819Y-104975451D01*
X94503334Y-104914128D01*
X94500500Y-104887770D01*
X94500500Y-101527000D01*
X94520185Y-101459961D01*
X94572989Y-101414206D01*
X94624500Y-101403000D01*
X96013520Y-101403000D01*
X96080559Y-101422685D01*
X96118514Y-101461028D01*
X96122168Y-101466843D01*
X96122169Y-101466845D01*
X96215519Y-101615412D01*
X96339588Y-101739481D01*
X96488155Y-101832831D01*
X96653768Y-101890782D01*
X96653774Y-101890782D01*
X96653776Y-101890783D01*
X96695341Y-101895466D01*
X96784390Y-101905499D01*
X96784393Y-101905500D01*
X96784396Y-101905500D01*
X97650607Y-101905500D01*
X97650608Y-101905499D01*
X97781232Y-101890782D01*
X97946845Y-101832831D01*
X98095412Y-101739481D01*
X98219481Y-101615412D01*
X98312831Y-101466845D01*
X98370782Y-101301232D01*
X98385438Y-101171153D01*
X104699500Y-101171153D01*
X104699500Y-101328846D01*
X104730261Y-101483489D01*
X104730264Y-101483501D01*
X104790602Y-101629172D01*
X104790609Y-101629185D01*
X104878210Y-101760288D01*
X104878213Y-101760292D01*
X104989707Y-101871786D01*
X104989711Y-101871789D01*
X105120814Y-101959390D01*
X105120827Y-101959397D01*
X105266498Y-102019735D01*
X105266503Y-102019737D01*
X105421153Y-102050499D01*
X105421156Y-102050500D01*
X105421158Y-102050500D01*
X105578844Y-102050500D01*
X105578845Y-102050499D01*
X105733497Y-102019737D01*
X105879179Y-101959394D01*
X106010289Y-101871789D01*
X106121789Y-101760289D01*
X106209394Y-101629179D01*
X106219191Y-101605524D01*
X106246069Y-101565297D01*
X107332952Y-100478416D01*
X107383478Y-100402797D01*
X107389017Y-100394507D01*
X107389018Y-100394505D01*
X107415084Y-100355495D01*
X107471658Y-100218913D01*
X107488470Y-100134396D01*
X107500500Y-100073920D01*
X107500500Y-96554604D01*
X107509939Y-96507151D01*
X107519737Y-96483497D01*
X107550500Y-96328842D01*
X107550500Y-96171158D01*
X107550500Y-96171155D01*
X107550499Y-96171153D01*
X107537438Y-96105491D01*
X107519737Y-96016503D01*
X107512694Y-95999500D01*
X107475277Y-95909164D01*
X107459795Y-95871789D01*
X107459394Y-95870821D01*
X107459392Y-95870818D01*
X107459390Y-95870814D01*
X107455629Y-95865186D01*
X112599500Y-95865186D01*
X112599500Y-96134813D01*
X112629686Y-96402719D01*
X112629688Y-96402731D01*
X112689684Y-96665594D01*
X112689687Y-96665602D01*
X112778734Y-96920082D01*
X112895714Y-97162994D01*
X112932352Y-97221303D01*
X113039162Y-97391289D01*
X113207266Y-97602085D01*
X113397915Y-97792734D01*
X113608711Y-97960838D01*
X113837003Y-98104284D01*
X114079921Y-98221267D01*
X114271049Y-98288145D01*
X114334397Y-98310312D01*
X114334405Y-98310315D01*
X114334408Y-98310315D01*
X114334409Y-98310316D01*
X114597268Y-98370312D01*
X114865187Y-98400499D01*
X114865188Y-98400500D01*
X114865191Y-98400500D01*
X115134812Y-98400500D01*
X115134812Y-98400499D01*
X115402732Y-98370312D01*
X115665591Y-98310316D01*
X115920079Y-98221267D01*
X116162997Y-98104284D01*
X116391289Y-97960838D01*
X116602085Y-97792734D01*
X116792734Y-97602085D01*
X116960838Y-97391289D01*
X117104284Y-97162997D01*
X117221267Y-96920079D01*
X117310316Y-96665591D01*
X117370312Y-96402732D01*
X117400500Y-96134809D01*
X117400500Y-95865191D01*
X117370312Y-95597268D01*
X117310316Y-95334409D01*
X117308369Y-95328846D01*
X117224149Y-95088158D01*
X117221267Y-95079921D01*
X117120570Y-94870821D01*
X117104285Y-94837005D01*
X117104284Y-94837003D01*
X116960838Y-94608711D01*
X116792734Y-94397915D01*
X116602085Y-94207266D01*
X116590024Y-94197648D01*
X116500979Y-94126637D01*
X116391289Y-94039162D01*
X116162997Y-93895716D01*
X116162994Y-93895714D01*
X115920082Y-93778734D01*
X115665602Y-93689687D01*
X115665594Y-93689684D01*
X115468446Y-93644687D01*
X115402732Y-93629688D01*
X115402728Y-93629687D01*
X115402719Y-93629686D01*
X115134813Y-93599500D01*
X115134809Y-93599500D01*
X114865191Y-93599500D01*
X114865186Y-93599500D01*
X114597280Y-93629686D01*
X114597268Y-93629688D01*
X114334405Y-93689684D01*
X114334397Y-93689687D01*
X114079917Y-93778734D01*
X113837005Y-93895714D01*
X113608712Y-94039161D01*
X113397915Y-94207265D01*
X113207265Y-94397915D01*
X113039161Y-94608712D01*
X112895714Y-94837005D01*
X112778734Y-95079917D01*
X112689687Y-95334397D01*
X112689684Y-95334405D01*
X112629688Y-95597268D01*
X112629686Y-95597280D01*
X112599500Y-95865186D01*
X107455629Y-95865186D01*
X107371789Y-95739711D01*
X107371786Y-95739707D01*
X107260292Y-95628213D01*
X107260288Y-95628210D01*
X107129185Y-95540609D01*
X107129172Y-95540602D01*
X106983501Y-95480264D01*
X106983489Y-95480261D01*
X106828845Y-95449500D01*
X106828842Y-95449500D01*
X106671158Y-95449500D01*
X106671155Y-95449500D01*
X106516510Y-95480261D01*
X106516498Y-95480264D01*
X106370827Y-95540602D01*
X106370814Y-95540609D01*
X106239711Y-95628210D01*
X106239707Y-95628213D01*
X106128213Y-95739707D01*
X106128210Y-95739711D01*
X106040609Y-95870814D01*
X106040602Y-95870827D01*
X105980264Y-96016498D01*
X105980261Y-96016510D01*
X105949500Y-96171153D01*
X105949500Y-96328846D01*
X105980261Y-96483489D01*
X105980263Y-96483497D01*
X105990061Y-96507151D01*
X105999500Y-96554604D01*
X105999500Y-99637769D01*
X105979815Y-99704808D01*
X105963181Y-99725450D01*
X105184703Y-100503927D01*
X105144480Y-100530805D01*
X105120819Y-100540606D01*
X105120818Y-100540607D01*
X104989715Y-100628207D01*
X104989707Y-100628213D01*
X104878213Y-100739707D01*
X104878210Y-100739711D01*
X104790609Y-100870814D01*
X104790602Y-100870827D01*
X104730264Y-101016498D01*
X104730261Y-101016510D01*
X104699500Y-101171153D01*
X98385438Y-101171153D01*
X98385500Y-101170604D01*
X98385500Y-100134396D01*
X98370782Y-100003768D01*
X98312831Y-99838155D01*
X98219481Y-99689588D01*
X98117574Y-99587681D01*
X98084089Y-99526358D01*
X98089073Y-99456666D01*
X98117574Y-99412319D01*
X98219481Y-99310412D01*
X98312831Y-99161845D01*
X98370782Y-98996232D01*
X98385500Y-98865604D01*
X98385500Y-97829396D01*
X98370782Y-97698768D01*
X98312831Y-97533155D01*
X98219481Y-97384588D01*
X98095412Y-97260519D01*
X98095411Y-97260518D01*
X98091023Y-97257761D01*
X98084606Y-97250506D01*
X98075797Y-97246483D01*
X98061837Y-97224761D01*
X98044735Y-97205424D01*
X98042252Y-97194286D01*
X98038023Y-97187705D01*
X98033000Y-97152770D01*
X98033000Y-97138070D01*
X98052685Y-97071031D01*
X98091027Y-97033077D01*
X98160412Y-96989481D01*
X98284481Y-96865412D01*
X98377831Y-96716845D01*
X98435782Y-96551232D01*
X98450500Y-96420604D01*
X98450500Y-95384396D01*
X98435782Y-95253768D01*
X98377831Y-95088155D01*
X98284481Y-94939588D01*
X98182574Y-94837681D01*
X98149089Y-94776358D01*
X98154073Y-94706666D01*
X98182574Y-94662319D01*
X98216686Y-94628207D01*
X98284481Y-94560412D01*
X98377831Y-94411845D01*
X98435782Y-94246232D01*
X98450500Y-94115604D01*
X98450500Y-93079396D01*
X98435782Y-92948768D01*
X98377831Y-92783155D01*
X98284481Y-92634588D01*
X98160412Y-92510519D01*
X98011845Y-92417169D01*
X98011844Y-92417168D01*
X98011843Y-92417168D01*
X98011841Y-92417167D01*
X97912419Y-92382378D01*
X97846232Y-92359218D01*
X97846230Y-92359217D01*
X97846228Y-92359217D01*
X97846223Y-92359216D01*
X97715610Y-92344500D01*
X97715604Y-92344500D01*
X96849396Y-92344500D01*
X96849389Y-92344500D01*
X96718776Y-92359216D01*
X96718771Y-92359217D01*
X96553158Y-92417167D01*
X96553156Y-92417168D01*
X96404587Y-92510519D01*
X96280519Y-92634587D01*
X96183514Y-92788972D01*
X96131180Y-92835263D01*
X96078520Y-92847000D01*
X95328582Y-92847000D01*
X95305336Y-92851624D01*
X95305335Y-92851624D01*
X95183595Y-92875839D01*
X95183592Y-92875840D01*
X95183588Y-92875841D01*
X95103580Y-92908981D01*
X95103578Y-92908981D01*
X95047006Y-92932415D01*
X94979201Y-92977721D01*
X94924086Y-93014547D01*
X94924081Y-93014551D01*
X94791227Y-93147403D01*
X94729904Y-93180887D01*
X94660212Y-93175902D01*
X94647252Y-93170206D01*
X94499223Y-93094782D01*
X94499222Y-93094781D01*
X94499219Y-93094780D01*
X94419035Y-93068726D01*
X94304534Y-93031522D01*
X94129995Y-93003878D01*
X94102352Y-92999500D01*
X93897648Y-92999500D01*
X93873329Y-93003351D01*
X93695465Y-93031522D01*
X93500776Y-93094781D01*
X93318386Y-93187715D01*
X93152786Y-93308028D01*
X93008028Y-93452786D01*
X92887715Y-93618386D01*
X92794781Y-93800776D01*
X92731522Y-93995465D01*
X92699500Y-94197648D01*
X86590024Y-94197648D01*
X86500979Y-94126637D01*
X86391289Y-94039162D01*
X86162997Y-93895716D01*
X86162994Y-93895714D01*
X85920082Y-93778734D01*
X85665602Y-93689687D01*
X85665594Y-93689684D01*
X85468446Y-93644687D01*
X85402732Y-93629688D01*
X85402728Y-93629687D01*
X85402719Y-93629686D01*
X85134813Y-93599500D01*
X85134809Y-93599500D01*
X84865191Y-93599500D01*
X84865186Y-93599500D01*
X84597280Y-93629686D01*
X84597268Y-93629688D01*
X84334405Y-93689684D01*
X84334397Y-93689687D01*
X84079917Y-93778734D01*
X83837005Y-93895714D01*
X83608712Y-94039161D01*
X83397915Y-94207265D01*
X83207265Y-94397915D01*
X83039161Y-94608712D01*
X82895714Y-94837005D01*
X82778734Y-95079917D01*
X82689687Y-95334397D01*
X82689684Y-95334405D01*
X82629688Y-95597268D01*
X82629686Y-95597280D01*
X82599500Y-95865186D01*
X80500500Y-95865186D01*
X80500500Y-89684108D01*
X81499500Y-89684108D01*
X81499500Y-90315892D01*
X81511117Y-90359248D01*
X81533608Y-90443187D01*
X81566121Y-90499500D01*
X81599500Y-90557314D01*
X81692686Y-90650500D01*
X81806814Y-90716392D01*
X81934108Y-90750500D01*
X81934110Y-90750500D01*
X95815890Y-90750500D01*
X95815892Y-90750500D01*
X95943186Y-90716392D01*
X96057314Y-90650500D01*
X96150500Y-90557314D01*
X96216392Y-90443186D01*
X96250500Y-90315892D01*
X96250500Y-89684108D01*
X96216392Y-89556814D01*
X96150500Y-89442686D01*
X96057314Y-89349500D01*
X95999100Y-89315890D01*
X95943187Y-89283608D01*
X95854463Y-89259835D01*
X95815892Y-89249500D01*
X82065892Y-89249500D01*
X81934108Y-89249500D01*
X81806812Y-89283608D01*
X81692686Y-89349500D01*
X81692683Y-89349502D01*
X81599502Y-89442683D01*
X81599500Y-89442686D01*
X81533608Y-89556812D01*
X81533473Y-89557316D01*
X81499500Y-89684108D01*
X80500500Y-89684108D01*
X80500500Y-84865186D01*
X82599500Y-84865186D01*
X82599500Y-85134813D01*
X82629686Y-85402719D01*
X82629688Y-85402731D01*
X82689684Y-85665594D01*
X82689687Y-85665602D01*
X82778734Y-85920082D01*
X82895714Y-86162994D01*
X82903884Y-86175996D01*
X83039162Y-86391289D01*
X83207266Y-86602085D01*
X83397915Y-86792734D01*
X83608711Y-86960838D01*
X83837003Y-87104284D01*
X84079921Y-87221267D01*
X84271049Y-87288145D01*
X84334397Y-87310312D01*
X84334405Y-87310315D01*
X84334408Y-87310315D01*
X84334409Y-87310316D01*
X84597268Y-87370312D01*
X84865187Y-87400499D01*
X84865188Y-87400500D01*
X84865191Y-87400500D01*
X85134812Y-87400500D01*
X85134812Y-87400499D01*
X85402732Y-87370312D01*
X85665591Y-87310316D01*
X85920079Y-87221267D01*
X86162997Y-87104284D01*
X86391289Y-86960838D01*
X86602085Y-86792734D01*
X86792734Y-86602085D01*
X86960838Y-86391289D01*
X87104284Y-86162997D01*
X87221267Y-85920079D01*
X87310316Y-85665591D01*
X87370312Y-85402732D01*
X87400500Y-85134809D01*
X87400500Y-84865191D01*
X87400499Y-84865186D01*
X112599500Y-84865186D01*
X112599500Y-85134813D01*
X112629686Y-85402719D01*
X112629688Y-85402731D01*
X112689684Y-85665594D01*
X112689687Y-85665602D01*
X112778734Y-85920082D01*
X112895714Y-86162994D01*
X112903884Y-86175996D01*
X113039162Y-86391289D01*
X113207266Y-86602085D01*
X113397915Y-86792734D01*
X113608711Y-86960838D01*
X113837003Y-87104284D01*
X114079921Y-87221267D01*
X114271049Y-87288145D01*
X114334397Y-87310312D01*
X114334405Y-87310315D01*
X114334408Y-87310315D01*
X114334409Y-87310316D01*
X114597268Y-87370312D01*
X114865187Y-87400499D01*
X114865188Y-87400500D01*
X114865191Y-87400500D01*
X115134812Y-87400500D01*
X115134812Y-87400499D01*
X115402732Y-87370312D01*
X115665591Y-87310316D01*
X115920079Y-87221267D01*
X116162997Y-87104284D01*
X116391289Y-86960838D01*
X116602085Y-86792734D01*
X116792734Y-86602085D01*
X116960838Y-86391289D01*
X117104284Y-86162997D01*
X117221267Y-85920079D01*
X117310316Y-85665591D01*
X117370312Y-85402732D01*
X117400500Y-85134809D01*
X117400500Y-84865191D01*
X117370312Y-84597268D01*
X117310316Y-84334409D01*
X117221267Y-84079921D01*
X117104284Y-83837003D01*
X116960838Y-83608711D01*
X116792734Y-83397915D01*
X116602085Y-83207266D01*
X116391289Y-83039162D01*
X116162997Y-82895716D01*
X116162994Y-82895714D01*
X115920082Y-82778734D01*
X115665602Y-82689687D01*
X115665594Y-82689684D01*
X115468446Y-82644687D01*
X115402732Y-82629688D01*
X115402728Y-82629687D01*
X115402719Y-82629686D01*
X115134813Y-82599500D01*
X115134809Y-82599500D01*
X114865191Y-82599500D01*
X114865186Y-82599500D01*
X114597280Y-82629686D01*
X114597268Y-82629688D01*
X114334405Y-82689684D01*
X114334397Y-82689687D01*
X114079917Y-82778734D01*
X113837005Y-82895714D01*
X113608712Y-83039161D01*
X113397915Y-83207265D01*
X113207265Y-83397915D01*
X113039161Y-83608712D01*
X112895714Y-83837005D01*
X112778734Y-84079917D01*
X112689687Y-84334397D01*
X112689684Y-84334405D01*
X112629688Y-84597268D01*
X112629686Y-84597280D01*
X112599500Y-84865186D01*
X87400499Y-84865186D01*
X87370312Y-84597268D01*
X87310316Y-84334409D01*
X87221267Y-84079921D01*
X87104284Y-83837003D01*
X86960838Y-83608711D01*
X86792734Y-83397915D01*
X86602085Y-83207266D01*
X86391289Y-83039162D01*
X86162997Y-82895716D01*
X86162994Y-82895714D01*
X85920082Y-82778734D01*
X85665602Y-82689687D01*
X85665594Y-82689684D01*
X85468446Y-82644687D01*
X85402732Y-82629688D01*
X85402728Y-82629687D01*
X85402719Y-82629686D01*
X85134813Y-82599500D01*
X85134809Y-82599500D01*
X84865191Y-82599500D01*
X84865186Y-82599500D01*
X84597280Y-82629686D01*
X84597268Y-82629688D01*
X84334405Y-82689684D01*
X84334397Y-82689687D01*
X84079917Y-82778734D01*
X83837005Y-82895714D01*
X83608712Y-83039161D01*
X83397915Y-83207265D01*
X83207265Y-83397915D01*
X83039161Y-83608712D01*
X82895714Y-83837005D01*
X82778734Y-84079917D01*
X82689687Y-84334397D01*
X82689684Y-84334405D01*
X82629688Y-84597268D01*
X82629686Y-84597280D01*
X82599500Y-84865186D01*
X80500500Y-84865186D01*
X80500500Y-80662781D01*
X91404500Y-80662781D01*
X91404500Y-80837218D01*
X91438527Y-81008283D01*
X91438529Y-81008291D01*
X91505278Y-81169439D01*
X91505283Y-81169448D01*
X91602186Y-81314473D01*
X91602189Y-81314477D01*
X91725522Y-81437810D01*
X91725526Y-81437813D01*
X91870551Y-81534716D01*
X91870557Y-81534719D01*
X91870558Y-81534720D01*
X92031709Y-81601471D01*
X92202781Y-81635499D01*
X92202785Y-81635500D01*
X92202786Y-81635500D01*
X92377215Y-81635500D01*
X92377216Y-81635499D01*
X92548291Y-81601471D01*
X92709442Y-81534720D01*
X92854474Y-81437813D01*
X92977813Y-81314474D01*
X93074720Y-81169442D01*
X93141471Y-81008291D01*
X93175500Y-80837214D01*
X93175500Y-80662786D01*
X93141471Y-80491709D01*
X93074720Y-80330558D01*
X93074719Y-80330557D01*
X93074716Y-80330551D01*
X92977813Y-80185526D01*
X92977810Y-80185522D01*
X92854477Y-80062189D01*
X92854473Y-80062186D01*
X92709448Y-79965283D01*
X92709439Y-79965278D01*
X92548291Y-79898529D01*
X92548283Y-79898527D01*
X92377218Y-79864500D01*
X92377214Y-79864500D01*
X92202786Y-79864500D01*
X92202781Y-79864500D01*
X92031716Y-79898527D01*
X92031708Y-79898529D01*
X91870560Y-79965278D01*
X91870551Y-79965283D01*
X91725526Y-80062186D01*
X91725522Y-80062189D01*
X91602189Y-80185522D01*
X91602186Y-80185526D01*
X91505283Y-80330551D01*
X91505278Y-80330560D01*
X91438529Y-80491708D01*
X91438527Y-80491716D01*
X91404500Y-80662781D01*
X80500500Y-80662781D01*
X80500500Y-75235186D01*
X82599500Y-75235186D01*
X82599500Y-75504813D01*
X82629686Y-75772719D01*
X82629688Y-75772731D01*
X82689684Y-76035594D01*
X82689687Y-76035602D01*
X82778734Y-76290082D01*
X82895714Y-76532994D01*
X82895716Y-76532997D01*
X83039162Y-76761289D01*
X83123231Y-76866708D01*
X83196738Y-76958884D01*
X83207266Y-76972085D01*
X83397915Y-77162734D01*
X83608711Y-77330838D01*
X83837003Y-77474284D01*
X84079921Y-77591267D01*
X84219724Y-77640186D01*
X84334397Y-77680312D01*
X84334405Y-77680315D01*
X84334408Y-77680315D01*
X84334409Y-77680316D01*
X84597268Y-77740312D01*
X84865187Y-77770499D01*
X84865188Y-77770500D01*
X84865191Y-77770500D01*
X85134812Y-77770500D01*
X85134812Y-77770499D01*
X85402732Y-77740312D01*
X85665591Y-77680316D01*
X85920079Y-77591267D01*
X86162997Y-77474284D01*
X86391289Y-77330838D01*
X86555375Y-77199984D01*
X92739500Y-77199984D01*
X92739500Y-78300015D01*
X92750000Y-78402795D01*
X92750001Y-78402797D01*
X92777593Y-78486065D01*
X92805186Y-78569335D01*
X92805187Y-78569337D01*
X92897286Y-78718651D01*
X92897289Y-78718655D01*
X93021344Y-78842710D01*
X93021348Y-78842713D01*
X93170662Y-78934812D01*
X93170664Y-78934813D01*
X93170666Y-78934814D01*
X93337203Y-78989999D01*
X93439992Y-79000500D01*
X93439997Y-79000500D01*
X95060003Y-79000500D01*
X95060008Y-79000500D01*
X95162797Y-78989999D01*
X95329334Y-78934814D01*
X95478655Y-78842711D01*
X95602711Y-78718655D01*
X95694814Y-78569334D01*
X95749999Y-78402797D01*
X95760500Y-78300008D01*
X95760500Y-78274984D01*
X101749500Y-78274984D01*
X101749500Y-79895015D01*
X101760000Y-79997795D01*
X101760001Y-79997797D01*
X101787593Y-80081065D01*
X101815186Y-80164335D01*
X101815187Y-80164337D01*
X101907286Y-80313651D01*
X101907289Y-80313655D01*
X102031344Y-80437710D01*
X102031348Y-80437713D01*
X102180662Y-80529812D01*
X102180664Y-80529813D01*
X102180666Y-80529814D01*
X102347203Y-80584999D01*
X102449992Y-80595500D01*
X102449997Y-80595500D01*
X103550003Y-80595500D01*
X103550008Y-80595500D01*
X103652797Y-80584999D01*
X103819334Y-80529814D01*
X103968655Y-80437711D01*
X104092711Y-80313655D01*
X104184814Y-80164334D01*
X104239999Y-79997797D01*
X104250500Y-79895008D01*
X104250500Y-78726577D01*
X104749500Y-78726577D01*
X104749500Y-79443422D01*
X104780290Y-79637826D01*
X104841117Y-79825029D01*
X104929146Y-79997795D01*
X104930476Y-80000405D01*
X105046172Y-80159646D01*
X105185354Y-80298828D01*
X105344595Y-80414524D01*
X105427455Y-80456743D01*
X105519970Y-80503882D01*
X105519972Y-80503882D01*
X105519975Y-80503884D01*
X105599773Y-80529812D01*
X105707173Y-80564709D01*
X105901578Y-80595500D01*
X105901583Y-80595500D01*
X106098422Y-80595500D01*
X106292826Y-80564709D01*
X106317130Y-80556812D01*
X106480025Y-80503884D01*
X106655405Y-80414524D01*
X106814646Y-80298828D01*
X106953828Y-80159646D01*
X107069524Y-80000405D01*
X107158884Y-79825025D01*
X107219709Y-79637826D01*
X107250500Y-79443422D01*
X107250500Y-78726577D01*
X107219709Y-78532173D01*
X107191487Y-78445317D01*
X107158884Y-78344975D01*
X107158882Y-78344972D01*
X107158882Y-78344970D01*
X107089800Y-78209390D01*
X107069524Y-78169595D01*
X106953828Y-78010354D01*
X106814646Y-77871172D01*
X106655405Y-77755476D01*
X106625642Y-77740311D01*
X106480029Y-77666117D01*
X106292826Y-77605290D01*
X106098422Y-77574500D01*
X106098417Y-77574500D01*
X105901583Y-77574500D01*
X105901578Y-77574500D01*
X105707173Y-77605290D01*
X105519970Y-77666117D01*
X105344594Y-77755476D01*
X105323916Y-77770500D01*
X105185354Y-77871172D01*
X105185352Y-77871174D01*
X105185351Y-77871174D01*
X105046174Y-78010351D01*
X105046174Y-78010352D01*
X105046172Y-78010354D01*
X105046067Y-78010499D01*
X104930476Y-78169594D01*
X104841117Y-78344970D01*
X104780290Y-78532173D01*
X104749500Y-78726577D01*
X104250500Y-78726577D01*
X104250500Y-78274992D01*
X104239999Y-78172203D01*
X104184814Y-78005666D01*
X104177882Y-77994428D01*
X104092713Y-77856348D01*
X104092710Y-77856344D01*
X103968655Y-77732289D01*
X103968651Y-77732286D01*
X103819337Y-77640187D01*
X103819335Y-77640186D01*
X103676915Y-77592993D01*
X103652797Y-77585001D01*
X103652795Y-77585000D01*
X103550015Y-77574500D01*
X103550008Y-77574500D01*
X102449992Y-77574500D01*
X102449984Y-77574500D01*
X102347204Y-77585000D01*
X102347203Y-77585001D01*
X102180664Y-77640186D01*
X102180662Y-77640187D01*
X102031348Y-77732286D01*
X102031344Y-77732289D01*
X101907289Y-77856344D01*
X101907286Y-77856348D01*
X101815187Y-78005662D01*
X101815186Y-78005664D01*
X101760001Y-78172203D01*
X101760000Y-78172204D01*
X101749500Y-78274984D01*
X95760500Y-78274984D01*
X95760500Y-77199992D01*
X95749999Y-77097203D01*
X95730308Y-77037781D01*
X99114500Y-77037781D01*
X99114500Y-77212218D01*
X99148527Y-77383283D01*
X99148529Y-77383291D01*
X99215278Y-77544439D01*
X99215283Y-77544448D01*
X99312186Y-77689473D01*
X99312189Y-77689477D01*
X99435522Y-77812810D01*
X99435526Y-77812813D01*
X99580551Y-77909716D01*
X99580557Y-77909719D01*
X99580558Y-77909720D01*
X99741709Y-77976471D01*
X99888474Y-78005664D01*
X99912781Y-78010499D01*
X99912785Y-78010500D01*
X99912786Y-78010500D01*
X100087215Y-78010500D01*
X100087216Y-78010499D01*
X100258291Y-77976471D01*
X100419442Y-77909720D01*
X100564474Y-77812813D01*
X100687813Y-77689474D01*
X100784720Y-77544442D01*
X100851471Y-77383291D01*
X100885500Y-77212214D01*
X100885500Y-77037786D01*
X100885499Y-77037781D01*
X108114500Y-77037781D01*
X108114500Y-77212218D01*
X108148527Y-77383283D01*
X108148529Y-77383291D01*
X108215278Y-77544439D01*
X108215283Y-77544448D01*
X108312186Y-77689473D01*
X108312189Y-77689477D01*
X108435522Y-77812810D01*
X108435526Y-77812813D01*
X108580551Y-77909716D01*
X108580557Y-77909719D01*
X108580558Y-77909720D01*
X108741709Y-77976471D01*
X108888474Y-78005664D01*
X108912781Y-78010499D01*
X108912785Y-78010500D01*
X108912786Y-78010500D01*
X109087215Y-78010500D01*
X109087216Y-78010499D01*
X109258291Y-77976471D01*
X109419442Y-77909720D01*
X109564474Y-77812813D01*
X109687813Y-77689474D01*
X109784720Y-77544442D01*
X109851471Y-77383291D01*
X109885500Y-77212214D01*
X109885500Y-77037786D01*
X109851471Y-76866709D01*
X109784730Y-76705581D01*
X109784721Y-76705560D01*
X109784716Y-76705551D01*
X109687813Y-76560526D01*
X109687810Y-76560522D01*
X109564477Y-76437189D01*
X109564473Y-76437186D01*
X109419448Y-76340283D01*
X109419439Y-76340278D01*
X109258291Y-76273529D01*
X109258283Y-76273527D01*
X109087218Y-76239500D01*
X109087214Y-76239500D01*
X108912786Y-76239500D01*
X108912781Y-76239500D01*
X108741716Y-76273527D01*
X108741708Y-76273529D01*
X108580560Y-76340278D01*
X108580551Y-76340283D01*
X108435526Y-76437186D01*
X108435522Y-76437189D01*
X108312189Y-76560522D01*
X108312186Y-76560526D01*
X108215283Y-76705551D01*
X108215278Y-76705560D01*
X108148529Y-76866708D01*
X108148527Y-76866716D01*
X108114500Y-77037781D01*
X100885499Y-77037781D01*
X100851471Y-76866709D01*
X100784730Y-76705581D01*
X100784721Y-76705560D01*
X100784716Y-76705551D01*
X100687813Y-76560526D01*
X100687810Y-76560522D01*
X100564477Y-76437189D01*
X100564473Y-76437186D01*
X100419448Y-76340283D01*
X100419439Y-76340278D01*
X100258291Y-76273529D01*
X100258283Y-76273527D01*
X100087218Y-76239500D01*
X100087214Y-76239500D01*
X99912786Y-76239500D01*
X99912781Y-76239500D01*
X99741716Y-76273527D01*
X99741708Y-76273529D01*
X99580560Y-76340278D01*
X99580551Y-76340283D01*
X99435526Y-76437186D01*
X99435522Y-76437189D01*
X99312189Y-76560522D01*
X99312186Y-76560526D01*
X99215283Y-76705551D01*
X99215278Y-76705560D01*
X99148529Y-76866708D01*
X99148527Y-76866716D01*
X99114500Y-77037781D01*
X95730308Y-77037781D01*
X95708539Y-76972085D01*
X95694814Y-76930666D01*
X95602711Y-76781345D01*
X95478655Y-76657289D01*
X95478651Y-76657286D01*
X95329337Y-76565187D01*
X95329335Y-76565186D01*
X95232185Y-76532994D01*
X95162797Y-76510001D01*
X95162795Y-76510000D01*
X95060015Y-76499500D01*
X95060008Y-76499500D01*
X93439992Y-76499500D01*
X93439984Y-76499500D01*
X93337204Y-76510000D01*
X93337203Y-76510001D01*
X93170664Y-76565186D01*
X93170662Y-76565187D01*
X93021348Y-76657286D01*
X93021344Y-76657289D01*
X92897289Y-76781344D01*
X92897286Y-76781348D01*
X92805187Y-76930662D01*
X92805186Y-76930664D01*
X92750001Y-77097203D01*
X92750000Y-77097204D01*
X92739500Y-77199984D01*
X86555375Y-77199984D01*
X86602085Y-77162734D01*
X86792734Y-76972085D01*
X86960838Y-76761289D01*
X87104284Y-76532997D01*
X87221267Y-76290079D01*
X87310316Y-76035591D01*
X87370312Y-75772732D01*
X87400500Y-75504809D01*
X87400500Y-75235191D01*
X87378813Y-75042716D01*
X87371389Y-74976820D01*
X87370313Y-74967277D01*
X87370312Y-74967268D01*
X87310316Y-74704409D01*
X87238790Y-74500000D01*
X92764016Y-74500000D01*
X93805440Y-74500000D01*
X93774755Y-74553147D01*
X93740000Y-74682857D01*
X93740000Y-74817143D01*
X93774755Y-74946853D01*
X93805440Y-75000000D01*
X92764016Y-75000000D01*
X92770781Y-75042716D01*
X92831581Y-75229837D01*
X92920904Y-75405143D01*
X93036555Y-75564321D01*
X93175678Y-75703444D01*
X93334856Y-75819095D01*
X93510164Y-75908418D01*
X93697294Y-75969221D01*
X93891618Y-76000000D01*
X94000000Y-76000000D01*
X94000000Y-75194560D01*
X94053147Y-75225245D01*
X94182857Y-75260000D01*
X94317143Y-75260000D01*
X94446853Y-75225245D01*
X94500000Y-75194560D01*
X94500000Y-76000000D01*
X94608382Y-76000000D01*
X94802705Y-75969221D01*
X94989835Y-75908418D01*
X95165143Y-75819095D01*
X95324321Y-75703444D01*
X95463444Y-75564321D01*
X95579095Y-75405143D01*
X95665692Y-75235186D01*
X112599500Y-75235186D01*
X112599500Y-75504813D01*
X112629686Y-75772719D01*
X112629688Y-75772731D01*
X112689684Y-76035594D01*
X112689687Y-76035602D01*
X112778734Y-76290082D01*
X112895714Y-76532994D01*
X112895716Y-76532997D01*
X113039162Y-76761289D01*
X113123231Y-76866708D01*
X113196738Y-76958884D01*
X113207266Y-76972085D01*
X113397915Y-77162734D01*
X113608711Y-77330838D01*
X113837003Y-77474284D01*
X114079921Y-77591267D01*
X114219724Y-77640186D01*
X114334397Y-77680312D01*
X114334405Y-77680315D01*
X114334408Y-77680315D01*
X114334409Y-77680316D01*
X114597268Y-77740312D01*
X114865187Y-77770499D01*
X114865188Y-77770500D01*
X114865191Y-77770500D01*
X115134812Y-77770500D01*
X115134812Y-77770499D01*
X115402732Y-77740312D01*
X115665591Y-77680316D01*
X115920079Y-77591267D01*
X116162997Y-77474284D01*
X116391289Y-77330838D01*
X116602085Y-77162734D01*
X116792734Y-76972085D01*
X116960838Y-76761289D01*
X117104284Y-76532997D01*
X117221267Y-76290079D01*
X117310316Y-76035591D01*
X117370312Y-75772732D01*
X117400500Y-75504809D01*
X117400500Y-75235191D01*
X117370312Y-74967268D01*
X117310316Y-74704409D01*
X117221267Y-74449921D01*
X117134700Y-74270162D01*
X117104285Y-74207005D01*
X117033817Y-74094856D01*
X116960838Y-73978711D01*
X116792734Y-73767915D01*
X116602085Y-73577266D01*
X116391289Y-73409162D01*
X116162997Y-73265716D01*
X116162994Y-73265714D01*
X115920082Y-73148734D01*
X115665602Y-73059687D01*
X115665594Y-73059684D01*
X115468446Y-73014687D01*
X115402732Y-72999688D01*
X115402728Y-72999687D01*
X115402719Y-72999686D01*
X115134813Y-72969500D01*
X115134809Y-72969500D01*
X114865191Y-72969500D01*
X114865186Y-72969500D01*
X114597280Y-72999686D01*
X114597268Y-72999688D01*
X114334405Y-73059684D01*
X114334397Y-73059687D01*
X114079917Y-73148734D01*
X113837005Y-73265714D01*
X113608712Y-73409161D01*
X113397915Y-73577265D01*
X113207265Y-73767915D01*
X113039161Y-73978712D01*
X112895714Y-74207005D01*
X112778734Y-74449917D01*
X112689687Y-74704397D01*
X112689684Y-74704405D01*
X112629688Y-74967268D01*
X112629686Y-74967280D01*
X112599500Y-75235186D01*
X95665692Y-75235186D01*
X95668417Y-75229838D01*
X95680260Y-75193392D01*
X95680260Y-75193391D01*
X95729218Y-75042716D01*
X95735984Y-75000000D01*
X94694560Y-75000000D01*
X94725245Y-74946853D01*
X94760000Y-74817143D01*
X94760000Y-74682857D01*
X94725245Y-74553147D01*
X94694560Y-74500000D01*
X95735984Y-74500000D01*
X95729218Y-74457283D01*
X95668418Y-74270162D01*
X95579095Y-74094856D01*
X95463444Y-73935678D01*
X95324321Y-73796555D01*
X95165143Y-73680904D01*
X94989835Y-73591581D01*
X94802705Y-73530778D01*
X94608382Y-73500000D01*
X94500000Y-73500000D01*
X94500000Y-74305439D01*
X94446853Y-74274755D01*
X94317143Y-74240000D01*
X94182857Y-74240000D01*
X94053147Y-74274755D01*
X94000000Y-74305439D01*
X94000000Y-73500000D01*
X93891618Y-73500000D01*
X93697294Y-73530778D01*
X93510164Y-73591581D01*
X93334856Y-73680904D01*
X93175678Y-73796555D01*
X93036555Y-73935678D01*
X92920904Y-74094856D01*
X92831581Y-74270162D01*
X92770781Y-74457283D01*
X92764016Y-74500000D01*
X87238790Y-74500000D01*
X87221267Y-74449921D01*
X87134700Y-74270162D01*
X87104285Y-74207005D01*
X87033817Y-74094856D01*
X86960838Y-73978711D01*
X86792734Y-73767915D01*
X86602085Y-73577266D01*
X86391289Y-73409162D01*
X86162997Y-73265716D01*
X86162994Y-73265714D01*
X85920082Y-73148734D01*
X85665602Y-73059687D01*
X85665594Y-73059684D01*
X85468446Y-73014687D01*
X85402732Y-72999688D01*
X85402728Y-72999687D01*
X85402719Y-72999686D01*
X85134813Y-72969500D01*
X85134809Y-72969500D01*
X84865191Y-72969500D01*
X84865186Y-72969500D01*
X84597280Y-72999686D01*
X84597268Y-72999688D01*
X84334405Y-73059684D01*
X84334397Y-73059687D01*
X84079917Y-73148734D01*
X83837005Y-73265714D01*
X83608712Y-73409161D01*
X83397915Y-73577265D01*
X83207265Y-73767915D01*
X83039161Y-73978712D01*
X82895714Y-74207005D01*
X82778734Y-74449917D01*
X82689687Y-74704397D01*
X82689684Y-74704405D01*
X82629688Y-74967268D01*
X82629686Y-74967280D01*
X82599500Y-75235186D01*
X80500500Y-75235186D01*
X80500500Y-71662781D01*
X91404500Y-71662781D01*
X91404500Y-71837218D01*
X91438527Y-72008283D01*
X91438529Y-72008291D01*
X91505278Y-72169439D01*
X91505283Y-72169448D01*
X91602186Y-72314473D01*
X91602189Y-72314477D01*
X91725522Y-72437810D01*
X91725526Y-72437813D01*
X91870551Y-72534716D01*
X91870557Y-72534719D01*
X91870558Y-72534720D01*
X92031709Y-72601471D01*
X92202781Y-72635499D01*
X92202785Y-72635500D01*
X92202786Y-72635500D01*
X92377215Y-72635500D01*
X92377216Y-72635499D01*
X92548291Y-72601471D01*
X92709442Y-72534720D01*
X92854474Y-72437813D01*
X92977813Y-72314474D01*
X93074720Y-72169442D01*
X93141471Y-72008291D01*
X93175500Y-71837214D01*
X93175500Y-71662786D01*
X93141471Y-71491709D01*
X93074720Y-71330558D01*
X93074719Y-71330557D01*
X93074716Y-71330551D01*
X92977813Y-71185526D01*
X92977810Y-71185522D01*
X92854477Y-71062189D01*
X92854473Y-71062186D01*
X92709448Y-70965283D01*
X92709439Y-70965278D01*
X92548291Y-70898529D01*
X92548283Y-70898527D01*
X92397326Y-70868500D01*
X92397324Y-70868500D01*
X92377214Y-70864500D01*
X92202786Y-70864500D01*
X92182676Y-70868500D01*
X92182674Y-70868500D01*
X92031716Y-70898527D01*
X92031708Y-70898529D01*
X91870560Y-70965278D01*
X91870551Y-70965283D01*
X91725526Y-71062186D01*
X91725522Y-71062189D01*
X91602189Y-71185522D01*
X91602186Y-71185526D01*
X91505283Y-71330551D01*
X91505278Y-71330560D01*
X91438529Y-71491708D01*
X91438527Y-71491716D01*
X91404500Y-71662781D01*
X80500500Y-71662781D01*
X80500500Y-70744500D01*
X80520185Y-70677461D01*
X80572989Y-70631706D01*
X80624500Y-70620500D01*
X119426402Y-70620500D01*
X119493441Y-70640185D01*
G37*
%TD.AperFunction*%
%TD*%
M02*
