G04 #@! TF.GenerationSoftware,KiCad,Pcbnew,9.0.1*
G04 #@! TF.CreationDate,2025-11-10T14:07:32+08:00*
G04 #@! TF.ProjectId,IMD_TSMS_latch_logic,494d445f-5453-44d5-935f-6c617463685f,rev?*
G04 #@! TF.SameCoordinates,Original*
G04 #@! TF.FileFunction,Soldermask,Top*
G04 #@! TF.FilePolarity,Negative*
%FSLAX46Y46*%
G04 Gerber Fmt 4.6, Leading zero omitted, Abs format (unit mm)*
G04 Created by KiCad (PCBNEW 9.0.1) date 2025-11-10 14:07:32*
%MOMM*%
%LPD*%
G01*
G04 APERTURE LIST*
G04 Aperture macros list*
%AMRoundRect*
0 Rectangle with rounded corners*
0 $1 Rounding radius*
0 $2 $3 $4 $5 $6 $7 $8 $9 X,Y pos of 4 corners*
0 Add a 4 corners polygon primitive as box body*
4,1,4,$2,$3,$4,$5,$6,$7,$8,$9,$2,$3,0*
0 Add four circle primitives for the rounded corners*
1,1,$1+$1,$2,$3*
1,1,$1+$1,$4,$5*
1,1,$1+$1,$6,$7*
1,1,$1+$1,$8,$9*
0 Add four rect primitives between the rounded corners*
20,1,$1+$1,$2,$3,$4,$5,0*
20,1,$1+$1,$4,$5,$6,$7,0*
20,1,$1+$1,$6,$7,$8,$9,0*
20,1,$1+$1,$8,$9,$2,$3,0*%
G04 Aperture macros list end*
%ADD10RoundRect,0.150000X-0.587500X-0.150000X0.587500X-0.150000X0.587500X0.150000X-0.587500X0.150000X0*%
%ADD11O,2.020000X1.500000*%
%ADD12RoundRect,0.250001X0.759999X-0.499999X0.759999X0.499999X-0.759999X0.499999X-0.759999X-0.499999X0*%
%ADD13C,1.270000*%
%ADD14RoundRect,0.250000X0.450000X-0.350000X0.450000X0.350000X-0.450000X0.350000X-0.450000X-0.350000X0*%
%ADD15RoundRect,0.250000X-0.450000X0.350000X-0.450000X-0.350000X0.450000X-0.350000X0.450000X0.350000X0*%
%ADD16RoundRect,0.150000X-0.825000X-0.150000X0.825000X-0.150000X0.825000X0.150000X-0.825000X0.150000X0*%
%ADD17RoundRect,0.250000X-0.337500X-0.475000X0.337500X-0.475000X0.337500X0.475000X-0.337500X0.475000X0*%
%ADD18RoundRect,0.102000X-1.125000X-1.590000X1.125000X-1.590000X1.125000X1.590000X-1.125000X1.590000X0*%
%ADD19RoundRect,0.120600X-0.281400X1.111400X-0.281400X-1.111400X0.281400X-1.111400X0.281400X1.111400X0*%
%ADD20RoundRect,0.122100X-0.284900X1.109900X-0.284900X-1.109900X0.284900X-1.109900X0.284900X1.109900X0*%
%ADD21RoundRect,0.150000X-0.150000X0.825000X-0.150000X-0.825000X0.150000X-0.825000X0.150000X0.825000X0*%
%ADD22RoundRect,0.120600X-1.111400X-0.281400X1.111400X-0.281400X1.111400X0.281400X-1.111400X0.281400X0*%
%ADD23RoundRect,0.122100X-1.109900X-0.284900X1.109900X-0.284900X1.109900X0.284900X-1.109900X0.284900X0*%
%ADD24RoundRect,0.250000X0.350000X0.450000X-0.350000X0.450000X-0.350000X-0.450000X0.350000X-0.450000X0*%
%ADD25RoundRect,0.250000X-0.350000X-0.450000X0.350000X-0.450000X0.350000X0.450000X-0.350000X0.450000X0*%
%ADD26RoundRect,0.150000X0.587500X0.150000X-0.587500X0.150000X-0.587500X-0.150000X0.587500X-0.150000X0*%
%ADD27RoundRect,0.150000X-0.150000X0.587500X-0.150000X-0.587500X0.150000X-0.587500X0.150000X0.587500X0*%
%ADD28RoundRect,0.250000X0.325000X0.450000X-0.325000X0.450000X-0.325000X-0.450000X0.325000X-0.450000X0*%
%ADD29R,1.600000X1.600000*%
%ADD30C,1.600000*%
%ADD31RoundRect,0.250000X-0.475000X0.337500X-0.475000X-0.337500X0.475000X-0.337500X0.475000X0.337500X0*%
%ADD32RoundRect,0.250000X0.337500X0.475000X-0.337500X0.475000X-0.337500X-0.475000X0.337500X-0.475000X0*%
%ADD33RoundRect,0.250000X0.475000X-0.337500X0.475000X0.337500X-0.475000X0.337500X-0.475000X-0.337500X0*%
%ADD34C,4.300000*%
%ADD35C,3.000000*%
%ADD36C,2.500000*%
%ADD37RoundRect,0.250001X-0.759999X0.499999X-0.759999X-0.499999X0.759999X-0.499999X0.759999X0.499999X0*%
%ADD38RoundRect,0.250001X-0.499999X-0.759999X0.499999X-0.759999X0.499999X0.759999X-0.499999X0.759999X0*%
%ADD39O,1.500000X2.020000*%
%ADD40RoundRect,0.249999X-0.750001X-0.640001X0.750001X-0.640001X0.750001X0.640001X-0.750001X0.640001X0*%
G04 APERTURE END LIST*
D10*
X139773900Y-126579500D03*
X137898900Y-127529500D03*
X137898900Y-125629500D03*
D11*
X132435600Y-119075200D03*
D12*
X132435600Y-122075200D03*
D13*
X130475600Y-116075200D03*
X130475600Y-125075200D03*
D14*
X134594600Y-127635000D03*
X134594600Y-129635000D03*
D15*
X163728400Y-116916200D03*
X163728400Y-118916200D03*
X146567400Y-127787400D03*
X146567400Y-129787400D03*
D16*
X156046400Y-118084600D03*
X156046400Y-119354600D03*
X156046400Y-120624600D03*
X156046400Y-121894600D03*
X160996400Y-121894600D03*
X160996400Y-120624600D03*
X160996400Y-119354600D03*
X160996400Y-118084600D03*
D17*
X163558400Y-108737400D03*
X165633400Y-108737400D03*
X163634600Y-120980200D03*
X165709600Y-120980200D03*
X144475200Y-125450600D03*
X146550200Y-125450600D03*
X160993000Y-124663200D03*
X163068000Y-124663200D03*
D18*
X157734600Y-132410200D03*
X150824600Y-132410200D03*
D16*
X155280000Y-108695000D03*
X155280000Y-109965000D03*
X155280000Y-111235000D03*
X155280000Y-112505000D03*
X160230000Y-112505000D03*
X160230000Y-111235000D03*
X160230000Y-109965000D03*
X160230000Y-108695000D03*
D19*
X106810000Y-93630000D03*
X105540000Y-93630000D03*
X104270000Y-93630000D03*
X103000000Y-93630000D03*
X101730000Y-93630000D03*
X100460000Y-93630000D03*
X99190000Y-93630000D03*
X99190000Y-98870000D03*
D20*
X100455000Y-98870000D03*
D19*
X101730000Y-98870000D03*
X103000000Y-98870000D03*
X104270000Y-98870000D03*
X105540000Y-98870000D03*
X106810000Y-98870000D03*
D21*
X106695000Y-103525000D03*
X105425000Y-103525000D03*
X104155000Y-103525000D03*
X102885000Y-103525000D03*
X101615000Y-103525000D03*
X100345000Y-103525000D03*
X99075000Y-103525000D03*
X97805000Y-103525000D03*
X97805000Y-108475000D03*
X99075000Y-108475000D03*
X100345000Y-108475000D03*
X101615000Y-108475000D03*
X102885000Y-108475000D03*
X104155000Y-108475000D03*
X105425000Y-108475000D03*
X106695000Y-108475000D03*
D16*
X156380000Y-95520000D03*
X156380000Y-96790000D03*
X156380000Y-98060000D03*
X156380000Y-99330000D03*
X156380000Y-100600000D03*
X156380000Y-101870000D03*
X156380000Y-103140000D03*
X156380000Y-104410000D03*
X161330000Y-104410000D03*
X161330000Y-103140000D03*
X161330000Y-101870000D03*
X161330000Y-100600000D03*
X161330000Y-99330000D03*
X161330000Y-98060000D03*
X161330000Y-96790000D03*
X161330000Y-95520000D03*
D22*
X146605000Y-95655000D03*
X146605000Y-96925000D03*
X146605000Y-98195000D03*
X146605000Y-99465000D03*
X146605000Y-100735000D03*
X146605000Y-102005000D03*
X146605000Y-103275000D03*
X151845000Y-103275000D03*
D23*
X151845000Y-102010000D03*
D22*
X151845000Y-100735000D03*
X151845000Y-99465000D03*
X151845000Y-98195000D03*
X151845000Y-96925000D03*
X151845000Y-95655000D03*
D24*
X151841200Y-127736600D03*
X149841200Y-127736600D03*
D14*
X152222200Y-119348000D03*
X152222200Y-117348000D03*
X142392400Y-125393200D03*
X142392400Y-123393200D03*
D25*
X138496800Y-117627400D03*
X140496800Y-117627400D03*
X92415000Y-110195000D03*
X94415000Y-110195000D03*
D15*
X94697500Y-105597500D03*
X94697500Y-107597500D03*
D25*
X92415000Y-102945000D03*
X94415000Y-102945000D03*
D24*
X140847500Y-99217500D03*
X138847500Y-99217500D03*
D14*
X145250000Y-90250000D03*
X145250000Y-88250000D03*
D24*
X94750000Y-84335000D03*
X92750000Y-84335000D03*
D14*
X105250000Y-86835000D03*
X105250000Y-84835000D03*
D24*
X145000000Y-77501052D03*
X143000000Y-77501052D03*
X145000000Y-80641052D03*
X143000000Y-80641052D03*
X145000000Y-83817500D03*
X143000000Y-83817500D03*
X160505000Y-106600000D03*
X158505000Y-106600000D03*
D25*
X138505000Y-115350000D03*
X140505000Y-115350000D03*
X138750000Y-101500000D03*
X140750000Y-101500000D03*
D14*
X102750000Y-86835000D03*
X102750000Y-84835000D03*
D24*
X140750000Y-93250000D03*
X138750000Y-93250000D03*
D25*
X153750000Y-106750000D03*
X155750000Y-106750000D03*
D26*
X140687500Y-97200000D03*
X140687500Y-95300000D03*
X138812500Y-96250000D03*
D10*
X156186900Y-126075400D03*
X156186900Y-127975400D03*
X158061900Y-127025400D03*
D27*
X92397500Y-105660000D03*
X90497500Y-105660000D03*
X91447500Y-107535000D03*
D26*
X99937500Y-86285000D03*
X99937500Y-84385000D03*
X98062500Y-85335000D03*
D28*
X94775000Y-86835000D03*
X92725000Y-86835000D03*
X140275000Y-77500000D03*
X138225000Y-77500000D03*
X140275000Y-80640000D03*
X138225000Y-80640000D03*
X140275000Y-83850000D03*
X138225000Y-83850000D03*
X140627500Y-113067500D03*
X138577500Y-113067500D03*
X140780000Y-104100000D03*
X138730000Y-104100000D03*
D29*
X94000000Y-98000000D03*
D30*
X94000000Y-95500000D03*
D31*
X109250000Y-106962500D03*
X109250000Y-109037500D03*
D32*
X161792500Y-93350000D03*
X159717500Y-93350000D03*
X151892500Y-93465000D03*
X149817500Y-93465000D03*
D33*
X109250000Y-98537500D03*
X109250000Y-96462500D03*
D34*
X115000000Y-85000000D03*
D35*
X148755000Y-83350000D03*
D36*
X150705000Y-89400000D03*
D35*
X162905000Y-89400000D03*
X162955000Y-77350000D03*
D36*
X150705000Y-77400000D03*
D34*
X175502500Y-132120000D03*
D13*
X116960000Y-104500000D03*
X116960000Y-113500000D03*
D37*
X115000000Y-107500000D03*
D11*
X115000000Y-110500000D03*
D13*
X130540000Y-102750000D03*
X130540000Y-93750000D03*
D12*
X132500000Y-99750000D03*
D11*
X132500000Y-96750000D03*
D34*
X85000000Y-85000000D03*
D13*
X100000000Y-77125000D03*
X109000000Y-77125000D03*
D38*
X103000000Y-79085000D03*
D39*
X106000000Y-79085000D03*
D40*
X138740000Y-107080000D03*
X138740000Y-109620000D03*
X148270000Y-109620000D03*
X148270000Y-107080000D03*
D34*
X115000000Y-75370000D03*
D13*
X130545000Y-91600000D03*
X130545000Y-82600000D03*
D12*
X132505000Y-88600000D03*
D11*
X132505000Y-85600000D03*
D13*
X116875000Y-116000000D03*
X116875000Y-125000000D03*
D37*
X114915000Y-119000000D03*
D11*
X114915000Y-122000000D03*
D34*
X125502500Y-75370000D03*
X175502500Y-75370000D03*
X85000000Y-132000000D03*
D13*
X175797600Y-115005600D03*
X175797600Y-124005600D03*
D37*
X173837600Y-118005600D03*
D11*
X173837600Y-121005600D03*
D34*
X125502500Y-132120000D03*
D35*
X100000000Y-114000000D03*
D36*
X93950000Y-115950000D03*
D35*
X93950000Y-128150000D03*
X106000000Y-128200000D03*
D36*
X105950000Y-115950000D03*
D34*
X85000000Y-96000000D03*
X115000000Y-132000000D03*
D13*
X130545000Y-113600000D03*
X130545000Y-104600000D03*
D12*
X132505000Y-110600000D03*
D11*
X132505000Y-107600000D03*
D13*
X92290000Y-80750000D03*
X92290000Y-71750000D03*
D12*
X94250000Y-77750000D03*
D11*
X94250000Y-74750000D03*
D34*
X115000000Y-96000000D03*
X85000000Y-75370000D03*
M02*
