M48
; DRILL file {KiCad 8.0.2} date 2025-03-10T15:18:08+0800
; FORMAT={-:-/ absolute / metric / decimal}
; #@! TF.CreationDate,2025-03-10T15:18:08+08:00
; #@! TF.GenerationSoftware,Kicad,Pcbnew,8.0.2
; #@! TF.FileFunction,Plated,1,2,PTH
FMAT,2
METRIC
; #@! TA.AperFunction,Plated,PTH,ComponentDrill
T1C0.200
; #@! TA.AperFunction,Plated,PTH,ViaDrill
T2C0.300
; #@! TA.AperFunction,Plated,PTH,ViaDrill
T3C0.500
; #@! TA.AperFunction,Plated,PTH,ComponentDrill
T4C0.600
; #@! TA.AperFunction,Plated,PTH,ComponentDrill
T5C0.800
; #@! TA.AperFunction,Plated,PTH,ComponentDrill
T6C0.950
; #@! TA.AperFunction,Plated,PTH,ComponentDrill
T7C1.000
; #@! TA.AperFunction,Plated,PTH,ComponentDrill
T8C1.100
; #@! TA.AperFunction,Plated,PTH,ComponentDrill
T9C1.700
%
G90
G05
T1
X164.0Y-62.75
X164.0Y-64.25
X164.75Y-62.0
X164.75Y-63.5
X164.75Y-65.0
X165.5Y-62.75
X165.5Y-64.25
X166.25Y-62.0
X166.25Y-63.5
X166.25Y-65.0
X167.0Y-62.75
X167.0Y-64.25
T2
X105.0Y-130.0
X106.5Y-121.6
X106.7Y-114.3
X106.8Y-106.9
X107.0Y-80.5
X107.0Y-82.5
X109.0Y-130.0
X111.807Y-141.784
X113.5Y-94.0
X113.5Y-100.0
X114.0Y-130.0
X114.0Y-133.0
X114.15Y-119.55
X114.2Y-105.4
X114.2Y-112.6
X114.2Y-127.4
X115.1Y-140.762
X115.5Y-53.5
X115.5Y-55.0
X115.5Y-56.5
X115.5Y-58.0
X115.5Y-59.5
X115.5Y-61.0
X115.6Y-74.7
X116.0Y-94.0
X116.0Y-100.0
X119.0Y-130.0
X119.0Y-133.0
X119.2Y-143.2
X119.3Y-102.0
X119.3Y-119.8
X120.5Y-74.7
X123.0Y-130.0
X123.0Y-133.0
X124.2Y-102.0
X124.4Y-89.8
X124.4Y-96.8
X125.0Y-53.5
X125.0Y-55.0
X125.0Y-56.5
X125.0Y-58.0
X125.0Y-59.5
X125.0Y-61.0
X127.2Y-76.0
X127.5Y-145.637
X128.7Y-130.0
X128.8Y-136.2
X129.2Y-102.0
X129.2Y-119.8
X130.2Y-96.8
X130.293Y-144.331
X130.301Y-89.902
X131.0Y-53.0
X131.075Y-57.375
X132.375Y-80.4
X133.0Y-115.0
X133.0Y-121.0
X136.0Y-119.0
X136.0Y-121.0
X136.8Y-73.6
X138.0Y-104.0
X138.0Y-107.0
X138.0Y-119.0
X138.0Y-121.0
X138.5Y-86.5
X138.5Y-89.0
X138.5Y-91.8
X138.9Y-73.7
X138.9Y-76.6
X138.9Y-79.5
X138.9Y-82.5
X139.1Y-144.3
X140.0Y-123.0
X140.0Y-129.0
X140.0Y-134.0
X140.0Y-139.0
X140.3Y-71.95
X140.9Y-89.1
X140.9Y-91.8
X140.9Y-104.0
X140.9Y-106.9
X140.9Y-117.7
X141.331Y-73.669
X141.331Y-76.64
X141.331Y-79.567
X141.331Y-82.5
X141.841Y-87.843
X141.9Y-57.0
X141.9Y-144.4
X142.45Y-88.362
X143.05Y-89.1
X144.3Y-104.0
X144.3Y-107.0
X144.4Y-63.0
X144.4Y-65.8
X144.4Y-91.5
X144.5Y-73.7
X144.5Y-76.7
X144.5Y-79.6
X144.5Y-82.5
X144.9Y-123.0
X144.9Y-129.0
X145.0Y-134.0
X145.0Y-139.0
X146.931Y-73.707
X146.931Y-76.64
X146.931Y-79.567
X146.931Y-82.5
X147.3Y-89.3
X148.6Y-63.0
X148.6Y-65.8
X148.6Y-68.4
X149.5Y-74.5
X149.5Y-77.5
X149.6Y-80.6
X152.0Y-58.2
X152.0Y-91.0
X152.0Y-99.1
X152.0Y-106.2
X152.0Y-112.0
X152.1Y-92.7
X152.3Y-82.1
X152.3Y-85.3
X154.6Y-99.2
X154.7Y-85.3
X154.7Y-91.4
X154.7Y-92.7
X154.7Y-106.2
X155.285Y-80.812
X155.5Y-76.0
X155.5Y-77.0
X155.5Y-78.5
X155.9Y-80.3
X156.5Y-84.5
X156.86Y-60.69
X156.9Y-58.2
X157.0Y-135.5
X157.0Y-139.0
X157.3Y-91.0
X157.3Y-92.6
X157.4Y-99.2
X157.5Y-82.0
X157.5Y-106.2
X157.5Y-112.0
X158.0Y-76.0
X158.0Y-77.0
X158.0Y-78.5
X159.0Y-115.0
X159.0Y-126.0
X159.0Y-129.0
X159.0Y-140.9
X159.4Y-83.2
X159.7Y-85.0
X159.875Y-76.785
X160.3Y-81.9
X160.5Y-57.8
X160.6Y-80.4
X161.0Y-66.95
X161.05Y-69.75
X161.5Y-85.0
X162.4Y-89.4
X162.5Y-83.2
X163.0Y-115.0
X163.0Y-120.0
X163.0Y-126.0
X163.0Y-129.0
X163.0Y-135.5
X164.9Y-83.7
X165.0Y-91.1
X165.4Y-92.5
X165.8Y-67.0
X165.8Y-69.8
X167.0Y-99.0
X167.0Y-104.0
X167.0Y-109.0
X167.0Y-113.0
X167.0Y-116.0
X167.0Y-121.0
X167.0Y-125.0
X167.0Y-130.0
X167.0Y-134.5
X167.3Y-85.9
X167.4Y-83.8
X167.6Y-88.7
X168.6Y-139.0
X170.15Y-66.95
X170.4Y-58.6
X170.4Y-61.4
X170.4Y-69.55
X170.5Y-64.0
X171.347Y-140.933
X171.684Y-85.507
X172.0Y-72.9
X172.0Y-125.0
X172.0Y-130.0
X172.0Y-134.5
X172.8Y-72.9
X172.816Y-58.6
X172.816Y-61.4
X172.835Y-82.4
X173.9Y-71.6
X174.0Y-63.5
X174.0Y-94.0
X174.0Y-99.0
X174.0Y-104.0
X174.0Y-109.0
X174.0Y-113.0
X174.0Y-116.0
X174.0Y-121.0
X174.116Y-85.5
X176.0Y-134.5
X176.0Y-140.0
X176.8Y-74.7
X176.86Y-63.23
X176.86Y-69.58
X177.0Y-124.0
X177.0Y-127.0
X177.8Y-81.329
X178.4Y-80.8
X179.015Y-81.312
X180.0Y-73.0
X180.0Y-95.0
X180.2Y-78.2
X180.6Y-63.9
X180.8Y-109.3
X181.0Y-89.0
X181.0Y-117.0
X181.0Y-121.0
X181.8Y-97.6
X181.8Y-104.2
X183.0Y-60.095
X183.0Y-61.365
X183.0Y-62.635
X183.1Y-66.5
X183.3Y-125.3
X184.9Y-58.5
X184.937Y-112.532
X186.0Y-117.0
X186.0Y-121.0
X186.2Y-73.5
X187.0Y-67.8
X187.0Y-102.5
X187.5Y-95.5
X188.25Y-66.445
X191.5Y-82.4
X192.0Y-136.0
X192.0Y-140.0
X192.4Y-125.3
X192.547Y-63.8
X192.547Y-70.2
X194.0Y-73.3
X194.2Y-60.6
X195.45Y-65.55
X195.5Y-67.35
X195.6Y-68.615
X196.3Y-66.264
X198.3Y-67.0
T3
X124.243Y-104.431
X127.5Y-141.762
X135.3Y-82.9
X135.3Y-90.4
X138.7Y-69.8
X147.2Y-105.4
X149.752Y-87.032
X160.5Y-60.216
X160.9Y-134.7
X162.391Y-86.934
X170.3Y-91.884
X178.884Y-114.7
T5
X107.75Y-65.0
X107.75Y-67.5
X131.0Y-65.1
X131.0Y-67.6
T6
X103.5Y-89.325
X103.5Y-96.725
X106.0Y-89.325
X106.0Y-96.725
X108.5Y-89.325
X108.5Y-96.725
X114.7Y-89.325
X114.7Y-96.725
X117.2Y-89.325
X117.2Y-96.725
X119.7Y-89.325
X119.7Y-96.725
X137.8Y-146.625
X140.3Y-146.625
X142.8Y-146.625
X148.85Y-146.625
X151.35Y-146.625
X153.391Y-96.0
X153.391Y-103.0
X153.391Y-110.0
X153.85Y-146.625
X155.891Y-96.0
X155.891Y-103.0
X155.891Y-110.0
X158.391Y-96.0
X158.391Y-103.0
X158.391Y-110.0
X160.05Y-146.625
X160.891Y-96.0
X160.891Y-103.0
X160.891Y-110.0
X162.55Y-146.625
X165.05Y-146.625
X179.8Y-146.625
X182.3Y-146.625
X184.8Y-146.625
X189.05Y-89.375
X191.5Y-96.175
X191.55Y-89.375
X191.6Y-103.15
X191.6Y-110.1
X191.7Y-117.075
X194.0Y-96.175
X194.05Y-89.375
X194.1Y-103.15
X194.1Y-110.1
X194.2Y-117.075
X196.5Y-96.175
X196.55Y-89.375
X196.6Y-103.15
X196.6Y-110.1
X196.7Y-117.075
T7
X103.5Y-103.7
X103.5Y-111.067
X103.5Y-118.433
X103.5Y-125.8
X106.0Y-103.7
X106.0Y-111.067
X106.0Y-118.433
X106.0Y-125.8
X171.2Y-146.625
X173.7Y-146.625
X188.025Y-124.05
X188.025Y-126.55
X196.925Y-124.15
X196.925Y-126.65
T8
X180.95Y-80.25
X180.95Y-84.75
X187.45Y-80.25
X187.45Y-84.75
X191.55Y-80.25
X191.55Y-84.75
X198.05Y-80.25
X198.05Y-84.75
T9
X104.45Y-74.547
X104.45Y-78.507
T4
G00X193.325Y-62.68
M15
G01X194.425Y-62.68
M16
G05
G00X193.325Y-71.32
M15
G01X194.425Y-71.32
M16
G05
G00X197.675Y-62.68
M15
G01X198.475Y-62.68
M16
G05
G00X197.675Y-71.32
M15
G01X198.475Y-71.32
M16
G05
M30
