%TF.GenerationSoftware,KiCad,Pcbnew,8.0.2*%
%TF.CreationDate,2025-03-10T15:18:04+08:00*%
%TF.ProjectId,sensorboard_v10,73656e73-6f72-4626-9f61-72645f763130,rev?*%
%TF.SameCoordinates,Original*%
%TF.FileFunction,Paste,Bot*%
%TF.FilePolarity,Positive*%
%FSLAX46Y46*%
G04 Gerber Fmt 4.6, Leading zero omitted, Abs format (unit mm)*
G04 Created by KiCad (PCBNEW 8.0.2) date 2025-03-10 15:18:04*
%MOMM*%
%LPD*%
G01*
G04 APERTURE LIST*
G04 Aperture macros list*
%AMRoundRect*
0 Rectangle with rounded corners*
0 $1 Rounding radius*
0 $2 $3 $4 $5 $6 $7 $8 $9 X,Y pos of 4 corners*
0 Add a 4 corners polygon primitive as box body*
4,1,4,$2,$3,$4,$5,$6,$7,$8,$9,$2,$3,0*
0 Add four circle primitives for the rounded corners*
1,1,$1+$1,$2,$3*
1,1,$1+$1,$4,$5*
1,1,$1+$1,$6,$7*
1,1,$1+$1,$8,$9*
0 Add four rect primitives between the rounded corners*
20,1,$1+$1,$2,$3,$4,$5,0*
20,1,$1+$1,$4,$5,$6,$7,0*
20,1,$1+$1,$6,$7,$8,$9,0*
20,1,$1+$1,$8,$9,$2,$3,0*%
G04 Aperture macros list end*
%ADD10RoundRect,0.305575X-0.460025X-0.412525X0.460025X-0.412525X0.460025X0.412525X-0.460025X0.412525X0*%
%ADD11RoundRect,0.308511X-0.457089X-0.416489X0.457089X-0.416489X0.457089X0.416489X-0.457089X0.416489X0*%
%ADD12RoundRect,0.305575X0.460025X0.412525X-0.460025X0.412525X-0.460025X-0.412525X0.460025X-0.412525X0*%
%ADD13RoundRect,0.308511X0.457089X0.416489X-0.457089X0.416489X-0.457089X-0.416489X0.457089X-0.416489X0*%
%ADD14RoundRect,0.278125X0.474375X0.389375X-0.474375X0.389375X-0.474375X-0.389375X0.474375X-0.389375X0*%
%ADD15RoundRect,0.336539X0.713461X0.538461X-0.713461X0.538461X-0.713461X-0.538461X0.713461X-0.538461X0*%
%ADD16RoundRect,0.278125X-0.474375X-0.389375X0.474375X-0.389375X0.474375X0.389375X-0.474375X0.389375X0*%
%ADD17RoundRect,0.305575X-0.412525X0.460025X-0.412525X-0.460025X0.412525X-0.460025X0.412525X0.460025X0*%
%ADD18RoundRect,0.308511X-0.416489X0.457089X-0.416489X-0.457089X0.416489X-0.457089X0.416489X0.457089X0*%
%ADD19RoundRect,0.150000X-1.600000X-0.150000X1.600000X-0.150000X1.600000X0.150000X-1.600000X0.150000X0*%
%ADD20RoundRect,0.200000X-0.200000X0.750000X-0.200000X-0.750000X0.200000X-0.750000X0.200000X0.750000X0*%
%ADD21RoundRect,0.250000X-1.500000X-0.650000X1.500000X-0.650000X1.500000X0.650000X-1.500000X0.650000X0*%
G04 APERTURE END LIST*
D10*
%TO.C,C15*%
X144500000Y-76647133D03*
D11*
X146931200Y-76640233D03*
%TD*%
D10*
%TO.C,C13*%
X138900000Y-73713800D03*
D11*
X141331200Y-73706900D03*
%TD*%
D12*
%TO.C,C24*%
X146931200Y-82500000D03*
D13*
X144500000Y-82506900D03*
%TD*%
D10*
%TO.C,C14*%
X144500000Y-73713800D03*
D11*
X146931200Y-73706900D03*
%TD*%
D12*
%TO.C,C22*%
X141331200Y-79566666D03*
D13*
X138900000Y-79573566D03*
%TD*%
D12*
%TO.C,C23*%
X141331200Y-82500000D03*
D13*
X138900000Y-82506900D03*
%TD*%
D14*
%TO.C,R19*%
X187305000Y-108500000D03*
X185000000Y-108500000D03*
%TD*%
D12*
%TO.C,C29*%
X159815600Y-76800000D03*
D13*
X157384400Y-76806900D03*
%TD*%
D15*
%TO.C,R25*%
X114150000Y-112600000D03*
X110250000Y-112600000D03*
%TD*%
D10*
%TO.C,C36*%
X171684400Y-85506900D03*
D11*
X174115600Y-85500000D03*
%TD*%
D16*
%TO.C,R2*%
X107047500Y-78432500D03*
X109352500Y-78432500D03*
%TD*%
D14*
%TO.C,R5*%
X187000000Y-71335000D03*
X184695000Y-71335000D03*
%TD*%
D15*
%TO.C,R24*%
X114150000Y-105400000D03*
X110250000Y-105400000D03*
%TD*%
%TO.C,R26*%
X114150000Y-119600000D03*
X110250000Y-119600000D03*
%TD*%
D16*
%TO.C,R41*%
X193997500Y-73282500D03*
X196302500Y-73282500D03*
%TD*%
D17*
%TO.C,C12*%
X133293100Y-65084400D03*
D18*
X133300000Y-67515600D03*
%TD*%
D14*
%TO.C,R42*%
X196502500Y-60617500D03*
X194197500Y-60617500D03*
%TD*%
D16*
%TO.C,R3*%
X107047500Y-80632500D03*
X109352500Y-80632500D03*
%TD*%
D17*
%TO.C,C3*%
X177993100Y-57784400D03*
D18*
X178000000Y-60215600D03*
%TD*%
D19*
%TO.C,U2*%
X181750000Y-66445000D03*
X181750000Y-65175000D03*
X181750000Y-63905000D03*
X181750000Y-62635000D03*
X181750000Y-61365000D03*
X181750000Y-60095000D03*
X181750000Y-58825000D03*
X181750000Y-57555000D03*
X188250000Y-57555000D03*
X188250000Y-58825000D03*
X188250000Y-60095000D03*
X188250000Y-61365000D03*
X188250000Y-62635000D03*
X188250000Y-63905000D03*
X188250000Y-65175000D03*
X188250000Y-66445000D03*
%TD*%
D12*
%TO.C,C38*%
X109331200Y-82693100D03*
D13*
X106900000Y-82700000D03*
%TD*%
D17*
%TO.C,C1*%
X160493100Y-57784400D03*
D18*
X160500000Y-60215600D03*
%TD*%
D20*
%TO.C,Q1*%
X188950000Y-69300000D03*
X190850000Y-69300000D03*
X189900000Y-72300000D03*
%TD*%
D14*
%TO.C,R20*%
X187305000Y-110500000D03*
X185000000Y-110500000D03*
%TD*%
D17*
%TO.C,C5*%
X189793100Y-74984400D03*
D18*
X189800000Y-77415600D03*
%TD*%
D17*
%TO.C,C6*%
X105493100Y-65084400D03*
D18*
X105500000Y-67515600D03*
%TD*%
D14*
%TO.C,R4*%
X186952500Y-69267500D03*
X184647500Y-69267500D03*
%TD*%
D12*
%TO.C,C31*%
X187368100Y-112525600D03*
D13*
X184936900Y-112532500D03*
%TD*%
D20*
%TO.C,Q2*%
X180850000Y-69300000D03*
X182750000Y-69300000D03*
X181800000Y-72300000D03*
%TD*%
D10*
%TO.C,C19*%
X170284400Y-69606900D03*
D11*
X172715600Y-69600000D03*
%TD*%
D21*
%TO.C,D2*%
X115600000Y-74700000D03*
X120600000Y-74700000D03*
%TD*%
D12*
%TO.C,C37*%
X172715600Y-91893100D03*
D13*
X170284400Y-91900000D03*
%TD*%
D10*
%TO.C,C17*%
X170384400Y-58606900D03*
D11*
X172815600Y-58600000D03*
%TD*%
D15*
%TO.C,R27*%
X114150000Y-127400000D03*
X110250000Y-127400000D03*
%TD*%
D10*
%TO.C,C20*%
X170384400Y-61406900D03*
D11*
X172815600Y-61400000D03*
%TD*%
D17*
%TO.C,C4*%
X181893100Y-74684400D03*
D18*
X181900000Y-77115600D03*
%TD*%
D10*
%TO.C,C16*%
X138900000Y-76647133D03*
D11*
X141331200Y-76640233D03*
%TD*%
D12*
%TO.C,C25*%
X146931200Y-79566666D03*
D13*
X144500000Y-79573566D03*
%TD*%
M02*
